<?xml version="1.0" encoding="UTF-8" standalone="no"?>
<svg
   version="1.1"
   x="0px"
   y="0px"
   width="256"
   height="256"
   viewBox="0 0 256 256.00001"
   enable-background="new 0 0 300 115"
   xml:space="preserve"
   id="svg181220"
   sodipodi:docname="msn.svg"
   inkscape:version="1.1.1 (3bf5ae0d25, 2021-09-20)"
   inkscape:export-filename="C:\Users\tjdru\OneDrive\Pictures\Logos\Internet\msnlogo2001.png"
   inkscape:export-xdpi="153.37462"
   inkscape:export-ydpi="153.37462"
   xmlns:inkscape="http://www.inkscape.org/namespaces/inkscape"
   xmlns:sodipodi="http://sodipodi.sourceforge.net/DTD/sodipodi-0.dtd"
   xmlns:xlink="http://www.w3.org/1999/xlink"
   xmlns="http://www.w3.org/2000/svg"
   xmlns:svg="http://www.w3.org/2000/svg"
   xmlns:rdf="http://www.w3.org/1999/02/22-rdf-syntax-ns#"
   xmlns:cc="http://creativecommons.org/ns#"
   xmlns:dc="http://purl.org/dc/elements/1.1/"><metadata
   id="metadata181226"><rdf:RDF><cc:Work
       rdf:about=""><dc:format>image/svg+xml</dc:format><dc:type
         rdf:resource="http://purl.org/dc/dcmitype/StillImage" /></cc:Work></rdf:RDF></metadata><defs
   id="defs181224">
	


		
		
	
			
			
		
			
			
		
				
				
				
			
				
					<linearGradient
   id="SVGID_1_"
   gradientUnits="userSpaceOnUse"
   x1="236.5762"
   y1="169.89059"
   x2="252.4729"
   y2="141.1055"
   gradientTransform="matrix(1.9313448,0,0,1.9313448,44.099303,-200.64293)">
					<stop
   offset="0"
   style="stop-color:#FFFFFF"
   id="stop181127" />
					<stop
   offset="0.0056"
   style="stop-color:#94CBEE"
   id="stop181129" />
					<stop
   offset="0.2111"
   style="stop-color:#76B7E5"
   id="stop181131" />
					<stop
   offset="0.6556"
   style="stop-color:#008ECF"
   id="stop181133" />
					<stop
   offset="0.8539"
   style="stop-color:#007FC5"
   id="stop181135" />
				</linearGradient>
				
				
					<linearGradient
   id="SVGID_2_"
   gradientUnits="userSpaceOnUse"
   x1="254.3887"
   y1="160.92191"
   x2="274.77151"
   y2="181.3047"
   gradientTransform="matrix(2.1127831,0,0,2.1127831,13.14061,-233.19792)">
					<stop
   offset="0"
   style="stop-color:#007FC5"
   id="stop181140" />
					<stop
   offset="0.0873"
   style="stop-color:#0088B2"
   id="stop181142" />
					<stop
   offset="0.2517"
   style="stop-color:#00968D"
   id="stop181144" />
					<stop
   offset="0.3859"
   style="stop-color:#009F6C"
   id="stop181146" />
					<stop
   offset="0.4832"
   style="stop-color:#00A555"
   id="stop181148" />
					<stop
   offset="0.5337"
   style="stop-color:#00A94F"
   id="stop181150" />
				</linearGradient>
				
				
					<linearGradient
   id="SVGID_3_"
   gradientUnits="userSpaceOnUse"
   x1="280.25391"
   y1="201.6445"
   x2="261.9498"
   y2="173.45869"
   gradientTransform="matrix(2.1127831,0,0,2.1127831,13.14061,-233.19792)">
					<stop
   offset="0.0955"
   style="stop-color:#00A94F"
   id="stop181155" />
					<stop
   offset="0.2436"
   style="stop-color:#00B156"
   id="stop181157" />
					<stop
   offset="0.4855"
   style="stop-color:#61BD65"
   id="stop181159" />
					<stop
   offset="0.7009"
   style="stop-color:#86C772"
   id="stop181161" />
					<stop
   offset="0.8798"
   style="stop-color:#9ACE7B"
   id="stop181163" />
					<stop
   offset="1"
   style="stop-color:#A1D07E"
   id="stop181165" />
				</linearGradient>
				
				
					<linearGradient
   id="SVGID_4_"
   gradientUnits="userSpaceOnUse"
   x1="299.10159"
   y1="198.21291"
   x2="295.44531"
   y2="165.6161"
   gradientTransform="matrix(2.1127831,0,0,2.1127831,12.727046,-242.062)">
					<stop
   offset="0"
   style="stop-color:#F4A656"
   id="stop181170" />
					<stop
   offset="0.29342386"
   style="stop-color:#FCCA25"
   id="stop181172" />
					<stop
   offset="0.4944"
   style="stop-color:#FCCA25"
   id="stop181174" />
				</linearGradient>
				
				
					<linearGradient
   id="SVGID_5_"
   gradientUnits="userSpaceOnUse"
   x1="273.0928"
   y1="165.3398"
   x2="311.6514"
   y2="165.3398"
   gradientTransform="matrix(2.1127831,0,0,2.1127831,11.944986,-232.2178)">
					<stop
   offset="0.2921"
   style="stop-color:#F4A656"
   id="stop181179" />
					<stop
   offset="1"
   style="stop-color:#E95A2F"
   id="stop181181" />
				</linearGradient>
				
				
					<linearGradient
   id="SVGID_6_"
   gradientUnits="userSpaceOnUse"
   x1="271.26859"
   y1="143.9473"
   x2="315.61929"
   y2="143.9473"
   gradientTransform="matrix(2.1127831,0,0,2.1127831,11.944986,-232.2178)">
					<stop
   offset="0.0169"
   style="stop-color:#F4A656"
   id="stop181186" />
					<stop
   offset="0.5393"
   style="stop-color:#E95A2F"
   id="stop181188" />
				</linearGradient>
				
				
					<linearGradient
   id="SVGID_7_"
   gradientUnits="userSpaceOnUse"
   x1="273.39651"
   y1="328.332"
   x2="262.50369"
   y2="332.733"
   gradientTransform="matrix(2.1127831,0,0,2.1127831,27.207942,-574.34224)">
					<stop
   offset="0.0449"
   style="stop-color:#3E5BA6"
   id="stop181193" />
					<stop
   offset="0.4719"
   style="stop-color:#6D7CBC"
   id="stop181195" />
					<stop
   offset="0.532"
   style="stop-color:#6373B6"
   id="stop181197" />
					<stop
   offset="0.6585"
   style="stop-color:#4F66AD"
   id="stop181199" />
					<stop
   offset="0.7748"
   style="stop-color:#435EA7"
   id="stop181201" />
					<stop
   offset="0.8708"
   style="stop-color:#3E5BA6"
   id="stop181203" />
					<stop
   offset="1"
   style="stop-color:#3E5BA6"
   id="stop181205" />
				</linearGradient>
				
			<linearGradient
   inkscape:collect="always"
   xlink:href="#SVGID_1_"
   id="linearGradient48840"
   gradientUnits="userSpaceOnUse"
   gradientTransform="matrix(2.1127831,0,0,2.1127831,12.727046,-242.062)"
   x1="236.5762"
   y1="169.89059"
   x2="252.4729"
   y2="141.1055" /><filter
   inkscape:collect="always"
   style="color-interpolation-filters:sRGB"
   id="filter4114"
   x="-0.10297828"
   width="1.2059566"
   y="-0.11353659"
   height="1.2270732"><feGaussianBlur
     inkscape:collect="always"
     stdDeviation="7.7981135"
     id="feGaussianBlur4116" /></filter><linearGradient
   inkscape:collect="always"
   xlink:href="#SVGID_1_"
   id="linearGradient4131"
   gradientUnits="userSpaceOnUse"
   gradientTransform="matrix(2.1127831,0,0,2.1127831,13.14061,-233.19792)"
   x1="236.5762"
   y1="169.89059"
   x2="252.4729"
   y2="141.1055" /><linearGradient
   inkscape:collect="always"
   xlink:href="#SVGID_4_"
   id="linearGradient4133"
   gradientUnits="userSpaceOnUse"
   gradientTransform="matrix(2.1127831,0,0,2.1127831,13.14061,-233.19792)"
   x1="299.10159"
   y1="198.21291"
   x2="295.44531"
   y2="165.6161" /></defs><sodipodi:namedview
   pagecolor="#ffffff"
   bordercolor="#666666"
   borderopacity="1"
   objecttolerance="10"
   gridtolerance="10"
   guidetolerance="10"
   inkscape:pageopacity="0"
   inkscape:pageshadow="2"
   inkscape:window-width="3840"
   inkscape:window-height="2043"
   id="namedview181222"
   showgrid="false"
   inkscape:zoom="2"
   inkscape:cx="-76.25"
   inkscape:cy="264.75"
   inkscape:window-x="3840"
   inkscape:window-y="0"
   inkscape:window-maximized="1"
   inkscape:current-layer="layer6"
   inkscape:document-rotation="0"
   inkscape:snap-bbox="false"
   inkscape:bbox-paths="false"
   inkscape:bbox-nodes="true"
   inkscape:object-paths="false"
   inkscape:snap-nodes="true"
   inkscape:snap-global="true"
   inkscape:pagecheckerboard="0"
   fit-margin-top="0"
   fit-margin-left="0"
   fit-margin-right="0"
   fit-margin-bottom="0" />


<g
   inkscape:groupmode="layer"
   id="layer6"
   inkscape:label="Layer 1"
   transform="translate(-484.1893,5.7152568)"><g
     id="g2019"
     transform="matrix(1.162563,0,0,1.162563,-78.593191,1.0471605)"><path
       id="path181138-9"
       style="opacity:0.15;fill:#000000;stroke:none;stroke-width:2.11278;filter:url(#filter4114)"
       d="m 598.0331,185.20206 c 3.0234,1.63318 5.8473,2.06642 8.82422,0.64453 1.99024,-0.94865 3.10887,-3.17117 3.6582,-4.47265 2.66844,-6.31722 3.93793,-13.9092 4.55471,-24.23341 7.32066,7.18021 15.89308,13.49731 25.52737,18.30176 1.67755,0.83667 3.79078,1.41407 5.62891,1.41407 2.85436,0 5.55415,-1.08292 7.96484,-3.00977 17.12622,-13.69295 27.85029,-38.21201 22.20752,-63.88965 7.97511,-22.140823 13.66147,-51.658002 2.13623,-76.020503 -1.64374,-3.473415 -4.4614,-7.452725 -7.66015,-9.396485 -3.10051,-1.881433 -6.60664,-2.740276 -10.29688,-2.671875 l -10e-5,-9e-5 c -3.69024,0.0684 -7.56536,1.064702 -11.40429,2.896485 -24.52941,11.700592 -50.22363,32.674367 -58.09375,58.203125 0.0305,0.04655 0.0594,0.09594 0.0898,0.142578 -0.46042,-0.700434 -0.91964,-1.401611 -1.38672,-2.082032 -1.44514,-2.104332 -3.57702,-3.191912 -5.27148,-2.539062 -1.78529,0.682429 -2.45445,3.124082 -2.12696,5.824219 l 0.125,0.990234 C 565.41504,69.377375 540.64955,56.13903 521.24785,50.40705 c -5.58832,-1.647971 -12.4855,-2.71391 -16.14062,1.357422 -2.95155,3.289604 -2.0581,9.493712 1.26953,17.072265 11.46608,26.139355 32.67486,53.929123 53.54692,70.169963 8.44467,21.62634 21.20082,37.04489 38.10942,46.19536 z"
       sodipodi:nodetypes="ccccssccccsccccccccccccc" /><path
       sodipodi:nodetypes="ccccccccc"
       inkscape:connector-curvature="0"
       style="fill:url(#linearGradient4131);stroke:none;stroke-width:2.11278"
       id="path181138"
       d="m 584.67637,105.5055 c -0.49228,-2.60505 -4.44341,-12.271405 -8.16639,-14.201068 -17.09453,-15.926159 -41.86056,-29.164858 -61.26225,-34.896838 -5.58832,-1.647971 -12.48444,-2.714926 -16.13956,1.356406 -2.95155,3.289604 -2.05996,9.494847 1.26767,17.0734 11.46608,26.13936 32.67631,53.92879 53.54637,70.16763 v -0.007 c 7.02381,-15.48646 10.1841,-34.16264 30.75416,-39.4932 z" /><path
       sodipodi:nodetypes="cccccccccc"
       inkscape:connector-curvature="0"
       style="fill:url(#SVGID_2_);stroke:none;stroke-width:2.11278"
       id="path181153"
       d="m 596.69655,137.74813 c -6.3637,-10.959 -16.08988,-23.49043 -18.94636,-38.708804 -20.57006,5.330564 -28.40637,24.292784 -23.82798,45.959374 v 0.007 c 0.007,0.0127 0.007,0.007 0.004,0 2.72971,2.12546 6.92538,9.91892 9.31494,11.16125 11.06676,5.75311 18.38332,4.61854 24.69421,1.05428 2.51843,-1.42824 8.8835,-14.25808 10.49976,-16.58848 -0.59791,-0.95287 0.74381,-2.67949 0.18181,-3.64926 z" /><path
       sodipodi:nodetypes="ccccccccccc"
       inkscape:connector-curvature="0"
       style="fill:url(#SVGID_3_);stroke:none;stroke-width:2.11278"
       id="path181168"
       d="m 586.78445,151.50185 c -6.30877,3.56426 -13.62534,4.69883 -24.69422,-1.05428 -2.38955,-1.24233 -5.43407,-3.31708 -8.16378,-5.44254 0,0.007 0.002,0.0109 0,0.004 8.44267,21.62434 21.19755,37.04343 38.10615,46.1939 3.0234,1.63318 5.84818,2.06629 8.8251,0.6444 1.99024,-0.94865 3.1079,-3.17129 3.65723,-4.47277 2.66844,-6.31722 3.93822,-13.91056 4.55303,-24.23574 -3.3554,-12.13371 -6.84064,-16.78259 -14.9585,-19.03617 -1.61416,2.3304 -4.80658,5.97073 -7.32501,7.39897 z" /><path
       sodipodi:nodetypes="ccccccccc"
       inkscape:connector-curvature="0"
       style="fill:url(#linearGradient4133);stroke:none;stroke-width:2.11278"
       id="path181177"
       d="m 670.39783,115.95849 c -1.7198,4.77489 -9.0756,2.76239 -12.41379,8.34647 -5.0242,8.40465 -10.9029,9.05785 -21.264,10.19664 -9.42512,1.03315 -29.68158,2.41561 -39.95182,-1.60713 1.57614,7.58277 12.48145,22.16741 12.30398,30.2467 7.31868,7.17923 15.89023,13.49646 25.52452,18.30092 1.67755,0.83667 3.79245,1.41345 5.63058,1.41345 2.85436,0 5.55239,-1.08175 7.96308,-3.0086 17.12622,-13.69295 27.8507,-38.21179 22.20745,-63.88845 z" /><path
       sodipodi:nodetypes="ccccccsc"
       inkscape:connector-curvature="0"
       style="fill:url(#SVGID_5_);stroke:none;stroke-width:2.11278"
       id="path181184"
       d="m 583.55857,93.871849 c 7.62714,13.023191 19.29782,29.384201 22.31698,41.232691 0.37819,1.48316 0.72681,2.98113 1.03738,4.48966 10.27024,4.02274 23.01877,5.77212 32.44178,4.73897 10.3611,-1.13879 19.36578,-6.14398 24.38998,-14.54863 3.33819,-5.58408 4.93123,-9.05116 6.65103,-13.82605 1.6358,-11.347 -12.91873,-35.351236 -25.09336,-39.867996 -18.40305,-6.827488 -47.89513,12.116513 -61.74379,17.781355 z" /><path
       sodipodi:nodetypes="ccccccc"
       inkscape:connector-curvature="0"
       style="fill:url(#SVGID_6_);stroke:none;stroke-width:2.11278"
       id="path181191"
       d="m 672.53597,39.936337 c -1.64374,-3.473415 -4.4622,-7.451787 -7.66095,-9.395547 -6.20102,-3.762866 -14.02254,-3.43961 -21.7004,0.223956 -24.52941,11.700592 -50.22507,32.674189 -58.09519,58.202947 -1.38202,3.881614 0.18798,6.129384 3.85372,6.222147 23.01032,-9.412449 65.03991,-9.651193 81.4668,20.76654 7.97364,-22.139849 13.66126,-51.657542 2.13602,-76.020043 z" /><path
       sodipodi:nodetypes="ccccccc"
       inkscape:connector-curvature="0"
       style="clip-rule:evenodd;fill:url(#SVGID_7_);fill-rule:evenodd;stroke:none;stroke-width:2.11278"
       id="path181208"
       d="m 576.38533,90.313536 c -0.32749,-2.700137 0.34016,-5.142514 2.12545,-5.824943 1.69446,-0.65285 3.82626,0.435233 5.2714,2.539566 9.92164,14.453551 18.42136,33.646061 22.09337,48.074261 2.27547,8.9413 3.40581,18.34741 3.19454,28.03663 -6.5095,-6.65948 -12.12738,-14.06057 -16.69522,-21.92012 -7.59546,-13.08658 -13.83027,-33.36295 -15.98954,-50.905394 z" /></g></g></svg>
