<?xml version="1.0" encoding="UTF-8" standalone="no"?>
<!-- Generator: Adobe Illustrator 13.0.0, SVG Export Plug-In . SVG Version: 6.00 Build 14948)  -->
<svg xmlns:dc="http://purl.org/dc/elements/1.1/" xmlns:cc="http://creativecommons.org/ns#" xmlns:rdf="http://www.w3.org/1999/02/22-rdf-syntax-ns#" xmlns:svg="http://www.w3.org/2000/svg" xmlns="http://www.w3.org/2000/svg" xmlns:sodipodi="http://sodipodi.sourceforge.net/DTD/sodipodi-0.dtd" xmlns:inkscape="http://www.inkscape.org/namespaces/inkscape" version="1.1" x="0px" y="0px" width="1709.53" height="349.06305" viewBox="0 0 512.859 104.71891" enable-background="new 0 0 300 115" xml:space="preserve" id="svg107" sodipodi:docname="MSN Search (2000).svg" inkscape:version="0.92.4 (5da689c313, 2019-01-14)"><metadata id="metadata113"><rdf:RDF><cc:Work rdf:about=""><dc:format>image/svg+xml</dc:format><dc:type rdf:resource="http://purl.org/dc/dcmitype/StillImage"/><dc:title/></cc:Work></rdf:RDF></metadata><defs id="defs111">
	

		
		
	</defs><sodipodi:namedview pagecolor="#ffffff" bordercolor="#666666" borderopacity="1" objecttolerance="10" gridtolerance="10" guidetolerance="10" inkscape:pageopacity="0" inkscape:pageshadow="2" inkscape:window-width="1366" inkscape:window-height="705" id="namedview109" showgrid="false" fit-margin-top="0" fit-margin-left="0" fit-margin-right="0" fit-margin-bottom="0" scale-x="0.3" inkscape:zoom="1.54" inkscape:cx="867.81932" inkscape:cy="155.08376" inkscape:window-x="-8" inkscape:window-y="-8" inkscape:window-maximized="1" inkscape:current-layer="svg107"/>

<g id="Layer_2" transform="translate(-9.631,-2.0630881)">
</g>
<g id="g1189" transform="translate(-9.631,-2.0630881)"><g id="g1125"><g id="g12">
			<g id="g8">
				<path d="M 30.917,104.354 H 9.631 l 9.76,-58.017 h 19.757 l -1.529,9.001 c 1.828,-2.9 3.504,-4.805 5.352,-6.235 3.94,-3.051 8.408,-4.461 13.112,-4.461 7.41,0 11.975,3.654 14.117,10.604 4.231,-7.291 10.309,-10.604 18.185,-10.604 10.226,0 15.837,6.112 16.051,16.048 0.042,1.883 -0.153,3.895 -0.469,5.884 l -6.375,37.78 H 75.72 l 5.787,-34.406 c 0.336,-1.986 0.435,-3.064 0.352,-4.239 -0.228,-3.28 -1.752,-4.899 -4.694,-4.899 -2.235,0 -4.293,1.024 -5.675,3.293 -1.039,1.712 -1.205,2.684 -1.908,6.947 l -5.617,33.305 H 42.671 l 5.812,-34.406 c 0.334,-1.986 0.383,-3.064 0.302,-4.239 -0.231,-3.28 -1.901,-4.899 -4.842,-4.899 -2.236,0 -4.124,1.024 -5.503,3.293 -1.041,1.712 -1.206,2.684 -1.908,6.947 z" id="path2" inkscape:connector-curvature="0" style="fill:#005ca6"/>
				<path d="m 190.292,46.337 -1.516,9.001 c 1.435,-2.597 3.314,-4.956 5.682,-6.672 3.695,-2.684 8.351,-4.024 13.291,-4.024 9.762,0 15.693,6.243 16.069,14.906 0.081,1.881 0.051,4.219 -0.483,7.277 l -6.293,37.528 h -22.019 l 5.698,-33.882 c 0.401,-2.411 0.586,-3.653 0.586,-4.595 0,-3.062 -1.769,-5.097 -5.178,-5.097 -4.589,0 -7.426,2.989 -8.478,9.304 l -5.775,34.27 h -21.578 l 9.759,-58.017 h 20.235 z" id="path4" inkscape:connector-curvature="0" style="fill:#005ca6"/>
				<path d="m 145.806,63.462 c -1.511,-3.583 -3.948,-6.116 -9.485,-6.355 -4.771,-0.203 -7.979,1.193 -7.979,3.649 0,3.084 2.434,3.763 10.195,5.319 6.492,1.304 10.926,2.763 14.523,4.915 6.081,3.638 8.453,8.934 8.085,15.485 -0.814,14.541 -15.88,20.307 -29.637,20.307 -14.126,0 -24.542,-4.62 -29.033,-17.274 l 17.624,-3.9 c 2.151,4.892 5.596,7.234 11.65,7.383 4.852,0.12 8.336,-1.341 8.336,-3.911 0,-2.979 -3.023,-3.717 -10.812,-5.581 -11.146,-2.662 -21.998,-6.885 -21.77,-18.706 0.313,-16.161 15.904,-21.364 30.289,-20.885 10.604,0.354 21.139,4.795 25.031,15.786 z" id="path6" inkscape:connector-curvature="0" style="fill:#005ca6"/>
			</g>
			<path d="m 227.754,98.668 h 0.686 c 0.604,0 0.79,0.208 0.79,0.479 0,0.562 -0.54,0.644 -0.873,0.644 h -0.603 z m 0,2.057 h 0.728 l 0.728,1.662 h 1.287 l -0.851,-1.995 c 0.229,-0.103 0.851,-0.353 0.851,-1.225 0,-1.37 -1.475,-1.37 -1.744,-1.37 h -2.221 v 4.59 h 1.223 v -1.662 z m -3.736,-0.623 c 0,2.472 1.91,4.403 4.401,4.403 2.492,0 4.403,-1.932 4.403,-4.403 0,-2.533 -1.952,-4.424 -4.403,-4.424 -2.471,0 -4.401,1.89 -4.401,4.424 z m 1.016,0 c 0,-1.849 1.6,-3.406 3.385,-3.406 1.808,0 3.386,1.558 3.386,3.406 0,1.806 -1.578,3.385 -3.386,3.385 -1.806,-10e-4 -3.385,-1.58 -3.385,-3.385 z" id="path10" inkscape:connector-curvature="0" style="fill:#005ca6"/>
		</g><g id="g101">
			<g id="g97">
				
					<linearGradient id="SVGID_1_" gradientUnits="userSpaceOnUse" x1="236.5762" y1="169.89059" x2="252.4729" y2="141.1055" gradientTransform="translate(-21,-121.5)">
					<stop offset="0" style="stop-color:#FFFFFF" id="stop14"/>
					<stop offset="0.0056" style="stop-color:#94CBEE" id="stop16"/>
					<stop offset="0.2111" style="stop-color:#76B7E5" id="stop18"/>
					<stop offset="0.6556" style="stop-color:#008ECF" id="stop20"/>
					<stop offset="0.8539" style="stop-color:#007FC5" id="stop22"/>
				</linearGradient>
				<path d="m 246.235,35.751 c -0.233,-1.233 -0.429,-2.459 -0.587,-3.661 -8.091,-7.538 -19.813,-13.804 -28.996,-16.517 -2.645,-0.78 -5.909,-1.285 -7.639,0.642 -1.397,1.557 -0.975,4.494 0.6,8.081 5.427,12.372 15.466,25.525 25.344,33.211 0,-0.002 0,-0.003 0,-0.003 -2.167,-10.255 1.542,-19.23 11.278,-21.753 z" id="path25" style="fill:url(#SVGID_1_)" inkscape:connector-curvature="0"/>
				
					<linearGradient id="SVGID_2_" gradientUnits="userSpaceOnUse" x1="254.3887" y1="160.92191" x2="274.77151" y2="181.3047" gradientTransform="translate(-21,-121.5)">
					<stop offset="0" style="stop-color:#007FC5" id="stop27"/>
					<stop offset="0.0873" style="stop-color:#0088B2" id="stop29"/>
					<stop offset="0.2517" style="stop-color:#00968D" id="stop31"/>
					<stop offset="0.3859" style="stop-color:#009F6C" id="stop33"/>
					<stop offset="0.4832" style="stop-color:#00A555" id="stop35"/>
					<stop offset="0.5337" style="stop-color:#00A94F" id="stop37"/>
				</linearGradient>
				<path d="m 253.156,55.715 c -3.012,-5.187 -5.569,-12.761 -6.921,-19.964 -9.736,2.523 -13.445,11.498 -11.278,21.753 0,0 0,0.001 0,0.003 0.003,0.006 0.003,0.003 0.002,0 1.292,1.006 2.733,1.988 3.864,2.576 5.238,2.723 8.701,2.186 11.688,0.499 1.192,-0.676 2.703,-2.399 3.468,-3.502 -0.283,-0.451 -0.557,-0.906 -0.823,-1.365 z" id="path40" style="fill:url(#SVGID_2_)" inkscape:connector-curvature="0"/>
				
					<linearGradient id="SVGID_3_" gradientUnits="userSpaceOnUse" x1="280.25391" y1="201.6445" x2="261.9498" y2="173.45869" gradientTransform="translate(-21,-121.5)">
					<stop offset="0.0955" style="stop-color:#00A94F" id="stop42"/>
					<stop offset="0.2436" style="stop-color:#00B156" id="stop44"/>
					<stop offset="0.4855" style="stop-color:#61BD65" id="stop46"/>
					<stop offset="0.7009" style="stop-color:#86C772" id="stop48"/>
					<stop offset="0.8798" style="stop-color:#9ACE7B" id="stop50"/>
					<stop offset="1" style="stop-color:#A1D07E" id="stop52"/>
				</linearGradient>
				<path d="m 250.511,60.582 c -2.986,1.687 -6.449,2.224 -11.688,-0.499 -1.131,-0.588 -2.572,-1.57 -3.864,-2.576 0,0.003 0.001,0.005 0,0.002 3.996,10.235 10.033,17.533 18.036,21.864 1.431,0.773 2.768,0.978 4.177,0.305 0.942,-0.449 1.471,-1.501 1.731,-2.117 1.263,-2.99 1.864,-6.584 2.155,-11.471 -2.702,-2.763 -5.078,-5.797 -7.08,-9.01 -0.764,1.103 -2.275,2.826 -3.467,3.502 z" id="path55" style="fill:url(#SVGID_3_)" inkscape:connector-curvature="0"/>
				
					<linearGradient id="SVGID_4_" gradientUnits="userSpaceOnUse" x1="299.10159" y1="198.21291" x2="295.44531" y2="165.6161" gradientTransform="translate(-21,-121.5)">
					<stop offset="0" style="stop-color:#F4A656" id="stop57"/>
					<stop offset="0.4719" style="stop-color:#FCCA25" id="stop59"/>
					<stop offset="0.4944" style="stop-color:#FCCA25" id="stop61"/>
				</linearGradient>
				<path d="m 290.086,43.759 c -0.814,2.26 -1.568,3.901 -3.148,6.544 -2.378,3.978 -6.64,6.347 -11.544,6.886 -4.461,0.489 -10.494,-0.339 -15.355,-2.243 0.746,3.589 1.105,7.321 1.021,11.145 3.464,3.398 7.521,6.388 12.081,8.662 0.794,0.396 1.795,0.669 2.665,0.669 1.351,0 2.628,-0.512 3.769,-1.424 8.106,-6.481 13.182,-18.086 10.511,-30.239 z" id="path64" style="fill:url(#SVGID_4_)" inkscape:connector-curvature="0"/>
				
					<linearGradient id="SVGID_5_" gradientUnits="userSpaceOnUse" x1="273.0928" y1="165.3398" x2="311.6514" y2="165.3398" gradientTransform="translate(-21.5659,-121.0361)">
					<stop offset="0.2921" style="stop-color:#F4A656" id="stop66"/>
					<stop offset="1" style="stop-color:#E95A2F" id="stop68"/>
				</linearGradient>
				<path d="m 251.527,33.93 c 3.61,6.164 6.591,13.283 8.02,18.891 0.179,0.702 0.344,1.411 0.491,2.125 4.861,1.904 10.895,2.732 15.355,2.243 4.904,-0.539 9.166,-2.908 11.544,-6.886 1.58,-2.643 2.334,-4.284 3.148,-6.544 -7.773,-14.397 -27.667,-14.284 -38.558,-9.829 z" id="path71" style="fill:url(#SVGID_5_)" inkscape:connector-curvature="0"/>
				
					<linearGradient id="SVGID_6_" gradientUnits="userSpaceOnUse" x1="271.26859" y1="143.9473" x2="315.61929" y2="143.9473" gradientTransform="translate(-21.5659,-121.0361)">
					<stop offset="0.0169" style="stop-color:#F4A656" id="stop73"/>
					<stop offset="0.5393" style="stop-color:#E95A2F" id="stop75"/>
				</linearGradient>
				<path d="M 291.098,7.777 C 290.32,6.133 288.986,4.25 287.472,3.33 c -2.935,-1.781 -6.637,-1.628 -10.271,0.106 -11.61,5.538 -23.772,15.465 -27.497,27.548 0.621,0.949 1.23,1.934 1.824,2.945 10.891,-4.455 30.784,-4.568 38.559,9.829 3.774,-10.479 6.466,-24.45 1.011,-35.981 z" id="path78" style="fill:url(#SVGID_6_)" inkscape:connector-curvature="0"/>
				
					<linearGradient id="SVGID_7_" gradientUnits="userSpaceOnUse" x1="273.39651" y1="328.332" x2="262.50369" y2="332.733" gradientTransform="translate(-14.3418,-282.9668)">
					<stop offset="0.0449" style="stop-color:#3E5BA6" id="stop80"/>
					<stop offset="0.4719" style="stop-color:#6D7CBC" id="stop82"/>
					<stop offset="0.532" style="stop-color:#6373B6" id="stop84"/>
					<stop offset="0.6585" style="stop-color:#4F66AD" id="stop86"/>
					<stop offset="0.7748" style="stop-color:#435EA7" id="stop88"/>
					<stop offset="0.8708" style="stop-color:#3E5BA6" id="stop90"/>
					<stop offset="1" style="stop-color:#3E5BA6" id="stop92"/>
				</linearGradient>
				<path d="m 245.589,31.621 c -0.155,-1.278 0.161,-2.434 1.006,-2.757 0.802,-0.309 1.811,0.206 2.495,1.202 4.696,6.841 8.719,15.925 10.457,22.754 1.077,4.232 1.612,8.684 1.512,13.27 -3.081,-3.152 -5.74,-6.655 -7.902,-10.375 -3.595,-6.194 -6.546,-15.791 -7.568,-24.094 z" id="path95" style="clip-rule:evenodd;fill:url(#SVGID_7_);fill-rule:evenodd" inkscape:connector-curvature="0"/>
			</g>
			<path d="m 285.125,77.903 h 0.689 c 0.6,0 0.787,0.209 0.787,0.485 0,0.568 -0.538,0.655 -0.877,0.655 h -0.6 v -1.14 z m 0,2.086 h 0.728 l 0.725,1.685 h 1.285 l -0.845,-2.02 c 0.231,-0.1 0.845,-0.363 0.845,-1.247 0,-1.386 -1.466,-1.386 -1.739,-1.386 h -2.219 v 4.652 h 1.221 v -1.684 z m -3.732,-0.631 c 0,2.497 1.909,4.463 4.401,4.463 2.485,0 4.394,-1.966 4.394,-4.463 0,-2.571 -1.951,-4.487 -4.394,-4.487 -2.476,0 -4.401,1.916 -4.401,4.487 z m 1.016,0 c 0,-1.877 1.6,-3.446 3.385,-3.446 1.808,0 3.377,1.569 3.377,3.446 0,1.837 -1.569,3.431 -3.377,3.431 -1.81,0 -3.385,-1.594 -3.385,-3.431 z" id="path99" inkscape:connector-curvature="0" style="fill:#1b5ba1"/>
		</g></g><g id="g960"><path inkscape:connector-curvature="0" id="path130" style="font-style:normal;font-variant:normal;font-weight:normal;font-stretch:normal;font-size:68.87361908px;line-height:1.25;font-family:'Microsoft JhengHei';-inkscape-font-specification:'Microsoft JhengHei';letter-spacing:0px;word-spacing:0px;fill:#005ca6;fill-opacity:1;stroke:none;stroke-width:1.7218405" d="m 326.74296,94.055052 q 2.18699,1.983195 6.29179,3.327735 4.13845,1.310925 7.63763,1.310925 11.37231,0 11.37231,-8.268917 0,-2.319331 -1.17761,-4.134458 -1.17761,-1.815129 -3.19636,-3.126054 -1.98511,-1.34454 -7.87314,-4.369754 -8.47877,-4.33614 -10.73305,-7.563033 -2.25428,-3.226895 -2.25428,-7.294127 0,-6.285721 5.11418,-10.050432 5.11419,-3.76471 12.85275,-3.76471 7.80585,0 11.0695,1.848741 v 6.621858 q -4.57584,-3.159668 -11.80971,-3.159668 -4.94596,0 -8.07502,2.117649 -3.12907,2.084036 -3.12907,5.88236 0,2.352944 1.07667,4.100845 1.11031,1.714287 2.99448,2.9916 1.88417,1.277312 7.33481,4.000005 7.67126,3.798324 10.73305,7.42858 3.06178,3.596642 3.06178,8.067236 0,6.65547 -4.84502,10.285727 -4.845,3.63026 -13.55931,3.63026 -2.65802,0 -6.93105,-0.87395 -4.23938,-0.87395 -5.95533,-2.11765 z"/><path inkscape:connector-curvature="0" id="path132" style="font-style:normal;font-variant:normal;font-weight:normal;font-stretch:normal;font-size:68.87361908px;line-height:1.25;font-family:'Microsoft JhengHei';-inkscape-font-specification:'Microsoft JhengHei';letter-spacing:0px;word-spacing:0px;fill:#005ca6;fill-opacity:1;stroke:none;stroke-width:1.7218405" d="m 395.19799,85.853362 h -26.3784 q 0.16823,6.420175 3.39824,9.84875 3.23,3.428576 8.84887,3.428576 6.2918,0 11.60785,-4.201686 v 5.378158 q -4.87866,3.63026 -12.92004,3.63026 -7.77221,0 -12.28076,-5.075641 -4.47491,-5.075636 -4.47491,-14.28573 0,-8.470598 4.84502,-14.016823 4.87866,-5.546225 12.17982,-5.546225 7.16659,0 11.17045,4.705887 4.00386,4.705889 4.00386,13.10926 z m -5.78709,-4.941183 q -0.0336,-5.243703 -2.52345,-8.134463 -2.4898,-2.924373 -6.96471,-2.924373 -4.07115,0 -7.16657,2.924373 -3.06179,2.924373 -3.86929,8.134463 z"/><path inkscape:connector-curvature="0" id="path134" style="font-style:normal;font-variant:normal;font-weight:normal;font-stretch:normal;font-size:68.87361908px;line-height:1.25;font-family:'Microsoft JhengHei';-inkscape-font-specification:'Microsoft JhengHei';letter-spacing:0px;word-spacing:0px;fill:#005ca6;fill-opacity:1;stroke:none;stroke-width:1.7218405" d="m 403.02306,68.542417 q 5.48429,-3.529416 12.54993,-3.529416 12.95368,0 12.95368,13.747915 v 24.302554 h -5.61887 v -5.848751 h -0.20188 q -3.86928,6.722701 -11.4396,6.722701 -5.51793,0 -8.7143,-2.92437 -3.16272,-2.957994 -3.16272,-7.798336 0,-10.31934 12.24711,-12.067241 l 11.23774,-1.613447 q 0,-9.680683 -7.73856,-9.680683 -6.76283,0 -12.11253,4.605046 z m 10.73305,16.873969 q -4.77772,0.638656 -6.6619,2.319331 -1.85052,1.64706 -1.85052,5.109249 0,2.789919 1.98511,4.537821 2.01875,1.747901 5.24877,1.747901 4.47491,0 7.43574,-3.193281 2.96084,-3.193281 2.96084,-7.966396 v -3.76471 z"/><path inkscape:connector-curvature="0" id="path136" style="font-style:normal;font-variant:normal;font-weight:normal;font-stretch:normal;font-size:68.87361908px;line-height:1.25;font-family:'Microsoft JhengHei';-inkscape-font-specification:'Microsoft JhengHei';letter-spacing:0px;word-spacing:0px;fill:#005ca6;fill-opacity:1;stroke:none;stroke-width:1.7218405" d="m 455.47997,71.634857 q -1.54771,-1.176471 -4.47491,-1.176471 -3.93657,0 -6.49366,3.76471 -2.52344,3.731096 -2.52344,9.815137 V 103.06347 H 436.3691 V 65.886952 h 5.61886 v 7.697487 h 0.16823 q 1.27854,-3.966391 3.90293,-6.151267 2.62438,-2.184876 5.7871,-2.184876 2.38886,0 3.63375,0.504201 z"/><path inkscape:connector-curvature="0" id="path138" style="font-style:normal;font-variant:normal;font-weight:normal;font-stretch:normal;font-size:68.87361908px;line-height:1.25;font-family:'Microsoft JhengHei';-inkscape-font-specification:'Microsoft JhengHei';letter-spacing:0px;word-spacing:0px;fill:#005ca6;fill-opacity:1;stroke:none;stroke-width:1.7218405" d="m 485.27536,101.31556 q -4.34033,2.62186 -10.09377,2.62186 -7.90679,0 -12.78545,-5.142867 -4.84502,-5.176476 -4.84502,-13.445394 0,-9.243708 5.24877,-14.789933 5.24876,-5.546225 13.96305,-5.546225 4.81137,0 8.57971,1.815128 v 5.882359 q -4.17209,-2.924372 -8.91617,-2.924372 -5.7198,0 -9.4545,4.134458 -3.70105,4.100845 -3.70105,10.924383 0,6.65547 3.46553,10.487407 3.46553,3.831937 9.31992,3.831937 4.94595,0 9.21898,-3.260508 z"/><path inkscape:connector-curvature="0" id="path140" style="font-style:normal;font-variant:normal;font-weight:normal;font-stretch:normal;font-size:68.87361908px;line-height:1.25;font-family:'Microsoft JhengHei';-inkscape-font-specification:'Microsoft JhengHei';letter-spacing:0px;word-spacing:0px;fill:#005ca6;fill-opacity:1;stroke:none;stroke-width:1.7218405" d="m 522.49001,103.06347 h -5.58523 V 81.618062 q 0,-11.831946 -8.84887,-11.831946 -4.47491,0 -7.50304,3.428575 -3.02814,3.428576 -3.02814,8.806733 v 21.042046 h -5.61887 V 48.038191 h 5.61887 v 24.067255 h 0.16823 q 4.27303,-7.092445 12.24712,-7.092445 12.54993,0 12.54993,15.159681 z"/></g></g></svg>