<?xml version="1.0" encoding="UTF-8" standalone="no"?>
<svg xmlns:dc="http://purl.org/dc/elements/1.1/" xmlns:cc="http://creativecommons.org/ns#" xmlns:rdf="http://www.w3.org/1999/02/22-rdf-syntax-ns#" xmlns:svg="http://www.w3.org/2000/svg" xmlns="http://www.w3.org/2000/svg" xmlns:xlink="http://www.w3.org/1999/xlink" xmlns:sodipodi="http://sodipodi.sourceforge.net/DTD/sodipodi-0.dtd" xmlns:inkscape="http://www.inkscape.org/namespaces/inkscape" version="1.1" x="0px" y="0px" width="625.91846" height="245.9633" viewBox="0 0 625.91846 245.96331" enable-background="new 0 0 300 115" xml:space="preserve" id="svg181220" sodipodi:docname="MSN_2001.svg" inkscape:version="1.0.2-2 (e86c870879, 2021-01-15)" inkscape:export-filename="C:\Users\tjdru\OneDrive\Pictures\Logos\Internet\msnlogo2001.png" inkscape:export-xdpi="153.37462" inkscape:export-ydpi="153.37462"><metadata id="metadata181226"><rdf:RDF><cc:Work rdf:about=""><dc:format>image/svg+xml</dc:format><dc:type rdf:resource="http://purl.org/dc/dcmitype/StillImage"/></cc:Work></rdf:RDF></metadata><defs id="defs181224">
	


		
		
	
			
			
		
			
			
		
				
				
				
			
				
					<linearGradient id="SVGID_1_" gradientUnits="userSpaceOnUse" x1="236.5762" y1="169.89059" x2="252.4729" y2="141.1055" gradientTransform="matrix(1.9313448,0,0,1.9313448,44.099303,-200.64293)">
					<stop offset="0" style="stop-color:#FFFFFF" id="stop181127"/>
					<stop offset="0.0056" style="stop-color:#94CBEE" id="stop181129"/>
					<stop offset="0.2111" style="stop-color:#76B7E5" id="stop181131"/>
					<stop offset="0.6556" style="stop-color:#008ECF" id="stop181133"/>
					<stop offset="0.8539" style="stop-color:#007FC5" id="stop181135"/>
				</linearGradient>
				
				
					<linearGradient id="SVGID_2_" gradientUnits="userSpaceOnUse" x1="254.3887" y1="160.92191" x2="274.77151" y2="181.3047" gradientTransform="matrix(2.1127831,0,0,2.1127831,12.727046,-242.062)">
					<stop offset="0" style="stop-color:#007FC5" id="stop181140"/>
					<stop offset="0.0873" style="stop-color:#0088B2" id="stop181142"/>
					<stop offset="0.2517" style="stop-color:#00968D" id="stop181144"/>
					<stop offset="0.3859" style="stop-color:#009F6C" id="stop181146"/>
					<stop offset="0.4832" style="stop-color:#00A555" id="stop181148"/>
					<stop offset="0.5337" style="stop-color:#00A94F" id="stop181150"/>
				</linearGradient>
				
				
					<linearGradient id="SVGID_3_" gradientUnits="userSpaceOnUse" x1="280.25391" y1="201.6445" x2="261.9498" y2="173.45869" gradientTransform="matrix(2.1127831,0,0,2.1127831,12.727046,-242.062)">
					<stop offset="0.0955" style="stop-color:#00A94F" id="stop181155"/>
					<stop offset="0.2436" style="stop-color:#00B156" id="stop181157"/>
					<stop offset="0.4855" style="stop-color:#61BD65" id="stop181159"/>
					<stop offset="0.7009" style="stop-color:#86C772" id="stop181161"/>
					<stop offset="0.8798" style="stop-color:#9ACE7B" id="stop181163"/>
					<stop offset="1" style="stop-color:#A1D07E" id="stop181165"/>
				</linearGradient>
				
				
					<linearGradient id="SVGID_4_" gradientUnits="userSpaceOnUse" x1="299.10159" y1="198.21291" x2="295.44531" y2="165.6161" gradientTransform="matrix(2.1127831,0,0,2.1127831,12.727046,-242.062)">
					<stop offset="0" style="stop-color:#F4A656" id="stop181170"/>
					<stop offset="0.29342386" style="stop-color:#FCCA25" id="stop181172"/>
					<stop offset="0.4944" style="stop-color:#FCCA25" id="stop181174"/>
				</linearGradient>
				
				
					<linearGradient id="SVGID_5_" gradientUnits="userSpaceOnUse" x1="273.0928" y1="165.3398" x2="311.6514" y2="165.3398" gradientTransform="matrix(2.1127831,0,0,2.1127831,11.531422,-241.08188)">
					<stop offset="0.2921" style="stop-color:#F4A656" id="stop181179"/>
					<stop offset="1" style="stop-color:#E95A2F" id="stop181181"/>
				</linearGradient>
				
				
					<linearGradient id="SVGID_6_" gradientUnits="userSpaceOnUse" x1="271.26859" y1="143.9473" x2="315.61929" y2="143.9473" gradientTransform="matrix(2.1127831,0,0,2.1127831,11.531422,-241.08188)">
					<stop offset="0.0169" style="stop-color:#F4A656" id="stop181186"/>
					<stop offset="0.5393" style="stop-color:#E95A2F" id="stop181188"/>
				</linearGradient>
				
				
					<linearGradient id="SVGID_7_" gradientUnits="userSpaceOnUse" x1="273.39651" y1="328.332" x2="262.50369" y2="332.733" gradientTransform="matrix(2.1127831,0,0,2.1127831,26.794378,-583.20632)">
					<stop offset="0.0449" style="stop-color:#3E5BA6" id="stop181193"/>
					<stop offset="0.4719" style="stop-color:#6D7CBC" id="stop181195"/>
					<stop offset="0.532" style="stop-color:#6373B6" id="stop181197"/>
					<stop offset="0.6585" style="stop-color:#4F66AD" id="stop181199"/>
					<stop offset="0.7748" style="stop-color:#435EA7" id="stop181201"/>
					<stop offset="0.8708" style="stop-color:#3E5BA6" id="stop181203"/>
					<stop offset="1" style="stop-color:#3E5BA6" id="stop181205"/>
				</linearGradient>
				
			<linearGradient inkscape:collect="always" xlink:href="#SVGID_1_" id="linearGradient48840" gradientUnits="userSpaceOnUse" gradientTransform="matrix(2.1127831,0,0,2.1127831,12.727046,-242.062)" x1="236.5762" y1="169.89059" x2="252.4729" y2="141.1055"/><filter inkscape:collect="always" style="color-interpolation-filters:sRGB" id="filter4114" x="-0.10297828" width="1.2059566" y="-0.11353659" height="1.2270732"><feGaussianBlur inkscape:collect="always" stdDeviation="7.7981135" id="feGaussianBlur4116"/></filter><linearGradient inkscape:collect="always" xlink:href="#SVGID_1_" id="linearGradient4131" gradientUnits="userSpaceOnUse" gradientTransform="matrix(2.1127831,0,0,2.1127831,12.727046,-242.062)" x1="236.5762" y1="169.89059" x2="252.4729" y2="141.1055"/><linearGradient inkscape:collect="always" xlink:href="#SVGID_4_" id="linearGradient4133" gradientUnits="userSpaceOnUse" gradientTransform="matrix(2.1127831,0,0,2.1127831,12.727046,-242.062)" x1="299.10159" y1="198.21291" x2="295.44531" y2="165.6161"/></defs><sodipodi:namedview pagecolor="#ffffff" bordercolor="#666666" borderopacity="1" objecttolerance="10" gridtolerance="10" guidetolerance="10" inkscape:pageopacity="0" inkscape:pageshadow="2" inkscape:window-width="1366" inkscape:window-height="705" id="namedview181222" showgrid="false" inkscape:zoom="1" inkscape:cx="250.03875" inkscape:cy="154.83942" inkscape:window-x="-8" inkscape:window-y="-8" inkscape:window-maximized="1" inkscape:current-layer="layer6" inkscape:document-rotation="0" inkscape:snap-bbox="false" inkscape:bbox-paths="false" inkscape:bbox-nodes="true" inkscape:object-paths="false" inkscape:snap-nodes="true" inkscape:snap-global="true"/>


<g inkscape:groupmode="layer" id="layer6" inkscape:label="Layer 1" transform="translate(-77.443709,5.7152568)"><g id="g4129"><path id="path181138-9" style="opacity:0.15;fill:#000000;stroke:none;stroke-width:2.11278;filter:url(#filter4114)" d="m 597.61954,176.33798 c 3.0234,1.63318 5.8473,2.06642 8.82422,0.64453 1.99024,-0.94865 3.10887,-3.17117 3.6582,-4.47265 2.66844,-6.31722 3.93793,-13.9092 4.55471,-24.23341 7.32066,7.18021 15.89308,13.49731 25.52737,18.30176 1.67755,0.83667 3.79078,1.41407 5.62891,1.41407 2.85436,0 5.55415,-1.08292 7.96484,-3.00977 17.12622,-13.69295 27.85029,-38.21201 22.20752,-63.88965 7.97511,-22.140825 13.66147,-51.658004 2.13623,-76.020505 -1.64374,-3.473415 -4.4614,-7.452725 -7.66015,-9.396485 -3.10051,-1.881433 -6.60664,-2.740276 -10.29688,-2.671875 l -10e-5,-9e-5 c -3.69024,0.0684 -7.56536,1.064702 -11.40429,2.896485 -24.52941,11.700592 -50.22363,32.674367 -58.09375,58.203125 0.0305,0.04655 0.0594,0.09594 0.0898,0.142578 -0.46042,-0.700434 -0.91964,-1.401611 -1.38672,-2.082032 -1.44514,-2.104332 -3.57702,-3.191912 -5.27148,-2.539062 -1.78529,0.682429 -2.45445,3.124082 -2.12696,5.824219 l 0.125,0.990234 C 565.00148,60.513293 540.23599,47.274948 520.83429,41.542968 c -5.58832,-1.647971 -12.4855,-2.71391 -16.14062,1.357422 -2.95155,3.289604 -2.0581,9.493712 1.26953,17.072265 11.46608,26.139355 32.67486,53.929125 53.54692,70.169965 8.44467,21.62634 21.20082,37.04489 38.10942,46.19536 z" sodipodi:nodetypes="ccccssccccsccccccccccccc"/><path id="path181123" style="fill:#005ca6;stroke:none;stroke-width:2.11278" d="m 539.69566,216.78711 c -5.22068,0 -9.29883,3.99387 -9.29883,9.34766 0,5.2228 4.03589,9.30273 9.29883,9.30273 5.26506,0 9.30274,-4.08204 9.30274,-9.30273 0,-5.35168 -4.1243,-9.34766 -9.30274,-9.34766 z m 0,2.15234 c 3.81991,0 7.1543,3.2909 7.1543,7.19532 0,3.81568 -3.33439,7.15234 -7.1543,7.15234 -3.81569,-0.002 -7.15234,-3.33877 -7.15234,-7.15234 0,-3.90653 3.38102,-7.19532 7.15234,-7.19532 z m -3.9707,2.33008 v 9.83594 h 2.55859 v -3.91602 h 1.45313 l 1.58594,3.91602 h 2.82226 l -1.89844,-4.32422 c 1.16089,-0.5124 1.74219,-1.35629 1.74219,-2.5332 0,-0.89669 -0.31302,-1.61769 -0.9375,-2.16211 -0.62449,-0.54442 -1.59324,-0.81641 -2.90625,-0.81641 z m 2.55859,1.80078 h 1.28516 c 0.53641,0 0.89594,0.0243 1.08008,0.0723 0.18415,0.048 0.35375,0.1766 0.50586,0.38476 0.15208,0.20015 0.22656,0.43111 0.22656,0.69532 0,0.40031 -0.12661,0.70961 -0.38281,0.92578 -0.24819,0.20817 -0.7103,0.3125 -1.38281,0.3125 h -1.33204 z" sodipodi:nodetypes="ccccccccccccccccccccccccccccccc"/><path sodipodi:nodetypes="ccccccccc" inkscape:connector-curvature="0" style="fill:url(#linearGradient4131);stroke:none;stroke-width:2.11278" id="path181138" d="m 577.33663,90.175244 c -0.49228,-2.605053 -0.90639,-5.19533 -1.24021,-7.734894 -17.09453,-15.926159 -41.86056,-29.164858 -61.26225,-34.896838 -5.58832,-1.647971 -12.48444,-2.714926 -16.13956,1.356406 -2.95155,3.289604 -2.05996,9.494847 1.26767,17.0734 11.46608,26.139355 32.67631,53.928792 53.54637,70.167632 v -0.007 c -4.57839,-21.66659 3.25792,-40.628817 23.82798,-45.959376 z"/><path sodipodi:nodetypes="cccccccccc" inkscape:connector-curvature="0" style="fill:url(#SVGID_2_);stroke:none;stroke-width:2.11278" id="path181153" d="m 591.9592,132.35485 c -6.3637,-10.959 -11.76609,-26.96123 -14.62257,-42.179606 -20.57006,5.330559 -28.40637,24.292786 -23.82798,45.959376 v 0.007 c 0.007,0.0127 0.007,0.007 0.004,0 2.72971,2.12546 5.77423,4.20021 8.16379,5.44254 11.06676,5.75311 18.38332,4.61854 24.69421,1.05428 2.51843,-1.42824 5.71086,-5.06857 7.32712,-7.39897 -0.59791,-0.95287 -1.17681,-1.91418 -1.73881,-2.88395 z"/><path sodipodi:nodetypes="ccccccccccc" inkscape:connector-curvature="0" style="fill:url(#SVGID_3_);stroke:none;stroke-width:2.11278" id="path181168" d="m 586.37089,142.63777 c -6.30877,3.56426 -13.62534,4.69883 -24.69422,-1.05428 -2.38955,-1.24233 -5.43407,-3.31708 -8.16378,-5.44254 0,0.007 0.002,0.0109 0,0.004 8.44267,21.62434 21.19755,37.04343 38.10615,46.1939 3.0234,1.63318 5.84818,2.06629 8.8251,0.6444 1.99024,-0.94865 3.1079,-3.17129 3.65723,-4.47277 2.66844,-6.31722 3.93822,-13.91056 4.55303,-24.23574 -5.70873,-5.83761 -10.7287,-12.24779 -14.9585,-19.03617 -1.61416,2.3304 -4.80658,5.97073 -7.32501,7.39897 z"/><path sodipodi:nodetypes="ccccccccc" inkscape:connector-curvature="0" style="fill:url(#linearGradient4133);stroke:none;stroke-width:2.11278" id="path181177" d="m 669.98427,107.09441 c -1.7198,4.77489 -3.31284,8.24197 -6.65103,13.82605 -5.0242,8.40465 -14.02888,13.40984 -24.38998,14.54863 -9.42512,1.03315 -22.17154,-0.71623 -32.44178,-4.73897 1.57614,7.58277 2.33463,15.46768 2.15716,23.54697 7.31868,7.17923 15.89023,13.49646 25.52452,18.30092 1.67755,0.83667 3.79245,1.41345 5.63058,1.41345 2.85436,0 5.55239,-1.08175 7.96308,-3.0086 17.12622,-13.69295 27.8507,-38.21179 22.20745,-63.88845 z"/><path sodipodi:nodetypes="ccccccc" inkscape:connector-curvature="0" style="fill:url(#SVGID_5_);stroke:none;stroke-width:2.11278" id="path181184" d="m 588.51748,86.32787 c 7.62714,13.02319 13.92535,28.0641 16.94451,39.91259 0.37819,1.48316 0.72681,2.98113 1.03738,4.48966 10.27024,4.02274 23.01877,5.77212 32.44178,4.73897 10.3611,-1.13879 19.36578,-6.14398 24.38998,-14.54863 3.33819,-5.58408 4.93123,-9.05116 6.65103,-13.82605 C 653.5595,76.676677 611.52779,76.915422 588.51748,86.32787 Z"/><path sodipodi:nodetypes="ccccccc" inkscape:connector-curvature="0" style="fill:url(#SVGID_6_);stroke:none;stroke-width:2.11278" id="path181191" d="m 672.12241,31.072255 c -1.64374,-3.473415 -4.4622,-7.451787 -7.66095,-9.395547 -6.20102,-3.762866 -14.02254,-3.43961 -21.7004,0.223956 -24.52941,11.700592 -50.22507,32.674189 -58.09519,58.202947 1.31204,2.005031 2.59872,4.086122 3.85372,6.222147 23.01032,-9.412449 65.03991,-9.651193 81.4668,20.766542 7.97364,-22.139851 13.66126,-51.657544 2.13602,-76.020045 z"/><path sodipodi:nodetypes="ccccccc" inkscape:connector-curvature="0" style="clip-rule:evenodd;fill:url(#SVGID_7_);fill-rule:evenodd;stroke:none;stroke-width:2.11278" id="path181208" d="m 575.97177,81.449454 c -0.32749,-2.700137 0.34016,-5.142514 2.12545,-5.824943 1.69446,-0.65285 3.82626,0.435233 5.2714,2.539566 9.92164,14.45355 18.42136,33.646063 22.09337,48.074263 2.27547,8.9413 3.40581,18.34741 3.19454,28.03663 -6.5095,-6.65948 -12.12738,-14.06057 -16.69522,-21.92012 -7.59546,-13.08658 -13.83027,-33.362954 -15.98954,-50.905396 z"/><path id="path6" style="fill:#005ca6;fill-opacity:1;stroke:none;stroke-width:2.11278" d="m 365.15109,148.72256 c -3.19241,-7.57008 -8.3411,-12.92507 -20.03969,-13.4267 -10.07991,-0.43222 -16.85784,2.52054 -16.85784,7.70952 0,6.51581 5.14304,7.9477 21.53976,11.23786 13.71668,2.75238 23.08415,5.83767 30.68385,10.3843 12.84776,7.68635 17.85745,18.87544 17.08181,32.71635 -1.72165,30.72178 -33.5509,42.90415 -62.61637,42.90415 -29.84509,0 -51.85177,-9.76102 -61.34025,-36.4961 l 37.23557,-8.23983 c 4.54459,10.33571 11.82313,15.28315 24.61385,15.59863 10.25122,0.25285 17.61212,-2.83324 17.61212,-8.26307 0,-6.29396 -6.38587,-7.85761 -22.84335,-11.79141 -23.54796,-5.62862 -46.47801,-14.54649 -45.99515,-39.5216 0.66015,-34.14461 33.60164,-45.13845 63.99389,-44.12535 22.40394,0.74683 44.66199,10.13077 52.88493,33.3523 z m 90.78602,-17.16421 c 3.03184,-5.48688 7.00424,-10.46747 12.0048,-14.09644 7.80921,-5.66724 17.64379,-8.50182 28.08092,-8.50182 20.62492,0 33.15691,13.19002 33.9502,31.49305 0.17225,3.97409 0.0642,8.90636 -1.02047,15.37469 l -13.2957,79.28828 h -46.52123 l 12.0386,-71.58511 c 0.85639,-5.09237 1.23809,-7.71796 1.23809,-9.7082 0,-6.46933 -3.73751,-10.76882 -10.93996,-10.76882 -9.69554,0 -15.66448,6.31928 -17.91213,19.65726 l -12.20128,72.40487 h -45.58949 l 20.61858,-122.57697 h 42.75204 z M 122.41628,235.11822 H 77.443709 L 98.06441,112.54126 h 41.74213 l -3.23044,19.01709 c 3.86216,-6.12705 7.40389,-10.15097 11.30759,-13.17315 8.32505,-6.44516 17.76423,-9.42511 27.70273,-9.42511 15.65568,0 25.3005,7.72009 29.82606,22.40389 8.93917,-15.40426 21.78063,-22.40389 38.42085,-22.40389 21.60526,0 33.45752,12.91335 33.91219,33.90585 0.0862,3.97841 -0.28292,8.23587 -0.9909,12.43158 l -13.46895,79.8207 h -46.21065 l 12.22664,-72.69219 c 0.70586,-4.19666 0.917,-6.47341 0.74369,-8.95607 -0.48375,-6.92976 -3.70158,-10.35049 -9.91737,-10.35049 -4.72206,0 -9.07344,2.16148 -11.99001,6.95738 -2.19847,3.61507 -2.51308,5.67617 -4.03117,14.67745 l -11.86747,70.36604 h -44.98947 l 12.27946,-72.6922 c 0.70872,-4.19547 0.81191,-6.47374 0.63806,-8.95606 -0.48534,-6.9301 -4.0164,-10.35049 -10.23008,-10.35049 -4.72416,0 -8.71263,2.16375 -11.62661,6.95737 -2.19893,3.61735 -2.51356,5.67643 -4.03117,14.67746 z" sodipodi:nodetypes="cccccccccccccccccccccccccccccccccccccccccccccccccccccccccc"/><path id="path1970" style="clip-rule:evenodd;fill:#005ca6;fill-opacity:1;fill-rule:evenodd;stroke:none;stroke-width:3.04565" d="m 663.30655,178.05612 0.44647,-2.59629 h -10.89813 l -0.44646,2.59629 h 3.79727 l -2.06007,11.98008 h 3.30356 l 2.06008,-11.98008 z m -0.56067,11.98008 h 2.70014 l 2.03818,-11.98008 2.05778,11.98008 h 1.89862 l 5.84155,-11.98008 -1.73952,11.98008 h 2.99882 l 2.40292,-14.57637 h -4.9005 l -4.37282,8.98201 -1.92346,-8.98201 h -4.49517 z" sodipodi:nodetypes="ccccccccccccccccccccccc"/></g></g></svg>