<?xml version="1.0" encoding="UTF-8" standalone="no"?>
<svg
   inkscape:export-ydpi="96"
   inkscape:export-xdpi="96"
   inkscape:export-filename="/media/klapeto/Αρχεία/WindowsXP Theme/Vectors/RASTER/format-text-bold.png"
   width="256"
   height="256"
   viewBox="0 0 256 256"
   version="1.1"
   id="svg8"
   inkscape:version="1.1.1 (3bf5ae0d25, 2021-09-20)"
   sodipodi:docname="bold.svg"
   xmlns:inkscape="http://www.inkscape.org/namespaces/inkscape"
   xmlns:sodipodi="http://sodipodi.sourceforge.net/DTD/sodipodi-0.dtd"
   xmlns="http://www.w3.org/2000/svg"
   xmlns:svg="http://www.w3.org/2000/svg"
   xmlns:rdf="http://www.w3.org/1999/02/22-rdf-syntax-ns#"
   xmlns:cc="http://creativecommons.org/ns#"
   xmlns:dc="http://purl.org/dc/elements/1.1/">
  <defs
     id="defs2" />
  <sodipodi:namedview
     inkscape:snap-bbox-edge-midpoints="true"
     inkscape:snap-smooth-nodes="false"
     inkscape:snap-midpoints="false"
     inkscape:object-paths="false"
     inkscape:guide-bbox="true"
     showguides="false"
     id="base"
     pagecolor="#ffffff"
     bordercolor="#666666"
     borderopacity="1.0"
     inkscape:pageopacity="0.0"
     inkscape:pageshadow="2"
     inkscape:zoom="1"
     inkscape:cx="-49"
     inkscape:cy="435"
     inkscape:document-units="px"
     inkscape:current-layer="layer1"
     inkscape:document-rotation="0"
     showgrid="false"
     units="px"
     inkscape:window-width="3840"
     inkscape:window-height="2045"
     inkscape:window-x="3840"
     inkscape:window-y="0"
     inkscape:window-maximized="1"
     inkscape:snap-bbox="true"
     inkscape:bbox-nodes="true"
     fit-margin-top="0"
     fit-margin-left="0"
     fit-margin-right="0"
     fit-margin-bottom="0"
     inkscape:bbox-paths="true"
     inkscape:snap-global="true"
     inkscape:pagecheckerboard="0">
    <inkscape:grid
       type="xygrid"
       id="grid1504"
       originx="0"
       originy="0" />
    <inkscape:grid
       type="xygrid"
       id="grid1765"
       spacingx="0.5"
       spacingy="0.5" />
  </sodipodi:namedview>
  <metadata
     id="metadata5">
    <rdf:RDF>
      <cc:Work
         rdf:about="">
        <dc:format>image/svg+xml</dc:format>
        <dc:type
           rdf:resource="http://purl.org/dc/dcmitype/StillImage" />
      </cc:Work>
    </rdf:RDF>
  </metadata>
  <g
     inkscape:label="Layer 1"
     inkscape:groupmode="layer"
     id="layer1"
     transform="translate(-12.567709)">
    <g
       style="font-weight:bold;font-size:266.667px;line-height:1.25;font-family:'Times New Roman';-inkscape-font-specification:'Times New Roman, Bold';text-align:center;letter-spacing:0px;word-spacing:0px;text-anchor:middle;stroke-width:17.9351"
       id="text1013"
       aria-label="B">
      <path
         id="path1015"
         style="font-style:normal;font-variant:normal;font-weight:bold;font-stretch:normal;font-size:266.667px;font-family:'Times New Roman';-inkscape-font-specification:'Times New Roman, Bold';stroke-width:17.9351"
         d="m 172.14327,122.66145 q 25.13024,5.85938 35.2865,14.19273 14.58335,11.84897 14.58335,30.7292 0,19.9219 -16.01564,32.94275 -19.66148,15.75523 -57.16153,15.75523 H 59.122299 v -4.81772 q 12.239598,0 16.536479,-2.21354 4.427088,-2.34375 6.119799,-5.98959 1.822919,-3.64584 1.822919,-17.96877 V 70.708262 q 0,-14.322934 -1.822919,-17.968771 Q 80.085866,48.963444 75.658778,46.7499 71.231689,44.536355 59.122299,44.536355 v -4.817714 h 84.635521 q 30.33858,0 42.9688,5.468757 12.63023,5.338548 19.9219,16.145853 7.29168,10.677096 7.29168,22.786486 0,12.760432 -9.24481,22.786483 -9.2448,9.89585 -32.55212,15.75523 z m -47.39589,-3.51563 q 18.48961,0 27.21357,-4.16667 8.85418,-4.16667 13.54169,-11.71876 4.6875,-7.552097 4.6875,-19.270861 0,-11.718765 -4.6875,-19.140649 -4.5573,-7.552092 -13.15106,-11.458347 -8.59376,-3.906255 -27.6042,-3.776046 z m 0,10.15626 v 56.6407 l -0.13021,6.51042 q 0,7.03126 3.51563,10.6771 3.64584,3.51563 10.6771,3.51563 10.41668,0 19.14064,-4.5573 8.85418,-4.6875 13.54169,-13.41147 4.6875,-8.85418 4.6875,-19.66149 0,-12.3698 -5.72917,-22.13544 -5.72917,-9.89584 -15.75523,-13.8021 -10.02605,-3.90625 -29.94795,-3.77605 z" />
    </g>
  </g>
</svg>
