<?xml version="1.0" encoding="UTF-8" standalone="no"?>
<!-- Created with Inkscape (http://www.inkscape.org/) -->

<svg
   xmlns:dc="http://purl.org/dc/elements/1.1/"
   xmlns:cc="http://creativecommons.org/ns#"
   xmlns:rdf="http://www.w3.org/1999/02/22-rdf-syntax-ns#"
   xmlns:svg="http://www.w3.org/2000/svg"
   xmlns="http://www.w3.org/2000/svg"
   xmlns:sodipodi="http://sodipodi.sourceforge.net/DTD/sodipodi-0.dtd"
   xmlns:inkscape="http://www.inkscape.org/namespaces/inkscape"
   width="52.000004"
   height="52.000004"
   viewBox="0 0 52.000004 52.000006"
   version="1.1"
   id="svg832"
   inkscape:version="0.92.5 (2060ec1f9f, 2020-04-08)"
   sodipodi:docname="arrows.svg">
  <defs
     id="defs826" />
  <sodipodi:namedview
     id="base"
     pagecolor="#ffffff"
     bordercolor="#666666"
     borderopacity="1.0"
     inkscape:pageopacity="0.0"
     inkscape:pageshadow="2"
     inkscape:zoom="7.9999996"
     inkscape:cx="16.994723"
     inkscape:cy="27.82819"
     inkscape:document-units="px"
     inkscape:current-layer="layer1"
     showgrid="false"
     units="px"
     inkscape:pagecheckerboard="true"
     inkscape:showpageshadow="false"
     fit-margin-top="10"
     fit-margin-left="10"
     fit-margin-right="10"
     fit-margin-bottom="10"
     showguides="true"
     inkscape:guide-bbox="true"
     inkscape:snap-bbox="true"
     inkscape:bbox-paths="true"
     inkscape:bbox-nodes="true"
     inkscape:snap-bbox-edge-midpoints="true"
     inkscape:snap-global="true">
    <inkscape:grid
       type="xygrid"
       id="grid4365" />
  </sodipodi:namedview>
  <metadata
     id="metadata829">
    <rdf:RDF>
      <cc:Work
         rdf:about="">
        <dc:format>image/svg+xml</dc:format>
        <dc:type
           rdf:resource="http://purl.org/dc/dcmitype/StillImage" />
        <dc:title />
      </cc:Work>
    </rdf:RDF>
  </metadata>
  <g
     inkscape:label="Layer 1"
     inkscape:groupmode="layer"
     id="layer1"
     transform="translate(-113.21508,-314.26254)">
    <g
       id="up-arrow">
      <rect
         y="317.26254"
         x="113.21508"
         height="24"
         width="24"
         id="rect2880"
         style="opacity:0.6;fill:none;fill-opacity:1;stroke:none;stroke-width:1;stroke-linecap:round;stroke-miterlimit:4;stroke-dasharray:none;stroke-opacity:1" />
      <g
         transform="translate(265.21508,-777.25707)"
         id="spind-up-normal">
        <rect
           style="opacity:1;fill:none;fill-opacity:1;stroke:none;stroke-width:0.99999988;stroke-miterlimit:4;stroke-dasharray:none;stroke-opacity:1"
           id="rect10792"
           width="8.9998684"
           height="8.9998884"
           x="-143.99994"
           y="1102.5198" />
        <g
           id="g10799"
           transform="matrix(1,0,0,-1,-78.999765,2333.0397)">
          <path
             id="path10756"
             transform="translate(-100.64086,636.18025)"
             d="m 36.640625,587.33984 v 1 h -1 v 1 h 1 v 1 h 1 v 1 h 1 v 1 h 1 v 1 h 1 v -1 h 1 v -1 h 1 v -1 h 1 v -1 h 1 v -1 h -1 v -1 h -1 v 1 h -1 v 1 h -1 v 1 h -1 v -1 h -1 v -1 h -1 v -1 z"
             style="opacity:1;fill:#ffffff;fill-opacity:1;stroke:none;stroke-width:1;stroke-miterlimit:4;stroke-dasharray:none;stroke-opacity:1"
             inkscape:connector-curvature="0" />
        </g>
      </g>
    </g>
    <g
       id="right-arrow"
       transform="rotate(90,126.94413,353.96495)">
      <rect
         style="opacity:0.6;fill:none;fill-opacity:1;stroke:none;stroke-width:1;stroke-linecap:round;stroke-miterlimit:4;stroke-dasharray:none;stroke-opacity:1"
         id="rect4374"
         width="24"
         height="24"
         x="113.21508"
         y="317.26254" />
      <g
         id="g4382"
         transform="translate(265.21508,-777.25707)">
        <rect
           y="1102.5198"
           x="-143.99994"
           height="8.9998884"
           width="8.9998684"
           id="rect4376"
           style="opacity:1;fill:none;fill-opacity:1;stroke:none;stroke-width:0.99999988;stroke-miterlimit:4;stroke-dasharray:none;stroke-opacity:1" />
        <g
           transform="matrix(1,0,0,-1,-78.999765,2333.0397)"
           id="g4380">
          <path
             inkscape:connector-curvature="0"
             style="opacity:1;fill:#ffffff;fill-opacity:1;stroke:none;stroke-width:1;stroke-miterlimit:4;stroke-dasharray:none;stroke-opacity:1"
             d="m 36.640625,587.33984 v 1 h -1 v 1 h 1 v 1 h 1 v 1 h 1 v 1 h 1 v 1 h 1 v -1 h 1 v -1 h 1 v -1 h 1 v -1 h 1 v -1 h -1 v -1 h -1 v 1 h -1 v 1 h -1 v 1 h -1 v -1 h -1 v -1 h -1 v -1 z"
             transform="translate(-100.64086,636.18025)"
             id="path4378" />
        </g>
      </g>
    </g>
    <g
       id="down-arrow"
       transform="matrix(1,0,0,-1,0,682.52509)">
      <rect
         style="opacity:0.6;fill:none;fill-opacity:1;stroke:none;stroke-width:1;stroke-linecap:round;stroke-miterlimit:4;stroke-dasharray:none;stroke-opacity:1"
         id="rect4386"
         width="24"
         height="24"
         x="113.21508"
         y="317.26254" />
      <g
         id="g4394"
         transform="translate(265.21508,-777.25707)">
        <rect
           y="1102.5198"
           x="-143.99994"
           height="8.9998884"
           width="8.9998684"
           id="rect4388"
           style="opacity:1;fill:none;fill-opacity:1;stroke:none;stroke-width:0.99999988;stroke-miterlimit:4;stroke-dasharray:none;stroke-opacity:1" />
        <g
           transform="matrix(1,0,0,-1,-78.999765,2333.0397)"
           id="g4392">
          <path
             inkscape:connector-curvature="0"
             style="opacity:1;fill:#ffffff;fill-opacity:1;stroke:none;stroke-width:1;stroke-miterlimit:4;stroke-dasharray:none;stroke-opacity:1"
             d="m 36.640625,587.33984 v 1 h -1 v 1 h 1 v 1 h 1 v 1 h 1 v 1 h 1 v 1 h 1 v -1 h 1 v -1 h 1 v -1 h 1 v -1 h 1 v -1 h -1 v -1 h -1 v 1 h -1 v 1 h -1 v 1 h -1 v -1 h -1 v -1 h -1 v -1 z"
             transform="translate(-100.64086,636.18025)"
             id="path4390" />
        </g>
      </g>
    </g>
    <g
       id="left-arrow"
       transform="rotate(-90,137.91749,315.53349)">
      <rect
         style="opacity:0.6;fill:none;fill-opacity:1;stroke:none;stroke-width:1;stroke-linecap:round;stroke-miterlimit:4;stroke-dasharray:none;stroke-opacity:1"
         id="rect4398"
         width="24"
         height="24"
         x="113.21508"
         y="317.26254" />
      <g
         id="g4406"
         transform="translate(265.21508,-777.25707)">
        <rect
           y="1102.5198"
           x="-143.99994"
           height="8.9998884"
           width="8.9998684"
           id="rect4400"
           style="opacity:1;fill:none;fill-opacity:1;stroke:none;stroke-width:0.99999988;stroke-miterlimit:4;stroke-dasharray:none;stroke-opacity:1" />
        <g
           transform="matrix(1,0,0,-1,-78.999765,2333.0397)"
           id="g4404">
          <path
             inkscape:connector-curvature="0"
             style="opacity:1;fill:#ffffff;fill-opacity:1;stroke:none;stroke-width:1;stroke-miterlimit:4;stroke-dasharray:none;stroke-opacity:1"
             d="m 36.640625,587.33984 v 1 h -1 v 1 h 1 v 1 h 1 v 1 h 1 v 1 h 1 v 1 h 1 v -1 h 1 v -1 h 1 v -1 h 1 v -1 h 1 v -1 h -1 v -1 h -1 v 1 h -1 v 1 h -1 v 1 h -1 v -1 h -1 v -1 h -1 v -1 z"
             transform="translate(-100.64086,636.18025)"
             id="path4402" />
        </g>
      </g>
    </g>
  </g>
</svg>
