<?xml version="1.0" encoding="UTF-8" standalone="no"?>
<svg
   inkscape:export-ydpi="96"
   inkscape:export-xdpi="96"
   inkscape:export-filename="/media/klapeto/Αρχεία/WindowsXP Theme/Vectors/RASTER/edit-find-user.png"
   sodipodi:docname="search-user.svg"
   inkscape:version="1.1.1 (3bf5ae0d25, 2021-09-20)"
   id="svg8"
   version="1.1"
   viewBox="0 0 256 256"
   height="256"
   width="256"
   xmlns:inkscape="http://www.inkscape.org/namespaces/inkscape"
   xmlns:sodipodi="http://sodipodi.sourceforge.net/DTD/sodipodi-0.dtd"
   xmlns:xlink="http://www.w3.org/1999/xlink"
   xmlns="http://www.w3.org/2000/svg"
   xmlns:svg="http://www.w3.org/2000/svg"
   xmlns:rdf="http://www.w3.org/1999/02/22-rdf-syntax-ns#"
   xmlns:cc="http://creativecommons.org/ns#"
   xmlns:dc="http://purl.org/dc/elements/1.1/">
  <defs
     id="defs2">
    <linearGradient
       gradientTransform="translate(-13,8)"
       gradientUnits="userSpaceOnUse"
       y2="22.5"
       x2="-27.932291"
       y1="16.5"
       x1="-33.432289"
       id="linearGradient1038"
       xlink:href="#linearGradient1090"
       inkscape:collect="always" />
    <linearGradient
       inkscape:collect="always"
       id="linearGradient1090">
      <stop
         style="stop-color:#cccccc;stop-opacity:1"
         offset="0"
         id="stop1084" />
      <stop
         id="stop1086"
         offset="0.5"
         style="stop-color:#6c6c6c;stop-opacity:1" />
      <stop
         style="stop-color:#aeaeae;stop-opacity:1"
         offset="1"
         id="stop1088" />
    </linearGradient>
    <linearGradient
       gradientTransform="translate(-27)"
       gradientUnits="userSpaceOnUse"
       y2="45.5"
       x2="-30.432291"
       y1="40.5"
       x1="-34.932289"
       id="linearGradient1072"
       xlink:href="#linearGradient1090"
       inkscape:collect="always" />
    <linearGradient
       gradientTransform="translate(-51)"
       gradientUnits="userSpaceOnUse"
       y2="38.5"
       x2="1.567709"
       y1="32.5"
       x1="-4.432291"
       id="linearGradient1058"
       xlink:href="#linearGradient1056"
       inkscape:collect="always" />
    <linearGradient
       id="linearGradient1056"
       inkscape:collect="always">
      <stop
         id="stop1052"
         offset="0"
         style="stop-color:#fdb562;stop-opacity:1" />
      <stop
         style="stop-color:#ffc761;stop-opacity:1"
         offset="0.25"
         id="stop1062" />
      <stop
         style="stop-color:#b56a49;stop-opacity:1"
         offset="0.625"
         id="stop1060" />
      <stop
         id="stop1054"
         offset="1"
         style="stop-color:#9b94c0;stop-opacity:1" />
    </linearGradient>
    <radialGradient
       gradientTransform="matrix(0.86770839,-0.74222111,0.83566672,0.97695285,-7.339912,31.446016)"
       gradientUnits="userSpaceOnUse"
       r="14.862405"
       fy="24.957972"
       fx="41.694061"
       cy="24.957972"
       cx="41.694061"
       id="radialGradient1007"
       xlink:href="#linearGradient1005"
       inkscape:collect="always" />
    <linearGradient
       id="linearGradient1005"
       inkscape:collect="always">
      <stop
         id="stop1001"
         offset="0"
         style="stop-color:#ffffff;stop-opacity:1" />
      <stop
         style="stop-color:#d9ffff;stop-opacity:1"
         offset="0.61435235"
         id="stop1009" />
      <stop
         id="stop1003"
         offset="1"
         style="stop-color:#a3d6ff;stop-opacity:1" />
    </linearGradient>
    <linearGradient
       gradientTransform="translate(6.348019)"
       gradientUnits="userSpaceOnUse"
       y2="4.5"
       x2="27.814995"
       y1="27"
       x1="44.314995"
       id="linearGradient1124"
       xlink:href="#linearGradient1122"
       inkscape:collect="always" />
    <linearGradient
       id="linearGradient1122"
       inkscape:collect="always">
      <stop
         id="stop1118"
         offset="0"
         style="stop-color:#6a6a9d;stop-opacity:1" />
      <stop
         id="stop1120"
         offset="1"
         style="stop-color:#8585b4;stop-opacity:1" />
    </linearGradient>
    <radialGradient
       cx="0"
       cy="0"
       gradientTransform="matrix(0.02160355,0,0,0.02160355,-123.79395,121.06747)"
       gradientUnits="userSpaceOnUse"
       id="gradient0-0"
       r="819.20001"
       spreadMethod="pad">
      <stop
         offset="0.0"
         stop-color="#ccffcc"
         id="stop46-6" />
      <stop
         offset="1.0"
         stop-color="#009900"
         id="stop48-3" />
    </radialGradient>
    <linearGradient
       gradientTransform="matrix(-7.2704254e-4,0.00799747,0.00654338,5.193161e-4,-122.13214,126.41643)"
       gradientUnits="userSpaceOnUse"
       id="gradient1-2"
       spreadMethod="pad"
       x1="-819.20001"
       x2="819.20001">
      <stop
         offset="0.0"
         stop-color="#99ccff"
         id="stop51-0" />
      <stop
         offset="0.09411764705882353"
         stop-color="#99ccff"
         id="stop53-6" />
      <stop
         offset="0.396078431372549"
         stop-color="#ffffff"
         id="stop55-1" />
      <stop
         offset="1.0"
         stop-color="#ccffff"
         id="stop57-5" />
    </linearGradient>
    <radialGradient
       cx="0"
       cy="0"
       gradientTransform="matrix(0.02877011,0,0,0.02877011,-123.01497,100.60642)"
       gradientUnits="userSpaceOnUse"
       id="gradient2-5"
       r="819.20001"
       spreadMethod="pad">
      <stop
         offset="0.0"
         stop-color="#ffff99"
         id="stop60-7" />
      <stop
         offset="0.24313725490196078"
         stop-color="#ffcc66"
         id="stop62-4" />
      <stop
         offset="0.7137254901960784"
         stop-color="#ff9933"
         id="stop64-7" />
      <stop
         offset="1.0"
         stop-color="#996600"
         id="stop66-65" />
    </radialGradient>
    <linearGradient
       gradientTransform="matrix(0,0.00228499,0.00997087,0,-121.2493,106.21503)"
       gradientUnits="userSpaceOnUse"
       id="gradient3-6"
       spreadMethod="pad"
       x1="-819.20001"
       x2="819.20001">
      <stop
         offset="0.0"
         stop-color="#ff9933"
         id="stop69-93" />
      <stop
         offset="0.48627450980392156"
         stop-color="#ff9933"
         id="stop71-7" />
      <stop
         offset="1.0"
         stop-color="#ffcc66"
         id="stop73-4" />
    </linearGradient>
    <radialGradient
       cx="0"
       cy="0"
       gradientTransform="matrix(0.01661812,0,0,0.01661812,-122.3918,99.61972)"
       gradientUnits="userSpaceOnUse"
       id="gradient4-5"
       r="819.20001"
       spreadMethod="pad">
      <stop
         offset="0.0"
         stop-color="#f0ddbd"
         id="stop76-2" />
      <stop
         offset="0.3803921568627451"
         stop-color="#d8a650"
         id="stop78-5" />
      <stop
         offset="0.8196078431372549"
         stop-color="#996600"
         id="stop80-4" />
      <stop
         offset="1.0"
         stop-color="#926821"
         id="stop82-7" />
    </radialGradient>
    <linearGradient
       gradientTransform="matrix(-0.00778974,0.00363521,0.00270044,0.00581634,-120.93771,104.55322)"
       gradientUnits="userSpaceOnUse"
       id="gradient5-4"
       spreadMethod="pad"
       x1="-819.20001"
       x2="819.20001">
      <stop
         offset="0.0"
         stop-color="#996600"
         id="stop85-4" />
      <stop
         offset="0.3411764705882353"
         stop-color="#f0ddbd"
         id="stop87-3" />
      <stop
         offset="0.6784313725490196"
         stop-color="#d8a650"
         id="stop89-0" />
      <stop
         offset="1.0"
         stop-color="#996600"
         id="stop91-7" />
    </linearGradient>
    <filter
       height="1.0932476"
       y="-0.046623802"
       width="1.0989198"
       x="-0.049459909"
       id="filter2042"
       style="color-interpolation-filters:sRGB"
       inkscape:collect="always">
      <feGaussianBlur
         id="feGaussianBlur2044"
         stdDeviation="4.7012049"
         inkscape:collect="always" />
    </filter>
  </defs>
  <sodipodi:namedview
     inkscape:bbox-paths="false"
     fit-margin-bottom="0"
     fit-margin-right="0"
     fit-margin-left="0"
     fit-margin-top="0"
     inkscape:bbox-nodes="true"
     inkscape:snap-bbox="true"
     inkscape:window-maximized="1"
     inkscape:window-y="0"
     inkscape:window-x="3840"
     inkscape:window-height="2045"
     inkscape:window-width="3840"
     units="px"
     showgrid="false"
     inkscape:document-rotation="0"
     inkscape:current-layer="layer1"
     inkscape:document-units="px"
     inkscape:cy="178.49999"
     inkscape:cx="-205.49999"
     inkscape:zoom="2.0000001"
     inkscape:pageshadow="2"
     inkscape:pageopacity="0.0"
     borderopacity="1.0"
     bordercolor="#666666"
     pagecolor="#ffffff"
     id="base"
     showguides="true"
     inkscape:guide-bbox="true"
     inkscape:snap-nodes="true"
     inkscape:pagecheckerboard="0">
    <inkscape:grid
       originy="0"
       originx="0"
       id="grid1504"
       type="xygrid" />
    <inkscape:grid
       originy="0"
       originx="0"
       spacingy="0.5"
       spacingx="0.5"
       id="grid1507"
       type="xygrid" />
  </sodipodi:namedview>
  <metadata
     id="metadata5">
    <rdf:RDF>
      <cc:Work
         rdf:about="">
        <dc:format>image/svg+xml</dc:format>
        <dc:type
           rdf:resource="http://purl.org/dc/dcmitype/StillImage" />
      </cc:Work>
    </rdf:RDF>
  </metadata>
  <g
     transform="translate(-12.567709)"
     id="layer1"
     inkscape:groupmode="layer"
     inkscape:label="Layer 1">
    <path
       d="M 105.90157,4.0022497 C 97.191849,4.0618096 89.284784,6.258843 82.382038,10.640922 77.953821,13.452092 73.966923,17.13678 70.397663,21.642875 61.13559,32.388792 55.888134,46.5253 54.581257,63.701469 c -1.383664,17.802275 1.594612,33.831871 9.001953,47.847661 0,0 0.002,0.002 0.002,0.002 0,0 0,0.002 0,0.002 1.943268,3.69164 4.12175,7.00906 6.515625,9.95508 -1.5675,0.3825 -3.143517,0.7915 -4.732422,1.23828 0,0 -0.002,0 -0.002,0 -0.002,5.7e-4 -0.0038,9.6e-4 -0.0059,0.002 -14.236573,3.95576 -24.50677,9.75653 -30.464844,17.83593 -8.57e-4,0.001 -0.0011,0.003 -0.002,0.004 -6.165519,8.29393 -8.311703,19.79384 -6.919922,34.10938 a 2.8928943,2.8928943 0 0 0 0.0039,0.041 c 0.482592,4.34324 2.978711,8.23891 6.896485,11.45899 3.850183,3.16452 9.140068,5.82114 15.828125,8.17578 a 2.8928943,2.8928943 0 0 0 0.310546,0.13086 c 0.0018,6.4e-4 0.004,9.5e-4 0.0059,0.002 11.919123,4.17092 26.987846,6.88971 45.279297,8.25195 3.083063,0.28627 6.10279,0.50599 9.08985,0.69336 l -19.529303,19.5293 1.373046,1.37305 c -1.047884,3.60201 -2.253666,13.02286 2.455079,17.76757 5.24362,5.28369 13.415698,4.15905 17.798828,2.48829 l 1.33985,1.33984 46.46289,-44.74219 c 1.52153,-0.31202 2.93493,-0.64658 4.21288,-1.01172 4.33399,-1.23828 7.501,-2.5997 9.21289,-5.50195 1.70119,-2.79903 2.82431,-5.83271 3.39844,-9.07031 3.19803,-0.0106 6.28847,-0.16908 9.19141,-0.33399 5.88251,2.12273 12.22186,3.28516 18.83203,3.28516 30.01237,0 54.43608,-23.87248 55.45508,-53.63867 h 0.0977 v -1.91407 -1.91406 h -0.0977 c -1.019,-29.7662 -25.44271,-53.640626 -55.45508,-53.640626 -30.65138,0 -55.54104,24.884536 -55.55274,55.533206 -3.74529,-2.66098 -7.63047,-4.97347 -11.6582,-6.91992 1.51555,-1.34383 3.00395,-2.794 4.46485,-4.35742 a 2.8928943,2.8928943 0 0 0 0.006,-0.006 c 10.41068,-11.21147 17.39745,-25.337314 20.95899,-42.154303 3.6071,-16.714339 2.67445,-31.713112 -2.94922,-44.714844 -1.69558,-4.238372 -3.82553,-8.084666 -6.42587,-11.505989 C 141.34037,13.290875 129.81001,7.0586006 114.90939,4.6584997 a 2.8928943,2.8928943 0 0 0 -0.0371,-0.00586 c -3.07403,-0.4535452 -6.06746,-0.6702444 -8.97071,-0.650391 z"
       style="fill:#212121;fill-opacity:1;stroke-width:5.78521;filter:url(#filter2042)"
       id="path1882" />
    <g
       transform="matrix(5.5700394,0,0,5.5700394,779.89628,-547.32184)"
       id="g1880">
      <path
         id="path2"
         stroke="none"
         fill-rule="evenodd"
         fill="url(#gradient0)"
         d="m -131.58369,131.97311 q 3.1159,1.09057 7.99747,1.45409 4.46612,0.41545 8.15326,0.0519 3.84294,-0.36352 4.36226,-1.24636 1.29829,-2.1292 -0.10387,-5.40089 -1.29829,-2.9601 -3.79101,-4.7777 -5.7644,-4.31033 -14.07346,-1.97341 -3.73908,1.03864 -5.19316,3.01204 -1.50602,2.02533 -1.1425,5.76441 0.20773,1.86953 3.79101,3.11589"
         style="fill:url(#gradient0-0);stroke-width:1.03863" />
      <path
         id="path4"
         stroke-width="1.03863"
         stroke-linejoin="round"
         stroke-linecap="round"
         stroke="#006600"
         fill="none"
         d="m -131.58369,131.97311 q -3.58328,-1.24636 -3.79101,-3.11589 -0.36352,-3.73908 1.1425,-5.76441 1.45408,-1.9734 5.19316,-3.01204 8.30906,-2.33692 14.07346,1.97341 2.49272,1.8176 3.79101,4.7777 1.40216,3.27169 0.10387,5.40089 -0.51932,0.88284 -4.36226,1.24636 -3.68714,0.36352 -8.15326,-0.0519 -4.88157,-0.36352 -7.99747,-1.45409 z" />
      <path
         id="path6"
         stroke="none"
         fill-rule="evenodd"
         fill="url(#gradient1)"
         d="m -116.88704,121.06747 q -2.44079,-1.45408 -5.81635,-1.45408 l -3.37555,-0.20773 -1.50602,0.20773 q -0.9867,5.81634 2.44079,12.93097 4.36225,-7.58201 8.25713,-11.47689"
         style="fill:url(#gradient1-2);stroke-width:1.03863" />
      <path
         id="path8"
         stroke-width="1.03863"
         stroke-linejoin="round"
         stroke-linecap="round"
         stroke="#006600"
         fill="none"
         d="m -116.88704,121.06747 q -3.89488,3.89488 -8.25713,11.47689 -3.42749,-7.11463 -2.44079,-12.93097 l 1.50602,-0.20773 3.37555,0.20773 q 3.37556,0 5.81635,1.45408 z" />
      <path
         id="path10"
         stroke="none"
         fill-rule="evenodd"
         fill="url(#gradient2)"
         d="m -123.11884,121.74259 q 3.53135,0.46738 6.49145,-2.70045 2.70045,-2.90817 3.63522,-7.32236 0.9867,-4.56998 -0.62318,-7.99746 -1.76568,-3.894874 -6.33566,-4.673848 -4.72578,-0.830906 -7.63395,2.388858 -2.64851,2.8043 -3.01203,7.58201 -0.36352,4.67385 1.55795,8.30906 2.07726,3.9468 5.9202,4.41419"
         style="fill:url(#gradient2-5);stroke-width:1.03863" />
      <path
         id="path12"
         stroke-width="1.03863"
         stroke-linejoin="round"
         stroke-linecap="round"
         stroke="#996600"
         fill="none"
         d="m -123.11884,121.74259 q -3.84294,-0.46739 -5.9202,-4.41419 -1.92147,-3.63521 -1.55795,-8.30906 0.36352,-4.77771 3.01203,-7.58201 2.90817,-3.219764 7.63395,-2.388858 4.56998,0.778974 6.33566,4.673848 1.60988,3.42748 0.62318,7.99746 -0.93477,4.41419 -3.63522,7.32236 -2.9601,3.16783 -6.49145,2.70045 z" />
      <path
         id="path14"
         stroke="none"
         fill-rule="evenodd"
         fill="url(#gradient3)"
         d="m -113.09604,107.87685 q -2.38885,-5.29703 -8.56871,-2.96011 -5.29703,2.02534 -7.73781,-0.41545 4.20646,5.40089 8.56871,2.90817 3.37556,-1.92147 7.73781,0.46739"
         style="fill:url(#gradient3-6);stroke-width:1.03863" />
      <path
         id="path16"
         stroke="none"
         fill-rule="evenodd"
         fill="url(#gradient4)"
         d="m -112.57672,109.01934 q -0.0519,-8.8803 -7.78974,-10.126663 -6.33566,-0.934769 -9.24383,5.868273 1.1425,1.40215 3.89487,1.92147 1.45409,0.31159 2.70045,-0.25966 1.92146,-0.88284 4.10259,-1.19443 3.01204,-0.41545 4.88157,1.35023 1.40216,1.24635 1.45409,2.44078"
         style="fill:url(#gradient4-5);stroke-width:1.03863" />
      <path
         id="path20"
         stroke="none"
         fill-rule="evenodd"
         fill="url(#gradient5)"
         d="m -124.74919,106.50925 2.80726,-0.91029 c 1.14249,-0.55394 2.10068,-0.89238 3.41628,-0.89238 2.9428,0 4.80643,0.98914 5.42961,3.58572 0.34621,-2.28499 -0.62318,-3.91218 -2.90817,-4.88157 -2.49271,-1.07326 -4.62191,-1.21174 -6.38759,-0.41546 l -1.8176,1.09057 c -0.6578,0.45007 -1.15981,0.70973 -1.50602,0.77897 -0.96939,0.24235 -1.69643,0.24235 -2.18113,0 l -0.41545,-0.31159 -0.31159,-0.15579 c 0,-0.51932 -0.13848,-0.55394 -0.41545,-0.10387 -0.27697,0.4847 -0.29428,0.83091 -0.0519,1.03864 0.41545,0.34621 1.07325,0.62318 1.9734,0.8309"
         style="fill:url(#gradient5-4);stroke-width:1.03863"
         sodipodi:nodetypes="ccsccccccccccc" />
      <path
         sodipodi:nodetypes="cccccccc"
         id="path18"
         stroke-width="1.03863"
         stroke-linejoin="round"
         stroke-linecap="round"
         stroke="#996600"
         fill="none"
         d="m -112.6375,109.021 c -0.0346,-0.79628 -0.45854,-1.61154 -1.39331,-2.44244 -1.24636,-1.17712 -2.87355,-1.6272 -4.88157,-1.35023 -1.45408,0.20773 -2.82162,0.60587 -4.10259,1.19443 -0.83091,0.38083 -1.73106,0.46739 -2.70045,0.25966 -1.83492,-0.34621 -3.13321,-0.9867 -3.89487,-1.92147 1.93878,-4.53536 5.02006,-6.491452 9.24383,-5.868273 5.15854,0.830906 7.69434,4.208123 7.72896,10.128323 z" />
    </g>
    <g
       style="opacity:1"
       id="g1400"
       transform="translate(-268.2753,31.380189)" />
    <path
       sodipodi:nodetypes="ccccccccccccsccc"
       d="m 164.46929,145.11607 c -4.66516,-2.96212 -29.88082,-19.41178 -29.88082,-19.41178 0,7.62157 1.53609,14.20227 4.31909,20.81747 -0.33169,5.07344 -0.42484,14.37832 0.11328,18.69336 -2.93332,-0.26398 -6.36129,-0.4 -9.14257,0.62305 l -2.3418,-2.53711 -34.01763,35.60478 28.67373,1.80174 28.31265,-12.52371 -1.12891,-1.22265 c 1.12305,-2.51855 1.12891,-7.05698 1.12891,-10.26172 6.52103,1.3052 12.54127,-4.51194 19.052,-4.88181 5.88251,2.12273 14.19415,2.93635 20.80432,2.93635 30.01237,0 54.21062,-18.05202 55.22962,-47.81821 h 0.0977 z"
       style="fill:#007a00;fill-opacity:1;stroke:none;stroke-width:3.82804px;stroke-linecap:butt;stroke-linejoin:miter;stroke-opacity:1"
       id="path2046" />
    <g
       id="g991"
       transform="matrix(0.70469786,0,0,0.70469786,269.91093,51.354206)">
      <g
         transform="matrix(5.432179,0,0,5.432179,-339.14805,26.01423)"
         id="g1329">
        <g
           transform="translate(74.979128)"
           id="g1096">
          <path
             style="fill:url(#linearGradient1038);fill-opacity:1;stroke:none;stroke-width:1px;stroke-linecap:butt;stroke-linejoin:miter;stroke-opacity:1"
             d="m -45.417513,20.586479 c -0.119391,1.067555 -0.177082,4.112119 -0.01478,5.413521 -1.000859,-0.09007 -2.223342,-0.125857 -3,0.5 l 5.5,5.5 c 0.5,-0.5 0.5,-2 0.5,-3 1.929339,0.386163 4.302636,0.21991 6.110344,0.116837 z"
             id="path1030"
             sodipodi:nodetypes="ccccccc" />
          <path
             style="fill:url(#linearGradient1072);fill-opacity:1;stroke:none;stroke-width:1px;stroke-linecap:butt;stroke-linejoin:miter;stroke-opacity:1"
             d="m -61.432291,39 c -0.238415,0.308894 -0.964439,3.524373 0.5,5 1.524144,1.535788 4,1 5,0.5 z"
             id="path1064"
             sodipodi:nodetypes="cscc" />
          <path
             style="fill:none;stroke:#646365;stroke-width:1px;stroke-linecap:round;stroke-linejoin:miter;stroke-opacity:1"
             d="m -60.932291,40 4,4"
             id="path1082"
             sodipodi:nodetypes="cc" />
          <path
             style="fill:url(#linearGradient1058);fill-opacity:1;stroke:none;stroke-width:1px;stroke-linecap:butt;stroke-linejoin:miter;stroke-opacity:1"
             d="m -48.432291,25.5 6,6.5 -13.5,13 -5.999999,-6 z"
             id="path1042"
             sodipodi:nodetypes="ccccc" />
        </g>
        <g
           transform="translate(0.70898437)"
           id="g1226">
          <g
             id="g1218"
             transform="matrix(0.975616,0,0,0.975616,0.67521522,0.024384)">
            <circle
               r="14.362405"
               cy="15.862405"
               cx="42.553322"
               id="path999"
               style="fill:url(#radialGradient1007);fill-opacity:1;fill-rule:evenodd;stroke:url(#linearGradient1124);stroke-width:1.02499;stroke-linecap:square;stroke-linejoin:round;stroke-miterlimit:4;stroke-dasharray:none;stroke-opacity:1" />
            <path
               d="M 42.477099,3.8606875 A 11.999998,11.999998 0 0 0 30.586157,15.860686 11.999998,11.999998 0 0 0 38.851462,27.263745 11.510202,11.510202 0 0 1 31.481565,16.524589 11.510202,11.510202 0 0 1 42.991767,5.0143859 11.510202,11.510202 0 0 1 54.501968,16.524589 a 11.510202,11.510202 0 0 1 -0.06696,1.235969 11.999998,11.999998 0 0 0 0.151149,-1.899872 11.999998,11.999998 0 0 0 -11.999998,-11.9999985 11.999998,11.999998 0 0 0 -0.109056,0 z"
               style="fill:#cafdff;fill-opacity:1;fill-rule:evenodd;stroke:none;stroke-width:0.979593;stroke-linecap:square;stroke-linejoin:round;stroke-miterlimit:4;stroke-dasharray:none;stroke-opacity:1"
               id="path1011" />
            <g
               transform="translate(47.723019)"
               id="g1028">
              <circle
                 style="fill:none;fill-opacity:1;fill-rule:evenodd;stroke:#d8f7ff;stroke-width:0.5;stroke-linecap:square;stroke-linejoin:round;stroke-miterlimit:4;stroke-dasharray:none;stroke-opacity:1"
                 id="path1020"
                 cx="-10.494791"
                 cy="9.5625"
                 r="4.4375" />
              <circle
                 style="fill:#ffffff;fill-opacity:1;fill-rule:evenodd;stroke:none;stroke-width:0.5;stroke-linecap:square;stroke-linejoin:round;stroke-miterlimit:4;stroke-dasharray:none;stroke-opacity:1"
                 id="path1024"
                 cx="-12.182291"
                 cy="7.75"
                 r="2.75" />
            </g>
          </g>
        </g>
      </g>
    </g>
  </g>
</svg>
