<?xml version="1.0" encoding="UTF-8" standalone="no"?>
<svg
   inkscape:export-ydpi="6"
   inkscape:export-xdpi="6"
   inkscape:export-filename="im-user.png"
   sodipodi:docname="user-16.svg"
   inkscape:version="1.1.2 (0a00cf5339, 2022-02-04)"
   version="1.1"
   id="svg2"
   width="256"
   height="256"
   xmlns:inkscape="http://www.inkscape.org/namespaces/inkscape"
   xmlns:sodipodi="http://sodipodi.sourceforge.net/DTD/sodipodi-0.dtd"
   xmlns="http://www.w3.org/2000/svg"
   xmlns:svg="http://www.w3.org/2000/svg"
   xmlns:rdf="http://www.w3.org/1999/02/22-rdf-syntax-ns#"
   xmlns:cc="http://creativecommons.org/ns#"
   xmlns:dc="http://purl.org/dc/elements/1.1/">
  <metadata
     id="metadata151">
    <rdf:RDF>
      <cc:Work
         rdf:about="">
        <dc:format>image/svg+xml</dc:format>
        <dc:type
           rdf:resource="http://purl.org/dc/dcmitype/StillImage" />
      </cc:Work>
    </rdf:RDF>
  </metadata>
  <sodipodi:namedview
     inkscape:document-rotation="0"
     inkscape:current-layer="svg2"
     inkscape:window-maximized="1"
     inkscape:window-y="0"
     inkscape:window-x="0"
     inkscape:cy="160.07609"
     inkscape:cx="76.374721"
     inkscape:zoom="4.5041081"
     fit-margin-bottom="0"
     fit-margin-right="0"
     fit-margin-left="0"
     fit-margin-top="0"
     showgrid="false"
     id="namedview149"
     inkscape:window-height="2043"
     inkscape:window-width="3840"
     inkscape:pageshadow="2"
     inkscape:pageopacity="0"
     guidetolerance="10"
     gridtolerance="10"
     objecttolerance="10"
     borderopacity="1"
     bordercolor="#666666"
     pagecolor="#ffffff"
     inkscape:pagecheckerboard="0">
    <inkscape:grid
       type="xygrid"
       id="grid891" />
    <inkscape:grid
       type="xygrid"
       id="grid893"
       spacingx="0.5"
       spacingy="0.5" />
  </sodipodi:namedview>
  <path
     sodipodi:nodetypes="sccccccccccccsccccscccsccccccccccccccccssccsss"
     d="m 148.47056,14.566962 c -17.1211,0.09407 -31.63476,7.343825 -42.58789,21.150391 -0.006,0.0067 -0.01,0.01479 -0.0156,0.02148 -0.0611,0.07076 -0.11698,0.145792 -0.17774,0.216797 -0.0133,0.01695 -0.0226,0.02747 -0.0332,0.04102 -10.994321,12.868683 -17.220743,29.734938 -18.779294,50.21875 -1.660789,21.36521 1.915935,40.60356 10.80664,57.42382 2.373884,4.50945 5.114274,8.38828 8.029294,11.96485 -1.95813,0.47408 -3.90006,0.90708 -5.890622,1.46679 -17.088785,4.74689 -29.415337,11.70938 -36.566406,21.40625 -7.400935,9.95299 -9.535691,18.83159 -7.865312,36.01264 l 0.002,0.0234 0.0039,0.0234 c 0.57908,5.21172 3.572423,9.88991 8.273437,13.7539 4.701015,3.86399 11.14496,7.10681 19.373047,9.96875 l -0.0059,-0.004 c 14.304643,5.00662 32.391526,8.2694 54.345706,9.90429 20.05083,1.86172 38.40705,1.98459 55.08008,0.3418 8.68592,-0.82164 15.55369,-1.92684 20.75976,-3.41406 5.19628,-1.48443 8.9951,-3.11725 11.05078,-6.59375 6.46766,-10.63237 6.01992,-24.07202 -0.48242,-39.24414 l -0.006,-0.0137 -0.006,-0.0137 c -6.00479,-13.69091 -14.86485,-24.87112 -26.45507,-33.32812 -5.13487,-3.83836 -10.57183,-6.93374 -16.16407,-9.63672 1.86964,-1.64978 3.71882,-3.4023 5.5293,-5.33985 l 0.002,-0.004 0.004,-0.004 c 12.49015,-13.45092 20.87377,-30.39509 25.14844,-50.5703 1.40447,-6.504941 2.13727,-12.742222 2.39257,-18.791019 l 0.4629,-0.01172 c -2.8e-4,-0.04563 -0.007,-0.08528 -0.008,-0.13086 h 0.006 c -10e-4,-0.02412 -0.009,-0.04623 -0.01,-0.07031 -0.0309,-4.151448 -0.24835,-8.127775 -0.64844,-11.927735 -0.28419,-3.033909 -0.71725,-6.019686 -1.33594,-8.945312 -5.61348,-28.094665 -24.361,-40.415718 -53.43114,-45.098157 l -0.0234,-0.002 -0.0234,-0.0039 c -3.68885,-0.544245 -7.27373,-0.810137 -10.75398,-0.791015 z m -42.78125,21.388672 c 0,0.06466 0.0316,-0.03994 0.0957,-0.121093 l 0.0606,-0.07227 c -0.0181,0.02287 -0.0386,0.04155 -0.0566,0.06445 -0.0669,0.08473 -0.0996,0.06231 -0.0996,0.128906 z"
     style="color:#000000;font-style:normal;font-variant:normal;font-weight:normal;font-stretch:normal;font-size:medium;line-height:normal;font-family:sans-serif;font-variant-ligatures:normal;font-variant-position:normal;font-variant-caps:normal;font-variant-numeric:normal;font-variant-alternates:normal;font-variant-east-asian:normal;font-feature-settings:normal;font-variation-settings:normal;text-indent:0;text-align:start;text-decoration:none;text-decoration-line:none;text-decoration-style:solid;text-decoration-color:#000000;letter-spacing:normal;word-spacing:normal;text-transform:none;writing-mode:lr-tb;direction:ltr;text-orientation:mixed;dominant-baseline:auto;baseline-shift:baseline;text-anchor:start;white-space:normal;shape-padding:0;shape-margin:0;inline-size:0;clip-rule:nonzero;display:inline;overflow:visible;visibility:visible;isolation:auto;mix-blend-mode:normal;color-interpolation:sRGB;color-interpolation-filters:linearRGB;solid-color:#000000;solid-opacity:1;vector-effect:none;fill:#000000;fill-opacity:1;fill-rule:evenodd;stroke:none;stroke-width:6.94227;stroke-linecap:butt;stroke-linejoin:miter;stroke-miterlimit:4;stroke-dasharray:none;stroke-dashoffset:0;stroke-opacity:1;color-rendering:auto;image-rendering:auto;shape-rendering:auto;text-rendering:auto;enable-background:accumulate;stop-color:#000000;filter:url(#filter1138)"
     id="path954" />
  <g
     transform="matrix(6.9422676,0,0,6.9422676,40.999418,0)"
     id="g905">
    <path
       inkscape:connector-curvature="0"
       style="fill:url(#gradient0);fill-rule:evenodd;stroke:none"
       id="path6"
       d="m 4.2180275,32.457457 q 3,1.05 7.6999995,1.4 4.3,0.4 7.85,0.05 3.7,-0.35 4.2,-1.2 1.25,-2.05 -0.1,-5.2 -1.25,-2.85 -3.65,-4.6 -5.55,-4.15 -13.5499995,-1.9 -3.6,1 -5,2.9 -1.45000003,1.95 -1.10000003,5.55 0.2,1.8 3.65000003,3" />
    <path
       style="fill:none;stroke:#006600;stroke-width:1;stroke-linecap:round;stroke-linejoin:round"
       inkscape:connector-curvature="0"
       id="path8"
       d="m 4.2180275,32.457457 q -3.45000003,-1.2 -3.65000003,-3 -0.35,-3.6 1.10000003,-5.55 1.4,-1.9 5,-2.9 7.9999995,-2.25 13.5499995,1.9 2.4,1.75 3.65,4.6 1.35,3.15 0.1,5.2 -0.5,0.85 -4.2,1.2 -3.55,0.35 -7.85,-0.05 -4.6999995,-0.35 -7.6999995,-1.4 z" />
    <path
       inkscape:connector-curvature="0"
       style="fill:url(#gradient1);fill-rule:evenodd;stroke:none"
       id="path10"
       d="m 18.368027,21.957457 q -2.35,-1.4 -5.6,-1.4 l -3.2499995,-0.2 -1.45,0.2 q -0.95,5.6 2.3499995,12.45 4.2,-7.3 7.95,-11.05" />
    <path
       style="fill:none;stroke:#006600;stroke-width:1;stroke-linecap:round;stroke-linejoin:round"
       inkscape:connector-curvature="0"
       id="path12"
       d="m 18.368027,21.957457 q -3.75,3.75 -7.95,11.05 -3.2999995,-6.85 -2.3499995,-12.45 l 1.45,-0.2 3.2499995,0.2 q 3.25,0 5.6,1.4 z" />
    <path
       inkscape:connector-curvature="0"
       style="fill:url(#gradient2);fill-rule:evenodd;stroke:none"
       id="path14"
       d="m 12.368027,22.607457 q 3.4,0.45 6.25,-2.6 2.6,-2.8 3.5,-7.05 0.95,-4.4 -0.6,-7.7 -1.7,-3.75 -6.1,-4.50000003 -4.55,-0.8 -7.3499995,2.30000003 -2.55,2.7 -2.9,7.3 -0.35,4.5 1.5,8 2,3.8 5.6999995,4.25" />
    <path
       style="fill:none;stroke:#996600;stroke-width:1;stroke-linecap:round;stroke-linejoin:round"
       inkscape:connector-curvature="0"
       id="path16"
       d="m 12.368027,22.607457 q -3.6999995,-0.45 -5.6999995,-4.25 -1.85,-3.5 -1.5,-8 0.35,-4.6 2.9,-7.3 2.7999995,-3.10000003 7.3499995,-2.30000003 4.4,0.75000003 6.1,4.50000003 1.55,3.3 0.6,7.7 -0.9,4.25 -3.5,7.05 -2.85,3.05 -6.25,2.6 z" />
    <path
       inkscape:connector-curvature="0"
       style="fill:url(#gradient3);fill-rule:evenodd;stroke:none"
       id="path18"
       d="m 22.018027,9.257457 q -2.3,-5.1 -8.25,-2.85 -5.0999995,1.95 -7.4499995,-0.4 4.0499995,5.2 8.2499995,2.8 3.25,-1.85 7.45,0.45" />
    <path
       inkscape:connector-curvature="0"
       style="fill:url(#gradient4);fill-rule:evenodd;stroke:none"
       id="path20"
       d="m 22.518027,10.357457 q -0.05,-8.55 -7.5,-9.75000003 -6.0999995,-0.9 -8.8999995,5.65000003 1.1,1.35 3.75,1.85 1.3999995,0.3 2.5999995,-0.25 1.85,-0.85 3.95,-1.15 2.9,-0.4 4.7,1.3 1.35,1.2 1.4,2.35" />
    <path
       style="fill:none;stroke:#996600;stroke-width:1;stroke-linecap:round;stroke-linejoin:round"
       inkscape:connector-curvature="0"
       id="path22"
       d="m 22.518027,10.357457 q -0.05,-1.15 -1.4,-2.35 -1.8,-1.7 -4.7,-1.3 -2.1,0.3 -3.95,1.15 -1.2,0.55 -2.5999995,0.25 -2.65,-0.5 -3.75,-1.85 2.8,-6.55000003 8.8999995,-5.65000003 7.45,1.20000003 7.5,9.75000003 z" />
    <path
       inkscape:connector-curvature="0"
       style="fill:url(#gradient5);fill-rule:evenodd;stroke:none"
       id="path24"
       d="m 10.818027,7.757457 2.5,-1.05 q 1.65,-0.8 3.55,-0.8 4.25,0 5.15,3.75 0.5,-3.3 -2.8,-4.7 -3.6,-1.55 -6.15,-0.4 l -1.75,1.05 q -0.95,0.65 -1.4499995,0.75 -1.4,0.35 -2.1,0 l -0.4,-0.3 -0.3,-0.15 q 0,-0.75 -0.4,-0.1 -0.4,0.7 -0.05,1 0.6,0.5 1.9,0.8 l 2.2999995,0.15" />
  </g>
  <defs
     id="defs48">
    <radialGradient
       spreadMethod="pad"
       r="819.20001"
       id="gradient0"
       gradientUnits="userSpaceOnUse"
       gradientTransform="matrix(0.0208,0,0,0.0208,11.718027,21.957457)"
       cy="0"
       cx="0">
      <stop
         id="stop51"
         stop-color="#ccffcc"
         offset="0.0" />
      <stop
         id="stop53"
         stop-color="#009900"
         offset="1.0" />
    </radialGradient>
    <linearGradient
       x2="819.20001"
       x1="-819.20001"
       spreadMethod="pad"
       id="gradient1"
       gradientUnits="userSpaceOnUse"
       gradientTransform="matrix(-7e-4,0.0077,0.0063,5e-4,13.318027,27.107457)">
      <stop
         id="stop56"
         stop-color="#99ccff"
         offset="0.0" />
      <stop
         id="stop58"
         stop-color="#99ccff"
         offset="0.09411764705882353" />
      <stop
         id="stop60"
         stop-color="#ffffff"
         offset="0.396078431372549" />
      <stop
         id="stop62"
         stop-color="#ccffff"
         offset="1.0" />
    </linearGradient>
    <radialGradient
       spreadMethod="pad"
       r="819.20001"
       id="gradient2"
       gradientUnits="userSpaceOnUse"
       gradientTransform="matrix(0.0277,0,0,0.0277,12.468027,2.257457)"
       cy="0"
       cx="0">
      <stop
         id="stop65"
         stop-color="#ffff99"
         offset="0.0" />
      <stop
         id="stop67"
         stop-color="#ffcc66"
         offset="0.24313725490196078" />
      <stop
         id="stop69"
         stop-color="#ff9933"
         offset="0.7137254901960784" />
      <stop
         id="stop71"
         stop-color="#996600"
         offset="1.0" />
    </radialGradient>
    <linearGradient
       x2="819.20001"
       x1="-819.20001"
       spreadMethod="pad"
       id="gradient3"
       gradientUnits="userSpaceOnUse"
       gradientTransform="matrix(0,0.0022,0.0096,0,14.168027,7.657457)">
      <stop
         id="stop74"
         stop-color="#ff9933"
         offset="0.0" />
      <stop
         id="stop76"
         stop-color="#ff9933"
         offset="0.48627450980392156" />
      <stop
         id="stop78"
         stop-color="#ffcc66"
         offset="1.0" />
    </linearGradient>
    <radialGradient
       spreadMethod="pad"
       r="819.20001"
       id="gradient4"
       gradientUnits="userSpaceOnUse"
       gradientTransform="matrix(0.016,0,0,0.016,13.068027,1.307457)"
       cy="0"
       cx="0">
      <stop
         id="stop81"
         stop-color="#f0ddbd"
         offset="0.0" />
      <stop
         id="stop83"
         stop-color="#d8a650"
         offset="0.3803921568627451" />
      <stop
         id="stop85"
         stop-color="#996600"
         offset="0.8196078431372549" />
      <stop
         id="stop87"
         stop-color="#926821"
         offset="1.0" />
    </radialGradient>
    <linearGradient
       x2="819.20001"
       x1="-819.20001"
       spreadMethod="pad"
       id="gradient5"
       gradientUnits="userSpaceOnUse"
       gradientTransform="matrix(-0.0075,0.0035,0.0026,0.0056,14.468027,6.057457)">
      <stop
         id="stop90"
         stop-color="#996600"
         offset="0.0" />
      <stop
         id="stop92"
         stop-color="#f0ddbd"
         offset="0.3411764705882353" />
      <stop
         id="stop94"
         stop-color="#d8a650"
         offset="0.6784313725490196" />
      <stop
         id="stop96"
         stop-color="#996600"
         offset="1.0" />
    </linearGradient>
    <filter
       inkscape:collect="always"
       style="color-interpolation-filters:sRGB"
       id="filter1138"
       x="-0.12693753"
       y="-0.093979424"
       width="1.2538751"
       height="1.1879588">
      <feGaussianBlur
         inkscape:collect="always"
         stdDeviation="9.2054564"
         id="feGaussianBlur1140" />
    </filter>
  </defs>
</svg>
