<?xml version="1.0" encoding="UTF-8" standalone="no"?>
<svg
   width="256"
   height="256"
   viewBox="0 0 256 256"
   version="1.1"
   id="svg8"
   inkscape:version="1.1.1 (3bf5ae0d25, 2021-09-20)"
   sodipodi:docname="connect.svg"
   inkscape:export-filename="/media/klapeto/Αρχεία/WindowsXP Theme/Vectors/RASTER/network-connect.png"
   inkscape:export-xdpi="96"
   inkscape:export-ydpi="96"
   xmlns:inkscape="http://www.inkscape.org/namespaces/inkscape"
   xmlns:sodipodi="http://sodipodi.sourceforge.net/DTD/sodipodi-0.dtd"
   xmlns:xlink="http://www.w3.org/1999/xlink"
   xmlns="http://www.w3.org/2000/svg"
   xmlns:svg="http://www.w3.org/2000/svg"
   xmlns:rdf="http://www.w3.org/1999/02/22-rdf-syntax-ns#"
   xmlns:cc="http://creativecommons.org/ns#"
   xmlns:dc="http://purl.org/dc/elements/1.1/">
  <defs
     id="defs2">
    <linearGradient
       id="linearGradient1530"
       inkscape:collect="always">
      <stop
         id="stop1526"
         offset="0"
         style="stop-color:#9fd0fe;stop-opacity:1;" />
      <stop
         id="stop1528"
         offset="1"
         style="stop-color:#9fd0fe;stop-opacity:0;" />
    </linearGradient>
    <linearGradient
       id="linearGradient1319"
       inkscape:collect="always">
      <stop
         id="stop1315"
         offset="0"
         style="stop-color:#caeeff;stop-opacity:1" />
      <stop
         id="stop1317"
         offset="1"
         style="stop-color:#ebffff;stop-opacity:1" />
    </linearGradient>
    <linearGradient
       id="linearGradient1295"
       inkscape:collect="always">
      <stop
         id="stop1291"
         offset="0"
         style="stop-color:#89b6eb;stop-opacity:1" />
      <stop
         id="stop1293"
         offset="1"
         style="stop-color:#7298d2;stop-opacity:1" />
    </linearGradient>
    <linearGradient
       id="linearGradient1287"
       inkscape:collect="always">
      <stop
         id="stop1283"
         offset="0"
         style="stop-color:#cdeafc;stop-opacity:1" />
      <stop
         id="stop1285"
         offset="1"
         style="stop-color:#c3eeff;stop-opacity:1" />
    </linearGradient>
    <linearGradient
       id="linearGradient1279"
       inkscape:collect="always">
      <stop
         id="stop1275"
         offset="0"
         style="stop-color:#7c9fd4;stop-opacity:1" />
      <stop
         id="stop1277"
         offset="1"
         style="stop-color:#afdcfc;stop-opacity:1" />
    </linearGradient>
    <linearGradient
       gradientTransform="matrix(5.3299928,0,0,5.3299928,196.80438,-0.3551039)"
       gradientUnits="userSpaceOnUse"
       y2="32.75"
       x2="-0.932291"
       y1="32.75"
       x1="-9.932291"
       id="linearGradient1281"
       xlink:href="#linearGradient1279"
       inkscape:collect="always" />
    <linearGradient
       gradientTransform="matrix(5.3299928,0,0,5.3299928,196.80438,-0.3551039)"
       gradientUnits="userSpaceOnUse"
       y2="28.165695"
       x2="6.067709"
       y1="28.165695"
       x1="-8.932291"
       id="linearGradient1289"
       xlink:href="#linearGradient1287"
       inkscape:collect="always" />
    <linearGradient
       gradientTransform="matrix(5.3299928,0,0,5.3299928,196.80438,-0.3551039)"
       gradientUnits="userSpaceOnUse"
       y2="32"
       x2="1.067709"
       y1="37.5"
       x1="1.567709"
       id="linearGradient1297"
       xlink:href="#linearGradient1295"
       inkscape:collect="always" />
    <linearGradient
       gradientTransform="matrix(5.3299928,0,0,5.3299928,196.80438,-0.3551039)"
       gradientUnits="userSpaceOnUse"
       y2="35.210659"
       x2="2.0320563"
       y1="46.354385"
       x1="2.0320563"
       id="linearGradient1321"
       xlink:href="#linearGradient1319"
       inkscape:collect="always" />
    <linearGradient
       gradientTransform="translate(-0.77729797,-2.4667778)"
       gradientUnits="userSpaceOnUse"
       y2="184.282"
       x2="219.79272"
       y1="237.79044"
       x1="219.79272"
       id="linearGradient1532"
       xlink:href="#linearGradient1530"
       inkscape:collect="always" />
    <linearGradient
       inkscape:collect="always"
       xlink:href="#linearGradient878-2"
       id="linearGradient880-3-3-3-9-2-5"
       x1="14.242815"
       y1="6.7371945"
       x2="13.027307"
       y2="6.7463374"
       gradientUnits="userSpaceOnUse"
       gradientTransform="matrix(42.343558,29.992809,-29.992809,42.343558,-302.16723,-524.89995)" />
    <linearGradient
       inkscape:collect="always"
       id="linearGradient878-2">
      <stop
         style="stop-color:#95fb62;stop-opacity:1"
         offset="0"
         id="stop874-5" />
      <stop
         style="stop-color:#0a9e05;stop-opacity:1"
         offset="1"
         id="stop876-4" />
    </linearGradient>
    <filter
       height="1.0960568"
       y="-0.048028387"
       width="1.0959433"
       x="-0.047971647"
       id="filter2253"
       style="color-interpolation-filters:sRGB"
       inkscape:collect="always">
      <feGaussianBlur
         id="feGaussianBlur2255"
         stdDeviation="4.5972838"
         inkscape:collect="always" />
    </filter>
  </defs>
  <sodipodi:namedview
     showguides="false"
     inkscape:snap-grids="true"
     inkscape:snap-others="true"
     inkscape:snap-smooth-nodes="true"
     inkscape:object-paths="false"
     id="base"
     pagecolor="#ffffff"
     bordercolor="#666666"
     borderopacity="1.0"
     inkscape:pageopacity="0.0"
     inkscape:pageshadow="2"
     inkscape:zoom="1"
     inkscape:cx="-198"
     inkscape:cy="160"
     inkscape:document-units="px"
     inkscape:current-layer="layer1"
     inkscape:document-rotation="0"
     showgrid="false"
     units="px"
     inkscape:window-width="3840"
     inkscape:window-height="2045"
     inkscape:window-x="3840"
     inkscape:window-y="0"
     inkscape:window-maximized="1"
     inkscape:snap-bbox="true"
     inkscape:bbox-nodes="true"
     fit-margin-top="0"
     fit-margin-left="0"
     fit-margin-right="0"
     fit-margin-bottom="0"
     inkscape:bbox-paths="false"
     inkscape:snap-global="true"
     inkscape:pagecheckerboard="0">
    <inkscape:grid
       type="xygrid"
       id="grid1504"
       originx="0"
       originy="0" />
    <inkscape:grid
       type="xygrid"
       id="grid1507"
       spacingx="0.5"
       spacingy="0.5"
       originx="0"
       originy="0" />
  </sodipodi:namedview>
  <metadata
     id="metadata5">
    <rdf:RDF>
      <cc:Work
         rdf:about="">
        <dc:format>image/svg+xml</dc:format>
        <dc:type
           rdf:resource="http://purl.org/dc/dcmitype/StillImage" />
      </cc:Work>
    </rdf:RDF>
  </metadata>
  <g
     inkscape:label="Layer 1"
     inkscape:groupmode="layer"
     id="layer1"
     transform="translate(-12.567709)">
    <g
       transform="translate(4.8323477,-2.038279)"
       id="g2269">
      <path
         id="path2238"
         style="color:#000000;font-style:normal;font-variant:normal;font-weight:normal;font-stretch:normal;font-size:medium;line-height:normal;font-family:sans-serif;font-variant-ligatures:normal;font-variant-position:normal;font-variant-caps:normal;font-variant-numeric:normal;font-variant-alternates:normal;font-variant-east-asian:normal;font-feature-settings:normal;font-variation-settings:normal;text-indent:0;text-align:start;text-decoration:none;text-decoration-line:none;text-decoration-style:solid;text-decoration-color:#000000;letter-spacing:normal;word-spacing:normal;text-transform:none;writing-mode:lr-tb;direction:ltr;text-orientation:mixed;dominant-baseline:auto;baseline-shift:baseline;text-anchor:start;white-space:normal;shape-padding:0;shape-margin:0;inline-size:0;clip-rule:nonzero;display:inline;overflow:visible;visibility:visible;opacity:1;isolation:auto;mix-blend-mode:normal;color-interpolation:sRGB;color-interpolation-filters:linearRGB;solid-color:#000000;solid-opacity:1;vector-effect:none;fill:#212121;fill-opacity:1;fill-rule:nonzero;stroke:none;stroke-width:12.8026;stroke-linecap:butt;stroke-linejoin:round;stroke-miterlimit:4;stroke-dasharray:none;stroke-dashoffset:0;stroke-opacity:1;filter:url(#filter2253);color-rendering:auto;image-rendering:auto;shape-rendering:auto;text-rendering:auto;enable-background:accumulate;stop-color:#000000;stop-opacity:1"
         d="m 149.01923,15.174971 a 6.4020479,6.4020479 0 0 0 -1.63438,0.242768 l -77.517592,22.028817 2.456356,1.754813 A 6.4020479,6.4020479 0 0 0 65.837689,38.63937 l 0.665224,-0.227475 a 6.4020479,6.4020479 0 0 0 -3.431251,2.779408 6.4020479,6.4020479 0 0 0 -0.04206,0.07264 6.4020479,6.4020479 0 0 0 -0.810501,2.683831 l 0.04015,-0.554353 a 6.4020479,6.4020479 0 0 0 2.410477,6.155224 l -2.725887,-2.043459 -4.599214,59.778304 a 6.4020479,6.4020479 0 0 0 2.680007,5.71175 l 84.907686,60.19502 a 6.4020479,6.4020479 0 0 0 6.40946,0.57921 l 45.5238,-21.24317 c 5.38797,4.16175 9.48619,7.85275 12.47293,11.22085 6.1124,6.89288 7.83739,12.06404 7.83739,18.84607 0,5.5254 -2.63386,8.62116 -8.68422,11.5917 -6.05037,2.97055 -15.28986,4.85996 -25.74488,5.93731 -20.91003,2.15469 -46.45812,1.27631 -64.29915,3.82503 -27.08008,3.86859 -57.295058,20.20374 -68.051543,40.95518 l 9.324589,-0.13954 c 0,0 0.002,-0.002 0.002,-0.002 l 21.730613,-0.0459 c -0.02238,0.0248 -0.04847,0.0537 -0.07073,0.0784 l 14.13981,-0.0784 c -0.0097,0.0135 -0.02092,0.0247 -0.03058,0.0383 l 12.966121,-0.0153 c 3.07433,-3.07434 13.07115,-5.31372 25.52506,-6.87588 12.45391,-1.56214 26.93746,-1.95363 39.02641,-1.95363 20.25882,0 40.42315,-4.98977 55.91886,-14.02893 15.4957,-9.03915 26.6395,-22.63163 26.6395,-39.28639 0,-16.50869 -9.87812,-31.23937 -20.55882,-42.65263 -2.24241,-2.39621 -4.52367,-4.63741 -6.78221,-6.72869 l 4.77507,-57.320047 a 6.4020479,6.4020479 0 0 0 -2.72784,-5.792017 L 152.78501,16.318084 a 6.4020479,6.4020479 0 0 0 -3.55551,-1.143113 6.4020479,6.4020479 0 0 0 -0.21027,0 z M 81.883325,136.63359 a 2.7601161,2.7601161 0 0 0 -0.418632,0.0383 l -53.602056,9.15254 a 2.7601161,2.7601161 0 0 0 -2.255641,3.18467 l 9.15255,53.60205 a 2.7601161,2.7601161 0 0 0 4.971968,1.12974 l 11.73889,-16.57323 29.124529,20.62956 a 2.7601161,2.7601161 0 0 0 3.847971,-0.65758 l 17.779426,-25.1007 a 2.7601161,2.7601161 0 0 0 -0.65758,-3.84796 L 72.440218,157.56137 84.18102,140.98815 a 2.7601161,2.7601161 0 0 0 -2.297695,-4.35453 z" />
      <g
         id="g2038"
         transform="matrix(1.1039352,0,0,1.1039352,-22.805825,-18.404809)">
        <g
           transform="matrix(1.6567704,0,0,1.6567704,-162.6392,-178.59945)"
           id="g1696">
          <path
             d="m 189.44275,127.47267 -44.0039,12.50391 -0.0273,-0.0195 -0.002,0.0273 -0.0176,0.006 0.0156,0.0117 -2.66211,34.59961 46.42383,32.91211 39.97656,-18.6543 2.66406,-31.98047 z"
             style="fill:none;fill-opacity:1;stroke:#88a2c9;stroke-width:7;stroke-linecap:butt;stroke-linejoin:round;stroke-miterlimit:4;stroke-dasharray:none;stroke-opacity:1"
             id="path1501" />
          <path
             style="fill:url(#linearGradient1289);fill-opacity:1;stroke:none;stroke-width:5;stroke-linecap:butt;stroke-linejoin:round;stroke-miterlimit:4;stroke-dasharray:none;stroke-opacity:1"
             d="m 145.3925,139.99101 44.05105,-12.51906 42.36667,29.40773 -40.38499,17.47357 z"
             id="path1242"
             sodipodi:nodetypes="ccccc" />
          <path
             style="fill:url(#linearGradient1281);fill-opacity:1;stroke:none;stroke-width:5;stroke-linecap:butt;stroke-linejoin:round;stroke-miterlimit:4;stroke-dasharray:none;stroke-opacity:1"
             d="m 189.17028,207.51461 4.05284,-33.67296 -47.81244,-33.88459 -2.665,34.64495 z"
             id="path1244"
             sodipodi:nodetypes="ccccc" />
          <path
             style="fill:url(#linearGradient1297);fill-opacity:1;stroke:none;stroke-width:5;stroke-linecap:butt;stroke-linejoin:round;stroke-miterlimit:4;stroke-dasharray:none;stroke-opacity:1"
             d="m 189.17028,207.51461 39.97495,-18.65497 2.66499,-31.97996 -39.97494,15.98998 z"
             id="path1248"
             sodipodi:nodetypes="ccccc" />
          <path
             style="fill:url(#linearGradient1321);fill-opacity:1;stroke:none;stroke-width:4.26399;stroke-linecap:butt;stroke-linejoin:miter;stroke-miterlimit:4;stroke-dasharray:none;stroke-opacity:1"
             d="m 205.16026,188.85964 c 18.00842,14.18661 23.98497,18.2225 23.98497,26.64996 0,15.98998 -37.47224,11.48503 -56.12722,14.15003 -14.2072,2.0296 -27.01856,10.2271 -34.95402,19.84648 l 26.57585,-0.0559 c 5.32999,-5.32999 24.53044,-7.29057 37.85542,-7.29057 21.31997,0 42.63994,-10.65999 42.63994,-26.64997 0,-15.98998 -20.18627,-30.31231 -25.16955,-33.58002 -12.18518,-7.99023 -19.23711,3.43884 -14.80539,6.93005 z"
             id="path1250"
             sodipodi:nodetypes="sssccsssss" />
          <path
             style="fill:url(#linearGradient1532);fill-opacity:1;stroke:none;stroke-width:5.32999px;stroke-linecap:butt;stroke-linejoin:miter;stroke-opacity:1"
             d="m 221.13798,184.12965 c 8.00725,4.72999 18.32981,19.05783 18.14072,30.85692 -0.25421,15.86262 -26.72179,21.68635 -40.09755,21.06195 -32.80224,-1.53125 -42.13798,8.33 -46.78292,13.46951 l 12.24161,-0.0679 8.6532,-5.10141 42.57327,-2.81771 18.79371,-7.76118 10.87577,-13.28742 -5.77045,-21.36703 z"
             id="path1325"
             sodipodi:nodetypes="csscccccccc" />
          <path
             style="color:#000000;font-style:normal;font-variant:normal;font-weight:normal;font-stretch:normal;font-size:medium;line-height:normal;font-family:sans-serif;font-variant-ligatures:normal;font-variant-position:normal;font-variant-caps:normal;font-variant-numeric:normal;font-variant-alternates:normal;font-variant-east-asian:normal;font-feature-settings:normal;font-variation-settings:normal;text-indent:0;text-align:start;text-decoration:none;text-decoration-line:none;text-decoration-style:solid;text-decoration-color:#000000;letter-spacing:normal;word-spacing:normal;text-transform:none;writing-mode:lr-tb;direction:ltr;text-orientation:mixed;dominant-baseline:auto;baseline-shift:baseline;text-anchor:start;white-space:normal;shape-padding:0;shape-margin:0;inline-size:0;clip-rule:nonzero;display:inline;overflow:visible;visibility:visible;isolation:auto;mix-blend-mode:normal;color-interpolation:sRGB;color-interpolation-filters:linearRGB;solid-color:#000000;solid-opacity:1;vector-effect:none;fill:#88a2c9;fill-opacity:1;fill-rule:nonzero;stroke:none;stroke-width:5;stroke-linecap:round;stroke-linejoin:miter;stroke-miterlimit:4;stroke-dasharray:none;stroke-dashoffset:0;stroke-opacity:1;color-rendering:auto;image-rendering:auto;shape-rendering:auto;text-rendering:auto;enable-background:accumulate;stop-color:#000000"
             d="m 211.57622,177.04299 c -2.87502,0.0869 -5.32989,1.05169 -7.1211,2.54492 -1.79121,1.49323 -2.95659,3.44095 -3.23633,5.54883 -0.27973,2.10788 0.58563,4.54567 2.59571,5.83007 9.35938,5.98052 15.20292,10.46955 18.54492,14.23829 3.342,3.76873 4.28516,6.59656 4.28516,10.30468 0,3.02105 -1.43997,4.71373 -4.74805,6.33789 -3.30808,1.62417 -8.35982,2.65705 -14.07617,3.2461 -11.4327,1.17809 -25.40154,0.69826 -35.15625,2.09179 -14.80621,2.11518 -31.32617,11.0463 -37.20735,22.39229 l 5.09817,-0.0766 c 7.50661,-9.09952 19.20801,-15.42248 32.81621,-17.36651 8.90026,-1.27147 22.99572,-0.83323 34.96289,-2.0664 5.98358,-0.61659 11.46469,-1.6208 15.76562,-3.73243 4.30094,-2.11162 7.54493,-5.85222 7.54493,-10.82617 0,-4.71933 -1.6124,-9.18837 -5.54493,-13.62304 -3.93253,-4.43467 -10.08131,-9.0545 -19.59375,-15.13282 -0.36693,-0.23446 -0.41245,-0.33822 -0.33008,-0.95898 0.0824,-0.62076 0.55261,-1.5901 1.48243,-2.36524 1.85964,-1.55027 5.40495,-2.62275 11.05078,0.66016 2.39543,1.39289 8.63562,5.74576 14.03515,11.51563 5.39954,5.76986 9.89063,12.94055 9.89063,19.90429 0,6.88388 -4.56639,12.77684 -12.08399,17.16211 -7.51759,4.38527 -17.81136,6.98828 -28.05468,6.98828 -6.71527,0 -14.81916,-0.0445 -21.96094,1.10743 -9.9374,1.6028 -16.32329,2.98813 -20.42259,8.72902 l 7.08885,-0.009 c 1.68091,-1.68091 7.14753,-2.90491 13.95679,-3.75903 6.80926,-0.85411 14.72818,-1.06836 21.33789,-1.06836 11.07665,0 22.10184,-2.7277 30.57422,-7.66992 8.47238,-4.94222 14.56445,-12.37437 14.56445,-21.48047 0,-9.02624 -5.40048,-17.08003 -11.24023,-23.32031 -5.83976,-6.24028 -12.18535,-10.68528 -15.17188,-12.42187 -3.47536,-2.02084 -6.77146,-2.81154 -9.64648,-2.72461 z"
             id="path1536"
             sodipodi:nodetypes="ssscsssssccssssssssssssssccssssssss" />
          <path
             id="path1329"
             style="fill:#87afde;fill-opacity:1;stroke:none;stroke-width:5.32999px;stroke-linecap:butt;stroke-linejoin:miter;stroke-opacity:1"
             d="m 185.63084,128.53287 -3.33125,0.93691 17.60355,12.44012 -2.94607,1.10347 -17.88463,-12.63791 -6.19403,1.7385 18.70702,13.22087 -2.94606,1.10348 -18.97769,-13.40826 -6.69373,1.88423 19.87296,14.04328 -2.95648,1.10348 -20.14362,-14.24108 -6.0587,1.70727 25.7651,17.83257 28.65912,-11.02434 z" />
        </g>
        <path
           style="fill:url(#linearGradient880-3-3-3-9-2-5);fill-opacity:1;stroke:#006600;stroke-width:5;stroke-linecap:round;stroke-linejoin:round;stroke-miterlimit:4;stroke-dasharray:none;stroke-opacity:1"
           d="m 90.344737,139.31755 -48.55454,8.29023 8.29023,48.55454 12.07929,-17.05343 28.42238,20.13214 16.105733,-22.7379 -28.422383,-20.13214 z"
           id="path872-5-5-2-2-5-7"
           sodipodi:nodetypes="cccccccc" />
      </g>
    </g>
  </g>
</svg>
