<?xml version="1.0" encoding="UTF-8" standalone="no"?>
<svg
   width="256"
   height="256"
   viewBox="0 0 256 256"
   version="1.1"
   id="svg8"
   inkscape:version="1.1.2 (0a00cf5339, 2022-02-04)"
   sodipodi:docname="download-2.svg"
   inkscape:export-filename="./download.png"
   inkscape:export-xdpi="96"
   inkscape:export-ydpi="96"
   xmlns:inkscape="http://www.inkscape.org/namespaces/inkscape"
   xmlns:sodipodi="http://sodipodi.sourceforge.net/DTD/sodipodi-0.dtd"
   xmlns="http://www.w3.org/2000/svg"
   xmlns:svg="http://www.w3.org/2000/svg"
   xmlns:rdf="http://www.w3.org/1999/02/22-rdf-syntax-ns#"
   xmlns:cc="http://creativecommons.org/ns#"
   xmlns:dc="http://purl.org/dc/elements/1.1/">
  <defs
     id="defs2">
    <radialGradient
       fy="5091.1753"
       fx="-1495.2026"
       cx="-1495.2026"
       cy="5091.1753"
       gradientTransform="matrix(0.03321492,0.02554013,-0.0225253,0.02929414,177.21918,-98.257282)"
       gradientUnits="userSpaceOnUse"
       id="gradient2-62"
       r="819.20001"
       spreadMethod="pad">
      <stop
         offset="0.0"
         stop-color="#00bf00"
         id="stop4113" />
      <stop
         offset="0.9294117647058824"
         stop-color="#006600"
         id="stop4115" />
    </radialGradient>
    <radialGradient
       cx="0"
       cy="0"
       gradientTransform="matrix(0.15259312,0,0,0.15259312,-147.36205,-19.475779)"
       gradientUnits="userSpaceOnUse"
       id="gradient1-6"
       r="819.20001"
       spreadMethod="pad">
      <stop
         offset="0.0"
         stop-color="#ffffff"
         id="stop4100" />
      <stop
         offset="0.0784313725490196"
         stop-color="#ccffff"
         id="stop4102" />
      <stop
         offset="0.2980392156862745"
         stop-color="#0099ff"
         id="stop4104" />
      <stop
         offset="0.5372549019607843"
         stop-color="#0066cc"
         id="stop4106" />
      <stop
         offset="0.7529411764705882"
         stop-color="#003399"
         id="stop4108" />
      <stop
         offset="1.0"
         stop-color="#9999ff"
         id="stop4110" />
    </radialGradient>
    <linearGradient
       gradientTransform="matrix(-0.06871152,-0.06871152,-0.06871152,0.06871152,-137.76921,19.341771)"
       gradientUnits="userSpaceOnUse"
       id="gradient0-1"
       spreadMethod="pad"
       x1="-819.20001"
       x2="819.20001">
      <stop
         offset="0.0"
         stop-color="#003399"
         id="stop4093" />
      <stop
         offset="0.47058823529411764"
         stop-color="#0099ff"
         id="stop4095" />
      <stop
         offset="1.0"
         stop-color="#ccffff"
         id="stop4097" />
    </linearGradient>
    <linearGradient
       id="linearGradient1140-6"
       x1="-46.438"
       x2="-46.438"
       y1="24.605"
       y2="45.852001"
       gradientUnits="userSpaceOnUse">
      <stop
         stop-color="#95fb62"
         offset="0"
         id="stop32" />
      <stop
         stop-color="#6c3"
         offset=".5"
         id="stop34" />
      <stop
         stop-color="#0a9e05"
         offset="1"
         id="stop36" />
    </linearGradient>
    <linearGradient
       id="linearGradient1152-5"
       x1="-46.530998"
       x2="-46.530998"
       y1="24.125"
       y2="34.818001"
       gradientUnits="userSpaceOnUse">
      <stop
         stop-color="#4db333"
         offset="0"
         id="stop39" />
      <stop
         stop-color="#43a923"
         offset="1"
         id="stop41" />
    </linearGradient>
    <linearGradient
       id="gradient0-1-3"
       x1="-819.20001"
       x2="819.20001"
       gradientTransform="matrix(-0.068712,-0.068712,-0.068712,0.068712,-137.77,19.342)"
       gradientUnits="userSpaceOnUse">
      <stop
         stop-color="#039"
         offset="0"
         id="stop20" />
      <stop
         stop-color="#09f"
         offset=".47059"
         id="stop22" />
      <stop
         stop-color="#cff"
         offset="1"
         id="stop24" />
    </linearGradient>
    <radialGradient
       id="gradient1-6-6"
       cx="0"
       cy="0"
       r="819.20001"
       gradientTransform="matrix(0.15259,0,0,0.15259,-147.36,-19.476)"
       gradientUnits="userSpaceOnUse">
      <stop
         stop-color="#fff"
         offset="0"
         id="stop7" />
      <stop
         stop-color="#cff"
         offset=".078431"
         id="stop9" />
      <stop
         stop-color="#09f"
         offset=".29804"
         id="stop11" />
      <stop
         stop-color="#06c"
         offset=".53725"
         id="stop13" />
      <stop
         stop-color="#039"
         offset=".75294"
         id="stop15" />
      <stop
         stop-color="#99f"
         offset="1"
         id="stop17" />
    </radialGradient>
    <radialGradient
       id="gradient2-62-7"
       cx="-1495.2"
       cy="5091.2002"
       r="819.20001"
       gradientTransform="matrix(0.033215,0.02554,-0.022525,0.029294,177.22,-98.257)"
       gradientUnits="userSpaceOnUse">
      <stop
         stop-color="#00bf00"
         offset="0"
         id="stop2" />
      <stop
         stop-color="#060"
         offset=".92941"
         id="stop4" />
    </radialGradient>
    <radialGradient
       id="radialGradient1624"
       cx="-154.38"
       cy="-18.646999"
       r="75.181"
       fx="-154.72"
       gradientTransform="matrix(0.65631,0,0,0.6543,-49.102,-7.0885)"
       gradientUnits="userSpaceOnUse">
      <stop
         stop-color="#fff"
         offset="0"
         id="stop27" />
      <stop
         stop-color="#fff"
         stop-opacity="0"
         offset="1"
         id="stop29" />
    </radialGradient>
    <linearGradient
       id="linearGradient1140-6-5"
       x1="-46.438"
       x2="-46.438"
       y1="24.605"
       y2="45.852001"
       gradientUnits="userSpaceOnUse">
      <stop
         stop-color="#95fb62"
         offset="0"
         id="stop32-3" />
      <stop
         stop-color="#6c3"
         offset=".5"
         id="stop34-5" />
      <stop
         stop-color="#0a9e05"
         offset="1"
         id="stop36-6" />
    </linearGradient>
    <linearGradient
       id="linearGradient1152-5-2"
       x1="-46.530998"
       x2="-46.530998"
       y1="24.125"
       y2="34.818001"
       gradientUnits="userSpaceOnUse">
      <stop
         stop-color="#4db333"
         offset="0"
         id="stop39-9" />
      <stop
         stop-color="#43a923"
         offset="1"
         id="stop41-1" />
    </linearGradient>
    <linearGradient
       id="gradient0-1-2"
       x1="-819.20001"
       x2="819.20001"
       gradientTransform="matrix(-0.068712,-0.068712,-0.068712,0.068712,-137.77,19.342)"
       gradientUnits="userSpaceOnUse">
      <stop
         stop-color="#039"
         offset="0"
         id="stop20-7" />
      <stop
         stop-color="#09f"
         offset=".47059"
         id="stop22-0" />
      <stop
         stop-color="#cff"
         offset="1"
         id="stop24-9" />
    </linearGradient>
    <radialGradient
       id="gradient1-6-3"
       cx="0"
       cy="0"
       r="819.20001"
       gradientTransform="matrix(0.15259,0,0,0.15259,-147.36,-19.476)"
       gradientUnits="userSpaceOnUse">
      <stop
         stop-color="#fff"
         offset="0"
         id="stop7-6" />
      <stop
         stop-color="#cff"
         offset=".078431"
         id="stop9-0" />
      <stop
         stop-color="#09f"
         offset=".29804"
         id="stop11-6" />
      <stop
         stop-color="#06c"
         offset=".53725"
         id="stop13-2" />
      <stop
         stop-color="#039"
         offset=".75294"
         id="stop15-6" />
      <stop
         stop-color="#99f"
         offset="1"
         id="stop17-1" />
    </radialGradient>
    <radialGradient
       id="gradient2-62-8"
       cx="-1495.2"
       cy="5091.2002"
       r="819.20001"
       gradientTransform="matrix(0.033215,0.02554,-0.022525,0.029294,177.22,-98.257)"
       gradientUnits="userSpaceOnUse">
      <stop
         stop-color="#00bf00"
         offset="0"
         id="stop2-7" />
      <stop
         stop-color="#060"
         offset=".92941"
         id="stop4-9" />
    </radialGradient>
    <radialGradient
       id="radialGradient1624-2"
       cx="-154.38"
       cy="-18.646999"
       r="75.181"
       fx="-154.72"
       gradientTransform="matrix(0.65631,0,0,0.6543,-49.102,-7.0885)"
       gradientUnits="userSpaceOnUse">
      <stop
         stop-color="#fff"
         offset="0"
         id="stop27-0" />
      <stop
         stop-color="#fff"
         stop-opacity="0"
         offset="1"
         id="stop29-2" />
    </radialGradient>
    <linearGradient
       id="gradient0-1-4"
       x1="-819.20001"
       x2="819.20001"
       gradientTransform="matrix(-0.068712,-0.068712,-0.068712,0.068712,-137.77,19.342)"
       gradientUnits="userSpaceOnUse">
      <stop
         stop-color="#039"
         offset="0"
         id="stop20-78" />
      <stop
         stop-color="#09f"
         offset=".47059"
         id="stop22-4" />
      <stop
         stop-color="#cff"
         offset="1"
         id="stop24-5" />
    </linearGradient>
    <radialGradient
       id="gradient1-6-0"
       cx="0"
       cy="0"
       r="819.20001"
       gradientTransform="matrix(0.15259,0,0,0.15259,-147.36,-19.476)"
       gradientUnits="userSpaceOnUse">
      <stop
         stop-color="#fff"
         offset="0"
         id="stop7-3" />
      <stop
         stop-color="#cff"
         offset=".078431"
         id="stop9-6" />
      <stop
         stop-color="#09f"
         offset=".29804"
         id="stop11-1" />
      <stop
         stop-color="#06c"
         offset=".53725"
         id="stop13-0" />
      <stop
         stop-color="#039"
         offset=".75294"
         id="stop15-63" />
      <stop
         stop-color="#99f"
         offset="1"
         id="stop17-2" />
    </radialGradient>
    <radialGradient
       id="gradient2-62-0"
       cx="-1495.2"
       cy="5091.2002"
       r="819.20001"
       gradientTransform="matrix(0.033215,0.02554,-0.022525,0.029294,177.22,-98.257)"
       gradientUnits="userSpaceOnUse">
      <stop
         stop-color="#00bf00"
         offset="0"
         id="stop2-6" />
      <stop
         stop-color="#060"
         offset=".92941"
         id="stop4-1" />
    </radialGradient>
    <radialGradient
       id="radialGradient1624-5"
       cx="-154.38"
       cy="-18.646999"
       r="75.181"
       fx="-154.72"
       gradientTransform="matrix(0.65631,0,0,0.6543,-49.102,-7.0885)"
       gradientUnits="userSpaceOnUse">
      <stop
         stop-color="#fff"
         offset="0"
         id="stop27-5" />
      <stop
         stop-color="#fff"
         stop-opacity="0"
         offset="1"
         id="stop29-4" />
    </radialGradient>
    <linearGradient
       id="gradient0-1-7"
       x1="-819.20001"
       x2="819.20001"
       gradientTransform="matrix(-0.068712,-0.068712,-0.068712,0.068712,-137.77,19.342)"
       gradientUnits="userSpaceOnUse">
      <stop
         stop-color="#039"
         offset="0"
         id="stop20-6" />
      <stop
         stop-color="#09f"
         offset=".47059"
         id="stop22-5" />
      <stop
         stop-color="#cff"
         offset="1"
         id="stop24-6" />
    </linearGradient>
    <radialGradient
       id="gradient1-6-9"
       cx="0"
       cy="0"
       r="819.20001"
       gradientTransform="matrix(0.15259,0,0,0.15259,-147.36,-19.476)"
       gradientUnits="userSpaceOnUse">
      <stop
         stop-color="#fff"
         offset="0"
         id="stop7-37" />
      <stop
         stop-color="#cff"
         offset=".078431"
         id="stop9-4" />
      <stop
         stop-color="#09f"
         offset=".29804"
         id="stop11-5" />
      <stop
         stop-color="#06c"
         offset=".53725"
         id="stop13-25" />
      <stop
         stop-color="#039"
         offset=".75294"
         id="stop15-4" />
      <stop
         stop-color="#99f"
         offset="1"
         id="stop17-7" />
    </radialGradient>
    <radialGradient
       id="gradient2-62-4"
       cx="-1495.2"
       cy="5091.2002"
       r="819.20001"
       gradientTransform="matrix(0.033215,0.02554,-0.022525,0.029294,177.22,-98.257)"
       gradientUnits="userSpaceOnUse">
      <stop
         stop-color="#00bf00"
         offset="0"
         id="stop2-4" />
      <stop
         stop-color="#060"
         offset=".92941"
         id="stop4-3" />
    </radialGradient>
    <radialGradient
       id="radialGradient1624-0"
       cx="-154.38"
       cy="-18.646999"
       r="75.181"
       fx="-154.72"
       gradientTransform="matrix(0.65631,0,0,0.6543,-49.102,-7.0885)"
       gradientUnits="userSpaceOnUse">
      <stop
         stop-color="#fff"
         offset="0"
         id="stop27-7" />
      <stop
         stop-color="#fff"
         stop-opacity="0"
         offset="1"
         id="stop29-8" />
    </radialGradient>
    <linearGradient
       id="linearGradient1140-6-6"
       x1="-46.438"
       x2="-46.438"
       y1="24.605"
       y2="45.852001"
       gradientUnits="userSpaceOnUse">
      <stop
         stop-color="#95fb62"
         offset="0"
         id="stop32-8" />
      <stop
         stop-color="#6c3"
         offset=".5"
         id="stop34-8" />
      <stop
         stop-color="#0a9e05"
         offset="1"
         id="stop36-4" />
    </linearGradient>
    <linearGradient
       id="linearGradient1152-5-3"
       x1="-46.530998"
       x2="-46.530998"
       y1="24.125"
       y2="34.818001"
       gradientUnits="userSpaceOnUse">
      <stop
         stop-color="#4db333"
         offset="0"
         id="stop39-1" />
      <stop
         stop-color="#43a923"
         offset="1"
         id="stop41-4" />
    </linearGradient>
    <filter
       inkscape:collect="always"
       style="color-interpolation-filters:sRGB"
       id="filter2102"
       x="-0.048323417"
       y="-0.047680879"
       width="1.0966468"
       height="1.0953618">
      <feGaussianBlur
         inkscape:collect="always"
         stdDeviation="4.9114258"
         id="feGaussianBlur2104" />
    </filter>
  </defs>
  <sodipodi:namedview
     showguides="false"
     inkscape:snap-grids="true"
     inkscape:snap-others="true"
     inkscape:snap-smooth-nodes="true"
     inkscape:object-paths="false"
     id="base"
     pagecolor="#ffffff"
     bordercolor="#666666"
     borderopacity="1.0"
     inkscape:pageopacity="0.0"
     inkscape:pageshadow="2"
     inkscape:zoom="2.2492323"
     inkscape:cx="232.30148"
     inkscape:cy="98.255747"
     inkscape:document-units="px"
     inkscape:current-layer="layer1"
     inkscape:document-rotation="0"
     showgrid="false"
     units="px"
     inkscape:window-width="3840"
     inkscape:window-height="2043"
     inkscape:window-x="0"
     inkscape:window-y="0"
     inkscape:window-maximized="1"
     inkscape:snap-bbox="true"
     inkscape:bbox-nodes="true"
     fit-margin-top="0"
     fit-margin-left="0"
     fit-margin-right="0"
     fit-margin-bottom="0"
     inkscape:bbox-paths="false"
     inkscape:snap-global="true"
     inkscape:pagecheckerboard="0">
    <inkscape:grid
       type="xygrid"
       id="grid1504"
       originx="0"
       originy="0" />
    <inkscape:grid
       type="xygrid"
       id="grid1507"
       spacingx="0.5"
       spacingy="0.5"
       originx="0"
       originy="0" />
  </sodipodi:namedview>
  <metadata
     id="metadata5">
    <rdf:RDF>
      <cc:Work
         rdf:about="">
        <dc:format>image/svg+xml</dc:format>
        <dc:type
           rdf:resource="http://purl.org/dc/dcmitype/StillImage" />
      </cc:Work>
    </rdf:RDF>
  </metadata>
  <g
     inkscape:label="Layer 1"
     inkscape:groupmode="layer"
     id="layer1"
     transform="translate(-12.567709)">
    <path
       id="path1592"
       style="fill:#212121;fill-opacity:1;fill-rule:evenodd;stroke-width:1.2108;filter:url(#filter2102)"
       d="M 113.99935,4 C 87.348025,4 64.568166,13.36395 45.659506,32.091797 26.931658,50.819644 17.567709,73.50998 17.567709,100.16211 c 0,26.47132 9.363949,49.16166 28.091797,68.07032 17.874819,17.70464 39.215722,27.02879 64.011714,27.99609 l 6.00391,0.23437 65.86914,54.75196 1.70313,-1.41602 78.24804,-65.04101 v -14.57618 h -42.64062 v -63.28906 h -8.92578 c 0.13827,-2.21883 0.23242,-4.45579 0.23242,-6.73047 0,-26.65132 -9.36395,-49.341658 -28.0918,-68.070313 C 163.16181,13.36395 140.47147,4 113.99935,4 Z" />
    <g
       id="g1590">
      <g
         transform="matrix(1.2108,0,0,1.2108,275.81971,72.745)"
         fill-rule="evenodd"
         id="g59">
        <path
           d="m -217.41,19.342 q 0,32.794 23.201,56.219 23.424,23.201 56.442,23.201 32.794,0 56.219,-23.201 23.201,-23.424 23.201,-56.219 0,-33.017 -23.201,-56.219 -23.424,-23.201 -56.219,-23.201 -33.017,0 -56.442,23.201 -23.201,23.201 -23.201,56.219"
           fill="url(#gradient0-1)"
           id="path51"
           style="fill:url(#gradient0-1-7)" />
        <path
           d="m -212.95,19.342 q 0,31.009 21.863,53.095 22.086,22.086 53.318,22.086 31.009,0 53.318,-22.086 21.863,-22.086 21.863,-53.095 0,-31.233 -21.863,-53.318 -22.309,-22.086 -53.318,-22.086 -31.233,0 -53.318,22.086 -21.863,22.086 -21.863,53.318"
           fill="url(#gradient1-6)"
           id="path53"
           style="fill:url(#gradient1-6-9)" />
        <path
           transform="matrix(3.7819,0,0,3.7819,-225.48,-69.054)"
           d="M 20.951,3.6719 V 3.78909 H 20.83381 V 3.90628 H 20.36115 V 4.02542 H 19.88849 V 4.2012 H 19.7713 v 0.47266 h 0.23633 v 0.11719 h 1.0605 V 4.91019 H 20.47829 V 5.14652 H 20.3611 V 5.02738 h -0.47266 v 0.23633 h 0.11914 V 5.61723 H 19.88844 V 5.85356 H 19.65406 V 5.97075 H 19.53492 V 6.08989 H 19.41773 V 6.20708 H 19.29859 V 6.502 h -0.17578 v 0.11914 h -0.11914 v 0.23438 h 0.11914 v 0.11914 h 0.29492 v 0.11719 h 0.4707 v 0.11914 h 0.47266 V 7.09185 h 0.23633 V 6.73833 h 0.11719 V 6.62114 h 0.23633 V 6.502 h 0.11719 V 6.38481 h 0.11914 V 6.20708 h 0.11719 V 5.97075 h 0.17773 V 5.85356 h 0.4707 V 5.73637 h 0.11914 v 0.23438 h -0.11914 v 0.23633 h 0.35547 V 6.502 h 0.11719 V 6.62114 H 22.30836 V 6.73833 H 21.8357 v 0.11719 h -0.11719 v 0.11914 h -0.65039 v 0.11719 h -0.11719 v 0.11914 h -0.11719 v 0.11719 h 0.11719 v 0.11914 h 0.23633 v 0.11719 h 0.29492 V 7.6817 h 0.11719 v 0.11914 h -0.53125 v 0.35352 h 0.11914 v 0.23633 h 0.76562 v 0.29492 h 0.23633 V 8.50788 h 0.35352 V 8.39069 h 0.94531 v 0.11719 h 0.17578 v 0.17773 h 0.11914 v 0.35352 h 0.11719 v 0.11719 h 0.11719 v 0.94531 h -0.11719 v 0.11719 h -0.11719 v 0.11719 h 0.4707 v 0.11914 h -0.11719 v 0.11719 h 0.11719 v 0.11914 h 0.35547 v 0.17578 h 0.11719 v 0.11914 h -0.11719 v 0.11719 H 24.3728 v 0.23633 h -0.11914 v 0.11719 h -0.11719 v 0.11914 h 0.11719 v 0.4707 h 0.11914 v 0.23633 h 0.11719 v 0.23633 h 0.11914 v 0.23633 h 0.11719 v 0.11719 h 0.11719 v 0.29492 h 0.11914 v 0.11914 h 0.11719 v 0.11719 h 0.58984 v 0.11719 h 0.53125 v -0.35352 h 0.11719 v -0.41211 h 0.29492 v -0.35352 h 0.11914 v -0.23633 h 0.35352 v -0.11914 h 0.35352 v -0.11719 h 0.11914 v -0.11914 h 0.11719 v -0.11719 h 0.11719 V 11.4571 h 0.47266 v -0.11719 h 0.11719 v -0.11914 h 0.11914 v 0.11914 h 0.23633 v -0.11914 h 0.41211 v -0.11719 h 0.11719 v -0.11719 h 0.35547 v -0.11914 h 0.11719 v -0.29492 h 0.11914 v -0.4707 H 29.74002 V 9.98249 h -0.11719 v -0.4707 h 0.35352 V 9.39265 h 0.11719 V 9.27546 h 0.11914 V 9.15632 h 0.11719 V 9.03913 h 0.11914 V 8.68561 H 30.32987 V 8.50788 H 30.21268 V 8.39069 h 0.58984 V 8.15436 H 30.68338 V 8.03717 H 30.56619 V 7.80084 H 30.449 V 7.56451 H 30.09353 V 7.44732 h -0.35352 v 0.4707 H 29.62282 V 8.15435 H 29.50368 V 7.68169 H 29.38649 V 7.5645 h 0.11719 V 7.21098 h 0.23633 v 0.11719 h 0.23633 V 6.97465 H 30.449 V 6.73832 H 30.32986 V 6.62113 h -0.4707 V 6.85551 H 29.62283 V 6.97465 H 29.50369 V 6.62113 h 0.11914 V 6.50199 h 0.94336 V 6.3848 h 0.11719 V 6.20707 H 30.09354 V 6.08988 h 0.11914 V 5.85355 h 0.11719 V 5.73636 H 30.5662 V 5.61722 h 0.11719 V 5.2637 h 0.11914 V 5.02737 H 30.5662 V 4.91018 H 29.97636 V 5.2637 H 29.85917 V 5.38089 H 29.74003 V 5.50003 H 29.5037 V 5.38089 h 0.11914 V 5.2637 h 0.11719 V 5.14651 h 0.11914 V 4.79104 H 29.15019 V 4.67385 h 0.11719 V 4.43752 H 29.15019 V 4.32033 H 28.61894 V 4.20119 h -0.4707 V 4.02541 H 27.67558 V 3.90627 h -1.3574 V 4.02541 H 26.0838 V 4.20119 H 25.66974 V 4.32033 H 25.55255 V 4.43752 H 25.19903 V 4.55666 H 25.07989 V 4.67385 H 24.49005 V 4.79104 H 23.90021 V 4.91018 H 23.25177 V 5.02737 H 22.89825 V 4.91018 h 0.23437 V 4.79104 h 0.23633 V 4.67385 H 23.25176 V 4.55666 H 23.13262 V 4.02541 H 23.01543 V 3.90627 H 22.89824 V 3.78908 H 22.7791 V 3.67189 H 21.95293 V 3.78908 H 21.59941 V 3.67189 Z M 18.1776,4.2012 V 4.43753 H 18.06041 V 4.79105 H 17.94322 V 4.67386 H 17.70689 V 4.43753 h -0.47266 v 0.11914 h -0.41211 v 0.11719 h 0.29492 v 0.11719 h 0.11719 v 0.11914 h 0.23633 v 0.11719 h 0.35352 V 4.91019 h 0.11914 v 0.23633 h 0.11719 V 5.26371 H 17.94322 V 5.3809 h 0.23438 v 0.23633 h -0.11719 v 0.11914 h 0.11719 v 0.35352 h 0.82617 V 5.85356 h 0.11914 V 5.73637 h 0.17578 V 5.50004 h 0.11914 V 5.14652 H 19.12291 V 4.67386 H 19.00377 V 4.55667 H 18.88658 V 4.43753 H 18.53306 V 4.2012 Z m -1.709,0.47266 v 0.11719 h 0.11719 V 4.67386 Z m -0.82617,0.35352 v 0.11914 h -0.35352 v 0.11719 h -0.23633 v 0.23633 h 0.4707 v 0.4707 h 0.35547 v 0.11914 h 0.11719 V 5.97074 h 0.11719 v 0.11914 h 0.11914 v 1.002 h -0.23633 v 0.23633 h -0.11719 v 0.11914 h -0.11914 v 0.23438 h 0.11914 V 8.5079 h 0.35352 V 8.15438 h 0.11719 V 8.03719 h 0.23633 V 7.91805 h 0.11719 V 7.80086 h 0.11914 V 7.44734 h 0.11719 V 7.3282 h 0.88477 V 7.21101 h 0.23633 V 7.3282 h 0.35352 v 0.47266 h 1.2402 V 7.44734 H 19.53499 V 7.21101 H 18.76741 V 6.38484 H 18.53303 V 6.20711 H 18.06037 V 6.08992 h -0.47266 v 0.11719 h -0.4707 V 6.08992 H 16.93927 V 5.97078 H 16.70294 V 5.7364 H 16.58575 V 5.50007 H 16.11309 V 5.38093 H 15.9959 V 5.26374 H 15.75957 V 5.02741 Z m -1.1211,0.47266 V 5.61723 H 14.285 v 0.11914 h -0.23633 v 0.11719 h -0.23633 v 0.11719 h 0.11914 v 0.11914 h 0.23633 V 6.20708 H 14.285 V 6.502 h 0.11914 v 0.11914 h 0.41211 v 0.11719 h 0.70703 V 6.62114 h 0.23633 V 6.08989 H 14.93344 V 6.38481 H 14.81625 V 5.73637 h 0.11719 V 5.50004 Z m -1.5332,0.88477 V 6.502 H 12.7518 v 0.11914 h -0.11914 v 0.11719 h -0.29492 v 0.11719 h -0.11719 v 0.11914 h -0.23633 v 0.11719 h 0.23633 v 0.23633 h 0.64844 V 7.21099 h 0.47266 V 7.09185 h 0.23633 V 6.85552 h 0.11719 V 6.62114 H 13.57798 V 6.502 H 13.22251 V 6.38481 Z m 1.1797,0.58984 V 7.09184 H 14.04869 V 7.5645 h -0.35352 v 0.35352 h 0.11719 v 0.11914 h 0.11914 v 0.11719 h 0.11719 v 0.23633 h 0.23633 v 0.11719 h 0.64844 V 8.39068 H 15.0526 V 8.6856 H 14.93346 V 8.80279 H 14.81627 V 9.03912 H 14.52135 V 9.27545 H 14.28502 V 8.92193 H 13.9315 V 8.80279 H 13.57798 V 8.50787 H 13.45884 V 7.80084 H 13.34165 V 7.6817 H 12.98813 V 7.80084 H 12.86899 V 7.6817 H 12.33774 V 7.56451 H 11.98422 V 7.80084 H 11.86703 V 7.44732 H 11.6307 V 7.32818 H 11.51351 V 7.44732 H 11.39437 V 7.6817 H 11.27718 V 7.56451 H 11.15804 V 7.6817 H 11.04085 V 7.80084 H 10.92366 V 7.91803 H 10.80452 V 8.03717 H 10.56819 V 8.15436 H 10.451 v 0.11719 h 0.23633 V 8.15436 h 0.11719 v 0.23633 h 0.11914 V 8.8028 h 0.23438 V 8.92194 H 11.6307 V 8.8028 h 0.23633 v 0.11914 h 0.23633 v 0.11719 h -0.94531 v 0.35352 h 0.11914 v 0.11914 h 0.35352 v 0.11719 h 0.11719 v 0.11719 h 0.58984 V 9.62898 h 0.65039 V 9.51179 h 0.35352 v 0.11719 h 0.58984 V 9.51179 h 0.11719 V 9.27546 h 0.11914 v 0.35352 h 0.23633 v 0.11719 h 0.23438 V 9.62898 h 0.29492 v 0.11719 h 0.11914 V 9.9825 h 0.11719 v 0.11914 h 0.11914 v 0.23438 h -0.11914 v 0.11914 h -0.35352 v -0.11914 h 0.11719 v -0.23438 h -0.76562 v 0.35352 h -0.47266 v 0.11719 H 13.57798 V 10.45516 H 13.45884 V 10.33602 H 13.34165 V 10.21883 H 12.98813 V 9.9825 H 12.86899 V 9.86531 H 12.7518 V 9.9825 h -0.53125 v 0.11914 h -0.11719 v 0.35352 h 0.11719 v 0.11719 h -0.11719 v 0.11914 H 11.98422 V 10.45516 H 11.86703 V 10.33602 H 11.6307 v 0.11914 h -0.58984 v -0.11914 h 0.11719 V 9.9825 H 11.04086 V 9.86531 H 10.92367 V 9.74617 H 10.68734 V 9.9825 H 10.5682 V 9.86531 H 10.45101 V 9.74617 H 10.27328 V 9.62898 H 10.0389 V 9.51179 H 9.80257 V 9.39265 L 8.97835,9.3907 c -0.1868,0.17398 -0.86564,0.86862 -1.8262,2.125 -0.65818,0.86091 -1.2548,1.8047 -1.5156,2.3555 l 0.1543,0.0059 v 0.23438 h 0.11719 v 0.11914 h 0.11914 v 0.11719 h 0.53125 v 0.11914 h 0.35352 v 0.11719 h 0.11719 v 0.11719 h 0.11914 v 0.23629 h 0.23438 v 0.41406 H 7.5018 v 0.11719 h 0.23633 v 0.11719 H 7.61899 v 0.35547 h 0.11914 v 0.41211 h 0.11719 v 0.11719 h 0.11719 v 0.11914 h 0.11914 v 0.23633 h 0.17578 v 0.11719 h 0.23633 v 0.11719 H 8.6229 v 0.11914 h 0.23633 v 0.11719 h 0.11719 v 0.11914 h 0.11719 v 0.88476 H 8.97642 v 0.58984 H 8.85923 v 1.1797 h 0.11719 v 0.23633 h 0.11719 v 0.29492 h 0.11914 v 0.11719 h 0.11719 v 0.23633 h 0.23633 v 0.23633 h 0.11719 v 0.11719 H 9.8026 v 0.11719 h 0.35352 v 0.11914 h 0.11719 v 0.35352 h 0.17773 v 0.11719 h 0.11719 v 0.23633 h 0.11914 v 0.11914 h 0.11719 v 0.29492 h 0.11914 v 0.23633 h 0.23438 v 0.11719 h 0.11914 v 0.11719 h 0.11719 v 0.23633 h 0.11914 v 0.11914 h 0.11719 v 0.23437 h 0.23633 v 0.11914 h 0.35352 V 23.60953 H 12.1034 v -0.11719 h -0.11914 v -0.23633 h -0.11719 v -0.11914 h -0.11914 v -0.23438 h 0.23633 v 0.23438 h 0.11914 v 0.11914 h 0.23438 v 0.23633 h 0.29492 v 0.11719 h 0.11914 v 0.11719 h 0.11719 v 0.47266 h 0.11914 v 0.35352 h 0.23438 v 0.11914 h 0.47266 v 0.17578 h 0.23633 v 0.11914 h 0.58984 v 0.23438 h 1.3574 v 0.11914 h 0.11719 v 0.11719 h 0.11719 v 0.11914 H 16.2323 V 25.674 h 0.35352 v 0.11719 h 0.23633 v 0.11914 h 0.11719 v 0.23633 h 0.17774 v 0.35352 h 0.23633 v 0.11719 h 0.82422 v 0.11914 h 0.47266 v 0.11719 h 0.11719 v 0.53125 h -0.11719 v 0.23633 H 18.5331 v 0.23438 h -0.11914 v 0.35547 h -0.11719 v 0.23633 h -0.23633 v 0.11719 h -0.11719 v 0.47266 h -0.11914 v 0.29492 h 0.11914 v 0.35352 h 0.11719 v 0.11719 h 0.11719 v 0.11914 h 0.11914 v 0.23438 h 0.11719 v 0.23633 h 0.11914 v 0.58984 h 0.11719 v 0.11914 h 0.11719 v 0.11719 h 0.11914 v 0.11719 h 0.11719 v 0.17773 h 0.29492 v 0.11719 h 0.23633 v 0.11914 h 0.11914 v 0.11719 h 0.11719 v 0.11914 h 0.11719 v 1.9453 h -0.11719 v 0.35547 H 19.6542 v 0.82422 h -0.11914 v 0.65039 h -0.11719 v 0.35352 h -0.11914 v 0.88477 h 0.11914 v 0.11719 h -0.11914 v 0.23633 h -0.17578 v 0.23633 h 0.17578 v 0.94336 h -0.17578 v 0.11914 h -0.11914 v 0.5293 h -0.11719 v 1.416 h 0.11719 V 40.717 h 0.11914 v 0.11719 h 0.17578 v 0.11719 h 0.23633 v -0.11719 h 0.23633 v 0.11719 h 0.11719 V 41.2463 H 19.6542 v 0.35547 h 0.23438 v 0.23438 h 0.47266 v 0.11914 h 0.23633 v -0.11914 h 0.23633 v 0.11914 h 0.23438 v -0.23633 h 0.11914 V 41.36544 H 21.06828 V 41.2463 h -0.11719 v -0.11719 h -0.35352 v -0.17773 h -0.11914 v -0.11719 h -0.11719 v -0.47266 h -0.11719 v -0.23438 h 0.11719 v -0.11914 h 0.11719 v -0.23633 h 0.11914 v -0.11719 h 0.11719 V 39.5373 H 20.8339 V 38.94746 H 20.59757 V 38.5334 h 0.23633 v -0.11719 h 0.11719 v -0.35547 h 0.11719 v -0.23438 h 0.11914 V 37.47089 H 21.06828 V 37.3537 h 0.41406 v -0.23633 h 0.11719 v -0.35352 h 0.35352 v 0.11719 h 0.23633 v -0.11719 h 0.23633 v -0.11719 h 0.11719 v -0.76758 h -0.11719 v -0.11719 h 0.70703 v -0.17774 h 0.11914 v -0.23633 h 0.11719 v -0.23633 h 0.11914 v -0.23438 h 0.17578 v -0.35547 h 0.11914 v -0.11719 h 0.11719 v -0.23633 h 0.11719 v -0.23633 h 0.11914 v -0.41211 h 0.11719 v -0.11719 h 0.11914 v -0.11914 h 0.23633 v -0.23633 h 0.4707 v -0.11719 h 0.23633 v -0.11914 h 0.11719 V 32.6935 h 0.11914 v -0.11719 h 0.11719 V 32.45717 H 25.789 v -0.23633 h 0.17578 V 31.631 h 0.11914 v -0.5293 h 0.11719 v -0.23633 h 0.11719 v -0.23633 h 0.11914 v -0.11719 h 0.17578 v -0.23633 h 0.11914 v -0.11914 h 0.11719 v -1.002 H 26.61322 V 29.03719 H 26.3183 V 28.91805 H 26.20111 V 28.80086 H 25.789 v -0.11914 h -0.47266 v -0.11719 h -0.35352 v -0.35352 h -1.0625 V 27.62117 H 23.78313 V 27.50203 H 23.66399 V 27.38484 H 23.48821 V 27.2657 h -0.23633 v -0.11719 h -0.11914 v -0.17774 h -0.4707 V 26.85358 H 22.42571 V 26.73639 H 22.30852 V 26.61725 H 22.18938 V 26.50006 H 22.07219 V 26.38092 H 21.95305 V 26.26373 H 21.83586 V 26.14654 H 21.59953 V 26.0274 h -0.76562 v 0.11914 H 20.71477 V 26.0274 h -0.11719 v -0.11719 h -0.23633 v -0.23633 h -0.58984 v 0.11719 h -0.23633 v 0.11914 h -0.41211 v 0.11719 h -0.11914 v 0.23633 h -0.11719 v 0.11719 H 18.7675 v -0.11719 h -0.4707 v 0.11719 h -0.23633 v -0.11719 h -0.23633 v -0.11719 h -0.11719 v -0.23633 h -0.11914 v -0.11914 h 0.11914 v -0.82422 h -0.76758 v -0.76758 h 0.17774 v -0.35352 h -0.64844 v 0.11719 H 16.1132 v 0.23633 h -0.11719 v 0.11719 H 15.75968 V 24.4356 H 15.40616 V 24.31646 H 15.05264 V 24.19927 H 14.9335 V 23.84575 H 14.81631 V 23.60942 H 14.63858 V 23.2559 h -0.11719 v -0.47266 h 0.11719 v -0.11719 h 0.17773 v -0.17774 h 0.23633 v -0.11719 h 1.0605 v -0.11914 h 1.1211 v 0.11914 h 0.11914 v 0.41211 h 0.11719 v 0.23633 h 0.11719 v 0.11719 h 0.11914 v 0.11914 h 0.11719 v 0.11719 h 0.35352 v -0.11719 h 0.11914 v -0.35352 h -0.11914 v -0.23633 h -0.11719 v -0.29492 h -0.11719 v -0.47266 h 0.11719 v -0.23633 h 0.23633 v -0.11719 h 0.11719 V 21.4258 h 0.11914 v -0.23438 h 0.23438 v -0.11914 h 0.11914 v -0.11719 h 0.11719 V 20.71876 H 18.8866 v -0.11719 h 0.23633 v -0.29492 h 0.29492 v -0.70898 h 0.82617 v -0.11719 h 0.11719 v -0.11914 h -0.11719 v -0.11719 h -0.11914 v -0.11719 h 0.11914 v -0.11914 h 0.11719 v -0.11719 h 0.23633 v 0.11719 h 0.4707 v -0.11719 h 0.23633 v -0.11914 h 0.29492 V 18.53711 H 21.4823 v -0.11914 h -0.17773 v -0.11719 h -0.23633 v -0.17773 h -0.11719 v -0.35352 h 0.11719 v -0.47266 h -0.35352 v 0.11914 h -0.11719 v -0.11914 h 0.11719 v -0.11719 h 0.88476 V 17.06054 H 21.953 v 0.11914 h 0.23633 v -0.11914 h 0.11914 v -0.11719 h 0.11719 v -0.11719 h 0.11719 v -0.11914 h 0.23633 v -0.11719 h 0.11914 v -0.47266 h -0.11914 v -0.29492 h -0.11719 v -0.11719 h -0.11914 v -0.11914 h -0.4707 V 15.46873 H 21.95301 V 15.05662 H 21.83582 V 14.93748 H 21.71863 V 14.70115 H 21.59949 V 14.34763 H 21.4823 V 14.1113 h -0.17773 v -0.23438 h -0.11719 v -0.23633 h -0.23633 v 0.11719 h -0.11719 v 0.35352 h -0.23633 v 0.11914 H 20.24401 V 14.1113 h -0.11914 v -0.82422 h -0.23633 v -0.11914 h -0.11719 v -0.11719 h -0.11719 v -0.17773 h -0.76758 v -0.11719 h -0.11914 v -0.11914 h 0.35547 v -0.4707 h -0.23633 v 0.11719 h -0.11914 v 0.11914 H 18.53306 V 12.28318 H 18.41392 V 12.16599 H 18.29673 V 11.92966 H 18.0604 V 11.81052 H 17.94321 V 11.69333 H 17.70688 V 11.457 h -0.11914 v 0.11914 h -0.11719 v 0.11719 h -0.23633 v 0.23633 h -0.11719 v 0.35352 h 0.23633 v 0.23633 h 0.35352 v -0.11719 h 0.11719 v -0.11914 h 0.23633 v 0.11914 h 0.23633 v 0.64844 h -0.11914 v 0.4707 h 0.11914 v 0.35547 h -0.11914 v 0.70703 h 0.11914 v 0.47266 h 0.11719 v 0.17578 h -0.11719 v 0.11914 h -0.11914 v 0.11719 H 18.0604 v 0.11719 h -0.11719 v 0.88476 h 0.11719 v 0.23633 h -0.11719 v 0.11914 h -0.11914 v -0.11914 h -0.11719 v -0.23633 h -0.11914 v -0.11719 h -0.11719 v -0.41211 h -0.11719 v -0.35547 h -0.11914 v -0.11719 h -1.1211 V 15.35153 H 15.99593 V 15.23239 H 15.87874 V 14.82028 H 15.7596 v -0.23633 h -0.23633 v -0.11719 h -0.11719 v -0.23633 h -0.11719 v 0.11719 h -0.11914 v -0.11719 h -0.11719 v -0.11914 h -0.11914 v -0.23438 h 0.11914 v -0.35547 h 0.11719 v -0.11719 h 0.11914 v -0.11719 h 0.11719 v -0.11914 h 0.11719 V 12.873 h 0.23633 v -0.11719 h 0.58984 v -0.58984 h 0.11914 v -0.23633 h 0.11719 V 11.8105 h 0.11719 v -0.35352 h -0.23438 v -0.11719 h 0.35352 v 0.11719 h 0.29492 v -0.11719 h 0.4707 v -0.23633 h 0.11914 v -0.11719 h 0.11719 v -0.65039 h -0.23633 v -0.11719 h 0.11914 V 10.1015 h 0.11719 V 9.7460269 h -0.23633 v -0.35352 h -0.64844 v 0.35352 h 0.17774 v 0.11914 h -0.17774 v 0.11719 h -0.11719 v 0.3535201 h -0.11914 v -0.11719 H 16.58576 V 9.7460269 h -0.23633 v 0.11914 h -0.11719 v -0.11914 h -0.35352 v -0.58984 h -0.11914 v -0.4707 h -0.11719 v -0.53125 h -0.58984 v -1.0625 h -0.11914 v -0.11719 z m 3.5391,5.5449 v 0.23633 h 0.4707 v -0.23633 z m 0.4707,-4.3652 v 0.35352 h -0.11719 v 0.41406 h -0.11719 v 0.23438 h 0.11719 v 0.11914 h 0.11719 v 0.23633 h 0.11914 V 9.8653 h 0.23633 v 0.11719 h 0.23438 v 0.47266 h 0.23633 v 0.11719 h 0.11914 v -0.11719 h 0.17578 V 9.98249 h 0.23633 v 0.11914 h 0.35352 v 0.11719 h 0.11914 v 0.11719 h 0.11719 v 0.11914 h 0.11914 v 0.64844 h -0.11914 v 0.35352 h -0.11719 v 0.11914 H 19.88858 V 11.45711 H 19.6542 v 0.23633 h -0.11914 v 0.23633 h 0.11914 v 0.11719 h 0.58984 v 0.11914 h 0.23438 v 0.23633 h 0.11914 v 0.11719 h 0.23633 v 0.11719 h 0.11719 v 0.11914 h 0.35352 v -0.23633 h 0.17773 v 0.11719 h 0.23633 v -0.4707 h -0.11914 v -0.23633 h -0.11719 v -0.11914 h 0.11719 v -0.11719 h 0.35352 v -0.11719 h 0.23633 V 11.33993 H 22.07218 V 10.98641 H 21.71866 V 10.69149 H 21.59952 V 10.57235 H 21.3046 V 10.45516 H 21.06827 V 10.33602 H 21.3046 V 9.74618 H 21.06827 V 9.5118 H 20.95108 V 9.39266 H 20.71475 V 9.15633 H 20.36123 V 8.92195 H 20.24404 V 8.80281 H 19.53506 V 8.68562 H 19.29873 V 8.50789 h 0.11914 V 8.3907 H 19.29873 V 8.15437 Z m 19.885,1.9453 -0.18164,0.002 v 0.11719 H 37.7638 v 0.23633 h -0.17773 v 0.41211 h -0.11719 v 0.23633 h -0.11914 v 0.23633 h -0.11719 v 0.35352 h -0.23633 v 0.23633 h -0.11719 v 0.23633 h -0.11914 v 0.23633 H 36.6427 v 0.11719 h -0.11914 v 0.11719 h -0.11719 v 0.11914 h -0.11719 v 0.11719 h -0.11914 v 0.17773 h -0.11719 v 0.11719 h -0.23633 v 0.11914 h -0.11719 v 0.11719 h -0.11914 v 0.11719 h -0.29492 v 0.11914 h 0.17774 v 0.11719 h -0.17774 v 0.35352 h 0.17774 v 0.47266 h -0.17774 v 0.23633 h 0.17774 v 0.41211 h 0.11719 v 0.11914 h 0.58984 v -0.11914 h 0.11914 v -0.17578 h 0.11719 v -0.23633 h 0.11719 V 14.7013 h 0.11914 v -0.11719 h 0.11719 v 0.47266 H 36.6427 v 0.29492 h 0.11719 v 0.35352 h 0.11914 v 0.23633 h 0.11719 v 0.17578 h 0.47266 v -0.17578 h 0.29492 v -0.23633 h 0.11719 v -0.35352 h 0.11719 v -0.29492 h 0.11914 v -0.23633 h 0.11719 V 14.7013 h 0.11914 v -0.4707 h -0.23633 v -0.70898 h 0.11719 v -0.11719 h 0.11914 v -0.11719 h 0.23438 V 13.1681 h 0.11914 v 1.1797 h 0.11719 v 0.11914 h 0.23633 v 0.11719 h 0.11719 v 0.11719 h -0.11719 v 0.53125 h 0.11719 V 15.4689 H 39.06069 V 15.35171 H 38.9435 v -0.11914 h -0.11914 v 0.11914 h -0.11719 v 0.11719 h -0.11914 v 0.11719 h -0.11719 v 0.35547 h -0.11719 v 0.29492 h -0.23633 v 0.11719 H 37.99818 V 16.23648 H 37.7638 v 0.11719 h -0.17773 v 0.11719 h -0.47266 v -0.11719 h -0.58984 v -0.53125 h 0.11914 v -0.23633 h -0.11914 v -0.35356 h -0.11719 v 0.11914 h -0.23633 v 0.11719 h -0.11719 v 0.11719 h -0.11914 v 0.53125 h 0.11914 v 0.47266 h -0.23633 v 0.11719 h -0.53125 v 0.23633 h -0.11719 v 0.23633 H 35.04895 V 17.297 h -0.11719 v 0.11914 H 34.81262 V 16.94348 H 34.69543 V 16.82629 H 34.57824 V 16.70715 H 34.4591 v -0.23633 h -0.11719 v -0.11719 h -0.11914 v -1.002 h -0.35352 v -0.11914 h -0.11719 v -0.17578 h 0.11719 v -0.23633 h -0.4707 v 0.11719 h -0.11914 v 0.41406 h -0.17578 v 0.4707 h 0.17578 v 0.29492 h -0.76562 v 0.35352 h -0.11914 v -0.11719 h -0.23633 v 0.11719 h -0.11719 v 0.23633 h 0.23633 v 0.70898 h 0.4707 v -0.11914 h 0.35547 v -0.11719 h 0.17578 v 0.11719 h 0.23633 v 0.11914 h -0.23633 v 0.11719 h -0.17578 v 0.11914 h -0.11914 v 0.23438 h 0.53125 V 17.7696 h 0.47266 v 0.11719 h -0.35547 v 0.11914 h -0.23437 v 0.41211 h 0.23437 v 0.11914 h 0.11914 v 0.11719 h 0.11719 v 0.11719 h 0.11914 v 0.70898 H 32.8673 V 19.3614 h -0.23633 v 0.11914 h -0.23633 v 1.7109 h 0.23633 v 0.23438 h 0.11719 v 0.11914 h -0.11719 v 0.35352 h -0.11719 v 0.11719 h -0.11914 v 0.11914 h -0.11719 v 0.23633 h -0.11914 v 0.29492 h -0.11719 v 0.11719 h -0.11719 v 0.11914 h -0.11914 v 0.11719 h -0.23633 v 0.11719 h -0.11719 v 0.11914 h -0.11719 v 0.23633 h -0.41406 v 0.58984 h -0.23633 v 0.11719 H 30.5665 v 0.23633 h -0.11719 v 0.11719 h 0.11719 v 0.53125 h 0.11719 v 0.23633 H 30.5665 v 0.11719 h -0.11719 v 0.70898 h 0.11719 v 0.11719 h 0.11719 v 0.11719 h 0.11914 v 0.11914 h 0.11719 v 0.11719 h 0.29492 v 0.11914 h 0.11914 v 0.11719 h 0.11719 v 0.29492 h 0.11719 v 0.23633 h 0.23633 v 0.11719 h 0.11914 v 0.11914 h 0.11719 v 0.11719 h 0.11719 v 0.11719 h 0.70898 v -0.11719 h 0.88476 v 0.11719 h 0.11719 v -0.11719 h 0.47266 v -0.11719 h 0.58984 v 0.11719 h 0.23633 v 0.11719 h 0.76562 v 0.11914 h 0.11914 v 0.35352 h -0.11914 v 0.23633 H 35.8165 v 0.47266 h 0.11719 v 0.11719 h 0.23633 v 0.41211 h 0.11914 v 0.11914 h 0.11719 v 0.4707 h 0.11719 v 0.11914 h 0.11914 v 0.23633 h 0.11719 v 0.35352 h -0.11719 v 0.11719 h -0.11914 v 0.11914 h 0.11914 v 0.23438 h -0.23633 v 0.53125 h -0.11719 v 0.35352 h 0.11719 v 0.23633 h 0.11719 v 0.23633 h 0.11914 v 0.35352 h 0.11719 v 0.35547 h 0.11914 v 0.41211 h 0.11719 v 0.23633 h 0.11719 v 0.4707 h 0.11914 v 0.11914 h 0.11719 v 0.11719 h 0.11914 v 0.23633 h 0.11719 v 0.58984 h 0.29492 v 0.17774 h 0.58984 v -0.17774 l 0.45117,0.0039 c 1.2822,-1.7287 4.1523,-5.3101 4.1523,-12.242 0,-6.9319 -3.0035,-10.929 -5.0117,-13.246 z m -19.176,0.002 h 0.11719 v 0.23438 h -0.11719 z m 10.146,0.35352 h 0.11719 v 0.11719 h -0.11719 z m -7.9648,0.88477 h 0.11914 v 0.23633 h -0.11914 z m 8.4355,0.11719 v 0.11914 h -0.11719 v 0.23438 H 29.267 v 0.23633 h 0.23633 v 0.11914 h -0.11719 v 0.11719 H 29.267 v 0.23633 h 0.35547 v 0.11719 h 0.23633 v 0.11914 h 0.11719 v 0.11719 h 0.35352 v 0.17773 h 0.58984 v -0.17778 h 0.76758 v -0.11719 h 0.23633 v -0.11914 h 0.23438 v -0.11719 h 0.11914 V 12.4024 h 0.11719 V 12.04693 H 32.27678 V 11.92974 H 32.15764 V 11.8106 H 32.04045 V 11.69341 H 31.92326 V 11.57622 H 31.4506 v 0.11719 H 30.80216 V 11.57622 H 30.3295 v 0.11719 h -0.11719 v 0.11719 h -0.11914 v -0.11719 h -0.11719 v -0.11719 h -0.11719 v -0.11914 z m 9.5566,0.82617 h 0.35352 v 0.23633 h -0.11719 v 0.11719 h -0.11914 v 0.11914 h -0.11719 v 0.11719 h -0.11719 v 0.17773 H 38.8236 v -0.53125 h 0.11914 v -0.11719 h 0.11719 z m 0.70703,2.0645 h 0.29492 v 0.11914 h -0.11719 v 0.11719 h -0.53125 v -0.11719 h 0.35352 z m -6.3691,2.123 h 0.23437 v 0.23633 h -0.35352 v -0.11719 h 0.11914 z m -13.037,0.94531 h 0.11719 v 0.11719 h -0.11719 z m -0.23633,0.11714 h 0.11914 v 0.11914 h -0.11914 z m -4.0117,0.11914 h 0.35547 v 0.11719 h 0.11719 v 0.11719 h 0.23633 v 0.11914 H 16.4683 v -0.11914 h -0.11914 v 0.11914 h -0.4707 v -0.11914 h 0.11719 v -0.11719 h 0.11719 z m 18.699,0 h 0.23633 v 0.23438 h 0.11914 v 0.11914 h -0.82617 v -0.11914 h 0.23633 v -0.11719 h 0.23438 z m -1.0605,0.4707 h 0.23633 v 0.41406 h -0.11914 v -0.11914 h -0.11719 z m -16.518,0.17773 h 0.47266 v 0.11719 h 0.11719 v 0.11914 h -0.11719 v -0.11914 h -0.11914 v 0.35352 h -0.11719 v -0.35352 h -0.23633 z m 0.70898,0.11719 h 0.11719 v 0.11914 h -0.11719 z m -1.2402,0.23633 h 0.11914 v 0.23633 h -0.11914 v 0.35352 H 16.46773 V 19.127 h 0.11719 v -0.35547 h 0.11719 z m 1.5938,0 h 0.23633 v 0.11719 H 18.4131 v 0.23633 H 18.29591 V 19.127 h -0.11914 v 0.11719 h -0.4707 V 19.127 h 0.11719 v -0.11914 h 0.47266 z m 0.4707,0 h 0.11914 v 0.11719 h -0.11914 z m 18.582,0.94336 h 0.23633 v 0.11914 h 0.17773 v 0.11719 h 0.11719 v 0.11719 h 0.23633 v 0.11914 h 0.11719 v 0.41211 h 0.11914 v 0.47266 h 0.11719 v 0.23633 h 0.11719 v 0.11719 h 0.11914 v 0.11719 h 0.35352 v -0.23438 h 0.11719 v -0.11914 h 0.11914 v -0.4707 h 0.11719 v -0.11914 h 0.11914 v 0.47266 h 0.11719 v 0.11719 h 0.11719 v 0.23633 h 0.17773 v 0.11719 h 0.23633 v 0.11914 h 0.47266 v -0.11914 h 0.11719 v 0.11914 h 0.58984 v 0.11719 h 0.11719 v 0.23633 h -0.11719 v 0.11719 h -0.11719 v 0.23633 h -0.11914 v 0.11914 h -0.11719 v 0.11719 h -1.3574 v -0.11719 h -0.58984 v -0.11914 h -0.82617 v 0.11914 h -0.11719 v 0.29492 h 0.11719 v 0.11719 H 37.8799 V 22.66609 H 37.58498 V 22.48835 H 37.46779 V 22.25202 H 37.34865 V 22.13483 H 36.99513 V 22.01569 H 36.64161 V 21.8985 h -0.11914 v -0.70703 h -0.11719 v -0.11914 h -1.1211 v 0.11914 h -0.82617 v 0.11719 H 34.22168 V 20.836 h 0.11914 v -0.11719 h 0.11719 V 20.3067 h 0.23633 v -0.11914 h 0.35352 V 20.07037 H 35.167 v -0.35352 h 0.11719 v 0.11719 h 0.53125 v -0.11719 h 0.23633 v 0.35352 H 35.93263 V 20.836 h 0.35547 v -0.11719 h 0.11719 v -0.88477 h 0.11719 v 0.11719 h 0.23633 v 0.23633 h 0.11914 v 0.11914 h 0.23438 v 0.5293 h -0.35352 v 0.23633 h 0.11914 v 0.11914 h 0.4707 v 0.11719 h 0.11914 v -0.23633 h 0.29492 v -0.11719 h 0.23438 V 20.836 h 0.11914 v -0.5293 h -0.11914 v -0.23633 h -0.23438 v -0.11914 h -0.17773 v -0.11719 h -0.23633 z m -2.6543,0.88477 v 0.23633 h 0.35352 v -0.23633 z m -1.1797,0.70898 h 0.47266 v 0.23438 h -0.23633 v 0.11914 h -0.47266 v -0.11914 h -0.29492 v -0.11719 h 0.53125 z m -22.357,1.0605 h 0.11914 v 0.11914 h -0.11914 z m 26.074,0.11914 h 0.11719 v 0.11719 h -0.11719 z m -18.699,0.41211 v 0.11914 h 0.4707 V 22.7832 Z m 0.58984,0 v 0.47266 h 0.17578 v -0.11914 h 0.11914 V 22.7832 Z m 20.939,0.11914 h 0.11914 v 0.11719 h 0.11719 v 0.11719 h 0.11914 v 0.11914 h 0.11719 v 0.23633 h -0.23633 v -0.11914 h -0.23633 z m -21.176,0.4707 v 0.23633 h 0.11719 v 0.23633 h 0.29492 v -0.47266 z m 0.11719,0.47266 h -0.23633 v -0.11914 h -0.35352 v -0.11719 h -0.35352 v -0.11719 h -0.47266 v 0.11719 h -0.23438 v 0.35352 h 0.35352 V 23.8457 h 0.11719 v 0.11719 h 0.35352 v 0.11914 h 0.11914 v 0.11719 h 0.23633 v 0.11719 h 0.35352 v 0.53125 h 0.23633 v -0.29492 h -0.11914 v -0.11719 h 0.29492 v 0.23633 h 0.35547 v 0.17578 h 0.4707 v -0.17578 h 0.35352 v -0.35547 h -0.23438 v -0.11719 h -0.23633 v -0.23633 h -0.47266 v 0.11914 h -0.23633 v -0.11914 h -0.29492 z m 0.41406,-0.47266 v 0.23633 h 0.4707 v -0.23633 z m 21.707,0 h 0.23633 v 0.11914 h 0.11719 v 0.11719 h 0.11914 v 0.23633 h 0.11719 v 0.11719 h 0.11914 v 0.23633 h 0.11719 v 0.23633 h 0.17773 v 0.23633 h 0.11719 v 0.17578 h 0.11719 v 0.11914 h 0.11914 v 0.35352 h 0.11719 v 0.11719 h 0.11914 v 0.35352 h 0.11719 v 0.23633 H 42.71746 V 25.91017 H 42.48113 V 25.79103 H 42.36199 V 25.67384 H 42.2448 v -0.23633 h -0.29492 v -0.4707 H 41.83269 V 24.67189 H 41.71355 V 24.43556 H 41.59636 V 24.19923 H 41.47722 V 23.9629 H 41.36003 V 23.72657 H 41.24284 V 23.4922 H 41.1237 Z m -12.092,0.82617 v 0.23633 h -0.11914 v 0.41211 h 0.23633 v -0.17578 h 0.11719 v -0.23633 h 0.11914 v -0.23633 z m -8.4355,0.23633 v 0.41211 h 0.4707 v -0.17578 h 0.41406 v -0.23633 z m 1.002,0.11719 v 0.11914 h 0.11914 v -0.11914 z m 0.23633,0 v 0.11914 h 0.11719 v -0.11914 z m 0,0.29492 v 0.11914 h -0.11719 v 0.58984 h 0.11719 v 0.11719 h 0.23633 v -0.82617 z m 1.8281,3.3633 h 0.11914 v 0.11719 h -0.11914 v 0.11914 h -0.17578 v -0.11914 h 0.17578 z"
           fill="url(#gradient2-62)"
           id="path55"
           style="fill:url(#gradient2-62-4)" />
        <path
           d="m -212.95,19.342 q 0,31.009 21.863,53.095 22.086,22.086 53.318,22.086 31.009,0 53.318,-22.086 21.863,-22.086 21.863,-53.095 0,-31.233 -21.863,-53.318 -22.309,-22.086 -53.318,-22.086 -31.233,0 -53.318,22.086 -21.863,22.086 -21.863,53.318"
           fill="url(#radialGradient1624)"
           id="path57"
           style="fill:url(#radialGradient1624-0)" />
      </g>
      <path
         d="m 128.66971,97.836 v 63.137 l -37.004001,-0.17326 0.40156,22.09 12.563001,9.3378 6.3763,0.24938 22.994,-26.176 v -63.137 h 70.917 c 0.13377,-1.7685 0.17235,-3.5486 0.2162,-5.3281 z"
         color="#000000"
         color-rendering="auto"
         dominant-baseline="auto"
         fill="#439bdf"
         image-rendering="auto"
         shape-rendering="auto"
         solid-color="#000000"
         stop-color="#000000"
         style="font-variant-ligatures:normal;font-variant-position:normal;font-variant-caps:normal;font-variant-numeric:normal;font-variant-alternates:normal;font-variant-east-asian:normal;font-feature-settings:normal;font-variation-settings:normal;text-indent:0;text-decoration-line:none;text-decoration-style:solid;text-decoration-color:#000000;text-transform:none;text-orientation:mixed;white-space:normal;shape-padding:0;shape-margin:0;inline-size:0;isolation:auto;mix-blend-mode:normal"
         id="path61" />
      <g
         transform="matrix(5.33,0,0,-5.33,424.03971,358.73)"
         stroke-width="1px"
         id="g69">
        <path
           d="m -46.432,21.572 -14.5,12.053 v 2 h 7 v 11.874 h 14 V 35.625 h 8 v -2 z"
           fill="url(#linearGradient1140-6)"
           stroke="#006600"
           id="path63"
           style="fill:url(#linearGradient1140-6-6)" />
        <path
           d="m -53.432,34.626 h -6.5 v -0.60516 l 13.493,-11.191 13.507,11.198 v 0.59744 h -7.5"
           fill="none"
           stroke="url(#linearGradient1152-5)"
           id="path65"
           style="stroke:url(#linearGradient1152-5-3)" />
        <path
           d="m -53.432,46.5 h 13"
           fill="none"
           stroke="#43a923"
           id="path67" />
      </g>
    </g>
  </g>
</svg>
