<?xml version="1.0" encoding="UTF-8" standalone="no"?>
<svg
   width="256"
   height="256"
   viewBox="0 0 256 256"
   version="1.1"
   id="svg8"
   inkscape:version="1.1.1 (3bf5ae0d25, 2021-09-20)"
   sodipodi:docname="auto-type.svg"
   inkscape:export-filename="/media/klapeto/Αρχεία/WindowsXP Theme/Vectors/RASTER/auto-type.png"
   inkscape:export-xdpi="96"
   inkscape:export-ydpi="96"
   xmlns:inkscape="http://www.inkscape.org/namespaces/inkscape"
   xmlns:sodipodi="http://sodipodi.sourceforge.net/DTD/sodipodi-0.dtd"
   xmlns:xlink="http://www.w3.org/1999/xlink"
   xmlns="http://www.w3.org/2000/svg"
   xmlns:svg="http://www.w3.org/2000/svg"
   xmlns:rdf="http://www.w3.org/1999/02/22-rdf-syntax-ns#"
   xmlns:cc="http://creativecommons.org/ns#"
   xmlns:dc="http://purl.org/dc/elements/1.1/">
  <defs
     id="defs2">
    <linearGradient
       gradientUnits="userSpaceOnUse"
       y2="137.2175"
       x2="261.06772"
       y1="137.2175"
       x1="17.526937"
       id="linearGradient1168"
       xlink:href="#linearGradient1166"
       inkscape:collect="always" />
    <linearGradient
       id="linearGradient1166"
       inkscape:collect="always">
      <stop
         id="stop1162"
         offset="0"
         style="stop-color:#9f9fff;stop-opacity:1" />
      <stop
         style="stop-color:#e9e9ff;stop-opacity:1"
         offset="0.40000001"
         id="stop1170" />
      <stop
         id="stop1217"
         offset="0.69999999"
         style="stop-color:#9c9cff;stop-opacity:1" />
      <stop
         id="stop1164"
         offset="1"
         style="stop-color:#9c9cff;stop-opacity:1" />
    </linearGradient>
    <linearGradient
       gradientUnits="userSpaceOnUse"
       y2="136.33926"
       x2="244"
       y1="136.33926"
       x1="7.4740229"
       id="linearGradient1179"
       xlink:href="#linearGradient1177"
       inkscape:collect="always" />
    <linearGradient
       id="linearGradient1177"
       inkscape:collect="always">
      <stop
         id="stop1173"
         offset="0"
         style="stop-color:#c3c3ff;stop-opacity:1" />
      <stop
         style="stop-color:#ffffff;stop-opacity:1"
         offset="0.26047391"
         id="stop1183" />
      <stop
         id="stop1201"
         offset="0.58633208"
         style="stop-color:#ffffff;stop-opacity:1" />
      <stop
         id="stop1199"
         offset="0.81264251"
         style="stop-color:#c3c3ff;stop-opacity:1" />
      <stop
         id="stop1175"
         offset="1"
         style="stop-color:#ffffff;stop-opacity:1" />
    </linearGradient>
    <linearGradient
       gradientTransform="translate(12.567709)"
       gradientUnits="userSpaceOnUse"
       y2="130.78223"
       x2="229.57584"
       y1="130.91856"
       x1="94.995605"
       id="linearGradient1209"
       xlink:href="#linearGradient1207"
       inkscape:collect="always" />
    <linearGradient
       id="linearGradient1207"
       inkscape:collect="always">
      <stop
         id="stop1203"
         offset="0"
         style="stop-color:#ffffff;stop-opacity:1" />
      <stop
         id="stop1205"
         offset="1"
         style="stop-color:#d9d9de;stop-opacity:1" />
    </linearGradient>
    <linearGradient
       gradientUnits="userSpaceOnUse"
       y2="130.78223"
       x2="242.14354"
       y1="130.91856"
       x1="107.56332"
       id="linearGradient1228"
       xlink:href="#linearGradient1207"
       inkscape:collect="always" />
    <filter
       height="1.138094"
       y="-0.069047009"
       width="1.0735733"
       x="-0.036786641"
       id="filter2665"
       style="color-interpolation-filters:sRGB"
       inkscape:collect="always">
      <feGaussianBlur
         id="feGaussianBlur2667"
         stdDeviation="3.7706309"
         inkscape:collect="always" />
    </filter>
    <linearGradient
       gradientTransform="matrix(-0.00788835,-0.02730582,-0.0618932,0.01759709,85.149657,172.27677)"
       gradientUnits="userSpaceOnUse"
       id="gradient5-4"
       spreadMethod="pad"
       x1="-819.20001"
       x2="819.20001">
      <stop
         offset="0.0"
         stop-color="#ffff99"
         id="stop71-9" />
      <stop
         offset="1.0"
         stop-color="#ffffff"
         id="stop73-0" />
    </linearGradient>
    <linearGradient
       gradientTransform="matrix(-0.00788835,-0.02730582,-0.0618932,0.01759709,85.149657,172.27677)"
       gradientUnits="userSpaceOnUse"
       id="gradient6-9"
       spreadMethod="pad"
       x1="-819.20001"
       x2="819.20001">
      <stop
         offset="0.0"
         stop-color="#ffff99"
         id="stop76-1" />
      <stop
         offset="1.0"
         stop-color="#ffffff"
         id="stop78-7" />
    </linearGradient>
    <radialGradient
       cx="0"
       cy="0"
       gradientTransform="matrix(0.04000329,0,0,0.04000329,171.44028,61.365171)"
       gradientUnits="userSpaceOnUse"
       id="gradient7-7"
       r="819.20001"
       spreadMethod="pad">
      <stop
         offset="0.0"
         stop-color="#ffff99"
         id="stop81-1" />
      <stop
         offset="0.3333333333333333"
         stop-color="#ffff00"
         id="stop83-1" />
      <stop
         offset="1.0"
         stop-color="#f26c21"
         id="stop85-5" />
    </radialGradient>
    <radialGradient
       cx="0"
       cy="0"
       gradientTransform="matrix(0.03200263,0,0,0.03200263,218.82879,174.29752)"
       gradientUnits="userSpaceOnUse"
       id="gradient8-9"
       r="819.20001"
       spreadMethod="pad">
      <stop
         offset="0.0"
         stop-color="#ffff99"
         id="stop88-7" />
      <stop
         offset="0.2196078431372549"
         stop-color="#ffff00"
         id="stop90-7" />
      <stop
         offset="1.0"
         stop-color="#ff9933"
         id="stop92-67" />
    </radialGradient>
    <radialGradient
       cx="0"
       cy="0"
       gradientTransform="matrix(0.01969393,0,0,0.01969393,251.13913,91.521491)"
       gradientUnits="userSpaceOnUse"
       id="gradient9-3"
       r="819.20001"
       spreadMethod="pad">
      <stop
         offset="0.0"
         stop-color="#ffff99"
         id="stop95-6" />
      <stop
         offset="0.2980392156862745"
         stop-color="#ffff00"
         id="stop97-5" />
      <stop
         offset="1.0"
         stop-color="#ff9933"
         id="stop99-6" />
    </radialGradient>
    <radialGradient
       cx="0"
       cy="0"
       gradientTransform="matrix(0.01969393,0,0,0.01969393,126.51352,17.669282)"
       gradientUnits="userSpaceOnUse"
       id="gradient10-3"
       r="819.20001"
       spreadMethod="pad">
      <stop
         offset="0.0"
         stop-color="#ffff99"
         id="stop102-9" />
      <stop
         offset="0.2980392156862745"
         stop-color="#ffff00"
         id="stop104-4" />
      <stop
         offset="1.0"
         stop-color="#ff9933"
         id="stop106-8" />
    </radialGradient>
    <radialGradient
       cx="0"
       cy="0"
       gradientTransform="matrix(0.01969393,0,0,0.02030936,174.51746,236.45646)"
       gradientUnits="userSpaceOnUse"
       id="gradient11-1"
       r="819.20001"
       spreadMethod="pad">
      <stop
         offset="0.0"
         stop-color="#ffff99"
         id="stop109-2" />
      <stop
         offset="0.2980392156862745"
         stop-color="#ffff00"
         id="stop111-9" />
      <stop
         offset="1.0"
         stop-color="#ff9933"
         id="stop113-3" />
    </radialGradient>
    <radialGradient
       cx="0"
       cy="0"
       gradientTransform="matrix(0.01969393,0,0,0.01969393,233.90695,238.61049)"
       gradientUnits="userSpaceOnUse"
       id="gradient12-90"
       r="819.20001"
       spreadMethod="pad">
      <stop
         offset="0.0"
         stop-color="#ffff99"
         id="stop116-8" />
      <stop
         offset="0.2980392156862745"
         stop-color="#ffff00"
         id="stop118-8" />
      <stop
         offset="1.0"
         stop-color="#ff9933"
         id="stop120-5" />
    </radialGradient>
    <radialGradient
       cx="0"
       cy="0"
       gradientTransform="matrix(0.01969393,0,0,0.01969393,65.893166,33.055159)"
       gradientUnits="userSpaceOnUse"
       id="gradient13-0"
       r="819.20001"
       spreadMethod="pad">
      <stop
         offset="0.0"
         stop-color="#ffff99"
         id="stop123-96" />
      <stop
         offset="0.2980392156862745"
         stop-color="#ffff00"
         id="stop125-38" />
      <stop
         offset="1.0"
         stop-color="#ff9933"
         id="stop127-5" />
    </radialGradient>
    <linearGradient
       spreadMethod="pad"
       x2="819.20001"
       x1="-819.20001"
       gradientTransform="matrix(-0.00788835,-0.02730582,-0.0618932,0.01759709,85.149657,172.27677)"
       gradientUnits="userSpaceOnUse"
       id="linearGradient1193"
       xlink:href="#gradient5-4"
       inkscape:collect="always" />
    <linearGradient
       spreadMethod="pad"
       x2="819.20001"
       x1="-819.20001"
       gradientTransform="matrix(-0.00788835,-0.02730582,-0.0618932,0.01759709,85.149657,172.27677)"
       gradientUnits="userSpaceOnUse"
       id="linearGradient1195"
       xlink:href="#gradient6-9"
       inkscape:collect="always" />
    <radialGradient
       spreadMethod="pad"
       r="819.20001"
       cy="0"
       cx="0"
       gradientTransform="matrix(0.04000329,0,0,0.04000329,171.44028,61.365171)"
       gradientUnits="userSpaceOnUse"
       id="radialGradient1197"
       xlink:href="#gradient7-7"
       inkscape:collect="always" />
    <radialGradient
       spreadMethod="pad"
       r="819.20001"
       cy="0"
       cx="0"
       gradientTransform="matrix(0.03200263,0,0,0.03200263,218.82879,174.29752)"
       gradientUnits="userSpaceOnUse"
       id="radialGradient1199"
       xlink:href="#gradient8-9"
       inkscape:collect="always" />
    <radialGradient
       spreadMethod="pad"
       r="819.20001"
       cy="0"
       cx="0"
       gradientTransform="matrix(0.01969393,0,0,0.01969393,251.13913,91.521491)"
       gradientUnits="userSpaceOnUse"
       id="radialGradient1201"
       xlink:href="#gradient9-3"
       inkscape:collect="always" />
    <radialGradient
       spreadMethod="pad"
       r="819.20001"
       cy="0"
       cx="0"
       gradientTransform="matrix(0.01969393,0,0,0.01969393,126.51352,17.669282)"
       gradientUnits="userSpaceOnUse"
       id="radialGradient1203"
       xlink:href="#gradient10-3"
       inkscape:collect="always" />
    <radialGradient
       spreadMethod="pad"
       r="819.20001"
       cy="0"
       cx="0"
       gradientTransform="matrix(0.01969393,0,0,0.02030936,174.51746,236.45646)"
       gradientUnits="userSpaceOnUse"
       id="radialGradient1205"
       xlink:href="#gradient11-1"
       inkscape:collect="always" />
    <radialGradient
       spreadMethod="pad"
       r="819.20001"
       cy="0"
       cx="0"
       gradientTransform="matrix(0.01969393,0,0,0.01969393,233.90695,238.61049)"
       gradientUnits="userSpaceOnUse"
       id="radialGradient1207"
       xlink:href="#gradient12-90"
       inkscape:collect="always" />
    <radialGradient
       spreadMethod="pad"
       r="819.20001"
       cy="0"
       cx="0"
       gradientTransform="matrix(0.01969393,0,0,0.01969393,65.893166,33.055159)"
       gradientUnits="userSpaceOnUse"
       id="radialGradient1209"
       xlink:href="#gradient13-0"
       inkscape:collect="always" />
    <filter
       height="1.0909299"
       y="-0.045464926"
       width="1.0995446"
       x="-0.049772283"
       id="filter1288"
       style="color-interpolation-filters:sRGB"
       inkscape:collect="always">
      <feGaussianBlur
         id="feGaussianBlur1290"
         stdDeviation="4.5464927"
         inkscape:collect="always" />
    </filter>
  </defs>
  <sodipodi:namedview
     showguides="false"
     id="base"
     pagecolor="#ffffff"
     bordercolor="#666666"
     borderopacity="1.0"
     inkscape:pageopacity="0.0"
     inkscape:pageshadow="2"
     inkscape:zoom="1.6088805"
     inkscape:cx="-0.6215502"
     inkscape:cy="338.74486"
     inkscape:document-units="px"
     inkscape:current-layer="layer1"
     inkscape:document-rotation="0"
     showgrid="false"
     units="px"
     fit-margin-top="2"
     fit-margin-left="2"
     fit-margin-bottom="2"
     fit-margin-right="2"
     inkscape:window-width="3840"
     inkscape:window-height="2045"
     inkscape:window-x="3840"
     inkscape:window-y="0"
     inkscape:window-maximized="1"
     inkscape:snap-bbox="true"
     inkscape:snap-smooth-nodes="true"
     inkscape:snap-global="false"
     inkscape:pagecheckerboard="0"
     scale-x="1">
    <inkscape:grid
       type="xygrid"
       id="grid847"
       originx="0"
       originy="0" />
    <inkscape:grid
       spacingy="0.13229167"
       spacingx="0.13229167"
       id="grid873"
       type="xygrid" />
  </sodipodi:namedview>
  <metadata
     id="metadata5">
    <rdf:RDF>
      <cc:Work
         rdf:about="">
        <dc:format>image/svg+xml</dc:format>
        <dc:type
           rdf:resource="http://purl.org/dc/dcmitype/StillImage" />
      </cc:Work>
    </rdf:RDF>
  </metadata>
  <g
     inkscape:label="Layer 1"
     inkscape:groupmode="layer"
     id="layer1"
     transform="translate(-91.93755,-88.636871)">
    <g
       id="g1553"
       transform="matrix(0.99404179,0,0,0.99404179,1.6128337,0.65915205)">
      <path
         transform="matrix(0.97514339,0,0,0.97514339,90.866116,193.18964)"
         d="m 54.199905,9.0560874 c -0.221289,0.04301 -0.239627,0.303432 -0.09961,0.734375 0.34714,3.4653296 3.856007,9.8183086 7.863281,11.8027346 5.077478,2.514397 8.566378,0.649365 15.488282,-0.554688 2.492045,-0.433488 7.161841,1.693304 6.919922,4.832031 -1.345531,1.900574 -4.171168,3.511238 -8.931641,3.990235 -17.889708,1.800056 -34.390625,-0.248238 -41.390625,0.300781 -14.021532,1.099727 -21.674398,9.150437 -21.019531,16.023438 0.479207,10.231808 8.812004,13.976558 18.519531,13.976558 3.78207,0 35.314105,-1.69579 38.929688,-1.89062 -4.706582,1.24608 -9.322144,2.56891 -13.777344,3.94921 -21.134989,6.54801 -38.770353,14.22874 -47.2246087,20.1211 a 1.0001,1.0001 0 0 0 -0.427735,0.82031 v 16.999998 a 1.0001,1.0001 0 0 0 0.320313,0.73438 c 3.2719347,3.02024 11.4244417,10.27626 20.3144527,17.33789 8.890011,7.06162 18.413543,13.91716 24.841796,16.18554 24.401427,8.61068 63.704724,6.43382 94.617194,0.22071 25.62984,-5.15135 45.2827,-16.14571 58.76758,-31.47461 4.2992,-4.887108 11.51401,-9.003908 21.63867,-9.003908 h 24.5 a 1.0001,1.0001 0 0 0 1,-1 v -17 a 1.0001,1.0001 0 0 0 -0.0879,-0.41016 c -2.44486,-5.43301 -9.89697,-12.2559 -18.15234,-18.3789 -8.25535,-6.123 -17.23273,-11.398617 -22.96485,-13.166014 a 1.0001,1.0001 0 0 0 -0.25389,-0.04492 c -24.13449,-1.005604 -44.63382,3.002826 -89.00391,5.095703 -9.35288,0.441163 -19.13454,1.658191 -28.906255,3.402341 -6.792982,-3.766818 -19.919703,-4.329018 -37.130861,-2.49805 -16.043396,1.70675 -27.779933,2.24582 -33.4375,-0.607416 -0.844454,-4.421181 1.6385,-8.499188 9.275391,-10.005859 16.568725,-3.268822 33.61286,0.03392 44.240234,-1.761719 7.888194,-1.332817 15.421876,-4.625 15.421876,-13.125 l -0.0606,0.01367 c 0.015,-0.178745 0.0355,-0.357086 0.0332,-0.535156 -0.0714,-5.540826 -7.985719,-11.579134 -16.585938,-10.117188 -9.878783,1.67929 -13.720797,2.488195 -17.416016,-0.78125 -3.471267,-3.071297 -5.263239,-4.2938246 -5.820312,-4.1855466 z"
         style="fill:#212121;fill-opacity:1;stroke:none;stroke-width:1px;stroke-linecap:butt;stroke-linejoin:miter;stroke-opacity:1;filter:url(#filter2665)"
         id="path2579" />
      <g
         transform="matrix(0.97514339,0,0,0.97514339,80.121795,144.58968)"
         id="g2577">
        <path
           style="opacity:1;fill:#7e7e7e;fill-opacity:1;stroke:none;stroke-width:1px;stroke-linecap:butt;stroke-linejoin:miter;stroke-opacity:1"
           d="M 19.024946,91.082807 C 19.024946,102.02825 27.567709,106 37.567709,106 c 4,0 41,-2 41,-2 l 8,-1.5 3.5,-2.5 -13.5,-2 -18,1 -24,2 z"
           id="path1160"
           sodipodi:nodetypes="csccccccc" />
        <path
           style="opacity:1;fill:#7e7e7e;fill-opacity:1;stroke:none;stroke-width:1px;stroke-linecap:butt;stroke-linejoin:miter;stroke-opacity:1"
           d="M 31.567709,97 C 29.75057,91.990158 31.85002,87.074413 40.406302,85.386356 56.975027,82.117534 74.019284,85.420764 84.646658,83.625126 92.534852,82.292309 100.06771,79 100.06771,70.5 l -6.500001,1.5 -8,5.5 -22,0.5 h -26 l -14,8 2,9 z"
           id="path1158"
           sodipodi:nodetypes="csscccccccc" />
        <path
           style="fill:url(#linearGradient1168);fill-opacity:1;stroke:none;stroke-width:2;stroke-linecap:butt;stroke-linejoin:round;stroke-miterlimit:4;stroke-dasharray:none;stroke-opacity:1"
           d="m 16.067709,129 c 16.5,-11.5 70.5,-30.825577 114.584531,-32.904984 C 175.06771,93.999999 195.56771,90 219.56771,91 c 10.93767,3.372434 36,21 40.5,31 v 17 h -24.5 c -10.39697,0 -17.90656,4.24681 -22.38958,9.34287 -13.32344,15.14539 -32.75608,26.03887 -58.21348,31.15556 C 132.56771,184 84.508437,187.65277 60.878011,179.31415 48.652341,175 22.567709,152 16.067709,146 Z"
           id="path927"
           sodipodi:nodetypes="cscccsssscc" />
        <path
           id="path1140"
           style="opacity:1;fill:url(#linearGradient1179);fill-opacity:1;stroke:none;stroke-width:1px;stroke-linecap:butt;stroke-linejoin:miter;stroke-opacity:1"
           d="m 149.5,94 -22,1.5 -23.5,2 -21,3 -11.5,2.5 -17,5 -20.5,7 -20,8 -10.5,6 c 17,15 29,31 51.5,41 21.672944,9.63242 47.42283,9.3252 62,8 33,-3 53.64024,-7.42345 76.90234,-30.68555 3.31379,-3.31379 3.33594,-11.58398 -5.16406,-4.58398 C 180.23828,149.73047 167.5,163.1 145,164 130.41462,164.58342 116.38655,150.10233 117.52148,134.2207 118.89507,114.99942 137.5,100.9282 149.5,94 Z m 94.5,30 c 0,0 -22,3 -26,4 -3.91077,0.97769 -9.11278,2.15579 -13.13281,4.11523 -5.86743,2.8599 -4.00537,8.58685 1.13281,6.38477 3.5,-1.5 7.01306,-1.7521 11.01953,-2.19727 C 221.51953,135.80273 244,136 244,136 Z"
           transform="translate(12.567709)" />
        <path
           style="opacity:1;fill:#5e5f94;fill-opacity:1;stroke:none;stroke-width:1px;stroke-linecap:butt;stroke-linejoin:miter;stroke-opacity:1"
           d="m 32.567709,131 c 5.650821,4.41446 28.442645,24.32474 35.45456,32.16234 9.598132,-3.07138 42.238301,-11.94782 74.841401,-18.34747 30.10418,-5.90913 59.90529,-10.59689 67.70404,-11.81487 -1,-8 -22.31632,-25.85762 -29,-31 -6.97734,-0.68659 -35.85415,1.31606 -68.03423,5.44119 C 72.412774,112.7124 37.567709,125 32.567709,131 Z"
           id="path1154"
           sodipodi:nodetypes="ccsccsc" />
        <path
           style="opacity:1;mix-blend-mode:normal;fill:#5e5f94;fill-opacity:1;stroke:none;stroke-width:1px;stroke-linecap:butt;stroke-linejoin:miter;stroke-opacity:1"
           d="m 191.06771,101.5 c 5.67513,4.41263 21.72533,16.99088 29,26 4.35351,-1.76711 23.07405,-5.19064 26.5,-5.5 -4.41053,-7.14384 -23.07746,-19.57842 -27,-21 -5.32702,-1.119086 -20.79569,-0.65834 -28.5,0.5 z"
           id="path1144"
           sodipodi:nodetypes="ccccc" />
        <path
           id="path1000"
           style="opacity:1;fill:url(#linearGradient1209);fill-opacity:1;stroke:url(#linearGradient1228);stroke-width:2.5;stroke-linecap:round;stroke-linejoin:miter;stroke-miterlimit:4;stroke-dasharray:none;stroke-opacity:1"
           d="m 217.69078,105.12617 c 0.82382,-0.0723 1.64739,-0.1446 2.47263,-0.19844 -0.91285,-0.50756 -1.78509,-1.20164 -2.79529,-1.46795 -0.64666,-0.0501 -1.29512,-0.0655 -1.94299,-0.0926 0.74305,0.61674 1.56948,1.24284 2.26565,1.75899 z m -17.29885,-1.15547 c 1.12284,0.95718 2.23687,1.92429 3.33984,2.9043 1.48192,-0.25738 2.97026,-0.47739 4.46094,-0.67773 -0.98003,-0.85395 -1.96941,-1.69716 -2.95312,-2.54688 -1.65093,0.10299 -3.31696,0.21101 -4.84766,0.32031 z m -49.0226,4.33887 c 1.32855,1.2259 2.74118,2.51239 4.05776,3.75098 2.0996,-0.28014 4.1983,-0.56709 6.29882,-0.83985 -1.35064,-1.21193 -2.68935,-2.43805 -4.03515,-3.65625 -1.95165,0.22719 -5.54766,0.61218 -6.32143,0.74512 z m -17.8083,1.82187 c 1.4786,1.40221 3.02623,2.93203 4.48129,4.35879 2.15161,-0.30685 4.30224,-0.62025 6.45508,-0.91796 -1.5523,-1.4105 -3.0884,-2.8387 -4.63281,-4.25782 -1.91223,0.0914 -5.87697,0.74317 -6.30356,0.81699 z m -16.35833,1.88945 c 1.44492,1.37245 3.70991,3.44122 5.13257,4.83653 1.63468,-0.25422 3.26829,-0.51497 4.9043,-0.75976 -1.64228,-1.57995 -3.29455,-3.14946 -4.94141,-4.72461 -1.70178,0.18826 -3.39751,0.4277 -5.09546,0.64784 z m 107.71638,-0.57112 c 0.45162,0.3257 1.00801,0.85543 1.46131,1.11952 1.38821,-0.10752 2.78609,-0.20983 4.17951,-0.29586 -0.57709,-0.39217 -0.97342,-0.65088 -1.79346,-1.01241 -1.28618,0.0132 -2.58595,0.08 -3.84736,0.18875 z m -14.57793,1.40375 c 0.57467,0.46 1.08135,1.1469 1.69825,1.46598 1.52561,-0.25886 3.05685,-0.48489 4.59081,-0.68864 -0.54414,-0.41568 -1.01706,-1.05189 -1.60335,-1.33709 -1.57992,0.16311 -3.2382,0.36063 -4.68571,0.55975 z m -111.671879,2.0371 c 1.908839,1.74299 3.792219,3.51324 5.679689,5.2793 2.43214,-0.51631 4.86858,-1.01146 7.31055,-1.47851 -1.7793,-1.70313 -3.5586,-3.40625 -5.33789,-5.10938 -2.58973,0.41182 -5.38944,0.89471 -7.652349,1.30859 z m 80.882819,1.15626 c 4.88352,5.02837 9.68966,10.13337 14.32421,15.39257 3.05444,-0.48757 6.10817,-0.97808 9.16993,-1.41797 -4.61972,-5.05594 -9.35973,-10.00178 -14.19336,-14.85351 -3.18077,0.23434 -6.54948,0.57955 -9.30078,0.87891 z m -17.64258,2.23046 c 1.37315,1.32872 2.73261,2.67099 4.08398,4.02149 2.28852,-0.31242 4.57494,-0.63966 6.86524,-0.9375 -1.42488,-1.33381 -2.86189,-2.65458 -4.30664,-3.9668 -2.38438,0.31084 -4.46813,0.58634 -6.64258,0.88281 z m 70.86914,5e-5 c 0.78788,0.73905 1.58182,1.4724 2.34765,2.23438 1.50335,-0.29466 3.01038,-0.56748 4.51758,-0.8418 -0.69999,-0.55419 -1.34423,-1.28224 -2.09803,-1.70928 -1.64456,0.0699 -3.3551,0.18032 -4.7672,0.3167 z m -14.53516,2.02339 c 1.01745,0.98885 2.02623,1.98722 3.00781,3.01172 1.54747,-0.32585 3.09448,-0.64998 4.64453,-0.96289 -0.95567,-0.97143 -1.92758,-1.92706 -2.91601,-2.86523 -1.59719,0.24911 -3.27874,0.52924 -4.73633,0.8164 z m -73.79101,0.48438 c 1.3997,1.37399 2.81824,2.72861 4.22656,4.09375 2.33904,-0.36219 4.67569,-0.73924 7.01758,-1.08203 -1.45757,-1.35108 -2.93084,-2.68506 -4.39649,-4.02735 -2.4608,0.35967 -4.60628,0.67714 -6.84765,1.01563 z m -15.77843,2.48392 c 1.2218,1.19945 3.30119,3.07797 4.52646,4.27389 1.5417,-0.28043 3.08049,-0.57707 4.625,-0.8418 -1.33723,-1.43518 -2.69138,-2.85475 -4.07226,-4.24805 -1.69796,0.23955 -3.38529,0.54927 -5.0792,0.81596 z m -12.51259,2.22897 c -1.70276,0.34032 -3.40607,0.67819 -5.10547,1.03515 1.64193,1.56771 3.28386,3.13542 4.92578,4.70313 2.24545,-0.51888 4.49089,-1.03776 6.73633,-1.55664 -1.45874,-1.55077 -2.93615,-3.08409 -4.44531,-4.58594 -0.70378,0.13477 -1.40755,0.26953 -2.11133,0.4043 z m 56,3.10351 c 1.75296,1.83612 3.48928,3.68819 5.19922,5.56446 2.35333,-0.392 4.70598,-0.78764 7.06055,-1.17188 -1.63309,-1.81299 -3.32163,-3.57553 -5.03907,-5.30859 -2.41981,0.27564 -5.0368,0.61116 -7.2207,0.91601 z M 92.723959,130.625 c 1.66306,1.66845 3.3168,3.34621 4.957031,5.03711 2.69814,-0.68717 5.40011,-1.35768 8.10742,-2.00781 -1.56971,-1.6702 -3.15127,-3.32969 -4.77734,-4.94532 -2.776711,0.62359 -5.782404,1.31944 -8.287111,1.91602 z m 10.939201,11.37406 c 1.7503,1.68926 3.46628,3.69623 4.90846,5.29586 20.74454,-5.08645 39.98254,-8.2017 59.4375,-11.53125 -1.86302,-1.93156 -3.76481,-3.82535 -5.69336,-5.6914 -20.4651,3.52592 -39.86484,7.32256 -58.6526,11.92679 z m -30.988029,-6.24711 c 1.713153,1.77329 3.413969,3.55859 5.089844,5.36719 3.298189,-0.98394 6.611849,-1.91548 9.93164,-2.82422 -1.67445,-1.73732 -3.359242,-3.46472 -5.060547,-5.17578 -3.339952,0.85381 -6.951179,1.80814 -9.960937,2.63281 z m -19.898438,6.03907 c 1.909265,1.90132 3.826407,3.7947 5.742188,5.68945 3.319939,-1.25463 6.680841,-2.39818 10.052734,-3.50586 -1.725877,-1.87545 -3.470883,-3.73342 -5.251953,-5.55664 -3.550399,1.06336 -7.360818,2.26582 -10.542969,3.37305 z m 30.560547,5.49218 c 1.540699,1.74777 3.070411,3.5054 4.5625,5.29492 3.46209,-0.95517 6.936594,-1.8627 10.416016,-2.75195 -1.553193,-1.76637 -3.121051,-3.51996 -4.716797,-5.24805 -3.43703,0.88445 -7.155681,1.86086 -10.261719,2.70508 z m -19.216797,5.71289 c 1.798425,1.74089 3.589869,3.48929 5.416016,5.20118 2.910314,-1.0445 5.860228,-1.97539 8.818359,-2.875 -1.477224,-1.80455 -2.968931,-3.59734 -4.492187,-5.36329 -3.27642,0.96488 -6.799734,2.06361 -9.742188,3.03711 z"
           sodipodi:nodetypes="ccccccccccccccccccccccccccccccccccccccccccccccccccccccccccccccccccccccccccccccccccccccccccccccccccccccccccccccc" />
        <path
           style="fill:#7e7e7e;fill-opacity:1;stroke:none;stroke-width:1px;stroke-linecap:butt;stroke-linejoin:miter;stroke-opacity:1"
           d="m 60.084356,55.092549 c 0,3.302441 3.675839,10.248105 7.897798,12.338844 5.077478,2.514397 8.566819,0.6502 15.488723,-0.553853 2.701677,-0.469953 7.976807,2.065456 6.761948,5.641542 l 5.208313,-0.08363 -3.402603,-9.983749 -13.2733,-0.784729 -8.563599,1.729574 z"
           id="path1219"
           sodipodi:nodetypes="csscccccc" />
        <path
           style="opacity:1;fill:#b8b8b8;fill-opacity:1;stroke:none;stroke-width:1px;stroke-linecap:butt;stroke-linejoin:miter;stroke-opacity:1"
           d="m 86.567709,103.5 c -1.5,-7 -30.999726,-1.99169 -48.104289,-1.43093 C 10.067709,103 14.567709,77.999999 40.067709,76 c 7,-0.549019 23.5,1.5 41.389708,-0.300056 15.110292,-1.520392 10.763639,-14.446853 1.269952,-11.831974 -13.583165,3.741259 -17.499141,0.112407 -20.925956,-5.170156 -2.926479,-4.511275 -2.706213,-5.76005 4.236321,0.382545 3.695219,3.269445 7.538244,2.459804 17.417027,0.780514 8.600219,-1.461946 16.513492,4.577234 16.584919,10.11806 0.0547,4.242289 -4.686755,8.756771 -19.657186,9.698165 C 63.928976,80.711754 28.03377,77.512526 27.358457,88.992841 26.799212,98.5 41.067709,98.5 64.567709,96 82.528751,94.089251 96.060852,94.775205 102.56771,99"
           id="path1156"
           sodipodi:nodetypes="csssssssssssc" />
        <path
           sodipodi:nodetypes="cscccsssscc"
           id="path1181"
           d="m 16.067709,129 c 16.5,-11.5 70.5,-30.825577 114.584531,-32.904984 C 175.06771,93.999999 195.56771,90 219.56771,91 c 10.93767,3.372434 36,21 40.5,31 v 17 h -24.5 c -10.39697,0 -17.90656,4.24681 -22.38958,9.34287 -13.32344,15.14539 -32.75608,26.03887 -58.21348,31.15556 -30.79445,6.18939 -70.056536,8.29537 -94.086639,-0.18428 C 48.652341,175 22.567709,152 16.067709,146 Z"
           style="fill:none;fill-opacity:1;stroke:#212121;stroke-width:2;stroke-linecap:butt;stroke-linejoin:round;stroke-miterlimit:4;stroke-dasharray:none;stroke-opacity:1" />
        <path
           id="path1211"
           style="opacity:1;fill:#ff794b;fill-opacity:1;stroke:#ff794b;stroke-width:2.5;stroke-linecap:butt;stroke-linejoin:miter;stroke-miterlimit:4;stroke-dasharray:none;stroke-opacity:1"
           d="m 60.581381,123.79883 c 1.990053,1.97528 4.205113,4.04045 5.960937,5.77148 3.244647,-0.94766 6.505429,-1.83887 9.769532,-2.71679 -1.957101,-1.9313 -3.939057,-3.83708 -5.914063,-5.75 -3.29889,0.85081 -6.849694,1.83499 -9.816406,2.69531 z m -19.558594,7.18555 c 1.993933,1.61028 3.93794,3.28223 5.839844,5 3.42896,-1.29088 6.902305,-2.46035 10.390625,-3.58008 -1.984779,-1.90313 -3.992645,-3.78234 -6.039063,-5.61914 -3.568859,1.29195 -7.23191,2.81565 -10.191406,4.19922 z"
           sodipodi:nodetypes="cccccccccc" />
        <path
           id="path1213"
           style="opacity:1;fill:#2089df;fill-opacity:1;stroke:#2089df;stroke-width:2.5;stroke-linecap:butt;stroke-linejoin:miter;stroke-miterlimit:4;stroke-dasharray:none;stroke-opacity:1"
           d="m 80.384115,118.66406 c 1.988973,1.85836 3.96154,3.73411 5.914063,5.63086 2.714904,-0.67043 5.436902,-1.31138 8.162109,-1.93945 -1.919237,-1.83743 -3.842847,-3.67246 -5.765625,-5.51172 -2.81503,0.58481 -5.853995,1.25525 -8.310547,1.82031 z"
           sodipodi:nodetypes="ccccc" />
        <path
           id="path1215"
           style="opacity:1;fill:#66cc33;fill-opacity:1;stroke:#66cc33;stroke-width:2.5;stroke-linecap:butt;stroke-linejoin:miter;stroke-miterlimit:4;stroke-dasharray:none;stroke-opacity:1"
           d="m 169.88802,106.58008 c 1.11874,1.04829 2.23287,2.1013 3.33594,3.16601 2.97952,-0.36424 5.95871,-0.72839 8.94336,-1.04882 -1.01411,-0.92321 -2.0293,-1.85194 -3.13477,-2.66602 -3.06735,0.14768 -6.34807,0.34749 -9.14453,0.54883 z"
           sodipodi:nodetypes="ccccc" />
      </g>
      <g
         transform="matrix(0.5261254,0,0,0.5261254,195.71274,92.004617)"
         id="layer1-1"
         inkscape:label="Layer 1">
        <path
           d="m 123.03035,4.26 -2.62109,7.574219 -6.40821,-4.6601565 2.33008,7.5722655 -7.86523,0.291015 6.4082,4.660157 -6.4082,4.660156 7.86523,0.291016 -2.33008,7.574218 6.40821,-4.660156 2.62109,7.572266 2.62109,-7.572266 6.40821,4.660156 -2.33008,-7.574218 7.86328,-0.291016 -6.4082,-4.660156 6.4082,-4.660157 -7.86328,-0.291015 2.33008,-7.5722655 -6.40821,4.6601565 z m -57.378905,14.564453 -2.621093,7.572265 -6.699219,-4.660156 2.621094,7.572266 h -8.15625 L 57.20418,34.26 50.795977,38.920156 h 8.15625 l -2.621094,7.865234 6.699219,-4.660156 2.621093,7.572266 2.330078,-7.572266 6.699219,4.660156 -2.621093,-7.865234 h 8.154296 L 73.805742,34.26 80.213945,29.308828 h -8.154296 l 2.621093,-7.572266 -6.699219,4.660156 z m 99.902345,11.359375 -4.95117,15.435547 -13.10743,-9.320313 4.66016,15.146484 -16.01953,0.291016 13.10742,9.320313 -13.10742,9.611328 h 16.01953 l -4.66016,15.4375 13.10743,-9.320313 4.95117,15.144532 4.95117,-15.144532 13.10742,9.320313 -4.66015,-15.4375 h 16.01953 l -12.81641,-9.611328 12.81641,-9.320313 -16.01953,-0.291016 4.66015,-15.146484 -13.10742,9.320313 z m 75.4375,43.980468 -2.6211,7.572266 -6.4082,-4.660156 2.33008,7.863281 h -7.86523 l 6.4082,4.660156 -6.4082,4.953125 h 7.86523 l -2.33008,7.572262 6.4082,-4.660152 2.6211,7.572262 2.62109,-7.572262 6.4082,4.660152 -2.33007,-7.572262 h 8.15429 l -6.69922,-4.953125 6.69922,-4.660156 h -8.15429 l 2.33007,-7.863281 -6.4082,4.660156 z m -99.22852,30.578124 c -0.80539,-0.0113 -1.62025,-0.008 -2.4414,0.01 a 7.552555,7.552555 0 0 0 -3.30664,0.8418 l -88.357425,45.68921 a 7.552555,7.552555 0 0 0 -2.382813,1.9336 c -4.483666,5.49611 -7.527355,11.23366 -8.417969,17.3789 -0.890612,6.14524 0.713407,12.47445 4.242188,17.6836 a 7.552555,7.552555 0 0 0 0.03516,0.0527 c 3.695926,5.3591 9.606926,8.83199 16.226563,10.26758 6.619637,1.43559 14.078971,1.17253 22.628906,-0.32031 a 7.552555,7.552555 0 0 0 2.234375,-0.76368 l 84.201165,-44.55468 a 7.552555,7.552555 0 0 0 3.12696,-3.11328 c 3.22587,-6.03099 5.26278,-11.75213 5.6875,-17.44336 0.42472,-5.69123 -1.03785,-11.44499 -4.41602,-15.94922 a 7.552555,7.552555 0 0 0 -0.24024,-0.30274 c -6.49691,-7.7963 -16.73944,-11.24047 -28.82031,-11.41015 z m 68.64649,38.45117 -4.07813,12.23242 -10.19531,-7.28125 3.78711,11.94141 -12.81641,0.29101 10.19532,7.57227 -10.19532,7.57422 h 12.81641 l -3.78711,12.23242 10.19531,-7.28125 4.07813,11.94141 4.07617,-11.94141 10.48633,7.28125 -3.78711,-12.23242 h 12.8164 l -10.48632,-7.57422 10.48632,-7.57227 -12.8164,-0.29101 3.78711,-11.94141 -10.48633,7.28125 z m -41.94336,67.86328 -2.33008,7.86328 -6.69922,-4.66015 2.62305,7.57421 h -8.15625 l 6.4082,4.95118 -6.4082,4.66015 h 8.15625 l -2.62305,7.57227 6.69922,-4.66016 2.33008,7.86524 2.62109,-7.86524 6.69922,4.66016 -2.62109,-7.57227 h 8.15625 l -6.40821,-4.66015 6.40821,-4.95118 h -8.15625 l 2.62109,-7.57421 -6.69922,4.66015 z m 56.21484,2.33008 -2.62109,7.57226 -6.40821,-4.66015 2.33008,7.57422 h -8.15625 l 6.69922,4.95117 -6.69922,4.66016 h 8.15625 l -2.33008,7.86328 6.40821,-4.66016 2.62109,7.57227 2.6211,-7.57227 6.4082,4.66016 -2.33008,-7.86328 h 7.86328 l -6.4082,-4.66016 6.4082,-4.95117 h -7.86328 l 2.33008,-7.57422 -6.4082,4.66015 z"
           style="fill:#212121;fill-opacity:1;stroke-width:7.5518;filter:url(#filter1288)"
           id="path1211-5" />
        <g
           transform="matrix(0.94652426,0,0,0.94652426,-1.7182172,-1.0269555)"
           id="g1138">
          <g
             transform="matrix(1.314849,0,0,1.314849,-3.5660828,-68.327336)"
             id="g1122">
            <path
               d="m 63.305047,202.92 q -19.114081,3.33738 -25.18204,-5.46117 -6.371358,-9.40533 3.033974,-20.93446 l 70.995149,-36.71116 q 14.25972,-0.3034 20.32767,6.97815 5.46117,7.28155 -1.51699,20.32767 L 63.305047,202.92"
               fill="url(#gradient5)"
               fill-rule="evenodd"
               stroke="none"
               id="path1114"
               style="fill:url(#linearGradient1193);stroke-width:6.06796" />
            <path
               d="m 63.305047,202.92 67.657763,-35.80097 q 6.97816,-13.04612 1.51699,-20.32767 -6.06795,-7.28155 -20.32767,-6.97815 l -70.995149,36.71116 q -9.405332,11.52913 -3.033974,20.93446 6.067959,8.79855 25.18204,5.46117 z"
               fill="none"
               stroke="#333333"
               stroke-linecap="round"
               stroke-linejoin="round"
               stroke-width="12.1359"
               id="path1116" />
            <path
               d="m 112.15213,139.81321 q 14.25972,-0.3034 20.32767,6.97815 5.46117,7.28155 -1.51699,20.32767 L 63.305047,202.92 q -19.114081,3.33738 -25.18204,-5.46117 -6.371358,-9.40533 3.033974,-20.93446 l 70.995149,-36.71116"
               fill="url(#gradient6)"
               fill-rule="evenodd"
               stroke="none"
               id="path1118"
               style="fill:url(#linearGradient1195);stroke-width:6.06796" />
            <path
               d="m 112.15213,139.81321 -70.995149,36.71116 q -9.405332,11.52913 -3.033974,20.93446 6.067959,8.79855 25.18204,5.46117 l 67.657763,-35.80097 q 6.97816,-13.04612 1.51699,-20.32767 -6.06795,-7.28155 -20.32767,-6.97815 z"
               fill="none"
               stroke="#333333"
               stroke-linecap="round"
               stroke-linejoin="round"
               stroke-width="3.03398"
               id="path1120" />
          </g>
          <path
             style="fill:url(#radialGradient1197);stroke-width:6.15435"
             id="path1124"
             stroke="none"
             fill-rule="evenodd"
             fill="url(#gradient7)"
             d="m 202.51981,71.519873 -13.53958,-10.154683 13.53958,-9.846954 -16.92447,-0.307718 4.92349,-16.001313 -13.8473,9.846954 -5.2312,-16.309022 -5.23119,16.309022 -13.8473,-9.846954 4.92349,16.001313 -16.92447,0.307718 13.84729,9.846954 -13.84729,10.154683 h 16.92447 l -4.92349,16.309032 13.8473,-9.846966 5.23119,16.001314 5.2312,-16.001314 13.8473,9.846966 -4.92349,-16.309032 h 16.92447" />
          <path
             style="fill:url(#radialGradient1199);stroke-width:6.15435"
             id="path1126"
             stroke="none"
             fill-rule="evenodd"
             fill="url(#gradient8)"
             d="m 218.82883,200.14581 4.30805,-12.61641 11.07784,7.69294 -4.00033,-12.92415 h 13.53957 l -11.07784,-8.00066 11.07784,-8.00064 -13.53957,-0.30772 4.00033,-12.61642 -11.07784,7.69293 -4.30805,-12.92413 -4.30803,12.92413 -10.77012,-7.69293 4.00032,12.61642 -13.53957,0.30772 10.77011,8.00064 -10.77011,8.00066 H 207.751 l -4.00032,12.92415 10.77012,-7.69294 4.30803,12.61641" />
          <path
             style="fill:url(#radialGradient1201);stroke-width:6.15435"
             id="path1128"
             stroke="none"
             fill-rule="evenodd"
             fill="url(#gradient9)"
             d="m 251.13918,107.83055 2.76947,-8.000655 6.76978,4.923475 -2.46175,-8.000655 h 8.6161 l -7.0775,-5.231195 7.0775,-4.923487 h -8.6161 l 2.46175,-8.308375 -6.76978,4.923487 -2.76947,-8.000657 -2.76946,8.000657 -6.76978,-4.923487 2.46174,8.308375 h -8.30837 l 6.76977,4.923487 -6.76977,5.231195 h 8.30837 l -2.46174,8.000655 6.76978,-4.923475 2.76946,8.000655" />
          <path
             style="fill:url(#radialGradient1203);stroke-width:6.15435"
             id="path1130"
             stroke="none"
             fill-rule="evenodd"
             fill="url(#gradient10)"
             d="m 126.51357,33.978333 2.76946,-8.000657 6.76977,4.923478 -2.46173,-8.000658 8.30838,-0.307717 -6.76978,-4.923478 6.76978,-4.923477 -8.30838,-0.307718 2.46173,-8.0006564 -6.76977,4.9234772 -2.76946,-8.0006567 -2.76947,8.0006567 -6.76977,-4.9234772 2.46174,8.0006564 -8.30837,0.307718 6.76978,4.923477 -6.76978,4.923478 8.30837,0.307717 -2.46174,8.000658 6.76977,-4.923478 2.76947,8.000657" />
          <path
             style="fill:url(#radialGradient1205);stroke-width:6.15435"
             id="path1132"
             stroke="none"
             fill-rule="evenodd"
             fill="url(#gradient11)"
             d="m 190.21111,241.37998 -6.7698,-4.9235 6.7698,-5.23119 h -8.6161 l 2.76946,-8.00065 -7.07751,4.92347 -2.76945,-8.30838 -2.46174,8.30838 -7.0775,-4.92347 2.76944,8.00065 h -8.61607 l 6.76978,5.23119 -6.76978,4.9235 h 8.61607 l -2.76944,8.00064 7.0775,-4.92348 2.46174,8.30838 2.76945,-8.30838 7.07751,4.92348 -2.76946,-8.00064 h 8.6161" />
          <path
             style="fill:url(#radialGradient1207);stroke-width:6.15435"
             id="path1134"
             stroke="none"
             fill-rule="evenodd"
             fill="url(#gradient12)"
             d="m 224.36775,251.84236 6.76978,-4.92347 2.76947,8.00065 2.76945,-8.00065 6.76979,4.92347 -2.46174,-8.30838 h 8.30837 l -6.76979,-4.92347 6.76979,-5.23119 h -8.30837 l 2.46174,-8.00066 -6.76979,4.92347 -2.76945,-8.00065 -2.76947,8.00065 -6.76978,-4.92347 2.46174,8.00066 h -8.61609 l 7.0775,5.23119 -7.0775,4.92347 h 8.61609 l -2.46174,8.30838" />
          <path
             style="fill:url(#radialGradient1209);stroke-width:6.15435"
             id="path1136"
             stroke="none"
             fill-rule="evenodd"
             fill="url(#gradient13)"
             d="m 50.19961,37.978656 h 8.616092 l -2.769451,8.308375 7.077503,-4.923477 2.769452,8.000656 2.461743,-8.000656 7.077503,4.923477 -2.769462,-8.308375 h 8.616093 l -6.769785,-4.923477 6.769785,-5.231195 H 72.66299 l 2.769462,-8.000657 -7.077503,4.923478 -2.461743,-8.000658 -2.769452,8.000658 -7.077503,-4.923478 2.769451,8.000657 H 50.19961 l 6.769785,5.231195 -6.769785,4.923477" />
        </g>
      </g>
    </g>
  </g>
</svg>
