<?xml version="1.0" encoding="UTF-8" standalone="no"?>
<svg
   viewBox="0 0 256 256"
   id="svg2"
   version="1.1"
   inkscape:version="1.1.2 (0a00cf5339, 2022-02-04)"
   sodipodi:docname="abstract.svg"
   width="256"
   height="256"
   inkscape:export-filename="/media/klapeto/Αρχεία/WindowsXP Theme/Vectors/RASTER/check_constraint.png"
   inkscape:export-xdpi="96"
   inkscape:export-ydpi="96"
   xmlns:inkscape="http://www.inkscape.org/namespaces/inkscape"
   xmlns:sodipodi="http://sodipodi.sourceforge.net/DTD/sodipodi-0.dtd"
   xmlns="http://www.w3.org/2000/svg"
   xmlns:svg="http://www.w3.org/2000/svg"
   xmlns:rdf="http://www.w3.org/1999/02/22-rdf-syntax-ns#"
   xmlns:cc="http://creativecommons.org/ns#"
   xmlns:dc="http://purl.org/dc/elements/1.1/">
  <metadata
     id="metadata10">
    <rdf:RDF>
      <cc:Work
         rdf:about="">
        <dc:format>image/svg+xml</dc:format>
        <dc:type
           rdf:resource="http://purl.org/dc/dcmitype/StillImage" />
      </cc:Work>
    </rdf:RDF>
  </metadata>
  <sodipodi:namedview
     pagecolor="#ffffff"
     bordercolor="#666666"
     borderopacity="1"
     objecttolerance="10"
     gridtolerance="10"
     guidetolerance="10"
     inkscape:pageopacity="0"
     inkscape:pageshadow="2"
     inkscape:window-width="3840"
     inkscape:window-height="2043"
     id="namedview8"
     showgrid="false"
     inkscape:zoom="2.6818182"
     inkscape:cx="103.10169"
     inkscape:cy="199.49152"
     inkscape:window-x="3840"
     inkscape:window-y="0"
     inkscape:window-maximized="1"
     inkscape:current-layer="svg2"
     inkscape:pagecheckerboard="0" />
  <defs
     id="defs3051">
    <style
       type="text/css"
       id="current-color-scheme">
      .ColorScheme-Text {
        color:#232629;
      }
      </style>
    <filter
       inkscape:collect="always"
       style="color-interpolation-filters:sRGB"
       id="filter1174"
       x="-0.047102239"
       y="-0.048932649"
       width="1.0942045"
       height="1.0978653">
      <feGaussianBlur
         inkscape:collect="always"
         stdDeviation="2.5269923"
         id="feGaussianBlur1176" />
    </filter>
  </defs>
  <path
     id="path1095"
     style="color:#000000;-inkscape-font-specification:'Times New Roman,  Bold';fill:#212121;fill-opacity:1;stroke-width:4.939;stroke-linecap:round;stroke-linejoin:round;-inkscape-stroke:none;filter:url(#filter1174)"
     d="M 69.464844,4 A 2.469747,2.469747 0 0 0 67.210938,5.4589844 L 25.507812,98.494141 a 2.469747,2.469747 0 0 0 -0.002,0.0059 c -3.907755,8.778279 -7.276993,14.550879 -9.511718,16.931639 -2.314116,2.40817 -5.170476,3.85711 -8.8925782,4.41797 a 2.469747,2.469747 0 0 0 -2.1015155,2.44332 v 3.17969 a 2.469747,2.469747 0 0 0 2.46875,2.46875 H 46.248047 a 2.469747,2.469747 0 0 0 2.470703,-2.46875 v -3.17969 a 2.469747,2.469747 0 0 0 -2.283203,-2.46289 c -5.968512,-0.45044 -9.879007,-1.43959 -10.363281,-1.72656 a 2.469747,2.469747 0 0 0 -0.0098,-0.006 c -1.9829,-1.16389 -2.736328,-2.48877 -2.736328,-5.0918 0,-1.92545 0.68254,-4.79697 2.207031,-8.39453 l 0.002,-0.006 c 0.0016,-0.004 0.0023,-0.006 0.0039,-0.01 l 4.25,-9.843747 H 77.72071 l 5.550781,13.029297 c 0.797732,1.88042 1.409761,3.35277 1.828125,4.39844 0.418747,1.04662 0.682111,1.92692 0.613282,1.61719 a 2.469747,2.469747 0 0 0 0.05469,0.20898 c 0.276973,0.87708 0.402344,1.68203 0.402344,2.4375 0,1.09207 -0.211845,1.45675 -0.847656,1.92773 -1.064086,0.72119 -3.839124,1.45118 -8.119141,1.45118 h -2.320313 a 2.469747,2.469747 0 0 0 -2.46875,2.4707 v 3.17969 a 2.469747,2.469747 0 0 0 2.46875,2.46875 h 56.404298 a 2.469747,2.469747 0 0 0 2.4707,-2.46875 v -3.17969 a 2.469747,2.469747 0 0 0 -2.27148,-2.46289 c -3.18184,-0.2566 -5.34294,-1.14046 -6.78906,-2.45899 a 2.469747,2.469747 0 0 0 0,-0.002 c -1.883,-1.7156 -5.32719,-7.33363 -9.29102,-16.2793 l -0.004,-0.006 L 73.359375,5.4746094 A 2.469747,2.469747 0 0 0 71.099609,4 Z m -10.4375,47.90625 13.644531,31.542969 H 44.978516 Z" />
  <path
     id="path16285"
     style="font-weight:bold;font-size:174.253px;font-family:'Times New Roman';-inkscape-font-specification:'Times New Roman,  Bold';text-align:center;letter-spacing:0px;word-spacing:0px;text-anchor:middle;fill:#379dff;fill-opacity:1;stroke:#0062ff;stroke-width:4.939;stroke-linecap:round;stroke-linejoin:round;stroke-miterlimit:4;stroke-dasharray:none;stroke-opacity:1"
     d="M 64.464572,2.4695001 22.762133,95.504552 c -3.955316,8.885118 -7.279409,14.761828 -9.973609,17.627998 -2.694201,2.80884 -6.1344144,4.52895 -10.3190239,5.1595 v 3.1798 H 41.248741 v -3.1798 c -6.076282,-0.45857 -9.888463,-1.14741 -11.436196,-2.06458 -2.636877,-1.54774 -3.955494,-3.95471 -3.955494,-7.22214 0,-2.46491 0.802979,-5.59022 2.408036,-9.373567 l 4.900944,-11.349351 h 41.187277 l 6.189836,14.531108 c 1.605054,3.78334 2.465109,5.93249 2.579755,6.4484 0.343941,1.08915 0.517135,2.14995 0.517135,3.18176 0,1.71971 -0.631758,3.03833 -1.892873,3.95551 -1.834349,1.2611 -5.014772,1.89286 -9.543321,1.89286 h -2.321188 v 3.1798 h 56.405268 v -3.1798 c -3.55405,-0.28661 -6.30543,-1.31986 -8.25443,-3.09689 -2.57956,-2.35025 -5.87609,-8.05377 -9.88874,-17.110858 L 66.098878,2.4695001 Z M 54.060674,41.763902 71.43011,81.918882 H 36.176076 Z"
     sodipodi:nodetypes="ccccccccscccccscscccccccccccc" />
  <g
     transform="matrix(0.50130796,0,0,0.50130796,64.877807,55.042396)"
     id="g885"
     style="fill:none;stroke:#f7f7f7" />
</svg>
