<?xml version="1.0" encoding="UTF-8" standalone="no"?>
<svg
   version="1.1"
   viewBox="0 0 256 256"
   id="svg37"
   sodipodi:docname="Constructor.svg"
   inkscape:version="1.1.2 (0a00cf5339, 2022-02-04)"
   xmlns:inkscape="http://www.inkscape.org/namespaces/inkscape"
   xmlns:sodipodi="http://sodipodi.sourceforge.net/DTD/sodipodi-0.dtd"
   xmlns:xlink="http://www.w3.org/1999/xlink"
   xmlns="http://www.w3.org/2000/svg"
   xmlns:svg="http://www.w3.org/2000/svg">
  <sodipodi:namedview
     id="namedview39"
     pagecolor="#ffffff"
     bordercolor="#666666"
     borderopacity="1.0"
     inkscape:pageshadow="2"
     inkscape:pageopacity="0.0"
     inkscape:pagecheckerboard="0"
     showgrid="false"
     inkscape:zoom="2.9960938"
     inkscape:cx="128"
     inkscape:cy="127.83312"
     inkscape:window-width="3840"
     inkscape:window-height="2043"
     inkscape:window-x="3840"
     inkscape:window-y="0"
     inkscape:window-maximized="1"
     inkscape:current-layer="svg37" />
  <defs
     id="defs13">
    <linearGradient
       id="linearGradient1828">
      <stop
         stop-color="#f7f0ab"
         offset="0"
         id="stop2" />
      <stop
         stop-color="#8a99ae"
         offset="1"
         id="stop4" />
    </linearGradient>
    <linearGradient
       id="linearGradient1830"
       x1="68.234"
       x2="117.11"
       y1="104"
       y2="104"
       gradientUnits="userSpaceOnUse"
       xlink:href="#linearGradient1828" />
    <linearGradient
       id="linearGradient1838"
       x1="36.643"
       x2="117.28"
       y1="136"
       y2="136"
       gradientUnits="userSpaceOnUse"
       xlink:href="#linearGradient1828" />
    <linearGradient
       id="linearGradient1846"
       x1="52.042"
       x2="117.16"
       y1="168"
       y2="168"
       gradientUnits="userSpaceOnUse"
       xlink:href="#linearGradient1828" />
    <filter
       id="filter1963"
       x="-0.080690744"
       y="-0.053051402"
       width="1.1613815"
       height="1.1061028"
       color-interpolation-filters="sRGB">
      <feGaussianBlur
         stdDeviation="4.3675709"
         id="feGaussianBlur10" />
    </filter>
    <filter
       inkscape:collect="always"
       style="color-interpolation-filters:sRGB"
       id="filter1194"
       x="-0.047999999"
       y="-0.047999999"
       width="1.096"
       height="1.096">
      <feGaussianBlur
         inkscape:collect="always"
         stdDeviation="2.6258984"
         id="feGaussianBlur1196" />
    </filter>
  </defs>
  <path
     d="m 170.672,47.68335 c -0.65527,0.0053 -1.28228,0.267566 -1.7461,0.73047 l -53.924,53.926 c -0.002,0.002 -0.004,0.004 -0.006,0.006 -0.0165,0.0173 -0.0328,0.0349 -0.0488,0.0527 -0.0159,0.0167 -0.0315,0.0336 -0.0469,0.0508 l -0.002,0.002 c -0.002,0.003 -0.004,0.005 -0.006,0.008 -0.0233,0.0256 -0.0461,0.0516 -0.0684,0.0781 -0.004,0.005 -0.008,0.0104 -0.0117,0.0156 -0.0241,0.0301 -0.0476,0.0607 -0.0703,0.0918 -0.003,0.005 -0.007,0.009 -0.01,0.0137 -0.0216,0.0314 -0.0424,0.0633 -0.0625,0.0957 -0.0452,0.0695 -0.0869,0.1412 -0.125,0.21484 -0.004,0.007 -0.008,0.0143 -0.0117,0.0215 -0.009,0.0201 -0.0185,0.0403 -0.0273,0.0606 -0.01,0.02 -0.0198,0.0402 -0.0293,0.0605 -0.006,0.0149 -0.0119,0.0299 -0.0176,0.0449 -0.0101,0.0233 -0.0199,0.0467 -0.0293,0.0703 -0.002,0.006 -0.004,0.0117 -0.006,0.0176 -0.0132,0.0368 -0.0256,0.0739 -0.0371,0.11133 -0.005,0.0175 -0.0106,0.0351 -0.0156,0.0527 -0.0207,0.0702 -0.0383,0.14119 -0.0527,0.21289 -0.002,0.0117 -0.004,0.0234 -0.006,0.0352 -0.0137,0.0737 -0.0241,0.14801 -0.0312,0.22266 -6.8e-4,0.005 -0.001,0.009 -0.002,0.0137 -0.003,0.0377 -0.005,0.0755 -0.006,0.11328 -0.002,0.0338 -0.003,0.0677 -0.004,0.10156 v 70.432 c -1.3e-4,0.68322 0.27934,1.33673 0.77344,1.8086 l 71.533,68.23 c 0.0255,0.024 0.0516,0.0474 0.0781,0.0703 0.0155,0.0132 0.0311,0.0263 0.0469,0.0391 0.22727,0.19004 0.48651,0.33818 0.76562,0.4375 0.008,0.003 0.0156,0.005 0.0234,0.008 0.0795,0.0275 0.16033,0.051 0.24219,0.0703 0.0819,0.0191 0.16466,0.0341 0.24805,0.0449 0.0117,0.001 0.0235,0.003 0.0352,0.004 0.21373,0.0243 0.42971,0.021 0.64258,-0.01 0.034,-0.005 0.0678,-0.01 0.10156,-0.0156 0.01,-0.002 0.0195,-0.004 0.0293,-0.006 0.005,-0.001 0.009,-0.003 0.0137,-0.004 0.38782,-0.0791 0.75132,-0.24911 1.0606,-0.49609 0.0272,-0.0216 0.0539,-0.0437 0.0801,-0.0664 0.007,-0.006 0.0144,-0.013 0.0215,-0.0195 0.0125,-0.0109 0.0248,-0.022 0.0371,-0.0332 l 53.373,-49.521 c 0.5099,-0.47353 0.79938,-1.13814 0.79883,-1.834 v -71.455 c 0.002,-0.0697 0.002,-0.13938 -0.002,-0.20898 -6.4e-4,-0.007 -0.001,-0.013 -0.002,-0.0195 -0.002,-0.0378 -0.006,-0.0756 -0.01,-0.11328 -0.0186,-0.17664 -0.0559,-0.35081 -0.11132,-0.51954 -0.002,-0.005 -0.004,-0.0104 -0.006,-0.0156 -0.0122,-0.0368 -0.0252,-0.0732 -0.0391,-0.10938 -0.003,-0.007 -0.005,-0.013 -0.008,-0.0195 -0.0302,-0.0758 -0.0641,-0.15014 -0.10156,-0.22265 -0.009,-0.0164 -0.018,-0.0326 -0.0273,-0.0488 -0.012,-0.0223 -0.0244,-0.0445 -0.0371,-0.0664 -0.01,-0.0164 -0.0194,-0.0327 -0.0293,-0.0488 -0.0133,-0.0217 -0.027,-0.0431 -0.041,-0.0644 -0.0102,-0.0158 -0.0206,-0.0314 -0.0312,-0.0469 -0.0146,-0.0211 -0.0296,-0.0419 -0.0449,-0.0625 -0.0116,-0.0151 -0.0233,-0.0301 -0.0352,-0.0449 -0.0153,-0.0198 -0.031,-0.0393 -0.0469,-0.0586 -0.0122,-0.0145 -0.0246,-0.0288 -0.0371,-0.043 l -0.002,-0.002 c -0.0284,-0.0333 -0.0577,-0.0659 -0.0879,-0.0977 -0.008,-0.009 -0.0169,-0.017 -0.0254,-0.0254 l -70.981,-71.531 c -0.47448,-0.477745 -1.1216,-0.743918 -1.7949,-0.73828 z"
     color="#000000"
     color-rendering="auto"
     dominant-baseline="auto"
     fill="#212121"
     filter="url(#filter1963)"
     image-rendering="auto"
     shape-rendering="auto"
     solid-color="#000000"
     stop-color="#000000"
     style="font-variant-ligatures:normal;font-variant-position:normal;font-variant-caps:normal;font-variant-numeric:normal;font-variant-alternates:normal;font-variant-east-asian:normal;font-feature-settings:normal;font-variation-settings:normal;text-indent:0;text-decoration-line:none;text-decoration-style:solid;text-decoration-color:#000000;text-transform:none;text-orientation:mixed;white-space:normal;shape-padding:0;shape-margin:0;inline-size:0;isolation:auto;mix-blend-mode:normal"
     id="path15"
     sodipodi:nodetypes="ccccccccccscccccccccsccccccccccccccccccccccccccccccccccccccscccccccccccc" />
  <g
     transform="translate(-29.143,7.21465)"
     stroke-linejoin="round"
     stroke-width="10"
     id="g23">
    <path
       d="m 140.91,92.892 53.924,-53.924 70.982,71.532 -53.374,48.972 z"
       fill="#fa98fb"
       stroke="#cf88cf"
       stroke-linecap="round"
       id="path17" />
    <path
       d="M 212.44,159.47 140.908,92.89 v 70.431 l 71.532,68.23 z"
       fill="#d36ed4"
       stroke="#bc70bd"
       stroke-linecap="round"
       id="path19" />
    <path
       d="m 212.44,159.47 53.374,-48.972 v 71.532 l -53.374,49.522 z"
       fill="#9c3c9d"
       stroke="#7e2e7e"
       id="path21" />
  </g>
  <path
     id="rect1128"
     style="fill:#212121;fill-opacity:1;stroke:none;stroke-width:5.41448;stroke-linecap:round;stroke-linejoin:round;stroke-miterlimit:4;stroke-dasharray:none;stroke-opacity:1;filter:url(#filter1194)"
     d="m 70.646484,4 c -5.19549,0 -9.376953,4.1834154 -9.376953,9.378906 V 43.193359 A 28.134428,28.134428 0 0 0 58.542969,44.28125 L 39.701172,25.4375 c -3.673767,-3.673767 -9.589905,-3.673767 -13.263672,0 -3.673767,3.673767 -3.673767,9.589905 0,13.263672 l 18.84375,18.84375 a 28.134428,28.134428 0 0 0 -1.087891,2.724609 H 14.378906 C 9.1834154,60.269531 5,64.450994 5,69.646484 c 0,5.195491 4.1834154,9.378907 9.378906,9.378907 H 44.193359 A 28.134428,28.134428 0 0 0 45.28125,81.75 L 26.4375,100.59375 c -3.673767,3.67377 -3.673767,9.58795 0,13.26172 3.673767,3.67377 9.589905,3.67377 13.263672,0 l 18.84375,-18.843751 a 28.134428,28.134428 0 0 0 2.724609,1.089843 v 29.814458 c 0,5.19549 4.181463,9.3789 9.376953,9.3789 5.195491,0 9.378907,-4.18341 9.378907,-9.3789 V 96.099609 a 28.134428,28.134428 0 0 0 2.722656,-1.08789 l 18.845703,18.843751 c 3.67377,3.67377 9.58795,3.67377 13.26172,0 3.67377,-3.67377 3.67377,-9.58795 0,-13.26172 L 96.011719,81.75 a 28.134428,28.134428 0 0 0 1.08789,-2.724609 h 29.816411 c 5.19549,0 9.3789,-4.183416 9.3789,-9.378907 0,-5.19549 -4.18341,-9.376953 -9.3789,-9.376953 H 97.169922 A 28.134428,28.134428 0 0 0 96.033203,57.523438 L 114.85547,38.701172 c 3.67377,-3.673767 3.67377,-9.589905 0,-13.263672 -3.67377,-3.673767 -9.58795,-3.673767 -13.26172,0 L 82.771484,44.259766 A 28.134428,28.134428 0 0 0 80.025391,43.123047 V 13.378906 C 80.025391,8.1834154 75.841975,4 70.646484,4 Z" />
  <g
     transform="matrix(23.629966,0,0,23.629966,81.277231,-62.520955)"
     id="g4993">
    <rect
       ry="0.39687499"
       rx="0.39687499"
       y="0.26458335"
       x="2.6458335"
       height="0.79374999"
       width="5.5562501"
       id="rect4900-2"
       style="fill:#ff3300;fill-opacity:1;stroke:none;stroke-width:0.229136;stroke-linecap:round;stroke-linejoin:round;stroke-miterlimit:4;stroke-dasharray:none;stroke-opacity:1"
       transform="rotate(90)" />
    <rect
       ry="0.39687499"
       rx="0.39687499"
       y="3.9061642"
       x="0.72176301"
       height="0.79374999"
       width="5.2916665"
       id="rect4900-0"
       style="fill:#ff3300;fill-opacity:1;stroke:none;stroke-width:0.229136;stroke-linecap:round;stroke-linejoin:round;stroke-miterlimit:4;stroke-dasharray:none;stroke-opacity:1"
       transform="rotate(45)" />
    <rect
       style="fill:#ff3300;fill-opacity:1;stroke:none;stroke-width:0.229136;stroke-linecap:round;stroke-linejoin:round;stroke-miterlimit:4;stroke-dasharray:none;stroke-opacity:1"
       id="rect4900"
       width="5.5562501"
       height="0.79374999"
       x="-3.4395831"
       y="5.0270834"
       rx="0.39687499"
       ry="0.39687499" />
    <rect
       transform="matrix(-0.70710678,0.70710678,0.70710678,0.70710678,0,0)"
       style="fill:#ff3300;fill-opacity:1;stroke:none;stroke-width:0.229136;stroke-linecap:round;stroke-linejoin:round;stroke-miterlimit:4;stroke-dasharray:none;stroke-opacity:1"
       id="rect4900-0-1"
       width="5.2916665"
       height="0.79374999"
       x="1.6572058"
       y="2.9707212"
       rx="0.39687499"
       ry="0.39687499" />
    <g
       id="g4898"
       transform="translate(-1.1906254)">
      <circle
         r="1.190625"
         cy="5.4239583"
         cx="0.52916735"
         id="path4879"
         style="fill:#ffcc00;fill-opacity:1;stroke:none;stroke-width:0.264583;stroke-linecap:round;stroke-linejoin:round;stroke-miterlimit:4;stroke-dasharray:none;stroke-opacity:1" />
      <circle
         style="fill:#ffff99;fill-opacity:1;stroke:none;stroke-width:0.264583;stroke-linecap:round;stroke-linejoin:round;stroke-miterlimit:4;stroke-dasharray:none;stroke-opacity:1"
         id="path4879-9"
         cx="0.52916735"
         cy="5.4239583"
         r="0.39687493" />
    </g>
  </g>
</svg>
