<?xml version="1.0" encoding="UTF-8" standalone="no"?>
<svg
   inkscape:export-ydpi="96"
   inkscape:export-xdpi="96"
   inkscape:export-filename="/media/klapeto/Αρχεία/WindowsXP Theme/Vectors/RASTER/method.png"
   width="256"
   height="256"
   viewBox="0 0 256 256"
   version="1.1"
   id="svg8"
   inkscape:version="1.1.2 (0a00cf5339, 2022-02-04)"
   sodipodi:docname="delegate.svg"
   xmlns:inkscape="http://www.inkscape.org/namespaces/inkscape"
   xmlns:sodipodi="http://sodipodi.sourceforge.net/DTD/sodipodi-0.dtd"
   xmlns:xlink="http://www.w3.org/1999/xlink"
   xmlns="http://www.w3.org/2000/svg"
   xmlns:svg="http://www.w3.org/2000/svg"
   xmlns:rdf="http://www.w3.org/1999/02/22-rdf-syntax-ns#"
   xmlns:cc="http://creativecommons.org/ns#"
   xmlns:dc="http://purl.org/dc/elements/1.1/">
  <defs
     id="defs2">
    <linearGradient
       id="linearGradient1828"
       inkscape:collect="always">
      <stop
         id="stop1824"
         offset="0"
         style="stop-color:#f7f0ab;stop-opacity:1" />
      <stop
         id="stop1826"
         offset="1"
         style="stop-color:#8a99ae;stop-opacity:1" />
    </linearGradient>
    <linearGradient
       gradientUnits="userSpaceOnUse"
       y2="104"
       x2="117.11422"
       y1="104"
       x1="68.234367"
       id="linearGradient1830"
       xlink:href="#linearGradient1828"
       inkscape:collect="always" />
    <linearGradient
       gradientUnits="userSpaceOnUse"
       y2="136"
       x2="117.28139"
       y1="136"
       x1="36.642902"
       id="linearGradient1838"
       xlink:href="#linearGradient1828"
       inkscape:collect="always" />
    <linearGradient
       gradientUnits="userSpaceOnUse"
       y2="168"
       x2="117.16476"
       y1="168"
       x1="52.042316"
       id="linearGradient1846"
       xlink:href="#linearGradient1828"
       inkscape:collect="always" />
    <filter
       height="1.106103"
       y="-0.053051492"
       width="1.0876537"
       x="-0.043826864"
       id="filter1963"
       style="color-interpolation-filters:sRGB"
       inkscape:collect="always">
      <feGaussianBlur
         id="feGaussianBlur1965"
         stdDeviation="4.3675709"
         inkscape:collect="always" />
    </filter>
    <linearGradient
       inkscape:collect="always"
       id="linearGradient16226">
      <stop
         style="stop-color:#01429d;stop-opacity:1"
         offset="0"
         id="stop16222" />
      <stop
         style="stop-color:#75a4fd;stop-opacity:1"
         offset="1"
         id="stop16224" />
    </linearGradient>
    <linearGradient
       inkscape:collect="always"
       id="linearGradient1533">
      <stop
         style="stop-color:#6699ff;stop-opacity:1"
         offset="0"
         id="stop1529" />
      <stop
         style="stop-color:#ffffff;stop-opacity:1"
         offset="1"
         id="stop1531" />
    </linearGradient>
    <linearGradient
       inkscape:collect="always"
       xlink:href="#linearGradient1533"
       id="linearGradient1535"
       x1="75.103958"
       y1="82.078941"
       x2="69.067711"
       y2="78"
       gradientUnits="userSpaceOnUse"
       gradientTransform="matrix(1.7300822,0,0,1.7300822,-29.36831,-83.00332)" />
    <linearGradient
       inkscape:collect="always"
       xlink:href="#linearGradient16226"
       id="linearGradient16228"
       x1="75.39296"
       y1="81.500938"
       x2="68.567711"
       y2="77"
       gradientUnits="userSpaceOnUse"
       gradientTransform="matrix(1.7300822,0,0,1.7300822,-29.36831,-83.00332)" />
    <linearGradient
       inkscape:collect="always"
       xlink:href="#linearGradient1533"
       id="linearGradient2954"
       x1="102.56771"
       y1="-77"
       x2="100.06771"
       y2="-79"
       gradientUnits="userSpaceOnUse"
       gradientTransform="translate(-7.0000015,126)" />
    <linearGradient
       inkscape:collect="always"
       xlink:href="#linearGradient16226"
       id="linearGradient3236"
       x1="104.56771"
       y1="-76.5"
       x2="99.067711"
       y2="-80"
       gradientUnits="userSpaceOnUse"
       gradientTransform="translate(-7.0000015,126)" />
    <filter
       inkscape:collect="always"
       style="color-interpolation-filters:sRGB"
       id="filter5343"
       x="-0.047999998"
       y="-0.047999998"
       width="1.096"
       height="1.096">
      <feGaussianBlur
         inkscape:collect="always"
         stdDeviation="4.68"
         id="feGaussianBlur5345" />
    </filter>
  </defs>
  <sodipodi:namedview
     inkscape:snap-bbox-edge-midpoints="true"
     inkscape:snap-smooth-nodes="false"
     inkscape:snap-midpoints="false"
     inkscape:object-paths="false"
     inkscape:guide-bbox="true"
     showguides="true"
     id="base"
     pagecolor="#ffffff"
     bordercolor="#666666"
     borderopacity="1.0"
     inkscape:pageopacity="0.0"
     inkscape:pageshadow="2"
     inkscape:zoom="3.2441504"
     inkscape:cx="20.190186"
     inkscape:cy="126.68956"
     inkscape:document-units="px"
     inkscape:current-layer="layer1"
     inkscape:document-rotation="0"
     showgrid="false"
     units="px"
     inkscape:window-width="3840"
     inkscape:window-height="2043"
     inkscape:window-x="3840"
     inkscape:window-y="0"
     inkscape:window-maximized="1"
     inkscape:snap-bbox="true"
     inkscape:bbox-nodes="true"
     fit-margin-top="0"
     fit-margin-left="0"
     fit-margin-right="0"
     fit-margin-bottom="0"
     inkscape:bbox-paths="true"
     inkscape:snap-global="true"
     inkscape:pagecheckerboard="0">
    <inkscape:grid
       type="xygrid"
       id="grid1504"
       originx="0"
       originy="0" />
    <inkscape:grid
       type="xygrid"
       id="grid1765"
       spacingx="0.5"
       spacingy="0.5" />
  </sodipodi:namedview>
  <metadata
     id="metadata5">
    <rdf:RDF>
      <cc:Work
         rdf:about="">
        <dc:format>image/svg+xml</dc:format>
        <dc:type
           rdf:resource="http://purl.org/dc/dcmitype/StillImage" />
      </cc:Work>
    </rdf:RDF>
  </metadata>
  <g
     inkscape:label="Layer 1"
     inkscape:groupmode="layer"
     id="layer1"
     transform="translate(-12.567709)">
    <path
       id="path4996"
       style="color:#000000;fill:#212121;fill-opacity:1;stroke-width:10;-inkscape-stroke:none;filter:url(#filter5343)"
       d="M 126.56771,4 C 113.45661,4 100.64765,8.2709268 90.794271,14.839844 80.940896,21.40876 73.567709,30.50001 73.567709,41 v 27 h -35 c -11.547502,0 -21,9.452498 -21,21 v 128 c 0,11.5475 9.452498,21 21,21 H 230.56771 c 11.5475,0 21,-9.4525 21,-21 V 89 c 0,-11.547502 -9.4525,-21 -21,-21 h -35 V 41 c 0,-10.499989 -7.37319,-19.59124 -17.22656,-26.160156 C 168.48777,8.2709268 155.67881,4 142.56771,4 Z m 8,34 c 11.44443,0 18.60469,1.993283 22.42773,4.287109 3.82305,2.293827 4.57227,4.379558 4.57227,6.712891 v 19 h -54 V 48.919922 l -0.004,-0.08203 c -0.049,-1.514425 0.64692,-3.809977 4.55274,-6.232422 C 116.02245,40.183022 123.18925,38 134.56771,38 Z" />
    <g
       id="g4908">
      <g
         id="g4720"
         transform="matrix(16,0,0,16,-1391.5157,-731)"
         style="stroke-width:0.625;stroke-miterlimit:4;stroke-dasharray:none">
        <path
           style="fill:url(#linearGradient2954);fill-opacity:1;stroke:url(#linearGradient3236);stroke-width:0.625;stroke-linecap:butt;stroke-linejoin:miter;stroke-miterlimit:4;stroke-dasharray:none;stroke-opacity:1"
           d="m 91.567709,50 v -2 c 0,-1 1.5,-2 3,-2 h 1 c 1.5,0 3,1 3,2 v 2 h -1.500001 v -1.5 c 0,-0.5 -0.499999,-1 -1.999999,-1 -1.5,0 -2.014261,0.55938 -2.000001,1 V 50 Z"
           id="path1445"
           sodipodi:nodetypes="cccccccccccc" />
        <rect
           style="opacity:1;fill:url(#linearGradient1535);fill-opacity:1;fill-rule:evenodd;stroke:url(#linearGradient16228);stroke-width:0.625;stroke-linecap:round;stroke-linejoin:round;stroke-miterlimit:4;stroke-dasharray:none;stroke-opacity:1;stop-color:#000000"
           id="rect1447"
           width="14"
           height="10"
           x="88.067711"
           y="50"
           ry="1"
           rx="1" />
      </g>
      <g
         id="g4812"
         transform="matrix(0.71527139,0,0,0.71527139,260.53316,80.232757)">
        <path
           d="m -145.39957,1.7684226 a 2.50025,2.50025 0 0 0 -1.74609,0.730469 l -53.92383,53.9257814 a 2.50025,2.50025 0 0 0 -0.006,0.0059 2.50025,2.50025 0 0 0 -0.0488,0.05273 2.50025,2.50025 0 0 0 -0.0469,0.05078 2.50025,2.50025 0 0 0 -0.002,0.002 2.50025,2.50025 0 0 0 -0.006,0.0078 2.50025,2.50025 0 0 0 -0.0684,0.07813 2.50025,2.50025 0 0 0 -0.0117,0.01563 2.50025,2.50025 0 0 0 -0.0703,0.0918 2.50025,2.50025 0 0 0 -0.01,0.01367 2.50025,2.50025 0 0 0 -0.0625,0.0957 2.50025,2.50025 0 0 0 -0.125,0.214844 2.50025,2.50025 0 0 0 -0.0117,0.02148 2.50025,2.50025 0 0 0 -0.0273,0.06055 2.50025,2.50025 0 0 0 -0.0293,0.06055 2.50025,2.50025 0 0 0 -0.0176,0.04492 2.50025,2.50025 0 0 0 -0.0293,0.07031 2.50025,2.50025 0 0 0 -0.006,0.01758 2.50025,2.50025 0 0 0 -0.0371,0.111328 2.50025,2.50025 0 0 0 -0.0156,0.05273 2.50025,2.50025 0 0 0 -0.0527,0.212891 2.50025,2.50025 0 0 0 -0.006,0.03516 2.50025,2.50025 0 0 0 -0.0312,0.222656 2.50025,2.50025 0 0 0 -0.002,0.01367 2.50025,2.50025 0 0 0 -0.006,0.113282 2.50025,2.50025 0 0 0 -0.004,0.101562 v 70.431634 a 2.50025,2.50025 0 0 0 0.77344,1.8086 l 71.5332,68.23047 a 2.50025,2.50025 0 0 0 0.0781,0.0703 2.50025,2.50025 0 0 0 0.0469,0.0391 2.50025,2.50025 0 0 0 0.76562,0.4375 2.50025,2.50025 0 0 0 0.0234,0.008 2.50025,2.50025 0 0 0 0.24219,0.0703 2.50025,2.50025 0 0 0 0.24805,0.0449 2.50025,2.50025 0 0 0 0.0352,0.004 2.50025,2.50025 0 0 0 0.64258,-0.01 2.50025,2.50025 0 0 0 0.10156,-0.0156 2.50025,2.50025 0 0 0 0.0293,-0.006 2.50025,2.50025 0 0 0 0.0137,-0.004 2.50025,2.50025 0 0 0 1.06055,-0.49609 2.50025,2.50025 0 0 0 0.0801,-0.0664 2.50025,2.50025 0 0 0 0.0215,-0.0195 2.50025,2.50025 0 0 0 0.0371,-0.0332 l 53.37305,-49.52149 a 2.50025,2.50025 0 0 0 0.79883,-1.83398 V 75.875795 a 2.50025,2.50025 0 0 0 -0.002,-0.20898 2.50025,2.50025 0 0 0 -0.002,-0.0195 2.50025,2.50025 0 0 0 -0.01,-0.11328 2.50025,2.50025 0 0 0 -0.11132,-0.51954 2.50025,2.50025 0 0 0 -0.006,-0.0156 2.50025,2.50025 0 0 0 -0.0391,-0.10938 2.50025,2.50025 0 0 0 -0.008,-0.0195 2.50025,2.50025 0 0 0 -0.10156,-0.22265 2.50025,2.50025 0 0 0 -0.0273,-0.0488 2.50025,2.50025 0 0 0 -0.0371,-0.0664 2.50025,2.50025 0 0 0 -0.0293,-0.0488 2.50025,2.50025 0 0 0 -0.041,-0.0644 2.50025,2.50025 0 0 0 -0.0312,-0.0469 2.50025,2.50025 0 0 0 -0.0449,-0.0625 2.50025,2.50025 0 0 0 -0.0352,-0.0449 2.50025,2.50025 0 0 0 -0.0469,-0.0586 2.50025,2.50025 0 0 0 -0.0371,-0.043 2.50025,2.50025 0 0 0 -0.002,-0.002 2.50025,2.50025 0 0 0 -0.0879,-0.0977 2.50025,2.50025 0 0 0 -0.0254,-0.0254 L -143.60465,2.5067036 a 2.50025,2.50025 0 0 0 -1.79492,-0.738281 z M -271.97964,61.799673 a 7.5,7.5 0 0 0 -7.5,7.500002 7.5,7.5 0 0 0 7.5,7.5 h 48.88086 a 7.5,7.5 0 0 0 7.5,-7.5 7.5,7.5 0 0 0 -7.5,-7.500002 z m -31.58984,32.000002 a 7.5,7.5 0 0 0 -7.5,7.499995 7.5,7.5 0 0 0 7.5,7.5 h 80.63671 a 7.5,7.5 0 0 0 7.5,-7.5 7.5,7.5 0 0 0 -7.5,-7.499995 z m 15.39844,31.999995 a 7.5,7.5 0 0 0 -7.5,7.5 7.5,7.5 0 0 0 7.5,7.5 h 65.12304 a 7.5,7.5 0 0 0 7.5,-7.5 7.5,7.5 0 0 0 -7.5,-7.5 z"
           style="color:#000000;font-style:normal;font-variant:normal;font-weight:normal;font-stretch:normal;font-size:medium;line-height:normal;font-family:sans-serif;font-variant-ligatures:normal;font-variant-position:normal;font-variant-caps:normal;font-variant-numeric:normal;font-variant-alternates:normal;font-variant-east-asian:normal;font-feature-settings:normal;font-variation-settings:normal;text-indent:0;text-align:start;text-decoration:none;text-decoration-line:none;text-decoration-style:solid;text-decoration-color:#000000;letter-spacing:normal;word-spacing:normal;text-transform:none;writing-mode:lr-tb;direction:ltr;text-orientation:mixed;dominant-baseline:auto;baseline-shift:baseline;text-anchor:start;white-space:normal;shape-padding:0;shape-margin:0;inline-size:0;clip-rule:nonzero;display:inline;overflow:visible;visibility:visible;isolation:auto;mix-blend-mode:normal;color-interpolation:sRGB;color-interpolation-filters:linearRGB;solid-color:#000000;solid-opacity:1;vector-effect:none;fill:#212121;fill-opacity:1;fill-rule:nonzero;stroke:none;stroke-width:5;stroke-linecap:round;stroke-linejoin:round;stroke-miterlimit:4;stroke-dasharray:none;stroke-dashoffset:0;stroke-opacity:1;filter:url(#filter1963);color-rendering:auto;image-rendering:auto;shape-rendering:auto;text-rendering:auto;enable-background:accumulate;stop-color:#000000"
           id="path1924" />
        <g
           transform="translate(-328.88109,-38.700397)"
           id="g1882">
          <g
             id="g1867"
             transform="translate(-16.331298)">
            <path
               sodipodi:nodetypes="ccccc"
               id="path1781"
               d="m 140.91072,92.891924 53.92407,-53.924073 70.98169,71.531939 -53.37383,48.97186 z"
               style="fill:#fa98fb;fill-opacity:1;stroke:#cf88cf;stroke-width:5;stroke-linecap:round;stroke-linejoin:round;stroke-miterlimit:4;stroke-dasharray:none;stroke-opacity:1" />
            <path
               sodipodi:nodetypes="ccccc"
               id="path1779"
               d="M 212.44265,159.47165 140.91072,92.891924 v 70.431446 l 71.53193,68.23046 z"
               style="fill:#d36ed4;fill-opacity:1;stroke:#bc70bd;stroke-width:5;stroke-linecap:round;stroke-linejoin:round;stroke-miterlimit:4;stroke-dasharray:none;stroke-opacity:1" />
            <path
               sodipodi:nodetypes="ccccc"
               id="path1777"
               d="m 212.44265,159.47165 53.37383,-48.97186 v 71.53193 l -53.37383,49.52211 z"
               style="fill:#9c3c9d;fill-opacity:1;stroke:#7e2e7e;stroke-width:5;stroke-linecap:butt;stroke-linejoin:round;stroke-miterlimit:4;stroke-dasharray:none;stroke-opacity:1" />
          </g>
          <g
             id="g1872"
             transform="translate(-16.331298)">
            <path
               sodipodi:nodetypes="cc"
               id="path1783"
               d="M 68.234365,104 H 117.11422"
               style="fill:none;stroke:url(#linearGradient1830);stroke-width:15;stroke-linecap:round;stroke-linejoin:miter;stroke-miterlimit:4;stroke-dasharray:none;stroke-opacity:1" />
            <path
               style="fill:none;stroke:url(#linearGradient1838);stroke-width:15;stroke-linecap:round;stroke-linejoin:miter;stroke-miterlimit:4;stroke-dasharray:none;stroke-opacity:1"
               d="M 36.642904,136 H 117.28139"
               id="path1783-7"
               sodipodi:nodetypes="cc" />
            <path
               sodipodi:nodetypes="cc"
               id="path1783-7-9"
               d="M 52.042318,168 H 117.16476"
               style="fill:none;stroke:url(#linearGradient1846);stroke-width:15;stroke-linecap:round;stroke-linejoin:miter;stroke-miterlimit:4;stroke-dasharray:none;stroke-opacity:1" />
          </g>
        </g>
      </g>
    </g>
  </g>
</svg>
