<?xml version="1.0" encoding="UTF-8" standalone="no"?>
<svg
   inkscape:export-ydpi="96"
   inkscape:export-xdpi="96"
   inkscape:export-filename="/media/klapeto/Αρχεία/WindowsXP Theme/Vectors/RASTER/method.png"
   width="256"
   height="256"
   viewBox="0 0 256 256"
   version="1.1"
   id="svg8"
   inkscape:version="1.1.2 (0a00cf5339, 2022-02-04)"
   sodipodi:docname="extension-method.svg"
   xmlns:inkscape="http://www.inkscape.org/namespaces/inkscape"
   xmlns:sodipodi="http://sodipodi.sourceforge.net/DTD/sodipodi-0.dtd"
   xmlns:xlink="http://www.w3.org/1999/xlink"
   xmlns="http://www.w3.org/2000/svg"
   xmlns:svg="http://www.w3.org/2000/svg"
   xmlns:rdf="http://www.w3.org/1999/02/22-rdf-syntax-ns#"
   xmlns:cc="http://creativecommons.org/ns#"
   xmlns:dc="http://purl.org/dc/elements/1.1/">
  <defs
     id="defs2">
    <linearGradient
       id="linearGradient1828"
       inkscape:collect="always">
      <stop
         id="stop1824"
         offset="0"
         style="stop-color:#f7f0ab;stop-opacity:1" />
      <stop
         id="stop1826"
         offset="1"
         style="stop-color:#8a99ae;stop-opacity:1" />
    </linearGradient>
    <linearGradient
       gradientUnits="userSpaceOnUse"
       y2="104"
       x2="117.11422"
       y1="104"
       x1="68.234367"
       id="linearGradient1830"
       xlink:href="#linearGradient1828"
       inkscape:collect="always" />
    <linearGradient
       gradientUnits="userSpaceOnUse"
       y2="136"
       x2="117.28139"
       y1="136"
       x1="36.642902"
       id="linearGradient1838"
       xlink:href="#linearGradient1828"
       inkscape:collect="always" />
    <linearGradient
       gradientUnits="userSpaceOnUse"
       y2="168"
       x2="117.16476"
       y1="168"
       x1="52.042316"
       id="linearGradient1846"
       xlink:href="#linearGradient1828"
       inkscape:collect="always" />
    <filter
       height="1.106103"
       y="-0.053051491"
       width="1.0876537"
       x="-0.043826864"
       id="filter1963"
       style="color-interpolation-filters:sRGB"
       inkscape:collect="always">
      <feGaussianBlur
         id="feGaussianBlur1965"
         stdDeviation="4.3675709"
         inkscape:collect="always" />
    </filter>
    <linearGradient
       inkscape:collect="always"
       id="linearGradient893">
      <stop
         style="stop-color:#0066cc;stop-opacity:1"
         offset="0"
         id="stop889" />
      <stop
         id="stop899"
         offset="0.5"
         style="stop-color:#0066cc;stop-opacity:1" />
      <stop
         style="stop-color:#57b6ff;stop-opacity:1"
         offset="1"
         id="stop891" />
    </linearGradient>
    <linearGradient
       inkscape:collect="always"
       xlink:href="#linearGradient893"
       id="linearGradient2524"
       x1="179.43341"
       y1="219.34944"
       x2="73.063965"
       y2="72.675407"
       gradientUnits="userSpaceOnUse"
       gradientTransform="matrix(0.53885595,0,0,-0.53885595,10.931611,250.43325)" />
    <filter
       inkscape:collect="always"
       style="color-interpolation-filters:sRGB"
       id="filter1053"
       x="-0.050451487"
       y="-0.04577571"
       width="1.100903"
       height="1.0915514">
      <feGaussianBlur
         inkscape:collect="always"
         stdDeviation="2.4413713"
         id="feGaussianBlur1055" />
    </filter>
  </defs>
  <sodipodi:namedview
     inkscape:snap-bbox-edge-midpoints="true"
     inkscape:snap-smooth-nodes="false"
     inkscape:snap-midpoints="false"
     inkscape:object-paths="false"
     inkscape:guide-bbox="true"
     showguides="true"
     id="base"
     pagecolor="#ffffff"
     bordercolor="#666666"
     borderopacity="1.0"
     inkscape:pageopacity="0.0"
     inkscape:pageshadow="2"
     inkscape:zoom="1.9301096"
     inkscape:cx="-121.49569"
     inkscape:cy="127.4539"
     inkscape:document-units="px"
     inkscape:current-layer="layer1"
     inkscape:document-rotation="0"
     showgrid="false"
     units="px"
     inkscape:window-width="3840"
     inkscape:window-height="2043"
     inkscape:window-x="3840"
     inkscape:window-y="0"
     inkscape:window-maximized="1"
     inkscape:snap-bbox="true"
     inkscape:bbox-nodes="true"
     fit-margin-top="0"
     fit-margin-left="0"
     fit-margin-right="0"
     fit-margin-bottom="0"
     inkscape:bbox-paths="true"
     inkscape:snap-global="true"
     inkscape:pagecheckerboard="0">
    <inkscape:grid
       type="xygrid"
       id="grid1504"
       originx="0"
       originy="0" />
    <inkscape:grid
       type="xygrid"
       id="grid1765"
       spacingx="0.5"
       spacingy="0.5" />
  </sodipodi:namedview>
  <metadata
     id="metadata5">
    <rdf:RDF>
      <cc:Work
         rdf:about="">
        <dc:format>image/svg+xml</dc:format>
        <dc:type
           rdf:resource="http://purl.org/dc/dcmitype/StillImage" />
      </cc:Work>
    </rdf:RDF>
  </metadata>
  <g
     inkscape:label="Layer 1"
     inkscape:groupmode="layer"
     id="layer1"
     transform="translate(-12.567709)">
    <path
       d="m 183.23762,5.0387482 a 2.50025,2.50025 0 0 0 -1.74609,0.730469 L 127.5677,59.694998 a 2.50025,2.50025 0 0 0 -0.006,0.0059 2.50025,2.50025 0 0 0 -0.0488,0.05273 2.50025,2.50025 0 0 0 -0.0469,0.05078 2.50025,2.50025 0 0 0 -0.002,0.002 2.50025,2.50025 0 0 0 -0.006,0.0078 2.50025,2.50025 0 0 0 -0.0684,0.07813 2.50025,2.50025 0 0 0 -0.0117,0.01563 2.50025,2.50025 0 0 0 -0.0703,0.0918 2.50025,2.50025 0 0 0 -0.01,0.01367 2.50025,2.50025 0 0 0 -0.0625,0.0957 2.50025,2.50025 0 0 0 -0.125,0.214844 2.50025,2.50025 0 0 0 -0.0117,0.02148 2.50025,2.50025 0 0 0 -0.0273,0.06055 2.50025,2.50025 0 0 0 -0.0293,0.06055 2.50025,2.50025 0 0 0 -0.0176,0.04492 2.50025,2.50025 0 0 0 -0.0293,0.07031 2.50025,2.50025 0 0 0 -0.006,0.01758 2.50025,2.50025 0 0 0 -0.0371,0.111328 2.50025,2.50025 0 0 0 -0.0156,0.05273 2.50025,2.50025 0 0 0 -0.0527,0.212891 2.50025,2.50025 0 0 0 -0.006,0.03516 2.50025,2.50025 0 0 0 -0.0312,0.222656 2.50025,2.50025 0 0 0 -0.002,0.01367 2.50025,2.50025 0 0 0 -0.006,0.113282 2.50025,2.50025 0 0 0 -0.004,0.101562 v 70.431639 a 2.50025,2.50025 0 0 0 0.77344,1.8086 l 71.5332,68.23047 a 2.50025,2.50025 0 0 0 0.0781,0.0703 2.50025,2.50025 0 0 0 0.0469,0.0391 2.50025,2.50025 0 0 0 0.76562,0.4375 2.50025,2.50025 0 0 0 0.0234,0.008 2.50025,2.50025 0 0 0 0.24219,0.0703 2.50025,2.50025 0 0 0 0.24805,0.0449 2.50025,2.50025 0 0 0 0.0352,0.004 2.50025,2.50025 0 0 0 0.64258,-0.01 2.50025,2.50025 0 0 0 0.10156,-0.0156 2.50025,2.50025 0 0 0 0.0293,-0.006 2.50025,2.50025 0 0 0 0.0137,-0.004 2.50025,2.50025 0 0 0 1.06055,-0.49609 2.50025,2.50025 0 0 0 0.0801,-0.0664 2.50025,2.50025 0 0 0 0.0215,-0.0195 2.50025,2.50025 0 0 0 0.0371,-0.0332 l 53.37305,-49.52149 a 2.50025,2.50025 0 0 0 0.79883,-1.83398 V 79.14612 a 2.50025,2.50025 0 0 0 -0.002,-0.20898 2.50025,2.50025 0 0 0 -0.002,-0.0195 2.50025,2.50025 0 0 0 -0.01,-0.11328 2.50025,2.50025 0 0 0 -0.11132,-0.51954 2.50025,2.50025 0 0 0 -0.006,-0.0156 2.50025,2.50025 0 0 0 -0.0391,-0.10938 2.50025,2.50025 0 0 0 -0.008,-0.0195 2.50025,2.50025 0 0 0 -0.10156,-0.22265 2.50025,2.50025 0 0 0 -0.0273,-0.0488 2.50025,2.50025 0 0 0 -0.0371,-0.0664 2.50025,2.50025 0 0 0 -0.0293,-0.0488 2.50025,2.50025 0 0 0 -0.041,-0.0644 2.50025,2.50025 0 0 0 -0.0312,-0.0469 2.50025,2.50025 0 0 0 -0.0449,-0.0625 2.50025,2.50025 0 0 0 -0.0352,-0.0449 2.50025,2.50025 0 0 0 -0.0469,-0.0586 2.50025,2.50025 0 0 0 -0.0371,-0.043 2.50025,2.50025 0 0 0 -0.002,-0.002 2.50025,2.50025 0 0 0 -0.0879,-0.0977 2.50025,2.50025 0 0 0 -0.0254,-0.0254 L 185.03254,5.7770292 a 2.50025,2.50025 0 0 0 -1.79492,-0.738281 z M 56.657552,65.069998 a 7.5,7.5 0 0 0 -7.5,7.500002 7.5,7.5 0 0 0 7.5,7.5 h 48.880858 a 7.5,7.5 0 0 0 7.5,-7.5 7.5,7.5 0 0 0 -7.5,-7.500002 z M 25.067709,97.07 a 7.5,7.5 0 0 0 -7.5,7.5 7.5,7.5 0 0 0 7.5,7.5 h 80.636711 a 7.5,7.5 0 0 0 7.5,-7.5 7.5,7.5 0 0 0 -7.5,-7.5 z m 15.398437,32 a 7.5,7.5 0 0 0 -7.5,7.5 7.5,7.5 0 0 0 7.5,7.5 h 65.123044 a 7.5,7.5 0 0 0 7.5,-7.5 7.5,7.5 0 0 0 -7.5,-7.5 z"
       style="color:#000000;font-style:normal;font-variant:normal;font-weight:normal;font-stretch:normal;font-size:medium;line-height:normal;font-family:sans-serif;font-variant-ligatures:normal;font-variant-position:normal;font-variant-caps:normal;font-variant-numeric:normal;font-variant-alternates:normal;font-variant-east-asian:normal;font-feature-settings:normal;font-variation-settings:normal;text-indent:0;text-align:start;text-decoration:none;text-decoration-line:none;text-decoration-style:solid;text-decoration-color:#000000;letter-spacing:normal;word-spacing:normal;text-transform:none;writing-mode:lr-tb;direction:ltr;text-orientation:mixed;dominant-baseline:auto;baseline-shift:baseline;text-anchor:start;white-space:normal;shape-padding:0;shape-margin:0;inline-size:0;clip-rule:nonzero;display:inline;overflow:visible;visibility:visible;isolation:auto;mix-blend-mode:normal;color-interpolation:sRGB;color-interpolation-filters:linearRGB;solid-color:#000000;solid-opacity:1;vector-effect:none;fill:#212121;fill-opacity:1;fill-rule:nonzero;stroke:none;stroke-width:5;stroke-linecap:round;stroke-linejoin:round;stroke-miterlimit:4;stroke-dasharray:none;stroke-dashoffset:0;stroke-opacity:1;filter:url(#filter1963);color-rendering:auto;image-rendering:auto;shape-rendering:auto;text-rendering:auto;enable-background:accumulate;stop-color:#000000"
       id="path1924" />
    <g
       transform="translate(-0.243897,-35.430071)"
       id="g1882">
      <g
         id="g1867"
         transform="translate(-16.331298)">
        <path
           sodipodi:nodetypes="ccccc"
           id="path1781"
           d="m 140.91072,92.891924 53.92407,-53.924073 70.98169,71.531939 -53.37383,48.97186 z"
           style="fill:#fa98fb;fill-opacity:1;stroke:#cf88cf;stroke-width:5;stroke-linecap:round;stroke-linejoin:round;stroke-miterlimit:4;stroke-dasharray:none;stroke-opacity:1" />
        <path
           sodipodi:nodetypes="ccccc"
           id="path1779"
           d="M 212.44265,159.47165 140.91072,92.891924 v 70.431446 l 71.53193,68.23046 z"
           style="fill:#d36ed4;fill-opacity:1;stroke:#bc70bd;stroke-width:5;stroke-linecap:round;stroke-linejoin:round;stroke-miterlimit:4;stroke-dasharray:none;stroke-opacity:1" />
        <path
           sodipodi:nodetypes="ccccc"
           id="path1777"
           d="m 212.44265,159.47165 53.37383,-48.97186 v 71.53193 l -53.37383,49.52211 z"
           style="fill:#9c3c9d;fill-opacity:1;stroke:#7e2e7e;stroke-width:5;stroke-linecap:butt;stroke-linejoin:round;stroke-miterlimit:4;stroke-dasharray:none;stroke-opacity:1" />
      </g>
      <g
         id="g1872"
         transform="translate(-16.331298)">
        <path
           sodipodi:nodetypes="cc"
           id="path1783"
           d="M 68.234365,104 H 117.11422"
           style="fill:none;stroke:url(#linearGradient1830);stroke-width:15;stroke-linecap:round;stroke-linejoin:miter;stroke-miterlimit:4;stroke-dasharray:none;stroke-opacity:1" />
        <path
           style="fill:none;stroke:url(#linearGradient1838);stroke-width:15;stroke-linecap:round;stroke-linejoin:miter;stroke-miterlimit:4;stroke-dasharray:none;stroke-opacity:1"
           d="M 36.642904,136 H 117.28139"
           id="path1783-7"
           sodipodi:nodetypes="cc" />
        <path
           sodipodi:nodetypes="cc"
           id="path1783-7-9"
           d="M 52.042318,168 H 117.16476"
           style="fill:none;stroke:url(#linearGradient1846);stroke-width:15;stroke-linecap:round;stroke-linejoin:miter;stroke-miterlimit:4;stroke-dasharray:none;stroke-opacity:1" />
      </g>
    </g>
    <path
       id="path954"
       style="color:#000000;fill:#212121;fill-opacity:1;fill-rule:evenodd;stroke-width:5.38856;stroke-linejoin:round;-inkscape-stroke:none;filter:url(#filter1053)"
       d="m 84.903268,120.58 c -8.909174,0 -16.164063,7.25488 -16.164063,16.16406 v 56.63086 L 54.420846,179.05656 c -6.299746,-6.29974 -16.561582,-6.29974 -22.861328,0 -6.299745,6.29975 -6.299745,16.56353 0,22.86328 l 41.914062,41.91211 c 3.149793,3.14979 7.298348,4.74805 11.429688,4.74805 4.131337,0 8.281337,-1.59776 11.43164,-4.74805 l 41.912112,-41.91211 c 6.29976,-6.29974 6.29976,-16.56353 0,-22.86328 -6.29974,-6.29974 -16.56159,-6.29974 -22.86133,0 l -14.31641,14.31641 v -56.62891 c 0,-8.90918 -7.256838,-16.16406 -16.166012,-16.16406 z" />
    <path
       id="rect1475"
       style="fill:url(#linearGradient2524);fill-opacity:1;fill-rule:evenodd;stroke:#003399;stroke-width:5.38856;stroke-linejoin:round;stroke-opacity:1;stop-color:#000000"
       d="m 79.904125,241.885 c -3.443549,0 -6.886078,-1.3186 -9.524699,-3.95722 L 28.46548,196.01384 c -5.277248,-5.27725 -5.277248,-13.77426 0,-19.05151 5.277248,-5.27724 13.774257,-5.27724 19.051504,0 l 18.916792,18.91785 v -63.13522 c 0,-7.46316 6.008244,-13.4714 13.471399,-13.4714 7.463157,0 13.471402,6.00824 13.471402,13.4714 v 63.13311 l 18.915743,-18.91574 c 5.27724,-5.27724 13.77425,-5.27724 19.05149,0 5.27726,5.27725 5.27726,13.77426 0,19.05151 L 89.430928,237.92778 C 86.7923,240.5664 83.347673,241.885 79.904125,241.885 Z"
       sodipodi:nodetypes="sccsccssscssccs" />
  </g>
</svg>
