<?xml version="1.0" encoding="UTF-8" standalone="no"?>
<svg
   width="256"
   height="256"
   viewBox="0 0 256 256"
   version="1.1"
   id="svg8"
   inkscape:version="1.1.2 (0a00cf5339, 2022-02-04)"
   sodipodi:docname="keyword.svg"
   inkscape:export-filename="/media/klapeto/Αρχεία/WindowsXP Theme/Vectors/RASTER/key.png"
   inkscape:export-xdpi="96"
   inkscape:export-ydpi="96"
   xmlns:inkscape="http://www.inkscape.org/namespaces/inkscape"
   xmlns:sodipodi="http://sodipodi.sourceforge.net/DTD/sodipodi-0.dtd"
   xmlns:xlink="http://www.w3.org/1999/xlink"
   xmlns="http://www.w3.org/2000/svg"
   xmlns:svg="http://www.w3.org/2000/svg"
   xmlns:rdf="http://www.w3.org/1999/02/22-rdf-syntax-ns#"
   xmlns:cc="http://creativecommons.org/ns#"
   xmlns:dc="http://purl.org/dc/elements/1.1/">
  <defs
     id="defs2">
    <linearGradient
       inkscape:collect="always"
       id="linearGradient8884">
      <stop
         style="stop-color:#6f8097;stop-opacity:1"
         offset="0"
         id="stop8880" />
      <stop
         style="stop-color:#485b75;stop-opacity:1"
         offset="1"
         id="stop8882" />
    </linearGradient>
    <linearGradient
       inkscape:collect="always"
       xlink:href="#linearGradient8884"
       id="linearGradient1045"
       x1="1573.5677"
       y1="-10.5"
       x2="1579.5677"
       y2="-10.5"
       gradientUnits="userSpaceOnUse" />
    <linearGradient
       inkscape:collect="always"
       xlink:href="#linearGradient8884"
       id="linearGradient8706"
       gradientUnits="userSpaceOnUse"
       x1="1573.5677"
       y1="-10.5"
       x2="1584.5677"
       y2="-10.5"
       gradientTransform="translate(-5.999982,3)" />
    <linearGradient
       inkscape:collect="always"
       xlink:href="#linearGradient8884"
       id="linearGradient20419"
       gradientUnits="userSpaceOnUse"
       x1="1573.5677"
       y1="-10.5"
       x2="1579.5677"
       y2="-10.5"
       gradientTransform="translate(-1.999991,6)" />
    <linearGradient
       inkscape:collect="always"
       xlink:href="#linearGradient8884"
       id="linearGradient20442"
       gradientUnits="userSpaceOnUse"
       x1="1574.5677"
       y1="-10.5"
       x2="1579.5677"
       y2="-10.5"
       gradientTransform="translate(-8.999982,6)" />
    <filter
       inkscape:collect="always"
       style="color-interpolation-filters:sRGB"
       id="filter893"
       x="-0.037714345"
       y="-0.065999813"
       width="1.0754287"
       height="1.1319996">
      <feGaussianBlur
         inkscape:collect="always"
         stdDeviation="3.4571484"
         id="feGaussianBlur895" />
    </filter>
  </defs>
  <sodipodi:namedview
     inkscape:guide-bbox="true"
     id="base"
     pagecolor="#ffffff"
     bordercolor="#666666"
     borderopacity="1.0"
     inkscape:pageopacity="0.0"
     inkscape:pageshadow="2"
     inkscape:zoom="2.52324"
     inkscape:cx="164.27292"
     inkscape:cy="116.12054"
     inkscape:document-units="px"
     inkscape:current-layer="layer1"
     inkscape:document-rotation="0"
     showgrid="false"
     units="px"
     inkscape:window-width="3840"
     inkscape:window-height="2043"
     inkscape:window-x="3840"
     inkscape:window-y="0"
     inkscape:window-maximized="1"
     inkscape:snap-bbox="true"
     inkscape:bbox-nodes="true"
     fit-margin-top="0"
     fit-margin-left="0"
     fit-margin-right="0"
     fit-margin-bottom="0"
     inkscape:bbox-paths="false"
     inkscape:snap-global="true"
     showguides="false"
     inkscape:pagecheckerboard="0">
    <inkscape:grid
       type="xygrid"
       id="grid1504"
       originx="0"
       originy="0" />
    <inkscape:grid
       type="xygrid"
       id="grid1507"
       spacingx="0.5"
       spacingy="0.5"
       originx="0"
       originy="0" />
  </sodipodi:namedview>
  <metadata
     id="metadata5">
    <rdf:RDF>
      <cc:Work
         rdf:about="">
        <dc:format>image/svg+xml</dc:format>
        <dc:type
           rdf:resource="http://purl.org/dc/dcmitype/StillImage" />
      </cc:Work>
    </rdf:RDF>
  </metadata>
  <g
     inkscape:label="Layer 1"
     inkscape:groupmode="layer"
     id="layer1"
     transform="translate(-12.567709)">
    <path
       id="rect24160"
       style="fill:#000000;fill-opacity:1;fill-rule:evenodd;stroke:none;stroke-width:188.571;stroke-linecap:round;stroke-linejoin:round;stop-color:#000000;filter:url(#filter893)"
       d="m 35.567709,69.143 v 47.14258 H 145.56771 V 69.143 Z M 169.13802,84.857844 a 7.8571501,7.8571501 0 0 0 -7.85742,7.857422 7.8571501,7.8571501 0 0 0 7.85742,7.857424 h 78.57227 a 7.8571501,7.8571501 0 0 0 7.85742,-7.857424 7.8571501,7.8571501 0 0 0 -7.85742,-7.857422 z M 74.852865,132.00042 a 7.8571501,7.8571501 0 0 0 -7.857422,7.85742 7.8571501,7.8571501 0 0 0 7.857422,7.85742 H 231.99544 a 7.8571501,7.8571501 0 0 0 7.85743,-7.85742 7.8571501,7.8571501 0 0 0 -7.85743,-7.85742 z M 43.423178,179.143 a 7.8571501,7.8571501 0 0 0 -7.855469,7.85742 7.8571501,7.8571501 0 0 0 7.855469,7.85742 H 106.2806 a 7.8571501,7.8571501 0 0 0 7.85742,-7.85742 7.8571501,7.8571501 0 0 0 -7.85742,-7.85742 z m 94.287112,0 a 7.8571501,7.8571501 0 0 0 -7.85742,7.85742 7.8571501,7.8571501 0 0 0 7.85742,7.85742 h 78.57031 a 7.8571501,7.8571501 0 0 0 7.85742,-7.85742 7.8571501,7.8571501 0 0 0 -7.85742,-7.85742 z" />
    <g
       id="g24057"
       transform="matrix(15.714286,0,0,15.714286,-24571.211,253.71429)">
      <rect
         style="fill:#5fe916;fill-opacity:1;fill-rule:evenodd;stroke:none;stroke-width:12;stroke-linecap:round;stroke-linejoin:round;stop-color:#000000"
         id="rect20630"
         width="7"
         height="3"
         x="1565.5677"
         y="-12" />
      <path
         style="fill:none;fill-opacity:1;stroke:url(#linearGradient1045);stroke-width:1px;stroke-linecap:round;stroke-linejoin:miter;stroke-opacity:1"
         d="m 1574.0677,-10.5 h 5"
         id="path996" />
      <path
         style="fill:none;fill-opacity:1;stroke:url(#linearGradient20419);stroke-width:1px;stroke-linecap:round;stroke-linejoin:miter;stroke-opacity:1"
         d="m 1572.0677,-4.5 h 5"
         id="path996-7" />
      <path
         style="fill:none;fill-opacity:1;stroke:url(#linearGradient20442);stroke-width:1px;stroke-linecap:round;stroke-linejoin:miter;stroke-opacity:1"
         d="m 1566.0677,-4.5 h 4"
         id="path996-88"
         sodipodi:nodetypes="cc" />
      <path
         style="fill:none;fill-opacity:1;stroke:url(#linearGradient8706);stroke-width:1px;stroke-linecap:round;stroke-linejoin:miter;stroke-opacity:1"
         d="m 1568.0677,-7.5 h 10"
         id="path996-8"
         sodipodi:nodetypes="cc" />
      <path
         style="fill:none;stroke:#000000;stroke-width:1px;stroke-linecap:round;stroke-linejoin:miter;stroke-opacity:1"
         d="m 1567.0677,-10.5 h 4"
         id="path20573" />
    </g>
  </g>
</svg>
