<?xml version="1.0" encoding="UTF-8" standalone="no"?>
<svg
   inkscape:export-ydpi="96"
   inkscape:export-xdpi="96"
   inkscape:export-filename="/media/klapeto/Αρχεία/WindowsXP Theme/Vectors/RASTER/method.png"
   width="256"
   height="256"
   viewBox="0 0 256 256"
   version="1.1"
   id="svg8"
   inkscape:version="1.1.1 (3bf5ae0d25, 2021-09-20)"
   sodipodi:docname="method.svg"
   xmlns:inkscape="http://www.inkscape.org/namespaces/inkscape"
   xmlns:sodipodi="http://sodipodi.sourceforge.net/DTD/sodipodi-0.dtd"
   xmlns:xlink="http://www.w3.org/1999/xlink"
   xmlns="http://www.w3.org/2000/svg"
   xmlns:svg="http://www.w3.org/2000/svg"
   xmlns:rdf="http://www.w3.org/1999/02/22-rdf-syntax-ns#"
   xmlns:cc="http://creativecommons.org/ns#"
   xmlns:dc="http://purl.org/dc/elements/1.1/">
  <defs
     id="defs2">
    <linearGradient
       id="linearGradient1828"
       inkscape:collect="always">
      <stop
         id="stop1824"
         offset="0"
         style="stop-color:#f7f0ab;stop-opacity:1" />
      <stop
         id="stop1826"
         offset="1"
         style="stop-color:#8a99ae;stop-opacity:1" />
    </linearGradient>
    <linearGradient
       gradientUnits="userSpaceOnUse"
       y2="104"
       x2="117.11422"
       y1="104"
       x1="68.234367"
       id="linearGradient1830"
       xlink:href="#linearGradient1828"
       inkscape:collect="always" />
    <linearGradient
       gradientUnits="userSpaceOnUse"
       y2="136"
       x2="117.28139"
       y1="136"
       x1="36.642902"
       id="linearGradient1838"
       xlink:href="#linearGradient1828"
       inkscape:collect="always" />
    <linearGradient
       gradientUnits="userSpaceOnUse"
       y2="168"
       x2="117.16476"
       y1="168"
       x1="52.042316"
       id="linearGradient1846"
       xlink:href="#linearGradient1828"
       inkscape:collect="always" />
    <filter
       height="1.106103"
       y="-0.053051491"
       width="1.0876537"
       x="-0.043826864"
       id="filter1963"
       style="color-interpolation-filters:sRGB"
       inkscape:collect="always">
      <feGaussianBlur
         id="feGaussianBlur1965"
         stdDeviation="4.3675709"
         inkscape:collect="always" />
    </filter>
  </defs>
  <sodipodi:namedview
     inkscape:snap-bbox-edge-midpoints="true"
     inkscape:snap-smooth-nodes="false"
     inkscape:snap-midpoints="false"
     inkscape:object-paths="false"
     inkscape:guide-bbox="true"
     showguides="true"
     id="base"
     pagecolor="#ffffff"
     bordercolor="#666666"
     borderopacity="1.0"
     inkscape:pageopacity="0.0"
     inkscape:pageshadow="2"
     inkscape:zoom="2.8284272"
     inkscape:cx="-73.18555"
     inkscape:cy="64.700269"
     inkscape:document-units="px"
     inkscape:current-layer="layer1"
     inkscape:document-rotation="0"
     showgrid="false"
     units="px"
     inkscape:window-width="3840"
     inkscape:window-height="2045"
     inkscape:window-x="3840"
     inkscape:window-y="0"
     inkscape:window-maximized="1"
     inkscape:snap-bbox="true"
     inkscape:bbox-nodes="true"
     fit-margin-top="0"
     fit-margin-left="0"
     fit-margin-right="0"
     fit-margin-bottom="0"
     inkscape:bbox-paths="true"
     inkscape:snap-global="true"
     inkscape:pagecheckerboard="0">
    <inkscape:grid
       type="xygrid"
       id="grid1504"
       originx="0"
       originy="0" />
    <inkscape:grid
       type="xygrid"
       id="grid1765"
       spacingx="0.5"
       spacingy="0.5" />
  </sodipodi:namedview>
  <metadata
     id="metadata5">
    <rdf:RDF>
      <cc:Work
         rdf:about="">
        <dc:format>image/svg+xml</dc:format>
        <dc:type
           rdf:resource="http://purl.org/dc/dcmitype/StillImage" />
      </cc:Work>
    </rdf:RDF>
  </metadata>
  <g
     inkscape:label="Layer 1"
     inkscape:groupmode="layer"
     id="layer1"
     transform="translate(-12.567709)">
    <path
       d="m 183.23762,33.208088 a 2.50025,2.50025 0 0 0 -1.74609,0.730469 L 127.5677,87.864338 a 2.50025,2.50025 0 0 0 -0.006,0.0059 2.50025,2.50025 0 0 0 -0.0488,0.05273 2.50025,2.50025 0 0 0 -0.0469,0.05078 2.50025,2.50025 0 0 0 -0.002,0.002 2.50025,2.50025 0 0 0 -0.006,0.0078 2.50025,2.50025 0 0 0 -0.0684,0.07813 2.50025,2.50025 0 0 0 -0.0117,0.01563 2.50025,2.50025 0 0 0 -0.0703,0.0918 2.50025,2.50025 0 0 0 -0.01,0.01367 2.50025,2.50025 0 0 0 -0.0625,0.0957 2.50025,2.50025 0 0 0 -0.125,0.214844 2.50025,2.50025 0 0 0 -0.0117,0.02148 2.50025,2.50025 0 0 0 -0.0273,0.06055 2.50025,2.50025 0 0 0 -0.0293,0.06055 2.50025,2.50025 0 0 0 -0.0176,0.04492 2.50025,2.50025 0 0 0 -0.0293,0.07031 2.50025,2.50025 0 0 0 -0.006,0.01758 2.50025,2.50025 0 0 0 -0.0371,0.111328 2.50025,2.50025 0 0 0 -0.0156,0.05273 2.50025,2.50025 0 0 0 -0.0527,0.212891 2.50025,2.50025 0 0 0 -0.006,0.03516 2.50025,2.50025 0 0 0 -0.0312,0.222656 2.50025,2.50025 0 0 0 -0.002,0.01367 2.50025,2.50025 0 0 0 -0.006,0.113282 2.50025,2.50025 0 0 0 -0.004,0.101562 v 70.431639 a 2.50025,2.50025 0 0 0 0.77344,1.8086 l 71.5332,68.23047 a 2.50025,2.50025 0 0 0 0.0781,0.0703 2.50025,2.50025 0 0 0 0.0469,0.0391 2.50025,2.50025 0 0 0 0.76562,0.4375 2.50025,2.50025 0 0 0 0.0234,0.008 2.50025,2.50025 0 0 0 0.24219,0.0703 2.50025,2.50025 0 0 0 0.24805,0.0449 2.50025,2.50025 0 0 0 0.0352,0.004 2.50025,2.50025 0 0 0 0.64258,-0.01 2.50025,2.50025 0 0 0 0.10156,-0.0156 2.50025,2.50025 0 0 0 0.0293,-0.006 2.50025,2.50025 0 0 0 0.0137,-0.004 2.50025,2.50025 0 0 0 1.06055,-0.49609 2.50025,2.50025 0 0 0 0.0801,-0.0664 2.50025,2.50025 0 0 0 0.0215,-0.0195 2.50025,2.50025 0 0 0 0.0371,-0.0332 l 53.37305,-49.52149 a 2.50025,2.50025 0 0 0 0.79883,-1.83398 v -71.45508 a 2.50025,2.50025 0 0 0 -0.002,-0.20898 2.50025,2.50025 0 0 0 -0.002,-0.0195 2.50025,2.50025 0 0 0 -0.01,-0.11328 2.50025,2.50025 0 0 0 -0.11132,-0.51954 2.50025,2.50025 0 0 0 -0.006,-0.0156 2.50025,2.50025 0 0 0 -0.0391,-0.10938 2.50025,2.50025 0 0 0 -0.008,-0.0195 2.50025,2.50025 0 0 0 -0.10156,-0.22265 2.50025,2.50025 0 0 0 -0.0273,-0.0488 2.50025,2.50025 0 0 0 -0.0371,-0.0664 2.50025,2.50025 0 0 0 -0.0293,-0.0488 2.50025,2.50025 0 0 0 -0.041,-0.0644 2.50025,2.50025 0 0 0 -0.0312,-0.0469 2.50025,2.50025 0 0 0 -0.0449,-0.0625 2.50025,2.50025 0 0 0 -0.0352,-0.0449 2.50025,2.50025 0 0 0 -0.0469,-0.0586 2.50025,2.50025 0 0 0 -0.0371,-0.043 2.50025,2.50025 0 0 0 -0.002,-0.002 2.50025,2.50025 0 0 0 -0.0879,-0.0977 2.50025,2.50025 0 0 0 -0.0254,-0.0254 L 185.03254,33.946369 a 2.50025,2.50025 0 0 0 -1.79492,-0.738281 z M 56.657552,93.239338 a 7.5,7.5 0 0 0 -7.5,7.500002 7.5,7.5 0 0 0 7.5,7.5 h 48.880858 a 7.5,7.5 0 0 0 7.5,-7.5 7.5,7.5 0 0 0 -7.5,-7.500002 z M 25.067709,125.23934 a 7.5,7.5 0 0 0 -7.5,7.5 7.5,7.5 0 0 0 7.5,7.5 h 80.636711 a 7.5,7.5 0 0 0 7.5,-7.5 7.5,7.5 0 0 0 -7.5,-7.5 z m 15.398437,32 a 7.5,7.5 0 0 0 -7.5,7.5 7.5,7.5 0 0 0 7.5,7.5 h 65.123044 a 7.5,7.5 0 0 0 7.5,-7.5 7.5,7.5 0 0 0 -7.5,-7.5 z"
       style="color:#000000;font-style:normal;font-variant:normal;font-weight:normal;font-stretch:normal;font-size:medium;line-height:normal;font-family:sans-serif;font-variant-ligatures:normal;font-variant-position:normal;font-variant-caps:normal;font-variant-numeric:normal;font-variant-alternates:normal;font-variant-east-asian:normal;font-feature-settings:normal;font-variation-settings:normal;text-indent:0;text-align:start;text-decoration:none;text-decoration-line:none;text-decoration-style:solid;text-decoration-color:#000000;letter-spacing:normal;word-spacing:normal;text-transform:none;writing-mode:lr-tb;direction:ltr;text-orientation:mixed;dominant-baseline:auto;baseline-shift:baseline;text-anchor:start;white-space:normal;shape-padding:0;shape-margin:0;inline-size:0;clip-rule:nonzero;display:inline;overflow:visible;visibility:visible;isolation:auto;mix-blend-mode:normal;color-interpolation:sRGB;color-interpolation-filters:linearRGB;solid-color:#000000;solid-opacity:1;vector-effect:none;fill:#212121;fill-opacity:1;fill-rule:nonzero;stroke:none;stroke-width:5;stroke-linecap:round;stroke-linejoin:round;stroke-miterlimit:4;stroke-dasharray:none;stroke-dashoffset:0;stroke-opacity:1;filter:url(#filter1963);color-rendering:auto;image-rendering:auto;shape-rendering:auto;text-rendering:auto;enable-background:accumulate;stop-color:#000000"
       id="path1924" />
    <g
       transform="translate(-0.243897,-7.2607312)"
       id="g1882">
      <g
         id="g1867"
         transform="translate(-16.331298)">
        <path
           sodipodi:nodetypes="ccccc"
           id="path1781"
           d="m 140.91072,92.891924 53.92407,-53.924073 70.98169,71.531939 -53.37383,48.97186 z"
           style="fill:#fa98fb;fill-opacity:1;stroke:#cf88cf;stroke-width:5;stroke-linecap:round;stroke-linejoin:round;stroke-miterlimit:4;stroke-dasharray:none;stroke-opacity:1" />
        <path
           sodipodi:nodetypes="ccccc"
           id="path1779"
           d="M 212.44265,159.47165 140.91072,92.891924 v 70.431446 l 71.53193,68.23046 z"
           style="fill:#d36ed4;fill-opacity:1;stroke:#bc70bd;stroke-width:5;stroke-linecap:round;stroke-linejoin:round;stroke-miterlimit:4;stroke-dasharray:none;stroke-opacity:1" />
        <path
           sodipodi:nodetypes="ccccc"
           id="path1777"
           d="m 212.44265,159.47165 53.37383,-48.97186 v 71.53193 l -53.37383,49.52211 z"
           style="fill:#9c3c9d;fill-opacity:1;stroke:#7e2e7e;stroke-width:5;stroke-linecap:butt;stroke-linejoin:round;stroke-miterlimit:4;stroke-dasharray:none;stroke-opacity:1" />
      </g>
      <g
         id="g1872"
         transform="translate(-16.331298)">
        <path
           sodipodi:nodetypes="cc"
           id="path1783"
           d="M 68.234365,104 H 117.11422"
           style="fill:none;stroke:url(#linearGradient1830);stroke-width:15;stroke-linecap:round;stroke-linejoin:miter;stroke-miterlimit:4;stroke-dasharray:none;stroke-opacity:1" />
        <path
           style="fill:none;stroke:url(#linearGradient1838);stroke-width:15;stroke-linecap:round;stroke-linejoin:miter;stroke-miterlimit:4;stroke-dasharray:none;stroke-opacity:1"
           d="M 36.642904,136 H 117.28139"
           id="path1783-7"
           sodipodi:nodetypes="cc" />
        <path
           sodipodi:nodetypes="cc"
           id="path1783-7-9"
           d="M 52.042318,168 H 117.16476"
           style="fill:none;stroke:url(#linearGradient1846);stroke-width:15;stroke-linecap:round;stroke-linejoin:miter;stroke-miterlimit:4;stroke-dasharray:none;stroke-opacity:1" />
      </g>
    </g>
  </g>
</svg>
