<?xml version="1.0" encoding="UTF-8" standalone="no"?>
<svg
   inkscape:export-ydpi="96"
   inkscape:export-xdpi="96"
   inkscape:export-filename="/media/klapeto/Αρχεία/WindowsXP Theme/Vectors/RASTER/code-variable.png"
   width="256"
   height="256"
   viewBox="0 0 256 256"
   version="1.1"
   id="svg8"
   inkscape:version="1.1.1 (3bf5ae0d25, 2021-09-20)"
   sodipodi:docname="variable.svg"
   xmlns:inkscape="http://www.inkscape.org/namespaces/inkscape"
   xmlns:sodipodi="http://sodipodi.sourceforge.net/DTD/sodipodi-0.dtd"
   xmlns="http://www.w3.org/2000/svg"
   xmlns:svg="http://www.w3.org/2000/svg"
   xmlns:rdf="http://www.w3.org/1999/02/22-rdf-syntax-ns#"
   xmlns:cc="http://creativecommons.org/ns#"
   xmlns:dc="http://purl.org/dc/elements/1.1/">
  <defs
     id="defs2">
    <filter
       inkscape:collect="always"
       style="color-interpolation-filters:sRGB"
       id="filter29937"
       x="-0.060487516"
       y="-0.039786218"
       width="1.120975"
       height="1.0795724">
      <feGaussianBlur
         inkscape:collect="always"
         stdDeviation="3.6714369"
         id="feGaussianBlur29939" />
    </filter>
  </defs>
  <sodipodi:namedview
     inkscape:snap-bbox-edge-midpoints="true"
     inkscape:snap-smooth-nodes="false"
     inkscape:snap-midpoints="false"
     inkscape:object-paths="false"
     inkscape:guide-bbox="true"
     showguides="true"
     id="base"
     pagecolor="#ffffff"
     bordercolor="#666666"
     borderopacity="1.0"
     inkscape:pageopacity="0.0"
     inkscape:pageshadow="2"
     inkscape:zoom="2.8284272"
     inkscape:cx="-39.421202"
     inkscape:cy="73.539103"
     inkscape:document-units="px"
     inkscape:current-layer="layer1"
     inkscape:document-rotation="0"
     showgrid="false"
     units="px"
     inkscape:window-width="3840"
     inkscape:window-height="2043"
     inkscape:window-x="3840"
     inkscape:window-y="0"
     inkscape:window-maximized="1"
     inkscape:snap-bbox="true"
     inkscape:bbox-nodes="true"
     fit-margin-top="0"
     fit-margin-left="0"
     fit-margin-right="0"
     fit-margin-bottom="0"
     inkscape:bbox-paths="true"
     inkscape:snap-global="true"
     inkscape:pagecheckerboard="0">
    <inkscape:grid
       type="xygrid"
       id="grid1504"
       originx="0"
       originy="0" />
    <inkscape:grid
       type="xygrid"
       id="grid1765"
       spacingx="0.5"
       spacingy="0.5" />
  </sodipodi:namedview>
  <metadata
     id="metadata5">
    <rdf:RDF>
      <cc:Work
         rdf:about="">
        <dc:format>image/svg+xml</dc:format>
        <dc:type
           rdf:resource="http://purl.org/dc/dcmitype/StillImage" />
      </cc:Work>
    </rdf:RDF>
  </metadata>
  <g
     inkscape:label="Layer 1"
     inkscape:groupmode="layer"
     id="layer1"
     transform="translate(-12.567709)">
    <path
       id="path29746"
       style="color:#000000;fill:#212121;fill-opacity:1;stroke:none;stroke-width:5.60691;stroke-linecap:round;stroke-linejoin:round;stroke-opacity:1;-inkscape-stroke:none;filter:url(#filter29937)"
       d="m 155.12619,21.180004 a 2.8037355,2.8037355 0 0 0 -1.98437,0.828124 L 73.544165,102.22297 a 2.8037355,2.8037355 0 0 0 -0.15039,0.26563 2.8037355,2.8037355 0 0 0 -0.328125,0.58398 2.8037355,2.8037355 0 0 0 -0.244141,0.81445 2.8037355,2.8037355 0 0 0 -0.0918,0.31056 v 80.21484 a 2.8037355,2.8037355 0 0 0 0.896485,2.05469 l 59.853516,55.5332 a 2.8037355,2.8037355 0 0 0 0.43945,0.2168 2.8037355,2.8037355 0 0 0 0.69727,0.34179 2.8037355,2.8037355 0 0 0 0.78515,0.0899 2.8037355,2.8037355 0 0 0 0.7793,-0.0957 2.8037355,2.8037355 0 0 0 0.70508,-0.35742 2.8037355,2.8037355 0 0 0 0.43555,-0.22265 l 80.21484,-76.51172 a 2.8037355,2.8037355 0 0 0 0.86719,-2.0293 V 84.451488 a 2.8037355,2.8037355 0 0 0 -0.0137,-0.183594 2.8037355,2.8037355 0 0 0 -0.01,-0.144531 2.8037355,2.8037355 0 0 0 -0.11328,-0.525391 2.8037355,2.8037355 0 0 0 -0.0449,-0.11914 2.8037355,2.8037355 0 0 0 -0.21289,-0.451172 2.8037355,2.8037355 0 0 0 -0.041,-0.07422 2.8037355,2.8037355 0 0 0 -0.34766,-0.439453 2.8037355,2.8037355 0 0 0 -0.0371,-0.04492 l -60.4707,-60.46875 a 2.8037355,2.8037355 0 0 0 -1.98633,-0.820312 z" />
    <g
       id="g1867"
       transform="matrix(-1.1213825,0,0,1.1213825,368.61609,-23.715523)">
      <path
         sodipodi:nodetypes="ccccc"
         id="path1781"
         d="m 140.91072,92.891924 53.92407,-53.924073 70.98169,71.531939 -53.37383,48.97186 z"
         style="fill:#99cdff;fill-opacity:1;stroke:#7db2e5;stroke-width:5;stroke-linecap:round;stroke-linejoin:round;stroke-miterlimit:4;stroke-dasharray:none;stroke-opacity:1" />
      <path
         sodipodi:nodetypes="ccccc"
         id="path1779"
         d="M 212.44265,159.47165 140.91072,92.891924 v 70.431446 l 71.53193,68.23046 z"
         style="fill:#003399;fill-opacity:1;stroke:#3e4b7b;stroke-width:5;stroke-linecap:round;stroke-linejoin:round;stroke-miterlimit:4;stroke-dasharray:none;stroke-opacity:1" />
      <path
         sodipodi:nodetypes="ccccc"
         id="path1777"
         d="m 212.44265,159.47165 53.37383,-48.97186 v 71.53193 l -53.37383,49.52211 z"
         style="fill:#5b9bd8;fill-opacity:1;stroke:#4362b8;stroke-width:5;stroke-linecap:butt;stroke-linejoin:round;stroke-miterlimit:4;stroke-dasharray:none;stroke-opacity:1" />
    </g>
  </g>
</svg>
