<?xml version="1.0" encoding="UTF-8" standalone="no"?>
<svg
   width="256"
   height="256"
   viewBox="0 0 256 256"
   version="1.1"
   id="svg8"
   inkscape:version="1.1.1 (3bf5ae0d25, 2021-09-20)"
   sodipodi:docname="app-armor.svg"
   inkscape:export-filename="/media/klapeto/Αρχεία/WindowsXP Theme/Vectors/RASTER/preferences-security-apparmor.png"
   inkscape:export-xdpi="96"
   inkscape:export-ydpi="96"
   xmlns:inkscape="http://www.inkscape.org/namespaces/inkscape"
   xmlns:sodipodi="http://sodipodi.sourceforge.net/DTD/sodipodi-0.dtd"
   xmlns:xlink="http://www.w3.org/1999/xlink"
   xmlns="http://www.w3.org/2000/svg"
   xmlns:svg="http://www.w3.org/2000/svg"
   xmlns:rdf="http://www.w3.org/1999/02/22-rdf-syntax-ns#"
   xmlns:cc="http://creativecommons.org/ns#"
   xmlns:dc="http://purl.org/dc/elements/1.1/">
  <defs
     id="defs2">
    <linearGradient
       inkscape:collect="always"
       xlink:href="#linearGradient3846"
       id="linearGradient1117"
       gradientUnits="userSpaceOnUse"
       x1="-71.719818"
       y1="34.592545"
       x2="-110.52647"
       y2="8.1339283"
       gradientTransform="matrix(0.76086958,0,0,0.76086958,-28.12511,70.119565)" />
    <linearGradient
       inkscape:collect="always"
       id="linearGradient3846">
      <stop
         style="stop-color:#abd5ff;stop-opacity:1"
         offset="0"
         id="stop3842" />
      <stop
         style="stop-color:#ffffff;stop-opacity:1"
         offset="1"
         id="stop3844" />
    </linearGradient>
    <linearGradient
       inkscape:collect="always"
       xlink:href="#linearGradient3813"
       id="linearGradient1119"
       gradientUnits="userSpaceOnUse"
       x1="-94.346573"
       y1="5.1000004"
       x2="-94.346573"
       y2="1.814286"
       gradientTransform="matrix(0.76086958,0,0,0.76086958,-28.12511,70.119565)" />
    <linearGradient
       inkscape:collect="always"
       id="linearGradient3813">
      <stop
         style="stop-color:#0093f9;stop-opacity:1"
         offset="0"
         id="stop3809" />
      <stop
         style="stop-color:#0067cd;stop-opacity:1"
         offset="0.5"
         id="stop3815" />
      <stop
         style="stop-color:#2e85db;stop-opacity:1"
         offset="1"
         id="stop3811" />
    </linearGradient>
    <linearGradient
       inkscape:collect="always"
       xlink:href="#linearGradient25317"
       id="linearGradient1121"
       gradientUnits="userSpaceOnUse"
       x1="-93.932289"
       y1="36"
       x2="-93.932289"
       y2="5.5"
       gradientTransform="matrix(0.76086958,0,0,0.76086958,-28.12511,70.119565)" />
    <linearGradient
       inkscape:collect="always"
       id="linearGradient25317">
      <stop
         style="stop-color:#2652a4;stop-opacity:1"
         offset="0"
         id="stop25313" />
      <stop
         style="stop-color:#0572d6;stop-opacity:1"
         offset="1"
         id="stop25315" />
    </linearGradient>
    <linearGradient
       inkscape:collect="always"
       xlink:href="#linearGradient120820"
       id="linearGradient1123"
       gradientUnits="userSpaceOnUse"
       x1="-93.932289"
       y1="4.5"
       x2="-93.932289"
       y2="0.5"
       gradientTransform="matrix(0.76086958,0,0,0.76086958,-28.12511,70.119565)" />
    <linearGradient
       inkscape:collect="always"
       id="linearGradient120820">
      <stop
         style="stop-color:#015baa;stop-opacity:1"
         offset="0"
         id="stop120816" />
      <stop
         style="stop-color:#0274d6;stop-opacity:1"
         offset="1"
         id="stop120818" />
    </linearGradient>
    <filter
       inkscape:collect="always"
       style="color-interpolation-filters:sRGB"
       id="filter1183"
       x="-0.043238119"
       y="-0.053940554"
       width="1.0864762"
       height="1.1078811">
      <feGaussianBlur
         inkscape:collect="always"
         stdDeviation="4.3598438"
         id="feGaussianBlur1185" />
    </filter>
    <linearGradient
       inkscape:collect="always"
       id="linearGradient15452">
      <stop
         style="stop-color:#848ace;stop-opacity:1"
         offset="0"
         id="stop15448" />
      <stop
         style="stop-color:#4a51ad;stop-opacity:1"
         offset="1"
         id="stop15450" />
    </linearGradient>
    <linearGradient
       inkscape:collect="always"
       id="linearGradient43875">
      <stop
         style="stop-color:#ffffff;stop-opacity:0.99792176"
         offset="0"
         id="stop43871" />
      <stop
         style="stop-color:#ffffff;stop-opacity:0"
         offset="0.41335297"
         id="stop46208" />
      <stop
         style="stop-color:#ffffff;stop-opacity:0"
         offset="0.69808322"
         id="stop44412" />
      <stop
         style="stop-color:#ffffff;stop-opacity:0.40000001"
         offset="0.89826292"
         id="stop45374" />
      <stop
         style="stop-color:#ffffff;stop-opacity:0.40000001"
         offset="1"
         id="stop43873" />
    </linearGradient>
    <linearGradient
       inkscape:collect="always"
       id="linearGradient2056">
      <stop
         style="stop-color:#ffffff;stop-opacity:1"
         offset="0"
         id="stop2052" />
      <stop
         style="stop-color:#94a6e7;stop-opacity:1"
         offset="0.2"
         id="stop2109" />
      <stop
         style="stop-color:#efefff;stop-opacity:1"
         offset="1"
         id="stop2054" />
    </linearGradient>
    <linearGradient
       inkscape:collect="always"
       xlink:href="#linearGradient2056"
       id="linearGradient2058"
       x1="-62.210537"
       y1="41.485077"
       x2="-62.210537"
       y2="80.711922"
       gradientUnits="userSpaceOnUse"
       gradientTransform="translate(-7.961146,-3.556096)" />
    <radialGradient
       inkscape:collect="always"
       xlink:href="#linearGradient43875"
       id="radialGradient43879"
       cx="-27.432291"
       cy="47.161766"
       fx="-27.432291"
       fy="47.161766"
       r="15"
       gradientTransform="matrix(0.57115348,1.9878573,-1.6453032,0.47273048,15.827257,77.200964)"
       gradientUnits="userSpaceOnUse" />
    <linearGradient
       inkscape:collect="always"
       xlink:href="#linearGradient15452"
       id="linearGradient15454"
       x1="-65.111061"
       y1="46.475666"
       x2="-65.111061"
       y2="38.752747"
       gradientUnits="userSpaceOnUse" />
    <linearGradient
       inkscape:collect="always"
       xlink:href="#linearGradient15452"
       id="linearGradient48845"
       gradientUnits="userSpaceOnUse"
       x1="-65.111061"
       y1="46.475666"
       x2="-65.111061"
       y2="38.752747"
       gradientTransform="matrix(-1,0,0,1,-122.87242,0.0274736)" />
    <filter
       inkscape:collect="always"
       style="color-interpolation-filters:sRGB"
       id="filter51190"
       x="-0.053059867"
       y="-0.043821154"
       width="1.1061197"
       height="1.0876423">
      <feGaussianBlur
         inkscape:collect="always"
         stdDeviation="4.4186328"
         id="feGaussianBlur51192" />
    </filter>
  </defs>
  <sodipodi:namedview
     inkscape:guide-bbox="true"
     id="base"
     pagecolor="#ffffff"
     bordercolor="#666666"
     borderopacity="1.0"
     inkscape:pageopacity="0.0"
     inkscape:pageshadow="2"
     inkscape:zoom="2.8284271"
     inkscape:cx="-2.1213204"
     inkscape:cy="93.338096"
     inkscape:document-units="px"
     inkscape:current-layer="layer1"
     inkscape:document-rotation="0"
     showgrid="false"
     units="px"
     inkscape:window-width="3840"
     inkscape:window-height="2045"
     inkscape:window-x="3840"
     inkscape:window-y="0"
     inkscape:window-maximized="1"
     inkscape:snap-bbox="true"
     inkscape:bbox-nodes="true"
     fit-margin-top="0"
     fit-margin-left="0"
     fit-margin-right="0"
     fit-margin-bottom="0"
     inkscape:bbox-paths="false"
     inkscape:snap-global="true"
     showguides="true"
     inkscape:pagecheckerboard="0">
    <inkscape:grid
       type="xygrid"
       id="grid1504"
       originx="0"
       originy="0" />
    <inkscape:grid
       type="xygrid"
       id="grid1507"
       spacingx="0.5"
       spacingy="0.5"
       originx="0"
       originy="0" />
  </sodipodi:namedview>
  <metadata
     id="metadata5">
    <rdf:RDF>
      <cc:Work
         rdf:about="">
        <dc:format>image/svg+xml</dc:format>
        <dc:type
           rdf:resource="http://purl.org/dc/dcmitype/StillImage" />
      </cc:Work>
    </rdf:RDF>
  </metadata>
  <g
     inkscape:label="Layer 1"
     inkscape:groupmode="layer"
     id="layer1"
     transform="translate(-12.567709)">
    <path
       id="path991"
       style="fill:#212121;fill-opacity:1;stroke:none;stroke-width:6.90999;stroke-linecap:butt;stroke-linejoin:miter;stroke-miterlimit:4;stroke-dasharray:none;stroke-opacity:1;filter:url(#filter1183)"
       d="m 31.536459,35.008 c -3.780463,0 -7.157374,1.782377 -9.671875,4.296876 -2.5145,2.514499 -4.296875,5.89141 -4.296875,9.671874 v 17.125 162.89063 H 259.56771 V 66.10175 48.97675 c 0,-3.780462 -1.78433,-7.157375 -4.29883,-9.671874 -2.5145,-2.514499 -5.89141,-4.296876 -9.67187,-4.296876 z" />
    <g
       id="g35036">
      <g
         id="g33631"
         transform="matrix(6.9099936,0,0,6.9099936,806.7491,-452.69268)">
        <path
           style="fill:url(#linearGradient1117);fill-opacity:1;stroke:none;stroke-width:1;stroke-linecap:butt;stroke-linejoin:miter;stroke-miterlimit:4;stroke-dasharray:none;stroke-opacity:1"
           d="m -114.43229,74.5 0.0218,23 h 34.000002 v -23 z"
           id="path3642-2"
           sodipodi:nodetypes="ccccc" />
        <path
           style="fill:url(#linearGradient1119);fill-opacity:1;stroke:none;stroke-width:1;stroke-linecap:butt;stroke-linejoin:miter;stroke-miterlimit:4;stroke-dasharray:none;stroke-opacity:1"
           d="M -114.43229,75 V 71.641304 L -112.91055,70.5 h 31.576087 l 1.141304,1.141304 V 75"
           id="path3338-0"
           sodipodi:nodetypes="cccccc" />
        <path
           style="color:#000000;fill:#c7dcde;stroke-width:1;stroke-miterlimit:4;stroke-dasharray:none"
           d="m -114.41055,74.5 v 0.76087 h 34 V 74.5 Z"
           id="path3439-9"
           sodipodi:nodetypes="ccccc" />
        <path
           style="fill:none;stroke:url(#linearGradient1121);stroke-width:1;stroke-linecap:butt;stroke-linejoin:miter;stroke-miterlimit:4;stroke-dasharray:none;stroke-opacity:1"
           d="m -114.43229,74.5 v 23.073291 h 34.02174 V 74.5"
           id="path1183-3"
           sodipodi:nodetypes="cccc" />
        <path
           style="fill:none;stroke:url(#linearGradient1123);stroke-width:1;stroke-linecap:butt;stroke-linejoin:miter;stroke-miterlimit:4;stroke-dasharray:none;stroke-opacity:1"
           d="m -80.41055,74.5 v -2.478261 c 0,-0.76087 -0.760869,-1.521739 -1.521739,-1.521739 h -30.978261 c -0.76087,0 -1.52174,0.760869 -1.52174,1.521739 V 74.5"
           id="path116814-6"
           sodipodi:nodetypes="cccccc" />
        <path
           id="rect162598-0"
           style="fill:#e37046;fill-rule:evenodd;stroke-width:1;stroke-linecap:round;stroke-linejoin:round;stroke-miterlimit:4;stroke-dasharray:none;stop-color:#000000"
           d="m -83.932291,71.5 h 2 v 2 h -2 z"
           sodipodi:nodetypes="ccccc" />
        <path
           id="rect162602-6"
           style="fill:#7cbcf8;fill-rule:evenodd;stroke-width:1;stroke-linecap:round;stroke-linejoin:round;stroke-miterlimit:4;stroke-dasharray:none;stop-color:#000000"
           d="m -86.932291,71.5 h 2 v 2 h -2 z"
           sodipodi:nodetypes="ccccc" />
        <path
           id="rect162604-2"
           style="fill:#7cbcf8;fill-rule:evenodd;stroke-width:1;stroke-linecap:round;stroke-linejoin:round;stroke-miterlimit:4;stroke-dasharray:none;stop-color:#000000"
           d="m -89.932291,71.5 h 2.02174 l -0.02174,2 h -2.021739 z"
           sodipodi:nodetypes="ccccc" />
      </g>
    </g>
    <g
       id="g1319"
       transform="matrix(0.98183884,0,0,0.98183884,2.4802349,2.5391973)">
      <path
         id="path51003"
         style="color:#000000;fill:#212121;fill-opacity:1;fill-rule:evenodd;stroke-linecap:round;stroke-linejoin:round;-inkscape-stroke:none;filter:url(#filter51190)"
         d="m 137.35251,4 a 4.1071807,4.1071807 0 0 0 -2.25,0.671875 C 126.83673,10.088179 112.58484,22.451354 96.487272,33.615234 80.389704,44.779115 62.530373,54.299858 49.725553,54.351562 a 4.1071807,4.1071807 0 0 0 -4.089844,4.105469 c 0,77.441879 22.222226,124.411729 45.824219,151.888669 11.800992,13.73848 23.906622,22.59429 33.669922,28.03321 4.88165,2.71945 9.17421,4.58608 12.59375,5.79297 3.41954,1.20689 5.56221,1.82812 7.84375,1.82812 2.16746,0 4.34624,-0.55732 7.76562,-1.68945 3.41939,-1.13214 7.71891,-2.90005 12.60743,-5.51172 9.77702,-5.22334 21.90274,-13.82891 33.71679,-27.40625 23.6281,-27.15468 45.8418,-74.13847 45.8418,-152.935549 a 4.1071807,4.1071807 0 0 0 -4.10742,-4.105469 c -13.23778,0 -31.13495,-9.696297 -47.16406,-20.96875 C 178.19839,22.110362 164.25279,9.7466772 155.93844,4.6132812 A 4.1071807,4.1071807 0 0 0 153.78024,4 Z"
         transform="matrix(0.54567005,0,0,0.54567005,57.136347,71.605954)" />
      <g
         id="g51001"
         transform="matrix(2.9879222,0,0,2.9879222,317.39484,-32.492787)">
        <path
           id="path50814"
           style="fill:none;fill-opacity:1;fill-rule:evenodd;stroke:#484848;stroke-width:1.5;stroke-linecap:round;stroke-linejoin:round;stroke-miterlimit:4;stroke-dasharray:none;stroke-opacity:1;stop-color:#000000"
           d="m -75.5,35.589844 c -2.788086,1.826944 -10.640598,9.173671 -16,9.195312 0,28 16,33.5 17.5,33.5 1.5,0 17.5,-5 17.5,-33.5 -5.515873,0 -13.27037,-7.51 -16,-9.195312 z"
           transform="translate(12.567709)" />
        <g
           id="g50752">
          <g
             id="g4213"
             transform="translate(8.5,-0.214844)"
             style="opacity:1">
            <path
               id="rect20883"
               style="opacity:1;fill:#f62c01;fill-opacity:1;fill-rule:evenodd;stroke:none;stroke-width:15;stroke-linecap:round;stroke-linejoin:round;stop-color:#000000"
               d="m -71.221353,38.5 c -1.717647,1.288235 -6.052114,4.994117 -14.210938,8 0,4.836061 0.601545,9.608248 1.5,13 h 14.5 v -21 z"
               sodipodi:nodetypes="cccccc" />
            <path
               id="rect20883-5"
               style="opacity:1;fill:#ffe700;fill-opacity:1;fill-rule:evenodd;stroke:none;stroke-width:15;stroke-linecap:round;stroke-linejoin:round;stop-color:#000000"
               d="m -69.936197,58.5 -0.01609,18.035835 c 1.033318,0 11.4767,-4.310609 15.016092,-18.035835 z"
               sodipodi:nodetypes="cccc" />
            <path
               id="rect20883-3"
               style="opacity:1;fill:#84c700;fill-opacity:1;fill-rule:evenodd;stroke:none;stroke-width:15;stroke-linecap:round;stroke-linejoin:round;stop-color:#000000"
               d="m -69.932291,38.5 -5.58e-4,20.5 h 13.996652 c 0.873159,-3.385978 1.5,-8.156578 1.5,-13 -4.72353,-0.858824 -12.489385,-6.211765 -14.207032,-7.5 z"
               sodipodi:nodetypes="cccccc" />
            <path
               id="rect20883-5-2"
               style="opacity:1;fill:#2b7afd;fill-opacity:1;fill-rule:evenodd;stroke:none;stroke-width:15;stroke-linecap:round;stroke-linejoin:round;stop-color:#000000"
               d="m -83.932291,59 c 3.569064,13.473554 12.97084,17 14,17 l -5.58e-4,-17 z"
               sodipodi:nodetypes="cccc" />
            <path
               style="opacity:1;mix-blend-mode:normal;fill:url(#radialGradient43879);fill-opacity:1;stroke:none;stroke-width:0.857143px;stroke-linecap:butt;stroke-linejoin:miter;stroke-opacity:1"
               d="m -85.936197,46.5 c 8.142857,-3 12.875519,-7.284498 14.589805,-8.570213 h 2.571428 c 1.714286,1.285715 10.061661,7.39692 14.775947,8.254063 0,24.428571 -14.620216,29.979936 -15.90593,29.979936 -1.285714,0 -16.03125,-5.663786 -16.03125,-29.663786 z"
               id="path1054-7"
               sodipodi:nodetypes="cccczc" />
            <path
               id="path1054"
               style="opacity:1;fill:url(#linearGradient2058);fill-opacity:1;stroke:none;stroke-width:1px;stroke-linecap:butt;stroke-linejoin:miter;stroke-opacity:1"
               d="m -71.432291,35.805573 c -2.788086,1.826944 -10.640598,9.172786 -16,9.194427 0,28 16,33.5 17.5,33.5 1.5,0 17.5,-5 17.5,-33.5 -5.515873,0 -13.27037,-7.509115 -16,-9.194427 z m -0.503906,3.409271 c 0,0 0.722968,8.678813 1.983346,8.678813 1.260378,0 2.016654,-8.678813 2.016654,-8.678813 1.714286,1.285715 9.061788,7.358633 13,7.5 0,24.428571 -13.714286,28.71289 -15,28.71289 -1.285714,0 -15,-4.71289 -15,-28.71289 3.644967,0.09142 11.285714,-6.214285 13,-7.5 z"
               sodipodi:nodetypes="ccscccczccscc" />
          </g>
          <path
             style="opacity:1;fill:url(#linearGradient15454);fill-opacity:1;stroke:none;stroke-width:1px;stroke-linecap:butt;stroke-linejoin:miter;stroke-opacity:1"
             d="m -76.440597,47.426328 c 3.972021,0 11.250799,-6.515003 12.704363,-7.282185 0.299249,1.978468 0.578871,5.288781 1.88577,7.115378 -1,-1.5 -1.07001,-8.902184 -1.07001,-8.902184 -4.5,2.5 -10.000155,8.115189 -13.515749,8.115189 z"
             id="path878"
             sodipodi:nodetypes="cccccc" />
          <path
             style="fill:url(#linearGradient48845);fill-opacity:1;stroke:none;stroke-width:1px;stroke-linecap:butt;stroke-linejoin:miter;stroke-opacity:1"
             d="m -46.431823,47.349371 c -4.120195,0 -11.250799,-6.410572 -12.704363,-7.177754 -0.299249,1.978468 -0.578871,5.288781 -1.88577,7.115378 1,-1.5 1.07001,-8.902184 1.07001,-8.902184 4.5,2.5 9.403657,7.746663 13.515749,8.115189 z"
             id="path878-2"
             sodipodi:nodetypes="cccccc" />
        </g>
      </g>
    </g>
  </g>
</svg>
