<?xml version="1.0" encoding="UTF-8"?>
<svg width="48" height="48" version="1.1" viewBox="0 0 48 48" xmlns="http://www.w3.org/2000/svg" xmlns:cc="http://creativecommons.org/ns#" xmlns:dc="http://purl.org/dc/elements/1.1/" xmlns:rdf="http://www.w3.org/1999/02/22-rdf-syntax-ns#" xmlns:xlink="http://www.w3.org/1999/xlink">
 <defs>
  <linearGradient id="gradient0-36" x1="-819.2" x2="819.2" gradientTransform="matrix(-.034083 0 0 .075636 -147.7 -100.55)" gradientUnits="userSpaceOnUse">
   <stop stop-color="#669" offset="0"/>
   <stop stop-color="#99c" offset="1"/>
  </linearGradient>
  <linearGradient id="gradient1-7" x1="-819.2" x2="819.2" gradientTransform="matrix(-.032682 0 0 .072835 -147.23 -99.15)" gradientUnits="userSpaceOnUse">
   <stop stop-color="#99c" offset="0"/>
   <stop stop-color="#eee" offset="1"/>
  </linearGradient>
  <linearGradient id="gradient2-5" x1="-819.2" x2="819.2" gradientTransform="matrix(0 .04949 .089643 0 -150.97 16.405)" gradientUnits="userSpaceOnUse">
   <stop stop-color="#99c" offset="0"/>
   <stop stop-color="#669" offset="1"/>
  </linearGradient>
  <radialGradient id="gradient3-3" cx="0" cy="0" r="819.2" gradientTransform="matrix(.13587 0 0 .13587 -190.65 5.6666)" gradientUnits="userSpaceOnUse">
   <stop stop-color="#fff" offset="0"/>
   <stop stop-color="#ddd" offset=".28235"/>
   <stop stop-color="#99c" offset="1"/>
  </radialGradient>
  <linearGradient id="gradient4-5" x1="-819.2" x2="819.2" gradientTransform="matrix(-.030815 0 0 .047623 -128.56 -.40297)" gradientUnits="userSpaceOnUse">
   <stop stop-color="#669" offset="0"/>
   <stop stop-color="#99c" offset="1"/>
  </linearGradient>
  <linearGradient id="gradient5-62" x1="-819.2" x2="819.2" gradientTransform="matrix(0 .04809 .032215 0 -128.32 .53082)" gradientUnits="userSpaceOnUse">
   <stop stop-color="#339" offset="0"/>
   <stop stop-color="#66c" offset=".28627"/>
   <stop stop-color="#ccc" offset="1"/>
  </linearGradient>
  <linearGradient id="gradient6-9" x1="-819.2" x2="819.2" gradientTransform="matrix(-.075169 -.075169 -.083107 .083107 -143.5 -81.408)" gradientUnits="userSpaceOnUse">
   <stop stop-color="#66c" offset="0"/>
   <stop stop-color="#999" offset="1"/>
  </linearGradient>
  <radialGradient id="gradient7-1" cx="0" cy="0" r="819.2" gradientTransform="matrix(.17182 0 0 .17182 -144.2 -149.34)" gradientUnits="userSpaceOnUse">
   <stop stop-color="#cff" offset="0"/>
   <stop stop-color="#cff" offset=".094118"/>
   <stop stop-color="#09f" offset="1"/>
  </radialGradient>
  <linearGradient id="gradient8-2" x1="-819.2" x2="819.2" gradientTransform="matrix(-.052292 -.052292 -.080772 .080772 -133.69 -76.506)" gradientUnits="userSpaceOnUse">
   <stop stop-color="#99c" offset="0"/>
   <stop stop-color="#fff" offset="1"/>
  </linearGradient>
  <linearGradient id="gradient9-7" x1="-819.2" x2="819.2" gradientTransform="matrix(-.06163 .032682 .004202 .008404 -132.29 -34.019)" gradientUnits="userSpaceOnUse">
   <stop stop-color="#66c" offset="0"/>
   <stop stop-color="#99c" offset=".078431"/>
   <stop stop-color="#fff" offset="1"/>
  </linearGradient>
  <linearGradient id="gradient10-0" x1="-819.2" x2="819.2" gradientTransform="matrix(-.0093378 .028013 .023811 .0079371 -141.16 10.802)" gradientUnits="userSpaceOnUse">
   <stop stop-color="#99c" offset="0"/>
   <stop stop-color="#eee" offset="1"/>
  </linearGradient>
  <linearGradient id="linearGradient974" x1="86.275" x2="74.466" y1="19.126" y2="7.3165" gradientTransform="translate(.067496 -2.7522)" gradientUnits="userSpaceOnUse">
   <stop stop-color="#f93" offset="0"/>
   <stop stop-color="#fc6" offset=".18336"/>
   <stop stop-color="#ff9" offset="1"/>
  </linearGradient>
  <radialGradient id="gradient0" cx="0" cy="0" r="819.2" gradientTransform="matrix(.0208 0 0 .0208 11.718 21.957)" gradientUnits="userSpaceOnUse">
   <stop stop-color="#cfc" offset="0"/>
   <stop stop-color="#090" offset="1"/>
  </radialGradient>
  <linearGradient id="gradient1" x1="-819.2" x2="819.2" gradientTransform="matrix(-7e-4 .0077 .0063 5e-4 13.318 27.107)" gradientUnits="userSpaceOnUse">
   <stop stop-color="#9cf" offset="0"/>
   <stop stop-color="#9cf" offset=".094118"/>
   <stop stop-color="#fff" offset=".39608"/>
   <stop stop-color="#cff" offset="1"/>
  </linearGradient>
  <radialGradient id="gradient2" cx="0" cy="0" r="819.2" gradientTransform="matrix(.0277 0 0 .0277 12.468 2.2575)" gradientUnits="userSpaceOnUse">
   <stop stop-color="#ff9" offset="0"/>
   <stop stop-color="#fc6" offset=".24314"/>
   <stop stop-color="#f93" offset=".71373"/>
   <stop stop-color="#960" offset="1"/>
  </radialGradient>
  <linearGradient id="gradient3" x1="-819.2" x2="819.2" gradientTransform="matrix(0 .0022 .0096 0 14.168 7.6575)" gradientUnits="userSpaceOnUse">
   <stop stop-color="#f93" offset="0"/>
   <stop stop-color="#f93" offset=".48627"/>
   <stop stop-color="#fc6" offset="1"/>
  </linearGradient>
  <radialGradient id="gradient4" cx="0" cy="0" r="819.2" gradientTransform="matrix(.016 0 0 .016 13.068 1.3075)" gradientUnits="userSpaceOnUse">
   <stop stop-color="#f0ddbd" offset="0"/>
   <stop stop-color="#d8a650" offset=".38039"/>
   <stop stop-color="#960" offset=".81961"/>
   <stop stop-color="#926821" offset="1"/>
  </radialGradient>
  <linearGradient id="gradient5" x1="-819.2" x2="819.2" gradientTransform="matrix(-.0075 .0035 .0026 .0056 14.468 6.0575)" gradientUnits="userSpaceOnUse">
   <stop stop-color="#960" offset="0"/>
   <stop stop-color="#f0ddbd" offset=".34118"/>
   <stop stop-color="#d8a650" offset=".67843"/>
   <stop stop-color="#960" offset="1"/>
  </linearGradient>
  <filter id="filter19" x="-.075521" y="-.054751" width="1.151" height="1.1095" color-interpolation-filters="sRGB">
   <feGaussianBlur stdDeviation="0.65566755"/>
  </filter>
  <clipPath id="clipPath40">
   <path d="m45.859 2.5215c-0.08742 0.00866-0.1804 0.026989-0.27734 0.054687l-22.229 4.0293c-1.3018 0.24929-1.7722 0.91389-1.4121 1.9941 0.21077 0.60596 2.048 8.297 5.291 22.109-0.27313 0.13031-0.54269 0.26492-0.80469 0.41016-2.5483 1.4126-3.8223 3.117-3.8223 5.1113s1.274 3.6967 3.8223 5.1094c2.5483 1.4126 5.6238 2.1191 9.2246 2.1191s6.661-0.7065 9.1816-2.1191c2.5483-1.4126 3.8223-3.1151 3.8223-5.1094s-1.274-3.6987-3.8223-5.1113c-0.05023-0.02815-0.10168-0.05444-0.15234-0.08203-0.16042-1.5358-0.39453-3.0828-0.70508-4.6406l4.5137-1.8828c0.58168-0.22159 0.83114-0.70721 0.74805-1.4551l-2.2441-19.32c-0.14542-0.87251-0.52279-1.2774-1.1348-1.2168z" fill="url(#linearGradient40)" stroke-width=".83096"/>
  </clipPath>
  <linearGradient id="linearGradient40" x1="-819.2" x2="819.2" gradientTransform="matrix(-.006066 0 0 .013462 36.192 15.414)" gradientUnits="userSpaceOnUse" xlink:href="#gradient0-36"/>
  <filter id="filter47" x="-.066363" y="-.060837" width="1.1327" height="1.1217" color-interpolation-filters="sRGB">
   <feGaussianBlur stdDeviation="0.58353917"/>
  </filter>
  <clipPath id="clipPath65">
   <path d="m45.859 2.5215c-0.08742 0.00866-0.1804 0.026989-0.27734 0.054687l-22.229 4.0293c-1.3018 0.24929-1.7722 0.91389-1.4121 1.9941 0.21077 0.60596 2.048 8.297 5.291 22.109-0.27313 0.13031-0.54269 0.26492-0.80469 0.41016-2.5483 1.4126-3.8223 3.117-3.8223 5.1113s1.274 3.6967 3.8223 5.1094c2.5483 1.4126 5.6238 2.1191 9.2246 2.1191s6.661-0.7065 9.1816-2.1191c2.5483-1.4126 3.8223-3.1151 3.8223-5.1094s-1.274-3.6987-3.8223-5.1113c-0.05023-0.02815-0.10168-0.05444-0.15234-0.08203-0.16042-1.5358-0.39453-3.0828-0.70508-4.6406l4.5137-1.8828c0.58168-0.22159 0.83114-0.70721 0.74805-1.4551l-2.2441-19.32c-0.14542-0.87251-0.52279-1.2774-1.1348-1.2168z" fill="url(#linearGradient40)" stroke-width=".83096"/>
  </clipPath>
 </defs>
 <metadata>
  <rdf:RDF>
   <cc:Work rdf:about="">
    <dc:format>image/svg+xml</dc:format>
    <dc:type rdf:resource="http://purl.org/dc/dcmitype/StillImage"/>
   </cc:Work>
  </rdf:RDF>
 </metadata>
 <g transform="translate(-12.568)">
  <g transform="matrix(.17798 0 0 .17798 62.479 33.31)" fill-rule="evenodd" stroke-width="4.6689">
   <path d="m-175.48-150.74 19.843 112.29 35.951-124.19-55.793 11.906" fill="url(#gradient0-36)"/>
   <path d="m-173.85-149.57 20.777 109.95 32.682-119.06-53.459 9.1044" fill="url(#gradient1-7)"/>
   <path d="m-224.04 16.405q0 16.808 21.477 28.714t51.825 11.906q30.348 0 51.591-11.906 21.477-11.906 21.477-28.714 0-16.808-21.477-28.714-21.244-11.906-51.591-11.906-30.348 0-51.825 11.906-21.477 11.906-21.477 28.714" fill="url(#gradient2-5)"/>
   <path d="m-219.37 15.705q0 15.407 20.076 26.379 19.843 10.972 47.856 10.972 28.247 0 48.09-10.972 19.843-10.972 19.843-26.379t-19.843-26.379q-19.843-10.738-48.09-10.738-28.013 0-47.856 10.738-20.076 10.972-20.076 26.379" fill="url(#gradient3-3)"/>
   <path d="m-129.26 43.952q21.71-4.9024 30.348-15.641 1.8676-34.783-5.8361-70.967-0.23345-0.93378-28.013 8.404-27.78 9.1044-27.547 10.038 16.108 31.515 21.477 61.396l9.5713 6.7699m25.912-17.975q-9.5713 8.404-26.379 12.606l-4.202-3.5017q-5.1358-28.247-19.609-58.128l43.888-16.341q6.303 30.581 6.303 65.365" fill="url(#gradient4-5)"/>
   <path d="m-154.47-21.88q14.474 28.714 19.609 57.428l5.3692 4.4355q17.508-3.9686 27.547-13.073 0-34.783-6.303-66.065l-46.222 17.275" fill="url(#gradient5-62)"/>
   <path d="m-227.77-138.84q1.8676 5.3692 31.982 133.76 2.101 3.5017 7.0034 1.6341l110.19-45.989q4.9024-1.8676 4.202-8.1706l-12.606-108.55q-1.4007-8.404-7.9371-6.5365l-124.89 22.644q-10.972 2.101-7.9371 11.205" fill="url(#gradient6-9)"/>
   <path d="m-81.402-55.496-13.073-98.047-114.39 24.278 22.644 114.39 104.82-40.619" fill="url(#gradient7-1)"/>
   <path d="m-191.35-7.8732-28.013-132.13q0-3.2682 1.6341-3.9686l123.73-24.979q2.8013-2.5679-3.2682-1.4007l-123.03 22.878q-3.9686 1.1672-4.202 6.7699l30.815 134.23 1.8676 1.6341q1.4007 0 0.46689-3.0348" fill="url(#gradient8-2)"/>
   <path d="m-185.99-15.11q0 2.8013 2.8014 1.8676l105.05-41.787-3.2682-0.93378-104.58 40.853" fill="url(#gradient9-7)"/>
   <path d="m-153.07-18.612q8.1706 18.442 10.505 26.613l7.2368 27.547 6.303 4.4355q-1.8676-22.878-11.906-53.226l-12.139-5.3692" fill="url(#gradient10-0)"/>
  </g>
  <path d="m49.538 0.74995c-0.99454 0.01085-2.0093 0.1132-3.002 0.31055-3.1766 0.63151-6.1746 2.2854-7.4258 5.2773-1.8033 4.3121-0.61553 7.412 1.168 9.3594 0.89175 0.97369 1.9166 1.6751 2.7793 2.166 0.65845 0.37467 1.0406 0.52724 1.3652 0.66992-0.38748 1.2221-1.5498 2.4551-1.9727 2.7871-0.49106 0.38557-0.82828 0.7127-1.041 1.0371-0.10636 0.1622-0.18906 0.32772-0.21094 0.53125-0.02188 0.20353 0.05761 0.4601 0.2168 0.61328 0.31837 0.30636 0.68529 0.28684 1.1035 0.24219 0.41822-0.04465 0.92099-0.17286 1.5215-0.38281 2.037-0.71219 4.8915-2.1736 7.2012-5.4688 3.7405-1.5437 5.8342-3.9612 6.6797-5.2266 1.4607-2.186 1.6803-4.4686 1.0957-6.3906-0.58458-1.922-1.9485-3.4878-3.623-4.3359-1.1439-0.57941-2.5646-0.95747-4.0957-1.1113-0.57415-0.057695-1.163-0.084635-1.7598-0.078125z" clip-path="url(#clipPath65)" color="#000000" fill="#0d1a33" filter="url(#filter47)" style="-inkscape-stroke:none"/>
  <g transform="matrix(.091134 -.019828 .019828 .091134 33.579 2.964)">
   <g transform="matrix(10.025 1.9499 -1.9499 10.025 -674.43 -165.95)" stroke-width=".99998">
    <path d="m77.504 23.715c2.12-0.68895 5.0865-2.1078 7.5313-5.503 3.9401-1.485 6.1531-3.9579 7.0321-5.2124 3.0122-4.2988 0.9981-8.8629-2.2307-10.589-4.4608-2.3849-13.913-1.8202-16.5 4-3.8577 8.6798 4.5 12 5.5 12.5-0.33751 1.6321-1.9343 3.0757-2.5 3.5-2 1.5-1.2754 2.0984 1.1673 1.3045z" fill="url(#linearGradient974)" stroke="#c90"/>
    <g fill="none" stroke-linecap="round">
     <path d="m75.158 14.002c-2.0027-3.1728-0.82503-7.1246 1.7176-9.1769 2.0487-1.6537 5.7062-2.4201 8.9828-2.0141" stroke="#fff"/>
     <g stroke="#c90">
      <path d="m77.441 7.3591 10.5-2"/>
      <path d="m77.941 10.359 10.5-2"/>
      <path d="m78.441 13.359 6.6264-1.3591"/>
     </g>
    </g>
   </g>
  </g>
  <path d="m22.897 17.469c-0.41712-0.0029-0.84731 0.02857-1.2891 0.09375a0.41572 0.41572 0 0 0-0.0059 0c-2.141 0.34486-3.8097 1.2403-4.9199 2.6836-0.69122 0.89859-1.1593 1.9974-1.418 3.2852-0.09315 0.43618-0.15615 0.88434-0.1875 1.3457-0.03232 0.37825-0.05164 0.76922-0.05469 1.1738-1.66e-4 0.0034-0.0038 0.0063-0.0039 0.0098h2e-3c-3.9e-5 0.0058-0.0019 0.0098-2e-3 0.01563a0.41572 0.41572 0 0 0 0.05664 0.19141c0.03922 0.66483 0.13213 1.3518 0.28516 2.0605h-2e-3c0.51179 2.4168 1.5156 4.4454 3.0117 6.0566a0.41572 0.41572 0 0 0 2e-3 2e-3c0.20996 0.22469 0.42475 0.4319 0.64258 0.625-0.66587 0.32162-1.306 0.71033-1.918 1.168-1.3875 1.0127-2.4471 2.351-3.166 3.9902a0.41572 0.41572 0 0 0-2e-3 0.0039c-0.7783 1.816-0.83191 3.4243-0.05859 4.6973 0.24584 0.41792 0.70079 0.61289 1.3242 0.79102 0.62343 0.17812 1.4462 0.31176 2.4863 0.41016 1.9964 0.19669 4.1949 0.18187 6.5957-0.04102 2.6291-0.19578 4.7948-0.58599 6.5078-1.1855 0.98534-0.34273 1.7573-0.73062 2.3203-1.1934 0.563-0.46274 0.92089-1.0243 0.99024-1.6484a0.41572 0.41572 0 0 0 0-2e-3 0.41572 0.41572 0 0 0 0-2e-3 0.41572 0.41572 0 0 0 0-2e-3c0.2-2.0563-0.10695-3.7086-0.99211-4.9003l-2e-3 -2e-3c-0.85617-1.1605-2.3319-1.9942-4.377-2.5625h-2e-3c-0.22924-0.06445-0.45548-0.12064-0.68164-0.17578 0.3448-0.42414 0.6576-0.90179 0.9375-1.4336 1.0645-2.0139 1.4936-4.317 1.2949-6.875-0.18849-2.4773-0.94697-4.5162-2.2871-6.0625-0.50951-0.63927-1.0785-1.1622-1.709-1.5625-0.99195-0.62972-2.1275-0.94628-3.3789-0.95508z" clip-path="url(#clipPath40)" fill="#0d1a33" fill-rule="evenodd" filter="url(#filter19)"/>
  <g transform="matrix(-.11975 0 0 .11975 38.315 16.719)">
   <g transform="matrix(6.9423 0 0 6.9423 40.999 0)">
    <path d="m4.218 32.457q3 1.05 7.7 1.4 4.3 0.4 7.85 0.05 3.7-0.35 4.2-1.2 1.25-2.05-0.1-5.2-1.25-2.85-3.65-4.6-5.55-4.15-13.55-1.9-3.6 1-5 2.9-1.45 1.95-1.1 5.55 0.2 1.8 3.65 3" fill="url(#gradient0)" fill-rule="evenodd"/>
    <path d="m4.218 32.457q-3.45-1.2-3.65-3-0.35-3.6 1.1-5.55 1.4-1.9 5-2.9 8-2.25 13.55 1.9 2.4 1.75 3.65 4.6 1.35 3.15 0.1 5.2-0.5 0.85-4.2 1.2-3.55 0.35-7.85-0.05-4.7-0.35-7.7-1.4z" fill="none" stroke="#060" stroke-linecap="round" stroke-linejoin="round"/>
    <path d="m18.368 21.957q-2.35-1.4-5.6-1.4l-3.25-0.2-1.45 0.2q-0.95 5.6 2.35 12.45 4.2-7.3 7.95-11.05" fill="url(#gradient1)" fill-rule="evenodd"/>
    <path d="m18.368 21.957q-3.75 3.75-7.95 11.05-3.3-6.85-2.35-12.45l1.45-0.2 3.25 0.2q3.25 0 5.6 1.4z" fill="none" stroke="#060" stroke-linecap="round" stroke-linejoin="round"/>
    <path d="m12.368 22.607q3.4 0.45 6.25-2.6 2.6-2.8 3.5-7.05 0.95-4.4-0.6-7.7-1.7-3.75-6.1-4.5-4.55-0.8-7.35 2.3-2.55 2.7-2.9 7.3-0.35 4.5 1.5 8 2 3.8 5.7 4.25" fill="url(#gradient2)" fill-rule="evenodd"/>
    <path d="m12.368 22.607q-3.7-0.45-5.7-4.25-1.85-3.5-1.5-8 0.35-4.6 2.9-7.3 2.8-3.1 7.35-2.3 4.4 0.75 6.1 4.5 1.55 3.3 0.6 7.7-0.9 4.25-3.5 7.05-2.85 3.05-6.25 2.6z" fill="none" stroke="#960" stroke-linecap="round" stroke-linejoin="round"/>
    <path d="m22.018 9.2575q-2.3-5.1-8.25-2.85-5.1 1.95-7.45-0.4 4.05 5.2 8.25 2.8 3.25-1.85 7.45 0.45" fill="url(#gradient3)" fill-rule="evenodd"/>
    <path d="m22.518 10.357q-0.05-8.55-7.5-9.75-6.1-0.9-8.9 5.65 1.1 1.35 3.75 1.85 1.4 0.3 2.6-0.25 1.85-0.85 3.95-1.15 2.9-0.4 4.7 1.3 1.35 1.2 1.4 2.35" fill="url(#gradient4)" fill-rule="evenodd"/>
    <path d="m22.518 10.357q-0.05-1.15-1.4-2.35-1.8-1.7-4.7-1.3-2.1 0.3-3.95 1.15-1.2 0.55-2.6 0.25-2.65-0.5-3.75-1.85 2.8-6.55 8.9-5.65 7.45 1.2 7.5 9.75z" fill="none" stroke="#960" stroke-linecap="round" stroke-linejoin="round"/>
    <path d="m10.818 7.7575 2.5-1.05q1.65-0.8 3.55-0.8 4.25 0 5.15 3.75 0.5-3.3-2.8-4.7-3.6-1.55-6.15-0.4l-1.75 1.05q-0.95 0.65-1.45 0.75-1.4 0.35-2.1 0l-0.4-0.3-0.3-0.15q0-0.75-0.4-0.1-0.4 0.7-0.05 1 0.6 0.5 1.9 0.8l2.3 0.15" fill="url(#gradient5)" fill-rule="evenodd"/>
   </g>
  </g>
 </g>
</svg>
