<?xml version="1.0" encoding="UTF-8" standalone="no"?>
<svg
   width="256"
   height="256"
   viewBox="0 0 256 256"
   version="1.1"
   id="svg8"
   inkscape:version="1.1.1 (3bf5ae0d25, 2021-09-20)"
   sodipodi:docname="desktop-edges.svg"
   inkscape:export-filename="/media/klapeto/Αρχεία/WindowsXP Theme/Vectors/RASTER/desktop-edges.png"
   inkscape:export-xdpi="96"
   inkscape:export-ydpi="96"
   xmlns:inkscape="http://www.inkscape.org/namespaces/inkscape"
   xmlns:sodipodi="http://sodipodi.sourceforge.net/DTD/sodipodi-0.dtd"
   xmlns="http://www.w3.org/2000/svg"
   xmlns:svg="http://www.w3.org/2000/svg"
   xmlns:rdf="http://www.w3.org/1999/02/22-rdf-syntax-ns#"
   xmlns:cc="http://creativecommons.org/ns#"
   xmlns:dc="http://purl.org/dc/elements/1.1/">
  <defs
     id="defs2">
    <linearGradient
       gradientTransform="matrix(-0.03408301,0,0,0.07563626,-147.70016,-100.55097)"
       gradientUnits="userSpaceOnUse"
       id="gradient0-36"
       spreadMethod="pad"
       x1="-819.20001"
       x2="819.20001">
      <stop
         offset="0.0"
         stop-color="#666699"
         id="stop1023" />
      <stop
         offset="1.0"
         stop-color="#9999cc"
         id="stop1025" />
    </linearGradient>
    <linearGradient
       gradientTransform="matrix(-0.03268233,0,0,0.07283491,-147.23327,-99.150302)"
       gradientUnits="userSpaceOnUse"
       id="gradient1-7"
       spreadMethod="pad"
       x1="-819.20001"
       x2="819.20001">
      <stop
         offset="0.0"
         stop-color="#9999cc"
         id="stop1028" />
      <stop
         offset="1.0"
         stop-color="#eeeeee"
         id="stop1030" />
    </linearGradient>
    <linearGradient
       gradientTransform="matrix(0,0.04949039,0.08964297,0,-150.96839,16.405092)"
       gradientUnits="userSpaceOnUse"
       id="gradient2-5"
       spreadMethod="pad"
       x1="-819.20001"
       x2="819.20001">
      <stop
         offset="0.0"
         stop-color="#9999cc"
         id="stop1033" />
      <stop
         offset="1.0"
         stop-color="#666699"
         id="stop1035" />
    </linearGradient>
    <radialGradient
       cx="0"
       cy="0"
       gradientTransform="matrix(0.13586513,0,0,0.13586513,-190.65408,5.6666105)"
       gradientUnits="userSpaceOnUse"
       id="gradient3-3"
       r="819.20001"
       spreadMethod="pad">
      <stop
         offset="0.0"
         stop-color="#ffffff"
         id="stop1038" />
      <stop
         offset="0.2823529411764706"
         stop-color="#dddddd"
         id="stop1040" />
      <stop
         offset="1.0"
         stop-color="#9999cc"
         id="stop1042" />
    </radialGradient>
    <linearGradient
       gradientTransform="matrix(-0.03081477,0,0,0.04762283,-128.55765,-0.40296572)"
       gradientUnits="userSpaceOnUse"
       id="gradient4-5"
       spreadMethod="pad"
       x1="-819.20001"
       x2="819.20001">
      <stop
         offset="0.0"
         stop-color="#666699"
         id="stop1045" />
      <stop
         offset="1.0"
         stop-color="#9999cc"
         id="stop1047" />
    </linearGradient>
    <linearGradient
       gradientTransform="matrix(0,0.04808972,0.03221544,0,-128.3242,0.53081524)"
       gradientUnits="userSpaceOnUse"
       id="gradient5-62"
       spreadMethod="pad"
       x1="-819.20001"
       x2="819.20001">
      <stop
         offset="0.0"
         stop-color="#333399"
         id="stop1050" />
      <stop
         offset="0.28627450980392155"
         stop-color="#6666cc"
         id="stop1052" />
      <stop
         offset="1.0"
         stop-color="#cccccc"
         id="stop1054" />
    </linearGradient>
    <linearGradient
       gradientTransform="matrix(-0.07516937,-0.07516937,-0.08310651,0.08310651,-143.49814,-81.408464)"
       gradientUnits="userSpaceOnUse"
       id="gradient6-9"
       spreadMethod="pad"
       x1="-819.20001"
       x2="819.20001">
      <stop
         offset="0.0"
         stop-color="#6666cc"
         id="stop1057" />
      <stop
         offset="1.0"
         stop-color="#999999"
         id="stop1059" />
    </linearGradient>
    <radialGradient
       cx="0"
       cy="0"
       gradientTransform="matrix(0.1718157,0,0,0.1718157,-144.19848,-149.34103)"
       gradientUnits="userSpaceOnUse"
       id="gradient7-1"
       r="819.20001"
       spreadMethod="pad">
      <stop
         offset="0.0"
         stop-color="#ccffff"
         id="stop1062" />
      <stop
         offset="0.09411764705882353"
         stop-color="#ccffff"
         id="stop1064" />
      <stop
         offset="1.0"
         stop-color="#0099ff"
         id="stop1066" />
    </radialGradient>
    <linearGradient
       gradientTransform="matrix(-0.05229173,-0.05229173,-0.08077205,0.08077205,-133.69344,-76.506114)"
       gradientUnits="userSpaceOnUse"
       id="gradient8-2"
       spreadMethod="pad"
       x1="-819.20001"
       x2="819.20001">
      <stop
         offset="0.0"
         stop-color="#9999cc"
         id="stop1069" />
      <stop
         offset="1.0"
         stop-color="#ffffff"
         id="stop1071" />
    </linearGradient>
    <linearGradient
       gradientTransform="matrix(-0.06162954,0.03268233,0.00420201,0.00840403,-132.29277,-34.01908)"
       gradientUnits="userSpaceOnUse"
       id="gradient9-7"
       spreadMethod="pad"
       x1="-819.20001"
       x2="819.20001">
      <stop
         offset="0.0"
         stop-color="#6666cc"
         id="stop1074" />
      <stop
         offset="0.0784313725490196"
         stop-color="#9999cc"
         id="stop1076" />
      <stop
         offset="1.0"
         stop-color="#ffffff"
         id="stop1078" />
    </linearGradient>
    <linearGradient
       gradientTransform="matrix(-0.00933781,0.02801343,0.02381141,0.00793714,-141.16369,10.802406)"
       gradientUnits="userSpaceOnUse"
       id="gradient10-0"
       spreadMethod="pad"
       x1="-819.20001"
       x2="819.20001">
      <stop
         offset="0.0"
         stop-color="#9999cc"
         id="stop1081" />
      <stop
         offset="1.0"
         stop-color="#eeeeee"
         id="stop1083" />
    </linearGradient>
    <filter
       inkscape:collect="always"
       style="color-interpolation-filters:sRGB"
       id="filter1968"
       x="-0.05982415"
       y="-0.040078543"
       width="1.1196483"
       height="1.0801571">
      <feGaussianBlur
         inkscape:collect="always"
         stdDeviation="4.0913537"
         id="feGaussianBlur1970" />
    </filter>
  </defs>
  <sodipodi:namedview
     inkscape:guide-bbox="true"
     id="base"
     pagecolor="#ffffff"
     bordercolor="#666666"
     borderopacity="1.0"
     inkscape:pageopacity="0.0"
     inkscape:pageshadow="2"
     inkscape:zoom="4"
     inkscape:cx="23.25"
     inkscape:cy="54"
     inkscape:document-units="px"
     inkscape:current-layer="layer1"
     inkscape:document-rotation="0"
     showgrid="false"
     units="px"
     inkscape:window-width="3840"
     inkscape:window-height="2045"
     inkscape:window-x="3840"
     inkscape:window-y="0"
     inkscape:window-maximized="1"
     inkscape:snap-bbox="true"
     inkscape:bbox-nodes="true"
     fit-margin-top="0"
     fit-margin-left="0"
     fit-margin-right="0"
     fit-margin-bottom="0"
     inkscape:bbox-paths="false"
     inkscape:snap-global="true"
     showguides="true"
     inkscape:pagecheckerboard="0">
    <inkscape:grid
       type="xygrid"
       id="grid1504"
       originx="0"
       originy="0" />
    <inkscape:grid
       type="xygrid"
       id="grid1507"
       spacingx="0.5"
       spacingy="0.5"
       originx="0"
       originy="0" />
  </sodipodi:namedview>
  <metadata
     id="metadata5">
    <rdf:RDF>
      <cc:Work
         rdf:about="">
        <dc:format>image/svg+xml</dc:format>
        <dc:type
           rdf:resource="http://purl.org/dc/dcmitype/StillImage" />
      </cc:Work>
    </rdf:RDF>
  </metadata>
  <g
     inkscape:label="Layer 1"
     inkscape:groupmode="layer"
     id="layer1"
     transform="translate(-12.567709)">
    <path
       id="path1809"
       style="fill:#212121;fill-opacity:1;stroke-width:4.97232;filter:url(#filter1968)"
       d="m 207.31814,4.0353202 c -0.52313,0.051795 -1.07419,0.1604279 -1.6543,0.3261718 L 72.65408,28.476726 c -7.789972,1.491693 -10.607794,5.469568 -8.453126,11.933594 1.261142,3.625766 12.256778,49.649025 31.660157,132.29101 -1.633446,0.77937 -3.241656,1.59036 -4.808594,2.45899 -15.248461,8.45295 -22.873047,18.64649 -22.873047,30.58007 0,11.93358 7.624586,22.12714 22.873047,30.58008 15.248463,8.45296 33.644663,12.67969 55.191403,12.67969 21.54675,0 39.8626,-4.22673 54.94531,-12.67969 15.24846,-8.45294 22.87305,-18.6465 22.87305,-30.58008 0,-11.93358 -7.62459,-22.12712 -22.87305,-30.58007 -0.29987,-0.16806 -0.60968,-0.32357 -0.91211,-0.48828 -0.95984,-9.18984 -2.36452,-18.44434 -4.22265,-27.76563 l 27.01172,-11.27539 c 3.48062,-1.32595 4.97379,-4.22608 4.47656,-8.70117 L 214.11697,11.32243 c -0.87015,-5.2209361 -3.13692,-7.6496748 -6.79883,-7.2871098 z" />
    <g
       id="g1727"
       transform="matrix(1.0649874,0,0,1.0649874,301.77497,184.26956)">
      <path
         d="m -175.48014,-150.7417 19.84284,112.28716 35.95057,-124.19287 -55.79341,11.90571"
         fill="url(#gradient0)"
         fill-rule="evenodd"
         stroke="none"
         id="path965"
         style="fill:url(#gradient0-36);stroke-width:4.6689" />
      <path
         d="m -173.84602,-149.57447 20.77662,109.952704 32.68234,-119.057074 -53.45896,9.10437"
         fill="url(#gradient1)"
         fill-rule="evenodd"
         stroke="none"
         id="path967"
         style="fill:url(#gradient1-7);stroke-width:4.6689" />
      <path
         d="m -224.03675,16.405092 q 0,16.808057 21.47696,28.713764 21.47696,11.905707 51.82484,11.905707 30.34789,0 51.591402,-11.905707 21.476962,-11.905707 21.476962,-28.713764 0,-16.80805772 -21.476962,-28.713765 -21.243512,-11.905707 -51.591402,-11.905707 -30.34788,0 -51.82484,11.905707 -21.47696,11.90570728 -21.47696,28.713765"
         fill="url(#gradient2)"
         fill-rule="evenodd"
         stroke="none"
         id="path969"
         style="fill:url(#gradient2-5);stroke-width:4.6689" />
      <path
         d="m -219.36785,15.704756 q 0,15.407386 20.07629,26.379312 19.84285,10.971926 47.85628,10.971926 28.24687,0 48.08972,-10.971926 19.842843,-10.971926 19.842843,-26.379312 0,-15.407386 -19.842843,-26.379312 -19.84285,-10.738481 -48.08972,-10.738481 -28.01343,0 -47.85628,10.738481 -20.07629,10.971926 -20.07629,26.379312"
         fill="url(#gradient3)"
         fill-rule="evenodd"
         stroke="none"
         id="path971"
         style="fill:url(#gradient3-3);stroke-width:4.6689" />
      <path
         d="m -129.25798,43.95163 q 21.7104,-4.90235 30.347877,-15.640831 1.867562,-34.783341 -5.836127,-70.967353 -0.23345,-0.933781 -28.01343,8.404028 -27.77999,9.104365 -27.54654,10.038146 16.10772,31.5151072 21.47696,61.396098 l 9.57126,6.769912 m 25.91242,-17.975284 q -9.57126,8.404029 -26.37931,12.606043 l -4.20202,-3.501678 q -5.13579,-28.2468743 -19.6094,-58.127865 l 43.88771,-16.341167 q 6.30302,30.5813266 6.30302,65.364667"
         fill="url(#gradient4)"
         fill-rule="evenodd"
         stroke="none"
         id="path973"
         style="fill:url(#gradient4-5);stroke-width:4.6689" />
      <path
         d="m -154.47007,-21.879928 q 14.4736,28.7137647 19.6094,57.427529 l 5.36924,4.43546 q 17.50839,-3.968569 27.54654,-13.072934 0,-34.7833404 -6.30302,-66.065003 l -46.22216,17.274948"
         fill="url(#gradient5)"
         fill-rule="evenodd"
         stroke="none"
         id="path975"
         style="fill:url(#gradient5-62);stroke-width:4.6689" />
      <path
         d="m -227.77188,-138.83599 q 1.86757,5.36924 31.982,133.7641195 2.10101,3.5016786 7.00336,1.6341167 L -78.600367,-49.426466 q 4.90235,-1.867562 4.202014,-8.170584 l -12.606043,-108.55204 q -1.400671,-8.40402 -7.937138,-6.53646 l -124.893206,22.64419 q -10.97192,2.101 -7.93714,11.20537"
         fill="url(#gradient6)"
         fill-rule="evenodd"
         stroke="none"
         id="path977"
         style="fill:url(#gradient6-9);stroke-width:4.6689" />
      <path
         d="m -81.40171,-55.496042 -13.072933,-98.046998 -114.388167,24.2783 22.64419,114.388169 104.81691,-40.619471"
         fill="url(#gradient7)"
         fill-rule="evenodd"
         stroke="none"
         id="path979"
         style="fill:url(#gradient7-1);stroke-width:4.6689" />
      <path
         d="M -191.35442,-7.8732134 -219.36785,-140.00322 q 0,-3.26823 1.63412,-3.96857 l 123.725977,-24.97864 q 2.801343,-2.5679 -3.268233,-1.40067 l -123.025644,22.87763 q -3.96857,1.16723 -4.20201,6.76992 l 30.81477,134.231008 1.86756,1.6341167 q 1.40067,0 0.46689,-3.0347881"
         fill="url(#gradient8)"
         fill-rule="evenodd"
         stroke="none"
         id="path981"
         style="fill:url(#gradient8-2);stroke-width:4.6689" />
      <path
         d="m -185.98518,-15.110016 q 0,2.801343 2.80135,1.867562 l 105.050354,-41.786698 -3.268234,-0.933781 -104.58347,40.852917"
         fill="url(#gradient9)"
         fill-rule="evenodd"
         stroke="none"
         id="path983"
         style="fill:url(#gradient9-7);stroke-width:4.6689" />
      <path
         d="m -153.0694,-18.611694 q 8.17058,18.44217352 10.50504,26.6127569 l 7.2368,27.5465381 6.30302,4.43546 q -1.86756,-22.877634 -11.90571,-53.225515 l -12.13915,-5.36924"
         fill="url(#gradient10)"
         fill-rule="evenodd"
         stroke="none"
         id="path985"
         style="fill:url(#gradient10-0);stroke-width:4.6689" />
    </g>
    <path
       style="fill:#3334ff;fill-opacity:0.5;stroke:none;stroke-width:1px;stroke-linecap:butt;stroke-linejoin:miter;stroke-opacity:1"
       d="m 79.338709,46.604241 9.326089,47.123687 C 102.89307,88.424436 129.10747,55.212166 125.34099,36.835161 Z"
       id="path1416"
       sodipodi:nodetypes="cccc" />
    <path
       style="fill:#3334ff;fill-opacity:0.5;stroke:none;stroke-width:1px;stroke-linecap:butt;stroke-linejoin:miter;stroke-opacity:1"
       d="m 103.45449,168.4262 -9.744058,-49.14931 c 11.926518,-3.81365 54.836168,10.17258 56.684898,30.67159 z"
       id="path1416-7"
       sodipodi:nodetypes="cccc" />
    <path
       style="fill:#3334ff;fill-opacity:0.5;stroke:none;stroke-width:1px;stroke-linecap:butt;stroke-linejoin:miter;stroke-opacity:1"
       d="m 215.08317,124.66974 -5.67596,-42.248473 c -16.65719,6.249835 -34.30027,39.874203 -32.02893,56.982443 z"
       id="path1416-7-0"
       sodipodi:nodetypes="cccc"
       inkscape:transform-center-x="26.469156"
       inkscape:transform-center-y="-11.516208" />
    <path
       style="fill:#3334ff;fill-opacity:0.5;stroke:none;stroke-width:1px;stroke-linecap:butt;stroke-linejoin:miter;stroke-opacity:1"
       d="m 201.1504,20.743933 5.30617,39.714861 C 191.48766,59.237369 162.83505,44.744671 157.87546,29.935873 Z"
       id="path1416-1"
       sodipodi:nodetypes="cccc"
       inkscape:transform-center-x="18.962727"
       inkscape:transform-center-y="24.531043" />
  </g>
</svg>
