<?xml version="1.0" encoding="UTF-8" standalone="no"?>
<svg
   width="256"
   height="256"
   viewBox="0 0 256 256"
   version="1.1"
   id="svg8"
   inkscape:version="1.1.1 (3bf5ae0d25, 2021-09-20)"
   sodipodi:docname="lock-screen.svg"
   inkscape:export-filename="/media/klapeto/Αρχεία/WindowsXP Theme/Vectors/RASTER/desktop-edges.png"
   inkscape:export-xdpi="96"
   inkscape:export-ydpi="96"
   xmlns:inkscape="http://www.inkscape.org/namespaces/inkscape"
   xmlns:sodipodi="http://sodipodi.sourceforge.net/DTD/sodipodi-0.dtd"
   xmlns:xlink="http://www.w3.org/1999/xlink"
   xmlns="http://www.w3.org/2000/svg"
   xmlns:svg="http://www.w3.org/2000/svg"
   xmlns:rdf="http://www.w3.org/1999/02/22-rdf-syntax-ns#"
   xmlns:cc="http://creativecommons.org/ns#"
   xmlns:dc="http://purl.org/dc/elements/1.1/">
  <defs
     id="defs2">
    <linearGradient
       gradientTransform="matrix(-0.03408301,0,0,0.07563626,-147.70016,-100.55097)"
       gradientUnits="userSpaceOnUse"
       id="gradient0-36"
       spreadMethod="pad"
       x1="-819.20001"
       x2="819.20001">
      <stop
         offset="0.0"
         stop-color="#666699"
         id="stop1023" />
      <stop
         offset="1.0"
         stop-color="#9999cc"
         id="stop1025" />
    </linearGradient>
    <linearGradient
       gradientTransform="matrix(-0.03268233,0,0,0.07283491,-147.23327,-99.150302)"
       gradientUnits="userSpaceOnUse"
       id="gradient1-7"
       spreadMethod="pad"
       x1="-819.20001"
       x2="819.20001">
      <stop
         offset="0.0"
         stop-color="#9999cc"
         id="stop1028" />
      <stop
         offset="1.0"
         stop-color="#eeeeee"
         id="stop1030" />
    </linearGradient>
    <linearGradient
       gradientTransform="matrix(0,0.04949039,0.08964297,0,-150.96839,16.405092)"
       gradientUnits="userSpaceOnUse"
       id="gradient2-5"
       spreadMethod="pad"
       x1="-819.20001"
       x2="819.20001">
      <stop
         offset="0.0"
         stop-color="#9999cc"
         id="stop1033" />
      <stop
         offset="1.0"
         stop-color="#666699"
         id="stop1035" />
    </linearGradient>
    <radialGradient
       cx="0"
       cy="0"
       gradientTransform="matrix(0.13586513,0,0,0.13586513,-190.65408,5.6666105)"
       gradientUnits="userSpaceOnUse"
       id="gradient3-3"
       r="819.20001"
       spreadMethod="pad">
      <stop
         offset="0.0"
         stop-color="#ffffff"
         id="stop1038" />
      <stop
         offset="0.2823529411764706"
         stop-color="#dddddd"
         id="stop1040" />
      <stop
         offset="1.0"
         stop-color="#9999cc"
         id="stop1042" />
    </radialGradient>
    <linearGradient
       gradientTransform="matrix(-0.03081477,0,0,0.04762283,-128.55765,-0.40296572)"
       gradientUnits="userSpaceOnUse"
       id="gradient4-5"
       spreadMethod="pad"
       x1="-819.20001"
       x2="819.20001">
      <stop
         offset="0.0"
         stop-color="#666699"
         id="stop1045" />
      <stop
         offset="1.0"
         stop-color="#9999cc"
         id="stop1047" />
    </linearGradient>
    <linearGradient
       gradientTransform="matrix(0,0.04808972,0.03221544,0,-128.3242,0.53081524)"
       gradientUnits="userSpaceOnUse"
       id="gradient5-62"
       spreadMethod="pad"
       x1="-819.20001"
       x2="819.20001">
      <stop
         offset="0.0"
         stop-color="#333399"
         id="stop1050" />
      <stop
         offset="0.28627450980392155"
         stop-color="#6666cc"
         id="stop1052" />
      <stop
         offset="1.0"
         stop-color="#cccccc"
         id="stop1054" />
    </linearGradient>
    <linearGradient
       gradientTransform="matrix(-0.07516937,-0.07516937,-0.08310651,0.08310651,-143.49814,-81.408464)"
       gradientUnits="userSpaceOnUse"
       id="gradient6-9"
       spreadMethod="pad"
       x1="-819.20001"
       x2="819.20001">
      <stop
         offset="0.0"
         stop-color="#6666cc"
         id="stop1057" />
      <stop
         offset="1.0"
         stop-color="#999999"
         id="stop1059" />
    </linearGradient>
    <radialGradient
       cx="0"
       cy="0"
       gradientTransform="matrix(0.1718157,0,0,0.1718157,-144.19848,-149.34103)"
       gradientUnits="userSpaceOnUse"
       id="gradient7-1"
       r="819.20001"
       spreadMethod="pad">
      <stop
         offset="0.0"
         stop-color="#ccffff"
         id="stop1062" />
      <stop
         offset="0.09411764705882353"
         stop-color="#ccffff"
         id="stop1064" />
      <stop
         offset="1.0"
         stop-color="#0099ff"
         id="stop1066" />
    </radialGradient>
    <linearGradient
       gradientTransform="matrix(-0.05229173,-0.05229173,-0.08077205,0.08077205,-133.69344,-76.506114)"
       gradientUnits="userSpaceOnUse"
       id="gradient8-2"
       spreadMethod="pad"
       x1="-819.20001"
       x2="819.20001">
      <stop
         offset="0.0"
         stop-color="#9999cc"
         id="stop1069" />
      <stop
         offset="1.0"
         stop-color="#ffffff"
         id="stop1071" />
    </linearGradient>
    <linearGradient
       gradientTransform="matrix(-0.06162954,0.03268233,0.00420201,0.00840403,-132.29277,-34.01908)"
       gradientUnits="userSpaceOnUse"
       id="gradient9-7"
       spreadMethod="pad"
       x1="-819.20001"
       x2="819.20001">
      <stop
         offset="0.0"
         stop-color="#6666cc"
         id="stop1074" />
      <stop
         offset="0.0784313725490196"
         stop-color="#9999cc"
         id="stop1076" />
      <stop
         offset="1.0"
         stop-color="#ffffff"
         id="stop1078" />
    </linearGradient>
    <linearGradient
       gradientTransform="matrix(-0.00933781,0.02801343,0.02381141,0.00793714,-141.16369,10.802406)"
       gradientUnits="userSpaceOnUse"
       id="gradient10-0"
       spreadMethod="pad"
       x1="-819.20001"
       x2="819.20001">
      <stop
         offset="0.0"
         stop-color="#9999cc"
         id="stop1081" />
      <stop
         offset="1.0"
         stop-color="#eeeeee"
         id="stop1083" />
    </linearGradient>
    <filter
       inkscape:collect="always"
       style="color-interpolation-filters:sRGB"
       id="filter1968"
       x="-0.05982415"
       y="-0.040078543"
       width="1.1196483"
       height="1.0801571">
      <feGaussianBlur
         inkscape:collect="always"
         stdDeviation="4.0913537"
         id="feGaussianBlur1970" />
    </filter>
    <linearGradient
       id="linearGradient1206"
       inkscape:collect="always">
      <stop
         id="stop1202"
         offset="0"
         style="stop-color:#e4bc4d;stop-opacity:1" />
      <stop
         id="stop1204"
         offset="1"
         style="stop-color:#cc9900;stop-opacity:1" />
    </linearGradient>
    <linearGradient
       id="linearGradient1150"
       inkscape:collect="always">
      <stop
         id="stop1146"
         offset="0"
         style="stop-color:#8d6420;stop-opacity:1" />
      <stop
         id="stop1148"
         offset="1"
         style="stop-color:#a77d35;stop-opacity:1" />
    </linearGradient>
    <linearGradient
       inkscape:collect="always"
       id="linearGradient1365">
      <stop
         style="stop-color:#daa943;stop-opacity:1"
         offset="0"
         id="stop1361" />
      <stop
         style="stop-color:#817a69;stop-opacity:1"
         offset="1"
         id="stop1363" />
    </linearGradient>
    <linearGradient
       inkscape:collect="always"
       id="linearGradient1339">
      <stop
         style="stop-color:#fffff0;stop-opacity:1"
         offset="0"
         id="stop1335" />
      <stop
         id="stop1343"
         offset="0.5"
         style="stop-color:#fffd9d;stop-opacity:1" />
      <stop
         style="stop-color:#fefbec;stop-opacity:1"
         offset="1"
         id="stop1337" />
    </linearGradient>
    <linearGradient
       inkscape:collect="always"
       id="linearGradient1325">
      <stop
         style="stop-color:#d8a518;stop-opacity:1"
         offset="0"
         id="stop1321" />
      <stop
         style="stop-color:#ffec86;stop-opacity:1"
         offset="1"
         id="stop1323" />
    </linearGradient>
    <linearGradient
       inkscape:collect="always"
       id="linearGradient1317">
      <stop
         style="stop-color:#ffd06a;stop-opacity:1"
         offset="0"
         id="stop1313" />
      <stop
         style="stop-color:#ffffc6;stop-opacity:1"
         offset="1"
         id="stop1315" />
    </linearGradient>
    <linearGradient
       id="linearGradient1308"
       inkscape:collect="always">
      <stop
         style="stop-color:#ffff99;stop-opacity:1"
         offset="0"
         id="stop1306" />
      <stop
         id="stop1304"
         offset="0.5"
         style="stop-color:#ffcd67;stop-opacity:1" />
      <stop
         style="stop-color:#d3a00f;stop-opacity:1"
         offset="1"
         id="stop1302" />
    </linearGradient>
    <linearGradient
       inkscape:collect="always"
       id="linearGradient1280">
      <stop
         style="stop-color:#d3a00f;stop-opacity:1"
         offset="0"
         id="stop1276" />
      <stop
         id="stop1284"
         offset="0.5"
         style="stop-color:#ffcc66;stop-opacity:1" />
      <stop
         style="stop-color:#ffff99;stop-opacity:1"
         offset="1"
         id="stop1278" />
    </linearGradient>
    <linearGradient
       gradientTransform="translate(12.5)"
       inkscape:collect="always"
       xlink:href="#linearGradient1280"
       id="linearGradient1282"
       x1="70.567711"
       y1="21"
       x2="70.567711"
       y2="3"
       gradientUnits="userSpaceOnUse" />
    <linearGradient
       gradientTransform="translate(12.5)"
       inkscape:collect="always"
       xlink:href="#linearGradient1308"
       id="linearGradient1300"
       x1="57.544079"
       y1="18.976562"
       x2="82.567711"
       y2="18.976562"
       gradientUnits="userSpaceOnUse" />
    <linearGradient
       gradientTransform="translate(12.5)"
       inkscape:collect="always"
       xlink:href="#linearGradient1317"
       id="linearGradient1319"
       x1="62.567711"
       y1="43.5"
       x2="62.567711"
       y2="22.5"
       gradientUnits="userSpaceOnUse" />
    <linearGradient
       gradientTransform="translate(12.5)"
       inkscape:collect="always"
       xlink:href="#linearGradient1325"
       id="linearGradient1327"
       x1="57.067711"
       y1="41"
       x2="57.067711"
       y2="24"
       gradientUnits="userSpaceOnUse" />
    <linearGradient
       gradientTransform="translate(12.5)"
       inkscape:collect="always"
       xlink:href="#linearGradient1339"
       id="linearGradient1341"
       x1="60.817451"
       y1="43.861931"
       x2="60.817451"
       y2="25.458643"
       gradientUnits="userSpaceOnUse" />
    <linearGradient
       inkscape:collect="always"
       xlink:href="#linearGradient1365"
       id="linearGradient1367"
       x1="53.067711"
       y1="74.257309"
       x2="53.067711"
       y2="64.257309"
       gradientUnits="userSpaceOnUse"
       gradientTransform="translate(32.104535,-36.757308)" />
    <linearGradient
       gradientTransform="translate(25.51726,2.0150484)"
       gradientUnits="userSpaceOnUse"
       y2="31.482708"
       x2="47.459911"
       y1="30.491322"
       x1="41.594791"
       id="linearGradient1152"
       xlink:href="#linearGradient1150"
       inkscape:collect="always" />
    <linearGradient
       inkscape:collect="always"
       xlink:href="#linearGradient1150"
       id="linearGradient1152-6"
       x1="41.594791"
       y1="30.491322"
       x2="47.459911"
       y2="31.482708"
       gradientUnits="userSpaceOnUse"
       gradientTransform="translate(40.721959,1.2996838)" />
    <linearGradient
       gradientUnits="userSpaceOnUse"
       y2="31.061457"
       x2="96.567709"
       y1="31.061457"
       x1="71.567709"
       id="linearGradient1208"
       xlink:href="#linearGradient1206"
       inkscape:collect="always" />
    <linearGradient
       gradientUnits="userSpaceOnUse"
       y2="18.976562"
       x2="96.567711"
       y1="18.976562"
       x1="67.567711"
       id="linearGradient1216"
       xlink:href="#linearGradient1206"
       inkscape:collect="always" />
    <linearGradient
       gradientUnits="userSpaceOnUse"
       y2="21"
       x2="78.567711"
       y1="2"
       x1="78.567711"
       id="linearGradient1224"
       xlink:href="#linearGradient1206"
       inkscape:collect="always" />
    <filter
       height="1.0797413"
       y="-0.039870658"
       width="1.1205868"
       x="-0.060293391"
       id="filter1345"
       style="color-interpolation-filters:sRGB"
       inkscape:collect="always">
      <feGaussianBlur
         id="feGaussianBlur1347"
         stdDeviation="4.0202637"
         inkscape:collect="always" />
    </filter>
  </defs>
  <sodipodi:namedview
     inkscape:guide-bbox="true"
     id="base"
     pagecolor="#ffffff"
     bordercolor="#666666"
     borderopacity="1.0"
     inkscape:pageopacity="0.0"
     inkscape:pageshadow="2"
     inkscape:zoom="5.6568542"
     inkscape:cx="12.727922"
     inkscape:cy="38.183766"
     inkscape:document-units="px"
     inkscape:current-layer="layer1"
     inkscape:document-rotation="0"
     showgrid="false"
     units="px"
     inkscape:window-width="3840"
     inkscape:window-height="2045"
     inkscape:window-x="3840"
     inkscape:window-y="0"
     inkscape:window-maximized="1"
     inkscape:snap-bbox="true"
     inkscape:bbox-nodes="true"
     fit-margin-top="0"
     fit-margin-left="0"
     fit-margin-right="0"
     fit-margin-bottom="0"
     inkscape:bbox-paths="false"
     inkscape:snap-global="true"
     showguides="true"
     inkscape:pagecheckerboard="0">
    <inkscape:grid
       type="xygrid"
       id="grid1504"
       originx="0"
       originy="0" />
    <inkscape:grid
       type="xygrid"
       id="grid1507"
       spacingx="0.5"
       spacingy="0.5"
       originx="0"
       originy="0" />
  </sodipodi:namedview>
  <metadata
     id="metadata5">
    <rdf:RDF>
      <cc:Work
         rdf:about="">
        <dc:format>image/svg+xml</dc:format>
        <dc:type
           rdf:resource="http://purl.org/dc/dcmitype/StillImage" />
      </cc:Work>
    </rdf:RDF>
  </metadata>
  <g
     inkscape:label="Layer 1"
     inkscape:groupmode="layer"
     id="layer1"
     transform="translate(-12.567709)">
    <path
       id="path1809"
       style="fill:#212121;fill-opacity:1;stroke-width:4.97232;filter:url(#filter1968)"
       d="m 207.31814,4.0353202 c -0.52313,0.051795 -1.07419,0.1604279 -1.6543,0.3261718 L 72.65408,28.476726 c -7.789972,1.491693 -10.607794,5.469568 -8.453126,11.933594 1.261142,3.625766 12.256778,49.649025 31.660157,132.29101 -1.633446,0.77937 -3.241656,1.59036 -4.808594,2.45899 -15.248461,8.45295 -22.873047,18.64649 -22.873047,30.58007 0,11.93358 7.624586,22.12714 22.873047,30.58008 15.248463,8.45296 33.644663,12.67969 55.191403,12.67969 21.54675,0 39.8626,-4.22673 54.94531,-12.67969 15.24846,-8.45294 22.87305,-18.6465 22.87305,-30.58008 0,-11.93358 -7.62459,-22.12712 -22.87305,-30.58007 -0.29987,-0.16806 -0.60968,-0.32357 -0.91211,-0.48828 -0.95984,-9.18984 -2.36452,-18.44434 -4.22265,-27.76563 l 27.01172,-11.27539 c 3.48062,-1.32595 4.97379,-4.22608 4.47656,-8.70117 L 214.11697,11.32243 c -0.87015,-5.2209361 -3.13692,-7.6496748 -6.79883,-7.2871098 z" />
    <g
       id="g1727"
       transform="matrix(1.0649874,0,0,1.0649874,301.77497,184.26956)">
      <path
         d="m -175.48014,-150.7417 19.84284,112.28716 35.95057,-124.19287 -55.79341,11.90571"
         fill="url(#gradient0)"
         fill-rule="evenodd"
         stroke="none"
         id="path965"
         style="fill:url(#gradient0-36);stroke-width:4.6689" />
      <path
         d="m -173.84602,-149.57447 20.77662,109.952704 32.68234,-119.057074 -53.45896,9.10437"
         fill="url(#gradient1)"
         fill-rule="evenodd"
         stroke="none"
         id="path967"
         style="fill:url(#gradient1-7);stroke-width:4.6689" />
      <path
         d="m -224.03675,16.405092 q 0,16.808057 21.47696,28.713764 21.47696,11.905707 51.82484,11.905707 30.34789,0 51.591402,-11.905707 21.476962,-11.905707 21.476962,-28.713764 0,-16.80805772 -21.476962,-28.713765 -21.243512,-11.905707 -51.591402,-11.905707 -30.34788,0 -51.82484,11.905707 -21.47696,11.90570728 -21.47696,28.713765"
         fill="url(#gradient2)"
         fill-rule="evenodd"
         stroke="none"
         id="path969"
         style="fill:url(#gradient2-5);stroke-width:4.6689" />
      <path
         d="m -219.36785,15.704756 q 0,15.407386 20.07629,26.379312 19.84285,10.971926 47.85628,10.971926 28.24687,0 48.08972,-10.971926 19.842843,-10.971926 19.842843,-26.379312 0,-15.407386 -19.842843,-26.379312 -19.84285,-10.738481 -48.08972,-10.738481 -28.01343,0 -47.85628,10.738481 -20.07629,10.971926 -20.07629,26.379312"
         fill="url(#gradient3)"
         fill-rule="evenodd"
         stroke="none"
         id="path971"
         style="fill:url(#gradient3-3);stroke-width:4.6689" />
      <path
         d="m -129.25798,43.95163 q 21.7104,-4.90235 30.347877,-15.640831 1.867562,-34.783341 -5.836127,-70.967353 -0.23345,-0.933781 -28.01343,8.404028 -27.77999,9.104365 -27.54654,10.038146 16.10772,31.5151072 21.47696,61.396098 l 9.57126,6.769912 m 25.91242,-17.975284 q -9.57126,8.404029 -26.37931,12.606043 l -4.20202,-3.501678 q -5.13579,-28.2468743 -19.6094,-58.127865 l 43.88771,-16.341167 q 6.30302,30.5813266 6.30302,65.364667"
         fill="url(#gradient4)"
         fill-rule="evenodd"
         stroke="none"
         id="path973"
         style="fill:url(#gradient4-5);stroke-width:4.6689" />
      <path
         d="m -154.47007,-21.879928 q 14.4736,28.7137647 19.6094,57.427529 l 5.36924,4.43546 q 17.50839,-3.968569 27.54654,-13.072934 0,-34.7833404 -6.30302,-66.065003 l -46.22216,17.274948"
         fill="url(#gradient5)"
         fill-rule="evenodd"
         stroke="none"
         id="path975"
         style="fill:url(#gradient5-62);stroke-width:4.6689" />
      <path
         d="m -227.77188,-138.83599 q 1.86757,5.36924 31.982,133.7641195 2.10101,3.5016786 7.00336,1.6341167 L -78.600367,-49.426466 q 4.90235,-1.867562 4.202014,-8.170584 l -12.606043,-108.55204 q -1.400671,-8.40402 -7.937138,-6.53646 l -124.893206,22.64419 q -10.97192,2.101 -7.93714,11.20537"
         fill="url(#gradient6)"
         fill-rule="evenodd"
         stroke="none"
         id="path977"
         style="fill:url(#gradient6-9);stroke-width:4.6689" />
      <path
         d="m -81.40171,-55.496042 -13.072933,-98.046998 -114.388167,24.2783 22.64419,114.388169 104.81691,-40.619471"
         fill="url(#gradient7)"
         fill-rule="evenodd"
         stroke="none"
         id="path979"
         style="fill:url(#gradient7-1);stroke-width:4.6689" />
      <path
         d="M -191.35442,-7.8732134 -219.36785,-140.00322 q 0,-3.26823 1.63412,-3.96857 l 123.725977,-24.97864 q 2.801343,-2.5679 -3.268233,-1.40067 l -123.025644,22.87763 q -3.96857,1.16723 -4.20201,6.76992 l 30.81477,134.231008 1.86756,1.6341167 q 1.40067,0 0.46689,-3.0347881"
         fill="url(#gradient8)"
         fill-rule="evenodd"
         stroke="none"
         id="path981"
         style="fill:url(#gradient8-2);stroke-width:4.6689" />
      <path
         d="m -185.98518,-15.110016 q 0,2.801343 2.80135,1.867562 l 105.050354,-41.786698 -3.268234,-0.933781 -104.58347,40.852917"
         fill="url(#gradient9)"
         fill-rule="evenodd"
         stroke="none"
         id="path983"
         style="fill:url(#gradient9-7);stroke-width:4.6689" />
      <path
         d="m -153.0694,-18.611694 q 8.17058,18.44217352 10.50504,26.6127569 l 7.2368,27.5465381 6.30302,4.43546 q -1.86756,-22.877634 -11.90571,-53.225515 l -12.13915,-5.36924"
         fill="url(#gradient10)"
         fill-rule="evenodd"
         stroke="none"
         id="path985"
         style="fill:url(#gradient10-0);stroke-width:4.6689" />
    </g>
    <g
       id="g1346"
       transform="translate(0,3.6481125)">
      <path
         d="m 154.84684,4.01523 c -0.72171,0.022842 -1.44589,0.071613 -2.17229,0.1466199 C 123.7185,7.1517399 92.1514,31.422045 92.1514,71.497037 v 18.246461 c -1.840465,0.813318 -3.643044,1.636277 -5.355485,2.479034 -10.046314,4.944175 -17.813049,10.249348 -21.792347,16.405998 a 2.7593821,2.7593821 0 0 0 -0.439859,1.49707 h -0.002 v 104.8448 c 0,5.67149 3.795051,12.42613 8.498166,18.57636 2.351556,3.07511 4.971844,5.89354 7.682111,8.03322 2.607826,2.05881 5.300606,3.60259 8.299458,3.71759 20.307726,2.88757 52.038316,-3.48904 79.867326,-12.88133 13.92315,-4.69907 26.81061,-10.1738 36.69355,-15.77708 9.88296,-5.60327 17.02014,-10.95148 18.88118,-17.46513 a 2.7593821,2.7593821 0 0 0 0.1061,-0.75818 V 93.626996 a 2.7593821,2.7593821 0 0 0 0,-0.05595 2.7591061,2.7591061 0 0 0 -0.0135,-0.277806 c -0.0722,-2.247744 -1.00008,-4.351794 -2.32084,-6.738728 -1.37528,-2.485478 -3.26566,-5.14547 -5.50789,-7.664748 -4.48446,-5.038556 -10.2889,-9.711155 -16.80727,-10.145711 -0.9576,-0.06384 -1.95113,-0.102304 -2.94203,-0.142761 v -19.17634 c 0,-11.876174 -5.33911,-23.626933 -13.46974,-32.24866 C 176.4141,9.6322802 167.02599,4.4075639 157.0037,4.0229438 c -0.71587,-0.027473 -1.43514,-0.030559 -2.15685,-0.00772 z m -1.23856,25.816677 c 6.96551,-0.08813 11.70756,3.217764 15.24655,8.39013 4.04455,5.911278 6.07121,14.422455 6.07121,22.239924 v 8.818416 c -16.73228,1.50076 -35.30358,5.029752 -52.47834,9.835108 -2.78746,0.779908 -5.52454,1.601498 -8.22229,2.446237 v -7.303986 c 0,-13.059772 5.18008,-23.474899 12.345,-31.012038 7.16494,-7.537138 16.37877,-12.08674 23.91256,-13.162994 1.08875,-0.155536 2.13024,-0.238208 3.12531,-0.250797 z"
         style="fill:#212121;fill-opacity:1;stroke:none;stroke-width:5.51821px;stroke-linecap:butt;stroke-linejoin:miter;stroke-opacity:1;filter:url(#filter1345)"
         id="path1238"
         transform="matrix(0.4327137,0,0,0.4327137,91.846795,31.948161)" />
      <g
         transform="matrix(2.3878065,0,0,2.3878065,-43.718656,28.920085)"
         id="g1236">
        <path
           style="fill:url(#linearGradient1327);fill-opacity:1;stroke:none;stroke-width:1px;stroke-linecap:butt;stroke-linejoin:miter;stroke-opacity:1"
           d="m 68.067709,20.5 v 19 c 0,1.5 2.5,5 4,5 v -20 c -1.130954,-0.310872 -3.456129,-3.098284 -4,-4 z"
           id="path1329"
           sodipodi:nodetypes="ccccc" />
        <path
           style="fill:url(#linearGradient1319);fill-opacity:1;stroke:none;stroke-width:1px;stroke-linecap:butt;stroke-linejoin:miter;stroke-opacity:1"
           d="m 72.067709,24.5 v 20 c 7,1 23,-4.5 24,-8 v -19"
           id="path1333"
           sodipodi:nodetypes="cccc" />
        <path
           sodipodi:nodetypes="ccc"
           id="path1331"
           d="m 96.067709,19 c -2.133286,1.627119 -16.5,6.5 -23,6.5 v 19"
           style="fill:none;stroke:url(#linearGradient1341);stroke-width:1.5;stroke-linecap:butt;stroke-linejoin:miter;stroke-miterlimit:4;stroke-dasharray:none;stroke-opacity:1" />
        <path
           sodipodi:nodetypes="ccc"
           id="path1266"
           d="m 68.067709,20.5 v 19 c 0,1.5 2.5,5 4,5"
           style="fill:none;fill-opacity:1;stroke:#d09d07;stroke-width:1px;stroke-linecap:butt;stroke-linejoin:miter;stroke-opacity:1" />
        <path
           sodipodi:nodetypes="cccc"
           id="path1264"
           d="m 72.067709,24.5 v 20 c 7,1 23,-4.5 24,-8 v -19"
           style="fill:none;fill-opacity:1;stroke:url(#linearGradient1208);stroke-width:1px;stroke-linecap:round;stroke-linejoin:round;stroke-opacity:1" />
        <path
           sodipodi:nodetypes="scscs"
           id="path1260"
           d="m 72.067709,24.5 c -1,0 -3.5,-2.5 -4,-4 2.5,-3.86792 16.5,-7.5 24,-7 1.881442,0.125429 4,3 4,4 -1.1547,2.000001 -15.666667,7 -24,7 z"
           style="fill:url(#linearGradient1300);fill-opacity:1;stroke:url(#linearGradient1216);stroke-width:1px;stroke-linecap:round;stroke-linejoin:round;stroke-opacity:1" />
        <ellipse
           rx="3.0141602"
           ry="1.8139881"
           style="fill:url(#linearGradient1152);fill-opacity:1;fill-rule:evenodd;stroke-width:5;stroke-linecap:round;stroke-linejoin:round"
           id="path1129"
           cx="69.977173"
           cy="33.497753"
           transform="rotate(-9.5940682)" />
        <ellipse
           rx="3.1270189"
           ry="1.8139881"
           transform="rotate(-9.5940682)"
           cy="32.782387"
           cx="85.18187"
           id="path1129-3"
           style="fill:url(#linearGradient1152-6);fill-opacity:1;fill-rule:evenodd;stroke-width:5;stroke-linecap:round;stroke-linejoin:round" />
        <path
           sodipodi:nodetypes="sssssssssss"
           id="path1262"
           d="m 76.067709,21 v -7 c 0,-5 4,-8.0714286 7,-8.5 3.5,-0.5 5,3 5,6 v 7 c 0,1 3,0 3,-1 v -8 c 0,-4 -3.652256,-8.100548 -7.481035,-7.7052031 C 78.576284,2.3121504 73.067709,6.5 73.067709,13.5 v 8 c 0,1 3,0.362872 3,-0.5 z"
           style="fill:url(#linearGradient1282);fill-opacity:1;stroke:url(#linearGradient1224);stroke-width:1px;stroke-linecap:round;stroke-linejoin:round;stroke-opacity:1" />
        <path
           d="m 86.567709,26.723842 -2.5,0.776158 V 31 c -1.0617,0.477211 -1.669208,1.325993 -1.509766,2.109375 0.1237,0.605322 0.689222,1.079394 1.509766,1.265625 V 38 l 2.5,-0.736612 v -3.181357 c 1.035426,-0.482185 1.620995,-1.318712 1.462891,-2.089843 -0.121503,-0.592745 -0.666999,-1.060313 -1.462891,-1.253907 V 30.53125 Z"
           style="fill:url(#linearGradient1367);fill-opacity:1;stroke:none;stroke-width:1px;stroke-linecap:butt;stroke-linejoin:miter;stroke-opacity:1"
           id="path1345"
           sodipodi:nodetypes="cccccccccccc" />
      </g>
    </g>
  </g>
</svg>
