<?xml version="1.0" encoding="UTF-8" standalone="no"?>
<svg
   version="1.1"
   viewBox="0 0 48 48"
   id="svg356"
   sodipodi:docname="network-configuration.svg"
   inkscape:version="1.1.2 (0a00cf5339, 2022-02-04)"
   inkscape:export-filename="network-configuration.png"
   inkscape:export-xdpi="96"
   inkscape:export-ydpi="96"
   xmlns:inkscape="http://www.inkscape.org/namespaces/inkscape"
   xmlns:sodipodi="http://sodipodi.sourceforge.net/DTD/sodipodi-0.dtd"
   xmlns:xlink="http://www.w3.org/1999/xlink"
   xmlns="http://www.w3.org/2000/svg"
   xmlns:svg="http://www.w3.org/2000/svg">
  <sodipodi:namedview
     id="namedview358"
     pagecolor="#ffffff"
     bordercolor="#666666"
     borderopacity="1.0"
     inkscape:pageshadow="2"
     inkscape:pageopacity="0.0"
     inkscape:pagecheckerboard="0"
     showgrid="false"
     inkscape:zoom="15.009636"
     inkscape:cx="28.415079"
     inkscape:cy="20.753335"
     inkscape:window-width="3840"
     inkscape:window-height="2056"
     inkscape:window-x="3840"
     inkscape:window-y="0"
     inkscape:window-maximized="1"
     inkscape:current-layer="svg356" />
  <defs
     id="defs258">
    <linearGradient
       id="gradient0-7"
       x1="-819.2"
       x2="819.2"
       gradientTransform="matrix(-0.01341663,-0.01341663,-0.01341663,0.01341663,30.166922,16.007594)"
       gradientUnits="userSpaceOnUse">
      <stop
         stop-color="#039"
         offset="0"
         id="stop2" />
      <stop
         stop-color="#09f"
         offset=".47059"
         id="stop4" />
      <stop
         stop-color="#cff"
         offset="1"
         id="stop6" />
    </linearGradient>
    <radialGradient
       id="gradient1-6"
       cx="0"
       cy="0"
       r="819.2"
       gradientTransform="matrix(0.02979538,0,0,0.02979538,28.29382,8.428067)"
       gradientUnits="userSpaceOnUse">
      <stop
         stop-color="#fff"
         offset="0"
         id="stop9" />
      <stop
         stop-color="#cff"
         offset=".078431"
         id="stop11" />
      <stop
         stop-color="#09f"
         offset=".29804"
         id="stop13" />
      <stop
         stop-color="#06c"
         offset=".53725"
         id="stop15" />
      <stop
         stop-color="#039"
         offset=".75294"
         id="stop17" />
      <stop
         stop-color="#99f"
         offset="1"
         id="stop19" />
    </radialGradient>
    <radialGradient
       id="gradient2-9"
       cx="0"
       cy="0"
       r="819.2"
       gradientTransform="matrix(9.58331e-4,0,0,9.58331e-4,23.981331,3.2443675)"
       gradientUnits="userSpaceOnUse">
      <stop
         stop-color="#00bf00"
         offset="0"
         id="stop22" />
      <stop
         stop-color="#060"
         offset=".92941"
         id="stop24" />
    </radialGradient>
    <radialGradient
       id="gradient3-0"
       cx="0"
       cy="0"
       r="819.2"
       gradientTransform="matrix(0.00252651,0,0,0.00252651,25.854433,3.7670935)"
       gradientUnits="userSpaceOnUse">
      <stop
         stop-color="#00bf00"
         offset="0"
         id="stop27" />
      <stop
         stop-color="#060"
         offset=".92941"
         id="stop29" />
    </radialGradient>
    <radialGradient
       id="gradient4-6"
       cx="0"
       cy="0"
       r="819.2"
       gradientTransform="matrix(8.7121e-5,0,0,8.7121e-5,25.288146,2.242476)"
       gradientUnits="userSpaceOnUse">
      <stop
         stop-color="#00bf00"
         offset="0"
         id="stop32" />
      <stop
         stop-color="#060"
         offset=".92941"
         id="stop34" />
    </radialGradient>
    <radialGradient
       id="gradient5-7"
       cx="0"
       cy="0"
       r="819.2"
       gradientTransform="matrix(0.00130681,0,0,0.00130681,26.420719,2.5473995)"
       gradientUnits="userSpaceOnUse">
      <stop
         stop-color="#00bf00"
         offset="0"
         id="stop37" />
      <stop
         stop-color="#060"
         offset=".92941"
         id="stop39" />
    </radialGradient>
    <radialGradient
       id="gradient6-0"
       cx="0"
       cy="0"
       r="819.2"
       gradientTransform="matrix(0.00618559,0,0,0.00618559,31.430177,5.117469)"
       gradientUnits="userSpaceOnUse">
      <stop
         stop-color="#00bf00"
         offset="0"
         id="stop42" />
      <stop
         stop-color="#060"
         offset=".92941"
         id="stop44" />
    </radialGradient>
    <radialGradient
       id="gradient7-7"
       cx="0"
       cy="0"
       r="819.2"
       gradientTransform="matrix(7.84089e-4,0,0,7.84089e-4,22.543834,3.810654)"
       gradientUnits="userSpaceOnUse">
      <stop
         stop-color="#00bf00"
         offset="0"
         id="stop47" />
      <stop
         stop-color="#060"
         offset=".92941"
         id="stop49" />
    </radialGradient>
    <radialGradient
       id="gradient8-2"
       cx="0"
       cy="0"
       r="819.2"
       gradientTransform="matrix(2.61363e-4,0,0,2.61363e-4,26.290037,8.079583)"
       gradientUnits="userSpaceOnUse">
      <stop
         stop-color="#00bf00"
         offset="0"
         id="stop52" />
      <stop
         stop-color="#060"
         offset=".92941"
         id="stop54" />
    </radialGradient>
    <radialGradient
       id="gradient9-9"
       cx="0"
       cy="0"
       r="819.2"
       gradientTransform="matrix(0.00270075,0,0,0.00270075,27.858215,6.4678445)"
       gradientUnits="userSpaceOnUse">
      <stop
         stop-color="#00bf00"
         offset="0"
         id="stop57" />
      <stop
         stop-color="#060"
         offset=".92941"
         id="stop59" />
    </radialGradient>
    <radialGradient
       id="gradient10-6"
       cx="0"
       cy="0"
       r="819.2"
       gradientTransform="matrix(0.00148106,0,0,0.00148106,35.786226,7.81822)"
       gradientUnits="userSpaceOnUse">
      <stop
         stop-color="#00bf00"
         offset="0"
         id="stop62" />
      <stop
         stop-color="#060"
         offset=".92941"
         id="stop64" />
    </radialGradient>
    <radialGradient
       id="gradient11-9"
       cx="0"
       cy="0"
       r="819.2"
       gradientTransform="matrix(0.01167421,0,0,0.01167421,40.185837,15.702671)"
       gradientUnits="userSpaceOnUse">
      <stop
         stop-color="#00bf00"
         offset="0"
         id="stop67" />
      <stop
         stop-color="#060"
         offset=".92941"
         id="stop69" />
    </radialGradient>
    <radialGradient
       id="gradient12-9"
       cx="0"
       cy="0"
       r="819.2"
       gradientTransform="matrix(1.74242e-4,0,0,1.74242e-4,38.835461,13.960251)"
       gradientUnits="userSpaceOnUse">
      <stop
         stop-color="#00bf00"
         offset="0"
         id="stop72" />
      <stop
         stop-color="#060"
         offset=".92941"
         id="stop74" />
    </radialGradient>
    <radialGradient
       id="gradient13-8"
       cx="0"
       cy="0"
       r="819.2"
       gradientTransform="matrix(3.48484e-4,0,0,3.48484e-4,34.566532,16.878804)"
       gradientUnits="userSpaceOnUse">
      <stop
         stop-color="#00bf00"
         offset="0"
         id="stop77" />
      <stop
         stop-color="#060"
         offset=".92941"
         id="stop79" />
    </radialGradient>
    <radialGradient
       id="gradient14-0"
       cx="0"
       cy="0"
       r="819.2"
       gradientTransform="matrix(8.7121e-5,0,0,8.7121e-5,29.034349,16.965925)"
       gradientUnits="userSpaceOnUse">
      <stop
         stop-color="#00bf00"
         offset="0"
         id="stop82" />
      <stop
         stop-color="#060"
         offset=".92941"
         id="stop84" />
    </radialGradient>
    <radialGradient
       id="gradient15-1"
       cx="0"
       cy="0"
       r="819.2"
       gradientTransform="matrix(4.35605e-4,0,0,4.35605e-4,28.598744,16.965925)"
       gradientUnits="userSpaceOnUse">
      <stop
         stop-color="#00bf00"
         offset="0"
         id="stop87" />
      <stop
         stop-color="#060"
         offset=".92941"
         id="stop89" />
    </radialGradient>
    <radialGradient
       id="gradient16-3"
       cx="0"
       cy="0"
       r="819.2"
       gradientTransform="matrix(4.35605e-4,0,0,4.35605e-4,29.208591,17.40153)"
       gradientUnits="userSpaceOnUse">
      <stop
         stop-color="#00bf00"
         offset="0"
         id="stop92" />
      <stop
         stop-color="#060"
         offset=".92941"
         id="stop94" />
    </radialGradient>
    <radialGradient
       id="gradient17-6"
       cx="0"
       cy="0"
       r="819.2"
       gradientTransform="matrix(8.7121e-5,0,0,8.7121e-5,29.208591,16.965925)"
       gradientUnits="userSpaceOnUse">
      <stop
         stop-color="#00bf00"
         offset="0"
         id="stop97" />
      <stop
         stop-color="#060"
         offset=".92941"
         id="stop99" />
    </radialGradient>
    <radialGradient
       id="gradient18-5"
       cx="0"
       cy="0"
       r="819.2"
       gradientTransform="matrix(2.61363e-4,0,0,2.61363e-4,27.291929,15.746231)"
       gradientUnits="userSpaceOnUse">
      <stop
         stop-color="#00bf00"
         offset="0"
         id="stop102" />
      <stop
         stop-color="#060"
         offset=".92941"
         id="stop104" />
    </radialGradient>
    <radialGradient
       id="gradient19-6"
       cx="0"
       cy="0"
       r="819.2"
       gradientTransform="matrix(1.74242e-4,0,0,1.74242e-4,26.899884,15.61555)"
       gradientUnits="userSpaceOnUse">
      <stop
         stop-color="#00bf00"
         offset="0"
         id="stop107" />
      <stop
         stop-color="#060"
         offset=".92941"
         id="stop109" />
    </radialGradient>
    <radialGradient
       id="gradient20-9"
       cx="0"
       cy="0"
       r="819.2"
       gradientTransform="matrix(2.61363e-4,0,0,2.61363e-4,27.161248,16.181836)"
       gradientUnits="userSpaceOnUse">
      <stop
         stop-color="#00bf00"
         offset="0"
         id="stop112" />
      <stop
         stop-color="#060"
         offset=".92941"
         id="stop114" />
    </radialGradient>
    <radialGradient
       id="gradient21-4"
       cx="0"
       cy="0"
       r="819.2"
       gradientTransform="matrix(0.00148106,0,0,0.00148106,26.987005,16.617441)"
       gradientUnits="userSpaceOnUse">
      <stop
         stop-color="#00bf00"
         offset="0"
         id="stop117" />
      <stop
         stop-color="#060"
         offset=".92941"
         id="stop119" />
    </radialGradient>
    <radialGradient
       id="gradient22-5"
       cx="0"
       cy="0"
       r="819.2"
       gradientTransform="matrix(2.61363e-4,0,0,2.61363e-4,27.553292,16.094715)"
       gradientUnits="userSpaceOnUse">
      <stop
         stop-color="#00bf00"
         offset="0"
         id="stop122" />
      <stop
         stop-color="#060"
         offset=".92941"
         id="stop124" />
    </radialGradient>
    <radialGradient
       id="gradient23-4"
       cx="0"
       cy="0"
       r="819.2"
       gradientTransform="matrix(0.02465524,0,0,0.02465524,26.987005,7.731099)"
       gradientUnits="userSpaceOnUse">
      <stop
         stop-color="#00bf00"
         offset="0"
         id="stop127" />
      <stop
         stop-color="#060"
         offset=".92941"
         id="stop129" />
    </radialGradient>
    <linearGradient
       id="gradient24-0"
       x1="-819.2"
       x2="819.2"
       gradientTransform="matrix(-0.00383332,-4.35605e-4,-0.00104545,0.00845074,20.849381,18.513268)"
       gradientUnits="userSpaceOnUse">
      <stop
         stop-color="#669"
         offset="0"
         id="stop132" />
      <stop
         stop-color="#99c"
         offset="1"
         id="stop134" />
    </linearGradient>
    <linearGradient
       id="gradient25-6"
       x1="-819.2"
       x2="819.2"
       gradientTransform="matrix(-0.00365908,-4.35605e-4,-9.58331e-4,0.00810225,20.849381,18.68751)"
       gradientUnits="userSpaceOnUse">
      <stop
         stop-color="#99c"
         offset="0"
         id="stop137" />
      <stop
         stop-color="#eee"
         offset="1"
         id="stop139" />
    </linearGradient>
    <linearGradient
       id="gradient26-4"
       x1="-819.2"
       x2="819.2"
       gradientTransform="matrix(-6.96968e-4,0.00557574,0.01001892,0.00121969,17.146739,31.537858)"
       gradientUnits="userSpaceOnUse">
      <stop
         stop-color="#99c"
         offset="0"
         id="stop142" />
      <stop
         stop-color="#669"
         offset="1"
         id="stop144" />
    </linearGradient>
    <radialGradient
       id="gradient27-4"
       cx="0"
       cy="0"
       r="819.2"
       gradientTransform="matrix(0.01507193,0,0,0.01507193,12.964931,30.013241)"
       gradientUnits="userSpaceOnUse">
      <stop
         stop-color="#fff"
         offset="0"
         id="stop147" />
      <stop
         stop-color="#ddd"
         offset=".28235"
         id="stop149" />
      <stop
         stop-color="#99c"
         offset="1"
         id="stop151" />
    </radialGradient>
    <linearGradient
       id="gradient28-6"
       x1="-819.2"
       x2="819.2"
       gradientTransform="matrix(-0.00339772,-4.35605e-4,-6.09847e-4,0.00531438,20.283095,29.96968)"
       gradientUnits="userSpaceOnUse">
      <stop
         stop-color="#669"
         offset="0"
         id="stop154" />
      <stop
         stop-color="#99c"
         offset="1"
         id="stop156" />
    </linearGradient>
    <linearGradient
       id="gradient29-2"
       x1="-819.2"
       x2="819.2"
       gradientTransform="matrix(-6.96968e-4,0.0054015,0.00357196,4.35605e-4,20.065292,30.100362)"
       gradientUnits="userSpaceOnUse">
      <stop
         stop-color="#339"
         offset="0"
         id="stop159" />
      <stop
         stop-color="#66c"
         offset=".28627"
         id="stop161" />
      <stop
         stop-color="#ccc"
         offset="1"
         id="stop163" />
    </linearGradient>
    <linearGradient
       id="gradient30-9"
       x1="-819.2"
       x2="819.2"
       gradientTransform="matrix(-0.00740528,-0.00940907,-0.01045452,0.00818937,19.978171,20.42993)"
       gradientUnits="userSpaceOnUse">
      <stop
         stop-color="#66c"
         offset="0"
         id="stop166" />
      <stop
         stop-color="#999"
         offset="1"
         id="stop168" />
    </linearGradient>
    <radialGradient
       id="gradient31-4"
       cx="0"
       cy="0"
       r="819.2"
       gradientTransform="matrix(0.01855677,0,0,0.01855677,20.283095,13.634493)"
       gradientUnits="userSpaceOnUse">
      <stop
         stop-color="#cff"
         offset="0"
         id="stop171" />
      <stop
         stop-color="#cff"
         offset=".094118"
         id="stop173" />
      <stop
         stop-color="#09f"
         offset="1"
         id="stop175" />
    </radialGradient>
    <linearGradient
       id="gradient32-7"
       x1="-819.2"
       x2="819.2"
       gradientTransform="matrix(-0.00514014,-0.0066212,-0.01010604,0.00792801,22.373999,20.473491)"
       gradientUnits="userSpaceOnUse">
      <stop
         stop-color="#99c"
         offset="0"
         id="stop178" />
      <stop
         stop-color="#fff"
         offset="1"
         id="stop180" />
    </linearGradient>
    <linearGradient
       id="gradient33-2"
       x1="-819.2"
       x2="819.2"
       gradientTransform="matrix(-0.00731816,0.00278787,3.48484e-4,9.58331e-4,20.108853,25.962114)"
       gradientUnits="userSpaceOnUse">
      <stop
         stop-color="#66c"
         offset="0"
         id="stop183" />
      <stop
         stop-color="#99c"
         offset=".078431"
         id="stop185" />
      <stop
         stop-color="#fff"
         offset="1"
         id="stop187" />
    </linearGradient>
    <linearGradient
       id="gradient34-0"
       x1="-819.2"
       x2="819.2"
       gradientTransform="matrix(-0.00139394,0.00304924,0.00252651,0.00121969,18.497115,30.84089)"
       gradientUnits="userSpaceOnUse">
      <stop
         stop-color="#99c"
         offset="0"
         id="stop190" />
      <stop
         stop-color="#eee"
         offset="1"
         id="stop192" />
    </linearGradient>
    <linearGradient
       id="gradient35-5"
       x1="-819.2"
       x2="819.2"
       gradientTransform="matrix(-0.00461741,0,0,0.01019316,10.917587,24.74242)"
       gradientUnits="userSpaceOnUse">
      <stop
         stop-color="#669"
         offset="0"
         id="stop195" />
      <stop
         stop-color="#99c"
         offset="1"
         id="stop197" />
    </linearGradient>
    <linearGradient
       id="gradient36-9"
       x1="-819.2"
       x2="819.2"
       gradientTransform="matrix(-0.00444317,0,0,0.00984467,11.004709,24.916662)"
       gradientUnits="userSpaceOnUse">
      <stop
         stop-color="#99c"
         offset="0"
         id="stop200" />
      <stop
         stop-color="#eee"
         offset="1"
         id="stop202" />
    </linearGradient>
    <linearGradient
       id="gradient37-1"
       x1="-819.2"
       x2="819.2"
       gradientTransform="matrix(0,0.00670832,0.01210982,0,10.481982,40.554881)"
       gradientUnits="userSpaceOnUse">
      <stop
         stop-color="#99c"
         offset="0"
         id="stop205" />
      <stop
         stop-color="#669"
         offset="1"
         id="stop207" />
    </linearGradient>
    <radialGradient
       id="gradient38-1"
       cx="0"
       cy="0"
       r="819.2"
       gradientTransform="matrix(0.01838253,0,0,0.01838253,5.1240405,39.073824)"
       gradientUnits="userSpaceOnUse">
      <stop
         stop-color="#fff"
         offset="0"
         id="stop210" />
      <stop
         stop-color="#ddd"
         offset=".28235"
         id="stop212" />
      <stop
         stop-color="#99c"
         offset="1"
         id="stop214" />
    </radialGradient>
    <linearGradient
       id="gradient39-7"
       x1="-819.2"
       x2="819.2"
       gradientTransform="matrix(-0.00418181,0,0,0.00644695,13.531217,38.246175)"
       gradientUnits="userSpaceOnUse">
      <stop
         stop-color="#669"
         offset="0"
         id="stop217" />
      <stop
         stop-color="#99c"
         offset="1"
         id="stop219" />
    </linearGradient>
    <linearGradient
       id="gradient40-7"
       x1="-819.2"
       x2="819.2"
       gradientTransform="matrix(0,0.00653407,0.00435605,0,13.531217,38.376857)"
       gradientUnits="userSpaceOnUse">
      <stop
         stop-color="#339"
         offset="0"
         id="stop222" />
      <stop
         stop-color="#66c"
         offset=".28627"
         id="stop224" />
      <stop
         stop-color="#ccc"
         offset="1"
         id="stop226" />
    </linearGradient>
    <linearGradient
       id="gradient41-6"
       x1="-819.2"
       x2="819.2"
       gradientTransform="matrix(-0.01019316,-0.01019316,-0.01123861,0.01123861,11.483874,27.31249)"
       gradientUnits="userSpaceOnUse">
      <stop
         stop-color="#66c"
         offset="0"
         id="stop229" />
      <stop
         stop-color="#999"
         offset="1"
         id="stop231" />
    </linearGradient>
    <radialGradient
       id="gradient42-4"
       cx="0"
       cy="0"
       r="819.2"
       gradientTransform="matrix(0.02326131,0,0,0.02326131,11.396753,18.121224)"
       gradientUnits="userSpaceOnUse">
      <stop
         stop-color="#cff"
         offset="0"
         id="stop234" />
      <stop
         stop-color="#cff"
         offset=".094118"
         id="stop236" />
      <stop
         stop-color="#09f"
         offset="1"
         id="stop238" />
    </radialGradient>
    <linearGradient
       id="gradient43-9"
       x1="-819.2"
       x2="819.2"
       gradientTransform="matrix(-0.00714392,-0.00714392,-0.01089013,0.01089013,12.83425,27.965897)"
       gradientUnits="userSpaceOnUse">
      <stop
         stop-color="#99c"
         offset="0"
         id="stop241" />
      <stop
         stop-color="#fff"
         offset="1"
         id="stop243" />
    </linearGradient>
    <linearGradient
       id="gradient44-0"
       x1="-819.2"
       x2="819.2"
       gradientTransform="matrix(-0.00836362,0.00444317,6.09847e-4,0.00113257,13.008491,33.715883)"
       gradientUnits="userSpaceOnUse">
      <stop
         stop-color="#66c"
         offset="0"
         id="stop246" />
      <stop
         stop-color="#99c"
         offset=".078431"
         id="stop248" />
      <stop
         stop-color="#fff"
         offset="1"
         id="stop250" />
    </linearGradient>
    <linearGradient
       id="gradient45-0"
       x1="-819.2"
       x2="819.2"
       gradientTransform="matrix(-0.00121969,0.0037462,0.00322348,0.00104545,11.832358,39.770792)"
       gradientUnits="userSpaceOnUse">
      <stop
         stop-color="#99c"
         offset="0"
         id="stop253" />
      <stop
         stop-color="#eee"
         offset="1"
         id="stop255" />
    </linearGradient>
    <linearGradient
       x2="819.20001"
       x1="-819.20001"
       spreadMethod="pad"
       id="gradient0-1"
       gradientUnits="userSpaceOnUse"
       gradientTransform="matrix(-0.06871152,-0.06871152,-0.06871152,0.06871152,-137.76921,19.341771)">
      <stop
         id="stop4093"
         stop-color="#003399"
         offset="0.0" />
      <stop
         id="stop4095"
         stop-color="#0099ff"
         offset="0.47058823529411764" />
      <stop
         id="stop4097"
         stop-color="#ccffff"
         offset="1.0" />
    </linearGradient>
    <radialGradient
       spreadMethod="pad"
       r="819.20001"
       id="gradient1-6-3"
       gradientUnits="userSpaceOnUse"
       gradientTransform="matrix(0.15259312,0,0,0.15259312,-147.36205,-19.475779)"
       cy="0"
       cx="0">
      <stop
         id="stop4100"
         stop-color="#ffffff"
         offset="0.0" />
      <stop
         id="stop4102"
         stop-color="#ccffff"
         offset="0.0784313725490196" />
      <stop
         id="stop4104"
         stop-color="#0099ff"
         offset="0.2980392156862745" />
      <stop
         id="stop4106"
         stop-color="#0066cc"
         offset="0.5372549019607843" />
      <stop
         id="stop4108"
         stop-color="#003399"
         offset="0.7529411764705882" />
      <stop
         id="stop4110"
         stop-color="#9999ff"
         offset="1.0" />
    </radialGradient>
    <radialGradient
       spreadMethod="pad"
       r="819.20001"
       id="gradient2-62"
       gradientUnits="userSpaceOnUse"
       gradientTransform="matrix(0.03321492,0.02554013,-0.0225253,0.02929414,177.21918,-98.257282)"
       cy="5091.1753"
       cx="-1495.2026"
       fx="-1495.2026"
       fy="5091.1753">
      <stop
         id="stop4113"
         stop-color="#00bf00"
         offset="0.0" />
      <stop
         id="stop4115"
         stop-color="#006600"
         offset="0.9294117647058824" />
    </radialGradient>
    <linearGradient
       x2="819.20001"
       x1="-819.20001"
       spreadMethod="pad"
       id="gradient0-1-3"
       gradientUnits="userSpaceOnUse"
       gradientTransform="matrix(-0.06871152,-0.06871152,-0.06871152,0.06871152,-137.76921,19.341771)">
      <stop
         id="stop4093-6"
         stop-color="#003399"
         offset="0.0" />
      <stop
         id="stop4095-7"
         stop-color="#0099ff"
         offset="0.47058823529411764" />
      <stop
         id="stop4097-5"
         stop-color="#ccffff"
         offset="1.0" />
    </linearGradient>
    <radialGradient
       spreadMethod="pad"
       r="819.20001"
       id="gradient1-6-35"
       gradientUnits="userSpaceOnUse"
       gradientTransform="matrix(0.15259312,0,0,0.15259312,-147.36205,-19.475779)"
       cy="0"
       cx="0">
      <stop
         id="stop4100-6"
         stop-color="#ffffff"
         offset="0.0" />
      <stop
         id="stop4102-2"
         stop-color="#ccffff"
         offset="0.0784313725490196" />
      <stop
         id="stop4104-9"
         stop-color="#0099ff"
         offset="0.2980392156862745" />
      <stop
         id="stop4106-1"
         stop-color="#0066cc"
         offset="0.5372549019607843" />
      <stop
         id="stop4108-2"
         stop-color="#003399"
         offset="0.7529411764705882" />
      <stop
         id="stop4110-7"
         stop-color="#9999ff"
         offset="1.0" />
    </radialGradient>
    <radialGradient
       spreadMethod="pad"
       r="819.20001"
       id="gradient2-62-0"
       gradientUnits="userSpaceOnUse"
       gradientTransform="matrix(0.02505944,0.0256964,-0.02645566,0.02579988,185.48603,-80.700229)"
       cy="4962.9082"
       cx="-1378.1122"
       fx="-1378.1122"
       fy="4962.9082">
      <stop
         id="stop4113-9"
         stop-color="#00bf00"
         offset="0.0"
         style="stop-color:#b7f4b6;stop-opacity:1" />
      <stop
         id="stop25860"
         stop-color="#00bf00"
         offset="0.48698449"
         style="stop-color:#009200;stop-opacity:1;" />
      <stop
         id="stop4115-3"
         stop-color="#006600"
         offset="0.9294117647058824" />
    </radialGradient>
    <linearGradient
       x2="819.20001"
       x1="-819.20001"
       spreadMethod="pad"
       id="gradient0-1-36"
       gradientUnits="userSpaceOnUse"
       gradientTransform="matrix(-0.06721779,-0.06721779,-0.06721779,0.06721779,-139.50058,17.615253)">
      <stop
         id="stop4093-7"
         stop-color="#003399"
         offset="0.0" />
      <stop
         id="stop4095-5"
         stop-color="#0099ff"
         offset="0.47058823529411764" />
      <stop
         id="stop4097-3"
         stop-color="#ccffff"
         offset="1.0" />
    </linearGradient>
    <radialGradient
       spreadMethod="pad"
       r="819.20001"
       id="gradient1-6-5"
       gradientUnits="userSpaceOnUse"
       gradientTransform="matrix(0.14927588,0,0,0.14927588,-148.88488,-20.358437)"
       cy="0"
       cx="0"
       fx="0"
       fy="0"
       fr="0">
      <stop
         id="stop4100-62"
         stop-color="#ffffff"
         offset="0.0" />
      <stop
         id="stop4102-9"
         stop-color="#ccffff"
         offset="0.0784313725490196" />
      <stop
         id="stop4104-1"
         stop-color="#0099ff"
         offset="0.2980392156862745" />
      <stop
         id="stop4106-2"
         stop-color="#0066cc"
         offset="0.5372549019607843" />
      <stop
         id="stop4108-7"
         stop-color="#003399"
         offset="0.7529411764705882" />
      <stop
         id="stop4110-0"
         stop-color="#9999ff"
         offset="1.0"
         style="stop-color:#003399;stop-opacity:1" />
    </radialGradient>
    <radialGradient
       xlink:href="#linearGradient112945"
       id="radialGradient112947"
       cx="17.520464"
       cy="11.413896"
       fx="17.520464"
       fy="11.413896"
       r="18.71875"
       gradientTransform="matrix(2.902442,4.2729138,-4.0226818,2.732468,-164.46482,-137.93413)"
       gradientUnits="userSpaceOnUse" />
    <linearGradient
       id="linearGradient112945">
      <stop
         style="stop-color:#c1fabb;stop-opacity:1"
         offset="0"
         id="stop112941" />
      <stop
         style="stop-color:#6ccf3b;stop-opacity:1"
         offset="0.28949517"
         id="stop133158" />
      <stop
         style="stop-color:#009100;stop-opacity:1"
         offset="0.61972094"
         id="stop173606" />
      <stop
         style="stop-color:#0f661e;stop-opacity:1"
         offset="1"
         id="stop112943" />
    </linearGradient>
    <radialGradient
       spreadMethod="pad"
       r="819.20001"
       id="gradient1-6-7"
       gradientUnits="userSpaceOnUse"
       gradientTransform="matrix(0.14927588,0,0,0.14927588,-148.88488,-20.358437)"
       cy="0"
       cx="0"
       fx="0"
       fy="0"
       fr="0">
      <stop
         id="stop4100-5"
         stop-color="#ffffff"
         offset="0.0"
         style="stop-color:#ffffff;stop-opacity:0" />
      <stop
         id="stop4108-8"
         stop-color="#003399"
         offset="0.7529411764705882"
         style="stop-color:#9999ff;stop-opacity:0.05691801" />
      <stop
         id="stop4110-9"
         stop-color="#9999ff"
         offset="1.0" />
    </radialGradient>
  </defs>
  <g
     id="g1224">
    <g
       id="g1529"
       transform="matrix(0.19959896,0,0,0.19959896,57.710231,11.991515)">
      <path
         d="m -217.41211,17.615253 q 0,32.08121 22.69691,54.996374 22.91517,22.696914 55.21462,22.696914 32.08124,0 54.996379,-22.696914 22.696933,-22.915164 22.696933,-54.996374 0,-32.29946 -22.696933,-54.996379 -22.915139,-22.696917 -54.996379,-22.696917 -32.29945,0 -55.21462,22.696917 -22.69691,22.696919 -22.69691,54.996379"
         id="path3998"
         style="fill:url(#gradient0-1-36);fill-rule:evenodd;stroke:none;stroke-width:0.978261" />
      <path
         d="m -213.04731,17.615253 q 0,30.335298 21.38747,51.94102 21.60572,21.605723 52.15926,21.605723 30.33531,0 52.159275,-21.605723 21.387473,-21.605722 21.387473,-51.94102 0,-30.553544 -21.387473,-52.159264 -21.823965,-21.605719 -52.159275,-21.605719 -30.55354,0 -52.15926,21.605719 -21.38747,21.60572 -21.38747,52.159264"
         id="path4000"
         style="fill:url(#gradient1-6-5);fill-rule:evenodd;stroke:none;stroke-width:0.978261" />
      <path
         d="m -147.79343,-55.273706 v 0.433557 h -0.43356 v 0.433556 h -1.74867 v 0.440782 h -1.74868 v 0.650335 h -0.43356 v 1.748677 h 0.87434 v 0.433556 h 3.92369 v 0.440782 h -2.18223 v 0.874339 h -0.43356 v -0.440782 h -1.74868 v 0.874338 h 0.44078 v 1.307895 h -0.44078 v 0.874339 h -0.86711 v 0.433556 h -0.44078 v 0.440782 h -0.43356 v 0.433556 h -0.44078 v 1.091117 h -0.65034 v 0.440783 h -0.44078 v 0.867112 h 0.44078 v 0.440782 h 1.09112 v 0.433557 h 1.74145 v 0.440782 h 1.74868 v -0.440782 h 0.87434 v -1.307895 h 0.43355 v -0.433556 h 0.87434 v -0.440783 h 0.43356 v -0.433556 h 0.44078 v -0.657561 h 0.43356 v -0.874338 h 0.65756 v -0.433556 h 1.74145 v -0.433557 h 0.44078 v 0.867113 h -0.44078 v 0.874338 h 1.31512 v 1.091117 h 0.43355 v 0.440783 h -0.43355 v 0.433556 h -1.74868 v 0.433556 h -0.43355 v 0.440782 h -2.40624 v 0.433557 h -0.43356 v 0.440782 h -0.43356 v 0.433556 h 0.43356 v 0.440782 h 0.87434 v 0.433557 h 1.09112 v 0.433556 h 0.43355 v 0.440782 h -1.96545 v 1.307895 h 0.44078 v 0.874339 h 2.83257 v 1.091116 h 0.87434 v -0.65756 h 1.30789 v -0.433556 h 3.49736 v 0.433556 h 0.65033 v 0.65756 h 0.44078 v 1.307895 h 0.43356 v 0.433557 h 0.43355 v 3.497352 h -0.43355 v 0.433558 h -0.43356 v 0.433558 h 1.74145 v 0.44078 h -0.43355 v 0.433558 h 0.43355 v 0.44078 h 1.31512 v 0.650338 h 0.43356 v 0.440779 h -0.43356 v 0.433559 h -0.87433 v 0.874338 h -0.44079 v 0.433554 h -0.43355 v 0.440784 h 0.43355 v 1.741451 h 0.44079 v 0.874338 h 0.43355 v 0.874338 h 0.44078 v 0.874338 h 0.43356 v 0.433558 h 0.43356 v 1.091117 h 0.44078 v 0.44078 h 0.43356 v 0.433558 h 2.18223 v 0.433555 h 1.96546 v -1.307893 h 0.43355 v -1.524675 h 1.09112 v -1.307893 h 0.44078 v -0.874338 h 1.3079 v -0.440783 h 1.30789 v -0.433555 h 0.44078 v -0.440784 h 0.43356 v -0.433558 h 0.43356 v -0.874338 h 1.74867 v -0.433554 h 0.43356 v -0.440784 h 0.44078 v 0.440784 h 0.87434 v -0.440784 h 1.52467 v -0.433554 h 0.43356 v -0.433559 h 1.31512 v -0.440779 h 0.43355 v -1.091118 h 0.44079 v -1.741454 h -0.44079 v -0.44078 h -0.43355 v -1.741451 h 1.30789 v -0.440783 h 0.43356 v -0.433556 h 0.44078 v -0.440782 h 0.43356 v -0.433557 h 0.44078 v -1.307895 h -0.44078 v -0.65756 h -0.43356 v -0.433556 h 2.18223 v -0.874339 h -0.44078 v -0.433556 h -0.43355 v -0.874339 h -0.43356 v -0.874338 h -1.31512 v -0.433557 h -1.3079 v 1.741452 h -0.43355 v 0.874338 h -0.44078 v -1.748677 h -0.43356 v -0.433556 h 0.43356 v -1.307895 h 0.87433 v 0.433556 h 0.87434 v -1.307895 h 1.74868 v -0.874338 h -0.44078 v -0.433556 h -1.74145 v 0.867112 h -0.87434 v 0.440782 h -0.44078 v -1.307894 h 0.44078 v -0.440783 h 3.49013 v -0.433556 h 0.43355 v -0.657561 h -2.18223 v -0.433556 h 0.44078 v -0.874338 h 0.43356 v -0.433557 h 0.87434 v -0.440782 h 0.43355 v -1.307895 h 0.44078 v -0.874338 h -0.87433 v -0.433557 h -2.18224 v 1.307895 h -0.43355 v 0.433557 h -0.44079 v 0.440782 h -0.87433 v -0.440782 h 0.44078 v -0.433557 h 0.43355 v -0.433556 h 0.44079 v -1.315121 h -2.62302 v -0.433556 h 0.43356 v -0.874339 h -0.43356 v -0.433556 h -1.96545 v -0.440782 h -1.74145 v -0.650335 h -1.74868 v -0.440782 h -5.02203 v 0.440782 h -0.86711 v 0.650335 h -1.5319 v 0.440782 h -0.43356 v 0.433556 h -1.30789 v 0.440782 h -0.44078 v 0.433557 h -2.18224 v 0.433556 h -2.18223 v 0.440782 h -2.39901 v 0.433557 h -1.3079 v -0.433557 h 0.86711 v -0.440782 h 0.87435 v -0.433556 h -0.43356 v -0.433557 h -0.44079 v -1.965455 h -0.43355 v -0.440782 h -0.43356 v -0.433556 h -0.44078 v -0.433557 h -3.05657 v 0.433557 h -1.3079 v -0.433557 z m -10.26083,1.95823 v 0.874338 h -0.43356 v 1.307895 h -0.43355 v -0.433556 h -0.87434 v -0.874339 h -1.74868 v 0.440782 h -1.52467 v 0.433557 h 1.09112 v 0.433556 h 0.43355 v 0.440782 h 0.87434 v 0.433557 h 1.3079 v -0.433557 h 0.44078 v 0.874339 h 0.43355 v 0.433556 h -0.43355 v 0.433557 h 0.86711 v 0.874338 h -0.43356 v 0.440782 h 0.43356 v 1.307895 h 3.05657 v -0.874338 h 0.44078 v -0.433557 h 0.65034 v -0.874338 h 0.44078 v -1.307895 h -1.09112 v -1.748677 h -0.44078 v -0.433557 h -0.43355 v -0.440782 h -1.3079 v -0.874338 z m -6.3227,1.748677 v 0.433556 h 0.43356 v -0.433556 z m -3.05657,1.307895 v 0.440782 h -1.3079 v 0.433556 h -0.87433 v 0.874339 h 1.74145 v 1.741451 h 1.31512 v 0.440782 h 0.43356 v -0.440782 h 0.43355 v 0.440782 h 0.44079 v 3.706907 h -0.87434 v 0.874338 h -0.43356 v 0.440782 h -0.44078 v 0.867113 h 0.44078 v 3.056572 h 1.3079 v -1.307895 h 0.43355 v -0.433556 h 0.87434 v -0.440782 h 0.43356 v -0.433557 h 0.44078 v -1.307895 h 0.43355 v -0.440782 h 3.27336 v -0.433556 h 0.87433 v 0.433556 h 1.3079 v 1.748677 h 4.58847 v -1.307895 h -0.44078 v -0.874338 h -2.8398 v -3.056572 h -0.86711 v -0.657561 h -1.74868 v -0.433556 h -1.74867 v 0.433556 h -1.74145 v -0.433556 h -0.65757 v -0.440782 h -0.87433 v -0.867113 h -0.43356 v -0.874338 h -1.74868 v -0.440782 h -0.43355 v -0.433557 h -0.87434 v -0.874338 z m -4.14769,1.748677 v 0.433556 h -0.87434 v 0.440782 h -0.87434 v 0.433557 h -0.87433 v 0.433556 h 0.44078 v 0.440782 h 0.87434 v 0.433556 h 0.43355 v 1.091117 h 0.44079 v 0.440783 h 1.52467 v 0.433556 h 2.61579 v -0.433556 h 0.87434 v -1.965456 h -3.05657 v 1.091117 h -0.43356 v -2.399012 h 0.43356 v -0.874338 z m -5.67236,3.27335 v 0.433556 h -0.87434 v 0.440783 h -0.44078 v 0.433556 h -1.09112 v 0.433556 h -0.43355 v 0.440782 h -0.87434 v 0.433557 h 0.87434 v 0.874338 h 2.39901 v -0.433556 h 1.74868 v -0.440782 h 0.87433 v -0.874339 h 0.43356 v -0.867112 h -0.43356 v -0.440783 h -1.31512 v -0.433556 z m 4.36447,2.182233 v 0.433557 h -0.44079 v 1.748677 h -1.30789 v 1.307895 h 0.43356 v 0.440782 h 0.44078 v 0.433556 h 0.43355 v 0.874339 h 0.87434 v 0.433556 h 2.39902 v -0.433556 h 0.44078 v 1.091116 h -0.44078 v 0.433557 h -0.43356 v 0.874338 h -1.09112 v 0.874339 h -0.87434 v -1.307895 h -1.30789 v -0.440782 h -1.3079 v -1.091117 h -0.44078 v -2.61579 h -0.43355 v -0.440782 h -1.3079 v 0.440782 h -0.44078 v -0.440782 h -1.96546 v -0.433556 h -1.30789 v 0.874338 h -0.43356 v -1.307895 h -0.87434 v -0.440782 h -0.43355 v 0.440782 h -0.44079 v 0.867113 h -0.43355 v -0.433556 h -0.44078 v 0.433556 h -0.43356 v 0.440782 h -0.43356 v 0.433557 h -0.44078 v 0.440782 h -0.87434 v 0.433556 h -0.43355 v 0.433557 h 0.87434 v -0.433557 h 0.43355 v 0.874339 h 0.44078 v 1.524673 h 0.86712 v 0.440782 h 1.74867 v -0.440782 h 0.87434 v 0.440782 h 0.87434 v 0.433556 h -3.49735 v 1.307895 h 0.44078 v 0.440783 h 1.30789 v 0.433556 h 0.43356 v 0.433556 h 2.18223 v -0.433556 h 2.40624 v -0.433556 h 1.3079 v 0.433556 h 2.18223 v -0.433556 h 0.43355 v -0.874339 h 0.44079 v 1.307895 h 0.87434 v 0.433556 h 0.86711 v -0.433556 h 1.09112 v 0.433556 h 0.44078 v 0.874339 h 0.43355 v 0.44078 h 0.44078 v 0.867116 h -0.44078 v 0.44078 h -1.30789 v -0.44078 h 0.43356 v -0.867116 h -2.83257 v 1.307896 h -1.74868 v 0.433558 h -0.43356 v -0.433558 h -0.44078 v -0.44078 h -0.43355 v -0.433558 h -1.3079 v -0.874338 h -0.44078 v -0.433557 h -0.43356 v 0.433557 h -1.96545 v 0.44078 h -0.43356 v 1.307896 h 0.43356 v 0.433558 h -0.43356 v 0.44078 h -0.44078 v -0.874338 h -0.43356 v -0.44078 h -0.87434 v 0.44078 h -2.18223 v -0.44078 h 0.43356 v -1.307896 h -0.43356 v -0.433557 h -0.43356 v -0.440782 h -0.87433 v 0.874339 h -0.44079 v -0.433557 h -0.43355 v -0.440782 h -0.65756 v -0.433556 h -0.86712 v -0.433556 h -0.87433 v -0.440783 l -3.04935,-0.0072 c -0.6911,0.643684 -3.2026,3.213602 -6.75625,7.861821 -2.43507,3.185088 -4.64239,6.676703 -5.60733,8.714483 l 0.57085,0.02183 v 0.867113 h 0.43355 v 0.440783 h 0.44079 v 0.433555 h 1.96545 v 0.440783 h 1.3079 v 0.433555 h 0.43355 v 0.433558 h 0.44078 v 0.874186 h 0.86712 v 1.531898 h 0.44078 v 0.433558 h 0.87434 v 0.433558 h -0.44078 v 1.3151179 h 0.44078 v 1.5246754 h 0.43355 v 0.4335544 h 0.43356 v 0.4407836 h 0.44078 v 0.8743381 h 0.65034 v 0.4335545 h 0.87434 v 0.4335582 h 0.44078 v 0.4407836 h 0.87434 v 0.4335544 h 0.43355 v 0.4407837 h 0.43356 v 3.2733478 h -0.43356 v 2.1822343 h -0.43355 v 4.364465 h 0.43355 v 0.8743418 h 0.43356 v 1.0911135 h 0.44078 v 0.4335582 h 0.43356 v 0.8743381 h 0.87434 v 0.874338 h 0.43355 v 0.4335582 h 0.44079 v 0.4335543 h 1.30789 v 0.440784 h 0.43356 v 1.307896 h 0.65756 v 0.433555 h 0.43355 v 0.874338 h 0.44079 v 0.440783 h 0.43355 v 1.091117 h 0.44078 v 0.874339 h 0.86712 v 0.433554 h 0.44078 v 0.433558 h 0.43355 v 0.874338 h 0.44079 v 0.440784 h 0.43355 v 0.867109 h 0.87434 v 0.440783 h 1.3079 v -0.874338 h -0.43356 V 18.05512 h -0.44078 v -0.874342 h -0.43356 v -0.44078 h -0.44078 v -0.867112 h 0.87434 v 0.867112 h 0.44078 v 0.44078 h 0.86711 v 0.874342 h 1.09112 v 0.433554 h 0.44078 v 0.433555 h 0.43356 v 1.74868 h 0.44078 v 1.307892 h 0.86711 v 0.440784 h 1.74868 v 0.650333 h 0.87434 v 0.440784 h 2.18223 v 0.867113 h 5.02203 v 0.44078 h 0.43356 v 0.433558 h 0.43355 v 0.440783 h 0.44079 v 0.433555 h 1.30789 v 0.433558 h 0.87434 v 0.44078 h 0.43355 v 0.874338 h 0.65757 v 1.307896 h 0.87433 v 0.433558 h 3.04935 v 0.44078 h 1.74868 v 0.433559 h 0.43355 v 1.965455 h -0.43355 v 0.874338 h -0.43356 v 0.867112 h -0.44078 v 1.315122 h -0.43356 v 0.874338 h -0.87434 v 0.433555 h -0.43355 v 1.748676 h -0.44078 v 1.091117 h 0.44078 v 1.307896 h 0.43355 v 0.433555 h 0.43356 v 0.440783 h 0.44078 v 0.867113 h 0.43356 v 0.874338 h 0.44078 v 2.182235 h 0.43356 v 0.440779 h 0.43355 v 0.433559 h 0.44079 v 0.433558 h 0.43355 v 0.657559 h 1.09112 v 0.433554 h 0.87434 v 0.440784 h 0.44078 v 0.433558 h 0.43355 v 0.44078 h 0.43356 v 7.197037 h -0.43356 v 1.315118 h -0.43355 v 3.049347 h -0.44078 v 2.406238 h -0.43356 v 1.307893 h -0.44078 v 3.273352 h 0.44078 v 0.433558 h -0.44078 v 0.874338 h -0.65034 v 0.874338 h 0.65034 v 3.490127 h -0.65034 v 0.440783 h -0.44078 v 1.95823 h -0.43355 v 5.238803 h 0.43355 v 0.440784 h 0.44078 v 0.433554 h 0.65034 v 0.433559 h 0.87434 v -0.433559 h 0.87433 v 0.433559 h 0.43356 V 83.7389 h -0.86711 v 1.315118 h 0.86711 v 0.867116 h 1.74868 v 0.44078 h 0.87434 v -0.44078 h 0.87433 v 0.44078 h 0.86712 v -0.874338 h 0.44078 V 84.17968 h -0.44078 V 83.7389 h -0.43356 v -0.433558 h -1.30789 v -0.657559 h -0.44078 v -0.433559 h -0.43356 v -1.748676 h -0.43356 v -0.867112 h 0.43356 v -0.440784 h 0.43356 v -0.874338 h 0.44078 v -0.433555 h 0.43355 v -0.433558 h 0.44078 v -2.18223 h -0.87433 V 73.70207 h 0.87433 v -0.433555 h 0.43356 v -1.315121 h 0.43356 v -0.867113 h 0.44078 v -1.315122 h -0.44078 v -0.433554 h 1.5319 v -0.874338 h 0.43355 V 67.15537 h 1.3079 v 0.433555 h 0.87434 V 67.15537 h 0.87433 v -0.433558 h 0.43356 v -2.839793 h -0.43356 v -0.433555 h 2.61579 v -0.657562 h 0.44079 v -0.874338 h 0.43356 v -0.874338 h 0.44078 v -0.867113 h 0.65033 v -1.315122 h 0.44078 v -0.433554 h 0.43356 v -0.874338 h 0.43355 v -0.874338 h 0.44079 v -1.524676 h 0.43355 v -0.433554 h 0.44079 v -0.440784 h 0.87433 v -0.874338 h 1.74146 v -0.433554 h 0.87433 v -0.440784 h 0.43356 v -0.433558 h 0.44078 v -0.433555 h 0.43356 v -0.440783 h 0.44078 v -0.874338 h 0.65034 v -2.182235 h 0.44078 v -1.95823 h 0.43356 v -0.874338 h 0.43355 v -0.874338 h 0.44078 v -0.433554 h 0.65034 v -0.874338 h 0.44078 V 42.71002 h 0.43355 v -3.706906 h -0.87433 v -0.433558 h -1.09112 v -0.44078 h -0.43355 v -0.433558 h -1.52468 v -0.44078 h -1.74868 V 36.82088 h -1.30789 v -1.307893 h -3.93091 v -2.182234 h -0.43356 v -0.440784 h -0.44078 v -0.433554 h -0.65033 v -0.440784 h -0.87434 v -0.433554 h -0.44079 v -0.657563 h -1.74145 V 30.49096 h -0.87434 v -0.433559 h -0.43355 v -0.44078 h -0.44078 v -0.433558 h -0.43356 V 28.74228 h -0.44078 v -0.433555 h -0.43356 v -0.433558 h -0.87434 v -0.44078 h -2.83257 v 0.44078 h -0.44078 v -0.44078 h -0.43355 v -0.433558 h -0.87434 v -0.874338 h -2.18224 v 0.433558 h -0.87433 v 0.44078 h -1.52468 v 0.433558 h -0.44078 v 0.874338 h -0.43355 v 0.433555 h -0.44079 v -0.433555 h -1.74145 v 0.433555 h -0.87434 v -0.433555 h -0.87433 v -0.433558 h -0.43356 v -0.874338 h -0.44078 v -0.44078 h 0.44078 v -3.049347 h -2.8398 v -2.839793 h 0.65757 v -1.307897 h -2.39902 v 0.433559 h -1.31512 v 0.874338 h -0.43355 v 0.433554 h -0.87434 v 0.440784 h -1.3079 v -0.440784 h -1.30789 v -0.433554 h -0.44078 v -1.307897 h -0.43356 v -0.874338 h -0.65756 v -1.307896 h -0.43356 v -1.748676 h 0.43356 v -0.433555 h 0.65756 v -0.657562 h 0.87434 V 13.90743 h 3.92368 v -0.440783 h 4.14769 v 0.440783 h 0.44078 v 1.524672 h 0.43356 v 0.874338 h 0.43356 v 0.433558 h 0.44078 v 0.44078 h 0.43356 v 0.433558 h 1.30789 v -0.433558 h 0.44078 v -1.307892 h -0.44078 v -0.874339 h -0.43356 V 13.90743 h -0.43355 v -1.748676 h 0.43355 v -0.874342 h 0.87434 v -0.433554 h 0.43356 v -0.440784 h 0.44078 V 9.5429615 h 0.86711 V 9.1021816 h 0.44079 V 8.6686235 h 0.43355 V 7.7942854 h -0.43355 V 7.3607272 h 0.87433 V 6.2696137 h 1.09112 v -2.623018 h 3.05657 V 3.2130413 h 0.43356 V 2.7722577 h -0.43356 V 2.3387032 H -150.85 V 1.905145 h 0.44078 V 1.4643614 h 0.43356 V 1.0308069 h 0.87434 v 0.4335545 h 1.74145 V 1.0308069 h 0.87434 V 0.59002331 h 1.09111 v -0.86711262 h -0.43355 v -0.44077993 h -0.65756 V -1.1514274 h -0.87434 v -0.657559 h -0.43356 v -1.3078963 h 0.43356 v -1.7486762 h -1.3079 v 0.4407837 h -0.43355 v -0.4407837 h 0.43355 v -0.4335544 h 3.27335 v -0.4407836 h 1.3079 v 0.4407836 h 0.87434 v -0.4407836 h 0.44078 v -0.4335582 h 0.43355 v -0.4335545 h 0.43356 v -0.4407836 h 0.87434 v -0.4335545 h 0.44078 v -1.7486761 h -0.44078 v -1.0911172 h -0.43356 v -0.433558 h -0.44078 v -0.44078 h -1.74145 v -0.433558 h -0.44078 v -1.524672 h -0.43356 v -0.440784 h -0.43355 v -0.874338 h -0.44079 v -1.307896 h -0.43355 v -0.874338 h -0.65756 v -0.867113 h -0.43356 v -0.874338 h -0.87434 v 0.433555 h -0.43356 v 1.307896 h -0.87433 v 0.440784 h -1.3079 v -0.440784 H -150.85 v -3.049347 h -0.87434 v -0.44078 h -0.43356 v -0.433558 h -0.43355 v -0.657559 h -2.83979 v -0.433558 h -0.44079 v -0.44078 h 1.31512 v -1.741451 h -0.87433 v 0.433555 h -0.44079 v 0.440783 h -0.86711 v -0.440783 h -0.44078 v -0.433555 h -0.43356 v -0.874338 h -0.87434 v -0.440784 h -0.43355 v -0.433558 h -0.87434 v -0.874338 h -0.44078 v 0.440784 h -0.43356 v 0.433554 h -0.87434 v 0.874342 h -0.43355 v 1.307893 h 0.87433 v 0.874338 h 1.3079 v -0.433555 h 0.43356 v -0.440783 h 0.87433 v 0.440783 h 0.87434 v 2.39901 h -0.44078 v 1.741451 h 0.44078 v 1.315121 h -0.44078 v 2.615789 h 0.44078 v 1.74868 h 0.43356 v 0.650334 h -0.43356 v 0.44078 h -0.44078 v 0.433558 h -0.43356 v 0.433558 h -0.43355 v 3.2733477 h 0.43355 v 0.8743381 h -0.43355 v 0.4407836 h -0.44078 v -0.4407836 h -0.43356 v -0.8743381 h -0.44078 v -0.4335544 h -0.43356 v -1.5246754 h -0.43356 v -1.3151179 h -0.44078 v -0.433558 h -4.14769 v -0.433558 h -0.43355 v -0.44078 h -0.43356 v -1.524676 h -0.44078 v -0.874338 h -0.87434 v -0.433554 h -0.43356 v -0.874338 h -0.43356 v 0.433554 h -0.44078 v -0.433554 h -0.43355 v -0.440784 h -0.44078 v -0.867113 h 0.44078 v -1.315121 h 0.43355 v -0.433555 h 0.44078 v -0.433558 h 0.43356 v -0.44078 h 0.43356 v -1.091117 h 0.87434 v -0.433558 h 2.18223 v -2.182231 h 0.44078 v -0.874338 h 0.43356 v -0.440784 h 0.43356 v -1.307896 h -0.86712 v -0.433554 h 1.3079 v 0.433554 h 1.09112 v -0.433554 h 1.74145 v -0.874338 h 0.44078 v -0.433559 h 0.43356 v -2.406235 h -0.87434 v -0.433558 h 0.44078 v -0.433558 h 0.43356 v -1.315119 h -0.87434 v -1.307895 h -2.39902 v 1.307895 h 0.65757 v 0.440782 h -0.65757 v 0.433557 h -0.43355 v 1.307896 h -0.44078 v -0.433558 h -0.43356 v -1.748677 h -0.87434 v 0.440782 h -0.43355 v -0.440782 h -1.3079 v -2.182233 h -0.44078 v -1.741452 h -0.43356 v -1.965455 h -2.18223 v -3.93091 h -0.44078 v -0.433557 z m 13.0934,20.514439 v 0.874338 h 1.74145 v -0.874338 z m 1.74145,-16.149972 v 1.307895 h -0.43356 v 1.531899 h -0.43355 v 0.867113 h 0.43355 v 0.440782 h 0.43356 v 0.874339 h 0.44078 v 1.307894 h 0.87434 v 0.433557 h 0.86711 v 1.748676 h 0.87434 v 0.433558 h 0.44078 v -0.433558 h 0.65034 v -1.748676 h 0.87434 v 0.44078 h 1.30789 v 0.433558 h 0.44078 v 0.433558 h 0.43356 v 0.44078 h 0.44078 v 2.399014 H -150.85 v 1.307892 h -0.43356 v 0.440784 h -0.44078 v -0.440784 h -0.86711 v 0.874338 h -0.44078 v 0.874342 h 0.44078 v 0.433555 h 2.18223 v 0.440783 h 0.86712 v 0.874338 h 0.44078 v 0.433555 h 0.87433 v 0.433558 h 0.43356 v 0.44078 h 1.3079 v -0.874338 h 0.65756 v 0.433558 h 0.87434 v -1.741451 h -0.44079 v -0.874338 h -0.43355 v -0.440784 h 0.43355 v -0.433558 h 1.3079 v -0.433554 h 0.87434 v -0.874338 h -0.43356 v -1.307897 h -1.30789 v -1.091117 h -0.44079 v -0.44078 h -1.09111 v -0.433558 h -0.87434 v -0.44078 h 0.87434 v -2.182235 h -0.87434 v -0.867112 h -0.43356 v -0.440783 h -0.87434 v -0.874338 h -1.30789 v -0.867113 h -0.43356 v -0.440782 h -2.62301 v -0.433557 h -0.87434 v -0.65756 h 0.44078 v -0.433556 h -0.44078 v -0.874339 z m 73.567279,7.197033 -0.672014,0.0074 v 0.433558 h -0.433554 v 0.874338 h -0.657559 v 1.524675 h -0.433558 v 0.874339 h -0.440784 v 0.874338 h -0.433554 v 1.307892 h -0.874338 v 0.874342 h -0.433559 v 0.874338 h -0.44078 v 0.874338 h -0.433558 v 0.433555 h -0.44078 v 0.433558 h -0.433558 v 0.44078 h -0.433558 v 0.433558 h -0.44078 v 0.657559 h -0.433558 v 0.433558 h -0.874338 v 0.44078 h -0.433555 v 0.433558 h -0.440783 v 0.433555 h -1.091117 v 0.440783 h 0.657562 v 0.433555 h -0.657562 v 1.307896 h 0.657562 v 1.748676 h -0.657562 v 0.874338 h 0.657562 v 1.524676 h 0.433555 v 0.440779 h 2.182234 v -0.440779 h 0.44078 v -0.650334 h 0.433558 v -0.874342 h 0.433558 v -0.44078 h 0.44078 v -0.433558 h 0.433558 v 1.74868 h -0.433558 v 1.091113 h 0.433558 v 1.307897 h 0.44078 v 0.8743378 h 0.433559 V -9.22985 h 1.748676 v -0.6503372 h 1.091117 v -0.8743378 h 0.433554 v -1.307897 h 0.433559 v -1.091113 h 0.440783 v -0.874342 h 0.433555 v -0.44078 h 0.440783 v -1.74145 h -0.874338 v -2.623018 h 0.433555 v -0.433555 h 0.440783 v -0.433558 h 0.867113 v -0.44078 h 0.44078 v 4.364465 h 0.433558 v 0.440784 h 0.874338 v 0.433554 h 0.433555 v 0.433558 h -0.433555 v 1.965456 h 0.433555 v 0.874338 h -0.433555 v -0.433559 h -0.433558 v -0.440779 h -0.44078 v 0.440779 h -0.433558 v 0.433559 h -0.44078 v 0.433558 h -0.433558 v 1.3151178 h -0.433555 V -8.78907 h -0.874338 v 0.4335581 h -0.440783 V -8.78907 h -0.867113 v 0.4335581 h -0.657559 v 0.4335545 h -1.74868 v -0.4335545 h -2.182231 v -1.9654551 h 0.44078 v -0.874338 h -0.44078 v -1.30807 h -0.433558 v 0.44078 h -0.874338 v 0.433558 h -0.433558 v 0.433558 h -0.44078 v 1.9654552 h 0.44078 v 1.7486761 h -0.874338 v 0.4335545 h -1.965455 v 0.8743381 h -0.433555 v 0.8743418 h -0.440784 v 0.4335544 h -0.433554 v 0.4407837 h -0.440784 v -1.7486799 h -0.433558 v -0.4335545 h -0.433554 v -0.4407836 h -0.440784 v -0.8743381 h -0.433554 v -0.4335544 h -0.440784 v -3.7069093 h -1.307893 v -0.44078 h -0.43356 v -0.650334 h 0.43356 v -0.874342 h -1.74145 v 0.433558 h -0.44078 v 1.531898 h -0.65034 v 1.741454 h 0.65034 v 1.0911172 h -2.83257 v 1.3078925 h -0.44079 v -0.4335544 h -0.87433 v 0.4335544 h -0.43356 v 0.8743381 h 0.87434 v 2.623018 h 1.74145 v -0.4407837 h 1.31512 v -0.4335544 h 0.65034 v 0.4335544 h 0.87433 v 0.4407837 h -0.87433 v 0.4335544 h -0.65034 v 0.4407837 h -0.44078 v 0.8671126 h 1.96545 v -0.4335582 h 1.74868 v 0.4335582 h -1.31512 v 0.4407799 h -0.86711 v 1.52467536 h 0.86711 v 0.44077993 h 0.44078 v 0.43355816 h 0.43356 v 0.43355446 h 0.44078 V 3.2130413 h -4.14769 V 2.7722577 h -0.87434 v 0.4407836 h -0.87434 v 6.3299202 h 0.87434 v 0.8671125 h 0.43356 v 0.440784 h -0.43356 v 1.307896 h -0.43355 v 0.433555 h -0.44079 v 0.440783 h -0.43355 v 0.874338 h -0.44078 v 1.091117 h -0.43356 v 0.433555 h -0.43356 v 0.440784 h -0.44078 v 0.433554 h -0.87434 v 0.433558 h -0.43355 v 0.44078 h -0.43356 v 0.874342 h -1.5319 v 2.18223 h -0.87434 v 0.433559 h -0.43355 v 0.874338 h -0.43356 v 0.433554 h 0.43356 v 1.965455 h 0.43355 v 0.874339 h -0.43355 v 0.433558 h -0.43356 v 2.623014 h 0.43356 v 0.433558 h 0.43355 v 0.433555 h 0.44078 v 0.440783 h 0.43356 v 0.433558 h 1.09112 v 0.44078 h 0.44078 v 0.433559 h 0.43356 v 1.091117 h 0.43355 v 0.874338 h 0.87434 v 0.433554 h 0.44078 v 0.440784 h 0.43356 v 0.433554 h 0.43356 v 0.433558 h 2.62301 v -0.433558 h 3.27335 v 0.433558 h 0.43356 v -0.433558 h 1.748677 v -0.433554 h 2.182234 v 0.433554 h 0.874338 v 0.433558 h 2.832568 v 0.44078 h 0.44078 v 1.307897 h -0.44078 v 0.874338 h -0.433558 v 1.748676 h 0.433558 v 0.433558 h 0.874338 v 1.524672 h 0.44078 v 0.440783 h 0.433558 v 1.741451 h 0.433558 v 0.440784 h 0.44078 v 0.874338 h 0.433558 v 1.307892 h -0.433558 v 0.433559 h -0.44078 v 0.440779 h 0.44078 v 0.867117 h -0.874338 v 1.965455 h -0.433558 v 1.307893 h 0.433558 v 0.874338 h 0.433558 v 0.874338 h 0.44078 v 1.307896 h 0.433558 v 1.315122 h 0.44078 v 1.524671 h 0.433559 v 0.874338 h 0.433554 v 1.741451 h 0.440784 v 0.440784 h 0.433554 v 0.433554 h 0.440784 v 0.874342 h 0.433558 v 2.182231 h 1.091113 v 0.657562 h 2.182235 v -0.657562 l 1.669192,0.01443 c 4.743886,-6.395796 15.362346,-19.645802 15.362346,-45.292184 0,-25.6463811 -11.112131,-40.433197 -18.541759,-49.006315 z m -70.944259,0.0074 h 0.43355 v 0.867116 h -0.43355 z m 37.53874,1.307896 h 0.43356 v 0.433558 h -0.43356 z m -29.46737,3.273352 h 0.44078 v 0.874338 h -0.44078 z m 31.20883,0.433554 v 0.440784 h -0.43356 v 0.867112 h -0.44078 v 0.874338 h 0.87434 v 0.440784 h -0.43356 v 0.433555 h -0.44078 v 0.874338 h 1.31512 v 0.433558 h 0.87434 v 0.44078 h 0.43355 v 0.433558 h 1.3079 v 0.657559 h 2.18223 v -0.657733 h 2.8398 v -0.433558 h 0.87433 v -0.44078 h 0.86712 v -0.433558 h 0.44078 v -0.433555 h 0.43355 v -1.315121 h -0.43355 v -0.433555 h -0.44078 v -0.440784 h -0.43356 v -0.433558 h -0.43356 v -0.433554 h -1.74867 v 0.433554 h -2.39902 v -0.433554 h -1.74867 v 0.433554 h -0.43356 v 0.433558 h -0.44078 v -0.433558 h -0.43356 v -0.433554 h -0.43355 v -0.440784 z m 35.356514,3.056573 h 1.307893 v 0.874338 h -0.433555 v 0.433558 h -0.440783 v 0.44078 h -0.433555 v 0.433558 h -0.433558 v 0.657559 h -0.44078 v -1.965455 h 0.44078 v -0.433555 h 0.433558 z m 2.615789,7.637816 h 1.091117 v 0.440784 h -0.433558 v 0.433554 h -1.965455 v -0.433554 h 1.307896 z m -23.563783,7.8545956 h 0.86711 v 0.8743381 h -1.30789 v -0.4335545 h 0.44078 z m -48.23314,3.4973561 h 0.43356 v 0.4335544 h -0.43356 z m -0.87434,0.4333805 h 0.44078 v 0.4407837 H -150.85 Z m -14.84208,0.4407837 h 1.31512 v 0.4335544 h 0.43356 v 0.4335582 h 0.87434 v 0.4407799 h -1.3079 v -0.4407799 h -0.44078 v 0.4407799 h -1.74145 v -0.4407799 h 0.43356 v -0.4335582 h 0.43355 z m 69.181137,0 h 0.874338 v 0.8671126 h 0.440784 v 0.4407799 h -3.056572 v -0.4407799 h 0.874338 v -0.4335582 h 0.867112 z m -3.923687,1.7414507 h 0.87434 v 1.53189709 h -0.44078 v -0.44077993 h -0.43356 z m -61.10976,0.657559 h 1.74868 v 0.43355816 h 0.43356 v 0.44077993 h -0.43356 v -0.44077993 h -0.44078 v 1.30789255 h -0.43356 v -1.30789255 h -0.87434 z m 2.62302,0.43355816 h 0.43355 v 0.44077993 h -0.43355 z m -4.58847,0.87433809 h 0.44078 V 1.0308069 h -0.44078 v 1.3078963 h -0.86712 V 1.905145 h 0.43356 V 0.59002331 h 0.43356 z m 5.89636,0 h 0.87434 v 0.43355446 h -0.44078 V 1.4643614 h -0.43356 V 1.905145 h -0.44078 v 0.4335582 h -1.74145 V 1.905145 h 0.43356 V 1.4643614 h 1.74867 z m 1.74145,0 h 0.44079 v 0.43355446 h -0.44079 z m 68.74758,3.49012685 h 0.874342 v 0.4407837 h 0.657559 v 0.4335544 h 0.433554 V 4.954492 h 0.874342 v 0.4407799 h 0.433555 v 1.5246754 h 0.440783 v 1.7486762 h 0.433555 v 0.874338 h 0.433558 v 0.4335582 h 0.44078 v 0.4335543 h 1.307896 V 9.5429615 h 0.433555 V 9.1021816 h 0.440783 V 7.3607272 h 0.433555 V 6.9199473 h 0.440783 v 1.7486762 h 0.433558 v 0.4335581 h 0.433555 v 0.8743381 h 0.657559 v 0.4335543 h 0.874342 v 0.440784 h 1.748676 v -0.440784 h 0.433554 v 0.440784 h 2.182235 v 0.433554 h 0.433558 v 0.874342 h -0.433558 v 0.433555 h -0.433555 v 0.874338 h -0.440783 v 0.440783 h -0.433559 v 0.433555 h -5.022024 V 13.90743 h -2.182234 v -0.440783 h -3.056572 v 0.440783 h -0.433555 v 1.091117 h 0.433555 v 0.433555 h -1.307897 v -0.433555 h -1.091113 v -0.657562 h -0.433558 v -0.874338 h -0.440784 v -0.433555 h -1.307892 v -0.440783 h -1.307897 v -0.433555 h -0.44078 V 9.5429615 h -0.433558 V 9.1021816 h -4.147689 v 0.4407799 h -3.056573 v 0.4335582 h -0.874338 V 8.2278435 h 0.440784 V 7.7942854 h 0.433554 V 6.2696137 h 0.874338 V 5.8288301 h 1.307896 V 5.3952719 h 0.440784 V 4.0873794 h 0.433555 v 0.4335544 h 1.965455 V 4.0873794 h 0.874338 v 1.3078925 h -0.44078 v 2.8325716 h 1.315118 V 7.7942854 h 0.433558 V 4.5209338 h 0.433558 V 4.954492 h 0.874338 v 0.8743381 h 0.44078 v 0.4407836 h 0.867113 v 1.9582298 h -1.307893 v 0.8743381 h 0.44078 v 0.4407799 h 1.741451 v 0.4335582 h 0.440784 V 9.1021816 h 1.091117 V 8.6686235 h 0.867113 v -0.44078 h 0.440783 V 6.2696137 h -0.440783 V 5.3952719 h -0.867113 V 4.954492 h -0.657559 V 4.5209338 h -0.874342 z m -9.820051,3.2733516 v 0.8743381 h 1.307896 V 6.9199473 Z m -4.364469,2.6230142 h 1.74868 v 0.8671125 h -0.87434 v 0.440784 h -1.74867 v -0.440784 h -1.09112 V 9.9765197 h 1.96545 z m -82.71531,3.9236855 h 0.44078 v 0.440783 h -0.44078 z m 96.466276,0.440783 h 0.433554 v 0.433555 h -0.433554 z m -69.181136,1.524672 v 0.440784 h 1.74145 v -0.440784 z m 2.18223,0 v 1.748676 h 0.65034 v -0.44078 h 0.44078 v -1.307896 z m 77.46929,0.440784 h 0.440784 v 0.433554 h 0.433554 v 0.433558 h 0.440784 v 0.44078 h 0.433554 v 0.874342 h -0.874338 v -0.440784 h -0.874338 z m -78.34362,1.74145 v 0.874338 h 0.43355 v 0.874338 h 1.09112 v -1.748676 z m 0.43355,1.748676 h -0.87434 v -0.440783 h -1.30789 v -0.433555 h -1.3079 V 18.05512 h -1.74867 v 0.433554 h -0.86712 v 1.307897 h 1.3079 v -0.433559 h 0.43356 v 0.433559 h 1.30789 v 0.440779 h 0.44078 v 0.433559 h 0.87434 v 0.433554 h 1.3079 v 1.965455 h 0.87433 v -1.091117 h -0.44078 v -0.433554 h 1.09112 v 0.874338 h 1.31512 v 0.650333 h 1.74145 v -0.650333 h 1.3079 v -1.315122 h -0.86712 v -0.433554 h -0.87434 v -0.874338 h -1.74867 v 0.440779 h -0.87434 v -0.440779 h -1.09112 z m 1.5319,-1.748676 v 0.874338 h 1.74145 v -0.874338 z m 80.309081,0 h 0.874338 v 0.440784 h 0.433558 v 0.433554 h 0.44078 v 0.874338 h 0.433558 v 0.433559 h 0.44078 v 0.874338 h 0.433558 v 0.874338 h 0.657559 v 0.874338 h 0.433558 v 0.650333 h 0.433555 v 0.440784 h 0.440783 v 1.307893 h 0.433555 v 0.433558 h 0.440783 v 1.307896 h 0.433559 v 0.874338 h -0.433559 v -0.433558 h -0.874338 v -0.44078 h -0.440783 v -0.433558 h -0.433555 v -0.874338 h -1.091117 v -1.741451 h -0.433558 v -1.091117 h -0.44078 v -0.874338 h -0.433558 v -0.874338 h -0.44078 v -0.874338 h -0.433558 v -0.874342 h -0.433555 V 18.05512 h -0.440783 z m -44.735791,3.056573 v 0.874338 h -0.44078 v 1.524671 h 0.87434 v -0.650333 h 0.43356 v -0.874338 h 0.44078 v -0.874338 z m -31.20882,0.874338 v 1.524671 h 1.74145 v -0.650333 h 1.5319 v -0.874338 z m 3.7069,0.433554 v 0.440784 h 0.44079 v -0.440784 z m 0.87434,0 v 0.440784 h 0.43356 v -0.440784 z m 0,1.091117 v 0.440784 h -0.43355 v 2.182234 h 0.43355 v 0.433555 h 0.87434 v -3.056573 z m 6.76348,12.443069 h 0.44078 v 0.433555 h -0.44078 v 0.440783 h -0.65033 v -0.440783 h 0.65033 z"
         style="fill:url(#radialGradient112947);fill-opacity:1;fill-rule:evenodd;stroke:none;stroke-width:0.978262"
         id="path4002" />
      <path
         d="m -213.04731,17.615253 q 0,30.335298 21.38747,51.94102 21.60572,21.605723 52.15926,21.605723 30.33531,0 52.159275,-21.605723 21.387473,-21.605722 21.387473,-51.94102 0,-30.553544 -21.387473,-52.159264 -21.823965,-21.605719 -52.159275,-21.605719 -30.55354,0 -52.15926,21.605719 -21.38747,21.60572 -21.38747,52.159264"
         id="path4000-7"
         style="fill:url(#gradient1-6-7);fill-rule:evenodd;stroke:none;stroke-width:0.978261" />
    </g>
    <path
       d="m 17.538783,25.134464 5.706426,-13.373073 -6.403394,0.566287 0.696968,12.806786"
       fill="url(#gradient24-0)"
       id="path308"
       style="fill:url(#gradient24-0);fill-rule:evenodd;stroke-width:0.87121" />
    <path
       d="m 17.843707,25.047343 5.27082,-12.850347 -6.098469,0.261363 0.827649,12.588984"
       fill="url(#gradient25-6)"
       id="path310"
       style="fill:url(#gradient25-6);fill-rule:evenodd;stroke-width:0.87121" />
    <path
       d="m 22.548241,35.414743 q 2.570069,-1.001892 2.787872,-2.874994 0.217803,-1.873101 -2.003783,-3.5284 -2.265146,-1.611738 -5.619305,-2.003783 -3.397719,-0.435605 -5.967788,0.609847 -2.5700699,1.045452 -2.7878724,2.918553 -0.2178025,1.873102 2.0037834,3.48484 2.221586,1.611739 5.619304,2.003783 3.397719,0.435605 5.967789,-0.609846"
       fill="url(#gradient26-4)"
       id="path312"
       style="fill:url(#gradient26-4);fill-rule:evenodd;stroke-width:0.87121" />
    <path
       d="m 22.069075,35.022698 q 2.395828,-0.91477 2.61363,-2.657191 0.217803,-1.74242 -1.873101,-3.223477 -2.047344,-1.481057 -5.22726,-1.873101 -3.136356,-0.392045 -5.488623,0.566286 -2.3522674,0.958332 -2.5700699,2.657191 -0.2178025,1.74242 1.8295419,3.223477 2.090904,1.481057 5.227259,1.873102 3.136357,0.392044 5.488623,-0.566287"
       fill="url(#gradient27-4)"
       id="path314"
       style="fill:url(#gradient27-4);fill-rule:evenodd;stroke-width:0.87121" />
    <path
       d="m 18.366433,33.803004 1.001891,0.914771 q 2.482949,-0.304924 3.615522,-1.350376 0.653407,-3.876885 0.304923,-8.015132 l -3.223477,0.566287 -3.223477,0.740528 q 1.350376,3.702642 1.524618,7.143922 m 1.001891,0.261363 -0.392044,-0.435605 q -0.174242,-2.61363 -1.393936,-6.751878 l 5.140139,-1.219694 q 0.174242,3.920445 -0.217803,7.361725 -1.219693,0.827649 -3.136356,1.045452"
       fill="url(#gradient28-6)"
       id="path316"
       style="fill:url(#gradient28-6);fill-rule:evenodd;stroke-width:0.87121" />
    <path
       d="m 22.853164,25.700751 -5.401502,1.306815 q 1.219694,3.397719 1.393936,6.664756 l 0.566287,0.566287 q 1.960222,-0.217803 3.223477,-1.089013 0.479165,-3.876884 0.217802,-7.448845"
       fill="url(#gradient29-2)"
       id="path318"
       style="fill:url(#gradient29-2);fill-rule:evenodd;stroke-width:0.87121" />
    <path
       d="m 26.163762,10.977302 -14.287843,0.827649 q -1.219694,0.04356 -1.001892,1.132573 l 1.74242,15.376857 q 0.174242,0.392044 0.740529,0.261363 l 12.937468,-3.615522 q 0.566287,-0.130681 0.566287,-0.827649 l 0.08712,-12.327621 q -0.04356,-0.958331 -0.784089,-0.82765"
       fill="url(#gradient30-9)"
       id="path320"
       style="fill:url(#gradient30-9);fill-rule:evenodd;stroke-width:0.87121" />
    <path
       d="m 25.94596,13.111767 -13.111711,1.132573 1.001892,13.06815 12.19694,-3.092796 -0.08712,-11.107927"
       fill="url(#gradient31-4)"
       id="path322"
       style="fill:url(#gradient31-4);fill-rule:evenodd;stroke-width:0.87121" />
    <path
       d="m 25.858839,11.195104 -14.026481,0.87121 q -0.479166,0.08712 -0.566287,0.696968 l 1.611739,15.420417 0.174242,0.174242 0.08712,-0.304923 -1.306815,-15.159054 0.217802,-0.392044 14.157163,-1.089013 q 0.348484,-0.261363 -0.348484,-0.217803"
       fill="url(#gradient32-7)"
       id="path324"
       style="fill:url(#gradient32-7);fill-rule:evenodd;stroke-width:0.87121" />
    <path
       d="m 26.425125,24.350375 -0.348484,-0.130681 -12.2405,3.092796 q -0.04356,0.348483 0.261363,0.261362 l 12.327621,-3.223477"
       fill="url(#gradient33-2)"
       id="path326"
       style="fill:url(#gradient33-2);fill-rule:evenodd;stroke-width:0.87121" />
    <path
       d="m 18.366433,30.492406 0.435605,3.179916 0.653407,0.609848 q 0.08712,-2.61363 -0.609847,-6.142031 l -1.306815,-0.740528 q 0.696968,2.134464 0.82765,3.092795"
       fill="url(#gradient34-0)"
       id="path328"
       style="fill:url(#gradient34-0);fill-rule:evenodd;stroke-width:0.87121" />
    <path
       d="M 9.8285746,33.106036 14.707351,16.335243 7.1278236,17.946982 9.8285746,33.106036"
       fill="url(#gradient35-5)"
       id="path330"
       style="fill:url(#gradient35-5);fill-rule:evenodd;stroke-width:0.87121" />
    <path
       d="M 10.177059,32.931794 14.62023,16.857969 7.3891865,18.077663 10.177059,32.931794"
       fill="url(#gradient36-9)"
       id="path332"
       style="fill:url(#gradient36-9);fill-rule:evenodd;stroke-width:0.87121" />
    <path
       d="m 0.59374855,40.511321 q 0,2.265146 2.91855345,3.876884 2.874993,1.611739 6.969681,1.611739 4.138247,0 7.01324,-1.611739 2.918554,-1.611738 2.918554,-3.876884 0,-2.265146 -2.918554,-3.833324 -2.874993,-1.611738 -7.01324,-1.611738 -4.094688,0 -6.969681,1.611738 -2.91855345,1.568178 -2.91855345,3.833324"
       fill="url(#gradient37-1)"
       id="path334"
       style="fill:url(#gradient37-1);fill-rule:evenodd;stroke-width:0.87121" />
    <path
       d="m 1.247156,40.4242 q 0,2.090904 2.700751,3.571961 2.6571905,1.481057 6.490515,1.481057 3.789764,0 6.490515,-1.481057 2.65719,-1.481057 2.65719,-3.571961 0,-2.090904 -2.65719,-3.571961 -2.700751,-1.437496 -6.490515,-1.437496 -3.8333245,0 -6.490515,1.437496 -2.700751,1.481057 -2.700751,3.571961"
       fill="url(#gradient38-1)"
       id="path336"
       style="fill:url(#gradient38-1);fill-rule:evenodd;stroke-width:0.87121" />
    <path
       d="M 13.356976,43.516995 13.095612,43.299193 12.790689,43.03783 q -0.696968,-3.789764 -2.657191,-7.84089 l 5.924228,-2.221585 q 0.82765,4.094687 0.87121,8.842781 -1.306814,1.176134 -3.57196,1.698859 m -1.263255,-0.174242 1.306815,0.914771 q 2.874993,-0.653407 4.138247,-2.134464 0.217803,-4.704535 -0.827649,-9.583311 l -3.789764,1.132574 -3.7026425,1.350375 q 2.1780255,4.35605 2.8749935,8.320055"
       fill="url(#gradient39-7)"
       id="path338"
       style="fill:url(#gradient39-7);fill-rule:evenodd;stroke-width:0.87121" />
    <path
       d="m 10.002817,35.371182 q 1.960223,3.876884 2.65719,7.753769 l 0.740529,0.609847 q 2.439388,-0.609847 3.702642,-1.78598 0,-4.704534 -0.87121,-8.929903 l -6.229151,2.352267"
       fill="url(#gradient40-7)"
       id="path340"
       style="fill:url(#gradient40-7);fill-rule:evenodd;stroke-width:0.87121" />
    <path
       d="M 19.106961,15.856078 Q 18.932719,14.723505 18.061509,14.941307 L 1.160035,18.034103 Q -0.36458245,18.295466 0.11458305,19.55872 L 4.4270725,37.636328 q 0.2613631,0.479165 0.9147706,0.217803 L 20.283095,31.624979 q 0.653407,-0.261363 0.566286,-1.089013 l -1.74242,-14.679888"
       fill="url(#gradient41-6)"
       id="path342"
       style="fill:url(#gradient41-6);fill-rule:evenodd;stroke-width:0.87121" />
    <path
       d="M 18.10507,17.554937 2.6410921,20.821975 5.7338875,36.285952 19.84749,30.797329 18.10507,17.554937"
       fill="url(#gradient42-4)"
       id="path344"
       style="fill:url(#gradient42-4);fill-rule:evenodd;stroke-width:0.87121" />
    <path
       d="M 1.4649585,18.861753 18.192191,15.464033 Q 18.540675,15.11555 17.756586,15.289792 L 1.1164745,18.382587 q -0.52272595,0.174242 -0.56628645,0.91477 l 4.13824755,18.121168 0.261363,0.217803 q 0.174242,0 0.04356,-0.392044 L 1.247156,19.384478 1.4649585,18.861753"
       fill="url(#gradient43-9)"
       id="path346"
       style="fill:url(#gradient43-9);fill-rule:evenodd;stroke-width:0.87121" />
    <path
       d="M 20.326655,30.88445 19.89105,30.753769 5.7338875,36.285952 q 0,0.392045 0.348484,0.261364 L 20.326655,30.88445"
       fill="url(#gradient44-0)"
       id="path348"
       style="fill:url(#gradient44-0);fill-rule:evenodd;stroke-width:0.87121" />
    <path
       d="m 10.177059,35.806787 q 1.132573,2.482948 1.437496,3.571961 l 0.958331,3.746203 0.871211,0.609847 q -0.261364,-3.136356 -1.611739,-7.231043 l -1.655299,-0.696968"
       fill="url(#gradient45-0)"
       id="path350"
       style="fill:url(#gradient45-0);fill-rule:evenodd;stroke-width:0.87121" />
  </g>
</svg>
