<?xml version="1.0" encoding="UTF-8" standalone="no"?>
<svg
   inkscape:export-ydpi="96"
   inkscape:export-xdpi="96"
   inkscape:export-filename="/media/klapeto/Αρχεία/WindowsXP Theme/Vectors/RASTER/disk-checked.png"
   sodipodi:docname="optical-disk-check.svg"
   inkscape:version="1.1.1 (3bf5ae0d25, 2021-09-20)"
   id="svg8"
   version="1.1"
   viewBox="0 0 256 256"
   height="256"
   width="256"
   xmlns:inkscape="http://www.inkscape.org/namespaces/inkscape"
   xmlns:sodipodi="http://sodipodi.sourceforge.net/DTD/sodipodi-0.dtd"
   xmlns:xlink="http://www.w3.org/1999/xlink"
   xmlns="http://www.w3.org/2000/svg"
   xmlns:svg="http://www.w3.org/2000/svg"
   xmlns:rdf="http://www.w3.org/1999/02/22-rdf-syntax-ns#"
   xmlns:cc="http://creativecommons.org/ns#"
   xmlns:dc="http://purl.org/dc/elements/1.1/">
  <defs
     id="defs2">
    <linearGradient
       inkscape:collect="always"
       id="linearGradient55884">
      <stop
         style="stop-color:#fffaff;stop-opacity:1"
         offset="0"
         id="stop55880" />
      <stop
         style="stop-color:#ffceff;stop-opacity:1"
         offset="0.5"
         id="stop55937" />
      <stop
         style="stop-color:#fffaff;stop-opacity:1"
         offset="1"
         id="stop55882" />
    </linearGradient>
    <linearGradient
       inkscape:collect="always"
       id="linearGradient3025">
      <stop
         style="stop-color:#f4f4ff;stop-opacity:1"
         offset="0"
         id="stop3021" />
      <stop
         style="stop-color:#ccccff;stop-opacity:1"
         offset="0.5"
         id="stop18581" />
      <stop
         style="stop-color:#f4f4ff;stop-opacity:1"
         offset="1"
         id="stop3023" />
    </linearGradient>
    <linearGradient
       inkscape:collect="always"
       xlink:href="#linearGradient3025"
       id="linearGradient3027"
       x1="-129.4323"
       y1="84.5"
       x2="-103.43229"
       y2="112"
       gradientUnits="userSpaceOnUse"
       gradientTransform="translate(-12.567709)" />
    <linearGradient
       inkscape:collect="always"
       xlink:href="#linearGradient55884"
       id="linearGradient55886"
       x1="-123.89017"
       y1="98.650002"
       x2="-108.07941"
       y2="98.650002"
       gradientUnits="userSpaceOnUse" />
    <filter
       inkscape:collect="always"
       style="color-interpolation-filters:sRGB"
       id="filter86164"
       x="-0.048000002"
       y="-0.048000002"
       width="1.096"
       height="1.096">
      <feGaussianBlur
         inkscape:collect="always"
         stdDeviation="4.8"
         id="feGaussianBlur86166" />
    </filter>
  </defs>
  <sodipodi:namedview
     inkscape:snap-global="true"
     inkscape:bbox-paths="false"
     fit-margin-bottom="0"
     fit-margin-right="0"
     fit-margin-left="0"
     fit-margin-top="0"
     inkscape:bbox-nodes="true"
     inkscape:snap-bbox="true"
     inkscape:window-maximized="1"
     inkscape:window-y="0"
     inkscape:window-x="3840"
     inkscape:window-height="2045"
     inkscape:window-width="3840"
     units="px"
     showgrid="false"
     inkscape:document-rotation="0"
     inkscape:current-layer="layer1"
     inkscape:document-units="px"
     inkscape:cy="208.25"
     inkscape:cx="-24.75"
     inkscape:zoom="4"
     inkscape:pageshadow="2"
     inkscape:pageopacity="0.0"
     borderopacity="1.0"
     bordercolor="#666666"
     pagecolor="#ffffff"
     id="base"
     inkscape:pagecheckerboard="0"
     showguides="false">
    <inkscape:grid
       originy="0"
       originx="0"
       id="grid1504"
       type="xygrid" />
    <inkscape:grid
       originy="0"
       originx="0"
       spacingy="0.5"
       spacingx="0.5"
       id="grid1507"
       type="xygrid" />
  </sodipodi:namedview>
  <metadata
     id="metadata5">
    <rdf:RDF>
      <cc:Work
         rdf:about="">
        <dc:format>image/svg+xml</dc:format>
        <dc:type
           rdf:resource="http://purl.org/dc/dcmitype/StillImage" />
      </cc:Work>
    </rdf:RDF>
  </metadata>
  <g
     transform="translate(-12.567709)"
     id="layer1"
     inkscape:groupmode="layer"
     inkscape:label="Layer 1">
    <path
       id="path85984"
       style="fill:#212121;fill-opacity:1;fill-rule:evenodd;stroke:none;stroke-width:5.35705;stroke-linecap:round;stroke-linejoin:round;stroke-miterlimit:4;stroke-dasharray:none;stop-color:#000000;filter:url(#filter86164)"
       d="M 137.56771,4 C 71.340666,3.9988148 17.566546,57.77296 17.567709,124 c -0.0011,66.22703 53.77296,120.00116 120.000001,120 66.22703,0.001 120.00116,-53.77297 120,-120 0.001,-66.22704 -53.77295,-120.0011852 -120,-120 z m 0.0352,105.96875 c 6.88731,0.003 13.71058,7.13005 13.70898,14.13672 -0.004,6.94778 -6.89437,13.69725 -13.89844,13.70117 -6.97845,0.001 -13.54222,-6.75263 -13.54492,-13.80859 -2.4e-4,-7.00396 6.81439,-14.0309 13.73438,-14.0293 z" />
    <g
       id="g84489"
       transform="matrix(5.3570496,0,0,5.3570496,752.81709,-408.47503)">
      <path
         id="circle2983"
         style="opacity:1;fill:url(#linearGradient3027);fill-opacity:1;fill-rule:evenodd;stroke:none;stroke-width:1;stroke-linecap:round;stroke-linejoin:round;stroke-miterlimit:4;stroke-dasharray:none;stop-color:#000000"
         d="M -128.34961,77 A 21.650003,21.650003 0 0 0 -150,98.650391 21.650003,21.650003 0 0 0 -128.34961,120.30078 21.650003,21.650003 0 0 0 -106.69922,98.650391 21.650003,21.650003 0 0 0 -128.34961,77 Z m 0,18.476562 a 3.173094,3.173094 0 0 1 3.17188,3.173829 3.173094,3.173094 0 0 1 -3.17188,3.171879 3.173094,3.173094 0 0 1 -3.17383,-3.171879 3.173094,3.173094 0 0 1 3.17383,-3.173829 z"
         transform="translate(12.567709)" />
      <path
         id="path1609"
         style="opacity:1;fill:#ccccff;fill-opacity:1;stroke:none;stroke-width:1px;stroke-linecap:butt;stroke-linejoin:miter;stroke-opacity:1"
         d="m -141.69922,82 c -2.79019,0.521739 -8.5,10.039896 -8.5,17 h 18.73242 a 3.173094,3.173094 0 0 1 -0.0566,-0.349609 3.173094,3.173094 0 0 1 1.67578,-2.75586 z m 16.50195,17 a 3.173094,3.173094 0 0 1 -1.64062,2.4375 L -113.69922,115 c 3.55638,-3.55638 7.5,-11 7,-16 z"
         transform="translate(12.567709)" />
      <path
         id="path1891"
         style="opacity:1;fill:#ffffff;fill-opacity:1;stroke:none;stroke-width:1px;stroke-linecap:butt;stroke-linejoin:miter;stroke-opacity:1"
         d="m -136.69922,78.5 c -5,2.5 -9.5,7.5 -11.5,11 l 16.79492,8.398438 a 3.173094,3.173094 0 0 1 2.39258,-2.316407 z m 11.38867,21.041016 a 3.173094,3.173094 0 0 1 -2.37109,2.207034 L -118.69922,118 c 4,-1.5 10,-8.5 10.5,-11 z"
         transform="translate(12.567709)" />
      <path
         id="path959"
         style="opacity:1;fill:none;fill-rule:evenodd;stroke:#666666;stroke-width:1.5;stroke-linecap:round;stroke-linejoin:round;stroke-miterlimit:4;stroke-dasharray:none;stroke-opacity:1;stop-color:#000000"
         d="m -128.34961,77 c -11.95727,-2.14e-4 -21.6506,9.693122 -21.65039,21.650391 -2.1e-4,11.957269 9.69312,21.650599 21.65039,21.650389 11.95727,2.1e-4 21.6506,-9.69312 21.65039,-21.650389 C -106.69901,86.693122 -116.39234,76.999786 -128.34961,77 Z m 0.007,18.281289 c 1.75226,6.71e-4 3.30905,1.636638 3.30865,3.388903 -6.7e-4,1.751498 -1.59285,3.306748 -3.34435,3.307418 -1.75227,4.1e-4 -3.27781,-1.57495 -3.27848,-3.327219 -4e-4,-1.753026 1.56115,-3.369508 3.31418,-3.369102 z"
         transform="translate(12.567709)"
         sodipodi:nodetypes="cccccccccc" />
      <circle
         style="opacity:1;fill:none;fill-rule:evenodd;stroke:url(#linearGradient55886);stroke-width:2.5;stroke-linecap:round;stroke-linejoin:round;stroke-miterlimit:4;stroke-dasharray:none;stop-color:#000000"
         id="circle2560"
         cx="-115.78229"
         cy="98.650002"
         r="6.8500004" />
    </g>
    <g
       id="g5848"
       transform="matrix(0.84909823,0,0,0.84909823,154.28398,90.666485)">
      <circle
         style="fill:#10af04;fill-opacity:1;fill-rule:evenodd;stroke:none;stroke-width:8.067;stroke-linecap:round;stroke-linejoin:round;stop-color:#000000"
         id="path927"
         cx="76.320641"
         cy="135.26527"
         r="58.886002" />
      <path
         d="m 52.674926,143.02459 q 11.453397,9.97552 19.027417,19.21213 l 2.216788,2.77098 1.662588,2.40152 1.477857,2.03205 q 10.714465,-47.84562 22.906779,-68.35089"
         id="path64-6"
         inkscape:connector-curvature="0"
         style="fill:none;stroke:#fcfffc;stroke-width:15;stroke-linecap:round;stroke-linejoin:round;stroke-miterlimit:4;stroke-dasharray:none;stroke-opacity:1" />
    </g>
  </g>
</svg>
