<?xml version="1.0" encoding="UTF-8" standalone="no"?>
<svg
   width="256"
   height="256"
   viewBox="0 0 256 256"
   version="1.1"
   id="svg8"
   inkscape:version="1.1.1 (3bf5ae0d25, 2021-09-20)"
   sodipodi:docname="proxy-server.svg"
   inkscape:export-filename="/media/klapeto/Αρχεία/WindowsXP Theme/Vectors/RASTER/System-properties.png"
   inkscape:export-xdpi="512"
   inkscape:export-ydpi="512"
   xmlns:inkscape="http://www.inkscape.org/namespaces/inkscape"
   xmlns:sodipodi="http://sodipodi.sourceforge.net/DTD/sodipodi-0.dtd"
   xmlns:xlink="http://www.w3.org/1999/xlink"
   xmlns="http://www.w3.org/2000/svg"
   xmlns:svg="http://www.w3.org/2000/svg"
   xmlns:rdf="http://www.w3.org/1999/02/22-rdf-syntax-ns#"
   xmlns:cc="http://creativecommons.org/ns#"
   xmlns:dc="http://purl.org/dc/elements/1.1/">
  <defs
     id="defs2">
    <linearGradient
       x2="819.20001"
       x1="-819.20001"
       spreadMethod="pad"
       id="gradient0-3"
       gradientUnits="userSpaceOnUse"
       gradientTransform="matrix(-0.02252897,0,0,0.02200706,41.103437,20.1653)">
      <stop
         id="stop44-6"
         stop-color="#666699"
         offset="0.0" />
      <stop
         id="stop46-7"
         stop-color="#9999cc"
         offset="1.0" />
    </linearGradient>
    <linearGradient
       x2="819.20001"
       x1="-819.20001"
       spreadMethod="pad"
       id="gradient1-5"
       gradientUnits="userSpaceOnUse"
       gradientTransform="matrix(-0.02183309,0,0,0.02105023,40.798992,20.208793)">
      <stop
         id="stop49-3"
         stop-color="#9999cc"
         offset="0.0" />
      <stop
         id="stop51-5"
         stop-color="#eeeeee"
         offset="1.0" />
    </linearGradient>
    <linearGradient
       x2="819.20001"
       x1="-819.20001"
       spreadMethod="pad"
       id="gradient2-6"
       gradientUnits="userSpaceOnUse"
       gradientTransform="matrix(0,0.0184407,0.00643685,0,53.672689,22.470388)">
      <stop
         id="stop54-2"
         stop-color="#6666cc"
         offset="0.0" />
      <stop
         id="stop56-9"
         stop-color="#aaaaaa"
         offset="1.0" />
    </linearGradient>
    <linearGradient
       x2="819.20001"
       x1="-819.20001"
       spreadMethod="pad"
       id="gradient3-1"
       gradientUnits="userSpaceOnUse"
       gradientTransform="matrix(0,0.00487113,0.02174611,0,41.016453,6.6827123)">
      <stop
         id="stop59-2"
         stop-color="#9999cc"
         offset="0.0" />
      <stop
         id="stop61-7"
         stop-color="#ffffff"
         offset="1.0" />
    </linearGradient>
    <linearGradient
       x2="819.20001"
       x1="-819.20001"
       spreadMethod="pad"
       id="gradient4-0"
       gradientUnits="userSpaceOnUse"
       gradientTransform="matrix(-0.01252576,-0.00130477,-4.3492219e-4,0.00426224,39.18978,27.645962)">
      <stop
         id="stop64-9"
         stop-color="#9999cc"
         offset="0.0" />
      <stop
         id="stop66-3"
         stop-color="#9999cc"
         offset="1.0" />
    </linearGradient>
    <linearGradient
       gradientTransform="matrix(0,0.0092,0.0167,0,14.468627,35.412821)"
       gradientUnits="userSpaceOnUse"
       id="gradient18-0"
       spreadMethod="pad"
       x1="-819.20001"
       x2="819.20001">
      <stop
         offset="0.0"
         stop-color="#9999cc"
         id="stop175-7" />
      <stop
         offset="1.0"
         stop-color="#666699"
         id="stop177-8" />
    </linearGradient>
    <radialGradient
       cx="0"
       cy="0"
       gradientTransform="matrix(0.0255,0,0,0.0255,7.0686275,33.362821)"
       gradientUnits="userSpaceOnUse"
       id="gradient19-6"
       r="819.20001"
       spreadMethod="pad">
      <stop
         offset="0.0"
         stop-color="#ffffff"
         id="stop180-8" />
      <stop
         offset="0.2823529411764706"
         stop-color="#dddddd"
         id="stop182-8" />
      <stop
         offset="1.0"
         stop-color="#9999cc"
         id="stop184-4" />
    </radialGradient>
    <linearGradient
       gradientTransform="matrix(-0.0141,-0.0141,-0.0156,0.0156,15.868627,17.112821)"
       gradientUnits="userSpaceOnUse"
       id="gradient20-3"
       spreadMethod="pad"
       x1="-819.20001"
       x2="819.20001">
      <stop
         offset="0.0"
         stop-color="#6666cc"
         id="stop187-1" />
      <stop
         offset="1.0"
         stop-color="#999999"
         id="stop189-4" />
    </linearGradient>
    <linearGradient
       gradientTransform="matrix(-0.0098,-0.0098,-0.0151,0.0151,17.718627,18.012821)"
       gradientUnits="userSpaceOnUse"
       id="gradient21-9"
       spreadMethod="pad"
       x1="-819.20001"
       x2="819.20001">
      <stop
         offset="0.0"
         stop-color="#9999cc"
         id="stop192-2" />
      <stop
         offset="1.0"
         stop-color="#ffffff"
         id="stop194-0" />
    </linearGradient>
    <radialGradient
       cx="0"
       cy="0"
       gradientTransform="matrix(0.0321,0,0,0.0321,15.718627,4.4128205)"
       gradientUnits="userSpaceOnUse"
       id="gradient22-6"
       r="819.20001"
       spreadMethod="pad">
      <stop
         offset="0.0"
         stop-color="#ccffff"
         id="stop197-8" />
      <stop
         offset="0.09411764705882353"
         stop-color="#ccffff"
         id="stop199-9" />
      <stop
         offset="1.0"
         stop-color="#0099ff"
         id="stop201-2" />
    </radialGradient>
    <linearGradient
       gradientTransform="matrix(-0.0115,0.0061,8e-4,0.0016,17.968627,25.962821)"
       gradientUnits="userSpaceOnUse"
       id="gradient23-6"
       spreadMethod="pad"
       x1="-819.20001"
       x2="819.20001">
      <stop
         offset="0.0"
         stop-color="#6666cc"
         id="stop204-6" />
      <stop
         offset="0.0784313725490196"
         stop-color="#9999cc"
         id="stop206-4" />
      <stop
         offset="1.0"
         stop-color="#ffffff"
         id="stop208-9" />
    </linearGradient>
    <linearGradient
       gradientTransform="matrix(-0.0057,0,0,0.0089,18.668627,32.262821)"
       gradientUnits="userSpaceOnUse"
       id="gradient24-5"
       spreadMethod="pad"
       x1="-819.20001"
       x2="819.20001">
      <stop
         offset="0.0"
         stop-color="#666699"
         id="stop211-0" />
      <stop
         offset="1.0"
         stop-color="#9999cc"
         id="stop213-4" />
    </linearGradient>
    <linearGradient
       gradientTransform="matrix(0,0.009,0.006,0,18.718627,32.412821)"
       gradientUnits="userSpaceOnUse"
       id="gradient25-8"
       spreadMethod="pad"
       x1="-819.20001"
       x2="819.20001">
      <stop
         offset="0.0"
         stop-color="#333399"
         id="stop216-7" />
      <stop
         offset="0.28627450980392155"
         stop-color="#6666cc"
         id="stop218-1" />
      <stop
         offset="1.0"
         stop-color="#cccccc"
         id="stop220-7" />
    </linearGradient>
    <linearGradient
       gradientTransform="matrix(-0.0017,0.0052,0.0044,0.0014,16.318627,34.362821)"
       gradientUnits="userSpaceOnUse"
       id="gradient26-2"
       spreadMethod="pad"
       x1="-819.20001"
       x2="819.20001">
      <stop
         offset="0.0"
         stop-color="#9999cc"
         id="stop223-7" />
      <stop
         offset="1.0"
         stop-color="#eeeeee"
         id="stop225-2" />
    </linearGradient>
    <filter
       inkscape:collect="always"
       style="color-interpolation-filters:sRGB"
       id="filter1254"
       x="-0.048011876"
       y="-0.047988126"
       width="1.0960238"
       height="1.0959763">
      <feGaussianBlur
         inkscape:collect="always"
         stdDeviation="4.8987605"
         id="feGaussianBlur1256" />
    </filter>
    <linearGradient
       inkscape:collect="always"
       id="linearGradient1620">
      <stop
         style="stop-color:#ffffff;stop-opacity:1;"
         offset="0"
         id="stop1616" />
      <stop
         style="stop-color:#ffffff;stop-opacity:0;"
         offset="1"
         id="stop1618" />
    </linearGradient>
    <radialGradient
       spreadMethod="pad"
       r="819.20001"
       id="gradient2-62"
       gradientUnits="userSpaceOnUse"
       gradientTransform="matrix(0.03321492,0.02554013,-0.0225253,0.02929414,177.21918,-98.257282)"
       cy="5091.1753"
       cx="-1495.2026"
       fx="-1495.2026"
       fy="5091.1753">
      <stop
         id="stop4113"
         stop-color="#00bf00"
         offset="0.0" />
      <stop
         id="stop4115"
         stop-color="#006600"
         offset="0.9294117647058824" />
    </radialGradient>
    <radialGradient
       spreadMethod="pad"
       r="819.20001"
       id="gradient1-6"
       gradientUnits="userSpaceOnUse"
       gradientTransform="matrix(0.15259312,0,0,0.15259312,-147.36205,-19.475779)"
       cy="0"
       cx="0">
      <stop
         id="stop4100"
         stop-color="#ffffff"
         offset="0.0" />
      <stop
         id="stop4102"
         stop-color="#ccffff"
         offset="0.0784313725490196" />
      <stop
         id="stop4104"
         stop-color="#0099ff"
         offset="0.2980392156862745" />
      <stop
         id="stop4106"
         stop-color="#0066cc"
         offset="0.5372549019607843" />
      <stop
         id="stop4108"
         stop-color="#003399"
         offset="0.7529411764705882" />
      <stop
         id="stop4110"
         stop-color="#9999ff"
         offset="1.0" />
    </radialGradient>
    <linearGradient
       x2="819.20001"
       x1="-819.20001"
       spreadMethod="pad"
       id="gradient0-1"
       gradientUnits="userSpaceOnUse"
       gradientTransform="matrix(-0.06871152,-0.06871152,-0.06871152,0.06871152,-137.76921,19.341771)">
      <stop
         id="stop4093"
         stop-color="#003399"
         offset="0.0" />
      <stop
         id="stop4095"
         stop-color="#0099ff"
         offset="0.47058823529411764" />
      <stop
         id="stop4097"
         stop-color="#ccffff"
         offset="1.0" />
    </linearGradient>
    <radialGradient
       inkscape:collect="always"
       xlink:href="#linearGradient1620"
       id="radialGradient1624"
       cx="-154.3782"
       cy="-18.647072"
       fx="-154.72092"
       fy="-18.647072"
       r="75.181114"
       gradientTransform="matrix(0.65631144,0,0,0.65430257,-49.101672,-7.0885197)"
       gradientUnits="userSpaceOnUse" />
    <filter
       height="1.0992889"
       y="-0.049644464"
       width="1.0985402"
       x="-0.049270115"
       id="filter1117"
       style="color-interpolation-filters:sRGB"
       inkscape:collect="always">
      <feGaussianBlur
         id="feGaussianBlur1119"
         stdDeviation="4.9364444"
         inkscape:collect="always" />
    </filter>
  </defs>
  <sodipodi:namedview
     id="base"
     pagecolor="#ffffff"
     bordercolor="#666666"
     borderopacity="1.0"
     inkscape:pageopacity="0.0"
     inkscape:pageshadow="2"
     inkscape:zoom="3.3256116"
     inkscape:cx="-72.76857"
     inkscape:cy="50.216327"
     inkscape:document-units="px"
     inkscape:current-layer="layer1"
     inkscape:document-rotation="0"
     showgrid="false"
     units="px"
     inkscape:window-width="3840"
     inkscape:window-height="2045"
     inkscape:window-x="3840"
     inkscape:window-y="0"
     inkscape:window-maximized="1"
     inkscape:snap-bbox="true"
     inkscape:bbox-nodes="true"
     fit-margin-top="0"
     fit-margin-left="0"
     fit-margin-right="0"
     fit-margin-bottom="0"
     inkscape:bbox-paths="false"
     inkscape:snap-global="true"
     inkscape:pagecheckerboard="0">
    <inkscape:grid
       type="xygrid"
       id="grid1504"
       originx="0"
       originy="0" />
    <inkscape:grid
       type="xygrid"
       id="grid1507"
       spacingx="0.5"
       spacingy="0.5"
       originx="0"
       originy="0" />
  </sodipodi:namedview>
  <metadata
     id="metadata5">
    <rdf:RDF>
      <cc:Work
         rdf:about="">
        <dc:format>image/svg+xml</dc:format>
        <dc:type
           rdf:resource="http://purl.org/dc/dcmitype/StillImage" />
      </cc:Work>
    </rdf:RDF>
  </metadata>
  <g
     inkscape:label="Layer 1"
     inkscape:groupmode="layer"
     id="layer1"
     transform="translate(-12.567709)">
    <g
       id="g1302"
       transform="matrix(0.67903874,0,0,0.67903874,4.340399,78.966594)">
      <path
         id="path1645"
         style="fill:#212121;fill-opacity:1;stroke-width:4.53422;filter:url(#filter1254)"
         d="m 161.58176,4.0330229 c -0.51381,0.05049 -1.05871,0.1594695 -1.62896,0.3257927 L 26.520334,28.314759 c -7.603354,1.710754 -10.368089,5.795101 -8.277167,12.257949 1.330585,3.421508 11.979069,47.419836 31.937864,132.007122 l 0.0099,0.0308 -5.141415,2.54525 c -15.206705,8.55378 -22.805488,18.71715 -22.805488,30.50235 0,11.97527 7.598783,22.14882 22.805488,30.51251 15.397061,8.55356 33.834299,12.82788 55.313754,12.82788 21.47948,0 39.82171,-4.2743 55.02843,-12.82809 15.20671,-8.36369 22.81567,-18.53724 22.81567,-30.51252 0,-8.01457 -3.61665,-15.25708 -10.64935,-21.77721 l 40.70372,19.32359 c 18.1369,-10.12643 36.19765,-20.1809 54.1834,-30.15619 V 39.748046 L 169.51278,22.664292 168.21979,11.48553 C 167.38817,6.1631847 165.1785,3.6795858 161.58176,4.0330229 Z M 94.254671,170.58435 c 0.0063,0.0141 0.01407,0.0266 0.02033,0.0407 l -34.401669,14.22288 c 0,0 17.572293,-7.28974 34.381308,-14.26361 z" />
      <g
         id="g1577"
         transform="matrix(5.2126829,0,0,5.2126829,-52.939006,0.00390368)">
        <path
           style="fill:url(#gradient0-3);stroke-width:0.869844"
           id="path2"
           stroke="none"
           fill-rule="evenodd"
           fill="url(#gradient0)"
           d="m 26.620528,27.515485 22.52897,10.699086 q 5.219066,-2.913978 10.394641,-5.784465 V 6.8566812 L 33.753252,2.1160292 22.662736,4.5515935 26.620528,27.515485" />
        <path
           sodipodi:nodetypes="ccccccc"
           style="fill:url(#gradient1-5);stroke-width:0.869844"
           id="path4"
           stroke="none"
           fill-rule="evenodd"
           fill="url(#gradient1)"
           d="M 27.142435,27.254532 49.236483,37.518696 58.500325,32.082168 58.674294,7.5525567 33.622776,2.9423814 22.967182,4.8125468 27.142435,27.254532" />
        <path
           style="fill:url(#gradient2-6);stroke-width:0.869844"
           id="path6"
           stroke="none"
           fill-rule="evenodd"
           fill="url(#gradient2)"
           d="m 49.236483,37.518696 9.698764,-5.393035 V 7.3350956 L 48.366638,10.16209 49.236483,37.518696" />
        <path
           style="fill:url(#gradient3-1);stroke-width:0.869844"
           id="path8"
           stroke="none"
           fill-rule="evenodd"
           fill="url(#gradient3)"
           d="M 33.622776,2.6814281 23.228135,4.8125468 48.366638,10.683996 58.848263,7.3350956 33.622776,2.6814281" />
        <path
           style="fill:url(#gradient4-0);stroke-width:0.869844"
           id="path10"
           stroke="none"
           fill-rule="evenodd"
           fill="url(#gradient4)"
           d="m 49.019021,30.559941 -19.701975,-7.43717 0.130477,1.348259 19.614991,7.698123 -0.04349,-1.609212" />
        <path
           id="path12"
           stroke="none"
           fill-rule="evenodd"
           fill="#99ff66"
           d="m 56.673652,30.646925 q -0.130477,0.739368 0.39143,0.913337 0.565399,0.173969 0.78286,-0.608891 0.260953,-0.78286 -0.39143,-0.956829 -0.521907,-0.173969 -0.78286,0.652383"
           style="stroke-width:0.869844" />
        <path
           id="path14"
           stroke="none"
           fill-rule="evenodd"
           fill="#666699"
           d="m 49.845374,14.815757 0.304445,12.960682 7.741615,-3.566362 V 11.858286 l -8.04606,2.957471 m 6.915262,-1.261274 -0.04349,9.872734 -5.436527,2.522549 -0.347938,-10.307657 5.827957,-2.087626"
           style="stroke-width:0.869844" />
        <path
           id="path16"
           stroke="none"
           fill-rule="evenodd"
           fill="#9999cc"
           d="m 50.889187,15.555125 0.173969,10.960039 6.08891,-2.783502 V 13.206545 l -6.262879,2.34858"
           style="stroke-width:0.869844" />
        <path
           id="path18"
           stroke="none"
           fill-rule="evenodd"
           fill="#666699"
           d="m 51.367601,20.730699 v 1.087306 l 5.393035,-2.305088 v -0.956829 l -5.393035,2.174611"
           style="stroke-width:0.869844" />
        <path
           id="path20"
           stroke="none"
           fill-rule="evenodd"
           fill="#666699"
           d="m 51.889508,18.077674 v 0.956829 l 4.088269,-1.696197 v -0.869844 l -4.088269,1.609212"
           style="stroke-width:0.869844" />
        <path
           sodipodi:nodetypes="cccc"
           id="path22"
           stroke="none"
           fill-rule="evenodd"
           fill="#666699"
           d="m 49.062514,32.169153 9.959715,-5.132082 V 25.64532 l -10.003205,4.914621"
           style="stroke-width:0.869844" />
        <g
           transform="translate(48)"
           id="g1412">
          <g
             id="g1313"
             transform="matrix(1.093969,0,0,1.093969,-35.432291,0)">
            <path
               inkscape:connector-curvature="0"
               style="fill:url(#gradient18-0);fill-rule:evenodd;stroke:none"
               id="path42"
               d="m 5.7897754,29.533043 0.4610195,1.091304 -0.5913221,-0.01048 c -2.4666667,1.333334 -2.9663292,2.922478 -2.9663292,4.855812 0,1.933333 0.7264706,2.960947 3.1931372,4.29428 2.4666667,1.366667 5.0994752,1.951847 8.6328082,1.951847 3.5,0 6.294483,-0.572419 8.76115,-1.939086 2.466666,-1.333333 2.991911,-2.580561 2.991911,-4.513894 0,-1.733333 -0.342158,-2.994618 -2.342158,-4.261284 l 0.01613,-1.122653 0.22251,0.133937 c 2.666667,1.5 4,3.283333 4,5.35 0,2.1 -1.333333,3.883333 -4,5.35 -2.666667,1.5 -5.883333,2.25 -9.65,2.25 -3.766666,0 -6.9999995,-0.75 -9.6999995,-2.25 -2.6666667,-1.466667 -4.00000005,-3.25 -4.00000005,-5.35 0,-2.066667 1.33333335,-3.85 4.00000005,-5.35 l 0.9711479,-0.479778"
               sodipodi:nodetypes="cccscscscccscscscc" />
            <path
               inkscape:connector-curvature="0"
               style="fill:url(#gradient19-6);fill-rule:evenodd;stroke:none"
               id="path44"
               d="m 5.8686275,30.162821 7.9743685,-1.567437 10.225631,2.167437 c 2,1.266667 3,2.766667 3,4.5 0,1.933333 -1.233333,3.566667 -3.7,4.9 -2.466667,1.366667 -5.45,2.05 -8.95,2.05 -3.533333,0 -6.5333328,-0.683333 -8.9999995,-2.05 -2.4666667,-1.333333 -3.7,-2.966667 -3.7,-4.9 0,-1.933333 1.2333333,-3.566667 3.7,-4.9 l 0.45,-0.2"
               sodipodi:nodetypes="cccscscscc" />
            <path
               inkscape:connector-curvature="0"
               style="fill:url(#gradient24-5);fill-rule:evenodd;stroke:none"
               id="path54-2"
               d="m 23.24475,24.993602 0.773877,4.919219 0.05,0.85 c 0.2,2.3 0.25,4.583333 0.15,6.85 -1.033333,1.3 -2.933333,2.283333 -5.7,2.95 l -1.8,-1.3 c -0.533333,-3.1 -1.663343,-6.512515 -3.296676,-10.112515"
               sodipodi:nodetypes="ccccccc" />
            <path
               inkscape:connector-curvature="0"
               style="fill:url(#gradient26-2);fill-rule:evenodd;stroke:none"
               id="path58-8"
               d="m 16.709011,29.66474 c 1.266666,3.8 1.626283,7.281414 1.859616,10.148081 l -0.85,-0.65 -0.3,-0.2 -1.4,-5.15 C 15.75196,32.779488 15.092164,31.121083 14.092164,28.921083"
               sodipodi:nodetypes="cccccc" />
            <path
               inkscape:connector-curvature="0"
               style="fill:url(#gradient20-3);fill-rule:evenodd;stroke:none"
               id="path46-9"
               d="m 5.7186275,29.562821 c -3.5,-14.833334 -5.36666672,-22.5500005 -5.60000005,-23.1500005 -0.36666667,-1.1333333 0.11666668,-1.85 1.45000005,-2.15 L 24.968627,0.06282051 c 0.8,-0.23333333 1.283333,0.18333333 1.45,1.24999999 l 2.35,20.2500005 c 0.1,0.8 -0.15,1.316667 -0.75,1.55 -6.757112,2.881512 -20.5999995,8.6 -20.5999995,8.6 -0.6333333,0.2 -1.0666667,0.08333 -1.3,-0.35 l -0.25,-1.2 -0.15,-0.6 M 27.351035,21.843691 24.881052,3.759748 3.8329125,8.3074729 8.0006053,29.487753 c 0,0.366667 0.092135,0.403846 0.4254685,0.270513 L 27.903784,22.064683"
               sodipodi:nodetypes="ccccccccccccccccc" />
            <path
               inkscape:connector-curvature="0"
               style="fill:url(#gradient21-9);fill-rule:evenodd;stroke:none"
               id="path48-7"
               d="m 2.0186275,5.4128205 c -0.3475788,0.1297833 -0.3807327,0.4122418 -0.3,0.75 l 4.85,23.0500005 0.1,0.55 0.25,1.1 c 0.1,0.366667 0.066667,0.55 -0.1,0.55 -0.2122822,0 -0.3,-0.3 -0.3,-0.3 L 0.71862745,6.0128205 c 0.0333333,-0.6666667 0.30000005,-1.0833333 0.80000005,-1.25 L 24.518627,0.51282051 c 0.733333,-0.16666667 0.933333,-0.0833333 0.6,0.25 L 2.0186275,5.4128205"
               sodipodi:nodetypes="cccccccccccc" />
            <path
               inkscape:connector-curvature="0"
               style="fill:url(#gradient25-8);fill-rule:evenodd;stroke:none"
               id="path56-3"
               d="m 14.168627,28.912821 8.4,-3.5 0.6,4.1 0.1,0.8 c 0.233333,2.266667 0.35,4.6 0.35,7 -1.2,1.133333 -2.883333,1.966667 -5.05,2.5 -0.233333,-2.866667 -0.983333,-6.2 -2.25,-10 l -2.15,-0.9 m 3.55,10.25 0.85,0.65 -0.469661,-0.359824 -0.380339,-0.290172"
               sodipodi:nodetypes="cccccccccccc" />
            <path
               inkscape:connector-curvature="0"
               style="fill:url(#gradient22-6);fill-rule:evenodd;stroke:none"
               id="path50-6"
               d="m 7.9186275,29.512821 -4.25,-21.3500005 21.3499995,-4.55 2.45,18.2500005 -19.5499995,7.65 M 20.868627,6.2628205 q -3.3,5.5500005 -6.2,18.5000005 l -0.4,-0.55 -0.45,-0.65 -0.6,-0.75 q -2.05,-2.5 -5.1499995,-5.2 3.0999995,2.7 5.1499995,5.2 l 0.6,0.75 0.45,0.65 0.4,0.55 q 2.9,-12.95 6.2,-18.5000005" />
            <path
               inkscape:connector-curvature="0"
               style="fill:url(#gradient23-6);fill-rule:evenodd;stroke:none"
               id="path52-1"
               d="m 7.9186275,29.512821 19.5499995,-7.65 0.6,0.2 -19.6499995,7.8 q -0.5,0.2 -0.5,-0.35" />
          </g>
        </g>
      </g>
    </g>
    <g
       transform="matrix(0.41847607,0,0,0.41847607,155.4428,2.4231012)"
       id="g1127">
      <path
         sodipodi:nodetypes="scscscscs"
         d="m 147.78599,11.998167 c -34.17918,0 -63.402672,12.008518 -87.651432,36.026329 -24.01781,24.017811 -36.02633,53.116694 -36.02633,87.295884 0,33.94825 5.468001,55.04898 29.485811,79.29773 24.24876,24.01782 53.472251,36.02633 87.651431,36.02633 33.94828,0 63.04717,-12.00851 87.29592,-36.02633 24.01782,-24.24875 36.02632,-53.34765 36.02632,-87.2959 0,-34.179182 -12.0085,-63.27807 -36.02632,-87.295881 -24.24875,-24.017811 -46.80712,-28.028162 -80.7554,-28.028162 z"
         style="fill:#000000;fill-opacity:1;fill-rule:evenodd;stroke:none;stroke-width:1.55278;filter:url(#filter1117)"
         id="path1483" />
      <g
         transform="matrix(1.5527891,0,0,1.5527891,350.16286,93.28853)"
         id="g1296">
        <path
           d="m -217.41211,19.341771 q 0,32.794126 23.20129,56.218516 23.42439,23.20129 56.44161,23.20129 32.79415,0 56.218518,-23.20129 23.20131,-23.42439 23.20131,-56.218516 0,-33.017226 -23.20131,-56.218521 -23.424368,-23.201293 -56.218518,-23.201293 -33.01722,0 -56.44161,23.201293 -23.20129,23.201295 -23.20129,56.218521"
           id="path3998"
           style="fill:url(#gradient0-1);fill-rule:evenodd;stroke:none"
           inkscape:connector-curvature="0" />
        <path
           d="m -212.95032,19.341771 q 0,31.009416 21.86275,53.095266 22.08585,22.08585 53.31836,22.08585 31.00943,0 53.318368,-22.08585 21.86275,-22.08585 21.86275,-53.095266 0,-31.232512 -21.86275,-53.318359 -22.308938,-22.085846 -53.318368,-22.085846 -31.23251,0 -53.31836,22.085846 -21.86275,22.085847 -21.86275,53.318359"
           id="path4000"
           style="fill:url(#gradient1-6);fill-rule:evenodd;stroke:none"
           inkscape:connector-curvature="0" />
        <path
           transform="matrix(3.7818957,0,0,3.7818957,-225.48149,-69.053591)"
           d="M 20.951172,3.671875 V 3.7890625 H 20.833984 V 3.90625 h -0.472656 v 0.1191406 h -0.472656 v 0.1757813 h -0.117188 v 0.4726562 h 0.236328 v 0.1171875 h 1.060547 V 4.9101562 H 20.478516 V 5.1464844 H 20.361328 V 5.0273438 h -0.472656 v 0.2363281 h 0.11914 v 0.3535156 h -0.11914 v 0.2363281 h -0.234375 v 0.1171875 h -0.119141 v 0.1191407 h -0.117187 v 0.1171874 h -0.119141 v 0.2949219 h -0.175781 v 0.1191407 h -0.119141 v 0.234375 h 0.119141 v 0.1191406 h 0.294922 v 0.1171875 h 0.470703 v 0.1191406 h 0.472656 V 7.0917969 h 0.236328 V 6.7382812 h 0.117188 V 6.6210938 h 0.236328 V 6.5019531 h 0.117187 V 6.3847656 H 21.1875 V 6.2070312 h 0.117188 V 5.9707031 h 0.177734 V 5.8535156 h 0.470703 V 5.7363281 h 0.119141 v 0.234375 h -0.119141 v 0.2363281 h 0.355469 v 0.2949219 h 0.117187 V 6.6210938 H 22.308594 V 6.7382812 H 21.835938 V 6.8554688 H 21.71875 V 6.9746094 H 21.068359 V 7.0917969 H 20.951172 V 7.2109375 H 20.833984 V 7.328125 h 0.117188 V 7.4472656 H 21.1875 v 0.1171875 h 0.294922 v 0.1171875 h 0.117187 v 0.1191406 h -0.53125 V 8.1542969 H 21.1875 V 8.390625 h 0.765625 v 0.2949219 h 0.236328 V 8.5078125 h 0.353516 V 8.390625 h 0.945312 v 0.1171875 h 0.175781 v 0.1777344 h 0.119141 v 0.3535156 h 0.117188 V 9.15625 h 0.117187 v 0.945312 h -0.117187 v 0.117188 h -0.117188 v 0.117188 h 0.470703 v 0.11914 h -0.117187 v 0.117188 h 0.117187 v 0.11914 h 0.355469 v 0.175782 h 0.117187 v 0.11914 h -0.117187 v 0.117188 h -0.236328 v 0.236328 h -0.119141 v 0.117187 h -0.117187 v 0.119141 h 0.117187 v 0.470703 h 0.119141 v 0.236328 h 0.117187 v 0.236328 h 0.119141 v 0.236328 h 0.117187 v 0.117188 h 0.117188 v 0.294922 h 0.119141 v 0.11914 h 0.117187 v 0.117188 h 0.589844 v 0.117187 h 0.53125 v -0.353515 h 0.117187 v -0.41211 h 0.294922 v -0.353515 h 0.119141 v -0.236328 h 0.353516 v -0.119141 h 0.353515 v -0.117187 h 0.119141 v -0.119141 h 0.117187 v -0.117188 h 0.117188 v -0.236328 h 0.472656 v -0.117187 h 0.117187 v -0.119141 h 0.119141 v 0.119141 h 0.236328 v -0.119141 h 0.41211 v -0.117187 h 0.117187 v -0.117188 h 0.355469 v -0.11914 h 0.117187 v -0.294922 h 0.119141 V 10.101562 H 29.740234 V 9.9824219 H 29.623047 V 9.5117188 h 0.353515 V 9.3925781 H 30.09375 V 9.2753906 h 0.119141 V 9.15625 h 0.117187 V 9.0390625 h 0.119141 V 8.6855469 H 30.330078 V 8.5078125 H 30.212891 V 8.390625 h 0.589843 V 8.1542969 h -0.11914 V 8.0371094 H 30.566406 V 7.8007812 H 30.449219 V 7.5644531 H 30.09375 V 7.4472656 H 29.740234 V 7.9179688 H 29.623047 V 8.1542969 H 29.503906 V 7.6816406 H 29.386719 V 7.5644531 h 0.117187 V 7.2109375 h 0.236328 V 7.328125 h 0.236328 V 6.9746094 h 0.472657 V 6.7382812 H 30.330078 V 6.6210938 h -0.470703 v 0.234375 H 29.623047 V 6.9746094 H 29.503906 V 6.6210938 h 0.119141 V 6.5019531 h 0.943359 V 6.3847656 h 0.117188 V 6.2070312 H 30.09375 V 6.0898438 h 0.119141 V 5.8535156 h 0.117187 V 5.7363281 h 0.236328 V 5.6171875 h 0.117188 V 5.2636719 h 0.11914 V 5.0273438 H 30.566406 V 4.9101562 H 29.976562 V 5.2636719 H 29.859375 V 5.3808594 H 29.740234 V 5.5 H 29.503906 V 5.3808594 h 0.119141 V 5.2636719 h 0.117187 V 5.1464844 h 0.119141 V 4.7910156 H 29.150391 V 4.6738281 h 0.117187 V 4.4375 H 29.150391 V 4.3203125 h -0.53125 V 4.2011719 H 28.148438 V 4.0253906 H 27.675781 V 3.90625 H 26.318359 V 4.0253906 H 26.083984 V 4.2011719 H 25.669922 V 4.3203125 H 25.552734 V 4.4375 H 25.199219 V 4.5566406 H 25.080078 V 4.6738281 H 24.490234 V 4.7910156 H 23.900391 V 4.9101562 H 23.251953 V 5.0273438 H 22.898438 V 4.9101562 h 0.234374 V 4.7910156 h 0.236329 V 4.6738281 H 23.251953 V 4.5566406 h -0.119141 v -0.53125 H 23.015625 V 3.90625 H 22.898438 V 3.7890625 H 22.779297 V 3.671875 H 21.953125 V 3.7890625 H 21.599609 V 3.671875 Z M 18.177734,4.2011719 V 4.4375 H 18.060547 V 4.7910156 H 17.943359 V 4.6738281 H 17.707031 V 4.4375 h -0.472656 v 0.1191406 h -0.412109 v 0.1171875 h 0.294922 v 0.1171875 h 0.117187 v 0.1191406 h 0.236328 v 0.1171876 h 0.353516 V 4.9101562 h 0.11914 v 0.2363282 h 0.117188 v 0.1171875 h -0.117188 v 0.1171875 h 0.234375 v 0.2363281 h -0.117187 v 0.1191406 h 0.117187 v 0.3535157 h 0.826172 V 5.8535156 h 0.119141 V 5.7363281 h 0.175781 V 5.5 h 0.119141 V 5.1464844 H 19.123047 V 4.6738281 H 19.003906 V 4.5566406 H 18.886719 V 4.4375 H 18.533203 V 4.2011719 Z M 16.46875,4.6738281 v 0.1171875 h 0.117188 V 4.6738281 Z M 15.642578,5.0273438 V 5.1464844 H 15.289062 V 5.2636719 H 15.052734 V 5.5 h 0.470704 v 0.4707031 h 0.355468 v 0.1191407 h 0.117188 V 5.9707031 h 0.117187 v 0.1191407 h 0.119141 V 7.0917969 H 15.996094 V 7.328125 h -0.117188 v 0.1191406 h -0.11914 v 0.234375 h 0.11914 v 0.8261719 h 0.353516 V 8.1542969 h 0.117187 V 8.0371094 h 0.236329 V 7.9179688 h 0.117187 V 7.8007812 h 0.119141 V 7.4472656 h 0.117187 V 7.328125 h 0.884766 V 7.2109375 h 0.236328 V 7.328125 h 0.353515 v 0.4726562 h 1.240235 V 7.4472656 H 19.535156 V 7.2109375 H 18.767578 V 6.3847656 H 18.533203 V 6.2070312 H 18.060547 V 6.0898438 H 17.587891 V 6.2070312 H 17.117188 V 6.0898438 H 16.939453 V 5.9707031 H 16.703125 V 5.7363281 H 16.585938 V 5.5 H 16.113281 V 5.3808594 H 15.996094 V 5.2636719 H 15.759766 V 5.0273438 Z M 14.521484,5.5 V 5.6171875 H 14.285156 V 5.7363281 H 14.048828 V 5.8535156 H 13.8125 v 0.1171875 h 0.119141 v 0.1191407 h 0.236328 v 0.1171874 h 0.117187 v 0.2949219 h 0.119141 v 0.1191407 h 0.412109 v 0.1171874 h 0.707032 V 6.6210938 h 0.236328 v -0.53125 H 14.933594 V 6.3847656 H 14.816406 V 5.7363281 h 0.117188 V 5.5 Z m -1.533203,0.8847656 v 0.1171875 h -0.236328 v 0.1191407 h -0.119141 v 0.1171874 h -0.294921 v 0.1171876 h -0.117188 v 0.1191406 h -0.236328 v 0.1171875 h 0.236328 V 7.328125 h 0.648438 V 7.2109375 h 0.472656 V 7.0917969 h 0.236328 V 6.8554688 h 0.117187 V 6.6210938 H 13.578125 V 6.5019531 H 13.222656 V 6.3847656 Z m 1.179688,0.5898438 V 7.0917969 H 14.048828 V 7.5644531 H 13.695312 V 7.9179688 H 13.8125 v 0.1191406 h 0.119141 v 0.1171875 h 0.117187 V 8.390625 h 0.236328 v 0.1171875 h 0.648438 V 8.390625 h 0.11914 v 0.2949219 h -0.11914 V 8.8027344 H 14.816406 V 9.0390625 H 14.521484 V 9.2753906 H 14.285156 V 8.921875 H 13.931641 V 8.8027344 H 13.578125 V 8.5078125 H 13.458984 V 7.8007812 H 13.341797 V 7.6816406 h -0.353516 v 0.1191406 h -0.11914 V 7.6816406 h -0.53125 V 7.5644531 H 11.984375 V 7.8007812 H 11.867188 V 7.4472656 H 11.630859 V 7.328125 h -0.117187 v 0.1191406 h -0.119141 v 0.234375 H 11.277344 V 7.5644531 h -0.119141 v 0.1171875 h -0.117187 v 0.1191406 h -0.117188 v 0.1171876 h -0.11914 V 8.0371094 H 10.568359 V 8.1542969 H 10.451172 V 8.2714844 H 10.6875 V 8.1542969 h 0.117188 V 8.390625 h 0.11914 v 0.4121094 h 0.234375 V 8.921875 h 0.472656 V 8.8027344 h 0.236329 V 8.921875 h 0.236328 v 0.1171875 h -0.945313 v 0.3535156 h 0.119141 v 0.1191407 h 0.353515 v 0.1171874 h 0.117188 v 0.1171876 h 0.589844 V 9.6289062 h 0.65039 V 9.5117188 h 0.353516 v 0.1171874 h 0.589844 V 9.5117188 h 0.117187 V 9.2753906 h 0.119141 v 0.3535156 h 0.236328 v 0.1171876 h 0.234375 V 9.6289062 h 0.294922 v 0.1171876 h 0.11914 v 0.2363281 h 0.117188 v 0.1191401 h 0.11914 v 0.234376 h -0.11914 v 0.11914 h -0.353516 v -0.11914 h 0.117188 v -0.234376 h -0.765625 v 0.353516 h -0.472657 v 0.117188 h -0.117187 v -0.117188 h -0.119141 v -0.11914 H 13.341797 V 10.21875 H 12.988281 V 9.9824219 h -0.11914 V 9.8652344 h -0.117188 v 0.1171875 h -0.53125 v 0.1191401 h -0.117187 v 0.353516 h 0.117187 v 0.117188 h -0.117187 v 0.11914 h -0.119141 v -0.236328 h -0.117187 v -0.11914 h -0.236329 v 0.11914 h -0.589843 v -0.11914 h 0.117187 V 9.9824219 H 11.041016 V 9.8652344 H 10.923828 V 9.7460938 H 10.6875 V 9.9824219 H 10.568359 V 9.8652344 H 10.451172 V 9.7460938 H 10.273438 V 9.6289062 H 10.039062 V 9.5117188 H 9.8027344 V 9.3925781 L 8.9785156,9.390625 c -0.1868005,0.1739836 -0.865643,0.868616 -1.8261718,2.125 -0.6581834,0.860909 -1.2548088,1.80467 -1.515625,2.355469 l 0.1542968,0.0059 v 0.234375 h 0.1171875 v 0.119141 h 0.1191407 v 0.117187 h 0.53125 v 0.119141 h 0.3535156 v 0.117187 h 0.1171875 v 0.117188 H 7.1484375 V 14.9375 h 0.234375 v 0.414062 h 0.1191406 v 0.117188 h 0.2363281 v 0.117188 H 7.6191406 v 0.355468 h 0.1191406 v 0.41211 h 0.1171876 v 0.117187 h 0.1171874 v 0.119141 h 0.1191407 v 0.236328 h 0.1757812 v 0.117187 h 0.2363281 v 0.117188 h 0.1191407 v 0.119141 H 8.859375 v 0.117187 h 0.1171875 v 0.119141 H 9.09375 v 0.884765 H 8.9765625 v 0.589844 H 8.859375 v 1.179687 h 0.1171875 v 0.236329 H 9.09375 v 0.294921 h 0.1191406 v 0.117188 h 0.1171875 v 0.236328 h 0.2363281 v 0.236328 h 0.1171876 v 0.117188 h 0.1191406 v 0.117187 H 10.15625 v 0.119141 h 0.117188 v 0.353516 h 0.177734 v 0.117187 h 0.117187 v 0.236328 H 10.6875 v 0.119141 h 0.117188 v 0.294922 h 0.11914 v 0.236328 h 0.234375 v 0.117187 h 0.119141 v 0.117188 h 0.117187 v 0.236328 h 0.119141 v 0.119141 h 0.117187 v 0.234374 h 0.236329 v 0.119141 h 0.353515 v -0.236328 h -0.117187 v -0.117187 h -0.119141 v -0.236329 h -0.117187 v -0.11914 h -0.119141 v -0.234375 h 0.236328 v 0.234375 h 0.119141 v 0.11914 h 0.234375 v 0.236329 h 0.294921 v 0.117187 h 0.119141 v 0.117187 h 0.117188 v 0.472657 h 0.11914 v 0.353515 h 0.234375 v 0.119141 h 0.472656 v 0.175781 h 0.236329 v 0.119141 h 0.589843 v 0.234375 h 1.357422 v 0.11914 h 0.117188 V 25.4375 h 0.117187 v 0.119141 h 0.119141 v 0.117187 h 0.353516 v 0.117188 h 0.236328 v 0.11914 h 0.117187 v 0.236328 h 0.177735 V 26.5 h 0.236328 v 0.117188 h 0.824218 v 0.11914 h 0.472657 v 0.117188 h 0.117187 v 0.53125 h -0.117187 v 0.236328 h -0.117188 v 0.234375 h -0.119141 v 0.355469 h -0.117187 v 0.236328 h -0.236328 v 0.117187 h -0.117188 v 0.472656 h -0.11914 v 0.294922 h 0.11914 v 0.353516 h 0.117188 v 0.117187 h 0.117187 v 0.119141 h 0.119141 v 0.234375 h 0.117187 v 0.236328 h 0.119141 v 0.589844 h 0.117188 v 0.11914 h 0.117187 v 0.117188 h 0.119141 v 0.117188 h 0.117187 v 0.177734 h 0.294922 v 0.117187 h 0.236328 V 31.75 h 0.119141 v 0.117188 h 0.117187 v 0.11914 h 0.117188 v 1.945313 h -0.117188 v 0.355468 h -0.117187 v 0.824219 h -0.119141 v 0.650391 h -0.117187 v 0.353515 H 19.298828 V 37 h 0.119141 v 0.117188 h -0.119141 v 0.236328 h -0.175781 v 0.236328 h 0.175781 v 0.943359 h -0.175781 v 0.119141 h -0.119141 v 0.529297 h -0.117187 v 1.416015 h 0.117187 v 0.119141 h 0.119141 v 0.117187 h 0.175781 v 0.117188 h 0.236328 v -0.117188 h 0.236328 v 0.117188 h 0.117188 v 0.294922 h -0.234375 v 0.355468 h 0.234375 v 0.234376 h 0.472656 v 0.11914 h 0.236328 v -0.11914 h 0.236328 v 0.11914 h 0.234375 V 41.71875 H 21.1875 v -0.353516 h -0.119141 v -0.11914 h -0.117187 v -0.117188 h -0.353516 v -0.177734 h -0.11914 v -0.117188 h -0.117188 v -0.472656 h -0.117187 v -0.234375 h 0.117187 v -0.119141 h 0.117188 v -0.236328 h 0.11914 v -0.117187 h 0.117188 v -0.117188 h 0.11914 v -0.589843 h -0.236328 v -0.414063 h 0.236328 v -0.117187 h 0.117188 v -0.355469 h 0.117187 V 37.826172 H 21.1875 v -0.355469 h -0.119141 v -0.117187 h 0.414063 v -0.236328 h 0.117187 v -0.353516 h 0.353516 v 0.117187 h 0.236328 v -0.117187 h 0.236328 v -0.117188 h 0.117188 v -0.767578 h -0.117188 v -0.117187 h 0.707031 v -0.177735 h 0.119141 v -0.236328 h 0.117188 v -0.236328 h 0.11914 v -0.234375 h 0.175781 v -0.355469 h 0.119141 v -0.117187 h 0.117188 v -0.236328 h 0.117187 v -0.236328 h 0.119141 v -0.41211 h 0.117187 v -0.117187 h 0.119141 v -0.119141 h 0.236328 v -0.236328 h 0.470703 v -0.117187 h 0.236328 v -0.119141 h 0.117188 v -0.117188 h 0.11914 v -0.117187 h 0.117188 v -0.119141 h 0.11914 v -0.236328 h 0.175782 v -0.589844 h 0.11914 v -0.529297 h 0.117188 v -0.236328 h 0.117187 V 30.628906 H 26.4375 v -0.117187 h 0.175781 v -0.236328 h 0.119141 V 30.15625 h 0.117187 v -1.001953 h -0.236328 v -0.117188 h -0.294922 v -0.11914 h -0.117187 v -0.117188 h -0.41211 v -0.11914 h -0.472656 v -0.117188 h -0.353515 v -0.353515 h -1.0625 v -0.589844 h -0.117188 v -0.119141 h -0.119141 v -0.117187 h -0.175781 v -0.119141 h -0.236328 v -0.117187 h -0.119141 v -0.177735 h -0.470703 v -0.117187 h -0.236328 v -0.117188 h -0.117187 v -0.11914 H 22.189453 V 26.5 h -0.117187 v -0.119141 h -0.119141 v -0.117187 h -0.117187 v -0.117188 h -0.236329 v -0.11914 h -0.765625 v 0.11914 h -0.11914 v -0.11914 h -0.117188 v -0.117188 h -0.236328 v -0.236328 h -0.589844 v 0.117188 h -0.236328 v 0.11914 h -0.412109 v 0.117188 h -0.119141 v 0.236328 h -0.117187 v 0.117187 h -0.119141 v -0.117187 h -0.470703 v 0.117187 h -0.236328 v -0.117187 h -0.236328 v -0.117188 h -0.117188 v -0.236328 h -0.11914 v -0.11914 h 0.11914 v -0.824219 h -0.767578 v -0.767578 h 0.177735 V 23.845703 H 16.46875 v 0.117188 h -0.355469 v 0.236328 h -0.117187 v 0.117187 h -0.236328 v 0.119141 H 15.40625 v -0.119141 h -0.353516 v -0.117187 h -0.11914 v -0.353516 h -0.117188 v -0.236328 h -0.177734 v -0.353516 h -0.117188 v -0.472656 h 0.117188 v -0.117187 h 0.177734 v -0.177735 h 0.236328 v -0.117187 h 1.060547 v -0.119141 h 1.121094 v 0.119141 h 0.119141 v 0.412109 h 0.117187 v 0.236328 h 0.117188 v 0.117188 h 0.11914 v 0.11914 h 0.117188 v 0.117188 h 0.353515 v -0.117188 h 0.119141 v -0.353515 h -0.119141 v -0.236328 h -0.117187 v -0.294922 h -0.117188 v -0.472656 h 0.117188 v -0.236329 h 0.236328 v -0.117187 h 0.117187 v -0.119141 h 0.119141 v -0.234375 h 0.234375 v -0.11914 h 0.119141 v -0.117188 h 0.117187 V 20.71875 h -0.117187 v -0.117188 h 0.236328 v -0.294921 h 0.294922 v -0.708985 h 0.826172 v -0.117187 h 0.117187 V 19.361328 H 20.244141 V 19.244141 H 20.125 v -0.117188 h 0.119141 v -0.119141 h 0.117187 v -0.117187 h 0.236328 v 0.117187 h 0.470703 v -0.117187 h 0.236329 v -0.119141 h 0.294921 v -0.234375 h -0.117187 v -0.11914 h -0.177734 v -0.117188 h -0.236329 v -0.177734 h -0.117187 v -0.353516 h 0.117187 v -0.472656 h -0.353515 v 0.119141 h -0.117188 v -0.119141 h 0.117188 v -0.117187 h 0.884765 v -0.119141 h 0.353516 v 0.119141 h 0.236328 v -0.119141 h 0.119141 v -0.117188 h 0.117187 v -0.117187 h 0.117188 v -0.119141 h 0.236328 v -0.117187 h 0.119141 v -0.472656 h -0.119141 v -0.294922 h -0.117188 v -0.117188 h -0.11914 v -0.11914 H 22.072266 V 15.46875 H 21.953125 V 15.056641 H 21.835938 V 14.9375 H 21.71875 V 14.701172 H 21.599609 V 14.347656 H 21.482422 V 14.111328 H 21.304688 V 13.876953 H 21.1875 v -0.236328 h -0.236328 v 0.117187 h -0.117188 v 0.353516 h -0.236328 v 0.119141 H 20.244141 V 14.111328 H 20.125 v -0.824219 h -0.236328 v -0.11914 h -0.117188 v -0.117188 h -0.117187 v -0.177734 h -0.767578 v -0.117188 h -0.119141 v -0.11914 h 0.355469 v -0.470703 h -0.236328 v 0.117187 h -0.119141 v 0.119141 h -0.234375 v -0.119141 h -0.119141 v -0.117187 h -0.117187 v -0.236328 h -0.236328 v -0.119141 h -0.117188 v -0.117188 h -0.236328 v -0.236328 h -0.11914 v 0.119141 h -0.117188 v 0.117187 h -0.236328 v 0.236329 h -0.117187 v 0.353515 h 0.236328 v 0.236328 h 0.353515 v -0.117187 h 0.117188 v -0.119141 h 0.236328 v 0.119141 h 0.236328 v 0.648437 h -0.119141 v 0.470703 h 0.119141 v 0.355469 h -0.119141 v 0.707031 h 0.119141 v 0.472657 h 0.117187 v 0.175781 h -0.117187 v 0.11914 h -0.119141 v 0.117188 h -0.117187 v 0.117188 h -0.117188 v 0.884765 h 0.117188 v 0.236328 h -0.117188 v 0.119141 h -0.11914 v -0.119141 h -0.117188 v -0.236328 h -0.11914 v -0.117187 h -0.117188 v -0.41211 H 17.353516 V 15.585938 H 17.234375 V 15.46875 h -1.121094 v -0.117188 h -0.117187 v -0.11914 h -0.117188 v -0.41211 h -0.11914 V 14.583984 H 15.523438 V 14.466797 H 15.40625 v -0.236328 h -0.117188 v 0.117187 h -0.11914 v -0.117187 h -0.117188 v -0.119141 h -0.11914 v -0.234375 h 0.11914 v -0.355469 h 0.117188 v -0.117187 h 0.11914 v -0.117188 h 0.117188 v -0.11914 h 0.117188 v -0.294922 h 0.236328 v -0.117188 h 0.589843 v -0.589843 h 0.119141 v -0.236328 h 0.117188 v -0.119141 h 0.117187 V 11.457031 H 16.46875 v -0.117187 h 0.353516 v 0.117187 h 0.294922 v -0.117187 h 0.470703 v -0.236328 h 0.11914 v -0.117188 h 0.117188 v -0.65039 H 17.587891 V 10.21875 h 0.11914 v -0.117188 h 0.117188 V 9.7460938 H 17.587891 V 9.3925781 h -0.648438 v 0.3535157 h 0.177735 V 9.8652344 H 16.939453 V 9.9824219 H 16.822266 V 10.335938 H 16.703125 V 10.21875 H 16.585938 V 9.7460938 H 16.349609 V 9.8652344 H 16.232422 V 9.7460938 H 15.878906 V 9.15625 h -0.11914 V 8.6855469 h -0.117188 v -0.53125 h -0.589844 v -1.0625 h -0.11914 V 6.9746094 Z m 3.539062,5.5449216 v 0.236328 h 0.470703 V 12.519531 Z M 18.177734,8.1542969 V 8.5078125 H 18.060547 V 8.921875 H 17.943359 V 9.15625 h 0.117188 v 0.1191406 h 0.117187 v 0.2363282 h 0.119141 v 0.3535156 h 0.236328 v 0.1171875 h 0.234375 v 0.4726561 h 0.236328 v 0.117188 h 0.119141 v -0.117188 h 0.175781 V 9.9824219 h 0.236328 v 0.1191401 h 0.353516 v 0.117188 h 0.11914 v 0.117188 H 20.125 v 0.11914 h 0.119141 v 0.648438 H 20.125 v 0.353515 h -0.117188 v 0.119141 h -0.11914 v -0.119141 h -0.234375 v 0.236328 h -0.119141 v 0.236329 h 0.119141 v 0.117187 h 0.589844 v 0.119141 h 0.234375 v 0.236328 h 0.11914 v 0.117187 h 0.236328 v 0.117188 h 0.117188 v 0.11914 h 0.353516 v -0.236328 h 0.177734 v 0.117188 h 0.236328 v -0.470703 h -0.119141 v -0.236328 h -0.117187 v -0.119141 h 0.117187 v -0.117188 h 0.353516 v -0.117187 h 0.236328 V 11.339844 H 22.072266 V 10.986328 H 21.71875 v -0.294922 h -0.119141 v -0.11914 h -0.294921 v -0.117188 h -0.236329 v -0.11914 h 0.236329 V 9.7460938 H 21.068359 V 9.5117188 H 20.951172 V 9.3925781 H 20.714844 V 9.15625 H 20.361328 V 8.921875 H 20.244141 V 8.8027344 H 19.535156 V 8.6855469 H 19.298828 V 8.5078125 h 0.119141 V 8.390625 H 19.298828 V 8.1542969 Z m 19.884766,1.9453121 -0.181641,0.002 v 0.117188 h -0.117187 v 0.236328 h -0.177734 v 0.41211 H 37.46875 v 0.236328 h -0.119141 v 0.236328 h -0.117187 v 0.353515 h -0.236328 v 0.236329 h -0.117188 v 0.236328 h -0.11914 v 0.236328 h -0.117188 v 0.117187 h -0.11914 v 0.117188 H 36.40625 v 0.11914 h -0.117188 v 0.117188 h -0.11914 v 0.177734 h -0.117188 v 0.117188 h -0.236328 v 0.11914 h -0.117187 v 0.117188 h -0.119141 v 0.117187 h -0.294922 v 0.119141 h 0.177735 v 0.117187 h -0.177735 v 0.353516 h 0.177735 v 0.472656 h -0.177735 v 0.236328 h 0.177735 v 0.41211 h 0.117187 v 0.11914 h 0.589844 v -0.11914 h 0.11914 v -0.175781 h 0.117188 v -0.236329 h 0.117188 v -0.11914 h 0.11914 v -0.117188 h 0.117188 v 0.472657 h -0.117188 v 0.294921 h 0.117188 v 0.353516 h 0.11914 v 0.236328 h 0.117188 v 0.175782 h 0.472656 v -0.175782 h 0.294922 v -0.236328 h 0.117187 v -0.353516 h 0.117188 v -0.294921 h 0.119141 v -0.236329 h 0.117187 v -0.11914 h 0.119141 v -0.470703 h -0.236328 v -0.708985 h 0.117187 v -0.117187 h 0.119141 v -0.117188 h 0.234375 v -0.11914 h 0.11914 v 1.179687 h 0.117188 v 0.119141 h 0.236328 v 0.117187 h 0.117187 v 0.117188 h -0.117187 v 0.53125 h 0.117187 v 0.236328 h -0.117187 v -0.117188 h -0.117188 v -0.11914 h -0.11914 v 0.11914 h -0.117188 v 0.117188 h -0.11914 v 0.117188 h -0.117188 v 0.355468 h -0.117187 v 0.294922 h -0.236328 v 0.117188 h -0.119141 v -0.117188 h -0.234375 v 0.117188 h -0.177734 v 0.117187 h -0.472657 v -0.117187 h -0.589843 v -0.53125 h 0.11914 v -0.236328 h -0.11914 V 15.232422 H 36.40625 v 0.11914 h -0.236328 v 0.117188 h -0.117188 v 0.117188 h -0.11914 v 0.53125 h 0.11914 v 0.472656 h -0.236328 v 0.117187 h -0.53125 v 0.236328 h -0.117187 v 0.236329 h -0.119141 v 0.117187 h -0.117187 v 0.119141 H 34.8125 v -0.472657 h -0.117188 v -0.117187 h -0.117187 v -0.119141 h -0.119141 v -0.236328 h -0.117187 v -0.117187 h -0.119141 v -1.001954 h -0.353515 v -0.11914 h -0.117188 v -0.175781 h 0.117188 V 14.820312 H 33.398438 V 14.9375 h -0.119141 v 0.414062 h -0.175781 v 0.470704 h 0.175781 v 0.294922 h -0.765625 v 0.353515 h -0.119141 v -0.117187 h -0.236328 v 0.117187 h -0.117187 v 0.236328 h 0.236328 v 0.708985 h 0.470703 v -0.119141 h 0.355469 v -0.117187 h 0.175781 v 0.117187 h 0.236328 v 0.119141 h -0.236328 v 0.117187 h -0.175781 v 0.119141 h -0.119141 v 0.234375 h 0.53125 v -0.117188 h 0.472656 v 0.117188 h -0.355469 v 0.11914 h -0.234374 v 0.41211 h 0.234374 v 0.11914 h 0.119141 v 0.117188 h 0.117188 v 0.117187 h 0.11914 v 0.708985 h -1.121093 v -0.119141 h -0.236329 v 0.119141 h -0.236328 v 1.710937 h 0.236328 v 0.234375 h 0.117188 v 0.119141 h -0.117188 v 0.353516 h -0.117187 v 0.117187 h -0.119141 v 0.119141 h -0.117187 v 0.236328 h -0.119141 v 0.294922 h -0.117187 v 0.117187 h -0.117188 v 0.119141 h -0.11914 v 0.117187 h -0.236329 v 0.117188 h -0.117187 v 0.11914 h -0.117188 v 0.236329 h -0.414062 v 0.589843 h -0.236328 v 0.117188 h -0.117188 v 0.236328 h -0.117187 v 0.117187 h 0.117187 v 0.53125 h 0.117188 v 0.236328 H 30.566406 V 25.4375 h -0.117187 v 0.708984 h 0.117187 v 0.117188 h 0.117188 v 0.117187 h 0.11914 V 26.5 h 0.117188 v 0.117188 h 0.294922 v 0.11914 h 0.11914 v 0.117188 h 0.117188 v 0.294922 h 0.117187 v 0.236328 h 0.236329 v 0.117187 h 0.11914 v 0.119141 h 0.117188 v 0.117187 h 0.117187 v 0.117188 h 0.708985 v -0.117188 h 0.884765 v 0.117188 h 0.117188 v -0.117188 h 0.472656 v -0.117187 h 0.589844 v 0.117187 h 0.236328 v 0.117188 h 0.765625 v 0.11914 h 0.11914 v 0.353516 h -0.11914 v 0.236328 h -0.117188 v 0.472656 h 0.117188 v 0.117188 h 0.236328 v 0.412109 h 0.11914 v 0.119141 h 0.117188 v 0.470703 h 0.117188 v 0.119141 h 0.11914 v 0.236328 h 0.117188 v 0.353515 h -0.117188 v 0.117188 h -0.11914 v 0.11914 h 0.11914 v 0.234376 H 36.40625 v 0.53125 h -0.117188 v 0.353515 h 0.117188 v 0.236328 h 0.117188 v 0.236328 h 0.11914 v 0.353516 h 0.117188 v 0.355469 h 0.11914 v 0.412109 h 0.117188 v 0.236328 h 0.117187 v 0.470703 h 0.119141 v 0.119141 h 0.117187 v 0.117187 h 0.119141 v 0.236329 h 0.117188 v 0.589843 h 0.294921 v 0.177735 h 0.589844 v -0.177735 l 0.451172,0.0039 c 1.282242,-1.728743 4.152344,-5.310135 4.152344,-12.242188 0,-6.932053 -3.003538,-10.928835 -5.011719,-13.246094 z m -19.175781,0.002 h 0.117187 v 0.234376 h -0.117187 z m 10.146484,0.353516 h 0.117188 v 0.117188 h -0.117188 z m -7.964844,0.884766 H 21.1875 v 0.236328 h -0.119141 z m 8.435547,0.117187 v 0.119141 h -0.117187 v 0.234375 h -0.119141 v 0.236328 h 0.236328 v 0.119141 h -0.117187 v 0.117187 h -0.119141 v 0.236328 h 0.355469 v 0.117188 h 0.236328 v 0.11914 h 0.117187 v 0.117188 h 0.353516 v 0.177734 h 0.589844 V 12.873047 H 31.6875 v -0.117188 h 0.236328 v -0.11914 h 0.234375 v -0.117188 h 0.119141 v -0.117187 h 0.117187 v -0.355469 h -0.117187 v -0.117187 h -0.119141 v -0.119141 h -0.117187 v -0.117188 h -0.117188 v -0.117187 h -0.472656 v 0.117187 h -0.648438 v -0.117187 h -0.472656 v 0.117187 h -0.117187 v 0.117188 H 30.09375 v -0.117188 h -0.117188 v -0.117187 h -0.117187 v -0.119141 z m 9.556641,0.826172 h 0.353515 v 0.236328 h -0.117187 v 0.117188 h -0.119141 v 0.11914 h -0.117187 v 0.117188 h -0.117188 v 0.177734 h -0.11914 v -0.53125 h 0.11914 v -0.117187 h 0.117188 z m 0.707031,2.064453 H 40.0625 v 0.119141 h -0.117188 v 0.117187 h -0.53125 v -0.117187 h 0.353516 z m -6.36914,2.123047 h 0.234374 v 0.236328 h -0.353515 v -0.117187 h 0.119141 z m -13.03711,0.945313 h 0.117188 V 17.53325 H 20.361328 Z M 20.125,17.533203 h 0.119141 v 0.119141 H 20.125 Z m -4.011719,0.119141 h 0.355469 v 0.117187 h 0.117188 v 0.117188 h 0.236328 v 0.11914 H 16.46875 v -0.11914 h -0.119141 v 0.11914 h -0.470703 v -0.11914 h 0.117188 v -0.117188 h 0.117187 z m 18.699219,0 h 0.236328 v 0.234375 h 0.119141 v 0.11914 h -0.826172 v -0.11914 h 0.236328 V 17.769531 H 34.8125 Z m -1.060547,0.470703 h 0.236328 v 0.414062 h -0.11914 v -0.11914 h -0.117188 z m -16.517578,0.177734 h 0.472656 v 0.117188 h 0.117188 v 0.11914 h -0.117188 v -0.11914 h -0.11914 v 0.353515 h -0.117188 v -0.353515 h -0.236328 z m 0.708984,0.117188 h 0.117188 v 0.11914 h -0.117188 z m -1.240234,0.236328 h 0.119141 v 0.236328 h -0.119141 v 0.353516 H 16.46875 v -0.117188 h 0.117188 v -0.355469 h 0.117187 z m 1.59375,0 h 0.236328 v 0.117187 h -0.119141 v 0.236328 h -0.117187 v 0.119141 h -0.119141 v 0.117188 h -0.470703 v -0.117188 h 0.117188 v -0.119141 h 0.472656 z m 0.470703,0 h 0.119141 v 0.117187 h -0.119141 z m 18.582031,0.943359 h 0.236329 v 0.119141 h 0.177734 v 0.117187 h 0.117187 v 0.117188 h 0.236329 v 0.11914 h 0.117187 v 0.41211 h 0.119141 v 0.472656 h 0.117187 v 0.236328 h 0.117188 v 0.117188 h 0.11914 v 0.117187 h 0.353516 v -0.234375 h 0.117187 v -0.11914 h 0.119141 v -0.470704 h 0.117187 v -0.11914 h 0.119141 v 0.472656 h 0.117188 v 0.117188 h 0.117187 v 0.236328 h 0.177734 v 0.117187 h 0.236329 v 0.119141 h 0.472656 v -0.119141 h 0.117187 v 0.119141 h 0.589844 v 0.117187 h 0.117188 v 0.236329 h -0.117188 v 0.117187 h -0.117187 v 0.236328 H 41.125 v 0.119141 h -0.117188 v 0.117187 h -1.357421 v -0.117187 h -0.589844 v -0.119141 h -0.826172 v 0.119141 h -0.117187 v 0.294922 h 0.117187 v 0.117187 H 37.880859 V 22.666016 H 37.585938 V 22.488281 H 37.46875 v -0.236328 h -0.119141 v -0.117187 h -0.353515 v -0.119141 h -0.353516 v -0.117187 h -0.11914 V 21.191406 H 36.40625 v -0.11914 h -1.121094 v 0.11914 h -0.826172 v 0.117188 h -0.236328 v -0.472656 h 0.119141 V 20.71875 h 0.117187 v -0.412109 h 0.236328 V 20.1875 h 0.353516 v -0.117188 h 0.119141 v -0.353515 h 0.117187 v 0.117187 h 0.53125 v -0.117187 h 0.236328 v 0.353515 h -0.11914 v 0.765626 h 0.355468 V 20.71875 h 0.117188 v -0.884766 h 0.117188 v 0.117188 h 0.236328 V 20.1875 h 0.11914 v 0.119141 h 0.234375 v 0.529297 h -0.353515 v 0.236328 h 0.11914 v 0.11914 h 0.470703 v 0.117188 h 0.119141 v -0.236328 h 0.294922 v -0.117188 h 0.234375 v -0.11914 h 0.119141 v -0.529297 h -0.119141 v -0.236329 h -0.234375 v -0.11914 h -0.177734 v -0.117188 h -0.236329 z m -2.654297,0.884766 v 0.236328 h 0.353516 v -0.236328 z m -1.179687,0.708984 h 0.472656 v 0.234375 h -0.236328 v 0.119141 h -0.472656 v -0.119141 h -0.294922 v -0.117187 h 0.53125 z m -22.357422,1.060547 h 0.119141 v 0.119141 h -0.119141 z m 26.074219,0.119141 h 0.117187 v 0.117187 h -0.117187 z m -18.699219,0.412109 v 0.119141 h 0.470703 v -0.119141 z m 0.589844,0 v 0.472656 h 0.175781 v -0.11914 h 0.119141 V 22.783203 Z M 40.0625,22.902344 h 0.119141 v 0.117187 h 0.117187 v 0.117188 h 0.119141 v 0.11914 h 0.117187 v 0.236329 H 40.298828 V 23.373047 H 40.0625 Z m -21.175781,0.470703 v 0.236328 h 0.117187 v 0.236328 h 0.294922 v -0.472656 z m 0.117187,0.472656 h -0.236328 v -0.119141 h -0.353516 v -0.117187 h -0.353515 v -0.117187 h -0.472656 v 0.117187 h -0.234375 v 0.353516 h 0.353515 v -0.117188 h 0.117188 v 0.117188 h 0.353515 v 0.11914 h 0.119141 v 0.117188 h 0.236328 v 0.117187 h 0.353516 v 0.53125 h 0.236328 v -0.294922 h -0.119141 v -0.117187 h 0.294922 v 0.236328 h 0.355469 v 0.175781 H 20.125 v -0.175781 h 0.353516 v -0.355469 h -0.234375 v -0.117187 h -0.236329 v -0.236328 h -0.472656 v 0.11914 h -0.236328 v -0.11914 h -0.294922 z m 0.414063,-0.472656 v 0.236328 h 0.470703 v -0.236328 z m 21.707031,0 h 0.236328 v 0.119141 h 0.117188 v 0.117187 h 0.11914 v 0.236328 h 0.117188 v 0.117188 h 0.11914 v 0.236328 h 0.117188 v 0.236328 h 0.177734 v 0.236328 h 0.117188 v 0.175781 h 0.117187 v 0.119141 h 0.119141 v 0.353515 h 0.117187 V 25.4375 h 0.119141 v 0.353516 h 0.117188 v 0.236328 H 42.71875 v -0.117188 h -0.236328 v -0.11914 H 42.363281 V 25.673828 H 42.246094 V 25.4375 h -0.294922 v -0.470703 h -0.117188 v -0.294922 h -0.11914 v -0.236328 h -0.117188 v -0.236328 h -0.11914 V 23.962891 H 41.361328 V 23.726562 H 41.244141 V 23.492188 H 41.125 Z m -12.091797,0.826172 v 0.236328 h -0.119141 v 0.412109 h 0.236329 v -0.175781 h 0.117187 v -0.236328 h 0.119141 v -0.236328 z m -8.435547,0.236328 v 0.412109 h 0.470703 v -0.175781 h 0.414063 v -0.236328 z m 1.001953,0.117187 v 0.119141 h 0.119141 v -0.119141 z m 0.236329,0 v 0.119141 h 0.117187 v -0.119141 z m 0,0.294922 v 0.119141 H 21.71875 v 0.589844 h 0.117188 v 0.117187 h 0.236328 v -0.826172 z m 1.828124,3.363282 h 0.119141 v 0.117187 h -0.119141 v 0.119141 h -0.175781 v -0.119141 h 0.175781 z"
           style="fill:url(#gradient2-62);fill-rule:evenodd;stroke:none;stroke-width:0.264418"
           id="path4002" />
        <path
           inkscape:connector-curvature="0"
           style="fill:url(#radialGradient1624);fill-opacity:1;fill-rule:evenodd;stroke:none"
           id="path1614"
           d="m -212.95032,19.341771 q 0,31.009416 21.86275,53.095266 22.08585,22.08585 53.31836,22.08585 31.00943,0 53.318368,-22.08585 21.86275,-22.08585 21.86275,-53.095266 0,-31.232512 -21.86275,-53.318359 -22.308938,-22.085846 -53.318368,-22.085846 -31.23251,0 -53.31836,22.085846 -21.86275,22.085847 -21.86275,53.318359" />
      </g>
    </g>
  </g>
</svg>
