<?xml version="1.0" encoding="UTF-8" standalone="no"?>
<svg
   height="48"
   width="48"
   version="1.1"
   id="svg19"
   sodipodi:docname="background-tool.svg"
   inkscape:version="1.3.2 (1:1.3.2+202311252150+091e20ef0f)"
   inkscape:export-filename="background-tool.png"
   inkscape:export-xdpi="96"
   inkscape:export-ydpi="96"
   xmlns:inkscape="http://www.inkscape.org/namespaces/inkscape"
   xmlns:sodipodi="http://sodipodi.sourceforge.net/DTD/sodipodi-0.dtd"
   xmlns:xlink="http://www.w3.org/1999/xlink"
   xmlns="http://www.w3.org/2000/svg"
   xmlns:svg="http://www.w3.org/2000/svg"
   xmlns:rdf="http://www.w3.org/1999/02/22-rdf-syntax-ns#"
   xmlns:cc="http://creativecommons.org/ns#"
   xmlns:dc="http://purl.org/dc/elements/1.1/">
  <metadata
     id="metadata23">
    <rdf:RDF>
      <cc:Work
         rdf:about="">
        <dc:format>image/svg+xml</dc:format>
        <dc:type
           rdf:resource="http://purl.org/dc/dcmitype/StillImage" />
      </cc:Work>
    </rdf:RDF>
  </metadata>
  <sodipodi:namedview
     inkscape:bbox-nodes="true"
     inkscape:bbox-paths="true"
     inkscape:snap-bbox="true"
     inkscape:document-rotation="0"
     pagecolor="#ffffff"
     bordercolor="#666666"
     borderopacity="1"
     objecttolerance="10"
     gridtolerance="10"
     guidetolerance="10"
     inkscape:pageopacity="0"
     inkscape:pageshadow="2"
     inkscape:window-width="3840"
     inkscape:window-height="2058"
     id="namedview21"
     showgrid="true"
     inkscape:zoom="27.592997"
     inkscape:cx="24.045956"
     inkscape:cy="23.284894"
     inkscape:window-x="0"
     inkscape:window-y="0"
     inkscape:window-maximized="1"
     inkscape:current-layer="svg19"
     inkscape:pagecheckerboard="0"
     inkscape:showpageshadow="2"
     inkscape:deskcolor="#d1d1d1">
    <inkscape:grid
       id="grid872"
       type="xygrid"
       originx="0"
       originy="0"
       spacingy="1"
       spacingx="1"
       units="px"
       visible="true" />
    <inkscape:grid
       type="xygrid"
       id="grid863"
       spacingx="0.5"
       spacingy="0.5"
       originx="0"
       originy="0"
       units="px"
       visible="true" />
  </sodipodi:namedview>
  <defs
     id="defs17">
    <linearGradient
       inkscape:collect="always"
       xlink:href="#linearGradient853"
       id="linearGradient855"
       x1="30.558107"
       y1="7.2818375"
       x2="28.442709"
       y2="5.0270834"
       gradientUnits="userSpaceOnUse"
       gradientTransform="matrix(7.1453377,0,0,7.1453377,-182.84799,-14.031189)" />
    <linearGradient
       inkscape:collect="always"
       id="linearGradient853">
      <stop
         style="stop-color:#99ccff;stop-opacity:1"
         offset="0"
         id="stop849" />
      <stop
         style="stop-color:#ffffff;stop-opacity:1"
         offset="1"
         id="stop851" />
    </linearGradient>
    <linearGradient
       inkscape:collect="always"
       xlink:href="#linearGradient6896"
       id="linearGradient6898"
       x1="844.7998"
       y1="587.94043"
       x2="849.34631"
       y2="538.7973"
       gradientUnits="userSpaceOnUse" />
    <linearGradient
       inkscape:collect="always"
       id="linearGradient6896">
      <stop
         style="stop-color:#ffcc00;stop-opacity:1"
         offset="0"
         id="stop6892" />
      <stop
         style="stop-color:#996600;stop-opacity:1"
         offset="1"
         id="stop6894" />
    </linearGradient>
    <linearGradient
       inkscape:collect="always"
       xlink:href="#linearGradient981-6"
       id="linearGradient922-3"
       gradientUnits="userSpaceOnUse"
       x1="-14.022917"
       y1="8.4666662"
       x2="-17.727083"
       y2="3.8364584"
       gradientTransform="matrix(13.024315,3.5297332,-3.5297332,13.024315,1257.7697,473.78705)" />
    <linearGradient
       id="linearGradient981-6"
       inkscape:collect="always">
      <stop
         id="stop977-7"
         offset="0"
         style="stop-color:#3e9ade;stop-opacity:1" />
      <stop
         id="stop979-5"
         offset="1"
         style="stop-color:#b4e2ff;stop-opacity:1" />
    </linearGradient>
    <radialGradient
       inkscape:collect="always"
       xlink:href="#linearGradient989-3"
       id="radialGradient103313"
       cx="1203.6345"
       cy="413.57504"
       fx="1203.6345"
       fy="413.57504"
       r="64.543816"
       gradientTransform="matrix(0.82509604,0,0,0.78993633,210.52044,87.203388)"
       gradientUnits="userSpaceOnUse" />
    <linearGradient
       id="linearGradient989-3"
       inkscape:collect="always">
      <stop
         id="stop985-5"
         offset="0"
         style="stop-color:#fdfbfc;stop-opacity:1" />
      <stop
         style="stop-color:#f5f5f5;stop-opacity:1"
         offset="0.30000001"
         id="stop993-6" />
      <stop
         id="stop987-2"
         offset="1"
         style="stop-color:#9e9b9c;stop-opacity:1" />
    </linearGradient>
    <radialGradient
       inkscape:collect="always"
       xlink:href="#linearGradient971-1"
       id="radialGradient973-5-9"
       cx="-2.1064258"
       cy="6.5068331"
       fx="-2.1064258"
       fy="6.5068331"
       r="3.8953962"
       gradientTransform="matrix(12.973097,2.249343,-2.5968235,14.977191,-927.86217,-970.43349)"
       gradientUnits="userSpaceOnUse" />
    <linearGradient
       id="linearGradient971-1"
       inkscape:collect="always">
      <stop
         id="stop967-2"
         offset="0"
         style="stop-color:#ff794b;stop-opacity:1" />
      <stop
         id="stop969-7"
         offset="1"
         style="stop-color:#990000;stop-opacity:1" />
    </linearGradient>
    <clipPath
       clipPathUnits="userSpaceOnUse"
       id="clipPath18">
      <path
         id="path18"
         style="color:#000000;fill:url(#linearGradient19);stroke-linecap:round;stroke-linejoin:round;-inkscape-stroke:none"
         d="m 1,12.696825 a 1.0001,1.0001 0 0 0 -1,1 v 30 a 1.0001,1.0001 0 0 0 1,1 h 36 a 1.0001,1.0001 0 0 0 1,-1 v -30 a 1.0001,1.0001 0 0 0 -1,-1 z" />
    </clipPath>
    <linearGradient
       inkscape:collect="always"
       xlink:href="#linearGradient853"
       id="linearGradient19"
       gradientUnits="userSpaceOnUse"
       gradientTransform="matrix(7.1453377,0,0,7.1453377,-182.84799,-9.3343638)"
       x1="30.558107"
       y1="7.2818375"
       x2="28.442709"
       y2="5.0270834" />
  </defs>
  <path
     sodipodi:nodetypes="ccccc"
     d="M 1,9 V 39 H 37 V 9 Z"
     style="fill:url(#linearGradient855);fill-opacity:1;stroke:#0066cc;stroke-width:2;stroke-linecap:round;stroke-linejoin:round;stroke-miterlimit:4;stroke-dasharray:none;stroke-opacity:1"
     id="rect2869" />
  <path
     id="path12"
     style="color:#000000;mix-blend-mode:soft-light;fill:#000000;fill-opacity:1;stroke-linecap:round;stroke-linejoin:round;-inkscape-stroke:none"
     d="m 42.070454,11.619458 c -0.814344,-0.01285 -1.598282,0.244384 -2.216796,0.800781 a 0.55452502,0.55452502 0 0 0 -0.05664,0.03125 l -3.128906,2.722656 -0.0098,0.0078 c -0.04493,0.04307 -0.08916,0.08776 -0.130859,0.132812 l -16.507813,14.8125 a 0.55458047,0.55458047 0 0 0 -0.01367,0.01172 c -0.230721,0.221171 -0.413978,0.471123 -0.560547,0.738281 a 0.55458047,0.55458047 0 0 0 -0.01562,0.02344 l -0.03125,0.06055 c -0.01509,0.02967 -0.02887,0.05975 -0.04297,0.08984 l -3.142578,6.300781 a 0.55452502,0.55452502 0 0 0 -0.0059,0.01758 l -0.798828,1.583984 c -0.179588,0.356089 0.294838,0.735436 0.630859,0.628906 l 2.169922,-0.6875 a 0.55452502,0.55452502 0 0 0 0.01953,-0.002 l 0.113281,-0.03906 0.166015,-0.05273 c 2.54e-4,-0.0019 -2.4e-4,-0.004 0,-0.0059 L 23.9239,36.918196 c 0.659139,-0.08446 1.279844,-0.353333 1.78125,-0.833985 l -0.01172,0.01367 16.582032,-14.880859 a 0.55452502,0.55452502 0 0 0 0.0625,-0.07031 l 0.002,-0.002 2.779297,-2.417969 c 0.125534,-0.0882 0.245169,-0.185443 0.359375,-0.294921 1.43768,-1.37817 1.215233,-3.798624 -0.31836,-5.398438 -0.862646,-0.899895 -2.001618,-1.396892 -3.089844,-1.414062 z"
     clip-path="url(#clipPath18)"
     transform="translate(0,-4.6968252)" />
  <g
     id="g220242"
     style="stroke-width:15.731;stroke-miterlimit:4;stroke-dasharray:none"
     transform="matrix(0.06667863,-0.02289793,0.02289793,0.06667863,-51.016569,11.452855)">
    <path
       sodipodi:nodetypes="cccc"
       id="path963-2-0"
       d="M 815.33887,598.20583 907.17971,597.96038 873.81603,510 800.94362,581.74228"
       style="fill:url(#linearGradient6898);fill-opacity:1;stroke:#996600;stroke-width:15.731;stroke-linecap:round;stroke-linejoin:round;stroke-miterlimit:4;stroke-dasharray:none;stroke-opacity:1" />
    <path
       id="path930-5-3-9"
       style="fill:url(#linearGradient922-3);fill-opacity:1;stroke:#0066cc;stroke-width:15.731;stroke-linecap:round;stroke-linejoin:round;stroke-miterlimit:4;stroke-dasharray:none;stroke-opacity:1"
       d="M 1216.316,472.5 925.30111,595.72343 c -20.97743,9.70912 -47.48788,-2.95623 -59.21276,-28.28885 -11.72488,-25.33263 -4.22421,-53.73958 16.75323,-63.44871 L 1173.8565,380.76244"
       sodipodi:nodetypes="ccscc" />
    <path
       sodipodi:nodetypes="ccscc"
       d="m 1271.9445,449.74979 -54.3523,22.03401 c -20.9774,9.70912 -47.4879,-2.95622 -59.2128,-28.28885 -11.7248,-25.33263 -4.2242,-53.73959 16.7532,-63.44872 l 54.3523,-22.034"
       style="fill:url(#radialGradient103313);fill-opacity:1;stroke:#74706b;stroke-width:15.731;stroke-linecap:round;stroke-miterlimit:4;stroke-dasharray:none;stroke-opacity:1"
       id="path930-6-3" />
    <ellipse
       style="fill:url(#radialGradient973-5-9);fill-opacity:1;stroke:#831d19;stroke-width:15.731;stroke-linecap:round;stroke-miterlimit:4;stroke-dasharray:none;stroke-opacity:1"
       id="path930-7-0-6"
       ry="50.54353"
       rx="41.854046"
       cy="-892.06311"
       cx="-965.25616"
       transform="rotate(155.16355)" />
    <path
       style="fill:#000000;fill-opacity:1;stroke:none;stroke-width:15.731;stroke-linecap:butt;stroke-linejoin:miter;stroke-miterlimit:4;stroke-dasharray:none;stroke-opacity:1"
       d="m 777.25399,593.91231 26.12329,-25.47825 c 8.5,-0.5 22.14709,25.69589 16.14709,37.69589 l -36.72159,-0.87342 c -4.99859,-0.11889 -9.59847,-7.39453 -5.54879,-11.34422 z"
       id="path1716"
       sodipodi:nodetypes="sccss" />
  </g>
</svg>
