<?xml version="1.0" encoding="UTF-8" standalone="no"?>
<svg
   sodipodi:docname="colorfx.svg"
   inkscape:version="1.1.1 (3bf5ae0d25, 2021-09-20)"
   id="svg8"
   version="1.1"
   viewBox="0 0 256 256"
   height="256"
   width="256"
   inkscape:export-filename="/media/klapeto/Αρχεία/WindowsXP Theme/Vectors/RASTER/colorfx.png"
   inkscape:export-xdpi="96"
   inkscape:export-ydpi="96"
   xmlns:inkscape="http://www.inkscape.org/namespaces/inkscape"
   xmlns:sodipodi="http://sodipodi.sourceforge.net/DTD/sodipodi-0.dtd"
   xmlns:xlink="http://www.w3.org/1999/xlink"
   xmlns="http://www.w3.org/2000/svg"
   xmlns:svg="http://www.w3.org/2000/svg"
   xmlns:rdf="http://www.w3.org/1999/02/22-rdf-syntax-ns#"
   xmlns:cc="http://creativecommons.org/ns#"
   xmlns:dc="http://purl.org/dc/elements/1.1/">
  <defs
     id="defs2">
    <linearGradient
       inkscape:collect="always"
       id="linearGradient33061">
      <stop
         style="stop-color:#168aff;stop-opacity:1"
         offset="0"
         id="stop33057" />
      <stop
         style="stop-color:#002b56;stop-opacity:1"
         offset="1"
         id="stop33059" />
    </linearGradient>
    <linearGradient
       inkscape:collect="always"
       id="linearGradient19910">
      <stop
         style="stop-color:#669cff;stop-opacity:1"
         offset="0"
         id="stop19906" />
      <stop
         style="stop-color:#003bb2;stop-opacity:1"
         offset="1"
         id="stop19908" />
    </linearGradient>
    <linearGradient
       inkscape:collect="always"
       id="linearGradient12878">
      <stop
         style="stop-color:#61ff7b;stop-opacity:1"
         offset="0"
         id="stop12874" />
      <stop
         style="stop-color:#00b218;stop-opacity:1"
         offset="1"
         id="stop12876" />
    </linearGradient>
    <linearGradient
       inkscape:collect="always"
       id="linearGradient1364">
      <stop
         style="stop-color:#ff8466;stop-opacity:1"
         offset="0"
         id="stop1360" />
      <stop
         style="stop-color:#b21200;stop-opacity:1"
         offset="1"
         id="stop1362" />
    </linearGradient>
    <linearGradient
       inkscape:collect="always"
       xlink:href="#linearGradient1364"
       id="linearGradient1366"
       x1="112.70408"
       y1="91.136368"
       x2="124.63589"
       y2="94.795456"
       gradientUnits="userSpaceOnUse" />
    <linearGradient
       inkscape:collect="always"
       xlink:href="#linearGradient12878"
       id="linearGradient10945"
       gradientUnits="userSpaceOnUse"
       x1="112.44953"
       y1="90.836365"
       x2="124.47681"
       y2="94.431816"
       gradientTransform="translate(-7.9925537e-7,4.5)" />
    <linearGradient
       inkscape:collect="always"
       xlink:href="#linearGradient19910"
       id="linearGradient18363"
       gradientUnits="userSpaceOnUse"
       gradientTransform="translate(-1.6227905e-6,8.5)"
       x1="112.54499"
       y1="90.909088"
       x2="124.47681"
       y2="94.568184" />
    <linearGradient
       inkscape:collect="always"
       xlink:href="#linearGradient33061"
       id="linearGradient33063"
       x1="112.56771"
       y1="90.5"
       x2="125.06771"
       y2="102.92244"
       gradientUnits="userSpaceOnUse" />
    <filter
       inkscape:collect="always"
       style="color-interpolation-filters:sRGB"
       id="filter42897"
       x="-0.048000001"
       y="-0.048000001"
       width="1.096"
       height="1.096">
      <feGaussianBlur
         inkscape:collect="always"
         stdDeviation="4.1857032"
         id="feGaussianBlur42899" />
    </filter>
    <linearGradient
       gradientTransform="matrix(-0.00788835,-0.02730582,-0.0618932,0.01759709,85.149657,172.27677)"
       gradientUnits="userSpaceOnUse"
       id="gradient5"
       spreadMethod="pad"
       x1="-819.20001"
       x2="819.20001">
      <stop
         offset="0.0"
         stop-color="#ffff99"
         id="stop71" />
      <stop
         offset="1.0"
         stop-color="#ffffff"
         id="stop73" />
    </linearGradient>
    <linearGradient
       gradientTransform="matrix(-0.00788835,-0.02730582,-0.0618932,0.01759709,85.149657,172.27677)"
       gradientUnits="userSpaceOnUse"
       id="gradient6"
       spreadMethod="pad"
       x1="-819.20001"
       x2="819.20001">
      <stop
         offset="0.0"
         stop-color="#ffff99"
         id="stop76" />
      <stop
         offset="1.0"
         stop-color="#ffffff"
         id="stop78" />
    </linearGradient>
    <radialGradient
       cx="0"
       cy="0"
       gradientTransform="matrix(0.04000329,0,0,0.04000329,171.44028,61.365171)"
       gradientUnits="userSpaceOnUse"
       id="gradient7"
       r="819.20001"
       spreadMethod="pad">
      <stop
         offset="0.0"
         stop-color="#ffff99"
         id="stop81" />
      <stop
         offset="0.3333333333333333"
         stop-color="#ffff00"
         id="stop83" />
      <stop
         offset="1.0"
         stop-color="#f26c21"
         id="stop85" />
    </radialGradient>
    <radialGradient
       cx="0"
       cy="0"
       gradientTransform="matrix(0.03200263,0,0,0.03200263,218.82879,174.29752)"
       gradientUnits="userSpaceOnUse"
       id="gradient8"
       r="819.20001"
       spreadMethod="pad">
      <stop
         offset="0.0"
         stop-color="#ffff99"
         id="stop88" />
      <stop
         offset="0.2196078431372549"
         stop-color="#ffff00"
         id="stop90" />
      <stop
         offset="1.0"
         stop-color="#ff9933"
         id="stop92" />
    </radialGradient>
    <radialGradient
       cx="0"
       cy="0"
       gradientTransform="matrix(0.01969393,0,0,0.01969393,251.13913,91.521491)"
       gradientUnits="userSpaceOnUse"
       id="gradient9"
       r="819.20001"
       spreadMethod="pad">
      <stop
         offset="0.0"
         stop-color="#ffff99"
         id="stop95" />
      <stop
         offset="0.2980392156862745"
         stop-color="#ffff00"
         id="stop97" />
      <stop
         offset="1.0"
         stop-color="#ff9933"
         id="stop99" />
    </radialGradient>
    <radialGradient
       cx="0"
       cy="0"
       gradientTransform="matrix(0.01969393,0,0,0.01969393,126.51352,17.669282)"
       gradientUnits="userSpaceOnUse"
       id="gradient10"
       r="819.20001"
       spreadMethod="pad">
      <stop
         offset="0.0"
         stop-color="#ffff99"
         id="stop102" />
      <stop
         offset="0.2980392156862745"
         stop-color="#ffff00"
         id="stop104" />
      <stop
         offset="1.0"
         stop-color="#ff9933"
         id="stop106" />
    </radialGradient>
    <radialGradient
       cx="0"
       cy="0"
       gradientTransform="matrix(0.01969393,0,0,0.02030936,174.51746,236.45646)"
       gradientUnits="userSpaceOnUse"
       id="gradient11"
       r="819.20001"
       spreadMethod="pad">
      <stop
         offset="0.0"
         stop-color="#ffff99"
         id="stop109" />
      <stop
         offset="0.2980392156862745"
         stop-color="#ffff00"
         id="stop111" />
      <stop
         offset="1.0"
         stop-color="#ff9933"
         id="stop113" />
    </radialGradient>
    <radialGradient
       cx="0"
       cy="0"
       gradientTransform="matrix(0.01969393,0,0,0.01969393,233.90695,238.61049)"
       gradientUnits="userSpaceOnUse"
       id="gradient12"
       r="819.20001"
       spreadMethod="pad">
      <stop
         offset="0.0"
         stop-color="#ffff99"
         id="stop116" />
      <stop
         offset="0.2980392156862745"
         stop-color="#ffff00"
         id="stop118" />
      <stop
         offset="1.0"
         stop-color="#ff9933"
         id="stop120" />
    </radialGradient>
    <radialGradient
       cx="0"
       cy="0"
       gradientTransform="matrix(0.01969393,0,0,0.01969393,65.893166,33.055159)"
       gradientUnits="userSpaceOnUse"
       id="gradient13"
       r="819.20001"
       spreadMethod="pad">
      <stop
         offset="0.0"
         stop-color="#ffff99"
         id="stop123" />
      <stop
         offset="0.2980392156862745"
         stop-color="#ffff00"
         id="stop125" />
      <stop
         offset="1.0"
         stop-color="#ff9933"
         id="stop127" />
    </radialGradient>
    <radialGradient
       spreadMethod="pad"
       r="819.20001"
       cy="0"
       cx="0"
       gradientTransform="matrix(0.03786408,0,0,0.03786408,212.7465,72.627156)"
       gradientUnits="userSpaceOnUse"
       id="radialGradient1197"
       xlink:href="#gradient7"
       inkscape:collect="always" />
    <radialGradient
       spreadMethod="pad"
       r="819.20001"
       cy="0"
       cx="0"
       gradientTransform="matrix(0.03029127,0,0,0.03029127,140.77911,121.61439)"
       gradientUnits="userSpaceOnUse"
       id="radialGradient1199"
       xlink:href="#gradient8"
       inkscape:collect="always" />
    <radialGradient
       spreadMethod="pad"
       r="819.20001"
       cy="0"
       cx="0"
       gradientTransform="matrix(0.01864078,0,0,0.01864078,213.39385,135.59809)"
       gradientUnits="userSpaceOnUse"
       id="radialGradient1201"
       xlink:href="#gradient9"
       inkscape:collect="always" />
    <radialGradient
       spreadMethod="pad"
       r="819.20001"
       cy="0"
       cx="0"
       gradientTransform="matrix(0.01864078,0,0,0.01864078,170.22224,31.267937)"
       gradientUnits="userSpaceOnUse"
       id="radialGradient1203"
       xlink:href="#gradient10"
       inkscape:collect="always" />
    <radialGradient
       spreadMethod="pad"
       r="819.20001"
       cy="0"
       cx="0"
       gradientTransform="matrix(0.01864078,0,0,0.0192233,98.837355,180.44934)"
       gradientUnits="userSpaceOnUse"
       id="radialGradient1205"
       xlink:href="#gradient11"
       inkscape:collect="always" />
    <radialGradient
       spreadMethod="pad"
       r="819.20001"
       cy="0"
       cx="0"
       gradientTransform="matrix(0.01864078,0,0,0.01864078,155.05095,182.48818)"
       gradientUnits="userSpaceOnUse"
       id="radialGradient1207"
       xlink:href="#gradient12"
       inkscape:collect="always" />
    <radialGradient
       spreadMethod="pad"
       r="819.20001"
       cy="0"
       cx="0"
       gradientTransform="matrix(0.01864078,0,0,0.01864078,112.8436,45.831043)"
       gradientUnits="userSpaceOnUse"
       id="radialGradient1209"
       xlink:href="#gradient13"
       inkscape:collect="always" />
    <filter
       inkscape:collect="always"
       style="color-interpolation-filters:sRGB"
       id="filter1501"
       x="-0.049632815"
       y="-0.0430353"
       width="1.0992656"
       height="1.0860706">
      <feGaussianBlur
         inkscape:collect="always"
         stdDeviation="3.2651912"
         id="feGaussianBlur1503" />
    </filter>
  </defs>
  <sodipodi:namedview
     inkscape:snap-global="true"
     inkscape:bbox-paths="true"
     fit-margin-bottom="0"
     fit-margin-right="0"
     fit-margin-left="0"
     fit-margin-top="0"
     inkscape:bbox-nodes="true"
     inkscape:snap-bbox="true"
     inkscape:window-maximized="1"
     inkscape:window-y="0"
     inkscape:window-x="3840"
     inkscape:window-height="2043"
     inkscape:window-width="3840"
     units="px"
     showgrid="false"
     inkscape:document-rotation="0"
     inkscape:current-layer="layer1"
     inkscape:document-units="px"
     inkscape:cy="166"
     inkscape:cx="158.5"
     inkscape:zoom="2.0000001"
     inkscape:pageshadow="2"
     inkscape:pageopacity="0.0"
     borderopacity="1.0"
     bordercolor="#666666"
     pagecolor="#ffffff"
     id="base"
     showguides="true"
     inkscape:guide-bbox="true"
     inkscape:object-paths="false"
     inkscape:snap-midpoints="false"
     inkscape:snap-smooth-nodes="true"
     inkscape:snap-bbox-edge-midpoints="true"
     inkscape:pagecheckerboard="0">
    <inkscape:grid
       originy="0"
       originx="0"
       id="grid1504"
       type="xygrid" />
    <inkscape:grid
       spacingy="0.5"
       spacingx="0.5"
       id="grid1765"
       type="xygrid" />
  </sodipodi:namedview>
  <metadata
     id="metadata5">
    <rdf:RDF>
      <cc:Work
         rdf:about="">
        <dc:format>image/svg+xml</dc:format>
        <dc:type
           rdf:resource="http://purl.org/dc/dcmitype/StillImage" />
      </cc:Work>
    </rdf:RDF>
  </metadata>
  <g
     transform="translate(-12.567709)"
     id="layer1"
     inkscape:groupmode="layer"
     inkscape:label="Layer 1">
    <path
       id="rect42743"
       style="fill:#212121;fill-opacity:1;fill-rule:evenodd;stroke:none;stroke-width:5.33;stroke-linecap:round;stroke-linejoin:round;stroke-miterlimit:4;stroke-dasharray:none;stop-color:#000000;filter:url(#filter42897)"
       d="m 43.424709,27.357 a 2.50025,2.50025 0 0 0 -2.5,2.5 v 204.28516 a 2.50025,2.50025 0 0 0 2.5,2.5 H 247.70987 a 2.50025,2.50025 0 0 0 2.5,-2.5 V 29.857 a 2.50025,2.50025 0 0 0 -2.5,-2.5 z" />
    <g
       id="g42583"
       transform="translate(0.85718992,5.857158)">
      <g
         id="g42297"
         transform="matrix(15.714286,0,0,15.714286,-1723.4964,-1402.1429)"
         style="stroke-width:0.339182;stroke-miterlimit:4;stroke-dasharray:none">
        <rect
           style="fill:#fefbfb;fill-opacity:1;fill-rule:evenodd;stroke:none;stroke-width:0.339182;stroke-linecap:round;stroke-linejoin:round;stroke-miterlimit:4;stroke-dasharray:none;stop-color:#000000"
           id="rect10948"
           width="13"
           height="13"
           x="112.06771"
           y="90.5" />
        <rect
           style="fill:url(#linearGradient1366);fill-opacity:1;fill-rule:evenodd;stroke:none;stroke-width:0.339182;stroke-linecap:round;stroke-linejoin:round;stroke-miterlimit:4;stroke-dasharray:none;stop-color:#000000"
           id="rect1234"
           width="13.013639"
           height="4.5500011"
           x="112.06771"
           y="90.5" />
        <rect
           style="fill:url(#linearGradient10945);fill-opacity:1;fill-rule:evenodd;stroke:none;stroke-width:0.339182;stroke-linecap:round;stroke-linejoin:round;stroke-miterlimit:4;stroke-dasharray:none;stop-color:#000000"
           id="rect1234-9"
           width="13.045445"
           height="4.5500088"
           x="112.06771"
           y="95.018181" />
        <rect
           style="fill:url(#linearGradient18363);fill-opacity:1;fill-rule:evenodd;stroke:none;stroke-width:0.339182;stroke-linecap:round;stroke-linejoin:round;stroke-miterlimit:4;stroke-dasharray:none;stop-color:#000000"
           id="rect1234-9-7"
           width="13.045445"
           height="4.3272734"
           x="112.06771"
           y="99.218185" />
        <rect
           style="fill:none;fill-rule:evenodd;stroke:url(#linearGradient33063);stroke-width:0.318182;stroke-linecap:round;stroke-linejoin:round;stroke-miterlimit:4;stroke-dasharray:none;stop-color:#000000"
           id="rect1112"
           width="13"
           height="13"
           x="112.06771"
           y="90.5" />
      </g>
    </g>
    <path
       id="path1352"
       style="fill:#212121;fill-opacity:1;stroke-width:5.82524;filter:url(#filter1501)"
       d="m 175.22198,19.832 -2.6211,7.572266 -6.4082,-4.660156 2.33008,7.572265 -7.86328,0.291016 6.4082,4.660156 -6.4082,4.660156 7.86328,0.291016 -2.33008,7.574219 6.4082,-4.660157 2.6211,7.572266 2.62109,-7.572266 6.4082,4.660157 -2.33007,-7.574219 7.86328,-0.291016 -6.40625,-4.660156 6.40625,-4.660156 -7.86328,-0.291016 2.33007,-7.572265 -6.4082,4.660156 z m -57.37891,14.5625 -2.62109,7.572266 -6.69922,-4.660156 2.62109,7.572265 h -8.1543 l 6.40821,4.953125 -6.40821,4.660157 h 8.1543 l -2.62109,7.863281 6.69922,-4.660157 2.62109,7.572266 2.33008,-7.572266 6.69922,4.660157 -2.6211,-7.863281 h 8.15625 l -6.4082,-4.660157 6.4082,-4.953125 h -8.15625 l 2.6211,-7.572265 -6.69922,4.660156 z m 99.9043,11.359375 -4.95313,15.435547 -13.10547,-9.320312 4.66016,15.146484 -16.01953,0.291016 13.10742,9.320312 -13.10742,9.611328 h 16.01953 l -4.66016,15.4375 13.10547,-9.320312 4.95313,15.144532 4.95117,-15.144532 13.10547,9.320312 -4.66016,-15.4375 h 16.01953 l -12.81445,-9.611328 12.81445,-9.320312 -16.01953,-0.291016 4.66016,-15.146484 -13.10547,9.320312 z m -71.96875,55.103515 -4.07813,12.23242 -10.19336,-7.28125 3.78711,11.94141 -12.8164,0.29102 10.19531,7.57421 -10.19531,7.57227 h 12.8164 l -3.78711,12.23242 10.19336,-7.28125 4.07813,11.94141 4.07812,-11.94141 10.48633,7.28125 -3.78711,-12.23242 h 12.81445 l -10.48437,-7.57227 10.48437,-7.57421 -12.81445,-0.29102 3.78711,-11.94141 -10.48633,7.28125 z m 72.61523,23.30469 -2.62109,7.57227 -6.4082,-4.66016 2.33007,7.86328 h -7.86328 l 6.40625,4.66016 -6.40625,4.95117 h 7.86328 l -2.33007,7.57422 6.4082,-4.66016 2.62109,7.57227 2.6211,-7.57227 6.4082,4.66016 -2.33008,-7.57422 h 8.1543 l -6.69727,-4.95117 6.69727,-4.66016 h -8.1543 l 2.33008,-7.86328 -6.4082,4.66016 z m -114.55664,44.55859 -2.33008,7.86524 -6.699218,-4.66016 2.621094,7.57227 h -8.154297 l 6.408203,4.95117 -6.408203,4.66016 h 8.154297 l -2.621094,7.57226 6.699218,-4.66016 2.33008,7.86524 2.62109,-7.86524 6.69922,4.66016 -2.62109,-7.57226 h 8.15625 l -6.4082,-4.66016 6.4082,-4.95117 h -8.15625 l 2.62109,-7.57227 -6.69922,4.66016 z m 56.21289,2.33008 -2.62109,7.57422 -6.40625,-4.66016 2.33008,7.57227 h -8.15625 l 6.69921,4.95117 -6.69921,4.66016 h 8.15625 l -2.33008,7.86328 6.40625,-4.66016 2.62109,7.57422 2.62305,-7.57422 6.40625,4.66016 -2.33008,-7.86328 h 7.86524 l -6.40821,-4.66016 6.40821,-4.95117 h -7.86524 l 2.33008,-7.57227 -6.40625,4.66016 z" />
    <path
       style="fill:url(#radialGradient1197);stroke-width:5.82524"
       id="path1124"
       stroke="none"
       fill-rule="evenodd"
       fill="url(#gradient7)"
       d="m 242.16403,82.238828 -12.81554,-9.611654 12.81554,-9.320381 -16.01942,-0.291262 4.6602,-15.145631 -13.1068,9.320381 -4.95146,-15.436885 -4.95145,15.436885 -13.1068,-9.320381 4.6602,15.145631 -16.01942,0.291262 13.1068,9.320381 -13.1068,9.611654 h 16.01942 l -4.6602,15.436894 13.1068,-9.320392 4.95145,15.14563 4.95146,-15.14563 13.1068,9.320392 -4.6602,-15.436894 h 16.01942" />
    <path
       style="fill:url(#radialGradient1199);stroke-width:5.82524"
       id="path1126"
       stroke="none"
       fill-rule="evenodd"
       fill="url(#gradient8)"
       d="m 140.77915,146.08043 4.07767,-11.94174 10.48544,7.28155 -3.7864,-12.23302 h 12.81553 l -10.48545,-7.57282 10.48545,-7.5728 -12.81553,-0.29126 3.7864,-11.94175 -10.48544,7.28155 -4.07767,-12.233013 -4.07766,12.233013 -10.19418,-7.28155 3.7864,11.94175 -12.81553,0.29126 10.19417,7.5728 -10.19417,7.57282 h 12.81553 l -3.7864,12.23302 10.19418,-7.28155 4.07766,11.94174" />
    <path
       style="fill:url(#radialGradient1201);stroke-width:5.82524"
       id="path1128"
       stroke="none"
       fill-rule="evenodd"
       fill="url(#gradient9)"
       d="m 213.3939,151.03501 2.62137,-7.57282 6.40776,4.66019 -2.33011,-7.57281 h 8.15535 l -6.69903,-4.95145 6.69903,-4.6602 h -8.15535 l 2.33011,-7.86408 -6.40776,4.6602 -2.62137,-7.57282 -2.62136,7.57282 -6.40777,-4.6602 2.3301,7.86408 h -7.86407 l 6.40775,4.6602 -6.40775,4.95145 h 7.86407 l -2.3301,7.57281 6.40777,-4.66019 2.62136,7.57282" />
    <path
       style="fill:url(#radialGradient1203);stroke-width:5.82524"
       id="path1130"
       stroke="none"
       fill-rule="evenodd"
       fill="url(#gradient10)"
       d="m 170.22228,46.704849 2.62136,-7.572815 6.40776,4.660191 -2.33009,-7.572817 7.86408,-0.291262 -6.40776,-4.660191 6.40776,-4.66019 -7.86408,-0.291263 2.33009,-7.572815 -6.40776,4.66019 -2.62136,-7.572815 -2.62137,7.572815 -6.40775,-4.66019 2.3301,7.572815 -7.86408,0.291263 6.40777,4.66019 -6.40777,4.660191 7.86408,0.291262 -2.3301,7.572817 6.40775,-4.660191 2.62137,7.572815" />
    <path
       style="fill:url(#radialGradient1205);stroke-width:5.82524"
       id="path1132"
       stroke="none"
       fill-rule="evenodd"
       fill="url(#gradient11)"
       d="m 113.69178,185.10957 -6.40778,-4.66021 6.40778,-4.95145 h -8.15535 l 2.62136,-7.57281 -6.69903,4.66018 -2.621355,-7.86408 -2.3301,7.86408 -6.69903,-4.66018 2.62135,7.57281 h -8.15532 l 6.40776,4.95145 -6.40776,4.66021 h 8.15532 l -2.62135,7.5728 6.69903,-4.66019 2.3301,7.86408 2.621355,-7.86408 6.69903,4.66019 -2.62136,-7.5728 h 8.15535" />
    <path
       style="fill:url(#radialGradient1207);stroke-width:5.82524"
       id="path1134"
       stroke="none"
       fill-rule="evenodd"
       fill="url(#gradient12)"
       d="m 146.02187,195.01247 6.40776,-4.66019 2.62137,7.57281 2.62135,-7.57281 6.40777,4.66019 -2.33009,-7.86409 h 7.86407 l -6.40777,-4.66018 6.40777,-4.95145 h -7.86407 l 2.33009,-7.57282 -6.40777,4.66019 -2.62135,-7.57281 -2.62137,7.57281 -6.40776,-4.66019 2.3301,7.57282 h -8.15534 l 6.69902,4.95145 -6.69902,4.66018 h 8.15534 l -2.3301,7.86409" />
    <path
       style="fill:url(#radialGradient1209);stroke-width:5.82524"
       id="path1136"
       stroke="none"
       fill-rule="evenodd"
       fill="url(#gradient13)"
       d="m 97.989265,50.491252 h 8.155345 l -2.62135,7.864079 6.69902,-4.660191 2.62136,7.572815 2.3301,-7.572815 6.69903,4.660191 -2.62137,-7.864079 h 8.15534 l -6.40776,-4.66019 6.40776,-4.951453 h -8.15534 l 2.62137,-7.572816 -6.69903,4.660191 -2.3301,-7.572817 -2.62136,7.572817 -6.69902,-4.660191 2.62135,7.572816 h -8.155345 l 6.407765,4.951453 -6.407765,4.66019" />
  </g>
</svg>
