<?xml version="1.0" encoding="UTF-8" standalone="no"?>
<svg
   sodipodi:docname="color-picker-16.svg"
   inkscape:version="1.1.2 (0a00cf5339, 2022-02-04)"
   id="svg8"
   version="1.1"
   viewBox="0 0 256 256"
   height="256"
   width="256"
   inkscape:export-filename="color-picker.png"
   inkscape:export-xdpi="6"
   inkscape:export-ydpi="6"
   xmlns:inkscape="http://www.inkscape.org/namespaces/inkscape"
   xmlns:sodipodi="http://sodipodi.sourceforge.net/DTD/sodipodi-0.dtd"
   xmlns:xlink="http://www.w3.org/1999/xlink"
   xmlns="http://www.w3.org/2000/svg"
   xmlns:svg="http://www.w3.org/2000/svg"
   xmlns:rdf="http://www.w3.org/1999/02/22-rdf-syntax-ns#"
   xmlns:cc="http://creativecommons.org/ns#"
   xmlns:dc="http://purl.org/dc/elements/1.1/">
  <defs
     id="defs2">
    <linearGradient
       inkscape:collect="always"
       id="linearGradient8849">
      <stop
         style="stop-color:#ffe0dd;stop-opacity:1"
         offset="0"
         id="stop8845" />
      <stop
         style="stop-color:#ff2925;stop-opacity:0.95686269"
         offset="1"
         id="stop8847" />
    </linearGradient>
    <linearGradient
       inkscape:collect="always"
       id="linearGradient6225">
      <stop
         style="stop-color:#d3d3d3;stop-opacity:1;"
         offset="0"
         id="stop6221" />
      <stop
         style="stop-color:#494949;stop-opacity:1"
         offset="1"
         id="stop6223" />
    </linearGradient>
    <linearGradient
       inkscape:collect="always"
       id="linearGradient5451">
      <stop
         style="stop-color:#dee4ff;stop-opacity:1"
         offset="0"
         id="stop5447" />
      <stop
         style="stop-color:#c0cfff;stop-opacity:1"
         offset="1"
         id="stop5449" />
    </linearGradient>
    <linearGradient
       inkscape:collect="always"
       xlink:href="#linearGradient5451"
       id="linearGradient5453"
       x1="120.87302"
       y1="172.98"
       x2="142.97995"
       y2="107.44395"
       gradientUnits="userSpaceOnUse"
       gradientTransform="rotate(45,128.92532,123.4315)" />
    <radialGradient
       inkscape:collect="always"
       xlink:href="#linearGradient6225"
       id="radialGradient6227"
       cx="120.87949"
       cy="29.069555"
       fx="120.87949"
       fy="29.069555"
       r="19.999969"
       gradientTransform="matrix(0.70710678,0.70710678,-0.95630118,0.95630118,134.59567,-63.306651)"
       gradientUnits="userSpaceOnUse" />
    <linearGradient
       inkscape:collect="always"
       xlink:href="#linearGradient6225"
       id="linearGradient6767"
       x1="96.359406"
       y1="66.054787"
       x2="157.35884"
       y2="66.054787"
       gradientUnits="userSpaceOnUse"
       gradientTransform="rotate(45,128.48763,124.48818)" />
    <linearGradient
       inkscape:collect="always"
       xlink:href="#linearGradient8849"
       id="linearGradient8851"
       x1="55.418365"
       y1="180.7269"
       x2="114.69144"
       y2="180.7269"
       gradientUnits="userSpaceOnUse" />
    <filter
       inkscape:collect="always"
       style="color-interpolation-filters:sRGB"
       id="filter1012"
       x="-0.14703539"
       y="-0.14696465"
       width="1.2940708"
       height="1.2939293">
      <feGaussianBlur
         inkscape:collect="always"
         stdDeviation="13.784431"
         id="feGaussianBlur1014" />
    </filter>
  </defs>
  <sodipodi:namedview
     inkscape:snap-global="false"
     inkscape:bbox-paths="true"
     fit-margin-bottom="0"
     fit-margin-right="0"
     fit-margin-left="0"
     fit-margin-top="0"
     inkscape:bbox-nodes="true"
     inkscape:snap-bbox="true"
     inkscape:window-maximized="1"
     inkscape:window-y="0"
     inkscape:window-x="3840"
     inkscape:window-height="2050"
     inkscape:window-width="3840"
     units="px"
     showgrid="false"
     inkscape:document-rotation="0"
     inkscape:current-layer="layer1"
     inkscape:document-units="px"
     inkscape:cy="136.29483"
     inkscape:cx="-60.811184"
     inkscape:zoom="2.8284271"
     inkscape:pageshadow="2"
     inkscape:pageopacity="0.0"
     borderopacity="1.0"
     bordercolor="#666666"
     pagecolor="#ffffff"
     id="base"
     showguides="true"
     inkscape:guide-bbox="true"
     inkscape:object-paths="false"
     inkscape:snap-midpoints="false"
     inkscape:snap-smooth-nodes="true"
     inkscape:snap-bbox-edge-midpoints="true"
     inkscape:pagecheckerboard="0">
    <inkscape:grid
       originy="0"
       originx="0"
       id="grid1504"
       type="xygrid" />
    <inkscape:grid
       spacingy="0.5"
       spacingx="0.5"
       id="grid1765"
       type="xygrid" />
  </sodipodi:namedview>
  <metadata
     id="metadata5">
    <rdf:RDF>
      <cc:Work
         rdf:about="">
        <dc:format>image/svg+xml</dc:format>
        <dc:type
           rdf:resource="http://purl.org/dc/dcmitype/StillImage" />
      </cc:Work>
    </rdf:RDF>
  </metadata>
  <g
     transform="translate(-12.567709)"
     id="layer1"
     inkscape:groupmode="layer"
     inkscape:label="Layer 1">
    <path
       id="path926"
       style="fill:#000000;fill-opacity:1;fill-rule:evenodd;stroke:none;stroke-width:10;stroke-linecap:round;stroke-linejoin:round;stroke-miterlimit:4;stroke-dasharray:none;stroke-opacity:1;stop-color:#000000;filter:url(#filter1012)"
       d="m 242.8589,31.462934 c -4.38672,-0.109134 -8.99762,0.778002 -13.55079,2.859375 -10.93811,5.000104 -21.2766,16.444673 -28.88867,36.144531 -2.03982,-1.091359 -4.4701,-2.44755 -6.9707,-3.882813 -5.35626,-3.074321 -11.32373,-6.446192 -17.88672,-7.085937 -1.97206,-0.192232 -3.77349,-0.220376 -5.42969,-0.0293 -1.65619,0.191082 -3.16738,0.602292 -4.55273,1.287109 -2.77071,1.369634 -4.37527,3.145125 -6.63477,5.125 a 5.0005,5.0005 0 0 0 -0.24023,7.294922 L 178.19679,92.668012 63.46046,207.40434 a 5.0005,5.0005 0 0 0 -1.359375,2.51562 c -1.781792,8.55324 -6.761808,17.4187 -11.052734,24.56836 -2.145463,3.57483 -4.095399,6.67935 -5.449219,9.52344 -0.676909,1.42204 -1.255159,2.7484 -1.492188,4.5 -0.222194,1.64197 0.262322,4.32856 2.064454,6.03711 1.664017,1.62329 4.181932,2.16569 5.832031,1.97461 1.785073,-0.20672 3.1357,-0.7892 4.548828,-1.4668 2.826257,-1.35521 5.828798,-3.31474 9.298828,-5.50781 6.940061,-4.38615 15.551879,-9.64163 24.226563,-12.03906 a 5.0005,5.0005 0 0 0 2.203125,-1.28321 L 207.0171,121.48832 l 19.46289,19.46289 a 5.0005,5.0005 0 0 0 6.95117,0.11719 c 2.54019,-2.37532 4.54776,-5.11031 5.43945,-8.3457 0.8917,-3.2354 0.71696,-6.49243 0.20704,-10.31836 -0.87352,-6.55392 -4.37598,-12.48665 -7.625,-17.89649 -1.39737,-2.32671 -2.71956,-4.553406 -3.86524,-6.556635 20.35903,-6.5725 32.4199,-16.104945 37.99609,-26.59961 6.20026,-11.669136 3.61804,-24.253607 -3.97851,-31.947265 -4.74785,-4.808537 -11.43488,-7.759517 -18.74609,-7.941406 z" />
    <g
       id="g9871"
       transform="matrix(1.312956,0,0,1.312956,-31.997803,-31.649228)"
       style="stroke-width:7.61640146;stroke-miterlimit:4;stroke-dasharray:none">
      <path
         id="rect1698"
         style="fill:url(#linearGradient5453);fill-opacity:1;fill-rule:evenodd;stroke:none;stroke-width:7.61640146;stroke-linecap:round;stroke-linejoin:round;stroke-miterlimit:4;stroke-dasharray:none;stroke-opacity:1;stop-color:#000000"
         d="m 153.35021,82.441309 16.5653,16.565306 -90.138573,90.138575 c -14.672112,4.05495 -27.309256,16.95789 -29.823848,13.93257 -2.941013,-2.31278 10.19578,-15.79553 13.258542,-30.49788 z"
         sodipodi:nodetypes="cccccc" />
      <path
         id="rect1996"
         style="fill:url(#radialGradient6227);fill-opacity:1;fill-rule:evenodd;stroke:#2c2c2c;stroke-width:7.61640146;stroke-linecap:round;stroke-linejoin:round;stroke-miterlimit:4;stroke-dasharray:none;stroke-opacity:1;stop-color:#000000"
         d="M 179.12627,84.441036 166.6106,71.925366 c 22.7787,-70.2778304 85.35177,-6.744914 12.51567,12.51567 z"
         sodipodi:nodetypes="ccc" />
      <path
         style="fill:url(#linearGradient8851);fill-opacity:1;stroke:none;stroke-width:7.61640146;stroke-linecap:butt;stroke-linejoin:miter;stroke-miterlimit:4;stroke-dasharray:none;stroke-opacity:1"
         d="m 92.064322,143.87368 h 32.939208 l -42.449737,43.2151 -10.811768,6.03342 -21.091799,10.59999 0.7144,-5.79553 12.182962,-26.32402 z"
         id="path8744"
         sodipodi:nodetypes="cccccccc" />
      <path
         id="path9359"
         style="fill:none;fill-opacity:1;fill-rule:evenodd;stroke:#0001e0;stroke-width:7.61640146;stroke-linecap:round;stroke-linejoin:round;stroke-miterlimit:4;stroke-dasharray:none;stroke-opacity:1;stop-color:#000000"
         d="m 153.35021,82.441309 16.5653,16.565306 -90.138573,90.138575 c -14.672112,4.05495 -27.309256,16.95789 -29.823848,13.93257 -2.941013,-2.31278 10.19578,-15.79553 13.258542,-30.49788 z"
         sodipodi:nodetypes="cccccc" />
      <path
         id="rect1873"
         style="fill:url(#linearGradient6767);fill-opacity:1;fill-rule:evenodd;stroke:#2c2c2c;stroke-width:7.61640146;stroke-linecap:round;stroke-linejoin:round;stroke-miterlimit:4;stroke-dasharray:none;stroke-opacity:1;stop-color:#000000"
         d="m 167.69039,71.047422 11.867,11.866998 c 1.48694,5.527594 9.92141,15.059596 10.94444,22.73525 0.72379,5.43058 0.17282,7.84523 -3.12717,10.93102 L 135.75405,64.96008 c 3.62081,-3.172717 4.40315,-4.458129 9.77691,-3.934307 7.57642,0.738532 17.29442,9.01351 22.15943,10.021649 z"
         sodipodi:nodetypes="ccsccsc" />
    </g>
  </g>
</svg>
