<?xml version="1.0" encoding="UTF-8" standalone="no"?>
<svg
   sodipodi:docname="fill.svg"
   inkscape:version="1.1.1 (3bf5ae0d25, 2021-09-20)"
   id="svg8"
   version="1.1"
   viewBox="0 0 256 256"
   height="256"
   width="256"
   inkscape:export-filename="/media/klapeto/Αρχεία/WindowsXP Theme/Vectors/RASTER/fill-color.png"
   inkscape:export-xdpi="96"
   inkscape:export-ydpi="96"
   xmlns:inkscape="http://www.inkscape.org/namespaces/inkscape"
   xmlns:sodipodi="http://sodipodi.sourceforge.net/DTD/sodipodi-0.dtd"
   xmlns:xlink="http://www.w3.org/1999/xlink"
   xmlns="http://www.w3.org/2000/svg"
   xmlns:svg="http://www.w3.org/2000/svg"
   xmlns:rdf="http://www.w3.org/1999/02/22-rdf-syntax-ns#"
   xmlns:cc="http://creativecommons.org/ns#"
   xmlns:dc="http://purl.org/dc/elements/1.1/">
  <defs
     id="defs2">
    <linearGradient
       inkscape:collect="always"
       id="linearGradient40288">
      <stop
         style="stop-color:#9999fc;stop-opacity:1"
         offset="0"
         id="stop40282" />
      <stop
         style="stop-color:#adadad;stop-opacity:1"
         offset="0.5"
         id="stop40284" />
      <stop
         style="stop-color:#ffffff;stop-opacity:1"
         offset="1"
         id="stop40286" />
    </linearGradient>
    <linearGradient
       inkscape:collect="always"
       id="linearGradient38252">
      <stop
         style="stop-color:#0007d2;stop-opacity:1"
         offset="0"
         id="stop38248" />
      <stop
         style="stop-color:#2526ff;stop-opacity:1"
         offset="1"
         id="stop38250" />
    </linearGradient>
    <linearGradient
       inkscape:collect="always"
       id="linearGradient3992">
      <stop
         style="stop-color:#0040b2;stop-opacity:1"
         offset="0"
         id="stop3988" />
      <stop
         style="stop-color:#508aff;stop-opacity:1"
         offset="1"
         id="stop3990" />
    </linearGradient>
    <linearGradient
       inkscape:collect="always"
       id="linearGradient3581">
      <stop
         style="stop-color:#a2a2a2;stop-opacity:1"
         offset="0"
         id="stop3577" />
      <stop
         style="stop-color:#4e5256;stop-opacity:1"
         offset="1"
         id="stop3579" />
    </linearGradient>
    <linearGradient
       inkscape:collect="always"
       xlink:href="#linearGradient40288"
       id="linearGradient2129"
       x1="-18.020754"
       y1="98.860168"
       x2="-22.270967"
       y2="94.611618"
       gradientUnits="userSpaceOnUse"
       gradientTransform="matrix(16.579593,0,0,16.579593,459.03698,-1478.0327)" />
    <linearGradient
       inkscape:collect="always"
       xlink:href="#linearGradient3581"
       id="linearGradient3583"
       x1="-3.8572547"
       y1="97.735512"
       x2="2.5381098"
       y2="101.75713"
       gradientUnits="userSpaceOnUse"
       gradientTransform="matrix(16.579593,0,0,16.579593,115.31748,-1508.1364)" />
    <linearGradient
       inkscape:collect="always"
       xlink:href="#linearGradient3992"
       id="linearGradient3994"
       x1="6.4700942"
       y1="102.80936"
       x2="6.4700942"
       y2="96.608505"
       gradientUnits="userSpaceOnUse"
       gradientTransform="matrix(16.579593,0,0,16.579593,115.31748,-1508.1364)" />
    <linearGradient
       inkscape:collect="always"
       xlink:href="#linearGradient40288"
       id="linearGradient36641"
       x1="133.13879"
       y1="105.35433"
       x2="133.13879"
       y2="20.597084"
       gradientUnits="userSpaceOnUse"
       gradientTransform="matrix(1.0681122,0,0,1.0681122,-8.3591773,-7.5470378)" />
    <linearGradient
       inkscape:collect="always"
       xlink:href="#linearGradient3581"
       id="linearGradient36839"
       x1="125.29858"
       y1="5.1868591"
       x2="125.29858"
       y2="108.06237"
       gradientUnits="userSpaceOnUse"
       gradientTransform="matrix(1.0681122,0,0,1.0681122,-8.3591773,-7.5470378)" />
    <linearGradient
       inkscape:collect="always"
       xlink:href="#linearGradient38252"
       id="linearGradient38254"
       x1="239.93729"
       y1="210.98448"
       x2="239.93729"
       y2="88.254562"
       gradientUnits="userSpaceOnUse" />
    <filter
       inkscape:collect="always"
       style="color-interpolation-filters:sRGB"
       id="filter41047"
       x="-0.046328831"
       y="-0.049796248"
       width="1.0926577"
       height="1.0995925">
      <feGaussianBlur
         inkscape:collect="always"
         stdDeviation="4.5094545"
         id="feGaussianBlur41049" />
    </filter>
  </defs>
  <sodipodi:namedview
     inkscape:snap-global="true"
     inkscape:bbox-paths="true"
     fit-margin-bottom="0"
     fit-margin-right="0"
     fit-margin-left="0"
     fit-margin-top="0"
     inkscape:bbox-nodes="true"
     inkscape:snap-bbox="true"
     inkscape:window-maximized="1"
     inkscape:window-y="0"
     inkscape:window-x="3840"
     inkscape:window-height="2043"
     inkscape:window-width="3840"
     units="px"
     showgrid="false"
     inkscape:document-rotation="0"
     inkscape:current-layer="layer1"
     inkscape:document-units="px"
     inkscape:cy="116.25"
     inkscape:cx="-6.125"
     inkscape:zoom="4"
     inkscape:pageshadow="2"
     inkscape:pageopacity="0.0"
     borderopacity="1.0"
     bordercolor="#666666"
     pagecolor="#ffffff"
     id="base"
     showguides="true"
     inkscape:guide-bbox="true"
     inkscape:object-paths="false"
     inkscape:snap-midpoints="false"
     inkscape:snap-smooth-nodes="true"
     inkscape:snap-bbox-edge-midpoints="true"
     inkscape:pagecheckerboard="0">
    <inkscape:grid
       originy="0"
       originx="0"
       id="grid1504"
       type="xygrid" />
    <inkscape:grid
       spacingy="0.5"
       spacingx="0.5"
       id="grid1765"
       type="xygrid" />
  </sodipodi:namedview>
  <metadata
     id="metadata5">
    <rdf:RDF>
      <cc:Work
         rdf:about="">
        <dc:format>image/svg+xml</dc:format>
        <dc:type
           rdf:resource="http://purl.org/dc/dcmitype/StillImage" />
      </cc:Work>
    </rdf:RDF>
  </metadata>
  <g
     transform="translate(-12.567709)"
     id="layer1"
     inkscape:groupmode="layer"
     inkscape:label="Layer 1">
    <path
       id="path40890"
       style="color:#000000;fill:#212121;fill-opacity:1;stroke-width:5.33;-inkscape-stroke:none;filter:url(#filter41047)"
       d="m 105.3647,22.08013 c -0.58544,-0.0018 -1.1719,0.01552 -1.75782,0.05273 -18.600774,1.181337 -34.062497,20.282297 -34.062497,48.32813 v 34.54883 a 2.665,2.665 0 0 0 0.333984,1.24609 l -45.716797,45.7168 a 2.6652665,2.6652665 0 0 0 0,3.76757 l 82.89844,82.89844 a 2.6652665,2.6652665 0 0 0 3.76953,0 l 91.15039,-91.15039 c 0.0763,8.34404 0.29079,22.74287 0.97852,38.04297 0.5199,11.56693 1.29571,23.13475 2.48242,31.93555 0.59336,4.40039 1.2737,8.09181 2.1543,10.89062 0.44029,1.39941 0.90847,2.5776 1.60937,3.61719 0.7009,1.03958 1.91657,2.21094 3.66992,2.21094 5.69948,0 10.68325,-4.37066 15.55078,-10.45508 4.86754,-6.08442 9.5957,-14.25925 13.80274,-23.19922 8.41408,-17.87993 14.75976,-38.58519 14.75976,-51.9082 0,-15.09412 -3.76978,-26.19331 -9.89257,-34.01563 -6.1228,-7.82231 -14.49746,-12.24612 -23.22266,-14.38867 -4.3626,-1.07127 -8.81235,-1.604093 -13.17383,-1.730467 -12.60917,-0.36535 -24.43487,2.671527 -31.36328,5.933597 L 138.41939,63.505911 C 137.50118,51.29536 134.1318,41.568238 128.77095,34.445364 122.79028,26.498969 114.14632,22.107477 105.3647,22.08013 Z m 0.7539,16.015625 c 3.45839,0.156244 6.66756,1.733066 9.86133,5.976563 1.93576,2.572009 3.72044,6.250378 4.96094,11.121093 L 85.556102,90.578177 V 70.46099 c 0,-22.425843 11.242713,-31.852853 19.064458,-32.34961 0.50491,-0.03207 1.00399,-0.03794 1.49804,-0.01563 z" />
    <g
       id="g38598"
       transform="translate(-8.0432087,11.378963)">
      <path
         style="fill:url(#linearGradient3994);fill-opacity:1;stroke:url(#linearGradient38254);stroke-width:5.33;stroke-linecap:butt;stroke-linejoin:miter;stroke-miterlimit:4;stroke-dasharray:none;stroke-opacity:1"
         d="m 182.75844,91.794324 c 16.57959,-8.289796 74.60817,-17.168732 74.60817,41.448986 0,24.86939 -24.86939,82.89796 -41.44898,82.89796 -8.2898,0 -8.2898,-92.21705 -8.2898,-92.21705 z"
         id="path1343"
         sodipodi:nodetypes="csscc" />
      <path
         style="fill:url(#linearGradient2129);fill-opacity:1;stroke:url(#linearGradient3583);stroke-width:5.33;stroke-linecap:round;stroke-linejoin:round;stroke-miterlimit:4;stroke-dasharray:none;stroke-opacity:1"
         d="m 128.56771,39.000009 82.89796,82.897961 -99.47756,99.47765 -82.897961,-82.89805 z"
         id="path870" />
      <circle
         style="fill:#737373;fill-opacity:1;fill-rule:evenodd;stroke:#676c71;stroke-width:5.33;stroke-linecap:round;stroke-linejoin:round;stroke-miterlimit:4;stroke-dasharray:none;stroke-opacity:1;stop-color:#000000"
         id="path35980"
         cx="132.98944"
         cy="108.44658"
         r="13.90305" />
      <path
         style="color:#000000;fill:url(#linearGradient36641);fill-opacity:1;stroke:url(#linearGradient36839);stroke-width:5.33;stroke-linecap:round;stroke-miterlimit:4;stroke-dasharray:none;stroke-opacity:1"
         d="M 85.935104,78.495302 V 55.081471 c 0,-23.329199 11.86157,-34.391822 21.560426,-35.007795 4.84942,-0.307987 9.59205,1.615399 13.65807,7.017831 4.06601,5.402432 7.22644,14.52759 7.22644,27.989964 v 53.126069 c 0,2.94951 2.39106,5.34056 5.34056,5.34056 2.94951,0 5.34056,-2.39105 5.34056,-5.34056 V 55.081471 c 0,-15.116979 -3.47997,-26.580389 -9.37518,-34.41324 C 123.79077,12.835379 115.25182,8.8778873 106.81961,9.4134153 89.955206,10.484471 75.253982,28.00008 75.253982,55.081471 v 34.549326"
         id="path985"
         sodipodi:nodetypes="csssssssssssc" />
    </g>
  </g>
</svg>
