<?xml version="1.0" encoding="UTF-8" standalone="no"?>
<svg
   sodipodi:docname="fill-16.svg"
   inkscape:version="1.1.2 (0a00cf5339, 2022-02-04)"
   id="svg8"
   version="1.1"
   viewBox="0 0 256 256"
   height="256"
   width="256"
   inkscape:export-filename="fill-color.png"
   inkscape:export-xdpi="6"
   inkscape:export-ydpi="6"
   xmlns:inkscape="http://www.inkscape.org/namespaces/inkscape"
   xmlns:sodipodi="http://sodipodi.sourceforge.net/DTD/sodipodi-0.dtd"
   xmlns:xlink="http://www.w3.org/1999/xlink"
   xmlns="http://www.w3.org/2000/svg"
   xmlns:svg="http://www.w3.org/2000/svg"
   xmlns:rdf="http://www.w3.org/1999/02/22-rdf-syntax-ns#"
   xmlns:cc="http://creativecommons.org/ns#"
   xmlns:dc="http://purl.org/dc/elements/1.1/">
  <defs
     id="defs2">
    <linearGradient
       inkscape:collect="always"
       id="linearGradient40288">
      <stop
         style="stop-color:#9999fc;stop-opacity:1"
         offset="0"
         id="stop40282" />
      <stop
         style="stop-color:#adadad;stop-opacity:1"
         offset="0.5"
         id="stop40284" />
      <stop
         style="stop-color:#ffffff;stop-opacity:1"
         offset="1"
         id="stop40286" />
    </linearGradient>
    <linearGradient
       inkscape:collect="always"
       id="linearGradient38252">
      <stop
         style="stop-color:#0007d2;stop-opacity:1"
         offset="0"
         id="stop38248" />
      <stop
         style="stop-color:#2526ff;stop-opacity:1"
         offset="1"
         id="stop38250" />
    </linearGradient>
    <linearGradient
       inkscape:collect="always"
       id="linearGradient3992">
      <stop
         style="stop-color:#0040b2;stop-opacity:1"
         offset="0"
         id="stop3988" />
      <stop
         style="stop-color:#508aff;stop-opacity:1"
         offset="1"
         id="stop3990" />
    </linearGradient>
    <linearGradient
       inkscape:collect="always"
       xlink:href="#linearGradient40288"
       id="linearGradient2129"
       x1="-18.020754"
       y1="98.860168"
       x2="-22.270967"
       y2="94.611618"
       gradientUnits="userSpaceOnUse"
       gradientTransform="matrix(16.579593,0,0,16.579593,450.99377,-1466.6537)" />
    <linearGradient
       inkscape:collect="always"
       xlink:href="#linearGradient3992"
       id="linearGradient3994"
       x1="6.4700942"
       y1="102.80936"
       x2="6.4700942"
       y2="96.608505"
       gradientUnits="userSpaceOnUse"
       gradientTransform="matrix(16.579593,0,0,16.579593,107.27427,-1496.7574)" />
    <linearGradient
       inkscape:collect="always"
       xlink:href="#linearGradient40288"
       id="linearGradient36641"
       x1="133.13879"
       y1="105.35433"
       x2="133.13879"
       y2="20.597084"
       gradientUnits="userSpaceOnUse"
       gradientTransform="matrix(1.0681122,0,0,1.0681122,-16.402386,3.8319252)" />
    <linearGradient
       inkscape:collect="always"
       xlink:href="#linearGradient38252"
       id="linearGradient38254"
       x1="239.93729"
       y1="210.98448"
       x2="239.93729"
       y2="88.254562"
       gradientUnits="userSpaceOnUse"
       gradientTransform="translate(-8.0432087,11.378963)" />
    <filter
       inkscape:collect="always"
       style="color-interpolation-filters:sRGB"
       id="filter1313"
       x="-0.14201692"
       y="-0.1523455"
       width="1.2840338"
       height="1.304691">
      <feGaussianBlur
         inkscape:collect="always"
         stdDeviation="14.587813"
         id="feGaussianBlur1315" />
    </filter>
  </defs>
  <sodipodi:namedview
     inkscape:snap-global="true"
     inkscape:bbox-paths="true"
     fit-margin-bottom="0"
     fit-margin-right="0"
     fit-margin-left="0"
     fit-margin-top="0"
     inkscape:bbox-nodes="true"
     inkscape:snap-bbox="true"
     inkscape:window-maximized="1"
     inkscape:window-y="0"
     inkscape:window-x="3840"
     inkscape:window-height="2050"
     inkscape:window-width="3840"
     units="px"
     showgrid="false"
     inkscape:document-rotation="0"
     inkscape:current-layer="layer1"
     inkscape:document-units="px"
     inkscape:cy="141.87212"
     inkscape:cx="0.83865292"
     inkscape:zoom="3.5771652"
     inkscape:pageshadow="2"
     inkscape:pageopacity="0.0"
     borderopacity="1.0"
     bordercolor="#666666"
     pagecolor="#ffffff"
     id="base"
     showguides="true"
     inkscape:guide-bbox="true"
     inkscape:object-paths="false"
     inkscape:snap-midpoints="false"
     inkscape:snap-smooth-nodes="true"
     inkscape:snap-bbox-edge-midpoints="true"
     inkscape:pagecheckerboard="0">
    <inkscape:grid
       originy="0"
       originx="0"
       id="grid1504"
       type="xygrid" />
    <inkscape:grid
       spacingy="0.5"
       spacingx="0.5"
       id="grid1765"
       type="xygrid" />
  </sodipodi:namedview>
  <metadata
     id="metadata5">
    <rdf:RDF>
      <cc:Work
         rdf:about="">
        <dc:format>image/svg+xml</dc:format>
        <dc:type
           rdf:resource="http://purl.org/dc/dcmitype/StillImage" />
      </cc:Work>
    </rdf:RDF>
  </metadata>
  <g
     transform="translate(-12.567709)"
     id="layer1"
     inkscape:groupmode="layer"
     inkscape:label="Layer 1">
    <path
       id="path1192"
       style="color:#000000;fill:#000000;fill-opacity:1;stroke-width:12;-inkscape-stroke:none;filter:url(#filter1313)"
       d="m 116.06753,11.311659 c -0.67279,-0.0023 -1.34744,0.01774 -2.02148,0.06055 -21.235278,1.348649 -38.050784,22.912276 -38.050784,52.90625 v 35.494142 a 6,6 0 0 0 0.04492,0.22656 L 30.325342,145.714 a 6.0006,6.0006 0 0 0 0,8.48633 l 85.167968,85.16602 a 6.0006,6.0006 0 0 0 8.48438,0 l 88.17382,-88.17188 c 0.12638,8.50558 0.36639,19.30946 0.91211,31.45117 0.53632,11.93224 1.33132,23.86767 2.57617,33.09961 0.62243,4.61598 1.32447,8.51569 2.33594,11.73047 0.50573,1.60739 1.03993,3.04676 2.06055,4.56055 1.02061,1.51379 3.15932,3.70898 6.47265,3.70898 7.75834,0 13.27429,-5.40096 18.52539,-11.96484 5.25111,-6.56388 10.18573,-15.13612 14.58399,-24.48242 8.79652,-18.6926 15.47461,-39.94374 15.47461,-54.71875 0,-16.04544 -4.04858,-28.2563 -10.85742,-36.95508 -6.80883,-8.698779 -16.15148,-13.607395 -25.64844,-15.939451 -4.74848,-1.166028 -9.53448,-1.760466 -14.20117,-1.916016 -12.31696,-0.410547 -23.80035,2.237255 -31.62305,5.498047 L 153.17886,55.682753 c -1.1051,-12.478061 -4.67933,-22.677486 -10.4668,-30.367188 -6.69997,-8.902104 -16.55268,-13.969604 -26.64453,-14.003906 z m 0.58789,22.960938 c 2.63066,0.06322 4.86749,1.089762 7.70313,4.857421 1.45795,1.937153 2.89797,4.776097 4.03125,8.521485 L 98.969876,77.071425 V 64.278456 c 0,-21.933909 10.793114,-29.614087 16.531254,-29.978516 0.39478,-0.02507 0.77848,-0.03637 1.15429,-0.02734 z" />
    <g
       id="g1009"
       transform="matrix(1.0273693,0,0,1.0273693,-3.0555195,-8.0012566)"
       style="stroke-width:11.6803;stroke-miterlimit:4;stroke-dasharray:none">
      <path
         style="fill:url(#linearGradient3994);fill-opacity:1;stroke:url(#linearGradient38254);stroke-width:11.6803;stroke-linecap:butt;stroke-linejoin:miter;stroke-miterlimit:4;stroke-dasharray:none;stroke-opacity:1"
         d="m 174.71523,103.17329 c 16.57959,-8.289799 74.60817,-17.168735 74.60817,41.44898 0,24.86939 -24.86939,82.89796 -41.44898,82.89796 -8.2898,0 -8.2898,-92.21705 -8.2898,-92.21705 z"
         id="path1343"
         sodipodi:nodetypes="csscc" />
      <path
         style="fill:url(#linearGradient2129);fill-opacity:1;stroke:#4e5256;stroke-width:11.6803;stroke-linecap:round;stroke-linejoin:round;stroke-miterlimit:4;stroke-dasharray:none;stroke-opacity:1"
         d="M 120.5245,50.378972 203.42246,133.27693 103.9449,232.75458 21.04694,149.85653 Z"
         id="path870" />
      <circle
         style="fill:#737373;fill-opacity:1;fill-rule:evenodd;stroke:#676c71;stroke-width:11.6803;stroke-linecap:round;stroke-linejoin:round;stroke-miterlimit:4;stroke-dasharray:none;stroke-opacity:1;stop-color:#000000"
         id="path35980"
         cx="124.94624"
         cy="119.82554"
         r="13.90305" />
      <path
         style="color:#000000;fill:url(#linearGradient36641);fill-opacity:1;stroke:#4e5256;stroke-width:11.6803;stroke-linecap:round;stroke-miterlimit:4;stroke-dasharray:none;stroke-opacity:1"
         d="M 77.891895,89.874265 V 66.460434 c 0,-23.329199 11.86157,-34.391822 21.560426,-35.007795 4.849419,-0.307987 9.592049,1.615399 13.658069,7.017831 4.06601,5.402432 7.22644,14.52759 7.22644,27.989964 V 119.5865 c 0,2.94951 2.39106,5.34056 5.34056,5.34056 2.94951,0 5.34056,-2.39105 5.34056,-5.34056 V 66.460434 c 0,-15.116979 -3.47997,-26.580389 -9.37518,-34.41324 C 115.74756,24.214342 107.20861,20.25685 98.776401,20.792378 81.911997,21.863434 67.210773,39.379043 67.210773,66.460434 v 34.549326"
         id="path985"
         sodipodi:nodetypes="csssssssssssc" />
    </g>
  </g>
</svg>
