<?xml version="1.0" encoding="UTF-8" standalone="no"?>
<svg
   sodipodi:docname="fill.svg"
   inkscape:version="1.1.2 (0a00cf5339, 2022-02-04)"
   id="svg8"
   version="1.1"
   viewBox="0 0 256 256"
   height="256"
   width="256"
   inkscape:export-filename="fill-color.png"
   inkscape:export-xdpi="96"
   inkscape:export-ydpi="96"
   xmlns:inkscape="http://www.inkscape.org/namespaces/inkscape"
   xmlns:sodipodi="http://sodipodi.sourceforge.net/DTD/sodipodi-0.dtd"
   xmlns:xlink="http://www.w3.org/1999/xlink"
   xmlns="http://www.w3.org/2000/svg"
   xmlns:svg="http://www.w3.org/2000/svg"
   xmlns:rdf="http://www.w3.org/1999/02/22-rdf-syntax-ns#"
   xmlns:cc="http://creativecommons.org/ns#"
   xmlns:dc="http://purl.org/dc/elements/1.1/">
  <defs
     id="defs2">
    <linearGradient
       inkscape:collect="always"
       id="linearGradient40288">
      <stop
         style="stop-color:#9999fc;stop-opacity:1"
         offset="0"
         id="stop40282" />
      <stop
         style="stop-color:#adadad;stop-opacity:1"
         offset="0.5"
         id="stop40284" />
      <stop
         style="stop-color:#ffffff;stop-opacity:1"
         offset="1"
         id="stop40286" />
    </linearGradient>
    <linearGradient
       inkscape:collect="always"
       id="linearGradient38252">
      <stop
         style="stop-color:#0007d2;stop-opacity:1"
         offset="0"
         id="stop38248" />
      <stop
         style="stop-color:#2526ff;stop-opacity:1"
         offset="1"
         id="stop38250" />
    </linearGradient>
    <linearGradient
       inkscape:collect="always"
       id="linearGradient3992">
      <stop
         style="stop-color:#0040b2;stop-opacity:1"
         offset="0"
         id="stop3988" />
      <stop
         style="stop-color:#508aff;stop-opacity:1"
         offset="1"
         id="stop3990" />
    </linearGradient>
    <linearGradient
       inkscape:collect="always"
       xlink:href="#linearGradient40288"
       id="linearGradient2129"
       x1="-18.020754"
       y1="98.860168"
       x2="-22.270967"
       y2="94.611618"
       gradientUnits="userSpaceOnUse"
       gradientTransform="matrix(16.579593,0,0,16.579593,450.99377,-1466.6537)" />
    <linearGradient
       inkscape:collect="always"
       xlink:href="#linearGradient3992"
       id="linearGradient3994"
       x1="6.4700942"
       y1="102.80936"
       x2="6.4700942"
       y2="96.608505"
       gradientUnits="userSpaceOnUse"
       gradientTransform="matrix(16.579593,0,0,16.579593,107.27427,-1496.7574)" />
    <linearGradient
       inkscape:collect="always"
       xlink:href="#linearGradient40288"
       id="linearGradient36641"
       x1="133.13879"
       y1="105.35433"
       x2="133.13879"
       y2="20.597084"
       gradientUnits="userSpaceOnUse"
       gradientTransform="matrix(1.0681122,0,0,1.0681122,-16.402386,3.8319252)" />
    <linearGradient
       inkscape:collect="always"
       xlink:href="#linearGradient38252"
       id="linearGradient38254"
       x1="239.93729"
       y1="210.98448"
       x2="239.93729"
       y2="88.254562"
       gradientUnits="userSpaceOnUse"
       gradientTransform="translate(-8.0432087,11.378963)" />
    <filter
       inkscape:collect="always"
       style="color-interpolation-filters:sRGB"
       id="filter1192"
       x="-0.046328638"
       y="-0.049796472"
       width="1.0926573"
       height="1.0995929">
      <feGaussianBlur
         inkscape:collect="always"
         stdDeviation="4.6328934"
         id="feGaussianBlur1194" />
    </filter>
  </defs>
  <sodipodi:namedview
     inkscape:snap-global="true"
     inkscape:bbox-paths="true"
     fit-margin-bottom="0"
     fit-margin-right="0"
     fit-margin-left="0"
     fit-margin-top="0"
     inkscape:bbox-nodes="true"
     inkscape:snap-bbox="true"
     inkscape:window-maximized="1"
     inkscape:window-y="0"
     inkscape:window-x="3840"
     inkscape:window-height="2050"
     inkscape:window-width="3840"
     units="px"
     showgrid="false"
     inkscape:document-rotation="0"
     inkscape:current-layer="layer1"
     inkscape:document-units="px"
     inkscape:cy="141.87212"
     inkscape:cx="-22.643629"
     inkscape:zoom="3.5771652"
     inkscape:pageshadow="2"
     inkscape:pageopacity="0.0"
     borderopacity="1.0"
     bordercolor="#666666"
     pagecolor="#ffffff"
     id="base"
     showguides="true"
     inkscape:guide-bbox="true"
     inkscape:object-paths="false"
     inkscape:snap-midpoints="false"
     inkscape:snap-smooth-nodes="true"
     inkscape:snap-bbox-edge-midpoints="true"
     inkscape:pagecheckerboard="0">
    <inkscape:grid
       originy="0"
       originx="0"
       id="grid1504"
       type="xygrid" />
    <inkscape:grid
       spacingy="0.5"
       spacingx="0.5"
       id="grid1765"
       type="xygrid" />
  </sodipodi:namedview>
  <metadata
     id="metadata5">
    <rdf:RDF>
      <cc:Work
         rdf:about="">
        <dc:format>image/svg+xml</dc:format>
        <dc:type
           rdf:resource="http://purl.org/dc/dcmitype/StillImage" />
      </cc:Work>
    </rdf:RDF>
  </metadata>
  <g
     transform="translate(-12.567709)"
     id="layer1"
     inkscape:groupmode="layer"
     inkscape:label="Layer 1">
    <path
       id="path1053"
       style="color:#000000;fill:#000000;fill-opacity:1;stroke-width:5.47588;-inkscape-stroke:none;filter:url(#filter1192)"
       d="m 101.79581,20.355134 c -0.60147,-0.0019 -1.20469,0.01646 -1.806641,0.05469 C 80.8793,21.623486 64.995028,41.246785 64.995028,70.060212 V 105.5563 a 2.7379401,2.7379401 0 0 0 0.34375,1.2793 l -46.968749,46.96679 a 2.7382139,2.7382139 0 0 0 0,3.87305 L 103.538,242.84146 a 2.7382139,2.7382139 0 0 0 3.87109,0 l 93.64649,-93.64453 c 0.0782,8.57235 0.29734,23.36473 1.0039,39.08398 0.53413,11.88351 1.3316,23.76888 2.55079,32.81055 0.6096,4.52083 1.31015,8.31208 2.21484,11.1875 0.45234,1.4377 0.93226,2.64876 1.65234,3.71679 0.72008,1.06804 1.96819,2.27149 3.76953,2.27149 5.85547,0 10.97776,-4.49124 15.97852,-10.74219 5.00076,-6.25094 9.85555,-14.64934 14.17773,-23.83398 8.64438,-18.3693 15.16602,-39.64242 15.16602,-53.33008 0,-15.50723 -3.87369,-26.90891 -10.16406,-34.94531 -6.29037,-8.03641 -14.89538,-12.58007 -23.85938,-14.78125 -4.482,-1.100591 -9.05235,-1.649464 -13.5332,-1.779296 -12.95402,-0.375343 -25.10259,2.746286 -32.2207,6.097646 L 135.75284,62.913727 C 134.80971,50.369638 131.35002,40.375754 125.84269,33.058259 119.69833,24.894376 110.81786,20.383114 101.79581,20.355134 Z m 0.77539,16.455078 c 3.55298,0.160321 6.84967,1.780985 10.13086,6.140625 1.98884,2.642531 3.82164,6.421809 5.09571,11.425781 L 81.444247,90.730134 V 70.060212 c 0,-23.039621 11.552089,-32.72207 19.587893,-33.232422 0.51873,-0.03294 1.03149,-0.04048 1.53906,-0.01758 z" />
    <g
       id="g1009"
       transform="matrix(1.0273693,0,0,1.0273693,-6.3159068,-2.2186011)">
      <path
         style="fill:url(#linearGradient3994);fill-opacity:1;stroke:url(#linearGradient38254);stroke-width:5.33;stroke-linecap:butt;stroke-linejoin:miter;stroke-miterlimit:4;stroke-dasharray:none;stroke-opacity:1"
         d="m 174.71523,103.17329 c 16.57959,-8.289799 74.60817,-17.168735 74.60817,41.44898 0,24.86939 -24.86939,82.89796 -41.44898,82.89796 -8.2898,0 -8.2898,-92.21705 -8.2898,-92.21705 z"
         id="path1343"
         sodipodi:nodetypes="csscc" />
      <path
         style="fill:url(#linearGradient2129);fill-opacity:1;stroke:#4e5256;stroke-width:5.33;stroke-linecap:round;stroke-linejoin:round;stroke-miterlimit:4;stroke-dasharray:none;stroke-opacity:1"
         d="M 120.5245,50.378972 203.42246,133.27693 103.9449,232.75458 21.04694,149.85653 Z"
         id="path870" />
      <circle
         style="fill:#737373;fill-opacity:1;fill-rule:evenodd;stroke:#676c71;stroke-width:5.33;stroke-linecap:round;stroke-linejoin:round;stroke-miterlimit:4;stroke-dasharray:none;stroke-opacity:1;stop-color:#000000"
         id="path35980"
         cx="124.94624"
         cy="119.82554"
         r="13.90305" />
      <path
         style="color:#000000;fill:url(#linearGradient36641);fill-opacity:1;stroke:#4e5256;stroke-width:5.33;stroke-linecap:round;stroke-miterlimit:4;stroke-dasharray:none;stroke-opacity:1"
         d="M 77.891895,89.874265 V 66.460434 c 0,-23.329199 11.86157,-34.391822 21.560426,-35.007795 4.849419,-0.307987 9.592049,1.615399 13.658069,7.017831 4.06601,5.402432 7.22644,14.52759 7.22644,27.989964 V 119.5865 c 0,2.94951 2.39106,5.34056 5.34056,5.34056 2.94951,0 5.34056,-2.39105 5.34056,-5.34056 V 66.460434 c 0,-15.116979 -3.47997,-26.580389 -9.37518,-34.41324 C 115.74756,24.214342 107.20861,20.25685 98.776401,20.792378 81.911997,21.863434 67.210773,39.379043 67.210773,66.460434 v 34.549326"
         id="path985"
         sodipodi:nodetypes="csssssssssssc" />
    </g>
  </g>
</svg>
