<?xml version="1.0" encoding="UTF-8" standalone="no"?>
<svg
   viewBox="0 0 256 256"
   id="svg2"
   version="1.1"
   inkscape:version="1.1.2 (0a00cf5339, 2022-02-04)"
   sodipodi:docname="invert-color-text.svg"
   width="256"
   height="256"
   inkscape:export-filename="color-mode-invert-text.png"
   inkscape:export-xdpi="96"
   inkscape:export-ydpi="96"
   xmlns:inkscape="http://www.inkscape.org/namespaces/inkscape"
   xmlns:sodipodi="http://sodipodi.sourceforge.net/DTD/sodipodi-0.dtd"
   xmlns="http://www.w3.org/2000/svg"
   xmlns:svg="http://www.w3.org/2000/svg"
   xmlns:rdf="http://www.w3.org/1999/02/22-rdf-syntax-ns#"
   xmlns:cc="http://creativecommons.org/ns#"
   xmlns:dc="http://purl.org/dc/elements/1.1/">
  <metadata
     id="metadata10">
    <rdf:RDF>
      <cc:Work
         rdf:about="">
        <dc:format>image/svg+xml</dc:format>
        <dc:type
           rdf:resource="http://purl.org/dc/dcmitype/StillImage" />
      </cc:Work>
    </rdf:RDF>
  </metadata>
  <sodipodi:namedview
     pagecolor="#ffffff"
     bordercolor="#666666"
     borderopacity="1"
     objecttolerance="10"
     gridtolerance="10"
     guidetolerance="10"
     inkscape:pageopacity="0"
     inkscape:pageshadow="2"
     inkscape:window-width="3840"
     inkscape:window-height="2043"
     id="namedview8"
     showgrid="false"
     inkscape:zoom="1.3409091"
     inkscape:cx="-56.305084"
     inkscape:cy="317.69491"
     inkscape:window-x="0"
     inkscape:window-y="0"
     inkscape:window-maximized="1"
     inkscape:current-layer="svg2"
     inkscape:pagecheckerboard="0" />
  <defs
     id="defs3051">
    <style
       type="text/css"
       id="current-color-scheme">
      .ColorScheme-Text {
        color:#232629;
      }
      </style>
    <filter
       inkscape:collect="always"
       style="color-interpolation-filters:sRGB"
       id="filter3258"
       x="-0.048000001"
       y="-0.048000002"
       width="1.096"
       height="1.096">
      <feGaussianBlur
         inkscape:collect="always"
         stdDeviation="4.84"
         id="feGaussianBlur3260" />
    </filter>
    <filter
       inkscape:collect="always"
       style="color-interpolation-filters:sRGB"
       id="filter3598"
       x="-0.045687048"
       y="-0.04748942"
       width="1.0913741"
       height="1.0949788">
      <feGaussianBlur
         inkscape:collect="always"
         stdDeviation="3.9296757"
         id="feGaussianBlur3600" />
    </filter>
  </defs>
  <path
     id="path3007"
     style="color:#000000;fill:#0d1a33;fill-opacity:1;fill-rule:evenodd;stroke-width:5.25765;stroke-linecap:round;stroke-linejoin:round;-inkscape-stroke:none;filter:url(#filter3258)"
     d="M 7.6279009,4 A 2.6290885,2.6290885 0 0 0 5.0000001,6.6298274 V 243.3721 A 2.6290885,2.6290885 0 0 0 7.6279009,246 H 244.37017 a 2.6290885,2.6290885 0 0 0 1.8534,-0.7668 2.6290885,2.6290885 0 0 0 0.006,-0.004 2.6290885,2.6290885 0 0 0 0.002,-0.002 A 2.6290885,2.6290885 0 0 0 247,243.3721 V 6.6298274 a 2.6290885,2.6290885 0 0 0 0,-0.00193 2.6290885,2.6290885 0 0 0 0,-0.00193 A 2.6290885,2.6290885 0 0 0 246.26403,4.8515632 2.6290885,2.6290885 0 0 0 246.1465,4.7340397 2.6290885,2.6290885 0 0 0 244.37017,4 Z" />
  <g
     transform="matrix(0.50130796,0,0,0.50130796,64.877807,55.042396)"
     id="g885"
     style="fill:none;stroke:#f7f7f7" />
  <g
     id="g2961"
     transform="matrix(0.98642612,0,0,0.98642612,-1.8858847,-5.8270811)">
    <g
       id="g2169">
      <rect
         style="fill:#ffffff;fill-opacity:1;fill-rule:evenodd;stroke:#000000;stroke-width:5.33;stroke-linecap:round;stroke-linejoin:round;stroke-miterlimit:4;stroke-dasharray:none;stroke-opacity:1;stop-color:#000000"
         id="rect1708"
         width="240"
         height="240"
         x="4.5768356"
         y="8.5729733" />
      <path
         id="path3483"
         style="color:#000000;-inkscape-font-specification:'Times New Roman,  Bold';fill:#212121;fill-opacity:1;stroke-width:5;stroke-linecap:round;stroke-linejoin:round;-inkscape-stroke:none;filter:url(#filter3598)"
         d="m 129.78672,33.330605 a 2.5002501,2.5002501 0 0 0 -2.28096,1.477081 L 59.661014,186.15899 a 2.5002501,2.5002501 0 0 0 -0.002,0.006 c -6.387013,14.34762 -11.839368,23.80699 -15.756851,27.97741 -3.998085,4.16297 -9.006321,6.68371 -15.345011,7.63885 a 2.5002501,2.5002501 0 0 0 -2.126521,2.47104 v 5.17375 a 2.5002501,2.5002501 0 0 0 2.500742,2.50074 h 63.086803 a 2.5002501,2.5002501 0 0 0 2.500742,-2.50074 v -5.17375 a 2.5002501,2.5002501 0 0 0 -2.312642,-2.49084 c -9.775951,-0.73778 -16.075768,-2.16144 -17.517072,-3.01554 a 2.5002501,2.5002501 0 0 0 -0.0099,-0.006 c -3.627686,-2.12931 -5.201464,-4.95216 -5.201464,-9.59508 0,-3.46402 1.18214,-8.29003 3.712503,-14.258 l 0.0059,-0.0139 7.316105,-16.94089 h 63.706542 l 9.42481,22.11859 c 1.30118,3.0671 2.29794,5.46805 2.98584,7.18742 0.68812,1.71992 1.10562,3.02401 1.07118,2.86901 a 2.5002501,2.5002501 0 0 0 0.0535,0.2079 c 0.49173,1.55718 0.72666,3.02452 0.72666,4.42332 0,2.17206 -0.59967,3.34333 -2.03148,4.39363 -2.20596,1.49878 -6.96877,2.62153 -14.07385,2.62153 h -3.77586 a 2.5002501,2.5002501 0 0 0 -2.49876,2.49875 v 5.17375 a 2.5002501,2.5002501 0 0 0 2.49876,2.50074 h 91.76316 a 2.5002501,2.5002501 0 0 0 2.49876,-2.50074 v -5.17375 a 2.5002501,2.5002501 0 0 0 -2.29877,-2.49084 c -5.40502,-0.43588 -9.28376,-1.96687 -11.94536,-4.39362 a 2.5002501,2.5002501 0 0 0 -0.002,0 c -3.49139,-3.18102 -9.00289,-12.37285 -15.48164,-26.99534 l -0.002,-0.006 L 134.7327,34.823427 a 2.5002501,2.5002501 0 0 0 -2.28888,-1.492922 z m -16.95871,72.644265 24.4847,56.60627 H 87.616654 Z" />
      <path
         id="path16285"
         style="font-weight:bold;font-size:174.253px;font-family:'Times New Roman';-inkscape-font-specification:'Times New Roman,  Bold';text-align:center;letter-spacing:0px;word-spacing:0px;text-anchor:middle;fill:#379dff;fill-opacity:1;stroke:#0062ff;stroke-width:5;stroke-linecap:round;stroke-linejoin:round;stroke-miterlimit:4;stroke-dasharray:none;stroke-opacity:1"
         d="M 124.71652,31.774871 56.873879,183.12677 c -6.434613,14.45455 -11.842337,24.01494 -16.225332,28.6777 -4.383,4.56949 -9.97963,7.36782 -16.787264,8.39362 v 5.17298 h 63.087103 v -5.17298 c -9.885057,-0.74601 -16.086815,-1.86664 -18.604708,-3.35871 -4.289742,-2.51791 -6.434903,-6.43364 -6.434903,-11.74918 0,-4.00998 1.306307,-9.09431 3.917456,-15.24917 l 7.972987,-18.46343 h 67.004562 l 10.06979,23.6396 c 2.61115,6.15484 4.0103,9.65113 4.19682,10.49043 0.55953,1.77186 0.84128,3.4976 0.84128,5.17617 0,2.79767 -1.02776,4.94284 -3.07937,6.43494 -2.98417,2.05159 -8.15817,3.07935 -15.52533,3.07935 h -3.77618 v 5.17298 h 91.7616 v -5.17298 c -5.78182,-0.46627 -10.25784,-2.14719 -13.42853,-5.03811 -4.19649,-3.82345 -9.55938,-13.10209 -16.08726,-27.8364 L 127.37525,31.774871 Z m -16.92534,63.925181 28.25707,65.325188 H 78.696039 Z"
         sodipodi:nodetypes="ccccccccscccccscscccccccccccc" />
    </g>
    <g
       id="g2277">
      <path
         id="rect2273"
         style="fill:#000000;fill-opacity:1;fill-rule:evenodd;stroke:#000000;stroke-width:5.33;stroke-linecap:round;stroke-linejoin:round;stroke-miterlimit:4;stroke-dasharray:none;stroke-opacity:1;stop-color:#ffffff"
         d="M 126.64648,248.57227 H 244.57617 V 8.5722656 H 126.64648"
         sodipodi:nodetypes="cccc" />
      <path
         id="path2275"
         style="font-weight:bold;font-size:174.253px;font-family:'Times New Roman';-inkscape-font-specification:'Times New Roman,  Bold';text-align:center;letter-spacing:0px;word-spacing:0px;text-anchor:middle;fill:#c86200;fill-opacity:1;stroke:#ff9d00;stroke-width:5;stroke-linecap:round;stroke-linejoin:round;stroke-miterlimit:4;stroke-dasharray:none;stroke-opacity:1"
         d="m 126.64648,139.28906 9.40235,21.73633 h -9.40235 m 0,10.35156 h 14.15821 l 10.06836,23.64063 c 2.61115,6.15484 4.01074,9.65093 4.19726,10.49023 0.55953,1.77186 0.8418,3.49721 0.8418,5.17578 0,2.79767 -1.02847,4.94345 -3.08008,6.43555 -2.98417,2.05159 -8.15823,3.07813 -15.52539,3.07813 h -3.77539 v 5.17382 h 91.76172 v -5.17382 c -5.78182,-0.46627 -10.259,-2.14619 -13.42969,-5.03711 -4.19649,-3.82345 -9.55806,-13.10163 -16.08594,-27.83594 L 127.375,31.775391 h -0.72852"
         sodipodi:nodetypes="cccccccscscccccccc" />
    </g>
  </g>
</svg>
