<?xml version="1.0" encoding="UTF-8" standalone="no"?>
<svg
   sodipodi:docname="object-rotate-left.svg"
   inkscape:version="1.1.2 (0a00cf5339, 2022-02-04)"
   id="svg8"
   version="1.1"
   viewBox="0 0 256 256"
   height="256"
   width="256"
   inkscape:export-filename="object-rotate-left.png"
   inkscape:export-xdpi="96"
   inkscape:export-ydpi="96"
   xmlns:inkscape="http://www.inkscape.org/namespaces/inkscape"
   xmlns:sodipodi="http://sodipodi.sourceforge.net/DTD/sodipodi-0.dtd"
   xmlns:xlink="http://www.w3.org/1999/xlink"
   xmlns="http://www.w3.org/2000/svg"
   xmlns:svg="http://www.w3.org/2000/svg"
   xmlns:rdf="http://www.w3.org/1999/02/22-rdf-syntax-ns#"
   xmlns:cc="http://creativecommons.org/ns#"
   xmlns:dc="http://purl.org/dc/elements/1.1/">
  <defs
     id="defs2">
    <linearGradient
       inkscape:collect="always"
       id="linearGradient942">
      <stop
         style="stop-color:#215dde;stop-opacity:1"
         offset="0"
         id="stop938" />
      <stop
         style="stop-color:#88abf7;stop-opacity:1"
         offset="1"
         id="stop940" />
    </linearGradient>
    <linearGradient
       inkscape:collect="always"
       xlink:href="#linearGradient942"
       id="linearGradient1618-5"
       x1="-2.888675"
       y1="7.3328891"
       x2="-1.6334057"
       y2="8.9143724"
       gradientUnits="userSpaceOnUse"
       gradientTransform="matrix(0,1.9715751,-1.5986304,0,371.3934,196.76365)" />
    <filter
       inkscape:collect="always"
       style="color-interpolation-filters:sRGB"
       id="filter10390"
       x="-0.038950964"
       y="-0.062525949"
       width="1.0779019"
       height="1.1250519">
      <feGaussianBlur
         inkscape:collect="always"
         stdDeviation="3.9762384"
         id="feGaussianBlur10392" />
    </filter>
  </defs>
  <sodipodi:namedview
     inkscape:snap-global="false"
     inkscape:bbox-paths="false"
     fit-margin-bottom="0"
     fit-margin-right="0"
     fit-margin-left="0"
     fit-margin-top="0"
     inkscape:bbox-nodes="true"
     inkscape:snap-bbox="true"
     inkscape:window-maximized="1"
     inkscape:window-y="0"
     inkscape:window-x="3840"
     inkscape:window-height="2050"
     inkscape:window-width="3840"
     units="px"
     showgrid="false"
     inkscape:document-rotation="0"
     inkscape:current-layer="layer1"
     inkscape:document-units="px"
     inkscape:cy="150.71161"
     inkscape:cx="-122.44403"
     inkscape:zoom="3.4138047"
     inkscape:pageshadow="2"
     inkscape:pageopacity="0.0"
     borderopacity="1.0"
     bordercolor="#666666"
     pagecolor="#ffffff"
     id="base"
     showguides="true"
     inkscape:guide-bbox="true"
     inkscape:object-paths="false"
     inkscape:snap-midpoints="false"
     inkscape:snap-smooth-nodes="false"
     inkscape:snap-bbox-edge-midpoints="true"
     inkscape:pagecheckerboard="0">
    <inkscape:grid
       originy="0"
       originx="0"
       id="grid1504"
       type="xygrid" />
    <inkscape:grid
       spacingy="0.5"
       spacingx="0.5"
       id="grid1765"
       type="xygrid" />
  </sodipodi:namedview>
  <metadata
     id="metadata5">
    <rdf:RDF>
      <cc:Work
         rdf:about="">
        <dc:format>image/svg+xml</dc:format>
        <dc:type
           rdf:resource="http://purl.org/dc/dcmitype/StillImage" />
      </cc:Work>
    </rdf:RDF>
  </metadata>
  <g
     transform="translate(-12.567709)"
     id="layer1"
     inkscape:groupmode="layer"
     inkscape:label="Layer 1">
    <path
       id="path10253"
       style="color:#000000;fill:#000000;fill-opacity:1;stroke-width:5;stroke-linecap:round;stroke-linejoin:round;-inkscape-stroke:none;filter:url(#filter10390)"
       d="m 155.42289,47.59183 a 2.50025,2.50025 0 0 0 -1.2793,0.714844 L 116.43851,87.65433 a 2.50025,2.50025 0 0 0 0.0859,3.542969 l 37.70508,35.769531 a 2.50025,2.50025 0 0 0 4.2207,-1.8125 v -22.25391 c 9.69995,0.71919 22.5441,5.46479 33.22657,12.4668 11.57338,7.58597 20.19576,17.59441 20.56445,25.90625 a 2.50025,2.50025 0 0 0 4.98242,0.16015 c 4.06448,-37.4577 -24.70765,-71.258698 -58.7734,-72.320306 V 50.037142 a 2.50025,2.50025 0 0 0 -1.56836,-2.320312 2.50025,2.50025 0 0 0 -1.45898,-0.125 z m -52.3457,24.248047 a 2.50025,2.50025 0 0 0 -2.80469,1.005859 L 17.987346,196.27347 a 2.50025,2.50025 0 0 0 2.080078,3.88672 h 82.285156 a 2.50025,2.50025 0 0 0 2.5,-2.5 V 74.232455 a 2.50025,2.50025 0 0 0 -1.77539,-2.392578 z m 12.42773,54.814453 a 2.50025,2.50025 0 0 0 -1.9375,2.43554 v 68.57032 a 2.50025,2.50025 0 0 0 2.5,2.5 h 144 a 2.50025,2.50025 0 0 0 1.07422,-4.75782 l -144,-68.57031 a 2.50025,2.50025 0 0 0 -1.63672,-0.17773 z" />
    <g
       id="g8418"
       transform="matrix(13.714286,0,0,13.714286,-4765.2898,-2557.2584)">
      <path
         style="fill:#006600;fill-opacity:1;stroke:#003e04;stroke-width:0.364583;stroke-linecap:round;stroke-linejoin:round;stroke-miterlimit:4;stroke-dasharray:none;stroke-opacity:1"
         d="m 348.56771,200.58783 h 6 v -9 z"
         id="path953"
         sodipodi:nodetypes="cccc" />
      <path
         style="fill:#66cc33;fill-opacity:1;stroke:#1a7d00;stroke-width:0.364583;stroke-linecap:round;stroke-linejoin:round;stroke-miterlimit:4;stroke-dasharray:none;stroke-opacity:1"
         d="m 355.56771,200.58783 h 10.5 l -10.5,-5 z"
         id="path1111"
         sodipodi:nodetypes="cccc" />
      <path
         style="fill:url(#linearGradient1618-5);fill-opacity:1;stroke:#2f5ab6;stroke-width:0.364583;stroke-linecap:butt;stroke-linejoin:round;stroke-miterlimit:5.8;stroke-dasharray:none;stroke-opacity:1"
         d="m 362.76255,196.46823 c -0.0635,-1.43159 -2.72546,-2.99311 -4.28672,-2.99311 v 1.82576 l -2.74932,-2.60823 2.74932,-2.86905 v 1.56494 c 2.44181,-0.0424 4.57893,2.38667 4.28672,5.07969 z"
         id="path1610-9"
         sodipodi:nodetypes="ccccccc" />
    </g>
  </g>
</svg>
