<?xml version="1.0" encoding="UTF-8" standalone="no"?>
<svg
   inkscape:export-ydpi="96"
   inkscape:export-xdpi="96"
   inkscape:export-filename="/media/klapeto/Αρχεία/WindowsXP Theme/Vectors/File.png"
   width="256"
   height="256"
   viewBox="0 0 256 256"
   version="1.1"
   id="svg8"
   inkscape:version="1.1.1 (3bf5ae0d25, 2021-09-20)"
   sodipodi:docname="network-mount-new.svg"
   xmlns:inkscape="http://www.inkscape.org/namespaces/inkscape"
   xmlns:sodipodi="http://sodipodi.sourceforge.net/DTD/sodipodi-0.dtd"
   xmlns="http://www.w3.org/2000/svg"
   xmlns:svg="http://www.w3.org/2000/svg"
   xmlns:rdf="http://www.w3.org/1999/02/22-rdf-syntax-ns#"
   xmlns:cc="http://creativecommons.org/ns#"
   xmlns:dc="http://purl.org/dc/elements/1.1/">
  <defs
     id="defs2">
    <linearGradient
       x2="819.20001"
       x1="-819.20001"
       spreadMethod="pad"
       id="gradient5-6"
       gradientUnits="userSpaceOnUse"
       gradientTransform="matrix(-0.00704468,0,0,0.00774915,24.331883,4.7527151)">
      <stop
         style="stop-color:#7777ab;stop-opacity:1"
         id="stop78-2"
         stop-color="#333366"
         offset="0.0" />
      <stop
         style="stop-color:#9898c8;stop-opacity:1"
         id="stop80-9"
         stop-color="#666699"
         offset="1.0" />
    </linearGradient>
    <linearGradient
       x2="819.20001"
       x1="-819.20001"
       spreadMethod="pad"
       id="gradient14-1"
       gradientUnits="userSpaceOnUse"
       gradientTransform="matrix(0,0.00641849,0.00234823,0,27.775951,5.3397721)">
      <stop
         id="stop127-2"
         stop-color="#6666cc"
         offset="0.0" />
      <stop
         id="stop129-7"
         stop-color="#aaaaaa"
         offset="1.0" />
    </linearGradient>
    <linearGradient
       x2="819.20001"
       x1="-819.20001"
       spreadMethod="pad"
       id="gradient12-0"
       gradientUnits="userSpaceOnUse"
       gradientTransform="matrix(-0.0044225,-4.6964599e-4,-1.5654854e-4,0.00164376,22.414164,7.0422375)">
      <stop
         id="stop117-9"
         stop-color="#9999cc"
         offset="0.0" />
      <stop
         id="stop119-3"
         stop-color="#9999cc"
         offset="1.0" />
    </linearGradient>
    <linearGradient
       x2="819.20001"
       x1="-819.20001"
       spreadMethod="pad"
       id="gradient4-6"
       gradientUnits="userSpaceOnUse"
       gradientTransform="matrix(-0.00649676,0,0,0.00712296,24.253609,4.7331465)">
      <stop
         id="stop73-0"
         stop-color="#9999cc"
         offset="0.0" />
      <stop
         id="stop75-6"
         stop-color="#eeeeee"
         offset="1.0" />
    </linearGradient>
    <linearGradient
       x2="819.20001"
       x1="-819.20001"
       spreadMethod="pad"
       id="gradient3-2"
       gradientUnits="userSpaceOnUse"
       gradientTransform="matrix(0,0.00148721,0.00649676,0,24.351452,0.01712172)">
      <stop
         id="stop68-6"
         stop-color="#9999cc"
         offset="0.0" />
      <stop
         id="stop70-1"
         stop-color="#ffffff"
         offset="1.0" />
    </linearGradient>
    <filter
       inkscape:collect="always"
       style="color-interpolation-filters:sRGB"
       id="filter1113"
       x="-0.050355266"
       y="-0.045855214"
       width="1.1007105"
       height="1.0917104">
      <feGaussianBlur
         inkscape:collect="always"
         stdDeviation="3.8805273"
         id="feGaussianBlur1115" />
    </filter>
    <filter
       inkscape:collect="always"
       style="color-interpolation-filters:sRGB"
       id="filter1418"
       x="-0.047999998"
       y="-0.047999998"
       width="1.096"
       height="1.096">
      <feGaussianBlur
         inkscape:collect="always"
         stdDeviation="2.386211"
         id="feGaussianBlur1420" />
    </filter>
  </defs>
  <sodipodi:namedview
     inkscape:snap-intersection-paths="false"
     inkscape:snap-others="false"
     inkscape:snap-nodes="true"
     inkscape:snap-global="false"
     id="base"
     pagecolor="#ffffff"
     bordercolor="#666666"
     borderopacity="1.0"
     inkscape:pageopacity="0.0"
     inkscape:pageshadow="2"
     inkscape:zoom="0.50000001"
     inkscape:cx="363.99999"
     inkscape:cy="1036"
     inkscape:document-units="px"
     inkscape:current-layer="layer1"
     inkscape:document-rotation="0"
     showgrid="false"
     units="px"
     inkscape:window-width="3840"
     inkscape:window-height="2045"
     inkscape:window-x="3840"
     inkscape:window-y="0"
     inkscape:window-maximized="1"
     inkscape:snap-bbox="true"
     inkscape:bbox-nodes="true"
     fit-margin-top="0"
     fit-margin-left="0"
     fit-margin-right="0"
     fit-margin-bottom="0"
     inkscape:bbox-paths="false"
     inkscape:pagecheckerboard="0"
     scale-x="0.26458">
    <inkscape:grid
       type="xygrid"
       id="grid1504"
       originx="0"
       originy="0" />
    <inkscape:grid
       type="xygrid"
       id="grid1507"
       spacingx="0.13229167"
       spacingy="0.13229167"
       originx="0"
       originy="0" />
  </sodipodi:namedview>
  <metadata
     id="metadata5">
    <rdf:RDF>
      <cc:Work
         rdf:about="">
        <dc:format>image/svg+xml</dc:format>
        <dc:type
           rdf:resource="http://purl.org/dc/dcmitype/StillImage" />
      </cc:Work>
    </rdf:RDF>
  </metadata>
  <g
     inkscape:label="Layer 1"
     inkscape:groupmode="layer"
     id="layer1"
     transform="translate(-12.567709)">
    <path
       id="path963"
       style="fill:#212121;fill-opacity:1;fill-rule:evenodd;stroke:none;stroke-width:6.25891;filter:url(#filter1113)"
       d="m 86.727865,35.348 -69.160156,12.69336 0.3125,93.39453 v 5.00781 l -0.3125,32.54687 117.353521,59.45899 67.59765,-34.42383 V 55.377297 L 107.06966,38.79136 102.3763,38.164406 Z M 195.94662,61.63511 v 0.230468 l -3.12891,0.708985 z" />
    <path
       style="fill:#8787b9;stroke:none;stroke-width:1px;stroke-linecap:butt;stroke-linejoin:miter;stroke-opacity:1;fill-opacity:1"
       d="M 15.70693,47.011482 83.836385,34.187446 193.46896,55.438332 194.56027,197.90859 132.09802,230.52963 14.839307,173.68733 Z"
       id="path1477" />
    <g
       id="g1259"
       transform="matrix(15.992222,0,0,15.992222,-284.23444,56.735538)">
      <path
         d="m 25.897728,1.5100746 -7.006749,-2.03523848 3.969094,-0.70020062 6.814029,1.28162342 -0.156548,0.0587056 -3.624093,1.39348898"
         id="path14"
         style="fill:url(#gradient3-2);fill-rule:evenodd;stroke:none;stroke-width:0.391372"
         inkscape:connector-curvature="0"
         sodipodi:nodetypes="cccccc" />
      <path
         d="M 25.897369,1.2499417 V 8.157646 L 18.90885,5.3691811 18.95053,-0.53079818 M 18.846408,5.6333219 25.902234,8.7654842 25.90183,10.573465 18.857709,7.2098973"
         id="path16"
         style="fill:url(#gradient4-6);fill-rule:evenodd;stroke:none;stroke-width:0.391372"
         inkscape:connector-curvature="0"
         sodipodi:nodetypes="cccccccc" />
      <path
         d="M 25.897369,8.157646 V 8.7642712 L 18.883784,5.7368085 18.898358,5.2916661"
         id="path32"
         style="fill:url(#gradient12-0);fill-rule:evenodd;stroke:none;stroke-width:0.391372"
         inkscape:connector-curvature="0"
         sodipodi:nodetypes="cccc" />
      <path
         d="m 25.897369,1.2499417 3.620185,-1.13497718 0.259351,-0.058706 -0.01947,8.70096088 c -1.278479,0.600103 -2.596661,1.2251899 -3.862094,1.8383386 m 3.211273,-2.5161877 c -0.143503,-0.052183 -0.234823,0.026093 -0.27396,0.2348227 -0.05218,0.1826402 -0.0065,0.2935292 0.13698,0.3326662 0.156548,0.01304 0.254391,-0.06523 0.293528,-0.2348233 0.03914,-0.1956858 -0.01304,-0.306574 -0.156548,-0.3326656"
         id="path38"
         style="fill:url(#gradient14-1);fill-rule:evenodd;stroke:none;stroke-width:0.391372"
         inkscape:connector-curvature="0"
         sodipodi:nodetypes="cccccccccc" />
      <path
         sodipodi:nodetypes="ccccc"
         d="M 26.738817,6.7682777 26.69968,2.991544 29.067477,2.1109585 v 3.6984594 l -2.32866,0.9588598"
         id="path42"
         inkscape:connector-curvature="0"
         style="fill:#9999cc;fill-rule:evenodd;stroke:none;stroke-width:0.391372" />
      <path
         d="M 25.897369,8.7642712 V 8.157646 L 29.733173,6.5445447 V 7.033759 l -3.835804,1.7305122 m 0.841448,-1.9959935 2.32866,-0.9588598 V 2.1109585 L 26.69968,2.991544 26.73882,6.7682777 M 27.149757,4.1656582 V 3.8329926 L 28.6174,3.2655042 V 3.5590326 L 27.149757,4.1656582 M 28.910928,4.0091095 V 4.3417752 L 26.954071,5.1440866 V 4.7722838 l 1.956857,-0.7631743 m 0.41094,1.9764254 -2.915716,1.2132513 V 2.6980155 l 2.915716,-1.0567024 v 4.3442218"
         id="path40"
         inkscape:connector-curvature="0"
         style="fill:#666699;fill-rule:evenodd;stroke:none;stroke-width:0.391372"
         sodipodi:nodetypes="ccccccccccccccccccccccccc" />
      <path
         d="m 29.106614,8.0793717 q 0.215254,0.039137 0.156548,0.3326656 -0.0587,0.2543909 -0.293528,0.2348229 -0.215255,-0.05871 -0.13698,-0.3326658 0.05871,-0.313097 0.27396,-0.2348227"
         id="path44"
         inkscape:connector-curvature="0"
         style="fill:#99ff66;fill-rule:evenodd;stroke:none;stroke-width:0.391372" />
      <path
         d="m 23.862238,-1.4113837 0.293528,0.039137 5.968413,1.03713412 V 8.9599572 L 25.897369,11.1125 18.559156,7.3944718 18.578726,5.3593407 v -0.313097 l -0.01957,-5.83999458 4.324657,-0.79375002 0.978429,0.1761171 m -4.383359,0.80231129 -0.522852,0.0799049 -0.02499,7.72795371 6.966336,3.3657929 v 0.01957 C 27.16281,9.9710001 28.434768,9.3643751 29.713247,8.7642721 V 0.05625892 l -0.195685,0.058706 0.156548,-0.058706 -6.809869,-1.27195692 -3.385354,0.60662559"
         id="path18"
         style="fill:url(#gradient5-6);fill-rule:evenodd;stroke:none;stroke-width:0.391372"
         inkscape:connector-curvature="0"
         sodipodi:nodetypes="cccccccccccccccccccccc" />
    </g>
    <path
       id="rect1298"
       style="fill:#212121;fill-opacity:1;stroke:none;stroke-width:4.92028;stroke-linecap:round;stroke-linejoin:round;stroke-miterlimit:4;stroke-dasharray:none;stroke-opacity:1;filter:url(#filter1418)"
       d="m 202.91296,4 c -4.72128,0 -8.52343,3.8001974 -8.52343,8.521484 v 27.095704 a 25.566536,25.566536 0 0 0 -2.47461,0.988281 l -17.125,-17.125 c -3.33846,-3.338454 -8.71428,-3.338454 -12.05274,0 -3.33845,3.338454 -3.33845,8.71428 0,12.052734 l 17.125,17.125 a 25.566536,25.566536 0 0 0 -0.98828,2.474609 h -27.0957 c -4.72129,0 -8.52149,3.800198 -8.52149,8.521485 0,4.721287 3.8002,8.523437 8.52149,8.523437 h 27.0957 a 25.566536,25.566536 0 0 0 0.98828,2.47461 l -17.125,17.125 c -3.33845,3.338454 -3.33845,8.714276 0,12.052736 3.33846,3.33845 8.71428,3.33845 12.05274,0 l 17.12304,-17.125002 a 25.566536,25.566536 0 0 0 2.47657,0.988281 v 27.095701 c 0,4.72129 3.80215,8.52149 8.52343,8.52149 4.72129,0 8.52149,-3.8002 8.52149,-8.52149 V 87.693359 a 25.566536,25.566536 0 0 0 2.47461,-0.988281 l 17.125,17.125002 c 3.33845,3.33845 8.71428,3.33845 12.05273,0 3.33846,-3.33846 3.33846,-8.714282 0,-12.052736 l -17.125,-17.125 a 25.566536,25.566536 0 0 0 0.98828,-2.47461 h 27.09571 c 4.72128,0 8.52148,-3.80215 8.52148,-8.523437 0,-4.721287 -3.8002,-8.521485 -8.52148,-8.521485 h -27.03321 a 25.566536,25.566536 0 0 0 -1.03125,-2.49414 l 17.10547,-17.105469 c 3.33846,-3.338454 3.33846,-8.71428 0,-12.052734 -3.33845,-3.338454 -8.71428,-3.338454 -12.05273,0 l -17.10742,17.105469 a 25.566536,25.566536 0 0 0 -2.49219,-1.03125 V 12.521484 C 211.43445,7.8001974 207.63425,4 202.91296,4 Z" />
    <g
       id="g4993"
       transform="matrix(21.473207,0,0,21.473207,212.11607,-56.814532)">
      <rect
         transform="rotate(90)"
         style="fill:#ff3300;fill-opacity:1;stroke:none;stroke-width:0.229136;stroke-linecap:round;stroke-linejoin:round;stroke-miterlimit:4;stroke-dasharray:none;stroke-opacity:1"
         id="rect4900-2"
         width="5.5562501"
         height="0.79374999"
         x="2.6458335"
         y="0.26458335"
         rx="0.39687499"
         ry="0.39687499" />
      <rect
         transform="rotate(45)"
         style="fill:#ff3300;fill-opacity:1;stroke:none;stroke-width:0.229136;stroke-linecap:round;stroke-linejoin:round;stroke-miterlimit:4;stroke-dasharray:none;stroke-opacity:1"
         id="rect4900-0"
         width="5.2916665"
         height="0.79374999"
         x="0.72176301"
         y="3.9061642"
         rx="0.39687499"
         ry="0.39687499" />
      <rect
         ry="0.39687499"
         rx="0.39687499"
         y="5.0270834"
         x="-3.4395831"
         height="0.79374999"
         width="5.5562501"
         id="rect4900"
         style="fill:#ff3300;fill-opacity:1;stroke:none;stroke-width:0.229136;stroke-linecap:round;stroke-linejoin:round;stroke-miterlimit:4;stroke-dasharray:none;stroke-opacity:1" />
      <rect
         ry="0.39687499"
         rx="0.39687499"
         y="2.9707212"
         x="1.6572058"
         height="0.79374999"
         width="5.2916665"
         id="rect4900-0-1"
         style="fill:#ff3300;fill-opacity:1;stroke:none;stroke-width:0.229136;stroke-linecap:round;stroke-linejoin:round;stroke-miterlimit:4;stroke-dasharray:none;stroke-opacity:1"
         transform="matrix(-0.70710678,0.70710678,0.70710678,0.70710678,0,0)" />
      <g
         transform="translate(-1.1906254)"
         id="g4898">
        <circle
           style="fill:#ffcc00;fill-opacity:1;stroke:none;stroke-width:0.264583;stroke-linecap:round;stroke-linejoin:round;stroke-miterlimit:4;stroke-dasharray:none;stroke-opacity:1"
           id="path4879"
           cx="0.52916735"
           cy="5.4239583"
           r="1.190625" />
        <circle
           r="0.39687493"
           cy="5.4239583"
           cx="0.52916735"
           id="path4879-9"
           style="fill:#ffff99;fill-opacity:1;stroke:none;stroke-width:0.264583;stroke-linecap:round;stroke-linejoin:round;stroke-miterlimit:4;stroke-dasharray:none;stroke-opacity:1" />
      </g>
    </g>
  </g>
</svg>
