<?xml version="1.0" encoding="UTF-8" standalone="no"?>
<svg
   inkscape:export-ydpi="96"
   inkscape:export-xdpi="96"
   inkscape:export-filename="/media/klapeto/Αρχεία/WindowsXP Theme/Vectors/RASTER/accesibility.png"
   width="256"
   height="256"
   viewBox="0 0 256 256"
   version="1.1"
   id="svg8"
   inkscape:version="1.1.1 (3bf5ae0d25, 2021-09-20)"
   sodipodi:docname="accessibility.svg"
   xmlns:inkscape="http://www.inkscape.org/namespaces/inkscape"
   xmlns:sodipodi="http://sodipodi.sourceforge.net/DTD/sodipodi-0.dtd"
   xmlns:xlink="http://www.w3.org/1999/xlink"
   xmlns="http://www.w3.org/2000/svg"
   xmlns:svg="http://www.w3.org/2000/svg"
   xmlns:rdf="http://www.w3.org/1999/02/22-rdf-syntax-ns#"
   xmlns:cc="http://creativecommons.org/ns#"
   xmlns:dc="http://purl.org/dc/elements/1.1/">
  <defs
     id="defs2">
    <linearGradient
       inkscape:collect="always"
       id="linearGradient2815">
      <stop
         style="stop-color:#006800;stop-opacity:1"
         offset="0"
         id="stop2811" />
      <stop
         style="stop-color:#92fa61;stop-opacity:1"
         offset="1"
         id="stop2813" />
    </linearGradient>
    <linearGradient
       inkscape:collect="always"
       xlink:href="#linearGradient2815"
       id="linearGradient2817"
       x1="-92.5"
       y1="7.5"
       x2="-92.5"
       y2="50"
       gradientUnits="userSpaceOnUse"
       gradientTransform="matrix(5.2521724,0,0,5.2521724,588.95601,-29.030563)" />
    <filter
       inkscape:collect="always"
       style="color-interpolation-filters:sRGB"
       id="filter29404"
       x="-0.048573957"
       y="-0.047439444"
       width="1.0971479"
       height="1.0948789">
      <feGaussianBlur
         inkscape:collect="always"
         stdDeviation="4.7834775"
         id="feGaussianBlur29406" />
    </filter>
  </defs>
  <sodipodi:namedview
     inkscape:guide-bbox="true"
     showguides="true"
     id="base"
     pagecolor="#ffffff"
     bordercolor="#666666"
     borderopacity="1.0"
     inkscape:pageopacity="0.0"
     inkscape:pageshadow="2"
     inkscape:zoom="1.4142136"
     inkscape:cx="-395.9798"
     inkscape:cy="-163.34167"
     inkscape:document-units="px"
     inkscape:current-layer="layer1"
     inkscape:document-rotation="0"
     showgrid="false"
     units="px"
     inkscape:window-width="3840"
     inkscape:window-height="2045"
     inkscape:window-x="3840"
     inkscape:window-y="0"
     inkscape:window-maximized="1"
     inkscape:snap-bbox="true"
     inkscape:bbox-nodes="true"
     fit-margin-top="0"
     fit-margin-left="0"
     fit-margin-right="0"
     fit-margin-bottom="0"
     inkscape:bbox-paths="false"
     inkscape:snap-global="true"
     inkscape:snap-intersection-paths="true"
     inkscape:snap-grids="true"
     inkscape:pagecheckerboard="0">
    <inkscape:grid
       type="xygrid"
       id="grid1504"
       originx="0"
       originy="0" />
    <inkscape:grid
       type="xygrid"
       id="grid1507"
       spacingx="0.5"
       spacingy="0.5"
       originx="0"
       originy="0" />
  </sodipodi:namedview>
  <metadata
     id="metadata5">
    <rdf:RDF>
      <cc:Work
         rdf:about="">
        <dc:format>image/svg+xml</dc:format>
        <dc:type
           rdf:resource="http://purl.org/dc/dcmitype/StillImage" />
      </cc:Work>
    </rdf:RDF>
  </metadata>
  <g
     inkscape:label="Layer 1"
     inkscape:groupmode="layer"
     id="layer1"
     transform="translate(-12.567709)">
    <path
       id="path29192"
       style="opacity:1;fill:#212121;fill-opacity:1;stroke:none;stroke-width:5.25217px;stroke-linecap:butt;stroke-linejoin:miter;stroke-opacity:1;filter:url(#filter29404)"
       d="m 114.98239,4.000001 c -13.65291,0.0018 -24.720335,11.069224 -24.722141,24.722138 0.0018,13.652912 11.069231,24.720337 24.722141,24.722138 13.65692,0.0039 24.73059,-11.065219 24.7324,-24.722138 -0.002,-13.656918 -11.07548,-24.7259978 -24.7324,-24.722138 z m -1.60027,55.004194 c -40.171396,0 -91.91302,31.513035 -91.91302,91.913025 0,52.52172 44.641681,95.08278 96.63177,95.08278 39.92291,0 74.06383,-37.30889 79.316,-45.18715 l -18.3826,-18.3826 c -7.87826,7.87826 -26.26086,36.76521 -63.02607,36.76521 -34.139116,0 -68.278237,-26.26086 -68.278237,-65.65216 0,-49.89564 42.964109,-68.278243 55.147817,-68.278243 v 73.530423 h 68.27823 l 49.89564,49.89563 36.7652,-36.7652 -18.3826,-18.38261 -18.3826,18.38261 -36.76521,-36.76521 H 126.51255 V 85.265057 h 39.39129 V 59.004195 Z"
       sodipodi:nodetypes="cccccsssccssccccccccccccs" />
    <path
       id="path1134"
       style="opacity:1;fill:url(#linearGradient2817);fill-opacity:1;stroke:none;stroke-width:5.25217px;stroke-linecap:butt;stroke-linejoin:miter;stroke-opacity:1"
       d="M 109.98251,1.0091303e-6 C 96.329601,0.00180361 85.262179,11.069225 85.260373,24.722139 c 0.0018,13.652912 11.069228,24.720337 24.722137,24.722138 13.65692,0.0039 24.73059,-11.065219 24.7324,-24.722138 C 134.7131,11.065221 123.63943,-0.00385879 109.98251,1.0091303e-6 Z M 108.38224,55.004195 c -40.171392,0 -91.913016,31.513035 -91.913016,91.913025 0,52.52172 44.641681,95.08278 96.631766,95.08278 39.92291,0 74.06383,-37.30889 79.316,-45.18715 l -18.3826,-18.3826 c -7.87826,7.87826 -26.26086,36.76521 -63.02607,36.76521 -34.139112,0 -68.278233,-26.26086 -68.278233,-65.65216 0,-49.895644 42.964109,-68.278243 55.147814,-68.278243 v 73.530423 h 68.278229 l 49.89564,49.89563 36.7652,-36.7652 -18.3826,-18.38261 -18.3826,18.38261 -36.76521,-36.76521 H 121.51267 V 81.265057 h 39.39129 V 55.004195 Z"
       sodipodi:nodetypes="cccccsssccssccccccccccccs" />
  </g>
</svg>
