<?xml version="1.0" encoding="UTF-8" standalone="no"?>
<svg
   inkscape:export-ydpi="96"
   inkscape:export-xdpi="96"
   inkscape:export-filename="contents.png"
   width="256"
   height="256"
   viewBox="0 0 256 256"
   version="1.1"
   id="svg8"
   inkscape:version="1.1.1 (3bf5ae0d25, 2021-09-20)"
   sodipodi:docname="book.svg"
   xmlns:inkscape="http://www.inkscape.org/namespaces/inkscape"
   xmlns:sodipodi="http://sodipodi.sourceforge.net/DTD/sodipodi-0.dtd"
   xmlns:xlink="http://www.w3.org/1999/xlink"
   xmlns="http://www.w3.org/2000/svg"
   xmlns:svg="http://www.w3.org/2000/svg"
   xmlns:rdf="http://www.w3.org/1999/02/22-rdf-syntax-ns#"
   xmlns:cc="http://creativecommons.org/ns#"
   xmlns:dc="http://purl.org/dc/elements/1.1/">
  <defs
     id="defs2">
    <linearGradient
       inkscape:collect="always"
       id="linearGradient145065">
      <stop
         style="stop-color:#ffc863;stop-opacity:1"
         offset="0"
         id="stop145061" />
      <stop
         style="stop-color:#f26c21;stop-opacity:1"
         offset="1"
         id="stop145063" />
    </linearGradient>
    <linearGradient
       inkscape:collect="always"
       id="linearGradient112610">
      <stop
         style="stop-color:#fffb95;stop-opacity:1"
         offset="0"
         id="stop112606" />
      <stop
         style="stop-color:#ffd06a;stop-opacity:1"
         offset="1"
         id="stop112608" />
    </linearGradient>
    <linearGradient
       inkscape:collect="always"
       id="linearGradient77767">
      <stop
         style="stop-color:#fff698;stop-opacity:1;"
         offset="0"
         id="stop77763" />
      <stop
         style="stop-color:#ffbb5b;stop-opacity:1"
         offset="1"
         id="stop77765" />
    </linearGradient>
    <linearGradient
       inkscape:collect="always"
       id="linearGradient59196">
      <stop
         style="stop-color:#ff9933;stop-opacity:1"
         offset="0"
         id="stop59192" />
      <stop
         style="stop-color:#ffca64;stop-opacity:1"
         offset="1"
         id="stop59194" />
    </linearGradient>
    <linearGradient
       inkscape:collect="always"
       id="linearGradient27367">
      <stop
         style="stop-color:#fffde6;stop-opacity:1"
         offset="0"
         id="stop27363" />
      <stop
         style="stop-color:#ffffaa;stop-opacity:1"
         offset="1"
         id="stop27365" />
    </linearGradient>
    <linearGradient
       inkscape:collect="always"
       id="linearGradient12482">
      <stop
         style="stop-color:#fff58f;stop-opacity:1"
         offset="0"
         id="stop12478" />
      <stop
         style="stop-color:#f26c21;stop-opacity:1"
         offset="1"
         id="stop12480" />
    </linearGradient>
    <linearGradient
       inkscape:collect="always"
       id="linearGradient2220">
      <stop
         style="stop-color:#fdbe5c;stop-opacity:1"
         offset="0"
         id="stop2216" />
      <stop
         style="stop-color:#f58432;stop-opacity:1"
         offset="1"
         id="stop2218" />
    </linearGradient>
    <linearGradient
       inkscape:collect="always"
       xlink:href="#linearGradient145065"
       id="linearGradient2222"
       x1="-126.74926"
       y1="131.15268"
       x2="-149.459"
       y2="105.65512"
       gradientUnits="userSpaceOnUse"
       gradientTransform="translate(0.97233892,-0.82527)" />
    <linearGradient
       inkscape:collect="always"
       xlink:href="#linearGradient12482"
       id="linearGradient12484"
       x1="-158.63078"
       y1="120.52324"
       x2="-153.51373"
       y2="120.52324"
       gradientUnits="userSpaceOnUse"
       gradientTransform="translate(0.97233892,-0.82527)" />
    <linearGradient
       inkscape:collect="always"
       xlink:href="#linearGradient27367"
       id="linearGradient27369"
       x1="-155.98575"
       y1="102.25"
       x2="-133.44029"
       y2="102.25"
       gradientUnits="userSpaceOnUse"
       gradientTransform="translate(0.97233892,-0.82527)" />
    <linearGradient
       inkscape:collect="always"
       xlink:href="#linearGradient59196"
       id="linearGradient59198"
       x1="-151.4323"
       y1="104"
       x2="-149.476"
       y2="138.36263"
       gradientUnits="userSpaceOnUse"
       gradientTransform="translate(0.97233892,-0.82527)" />
    <linearGradient
       inkscape:collect="always"
       xlink:href="#linearGradient77767"
       id="linearGradient77769"
       x1="-159.06502"
       y1="101.25516"
       x2="-125.43229"
       y2="101.25516"
       gradientUnits="userSpaceOnUse"
       gradientTransform="translate(0.97233892,-0.82527)" />
    <linearGradient
       inkscape:collect="always"
       xlink:href="#linearGradient112610"
       id="linearGradient112612"
       x1="-158.22662"
       y1="111.00167"
       x2="-150.5226"
       y2="110.99394"
       gradientUnits="userSpaceOnUse" />
    <linearGradient
       inkscape:collect="always"
       xlink:href="#linearGradient112610"
       id="linearGradient122893"
       x1="-156.97015"
       y1="131.19839"
       x2="-149.38744"
       y2="131.19839"
       gradientUnits="userSpaceOnUse" />
    <linearGradient
       inkscape:collect="always"
       xlink:href="#linearGradient2220"
       id="linearGradient125951"
       x1="-141.73039"
       y1="115.09708"
       x2="-141.73039"
       y2="99.462532"
       gradientUnits="userSpaceOnUse" />
    <linearGradient
       inkscape:collect="always"
       xlink:href="#linearGradient2220"
       id="linearGradient184522"
       gradientUnits="userSpaceOnUse"
       x1="-141.73039"
       y1="115.09708"
       x2="-141.73039"
       y2="99.462532"
       gradientTransform="translate(-42.168906,3.3777084)" />
    <filter
       inkscape:collect="always"
       style="color-interpolation-filters:sRGB"
       id="filter198033"
       x="-0.05363214"
       y="-0.043438355"
       width="1.1072643"
       height="1.0868767">
      <feGaussianBlur
         inkscape:collect="always"
         stdDeviation="4.287167"
         id="feGaussianBlur198035" />
    </filter>
  </defs>
  <sodipodi:namedview
     inkscape:guide-bbox="true"
     showguides="true"
     id="base"
     pagecolor="#ffffff"
     bordercolor="#666666"
     borderopacity="1.0"
     inkscape:pageopacity="0.0"
     inkscape:pageshadow="2"
     inkscape:zoom="0.1767767"
     inkscape:cx="-412.95036"
     inkscape:cy="-302.6417"
     inkscape:document-units="px"
     inkscape:current-layer="layer1"
     inkscape:document-rotation="0"
     showgrid="false"
     units="px"
     inkscape:window-width="1920"
     inkscape:window-height="1014"
     inkscape:window-x="1920"
     inkscape:window-y="0"
     inkscape:window-maximized="1"
     inkscape:snap-bbox="true"
     inkscape:bbox-nodes="true"
     fit-margin-top="0"
     fit-margin-left="0"
     fit-margin-right="0"
     fit-margin-bottom="0"
     inkscape:bbox-paths="false"
     inkscape:snap-global="true"
     inkscape:snap-intersection-paths="true"
     inkscape:snap-grids="true"
     inkscape:pagecheckerboard="0"
     inkscape:object-paths="true">
    <inkscape:grid
       type="xygrid"
       id="grid1504"
       originx="0"
       originy="0" />
    <inkscape:grid
       type="xygrid"
       id="grid1507"
       spacingx="0.5"
       spacingy="0.5"
       originx="0"
       originy="0" />
  </sodipodi:namedview>
  <metadata
     id="metadata5">
    <rdf:RDF>
      <cc:Work
         rdf:about="">
        <dc:format>image/svg+xml</dc:format>
        <dc:type
           rdf:resource="http://purl.org/dc/dcmitype/StillImage" />
      </cc:Work>
    </rdf:RDF>
  </metadata>
  <g
     inkscape:label="Layer 1"
     inkscape:groupmode="layer"
     id="layer1"
     transform="translate(-12.567709)">
    <path
       id="path197858"
       style="color:#000000;fill:#212121;fill-opacity:1;stroke:none;stroke-width:7.99509;stroke-linecap:round;stroke-linejoin:round;-inkscape-stroke:none;filter:url(#filter198033)"
       d="M 196.74184,8.8111346 61.816054,30.381447 a 3.9979448,3.9979448 0 0 0 -1.833985,1.105468 l 1.638672,-1.035156 c -2.859721,0.579155 -5.62824,1.514745 -7.441406,4.107422 -3.279893,3.969621 -3.982083,9.051492 -4.341797,13.267578 -0.365984,4.289566 -0.104164,7.842722 -0.103515,7.851563 v 0.0098 l 0.970703,15.720704 a 3.9979448,3.9979448 0 0 0 -0.002,0.002 c 0,8e-6 0.0019,0.0134 0.002,0.01367 l 0.01367,0.232422 h -0.0078 l 1.445313,23.38086 5.257812,85.300772 a 3.9979448,3.9979448 0 0 0 0,0.002 l 1.238281,20.07031 1.478516,24.06641 -0.0078,-0.24414 c 0,4.11058 2.303536,7.54842 5.287109,10.30664 2.983574,2.75821 6.850054,5.02799 11.191406,6.83789 8.667252,3.61335 19.222298,5.43668 28.453127,3.41015 a 3.9979448,3.9979448 0 0 0 0.0859,0.0195 c 1.78931,-0.41272 4.07214,-1.06523 6.18555,-1.97266 l -0.24414,0.0957 127.74414,-45.17969 a 3.9979448,3.9979448 0 0 0 2.66407,-3.83203 L 238.82582,26.020119 A 3.9979448,3.9979448 0 0 0 234.21645,22.1334 l -13.76953,2.136719 C 213.0085,23.086649 206.93493,21.823977 201.37074,19.97715 V 12.7584 a 3.9979448,3.9979448 0 0 0 -4.6289,-3.9472654 z M 54.53871,34.106056 a 3.9979448,3.9979448 0 0 0 -0.205078,0.21875 c -0.04511,0.05243 -0.0652,0.115124 -0.109375,0.167969 z m -3.470703,38.974609 a 3.9979448,3.9979448 0 0 0 0.0039,0.002 c 0.08788,0.189559 0.157004,0.314841 0.191406,0.373046 0.07827,0.132423 0.09776,0.272205 -0.195312,-0.375 z" />
    <g
       id="g197503"
       transform="matrix(5.3300629,0,0,5.3300629,1050.8405,-523.59193)">
      <path
         id="path184502"
         style="fill:url(#linearGradient184522);fill-opacity:1;stroke:#ce451a;stroke-width:1.5;stroke-linecap:round;stroke-linejoin:round;stroke-miterlimit:4;stroke-dasharray:none;stroke-opacity:1"
         d="m -173.62891,99.876953 -25.31445,4.046877 -0.006,0.008 c -0.46563,0.0943 -0.78857,0.2419 -0.94531,0.47852 0,0 -0.002,0.002 -0.002,0.002 -0.86139,1.00126 -0.6836,3.46484 -0.6836,3.46484 l 0.18555,3.00782 c -4.5e-4,-10e-4 -0.002,-0.003 -0.002,-0.004 l 0.27148,4.38672 0.98633,16.0039 0.23242,3.76563 0.27734,4.51562 c 0,1.89885 4.504,3.79164 7.52735,3.12305 v 0.006 c 0.29828,-0.0688 0.70269,-0.18621 1.0332,-0.32812 l 23.9668,-8.47657 -0.5,-31.5 -2.70703,0.41993 c -1.66829,-0.26346 -3.03973,-0.51521 -4.32032,-1.00586 z"
         transform="translate(12.567709)" />
      <g
         id="g157605"
         style="opacity:1"
         transform="translate(-29.601197,3.3777084)">
        <path
           style="fill:url(#linearGradient125951);fill-opacity:1;stroke:none;stroke-width:1px;stroke-linecap:butt;stroke-linejoin:miter;stroke-opacity:1"
           d="M -156.7741,100.54614 -131.45995,96.5 v 6.67473 l -25.53071,5.52079 -0.43169,-7.2079 z"
           id="path38259"
           sodipodi:nodetypes="cccccc" />
        <path
           style="fill:url(#linearGradient27369);fill-opacity:1;stroke:none;stroke-width:1px;stroke-linecap:butt;stroke-linejoin:miter;stroke-opacity:1"
           d="m -157.41169,102.21972 25,-4.21972 c 2,1 4.02445,1.213469 7.05452,1.699517 l -25.10278,6.475213 -7,-2 z"
           id="path1897"
           sodipodi:nodetypes="cccccc" />
        <path
           style="fill:url(#linearGradient2222);fill-opacity:1;stroke:none;stroke-width:1px;stroke-linecap:butt;stroke-linejoin:miter;stroke-opacity:1"
           d="m -148.45995,139.17473 -2,-36 26.02766,-4.17473 0.5,31.5 z"
           id="path1184"
           sodipodi:nodetypes="ccccc" />
        <path
           style="fill:url(#linearGradient12484);fill-opacity:1;stroke:none;stroke-width:1px;stroke-linecap:butt;stroke-linejoin:miter;stroke-opacity:1"
           d="m -148.45995,139.17473 -2,-36 c -4.53901,1.21622 -7.7535,-1.18922 -6.49112,-2.5514 -1.73048,0.14389 -1.46062,3.87667 -1.46062,3.87667 l 1.95174,31.67469 c 0,2 5,4 8,3 z"
           id="path1252"
           sodipodi:nodetypes="ccccccc" />
        <path
           style="opacity:1;fill:url(#linearGradient112612);fill-opacity:1;stroke:none;stroke-width:1px;stroke-linecap:butt;stroke-linejoin:miter;stroke-opacity:1"
           d="m -149.91169,111 c -4.35008,0.0549 -7.81494,-1.99666 -8.31494,-3.49666 l 0.27032,4.38708 c 2,2.5 5.54462,2.60958 8.04462,2.60958 z"
           id="path76773"
           sodipodi:nodetypes="ccccc" />
        <path
           style="opacity:1;fill:url(#linearGradient122893);fill-opacity:1;stroke:none;stroke-width:1px;stroke-linecap:butt;stroke-linejoin:miter;stroke-opacity:1"
           d="m -149.08447,131.17511 c -3.35579,0.32103 -6.74025,-0.8215 -7.88568,-3.28051 l 0.232,3.7652 c 1.03429,2.49155 5.15368,2.84239 7.65368,2.84239 z"
           id="path77387"
           sodipodi:nodetypes="ccccc" />
        <path
           style="color:#000000;fill:url(#linearGradient59198);stroke-linecap:round;-inkscape-stroke:none"
           d="m -150.4593,103.18059 c -0.27634,0.0147 -0.48818,0.25105 -0.47266,0.52734 l 1.99994,35.59639 c 0.29828,-0.0688 0.70128,-0.18564 1.03179,-0.32755 l -1.93796,-35.34675 c -0.0147,-0.27634 -0.34482,-0.46495 -0.62111,-0.44943 z"
           id="path59157"
           sodipodi:nodetypes="cccccc" />
        <path
           style="color:#000000;fill:url(#linearGradient77769);fill-opacity:1;stroke-linecap:round;-inkscape-stroke:none"
           d="m -150.93171,103.11671 c -1.74614,0.46788 -2.96136,0.14736 -4.24507,-0.25383 -0.84273,-0.26338 -1.4499,-0.68409 -1.67023,-1.03573 -0.32303,-0.51555 0.27895,-1.2553 0.37886,-1.32991 -1.28373,0.17157 -1.68814,0.64495 -1.12842,1.80843 0.26818,0.55746 1.37987,1.12915 2.1552,1.3369 1.48154,0.39698 2.67313,0.57701 5.0934,0.0185 L -124.43229,99 Z"
           id="path48425"
           sodipodi:nodetypes="csscssccc" />
        <path
           style="opacity:1;fill:#edffff;fill-opacity:1;stroke:#ffcc66;stroke-width:1px;stroke-linecap:butt;stroke-linejoin:miter;stroke-opacity:1"
           d="m -143.91169,108.5 0.11719,6 14,-3.5 -0.13779,-5.5 z"
           id="path88669"
           sodipodi:nodetypes="ccccc" />
      </g>
    </g>
  </g>
</svg>
