<?xml version="1.0" encoding="UTF-8" standalone="no"?>
<svg
   inkscape:export-ydpi="96"
   inkscape:export-xdpi="96"
   inkscape:export-filename="/media/klapeto/Αρχεία/WindowsXP Theme/Vectors/RASTER/database.png"
   width="48"
   height="48"
   viewBox="0 0 48 48"
   version="1.1"
   id="svg8"
   inkscape:version="1.3.2 (1:1.3.2+202311252150+091e20ef0f)"
   sodipodi:docname="database.svg"
   xmlns:inkscape="http://www.inkscape.org/namespaces/inkscape"
   xmlns:sodipodi="http://sodipodi.sourceforge.net/DTD/sodipodi-0.dtd"
   xmlns:xlink="http://www.w3.org/1999/xlink"
   xmlns="http://www.w3.org/2000/svg"
   xmlns:svg="http://www.w3.org/2000/svg"
   xmlns:rdf="http://www.w3.org/1999/02/22-rdf-syntax-ns#"
   xmlns:cc="http://creativecommons.org/ns#"
   xmlns:dc="http://purl.org/dc/elements/1.1/">
  <defs
     id="defs2">
    <linearGradient
       id="linearGradient1012"
       inkscape:collect="always">
      <stop
         id="stop1008"
         offset="0"
         style="stop-color:#ffcc00;stop-opacity:1" />
      <stop
         style="stop-color:#ffff99;stop-opacity:1"
         offset="0.37533283"
         id="stop1016" />
      <stop
         id="stop1023"
         offset="0.68766642"
         style="stop-color:#ffcc00;stop-opacity:1" />
      <stop
         id="stop1010"
         offset="1"
         style="stop-color:#cc9900;stop-opacity:1" />
    </linearGradient>
    <linearGradient
       id="linearGradient989"
       inkscape:collect="always">
      <stop
         id="stop985"
         offset="0"
         style="stop-color:#ffff00;stop-opacity:1" />
      <stop
         id="stop987"
         offset="1"
         style="stop-color:#ffff99;stop-opacity:1" />
    </linearGradient>
    <linearGradient
       inkscape:collect="always"
       xlink:href="#linearGradient1012"
       id="linearGradient1014-3"
       x1="-15.932291"
       y1="25.480541"
       x2="14.067709"
       y2="25.480541"
       gradientUnits="userSpaceOnUse"
       gradientTransform="matrix(1.0577562,0,0,1.0577562,37.574832,-3.952124)" />
    <linearGradient
       inkscape:collect="always"
       xlink:href="#linearGradient989"
       id="linearGradient991-1"
       x1="28.230461"
       y1="22.032276"
       x2="-12.09204"
       y2="7.2657962"
       gradientUnits="userSpaceOnUse"
       gradientTransform="matrix(1.0577562,0,0,1.0577562,37.574832,-3.952124)" />
    <linearGradient
       inkscape:collect="always"
       xlink:href="#linearGradient1012"
       id="linearGradient2"
       gradientUnits="userSpaceOnUse"
       gradientTransform="matrix(1.036543,0,0,1.036543,37.20618,-3.4116014)"
       x1="-15.932291"
       y1="25.480541"
       x2="14.067709"
       y2="25.480541" />
  </defs>
  <sodipodi:namedview
     inkscape:snap-intersection-paths="true"
     inkscape:object-paths="true"
     inkscape:snap-grids="true"
     inkscape:guide-bbox="true"
     showguides="false"
     id="base"
     pagecolor="#ffffff"
     bordercolor="#666666"
     borderopacity="1.0"
     inkscape:pageopacity="0.0"
     inkscape:pageshadow="2"
     inkscape:zoom="14.990513"
     inkscape:cx="0.66708858"
     inkscape:cy="29.185125"
     inkscape:document-units="px"
     inkscape:current-layer="layer1"
     inkscape:document-rotation="0"
     showgrid="false"
     units="px"
     inkscape:window-width="3840"
     inkscape:window-height="2056"
     inkscape:window-x="3840"
     inkscape:window-y="0"
     inkscape:window-maximized="1"
     inkscape:snap-bbox="true"
     inkscape:bbox-nodes="true"
     fit-margin-top="0"
     fit-margin-left="0"
     fit-margin-right="0"
     fit-margin-bottom="0"
     inkscape:bbox-paths="false"
     inkscape:pagecheckerboard="0"
     inkscape:showpageshadow="2"
     inkscape:deskcolor="#d1d1d1">
    <inkscape:grid
       type="xygrid"
       id="grid1504"
       originx="0"
       originy="0"
       spacingy="1"
       spacingx="1"
       units="px"
       visible="false" />
    <inkscape:grid
       type="xygrid"
       id="grid1507"
       spacingx="0.5"
       spacingy="0.5"
       originx="0"
       originy="0"
       units="px"
       visible="false" />
  </sodipodi:namedview>
  <metadata
     id="metadata5">
    <rdf:RDF>
      <cc:Work
         rdf:about="">
        <dc:format>image/svg+xml</dc:format>
        <dc:type
           rdf:resource="http://purl.org/dc/dcmitype/StillImage" />
      </cc:Work>
    </rdf:RDF>
  </metadata>
  <g
     inkscape:label="Layer 1"
     inkscape:groupmode="layer"
     id="layer1"
     transform="translate(-12.567709)">
    <path
       id="path1"
       style="fill:url(#linearGradient2);fill-opacity:1;fill-rule:evenodd;stroke:#996600;stroke-width:2;stroke-linecap:round;stroke-miterlimit:4;stroke-dasharray:none;stroke-opacity:1"
       d="m 36.219255,0.979945 c -0.623658,0 -1.236108,0.0145513 -1.841225,0.0363651 a 16.045247,5.0597405 0 0 0 -0.382791,0.01914 c -0.474308,0.02077 -0.942835,0.04688 -1.40293,0.080386 a 16.045247,5.0597405 0 0 0 -0.507198,0.040193 c -0.434883,0.036444 -0.860911,0.078972 -1.280436,0.126321 a 16.045247,5.0597405 0 0 0 -0.455521,0.051677 c -0.543313,0.067234 -1.074213,0.141209 -1.586669,0.2258467 -0.574775,0.09493 -1.12846,0.2006162 -1.659399,0.3158026 -0.523579,0.1135898 -1.01897,0.2377774 -1.494799,0.3693934 a 16.045247,5.0597405 0 0 0 -0.06507,0.01914 c -3.287996,0.919471 -5.370559,2.248048 -5.370559,3.7149871 v 0.061247 34.0014145 c 0,2.71276 7.185064,4.978198 16.046601,4.978198 8.735294,0 15.834455,-2.202435 16.035116,-4.941833 l 0.0077,-34.0109842 a 16.045247,5.0597405 0 0 0 0.0019,-0.026795 16.045247,5.0597405 0 0 0 -0.0019,-0.00957 V 5.9887658 C 52.262815,4.7279668 50.731216,3.5706323 48.229324,2.685279 47.827039,2.5429213 47.399811,2.4088683 46.948888,2.2814345 A 16.045247,5.0597405 0 0 0 46.782374,2.2335857 C 46.319963,2.1065106 45.84064,1.9857721 45.333509,1.875676 44.815797,1.7632823 44.277583,1.6606474 43.718132,1.5675292 a 16.045247,5.0597405 0 0 0 -0.21245,-0.032537 C 43.04281,1.460658 42.567321,1.3942797 42.079786,1.3340267 A 16.045247,5.0597405 0 0 0 41.645317,1.2842639 C 41.219902,1.2361098 40.786968,1.1929523 40.345743,1.1560289 A 16.045247,5.0597405 0 0 0 39.8462,1.1158358 c -0.462838,-0.03373 -0.933366,-0.061467 -1.410585,-0.0823 A 16.045247,5.0597405 0 0 0 38.060479,1.0163102 C 37.455285,0.99448726 36.842996,0.979945 36.219255,0.979945 Z m 16.035116,39.098277 v 0.04785 l 0.0096,-0.166513 c 0,0.03981 -0.0067,0.07907 -0.0096,0.118663 z" />
    <g
       id="g1"
       transform="matrix(0.97994508,0,0,0.97994508,0.38490823,0.46126313)">
      <path
         id="path1006-6"
         style="fill:url(#linearGradient1014-3);fill-opacity:1;fill-rule:evenodd;stroke:none;stroke-width:1;stroke-linecap:round;stroke-miterlimit:4;stroke-dasharray:none"
         d="m 52.940711,40.306982 c 0,2.851606 -7.330718,5.163289 -16.373618,5.163289 -9.0429,0 -16.373619,-2.311683 -16.373619,-5.079963 V 5.6304274 c 0,-2.7888607 7.330719,-5.10054432 16.373619,-5.10054432 9.0429,0 16.373618,2.31168362 16.371872,5.10996022 l -0.0072,34.8368857"
         sodipodi:nodetypes="csccscc" />
      <path
         id="ellipse983-2"
         style="fill:url(#linearGradient991-1);fill-opacity:1;fill-rule:evenodd;stroke:none;stroke-width:1;stroke-linecap:round;stroke-miterlimit:4;stroke-dasharray:none"
         d="M 52.940711,5.6931729 A 16.373619,5.1632899 0 0 1 36.567093,10.856463 16.373619,5.1632899 0 0 1 20.193474,5.6931729 16.373619,5.1632899 0 0 1 36.567093,0.52988308 16.373619,5.1632899 0 0 1 52.940711,5.6931729" />
    </g>
  </g>
</svg>
