<?xml version="1.0" encoding="UTF-8" standalone="no"?>
<svg
   inkscape:export-ydpi="96"
   inkscape:export-xdpi="96"
   inkscape:export-filename="/media/klapeto/Αρχεία/WindowsXP Theme/Vectors/RASTER/database.png"
   width="48"
   height="48"
   viewBox="0 0 48 48"
   version="1.1"
   id="svg8"
   inkscape:version="1.3.2 (1:1.3.2+202311252150+091e20ef0f)"
   sodipodi:docname="database.svg"
   xml:space="preserve"
   xmlns:inkscape="http://www.inkscape.org/namespaces/inkscape"
   xmlns:sodipodi="http://sodipodi.sourceforge.net/DTD/sodipodi-0.dtd"
   xmlns:xlink="http://www.w3.org/1999/xlink"
   xmlns="http://www.w3.org/2000/svg"
   xmlns:svg="http://www.w3.org/2000/svg"
   xmlns:rdf="http://www.w3.org/1999/02/22-rdf-syntax-ns#"
   xmlns:cc="http://creativecommons.org/ns#"
   xmlns:dc="http://purl.org/dc/elements/1.1/"><defs
     id="defs2"><linearGradient
       id="linearGradient6"
       inkscape:collect="always"><stop
         style="stop-color:#ffff99;stop-opacity:1"
         offset="0"
         id="stop7" /><stop
         style="stop-color:#cc9900;stop-opacity:1"
         offset="1"
         id="stop8" /></linearGradient><linearGradient
       id="linearGradient3"
       inkscape:collect="always"><stop
         style="stop-color:#cc9900;stop-opacity:1"
         offset="0"
         id="stop3" /><stop
         style="stop-color:#ffff99;stop-opacity:1"
         offset="0.25999999"
         id="stop5" /><stop
         style="stop-color:#ffcc00;stop-opacity:1"
         offset="0.51999998"
         id="stop6" /><stop
         style="stop-color:#996600;stop-opacity:1"
         offset="1"
         id="stop4" /></linearGradient><linearGradient
       inkscape:collect="always"
       xlink:href="#linearGradient3"
       id="linearGradient4"
       x1="23.567709"
       y1="25.3125"
       x2="48.567709"
       y2="25.3125"
       gradientUnits="userSpaceOnUse" /><linearGradient
       inkscape:collect="always"
       xlink:href="#linearGradient6"
       id="linearGradient8"
       x1="30.198246"
       y1="15.241911"
       x2="49.567713"
       y2="15.241911"
       gradientUnits="userSpaceOnUse" /><linearGradient
       inkscape:collect="always"
       xlink:href="#linearGradient6"
       id="linearGradient16"
       gradientUnits="userSpaceOnUse"
       x1="30.198246"
       y1="15.241911"
       x2="49.567713"
       y2="15.241911"
       gradientTransform="translate(0,11.896537)" /><linearGradient
       inkscape:collect="always"
       xlink:href="#linearGradient3"
       id="linearGradient27"
       gradientUnits="userSpaceOnUse"
       x1="23.567709"
       y1="25.3125"
       x2="48.567709"
       y2="25.3125"
       gradientTransform="translate(0.02119777,-0.515625)" /></defs><sodipodi:namedview
     inkscape:snap-intersection-paths="true"
     inkscape:object-paths="true"
     inkscape:snap-grids="true"
     inkscape:guide-bbox="true"
     showguides="true"
     id="base"
     pagecolor="#ffffff"
     bordercolor="#666666"
     borderopacity="1.0"
     inkscape:pageopacity="0.0"
     inkscape:pageshadow="2"
     inkscape:zoom="14.990513"
     inkscape:cx="11.173734"
     inkscape:cy="2.33481"
     inkscape:document-units="px"
     inkscape:current-layer="layer1"
     inkscape:document-rotation="0"
     showgrid="false"
     units="px"
     inkscape:window-width="3840"
     inkscape:window-height="2057"
     inkscape:window-x="0"
     inkscape:window-y="0"
     inkscape:window-maximized="1"
     inkscape:snap-bbox="true"
     inkscape:bbox-nodes="true"
     fit-margin-top="0"
     fit-margin-left="0"
     fit-margin-right="0"
     fit-margin-bottom="0"
     inkscape:bbox-paths="false"
     inkscape:pagecheckerboard="0"
     inkscape:showpageshadow="2"
     inkscape:deskcolor="#d1d1d1"><inkscape:grid
       type="xygrid"
       id="grid1504"
       originx="0"
       originy="0"
       spacingy="1"
       spacingx="1"
       units="px"
       visible="false" /><inkscape:grid
       type="xygrid"
       id="grid1507"
       spacingx="0.5"
       spacingy="0.5"
       originx="0"
       originy="0"
       units="px"
       visible="false" /></sodipodi:namedview><metadata
     id="metadata5"><rdf:RDF><cc:Work
         rdf:about=""><dc:format>image/svg+xml</dc:format><dc:type
           rdf:resource="http://purl.org/dc/dcmitype/StillImage" /></cc:Work></rdf:RDF></metadata><g
     inkscape:label="Layer 1"
     inkscape:groupmode="layer"
     id="layer1"
     transform="translate(-12.567709)"><path
       id="path23"
       style="fill:url(#linearGradient27);fill-rule:evenodd;stroke:#996600;stroke-width:2;stroke-linecap:round;stroke-linejoin:round;stroke-dasharray:none;stroke-opacity:1"
       d="M 36.088907,1 A 12.5,3.7419114 0 0 0 23.641641,4.484375 h -0.05273 v 0.2578125 8.1113285 c -0.605321,0.529246 -1,1.161058 -1,1.873047 0,0.158771 0.02357,0.312295 0.06055,0.46289 -0.04861,-0.153221 -0.07422,-0.305308 -0.07422,-0.455078 -0.04808,0.608151 0.17559,1.692255 1.013672,2.677734 V 24.75 c -0.605321,0.529246 -1,1.161059 -1,1.873047 0,0.158771 0.02357,0.312295 0.06055,0.46289 -0.04861,-0.153221 -0.07422,-0.305307 -0.07422,-0.455078 -0.04808,0.608152 0.17559,1.692256 1.013672,2.677735 v 8.675781 c 0,9.49999 25,9.49999 25,0 v -8.646484 c 0.661621,-0.801448 0.936118,-1.717891 1,-2.513672 -0.0117,0.0862 -0.03271,0.174388 -0.06055,0.261718 0.0371,-0.150595 0.06055,-0.304119 0.06055,-0.46289 0,-0.711913 -0.394462,-1.343835 -1,-1.873047 v -7.308594 c 0.661621,-0.801447 0.936118,-1.71789 1,-2.513672 -0.0117,0.0862 -0.03271,0.174388 -0.06055,0.261719 0.0371,-0.150595 0.06055,-0.304119 0.06055,-0.46289 0,-0.711914 -0.394462,-1.343835 -1,-1.873047 V 4.7421875 4.484375 h -0.0332 A 12.5,3.7419114 0 0 0 36.088907,1 Z" /><g
       id="g23"
       transform="translate(0.02119777,-0.515625)"><path
         style="fill:url(#linearGradient4);fill-rule:evenodd;stroke:none;stroke-width:1;stroke-linecap:round;stroke-linejoin:round;stroke-dasharray:none"
         d="m 23.567709,5 v 33.5 c 0,9.5 25,9.5 25,0 V 5 h -25"
         id="path2"
         sodipodi:nodetypes="ccccc" /><ellipse
         style="fill:#ffff99;fill-opacity:1;fill-rule:evenodd;stroke:none;stroke-width:1;stroke-linecap:round;stroke-linejoin:round;stroke-dasharray:none"
         id="path3"
         cx="36.067711"
         cy="5.2580886"
         rx="12.5"
         ry="3.7419114" /><path
         id="path3-6-5"
         style="color:#000000;fill:#996600;fill-rule:evenodd;stroke-linecap:round;stroke-linejoin:round;-inkscape-stroke:none"
         d="m 25.901693,19.503906 c 2.79554,1.04152 6.21657,1.574219 10.166016,1.574219 3.949446,0 7.603585,-0.692163 10.166016,-1.574219 2.562431,-0.882056 3.289845,-2.813921 3.347656,-4.25391 0,0.515251 -0.277421,1.050315 -0.912109,1.609375 -0.63469,0.55906 -1.609884,1.102306 -2.839844,1.560547 -2.45992,0.91648 -5.928658,1.501953 -9.761719,1.501953 -3.83306,0 -7.303751,-0.585473 -9.763672,-1.501953 -1.22996,-0.458241 -2.205155,-1.001487 -2.839844,-1.560547 -0.634689,-0.559056 -0.910156,-1.09412 -0.910156,-1.609371 -0.07774,0.983361 0.552116,3.212386 3.347656,4.253906 z"
         sodipodi:nodetypes="zszcssssscz" /><path
         id="path3-6"
         style="color:#000000;fill:url(#linearGradient8);fill-rule:evenodd;stroke-linecap:round;stroke-linejoin:round;-inkscape-stroke:none"
         d="m 23.567709,13.369141 c -0.605322,0.529247 -1,1.161058 -1,1.873047 0,0.794163 0.48729,1.489313 1.214844,2.052734 0.727553,0.56342 1.723533,1.036604 2.935547,1.433594 C 29.142126,19.522494 32.433611,20 36.067709,20 c 3.634099,0 6.923629,-0.477506 9.347656,-1.271484 1.212013,-0.39699 2.207994,-0.870174 2.935547,-1.433594 0.727554,-0.563421 1.216797,-1.258571 1.216797,-2.052734 0,-0.711914 -0.394461,-1.343834 -1,-1.873047 v 1.873047 0.142578 h -0.01172 c -0.05334,0.343725 -0.300817,0.719867 -0.816406,1.11914 -0.588115,0.45544 -1.4962,0.899866 -2.636719,1.273438 C 42.821826,18.524487 39.613299,19 36.067709,19 32.52212,19 29.311638,18.524487 27.0306,17.777344 25.89008,17.403772 24.981997,16.959346 24.393881,16.503906 23.878293,16.104633 23.632395,15.728491 23.579428,15.384766 h -0.01172 v -0.142578 z" /><path
         id="path15"
         style="color:#000000;fill:#996600;fill-rule:evenodd;stroke-linecap:round;stroke-linejoin:round;-inkscape-stroke:none"
         d="m 25.901693,31.400443 c 2.79554,1.04152 6.21657,1.574219 10.166016,1.574219 3.949446,0 7.603585,-0.692163 10.166016,-1.574219 2.562431,-0.882056 3.289845,-2.813921 3.347656,-4.25391 0,0.515251 -0.277421,1.050315 -0.912109,1.609375 -0.63469,0.55906 -1.609884,1.102306 -2.839844,1.560547 -2.45992,0.91648 -5.928658,1.501953 -9.761719,1.501953 -3.83306,0 -7.303751,-0.585473 -9.763672,-1.501953 -1.22996,-0.458241 -2.205155,-1.001487 -2.839844,-1.560547 -0.634689,-0.559056 -0.910156,-1.09412 -0.910156,-1.609371 -0.07774,0.983361 0.552116,3.212386 3.347656,4.253906 z"
         sodipodi:nodetypes="zszcssssscz" /><path
         id="path16"
         style="color:#000000;fill:url(#linearGradient16);fill-rule:evenodd;stroke-linecap:round;stroke-linejoin:round;-inkscape-stroke:none"
         d="m 23.567709,25.265678 c -0.605322,0.529247 -1,1.161058 -1,1.873047 0,0.794163 0.48729,1.489313 1.214844,2.052734 0.727553,0.56342 1.723533,1.036604 2.935547,1.433594 2.424026,0.793978 5.715511,1.271484 9.349609,1.271484 3.634099,0 6.923629,-0.477506 9.347656,-1.271484 1.212013,-0.39699 2.207994,-0.870174 2.935547,-1.433594 0.727554,-0.563421 1.216797,-1.258571 1.216797,-2.052734 0,-0.711914 -0.394461,-1.343834 -1,-1.873047 v 1.873047 0.142578 h -0.01172 c -0.05334,0.343725 -0.300817,0.719867 -0.816406,1.11914 -0.588115,0.45544 -1.4962,0.899866 -2.636719,1.273438 -2.281039,0.747143 -5.489566,1.222656 -9.035156,1.222656 -3.545589,0 -6.756071,-0.475513 -9.037109,-1.222656 -1.14052,-0.373572 -2.048603,-0.817998 -2.636719,-1.273438 -0.515588,-0.399273 -0.761486,-0.775415 -0.814453,-1.11914 h -0.01172 v -0.142578 z" /></g></g></svg>
