<?xml version="1.0" encoding="UTF-8" standalone="no"?>
<svg
   inkscape:export-ydpi="96"
   inkscape:export-xdpi="96"
   inkscape:export-filename="/media/klapeto/Αρχεία/WindowsXP Theme/Vectors/RASTER/database.png"
   width="16"
   height="16"
   viewBox="0 0 16 16"
   version="1.1"
   id="svg8"
   inkscape:version="1.3.2 (1:1.3.2+202311252150+091e20ef0f)"
   sodipodi:docname="database.16.svg"
   xml:space="preserve"
   xmlns:inkscape="http://www.inkscape.org/namespaces/inkscape"
   xmlns:sodipodi="http://sodipodi.sourceforge.net/DTD/sodipodi-0.dtd"
   xmlns:xlink="http://www.w3.org/1999/xlink"
   xmlns="http://www.w3.org/2000/svg"
   xmlns:svg="http://www.w3.org/2000/svg"
   xmlns:rdf="http://www.w3.org/1999/02/22-rdf-syntax-ns#"
   xmlns:cc="http://creativecommons.org/ns#"
   xmlns:dc="http://purl.org/dc/elements/1.1/"><defs
     id="defs2"><linearGradient
       id="linearGradient6"
       inkscape:collect="always"><stop
         style="stop-color:#ffff99;stop-opacity:1"
         offset="0"
         id="stop7" /><stop
         style="stop-color:#cc9900;stop-opacity:1"
         offset="1"
         id="stop8" /></linearGradient><linearGradient
       id="linearGradient3"
       inkscape:collect="always"><stop
         style="stop-color:#cc9900;stop-opacity:1"
         offset="0"
         id="stop3" /><stop
         style="stop-color:#ffff99;stop-opacity:1"
         offset="0.25999999"
         id="stop5" /><stop
         style="stop-color:#ffcc00;stop-opacity:1"
         offset="0.51999998"
         id="stop6" /><stop
         style="stop-color:#996600;stop-opacity:1"
         offset="1"
         id="stop4" /></linearGradient><linearGradient
       inkscape:collect="always"
       xlink:href="#linearGradient3"
       id="linearGradient4"
       x1="23.567709"
       y1="25.3125"
       x2="48.567711"
       y2="25.3125"
       gradientUnits="userSpaceOnUse"
       gradientTransform="matrix(0.32531351,0,0,0.32531351,9.334396,-0.11805329)" /><linearGradient
       inkscape:collect="always"
       xlink:href="#linearGradient6"
       id="linearGradient8"
       x1="30.198246"
       y1="15.241911"
       x2="49.567715"
       y2="15.241911"
       gradientUnits="userSpaceOnUse"
       gradientTransform="matrix(0.32531351,0,0,0.32531351,9.334396,-0.11805329)" /><linearGradient
       inkscape:collect="always"
       xlink:href="#linearGradient6"
       id="linearGradient30"
       gradientUnits="userSpaceOnUse"
       gradientTransform="matrix(0.32531351,0,0,0.32531351,9.334396,3.6900758)"
       x1="30.198246"
       y1="15.241911"
       x2="49.567715"
       y2="15.241911" /><linearGradient
       inkscape:collect="always"
       xlink:href="#linearGradient3"
       id="linearGradient35"
       gradientUnits="userSpaceOnUse"
       gradientTransform="matrix(0.32531351,0,0,0.32531351,9.334396,-0.11805329)"
       x1="23.567709"
       y1="25.3125"
       x2="48.567711"
       y2="25.3125" /></defs><sodipodi:namedview
     inkscape:snap-intersection-paths="true"
     inkscape:object-paths="true"
     inkscape:snap-grids="true"
     inkscape:guide-bbox="true"
     showguides="true"
     id="base"
     pagecolor="#ffffff"
     bordercolor="#666666"
     borderopacity="1.0"
     inkscape:pageopacity="0.0"
     inkscape:pageshadow="2"
     inkscape:zoom="29.981026"
     inkscape:cx="-7.5047465"
     inkscape:cy="4.0025315"
     inkscape:document-units="px"
     inkscape:current-layer="layer1"
     inkscape:document-rotation="0"
     showgrid="true"
     units="px"
     inkscape:window-width="3840"
     inkscape:window-height="2057"
     inkscape:window-x="0"
     inkscape:window-y="0"
     inkscape:window-maximized="1"
     inkscape:snap-bbox="true"
     inkscape:bbox-nodes="true"
     fit-margin-top="0"
     fit-margin-left="0"
     fit-margin-right="0"
     fit-margin-bottom="0"
     inkscape:bbox-paths="false"
     inkscape:pagecheckerboard="0"
     inkscape:showpageshadow="2"
     inkscape:deskcolor="#d1d1d1"><inkscape:grid
       type="xygrid"
       id="grid1504"
       originx="0"
       originy="0"
       spacingy="1"
       spacingx="1"
       units="px"
       visible="true" /><inkscape:grid
       type="xygrid"
       id="grid1507"
       spacingx="0.5"
       spacingy="0.5"
       originx="0"
       originy="0"
       units="px"
       visible="true" /></sodipodi:namedview><metadata
     id="metadata5"><rdf:RDF><cc:Work
         rdf:about=""><dc:format>image/svg+xml</dc:format><dc:type
           rdf:resource="http://purl.org/dc/dcmitype/StillImage" /></cc:Work></rdf:RDF></metadata><g
     inkscape:label="Layer 1"
     inkscape:groupmode="layer"
     id="layer1"
     transform="translate(-12.567709)"><path
       id="path31"
       style="fill:url(#linearGradient35);fill-rule:evenodd;stroke:#996600;stroke-width:0.750001;stroke-linecap:round;stroke-linejoin:round;stroke-dasharray:none;stroke-opacity:1"
       d="M 21.067709 0.375 A 4.0664186 1.2172943 0 0 0 17.018881 1.5078125 L 17.001303 1.5078125 L 17.001303 1.5917969 L 17.001303 4.2304688 C 16.804384 4.4026398 16.675131 5.4715055 16.675131 5.703125 C 16.675131 5.735419 16.678147 5.7675615 16.682943 5.7988281 C 16.685692 5.8167427 16.69042 5.8339959 16.694662 5.8515625 C 16.689207 5.8341741 16.686422 5.8160773 16.682943 5.7988281 C 16.676563 5.767184 16.671225 5.7362671 16.671225 5.7050781 C 16.655573 5.9030647 16.728164 6.2717072 17.001303 6.6035156 L 17.001303 8.0390625 C 16.804384 8.2112335 16.675131 9.2800993 16.675131 9.5117188 C 16.675131 9.5635755 16.684492 9.6129341 16.696615 9.6621094 C 16.68065 9.612024 16.671225 9.5626239 16.671225 9.5136719 C 16.655575 9.7116344 16.728246 10.078379 17.001303 10.410156 L 17.001303 12.40625 C 17.001303 15.496725 25.134115 15.496725 25.134115 12.40625 L 25.134115 10.417969 C 25.349328 10.147691 25.439289 9.8386232 25.460287 9.578125 C 25.456423 9.6057919 25.447779 9.6340829 25.438803 9.6621094 C 25.450967 9.6129341 25.460287 9.5635755 25.460287 9.5117188 C 25.460287 9.2801237 25.331105 8.2112224 25.134115 8.0390625 L 25.134115 6.609375 C 25.349328 6.3390973 25.439289 6.0300294 25.460287 5.7695312 C 25.45653 5.7964286 25.449342 5.8243255 25.440756 5.8515625 C 25.452441 5.8033367 25.460287 5.7539221 25.460287 5.703125 C 25.460287 5.4715299 25.331105 4.4026287 25.134115 4.2304688 L 25.134115 1.5917969 L 25.134115 1.5078125 L 25.12435 1.5078125 A 4.0664186 1.2172943 0 0 0 21.067709 0.375 z " /><g
       id="g30"><path
         style="fill:url(#linearGradient4);fill-rule:evenodd;stroke:none;stroke-width:0.750001;stroke-linecap:round;stroke-linejoin:round;stroke-dasharray:none"
         d="M 17.00129,1.5085143 V 12.406517 c 0,3.090478 8.132838,3.090478 8.132838,0 V 1.5085143 H 17.00129"
         id="path2"
         sodipodi:nodetypes="ccccc" /><ellipse
         style="fill:#ffff99;fill-opacity:1;fill-rule:evenodd;stroke:none;stroke-width:0.750001;stroke-linecap:round;stroke-linejoin:round;stroke-dasharray:none"
         id="path3"
         cx="21.067709"
         cy="1.592474"
         rx="4.0664186"
         ry="1.2172943" /><path
         id="path3-6-5"
         style="color:#000000;fill:#996600;fill-rule:evenodd;stroke-width:0.750001;stroke-linecap:round;stroke-linejoin:round;stroke-dasharray:none"
         d="m 17.760567,7.1269398 c 0.909427,0.3388205 2.022334,0.5121147 3.307142,0.5121147 1.284808,0 2.473549,-0.22517 3.307142,-0.5121147 0.833594,-0.2869447 1.070231,-0.9531832 1.089038,-1.4216311 0,0.1676181 -0.09025,0.3416817 -0.296721,0.5235514 -0.206474,0.1818698 -0.523717,-0.5037372 -0.92384,-0.3546652 -0.800245,0.2981433 -1.928672,0.6258053 -3.175619,0.6258053 -1.246946,0 -2.376009,-0.327662 -3.176254,-0.6258053 -0.400123,-0.149072 -0.717367,0.536535 -0.92384,0.3546652 -0.206473,-0.1818684 -0.296086,-0.355932 -0.296086,-0.5235501 -0.02529,0.3199006 0.179611,1.0828093 1.089038,1.4216298 z"
         sodipodi:nodetypes="zszcssssscz" /><path
         id="path3-6"
         style="color:#000000;fill:url(#linearGradient8);fill-rule:evenodd;stroke-width:0.750001;stroke-linecap:round;stroke-linejoin:round;stroke-dasharray:none"
         d="m 17.00129,4.2311089 c -0.196919,0.1721712 -0.325313,1.2400401 -0.325313,1.4716598 0,0.2583519 0.158522,0.4844936 0.395205,0.6677821 0.236683,0.1832881 0.560688,0.3372212 0.954973,0.4663675 0.788568,0.2582917 1.859333,0.4136309 3.041554,0.4136309 1.182222,0 2.25235,-0.1553392 3.040919,-0.4136309 0.394284,-0.1291463 0.71829,-0.2830794 0.954973,-0.4663675 0.236683,-0.1832885 0.39584,-0.4094302 0.39584,-0.6677821 0,-0.2315953 -0.128323,-1.2994997 -0.325313,-1.4716598 v 0.6093275 0.046382 h -0.0038 c -0.01735,0.1118184 -0.09786,0.2341825 -0.265588,0.3640714 -0.191321,0.1481608 -0.486734,0.2927386 -0.85776,0.4142666 -0.742052,0.2430557 -1.78583,0.3977465 -2.939258,0.3977465 -1.153428,0 -2.197841,-0.1546908 -2.939894,-0.3977465 C 17.756789,5.5436289 17.461377,5.3990511 17.270055,5.2508903 17.102327,5.1210014 17.022333,4.9986373 17.005102,4.8868189 h -0.0038 v -0.046382 z"
         sodipodi:nodetypes="csssssssccccssssscccc" /><path
         id="path29"
         style="color:#000000;fill:#996600;fill-rule:evenodd;stroke-width:0.750001;stroke-linecap:round;stroke-linejoin:round;stroke-dasharray:none"
         d="m 17.760567,10.935069 c 0.909427,0.33882 2.022334,0.512115 3.307142,0.512115 1.284808,0 2.473549,-0.22517 3.307142,-0.512115 0.833594,-0.286945 1.070231,-0.9531834 1.089038,-1.4216313 0,0.1676181 -0.09025,0.3416817 -0.296721,0.5235513 -0.206474,0.18187 -0.523717,-0.5037371 -0.92384,-0.3546651 -0.800245,0.2981433 -1.928672,0.6258051 -3.175619,0.6258051 -1.246946,0 -2.376009,-0.3276618 -3.176254,-0.6258051 -0.400123,-0.149072 -0.717367,0.5365351 -0.92384,0.3546651 -0.206473,-0.1818683 -0.296086,-0.3559319 -0.296086,-0.52355 -0.02529,0.3199006 0.179611,1.082809 1.089038,1.42163 z"
         sodipodi:nodetypes="zszcssssscz" /><path
         id="path30"
         style="color:#000000;fill:url(#linearGradient30);fill-rule:evenodd;stroke-width:0.750001;stroke-linecap:round;stroke-linejoin:round;stroke-dasharray:none"
         d="m 17.00129,8.0392379 c -0.196919,0.1721712 -0.325313,1.2400401 -0.325313,1.4716598 0,0.2583519 0.158522,0.4844936 0.395205,0.6677823 0.236683,0.183288 0.560688,0.337221 0.954973,0.466367 0.788568,0.258292 1.859333,0.413631 3.041554,0.413631 1.182222,0 2.25235,-0.155339 3.040919,-0.413631 0.394284,-0.129146 0.71829,-0.283079 0.954973,-0.466367 0.236683,-0.1832887 0.39584,-0.4094304 0.39584,-0.6677823 0,-0.2315953 -0.128323,-1.2994997 -0.325313,-1.4716598 v 0.6093275 0.046382 h -0.0038 c -0.01735,0.1118184 -0.09786,0.2341825 -0.265588,0.3640714 -0.191321,0.1481608 -0.486734,0.2927386 -0.85776,0.4142666 -0.742052,0.2430557 -1.78583,0.3977465 -2.939258,0.3977465 -1.153428,0 -2.197841,-0.1546908 -2.939894,-0.3977465 C 17.756789,9.3517579 17.461377,9.2071801 17.270055,9.0590193 17.102327,8.9291304 17.022333,8.8067663 17.005102,8.6949479 h -0.0038 v -0.046382 z"
         sodipodi:nodetypes="csssssssccccssssscccc" /></g></g></svg>
