<?xml version="1.0" encoding="UTF-8" standalone="no"?>
<svg
   inkscape:export-ydpi="96"
   inkscape:export-xdpi="96"
   inkscape:export-filename="/media/klapeto/Αρχεία/WindowsXP Theme/Vectors/RASTER/database.png"
   width="16"
   height="16"
   viewBox="0 0 16 16"
   version="1.1"
   id="svg8"
   inkscape:version="1.3.2 (1:1.3.2+202311252150+091e20ef0f)"
   sodipodi:docname="database.16.svg"
   xmlns:inkscape="http://www.inkscape.org/namespaces/inkscape"
   xmlns:sodipodi="http://sodipodi.sourceforge.net/DTD/sodipodi-0.dtd"
   xmlns:xlink="http://www.w3.org/1999/xlink"
   xmlns="http://www.w3.org/2000/svg"
   xmlns:svg="http://www.w3.org/2000/svg"
   xmlns:rdf="http://www.w3.org/1999/02/22-rdf-syntax-ns#"
   xmlns:cc="http://creativecommons.org/ns#"
   xmlns:dc="http://purl.org/dc/elements/1.1/">
  <defs
     id="defs2">
    <linearGradient
       id="linearGradient1012"
       inkscape:collect="always">
      <stop
         id="stop1008"
         offset="0"
         style="stop-color:#ffcc00;stop-opacity:1" />
      <stop
         style="stop-color:#ffff99;stop-opacity:1"
         offset="0.37533283"
         id="stop1016" />
      <stop
         id="stop1023"
         offset="0.68766642"
         style="stop-color:#ffcc00;stop-opacity:1" />
      <stop
         id="stop1010"
         offset="1"
         style="stop-color:#cc9900;stop-opacity:1" />
    </linearGradient>
    <linearGradient
       id="linearGradient989"
       inkscape:collect="always">
      <stop
         id="stop985"
         offset="0"
         style="stop-color:#ffff00;stop-opacity:1" />
      <stop
         id="stop987"
         offset="1"
         style="stop-color:#ffff99;stop-opacity:1" />
    </linearGradient>
    <linearGradient
       inkscape:collect="always"
       xlink:href="#linearGradient1012"
       id="linearGradient1014-3"
       x1="-15.932291"
       y1="25.480541"
       x2="14.067709"
       y2="25.480541"
       gradientUnits="userSpaceOnUse"
       gradientTransform="matrix(1.0577562,0,0,1.0577562,37.574832,-3.952124)" />
    <linearGradient
       inkscape:collect="always"
       xlink:href="#linearGradient989"
       id="linearGradient991-1"
       x1="28.230461"
       y1="22.032276"
       x2="-12.09204"
       y2="7.2657962"
       gradientUnits="userSpaceOnUse"
       gradientTransform="matrix(1.0577562,0,0,1.0577562,37.574832,-3.952124)" />
    <linearGradient
       inkscape:collect="always"
       xlink:href="#linearGradient1012"
       id="linearGradient2"
       gradientUnits="userSpaceOnUse"
       gradientTransform="matrix(0.32364923,0,0,0.32364923,20.886007,-0.43204184)"
       x1="-15.932291"
       y1="25.480541"
       x2="14.067709"
       y2="25.480541" />
  </defs>
  <sodipodi:namedview
     inkscape:snap-intersection-paths="true"
     inkscape:object-paths="true"
     inkscape:snap-grids="true"
     inkscape:guide-bbox="true"
     showguides="false"
     id="base"
     pagecolor="#ffffff"
     bordercolor="#666666"
     borderopacity="1.0"
     inkscape:pageopacity="0.0"
     inkscape:pageshadow="2"
     inkscape:zoom="40.705538"
     inkscape:cx="-3.0094186"
     inkscape:cy="10.502257"
     inkscape:document-units="px"
     inkscape:current-layer="layer1"
     inkscape:document-rotation="0"
     showgrid="true"
     units="px"
     inkscape:window-width="3840"
     inkscape:window-height="2056"
     inkscape:window-x="3840"
     inkscape:window-y="0"
     inkscape:window-maximized="1"
     inkscape:snap-bbox="true"
     inkscape:bbox-nodes="true"
     fit-margin-top="0"
     fit-margin-left="0"
     fit-margin-right="0"
     fit-margin-bottom="0"
     inkscape:bbox-paths="false"
     inkscape:pagecheckerboard="0"
     inkscape:showpageshadow="2"
     inkscape:deskcolor="#d1d1d1">
    <inkscape:grid
       type="xygrid"
       id="grid1504"
       originx="0"
       originy="0"
       spacingy="1"
       spacingx="1"
       units="px"
       visible="true" />
    <inkscape:grid
       type="xygrid"
       id="grid1507"
       spacingx="0.5"
       spacingy="0.5"
       originx="0"
       originy="0"
       units="px"
       visible="true" />
  </sodipodi:namedview>
  <metadata
     id="metadata5">
    <rdf:RDF>
      <cc:Work
         rdf:about="">
        <dc:format>image/svg+xml</dc:format>
        <dc:type
           rdf:resource="http://purl.org/dc/dcmitype/StillImage" />
      </cc:Work>
    </rdf:RDF>
  </metadata>
  <g
     inkscape:label="Layer 1"
     inkscape:groupmode="layer"
     id="layer1"
     transform="translate(-12.567709)">
    <path
       id="path1"
       style="fill:url(#linearGradient2);fill-opacity:1;fill-rule:evenodd;stroke:#996600;stroke-width:2;stroke-linecap:round;stroke-miterlimit:4;stroke-dasharray:none;stroke-opacity:1"
       d="m 20.577851,0.93917062 c -0.194731,0 -0.385961,0.004543 -0.574903,0.0113546 -0.03992,0.00184 -0.07976,0.003832 -0.119522,0.005976 -0.148097,0.00648 -0.29439,0.014638 -0.438049,0.0251 -0.053,0.003912 -0.105798,0.008096 -0.158367,0.01255 -0.135788,0.011379 -0.268811,0.024658 -0.399803,0.039442 -0.04766,0.00515 -0.09508,0.010532 -0.142231,0.016136 -0.169644,0.020993 -0.335411,0.044091 -0.49542,0.070518 -0.179467,0.029641 -0.352349,0.06264 -0.518129,0.098606 -0.163482,0.035467 -0.318163,0.074243 -0.466735,0.1153391 -0.0068,0.00199 -0.01356,0.00398 -0.02032,0.00598 -1.026641,0.2870947 -1.676899,0.7019284 -1.676899,1.1599641 v 0.019124 9.9128966 c 0,0.84703 2.243458,1.554388 5.010376,1.554388 2.7275,0 4.944136,-0.687686 5.00679,-1.543034 l 0.0024,-9.9158842 c 2.21e-4,-0.00279 4.19e-4,-0.00558 5.93e-4,-0.00837 -1.95e-4,-9.967e-4 -3.92e-4,-0.00199 -5.93e-4,-0.00299 v -0.013147 c 2.38e-4,-0.3936707 -0.477987,-0.7550358 -1.259175,-1.0314777 -0.125609,-0.04445 -0.259007,-0.086306 -0.399802,-0.1260961 -0.01722,-0.00502 -0.03455,-0.01 -0.05199,-0.01494 C 23.73169,1.2909284 23.582026,1.2532294 23.42368,1.218853 23.26203,1.183759 23.093979,1.151713 22.919296,1.122637 c -0.02203,-0.00344 -0.04414,-0.00682 -0.06633,-0.010159 -0.144527,-0.02321 -0.292993,-0.043936 -0.44522,-0.062749 -0.04498,-0.00538 -0.09021,-0.010564 -0.135659,-0.015538 -0.132831,-0.015036 -0.26801,-0.028511 -0.405777,-0.04004 -0.05178,-0.004446 -0.103775,-0.00863 -0.155977,-0.01255 -0.144516,-0.0105319 -0.291434,-0.0191925 -0.44044,-0.0256974 -0.03898,-0.001938 -0.07802,-0.003732 -0.117132,-0.005379 -0.188965,-0.006814 -0.380146,-0.0113546 -0.574902,-0.0113546 z m 5.00679,11.50433638 v 0.01494 l 0.003,-0.05199 c 0,0.01243 -0.0021,0.02469 -0.003,0.03705 z"
       sodipodi:nodetypes="sccccccssccscsscccccsccsccccccccsscccc" />
    <g
       id="g1"
       transform="matrix(0.30597715,0,0,0.30597715,9.3889674,0.77721787)"
       style="stroke-width:6.53644;stroke-dasharray:none">
      <path
         id="path1006-6"
         style="fill:url(#linearGradient1014-3);fill-opacity:1;fill-rule:evenodd;stroke:none;stroke-width:6.53644;stroke-linecap:round;stroke-miterlimit:4;stroke-dasharray:none"
         d="m 52.940711,38.007224 c 0,2.851606 -7.330718,5.163289 -16.373618,5.163289 -9.0429,0 -16.373619,-2.311683 -16.373619,-5.079963 V 5.6304274 c 0,-2.7888607 7.330719,-5.10054432 16.373619,-5.10054432 9.0429,0 16.373618,2.31168362 16.371872,5.10996022 l -0.0072,32.5371277"
         sodipodi:nodetypes="csccscc" />
      <path
         id="ellipse983-2"
         style="fill:url(#linearGradient991-1);fill-opacity:1;fill-rule:evenodd;stroke:none;stroke-width:6.53644;stroke-linecap:round;stroke-miterlimit:4;stroke-dasharray:none"
         d="M 52.940711,5.6931729 A 16.373619,5.1632899 0 0 1 36.567093,10.856463 16.373619,5.1632899 0 0 1 20.193474,5.6931729 16.373619,5.1632899 0 0 1 36.567093,0.52988308 16.373619,5.1632899 0 0 1 52.940711,5.6931729" />
    </g>
  </g>
</svg>
