<?xml version="1.0" encoding="UTF-8" standalone="no"?>
<svg
   height="256"
   width="256"
   version="1.1"
   id="svg19"
   sodipodi:docname="generalize.svg"
   inkscape:version="1.1.1 (3bf5ae0d25, 2021-09-20)"
   inkscape:export-filename="generalise.png"
   inkscape:export-xdpi="96"
   inkscape:export-ydpi="96"
   xmlns:inkscape="http://www.inkscape.org/namespaces/inkscape"
   xmlns:sodipodi="http://sodipodi.sourceforge.net/DTD/sodipodi-0.dtd"
   xmlns:xlink="http://www.w3.org/1999/xlink"
   xmlns="http://www.w3.org/2000/svg"
   xmlns:svg="http://www.w3.org/2000/svg"
   xmlns:rdf="http://www.w3.org/1999/02/22-rdf-syntax-ns#"
   xmlns:cc="http://creativecommons.org/ns#"
   xmlns:dc="http://purl.org/dc/elements/1.1/">
  <metadata
     id="metadata23">
    <rdf:RDF>
      <cc:Work
         rdf:about="">
        <dc:format>image/svg+xml</dc:format>
        <dc:type
           rdf:resource="http://purl.org/dc/dcmitype/StillImage" />
      </cc:Work>
    </rdf:RDF>
  </metadata>
  <sodipodi:namedview
     inkscape:bbox-nodes="true"
     inkscape:bbox-paths="false"
     inkscape:snap-bbox="true"
     inkscape:document-rotation="0"
     pagecolor="#ffffff"
     bordercolor="#666666"
     borderopacity="1"
     objecttolerance="10"
     gridtolerance="10"
     guidetolerance="10"
     inkscape:pageopacity="0"
     inkscape:pageshadow="2"
     inkscape:window-width="1920"
     inkscape:window-height="1014"
     id="namedview21"
     showgrid="false"
     inkscape:zoom="0.7071068"
     inkscape:cx="-190.91883"
     inkscape:cy="153.44217"
     inkscape:window-x="1920"
     inkscape:window-y="0"
     inkscape:window-maximized="1"
     inkscape:current-layer="svg19"
     showguides="false"
     inkscape:snap-grids="true"
     inkscape:snap-to-guides="true"
     inkscape:object-nodes="true"
     inkscape:snap-intersection-paths="false"
     inkscape:snap-others="true"
     inkscape:snap-nodes="true"
     inkscape:pagecheckerboard="0">
    <inkscape:grid
       id="grid881"
       type="xygrid" />
    <inkscape:grid
       spacingy="0.5"
       spacingx="0.5"
       id="grid883"
       type="xygrid" />
  </sodipodi:namedview>
  <defs
     id="defs17">
    <linearGradient
       inkscape:collect="always"
       id="linearGradient893">
      <stop
         style="stop-color:#0066cc;stop-opacity:1"
         offset="0"
         id="stop889" />
      <stop
         id="stop899"
         offset="0.5"
         style="stop-color:#0066cc;stop-opacity:1" />
      <stop
         style="stop-color:#57b6ff;stop-opacity:1"
         offset="1"
         id="stop891" />
    </linearGradient>
    <linearGradient
       inkscape:collect="always"
       xlink:href="#linearGradient893"
       id="linearGradient2524"
       x1="179.43341"
       y1="219.34944"
       x2="73.063965"
       y2="72.675407"
       gradientUnits="userSpaceOnUse"
       gradientTransform="translate(9.7851839e-4,-10.863717)" />
    <filter
       inkscape:collect="always"
       style="color-interpolation-filters:sRGB"
       id="filter4014"
       x="-0.050451171"
       y="-0.045775973"
       width="1.1009023"
       height="1.0915519">
      <feGaussianBlur
         inkscape:collect="always"
         stdDeviation="4.5306964"
         id="feGaussianBlur4016" />
    </filter>
  </defs>
  <path
     id="path3717"
     style="color:#000000;fill:#212121;fill-opacity:1;fill-rule:evenodd;stroke:none;stroke-width:10;stroke-linejoin:round;stroke-opacity:1;-inkscape-stroke:none;filter:url(#filter4014)"
     d="m 133.00031,4 c -7.66687,0 -15.36756,2.9632532 -21.21289,8.808594 l -77.7832,77.783203 c -11.690957,11.690973 -11.690962,30.734823 0,42.425783 11.690964,11.69096 30.736771,11.69096 42.427735,0 l 26.570315,-26.57227 v 105.09571 c 0,16.53349 13.4665,30 29.99999,30 16.5335,0 30,-13.46651 30,-30 V 106.45117 l 26.56641,26.56641 c 11.69096,11.69096 30.73677,11.69096 42.42773,0 11.69097,-11.69096 11.69096,-30.73481 0,-42.425783 L 154.21515,12.808594 C 148.36888,6.9623211 140.66718,4 133.00031,4 Z" />
  <path
     id="rect1475"
     style="fill:url(#linearGradient2524);fill-opacity:1;fill-rule:evenodd;stroke:#003399;stroke-width:10;stroke-linejoin:round;stroke-opacity:1;stop-color:#000000"
     d="m 127.99903,5 c -6.39048,0 -12.77907,2.447035 -17.67578,7.34375 L 32.540041,90.126943 c -9.793428,9.79344 -9.793429,25.562037 0,35.355467 9.793429,9.79343 25.56204,9.79343 35.355469,0 L 103.00098,90.374993 V 207.54029 c 0,13.85 11.15,25 25,25 13.85,0 25,-11.15 25,-25 V 90.378903 l 35.10352,35.103507 c 9.79343,9.79343 25.56203,9.79343 35.35546,0 9.79343,-9.79343 9.79343,-25.562027 0,-35.355467 L 145.67871,12.34375 C 140.78199,7.447035 134.38951,5 127.99903,5 Z"
     sodipodi:nodetypes="sccsccssscssccs" />
</svg>
