<?xml version="1.0" encoding="UTF-8" standalone="no"?>
<svg
   width="256"
   height="256"
   viewBox="0 0 256 256"
   version="1.1"
   id="svg8"
   inkscape:version="1.1.1 (3bf5ae0d25, 2021-09-20)"
   sodipodi:docname="key.svg"
   inkscape:export-filename="/media/klapeto/Αρχεία/WindowsXP Theme/Vectors/RASTER/key.png"
   inkscape:export-xdpi="96"
   inkscape:export-ydpi="96"
   xmlns:inkscape="http://www.inkscape.org/namespaces/inkscape"
   xmlns:sodipodi="http://sodipodi.sourceforge.net/DTD/sodipodi-0.dtd"
   xmlns:xlink="http://www.w3.org/1999/xlink"
   xmlns="http://www.w3.org/2000/svg"
   xmlns:svg="http://www.w3.org/2000/svg"
   xmlns:rdf="http://www.w3.org/1999/02/22-rdf-syntax-ns#"
   xmlns:cc="http://creativecommons.org/ns#"
   xmlns:dc="http://purl.org/dc/elements/1.1/">
  <defs
     id="defs2">
    <linearGradient
       inkscape:collect="always"
       id="linearGradient305363">
      <stop
         style="stop-color:#cb6534;stop-opacity:1"
         offset="0"
         id="stop305359" />
      <stop
         style="stop-color:#e7a143;stop-opacity:1"
         offset="1"
         id="stop305361" />
    </linearGradient>
    <linearGradient
       inkscape:collect="always"
       id="linearGradient237937">
      <stop
         style="stop-color:#faf527;stop-opacity:1"
         offset="0"
         id="stop237931" />
      <stop
         style="stop-color:#faf527;stop-opacity:1"
         offset="0.61025214"
         id="stop239091" />
      <stop
         style="stop-color:#fefdf4;stop-opacity:0"
         offset="1"
         id="stop237935" />
    </linearGradient>
    <linearGradient
       inkscape:collect="always"
       id="linearGradient200486">
      <stop
         style="stop-color:#f7ad40;stop-opacity:1"
         offset="0"
         id="stop200482" />
      <stop
         style="stop-color:#fdca60;stop-opacity:1"
         offset="1"
         id="stop200484" />
    </linearGradient>
    <linearGradient
       inkscape:collect="always"
       id="linearGradient154100">
      <stop
         style="stop-color:#faf9da;stop-opacity:0"
         offset="0"
         id="stop154096" />
      <stop
         style="stop-color:#fbf638;stop-opacity:0"
         offset="0.17431498"
         id="stop163065" />
      <stop
         style="stop-color:#fcf996;stop-opacity:0"
         offset="0.75"
         id="stop181540" />
      <stop
         style="stop-color:#fefdf4;stop-opacity:1"
         offset="1"
         id="stop154098" />
    </linearGradient>
    <linearGradient
       inkscape:collect="always"
       id="linearGradient69702">
      <stop
         style="stop-color:#fffefd;stop-opacity:1"
         offset="0"
         id="stop69698" />
      <stop
         style="stop-color:#fbd7a2;stop-opacity:1"
         offset="0.112"
         id="stop98798" />
      <stop
         style="stop-color:#ba8323;stop-opacity:1"
         offset="0.28"
         id="stop75990" />
      <stop
         style="stop-color:#f7de44;stop-opacity:1"
         offset="0.63999999"
         id="stop112612" />
      <stop
         style="stop-color:#fccd04;stop-opacity:1"
         offset="0.81999999"
         id="stop129917" />
      <stop
         style="stop-color:#fca500;stop-opacity:1"
         offset="1"
         id="stop69700" />
    </linearGradient>
    <linearGradient
       inkscape:collect="always"
       id="linearGradient2976">
      <stop
         style="stop-color:#fffcf5;stop-opacity:1"
         offset="0"
         id="stop2972" />
      <stop
         style="stop-color:#fde673;stop-opacity:1"
         offset="0.35727903"
         id="stop16719" />
      <stop
         style="stop-color:#e2971a;stop-opacity:1"
         offset="0.62598419"
         id="stop16849" />
      <stop
         style="stop-color:#faca48;stop-opacity:1"
         offset="0.91688526"
         id="stop16979" />
      <stop
         style="stop-color:#fdc931;stop-opacity:1"
         offset="1"
         id="stop2974" />
    </linearGradient>
    <radialGradient
       inkscape:collect="always"
       xlink:href="#linearGradient2976"
       id="radialGradient2978"
       cx="-40.701576"
       cy="2.863358"
       fx="-40.701576"
       fy="2.863358"
       r="12.031582"
       gradientUnits="userSpaceOnUse"
       gradientTransform="translate(-24.000002,4.5000002)" />
    <linearGradient
       inkscape:collect="always"
       xlink:href="#linearGradient69702"
       id="linearGradient69704"
       x1="-34.932289"
       y1="23.5"
       x2="-30.932291"
       y2="27.5"
       gradientUnits="userSpaceOnUse"
       gradientTransform="translate(-51.5)" />
    <radialGradient
       inkscape:collect="always"
       xlink:href="#linearGradient154100"
       id="radialGradient154102"
       cx="-64.670082"
       cy="9.8947163"
       fx="-64.670082"
       fy="9.8947163"
       r="12.03125"
       gradientUnits="userSpaceOnUse"
       gradientTransform="matrix(0.56507903,-0.84745625,0.81983579,0.54666187,-35.304913,-50.692728)" />
    <filter
       inkscape:collect="always"
       style="color-interpolation-filters:sRGB"
       id="filter200459"
       x="-0.14871855"
       y="-0.14124295"
       width="1.2974371"
       height="1.2824859">
      <feGaussianBlur
         inkscape:collect="always"
         stdDeviation="0.48638432"
         id="feGaussianBlur200461" />
    </filter>
    <linearGradient
       inkscape:collect="always"
       xlink:href="#linearGradient200486"
       id="linearGradient200488"
       x1="-69.946632"
       y1="17.447788"
       x2="-74.671204"
       y2="12.581718"
       gradientUnits="userSpaceOnUse" />
    <radialGradient
       inkscape:collect="always"
       xlink:href="#linearGradient237937"
       id="radialGradient237897"
       gradientUnits="userSpaceOnUse"
       gradientTransform="matrix(0.27909552,-0.48340761,0.42558781,0.24571323,-51.476667,-27.008203)"
       cx="-60.812794"
       cy="8.0397205"
       fx="-60.812794"
       fy="8.0397205"
       r="12.03125" />
    <linearGradient
       inkscape:collect="always"
       xlink:href="#linearGradient305363"
       id="linearGradient305365"
       x1="-97.932291"
       y1="19.001195"
       x2="-51.932291"
       y2="19.001195"
       gradientUnits="userSpaceOnUse" />
    <filter
       inkscape:collect="always"
       style="color-interpolation-filters:sRGB"
       id="filter320003"
       x="-0.047218602"
       y="-0.048807695"
       width="1.0944372"
       height="1.0976154">
      <feGaussianBlur
         inkscape:collect="always"
         stdDeviation="4.7612128"
         id="feGaussianBlur320005" />
    </filter>
  </defs>
  <sodipodi:namedview
     inkscape:guide-bbox="true"
     id="base"
     pagecolor="#ffffff"
     bordercolor="#666666"
     borderopacity="1.0"
     inkscape:pageopacity="0.0"
     inkscape:pageshadow="2"
     inkscape:zoom="0.99999999"
     inkscape:cx="-616.5"
     inkscape:cy="311"
     inkscape:document-units="px"
     inkscape:current-layer="layer1"
     inkscape:document-rotation="0"
     showgrid="false"
     units="px"
     inkscape:window-width="3840"
     inkscape:window-height="2045"
     inkscape:window-x="3840"
     inkscape:window-y="0"
     inkscape:window-maximized="1"
     inkscape:snap-bbox="true"
     inkscape:bbox-nodes="true"
     fit-margin-top="0"
     fit-margin-left="0"
     fit-margin-right="0"
     fit-margin-bottom="0"
     inkscape:bbox-paths="false"
     inkscape:snap-global="true"
     showguides="false"
     inkscape:pagecheckerboard="0">
    <inkscape:grid
       type="xygrid"
       id="grid1504"
       originx="0"
       originy="0" />
    <inkscape:grid
       type="xygrid"
       id="grid1507"
       spacingx="0.5"
       spacingy="0.5"
       originx="0"
       originy="0" />
  </sodipodi:namedview>
  <metadata
     id="metadata5">
    <rdf:RDF>
      <cc:Work
         rdf:about="">
        <dc:format>image/svg+xml</dc:format>
        <dc:type
           rdf:resource="http://purl.org/dc/dcmitype/StillImage" />
      </cc:Work>
    </rdf:RDF>
  </metadata>
  <g
     inkscape:label="Layer 1"
     inkscape:groupmode="layer"
     id="layer1"
     transform="translate(-12.567709)">
    <path
       id="path319870"
       style="color:#000000;fill:#212121;fill-opacity:1;fill-rule:evenodd;stroke-width:5.26087;stroke-linecap:round;stroke-linejoin:round;-inkscape-stroke:none;filter:url(#filter320003)"
       d="m 193.64193,4 c -36.37789,0.001 -65.92478,29.547902 -65.92578,65.925781 a 2.630698,2.630698 0 0 0 0,0.0098 c 0.005,1.28557 0.0618,2.556548 0.13672,3.824219 -0.0818,1.342855 -0.13669,2.693404 -0.13672,4.05664 a 2.630698,2.630698 0 0 0 0,0.0098 c 0.0144,3.792078 0.3685,7.492517 1.01172,11.169922 L 18.33724,199.42383 a 2.630698,2.630698 0 0 0 -0.769531,1.85937 v 26.30469 0.47461 a 2.630698,2.630698 0 0 0 0.662109,1.74609 l 6.591797,7.42774 a 2.630698,2.630698 0 0 0 1.96875,0.88476 l 24.97461,-0.0117 a 2.630698,2.630698 0 0 0 1.857422,-0.77149 l 4.490234,-4.49023 h 4.171875 a 2.630698,2.630698 0 0 0 2.630859,-2.63086 v -7.89063 -15.7832 h 18.41211 a 2.630698,2.630698 0 0 0 2.630859,-2.63086 v -2.62891 h 7.890625 a 2.630698,2.630698 0 0 0 2.630859,-2.63086 v -7.89062 -10.52344 h 2.63086 a 2.630698,2.630698 0 0 0 2.630862,-2.6289 v -2.63086 h 23.67383 a 2.630698,2.630698 0 0 0 2.63086,-2.63086 v -7.89063 -7.89258 h 5.25976 a 2.630698,2.630698 0 0 0 2.63086,-2.6289 v -5.26172 h 10.52148 a 2.630698,2.630698 0 0 0 1.84766,-0.75781 l 13.03125,-12.86329 c 9.83489,5.58195 20.92491,8.65529 32.29688,8.68946 a 2.630698,2.630698 0 0 0 0.008,0 c 36.37787,-0.001 65.92478,-29.5479 65.92578,-65.925784 -4e-5,-1.325413 -0.0515,-2.639134 -0.12891,-3.945312 0.0774,-1.306174 0.12887,-2.619899 0.12891,-3.945313 C 259.56651,33.547903 230.0198,4.0010035 193.64193,4 Z m 0.16406,49.978516 c 5.90848,0 10.81624,3.868443 12.49024,9.205078 -1.67345,5.337561 -6.5811,9.207031 -12.49024,9.207031 -5.90914,0 -10.81678,-3.86947 -12.49023,-9.207031 1.67399,-5.336635 6.58175,-9.205078 12.49023,-9.205078 z" />
    <g
       id="g319725"
       transform="matrix(5.2608696,0,0,5.2608696,527.77672,21.043478)">
      <path
         id="path269305"
         style="opacity:1;fill:url(#linearGradient305365);fill-opacity:1;fill-rule:evenodd;stroke:#876d23;stroke-width:1;stroke-linecap:round;stroke-linejoin:round;stroke-miterlimit:4;stroke-dasharray:none;stroke-opacity:1;stop-color:#000000"
         d="m -64.463541,-2 c -6.6446,1.833e-4 -12.031067,5.3866501 -12.03125,12.03125 0.0046,1.211995 0.147307,2.355794 0.511721,3.511716 v 0 L -97.432291,35 v 3.590412 l 1.252914,1.411978 4.747086,-0.0024 1,-1 h 1 v -5 h 4 v -1 h 2 v -4 h 1 v -1 h 5 v -3.5 h 1.5 V 23 h 2.5 l 2.735346,-2.700054 c 1.873986,1.144158 4.029433,1.755933 6.233404,1.762555 6.6446,-1.84e-4 12.031067,-5.386651 12.03125,-12.031251 C -52.432474,3.3866501 -57.818941,-1.9998167 -64.463541,-2 Z m 0.03125,7 c 1.656854,0 3,1.3431458 3,3 0,1.6568544 -1.343146,3 -3,3 -1.656854,0 -3,-1.3431456 -3,-3 0,-1.6568542 1.343146,-3 3,-3 z"
         sodipodi:nodetypes="ccccccccccccccccccccccccccsssss" />
      <path
         id="path2670"
         style="opacity:1;fill:url(#radialGradient2978);fill-opacity:1;fill-rule:evenodd;stroke:none;stroke-width:1;stroke-linecap:round;stroke-linejoin:round;stroke-miterlimit:4;stroke-dasharray:none;stroke-opacity:1;stop-color:#000000"
         d="M -64.463541,-3.5 A 12.031582,12.031582 0 0 0 -76.494791,8.53125 12.031582,12.031582 0 0 0 -64.463541,20.5625 12.031582,12.031582 0 0 0 -52.432291,8.53125 12.031582,12.031582 0 0 0 -64.463541,-3.5 Z m 0.03125,7 a 3,3 0 0 1 3,3 3,3 0 0 1 -3,3 3,3 0 0 1 -3,-3 3,3 0 0 1 3,-3 z" />
      <path
         id="path153962"
         style="opacity:1;fill:url(#radialGradient154102);fill-opacity:1;fill-rule:evenodd;stroke:none;stroke-width:1;stroke-linecap:round;stroke-linejoin:round;stroke-miterlimit:4;stroke-dasharray:none;stroke-opacity:1;stop-color:#000000"
         d="M -64.463541,-3.5 A 12.031582,12.031582 0 0 0 -76.494791,8.53125 12.031582,12.031582 0 0 0 -64.463541,20.5625 12.031582,12.031582 0 0 0 -52.432291,8.53125 12.031582,12.031582 0 0 0 -64.463541,-3.5 Z m 0.03125,7 a 3,3 0 0 1 3,3 3,3 0 0 1 -3,3 3,3 0 0 1 -3,-3 3,3 0 0 1 3,-3 z" />
      <path
         style="opacity:1;fill:url(#linearGradient69704);fill-opacity:1;stroke:none;stroke-width:1px;stroke-linecap:round;stroke-linejoin:round;stroke-opacity:1"
         d="m -75.432291,12 -22,21.5 v 5 h 6 l 1,-1 h 1 v -5 h 4 v -1 h 2 v -4 h 1 v -1 h 5 V 23 h 1.5 v -1.5 h 2.5 l 2.90934,-3.310493"
         id="path68835"
         sodipodi:nodetypes="ccccccccccccccccccc" />
      <path
         id="path237796"
         style="opacity:1;fill:url(#radialGradient237897);fill-opacity:1;fill-rule:evenodd;stroke:none;stroke-width:1;stroke-linecap:round;stroke-linejoin:round;stroke-miterlimit:4;stroke-dasharray:none;stroke-opacity:1;stop-color:#000000"
         d="M -64.463541,-3.5 A 12.031582,12.031582 0 0 0 -76.494791,8.53125 12.031582,12.031582 0 0 0 -64.463541,20.5625 12.031582,12.031582 0 0 0 -52.432291,8.53125 12.031582,12.031582 0 0 0 -64.463541,-3.5 Z m 0.03125,7 a 3,3 0 0 1 3,3 3,3 0 0 1 -3,3 3,3 0 0 1 -3,-3 3,3 0 0 1 3,-3 z" />
      <path
         style="opacity:1;mix-blend-mode:normal;fill:url(#linearGradient200488);fill-opacity:1;stroke:none;stroke-width:1px;stroke-linecap:butt;stroke-linejoin:miter;stroke-opacity:1;filter:url(#filter200459)"
         d="m -76.03908,13.184594 2.085845,-1.893776 1.349043,1.343261 4.414317,4.395401 -3.122957,2.52598 z"
         id="path199955"
         sodipodi:nodetypes="cccccc" />
      <path
         id="path181377"
         style="opacity:1;fill:none;fill-opacity:1;fill-rule:evenodd;stroke:#876d23;stroke-width:1;stroke-linecap:round;stroke-linejoin:round;stroke-miterlimit:4;stroke-dasharray:none;stroke-opacity:1;stop-color:#000000"
         d="m -77.03125,-3.5 c -6.6446,1.833e-4 -12.031067,5.3866501 -12.03125,12.03125 0.0046,1.2119952 0.147307,2.355794 0.511721,3.511716 v 0 L -110,33.5 v 5 h 6 l 1,-1 h 1 v -5 h 4 v -1 h 2 v -4 h 1 v -1 h 5 V 23 h 1.5 v -1.5 h 2.5 l 2.735346,-2.700054 c 1.873986,1.144158 4.029433,1.755933 6.233404,1.762555 C -70.38665,20.562317 -65.000183,15.17585 -65,8.53125 -65.000183,1.8866501 -70.38665,-3.4998167 -77.03125,-3.5 Z M -77,3.5 c 1.656854,0 3,1.3431458 3,3 0,1.6568542 -1.343146,3 -3,3 -1.656854,0 -3,-1.3431458 -3,-3 0,-1.6568542 1.343146,-3 3,-3 z"
         transform="translate(12.567709)"
         sodipodi:nodetypes="cccccccccccccccccccccccccsssss" />
    </g>
  </g>
</svg>
