<svg version="1.1" viewBox="0 0 48 48" xmlns="http://www.w3.org/2000/svg"><defs><linearGradient id="gradient0-0" x1="-819.2" x2="819.2" gradientTransform="matrix(.0073791 .0073791 .0061344 -.0061344 25.634 14.575)" gradientUnits="userSpaceOnUse"><stop stop-color="#9cf" offset="0"/><stop stop-color="#fff" offset="1"/></linearGradient><linearGradient id="gradient1-6" x1="-819.2" x2="819.2" gradientTransform="matrix(-.0069346 .002756 .0014225 .0035562 27.145 16.665)" gradientUnits="userSpaceOnUse"><stop stop-color="#333" offset="0"/><stop stop-color="#999" offset="1"/></linearGradient><linearGradient id="gradient2-2" x1="-819.2" x2="819.2" gradientTransform="matrix(.0062233 .0022226 .0023115 -.0064011 27.278 16.62)" gradientUnits="userSpaceOnUse"><stop stop-color="#ccc" offset="0"/><stop stop-color="#999" offset=".19216"/><stop stop-color="#fff" offset=".38431"/><stop stop-color="#999" offset=".61176"/><stop stop-color="#ccc" offset=".76471"/><stop stop-color="#fff" offset="1"/></linearGradient><linearGradient id="gradient3-6" x1="-819.2" x2="819.2" gradientTransform="matrix(.0040007 .0087126 .0034673 -.0016003 16.521 18.976)" gradientUnits="userSpaceOnUse"><stop stop-color="#fff" offset="0"/><stop stop-color="#ccc" offset="1"/></linearGradient><linearGradient id="gradient4-1" x1="-819.2" x2="819.2" gradientTransform="matrix(-.011469 .0053343 .0014225 .0031117 25.056 9.8635)" gradientUnits="userSpaceOnUse"><stop stop-color="#ccc" offset="0"/><stop stop-color="#fff" offset="1"/></linearGradient><linearGradient id="gradient5-8" x1="-819.2" x2="819.2" gradientTransform="matrix(.00026671 .0022226 .0019559 -.00017781 29.101 43.647)" gradientUnits="userSpaceOnUse"><stop stop-color="#999" offset="0"/><stop stop-color="#ddd" offset=".21569"/><stop stop-color="#fff" offset="1"/></linearGradient><linearGradient id="gradient6-7" x1="-819.2" x2="819.2" gradientTransform="matrix(-.0052454 -.011202 -.004623 .0022226 30.701 33.779)" gradientUnits="userSpaceOnUse"><stop stop-color="#999" offset="0"/><stop stop-color="#666" offset="1"/></linearGradient><linearGradient id="gradient7-9" x1="-819.2" x2="819.2" gradientTransform="matrix(-.0014225 -.0030228 -.0016892 .00080014 31.501 15.464)" gradientUnits="userSpaceOnUse"><stop stop-color="#999" offset="0"/><stop stop-color="#666" offset="1"/></linearGradient><linearGradient id="gradient8-2" x1="-819.2" x2="819.2" gradientTransform="matrix(.0051565 .001867 .0013336 -.0035562 27.367 19.243)" gradientUnits="userSpaceOnUse"><stop stop-color="#ccc" offset="0"/><stop stop-color="#fff" offset="1"/></linearGradient><linearGradient id="gradient9-0" x1="-819.2" x2="819.2" gradientTransform="matrix(-.0029338 -.0029338 -.0053343 .0053343 37.858 14.664)" gradientUnits="userSpaceOnUse"><stop stop-color="#960" offset="0"/><stop stop-color="#f93" offset="1"/></linearGradient><linearGradient id="gradient10-23" x1="-819.2" x2="819.2" gradientTransform="matrix(.0066678 0 0 -.0067567 37.947 14.575)" gradientUnits="userSpaceOnUse"><stop stop-color="#f93" offset="0"/><stop stop-color="#f93" offset=".19216"/><stop stop-color="#ff9" offset=".38431"/><stop stop-color="#f93" offset=".61176"/><stop stop-color="#fc6" offset=".76471"/><stop stop-color="#ff9" offset="1"/></linearGradient><linearGradient id="gradient11-7" x1="-819.2" x2="819.2" gradientTransform="matrix(.0067567 .0067567 .0026671 -.0026671 28.701 20.488)" gradientUnits="userSpaceOnUse"><stop stop-color="#ff9" offset="0"/><stop stop-color="#fc6" offset="1"/></linearGradient><linearGradient id="gradient12-5" x1="-819.2" x2="819.2" gradientTransform="matrix(-.0088904 .0088904 .0024004 .0024004 33.368 9.0634)" gradientUnits="userSpaceOnUse"><stop stop-color="#ff9" offset="0"/><stop stop-color="#fff" offset="1"/></linearGradient><linearGradient id="gradient13-92" x1="-819.2" x2="819.2" gradientTransform="matrix(.00097795 .0020448 .0017781 -.00088905 48.882 39.38)" gradientUnits="userSpaceOnUse"><stop stop-color="#fc6" offset="0"/><stop stop-color="#ff9" offset=".21569"/><stop stop-color="#fff" offset="1"/></linearGradient><linearGradient id="gradient14" x1="-819.2" x2="819.2" gradientTransform="matrix(-.0087126 -.0087126 -.0036451 .0036451 47.06 29.6)" gradientUnits="userSpaceOnUse"><stop stop-color="#f93" offset="0"/><stop stop-color="#960" offset="1"/></linearGradient><linearGradient id="gradient15" x1="-819.2" x2="819.2" gradientTransform="matrix(-.0024004 -.0024004 -.0013336 .0013336 41.37 11.508)" gradientUnits="userSpaceOnUse"><stop stop-color="#f93" offset="0"/><stop stop-color="#960" offset="1"/></linearGradient><linearGradient id="gradient16" x1="-819.2" x2="819.2" gradientTransform="matrix(.005601 0 0 -.0038229 38.836 17.02)" gradientUnits="userSpaceOnUse"><stop stop-color="#ff9" offset="0"/><stop stop-color="#fff" offset="1"/></linearGradient><linearGradient id="gradient17" x1="-819.2" x2="819.2" gradientTransform="matrix(.016181 0 0 -.0097795 27.679 9.1967)" gradientUnits="userSpaceOnUse"><stop stop-color="#9cf" offset="0"/><stop stop-color="#fff" offset=".44706"/><stop stop-color="#99c" offset="1"/></linearGradient></defs><g transform="translate(-12.568)"><g transform="matrix(.97871 0 0 .97871 3.4963 -.67713)"><path d="m17.01 11.153q-1.378 0.62233-0.80014 2.4449 2.5338 7.6013 19.026 3.2895 0.9335-0.26671 1.0224-1.5114 0.04445-1.2002-1.0224-1.4669-6.9346 1.867-10.58 1.6003-3.8673-0.26671-5.2454-3.0228-1.0224-1.9559-2.4004-1.3336" fill="url(#gradient0-0)" fill-rule="evenodd" stroke-width=".88904"/><path d="m21.942 15.256 0.4463 4.4763 0.57788-0.22226-0.35562-4.4008" fill="#666" fill-rule="evenodd" stroke-width=".88904"/><path d="m17.01 11.153q1.378-0.62233 2.4004 1.3336 1.378 2.756 5.2454 3.0228 3.6451 0.26671 10.58-1.6003 1.0669 0.26671 1.0224 1.4669-0.0889 1.2447-1.0224 1.5114-16.492 4.3119-19.026-3.2895-0.57788-1.8225 0.80014-2.4449z" fill="none" stroke="#666" stroke-linecap="round" stroke-linejoin="round" stroke-width=".97795"/><g fill-rule="evenodd" stroke-width=".88904"><path d="m22.389 19.687 8.6682-2.4893-0.08891-0.57788-8.6237 2.4004 0.04445 0.66678" fill="#666"/><path d="m21.9 15.287 10.313-2.8449 0.31117 5.4232-10.091 2.8894-0.53343-5.4676m-8.357-4.6675 1.6892 14.847 3.245 2.2671 5.6454-1.8225 0.44452 5.3343 2.6671 1.378-1.7781 3.245 2.0448 1.2447-1.8225 3.4228 2.3115 1.2447-1.867 3.5117 4.4008 2.4004 2.756-1.0224 1.378-3.1561-1.9114-20.804 4.4008-1.378-0.40007-14.002-3.8229-1.7781-19.381 5.0676" fill="url(#gradient1-6)"/><path d="m31.057 17.198-8.7126 2.4004 0.15541 1.1673 10.069-2.8121-1.5114-0.75569" fill="url(#gradient8-2)"/><path d="m22.027 16.039 8.7185-2.5303 0.22226-0.62233-9.0297 2.3969 0.0889 0.75569" fill="#666"/><path d="m21.989 15.287 10.313-2.8005 0.31116 5.3787-10.091 2.8894-0.53343-5.4676m6.9346 21.47-1.9114 3.6451 2.356 1.1558-1.9559 3.4673 3.3339 1.8225 1.8225-0.71124 1.1558-2.5782-1.9114-21.293 4.4897-1.4669-0.57788-13.069-18.625 5.2009 1.2891 13.914 6.8012-2.2226 0.53343 6.1789 2.8449 1.5114-1.7781 3.245 2.1337 1.2002" fill="url(#gradient2-2)"/><path d="m32.447 15.186 1.8942 4.0328 0.53908-0.41985-1.8225-4.0007" fill="#960"/><path d="m14.565 11.419 1.5114 13.647 2.3346 1.7642-1.0856-13.778-2.7604-1.6327" fill="url(#gradient3-6)"/><path d="m14.565 11.419 2.756 1.6892 18.403-5.3787-3.1117-1.378-18.048 5.0676" fill="url(#gradient4-1)"/><path d="m25.411 30.801 1.4669 0.71124-0.45704-7.2744-1.3971 0.43561 0.38719 6.1275m1.2974 4.8292 1.1268 0.56537 1.7988-3.3053-1.1002-0.59048m-1.5732 8.1084 1.1558 0.5711 1.8941-3.6127-1.1095-0.61675m-1.5258 8.2843 1.2766 0.6725 1.9157-3.4815-1.236-0.6695" fill="url(#gradient5-8)"/><path d="m31.012 44.67 1.2891-0.44452-2.0448-21.248-1.1558 0.40007 1.9114 21.293" fill="url(#gradient6-7)"/><path d="m30.746 12.931 0.26671 4.1785 1.6447 0.97795-0.35562-5.601-1.5558 0.44452" fill="url(#gradient7-9)"/><path d="m32.435 15.198 8.7126-6.1789 2.1337 4.9787-8.4904 6.1344-2.356-4.9342m21.426 25.604 0.17781-3.4673-8.8904-18.892 3.6895-2.8005-5.1565-12.98-4.223-0.40007-16.447 11.424 6.6234 13.38 3.8229 1.0224 4.7119-3.6451 2.2226 4.8453 3.0228 0.40007-0.57788 3.6451 2.3115 0.44452-0.53343 3.8673 2.6227 0.35562-0.57788 3.9118 4.9787 0.75569 2.2226-1.867" fill="url(#gradient9-0)"/><path d="m32.524 15.198 8.7126-6.1789 2.1782 4.9342-8.5348 6.1789-2.356-4.9342m13.291 21.871 2.6227 0.26671-0.66678 3.9562 3.7784 0.53343c0.50379-0.44452 0.99277-0.87423 1.4669-1.2891l0.17781-2.8005-9.0683-19.381 3.734-2.8894-5.0231-12.047-15.736 11.202 6.0011 12.624 5.601-4.4008 2.6227 5.601 3.2006 0.48897-0.45822 3.5665 2.3252 0.43422-0.57788 4.1341" fill="url(#gradient10-23)"/><path d="m30.301 26.4 2.8894 0.84459-5.8677-12.624-3.1117-0.57788 6.09 12.358" fill="url(#gradient11-7)"/><path d="m34.435 19.154 7.5321-5.4543c-0.01564 0.06301-0.35366-0.51898-0.35366-0.51898l-7.4896 5.3509 0.31117 0.62233" fill="#960"/><path d="m24.211 14.042 3.2006 0.66678 15.425-11.291-3.3784-0.31117-15.247 10.935" fill="url(#gradient12-5)"/><path d="m45.142 32.718 0.57437-3.6468-1.2172-0.12506-0.5791 3.5911m-2.6072-4.0078 1.6003 0.17781-3.0459-6.7774-1.2002 0.9335 2.6459 5.6661m4.4892 8.5457 1.2579 0.12842 0.50104-4.0842-1.1776-0.17553m2.0499 4.3995-0.67394 3.9438 1.3012 0.18915 0.56608-4.0437" fill="url(#gradient13-92)"/><path d="m41.909 13.733-7.6073 5.3768 0.55008 1.0452 8.6639-5.9818" fill="url(#gradient16)"/><path d="m51.06 39.691 1.0224-0.84459-9.1572-19.248-0.9335 0.71124 9.0683 19.381" fill="url(#gradient14)"/><path d="m39.947 9.9524 1.9335 3.8006 1.6596 0.44621-2.304-5.1803-1.2891 0.9335" fill="url(#gradient15)"/><path d="m32.879 15.776 7.2457-5.2454v-0.66678l-7.6013 5.2898 0.35562 0.62233" fill="#960"/><path d="m16.788 3.818q-3.4673 2.6671-1.867 6.979l3.2006-0.88904q-1.4225-2.8894 1.3336-4.623 2.4893-1.6003 6.9346-1.6003 4.4897-0.044452 7.7347 1.5558 3.6895 1.7781 3.7784 4.8008 0.0889 1.8225-1.867 3.3784l-2.7116 1.9559q0.71124 1.8225 1.0224 1.7781 3.245-0.75569 5.1565-3.5117 1.6892-2.4004 1.378-4.4452-0.57788-3.9563-5.4232-6.1789-4.3563-2.0004-9.9129-1.8225-5.6454 0.22226-8.7571 2.6227" fill="url(#gradient17)"/></g><path d="m16.788 3.818q3.1117-2.4004 8.7571-2.6227 5.5565-0.17781 9.9129 1.8225 4.8453 2.2226 5.4232 6.1789 0.31117 2.0448-1.378 4.4452-1.9114 2.756-5.1565 3.5117-0.31116 0.04445-1.0224-1.7781l2.7116-1.9559q1.9559-1.5558 1.867-3.3784-0.0889-3.0228-3.7784-4.8008-3.245-1.6003-7.7347-1.5558-4.4452 0-6.9346 1.6003-2.756 1.7336-1.3336 4.623l-3.2006 0.88904q-1.6003-4.3119 1.867-6.979z" fill="none" stroke="#666" stroke-linecap="round" stroke-linejoin="round" stroke-width=".97795"/></g></g></svg>
