<?xml version="1.0" encoding="UTF-8" standalone="no"?>
<svg
   width="256"
   height="256"
   viewBox="0 0 256 256"
   version="1.1"
   id="svg8"
   inkscape:version="1.1.1 (3bf5ae0d25, 2021-09-20)"
   sodipodi:docname="keys.svg"
   inkscape:export-filename="/media/klapeto/Αρχεία/WindowsXP Theme/Vectors/keys.png"
   inkscape:export-xdpi="512"
   inkscape:export-ydpi="512"
   xmlns:inkscape="http://www.inkscape.org/namespaces/inkscape"
   xmlns:sodipodi="http://sodipodi.sourceforge.net/DTD/sodipodi-0.dtd"
   xmlns="http://www.w3.org/2000/svg"
   xmlns:svg="http://www.w3.org/2000/svg"
   xmlns:rdf="http://www.w3.org/1999/02/22-rdf-syntax-ns#"
   xmlns:cc="http://creativecommons.org/ns#">
  <defs
     id="defs2">
    <linearGradient
       gradientTransform="matrix(0.00737907,0.00737907,0.00613441,-0.00613441,25.633722,14.575442)"
       gradientUnits="userSpaceOnUse"
       id="gradient0-0"
       spreadMethod="pad"
       x1="-819.20001"
       x2="819.20001">
      <stop
         offset="0.0"
         stop-color="#99ccff"
         id="stop1285" />
      <stop
         offset="1.0"
         stop-color="#ffffff"
         id="stop1287" />
    </linearGradient>
    <linearGradient
       gradientTransform="matrix(-0.00693455,0.00275604,0.00142247,0.00355618,27.145099,16.664698)"
       gradientUnits="userSpaceOnUse"
       id="gradient1-6"
       spreadMethod="pad"
       x1="-819.20001"
       x2="819.20001">
      <stop
         offset="0.0"
         stop-color="#333333"
         id="stop1290" />
      <stop
         offset="1.0"
         stop-color="#999999"
         id="stop1292" />
    </linearGradient>
    <linearGradient
       gradientTransform="matrix(0.00622332,0.00222261,0.00231152,-0.00640112,27.278455,16.620246)"
       gradientUnits="userSpaceOnUse"
       id="gradient2-2"
       spreadMethod="pad"
       x1="-819.20001"
       x2="819.20001">
      <stop
         offset="0.0"
         stop-color="#cccccc"
         id="stop1295" />
      <stop
         offset="0.19215686274509805"
         stop-color="#999999"
         id="stop1297" />
      <stop
         offset="0.3843137254901961"
         stop-color="#ffffff"
         id="stop1299" />
      <stop
         offset="0.611764705882353"
         stop-color="#999999"
         id="stop1301" />
      <stop
         offset="0.7647058823529411"
         stop-color="#cccccc"
         id="stop1303" />
      <stop
         offset="1.0"
         stop-color="#ffffff"
         id="stop1305" />
    </linearGradient>
    <linearGradient
       gradientTransform="matrix(0.0040007,0.00871264,0.00346728,-0.00160028,16.521011,18.976215)"
       gradientUnits="userSpaceOnUse"
       id="gradient3-6"
       spreadMethod="pad"
       x1="-819.20001"
       x2="819.20001">
      <stop
         offset="0.0"
         stop-color="#ffffff"
         id="stop1308" />
      <stop
         offset="1.0"
         stop-color="#cccccc"
         id="stop1310" />
    </linearGradient>
    <linearGradient
       gradientTransform="matrix(-0.01146868,0.00533427,0.00142247,0.00311166,25.055843,9.8635038)"
       gradientUnits="userSpaceOnUse"
       id="gradient4-1"
       spreadMethod="pad"
       x1="-819.20001"
       x2="819.20001">
      <stop
         offset="0.0"
         stop-color="#cccccc"
         id="stop1313" />
      <stop
         offset="1.0"
         stop-color="#ffffff"
         id="stop1315" />
    </linearGradient>
    <linearGradient
       gradientTransform="matrix(2.667135e-4,0.00222261,0.0019559,-1.77809e-4,29.100998,43.647214)"
       gradientUnits="userSpaceOnUse"
       id="gradient5-8"
       spreadMethod="pad"
       x1="-819.20001"
       x2="819.20001">
      <stop
         offset="0.0"
         stop-color="#999999"
         id="stop1318" />
      <stop
         offset="0.21568627450980393"
         stop-color="#dddddd"
         id="stop1320" />
      <stop
         offset="1.0"
         stop-color="#ffffff"
         id="stop1322" />
    </linearGradient>
    <linearGradient
       gradientTransform="matrix(-0.00524537,-0.01120197,-0.00462303,0.00222261,30.701279,33.778815)"
       gradientUnits="userSpaceOnUse"
       id="gradient6-7"
       spreadMethod="pad"
       x1="-819.20001"
       x2="819.20001">
      <stop
         offset="0.0"
         stop-color="#999999"
         id="stop1325" />
      <stop
         offset="1.0"
         stop-color="#666666"
         id="stop1327" />
    </linearGradient>
    <linearGradient
       gradientTransform="matrix(-0.00142247,-0.00302275,-0.00168919,8.0014051e-4,31.501419,15.464487)"
       gradientUnits="userSpaceOnUse"
       id="gradient7-9"
       spreadMethod="pad"
       x1="-819.20001"
       x2="819.20001">
      <stop
         offset="0.0"
         stop-color="#999999"
         id="stop1330" />
      <stop
         offset="1.0"
         stop-color="#666666"
         id="stop1332" />
    </linearGradient>
    <linearGradient
       gradientTransform="matrix(0.00515646,0.00186699,0.00133357,-0.00355618,27.36736,19.242929)"
       gradientUnits="userSpaceOnUse"
       id="gradient8-2"
       spreadMethod="pad"
       x1="-819.20001"
       x2="819.20001">
      <stop
         offset="0.0"
         stop-color="#cccccc"
         id="stop1335" />
      <stop
         offset="1.0"
         stop-color="#ffffff"
         id="stop1337" />
    </linearGradient>
    <linearGradient
       gradientTransform="matrix(-0.00293385,-0.00293385,-0.00533427,0.00533427,37.858091,14.664347)"
       gradientUnits="userSpaceOnUse"
       id="gradient9-0"
       spreadMethod="pad"
       x1="-819.20001"
       x2="819.20001">
      <stop
         offset="0.0"
         stop-color="#996600"
         id="stop1340" />
      <stop
         offset="1.0"
         stop-color="#ff9933"
         id="stop1342" />
    </linearGradient>
    <linearGradient
       gradientTransform="matrix(0.00666784,0,0,-0.00675674,37.946996,14.575442)"
       gradientUnits="userSpaceOnUse"
       id="gradient10-23"
       spreadMethod="pad"
       x1="-819.20001"
       x2="819.20001">
      <stop
         offset="0.0"
         stop-color="#ff9933"
         id="stop1345" />
      <stop
         offset="0.19215686274509805"
         stop-color="#ff9933"
         id="stop1347" />
      <stop
         offset="0.3843137254901961"
         stop-color="#ffff99"
         id="stop1349" />
      <stop
         offset="0.611764705882353"
         stop-color="#ff9933"
         id="stop1351" />
      <stop
         offset="0.7647058823529411"
         stop-color="#ffcc66"
         id="stop1353" />
      <stop
         offset="1.0"
         stop-color="#ffff99"
         id="stop1355" />
    </linearGradient>
    <linearGradient
       gradientTransform="matrix(0.00675674,0.00675674,0.00266714,-0.00266714,28.700927,20.487592)"
       gradientUnits="userSpaceOnUse"
       id="gradient11-7"
       spreadMethod="pad"
       x1="-819.20001"
       x2="819.20001">
      <stop
         offset="0.0"
         stop-color="#ffff99"
         id="stop1358" />
      <stop
         offset="1.0"
         stop-color="#ffcc66"
         id="stop1360" />
    </linearGradient>
    <linearGradient
       gradientTransform="matrix(-0.00889045,0.00889045,0.00240042,0.00240042,33.368414,9.0633633)"
       gradientUnits="userSpaceOnUse"
       id="gradient12-5"
       spreadMethod="pad"
       x1="-819.20001"
       x2="819.20001">
      <stop
         offset="0.0"
         stop-color="#ffff99"
         id="stop1363" />
      <stop
         offset="1.0"
         stop-color="#ffffff"
         id="stop1365" />
    </linearGradient>
    <linearGradient
       gradientTransform="matrix(9.7794951e-4,0.0020448,0.00177809,-8.8904501e-4,48.882249,39.379798)"
       gradientUnits="userSpaceOnUse"
       id="gradient13-92"
       spreadMethod="pad"
       x1="-819.20001"
       x2="819.20001">
      <stop
         offset="0.0"
         stop-color="#ffcc66"
         id="stop1368" />
      <stop
         offset="0.21568627450980393"
         stop-color="#ffff99"
         id="stop1370" />
      <stop
         offset="1.0"
         stop-color="#ffffff"
         id="stop1372" />
    </linearGradient>
    <linearGradient
       gradientTransform="matrix(-0.00871264,-0.00871264,-0.00364508,0.00364508,47.059707,29.600303)"
       gradientUnits="userSpaceOnUse"
       id="gradient14"
       spreadMethod="pad"
       x1="-819.20001"
       x2="819.20001">
      <stop
         offset="0.0"
         stop-color="#ff9933"
         id="stop1375" />
      <stop
         offset="1.0"
         stop-color="#996600"
         id="stop1377" />
    </linearGradient>
    <linearGradient
       gradientTransform="matrix(-0.00240042,-0.00240042,-0.00133357,0.00133357,41.369819,11.508237)"
       gradientUnits="userSpaceOnUse"
       id="gradient15"
       spreadMethod="pad"
       x1="-819.20001"
       x2="819.20001">
      <stop
         offset="0.0"
         stop-color="#ff9933"
         id="stop1380" />
      <stop
         offset="1.0"
         stop-color="#996600"
         id="stop1382" />
    </linearGradient>
    <linearGradient
       gradientTransform="matrix(0.00560098,0,0,-0.00382289,38.836041,17.020316)"
       gradientUnits="userSpaceOnUse"
       id="gradient16"
       spreadMethod="pad"
       x1="-819.20001"
       x2="819.20001">
      <stop
         offset="0.0"
         stop-color="#ffff99"
         id="stop1385" />
      <stop
         offset="1.0"
         stop-color="#ffffff"
         id="stop1387" />
    </linearGradient>
    <linearGradient
       gradientTransform="matrix(0.01618062,0,0,-0.0097795,27.678526,9.1967201)"
       gradientUnits="userSpaceOnUse"
       id="gradient17"
       spreadMethod="pad"
       x1="-819.20001"
       x2="819.20001">
      <stop
         offset="0.0"
         stop-color="#99ccff"
         id="stop1390" />
      <stop
         offset="0.4470588235294118"
         stop-color="#ffffff"
         id="stop1392" />
      <stop
         offset="1.0"
         stop-color="#9999cc"
         id="stop1394" />
    </linearGradient>
    <filter
       inkscape:collect="always"
       style="color-interpolation-filters:sRGB"
       id="filter1275"
       x="-0.051853678"
       y="-0.044679498"
       width="1.1037074"
       height="1.089359">
      <feGaussianBlur
         inkscape:collect="always"
         stdDeviation="4.5608409"
         id="feGaussianBlur1277" />
    </filter>
  </defs>
  <sodipodi:namedview
     showguides="false"
     id="base"
     pagecolor="#ffffff"
     bordercolor="#666666"
     borderopacity="1.0"
     inkscape:pageopacity="0.0"
     inkscape:pageshadow="2"
     inkscape:zoom="1"
     inkscape:cx="-730"
     inkscape:cy="-243"
     inkscape:document-units="px"
     inkscape:current-layer="layer1"
     inkscape:document-rotation="0"
     showgrid="false"
     units="px"
     inkscape:window-width="3840"
     inkscape:window-height="2045"
     inkscape:window-x="3840"
     inkscape:window-y="0"
     inkscape:window-maximized="1"
     inkscape:snap-bbox="true"
     inkscape:bbox-nodes="true"
     fit-margin-top="0"
     fit-margin-left="0"
     fit-margin-right="0"
     fit-margin-bottom="0"
     inkscape:bbox-paths="false"
     inkscape:snap-global="true"
     inkscape:pagecheckerboard="0"
     width="256px">
    <inkscape:grid
       type="xygrid"
       id="grid1504"
       originx="0"
       originy="0" />
    <inkscape:grid
       type="xygrid"
       id="grid1507"
       spacingx="0.5"
       spacingy="0.5"
       originx="0"
       originy="0" />
  </sodipodi:namedview>
  <metadata
     id="metadata5">
    <rdf:RDF>
      <cc:Work
         rdf:about="" />
    </rdf:RDF>
  </metadata>
  <g
     inkscape:label="Layer 1"
     inkscape:groupmode="layer"
     id="layer1"
     transform="translate(-12.567709)">
    <path
       d="m 109.77123,4.0229702 c -2.39208,-0.041743 -4.81473,-0.027638 -7.26928,0.050907 a 2.5491391,2.5491391 0 0 0 -0.0203,0 C 82.520882,4.8597317 66.747356,9.4923835 55.373768,18.266292 c -6.36281,4.894469 -10.586282,10.741922 -12.370003,17.409633 -1.565027,5.850219 -1.12703,12.256915 0.946837,19.038602 l -3.929893,1.02829 8.806627,77.386323 16.910761,11.82023 29.433477,-9.49895 2.311107,27.80451 13.907349,7.18784 -9.26478,16.91076 10.65959,6.48534 -9.50913,17.84742 12.05439,6.48534 -9.7331,18.30557 22.93795,12.51254 14.36549,-5.3247 7.18784,-16.45262 -7.422,-80.71553 1.16064,0.30542 24.56693,-18.99789 11.58605,25.25925 15.75013,2.08712 -3.00342,18.99787 12.04421,2.32129 -2.77943,20.15852 13.67318,1.85296 -3.0136,20.39268 25.95155,3.92989 11.58605,-9.72292 0.92649,-18.08158 L 204.77082,96.518007 224.00287,81.928531 197.12483,14.26513 175.11335,12.178011 165.02392,19.182588 C 162.07014,17.25161 158.88067,15.429515 155.32135,13.796799 141.72532,7.5537223 126.51582,4.3151912 109.77123,4.0229702 Z m -2.78961,18.1223078 a 2.5491391,2.5491391 0 0 0 0.0308,0 c 15.29338,-0.151418 28.31631,2.488608 39.16658,7.839425 a 2.5491391,2.5491391 0 0 0 0.0204,0.01016 c 0.66167,0.318877 1.22953,0.660236 1.85295,0.987565 l -1.38479,0.957036 -5.61997,-2.616536 -75.614812,19.771642 c -1.554155,-3.815237 -1.886779,-7.071327 -1.069035,-9.906179 0.946415,-3.280905 3.394188,-6.301905 7.829244,-9.091697 a 2.5491391,2.5491391 0 0 0 0.02033,-0.02038 c 8.070207,-5.187986 19.626428,-7.931035 34.768343,-7.931036 z m 76.04243,40.663199 3.2274,6.342808 -13.77499,9.845098 c 1.76561,-1.852357 3.42852,-3.838275 4.948,-6.027195 l 0.0105,-0.02033 c 2.40979,-3.427287 4.2698,-6.809591 5.58941,-10.14035 z M 88.838951,98.381143 c 0.279976,0.03388 0.552079,0.07058 0.834848,0.101805 l -0.804306,0.223989 z"
       style="fill:#212121;fill-opacity:1;stroke-width:4.63433;filter:url(#filter1275)"
       id="path1686" />
    <g
       transform="matrix(5.2127088,0,0,5.2127088,-35.572984,-3.6064301)"
       id="g1567">
      <path
         d="m 17.009986,11.152619 q -1.37802,0.622332 -0.800141,2.444874 2.533778,7.601335 19.025563,3.289466 0.933498,-0.266713 1.022402,-1.511376 0.04445,-1.200211 -1.022402,-1.466924 -6.934551,1.866994 -10.579635,1.600281 -3.867346,-0.266714 -5.245366,-3.022753 -1.022402,-1.955899 -2.400421,-1.333568"
         fill="url(#gradient0)"
         fill-rule="evenodd"
         stroke="none"
         id="path1231"
         style="fill:url(#gradient0-0);stroke-width:0.889045" />
      <path
         sodipodi:nodetypes="cccc"
         d="m 21.942409,15.255564 0.446299,4.476339 0.577879,-0.222261 -0.355618,-4.400773"
         fill="#666666"
         fill-rule="evenodd"
         stroke="none"
         id="path1255"
         style="stroke-width:0.889045" />
      <path
         d="m 17.009986,11.152619 q 1.378019,-0.622331 2.400421,1.333568 1.37802,2.756039 5.245366,3.022753 3.645084,0.266713 10.579635,-1.600281 1.066854,0.266713 1.022402,1.466924 -0.0889,1.244663 -1.022402,1.511376 -16.491785,4.311869 -19.025563,-3.289466 -0.577879,-1.822542 0.800141,-2.444874 z"
         fill="none"
         stroke="#666666"
         stroke-linecap="round"
         stroke-linejoin="round"
         stroke-width="0.97795"
         id="path1233" />
      <path
         d="m 22.388708,19.687451 8.668189,-2.489326 -0.08891,-0.577879 -8.623736,2.400421 0.04445,0.666784"
         fill="#666666"
         fill-rule="evenodd"
         stroke="none"
         id="path1251"
         style="stroke-width:0.889045" />
      <path
         d="m 21.899733,15.286678 10.312922,-2.844944 0.311166,5.423175 -10.090661,2.889396 -0.533427,-5.467627 m -8.357023,-4.667486 1.689186,14.847052 3.245014,2.267065 5.645436,-1.822543 0.444522,5.33427 2.667135,1.37802 -1.77809,3.245014 2.044804,1.244663 -1.822543,3.422824 2.311517,1.244663 -1.866994,3.511727 4.400773,2.400422 2.756039,-1.022402 1.37802,-3.15611 -1.911447,-20.803653 4.400773,-1.37802 L 36.746785,7.3297256 32.923891,5.5516355 13.54271,10.619192"
         fill="url(#gradient1)"
         fill-rule="evenodd"
         stroke="none"
         id="path1235"
         style="fill:url(#gradient1-6);stroke-width:0.889045" />
      <path
         sodipodi:nodetypes="ccccc"
         d="m 31.056897,17.198125 -8.712641,2.400422 0.155408,1.167326 10.068609,-2.81206 -1.511376,-0.755688"
         fill="url(#gradient8)"
         fill-rule="evenodd"
         stroke="none"
         id="path1249"
         style="fill:url(#gradient8-2);stroke-width:0.889045" />
      <path
         sodipodi:nodetypes="ccccc"
         d="m 22.027229,16.038867 8.718502,-2.530279 0.222261,-0.622331 -9.029667,2.396922 0.0889,0.755688"
         fill="#666666"
         fill-rule="evenodd"
         stroke="none"
         id="path1253"
         style="stroke-width:0.889045" />
      <path
         d="m 21.988638,15.286678 10.312922,-2.800491 0.311165,5.378722 -10.09066,2.889396 -0.533427,-5.467627 m 6.934551,21.470437 -1.911447,3.645085 2.355969,1.155758 -1.955899,3.467276 3.333919,1.822542 1.822542,-0.711236 1.155759,-2.57823 -1.911447,-21.292628 4.489677,-1.466925 -0.577879,-13.0689612 -18.625493,5.2009132 1.289115,13.913555 6.801195,-2.222613 0.533427,6.178863 2.844944,1.511376 -1.77809,3.245015 2.133708,1.20021"
         fill="url(#gradient2)"
         fill-rule="evenodd"
         stroke="none"
         id="path1237"
         style="fill:url(#gradient2-2);stroke-width:0.889045" />
      <path
         d="m 32.44656,15.185503 1.894153,4.032751 0.539077,-0.419848 -1.822542,-4.000702"
         fill="#996600"
         fill-rule="evenodd"
         stroke="none"
         id="path1277"
         style="stroke-width:0.889045"
         sodipodi:nodetypes="cccc" />
      <path
         sodipodi:nodetypes="ccccc"
         d="m 14.565112,11.419333 1.511376,13.646841 2.334584,1.76417 -1.085587,-13.778327 -2.760373,-1.632684"
         fill="url(#gradient3)"
         fill-rule="evenodd"
         stroke="none"
         id="path1239"
         style="fill:url(#gradient3-6);stroke-width:0.889045" />
      <path
         d="M 14.565112,11.419333 17.321151,13.108518 35.724383,7.7297958 32.612725,6.351776 14.565112,11.419333"
         fill="url(#gradient4)"
         fill-rule="evenodd"
         stroke="none"
         id="path1241"
         style="fill:url(#gradient4-1);stroke-width:0.889045" />
      <path
         sodipodi:nodetypes="ccccccccccccccccc"
         d="m 25.411461,30.800514 1.466924,0.711236 -0.457043,-7.274366 -1.397073,0.435611 0.387192,6.127519 m 1.2974,4.829227 1.126806,0.565366 1.798758,-3.305337 -1.100225,-0.590481 m -1.573221,8.108421 1.155801,0.571101 1.894059,-3.612657 -1.109508,-0.61675 m -1.525761,8.284319 1.276637,0.672504 1.915715,-3.481485 -1.236007,-0.669496"
         fill="url(#gradient5)"
         fill-rule="evenodd"
         stroke="none"
         id="path1243"
         style="fill:url(#gradient5-8);stroke-width:0.889045" />
      <path
         d="m 31.012444,44.669616 1.289116,-0.444523 -2.044804,-21.248175 -1.155758,0.40007 1.911446,21.292628"
         fill="url(#gradient6)"
         fill-rule="evenodd"
         stroke="none"
         id="path1245"
         style="fill:url(#gradient6-7);stroke-width:0.889045" />
      <path
         d="m 30.745731,12.930709 0.266713,4.178512 1.644734,0.977949 -0.355618,-5.600983 -1.555829,0.444522"
         fill="url(#gradient7)"
         fill-rule="evenodd"
         stroke="none"
         id="path1247"
         style="fill:url(#gradient7-9);stroke-width:0.889045" />
      <path
         d="m 32.434916,15.197774 8.712642,-6.1788629 2.133708,4.9786519 -8.49038,6.134411 -2.35597,-4.9342 M 53.860901,40.80227 54.03871,37.334995 45.14826,18.442788 48.837797,15.642296 43.681336,2.6622393 39.458372,2.262169 23.011039,13.686397 l 6.623386,13.380128 3.822893,1.022402 4.711939,-3.645085 2.222612,4.845295 3.022753,0.400071 -0.577879,3.645084 2.311517,0.444523 -0.533427,3.867345 2.622683,0.355618 -0.577879,3.911798 4.978652,0.755689 2.222612,-1.866995"
         fill="url(#gradient9)"
         fill-rule="evenodd"
         stroke="none"
         id="path1257"
         style="fill:url(#gradient9-0);stroke-width:0.889045" />
      <path
         d="m 32.523821,15.197774 8.712641,-6.1788629 2.17816,4.9341999 -8.534832,6.178863 -2.355969,-4.9342 m 13.291223,21.870507 2.622683,0.266714 -0.666784,3.95625 3.778441,0.533427 c 0.503792,-0.444523 0.992767,-0.874228 1.466924,-1.289115 L 53.194117,37.735065 44.125858,18.353884 47.859847,15.464487 42.836743,3.4179275 27.100646,14.619895 33.1017,27.244334 l 5.600984,-4.400773 2.622683,5.600984 3.200562,0.488974 -0.45822,3.566481 2.325214,0.434222 -0.577879,4.134059"
         fill="url(#gradient10)"
         fill-rule="evenodd"
         stroke="none"
         id="path1259"
         style="fill:url(#gradient10-23);stroke-width:0.889045"
         sodipodi:nodetypes="cccccccccccccccccccccc" />
      <path
         d="m 30.301208,26.399741 2.889397,0.844593 -5.867697,-12.624439 -3.111658,-0.57788 6.089958,12.357726"
         fill="url(#gradient11)"
         fill-rule="evenodd"
         stroke="none"
         id="path1261"
         style="fill:url(#gradient11-7);stroke-width:0.889045" />
      <path
         d="m 34.435268,19.154024 7.532082,-5.454265 c -0.01564,0.06301 -0.353664,-0.518982 -0.353664,-0.518982 l -7.489584,5.350916 0.311166,0.622331"
         fill="#996600"
         fill-rule="evenodd"
         stroke="none"
         id="path1273"
         style="stroke-width:0.889045"
         sodipodi:nodetypes="ccccc" />
      <path
         d="M 24.21125,14.042015 27.411812,14.708799 42.836743,3.4179275 39.458372,3.1067618 24.21125,14.042015"
         fill="url(#gradient12)"
         fill-rule="evenodd"
         stroke="none"
         id="path1263"
         style="fill:url(#gradient12-5);stroke-width:0.889045" />
      <path
         sodipodi:nodetypes="ccccccccccccccccc"
         d="m 45.142332,32.718319 0.574373,-3.646794 -1.217212,-0.125059 -0.579098,3.591101 m -2.607172,-4.007781 1.600281,0.177809 -3.045941,-6.777446 -1.200211,0.933497 2.645871,5.66614 m 4.489215,8.545725 1.257932,0.128418 0.501039,-4.084185 -1.177601,-0.175533 m 2.049873,4.39952 -0.673937,3.9438 1.30121,0.189146 0.566082,-4.043688"
         fill="url(#gradient13)"
         fill-rule="evenodd"
         stroke="none"
         id="path1265"
         style="fill:url(#gradient13-92);stroke-width:0.889045" />
      <path
         style="fill:url(#gradient16);stroke-width:0.889045"
         d="m 41.909214,13.732765 -7.607303,5.376807 0.550083,1.04525 8.663896,-5.981786"
         fill="url(#gradient16)"
         fill-rule="evenodd"
         stroke="none"
         id="path1271"
         sodipodi:nodetypes="cccc" />
      <path
         style="fill:url(#gradient14);stroke-width:0.889045"
         d="m 51.060409,39.690964 1.022402,-0.844593 -9.157163,-19.247824 -0.933498,0.711236 9.068259,19.381181"
         fill="url(#gradient14)"
         fill-rule="evenodd"
         stroke="none"
         id="path1267" />
      <path
         style="fill:url(#gradient15);stroke-width:0.889045"
         d="m 39.947347,9.9524083 1.933491,3.8005647 1.659632,0.446208 -2.304008,-5.1802699 -1.289115,0.9334972"
         fill="url(#gradient15)"
         fill-rule="evenodd"
         stroke="none"
         id="path1269"
         sodipodi:nodetypes="ccccc" />
      <path
         d="m 32.879439,15.775653 7.245717,-5.245365 V 9.8635038 l -7.601335,5.2898182 0.355618,0.622331"
         fill="#996600"
         fill-rule="evenodd"
         stroke="none"
         id="path1275"
         style="stroke-width:0.889045" />
      <path
         style="fill:url(#gradient17);stroke-width:0.889045"
         d="M 16.787724,3.8179978 Q 13.320449,6.4851328 14.92073,10.797001 L 18.121292,9.9079561 Q 16.69882,7.0185598 19.454859,5.284922 21.944185,3.684641 26.38941,3.684641 q 4.489678,-0.044452 7.734692,1.5558288 3.689537,1.77809 3.778441,4.8008432 0.0889,1.822542 -1.866994,3.378371 l -2.711588,1.955899 q 0.711237,1.822542 1.022402,1.77809 3.245015,-0.755688 5.156461,-3.511728 1.689186,-2.400421 1.37802,-4.4452249 Q 40.302965,5.2404698 35.45767,3.0178573 31.101349,1.017506 25.544818,1.195315 19.899382,1.4175762 16.787724,3.8179978"
         fill="url(#gradient17)"
         fill-rule="evenodd"
         stroke="none"
         id="path1279" />
      <path
         d="m 16.787724,3.8179978 q 3.111658,-2.4004216 8.757094,-2.6226828 5.556531,-0.177809 9.912852,1.8225423 4.845295,2.2226125 5.423174,6.1788628 0.311166,2.0448039 -1.37802,4.4452249 -1.911446,2.75604 -5.156461,3.511728 -0.311165,0.04445 -1.022402,-1.77809 l 2.711588,-1.955899 q 1.955899,-1.555829 1.866994,-3.378371 -0.0889,-3.0227532 -3.778441,-4.8008432 -3.245014,-1.600281 -7.734692,-1.5558288 -4.445225,0 -6.934551,1.600281 -2.756039,1.7336378 -1.333567,4.6230341 L 14.92073,10.797001 Q 13.320449,6.4851328 16.787724,3.8179978 Z"
         fill="none"
         stroke="#666666"
         stroke-linecap="round"
         stroke-linejoin="round"
         stroke-width="0.97795"
         id="path1281" />
    </g>
  </g>
</svg>
