<?xml version="1.0" encoding="UTF-8" standalone="no"?>
<svg
   width="48"
   height="48"
   version="1.1"
   viewBox="0 0 48 48"
   id="svg119"
   sodipodi:docname="windows-logo.svg"
   inkscape:version="1.3.2 (1:1.3.2+202311252150+091e20ef0f)"
   xmlns:inkscape="http://www.inkscape.org/namespaces/inkscape"
   xmlns:sodipodi="http://sodipodi.sourceforge.net/DTD/sodipodi-0.dtd"
   xmlns:xlink="http://www.w3.org/1999/xlink"
   xmlns="http://www.w3.org/2000/svg"
   xmlns:svg="http://www.w3.org/2000/svg">
  <sodipodi:namedview
     id="namedview119"
     pagecolor="#ffffff"
     bordercolor="#000000"
     borderopacity="0.25"
     inkscape:showpageshadow="2"
     inkscape:pageopacity="0.0"
     inkscape:pagecheckerboard="0"
     inkscape:deskcolor="#d1d1d1"
     showgrid="false"
     inkscape:zoom="22.627417"
     inkscape:cx="28.483145"
     inkscape:cy="37.896504"
     inkscape:window-width="3840"
     inkscape:window-height="2058"
     inkscape:window-x="0"
     inkscape:window-y="0"
     inkscape:window-maximized="1"
     inkscape:current-layer="svg119" />
  <defs
     id="defs35">
    <path
       id="XMLID_20_-2"
       d="m35.432 7.781-0.182-0.052c0.07-0.238 0.234-0.323 0.298-0.35l0.027-8e-3c1e-3 1e-3 -0.06 0.126-0.143 0.41z" />
    <path
       id="XMLID_35_-2"
       d="m88.131 83.682c14.313 9.633 29.822 16.309 62.76 4.969l-15.703 54.578c-28.98 12.742-48.541 5.09-63.201-3.77z" />
    <linearGradient
       id="linearGradient4962"
       x1="159.87"
       x2="100.46"
       y1="57.84"
       y2="40.804"
       gradientTransform="matrix(1 0 0 .95766 13.927 .77576)"
       gradientUnits="userSpaceOnUse">
      <stop
         stop-color="#7ec400"
         offset="0"
         id="stop1" />
      <stop
         stop-color="#a6fe0a"
         offset=".333"
         id="stop2" />
      <stop
         stop-color="#6eaa00"
         offset=".667"
         id="stop3" />
      <stop
         stop-color="#4b6700"
         offset="1"
         id="stop4" />
    </linearGradient>
    <linearGradient
       id="linearGradient4970"
       x1="70.161"
       x2="10.682"
       y1="110.96"
       y2="93.901"
       gradientTransform="matrix(1 0 0 .95766 13.927 .77576)"
       gradientUnits="userSpaceOnUse">
      <stop
         stop-color="#141fb8"
         offset="0"
         id="stop5" />
      <stop
         stop-color="#6585fe"
         offset=".4"
         id="stop6" />
      <stop
         stop-color="#a1b6ff"
         offset=".65817"
         id="stop7" />
      <stop
         stop-color="#3b66ff"
         offset="1"
         id="stop8" />
    </linearGradient>
    <linearGradient
       id="linearGradient3028-1"
       x1="170.77"
       x2="171.41"
       y1="20.577"
       y2="21.652"
       gradientTransform="matrix(1.3402,0,0,1.2835,22.492,26.082)"
       gradientUnits="userSpaceOnUse">
      <stop
         stop-color="#83b641"
         offset="0"
         id="stop9" />
      <stop
         stop-color="#595e48"
         offset="1"
         id="stop10" />
    </linearGradient>
    <linearGradient
       id="linearGradient3030-2"
       x1="172.43"
       x2="172.03"
       y1="21.409"
       y2="21.895"
       gradientTransform="matrix(1.3402,0,0,1.2835,22.492,26.082)"
       gradientUnits="userSpaceOnUse">
      <stop
         stop-color="#8aa742"
         offset="0"
         id="stop11" />
      <stop
         stop-color="#595e48"
         offset="1"
         id="stop12" />
    </linearGradient>
    <linearGradient
       id="linearGradient3032-0"
       x1="173.04"
       x2="173.04"
       y1="21.805"
       y2="22.834"
       gradientTransform="matrix(1.3402,0,0,1.2835,22.492,26.082)"
       gradientUnits="userSpaceOnUse">
      <stop
         stop-color="#8aa742"
         offset="0"
         id="stop13" />
      <stop
         stop-color="#767e47"
         offset="1"
         id="stop14" />
    </linearGradient>
    <linearGradient
       id="linearGradient3034-2"
       x1="155.32"
       x2="153.91"
       y1="77.938"
       y2="77.839"
       gradientTransform="matrix(1.3402,0,0,1.2835,22.492,26.082)"
       gradientUnits="userSpaceOnUse">
      <stop
         stop-color="#767e47"
         offset="0"
         id="stop15" />
      <stop
         stop-color="#8aa742"
         offset="1"
         id="stop16" />
    </linearGradient>
    <linearGradient
       id="linearGradient3036-8"
       x1="155.98"
       x2="155.07"
       y1="78.063"
       y2="79.075"
       gradientTransform="matrix(1.3402,0,0,1.2835,22.492,26.082)"
       gradientUnits="userSpaceOnUse">
      <stop
         stop-color="#767e47"
         offset="0"
         id="stop17" />
      <stop
         stop-color="#595e48"
         offset="1"
         id="stop18" />
    </linearGradient>
    <linearGradient
       id="linearGradient3044-0"
       x1="163.59"
       x2="162.09"
       y1="49.529"
       y2="49.1"
       gradientTransform="matrix(1.3402,0,0,1.2835,22.492,26.082)"
       gradientUnits="userSpaceOnUse">
      <stop
         stop-color="#595e48"
         offset="0"
         id="stop19" />
      <stop
         stop-color="#83b641"
         offset="1"
         id="stop20" />
    </linearGradient>
    <linearGradient
       id="linearGradient3046-4"
       x1="16.247"
       x2="16.247"
       y1="74.212"
       y2="74.621"
       gradientTransform="matrix(0.26554723,0,0,0.25430396,1.9767221e-4,4.2792676)"
       gradientUnits="userSpaceOnUse">
      <stop
         stop-color="#76a5d8"
         offset="0"
         id="stop21" />
      <stop
         stop-color="#2e499e"
         offset="1"
         id="stop22" />
    </linearGradient>
    <clipPath
       id="XMLID_56_-9-6">
      <use
         width="812.04401"
         height="152.966"
         xlink:href="#XMLID_20_-2"
         id="use22" />
    </clipPath>
    <linearGradient
       id="linearGradient3054-6"
       x1="151.23"
       x2="151.88"
       y1="88.142"
       y2="89.226"
       gradientTransform="matrix(1,0,0,0.95766,13.927,0.77576)"
       gradientUnits="userSpaceOnUse">
      <stop
         stop-color="#ffcd02"
         offset=".006"
         id="stop23" />
      <stop
         stop-color="#a87c3c"
         offset="1"
         id="stop24" />
    </linearGradient>
    <linearGradient
       id="linearGradient3062-6"
       x1="144.3"
       x2="142.9"
       y1="116.28"
       y2="115.88"
       gradientTransform="matrix(1,0,0,0.95766,13.927,0.77576)"
       gradientUnits="userSpaceOnUse">
      <stop
         stop-color="#a87c3c"
         offset="0"
         id="stop25" />
      <stop
         stop-color="#ffd200"
         offset="1"
         id="stop26" />
    </linearGradient>
    <clipPath
       id="XMLID_70_-70-7">
      <use
         width="812.04401"
         height="152.966"
         xlink:href="#XMLID_35_-2"
         id="use26" />
    </clipPath>
    <linearGradient
       id="linearGradient7243"
       x1=".187"
       x2="63.144"
       y1="129.19"
       y2="129.19"
       gradientTransform="matrix(0.26554723,0,0,0.25430396,42.45403,-129.01104)"
       gradientUnits="userSpaceOnUse"
       xlink:href="#XMLID_52_-7" />
    <linearGradient
       id="linearGradient7245"
       x1="140.97"
       x2="81.423"
       y1="123.62"
       y2="106.55"
       gradientUnits="userSpaceOnUse">
      <stop
         stop-color="#ffc907"
         offset="0"
         id="stop27" />
      <stop
         stop-color="#fecc00"
         offset=".167"
         id="stop28" />
      <stop
         stop-color="#ffd952"
         offset=".333"
         id="stop29" />
      <stop
         stop-color="#caa200"
         offset=".625"
         id="stop30" />
      <stop
         stop-color="#987f00"
         offset="1"
         id="stop31" />
    </linearGradient>
    <linearGradient
       id="linearGradient18448"
       x1="102.03"
       x2="165.13"
       y1="85.904"
       y2="85.904"
       gradientUnits="userSpaceOnUse"
       xlink:href="#linearGradient11674" />
    <linearGradient
       id="linearGradient18456"
       x1="182.9"
       x2="122.36"
       y1="26.357"
       y2="17.877"
       gradientTransform="matrix(1.3402,0,0,1.3402,3.8272,25.042)"
       gradientUnits="userSpaceOnUse"
       xlink:href="#linearGradient4962" />
    <linearGradient
       id="linearGradient18464"
       x1="104.45"
       x2="44.978"
       y1="38.419"
       y2="23.168"
       gradientTransform="matrix(1.3402,0,0,1.3402,3.8272,25.042)"
       gradientUnits="userSpaceOnUse">
      <stop
         stop-color="#922204"
         offset="0"
         id="stop32" />
      <stop
         stop-color="#fe6a0b"
         offset=".4"
         id="stop33" />
      <stop
         stop-color="#fea960"
         offset=".66487"
         id="stop34" />
      <stop
         stop-color="#f66911"
         offset="1"
         id="stop35" />
    </linearGradient>
    <linearGradient
       id="linearGradient18472"
       x1="93.274"
       x2="30.159"
       y1="72.666"
       y2="75.396"
       gradientUnits="userSpaceOnUse"
       xlink:href="#linearGradient4970"
       gradientTransform="matrix(0.26554723,0,0,0.26554723,-3.6980786,4.0732667)" />
    <linearGradient
       id="linearGradient3572"
       x1="159.87"
       x2="100.46"
       y1="57.84"
       y2="40.804"
       gradientTransform="matrix(1.3402,0,0,1.2835,22.492,26.082)"
       gradientUnits="userSpaceOnUse"
       xlink:href="#linearGradient4962" />
    <linearGradient
       id="linearGradient3574"
       x1="70.161"
       x2="10.682"
       y1="110.96"
       y2="93.901"
       gradientTransform="matrix(0.26554723,0,0,0.25430396,1.9767221e-4,4.2792676)"
       gradientUnits="userSpaceOnUse"
       xlink:href="#linearGradient4970" />
  </defs>
  <g
     id="g120">
    <g
       stroke-width="1.3115"
       id="g37"
       transform="matrix(0.19814,0,0,0.19814,-4.4564,-0.35754)">
      <path
         d="m 165.46,48.156 c 0.26215,-0.03611 -0.53415,0.11942 -0.88997,0.33505 -0.35207,0.23492 -1.4273,0.46163 -1.6543,0.95638 l -0.0366,0.02617 -21.617,71.723 c -0.36815,1.0119 0.41318,1.5388 0.59419,1.6464 1.9027,1.2273 3.8988,2.4191 6.0509,3.5749 14.521,8.5058 32.826,14.372 57.644,9.5994 8.345,-1.319 17.104,-3.785 26.292,-7.7803 0.12866,-0.0642 0.51313,-0.28639 0.73292,-0.67271 l 21.96,-72.115 0.003,0.0027 c 9e-4,-0.0039 -8.7e-4,-0.0066 0,-0.01045 l 0.005,-0.01571 c -6.3e-4,-0.0015 -0.001,-0.0038 -0.003,-0.0052 0.1643,-0.79863 -0.36383,-1.2656 -0.36383,-1.2669 l -1.7485,-0.82812 c -0.15144,-0.1399 -0.49766,-0.31993 -1.2093,-0.21726 -44.167,17.488 -65.757,7.6081 -84.902,-4.7251 -0.001,-0.0042 -0.001,-0.009 -0.003,-0.01313 -0.0182,-0.0083 -0.0319,-0.01045 -0.0497,-0.01832 -0.005,-0.0034 -0.0107,-0.0071 -0.0157,-0.01045 6.7e-4,0.0016 -6.7e-4,0.0036 0,0.0052 -0.299,-0.1311 -1.0338,-0.15757 -0.79051,-0.19108 z"
         fill="#767e47"
         id="path35" />
      <path
         d="m 250.95,53.105 c -44.221,17.509 -65.662,7.5902 -84.825,-4.7605 l -22.042,72.495 c 19.145,12.421 42.583,22.726 85.009,4.537 z"
         fill="url(#linearGradient3572)"
         id="path36"
         style="fill:url(#linearGradient3572)" />
      <path
         d="m 250.87,53.23 c -44.221,17.511 -65.525,7.7439 -84.685,-4.6068 0.0442,-0.16172 0.15681,-0.57863 0.0281,-0.87896 19.161,12.353 40.857,22.295 85.075,4.786 -0.2935,0.25797 -0.2935,0.44564 -0.41813,0.69976 z"
         fill="url(#linearGradient18456)"
         id="path37"
         style="fill:url(#linearGradient18456)" />
    </g>
    <g
       fill="#767e47"
       id="g41"
       transform="matrix(0.19814,0,0,0.19814,-4.4564,-0.35754)">
      <polygon
         transform="matrix(1.3402,0,0,1.2835,22.492,26.082)"
         points="105.9,17.319 89.786,73.298 88.544,74.281 88.545,74.152 104.72,18.161 "
         fill-rule="evenodd"
         id="polygon37" />
      <g
         stroke-width="1.3115"
         id="g40">
        <path
           d="m 144.45,120.96 c -0.67277,-0.36064 -1.1579,-1.0871 -1.7556,-0.86248 l 21.651,-71.754 c 0.33236,-0.14246 1.17,-0.41712 1.9607,0.17968 z"
           id="path38" />
        <path
           d="m 164.62,47.844 -0.21564,0.61858 -1.5856,0.98702 c 0.13402,-0.49028 1.3375,-1.3078 1.7087,-1.5555 0.0697,-0.04621 0.0925,-0.05006 0.0925,-0.05006 z"
           fill-rule="evenodd"
           id="path39" />
        <path
           d="m 166.28,48.541 c -0.81886,-0.48386 -1.6046,-0.31977 -1.9397,-0.18116 0.0523,-0.15273 0.19432,-0.4659 0.19432,-0.4659 0.71165,-0.43124 1.0804,-0.42623 1.7451,-0.12205 0.0858,0.23744 0.11016,0.51113 2.7e-4,0.76911 z"
           id="path40" />
      </g>
    </g>
    <g
       fill-rule="evenodd"
       id="g46"
       transform="matrix(0.19814,0,0,0.19814,-4.4564,-0.35754)">
      <path
         d="m 252.51,53.704 c 0,0 -0.49453,-0.65328 -1.6779,-0.44408 0.10454,-0.26824 0.10454,-0.5198 0.45567,-0.73157 0.71164,-0.10267 1.0574,0.07701 1.2088,0.2169 0.0844,0.07957 0.1099,0.14503 0.1099,0.14503 0.0952,0.40044 -0.0965,0.81371 -0.0965,0.81371 z"
         fill="url(#linearGradient3028-1)"
         stroke-width="1.3115"
         id="path41"
         style="fill:url(#linearGradient3028-1)" />
      <path
         d="m 252.5,52.746 1.749,1.3438 c 0.10453,0.44921 -0.12062,0.90483 -0.12062,0.90483 l -1.7543,-1.3489 c 0,0 0.21979,-0.50055 0.12598,-0.8997 z"
         fill="url(#linearGradient3030-2)"
         stroke-width="1.3115"
         id="path42"
         style="fill:url(#linearGradient3030-2)" />
      <polygon
         transform="matrix(1.3402,0,0,1.2835,22.492,26.082)"
         points="156.48,78.712 155.24,77.619 171.56,21.402 172.89,22.461 "
         fill="#595e48"
         id="polygon42" />
      <g
         stroke-width="1.3115"
         id="g45">
        <path
           d="m 232.63,127.63 c 0.0469,-0.41199 -0.41144,-0.7521 -0.41144,-0.7521 l 21.947,-72.031 c 0,0 0.34845,0.30033 0.44226,0.51723 z"
           fill="#767e47"
           id="path43" />
        <path
           d="m 254.61,55.388 c 0,0 -0.0791,-0.20664 -0.45298,-0.50825 0.1702,-0.67766 0.0576,-0.81371 0.0576,-0.81371 l 0.0335,0.02182 c 0,0.0013 0.54948,0.48001 0.36185,1.3001 z"
           fill="url(#linearGradient3032-0)"
           id="path44"
           style="fill:url(#linearGradient3032-0)" />
        <path
           d="m 231.9,128.3 c -11.818,5.139 -23.003,7.7906 -33.39,8.6582 -17.936,1.9508 -32.439,-1.7853 -44.289,-7.3593 -4.6076,-2.0253 -8.7796,-4.3175 -12.47,-6.6983 l 0.19969,-0.16557 c 3.7418,2.4116 7.82,4.768 12.269,6.8639 12.04,5.2942 27.065,8.7891 44.289,7.3593 9.8102,-1.0627 20.575,-3.99 32.568,-9.084 0.33773,0.26054 0.82298,0.42581 0.82298,0.42581 z"
           fill="#595e48"
           id="path45" />
      </g>
    </g>
    <g
       stroke-width="1.3115"
       id="g62"
       transform="matrix(0.19814,0,0,0.19814,-4.4564,-0.35754)">
      <path
         d="m 229.51,126.96 c 0,0 -0.84567,-0.72643 -0.69154,-1.7904 1.1365,-0.27851 1.8642,0.4107 1.8642,0.4107 0,0 -0.20907,0.97928 -1.1727,1.3797 z"
         fill="url(#linearGradient3034-2)"
         id="path46"
         style="fill:url(#linearGradient3034-2)" />
      <path
         d="m 230.69,125.58 1.5895,1.3284 c 0,0 -0.24392,0.83296 -1.2088,1.2385 l -1.6149,-1.3245 c 0.96761,-0.40557 1.2343,-1.2424 1.2343,-1.2424 z"
         fill="url(#linearGradient3036-8)"
         fill-rule="evenodd"
         id="path47"
         style="fill:url(#linearGradient3036-8)" />
      <g
         fill="#767e47"
         id="g53">
        <path
           d="m 229.09,125.15 c -0.15412,1.0653 0.66474,1.843 0.66474,1.843 -44.229,17.513 -67.015,7.2002 -86.158,-5.2185 0.33639,-0.23616 0.38866,-0.23359 0.60711,-0.98056 19.141,12.421 48.073,21.124 84.886,4.356 z"
           id="path48" />
        <g
           fill-rule="evenodd"
           id="g51">
          <path
             d="m 141.96,122.81 1.6444,-1.0524 c 19.151,11.808 41.772,22.02 85.954,5.0183 l 1.5988,1.3296 c -42.421,17.922 -69.56,7.9407 -89.198,-5.2955 z"
             id="path49" />
          <path
             d="m 232.63,127.63 c -0.21979,0.38632 -0.60443,0.60707 -0.73308,0.67125 -0.0268,0.0154 -0.0442,0.0154 -0.0442,0.0154 0,0 -0.30154,0.0398 -0.7036,-0.21049 0.86442,-0.45178 1.115,-1.354 1.115,-1.354 0,0 0.50257,0.40173 0.36587,0.87789 z"
             id="path50" />
          <path
             d="m 142.02,122.79 -0.19701,0.1553 c 0,0 -1.0775,-0.55702 -0.66474,-1.6916 0.0965,1.1153 0.86175,1.5363 0.86175,1.5363 z"
             id="path51" />
        </g>
        <path
           d="m 141.16,121.25 1.5868,-1.2013 c -0.0925,1.1577 0.95287,1.639 0.95287,1.639 l -1.6136,1.1885 c 0,0 -1.0172,-0.46589 -0.92607,-1.6261 z"
           id="path52" />
        <path
           d="m 142.71,120.05 c 0.54278,-0.15786 1.0333,0.38119 1.698,0.87532 -0.21577,0.74954 -0.40608,0.62119 -0.74247,0.85991 -0.39402,-0.22589 -1.0561,-0.7829 -0.95556,-1.7352 z"
           id="path53" />
      </g>
      <path
         d="m 228.88,125.31 21.888,-72.116 c 1.1834,-0.2092 1.749,0.43252 1.749,0.43252 l -21.825,71.954 c -0.001,0 -0.87514,-0.64172 -1.8119,-0.2708 z"
         fill="url(#linearGradient3044-0)"
         id="path54"
         style="fill:url(#linearGradient3044-0)" />
      <path
         d="M 154.69,40.917 C 135.515,28.474 114.031,18.866 69.922,36.1066 c 0.11258,-0.36193 0.21175,-0.55445 0.21175,-0.55445 44.305,-17.541 65.519,-7.4676 84.698,4.9807 z"
         fill="#f89c3e"
         fill-rule="evenodd"
         id="path55" />
      <path
         d="m 111.32,26.193 c -11.23,0.16901 -24.564,2.824 -41.168,9.3958 -0.35115,0.07897 -0.31875,0.36807 -0.39148,0.43969 v 0.0052 l -21.782,72.211 h -0.0027 c -0.10722,0.36963 0.17922,0.72475 0.3856,0.88005 0.01702,0.0107 0.0307,0.0119 0.04712,0.0209 l 0.05235,0.0419 1.4266,1.0732 c 0.05495,0.0231 0.12068,0.0749 0.16491,0.0916 0.33371,0.14247 0.34889,0.10959 0.48425,0.0916 v -0.003 c 0.1769,-0.0308 0.64392,-0.21988 0.64392,-0.21988 19.959,-7.5865 34.907,-10.226 47.62,-8.7297 1.4939,0.17551 2.9531,0.4037 4.3818,0.67533 0.11223,0.0226 0.22562,0.0397 0.33766,0.0628 0.40357,0.079 0.80019,0.17032 1.1988,0.25652 1.6522,0.36831 3.2645,0.7864 4.8189,1.2355 7.7481,2.3149 14.205,6.3598 20.721,10.316 0.059,0.0385 0.0874,0.0425 0.15443,0.0733 0.0312,0.0161 0.0741,0.019 0.12303,0.0366 0.11732,0.0534 0.43473,0.18592 0.74339,0.0995 l 1.3559,-0.57848 c 0.003,-6.8e-4 0.005,7.3e-4 0.008,0 0.003,-0.002 0.008,-0.006 0.0104,-0.008 l 0.0183,-0.008 c -0.003,5.8e-4 -0.005,-5.5e-4 -0.008,0 0.18642,-0.13532 0.54029,0.039 0.63481,-0.30907 7.9e-4,0.002 0.002,0.003 0.003,0.005 l 21.779,-72.026 0.003,0.0027 0.0134,-0.04449 c 0.0777,-0.34268 -0.0802,-0.80056 -0.34958,-0.98538 -11.988,-7.78 -24.702,-14.386 -43.427,-14.104 z"
         fill="url(#linearGradient18464)"
         fill-rule="evenodd"
         id="path56"
         style="fill:url(#linearGradient18464)" />
      <g
         fill="#922204"
         id="g60">
        <g
           fill-rule="evenodd"
           id="g59">
          <path
             d="M 132.53,113.9 C 111.894,100.185 86.079,91.648 48.515,109.5251 l 1.6718,1.1089 c 9.6067,-3.76 18.176,-5.9388 26.895,-7.5803 7.2049,-1.3564 14.252,-1.5884 20.471,-0.86947 8.4262,0.97422 17.389,3.9396 22.053,6.3099 5.7112,2.9022 9.2926,4.8639 11.065,6.0692 z"
             id="path57" />
          <path
             d="m 132.88,112.93 21.805,-72.097 c 0.23587,0.15402 0.35113,0.3029 0.47577,0.43638 l -21.814,72.158 c -0.12464,-0.30289 -0.46638,-0.49798 -0.46638,-0.49798 z"
             id="path58" />
          <path
             d="m 50.211,110.56 c 6.9851,-2.744 13.454,-4.7809 19.457,-6.1785 1.4554,-0.33755 2.7487,-0.64301 4.2846,-0.92666 1.4139,-0.26952 2.8104,-0.53263 4.176,-0.72515 2.1403,-0.31316 4.2162,-0.57113 6.2372,-0.72001 1.7288,-0.13091 3.4108,-0.22718 5.0579,-0.24129 1.5921,-0.018 3.1481,0.002 4.6679,0.086 1.3536,0.0744 2.6777,0.16813 3.9817,0.31572 1.1016,0.12322 2.1792,0.25284 3.2446,0.42868 2.2502,0.36963 4.424,0.82398 6.5254,1.3951 8.4861,2.2987 16.327,6.1263 23.257,10.551 -0.0456,0.0205 -0.51573,0.0445 -0.5881,0.007 -0.067,-0.0308 -0.0978,-0.0334 -0.1568,-0.0719 -9.3693,-5.6883 -19.435,-10.635 -31.856,-12.094 -12.713,-1.4965 -27.528,0.59938 -47.487,8.1859 0,0 -0.46505,0.18866 -0.64195,0.21947 -0.15948,0.0244 -0.21584,-0.0778 -0.24532,-0.21775 z"
             id="path59" />
        </g>
        <path
           d="m 132.19,113.7 c 0,0 0.25251,0.46499 0.58755,0.39183 l -1.3942,0.59443 c -0.37123,0.10395 -0.83703,-0.13596 -0.83703,-0.13596 z"
           id="path60" />
      </g>
      <path
         d="m 50.229,110.57 c 0,0 0.08443,0.13476 0.14072,0.22203 -0.13536,0.018 -0.15144,0.0513 -0.48515,-0.0911 -0.04423,-0.0167 -0.11124,-0.0693 -0.16618,-0.0924 l -1.4246,-1.073 -0.12866,-0.10139 c 0.19433,-0.0129 0.34309,0.077 0.44092,0.059 z"
         fill="#ab4533"
         id="path61" />
      <path
         d="m 132.9,112.93 c 0.15278,0.0975 0.33505,0.1553 0.46236,0.45819 -0.0844,0.38376 -0.42484,0.57627 -0.61514,0.71745 -0.33773,0.0911 -0.67144,-0.15786 -0.67144,-0.15786 0.21309,-0.163 0.60443,-0.39402 0.82422,-1.0178 z"
         fill="#922204"
         id="path62" />
    </g>
    <g
       fill-rule="evenodd"
       id="g79"
       transform="matrix(0.19814,0,0,0.19814,-4.4564,-0.35754)">
      <path
         d="m 154.83,40.366 0.0268,0.0154 c 0.26937,0.18482 0.38195,0.54675 0.30422,0.88943 l -0.0134,0.04621 c -0.12598,-0.13476 -0.20639,-0.26824 -0.45299,-0.44664 z"
         fill="#922204"
         stroke-width="1.3115"
         id="path63" />
      <path
         d="m 48.195,109.47 c -0.20639,-0.1553 -0.41412,-0.76237 -0.3069,-1.132 l 0.28948,-0.0963 c -0.10722,0.5352 0.23855,1.1448 0.53876,1.3104 0.0013,0 -0.21041,0.11422 -0.52133,-0.0821 z"
         fill="#d75329"
         stroke-width="1.3115"
         id="path64" />
      <rect
         transform="matrix(1.3402,0,0,1.2835,22.492,26.082)"
         x="35.25"
         y="7.3720002"
         width="0.32499999"
         height="0.024"
         clip-path="url(#XMLID_56_-9-6)"
         fill="#faaa4f"
         id="rect64" />
      <rect
         transform="matrix(1.3402,0,0,1.2835,22.492,26.082)"
         x="35.25"
         y="7.3959999"
         width="0.32499999"
         height="0.027000001"
         clip-path="url(#XMLID_56_-9-6)"
         fill="#f6a34c"
         id="rect65" />
      <rect
         transform="matrix(1.3402,0,0,1.2835,22.492,26.082)"
         x="35.25"
         y="7.4229999"
         width="0.32499999"
         height="0.024"
         clip-path="url(#XMLID_56_-9-6)"
         fill="#f39d48"
         id="rect66" />
      <rect
         transform="matrix(1.3402,0,0,1.2835,22.492,26.082)"
         x="35.25"
         y="7.448"
         width="0.32499999"
         height="0.027000001"
         clip-path="url(#XMLID_56_-9-6)"
         fill="#f09745"
         id="rect67" />
      <rect
         transform="matrix(1.3402,0,0,1.2835,22.492,26.082)"
         x="35.25"
         y="7.4749999"
         width="0.32499999"
         height="0.025"
         clip-path="url(#XMLID_56_-9-6)"
         fill="#ed9142"
         id="rect68" />
      <rect
         transform="matrix(1.3402,0,0,1.2835,22.492,26.082)"
         x="35.25"
         y="7.5"
         width="0.32499999"
         height="0.024"
         clip-path="url(#XMLID_56_-9-6)"
         fill="#eb8c3f"
         id="rect69" />
      <rect
         transform="matrix(1.3402,0,0,1.2835,22.492,26.082)"
         x="35.25"
         y="7.5250001"
         width="0.32499999"
         height="0.025"
         clip-path="url(#XMLID_56_-9-6)"
         fill="#e8863c"
         id="rect70" />
      <rect
         transform="matrix(1.3402,0,0,1.2835,22.492,26.082)"
         x="35.25"
         y="7.5500002"
         width="0.32499999"
         height="0.024"
         clip-path="url(#XMLID_56_-9-6)"
         fill="#e68139"
         id="rect71" />
      <rect
         transform="matrix(1.3402,0,0,1.2835,22.492,26.082)"
         x="35.25"
         y="7.5749998"
         width="0.32499999"
         height="0.025"
         clip-path="url(#XMLID_56_-9-6)"
         fill="#e57b37"
         id="rect72" />
      <rect
         transform="matrix(1.3402,0,0,1.2835,22.492,26.082)"
         x="35.25"
         y="7.5999999"
         width="0.32499999"
         height="0.025"
         clip-path="url(#XMLID_56_-9-6)"
         fill="#e27634"
         id="rect73" />
      <rect
         transform="matrix(1.3402,0,0,1.2835,22.492,26.082)"
         x="35.25"
         y="7.625"
         width="0.32499999"
         height="0.026000001"
         clip-path="url(#XMLID_56_-9-6)"
         fill="#e07132"
         id="rect74" />
      <rect
         transform="matrix(1.3402,0,0,1.2835,22.492,26.082)"
         x="35.25"
         y="7.652"
         width="0.32499999"
         height="0.025"
         clip-path="url(#XMLID_56_-9-6)"
         fill="#df6b30"
         id="rect75" />
      <rect
         transform="matrix(1.3402,0,0,1.2835,22.492,26.082)"
         x="35.25"
         y="7.677"
         width="0.32499999"
         height="0.024"
         clip-path="url(#XMLID_56_-9-6)"
         fill="#dc662e"
         id="rect76" />
      <rect
         transform="matrix(1.3402,0,0,1.2835,22.492,26.082)"
         x="35.25"
         y="7.7020001"
         width="0.32499999"
         height="0.027000001"
         clip-path="url(#XMLID_56_-9-6)"
         fill="#db602c"
         id="rect77" />
      <rect
         transform="matrix(1.3402,0,0,1.2835,22.492,26.082)"
         x="35.25"
         y="7.7290001"
         width="0.32499999"
         height="0.024"
         clip-path="url(#XMLID_56_-9-6)"
         fill="#d95a2a"
         id="rect78" />
      <rect
         transform="matrix(1.3402,0,0,1.2835,22.492,26.082)"
         x="35.25"
         y="7.7529998"
         width="0.32499999"
         height="0.027000001"
         clip-path="url(#XMLID_56_-9-6)"
         fill="#d75329"
         id="rect79" />
    </g>
    <g
       stroke-width="1.3115"
       id="g81"
       transform="matrix(0.19814,0,0,0.19814,-4.4564,-0.35754)">
      <path
         d="m 132.12,113.99 c -11.812,-7.3953 -22.87,-13.517 -40.38,-14 -12.804,0.24257 -22.62,1.8045 -43.038,9.5707 -0.30154,-0.16428 -0.6835,-0.57371 -0.57762,-1.1115 17.678,-7.2092 31.713,-10.319 43.361,-10.21 17.637,0.16813 29.863,7.2348 41.424,14.683 -0.19567,0.652 -0.57628,0.90227 -0.78937,1.0678 z"
         fill="#922204"
         id="path79" />
      <path
         d="m 69.74,35.989 0.20237,0.06161 -21.771,72.371 c -0.04959,-0.0205 -0.28144,-0.0796 -0.28144,-0.0796 z"
         fill="#d75329"
         fill-rule="evenodd"
         id="path80" />
      <path
         d="m 139.79,129.9 c -0.22906,0.0148 -0.47138,0.12007 -0.77742,0.2984 -0.009,0.005 -0.0168,0.008 -0.0262,0.0131 -0.0194,0.007 -0.0484,0.0143 -0.0864,0.0419 -0.35799,0.23875 -1.4553,1.0096 -1.6464,1.4763 l -0.0262,0.0183 -0.0131,0.0419 c -9.6e-4,0.004 -0.007,0.009 -0.008,0.0131 l 0.005,-0.003 -21.479,71.387 c -0.32176,0.88054 0.29622,1.4394 0.59418,1.6491 19.182,12.369 46.857,23.225 90.274,5.4522 0.12866,-0.0642 0.51587,-0.29153 0.7303,-0.67271 l 21.016,-70.138 c -10e-4,-0.004 -0.008,-0.009 -0.0107,-0.0131 0.16104,-0.78957 -0.35726,-1.2633 -0.36123,-1.2669 l -0.0107,-0.005 -1.7407,-1.3376 c -0.15144,-0.1399 -0.49499,-0.31988 -1.2093,-0.21464 -0.0371,0.0121 -0.0728,0.022 -0.1099,0.034 l -0.80565,0.31942 c -9.2512,3.662 -16.086,4.2719 -23.522,5.7696 -0.003,5.3e-4 -0.005,0.002 -0.008,0.003 -28.214,4.5405 -44.726,-2.8421 -59.944,-12.65 -7.9e-4,-0.002 8e-4,-0.003 0,-0.005 -0.004,-0.002 -0.007,-9.2e-4 -0.0105,-0.003 -0.32741,-0.14932 -0.57391,-0.22558 -0.82453,-0.2094 z"
         fill="#c19236"
         fill-rule="evenodd"
         id="path81" />
    </g>
    <g
       transform="matrix(0.26554723,0,0,0.26554723,-3.6980786,4.0732667)"
       id="g101">
      <path
         transform="matrix(1,0,0,0.95766,13.927,0.77576)"
         d="m 88.064,83.286 c 14.313,9.637 30.374,17.361 63.405,3.7077 l -15.915,56.389 c -33.037,13.664 -49.676,5.7961 -63.974,-3.8999 z"
         clip-path="url(#XMLID_70_-70-7)"
         fill="url(#linearGradient7245)"
         id="path82"
         style="fill:url(#linearGradient7245)" />
      <g
         fill="#a87c3c"
         fill-rule="evenodd"
         stroke-width="0.9786"
         id="g85">
        <path
           d="m 151.92,139.81 c -0.16,0.28442 -0.449,0.45297 -0.545,0.50085 -0.021,0.0115 -0.035,0.0115 -0.035,0.0115 0,0 -0.275,0.0335 -0.525,-0.15706 0.645,-0.3371 0.836,-1.0142 0.836,-1.0142 0,0 0.372,0.30358 0.269,0.65888 z"
           id="path83" />
        <path
           d="m 151.92,139.81 c 0.039,-0.30646 -0.3977,-0.62086 -0.3977,-0.62086 l 15.643,-52.331 c 0,0 0.37975,0.30602 0.45175,0.47074 z"
           id="path84" />
        <path
           d="m 167.61,87.349 c 0,0 -0.051,-0.1494 -0.332,-0.37445 0.129,-0.50852 0.039,-0.61769 0.039,-0.61769 l 0.025,0.01532 c 10e-4,9.58e-4 0.413,0.36391 0.268,0.97682 z"
           id="path85" />
      </g>
      <path
         d="m 166.04,86.088 c 0,0 -0.434,-0.50469 -1.316,-0.34763 0.047,-0.19058 0.121,-0.42233 0.402,-0.5315 0.533,-0.07853 0.789,0.0565 0.902,0.16089 0.064,0.06321 0.082,0.10822 0.082,0.10822 0.07,0.29975 -0.07,0.61003 -0.07,0.61003 z"
         fill="url(#linearGradient3054-6)"
         fill-rule="evenodd"
         stroke-width="0.9786"
         id="path86"
         style="fill:url(#linearGradient3054-6)" />
      <g
         fill="#a87c3c"
         id="g88">
        <path
           d="m 166.03,85.37 1.307,1.0027 c 0.076,0.33997 -0.064,0.67707 -0.064,0.67707 l -1.301,-0.99884 c -0.001,0 0.128,-0.38211 0.058,-0.6809 z"
           fill-rule="evenodd"
           stroke-width="0.9786"
           id="path87" />
        <polygon
           transform="matrix(1,0,0,0.95766,13.927,0.77576)"
           points="137.72,144.62 137.66,144.77 136.29,143.58 152.04,88.963 153.37,90.025 "
           fill-rule="evenodd"
           id="polygon87" />
        <path
           d="m 149.44,139.22 c 0,0 -0.53104,-0.44913 -0.41804,-1.2459 0.848,-0.2059 1.297,0.21641 1.297,0.21641 0,0 -0.156,0.72687 -0.879,1.0295 z"
           stroke-width="0.9786"
           id="path88" />
      </g>
      <path
         d="m 164.78,85.792 c -33.176,10.823 -48.441,4.3545 -62.754,-4.8707 0.034,-0.12354 0.122,-0.32561 0.025,-0.55353 14.313,9.2252 30.143,15.525 63.076,4.841 -0.249,0.16472 -0.281,0.38881 -0.347,0.58322 z"
         fill="url(#linearGradient18448)"
         stroke-width="0.9786"
         id="path89"
         style="fill:url(#linearGradient18448)" />
      <polygon
         transform="matrix(1,0,0,0.95766,13.927,0.77576)"
         points="69.513,140.24 69.516,140.11 85.601,84.389 86.778,83.533 70.757,139.26 "
         fill="#c19236"
         fill-rule="evenodd"
         id="polygon89" />
      <path
         d="m 86.047,134.39 c -0.467,-0.26528 -1.011,-0.46734 -1.457,-0.29592 l 16.063,-53.304 c 0.25,-0.10056 0.844,-0.25857 1.453,0.1494 z"
         fill="#c19236"
         stroke-width="0.9786"
         id="path90" />
      <g
         stroke-width="0.9786"
         id="g99">
        <path
           d="m 148.97,137.99 15.758,-52.271 c 0.029,-0.0077 0.068,-0.04501 0.094,-0.04884 0.838,-0.08236 1.227,0.3438 1.227,0.3438 l -15.715,52.189 c -0.001,9.6e-4 -0.665,-0.49319 -1.364,-0.2126 z"
           fill="url(#linearGradient3062-6)"
           id="path91"
           style="fill:url(#linearGradient3062-6)" />
        <g
           fill="#a87c3c"
           id="g95">
          <path
             d="m 151.37,140.31 c -32.396,13.262 -53.176,5.1063 -67.489,-4.1227 l 0.15,-0.11971 c 14.313,9.2252 36.339,16.909 66.778,4.0404 0.252,0.19057 0.561,0.20206 0.561,0.20206 z"
             fill-rule="evenodd"
             id="path92" />
          <path
             d="m 150.32,138.2 1.334,1.0735 c 0,0 -0.18,0.62057 -0.902,0.92415 l -1.355,-1.0774 c 0.722,-0.30263 0.923,-0.92032 0.923,-0.92032 z"
             fill-rule="evenodd"
             id="path93" />
          <path
             d="m 149.12,137.87 c -0.113,0.79678 0.498,1.3733 0.498,1.3733 -33.037,13.086 -49.957,5.2413 -64.257,-4.0404 0.252,-0.17621 0.375,-0.32944 0.536,-0.88297 0.021,0.0115 0.221,-0.0191 0.241,-0.008 14.761,8.7052 33.654,15.585 62.982,3.5577 z"
             id="path94" />
          <path
             d="m 84.042,136.12 1.4735,-1.1 c 13.117,7.8337 31.188,16.406 63.801,3.8744 l 1.5091,1.2699 c -30.313,12.858 -52.471,5.1848 -66.784,-4.0442 z"
             fill-rule="evenodd"
             id="path95" />
        </g>
        <g
           fill="#c19236"
           id="g98">
          <path
             d="m 84.154,136.16 -0.15,0.10056 c 0,0 -0.87,-0.45968 -0.561,-1.3053 0.071,0.83413 0.711,1.2047 0.711,1.2047 z"
             fill-rule="evenodd"
             id="path96" />
          <path
             d="m 83.443,134.96 1.242,-0.97299 c -0.068,0.87148 0.813,1.1932 0.813,1.1932 l -1.364,0.99885 c 0.001,9.5e-4 -0.76,-0.35051 -0.691,-1.2191 z"
             id="path97" />
          <path
             d="m 84.593,134.02 c 0.445,-0.17238 0.862,0.0297 1.331,0.29209 -0.163,0.55736 -0.261,0.75176 -0.513,0.92797 -0.294,-0.16855 -0.893,-0.51331 -0.818,-1.2201 z"
             id="path98" />
        </g>
      </g>
      <path
         transform="matrix(1,0,0,0.95766,13.927,0.77576)"
         d="m 88.226,83.334 c 14.313,9.637 30.212,17.313 63.243,3.66 l -16.281,56.234 c -33.037,13.664 -48.903,5.926 -63.201,-3.77 z"
         clip-path="url(#XMLID_70_-70-7)"
         fill="none"
         id="path99" />
      <path
         d="m 100.86,80.436 -0.17,0.38115 -1.178,0.81593 c 0.076,-0.33997 0.984,-0.96916 1.264,-1.1559 0.037,-0.02681 0.084,-0.04118 0.084,-0.04118 z"
         fill="#c19236"
         fill-rule="evenodd"
         stroke-width="0.9786"
         id="path100" />
      <path
         d="m 102.06,80.919 c -0.657,-0.36679 -1.193,-0.14556 -1.443,-0.04118 0.039,-0.11588 0.174,-0.40796 0.174,-0.40796 0.532,-0.32561 0.774,-0.32561 1.271,-0.09768 0.096,0.22505 0.033,0.40414 -0.002,0.54683 z"
         fill="#c19236"
         stroke-width="0.9786"
         id="path101" />
    </g>
    <g
       id="g119">
      <path
         d="m 13.097021,21.243683 c -0.05285,0.0038 -0.114705,-0.003 -0.167351,9.9e-4 -0.137716,-0.0018 -0.262635,0.0077 -0.403671,0.0098 -2.044607,0.03064 -4.4565648,0.530699 -7.3828944,1.618685 -0.2619808,0.09254 -0.5221584,0.186185 -0.7733008,0.283697 -0.017022,0.007 -0.070679,0.02493 -0.089726,0.0835 h -5.349e-4 l -5.35e-4,0.0021 -4.24296997,14.265288 c -0.02063232,0.07054 0.01370138,0.145005 0.06534855,0.191379 h 5.3498e-4 l 0.005708,0.0062 0.28421202,0.207453 c 2.5758e-4,1.98e-4 7.9256e-4,1.98e-4 0.00107,5.94e-4 l 0.003107,0.0027 c 2.5758e-4,4e-5 7.9256e-4,-3.6e-5 0.00107,0 0.0710312,0.04887 0.12774284,0.04829 0.1571488,0.04564 5.3498e-4,1.98e-4 0.007781,0.0047 0.007781,0.0047 0.005338,-0.0018 0.010224,-0.0037 0.0155599,-0.0057 2.3777e-4,-4.7e-5 0.004143,0 0.004143,0 l -0.001585,-9.9e-4 C 3.7739552,36.775432 6.32263,36.234351 8.483743,36.246279 c 1.988137,0.01171 3.633689,0.464737 5.140346,1.119768 0.18281,0.08071 0.366044,0.160898 0.544568,0.247913 0.0016,7.93e-4 0.0031,0.0014 0.0047,0.0021 0.0033,0.0016 0.0065,0.0036 0.0099,0.0052 0.244088,0.119254 0.48469,0.244009 0.722477,0.373414 0.477122,0.259663 0.936252,0.532918 1.399543,0.822261 -1.99e-4,1.71e-4 -7.93e-4,1.99e-4 -9.91e-4,5.95e-4 0,0 0.0065,0.0027 0.0073,0.0031 0.0028,0.0018 0.0055,0.0034 0.0083,0.0052 l 0.0016,-5.94e-4 c 0.02132,0.01203 0.08257,0.04308 0.153002,0.01296 l 0.256215,-0.145219 h 5.94e-4 l 0.0057,-0.0036 c -1.99e-4,9.6e-5 -7.93e-4,-9.3e-5 -9.91e-4,0 0.03659,-0.02692 0.09376,-0.064 0.112028,-0.132771 1.98e-4,5.94e-4 7.93e-4,9.91e-4 9.91e-4,0.0016 l 4.383847,-14.387342 c 0.0154,-0.06841 -0.0065,-0.13998 -0.06068,-0.176856 l -0.0073,-0.0041 -9.91e-4,0.0031 C 18.908966,22.529982 16.5192,21.286693 13.097322,21.244093 Z m -8.778593,1.997251 -0.00364,0.0088 -0.028524,-0.0078 c 0.010622,-1.98e-4 0.021536,-7.92e-4 0.032154,-9.9e-4 z"
         fill="#a0b4ff"
         fill-rule="evenodd"
         stroke-width="0.259861"
         id="path102" />
      <path
         d="m 0.36134191,37.935849 c 0.0286791,0.0041 0.081523,-0.01984 0.081523,-0.01984 0.0608103,0.03967 0.10913992,0.06764 0.10913992,0.06764 0,0 -0.0950659,0.02161 -0.19066291,-0.04781 z"
         fill-rule="evenodd"
         id="path104"
         style="fill:#141fb8;stroke-width:0.259865" />
      <path
         d="m 16.632748,38.644861 c 0,0 0.0499,0.07261 0.116817,0.05481 L 16.47799,38.85544 c -0.08391,0.03586 -0.170216,-0.02085 -0.170216,-0.02085 z"
         id="path105"
         style="fill:#141fb8;stroke-width:0.259865" />
      <path
         d="m 0.44631702,37.917261 c 0,0 -0.0512506,0.02491 -0.0801953,0.02085 l -0.28811875,-0.210566 -0.0066387,-0.0058 c 0.04169091,0.01399 0.08975496,0.0069 0.10913991,0.0031 z"
         id="path106"
         style="fill:#141fb8;stroke-width:0.259865" />
      <path
         d="m 16.762867,38.464288 c 0.03001,0.02085 0.06161,0.04374 0.09135,0.101214 -0.01673,0.07553 -0.08259,0.114182 -0.119762,0.142158 -0.05364,0.01195 -0.12879,-0.03688 -0.12879,-0.03688 0.04196,-0.03382 0.113654,-0.08239 0.157204,-0.206495 z"
         id="path107"
         style="fill:#141fb8;stroke-width:0.259865" />
      <rect
         x="4.2712593"
         y="23.251087"
         width="0.086037301"
         height="0.0045775031"
         fill="#2e499e"
         stroke-width="0.259865"
         id="rect107"
         style="fill-rule:evenodd" />
      <polygon
         transform="matrix(0.26554723,0,0,0.25430396,1.9767221e-4,4.2792676)"
         points="16.267,74.611 0.207,130.8 0.023,130.75 16.086,74.56 "
         fill="#141fb8"
         id="polygon107"
         style="fill-rule:evenodd" />
      <path
         d="m 0.07800301,37.728723 c -0.05523382,-0.04577 -0.09347262,-0.124101 -0.0719633,-0.197594 l 0.05125062,-0.01883 C 0.035781,37.6186 0.117304,37.695147 0.17678658,37.727953 c 5.3109e-4,-2.55e-4 -0.0430186,0.02061 -0.09878357,7.96e-4 z"
         fill="#141fb8"
         stroke-width="0.259865"
         id="path108"
         style="fill-rule:evenodd" />
      <path
         d="M 16.612832,38.679382 C 12.807009,36.226602 8.8628365,34.353086 0.18236307,37.73082 0.12261495,37.696998 0.03179779,37.615621 0.05304157,37.508305 8.8670852,33.915186 12.962089,36.014257 16.767912,38.467807 c -0.03877,0.130203 -0.113123,0.178774 -0.15508,0.21158 z"
         fill="url(#linearGradient7243)"
         id="path109"
         style="fill:url(#linearGradient7243);stroke-width:0.259865" />
      <g
         fill="#141fb8"
         fill-rule="evenodd"
         id="g112"
         transform="matrix(0.26554723,0,0,0.26554723,-3.6980786,4.0732667)"
         style="stroke-width:0.9786">
        <path
           d="m 15.542,127.41 c 31.464,-11.78 45.567,-5.3648 59.892,3.4677 -8.58,-5.2892 -17.41,-9.524 -29.594,-9.5958 -8.154,-0.045 -17.791,1.9374 -29.851,6.4154 0,9.6e-4 -0.249,-0.0891 -0.447,-0.2873 z"
           id="path110" />
        <path
           d="m 76.693,130.32 -1.3488,0.57939 c -14.325,-8.8325 -28.801,-14.854 -59.715,-3.3661 l -1.2086,-0.91778 c 32.689,-12.722 47.942,-5.5351 62.273,3.7044 z"
           id="path111" />
        <path
           d="m 76.926,129.4 16.47,-54.213 c 0.177,0.11779 0.44359,0.39388 0.53559,0.49443 l -16.542,54.239 c -0.093,-0.22793 -0.57675,-0.42618 -0.57675,-0.42618 z"
           id="path112" />
      </g>
      <path
         d="M 21.141475,24.204668 C 17.33937,21.736884 13.056624,19.840399 4.3105603,23.258974 c 0.021775,-0.07146 0.039567,-0.105281 0.039567,-0.105281 8.7845677,-3.478403 13.0266847,-1.631629 16.8285237,0.836421 z"
         fill="url(#linearGradient18472)"
         fill-rule="evenodd"
         id="path113"
         style="fill:url(#linearGradient18472);stroke-width:0.259865" />
      <path
         d="M 16.767115,38.506776 C 12.961558,36.053996 8.8245977,34.036554 0.04188859,37.514479 L 4.3275553,23.166431 C 13.112123,19.688028 17.34707,21.619087 21.14891,24.086871 Z"
         fill="url(#linearGradient3574)"
         id="path114"
         style="fill:url(#linearGradient3574);stroke-width:0.259865" />
      <path
         d="M 16.767115,38.506776 C 12.961558,36.053996 8.8245977,34.036554 0.04188859,37.514479 L 4.342426,23.129255 c 8.784568,-3.478404 13.004644,-1.510061 16.806484,0.957722 z"
         fill="none"
         id="path115"
         style="stroke-width:0.259865" />
      <path
         d="m 21.177324,23.989309 0.0072,0.0041 c 0.05417,0.03687 0.07621,0.108333 0.06081,0.176743 l -0.0032,0.0089 c -0.02416,-0.02645 -0.04939,-0.05162 -0.09613,-0.0829 z"
         fill="#313c7e"
         fill-rule="evenodd"
         id="path116"
         style="stroke-width:0.259865" />
      <path
         d="m 4.3193234,23.255868 -0.048064,-0.01348 c 0.018323,-0.06052 0.061607,-0.08138 0.078868,-0.0885 l 0.00717,-0.002 c 2.656e-4,0 -0.015933,0.03179 -0.037973,0.104009 z"
         fill="url(#linearGradient3046-4)"
         fill-rule="evenodd"
         id="path117"
         style="fill:url(#linearGradient3046-4);stroke-width:0.259865" />
      <path
         d="M 16.616284,38.687348 C 12.804354,36.29984 8.7101468,34.373268 0.17811432,37.735999 0.1218183,37.720331 0.0204722,37.62666 0.04171598,37.514599 8.2596061,34.065406 12.962979,35.895185 16.767739,38.458646 c -0.03877,0.13596 -0.10958,0.194455 -0.151537,0.22871 z"
         fill="#141fb8"
         id="path118"
         style="stroke-width:0.265547" />
    </g>
  </g>
</svg>
