<?xml version="1.0" encoding="UTF-8" standalone="no"?>
<svg
   width="48"
   height="48"
   version="1.1"
   viewBox="0 0 48 48"
   id="svg117"
   sodipodi:docname="windows-logo.svg"
   inkscape:version="1.3.2 (1:1.3.2+202311252150+091e20ef0f)"
   xmlns:inkscape="http://www.inkscape.org/namespaces/inkscape"
   xmlns:sodipodi="http://sodipodi.sourceforge.net/DTD/sodipodi-0.dtd"
   xmlns:xlink="http://www.w3.org/1999/xlink"
   xmlns="http://www.w3.org/2000/svg"
   xmlns:svg="http://www.w3.org/2000/svg">
  <sodipodi:namedview
     id="namedview117"
     pagecolor="#ffffff"
     bordercolor="#000000"
     borderopacity="0.25"
     inkscape:showpageshadow="2"
     inkscape:pageopacity="0.0"
     inkscape:pagecheckerboard="0"
     inkscape:deskcolor="#d1d1d1"
     inkscape:zoom="37.479167"
     inkscape:cx="24"
     inkscape:cy="24"
     inkscape:window-width="3840"
     inkscape:window-height="2058"
     inkscape:window-x="0"
     inkscape:window-y="0"
     inkscape:window-maximized="1"
     inkscape:current-layer="svg117" />
  <defs
     id="defs35">
    <path
       id="XMLID_20_-2"
       d="m35.432 7.781-0.182-0.052c0.07-0.238 0.234-0.323 0.298-0.35l0.027-8e-3c1e-3 1e-3 -0.06 0.126-0.143 0.41z" />
    <path
       id="XMLID_35_-2"
       d="m88.131 83.682c14.313 9.633 29.822 16.309 62.76 4.969l-15.703 54.578c-28.98 12.742-48.541 5.09-63.201-3.77z" />
    <linearGradient
       id="linearGradient4962"
       x1="159.87"
       x2="100.46"
       y1="57.84"
       y2="40.804"
       gradientTransform="matrix(1 0 0 .95766 13.927 .77576)"
       gradientUnits="userSpaceOnUse">
      <stop
         stop-color="#7ec400"
         offset="0"
         id="stop1" />
      <stop
         stop-color="#a6fe0a"
         offset=".333"
         id="stop2" />
      <stop
         stop-color="#6eaa00"
         offset=".667"
         id="stop3" />
      <stop
         stop-color="#4b6700"
         offset="1"
         id="stop4" />
    </linearGradient>
    <linearGradient
       id="linearGradient4970"
       x1="70.161"
       x2="10.682"
       y1="110.96"
       y2="93.901"
       gradientTransform="matrix(1 0 0 .95766 13.927 .77576)"
       gradientUnits="userSpaceOnUse">
      <stop
         stop-color="#141fb8"
         offset="0"
         id="stop5" />
      <stop
         stop-color="#6585fe"
         offset=".4"
         id="stop6" />
      <stop
         stop-color="#a1b6ff"
         offset=".65817"
         id="stop7" />
      <stop
         stop-color="#3b66ff"
         offset="1"
         id="stop8" />
    </linearGradient>
    <linearGradient
       id="linearGradient3028-1"
       x1="170.77"
       x2="171.41"
       y1="20.577"
       y2="21.652"
       gradientTransform="matrix(1.3402,0,0,1.2835,22.492,26.082)"
       gradientUnits="userSpaceOnUse">
      <stop
         stop-color="#83b641"
         offset="0"
         id="stop9" />
      <stop
         stop-color="#595e48"
         offset="1"
         id="stop10" />
    </linearGradient>
    <linearGradient
       id="linearGradient3030-2"
       x1="172.43"
       x2="172.03"
       y1="21.409"
       y2="21.895"
       gradientTransform="matrix(1.3402,0,0,1.2835,22.492,26.082)"
       gradientUnits="userSpaceOnUse">
      <stop
         stop-color="#8aa742"
         offset="0"
         id="stop11" />
      <stop
         stop-color="#595e48"
         offset="1"
         id="stop12" />
    </linearGradient>
    <linearGradient
       id="linearGradient3032-0"
       x1="173.04"
       x2="173.04"
       y1="21.805"
       y2="22.834"
       gradientTransform="matrix(1.3402,0,0,1.2835,22.492,26.082)"
       gradientUnits="userSpaceOnUse">
      <stop
         stop-color="#8aa742"
         offset="0"
         id="stop13" />
      <stop
         stop-color="#767e47"
         offset="1"
         id="stop14" />
    </linearGradient>
    <linearGradient
       id="linearGradient3034-2"
       x1="155.32"
       x2="153.91"
       y1="77.938"
       y2="77.839"
       gradientTransform="matrix(1.3402,0,0,1.2835,22.492,26.082)"
       gradientUnits="userSpaceOnUse">
      <stop
         stop-color="#767e47"
         offset="0"
         id="stop15" />
      <stop
         stop-color="#8aa742"
         offset="1"
         id="stop16" />
    </linearGradient>
    <linearGradient
       id="linearGradient3036-8"
       x1="155.98"
       x2="155.07"
       y1="78.063"
       y2="79.075"
       gradientTransform="matrix(1.3402,0,0,1.2835,22.492,26.082)"
       gradientUnits="userSpaceOnUse">
      <stop
         stop-color="#767e47"
         offset="0"
         id="stop17" />
      <stop
         stop-color="#595e48"
         offset="1"
         id="stop18" />
    </linearGradient>
    <linearGradient
       id="linearGradient3044-0"
       x1="163.59"
       x2="162.09"
       y1="49.529"
       y2="49.1"
       gradientTransform="matrix(1.3402,0,0,1.2835,22.492,26.082)"
       gradientUnits="userSpaceOnUse">
      <stop
         stop-color="#595e48"
         offset="0"
         id="stop19" />
      <stop
         stop-color="#83b641"
         offset="1"
         id="stop20" />
    </linearGradient>
    <linearGradient
       id="linearGradient3046-4"
       x1="16.247"
       x2="16.247"
       y1="74.212"
       y2="74.621"
       gradientTransform="matrix(.26555 0 0 .2543 .00019767 4.2793)"
       gradientUnits="userSpaceOnUse">
      <stop
         stop-color="#76a5d8"
         offset="0"
         id="stop21" />
      <stop
         stop-color="#2e499e"
         offset="1"
         id="stop22" />
    </linearGradient>
    <clipPath
       id="XMLID_56_-9-6">
      <use
         width="812.04401"
         height="152.966"
         xlink:href="#XMLID_20_-2"
         id="use22" />
    </clipPath>
    <linearGradient
       id="linearGradient3054-6"
       x1="151.23"
       x2="151.88"
       y1="88.142"
       y2="89.226"
       gradientTransform="matrix(1 0 0 .95766 13.927 .77576)"
       gradientUnits="userSpaceOnUse">
      <stop
         stop-color="#ffcd02"
         offset=".006"
         id="stop23" />
      <stop
         stop-color="#a87c3c"
         offset="1"
         id="stop24" />
    </linearGradient>
    <linearGradient
       id="linearGradient3062-6"
       x1="144.3"
       x2="142.9"
       y1="116.28"
       y2="115.88"
       gradientTransform="matrix(1 0 0 .95766 13.927 .77576)"
       gradientUnits="userSpaceOnUse">
      <stop
         stop-color="#a87c3c"
         offset="0"
         id="stop25" />
      <stop
         stop-color="#ffd200"
         offset="1"
         id="stop26" />
    </linearGradient>
    <clipPath
       id="XMLID_70_-70-7">
      <use
         width="812.04401"
         height="152.966"
         xlink:href="#XMLID_35_-2"
         id="use26" />
    </clipPath>
    <linearGradient
       id="linearGradient7243"
       x1=".187"
       x2="63.144"
       y1="129.19"
       y2="129.19"
       gradientTransform="matrix(.26555 0 0 .2543 42.454 -129.01)"
       gradientUnits="userSpaceOnUse"
       xlink:href="#XMLID_52_-7" />
    <linearGradient
       id="linearGradient7245"
       x1="140.97"
       x2="81.423"
       y1="123.62"
       y2="106.55"
       gradientUnits="userSpaceOnUse">
      <stop
         stop-color="#ffc907"
         offset="0"
         id="stop27" />
      <stop
         stop-color="#fecc00"
         offset=".167"
         id="stop28" />
      <stop
         stop-color="#ffd952"
         offset=".333"
         id="stop29" />
      <stop
         stop-color="#caa200"
         offset=".625"
         id="stop30" />
      <stop
         stop-color="#987f00"
         offset="1"
         id="stop31" />
    </linearGradient>
    <linearGradient
       id="linearGradient18448"
       x1="102.03"
       x2="165.13"
       y1="85.904"
       y2="85.904"
       gradientUnits="userSpaceOnUse"
       xlink:href="#linearGradient11674" />
    <linearGradient
       id="linearGradient18456"
       x1="182.9"
       x2="122.36"
       y1="26.357"
       y2="17.877"
       gradientTransform="matrix(1.3402,0,0,1.3402,3.8272,25.042)"
       gradientUnits="userSpaceOnUse"
       xlink:href="#linearGradient4962" />
    <linearGradient
       id="linearGradient18464"
       x1="104.45"
       x2="44.978"
       y1="38.419"
       y2="23.168"
       gradientTransform="matrix(1.3402,0,0,1.3402,3.8272,25.042)"
       gradientUnits="userSpaceOnUse">
      <stop
         stop-color="#922204"
         offset="0"
         id="stop32" />
      <stop
         stop-color="#fe6a0b"
         offset=".4"
         id="stop33" />
      <stop
         stop-color="#fea960"
         offset=".66487"
         id="stop34" />
      <stop
         stop-color="#f66911"
         offset="1"
         id="stop35" />
    </linearGradient>
    <linearGradient
       id="linearGradient18472"
       x1="93.274"
       x2="30.159"
       y1="72.666"
       y2="75.396"
       gradientTransform="matrix(.26555 0 0 .26555 -3.6981 4.0733)"
       gradientUnits="userSpaceOnUse"
       xlink:href="#linearGradient4970" />
    <linearGradient
       id="linearGradient3572"
       x1="159.87"
       x2="100.46"
       y1="57.84"
       y2="40.804"
       gradientTransform="matrix(1.3402,0,0,1.2835,22.492,26.082)"
       gradientUnits="userSpaceOnUse"
       xlink:href="#linearGradient4962" />
    <linearGradient
       id="linearGradient3574"
       x1="70.161"
       x2="10.682"
       y1="110.96"
       y2="93.901"
       gradientTransform="matrix(.26555 0 0 .2543 .00019767 4.2793)"
       gradientUnits="userSpaceOnUse"
       xlink:href="#linearGradient4970" />
  </defs>
  <g
     id="g117">
    <g
       transform="matrix(.19814 0 0 .19814 -4.4564 -.35754)"
       stroke-width="1.3115"
       id="g37">
      <path
         d="m165.46 48.156c0.26215-0.03611-0.53415 0.11942-0.88997 0.33505-0.35207 0.23492-1.4273 0.46163-1.6543 0.95638l-0.0366 0.02617-21.617 71.723c-0.36815 1.0119 0.41318 1.5388 0.59419 1.6464 1.9027 1.2273 3.8988 2.4191 6.0509 3.5749 14.521 8.5058 32.826 14.372 57.644 9.5994 8.345-1.319 17.104-3.785 26.292-7.7803 0.12866-0.0642 0.51313-0.28639 0.73292-0.67271l21.96-72.115 3e-3 0.0027c9e-4 -0.0039-8.7e-4 -0.0066 0-0.01045l5e-3 -0.01571c-6.3e-4 -0.0015-1e-3 -0.0038-3e-3 -0.0052 0.1643-0.79863-0.36383-1.2656-0.36383-1.2669l-1.7485-0.82812c-0.15144-0.1399-0.49766-0.31993-1.2093-0.21726-44.167 17.488-65.757 7.6081-84.902-4.7251-1e-3 -0.0042-1e-3 -9e-3 -3e-3 -0.01313-0.0182-0.0083-0.0319-0.01045-0.0497-0.01832-5e-3 -0.0034-0.0107-0.0071-0.0157-0.01045 6.7e-4 0.0016-6.7e-4 0.0036 0 0.0052-0.299-0.1311-1.0338-0.15757-0.79051-0.19108z"
         fill="#767e47"
         id="path35" />
      <path
         d="m250.95 53.105c-44.221 17.509-65.662 7.5902-84.825-4.7605l-22.042 72.495c19.145 12.421 42.583 22.726 85.009 4.537z"
         fill="url(#linearGradient3572)"
         id="path36" />
      <path
         d="m250.87 53.23c-44.221 17.511-65.525 7.7439-84.685-4.6068 0.0442-0.16172 0.15681-0.57863 0.0281-0.87896 19.161 12.353 40.857 22.295 85.075 4.786-0.2935 0.25797-0.2935 0.44564-0.41813 0.69976z"
         fill="url(#linearGradient18456)"
         id="path37" />
    </g>
    <g
       transform="matrix(.19814 0 0 .19814 -4.4564 -.35754)"
       fill="#767e47"
       id="g41">
      <polygon
         transform="matrix(1.3402,0,0,1.2835,22.492,26.082)"
         points="105.9 17.319 89.786 73.298 88.544 74.281 88.545 74.152 104.72 18.161"
         fill-rule="evenodd"
         id="polygon37" />
      <g
         stroke-width="1.3115"
         id="g40">
        <path
           d="m144.45 120.96c-0.67277-0.36064-1.1579-1.0871-1.7556-0.86248l21.651-71.754c0.33236-0.14246 1.17-0.41712 1.9607 0.17968z"
           id="path38" />
        <path
           d="m164.62 47.844-0.21564 0.61858-1.5856 0.98702c0.13402-0.49028 1.3375-1.3078 1.7087-1.5555 0.0697-0.04621 0.0925-0.05006 0.0925-0.05006z"
           fill-rule="evenodd"
           id="path39" />
        <path
           d="m166.28 48.541c-0.81886-0.48386-1.6046-0.31977-1.9397-0.18116 0.0523-0.15273 0.19432-0.4659 0.19432-0.4659 0.71165-0.43124 1.0804-0.42623 1.7451-0.12205 0.0858 0.23744 0.11016 0.51113 2.7e-4 0.76911z"
           id="path40" />
      </g>
    </g>
    <g
       transform="matrix(.19814 0 0 .19814 -4.4564 -.35754)"
       fill-rule="evenodd"
       id="g46">
      <path
         d="m252.51 53.704s-0.49453-0.65328-1.6779-0.44408c0.10454-0.26824 0.10454-0.5198 0.45567-0.73157 0.71164-0.10267 1.0574 0.07701 1.2088 0.2169 0.0844 0.07957 0.1099 0.14503 0.1099 0.14503 0.0952 0.40044-0.0965 0.81371-0.0965 0.81371z"
         fill="url(#linearGradient3028-1)"
         stroke-width="1.3115"
         id="path41" />
      <path
         d="m252.5 52.746 1.749 1.3438c0.10453 0.44921-0.12062 0.90483-0.12062 0.90483l-1.7543-1.3489s0.21979-0.50055 0.12598-0.8997z"
         fill="url(#linearGradient3030-2)"
         stroke-width="1.3115"
         id="path42" />
      <polygon
         transform="matrix(1.3402,0,0,1.2835,22.492,26.082)"
         points="156.48 78.712 155.24 77.619 171.56 21.402 172.89 22.461"
         fill="#595e48"
         id="polygon42" />
      <g
         stroke-width="1.3115"
         id="g45">
        <path
           d="m232.63 127.63c0.0469-0.41199-0.41144-0.7521-0.41144-0.7521l21.947-72.031s0.34845 0.30033 0.44226 0.51723z"
           fill="#767e47"
           id="path43" />
        <path
           d="m254.61 55.388s-0.0791-0.20664-0.45298-0.50825c0.1702-0.67766 0.0576-0.81371 0.0576-0.81371l0.0335 0.02182c0 0.0013 0.54948 0.48001 0.36185 1.3001z"
           fill="url(#linearGradient3032-0)"
           id="path44" />
        <path
           d="m231.9 128.3c-11.818 5.139-23.003 7.7906-33.39 8.6582-17.936 1.9508-32.439-1.7853-44.289-7.3593-4.6076-2.0253-8.7796-4.3175-12.47-6.6983l0.19969-0.16557c3.7418 2.4116 7.82 4.768 12.269 6.8639 12.04 5.2942 27.065 8.7891 44.289 7.3593 9.8102-1.0627 20.575-3.99 32.568-9.084 0.33773 0.26054 0.82298 0.42581 0.82298 0.42581z"
           fill="#595e48"
           id="path45" />
      </g>
    </g>
    <g
       transform="matrix(.19814 0 0 .19814 -4.4564 -.35754)"
       stroke-width="1.3115"
       id="g62">
      <path
         d="m229.51 126.96s-0.84567-0.72643-0.69154-1.7904c1.1365-0.27851 1.8642 0.4107 1.8642 0.4107s-0.20907 0.97928-1.1727 1.3797z"
         fill="url(#linearGradient3034-2)"
         id="path46" />
      <path
         d="m230.69 125.58 1.5895 1.3284s-0.24392 0.83296-1.2088 1.2385l-1.6149-1.3245c0.96761-0.40557 1.2343-1.2424 1.2343-1.2424z"
         fill="url(#linearGradient3036-8)"
         fill-rule="evenodd"
         id="path47" />
      <g
         fill="#767e47"
         id="g53">
        <path
           d="m229.09 125.15c-0.15412 1.0653 0.66474 1.843 0.66474 1.843-44.229 17.513-67.015 7.2002-86.158-5.2185 0.33639-0.23616 0.38866-0.23359 0.60711-0.98056 19.141 12.421 48.073 21.124 84.886 4.356z"
           id="path48" />
        <g
           fill-rule="evenodd"
           id="g51">
          <path
             d="m141.96 122.81 1.6444-1.0524c19.151 11.808 41.772 22.02 85.954 5.0183l1.5988 1.3296c-42.421 17.922-69.56 7.9407-89.198-5.2955z"
             id="path49" />
          <path
             d="m232.63 127.63c-0.21979 0.38632-0.60443 0.60707-0.73308 0.67125-0.0268 0.0154-0.0442 0.0154-0.0442 0.0154s-0.30154 0.0398-0.7036-0.21049c0.86442-0.45178 1.115-1.354 1.115-1.354s0.50257 0.40173 0.36587 0.87789z"
             id="path50" />
          <path
             d="m142.02 122.79-0.19701 0.1553s-1.0775-0.55702-0.66474-1.6916c0.0965 1.1153 0.86175 1.5363 0.86175 1.5363z"
             id="path51" />
        </g>
        <path
           d="m141.16 121.25 1.5868-1.2013c-0.0925 1.1577 0.95287 1.639 0.95287 1.639l-1.6136 1.1885s-1.0172-0.46589-0.92607-1.6261z"
           id="path52" />
        <path
           d="m142.71 120.05c0.54278-0.15786 1.0333 0.38119 1.698 0.87532-0.21577 0.74954-0.40608 0.62119-0.74247 0.85991-0.39402-0.22589-1.0561-0.7829-0.95556-1.7352z"
           id="path53" />
      </g>
      <path
         d="m228.88 125.31 21.888-72.116c1.1834-0.2092 1.749 0.43252 1.749 0.43252l-21.825 71.954c-1e-3 0-0.87514-0.64172-1.8119-0.2708z"
         fill="url(#linearGradient3044-0)"
         id="path54" />
      <path
         d="m154.69 40.917c-19.175-12.443-40.659-22.051-84.768-4.8104 0.11258-0.36193 0.21175-0.55445 0.21175-0.55445 44.305-17.541 65.519-7.4676 84.698 4.9807z"
         fill="#f89c3e"
         fill-rule="evenodd"
         id="path55" />
      <path
         d="m111.32 26.193c-11.23 0.16901-24.564 2.824-41.168 9.3958-0.35115 0.07897-0.31875 0.36807-0.39148 0.43969v0.0052l-21.782 72.211h-0.0027c-0.10722 0.36963 0.17922 0.72475 0.3856 0.88005 0.01702 0.0107 0.0307 0.0119 0.04712 0.0209l0.05235 0.0419 1.4266 1.0732c0.05495 0.0231 0.12068 0.0749 0.16491 0.0916 0.33371 0.14247 0.34889 0.10959 0.48425 0.0916v-3e-3c0.1769-0.0308 0.64392-0.21988 0.64392-0.21988 19.959-7.5865 34.907-10.226 47.62-8.7297 1.4939 0.17551 2.9531 0.4037 4.3818 0.67533 0.11223 0.0226 0.22562 0.0397 0.33766 0.0628 0.40357 0.079 0.80019 0.17032 1.1988 0.25652 1.6522 0.36831 3.2645 0.7864 4.8189 1.2355 7.7481 2.3149 14.205 6.3598 20.721 10.316 0.059 0.0385 0.0874 0.0425 0.15443 0.0733 0.0312 0.0161 0.0741 0.019 0.12303 0.0366 0.11732 0.0534 0.43473 0.18592 0.74339 0.0995l1.3559-0.57848c3e-3 -6.8e-4 5e-3 7.3e-4 8e-3 0 3e-3 -2e-3 8e-3 -6e-3 0.0104-8e-3l0.0183-8e-3c-3e-3 5.8e-4 -5e-3 -5.5e-4 -8e-3 0 0.18642-0.13532 0.54029 0.039 0.63481-0.30907 7.9e-4 2e-3 2e-3 3e-3 3e-3 5e-3l21.779-72.026 3e-3 0.0027 0.0134-0.04449c0.0777-0.34268-0.0802-0.80056-0.34958-0.98538-11.988-7.78-24.702-14.386-43.427-14.104z"
         fill="url(#linearGradient18464)"
         fill-rule="evenodd"
         id="path56" />
      <g
         fill="#922204"
         id="g60">
        <g
           fill-rule="evenodd"
           id="g59">
          <path
             d="m132.53 113.9c-20.636-13.715-46.451-22.252-84.015-4.3749l1.6718 1.1089c9.6067-3.76 18.176-5.9388 26.895-7.5803 7.2049-1.3564 14.252-1.5884 20.471-0.86947 8.4262 0.97422 17.389 3.9396 22.053 6.3099 5.7112 2.9022 9.2926 4.8639 11.065 6.0692z"
             id="path57" />
          <path
             d="m132.88 112.93 21.805-72.097c0.23587 0.15402 0.35113 0.3029 0.47577 0.43638l-21.814 72.158c-0.12464-0.30289-0.46638-0.49798-0.46638-0.49798z"
             id="path58" />
          <path
             d="m50.211 110.56c6.9851-2.744 13.454-4.7809 19.457-6.1785 1.4554-0.33755 2.7487-0.64301 4.2846-0.92666 1.4139-0.26952 2.8104-0.53263 4.176-0.72515 2.1403-0.31316 4.2162-0.57113 6.2372-0.72001 1.7288-0.13091 3.4108-0.22718 5.0579-0.24129 1.5921-0.018 3.1481 2e-3 4.6679 0.086 1.3536 0.0744 2.6777 0.16813 3.9817 0.31572 1.1016 0.12322 2.1792 0.25284 3.2446 0.42868 2.2502 0.36963 4.424 0.82398 6.5254 1.3951 8.4861 2.2987 16.327 6.1263 23.257 10.551-0.0456 0.0205-0.51573 0.0445-0.5881 7e-3 -0.067-0.0308-0.0978-0.0334-0.1568-0.0719-9.3693-5.6883-19.435-10.635-31.856-12.094-12.713-1.4965-27.528 0.59938-47.487 8.1859 0 0-0.46505 0.18866-0.64195 0.21947-0.15948 0.0244-0.21584-0.0778-0.24532-0.21775z"
             id="path59" />
        </g>
        <path
           d="m132.19 113.7s0.25251 0.46499 0.58755 0.39183l-1.3942 0.59443c-0.37123 0.10395-0.83703-0.13596-0.83703-0.13596z"
           id="path60" />
      </g>
      <path
         d="m50.229 110.57s0.08443 0.13476 0.14072 0.22203c-0.13536 0.018-0.15144 0.0513-0.48515-0.0911-0.04423-0.0167-0.11124-0.0693-0.16618-0.0924l-1.4246-1.073-0.12866-0.10139c0.19433-0.0129 0.34309 0.077 0.44092 0.059z"
         fill="#ab4533"
         id="path61" />
      <path
         d="m132.9 112.93c0.15278 0.0975 0.33505 0.1553 0.46236 0.45819-0.0844 0.38376-0.42484 0.57627-0.61514 0.71745-0.33773 0.0911-0.67144-0.15786-0.67144-0.15786 0.21309-0.163 0.60443-0.39402 0.82422-1.0178z"
         fill="#922204"
         id="path62" />
    </g>
    <g
       transform="matrix(.19814 0 0 .19814 -4.4564 -.35754)"
       fill-rule="evenodd"
       id="g79">
      <path
         d="m154.83 40.366 0.0268 0.0154c0.26937 0.18482 0.38195 0.54675 0.30422 0.88943l-0.0134 0.04621c-0.12598-0.13476-0.20639-0.26824-0.45299-0.44664z"
         fill="#922204"
         stroke-width="1.3115"
         id="path63" />
      <path
         d="m48.195 109.47c-0.20639-0.1553-0.41412-0.76237-0.3069-1.132l0.28948-0.0963c-0.10722 0.5352 0.23855 1.1448 0.53876 1.3104 0.0013 0-0.21041 0.11422-0.52133-0.0821z"
         fill="#d75329"
         stroke-width="1.3115"
         id="path64" />
      <rect
         transform="matrix(1.3402,0,0,1.2835,22.492,26.082)"
         x="35.25"
         y="7.372"
         width=".325"
         height=".024"
         clip-path="url(#XMLID_56_-9-6)"
         fill="#faaa4f"
         id="rect64" />
      <rect
         transform="matrix(1.3402,0,0,1.2835,22.492,26.082)"
         x="35.25"
         y="7.396"
         width=".325"
         height=".027"
         clip-path="url(#XMLID_56_-9-6)"
         fill="#f6a34c"
         id="rect65" />
      <rect
         transform="matrix(1.3402,0,0,1.2835,22.492,26.082)"
         x="35.25"
         y="7.423"
         width=".325"
         height=".024"
         clip-path="url(#XMLID_56_-9-6)"
         fill="#f39d48"
         id="rect66" />
      <rect
         transform="matrix(1.3402,0,0,1.2835,22.492,26.082)"
         x="35.25"
         y="7.448"
         width=".325"
         height=".027"
         clip-path="url(#XMLID_56_-9-6)"
         fill="#f09745"
         id="rect67" />
      <rect
         transform="matrix(1.3402,0,0,1.2835,22.492,26.082)"
         x="35.25"
         y="7.475"
         width=".325"
         height=".025"
         clip-path="url(#XMLID_56_-9-6)"
         fill="#ed9142"
         id="rect68" />
      <rect
         transform="matrix(1.3402,0,0,1.2835,22.492,26.082)"
         x="35.25"
         y="7.5"
         width=".325"
         height=".024"
         clip-path="url(#XMLID_56_-9-6)"
         fill="#eb8c3f"
         id="rect69" />
      <rect
         transform="matrix(1.3402,0,0,1.2835,22.492,26.082)"
         x="35.25"
         y="7.525"
         width=".325"
         height=".025"
         clip-path="url(#XMLID_56_-9-6)"
         fill="#e8863c"
         id="rect70" />
      <rect
         transform="matrix(1.3402,0,0,1.2835,22.492,26.082)"
         x="35.25"
         y="7.55"
         width=".325"
         height=".024"
         clip-path="url(#XMLID_56_-9-6)"
         fill="#e68139"
         id="rect71" />
      <rect
         transform="matrix(1.3402,0,0,1.2835,22.492,26.082)"
         x="35.25"
         y="7.575"
         width=".325"
         height=".025"
         clip-path="url(#XMLID_56_-9-6)"
         fill="#e57b37"
         id="rect72" />
      <rect
         transform="matrix(1.3402,0,0,1.2835,22.492,26.082)"
         x="35.25"
         y="7.6"
         width=".325"
         height=".025"
         clip-path="url(#XMLID_56_-9-6)"
         fill="#e27634"
         id="rect73" />
      <rect
         transform="matrix(1.3402,0,0,1.2835,22.492,26.082)"
         x="35.25"
         y="7.625"
         width=".325"
         height=".026"
         clip-path="url(#XMLID_56_-9-6)"
         fill="#e07132"
         id="rect74" />
      <rect
         transform="matrix(1.3402,0,0,1.2835,22.492,26.082)"
         x="35.25"
         y="7.652"
         width=".325"
         height=".025"
         clip-path="url(#XMLID_56_-9-6)"
         fill="#df6b30"
         id="rect75" />
      <rect
         transform="matrix(1.3402,0,0,1.2835,22.492,26.082)"
         x="35.25"
         y="7.677"
         width=".325"
         height=".024"
         clip-path="url(#XMLID_56_-9-6)"
         fill="#dc662e"
         id="rect76" />
      <rect
         transform="matrix(1.3402,0,0,1.2835,22.492,26.082)"
         x="35.25"
         y="7.702"
         width=".325"
         height=".027"
         clip-path="url(#XMLID_56_-9-6)"
         fill="#db602c"
         id="rect77" />
      <rect
         transform="matrix(1.3402,0,0,1.2835,22.492,26.082)"
         x="35.25"
         y="7.729"
         width=".325"
         height=".024"
         clip-path="url(#XMLID_56_-9-6)"
         fill="#d95a2a"
         id="rect78" />
      <rect
         transform="matrix(1.3402,0,0,1.2835,22.492,26.082)"
         x="35.25"
         y="7.753"
         width=".325"
         height=".027"
         clip-path="url(#XMLID_56_-9-6)"
         fill="#d75329"
         id="rect79" />
    </g>
    <g
       transform="matrix(.19814 0 0 .19814 -4.4564 -.35754)"
       stroke-width="1.3115"
       id="g81">
      <path
         d="m132.12 113.99c-11.812-7.3953-22.87-13.517-40.38-14-12.804 0.24257-22.62 1.8045-43.038 9.5707-0.30154-0.16428-0.6835-0.57371-0.57762-1.1115 17.678-7.2092 31.713-10.319 43.361-10.21 17.637 0.16813 29.863 7.2348 41.424 14.683-0.19567 0.652-0.57628 0.90227-0.78937 1.0678z"
         fill="#922204"
         id="path79" />
      <path
         d="m69.74 35.989 0.20237 0.06161-21.771 72.371c-0.04959-0.0205-0.28144-0.0796-0.28144-0.0796z"
         fill="#d75329"
         fill-rule="evenodd"
         id="path80" />
      <path
         d="m139.79 129.9c-0.22906 0.0148-0.47138 0.12007-0.77742 0.2984-9e-3 5e-3 -0.0168 8e-3 -0.0262 0.0131-0.0194 7e-3 -0.0484 0.0143-0.0864 0.0419-0.35799 0.23875-1.4553 1.0096-1.6464 1.4763l-0.0262 0.0183-0.0131 0.0419c-9.6e-4 4e-3 -7e-3 9e-3 -8e-3 0.0131l5e-3 -3e-3 -21.479 71.387c-0.32176 0.88054 0.29622 1.4394 0.59418 1.6491 19.182 12.369 46.857 23.225 90.274 5.4522 0.12866-0.0642 0.51587-0.29153 0.7303-0.67271l21.016-70.138c-1e-3 -4e-3 -8e-3 -9e-3 -0.0107-0.0131 0.16104-0.78957-0.35726-1.2633-0.36123-1.2669l-0.0107-5e-3 -1.7407-1.3376c-0.15144-0.1399-0.49499-0.31988-1.2093-0.21464-0.0371 0.0121-0.0728 0.022-0.1099 0.034l-0.80565 0.31942c-9.2512 3.662-16.086 4.2719-23.522 5.7696-3e-3 5.3e-4 -5e-3 2e-3 -8e-3 3e-3 -28.214 4.5405-44.726-2.8421-59.944-12.65-7.9e-4 -2e-3 8e-4 -3e-3 0-5e-3 -4e-3 -2e-3 -7e-3 -9.2e-4 -0.0105-3e-3 -0.32741-0.14932-0.57391-0.22558-0.82453-0.2094z"
         fill="#c19236"
         fill-rule="evenodd"
         id="path81" />
    </g>
    <g
       transform="matrix(.26555 0 0 .26555 -3.6981 4.0733)"
       id="g101">
      <path
         transform="matrix(1 0 0 .95766 13.927 .77576)"
         d="m88.064 83.286c14.313 9.637 30.374 17.361 63.405 3.7077l-15.915 56.389c-33.037 13.664-49.676 5.7961-63.974-3.8999z"
         clip-path="url(#XMLID_70_-70-7)"
         fill="url(#linearGradient7245)"
         id="path82" />
      <g
         fill="#a87c3c"
         fill-rule="evenodd"
         stroke-width=".9786"
         id="g85">
        <path
           d="m151.92 139.81c-0.16 0.28442-0.449 0.45297-0.545 0.50085-0.021 0.0115-0.035 0.0115-0.035 0.0115s-0.275 0.0335-0.525-0.15706c0.645-0.3371 0.836-1.0142 0.836-1.0142s0.372 0.30358 0.269 0.65888z"
           id="path83" />
        <path
           d="m151.92 139.81c0.039-0.30646-0.3977-0.62086-0.3977-0.62086l15.643-52.331s0.37975 0.30602 0.45175 0.47074z"
           id="path84" />
        <path
           d="m167.61 87.349s-0.051-0.1494-0.332-0.37445c0.129-0.50852 0.039-0.61769 0.039-0.61769l0.025 0.01532c1e-3 9.58e-4 0.413 0.36391 0.268 0.97682z"
           id="path85" />
      </g>
      <path
         d="m166.04 86.088s-0.434-0.50469-1.316-0.34763c0.047-0.19058 0.121-0.42233 0.402-0.5315 0.533-0.07853 0.789 0.0565 0.902 0.16089 0.064 0.06321 0.082 0.10822 0.082 0.10822 0.07 0.29975-0.07 0.61003-0.07 0.61003z"
         fill="url(#linearGradient3054-6)"
         fill-rule="evenodd"
         stroke-width=".9786"
         id="path86" />
      <g
         fill="#a87c3c"
         id="g88">
        <path
           d="m166.03 85.37 1.307 1.0027c0.076 0.33997-0.064 0.67707-0.064 0.67707l-1.301-0.99884c-1e-3 0 0.128-0.38211 0.058-0.6809z"
           fill-rule="evenodd"
           stroke-width=".9786"
           id="path87" />
        <polygon
           transform="matrix(1 0 0 .95766 13.927 .77576)"
           points="137.72 144.62 137.66 144.77 136.29 143.58 152.04 88.963 153.37 90.025"
           fill-rule="evenodd"
           id="polygon87" />
        <path
           d="m149.44 139.22s-0.53104-0.44913-0.41804-1.2459c0.848-0.2059 1.297 0.21641 1.297 0.21641s-0.156 0.72687-0.879 1.0295z"
           stroke-width=".9786"
           id="path88" />
      </g>
      <path
         d="m164.78 85.792c-33.176 10.823-48.441 4.3545-62.754-4.8707 0.034-0.12354 0.122-0.32561 0.025-0.55353 14.313 9.2252 30.143 15.525 63.076 4.841-0.249 0.16472-0.281 0.38881-0.347 0.58322z"
         fill="url(#linearGradient18448)"
         stroke-width=".9786"
         id="path89" />
      <polygon
         transform="matrix(1 0 0 .95766 13.927 .77576)"
         points="69.513 140.24 69.516 140.11 85.601 84.389 86.778 83.533 70.757 139.26"
         fill="#c19236"
         fill-rule="evenodd"
         id="polygon89" />
      <path
         d="m86.047 134.39c-0.467-0.26528-1.011-0.46734-1.457-0.29592l16.063-53.304c0.25-0.10056 0.844-0.25857 1.453 0.1494z"
         fill="#c19236"
         stroke-width=".9786"
         id="path90" />
      <g
         stroke-width=".9786"
         id="g99">
        <path
           d="m148.97 137.99 15.758-52.271c0.029-0.0077 0.068-0.04501 0.094-0.04884 0.838-0.08236 1.227 0.3438 1.227 0.3438l-15.715 52.189c-1e-3 9.6e-4 -0.665-0.49319-1.364-0.2126z"
           fill="url(#linearGradient3062-6)"
           id="path91" />
        <g
           fill="#a87c3c"
           id="g95">
          <path
             d="m151.37 140.31c-32.396 13.262-53.176 5.1063-67.489-4.1227l0.15-0.11971c14.313 9.2252 36.339 16.909 66.778 4.0404 0.252 0.19057 0.561 0.20206 0.561 0.20206z"
             fill-rule="evenodd"
             id="path92" />
          <path
             d="m150.32 138.2 1.334 1.0735s-0.18 0.62057-0.902 0.92415l-1.355-1.0774c0.722-0.30263 0.923-0.92032 0.923-0.92032z"
             fill-rule="evenodd"
             id="path93" />
          <path
             d="m149.12 137.87c-0.113 0.79678 0.498 1.3733 0.498 1.3733-33.037 13.086-49.957 5.2413-64.257-4.0404 0.252-0.17621 0.375-0.32944 0.536-0.88297 0.021 0.0115 0.221-0.0191 0.241-8e-3 14.761 8.7052 33.654 15.585 62.982 3.5577z"
             id="path94" />
          <path
             d="m84.042 136.12 1.4735-1.1c13.117 7.8337 31.188 16.406 63.801 3.8744l1.5091 1.2699c-30.313 12.858-52.471 5.1848-66.784-4.0442z"
             fill-rule="evenodd"
             id="path95" />
        </g>
        <g
           fill="#c19236"
           id="g98">
          <path
             d="m84.154 136.16-0.15 0.10056s-0.87-0.45968-0.561-1.3053c0.071 0.83413 0.711 1.2047 0.711 1.2047z"
             fill-rule="evenodd"
             id="path96" />
          <path
             d="m83.443 134.96 1.242-0.97299c-0.068 0.87148 0.813 1.1932 0.813 1.1932l-1.364 0.99885c1e-3 9.5e-4 -0.76-0.35051-0.691-1.2191z"
             id="path97" />
          <path
             d="m84.593 134.02c0.445-0.17238 0.862 0.0297 1.331 0.29209-0.163 0.55736-0.261 0.75176-0.513 0.92797-0.294-0.16855-0.893-0.51331-0.818-1.2201z"
             id="path98" />
        </g>
      </g>
      <path
         transform="matrix(1 0 0 .95766 13.927 .77576)"
         d="m88.226 83.334c14.313 9.637 30.212 17.313 63.243 3.66l-16.281 56.234c-33.037 13.664-48.903 5.926-63.201-3.77z"
         clip-path="url(#XMLID_70_-70-7)"
         fill="none"
         id="path99" />
      <path
         d="m100.86 80.436-0.17 0.38115-1.178 0.81593c0.076-0.33997 0.984-0.96916 1.264-1.1559 0.037-0.02681 0.084-0.04118 0.084-0.04118z"
         fill="#c19236"
         fill-rule="evenodd"
         stroke-width=".9786"
         id="path100" />
      <path
         d="m102.06 80.919c-0.657-0.36679-1.193-0.14556-1.443-0.04118 0.039-0.11588 0.174-0.40796 0.174-0.40796 0.532-0.32561 0.774-0.32561 1.271-0.09768 0.096 0.22505 0.033 0.40414-2e-3 0.54683z"
         fill="#c19236"
         stroke-width=".9786"
         id="path101" />
    </g>
    <path
       d="m13.097 21.244c-0.05285 0.0038-0.1147-3e-3 -0.16735 9.9e-4 -0.13772-0.0018-0.26264 0.0077-0.40367 0.0098-2.0446 0.03064-4.4566 0.5307-7.3829 1.6187-0.26198 0.09254-0.52216 0.18618-0.7733 0.2837-0.017022 7e-3 -0.070679 0.02493-0.089726 0.0835h-5.349e-4l-5.35e-4 0.0021-4.243 14.265c-0.020632 0.07054 0.013701 0.145 0.065349 0.19138h5.3498e-4l0.005708 0.0062 0.28421 0.20745c2.5758e-4 1.98e-4 7.9256e-4 1.98e-4 0.00107 5.94e-4l0.003107 0.0027c2.5758e-4 4e-5 7.9256e-4 -3.6e-5 0.00107 0 0.071031 0.04887 0.12774 0.04829 0.15715 0.04564 5.3498e-4 1.98e-4 0.007781 0.0047 0.007781 0.0047 0.005338-0.0018 0.010224-0.0037 0.01556-0.0057 2.3777e-4 -4.7e-5 0.004143 0 0.004143 0l-0.001585-9.9e-4c3.1938-1.1843 5.7425-1.7254 7.9036-1.7134 1.9881 0.01171 3.6337 0.46474 5.1403 1.1198 0.18281 0.08071 0.36604 0.1609 0.54457 0.24791 0.0016 7.93e-4 0.0031 0.0014 0.0047 0.0021 0.0033 0.0016 0.0065 0.0036 0.0099 0.0052 0.24409 0.11925 0.48469 0.24401 0.72248 0.37341 0.47712 0.25966 0.93625 0.53292 1.3995 0.82226-1.99e-4 1.71e-4 -7.93e-4 1.99e-4 -9.91e-4 5.95e-4 0 0 0.0065 0.0027 0.0073 0.0031 0.0028 0.0018 0.0055 0.0034 0.0083 0.0052l0.0016-5.94e-4c0.02132 0.01203 0.08257 0.04308 0.153 0.01296l0.25622-0.14522h5.94e-4l0.0057-0.0036c-1.99e-4 9.6e-5 -7.93e-4 -9.3e-5 -9.91e-4 0 0.03659-0.02692 0.09376-0.064 0.11203-0.13277 1.98e-4 5.94e-4 7.93e-4 9.91e-4 9.91e-4 0.0016l4.3838-14.387c0.0154-0.06841-0.0065-0.13998-0.06068-0.17686l-0.0073-0.0041-9.91e-4 0.0031c-2.2549-1.463-4.6447-2.7063-8.0666-2.7489zm-8.7786 1.9973-0.00364 0.0088-0.028524-0.0078c0.010622-1.98e-4 0.021536-7.92e-4 0.032154-9.9e-4z"
       fill="#a0b4ff"
       fill-rule="evenodd"
       stroke-width=".25986"
       id="path102" />
    <g
       fill="#141fb8"
       stroke-width=".25986"
       id="g106">
      <path
         d="m0.36134 37.936c0.028679 0.0041 0.081523-0.01984 0.081523-0.01984 0.06081 0.03967 0.10914 0.06764 0.10914 0.06764s-0.095066 0.02161-0.19066-0.04781z"
         fill-rule="evenodd"
         id="path103" />
      <path
         d="m16.633 38.645s0.0499 0.07261 0.11682 0.05481l-0.27158 0.15577c-0.08391 0.03586-0.17022-0.02085-0.17022-0.02085z"
         id="path104" />
      <path
         d="m0.44632 37.917s-0.051251 0.02491-0.080195 0.02085l-0.28812-0.21057-0.0066387-0.0058c0.041691 0.01399 0.089755 0.0069 0.10914 0.0031z"
         id="path105" />
      <path
         d="m16.763 38.464c0.03001 0.02085 0.06161 0.04374 0.09135 0.10121-0.01673 0.07553-0.08259 0.11418-0.11976 0.14216-0.05364 0.01195-0.12879-0.03688-0.12879-0.03688 0.04196-0.03382 0.11365-0.08239 0.1572-0.2065z"
         id="path106" />
    </g>
    <g
       fill-rule="evenodd"
       id="g107">
      <rect
         x="4.2713"
         y="23.251"
         width=".086037"
         height=".0045775"
         fill="#2e499e"
         stroke-width=".25986"
         id="rect106" />
      <polygon
         transform="matrix(.26555 0 0 .2543 .00019767 4.2793)"
         points="16.267 74.611 0.207 130.8 0.023 130.75 16.086 74.56"
         fill="#141fb8"
         id="polygon106" />
      <path
         d="m0.078003 37.729c-0.055234-0.04577-0.093473-0.1241-0.071963-0.19759l0.051251-0.01883c-0.021509 0.1063 0.060014 0.18285 0.1195 0.21565 5.3109e-4 -2.55e-4 -0.043019 0.02061-0.098784 7.96e-4z"
         fill="#141fb8"
         stroke-width=".25986"
         id="path107" />
    </g>
    <path
       d="m16.613 38.679c-3.8058-2.4528-7.75-4.3263-16.43-0.94856-0.059748-0.033822-0.15057-0.1152-0.12932-0.22252 8.814-3.5931 12.909-1.494 16.715 0.9595-0.03877 0.1302-0.11312 0.17877-0.15508 0.21158z"
       fill="url(#linearGradient7243)"
       stroke-width=".25986"
       id="path108" />
    <g
       transform="matrix(.26555 0 0 .26555 -3.6981 4.0733)"
       fill="#141fb8"
       fill-rule="evenodd"
       stroke-width=".9786"
       id="g111">
      <path
         d="m15.542 127.41c31.464-11.78 45.567-5.3648 59.892 3.4677-8.58-5.2892-17.41-9.524-29.594-9.5958-8.154-0.045-17.791 1.9374-29.851 6.4154 0 9.6e-4 -0.249-0.0891-0.447-0.2873z"
         id="path109" />
      <path
         d="m76.693 130.32-1.3488 0.57939c-14.325-8.8325-28.801-14.854-59.715-3.3661l-1.2086-0.91778c32.689-12.722 47.942-5.5351 62.273 3.7044z"
         id="path110" />
      <path
         d="m76.926 129.4 16.47-54.213c0.177 0.11779 0.44359 0.39388 0.53559 0.49443l-16.542 54.239c-0.093-0.22793-0.57675-0.42618-0.57675-0.42618z"
         id="path111" />
    </g>
    <g
       stroke-width=".25986"
       id="g116">
      <path
         d="m21.141 24.205c-3.8021-2.4678-8.0849-4.3643-16.831-0.94569 0.021775-0.07146 0.039567-0.10528 0.039567-0.10528 8.7846-3.4784 13.027-1.6316 16.829 0.83642z"
         fill="url(#linearGradient18472)"
         fill-rule="evenodd"
         id="path112" />
      <path
         d="m16.767 38.507c-3.8056-2.4528-7.9425-4.4702-16.725-0.9923l4.2857-14.348c8.7846-3.4784 13.02-1.5473 16.821 0.92044z"
         fill="url(#linearGradient3574)"
         id="path113" />
      <path
         d="m16.767 38.507c-3.8056-2.4528-7.9425-4.4702-16.725-0.9923l4.3005-14.385c8.7846-3.4784 13.005-1.5101 16.806 0.95772z"
         fill="none"
         id="path114" />
      <path
         d="m21.177 23.989 0.0072 0.0041c0.05417 0.03687 0.07621 0.10833 0.06081 0.17674l-0.0032 0.0089c-0.02416-0.02645-0.04939-0.05162-0.09613-0.0829z"
         fill="#313c7e"
         fill-rule="evenodd"
         id="path115" />
      <path
         d="m4.3193 23.256-0.048064-0.01348c0.018323-0.06052 0.061607-0.08138 0.078868-0.0885l0.00717-2e-3c2.656e-4 0-0.015933 0.03179-0.037973 0.10401z"
         fill="url(#linearGradient3046-4)"
         fill-rule="evenodd"
         id="path116" />
    </g>
    <path
       d="m16.616 38.687c-3.8119-2.3875-7.9061-4.3141-16.438-0.95135-0.056296-0.015668-0.15764-0.10934-0.1364-0.2214 8.2179-3.4492 12.921-1.6194 16.726 0.94405-0.03877 0.13596-0.10958 0.19446-0.15154 0.22871z"
       fill="#141fb8"
       stroke-width=".26555"
       id="path117" />
  </g>
</svg>
