<?xml version="1.0" encoding="UTF-8" standalone="no"?>
<svg
   width="256"
   height="256"
   viewBox="0 0 256 256"
   version="1.1"
   id="svg8"
   inkscape:version="1.1.1 (3bf5ae0d25, 2021-09-20)"
   sodipodi:docname="window-blocked.svg"
   inkscape:export-filename="/media/klapeto/Αρχεία/WindowsXP Theme/Vectors/RASTER/window-2.png"
   inkscape:export-xdpi="96"
   inkscape:export-ydpi="96"
   xmlns:inkscape="http://www.inkscape.org/namespaces/inkscape"
   xmlns:sodipodi="http://sodipodi.sourceforge.net/DTD/sodipodi-0.dtd"
   xmlns:xlink="http://www.w3.org/1999/xlink"
   xmlns="http://www.w3.org/2000/svg"
   xmlns:svg="http://www.w3.org/2000/svg"
   xmlns:rdf="http://www.w3.org/1999/02/22-rdf-syntax-ns#"
   xmlns:cc="http://creativecommons.org/ns#"
   xmlns:dc="http://purl.org/dc/elements/1.1/">
  <defs
     id="defs2">
    <linearGradient
       inkscape:collect="always"
       id="linearGradient120820">
      <stop
         style="stop-color:#015baa;stop-opacity:1"
         offset="0"
         id="stop120816" />
      <stop
         style="stop-color:#0274d6;stop-opacity:1"
         offset="1"
         id="stop120818" />
    </linearGradient>
    <linearGradient
       inkscape:collect="always"
       id="linearGradient90889">
      <stop
         style="stop-color:#015cac;stop-opacity:1"
         offset="0"
         id="stop90885" />
      <stop
         style="stop-color:#5ea9ea;stop-opacity:1"
         offset="1"
         id="stop90887" />
    </linearGradient>
    <linearGradient
       inkscape:collect="always"
       id="linearGradient25317">
      <stop
         style="stop-color:#2652a4;stop-opacity:1"
         offset="0"
         id="stop25313" />
      <stop
         style="stop-color:#0572d6;stop-opacity:1"
         offset="1"
         id="stop25315" />
    </linearGradient>
    <linearGradient
       inkscape:collect="always"
       id="linearGradient3846">
      <stop
         style="stop-color:#abd5ff;stop-opacity:1"
         offset="0"
         id="stop3842" />
      <stop
         style="stop-color:#ffffff;stop-opacity:1"
         offset="1"
         id="stop3844" />
    </linearGradient>
    <linearGradient
       inkscape:collect="always"
       xlink:href="#linearGradient3846"
       id="linearGradient3848"
       x1="-71.719818"
       y1="34.592545"
       x2="-110.52647"
       y2="8.1339283"
       gradientUnits="userSpaceOnUse" />
    <linearGradient
       inkscape:collect="always"
       xlink:href="#linearGradient25317"
       id="linearGradient25319"
       x1="-93.932289"
       y1="36"
       x2="-93.932289"
       y2="5.5"
       gradientUnits="userSpaceOnUse" />
    <linearGradient
       inkscape:collect="always"
       xlink:href="#linearGradient90889"
       id="linearGradient90891"
       x1="-93.932289"
       y1="4"
       x2="-93.932289"
       y2="1.5"
       gradientUnits="userSpaceOnUse" />
    <linearGradient
       inkscape:collect="always"
       xlink:href="#linearGradient120820"
       id="linearGradient117405"
       gradientUnits="userSpaceOnUse"
       x1="-93.932289"
       y1="4.5"
       x2="-93.932289"
       y2="0.5" />
    <filter
       inkscape:collect="always"
       style="color-interpolation-filters:sRGB"
       id="filter217506"
       x="-0.04382619"
       y="-0.053052486"
       width="1.0876524"
       height="1.106105">
      <feGaussianBlur
         inkscape:collect="always"
         stdDeviation="4.4191406"
         id="feGaussianBlur217508" />
    </filter>
    <filter
       height="1.0953369"
       y="-0.04766843"
       width="1.0966724"
       x="-0.048336213"
       id="filter963"
       style="color-interpolation-filters:sRGB"
       inkscape:collect="always">
      <feGaussianBlur
         id="feGaussianBlur965"
         stdDeviation="4.8065668"
         inkscape:collect="always" />
    </filter>
  </defs>
  <sodipodi:namedview
     inkscape:guide-bbox="true"
     id="base"
     pagecolor="#ffffff"
     bordercolor="#666666"
     borderopacity="1.0"
     inkscape:pageopacity="0.0"
     inkscape:pageshadow="2"
     inkscape:zoom="2.8284271"
     inkscape:cx="3.3587572"
     inkscape:cy="107.30345"
     inkscape:document-units="px"
     inkscape:current-layer="layer1"
     inkscape:document-rotation="0"
     showgrid="false"
     units="px"
     inkscape:window-width="3840"
     inkscape:window-height="2043"
     inkscape:window-x="3840"
     inkscape:window-y="0"
     inkscape:window-maximized="1"
     inkscape:snap-bbox="true"
     inkscape:bbox-nodes="true"
     fit-margin-top="0"
     fit-margin-left="0"
     fit-margin-right="0"
     fit-margin-bottom="0"
     inkscape:bbox-paths="false"
     inkscape:snap-global="true"
     showguides="true"
     inkscape:pagecheckerboard="0">
    <inkscape:grid
       type="xygrid"
       id="grid1504"
       originx="0"
       originy="0" />
    <inkscape:grid
       type="xygrid"
       id="grid1507"
       spacingx="0.5"
       spacingy="0.5"
       originx="0"
       originy="0" />
  </sodipodi:namedview>
  <metadata
     id="metadata5">
    <rdf:RDF>
      <cc:Work
         rdf:about="">
        <dc:format>image/svg+xml</dc:format>
        <dc:type
           rdf:resource="http://purl.org/dc/dcmitype/StillImage" />
      </cc:Work>
    </rdf:RDF>
  </metadata>
  <g
     inkscape:label="Layer 1"
     inkscape:groupmode="layer"
     id="layer1"
     transform="translate(-12.567709)">
    <path
       id="path217293"
       style="fill:#212121;fill-opacity:1;stroke:none;stroke-width:5.26087px;stroke-linecap:butt;stroke-linejoin:miter;stroke-opacity:1;filter:url(#filter217506)"
       d="m 30.720053,32.043 c -3.507243,0 -6.707593,1.672437 -9.09375,4.058593 -2.386156,2.386157 -4.058594,5.586509 -4.058594,9.09375 v 7.892579 2.628906 2.630859 173.609373 H 259.56771 V 58.347687 53.087922 45.195343 c 0,-3.507241 -1.67244,-6.707593 -4.05859,-9.09375 C 253.12296,33.715438 249.92261,32.043 246.41537,32.043 Z" />
    <g
       id="g217211"
       transform="matrix(5.2608697,0,0,5.2608697,604.05934,28.043476)">
      <g
         id="g162556"
         style="opacity:1"
         transform="translate(1.499999)">
        <path
           style="fill:url(#linearGradient3848);fill-opacity:1;stroke:none;stroke-width:1px;stroke-linecap:butt;stroke-linejoin:miter;stroke-opacity:1"
           d="m -113.43229,4.5 v 33 h 44.999999 v -33 z"
           id="path3642" />
        <path
           style="color:#000000;fill:#2652a4;-inkscape-stroke:none"
           d="m -113.43164,36 v 1.5 h 44.999999 V 36 Z"
           id="path3607"
           sodipodi:nodetypes="ccccc" />
        <path
           style="fill:url(#linearGradient90891);fill-opacity:1;stroke:none;stroke-width:1px;stroke-linecap:butt;stroke-linejoin:miter;stroke-opacity:1"
           d="M -68.432291,5 H -113.43229 V 2 l 2,-1.5 h 41.499999 l 1.5,1.5 z"
           id="path3338" />
        <path
           style="color:#000000;fill:#c7dcde;-inkscape-stroke:none"
           d="m -113.43164,5 v 1 h 44.999999 V 5 Z"
           id="path3439" />
        <path
           style="fill:none;stroke:url(#linearGradient25319);stroke-width:1px;stroke-linecap:butt;stroke-linejoin:miter;stroke-opacity:1"
           d="m -113.43229,4.5 v 33 h 44.999999 v -33 z"
           id="path1183"
           sodipodi:nodetypes="ccccc" />
        <path
           style="fill:none;stroke:url(#linearGradient117405);stroke-width:1px;stroke-linecap:butt;stroke-linejoin:miter;stroke-opacity:1"
           d="m -113.43229,2.5 v 2 h 44.999998 l 10e-7,-2 c 0,-1 -1,-2 -2,-2 h -40.999999 c -1,0 -2,1 -2,2 z"
           id="path116814"
           sodipodi:nodetypes="ccccccc" />
      </g>
      <path
         id="rect162598"
         style="opacity:1;fill:#e37046;fill-rule:evenodd;stroke-width:5.204;stroke-linecap:round;stroke-linejoin:round;stop-color:#000000"
         d="m -70.932291,2 h 2.000002 l -2e-6,2 h -2 z"
         sodipodi:nodetypes="ccccc" />
      <path
         id="rect162602"
         style="opacity:1;fill:#7cbcf8;fill-rule:evenodd;stroke-width:5.204;stroke-linecap:round;stroke-linejoin:round;stop-color:#000000"
         d="m -74.432291,2 h 2.000002 l -2e-6,2 h -2.000002 z"
         sodipodi:nodetypes="ccccc" />
      <path
         id="rect162604"
         style="opacity:1;fill:#7cbcf8;fill-rule:evenodd;stroke-width:5.204;stroke-linecap:round;stroke-linejoin:round;stop-color:#000000"
         d="m -78.432291,2 h 2.000002 l -2e-6,2 h -2 z"
         sodipodi:nodetypes="ccccc" />
    </g>
    <g
       inkscape:label="Layer 1"
       id="layer1-5"
       transform="matrix(0.56588498,0,0,0.56588498,117.56405,111.06648)">
      <path
         d="M 133.81221,4 A 116.24404,116.24404 0 0 0 17.567709,120.2445 116.24404,116.24404 0 0 0 39.479668,188.17002 116.24404,116.24404 0 0 0 139.97989,246 116.24404,116.24404 0 0 0 256.22439,129.7555 116.24404,116.24404 0 0 0 234.31243,61.829975 116.24404,116.24404 0 0 0 133.81221,4 Z"
         style="fill:#212121;fill-opacity:1;fill-rule:evenodd;stroke:none;stroke-width:63.1773;stroke-linecap:round;stroke-linejoin:round;stroke-miterlimit:4;stroke-dasharray:none;filter:url(#filter963)"
         id="circle942" />
      <g
         transform="matrix(5.4066999,0,0,5.4066999,495.5627,-5.4066999)"
         id="g940">
        <circle
           style="opacity:1;fill:#ffffff;fill-opacity:1;fill-rule:evenodd;stroke:none;stroke-width:11.685;stroke-linecap:round;stroke-linejoin:round;stroke-miterlimit:4;stroke-dasharray:none"
           id="path919"
           cx="-67.310364"
           cy="22.756973"
           r="18.249216" />
        <path
           d="m -66.691769,2.7592809 a 21.5,21.5 0 0 0 -21.5,21.5000001 21.5,21.5 0 0 0 21.5,21.5 21.5,21.5 0 0 0 21.5,-21.5 21.5,21.5 0 0 0 -21.5,-21.5000001 z m 0,5.5 a 16,16 0 0 1 16,16.0000001 16,16 0 0 1 -2.099609,7.921875 L -74.8988,10.524906 a 16,16 0 0 1 8.207031,-2.2656251 z M -79.40466,14.54639 -56.978878,36.972172 a 16,16 0 0 1 -9.712891,3.287109 16,16 0 0 1 -16,-16 16,16 0 0 1 3.287109,-9.712891 z"
           style="opacity:1;fill:#a21907;fill-opacity:1;fill-rule:evenodd;stroke:none;stroke-width:11.685;stroke-linecap:round;stroke-linejoin:round;stroke-miterlimit:4;stroke-dasharray:none"
           id="path917" />
        <path
           id="path889"
           style="opacity:1;fill:#f52e14;fill-opacity:1;fill-rule:evenodd;stroke:none;stroke-width:11.685;stroke-linecap:round;stroke-linejoin:round;stroke-miterlimit:4;stroke-dasharray:none"
           d="m -67.832682,1 a 21.5,21.5 0 0 0 -21.5,21.5 21.5,21.5 0 0 0 21.5,21.5 21.5,21.5 0 0 0 21.5,-21.5 21.5,21.5 0 0 0 -21.5,-21.5 z m 0,5.5 a 16,16 0 0 1 16,16 16,16 0 0 1 -2.099609,7.921875 L -76.039713,8.765625 A 16,16 0 0 1 -67.832682,6.5 Z m -12.712891,6.287109 22.425782,22.425782 A 16,16 0 0 1 -67.832682,38.5 a 16,16 0 0 1 -16,-16 16,16 0 0 1 3.287109,-9.712891 z" />
      </g>
    </g>
  </g>
</svg>
