<?xml version="1.0" encoding="UTF-8" standalone="no"?>
<svg
   version="1.1"
   viewBox="0 0 256 256"
   id="svg335"
   sodipodi:docname="windows-logo.svg"
   inkscape:version="1.1.2 (0a00cf5339, 2022-02-04)"
   xmlns:inkscape="http://www.inkscape.org/namespaces/inkscape"
   xmlns:sodipodi="http://sodipodi.sourceforge.net/DTD/sodipodi-0.dtd"
   xmlns:xlink="http://www.w3.org/1999/xlink"
   xmlns="http://www.w3.org/2000/svg"
   xmlns:svg="http://www.w3.org/2000/svg">
  <sodipodi:namedview
     id="namedview337"
     pagecolor="#ffffff"
     bordercolor="#666666"
     borderopacity="1.0"
     inkscape:pageshadow="2"
     inkscape:pageopacity="0.0"
     inkscape:pagecheckerboard="0"
     showgrid="false"
     inkscape:snap-global="false"
     inkscape:zoom="6.2278002"
     inkscape:cx="41.587719"
     inkscape:cy="168.83971"
     inkscape:window-width="3840"
     inkscape:window-height="2056"
     inkscape:window-x="3840"
     inkscape:window-y="0"
     inkscape:window-maximized="1"
     inkscape:current-layer="svg335" />
  <defs
     id="defs99">
    <path
       id="XMLID_20_-2"
       d="m35.432 7.781-0.182-0.052c0.07-0.238 0.234-0.323 0.298-0.35l0.027-8e-3c1e-3 1e-3 -0.06 0.126-0.143 0.41z" />
    <path
       id="XMLID_35_-2"
       d="m88.131 83.682c14.313 9.633 29.822 16.309 62.76 4.969l-15.703 54.578c-28.98 12.742-48.541 5.09-63.201-3.77l16.144-55.777z" />
    <linearGradient
       id="linearGradient4962"
       x1="159.87"
       x2="100.46"
       y1="57.84"
       y2="40.804"
       gradientTransform="matrix(1 0 0 .95766 13.927 .77576)"
       gradientUnits="userSpaceOnUse">
      <stop
         stop-color="#7ec400"
         offset="0"
         id="stop4" />
      <stop
         stop-color="#a6fe0a"
         offset=".333"
         id="stop6" />
      <stop
         stop-color="#6eaa00"
         offset=".667"
         id="stop8" />
      <stop
         stop-color="#4b6700"
         offset="1"
         id="stop10" />
    </linearGradient>
    <linearGradient
       id="linearGradient4970"
       x1="70.161"
       x2="10.682"
       y1="110.96"
       y2="93.901"
       gradientTransform="matrix(1 0 0 .95766 13.927 .77576)"
       gradientUnits="userSpaceOnUse">
      <stop
         stop-color="#141fb8"
         offset="0"
         id="stop13" />
      <stop
         stop-color="#6585fe"
         offset=".4"
         id="stop15" />
      <stop
         stop-color="#a1b6ff"
         offset=".65817"
         id="stop17" />
      <stop
         stop-color="#3b66ff"
         offset="1"
         id="stop19" />
    </linearGradient>
    <linearGradient
       id="linearGradient3028-1"
       x1="170.77"
       x2="171.41"
       y1="20.577"
       y2="21.652"
       gradientTransform="matrix(1.3402 0 0 1.2835 22.492 26.082)"
       gradientUnits="userSpaceOnUse">
      <stop
         stop-color="#83b641"
         offset="0"
         id="stop22" />
      <stop
         stop-color="#595e48"
         offset="1"
         id="stop24" />
    </linearGradient>
    <linearGradient
       id="linearGradient3030-2"
       x1="172.43"
       x2="172.03"
       y1="21.409"
       y2="21.895"
       gradientTransform="matrix(1.3402 0 0 1.2835 22.492 26.082)"
       gradientUnits="userSpaceOnUse">
      <stop
         stop-color="#8aa742"
         offset="0"
         id="stop27" />
      <stop
         stop-color="#595e48"
         offset="1"
         id="stop29" />
    </linearGradient>
    <linearGradient
       id="linearGradient3032-0"
       x1="173.04"
       x2="173.04"
       y1="21.805"
       y2="22.834"
       gradientTransform="matrix(1.3402 0 0 1.2835 22.492 26.082)"
       gradientUnits="userSpaceOnUse">
      <stop
         stop-color="#8aa742"
         offset="0"
         id="stop32" />
      <stop
         stop-color="#767e47"
         offset="1"
         id="stop34" />
    </linearGradient>
    <linearGradient
       id="linearGradient3034-2"
       x1="155.32"
       x2="153.91"
       y1="77.938"
       y2="77.839"
       gradientTransform="matrix(1.3402 0 0 1.2835 22.492 26.082)"
       gradientUnits="userSpaceOnUse">
      <stop
         stop-color="#767e47"
         offset="0"
         id="stop37" />
      <stop
         stop-color="#8aa742"
         offset="1"
         id="stop39" />
    </linearGradient>
    <linearGradient
       id="linearGradient3036-8"
       x1="155.98"
       x2="155.07"
       y1="78.063"
       y2="79.075"
       gradientTransform="matrix(1.3402 0 0 1.2835 22.492 26.082)"
       gradientUnits="userSpaceOnUse">
      <stop
         stop-color="#767e47"
         offset="0"
         id="stop42" />
      <stop
         stop-color="#595e48"
         offset="1"
         id="stop44" />
    </linearGradient>
    <linearGradient
       id="linearGradient3044-0"
       x1="163.59"
       x2="162.09"
       y1="49.529"
       y2="49.1"
       gradientTransform="matrix(1.3402 0 0 1.2835 22.492 26.082)"
       gradientUnits="userSpaceOnUse">
      <stop
         stop-color="#595e48"
         offset="0"
         id="stop47" />
      <stop
         stop-color="#83b641"
         offset="1"
         id="stop49" />
    </linearGradient>
    <linearGradient
       id="linearGradient3046-4"
       x1="16.247"
       x2="16.247"
       y1="74.212"
       y2="74.621"
       gradientTransform="matrix(1 0 0 .95766 13.927 .77576)"
       gradientUnits="userSpaceOnUse">
      <stop
         stop-color="#76a5d8"
         offset="0"
         id="stop52" />
      <stop
         stop-color="#2e499e"
         offset="1"
         id="stop54" />
    </linearGradient>
    <clipPath
       id="XMLID_56_-9-6">
      <use
         width="812.04401"
         height="152.966"
         xlink:href="#XMLID_20_-2"
         id="use57" />
    </clipPath>
    <linearGradient
       id="linearGradient3054-6"
       x1="151.23"
       x2="151.88"
       y1="88.142"
       y2="89.226"
       gradientTransform="matrix(1 0 0 .95766 13.927 .77576)"
       gradientUnits="userSpaceOnUse">
      <stop
         stop-color="#ffcd02"
         offset=".006"
         id="stop60" />
      <stop
         stop-color="#a87c3c"
         offset="1"
         id="stop62" />
    </linearGradient>
    <linearGradient
       id="linearGradient3062-6"
       x1="144.3"
       x2="142.9"
       y1="116.28"
       y2="115.88"
       gradientTransform="matrix(1 0 0 .95766 13.927 .77576)"
       gradientUnits="userSpaceOnUse">
      <stop
         stop-color="#a87c3c"
         offset="0"
         id="stop65" />
      <stop
         stop-color="#ffd200"
         offset="1"
         id="stop67" />
    </linearGradient>
    <clipPath
       id="XMLID_70_-70-7">
      <use
         width="812.04401"
         height="152.966"
         xlink:href="#XMLID_35_-2"
         id="use70" />
    </clipPath>
    <linearGradient
       id="linearGradient7243"
       x1=".187"
       x2="63.144"
       y1="129.19"
       y2="129.19"
       gradientTransform="matrix(1 0 0 .95766 173.8 -501.17)"
       gradientUnits="userSpaceOnUse"
       xlink:href="#XMLID_52_-7" />
    <linearGradient
       id="linearGradient7245"
       x1="140.97"
       x2="81.423"
       y1="123.62"
       y2="106.55"
       gradientUnits="userSpaceOnUse">
      <stop
         stop-color="#ffc907"
         offset="0"
         id="stop74" />
      <stop
         stop-color="#fecc00"
         offset=".167"
         id="stop76" />
      <stop
         stop-color="#ffd952"
         offset=".333"
         id="stop78" />
      <stop
         stop-color="#caa200"
         offset=".625"
         id="stop80" />
      <stop
         stop-color="#987f00"
         offset="1"
         id="stop82" />
    </linearGradient>
    <linearGradient
       id="linearGradient18448"
       x1="102.03"
       x2="165.13"
       y1="85.904"
       y2="85.904"
       gradientUnits="userSpaceOnUse"
       xlink:href="#linearGradient11674" />
    <linearGradient
       id="linearGradient18456"
       x1="182.9"
       x2="122.36"
       y1="26.357"
       y2="17.877"
       gradientTransform="matrix(1.3402 0 0 1.3402 3.8272 25.042)"
       gradientUnits="userSpaceOnUse"
       xlink:href="#linearGradient4962" />
    <linearGradient
       id="linearGradient18464"
       x1="104.45"
       x2="44.978"
       y1="38.419"
       y2="23.168"
       gradientTransform="matrix(1.3402 0 0 1.3402 3.8272 25.042)"
       gradientUnits="userSpaceOnUse">
      <stop
         stop-color="#922204"
         offset="0"
         id="stop87" />
      <stop
         stop-color="#fe6a0b"
         offset=".4"
         id="stop89" />
      <stop
         stop-color="#fea960"
         offset=".66487"
         id="stop91" />
      <stop
         stop-color="#f66911"
         offset="1"
         id="stop93" />
    </linearGradient>
    <linearGradient
       id="linearGradient18472"
       x1="93.274"
       x2="30.159"
       y1="72.666"
       y2="75.396"
       gradientUnits="userSpaceOnUse"
       xlink:href="#linearGradient4970" />
    <linearGradient
       id="linearGradient3572"
       x1="159.87"
       x2="100.46"
       y1="57.84"
       y2="40.804"
       gradientTransform="matrix(1.3402 0 0 1.2835 22.492 26.082)"
       gradientUnits="userSpaceOnUse"
       xlink:href="#linearGradient4962" />
    <linearGradient
       id="linearGradient3574"
       x1="70.161"
       x2="10.682"
       y1="110.96"
       y2="93.901"
       gradientTransform="matrix(1 0 0 .95766 13.927 .77576)"
       gradientUnits="userSpaceOnUse"
       xlink:href="#linearGradient4970" />
  </defs>
  <g
     transform="translate(-12.568)"
     id="g333">
    <g
       stroke-width="1.3115"
       id="g107">
      <path
         d="m165.46 48.156c0.26215-0.03611-0.53415 0.11942-0.88997 0.33505-0.35207 0.23492-1.4273 0.46163-1.6543 0.95638l-0.0366 0.02617-21.617 71.723c-0.36815 1.0119 0.41318 1.5388 0.59419 1.6464 1.9027 1.2273 3.8988 2.4191 6.0509 3.5749 14.521 8.5058 32.826 14.372 57.644 9.5994 8.345-1.319 17.104-3.785 26.292-7.7803 0.12866-0.0642 0.51313-0.28639 0.73292-0.67271l21.96-72.115 3e-3 0.0027c9e-4 -0.0039-8.7e-4 -0.0066 0-0.01045l5e-3 -0.01571c-6.3e-4 -0.0015-1e-3 -0.0038-3e-3 -0.0052 0.1643-0.79863-0.36383-1.2656-0.36383-1.2669l-1.7485-0.82812c-0.15144-0.1399-0.49766-0.31993-1.2093-0.21726-44.167 17.488-65.757 7.6081-84.902-4.7251-1e-3 -0.0042-1e-3 -9e-3 -3e-3 -0.01313-0.0182-0.0083-0.0319-0.01045-0.0497-0.01832-5e-3 -0.0034-0.0107-0.0071-0.0157-0.01045 6.7e-4 0.0016-6.7e-4 0.0036 0 0.0052-0.299-0.1311-1.0338-0.15757-0.79051-0.19108z"
         fill="#767e47"
         id="path101" />
      <path
         d="m 250.95,53.105 c -44.221,17.509 -65.66203,7.590234 -84.82503,-4.760466 l -22.04181,72.494686 c 19.145,12.421 42.58284,22.72638 85.00884,4.53698 z"
         fill="url(#linearGradient3572)"
         id="path103"
         sodipodi:nodetypes="ccccc" />
      <path
         d="m250.87 53.23c-44.221 17.511-65.525 7.7439-84.685-4.6068 0.0442-0.16172 0.15681-0.57863 0.0281-0.87896 19.161 12.353 40.857 22.295 85.075 4.786-0.2935 0.25797-0.2935 0.44564-0.41813 0.69976z"
         fill="url(#linearGradient18456)"
         id="path105" />
    </g>
    <g
       fill="#767e47"
       id="g119">
      <polygon
         transform="matrix(1.3402 0 0 1.2835 22.492 26.082)"
         points="104.72 18.161 105.9 17.319 89.786 73.298 88.544 74.281 88.545 74.152"
         fill-rule="evenodd"
         id="polygon109" />
      <g
         stroke-width="1.3115"
         id="g117">
        <path
           d="m144.45 120.96c-0.67277-0.36064-1.1579-1.0871-1.7556-0.86248l21.651-71.754c0.33236-0.14246 1.17-0.41712 1.9607 0.17968z"
           id="path111" />
        <path
           d="m164.62 47.844-0.21564 0.61858-1.5856 0.98702c0.13402-0.49028 1.3375-1.3078 1.7087-1.5555 0.0697-0.04621 0.0925-0.05006 0.0925-0.05006z"
           fill-rule="evenodd"
           id="path113" />
        <path
           d="m166.28 48.541c-0.81886-0.48386-1.6046-0.31977-1.9397-0.18116 0.0523-0.15273 0.19432-0.4659 0.19432-0.4659 0.71165-0.43124 1.0804-0.42623 1.7451-0.12205 0.0858 0.23744 0.11016 0.51113 2.7e-4 0.76911z"
           id="path115" />
      </g>
    </g>
    <g
       fill-rule="evenodd"
       id="g135">
      <path
         d="m252.51 53.704s-0.49453-0.65328-1.6779-0.44408c0.10454-0.26824 0.10454-0.5198 0.45567-0.73157 0.71164-0.10267 1.0574 0.07701 1.2088 0.2169 0.0844 0.07957 0.1099 0.14503 0.1099 0.14503 0.0952 0.40044-0.0965 0.81371-0.0965 0.81371z"
         fill="url(#linearGradient3028-1)"
         stroke-width="1.3115"
         id="path121" />
      <path
         d="m252.5 52.746 1.749 1.3438c0.10453 0.44921-0.12062 0.90483-0.12062 0.90483l-1.7543-1.3489s0.21979-0.50055 0.12598-0.8997z"
         fill="url(#linearGradient3030-2)"
         stroke-width="1.3115"
         id="path123" />
      <polygon
         transform="matrix(1.3402 0 0 1.2835 22.492 26.082)"
         points="155.24 77.619 171.56 21.402 172.89 22.461 156.48 78.712"
         fill="#595e48"
         id="polygon125" />
      <g
         stroke-width="1.3115"
         id="g133">
        <path
           d="m232.63 127.63c0.0469-0.41199-0.41144-0.7521-0.41144-0.7521l21.947-72.031s0.34845 0.30033 0.44226 0.51723z"
           fill="#767e47"
           id="path127" />
        <path
           d="m254.61 55.388s-0.0791-0.20664-0.45298-0.50825c0.1702-0.67766 0.0576-0.81371 0.0576-0.81371l0.0335 0.02182c0 0.0013 0.54948 0.48001 0.36185 1.3001z"
           fill="url(#linearGradient3032-0)"
           id="path129" />
        <path
           d="m 231.9,128.3 c -11.818,5.139 -23.003,7.7906 -33.39,8.6582 -17.936,1.9508 -32.439,-1.7853 -44.289,-7.3593 -4.6076,-2.0253 -8.7796,-4.3175 -12.47,-6.6983 l 0.19969,-0.16557 c 3.7418,2.4116 7.82,4.768 12.269,6.8639 12.04,5.2942 27.065,8.7891 44.289,7.3593 9.8102,-1.0627 20.57453,-3.99 32.56753,-9.084 0.33773,0.26054 0.82298,0.42581 0.82298,0.42581 z"
           fill="#595e48"
           id="path131"
           sodipodi:nodetypes="cccccccccc" />
      </g>
    </g>
    <path
       d="m229.51 126.96s-0.84567-0.72643-0.69154-1.7904c1.1365-0.27851 1.8642 0.4107 1.8642 0.4107s-0.20907 0.97928-1.1727 1.3797z"
       fill="url(#linearGradient3034-2)"
       stroke-width="1.3115"
       id="path137" />
    <path
       d="m230.69 125.58 1.5895 1.3284s-0.24392 0.83296-1.2088 1.2385l-1.6149-1.3245c0.96761-0.40557 1.2343-1.2424 1.2343-1.2424z"
       fill="url(#linearGradient3036-8)"
       fill-rule="evenodd"
       stroke-width="1.3115"
       id="path139" />
    <g
       fill="#767e47"
       stroke-width="1.3115"
       id="g155">
      <path
         d="m229.09 125.15c-0.15412 1.0653 0.66474 1.843 0.66474 1.843-44.229 17.513-67.015 7.2002-86.158-5.2185 0.33639-0.23616 0.38866-0.23359 0.60711-0.98056 19.141 12.421 48.073 21.124 84.886 4.356z"
         id="path141" />
      <g
         fill-rule="evenodd"
         id="g149">
        <path
           d="m141.96 122.81 1.6444-1.0524c19.151 11.808 41.772 22.02 85.954 5.0183l1.5988 1.3296c-42.421 17.922-69.56 7.9407-89.198-5.2955z"
           id="path143" />
        <path
           d="m232.63 127.63c-0.21979 0.38632-0.60443 0.60707-0.73308 0.67125-0.0268 0.0154-0.0442 0.0154-0.0442 0.0154s-0.30154 0.0398-0.7036-0.21049c0.86442-0.45178 1.115-1.354 1.115-1.354s0.50257 0.40173 0.36587 0.87789z"
           id="path145" />
        <path
           d="m142.02 122.79-0.19701 0.1553s-1.0775-0.55702-0.66474-1.6916c0.0965 1.1153 0.86175 1.5363 0.86175 1.5363z"
           id="path147" />
      </g>
      <path
         d="m141.16 121.25 1.5868-1.2013c-0.0925 1.1577 0.95287 1.639 0.95287 1.639l-1.6136 1.1885s-1.0172-0.46589-0.92607-1.6261z"
         id="path151" />
      <path
         d="m142.71 120.05c0.54278-0.15786 1.0333 0.38119 1.698 0.87532-0.21577 0.74954-0.40608 0.62119-0.74247 0.85991-0.39402-0.22589-1.0561-0.7829-0.95556-1.7352z"
         id="path153" />
    </g>
    <g
       stroke-width="1.3115"
       id="g163">
      <path
         d="m228.88 125.31 21.888-72.116c1.1834-0.2092 1.749 0.43252 1.749 0.43252l-21.825 71.954c-1e-3 0-0.87514-0.64172-1.8119-0.2708z"
         fill="url(#linearGradient3044-0)"
         id="path157" />
      <path
         d="M 154.69,40.917 C 135.515,28.474 114.031,18.866 69.922,36.1066 c 0.11258,-0.36193 0.21175,-0.55445 0.21175,-0.55445 44.305,-17.541 65.51896,-7.467611 84.69796,4.980689 z"
         fill="#f89c3e"
         fill-rule="evenodd"
         id="path159"
         sodipodi:nodetypes="ccccc" />
      <path
         d="m 111.32,26.193 c -11.23,0.16901 -24.564,2.824 -41.168,9.3958 -0.35115,0.07897 -0.31875,0.36807 -0.39148,0.43969 v 0.0052 l -21.782,72.211 h -0.0027 c -0.10722,0.36963 0.17922,0.72475 0.3856,0.88005 0.01702,0.0107 0.0307,0.0119 0.04712,0.0209 l 0.05235,0.0419 1.4266,1.0732 c 0.05495,0.0231 0.12068,0.0749 0.16491,0.0916 0.33371,0.14247 0.34889,0.10959 0.48425,0.0916 v -0.003 c 0.1769,-0.0308 0.64392,-0.21988 0.64392,-0.21988 19.959,-7.5865 34.907,-10.226 47.62,-8.7297 1.4939,0.17551 2.9531,0.4037 4.3818,0.67533 0.11223,0.0226 0.22562,0.0397 0.33766,0.0628 0.40357,0.079 0.80019,0.17032 1.1988,0.25652 1.6522,0.36831 3.2645,0.7864 4.8189,1.2355 7.7481,2.3149 14.205,6.3598 20.721,10.316 0.059,0.0385 0.0874,0.0425 0.15443,0.0733 0.0312,0.0161 0.0741,0.019 0.12303,0.0366 0.11732,0.0534 0.43473,0.18592 0.74339,0.0995 l 1.3559,-0.57848 c 0.003,-6.8e-4 0.005,7.3e-4 0.008,0 0.003,-0.002 0.008,-0.006 0.0104,-0.008 l 0.0183,-0.008 c -0.003,5.8e-4 -0.005,-5.5e-4 -0.008,0 0.18642,-0.13532 0.54029,0.039 0.63481,-0.30907 7.9e-4,0.002 0.002,0.003 0.003,0.005 l 21.779,-72.026 0.003,0.0027 0.0134,-0.04449 c 0.0777,-0.34268 -0.0802,-0.800564 -0.34958,-0.985384 -11.988,-7.78 -24.70168,-14.385586 -43.42668,-14.103586 z"
         fill="url(#linearGradient18464)"
         fill-rule="evenodd"
         id="path161"
         sodipodi:nodetypes="cccccccccccccccccccccccccccccccccccc" />
    </g>
    <g
       fill="#922204"
       stroke-width="1.3115"
       id="g175">
      <g
         fill-rule="evenodd"
         id="g171">
        <path
           d="m 132.52602,113.90294 c -20.636,-13.715 -46.45071,-22.251931 -84.01471,-4.37493 l 1.67179,1.10889 c 9.6067,-3.76 18.176,-5.9388 26.895,-7.5803 7.2049,-1.3564 14.252,-1.5884 20.471,-0.86947 8.4262,0.97422 17.389,3.9396 22.053,6.3099 5.7112,2.9022 9.2926,4.8639 11.065,6.0692 z"
           id="path165"
           sodipodi:nodetypes="cccccccc" />
        <path
           d="m132.88 112.93 21.805-72.097c0.23587 0.15402 0.35113 0.3029 0.47577 0.43638l-21.814 72.158c-0.12464-0.30289-0.46638-0.49798-0.46638-0.49798z"
           id="path167" />
        <path
           d="m 50.211,110.56 c 6.9851,-2.744 13.454,-4.7809 19.457,-6.1785 1.4554,-0.33755 2.7487,-0.64301 4.2846,-0.92666 1.4139,-0.26952 2.8104,-0.53263 4.176,-0.72515 2.1403,-0.31316 4.2162,-0.57113 6.2372,-0.72001 1.7288,-0.13091 3.4108,-0.22718 5.0579,-0.24129 1.5921,-0.018 3.1481,0.002 4.6679,0.086 1.3536,0.0744 2.6777,0.16813 3.9817,0.31572 1.1016,0.12322 2.1792,0.25284 3.2446,0.42868 2.2502,0.36963 4.424,0.82398 6.5254,1.3951 8.4861,2.2987 16.32698,6.12634 23.25698,10.55134 -0.0456,0.0205 -0.51573,0.0445 -0.5881,0.007 -0.067,-0.0308 -0.0978,-0.0334 -0.1568,-0.0719 -9.3693,-5.6883 -19.435,-10.635 -31.856,-12.094 -12.713,-1.4965 -27.528,0.59938 -47.487,8.1859 0,0 -0.46505,0.18866 -0.64195,0.21947 -0.15948,0.0244 -0.215843,-0.0778 -0.245323,-0.21775 z"
           id="path169"
           sodipodi:nodetypes="cccccccccccccccccc" />
      </g>
      <path
         d="m 132.18637,113.70137 c 0,0 0.25251,0.46499 0.58755,0.39183 l -1.3942,0.59443 c -0.37123,0.10395 -0.83703,-0.13596 -0.83703,-0.13596 z"
         id="path173"
         sodipodi:nodetypes="ccccc" />
    </g>
    <path
       d="m50.229 110.57s0.08443 0.13476 0.14072 0.22203c-0.13536 0.018-0.15144 0.0513-0.48515-0.0911-0.04423-0.0167-0.11124-0.0693-0.16618-0.0924l-1.4246-1.073-0.12866-0.10139c0.19433-0.0129 0.34309 0.077 0.44092 0.059z"
       fill="#ab4533"
       stroke-width="1.3115"
       id="path177" />
    <path
       d="m132.9 112.93c0.15278 0.0975 0.33505 0.1553 0.46236 0.45819-0.0844 0.38376-0.42484 0.57627-0.61514 0.71745-0.33773 0.0911-0.67144-0.15786-0.67144-0.15786 0.21309-0.163 0.60443-0.39402 0.82422-1.0178z"
       fill="#922204"
       stroke-width="1.3115"
       id="path179" />
    <g
       fill-rule="evenodd"
       id="g217">
      <path
         d="m154.83 40.366 0.0268 0.0154c0.26937 0.18482 0.38195 0.54675 0.30422 0.88943l-0.0134 0.04621c-0.12598-0.13476-0.20639-0.26824-0.45299-0.44664z"
         fill="#922204"
         stroke-width="1.3115"
         id="path181" />
      <path
         d="m48.195 109.47c-0.20639-0.1553-0.41412-0.76237-0.3069-1.132l0.28948-0.0963c-0.10722 0.5352 0.23855 1.1448 0.53876 1.3104 0.0013 0-0.21041 0.11422-0.52133-0.0821z"
         fill="#d75329"
         stroke-width="1.3115"
         id="path183" />
      <rect
         transform="matrix(1.3402 0 0 1.2835 22.492 26.082)"
         x="35.25"
         y="7.372"
         width=".325"
         height=".024"
         clip-path="url(#XMLID_56_-9-6)"
         fill="#faaa4f"
         id="rect185" />
      <rect
         transform="matrix(1.3402 0 0 1.2835 22.492 26.082)"
         x="35.25"
         y="7.396"
         width=".325"
         height=".027"
         clip-path="url(#XMLID_56_-9-6)"
         fill="#f6a34c"
         id="rect187" />
      <rect
         transform="matrix(1.3402 0 0 1.2835 22.492 26.082)"
         x="35.25"
         y="7.423"
         width=".325"
         height=".024"
         clip-path="url(#XMLID_56_-9-6)"
         fill="#f39d48"
         id="rect189" />
      <rect
         transform="matrix(1.3402 0 0 1.2835 22.492 26.082)"
         x="35.25"
         y="7.448"
         width=".325"
         height=".027"
         clip-path="url(#XMLID_56_-9-6)"
         fill="#f09745"
         id="rect191" />
      <rect
         transform="matrix(1.3402 0 0 1.2835 22.492 26.082)"
         x="35.25"
         y="7.475"
         width=".325"
         height=".025"
         clip-path="url(#XMLID_56_-9-6)"
         fill="#ed9142"
         id="rect193" />
      <rect
         transform="matrix(1.3402 0 0 1.2835 22.492 26.082)"
         x="35.25"
         y="7.5"
         width=".325"
         height=".024"
         clip-path="url(#XMLID_56_-9-6)"
         fill="#eb8c3f"
         id="rect195" />
      <rect
         transform="matrix(1.3402 0 0 1.2835 22.492 26.082)"
         x="35.25"
         y="7.525"
         width=".325"
         height=".025"
         clip-path="url(#XMLID_56_-9-6)"
         fill="#e8863c"
         id="rect197" />
      <rect
         transform="matrix(1.3402 0 0 1.2835 22.492 26.082)"
         x="35.25"
         y="7.55"
         width=".325"
         height=".024"
         clip-path="url(#XMLID_56_-9-6)"
         fill="#e68139"
         id="rect199" />
      <rect
         transform="matrix(1.3402 0 0 1.2835 22.492 26.082)"
         x="35.25"
         y="7.575"
         width=".325"
         height=".025"
         clip-path="url(#XMLID_56_-9-6)"
         fill="#e57b37"
         id="rect201" />
      <rect
         transform="matrix(1.3402 0 0 1.2835 22.492 26.082)"
         x="35.25"
         y="7.6"
         width=".325"
         height=".025"
         clip-path="url(#XMLID_56_-9-6)"
         fill="#e27634"
         id="rect203" />
      <rect
         transform="matrix(1.3402 0 0 1.2835 22.492 26.082)"
         x="35.25"
         y="7.625"
         width=".325"
         height=".026"
         clip-path="url(#XMLID_56_-9-6)"
         fill="#e07132"
         id="rect205" />
      <rect
         transform="matrix(1.3402 0 0 1.2835 22.492 26.082)"
         x="35.25"
         y="7.652"
         width=".325"
         height=".025"
         clip-path="url(#XMLID_56_-9-6)"
         fill="#df6b30"
         id="rect207" />
      <rect
         transform="matrix(1.3402 0 0 1.2835 22.492 26.082)"
         x="35.25"
         y="7.677"
         width=".325"
         height=".024"
         clip-path="url(#XMLID_56_-9-6)"
         fill="#dc662e"
         id="rect209" />
      <rect
         transform="matrix(1.3402 0 0 1.2835 22.492 26.082)"
         x="35.25"
         y="7.702"
         width=".325"
         height=".027"
         clip-path="url(#XMLID_56_-9-6)"
         fill="#db602c"
         id="rect211" />
      <rect
         transform="matrix(1.3402 0 0 1.2835 22.492 26.082)"
         x="35.25"
         y="7.729"
         width=".325"
         height=".024"
         clip-path="url(#XMLID_56_-9-6)"
         fill="#d95a2a"
         id="rect213" />
      <rect
         transform="matrix(1.3402 0 0 1.2835 22.492 26.082)"
         x="35.25"
         y="7.753"
         width=".325"
         height=".027"
         clip-path="url(#XMLID_56_-9-6)"
         fill="#d75329"
         id="rect215" />
    </g>
    <g
       stroke-width="1.3115"
       id="g225">
      <path
         d="m132.12 113.99c-11.812-7.3953-22.87-13.517-40.38-14-12.804 0.24257-22.62 1.8045-43.038 9.5707-0.30154-0.16428-0.6835-0.57371-0.57762-1.1115 17.678-7.2092 31.713-10.319 43.361-10.21 17.637 0.16813 29.863 7.2348 41.424 14.683-0.19567 0.652-0.57628 0.90227-0.78937 1.0678z"
         fill="#922204"
         id="path219" />
      <path
         d="m69.74 35.989 0.20237 0.06161-21.771 72.371c-0.04959-0.0205-0.28144-0.0796-0.28144-0.0796z"
         fill="#d75329"
         fill-rule="evenodd"
         id="path221" />
      <path
         d="m139.79 129.9c-0.22906 0.0148-0.47138 0.12007-0.77742 0.2984-9e-3 5e-3 -0.0168 8e-3 -0.0262 0.0131-0.0194 7e-3 -0.0484 0.0143-0.0864 0.0419-0.35799 0.23875-1.4553 1.0096-1.6464 1.4763l-0.0262 0.0183-0.0131 0.0419c-9.6e-4 4e-3 -7e-3 9e-3 -8e-3 0.0131l5e-3 -3e-3 -21.479 71.387c-0.32176 0.88054 0.29622 1.4394 0.59418 1.6491 19.182 12.369 46.857 23.225 90.274 5.4522 0.12866-0.0642 0.51587-0.29153 0.7303-0.67271l21.016-70.138c-1e-3 -4e-3 -8e-3 -9e-3 -0.0107-0.0131 0.16104-0.78957-0.35726-1.2633-0.36123-1.2669l-0.0107-5e-3 -1.7407-1.3376c-0.15144-0.1399-0.49499-0.31988-1.2093-0.21464-0.0371 0.0121-0.0728 0.022-0.1099 0.034l-0.80565 0.31942c-9.2512 3.662-16.086 4.2719-23.522 5.7696-3e-3 5.3e-4 -5e-3 2e-3 -8e-3 3e-3 -28.214 4.5405-44.726-2.8421-59.944-12.65-7.9e-4 -2e-3 8e-4 -3e-3 0-5e-3 -4e-3 -2e-3 -7e-3 -9.2e-4 -0.0105-3e-3 -0.32741-0.14932-0.57391-0.22558-0.82453-0.2094z"
         fill="#c19236"
         fill-rule="evenodd"
         id="path223" />
    </g>
    <g
       transform="matrix(1.3402 0 0 1.3402 3.8272 22.362)"
       id="g283">
      <path
         transform="matrix(1,0,0,0.95766,13.927,0.77576)"
         d="M 88.064491,83.286318 C 102.37749,92.923318 118.438,100.647 151.469,86.994 l -15.91517,56.38851 c -33.037,13.664 -49.675599,5.79609 -63.973599,-3.89991 z"
         clip-path="url(#XMLID_70_-70-7)"
         fill="url(#linearGradient7245)"
         id="path227"
         sodipodi:nodetypes="ccccc" />
      <g
         fill="#a87c3c"
         fill-rule="evenodd"
         stroke-width=".9786"
         id="g235">
        <path
           d="m151.92 139.81c-0.16 0.28442-0.449 0.45297-0.545 0.50085-0.021 0.0115-0.035 0.0115-0.035 0.0115s-0.275 0.0335-0.525-0.15706c0.645-0.3371 0.836-1.0142 0.836-1.0142s0.372 0.30358 0.269 0.65888z"
           id="path229" />
        <path
           d="m 151.92,139.81 c 0.039,-0.30646 -0.3977,-0.62086 -0.3977,-0.62086 l 15.64295,-52.33093 c 0,0 0.37975,0.30602 0.45175,0.47074 z"
           id="path231"
           sodipodi:nodetypes="ccccc" />
        <path
           d="m167.61 87.349s-0.051-0.1494-0.332-0.37445c0.129-0.50852 0.039-0.61769 0.039-0.61769l0.025 0.01532c1e-3 9.58e-4 0.413 0.36391 0.268 0.97682z"
           id="path233" />
      </g>
      <path
         d="m166.04 86.088s-0.434-0.50469-1.316-0.34763c0.047-0.19058 0.121-0.42233 0.402-0.5315 0.533-0.07853 0.789 0.0565 0.902 0.16089 0.064 0.06321 0.082 0.10822 0.082 0.10822 0.07 0.29975-0.07 0.61003-0.07 0.61003z"
         fill="url(#linearGradient3054-6)"
         fill-rule="evenodd"
         stroke-width=".9786"
         id="path237" />
      <g
         fill="#a87c3c"
         id="g245">
        <path
           d="m166.03 85.37 1.307 1.0027c0.076 0.33997-0.064 0.67707-0.064 0.67707l-1.301-0.99884c-1e-3 0 0.128-0.38211 0.058-0.6809z"
           fill-rule="evenodd"
           stroke-width=".9786"
           id="path239" />
        <polygon
           transform="matrix(1 0 0 .95766 13.927 .77576)"
           points="153.37 90.025 137.72 144.62 137.66 144.77 136.29 143.58 152.04 88.963"
           fill-rule="evenodd"
           id="polygon241" />
        <path
           d="m 149.44,139.22 c 0,0 -0.53104,-0.44913 -0.41804,-1.24586 0.848,-0.2059 1.29704,0.21641 1.29704,0.21641 0,0 -0.156,0.72687 -0.879,1.0295 z"
           stroke-width="0.9786"
           id="path243"
           sodipodi:nodetypes="ccccc" />
      </g>
      <g
         id="g253">
        <path
           d="m164.78 85.792c-33.176 10.823-48.441 4.3545-62.754-4.8707 0.034-0.12354 0.122-0.32561 0.025-0.55353 14.313 9.2252 30.143 15.525 63.076 4.841-0.249 0.16472-0.281 0.38881-0.347 0.58322z"
           fill="url(#linearGradient18448)"
           stroke-width=".9786"
           id="path247" />
        <polygon
           transform="matrix(1 0 0 .95766 13.927 .77576)"
           points="70.757 139.26 69.513 140.24 69.516 140.11 85.601 84.389 86.778 83.533"
           fill="#c19236"
           fill-rule="evenodd"
           id="polygon249" />
        <path
           d="m86.047 134.39c-0.467-0.26528-1.011-0.46734-1.457-0.29592l16.063-53.304c0.25-0.10056 0.844-0.25857 1.453 0.1494z"
           fill="#c19236"
           stroke-width=".9786"
           id="path251" />
      </g>
      <path
         d="m148.97 137.99 15.758-52.271c0.029-0.0077 0.068-0.04501 0.094-0.04884 0.838-0.08236 1.227 0.3438 1.227 0.3438l-15.715 52.189c-1e-3 9.6e-4 -0.665-0.49319-1.364-0.2126z"
         fill="url(#linearGradient3062-6)"
         stroke-width=".9786"
         id="path255" />
      <g
         fill="#a87c3c"
         stroke-width=".9786"
         id="g267">
        <path
           d="m151.37 140.31c-32.396 13.262-53.176 5.1063-67.489-4.1227l0.15-0.11971c14.313 9.2252 36.339 16.909 66.778 4.0404 0.252 0.19057 0.561 0.20206 0.561 0.20206z"
           fill-rule="evenodd"
           id="path257" />
        <g
           id="g265">
          <path
             d="m150.32 138.2 1.334 1.0735s-0.18 0.62057-0.902 0.92415l-1.355-1.0774c0.722-0.30263 0.923-0.92032 0.923-0.92032z"
             fill-rule="evenodd"
             id="path259" />
          <path
             d="m149.12 137.87c-0.113 0.79678 0.498 1.3733 0.498 1.3733-33.037 13.086-49.957 5.2413-64.257-4.0404 0.252-0.17621 0.375-0.32944 0.536-0.88297 0.021 0.0115 0.221-0.0191 0.241-8e-3 14.761 8.7052 33.654 15.585 62.982 3.5577z"
             id="path261" />
          <path
             d="m 84.042,136.12 1.473503,-1.10002 c 13.117,7.8337 31.188417,16.40605 63.801417,3.87435 l 1.50908,1.26989 c -30.313,12.858 -52.471,5.1848 -66.784,-4.0442 z"
             fill-rule="evenodd"
             id="path263"
             sodipodi:nodetypes="ccccsc" />
        </g>
      </g>
      <g
         fill="#c19236"
         stroke-width=".9786"
         id="g275">
        <path
           d="m84.154 136.16-0.15 0.10056s-0.87-0.45968-0.561-1.3053c0.071 0.83413 0.711 1.2047 0.711 1.2047z"
           fill-rule="evenodd"
           id="path269" />
        <path
           d="m83.443 134.96 1.242-0.97299c-0.068 0.87148 0.813 1.1932 0.813 1.1932l-1.364 0.99885c1e-3 9.5e-4 -0.76-0.35051-0.691-1.2191z"
           id="path271" />
        <path
           d="m84.593 134.02c0.445-0.17238 0.862 0.0297 1.331 0.29209-0.163 0.55736-0.261 0.75176-0.513 0.92797-0.294-0.16855-0.893-0.51331-0.818-1.2201z"
           id="path273" />
      </g>
      <path
         transform="matrix(1 0 0 .95766 13.927 .77576)"
         d="m88.226 83.334c14.313 9.637 30.212 17.313 63.243 3.66l-16.281 56.234c-33.037 13.664-48.903 5.926-63.201-3.77z"
         clip-path="url(#XMLID_70_-70-7)"
         fill="none"
         id="path277" />
      <path
         d="m100.86 80.436-0.17 0.38115-1.178 0.81593c0.076-0.33997 0.984-0.96916 1.264-1.1559 0.037-0.02681 0.084-0.04118 0.084-0.04118z"
         fill="#c19236"
         fill-rule="evenodd"
         stroke-width=".9786"
         id="path279" />
      <path
         d="m102.06 80.919c-0.657-0.36679-1.193-0.14556-1.443-0.04118 0.039-0.11588 0.174-0.40796 0.174-0.40796 0.532-0.32561 0.774-0.32561 1.271-0.09768 0.096 0.22505 0.033 0.40414-2e-3 0.54683z"
         fill="#c19236"
         stroke-width=".9786"
         id="path281" />
    </g>
    <path
       d="m88.591 109.02c-0.26674 0.0194-0.57891-0.0152-0.84461 5e-3 -0.69504-9e-3 -1.3255 0.0389-2.0373 0.0495-10.319 0.15462-22.492 2.6784-37.261 8.1694-1.3222 0.46703-2.6353 0.93966-3.9028 1.4318-0.08591 0.0354-0.35671 0.12584-0.45284 0.42142h-0.0027l-0.0027 0.0107-21.414 71.996c-0.10413 0.356 0.06915 0.73183 0.32981 0.96588h0.0027l0.02881 0.0314 1.4344 1.047c0.0013 1e-3 4e-3 1e-3 0.0054 3e-3l0.01568 0.0134c0.0013 2e-4 4e-3 -1.8e-4 0.0054 0 0.35849 0.24666 0.64471 0.24374 0.79312 0.23035 0.0027 1e-3 0.03927 0.0236 0.03927 0.0236 0.02694-9e-3 0.0516-0.0188 0.07853-0.0288 0.0012-2.4e-4 0.02091 0 0.02091 0l-8e-3 -5e-3c16.119-5.9769 28.982-8.7077 39.889-8.6475 10.034 0.0591 18.339 2.3455 25.943 5.6514 0.92263 0.40733 1.8474 0.81204 2.7484 1.2512 8e-3 4e-3 0.01581 7e-3 0.02359 0.0107 0.01689 8e-3 0.03283 0.0181 0.04972 0.0261 1.2319 0.60187 2.4462 1.2315 3.6463 1.8846 2.408 1.3105 4.7252 2.6896 7.0634 4.1499-1e-3 8.6e-4 -4e-3 1e-3 -5e-3 3e-3 0 0 0.0328 0.0134 0.0366 0.0157 0.0139 9e-3 0.0279 0.0174 0.0418 0.0261l8e-3 -3e-3c0.10761 0.0607 0.41673 0.21741 0.77219 0.0654l1.2931-0.73291h3e-3l0.0288-0.0184c-1e-3 4.8e-4 -4e-3 -4.7e-4 -5e-3 0 0.18465-0.13588 0.47321-0.32302 0.5654-0.67009 1e-3 3e-3 4e-3 5e-3 5e-3 8e-3l22.125-72.612c0.0777-0.34525-0.0328-0.70647-0.30626-0.89258l-0.0366-0.0209-5e-3 0.0157c-11.38-7.3832-23.441-13.658-40.711-13.873zm-44.305 10.08-0.01836 0.0445-0.14396-0.0393c0.05361-1e-3 0.10869-4e-3 0.16228-5e-3z"
       fill="#a0b4ff"
       fill-rule="evenodd"
       stroke-width="1.3115"
       id="path285" />
    <g
       transform="matrix(1.3402 0 0 1.3402 3.8272 22.362)"
       id="g331">
      <path
         d="m53.601 128.23"
         fill="none"
         stroke-width=".9786"
         id="path287" />
      <g
         fill="#141fb8"
         stroke-width=".9786"
         id="g297">
        <path
           d="m15.287 127.52c0.108 0.0153 0.307-0.0747 0.307-0.0747 0.229 0.14939 0.411 0.25473 0.411 0.25473s-0.358 0.0814-0.718-0.18004z"
           fill-rule="evenodd"
           id="path289" />
        <path
           d="m 76.561752,130.18556 c 0,0 0.187906,0.27343 0.439906,0.20639 L 75.979,130.97856 c -0.316,0.13504 -0.641,-0.0785 -0.641,-0.0785 z"
           id="path291"
           sodipodi:nodetypes="ccccc" />
        <path
           d="m15.607 127.45s-0.193 0.0938-0.302 0.0785l-1.085-0.79295-0.025-0.022c0.157 0.0527 0.338 0.0259 0.411 0.0115z"
           id="path293" />
        <path
           d="m77.052 129.51c0.113 0.0785 0.232 0.16472 0.344 0.38115-0.063 0.28443-0.311 0.42999-0.451 0.53534-0.202 0.045-0.485-0.13887-0.485-0.13887 0.158-0.12736 0.428-0.31028 0.592-0.77762z"
           id="path295" />
      </g>
      <g
         fill-rule="evenodd"
         id="g305">
        <rect
           x="30.011"
           y="72.22"
           width=".324"
           height=".017238"
           fill="#2e499e"
           stroke-width=".9786"
           id="rect299" />
        <polygon
           transform="matrix(1 0 0 .95766 13.927 .77576)"
           points="0.207 130.8 0.023 130.75 16.086 74.56 16.267 74.611"
           fill="#141fb8"
           id="polygon301" />
        <path
           d="m14.22 126.74c-0.208-0.17238-0.352-0.46734-0.271-0.7441l0.193-0.0709c-0.081 0.4003 0.226 0.68856 0.45 0.8121 2e-3 -9.6e-4 -0.162 0.0776-0.372 3e-3z"
           fill="#141fb8"
           stroke-width=".9786"
           id="path303" />
      </g>
      <path
         d="m76.487 130.32c-14.332-9.2367-29.185-16.292-61.874-3.5721-0.225-0.12737-0.567-0.43382-0.487-0.83795 33.192-13.531 48.613-5.6263 62.945 3.6133-0.146 0.49032-0.426 0.67323-0.584 0.79677z"
         fill="url(#linearGradient7243)"
         stroke-width=".9786"
         id="path307" />
      <g
         fill="#141fb8"
         fill-rule="evenodd"
         stroke-width=".9786"
         id="g315">
        <path
           d="m15.542 127.41c31.464-11.78 45.567-5.3648 59.892 3.4677-8.58-5.2892-17.41-9.524-29.594-9.5958-8.154-0.045-17.791 1.9374-29.851 6.4154 0 9.6e-4 -0.249-0.0891-0.447-0.2873z"
           id="path309" />
        <path
           d="m76.693 130.32-1.3488 0.57939c-14.325-8.8325-28.801-14.854-59.715-3.3661l-1.2086-0.91778c32.689-12.722 47.942-5.5351 62.273 3.7044z"
           id="path311" />
        <path
           d="M 76.926451,129.39722 93.396413,75.183854 c 0.177,0.11779 0.443587,0.393876 0.535587,0.494426 l -16.542,54.239 c -0.093,-0.22793 -0.576754,-0.42618 -0.576754,-0.42618 z"
           id="path313"
           sodipodi:nodetypes="cccccc" />
      </g>
      <g
         stroke-width=".9786"
         id="g327">
        <path
           d="M 93.541395,75.811401 C 79.223395,66.518201 63.095,59.376 30.159,72.2501 c 0.082,-0.2691 0.149,-0.39647 0.149,-0.39647 33.081,-13.099 49.056,-6.1444 63.373,3.1498 z"
           fill="url(#linearGradient18472)"
           fill-rule="evenodd"
           id="path317"
           sodipodi:nodetypes="ccccc" />
        <path
           d="m77.068 129.67c-14.331-9.2367-29.91-16.834-62.984-3.7368l16.139-54.032c33.081-13.099 49.029-5.827 63.346 3.4662z"
           fill="url(#linearGradient3574)"
           id="path319" />
        <path
           d="m77.068 129.67c-14.331-9.2367-29.91-16.834-62.984-3.7368l16.195-54.172c33.081-13.099 48.973-5.6866 63.29 3.6066z"
           fill="none"
           id="path321" />
        <path
           d="m93.676 75 0.027 0.01532c0.204 0.13886 0.287 0.40796 0.229 0.66558l-0.012 0.03352c-0.091-0.0996-0.186-0.19441-0.362-0.3122z"
           fill="#313c7e"
           fill-rule="evenodd"
           id="path323" />
        <path
           d="m30.192 72.238-0.181-0.05076c0.069-0.22792 0.232-0.30645 0.297-0.33327l0.027-0.0077c1e-3 0-0.06 0.11971-0.143 0.39168z"
           fill="url(#linearGradient3046-4)"
           fill-rule="evenodd"
           id="path325" />
      </g>
      <path
         d="m76.5 130.35c-14.355-8.9909-29.773-16.246-61.903-3.5826-0.212-0.059-0.59365-0.41175-0.51365-0.83375 30.947-12.989 48.659-6.0984 62.987 3.5551-0.146 0.512-0.41266 0.73228-0.57066 0.86128z"
         fill="#141fb8"
         id="path329" />
    </g>
  </g>
</svg>
