<?xml version="1.0" encoding="UTF-8" standalone="no"?>
<svg
   width="256"
   height="256"
   viewBox="0 0 256 256"
   version="1.1"
   id="svg8"
   inkscape:version="1.1.2 (0a00cf5339, 2022-02-04)"
   sodipodi:docname="windows-logo-32.svg"
   inkscape:export-filename="windows-logo.png"
   inkscape:export-xdpi="12"
   inkscape:export-ydpi="12"
   xmlns:inkscape="http://www.inkscape.org/namespaces/inkscape"
   xmlns:sodipodi="http://sodipodi.sourceforge.net/DTD/sodipodi-0.dtd"
   xmlns:xlink="http://www.w3.org/1999/xlink"
   xmlns="http://www.w3.org/2000/svg"
   xmlns:svg="http://www.w3.org/2000/svg"
   xmlns:rdf="http://www.w3.org/1999/02/22-rdf-syntax-ns#"
   xmlns:cc="http://creativecommons.org/ns#"
   xmlns:dc="http://purl.org/dc/elements/1.1/">
  <defs
     id="defs2">
    <linearGradient
       x1="140.966"
       y1="123.625"
       x2="81.422997"
       y2="106.551"
       id="linearGradient8532"
       gradientUnits="userSpaceOnUse">
      <stop
         style="stop-color:#ffc907;stop-opacity:1"
         offset="0"
         id="stop8522" />
      <stop
         style="stop-color:#fecc00;stop-opacity:1"
         offset="0.167"
         id="stop8524" />
      <stop
         style="stop-color:#ffd952;stop-opacity:1"
         offset="0.333"
         id="stop8526" />
      <stop
         style="stop-color:#caa200;stop-opacity:1"
         offset="0.625"
         id="stop8528" />
      <stop
         style="stop-color:#987f00;stop-opacity:1"
         offset="1"
         id="stop8530" />
    </linearGradient>
    <linearGradient
       x1="170.769"
       y1="20.577"
       x2="171.41499"
       y2="21.652"
       id="linearGradient2310"
       gradientUnits="userSpaceOnUse">
      <stop
         style="stop-color:#83b641;stop-opacity:1"
         offset="0"
         id="stop1145-1" />
      <stop
         style="stop-color:#595e48;stop-opacity:1"
         offset="1"
         id="stop1147-2" />
    </linearGradient>
    <linearGradient
       x1="172.43401"
       y1="21.409"
       x2="172.026"
       y2="21.895"
       id="linearGradient2314"
       gradientUnits="userSpaceOnUse">
      <stop
         style="stop-color:#8aa742;stop-opacity:1"
         offset="0"
         id="stop1152-7" />
      <stop
         style="stop-color:#595e48;stop-opacity:1"
         offset="1"
         id="stop1154-0" />
    </linearGradient>
    <linearGradient
       x1="173.04201"
       y1="21.805"
       x2="173.04201"
       y2="22.834"
       id="linearGradient2318"
       gradientUnits="userSpaceOnUse">
      <stop
         style="stop-color:#8aa742;stop-opacity:1"
         offset="0"
         id="stop1163-9" />
      <stop
         style="stop-color:#767e47;stop-opacity:1"
         offset="1"
         id="stop1165-3" />
    </linearGradient>
    <linearGradient
       x1="155.32001"
       y1="77.938004"
       x2="153.91"
       y2="77.838997"
       id="linearGradient2322"
       gradientUnits="userSpaceOnUse">
      <stop
         style="stop-color:#767e47;stop-opacity:1"
         offset="0"
         id="stop1172-6" />
      <stop
         style="stop-color:#8aa742;stop-opacity:1"
         offset="1"
         id="stop1174-0" />
    </linearGradient>
    <linearGradient
       x1="155.98199"
       y1="78.063004"
       x2="155.071"
       y2="79.074997"
       id="linearGradient2326"
       gradientUnits="userSpaceOnUse">
      <stop
         style="stop-color:#767e47;stop-opacity:1"
         offset="0"
         id="stop1179-6" />
      <stop
         style="stop-color:#595e48;stop-opacity:1"
         offset="1"
         id="stop1181-2" />
    </linearGradient>
    <linearGradient
       x1="163.58501"
       y1="49.528999"
       x2="162.08701"
       y2="49.099998"
       id="linearGradient2347"
       gradientUnits="userSpaceOnUse">
      <stop
         style="stop-color:#595e48;stop-opacity:1"
         offset="0"
         id="stop1223-9" />
      <stop
         style="stop-color:#83b641;stop-opacity:1"
         offset="1"
         id="stop1225-2" />
    </linearGradient>
    <linearGradient
       x1="16.247"
       y1="74.211998"
       x2="16.247"
       y2="74.621002"
       id="linearGradient2370"
       gradientUnits="userSpaceOnUse">
      <stop
         style="stop-color:#76a5d8;stop-opacity:1"
         offset="0"
         id="stop1302-7" />
      <stop
         style="stop-color:#2e499e;stop-opacity:1"
         offset="1"
         id="stop1304-8" />
    </linearGradient>
    <linearGradient
       x1="151.23"
       y1="88.141998"
       x2="151.881"
       y2="89.225998"
       id="linearGradient2428"
       gradientUnits="userSpaceOnUse">
      <stop
         style="stop-color:#ffcd02;stop-opacity:1"
         offset="0.006"
         id="stop1409-7" />
      <stop
         style="stop-color:#a87c3c;stop-opacity:1"
         offset="1"
         id="stop1411-6" />
    </linearGradient>
    <linearGradient
       x1="144.299"
       y1="116.277"
       x2="142.89799"
       y2="115.876"
       id="linearGradient2447"
       gradientUnits="userSpaceOnUse">
      <stop
         style="stop-color:#a87c3c;stop-opacity:1"
         offset="0"
         id="stop1449-4" />
      <stop
         style="stop-color:#ffd200;stop-opacity:1"
         offset="1"
         id="stop1451-7" />
    </linearGradient>
    <path
       id="XMLID_20_-2"
       d="M 35.432,7.781 35.25,7.729 c 0.07,-0.238 0.234,-0.323 0.298,-0.35 l 0.027,-0.008 c 10e-4,10e-4 -0.06,0.126  -0.143,0.41 z" />
    <path
       id="XMLID_35_-2"
       d="m88.131,83.682c14.313,9.633 29.822,16.309 62.76,4.969l-15.703,54.578c-28.98,12.742 -48.541,5.09 -63.201,-3.77L88.131,83.682z" />
    <linearGradient
       x1="159.869"
       y1="57.84"
       x2="100.46"
       y2="40.804001"
       id="linearGradient4962"
       gradientUnits="userSpaceOnUse"
       gradientTransform="matrix(1,0,0,0.95766468,13.926622,0.77576316)">
      <stop
         style="stop-color:#7ec400;stop-opacity:1"
         offset="0"
         id="stop2453-1" />
      <stop
         style="stop-color:#a6fe0a;stop-opacity:1"
         offset="0.333"
         id="stop2455-5" />
      <stop
         style="stop-color:#6eaa00;stop-opacity:1"
         offset="0.667"
         id="stop2457-5" />
      <stop
         style="stop-color:#4b6700;stop-opacity:1"
         offset="1"
         id="stop2459-4" />
    </linearGradient>
    <linearGradient
       x1="70.161003"
       y1="110.956"
       x2="10.682"
       y2="93.901001"
       id="linearGradient4970"
       gradientUnits="userSpaceOnUse"
       gradientTransform="matrix(1,0,0,0.95766468,13.926622,0.77576316)">
      <stop
         style="stop-color:#141fb8;stop-opacity:1"
         offset="0"
         id="stop2501-3" />
      <stop
         style="stop-color:#6585fe;stop-opacity:1"
         offset="0.4"
         id="stop2503-7" />
      <stop
         style="stop-color:#a1b6ff;stop-opacity:1"
         offset="0.65816629"
         id="stop2505-4" />
      <stop
         style="stop-color:#3b66ff;stop-opacity:1"
         offset="1"
         id="stop2507-5" />
    </linearGradient>
    <linearGradient
       x1="89.186996"
       y1="44.528999"
       x2="29.653999"
       y2="27.458"
       id="linearGradient5010"
       gradientUnits="userSpaceOnUse"
       gradientTransform="matrix(1,0,0,0.95766468,13.926622,0.77576316)">
      <stop
         style="stop-color:#922204;stop-opacity:1"
         offset="0"
         id="stop2598-8" />
      <stop
         style="stop-color:#fe6a0b;stop-opacity:1"
         offset="0.4"
         id="stop2600-4" />
      <stop
         style="stop-color:#fea960;stop-opacity:1"
         offset="0.66486627"
         id="stop2602-3" />
      <stop
         style="stop-color:#f66911;stop-opacity:1"
         offset="1"
         id="stop2604-1" />
    </linearGradient>
    <linearGradient
       y2="21.652"
       x2="171.41499"
       y1="20.577"
       x1="170.769"
       gradientUnits="userSpaceOnUse"
       id="linearGradient3028-1"
       xlink:href="#linearGradient2310"
       inkscape:collect="always"
       gradientTransform="matrix(1.340191,0,0,1.2834536,22.491518,26.081949)" />
    <linearGradient
       y2="21.895"
       x2="172.026"
       y1="21.409"
       x1="172.43401"
       gradientUnits="userSpaceOnUse"
       id="linearGradient3030-2"
       xlink:href="#linearGradient2314"
       inkscape:collect="always"
       gradientTransform="matrix(1.340191,0,0,1.2834536,22.491518,26.081949)" />
    <linearGradient
       y2="22.834"
       x2="173.04201"
       y1="21.805"
       x1="173.04201"
       gradientUnits="userSpaceOnUse"
       id="linearGradient3032-0"
       xlink:href="#linearGradient2318"
       inkscape:collect="always"
       gradientTransform="matrix(1.340191,0,0,1.2834536,22.491518,26.081949)" />
    <linearGradient
       y2="77.838997"
       x2="153.91"
       y1="77.938004"
       x1="155.32001"
       gradientUnits="userSpaceOnUse"
       id="linearGradient3034-2"
       xlink:href="#linearGradient2322"
       inkscape:collect="always"
       gradientTransform="matrix(1.340191,0,0,1.2834536,22.491518,26.081949)" />
    <linearGradient
       y2="79.074997"
       x2="155.071"
       y1="78.063004"
       x1="155.98199"
       gradientUnits="userSpaceOnUse"
       id="linearGradient3036-8"
       xlink:href="#linearGradient2326"
       inkscape:collect="always"
       gradientTransform="matrix(1.340191,0,0,1.2834536,22.491518,26.081949)" />
    <linearGradient
       y2="49.099998"
       x2="162.08701"
       y1="49.528999"
       x1="163.58501"
       gradientUnits="userSpaceOnUse"
       id="linearGradient3044-0"
       xlink:href="#linearGradient2347"
       inkscape:collect="always"
       gradientTransform="matrix(1.340191,0,0,1.2834536,22.491518,26.081949)" />
    <linearGradient
       y2="74.621002"
       x2="16.247"
       y1="74.211998"
       x1="16.247"
       gradientUnits="userSpaceOnUse"
       id="linearGradient3046-4"
       xlink:href="#linearGradient2370"
       inkscape:collect="always"
       gradientTransform="matrix(1,0,0,0.95766468,13.926622,0.77576316)" />
    <clipPath
       id="XMLID_56_-9-6">
      <use
         x="0"
         y="0"
         width="812.04401"
         height="152.966"
         xlink:href="#XMLID_20_-2"
         id="use2544-41" />
    </clipPath>
    <linearGradient
       y2="89.225998"
       x2="151.881"
       y1="88.141998"
       x1="151.23"
       gradientUnits="userSpaceOnUse"
       id="linearGradient3054-6"
       xlink:href="#linearGradient2428"
       inkscape:collect="always"
       gradientTransform="matrix(1,0,0,0.95766468,13.926622,0.77576316)" />
    <linearGradient
       y2="115.876"
       x2="142.89799"
       y1="116.277"
       x1="144.299"
       gradientUnits="userSpaceOnUse"
       id="linearGradient3062-6"
       xlink:href="#linearGradient2447"
       inkscape:collect="always"
       gradientTransform="matrix(1,0,0,0.95766468,13.926622,0.77576316)" />
    <clipPath
       id="XMLID_70_-70-7">
      <use
         x="0"
         y="0"
         width="812.04401"
         height="152.966"
         xlink:href="#XMLID_35_-2"
         id="use2719-8" />
    </clipPath>
    <linearGradient
       inkscape:collect="always"
       xlink:href="#XMLID_52_-7"
       id="linearGradient7243"
       gradientUnits="userSpaceOnUse"
       x1="0.18700001"
       y1="129.19099"
       x2="63.144001"
       y2="129.19099"
       gradientTransform="matrix(1,0,0,0.95766468,173.80044,-501.17225)" />
    <linearGradient
       inkscape:collect="always"
       xlink:href="#linearGradient8532"
       id="linearGradient7245"
       gradientUnits="userSpaceOnUse"
       x1="140.966"
       y1="123.625"
       x2="81.422997"
       y2="106.551" />
    <filter
       height="inf"
       y="-inf"
       width="inf"
       x="-inf"
       id="filter16510"
       style="color-interpolation-filters:sRGB"
       inkscape:collect="always">
      <feGaussianBlur
         id="feGaussianBlur16512"
         stdDeviation="1.3507799"
         inkscape:collect="always" />
    </filter>
    <linearGradient
       inkscape:collect="always"
       xlink:href="#linearGradient11674"
       id="linearGradient18448"
       x1="102.02862"
       y1="85.904327"
       x2="165.12962"
       y2="85.904327"
       gradientUnits="userSpaceOnUse" />
    <linearGradient
       inkscape:collect="always"
       xlink:href="#linearGradient4962"
       id="linearGradient18456"
       x1="182.90167"
       y1="26.357203"
       x2="122.36366"
       y2="17.876928"
       gradientUnits="userSpaceOnUse"
       gradientTransform="matrix(1.340191,0,0,1.340191,3.8271851,25.042278)" />
    <linearGradient
       inkscape:collect="always"
       xlink:href="#linearGradient5010"
       id="linearGradient18464"
       x1="104.45199"
       y1="38.419224"
       x2="44.978214"
       y2="23.168409"
       gradientUnits="userSpaceOnUse"
       gradientTransform="matrix(1.340191,0,0,1.340191,3.8271851,25.042278)" />
    <linearGradient
       inkscape:collect="always"
       xlink:href="#linearGradient4970"
       id="linearGradient18472"
       x1="93.273643"
       y1="72.66568"
       x2="30.158623"
       y2="75.396034"
       gradientUnits="userSpaceOnUse" />
    <linearGradient
       inkscape:collect="always"
       xlink:href="#linearGradient4962"
       id="linearGradient3572"
       gradientUnits="userSpaceOnUse"
       gradientTransform="matrix(1.340191,0,0,1.2834536,22.491518,26.081949)"
       x1="159.869"
       y1="57.84"
       x2="100.46"
       y2="40.804001" />
    <linearGradient
       inkscape:collect="always"
       xlink:href="#linearGradient4970"
       id="linearGradient3574"
       gradientUnits="userSpaceOnUse"
       gradientTransform="matrix(1,0,0,0.95766468,13.926622,0.77576316)"
       x1="70.161003"
       y1="110.956"
       x2="10.682"
       y2="93.901001" />
    <filter
       inkscape:collect="always"
       style="color-interpolation-filters:sRGB"
       id="filter5387"
       x="-0.068856177"
       y="-0.08249363"
       width="1.1377124"
       height="1.1649873">
      <feGaussianBlur
         inkscape:collect="always"
         stdDeviation="6.6560482"
         id="feGaussianBlur5389" />
    </filter>
  </defs>
  <sodipodi:namedview
     showguides="true"
     inkscape:snap-grids="true"
     inkscape:snap-others="true"
     inkscape:snap-smooth-nodes="true"
     inkscape:object-paths="false"
     id="base"
     pagecolor="#ffffff"
     bordercolor="#666666"
     borderopacity="1.0"
     inkscape:pageopacity="0.0"
     inkscape:pageshadow="2"
     inkscape:zoom="4.0900192"
     inkscape:cx="206.845"
     inkscape:cy="163.44667"
     inkscape:document-units="px"
     inkscape:current-layer="layer1"
     inkscape:document-rotation="0"
     showgrid="false"
     units="px"
     inkscape:window-width="3840"
     inkscape:window-height="2114"
     inkscape:window-x="0"
     inkscape:window-y="0"
     inkscape:window-maximized="1"
     inkscape:snap-bbox="true"
     inkscape:bbox-nodes="true"
     fit-margin-top="0"
     fit-margin-left="0"
     fit-margin-right="0"
     fit-margin-bottom="0"
     inkscape:bbox-paths="false"
     inkscape:snap-global="true"
     inkscape:pagecheckerboard="0">
    <inkscape:grid
       type="xygrid"
       id="grid1504"
       originx="0"
       originy="0" />
    <inkscape:grid
       type="xygrid"
       id="grid1507"
       spacingx="0.5"
       spacingy="0.5"
       originx="0"
       originy="0" />
  </sodipodi:namedview>
  <metadata
     id="metadata5">
    <rdf:RDF>
      <cc:Work
         rdf:about="">
        <dc:format>image/svg+xml</dc:format>
        <dc:type
           rdf:resource="http://purl.org/dc/dcmitype/StillImage" />
      </cc:Work>
    </rdf:RDF>
  </metadata>
  <g
     inkscape:label="Layer 1"
     inkscape:groupmode="layer"
     id="layer1"
     transform="translate(-12.567709)">
    <g
       id="g5385"
       transform="matrix(1.0172402,0,0,1,7.5650327,14.832028)"
       style="fill:#000000;fill-opacity:1;filter:url(#filter5387)">
      <path
         d="m 161.46222,41.823266 c -0.24032,0.0134 -0.49344,0.112308 -0.80359,0.290553 l 0.003,-0.0054 c 0,0 -0.0255,0.0067 -0.0917,0.04972 -0.35185,0.234788 -1.42377,0.976329 -1.65168,1.471074 l -0.0393,0.02613 -21.68126,71.862507 v 0.0107 c -0.35732,1.00269 0.41424,1.52452 0.59682,1.63335 l -0.003,0.003 c 1.90025,1.22575 3.93409,2.42634 6.0832,3.58081 14.52119,8.50741 32.90831,14.38296 57.72769,9.61169 8.34736,-1.31863 17.14719,-3.79592 26.3379,-7.79247 0.12866,-0.0642 0.51312,-0.28642 0.73291,-0.67273 l 21.9718,-72.242057 c 0,0 0.003,0.0027 0.003,0.0027 9e-4,-0.004 -8.7e-4,-0.0067 0,-0.01072 l 0.005,-0.01568 c -8e-4,-0.0013 -0.004,-0.004 -0.005,-0.0054 0.16324,-0.793205 -0.35398,-1.25407 -0.36122,-1.261669 -4e-4,-0.0013 4e-4,-0.004 0,-0.0054 h -0.003 l -1.74591,-1.342804 c 0,0 -0.003,0 -0.003,0 -0.15144,-0.139849 -0.49768,-0.319917 -1.20932,-0.217259 -44.16814,17.489024 -65.86314,7.590721 -85.0079,-4.743029 -10e-4,-0.004 -10e-4,-0.0094 -0.003,-0.0134 -0.0154,-0.0067 -0.0268,-0.0094 -0.0418,-0.01568 -0.007,-0.004 -0.0141,-0.008 -0.0209,-0.0134 6.8e-4,0.0013 -6.9e-4,0.004 0,0.0054 -0.30012,-0.131741 -0.54462,-0.204701 -0.79051,-0.191084 z"
         style="fill:#000000;fill-opacity:1;stroke-width:1.31151"
         id="path15948" />
      <path
         d="M 107.39127,20.354036 C 96.161116,20.523047 82.798164,23.236894 66.193487,29.808668 H 65.77206 v 0.03136 0.03404 0.03136 0.03404 0.03404 0.02881 h 0.177994 c 0,0 -0.0027,0.0027 -0.0027,0.0027 h -0.175376 v 0.03136 0.03136 0.03404 0.03136 0.03404 0.03136 0.03136 h 0.05497 c 0,0 0,0.0027 0,0.0027 h -0.05497 v 0.03404 0.0134 L 43.928455,102.60845 c -0.107216,0.36962 0.09986,0.97548 0.306253,1.13078 0.0172,0.0107 0.03056,0.0121 0.04712,0.0209 l 0.05235,0.0419 1.423953,1.0732 c 0.05495,0.0232 0.123298,0.0749 0.167524,0.0917 0.333708,0.14247 0.348889,0.1095 0.484249,0.0917 0,0 0,-0.003 0,-0.003 0.176905,-0.0308 0.641303,-0.21987 0.641303,-0.21987 19.959464,-7.586485 34.774732,-9.681619 47.487783,-8.185108 1.496542,0.175819 2.955955,0.403062 4.387031,0.675322 0.107269,0.02158 0.21486,0.04074 0.321961,0.06285 0.40697,0.07961 0.807328,0.169588 1.209308,0.256513 0.86727,0.193362 1.7331,0.39167 2.5783,0.609894 0.0175,0.004 0.0348,0.01072 0.0524,0.01568 0.6903,0.178741 1.35713,0.371018 2.02599,0.562773 7.81359,2.313036 14.71989,5.926866 21.28077,9.910096 0.059,0.0385 0.09,0.0425 0.15705,0.0733 0.0286,0.0147 0.0679,0.0173 0.11255,0.034 0.11051,0.0509 0.43746,0.19 0.75124,0.10213 l 1.3559,-0.57848 c 0.004,-8.7e-4 0.007,9.6e-4 0.0107,0 0.003,-0.003 0.008,-0.005 0.0107,-0.008 l 0.0184,-0.008 c -0.003,5.8e-4 -0.005,-5.5e-4 -0.008,0 0.18642,-0.13531 0.48658,-0.32202 0.58109,-0.67009 8.1e-4,10e-4 0.001,0.003 0.003,0.005 l 21.81476,-72.158288 c 0.0777,-0.3427 -0.0343,-0.705155 -0.30365,-0.88998 h -0.003 C 138.9078,26.865876 126.11601,20.072327 107.39111,20.354129 Z"
         style="fill:#000000;fill-opacity:1;fill-rule:evenodd;stroke-width:1.31151"
         id="path15994" />
      <path
         sodipodi:nodetypes="ccccccccccccccccccccccccc"
         d="m 135.81536,124.12722 c -0.23731,0.0153 -0.4863,0.12276 -0.80882,0.31412 -0.021,0.008 -0.0454,0.0134 -0.0811,0.0393 -0.35794,0.23872 -1.4551,1.00958 -1.64645,1.4763 l -0.0261,0.0184 -21.55823,71.51698 c -0.32106,0.87862 0.29804,1.43566 0.5968,1.64644 l -0.003,0.003 c 19.18216,12.36864 47.03298,23.29894 90.44981,5.52566 0.12865,-0.0642 0.51586,-0.29153 0.73029,-0.67271 l 21.03734,-70.33385 c -0.003,-0.005 -0.0107,-0.0121 -0.0134,-0.0184 0.15875,-0.78626 -0.35276,-1.25379 -0.35861,-1.25904 h -0.003 v -0.003 l -0.003,-0.003 -1.74592,-1.33758 c -0.15144,-0.1399 -0.49499,-0.32246 -1.20931,-0.21726 h -0.003 c -0.0373,0.0121 -0.0728,0.022 -0.10989,0.034 -3.84285,1.1797 -21.33369,5.43194 -24.45064,6.07273 -28.22353,4.54589 -44.74129,-2.77587 -59.96308,-12.58523 -7.9e-4,-0.001 8.1e-4,-0.003 0,-0.005 -0.33303,-0.15271 -0.57892,-0.22838 -0.83239,-0.21201 z"
         style="fill:#000000;fill-opacity:1;fill-rule:evenodd;stroke-width:1.31151"
         id="path16054" />
      <path
         id="path16104"
         style="fill:#000000;fill-opacity:1;fill-rule:evenodd;stroke-width:1.31151"
         d="m 84.630563,103.15417 c -0.266738,0.0194 -0.578906,-0.0153 -0.844612,0.005 -0.695036,-0.009 -1.325478,0.039 -2.037321,0.0496 -10.319176,0.15462 -22.49205,2.67836 -37.260982,8.16941 -1.322205,0.46703 -2.635338,0.93966 -3.902783,1.43181 -0.08591,0.0354 -0.356706,0.12584 -0.452838,0.42142 h -0.0027 l -0.0027,0.0107 -21.414363,71.99552 c -0.104133,0.356 0.06915,0.73183 0.329808,0.96588 h 0.0027 l 0.02881,0.0314 1.43442,1.04702 c 0.0013,0.001 0.004,0.001 0.0054,0.003 l 0.01568,0.0134 c 0.0013,2e-4 0.004,-1.7e-4 0.0054,0 0.358488,0.24667 0.644712,0.24374 0.793125,0.23036 0.0027,10e-4 0.03927,0.0236 0.03927,0.0236 0.02694,-0.009 0.0516,-0.0188 0.07854,-0.0288 0.0012,-2.4e-4 0.02091,0 0.02091,0 l -0.008,-0.005 c 16.118946,-5.97687 28.982126,-8.70767 39.888774,-8.64748 10.034037,0.0591 18.338649,2.34551 25.943268,5.65141 0.922627,0.40734 1.847373,0.81205 2.748437,1.25121 0.008,0.004 0.01581,0.007 0.02359,0.0107 0.01689,0.008 0.03283,0.0181 0.04972,0.0261 1.231917,0.60187 2.446184,1.23153 3.646258,1.88464 2.408001,1.31051 4.725244,2.68963 7.063416,4.14987 -10e-4,8.5e-4 -0.004,0.001 -0.005,0.003 0,0 0.0328,0.0134 0.0366,0.0157 0.0139,0.009 0.0279,0.0174 0.0418,0.0261 l 0.008,-0.003 c 0.10762,0.0607 0.41673,0.21741 0.77219,0.0654 l 1.29307,-0.73291 h 0.003 l 0.0288,-0.0184 c -10e-4,4.8e-4 -0.004,-4.7e-4 -0.005,0 0.18466,-0.13588 0.47321,-0.32303 0.5654,-0.6701 0.001,0.003 0.004,0.005 0.005,0.008 l 22.12475,-72.61244 c 0.0777,-0.34524 -0.0328,-0.70647 -0.30627,-0.89258 l -0.0366,-0.0209 -0.005,0.0157 C 113.9627,109.6453 101.902,103.37061 84.631573,103.15521 Z m -44.304838,10.08022 -0.01836,0.0445 -0.143964,-0.0393 c 0.05361,-0.001 0.10869,-0.004 0.162284,-0.005 z"
         sodipodi:nodetypes="ccccccccccccccccccccccccccsccccccccccccccccccccccc" />
    </g>
    <path
       id="path16106"
       style="fill:#212121;fill-opacity:1;stroke-width:0.978603;filter:url(#filter16510)"
       d="M 58.683764,132.26127"
       transform="matrix(1.340191,0,0,1.340191,3.8271851,22.361896)" />
    <path
       sodipodi:nodetypes="sccccccccccccccccccccccs"
       d="m 165.45507,47.640812 c -0.26422,0.01464 -0.53415,0.119424 -0.88997,0.335048 -0.35207,0.234922 -1.42729,0.976321 -1.65429,1.47107 l -0.0366,0.02617 -21.61658,71.72327 c -0.36815,1.01192 0.41318,1.53882 0.59419,1.64644 1.90267,1.22732 3.8988,2.41909 6.05093,3.57489 14.52119,8.50579 32.82585,14.37186 57.644,9.59942 8.34497,-1.31895 17.10414,-3.78503 26.29187,-7.7803 0.12866,-0.0642 0.51313,-0.28639 0.73292,-0.67271 l 21.96037,-72.114722 0.003,0.0027 c 9e-4,-0.0039 -8.7e-4,-0.0066 0,-0.01045 l 0.005,-0.01571 c -6.3e-4,-0.0015 -0.001,-0.0038 -0.003,-0.0052 0.1643,-0.798629 -0.36383,-1.265635 -0.36383,-1.2669 l -1.74854,-1.342808 c -0.15144,-0.139896 -0.49766,-0.31993 -1.20932,-0.217257 -44.16673,17.488472 -65.75746,7.608103 -84.90177,-4.725096 -10e-4,-0.0042 -10e-4,-0.009 -0.003,-0.01313 -0.0182,-0.0083 -0.0319,-0.01045 -0.0497,-0.01832 -0.005,-0.0034 -0.0107,-0.0071 -0.0157,-0.01045 6.7e-4,0.0016 -6.7e-4,0.0036 0,0.0052 -0.299,-0.131097 -0.54528,-0.20466 -0.79051,-0.191082 z"
       style="fill:#767e47;fill-opacity:1;stroke-width:1.31151"
       id="path13723" />
    <path
       sodipodi:nodetypes="ccccc"
       id="path2462-2"
       style="fill:url(#linearGradient3572);stroke-width:1.31151"
       d="m 250.94989,53.105139 c -44.22095,17.508873 -65.59084,7.685264 -84.75423,-4.665411 l -21.7883,72.492002 c 19.14462,12.42127 42.25756,22.63371 84.68398,4.4446 z" />
    <path
       sodipodi:nodetypes="ccccc"
       id="path2331-9"
       style="fill:url(#linearGradient18456);fill-opacity:1;stroke-width:1.31151"
       d="m 250.86945,53.17052 c -44.22094,17.511441 -65.52463,7.743865 -84.68534,-4.606808 0.0442,-0.161716 0.15681,-0.519306 0.0281,-0.819633 19.16071,12.35324 40.85706,22.294872 85.07532,4.785998 -0.2935,0.257974 -0.2935,0.386319 -0.41813,0.640443 z" />
    <polygon
       transform="matrix(1.340191,0,0,1.2834536,22.491518,26.081949)"
       id="polygon2333-9"
       style="fill:#767e47;fill-opacity:1;fill-rule:evenodd"
       points="104.723,18.161 105.901,17.319 89.786,73.298 88.544,74.281 88.545,74.152 " />
    <path
       id="path2346-7"
       style="fill:#767e47;fill-opacity:1;stroke-width:1.31151"
       d="m 144.4489,120.95868 c -0.67277,-0.36064 -1.15792,-1.08708 -1.75565,-0.86248 l 21.65079,-71.754033 c 0.33236,-0.142462 1.16998,-0.417122 1.9607,0.179684 z" />
    <path
       sodipodi:nodetypes="ccccc"
       id="path2348-0"
       style="fill:#767e47;fill-opacity:1;fill-rule:evenodd;stroke-width:1.31151"
       d="m 164.6228,47.844187 -0.21564,0.618576 -1.58558,0.987025 c 0.13402,-0.490279 1.33751,-1.307839 1.70874,-1.555546 0.0697,-0.04621 0.0925,-0.05006 0.0925,-0.05006 z" />
    <path
       sodipodi:nodetypes="ccccc"
       id="path2359-7"
       style="fill:#767e47;fill-opacity:1;stroke-width:1.31151"
       d="m 166.27701,48.541297 c -0.81886,-0.483863 -1.60463,-0.319774 -1.93967,-0.18116 0.0523,-0.152731 0.19432,-0.465895 0.19432,-0.465895 0.71165,-0.43124 1.08035,-0.426232 1.74508,-0.122051 0.0858,0.237439 0.11016,0.511134 2.7e-4,0.769109 z" />
    <path
       id="path2366-5"
       style="fill:url(#linearGradient3028-1);fill-rule:evenodd;stroke-width:1.31151"
       d="m 252.50984,53.704436 c 0,0 -0.49453,-0.653277 -1.67792,-0.444075 0.10454,-0.26824 0.10454,-0.519798 0.45567,-0.731567 0.71164,-0.102672 1.05741,0.07701 1.20885,0.216903 0.0844,0.07957 0.1099,0.14503 0.1099,0.14503 0.0952,0.400437 -0.0965,0.813709 -0.0965,0.813709 z" />
    <path
       id="path2373-9"
       style="fill:url(#linearGradient3030-2);fill-rule:evenodd;stroke-width:1.31151"
       d="m 252.49778,52.745697 1.74895,1.343776 c 0.10453,0.449208 -0.12062,0.904834 -0.12062,0.904834 l -1.75431,-1.348909 c 0,0 0.21979,-0.500546 0.12598,-0.899701 z" />
    <polygon
       transform="matrix(1.340191,0,0,1.2834536,22.491518,26.081949)"
       id="polygon2375-0"
       style="fill:#595e48;fill-rule:evenodd"
       points="155.243,77.619 171.555,21.402 172.887,22.461 156.481,78.712 " />
    <path
       id="path2377-2"
       style="fill:#767e47;fill-rule:evenodd;stroke-width:1.31151"
       d="m 232.63481,127.62751 c 0.0469,-0.41199 -0.41144,-0.7521 -0.41144,-0.7521 l 21.94697,-72.031266 c 0,0 0.34845,0.300328 0.44226,0.517232 z" />
    <path
       id="path2384-9"
       style="fill:url(#linearGradient3032-0);fill-rule:evenodd;stroke-width:1.31151"
       d="m 254.60724,55.388327 c 0,0 -0.0791,-0.206636 -0.45298,-0.508247 0.1702,-0.677664 0.0576,-0.813709 0.0576,-0.813709 l 0.0335,0.02182 c 0,0.0013 0.54948,0.480012 0.36185,1.300138 z" />
    <path
       id="path2386-6"
       style="fill:#595e48;fill-rule:evenodd;stroke-width:1.31151"
       d="m 231.90173,128.30004 c -11.81781,5.13895 -23.00304,7.79056 -33.38952,8.65818 -17.93578,1.95085 -32.43933,-1.78529 -44.2893,-7.35933 -4.60757,-2.02529 -8.77959,-4.31753 -12.47047,-6.69834 l 0.19969,-0.16557 c 3.74181,2.41161 7.82001,4.76804 12.26944,6.86391 12.04028,5.29425 27.06516,8.7891 44.2893,7.35933 9.81019,-1.0627 20.64698,-3.83496 32.64035,-8.92899 0.33773,0.26054 0.75051,0.27081 0.75051,0.27081 z" />
    <path
       id="path2393-2"
       style="fill:url(#linearGradient3034-2);stroke-width:1.31151"
       d="m 229.51485,126.96011 c 0,0 -0.84567,-0.72643 -0.69154,-1.79041 1.13648,-0.27851 1.8642,0.4107 1.8642,0.4107 0,0 -0.20907,0.97928 -1.17266,1.37971 z" />
    <path
       id="path2400-3"
       style="fill:url(#linearGradient3036-8);fill-rule:evenodd;stroke-width:1.31151"
       d="m 230.68751,125.58168 1.58947,1.32838 c 0,0 -0.24392,0.83296 -1.20885,1.23853 l -1.61493,-1.32452 c 0.96761,-0.40557 1.23431,-1.24239 1.23431,-1.24239 z" />
    <path
       id="path2409-0"
       style="fill:#767e47;fill-opacity:1;stroke-width:1.31151"
       d="m 229.08598,125.14788 c -0.15412,1.06526 0.66474,1.84304 0.66474,1.84304 -44.22898,17.51272 -67.01491,7.20017 -86.1582,-5.21852 0.33639,-0.23616 0.38866,-0.23359 0.60711,-0.98056 19.1406,12.42126 48.07265,21.12436 84.88635,4.35604 z" />
    <path
       id="path2411-5"
       style="fill:#767e47;fill-rule:evenodd;stroke-width:1.31151"
       d="m 141.96151,122.80943 1.64441,-1.05244 c 19.15133,11.80778 41.77241,22.02022 85.95449,5.01831 l 1.59885,1.32965 c -42.42107,17.92215 -69.55993,7.94073 -89.19775,-5.29552 z" />
    <path
       id="path2413-6"
       style="fill:#767e47;fill-rule:evenodd;stroke-width:1.31151"
       d="m 232.63481,127.62751 c -0.21979,0.38632 -0.60443,0.60707 -0.73308,0.67125 -0.0268,0.0154 -0.0442,0.0154 -0.0442,0.0154 0,0 -0.30154,0.0398 -0.7036,-0.21049 0.86442,-0.45178 1.11504,-1.35405 1.11504,-1.35405 0,0 0.50257,0.40173 0.36587,0.87789 z" />
    <path
       id="path2415-7"
       style="fill:#767e47;fill-rule:evenodd;stroke-width:1.31151"
       d="m 142.02182,122.78889 -0.19701,0.1553 c 0,0 -1.07752,-0.55702 -0.66474,-1.69159 0.0965,1.11532 0.86175,1.53629 0.86175,1.53629 z" />
    <path
       id="path2426-4"
       style="fill:#767e47;fill-opacity:1;stroke-width:1.31151"
       d="m 141.15873,121.2526 1.58679,-1.20132 c -0.0925,1.15768 0.95287,1.63897 0.95287,1.63897 l -1.61359,1.18848 c 0,0 -1.0172,-0.46589 -0.92607,-1.62613 z" />
    <path
       id="path2437-8"
       style="fill:#767e47;fill-opacity:1;stroke-width:1.31151"
       d="m 142.71067,120.05128 c 0.54278,-0.15786 1.03329,0.38119 1.69803,0.87532 -0.21577,0.74954 -0.40608,0.62119 -0.74247,0.85991 -0.39402,-0.22589 -1.05607,-0.7829 -0.95556,-1.73523 z" />
    <path
       id="path2444-0"
       style="fill:url(#linearGradient3044-0);stroke-width:1.31151"
       d="m 228.87691,125.31088 21.888,-72.115974 c 1.18339,-0.209203 1.74895,0.432524 1.74895,0.432524 l -21.82501,71.95425 c -0.001,0 -0.87514,-0.64172 -1.81194,-0.2708 z" />
    <path
       id="path2596-1"
       style="fill:#f89c3e;fill-rule:evenodd;stroke-width:1.31151"
       d="M 154.6893,40.917389 C 135.51385,28.474306 114.03059,18.866373 69.920878,36.107005 c 0.112576,-0.361934 0.21175,-0.554452 0.21175,-0.554452 44.305382,-17.54096 65.544722,-7.619864 84.724202,4.828352 z" />
    <path
       sodipodi:nodetypes="scccccccccccccccccccccccccccccccccs"
       d="m 111.32133,26.193387 c -11.23017,0.169013 -24.563568,2.824006 -41.168251,9.395779 -0.351148,0.07897 -0.318748,0.368069 -0.391476,0.439692 v 0.0052 L 47.979792,108.24542 h -0.0027 c -0.107216,0.36963 0.179217,0.72475 0.3856,0.88005 0.01702,0.0107 0.0307,0.0119 0.04712,0.0209 l 0.05235,0.0419 1.426571,1.0732 c 0.05495,0.0231 0.120684,0.0749 0.164906,0.0916 0.333708,0.14247 0.34889,0.10959 0.484249,0.0916 v -0.003 c 0.176905,-0.0308 0.64392,-0.21988 0.64392,-0.21988 19.959465,-7.58649 34.907211,-10.226211 47.620263,-8.7297 1.493909,0.17551 2.953129,0.4037 4.381799,0.67533 0.11223,0.0226 0.22562,0.0397 0.33766,0.0628 0.40357,0.079 0.80019,0.17032 1.19885,0.25652 1.65219,0.36831 3.26452,0.7864 4.81893,1.23548 7.74811,2.31491 14.20466,6.35984 20.72088,10.31596 0.059,0.0385 0.0874,0.0425 0.15443,0.0733 0.0312,0.0161 0.0741,0.019 0.12303,0.0366 0.11732,0.0534 0.43473,0.18592 0.74339,0.0995 l 1.3559,-0.57848 c 0.003,-6.8e-4 0.005,7.3e-4 0.008,0 0.003,-0.002 0.008,-0.006 0.0104,-0.008 l 0.0183,-0.008 c -0.003,5.8e-4 -0.005,-5.5e-4 -0.008,0 0.18642,-0.13532 0.54029,0.039 0.63481,-0.30907 7.9e-4,0.002 0.002,0.003 0.003,0.005 l 21.77866,-72.025893 0.003,0.0027 0.0134,-0.04449 c 0.0777,-0.342681 -0.0369,-0.705152 -0.30626,-0.889971 -11.98754,-7.780022 -24.74548,-14.480599 -43.47038,-14.19879 z"
       style="fill:url(#linearGradient18464);fill-opacity:1;fill-rule:evenodd;stroke-width:1.31151"
       id="path13451" />
    <path
       sodipodi:nodetypes="cccssscc"
       id="path2525-9"
       style="fill:#922204;fill-opacity:1;fill-rule:evenodd;stroke-width:1.31151"
       d="M 132.15667,113.99467 C 111.52041,100.27968 86.225642,91.666427 48.661428,109.54365 l 1.518088,1.0979 c 9.606717,-3.75997 18.175637,-5.93875 26.895036,-7.58027 7.204934,-1.3564 14.252442,-1.5884 20.470565,-0.86947 8.426153,0.97422 17.388523,3.93955 22.053133,6.30993 5.71118,2.90221 9.29261,4.86388 11.06545,6.0692 z" />
    <path
       id="path2527-4"
       style="fill:#922204;fill-opacity:1;fill-rule:evenodd;stroke-width:1.31151"
       d="m 132.88038,112.93068 21.8049,-72.096716 c 0.23587,0.154015 0.35113,0.302896 0.47577,0.436375 l -21.81429,72.158321 c -0.12464,-0.30289 -0.46638,-0.49798 -0.46638,-0.49798 z" />
    <path
       id="path2529-5"
       style="fill:#922204;fill-opacity:1;fill-rule:evenodd;stroke-width:1.31151"
       d="m 50.210689,110.55886 c 6.985075,-2.74402 13.454177,-4.78086 19.456893,-6.17854 1.455447,-0.33755 2.748732,-0.64301 4.28459,-0.92666 1.413902,-0.26952 2.810381,-0.53263 4.176036,-0.72515 2.140285,-0.31316 4.21624,-0.57113 6.237248,-0.72001 1.728847,-0.13091 3.410787,-0.22718 5.057881,-0.24129 1.592147,-0.018 3.148109,0.002 4.667886,0.086 1.353592,0.0744 2.677701,0.16813 3.981707,0.31572 1.101637,0.12322 2.17915,0.25284 3.2446,0.42868 2.25018,0.36963 4.42398,0.82398 6.5254,1.39511 8.48609,2.29866 16.02332,6.21705 22.95345,10.64239 -0.0456,0.0205 -0.21175,-0.0462 -0.28412,-0.0834 -0.067,-0.0308 -0.0978,-0.0334 -0.1568,-0.0719 -9.36928,-5.68826 -19.43545,-10.63469 -31.856349,-12.09398 -12.713052,-1.4965 -27.527523,0.59938 -47.486988,8.18587 0,0 -0.465046,0.18866 -0.641951,0.21947 -0.159483,0.0244 -0.129999,-0.0924 -0.159483,-0.23231 z" />
    <path
       sodipodi:nodetypes="ccccc"
       id="path2531-1"
       style="fill:#922204;fill-opacity:1;stroke-width:1.31151"
       d="m 132.09695,113.96139 c 0,0 0.33888,0.20636 0.67392,0.1332 l -1.39419,0.59443 c -0.37123,0.10395 -0.83703,-0.13596 -0.83703,-0.13596 z" />
    <path
       id="path2533-0"
       style="fill:#ab4533;stroke-width:1.31151"
       d="m 50.229452,110.5717 c 0,0 0.08443,0.13476 0.14072,0.22203 -0.13536,0.018 -0.151442,0.0513 -0.48515,-0.0911 -0.04423,-0.0167 -0.111235,-0.0693 -0.166183,-0.0924 l -1.424623,-1.07297 -0.128659,-0.10139 c 0.194328,-0.0129 0.343089,0.077 0.440923,0.059 z" />
    <path
       id="path2535-3"
       style="fill:#922204;fill-opacity:1;stroke-width:1.31151"
       d="m 132.89512,112.93325 c 0.15278,0.0975 0.33505,0.1553 0.46236,0.45819 -0.0844,0.38376 -0.42484,0.57627 -0.61514,0.71745 -0.33773,0.0911 -0.67144,-0.15786 -0.67144,-0.15786 0.21309,-0.163 0.60443,-0.39402 0.82422,-1.01778 z" />
    <path
       id="path2537-7"
       style="fill:#922204;fill-opacity:1;fill-rule:evenodd;stroke-width:1.31151"
       d="m 154.83136,40.365503 0.0268,0.0154 c 0.26937,0.184818 0.38195,0.546752 0.30422,0.889434 l -0.0134,0.04621 c -0.12598,-0.134763 -0.20639,-0.268242 -0.45299,-0.446642 z" />
    <path
       id="path2539-8"
       style="fill:#d75329;fill-rule:evenodd;stroke-width:1.31151"
       d="m 48.195042,109.47434 c -0.20639,-0.1553 -0.414119,-0.76237 -0.306904,-1.132 l 0.289481,-0.0963 c -0.107215,0.5352 0.238554,1.14484 0.538757,1.31041 0.0013,0 -0.21041,0.11422 -0.521334,-0.0821 z" />
    <rect
       transform="matrix(1.340191,0,0,1.2834536,22.491518,26.081949)"
       id="rect2547-0"
       style="fill:#faaa4f;fill-rule:evenodd"
       clip-path="url(#XMLID_56_-9-6)"
       y="7.3720002"
       x="35.25"
       height="0.024"
       width="0.32499999" />
    <rect
       transform="matrix(1.340191,0,0,1.2834536,22.491518,26.081949)"
       id="rect2549-4"
       style="fill:#f6a34c;fill-rule:evenodd"
       clip-path="url(#XMLID_56_-9-6)"
       y="7.3959999"
       x="35.25"
       height="0.027000001"
       width="0.32499999" />
    <rect
       transform="matrix(1.340191,0,0,1.2834536,22.491518,26.081949)"
       id="rect2551-6"
       style="fill:#f39d48;fill-rule:evenodd"
       clip-path="url(#XMLID_56_-9-6)"
       y="7.4229999"
       x="35.25"
       height="0.024"
       width="0.32499999" />
    <rect
       transform="matrix(1.340191,0,0,1.2834536,22.491518,26.081949)"
       id="rect2553-7"
       style="fill:#f09745;fill-rule:evenodd"
       clip-path="url(#XMLID_56_-9-6)"
       y="7.448"
       x="35.25"
       height="0.027000001"
       width="0.32499999" />
    <rect
       transform="matrix(1.340191,0,0,1.2834536,22.491518,26.081949)"
       id="rect2555-6"
       style="fill:#ed9142;fill-rule:evenodd"
       clip-path="url(#XMLID_56_-9-6)"
       y="7.4749999"
       x="35.25"
       height="0.025"
       width="0.32499999" />
    <rect
       transform="matrix(1.340191,0,0,1.2834536,22.491518,26.081949)"
       id="rect2557-0"
       style="fill:#eb8c3f;fill-rule:evenodd"
       clip-path="url(#XMLID_56_-9-6)"
       y="7.5"
       x="35.25"
       height="0.024"
       width="0.32499999" />
    <rect
       transform="matrix(1.340191,0,0,1.2834536,22.491518,26.081949)"
       id="rect2559-9"
       style="fill:#e8863c;fill-rule:evenodd"
       clip-path="url(#XMLID_56_-9-6)"
       y="7.5250001"
       x="35.25"
       height="0.025"
       width="0.32499999" />
    <rect
       transform="matrix(1.340191,0,0,1.2834536,22.491518,26.081949)"
       id="rect2561-7"
       style="fill:#e68139;fill-rule:evenodd"
       clip-path="url(#XMLID_56_-9-6)"
       y="7.5500002"
       x="35.25"
       height="0.024"
       width="0.32499999" />
    <rect
       transform="matrix(1.340191,0,0,1.2834536,22.491518,26.081949)"
       id="rect2563-5"
       style="fill:#e57b37;fill-rule:evenodd"
       clip-path="url(#XMLID_56_-9-6)"
       y="7.5749998"
       x="35.25"
       height="0.025"
       width="0.32499999" />
    <rect
       transform="matrix(1.340191,0,0,1.2834536,22.491518,26.081949)"
       id="rect2565-9"
       style="fill:#e27634;fill-rule:evenodd"
       clip-path="url(#XMLID_56_-9-6)"
       y="7.5999999"
       x="35.25"
       height="0.025"
       width="0.32499999" />
    <rect
       transform="matrix(1.340191,0,0,1.2834536,22.491518,26.081949)"
       id="rect2567-7"
       style="fill:#e07132;fill-rule:evenodd"
       clip-path="url(#XMLID_56_-9-6)"
       y="7.625"
       x="35.25"
       height="0.026000001"
       width="0.32499999" />
    <rect
       transform="matrix(1.340191,0,0,1.2834536,22.491518,26.081949)"
       id="rect2569-8"
       style="fill:#df6b30;fill-rule:evenodd"
       clip-path="url(#XMLID_56_-9-6)"
       y="7.652"
       x="35.25"
       height="0.025"
       width="0.32499999" />
    <rect
       transform="matrix(1.340191,0,0,1.2834536,22.491518,26.081949)"
       id="rect2571-5"
       style="fill:#dc662e;fill-rule:evenodd"
       clip-path="url(#XMLID_56_-9-6)"
       y="7.677"
       x="35.25"
       height="0.024"
       width="0.32499999" />
    <rect
       transform="matrix(1.340191,0,0,1.2834536,22.491518,26.081949)"
       id="rect2573-3"
       style="fill:#db602c;fill-rule:evenodd"
       clip-path="url(#XMLID_56_-9-6)"
       y="7.7020001"
       x="35.25"
       height="0.027000001"
       width="0.32499999" />
    <rect
       transform="matrix(1.340191,0,0,1.2834536,22.491518,26.081949)"
       id="rect2575-3"
       style="fill:#d95a2a;fill-rule:evenodd"
       clip-path="url(#XMLID_56_-9-6)"
       y="7.7290001"
       x="35.25"
       height="0.024"
       width="0.32499999" />
    <rect
       transform="matrix(1.340191,0,0,1.2834536,22.491518,26.081949)"
       id="rect2577-8"
       style="fill:#d75329;fill-rule:evenodd"
       clip-path="url(#XMLID_56_-9-6)"
       y="7.7529998"
       x="35.25"
       height="0.027000001"
       width="0.32499999" />
    <path
       id="path2592-7"
       style="fill:#922204;fill-opacity:1;stroke-width:1.31151"
       d="m 132.11647,113.98697 c -11.81245,-7.39526 -22.87036,-13.51734 -40.379963,-13.999914 -12.804185,0.242574 -22.619744,1.804534 -43.037554,9.570714 -0.301543,-0.16428 -0.683497,-0.57371 -0.577622,-1.11147 17.67846,-7.20916 31.71294,-10.318968 43.36054,-10.209874 17.636919,0.168132 29.863479,7.234824 41.423969,14.682704 -0.19567,0.652 -0.57628,0.90227 -0.78937,1.06784 z" />
    <path
       id="path2594-4"
       style="fill:#d75329;fill-rule:evenodd;stroke-width:1.31151"
       d="m 69.739952,35.988927 0.202369,0.06161 -21.771403,72.371373 c -0.04959,-0.0205 -0.28144,-0.0796 -0.28144,-0.0796 z" />
    <path
       sodipodi:nodetypes="cscccccccccccccccccccscccccc"
       d="m 139.78546,129.89979 c -0.22906,0.0148 -0.47138,0.12007 -0.77742,0.2984 -0.009,0.005 -0.0168,0.008 -0.0262,0.0131 -0.0194,0.007 -0.0484,0.0143 -0.0864,0.0419 -0.35799,0.23875 -1.45534,1.00959 -1.64645,1.4763 l -0.0262,0.0183 -0.0131,0.0419 c -9.6e-4,0.004 -0.007,0.009 -0.008,0.0131 l 0.005,-0.003 -21.47903,71.38733 c -0.32176,0.88054 0.29622,1.43938 0.59418,1.64906 19.18216,12.36864 46.85743,23.22546 90.27425,5.45218 0.12866,-0.0642 0.51587,-0.29153 0.7303,-0.67271 l 21.01597,-70.13767 c -0.001,-0.004 -0.008,-0.009 -0.0107,-0.0131 0.16104,-0.78957 -0.35726,-1.2633 -0.36123,-1.2669 l -0.0107,-0.005 -1.74068,-1.33758 c -0.15144,-0.1399 -0.49499,-0.31988 -1.20931,-0.21464 -0.0371,0.0121 -0.0728,0.022 -0.1099,0.034 l -0.80565,0.31942 c -9.25125,3.66202 -16.08638,4.27189 -23.52226,5.76965 -0.003,5.3e-4 -0.005,0.002 -0.008,0.003 -28.21373,4.5405 -44.72551,-2.84212 -59.9444,-12.6496 -7.9e-4,-0.002 8e-4,-0.003 0,-0.005 -0.004,-0.002 -0.007,-9.2e-4 -0.0105,-0.003 -0.32741,-0.14932 -0.57391,-0.22558 -0.82453,-0.2094 z"
       style="fill:#c19236;fill-opacity:1;fill-rule:evenodd;stroke-width:1.31151"
       id="path13935" />
    <g
       id="g13639"
       transform="matrix(1.340191,0,0,1.340191,3.8271851,22.361896)">
      <path
         d="m 88.226,83.334 c 14.313,9.637 30.212,17.313 63.243,3.66 l -16.281,56.234 c -33.037,13.664 -48.903,5.926 -63.201,-3.77 z"
         clip-path="url(#XMLID_70_-70-7)"
         style="fill:url(#linearGradient7245)"
         id="path2733-4"
         transform="matrix(1,0,0,0.95766468,13.926622,0.77576316)" />
      <path
         d="m 151.91962,139.80761 c -0.16,0.28442 -0.449,0.45297 -0.545,0.50085 -0.021,0.0115 -0.035,0.0115 -0.035,0.0115 0,0 -0.275,0.0335 -0.525,-0.15706 0.645,-0.3371 0.836,-1.01417 0.836,-1.01417 0,0 0.372,0.30358 0.269,0.65888 z"
         style="fill:#a87c3c;fill-opacity:1;fill-rule:evenodd;stroke-width:0.978603"
         id="path2614-8" />
      <path
         d="m 151.91962,139.80761 c 0.039,-0.30646 -0.305,-0.56503 -0.305,-0.56503 l 15.668,-52.300937 c 0,0 0.262,0.220263 0.334,0.384981 z"
         style="fill:#a87c3c;fill-opacity:1;fill-rule:evenodd;stroke-width:0.978603"
         id="path2616-8" />
      <path
         d="m 167.60662,87.34865 c 0,0 -0.051,-0.149395 -0.332,-0.374447 0.129,-0.50852 0.039,-0.617693 0.039,-0.617693 l 0.025,0.01532 c 0.001,9.58e-4 0.413,0.363913 0.268,0.976818 z"
         style="fill:#a87c3c;fill-opacity:1;fill-rule:evenodd;stroke-width:0.978603"
         id="path2623-4" />
      <path
         d="m 166.04462,86.088364 c 0,0 -0.434,-0.50469 -1.316,-0.347633 0.047,-0.190575 0.121,-0.42233 0.402,-0.531504 0.533,-0.07853 0.789,0.0565 0.902,0.160888 0.064,0.06321 0.082,0.108216 0.082,0.108216 0.07,0.299749 -0.07,0.610033 -0.07,0.610033 z"
         style="fill:url(#linearGradient3054-6);fill-rule:evenodd;stroke-width:0.978603"
         id="path2630-1" />
      <path
         d="m 166.03262,85.370115 1.307,1.002675 c 0.076,0.339971 -0.064,0.677069 -0.064,0.677069 l -1.301,-0.998844 c -10e-4,0 0.128,-0.382109 0.058,-0.6809 z"
         style="fill:#a87c3c;fill-opacity:1;fill-rule:evenodd;stroke-width:0.978603"
         id="path2637-0" />
      <polygon
         points="153.372,90.025 137.723,144.619 137.661,144.768 136.288,143.584 152.042,88.963 "
         style="fill:#a87c3c;fill-rule:evenodd"
         id="polygon2639-9"
         transform="matrix(1,0,0,0.95766468,13.926622,0.77576316)" />
      <path
         d="m 149.44262,139.2196 c 0,0 -0.629,-0.53917 -0.516,-1.33594 0.848,-0.2059 1.395,0.30645 1.395,0.30645 0,0 -0.156,0.72687 -0.879,1.02949 z"
         style="fill:#a87c3c;fill-opacity:1;stroke-width:0.978603"
         id="path2646-9" />
      <path
         d="m 164.78262,85.792445 c -33.176,10.822569 -48.441,4.354501 -62.754,-4.870682 0.034,-0.123539 0.122,-0.325606 0.025,-0.553531 14.313,9.225184 30.143,15.524703 63.076,4.840995 -0.249,0.164719 -0.281,0.388812 -0.347,0.583218 z"
         style="fill:url(#linearGradient18448);fill-opacity:1;stroke-width:0.978603"
         id="path2648-3" />
      <polygon
         points="70.757,139.26 69.513,140.244 69.516,140.111 85.601,84.389 86.778,83.533 "
         style="fill:#c19236;fill-opacity:1;fill-rule:evenodd"
         id="polygon2650-2"
         transform="matrix(1,0,0,0.95766468,13.926622,0.77576316)" />
      <path
         d="m 86.046622,134.39393 c -0.467,-0.26528 -1.011,-0.46734 -1.457,-0.29592 L 100.65262,80.794393 c 0.25,-0.100555 0.844,-0.258569 1.453,0.149396 z"
         style="fill:#c19236;fill-opacity:1;stroke-width:0.978603"
         id="path2663-2" />
      <path
         d="m 148.96662,137.99283 15.758,-52.271252 c 0.029,-0.0077 0.068,-0.04501 0.094,-0.04884 0.838,-0.08236 1.227,0.343802 1.227,0.343802 l -15.715,52.18889 c -0.001,9.6e-4 -0.665,-0.49319 -1.364,-0.2126 z"
         style="fill:url(#linearGradient3062-6);stroke-width:0.978603"
         id="path2670-1" />
      <path
         d="m 151.37462,140.30846 c -32.396,13.26175 -53.175998,5.10627 -67.488998,-4.12274 l 0.15,-0.11971 c 14.313,9.22518 36.338998,16.90853 66.777998,4.04039 0.252,0.19057 0.561,0.20206 0.561,0.20206 z"
         style="fill:#a87c3c;fill-rule:evenodd;stroke-width:0.978603"
         id="path2672-7" />
      <path
         d="m 150.31962,138.19873 1.334,1.07354 c 0,0 -0.18,0.62057 -0.902,0.92415 l -1.355,-1.07737 c 0.722,-0.30263 0.923,-0.92032 0.923,-0.92032 z"
         style="fill:#a87c3c;fill-opacity:1;fill-rule:evenodd;stroke-width:0.978603"
         id="path2679-7" />
      <path
         d="m 149.12262,137.86929 c -0.113,0.79678 0.498,1.37329 0.498,1.37329 -33.037,13.08553 -49.956998,5.2413 -64.256998,-4.04038 0.252,-0.17621 0.375,-0.32944 0.536,-0.88297 0.021,0.0115 0.221,-0.0191 0.241,-0.008 14.760998,8.70517 33.653998,15.58503 62.981998,3.55772 z"
         style="fill:#a87c3c;fill-opacity:1;stroke-width:0.978603"
         id="path2688-1" />
      <path
         d="m 84.041622,136.11868 1.322,-0.91648 c 13.117,7.83369 31.500998,16.41533 64.113998,3.88333 l 1.348,1.07737 c -30.313,12.85761 -52.470998,5.1848 -66.783998,-4.04422 z"
         style="fill:#a87c3c;fill-opacity:1;fill-rule:evenodd;stroke-width:0.978603"
         id="path2690-1" />
      <path
         d="m 84.153622,136.15986 -0.15,0.10056 c 0,0 -0.87,-0.45968 -0.561,-1.3053 0.071,0.83413 0.711,1.20474 0.711,1.20474 z"
         style="fill:#c19236;fill-opacity:1;fill-rule:evenodd;stroke-width:0.978603"
         id="path2692-1" />
      <path
         d="m 83.442622,134.95512 1.242,-0.97299 c -0.068,0.87148 0.813,1.19325 0.813,1.19325 l -1.364,0.99885 c 10e-4,9.5e-4 -0.76,-0.35051 -0.691,-1.21911 z"
         style="fill:#c19236;fill-opacity:1;stroke-width:0.978603"
         id="path2703-8" />
      <path
         d="m 84.592622,134.01661 c 0.445,-0.17238 0.862,0.0297 1.331,0.29209 -0.163,0.55736 -0.261,0.75176 -0.513,0.92797 -0.294,-0.16855 -0.893,-0.51331 -0.818,-1.22006 z"
         style="fill:#c19236;fill-opacity:1;stroke-width:0.978603"
         id="path2714-2" />
      <path
         d="m 88.226,83.334 c 14.313,9.637 30.212,17.313 63.243,3.66 l -16.281,56.234 c -33.037,13.664 -48.903,5.926 -63.201,-3.77 z"
         clip-path="url(#XMLID_70_-70-7)"
         style="fill:none"
         id="path2735-8"
         transform="matrix(1,0,0,0.95766468,13.926622,0.77576316)" />
      <path
         d="m 100.85962,80.436227 -0.17,0.38115 -1.177998,0.81593 c 0.076,-0.339971 0.983998,-0.969156 1.263998,-1.155901 0.037,-0.02681 0.084,-0.04118 0.084,-0.04118 z"
         style="fill:#c19236;fill-opacity:1;fill-rule:evenodd;stroke-width:0.978603"
         id="path2737-0" />
      <path
         d="m 102.05962,80.91889 c -0.657,-0.366786 -1.193,-0.145565 -1.443,-0.04118 0.039,-0.115877 0.174,-0.407965 0.174,-0.407965 0.532,-0.325606 0.774,-0.325606 1.271,-0.09768 0.096,0.225051 0.033,0.404135 -0.002,0.546827 z"
         style="fill:#c19236;fill-opacity:1;stroke-width:0.978603"
         id="path2748-2" />
    </g>
    <path
       id="path2464-8-9"
       style="fill:#a0b4ff;fill-opacity:1;fill-rule:evenodd;stroke-width:1.31151"
       d="m 88.591038,109.02236 c -0.266738,0.0194 -0.578906,-0.0152 -0.844612,0.005 -0.695036,-0.009 -1.325478,0.0389 -2.037321,0.0495 -10.319176,0.15462 -22.49205,2.67836 -37.260982,8.16942 -1.322205,0.46703 -2.635338,0.93966 -3.902783,1.43181 -0.08591,0.0354 -0.356706,0.12584 -0.452838,0.42142 h -0.0027 l -0.0027,0.0107 -21.414363,71.99551 c -0.104133,0.356 0.06915,0.73183 0.329808,0.96588 h 0.0027 l 0.02881,0.0314 1.43442,1.04702 c 0.0013,10e-4 0.004,10e-4 0.0054,0.003 l 0.01568,0.0134 c 0.0013,2e-4 0.004,-1.8e-4 0.0054,0 0.358488,0.24666 0.644712,0.24374 0.793125,0.23035 0.0027,0.001 0.03927,0.0236 0.03927,0.0236 0.02694,-0.009 0.0516,-0.0188 0.07853,-0.0288 0.0012,-2.4e-4 0.02091,0 0.02091,0 l -0.008,-0.005 c 16.118946,-5.97686 28.982126,-8.70766 39.888774,-8.64748 10.034037,0.0591 18.338649,2.34551 25.943268,5.65142 0.922627,0.40733 1.847373,0.81204 2.748437,1.2512 0.008,0.004 0.01581,0.007 0.02359,0.0107 0.01689,0.008 0.03283,0.0181 0.04972,0.0261 1.231917,0.60187 2.446184,1.23153 3.646258,1.88465 2.408001,1.3105 4.725241,2.68963 7.063411,4.14986 -0.001,8.6e-4 -0.004,0.001 -0.005,0.003 0,0 0.0328,0.0134 0.0366,0.0157 0.0139,0.009 0.0279,0.0174 0.0418,0.0261 l 0.008,-0.003 c 0.10761,0.0607 0.41673,0.21741 0.77219,0.0654 l 1.29307,-0.73291 h 0.003 l 0.0288,-0.0184 c -0.001,4.8e-4 -0.004,-4.7e-4 -0.005,0 0.18465,-0.13588 0.47321,-0.32302 0.5654,-0.67009 0.001,0.003 0.004,0.005 0.005,0.008 l 22.12474,-72.61243 c 0.0777,-0.34525 -0.0328,-0.70647 -0.30626,-0.89258 l -0.0366,-0.0209 -0.005,0.0157 c -11.37983,-7.3832 -23.44052,-13.6579 -40.710952,-13.87329 z m -44.304838,10.08022 -0.01836,0.0445 -0.143964,-0.0393 c 0.05361,-0.001 0.10869,-0.004 0.162284,-0.005 z"
       sodipodi:nodetypes="ccccccccccccccccccccccccccsccccccccccccccccccccccc" />
    <g
       id="g13721"
       transform="matrix(1.340191,0,0,1.340191,3.8271851,22.361896)">
      <path
         d="M 53.600622,128.23327"
         style="fill:none;stroke-width:0.978603"
         id="path2329-4" />
      <path
         d="m 15.286622,127.51885 c 0.108,0.0153 0.307,-0.0747 0.307,-0.0747 0.229,0.14939 0.411,0.25473 0.411,0.25473 0,0 -0.358,0.0814 -0.718,-0.18004 z"
         style="fill:#141fb8;fill-opacity:1;fill-rule:evenodd;stroke-width:0.978603"
         id="path2464-8" />
      <path
         d="m 76.496622,130.2865 c 0,0 0.219,0.19441 0.471,0.12737 l -0.989,0.56119 c -0.316,0.13504 -0.641,-0.0785 -0.641,-0.0785 z"
         style="fill:#141fb8;fill-opacity:1;stroke-width:0.978603"
         id="path2466-9" />
      <path
         d="m 15.606622,127.45086 c 0,0 -0.193,0.0938 -0.302,0.0785 l -1.085,-0.79295 -0.025,-0.022 c 0.157,0.0527 0.338,0.0259 0.411,0.0115 z"
         style="fill:#141fb8;fill-opacity:1;stroke-width:0.978603"
         id="path2468-6" />
      <path
         d="m 77.051622,129.51271 c 0.113,0.0785 0.232,0.16472 0.344,0.38115 -0.063,0.28443 -0.311,0.42999 -0.451,0.53534 -0.202,0.045 -0.485,-0.13887 -0.485,-0.13887 0.158,-0.12736 0.428,-0.31028 0.592,-0.77762 z"
         style="fill:#141fb8;fill-opacity:1;stroke-width:0.978603"
         id="path2470-0" />
      <rect
         width="0.324"
         height="0.017237963"
         x="30.010622"
         y="72.220421"
         style="fill:#2e499e;fill-rule:evenodd;stroke-width:0.978603"
         id="rect2472-7" />
      <polygon
         points="0.207,130.799 0.023,130.752 16.086,74.56 16.267,74.611 "
         style="fill:#141fb8;fill-opacity:1;fill-rule:evenodd"
         id="polygon2474-0"
         transform="matrix(1,0,0,0.95766468,13.926622,0.77576316)" />
      <path
         d="m 14.219622,126.73644 c -0.208,-0.17238 -0.352,-0.46734 -0.271,-0.7441 l 0.193,-0.0709 c -0.081,0.4003 0.226,0.68856 0.45,0.8121 0.002,-9.6e-4 -0.162,0.0776 -0.372,0.003 z"
         style="fill:#141fb8;fill-opacity:1;fill-rule:evenodd;stroke-width:0.978603"
         id="path2476-1" />
      <path
         d="m 76.486622,130.32385 c -14.332,-9.23667 -29.185,-16.29179 -61.874,-3.57209 -0.225,-0.12737 -0.567,-0.43382 -0.487,-0.83795 33.192,-13.53085 48.613,-5.62628 62.945,3.61327 -0.146,0.49032 -0.426,0.67323 -0.584,0.79677 z"
         style="fill:url(#linearGradient7243);stroke-width:0.978603"
         id="path2485-0" />
      <path
         d="m 15.541622,127.40968 c 31.464,-11.78023 45.567,-5.36484 59.892,3.4677 -8.58,-5.28918 -17.41,-9.52397 -29.594,-9.5958 -8.154,-0.045 -17.791,1.93736 -29.851,6.4154 0,9.6e-4 -0.249,-0.0891 -0.447,-0.2873 z"
         style="fill:#141fb8;fill-opacity:1;fill-rule:evenodd;stroke-width:0.978603"
         id="path2487-1" />
      <path
         d="m 76.503622,130.32002 -1.159,0.57939 c -14.325,-8.83254 -28.823,-14.93765 -59.737,-3.44951 l -1.022,-0.71442 c 32.689,-12.72161 47.587,-5.65501 61.918,3.58454 z"
         style="fill:#141fb8;fill-opacity:1;fill-rule:evenodd;stroke-width:0.978603"
         id="path2489-3" />
      <path
         d="m 77.041622,129.5424 16.527,-54.17222 c 0.177,0.117793 0.271,0.209729 0.363,0.310284 l -16.542,54.239256 c -0.093,-0.22793 -0.348,-0.37732 -0.348,-0.37732 z"
         style="fill:#141fb8;fill-opacity:1;fill-rule:evenodd;stroke-width:0.978603"
         id="path2491-7" />
      <path
         d="m 93.561622,75.396037 c -14.318,-9.293178 -30.467,-16.019814 -63.403,-3.145928 0.082,-0.269104 0.149,-0.396473 0.149,-0.396473 33.081,-13.098938 49.056,-6.144377 63.373,3.149759 z"
         style="fill:url(#linearGradient18472);fill-opacity:1;fill-rule:evenodd;stroke-width:0.978603"
         id="path2493-7" />
      <path
         id="path2510-2"
         style="fill:url(#linearGradient3574);stroke-width:0.978603"
         d="m 77.067622,129.6736 c -14.331,-9.23668 -29.91,-16.83383 -62.984,-3.73681 l 16.13867,-54.031807 c 33.081,-13.098938 49.02933,-5.827023 63.34633,3.466155 z"
         sodipodi:nodetypes="ccccc" />
      <path
         id="path2512-0"
         style="fill:none;stroke-width:0.978603"
         d="m 77.067622,129.6736 c -14.331,-9.23668 -29.91,-16.83383 -62.984,-3.73681 l 16.195,-54.172217 c 33.081,-13.098938 48.973,-5.686613 63.29,3.606565 z" />
      <path
         d="m 93.675622,74.999564 0.027,0.01532 c 0.204,0.138861 0.287,0.407965 0.229,0.665577 l -0.012,0.03352 c -0.091,-0.0996 -0.186,-0.194406 -0.362,-0.312199 z"
         style="fill:#313c7e;fill-rule:evenodd;stroke-width:0.978603"
         id="path2516-2" />
      <path
         d="m 30.191622,72.237659 -0.181,-0.05076 c 0.069,-0.227924 0.232,-0.306453 0.297,-0.333267 l 0.027,-0.0077 c 0.001,0 -0.06,0.119708 -0.143,0.391685 z"
         style="fill:url(#linearGradient3046-4);fill-rule:evenodd;stroke-width:0.978603"
         id="path2523-9" />
      <path
         d="m 76.499966,130.35313 c -14.355462,-8.99086 -29.77319,-16.24569 -61.902696,-3.58259 -0.212003,-0.059 -0.593648,-0.41175 -0.513648,-0.83375 30.947042,-12.989 48.659294,-6.09844 62.987,3.55506 -0.146,0.512 -0.412656,0.73228 -0.570656,0.86128 z"
         style="overflow:visible;fill:#141fb8;fill-opacity:1"
         id="path11190-5"
         sodipodi:nodetypes="ccccc" />
    </g>
  </g>
</svg>
