<?xml version="1.0" encoding="UTF-8" standalone="no"?>
<svg
   inkscape:export-ydpi="96"
   inkscape:export-xdpi="96"
   inkscape:export-filename="/media/klapeto/Αρχεία/WindowsXP Theme/Vectors/RASTER/window-new.png"
   sodipodi:docname="new-window.svg"
   inkscape:version="1.1.1 (3bf5ae0d25, 2021-09-20)"
   id="svg8"
   version="1.1"
   viewBox="0 0 256 256"
   height="256"
   width="256"
   xmlns:inkscape="http://www.inkscape.org/namespaces/inkscape"
   xmlns:sodipodi="http://sodipodi.sourceforge.net/DTD/sodipodi-0.dtd"
   xmlns:xlink="http://www.w3.org/1999/xlink"
   xmlns="http://www.w3.org/2000/svg"
   xmlns:svg="http://www.w3.org/2000/svg"
   xmlns:rdf="http://www.w3.org/1999/02/22-rdf-syntax-ns#"
   xmlns:cc="http://creativecommons.org/ns#"
   xmlns:dc="http://purl.org/dc/elements/1.1/">
  <defs
     id="defs2">
    <linearGradient
       id="linearGradient853"
       inkscape:collect="always">
      <stop
         id="stop849"
         offset="0"
         style="stop-color:#abd5ff;stop-opacity:1" />
      <stop
         id="stop851"
         offset="1"
         style="stop-color:#ffffff;stop-opacity:1" />
    </linearGradient>
    <linearGradient
       id="linearGradient845"
       inkscape:collect="always">
      <stop
         id="stop841"
         offset="0"
         style="stop-color:#016cd1;stop-opacity:1" />
      <stop
         id="stop843"
         offset="1"
         style="stop-color:#017bdf;stop-opacity:1" />
    </linearGradient>
    <linearGradient
       gradientTransform="matrix(3.7798866,0,0,3.7798866,-84.443646,17.997292)"
       gradientUnits="userSpaceOnUse"
       y2="3.4395833"
       x2="28.442709"
       y1="2.9104168"
       x1="28.442709"
       id="linearGradient847"
       xlink:href="#linearGradient845"
       inkscape:collect="always" />
    <linearGradient
       gradientTransform="matrix(3.7798866,0,0,3.7798866,-84.443646,17.997292)"
       gradientUnits="userSpaceOnUse"
       y2="5.0270834"
       x2="28.442709"
       y1="7.4083333"
       x1="31.485418"
       id="linearGradient855"
       xlink:href="#linearGradient853"
       inkscape:collect="always" />
    <filter
       inkscape:collect="always"
       style="color-interpolation-filters:sRGB"
       id="filter1119"
       x="-0.043825802"
       width="1.0876516"
       y="-0.053053052"
       height="1.1061061">
      <feGaussianBlur
         inkscape:collect="always"
         stdDeviation="4.4191016"
         id="feGaussianBlur1121" />
    </filter>
    <filter
       height="1.096"
       y="-0.047999999"
       width="1.096"
       x="-0.047999999"
       id="filter942"
       style="color-interpolation-filters:sRGB"
       inkscape:collect="always">
      <feGaussianBlur
         id="feGaussianBlur944"
         stdDeviation="2.56"
         inkscape:collect="always" />
    </filter>
  </defs>
  <sodipodi:namedview
     scale-x="1"
     inkscape:snap-global="true"
     inkscape:bbox-paths="false"
     fit-margin-bottom="0"
     fit-margin-right="0"
     fit-margin-left="0"
     fit-margin-top="0"
     inkscape:bbox-nodes="true"
     inkscape:snap-bbox="true"
     inkscape:window-maximized="1"
     inkscape:window-y="0"
     inkscape:window-x="3840"
     inkscape:window-height="2045"
     inkscape:window-width="3840"
     units="px"
     showgrid="false"
     inkscape:document-rotation="0"
     inkscape:current-layer="layer1"
     inkscape:document-units="px"
     inkscape:cy="142"
     inkscape:cx="118.25"
     inkscape:zoom="4"
     inkscape:pageshadow="2"
     inkscape:pageopacity="0.0"
     borderopacity="1.0"
     bordercolor="#666666"
     pagecolor="#ffffff"
     id="base"
     showguides="false"
     inkscape:pagecheckerboard="0">
    <inkscape:grid
       originy="0"
       originx="0"
       id="grid1504"
       type="xygrid" />
    <inkscape:grid
       originy="0"
       originx="0"
       spacingy="0.5"
       spacingx="0.5"
       id="grid1507"
       type="xygrid" />
  </sodipodi:namedview>
  <metadata
     id="metadata5">
    <rdf:RDF>
      <cc:Work
         rdf:about="">
        <dc:format>image/svg+xml</dc:format>
        <dc:type
           rdf:resource="http://purl.org/dc/dcmitype/StillImage" />
      </cc:Work>
    </rdf:RDF>
  </metadata>
  <g
     transform="translate(-12.567709)"
     id="layer1"
     inkscape:groupmode="layer"
     inkscape:label="Layer 1">
    <path
       id="path1029"
       style="fill:#212121;fill-opacity:1;stroke:none;stroke-width:10.5;stroke-linecap:round;stroke-linejoin:miter;stroke-miterlimit:4;stroke-dasharray:none;stroke-opacity:1;filter:url(#filter1119)"
       d="m 38.600912,32.045 c -11.562083,0 -21.033203,9.473073 -21.033203,21.035156 V 63.60164 231.95516 H 259.56771 V 58.339922 53.080156 c 0,-11.56208 -9.47307,-21.035156 -21.03516,-21.035156 z" />
    <g
       id="g1027"
       transform="matrix(10.521739,0,0,10.521739,-119.65558,-266.55624)">
      <path
         id="path1012"
         style="fill:url(#linearGradient855);fill-opacity:1;stroke:none;stroke-width:0.997934;stroke-linecap:round;stroke-linejoin:miter;stroke-miterlimit:4;stroke-dasharray:none;stroke-opacity:1"
         d="M 35.067709,30.49848 V 46.5 H 13.065643 V 30.49848"
         sodipodi:nodetypes="cccc" />
      <path
         sodipodi:nodetypes="cccc"
         d="M 35.067709,30.49848 V 46.5 H 13.065643 V 30.49848"
         style="fill:none;fill-opacity:1;stroke:#016cd1;stroke-width:0.997934;stroke-linecap:round;stroke-linejoin:miter;stroke-miterlimit:4;stroke-dasharray:none;stroke-opacity:1"
         id="rect2869" />
      <path
         style="fill:url(#linearGradient847);fill-opacity:1;stroke:none;stroke-width:0.997934;stroke-linecap:butt;stroke-linejoin:miter;stroke-miterlimit:4;stroke-dasharray:none;stroke-opacity:1"
         d="M 35.067709,30.998528 H 13.065621 v -1.500144 l 1.500141,-1.000094 h 19.001805 l 1.500142,1.500142 z"
         id="path839" />
      <path
         sodipodi:nodetypes="cssssc"
         d="m 13.065643,30.998528 v -1.000092 c 0,-0.831079 0.669063,-1.500142 1.500142,-1.500142 h 19.001782 c 0.831079,0 1.500142,0.669063 1.500142,1.500142 v 1.000092"
         style="fill:none;fill-opacity:1;stroke:#016cd1;stroke-width:0.997934;stroke-linecap:round;stroke-linejoin:round;stroke-miterlimit:4;stroke-dasharray:none;stroke-opacity:1"
         id="rect2865" />
    </g>
    <path
       d="m 198.81538,4 c -5.06514,0 -9.14258,4.0774355 -9.14258,9.142578 V 42.140625 A 27.42857,27.42857 0 0 0 186.99507,43.25 L 168.64546,24.900391 c -3.5816,-3.581595 -9.34809,-3.581599 -12.92969,0 -3.5816,3.581597 -3.58159,9.348092 0,12.929687 l 18.34961,18.34961 a 27.42857,27.42857 0 0 0 -1.10937,2.677734 h -28.99805 c -5.06514,0 -9.14258,4.077436 -9.14258,9.142578 0,5.065143 4.07744,9.142578 9.14258,9.142578 h 28.99805 a 27.42857,27.42857 0 0 0 1.10742,2.679688 l -18.34766,18.347656 c -3.5816,3.581598 -3.58159,9.348088 0,12.929688 3.5816,3.5816 9.34809,3.5816 12.92969,0 L 186.99507,92.75 a 27.42857,27.42857 0 0 0 2.67773,1.109375 v 28.998045 c 0,5.06515 4.07744,9.14258 9.14258,9.14258 5.06514,0 9.14258,-4.07743 9.14258,-9.14258 V 93.859375 A 27.42857,27.42857 0 0 0 210.63569,92.75 l 18.34961,18.34961 c 3.5816,3.5816 9.34809,3.5816 12.92969,0 3.5816,-3.5816 3.5816,-9.34809 0,-12.929688 l -18.34961,-18.34961 a 27.42857,27.42857 0 0 0 1.10742,-2.677734 h 29 c 5.06514,0 9.14258,-4.077435 9.14258,-9.142578 0,-5.065142 -4.07744,-9.142578 -9.14258,-9.142578 h -28.99805 a 27.42857,27.42857 0 0 0 -1.10937,-2.677734 l 18.34961,-18.34961 c 3.58159,-3.581595 3.5816,-9.348085 0,-12.929687 -3.5816,-3.581595 -9.34809,-3.581595 -12.92969,0 L 210.63569,43.25 a 27.42857,27.42857 0 0 0 -2.67773,-1.109375 V 13.142578 C 207.95796,8.0774355 203.88052,4 198.81538,4 Z"
       style="fill:#212121;fill-opacity:1;stroke:none;stroke-width:5.27863;stroke-linecap:round;stroke-linejoin:round;stroke-miterlimit:4;stroke-dasharray:none;stroke-opacity:1;filter:url(#filter942)"
       id="rect910" />
    <g
       id="g4993"
       transform="matrix(23.03712,0,0,23.03712,209.05311,-60.952384)">
      <rect
         transform="rotate(90)"
         style="fill:#ff3300;fill-opacity:1;stroke:none;stroke-width:0.229136;stroke-linecap:round;stroke-linejoin:round;stroke-miterlimit:4;stroke-dasharray:none;stroke-opacity:1"
         id="rect4900-2"
         width="5.5562501"
         height="0.79374999"
         x="2.6458335"
         y="0.26458335"
         rx="0.39687499"
         ry="0.39687499" />
      <rect
         transform="rotate(45)"
         style="fill:#ff3300;fill-opacity:1;stroke:none;stroke-width:0.229136;stroke-linecap:round;stroke-linejoin:round;stroke-miterlimit:4;stroke-dasharray:none;stroke-opacity:1"
         id="rect4900-0"
         width="5.2916665"
         height="0.79374999"
         x="0.72176301"
         y="3.9061642"
         rx="0.39687499"
         ry="0.39687499" />
      <rect
         ry="0.39687499"
         rx="0.39687499"
         y="5.0270834"
         x="-3.4395831"
         height="0.79374999"
         width="5.5562501"
         id="rect4900"
         style="fill:#ff3300;fill-opacity:1;stroke:none;stroke-width:0.229136;stroke-linecap:round;stroke-linejoin:round;stroke-miterlimit:4;stroke-dasharray:none;stroke-opacity:1" />
      <rect
         ry="0.39687499"
         rx="0.39687499"
         y="2.9707212"
         x="1.6572058"
         height="0.79374999"
         width="5.2916665"
         id="rect4900-0-1"
         style="fill:#ff3300;fill-opacity:1;stroke:none;stroke-width:0.229136;stroke-linecap:round;stroke-linejoin:round;stroke-miterlimit:4;stroke-dasharray:none;stroke-opacity:1"
         transform="matrix(-0.70710678,0.70710678,0.70710678,0.70710678,0,0)" />
      <g
         transform="translate(-1.1906254)"
         id="g4898">
        <circle
           style="fill:#ffcc00;fill-opacity:1;stroke:none;stroke-width:0.264583;stroke-linecap:round;stroke-linejoin:round;stroke-miterlimit:4;stroke-dasharray:none;stroke-opacity:1"
           id="path4879"
           cx="0.52916735"
           cy="5.4239583"
           r="1.190625" />
        <circle
           r="0.39687493"
           cy="5.4239583"
           cx="0.52916735"
           id="path4879-9"
           style="fill:#ffff99;fill-opacity:1;stroke:none;stroke-width:0.264583;stroke-linecap:round;stroke-linejoin:round;stroke-miterlimit:4;stroke-dasharray:none;stroke-opacity:1" />
      </g>
    </g>
  </g>
</svg>
