<svg version="1.1" viewBox="0 0 256 256" xmlns="http://www.w3.org/2000/svg" xmlns:xlink="http://www.w3.org/1999/xlink"><defs><linearGradient id="linearGradient167363" x1="-112.16" x2="-84.663" y1="22" y2="22" gradientTransform="translate(36.231)" gradientUnits="userSpaceOnUse"><stop stop-color="#ffee8a" offset="0"/><stop stop-color="#ff8d3d" offset="1"/></linearGradient><linearGradient id="linearGradient167365" x1="-111.87" x2="-111.87" y1="26.799" y2="45.013" gradientTransform="translate(36.231)" gradientUnits="userSpaceOnUse"><stop stop-color="#fff" offset="0"/><stop stop-color="#9dbce8" offset="1"/></linearGradient><linearGradient id="linearGradient167367" x1="-108.75" x2="-90.801" y1="27.923" y2="40.393" gradientTransform="translate(36.231)" gradientUnits="userSpaceOnUse"><stop stop-color="#acd2e7" offset="0"/><stop stop-color="#fff" offset=".71571"/><stop stop-color="#fcfcfc" offset="1"/></linearGradient><linearGradient id="linearGradient167369" x1="-112.16" x2="-109.66" y1="25" y2="25" gradientTransform="translate(36.231)" gradientUnits="userSpaceOnUse"><stop stop-color="#ff8245" offset="0"/><stop stop-color="#ff8e3b" offset="1"/></linearGradient><linearGradient id="linearGradient167371" x1="-109.66" x2="-84.663" y1="23.5" y2="23.5" gradientTransform="translate(36.231)" gradientUnits="userSpaceOnUse"><stop stop-color="#ff4b11" offset="0"/><stop stop-color="#ff8f2e" offset="1"/></linearGradient><filter id="filter243911" x="-.044803" y="-.051688" width="1.0896" height="1.1034" color-interpolation-filters="sRGB"><feGaussianBlur stdDeviation="4.5176564"/></filter></defs><g transform="translate(-12.568)"><path d="m207.11 27.161-185.66 25.697a4.4987 4.4987 0 0 0-3.8652 4.8496l1.9785 22.492a4.4987 4.4987 0 0 0 2e-3 0.03125l13.457 141.33a4.4987 4.4987 0 0 0 2.1641 3.4297l18.742 11.246a4.4987 4.4987 0 0 0 3.5039 0.48242l2.0859-0.57227a4.4987 4.4987 0 0 0 0.98633 0.17578s40.633-8.7968 85.902-23.965l84.996-23.258a4.4987 4.4987 0 0 0 3.3106-4.3379v-12.117c7.3961-4.8746 14.091-9.9664 19.533-15.408 2.9277-2.9277 4.4941-6.7883 5.1055-10.785 0.3057-1.9984 0.41017-4.0626-0.53711-6.3223-0.94727-2.2597-3.8945-4.4102-6.666-4.4102-5.1262 0-7.4805-0.86023-9.4668-3.377-1.9838-2.5136-3.706-7.8034-4.4141-16.992l-3.5625-58.314a4.4987 4.4987 0 0 0-6e-3 -0.06055l-1.6542-22.184a4.4987 4.4987 0 0 0-3.7363-4.1016l-20.838-3.5137a4.4987 4.4987 0 0 0-1.3652-0.01953z" color="#000000" filter="url(#filter243911)" stroke-linecap="round" stroke-linejoin="round" stroke-width="8.9966" style="-inkscape-stroke:none"/><g transform="matrix(7.4971 0 0 7.4971 926.36 -156.8)"><path transform="translate(12.568)" d="m-109.09 24.598-24.764 3.4277 0.26368 3 1.7949 18.852 2.5 1.5 0.42773-0.11719c4e-3 0.01652 0.01 0.04067 0.0137 0.05664 0 0 5.4086-1.1706 11.422-3.1875l11.342-3.1035v-1.9277c1.0794-0.6898 2.0265-1.4132 2.7812-2.168 0.48591-0.48591 0.83171-1.8457 0.14453-1.8457-1.5525 0-2.2541-0.71812-2.4502-3.2754l-0.47555-7.7832-0.22071-2.959z" fill="#aaaaae" stroke="#aaaaae" stroke-linecap="round" stroke-linejoin="round" stroke-width="1.2"/><g transform="translate(-45.089 5.0249)"><g><path d="m-76.197 23 24.764-3.428 2.7788 0.46992-9.4844 2.3841-15.559 1.5739-1.4345 0.05277z" fill="url(#linearGradient167363)"/><path d="m-75.932 26 1.7949 18.851 2.5 1.5 23.205-6.3515v-17z" fill="url(#linearGradient167365)"/><path d="m-73.432 27c0.34082 4.9234 1.4999 16.455 2.2359 19.291 0 0 19.303-4.1437 25.546-10.387 0.48591-0.48591 0.83108-1.846 0.1439-1.846-1.5525 0-2.2968-0.79724-2.4492-3.286l-0.47616-7.7722z" fill="url(#linearGradient167367)"/><path d="m-73.432 27-2.5-1-0.26423-3 2.5 1 0.8178 1.465z" fill="url(#linearGradient167369)"/><path d="m-66.33 30.103 0.20732 3.9274-4.355 0.86194c0 1.7487 0.16751 7.6966 0.54547 9.1072 7.3969-1.8742 14.907-4.8047 22.5-8.5-3-1-2.5-6.2585-2.5-8.5z" fill="#fff"/><path d="m-63.504 29.981 0.0095 1.4101 1.3985-0.19045-0.21035-1.5404z" fill="#fc9059"/><path d="m-73.432 27 25-4-0.22121-2.9581-25.043 3.9581z" fill="url(#linearGradient167371)"/></g><g fill="#fc9059"><path d="m-63.531 33.915 0.0433 1.3715 1.3507-0.24832-0.14408-1.4578z"/><path d="m-59.442 33.058c0.0071 0.4368 0.0072 0.87359 0.06514 1.3104l1.3083-0.25607-0.12351-1.3889z"/><path d="m-59.452 29.061 0.01629 1.4294 1.294-0.19162-0.13715-1.5542z"/><path d="m-63.216 38.158c0.05614 0.43971 0.07457 0.89011 0.21836 1.305l1.3005-0.31988-0.13627-1.394z"/><path d="m-55.364 31.938c0.02388 0.45382-0.0065 0.88968 0.10111 1.3712l1.4177-0.38611-0.13627-1.394z"/><path d="m-55.506 28.347 0.02411 1.3381 1.5461-0.18748-0.18766-1.5595z"/><path d="m-51.476 27.546 0.0052 1.3447 1.508-0.18836-0.18766-1.5595z"/><path d="m-51.385 30.917c0.02223 0.44243-0.0019 0.88864 0.11665 1.3232l1.31-0.4437-0.1757-1.2812z"/><path d="m-50.907 34.077c0.20582 0.34211 0.32944 0.71993 0.67078 1.0032l1.18-0.59726-0.21381-1.065z"/><path d="m-54.853 35.789c0.06355 0.37728 0.1896 0.7392 0.33756 1.0957l1.3852-0.54692-0.38766-1.1572z"/><path d="m-58.983 37.072c0.06764 0.41133 0.12814 0.82559 0.29157 1.1976l1.3046-0.4005-0.14408-1.4578z"/></g><g fill="none" stroke="#ccc" stroke-width="1px"><path d="m-61.932 29.5c0 3.4032-0.40076 8.4411 1.3381 11.807"/><path d="m-57.932 28.5c0 1.6546-0.4566 8.5608 1.7531 11.408"/><path d="m-53.932 28c0 1.2995-0.29892 7.6082 1.8296 10.166"/></g><path d="m-67.733 34.782c0.01 0.46867 0.01572 0.939 0.0778 1.3875l1.4503-0.26547-0.20254-1.4505z" fill="#fc9059"/><path d="m-67.514 39.342c0.03707 0.45544 0.0552 0.92038 0.1278 1.358l1.4261-0.2846-0.22794-1.4327z" fill="#fc9059"/><g fill="none" stroke="#ccc" stroke-width="1px"><g><path d="m-66.109 34.076c0.0442 0.99896 0.21956 6.3107 0.74526 8.5874"/><path d="m-70.432 39.5c2.5 0 19.403-4.9695 21-6.5"/><path d="m-66.082 34.089c1.4511-0.09816 15.266-3.3687 16.137-3.6438"/></g><path d="m-66.33 30.103 0.13601 3.9212-4.7347 0.91583c0 1.7487 0.61848 7.649 0.99644 9.0595 6.8043-1.6006 16.41-3.8172 23.299-8.7492-3.6876-0.45521-2.9256-5.4653-3.2992-8.2508z" stroke-linecap="round" stroke-linejoin="round"/></g></g></g></g></svg>
