<?xml version="1.0" encoding="UTF-8" standalone="no"?>
<svg
   inkscape:export-ydpi="96"
   inkscape:export-xdpi="96"
   inkscape:export-filename="/media/klapeto/Αρχεία/WindowsXP Theme/Vectors/RASTER/camera.png"
   sodipodi:docname="camera-photo-blocked.svg"
   inkscape:version="1.1.1 (3bf5ae0d25, 2021-09-20)"
   id="svg8"
   version="1.1"
   viewBox="0 0 256 256"
   height="256"
   width="256"
   xmlns:inkscape="http://www.inkscape.org/namespaces/inkscape"
   xmlns:sodipodi="http://sodipodi.sourceforge.net/DTD/sodipodi-0.dtd"
   xmlns="http://www.w3.org/2000/svg"
   xmlns:svg="http://www.w3.org/2000/svg"
   xmlns:rdf="http://www.w3.org/1999/02/22-rdf-syntax-ns#"
   xmlns:cc="http://creativecommons.org/ns#"
   xmlns:dc="http://purl.org/dc/elements/1.1/">
  <defs
     id="defs2">
    <linearGradient
       gradientTransform="matrix(-0.014,-0.014,-0.0162,0.0162,32.75,6.3)"
       gradientUnits="userSpaceOnUse"
       id="gradient15-6"
       spreadMethod="pad"
       x1="-819.20001"
       x2="819.20001">
      <stop
         offset="0.0"
         stop-color="#dddddd"
         id="stop156-9" />
      <stop
         offset="1.0"
         stop-color="#ffffff"
         id="stop158-3" />
    </linearGradient>
    <linearGradient
       gradientTransform="matrix(0,-0.0283,-0.0112,0,10.6,30.75)"
       gradientUnits="userSpaceOnUse"
       id="gradient16-7"
       spreadMethod="pad"
       x1="-819.20001"
       x2="819.20001">
      <stop
         offset="0.0"
         stop-color="#cccccc"
         id="stop161-4" />
      <stop
         offset="1.0"
         stop-color="#ffffff"
         id="stop163-5" />
    </linearGradient>
    <linearGradient
       gradientTransform="matrix(0,-0.0016,-0.0058,0,18.35,8.8)"
       gradientUnits="userSpaceOnUse"
       id="gradient17-2"
       spreadMethod="pad"
       x1="-819.20001"
       x2="819.20001">
      <stop
         offset="0.0"
         stop-color="#dddddd"
         id="stop166-5" />
      <stop
         offset="1.0"
         stop-color="#ffffff"
         id="stop168-4" />
    </linearGradient>
    <linearGradient
       gradientTransform="matrix(0.0055,0,0,-0.0224,21.1,35.4)"
       gradientUnits="userSpaceOnUse"
       id="gradient18-7"
       spreadMethod="pad"
       x1="-819.20001"
       x2="819.20001">
      <stop
         offset="0.0"
         stop-color="#999999"
         id="stop171-4" />
      <stop
         offset="1.0"
         stop-color="#ffffff"
         id="stop173-4" />
    </linearGradient>
    <linearGradient
       gradientTransform="matrix(0,-0.0118,-0.0102,0,42.5,28.85)"
       gradientUnits="userSpaceOnUse"
       id="gradient19-3"
       spreadMethod="pad"
       x1="-819.20001"
       x2="819.20001">
      <stop
         offset="0.0"
         stop-color="#666666"
         id="stop176-0" />
      <stop
         offset="1.0"
         stop-color="#999999"
         id="stop178-7" />
    </linearGradient>
    <linearGradient
       gradientTransform="matrix(0,-0.0289,-0.0246,0,38.85,28.45)"
       gradientUnits="userSpaceOnUse"
       id="gradient20-8"
       spreadMethod="pad"
       x1="-819.20001"
       x2="819.20001">
      <stop
         offset="0.0"
         stop-color="#ffffff"
         id="stop181-6" />
      <stop
         offset="1.0"
         stop-color="#999999"
         id="stop183-8" />
    </linearGradient>
    <linearGradient
       gradientTransform="matrix(0,0.0191,0.0165,0,41.45,29)"
       gradientUnits="userSpaceOnUse"
       id="gradient21-8"
       spreadMethod="pad"
       x1="-819.20001"
       x2="819.20001">
      <stop
         offset="0.0"
         stop-color="#ffffff"
         id="stop186-4" />
      <stop
         offset="1.0"
         stop-color="#999999"
         id="stop188-3" />
    </linearGradient>
    <linearGradient
       gradientTransform="matrix(0,0.0033,0.0028,0,42.8,28.95)"
       gradientUnits="userSpaceOnUse"
       id="gradient22-1"
       spreadMethod="pad"
       x1="-819.20001"
       x2="819.20001">
      <stop
         offset="0.0"
         stop-color="#0099ff"
         id="stop191-4" />
      <stop
         offset="1.0"
         stop-color="#003399"
         id="stop193-9" />
    </linearGradient>
    <filter
       inkscape:collect="always"
       style="color-interpolation-filters:sRGB"
       id="filter13806"
       x="-0.045901395"
       y="-0.050299689"
       width="1.0918028"
       height="1.1005994">
      <feGaussianBlur
         inkscape:collect="always"
         stdDeviation="4.6283991"
         id="feGaussianBlur13808" />
    </filter>
    <filter
       height="1.0953369"
       y="-0.04766843"
       width="1.0966724"
       x="-0.048336213"
       id="filter963"
       style="color-interpolation-filters:sRGB"
       inkscape:collect="always">
      <feGaussianBlur
         id="feGaussianBlur965"
         stdDeviation="4.8065668"
         inkscape:collect="always" />
    </filter>
  </defs>
  <sodipodi:namedview
     inkscape:snap-global="false"
     inkscape:bbox-paths="false"
     fit-margin-bottom="0"
     fit-margin-right="0"
     fit-margin-left="0"
     fit-margin-top="0"
     inkscape:bbox-nodes="true"
     inkscape:snap-bbox="true"
     inkscape:window-maximized="1"
     inkscape:window-y="0"
     inkscape:window-x="3840"
     inkscape:window-height="2043"
     inkscape:window-width="3840"
     units="px"
     showgrid="false"
     inkscape:document-rotation="0"
     inkscape:current-layer="layer1"
     inkscape:document-units="px"
     inkscape:cy="91.216775"
     inkscape:cx="590.43416"
     inkscape:zoom="0.70710678"
     inkscape:pageshadow="2"
     inkscape:pageopacity="0.0"
     borderopacity="1.0"
     bordercolor="#666666"
     pagecolor="#ffffff"
     id="base"
     inkscape:pagecheckerboard="0"
     showguides="false">
    <inkscape:grid
       originy="0"
       originx="0"
       id="grid1504"
       type="xygrid" />
    <inkscape:grid
       originy="0"
       originx="0"
       spacingy="0.5"
       spacingx="0.5"
       id="grid1507"
       type="xygrid" />
  </sodipodi:namedview>
  <metadata
     id="metadata5">
    <rdf:RDF>
      <cc:Work
         rdf:about="">
        <dc:format>image/svg+xml</dc:format>
        <dc:type
           rdf:resource="http://purl.org/dc/dcmitype/StillImage" />
      </cc:Work>
    </rdf:RDF>
  </metadata>
  <g
     transform="translate(-12.567709)"
     id="layer1"
     inkscape:groupmode="layer"
     inkscape:label="Layer 1">
    <path
       id="path13665"
       style="fill:#212121;fill-opacity:1;fill-rule:evenodd;stroke:none;stroke-width:3.99669;filter:url(#filter13806)"
       d="M 192.22396,21.58 40.14974,47.757734 C 25.095541,50.422195 17.567709,60.481303 17.567709,77.933516 L 19.167318,197.2343 c 0.532892,10.5246 3.861977,17.18668 9.990235,19.98437 l 37.769531,21.78125 c 8.591705,4.955 18.419173,3.83 26.976563,1 L 246.17904,189.64054 c 7.1607,-2.36811 12.29637,-8.9426 12.38867,-20.18359 l 1,-121.699216 c 0.0631,-8.307792 -6.87381,-13.855389 -14.38867,-15.386718 z" />
    <g
       id="g2232"
       transform="matrix(3.9966899,0,0,3.9966899,12.567709,17.580457)">
      <path
         style="fill:#333333;fill-rule:evenodd;stroke:none"
         inkscape:connector-curvature="0"
         id="path14-6"
         d="m 43.7,0 13.25,2.7 c 1.880271,0.3831495 3.615787,1.7713316 3.6,3.85 L 60.3,37 c -0.02309,2.812575 -1.308343,4.457483 -3.1,5.05 l -38.1,12.6 c -2.141119,0.708087 -4.600295,0.989777 -6.75,-0.25 L 2.9,48.95 c -1.5333333,-0.7 -2.36666667,-2.366667 -2.5,-5 L 0,14.1 C 0,9.7333333 1.8833333,7.2166667 5.65,6.55"
         sodipodi:nodetypes="ccccccccccc" />
      <path
         inkscape:connector-curvature="0"
         style="fill:url(#gradient16-7);fill-rule:evenodd;stroke:none"
         id="path48-9"
         d="M 1.45,12.85 C 1.6166667,9.7166667 2.9333333,7.95 5.4,7.55 l 5.95,1.75 c -0.07089,0.946839 1.139713,1.604614 2.05,1.8 2.00542,0.430448 4.047471,0.65 6.1,0.65 -1.666667,1.333333 -2.483333,2.816667 -2.45,4.45 L 16.803726,53.672733 C 15.864069,53.846957 14.077668,53.910812 13.2,53.4 L 3.75,47.9 C 2.4446537,47.140275 1.9233232,46.192993 1.9,44.55 Z"
         sodipodi:nodetypes="cccsccccccc" />
      <path
         inkscape:connector-curvature="0"
         style="fill:url(#gradient15-6);fill-rule:evenodd;stroke:none"
         id="path46-2"
         d="M 20.543254,7.2076223 C 17.310243,7.0124448 14.677319,7.1230737 12,8.45 L 7.75,7.4 44.15,1.25 57.2,3.8 25,10 C 25.349436,8.1446499 22.165036,7.3055296 20.543254,7.2076223 Z"
         sodipodi:nodetypes="scccccs" />
      <path
         style="fill:#666666;fill-rule:evenodd;stroke:none"
         inkscape:connector-curvature="0"
         id="path10-3"
         d="m 39.7,25.5 c 0.833333,-1.066667 1.866667,-1.666667 3.1,-1.8 1.2,-0.1 2.233333,0.3 3.1,1.2 0.833333,0.9 1.25,2.066667 1.25,3.5 l -0.05,0.95 c -0.166667,1 -0.583333,1.916667 -1.25,2.75 -0.833333,1.033333 -1.85,1.633333 -3.05,1.8 -1.233333,0.1 -2.266667,-0.3 -3.1,-1.2 -0.4,-0.4 -0.7,-0.866667 -0.9,-1.4 -0.266667,-0.6 -0.4,-1.283333 -0.4,-2.05 0,-1.433333 0.433333,-2.683333 1.3,-3.75 m -4.6,-12.25 -0.25,-2.5 6.1,-1.1 v 2.5 M 56.1,7.55 V 10.5 L 46,12.4 45.854292,9.4564185 56.1,7.55 M 44.55,2.2 52,3.7 41.7,5.55 35.5,3.95 44.55,2.2 m 0.55,26.45 c 0,-0.7 -0.216667,-1.3 -0.65,-1.8 -0.466667,-0.5 -1,-0.7 -1.6,-0.6 -0.666667,0.03333 -1.216667,0.333333 -1.65,0.9 -0.466667,0.6 -0.7,1.266667 -0.7,2 0,0.633333 0.183333,1.183333 0.55,1.65 l 0.15,0.15 c 0.433333,0.466667 0.983333,0.683333 1.65,0.65 0.633333,-0.1 1.166667,-0.433333 1.6,-1 l 0.4,-0.7 0.25,-1.25"
         sodipodi:nodetypes="cccccccccscccccccccccccccccccscccccc" />
      <path
         inkscape:connector-curvature="0"
         style="fill:url(#gradient17-2);fill-rule:evenodd;stroke:none"
         id="path50-1"
         d="m 23.15,8.8 c -0.05377,1.0548204 -2.960408,1.3 -4.75,1.3 -3.2,0 -4.8,-0.4333333 -4.8,-1.3 0,-0.8333333 1.600826,-1.3226879 4.8,-1.25 1.647872,0.037441 4.802073,0.2284369 4.75,1.25 z"
         sodipodi:nodetypes="scsss" />
      <path
         inkscape:connector-curvature="0"
         style="fill:url(#gradient18-7);fill-rule:evenodd;stroke:none"
         id="path52-2"
         d="M 16.7,53.7 16.8,53.6 17.05,17 c 3.161466,0.310912 8.497106,1.860167 8.6,4.85 l -0.45,22.7 c -0.09072,4.576461 -2.2,7.583333 -8.5,9.15"
         sodipodi:nodetypes="cccccc" />
      <path
         style="fill:#999999;fill-rule:evenodd;stroke:none"
         inkscape:connector-curvature="0"
         id="path12-5"
         d="M 1.45,12.85 12.8,16.4 12.35,46.9 1.861132,41.791497 1.8530052,40.434705 11.1,44.8 11.35,17.25 1.4694351,14.024895 1.45,12.9 v -0.05 m 3.35,4.6 1.3,0.4 V 39.5 L 4.8,38.85 M 21.85,24 c 0.0043,0.461325 -0.299295,0.990397 -0.95,1.05 -0.650705,0.0596 -0.92913,-0.417609 -0.95,-1.05 -0.02087,-0.632391 0.493027,-1.078674 0.95,-1.1 0.456973,-0.02133 0.945664,0.638675 0.95,1.1 z m 0,5.65 c 0,0.7 -0.316667,1.05 -0.95,1.05 -0.633333,0 -0.95,-0.383334 -0.95,-1.05 0,-0.666666 0.422597,-0.999933 0.908086,-1.024116 C 21.343575,28.601701 21.85,28.95 21.85,29.65 Z M 22,34.8 c -0.0029,0.752788 -0.501308,0.972136 -1,1.05 -0.626617,0.09784 -0.95,-0.383333 -0.95,-1.05 0,-0.733333 0.35425,-1.054968 0.988418,-1.047648 C 21.557828,33.758347 22.001699,34.36539 22,34.8 Z m 0,5.25 c -0.01,0.45943 -0.366667,1.1 -1,1.1 -0.633333,0 -0.95,-0.4 -0.95,-1.1 0,-0.7 0.316667,-1 0.95,-1 0.633333,0 1.009959,0.54057 1,1 z m -0.05,5.25 c -0.01666,0.333334 -0.333333,1 -0.95,1 -0.616667,0 -0.95,-0.3 -0.95,-1 0,-0.7 0.333333,-1.1 0.95,-1.1 0.616667,0 0.966665,0.766667 0.95,1.1 z"
         sodipodi:nodetypes="cccccccccccccczzzzzzzzzzssssszzzzzzzzzz" />
      <path
         inkscape:connector-curvature="0"
         style="fill:url(#gradient19-3);fill-rule:evenodd;stroke:none"
         id="path54-7"
         d="m 36.3,31.9 q 0.45,1.6 1.65,2.8 1.9,2.05 4.7,1.75 2.75,-0.3 4.7,-2.65 1.7,-2.2 1.9,-4.95 V 28.2 q 0,-3.2 -1.9,-5.3 -1.95,-2.05 -4.7,-1.8 -2.8,0.2 -4.7,2.75 -2,2.4 -2,5.6 0,1.3 0.35,2.45 m -1.8,0.45 q -0.35,-1.3 -0.3,-2.7 -0.05,-4.05 2.4,-7.1 2.45,-3.1 5.95,-3.4 3.45,-0.3 5.85,2.3 2.45,2.6 2.4,6.6 v 0.45 q -0.15,3.7 -2.4,6.55 -2.45,3 -5.85,3.4 -3.5,0.35 -5.95,-2.2 -1.55,-1.7 -2.1,-3.9" />
      <path
         inkscape:connector-curvature="0"
         style="fill:url(#gradient20-8);fill-rule:evenodd;stroke:none"
         id="path56-0"
         d="m 56.35,4.8 c 1.678273,-0.3481066 2.7,0.3118246 2.7,2.15 V 36.6 c -0.133333,2.333333 -0.966667,3.783333 -2.5,4.35 l -34.4,11.2 c 2.8,-1 4.266667,-3.116667 4.4,-6.35 L 26.9,21.45 c 0.04649,-3.936219 -5.76408,-5.141712 -8.2,-5.45 0.01165,-1.505705 1.334841,-3.649917 2.90759,-3.976898 z M 30.066623,33.623776 c 0.533334,2.8 1.195523,4.372767 3.095523,6.4061 2.7,2.766667 4.704521,3.553709 8.437854,3.153709 3.7,-0.433333 6.140412,-1.666625 8.740412,-4.899958 2.6,-3.333333 4.076755,-6.344488 4.076755,-10.661155 0,-4.316666 -1.25254,-7.134433 -3.819207,-9.901099 -2.633333,-2.8 -5.275489,-3.490046 -8.942155,-3.190046 -3.766667,0.333333 -6.114577,1.573667 -8.781244,4.873667 -2.7,3.3 -3.074772,6.44626 -3.594118,10.826592 -0.519346,1.246998 0.552847,2.29219 0.78618,3.39219 z M 35.1,13.25 l 5.85,-1.1 v -2.5 l -6.1,1.1 0.25,2.5 M 56.95,5.65 45.8,7.8 46,13.25 56.95,11.15"
         sodipodi:nodetypes="ccccccccccccccccccccccccccccc" />
      <path
         inkscape:connector-curvature="0"
         style="fill:url(#gradient21-8);fill-rule:evenodd;stroke:none"
         id="path58-9"
         d="m 27.95,30.3 q 0,-6.55 4.05,-11.5 4,-4.95 9.65,-5.45 5.5,-0.45 9.45,3.75 3.85,4.15 3.85,10.45 v 0.2 q 0,6.35 -3.9,11.35 -3.9,4.85 -9.45,5.5 Q 36,45.2 31.95,41.05 29.1,38 28.3,33.8 27.95,32.15 27.95,30.3 m 4.4,-0.65 q 0,1.65 0.35,3.1 0.65,2.8 2.65,4.85 2.95,3.15 7.15,2.7 4.15,-0.5 7.05,-4.1 2.8,-3.6 2.95,-8.1 v -0.35 q 0,-4.8 -2.9,-7.95 -2.9,-3.15 -7.05,-2.8 -4.25,0.35 -7.25,4.05 -2.95,3.7 -2.95,8.6" />
      <path
         inkscape:connector-curvature="0"
         style="fill:url(#gradient22-1);fill-rule:evenodd;stroke:none"
         id="path60-3"
         d="m 45.1,28.65 -0.25,1.25 -0.4,0.7 q -0.65,0.85 -1.6,1 -1,0.05 -1.65,-0.65 L 41.05,30.8 q -0.55,-0.7 -0.55,-1.65 0,-1.1 0.7,-2 0.65,-0.85 1.65,-0.9 0.9,-0.15 1.6,0.6 0.65,0.75 0.65,1.8" />
    </g>
    <g
       inkscape:label="Layer 1"
       id="layer1-5"
       transform="matrix(0.56588498,0,0,0.56588498,5.948687,110.1234)">
      <path
         d="M 133.81221,4 A 116.24404,116.24404 0 0 0 17.567709,120.2445 116.24404,116.24404 0 0 0 39.479668,188.17002 116.24404,116.24404 0 0 0 139.97989,246 116.24404,116.24404 0 0 0 256.22439,129.7555 116.24404,116.24404 0 0 0 234.31243,61.829975 116.24404,116.24404 0 0 0 133.81221,4 Z"
         style="fill:#212121;fill-opacity:1;fill-rule:evenodd;stroke:none;stroke-width:63.1773;stroke-linecap:round;stroke-linejoin:round;stroke-miterlimit:4;stroke-dasharray:none;filter:url(#filter963)"
         id="circle942" />
      <g
         transform="matrix(5.4066999,0,0,5.4066999,495.5627,-5.4066999)"
         id="g940">
        <circle
           style="opacity:1;fill:#ffffff;fill-opacity:1;fill-rule:evenodd;stroke:none;stroke-width:11.685;stroke-linecap:round;stroke-linejoin:round;stroke-miterlimit:4;stroke-dasharray:none"
           id="path919"
           cx="-67.310364"
           cy="22.756973"
           r="18.249216" />
        <path
           d="m -66.691769,2.7592809 a 21.5,21.5 0 0 0 -21.5,21.5000001 21.5,21.5 0 0 0 21.5,21.5 21.5,21.5 0 0 0 21.5,-21.5 21.5,21.5 0 0 0 -21.5,-21.5000001 z m 0,5.5 a 16,16 0 0 1 16,16.0000001 16,16 0 0 1 -2.099609,7.921875 L -74.8988,10.524906 a 16,16 0 0 1 8.207031,-2.2656251 z M -79.40466,14.54639 -56.978878,36.972172 a 16,16 0 0 1 -9.712891,3.287109 16,16 0 0 1 -16,-16 16,16 0 0 1 3.287109,-9.712891 z"
           style="opacity:1;fill:#a21907;fill-opacity:1;fill-rule:evenodd;stroke:none;stroke-width:11.685;stroke-linecap:round;stroke-linejoin:round;stroke-miterlimit:4;stroke-dasharray:none"
           id="path917" />
        <path
           id="path889"
           style="opacity:1;fill:#f52e14;fill-opacity:1;fill-rule:evenodd;stroke:none;stroke-width:11.685;stroke-linecap:round;stroke-linejoin:round;stroke-miterlimit:4;stroke-dasharray:none"
           d="m -67.832682,1 a 21.5,21.5 0 0 0 -21.5,21.5 21.5,21.5 0 0 0 21.5,21.5 21.5,21.5 0 0 0 21.5,-21.5 21.5,21.5 0 0 0 -21.5,-21.5 z m 0,5.5 a 16,16 0 0 1 16,16 16,16 0 0 1 -2.099609,7.921875 L -76.039713,8.765625 A 16,16 0 0 1 -67.832682,6.5 Z m -12.712891,6.287109 22.425782,22.425782 A 16,16 0 0 1 -67.832682,38.5 a 16,16 0 0 1 -16,-16 16,16 0 0 1 3.287109,-9.712891 z" />
      </g>
    </g>
  </g>
</svg>
