<?xml version="1.0" encoding="UTF-8" standalone="no"?>
<svg
   sodipodi:docname="color-picker.svg"
   inkscape:version="1.1.1 (3bf5ae0d25, 2021-09-20)"
   id="svg8"
   version="1.1"
   viewBox="0 0 256 256"
   height="256"
   width="256"
   inkscape:export-filename="/media/klapeto/Αρχεία/WindowsXP Theme/Vectors/RASTER/color-picker.png"
   inkscape:export-xdpi="96"
   inkscape:export-ydpi="96"
   xmlns:inkscape="http://www.inkscape.org/namespaces/inkscape"
   xmlns:sodipodi="http://sodipodi.sourceforge.net/DTD/sodipodi-0.dtd"
   xmlns:xlink="http://www.w3.org/1999/xlink"
   xmlns="http://www.w3.org/2000/svg"
   xmlns:svg="http://www.w3.org/2000/svg"
   xmlns:rdf="http://www.w3.org/1999/02/22-rdf-syntax-ns#"
   xmlns:cc="http://creativecommons.org/ns#"
   xmlns:dc="http://purl.org/dc/elements/1.1/">
  <defs
     id="defs2">
    <linearGradient
       inkscape:collect="always"
       id="linearGradient8849">
      <stop
         style="stop-color:#ffe0dd;stop-opacity:1"
         offset="0"
         id="stop8845" />
      <stop
         style="stop-color:#ff2925;stop-opacity:0.95686269"
         offset="1"
         id="stop8847" />
    </linearGradient>
    <linearGradient
       inkscape:collect="always"
       id="linearGradient6225">
      <stop
         style="stop-color:#d3d3d3;stop-opacity:1;"
         offset="0"
         id="stop6221" />
      <stop
         style="stop-color:#494949;stop-opacity:1"
         offset="1"
         id="stop6223" />
    </linearGradient>
    <linearGradient
       inkscape:collect="always"
       id="linearGradient5451">
      <stop
         style="stop-color:#dee4ff;stop-opacity:1"
         offset="0"
         id="stop5447" />
      <stop
         style="stop-color:#c0cfff;stop-opacity:1"
         offset="1"
         id="stop5449" />
    </linearGradient>
    <linearGradient
       inkscape:collect="always"
       xlink:href="#linearGradient5451"
       id="linearGradient5453"
       x1="120.87302"
       y1="172.98"
       x2="142.97995"
       y2="107.44395"
       gradientUnits="userSpaceOnUse"
       gradientTransform="rotate(45,128.92532,123.4315)" />
    <radialGradient
       inkscape:collect="always"
       xlink:href="#linearGradient6225"
       id="radialGradient6227"
       cx="120.87949"
       cy="29.069555"
       fx="120.87949"
       fy="29.069555"
       r="19.999969"
       gradientTransform="matrix(0.70710678,0.70710678,-0.95630118,0.95630118,134.59567,-63.306651)"
       gradientUnits="userSpaceOnUse" />
    <linearGradient
       inkscape:collect="always"
       xlink:href="#linearGradient6225"
       id="linearGradient6767"
       x1="96.359406"
       y1="66.054787"
       x2="157.35884"
       y2="66.054787"
       gradientUnits="userSpaceOnUse"
       gradientTransform="rotate(45,128.48763,124.48818)" />
    <linearGradient
       inkscape:collect="always"
       xlink:href="#linearGradient8849"
       id="linearGradient8851"
       x1="55.418365"
       y1="180.7269"
       x2="114.69144"
       y2="180.7269"
       gradientUnits="userSpaceOnUse" />
    <filter
       inkscape:collect="always"
       style="color-interpolation-filters:sRGB"
       id="filter10602"
       x="-0.048009991"
       y="-0.047990011"
       width="1.09602"
       height="1.09598">
      <feGaussianBlur
         inkscape:collect="always"
         stdDeviation="4.408351"
         id="feGaussianBlur10604" />
    </filter>
  </defs>
  <sodipodi:namedview
     inkscape:snap-global="false"
     inkscape:bbox-paths="true"
     fit-margin-bottom="0"
     fit-margin-right="0"
     fit-margin-left="0"
     fit-margin-top="0"
     inkscape:bbox-nodes="true"
     inkscape:snap-bbox="true"
     inkscape:window-maximized="1"
     inkscape:window-y="0"
     inkscape:window-x="3840"
     inkscape:window-height="2043"
     inkscape:window-width="3840"
     units="px"
     showgrid="false"
     inkscape:document-rotation="0"
     inkscape:current-layer="layer1"
     inkscape:document-units="px"
     inkscape:cy="12.020815"
     inkscape:cx="-40.835417"
     inkscape:zoom="2.8284271"
     inkscape:pageshadow="2"
     inkscape:pageopacity="0.0"
     borderopacity="1.0"
     bordercolor="#666666"
     pagecolor="#ffffff"
     id="base"
     showguides="true"
     inkscape:guide-bbox="true"
     inkscape:object-paths="false"
     inkscape:snap-midpoints="false"
     inkscape:snap-smooth-nodes="true"
     inkscape:snap-bbox-edge-midpoints="true"
     inkscape:pagecheckerboard="0">
    <inkscape:grid
       originy="0"
       originx="0"
       id="grid1504"
       type="xygrid" />
    <inkscape:grid
       spacingy="0.5"
       spacingx="0.5"
       id="grid1765"
       type="xygrid" />
  </sodipodi:namedview>
  <metadata
     id="metadata5">
    <rdf:RDF>
      <cc:Work
         rdf:about="">
        <dc:format>image/svg+xml</dc:format>
        <dc:type
           rdf:resource="http://purl.org/dc/dcmitype/StillImage" />
      </cc:Work>
    </rdf:RDF>
  </metadata>
  <g
     transform="translate(-12.567709)"
     id="layer1"
     inkscape:groupmode="layer"
     inkscape:label="Layer 1">
    <path
       id="path10426"
       style="fill:#212121;fill-opacity:1;fill-rule:evenodd;stroke:none;stroke-width:5.33;stroke-linecap:round;stroke-linejoin:round;stroke-miterlimit:4;stroke-dasharray:none;stroke-opacity:1;stop-color:#000000;filter:url(#filter10602)"
       d="m 231.81983,21.775621 c -4.0301,-0.09691 -8.2905,0.726898 -12.54101,2.669921 -10.64561,4.866392 -21.08287,16.472722 -28.62891,37.351563 -2.49882,-1.226745 -5.85815,-3.175668 -9.36328,-5.1875 -5.29809,-3.040935 -11.13036,-6.21971 -16.95117,-6.787109 -1.87484,-0.182755 -3.48245,-0.207846 -4.9082,-0.04687 -1.42575,0.160966 -2.66945,0.509182 -3.8125,1.074218 -2.28608,1.130074 -3.81649,2.759161 -6.13086,4.78711 a 2.6652665,2.6652665 0 0 0 -0.12696,3.888672 L 170.49952,80.668199 54.110853,197.05687 a 2.6652665,2.6652665 0 0 0 -0.72461,1.33984 c -1.888662,9.06625 -7.025836,18.11332 -11.335937,25.29493 -2.15505,3.5908 -4.091268,6.69106 -5.34375,9.32226 -0.62624,1.3156 -1.107482,2.49758 -1.285156,3.81055 -0.167691,1.2392 0.195466,2.93738 1.36914,4.02539 1.077687,1.09274 2.698792,1.49765 3.94336,1.35351 1.328443,-0.15382 2.513494,-0.63094 3.808593,-1.25195 2.590197,-1.24201 5.585789,-3.1777 9.0625,-5.375 6.953421,-4.39459 15.727902,-9.79738 24.84961,-12.31836 a 2.6652665,2.6652665 0 0 0 1.175781,-0.68359 L 196.0171,106.18773 l 21.11523,21.11328 a 2.6652665,2.6652665 0 0 0 3.70508,0.0625 c 2.36562,-2.21207 4.02602,-4.51244 4.7832,-7.25976 0.75718,-2.74733 0.63626,-5.68653 0.14258,-9.39063 -0.77922,-5.8464 -4.0955,-11.64738 -7.3125,-17.003906 -1.98775,-3.309752 -3.94919,-6.498496 -5.33789,-9.111328 21.68921,-6.470587 33.98506,-16.131515 39.41016,-26.341797 5.76985,-10.859133 3.34642,-22.195894 -3.58008,-29.210937 -4.32907,-4.384402 -10.4062,-7.108008 -17.12305,-7.269531 z" />
    <g
       id="g9871"
       transform="matrix(1.312956,0,0,1.312956,-31.997803,-31.649228)"
       style="stroke-width:4.05954198;stroke-miterlimit:4;stroke-dasharray:none">
      <path
         id="rect1698"
         style="fill:url(#linearGradient5453);fill-opacity:1;fill-rule:evenodd;stroke:none;stroke-width:4.05954198;stroke-linecap:round;stroke-linejoin:round;stroke-miterlimit:4;stroke-dasharray:none;stroke-opacity:1;stop-color:#000000"
         d="m 153.35021,82.441309 16.5653,16.565306 -90.138573,90.138575 c -14.672112,4.05495 -27.309256,16.95789 -29.823848,13.93257 -2.941013,-2.31278 10.19578,-15.79553 13.258542,-30.49788 z"
         sodipodi:nodetypes="cccccc" />
      <path
         id="rect1996"
         style="fill:url(#radialGradient6227);fill-opacity:1;fill-rule:evenodd;stroke:#2c2c2c;stroke-width:4.05954198;stroke-linecap:round;stroke-linejoin:round;stroke-miterlimit:4;stroke-dasharray:none;stroke-opacity:1;stop-color:#000000"
         d="M 179.12627,84.441036 166.6106,71.925366 c 22.7787,-70.2778304 85.35177,-6.744914 12.51567,12.51567 z"
         sodipodi:nodetypes="ccc" />
      <path
         style="fill:url(#linearGradient8851);fill-opacity:1;stroke:none;stroke-width:4.05954198;stroke-linecap:butt;stroke-linejoin:miter;stroke-miterlimit:4;stroke-dasharray:none;stroke-opacity:1"
         d="m 92.064322,143.87368 h 32.939208 l -42.449737,43.2151 -10.811768,6.03342 -21.091799,10.59999 0.7144,-5.79553 12.182962,-26.32402 z"
         id="path8744"
         sodipodi:nodetypes="cccccccc" />
      <path
         id="path9359"
         style="fill:none;fill-opacity:1;fill-rule:evenodd;stroke:#0001e0;stroke-width:4.05954198;stroke-linecap:round;stroke-linejoin:round;stroke-miterlimit:4;stroke-dasharray:none;stroke-opacity:1;stop-color:#000000"
         d="m 153.35021,82.441309 16.5653,16.565306 -90.138573,90.138575 c -14.672112,4.05495 -27.309256,16.95789 -29.823848,13.93257 -2.941013,-2.31278 10.19578,-15.79553 13.258542,-30.49788 z"
         sodipodi:nodetypes="cccccc" />
      <path
         id="rect1873"
         style="fill:url(#linearGradient6767);fill-opacity:1;fill-rule:evenodd;stroke:#2c2c2c;stroke-width:4.05954198;stroke-linecap:round;stroke-linejoin:round;stroke-miterlimit:4;stroke-dasharray:none;stroke-opacity:1;stop-color:#000000"
         d="m 167.69039,71.047422 11.867,11.866998 c 1.48694,5.527594 9.92141,15.059596 10.94444,22.73525 0.72379,5.43058 0.17282,7.84523 -3.12717,10.93102 L 135.75405,64.96008 c 3.62081,-3.172717 4.40315,-4.458129 9.77691,-3.934307 7.57642,0.738532 17.29442,9.01351 22.15943,10.021649 z"
         sodipodi:nodetypes="ccsccsc" />
    </g>
  </g>
</svg>
