<?xml version="1.0" encoding="UTF-8" standalone="no"?>
<svg
   xmlns:dc="http://purl.org/dc/elements/1.1/"
   xmlns:cc="http://creativecommons.org/ns#"
   xmlns:rdf="http://www.w3.org/1999/02/22-rdf-syntax-ns#"
   xmlns:svg="http://www.w3.org/2000/svg"
   xmlns="http://www.w3.org/2000/svg"
   xmlns:xlink="http://www.w3.org/1999/xlink"
   xmlns:sodipodi="http://sodipodi.sourceforge.net/DTD/sodipodi-0.dtd"
   xmlns:inkscape="http://www.inkscape.org/namespaces/inkscape"
   inkscape:export-ydpi="96"
   inkscape:export-xdpi="96"
   inkscape:export-filename="/media/klapeto/Αρχεία/WindowsXP Theme/Vectors/RASTER/editcut.png"
   width="256"
   height="256"
   viewBox="0 0 256 256"
   version="1.1"
   id="svg8"
   inkscape:version="1.0 (1.0+r73+1)"
   sodipodi:docname="editcut.svg">
  <defs
     id="defs2">
    <linearGradient
       id="linearGradient1666"
       inkscape:collect="always">
      <stop
         id="stop1662"
         offset="0"
         style="stop-color:#0149ae;stop-opacity:1" />
      <stop
         style="stop-color:#0161c6;stop-opacity:1"
         offset="0.61538458"
         id="stop1671" />
      <stop
         id="stop1664"
         offset="1"
         style="stop-color:#0164c9;stop-opacity:1" />
    </linearGradient>
    <linearGradient
       id="linearGradient1561"
       inkscape:collect="always">
      <stop
         id="stop1557"
         offset="0"
         style="stop-color:#dfe2e7;stop-opacity:1" />
      <stop
         style="stop-color:#bcc2cc;stop-opacity:1"
         offset="0.50000036"
         id="stop1565" />
      <stop
         id="stop1559"
         offset="1"
         style="stop-color:#758196;stop-opacity:1" />
    </linearGradient>
    <linearGradient
       id="linearGradient1462"
       inkscape:collect="always">
      <stop
         id="stop1458"
         offset="0"
         style="stop-color:#a4acbb;stop-opacity:1" />
      <stop
         style="stop-color:#bcc0c9;stop-opacity:1"
         offset="0.54499602"
         id="stop1467" />
      <stop
         id="stop1460"
         offset="1"
         style="stop-color:#eff0f1;stop-opacity:1" />
    </linearGradient>
    <linearGradient
       id="linearGradient1470"
       inkscape:collect="always">
      <stop
         id="stop1466"
         offset="0"
         style="stop-color:#034501;stop-opacity:1" />
      <stop
         id="stop1468"
         offset="1"
         style="stop-color:#0eba0e;stop-opacity:1" />
    </linearGradient>
    <linearGradient
       gradientTransform="translate(-0.89346316,4.9148746)"
       gradientUnits="userSpaceOnUse"
       y2="3.7041667"
       x2="-4.3656249"
       y1="7.9375"
       x1="-0.52916634"
       id="linearGradient1472"
       xlink:href="#linearGradient1470"
       inkscape:collect="always" />
    <linearGradient
       gradientTransform="matrix(2.1768587,0,0,2.1768587,32.132241,-6.2464462)"
       gradientUnits="userSpaceOnUse"
       y2="3.8350656"
       x2="-7.2509851"
       y1="6.0740576"
       x1="-6.1363449"
       id="linearGradient1464"
       xlink:href="#linearGradient1462"
       inkscape:collect="always" />
    <radialGradient
       gradientTransform="matrix(1.0926817,1.6390204,-1.8112552,1.207505,34.841693,8.7006272)"
       gradientUnits="userSpaceOnUse"
       r="0.52710772"
       fy="5.6885419"
       fx="-5.4239583"
       cy="5.6885419"
       cx="-5.4239583"
       id="radialGradient1563"
       xlink:href="#linearGradient1561"
       inkscape:collect="always" />
    <linearGradient
       inkscape:collect="always"
       xlink:href="#linearGradient1462"
       id="linearGradient1464-7"
       x1="-6.1363449"
       y1="6.0740576"
       x2="-7.2509851"
       y2="3.8350656"
       gradientUnits="userSpaceOnUse"
       gradientTransform="matrix(-2.1768587,0,0,2.1768587,5.8796892,-6.2464463)" />
    <linearGradient
       gradientTransform="matrix(1.9292745,1.0082727,-1.0082727,1.9292745,21.558754,-6.0476649)"
       gradientUnits="userSpaceOnUse"
       y2="6.6588454"
       x2="1.5395368"
       y1="8.7345085"
       x1="1.2808964"
       id="linearGradient1668"
       xlink:href="#linearGradient1666"
       inkscape:collect="always" />
    <linearGradient
       y2="6.6588454"
       x2="1.5395368"
       y1="8.7345085"
       x1="1.2808964"
       gradientTransform="matrix(-1.9292745,1.0082727,1.0082727,1.9292745,16.276665,-6.0476649)"
       gradientUnits="userSpaceOnUse"
       id="linearGradient1789"
       xlink:href="#linearGradient1666"
       inkscape:collect="always" />
    <filter
       height="1.083206"
       y="-0.041603014"
       width="1.1134433"
       x="-0.056721668"
       id="filter964"
       style="color-interpolation-filters:sRGB"
       inkscape:collect="always">
      <feGaussianBlur
         id="feGaussianBlur966"
         stdDeviation="4.194966"
         inkscape:collect="always" />
    </filter>
  </defs>
  <sodipodi:namedview
     inkscape:snap-object-midpoints="true"
     inkscape:snap-intersection-paths="true"
     inkscape:snap-bbox-midpoints="false"
     inkscape:snap-bbox-edge-midpoints="false"
     showguides="true"
     id="base"
     pagecolor="#ffffff"
     bordercolor="#666666"
     borderopacity="1.0"
     inkscape:pageopacity="0.0"
     inkscape:pageshadow="2"
     inkscape:zoom="1.4142136"
     inkscape:cx="-320.20615"
     inkscape:cy="159.24972"
     inkscape:document-units="px"
     inkscape:current-layer="layer1"
     inkscape:document-rotation="0"
     showgrid="false"
     units="px"
     inkscape:window-width="3840"
     inkscape:window-height="2045"
     inkscape:window-x="3840"
     inkscape:window-y="0"
     inkscape:window-maximized="1"
     inkscape:snap-bbox="true"
     inkscape:bbox-nodes="false"
     fit-margin-top="0"
     fit-margin-left="0"
     fit-margin-right="0"
     fit-margin-bottom="0"
     inkscape:bbox-paths="false"
     inkscape:snap-global="true">
    <inkscape:grid
       type="xygrid"
       id="grid1504"
       originx="0"
       originy="0" />
    <inkscape:grid
       type="xygrid"
       id="grid1507"
       spacingx="0.13229167"
       spacingy="0.13229167"
       originx="0"
       originy="0" />
  </sodipodi:namedview>
  <metadata
     id="metadata5">
    <rdf:RDF>
      <cc:Work
         rdf:about="">
        <dc:format>image/svg+xml</dc:format>
        <dc:type
           rdf:resource="http://purl.org/dc/dcmitype/StillImage" />
        <dc:title></dc:title>
      </cc:Work>
    </rdf:RDF>
  </metadata>
  <g
     inkscape:label="Layer 1"
     inkscape:groupmode="layer"
     id="layer1"
     transform="translate(-12.567709)">
    <path
       d="m 75.826255,4.0001554 a 2.471999,2.471999 0 0 0 -2.436589,3.0269272 c 0,0 16.802334,73.0455944 50.715024,129.7990474 -9.9e-4,0.0903 -0.008,0.17952 -0.008,0.27008 0,0.57182 0.0299,1.13636 0.0791,1.69578 l -10.03959,16.73201 -3.50538,-0.12925 a 2.471999,2.471999 0 0 0 -0.0887,-0.002 c -17.645896,-0.0174 -37.406988,5.39922 -47.994827,25.65846 -5.795345,11.08907 -7.821384,24.05536 -6.38375,35.48008 1.437636,11.4247 6.378649,21.53298 15.173222,26.12918 17.09661,8.93499 41.243335,-0.53768 52.833285,-22.71449 4.36258,-8.34763 7.15339,-20.81194 7.57214,-30.22105 l 12.72313,-23.33762 12.72505,23.33956 c 0.41948,9.40886 3.21179,21.87205 7.57407,30.21911 11.58995,22.17681 35.73475,31.64948 52.83137,22.71449 8.79456,-4.5962 13.73751,-14.70448 15.17514,-26.12918 1.43764,-11.42472 -0.59033,-24.39101 -6.38568,-35.48008 -10.58784,-20.25924 -30.34893,-25.67582 -47.99483,-25.65846 a 2.471999,2.471999 0 0 0 -0.0868,0.002 l -3.5073,0.12925 -9.14638,-15.24267 c 0.82456,-0.89046 1.60332,-1.85226 2.30926,-2.91117 a 2.471999,2.471999 0 0 0 0.0637,-0.10031 C 202.11209,80.454769 218.99663,7.0270826 218.99663,7.0270826 a 2.471999,2.471999 0 0 0 -2.43466,-3.0269272 2.471999,2.471999 0 0 0 -1.85011,0.862356 c 0,0 -16.94107,19.7626986 -35.08458,43.9280646 C 167.4566,65.00073 154.76324,83.035556 146.19218,98.743557 137.62136,83.035826 124.92768,65.000616 112.75708,48.790576 94.613573,24.62521 77.674436,4.8625113 77.674436,4.8625114 A 2.471999,2.471999 0 0 0 75.826255,4.0001554 Z M 103.88658,175.63407 c 0.90939,0.0346 1.68758,0.22213 2.31698,0.54211 3.49548,1.77706 5.597,7.15037 5.6873,13.98869 0.0903,6.83831 -1.81538,14.7244 -4.95613,20.20845 -7.847578,13.70293 -20.060676,14.68357 -24.572318,12.32571 -1.723813,-0.90091 -4.298657,-5.12646 -4.990861,-11.01771 -0.692203,-5.89124 0.214961,-13.22867 3.77353,-20.08498 1.945142,-3.74773 6.853829,-8.7882 12.049833,-12.10385 2.598003,-1.65783 5.269711,-2.90652 7.583716,-3.48608 1.157,-0.28978 2.19858,-0.40692 3.10795,-0.37234 z m 81.15985,0 c 0.90938,-0.0346 1.95095,0.0826 3.10796,0.37234 2.314,0.57956 4.98572,1.82825 7.58371,3.48608 5.19599,3.31564 10.10475,8.35614 12.04983,12.10385 3.55858,6.8563 4.46767,14.19374 3.77546,20.08498 -0.6922,5.89125 -3.26897,10.1168 -4.99278,11.01771 -4.51166,2.35787 -16.72281,1.37722 -24.5704,-12.32571 -3.14066,-5.48406 -5.04838,-13.37013 -4.95806,-20.20845 0.0903,-6.83832 2.19375,-12.21163 5.68923,-13.98869 0.6294,-0.31998 1.40567,-0.50753 2.31505,-0.54211 z"
       style="color:#000000;font-style:normal;font-variant:normal;font-weight:normal;font-stretch:normal;font-size:medium;line-height:normal;font-family:sans-serif;font-variant-ligatures:normal;font-variant-position:normal;font-variant-caps:normal;font-variant-numeric:normal;font-variant-alternates:normal;font-variant-east-asian:normal;font-feature-settings:normal;font-variation-settings:normal;text-indent:0;text-align:start;text-decoration:none;text-decoration-line:none;text-decoration-style:solid;text-decoration-color:#000000;letter-spacing:normal;word-spacing:normal;text-transform:none;writing-mode:lr-tb;direction:ltr;text-orientation:mixed;dominant-baseline:auto;baseline-shift:baseline;text-anchor:start;white-space:normal;shape-padding:0;shape-margin:0;inline-size:0;clip-rule:nonzero;display:inline;overflow:visible;visibility:visible;isolation:auto;mix-blend-mode:normal;color-interpolation:sRGB;color-interpolation-filters:linearRGB;solid-color:#000000;solid-opacity:1;vector-effect:none;fill:#212121;fill-opacity:1;fill-rule:nonzero;stroke:none;stroke-width:4.94371;stroke-linecap:butt;stroke-linejoin:round;stroke-miterlimit:7.57143;stroke-dasharray:none;stroke-dashoffset:0;stroke-opacity:1;filter:url(#filter964);color-rendering:auto;image-rendering:auto;shape-rendering:auto;text-rendering:auto;enable-background:accumulate;stop-color:#000000"
       id="path911" />
    <g
       style="stroke-width:0.252792;stroke-miterlimit:7.57143;stroke-dasharray:none"
       transform="matrix(19.555631,0,0,19.555631,-230.48029,-3.1590111)"
       id="g867">
      <path
         sodipodi:nodetypes="cccc"
         id="path1433-8"
         d="m 22.605718,0.28790101 c 0,0 -3.455763,4.03172369 -3.944035,5.82407749 -0.76317,1.26853 0.776253,1.6634098 1.352213,0.799469 1.727881,-2.8798027 2.591822,-6.62354649 2.591822,-6.62354649 z"
         style="fill:url(#linearGradient1464-7);fill-opacity:1;stroke:#4c5c78;stroke-width:0.252792;stroke-linecap:butt;stroke-linejoin:round;stroke-miterlimit:7.57143;stroke-dasharray:none;stroke-opacity:1" />
      <path
         style="fill:url(#linearGradient1464);fill-opacity:1;stroke:#4c5c78;stroke-width:0.252792;stroke-linecap:butt;stroke-linejoin:round;stroke-miterlimit:7.57143;stroke-dasharray:none;stroke-opacity:1"
         d="m 15.406211,0.28790101 c 0,0 3.455764,4.03172369 3.944035,5.82407729 0.763171,1.2685304 -0.776253,1.66341 -1.352213,0.7994692 C 16.270152,4.0316448 15.406211,0.28790101 15.406211,0.28790101 Z"
         id="path1433"
         sodipodi:nodetypes="cccc" />
      <path
         style="fill:#0165ca;fill-opacity:1;stroke:#01399e;stroke-width:0.252792;stroke-linecap:butt;stroke-linejoin:miter;stroke-miterlimit:7.57143;stroke-dasharray:none;stroke-opacity:1"
         d="m 17.422073,8.0633684 0.863941,-1.4399013 0.863941,1.1519212 -1.025996,1.8819036 z"
         id="path1673"
         sodipodi:nodetypes="ccccc" />
      <path
         id="path1641"
         style="fill:url(#linearGradient1668);fill-opacity:1;stroke:#01399e;stroke-width:0.252792;stroke-linecap:round;stroke-linejoin:round;stroke-miterlimit:7.57143;stroke-dasharray:none;stroke-opacity:1"
         d="m 17.182807,8.0296201 c -0.877539,-8.64e-4 -1.82593,0.2565224 -2.342089,1.2441647 -0.566134,1.0832652 -0.400862,2.5634812 0.395972,2.9799212 0.796835,0.41644 1.964943,-0.02478 2.531077,-1.10805 0.248054,-0.474641 0.401421,-1.2875007 0.372349,-1.7346303 L 18.102994,8.063368 Z m -0.164486,0.8236517 c 0.490152,0.2491879 0.439828,1.3130152 0.08978,1.9242342 -0.427733,0.746878 -1.109597,0.844128 -1.424737,0.67943 -0.31514,-0.164699 -0.505459,-1.010086 -0.115886,-1.7606787 0.232981,-0.4488854 1.044516,-1.0495552 1.450838,-0.8429855 z"
         sodipodi:nodetypes="cssscccsssss" />
      <path
         sodipodi:nodetypes="ccccc"
         id="path1781"
         d="M 20.413346,8.0633684 19.549405,6.6234671 18.685464,7.7753883 19.711459,9.6572919 Z"
         style="fill:#0165ca;fill-opacity:1;stroke:#01399e;stroke-width:0.252792;stroke-linecap:butt;stroke-linejoin:miter;stroke-miterlimit:7.57143;stroke-dasharray:none;stroke-opacity:1" />
      <path
         sodipodi:nodetypes="cssscccsssss"
         d="m 20.652612,8.0296201 c 0.877539,-8.64e-4 1.82593,0.2565224 2.342089,1.2441647 0.566134,1.0832652 0.400862,2.5634812 -0.395972,2.9799212 -0.796835,0.41644 -1.964943,-0.02478 -2.531077,-1.10805 -0.248054,-0.474641 -0.401421,-1.2875007 -0.372349,-1.7346303 l 0.03712,-1.3476577 z m 0.164486,0.8236517 c -0.490152,0.2491879 -0.439828,1.3130152 -0.08979,1.9242342 0.427733,0.746878 1.109597,0.844128 1.424737,0.67943 0.31514,-0.164699 0.505459,-1.010086 0.115886,-1.7606787 C 22.034955,9.2473719 21.22342,8.6467021 20.817098,8.8532718 Z"
         style="fill:url(#linearGradient1789);fill-opacity:1;stroke:#01399e;stroke-width:0.252792;stroke-linecap:round;stroke-linejoin:round;stroke-miterlimit:7.57143;stroke-dasharray:none;stroke-opacity:1"
         id="path1783" />
      <circle
         style="fill:url(#radialGradient1563);fill-opacity:1;stroke:#4c5c78;stroke-width:0.252792;stroke-linecap:round;stroke-linejoin:round;stroke-miterlimit:7.57143;stroke-dasharray:none;stroke-opacity:1"
         id="path1547"
         cx="18.861975"
         cy="6.9675713"
         r="0.8594591" />
    </g>
  </g>
</svg>
