<svg version="1.1" viewBox="0 0 256 256" xmlns="http://www.w3.org/2000/svg" xmlns:xlink="http://www.w3.org/1999/xlink"><defs><linearGradient id="linearGradient2474" x1="-17.67" x2="-17.702" y1="6.4752" y2="2.6077" gradientTransform="translate(-2.8589 .17216)" gradientUnits="userSpaceOnUse"><stop stop-color="#edba42" offset="0"/><stop stop-color="#ff9" offset="1"/></linearGradient><linearGradient id="linearGradient2476" x1="-8.9787" x2="-8.9787" y1="9.2108" y2="4.7845" gradientTransform="matrix(20.145 0 0 20.145 308.84 4.7966)" gradientUnits="userSpaceOnUse"><stop stop-color="#ffd56f" offset="0"/><stop stop-color="#fffe98" offset=".5"/><stop stop-color="#ffffe0" offset="1"/></linearGradient><radialGradient id="gradient2-62" cx="-1495.2" cy="5091.2" r="819.2" gradientTransform="matrix(.033215 .02554 -.022525 .029294 177.22 -98.257)" gradientUnits="userSpaceOnUse"><stop stop-color="#00bf00" offset="0"/><stop stop-color="#060" offset=".92941"/></radialGradient><radialGradient id="gradient1-6" cx="0" cy="0" r="819.2" gradientTransform="matrix(.15259 0 0 .15259 -147.36 -19.476)" gradientUnits="userSpaceOnUse"><stop stop-color="#fff" offset="0"/><stop stop-color="#cff" offset=".078431"/><stop stop-color="#09f" offset=".29804"/><stop stop-color="#06c" offset=".53725"/><stop stop-color="#039" offset=".75294"/><stop stop-color="#99f" offset="1"/></radialGradient><linearGradient id="gradient0-1" x1="-819.2" x2="819.2" gradientTransform="matrix(-.068712 -.068712 -.068712 .068712 -137.77 19.342)" gradientUnits="userSpaceOnUse"><stop stop-color="#039" offset="0"/><stop stop-color="#09f" offset=".47059"/><stop stop-color="#cff" offset="1"/></linearGradient><radialGradient id="radialGradient1624" cx="-154.38" cy="-18.647" r="75.181" fx="-154.72" gradientTransform="matrix(.65631 0 0 .6543 -49.102 -7.0885)" gradientUnits="userSpaceOnUse"><stop stop-color="#fff" offset="0"/><stop stop-color="#fff" stop-opacity="0" offset="1"/></radialGradient><filter id="filter22696" x="-.04965" y="-.059826" width="1.0993" height="1.1197" color-interpolation-filters="sRGB"><feGaussianBlur stdDeviation="2.7498242"/></filter><linearGradient id="linearGradient33380" x1="95.973" x2="102.49" y1="105.14" y2="113.37" gradientUnits="userSpaceOnUse"><stop stop-color="#f6cd6d" offset="0"/><stop stop-color="#d89a0d" offset="1"/></linearGradient><filter id="filter1144" x="-.048098" y="-.048377" width="1.0962" height="1.0968" color-interpolation-filters="sRGB"><feGaussianBlur stdDeviation="4.3834468"/></filter></defs><g transform="translate(-12.568)"><path d="m159.83 7.3696c-17.335-0.011137-35.314 4.5305-48.822 17.91-3.2952 3.2951-6.1785 6.7638-8.6621 10.402l-52.799 5.2793c-0.86898 0.08692-1.6403 0.59405-2.0645 1.3574l-13.324 23.984c-0.24266 0.43667-0.35771 0.93274-0.33203 1.4316l7.9941 154.57c0.08703 1.6752 1.6813 2.8544 3.3086 2.4473l159.9-39.975c0.78153-0.19546 1.4327-0.73393 1.7715-1.4648 0.0648-0.0486 0.12738-0.10004 0.1875-0.1543l45.305-95.939c0.3495-0.73945 0.34013-1.5984-0.0254-2.3301l-5.3301-10.658c-0.51744-1.0359-1.6445-1.6192-2.7891-1.4434l-15.648 2.4082c7e-3 -0.43013 0.0293-0.85414 0.0293-1.2871 0-19.04-6.6891-35.25-20.068-48.629-13.508-13.379-31.355-17.899-48.629-17.91z" fill="#212121" filter="url(#filter1144)"/><g transform="matrix(20.145 0 0 20.145 534.13 17.489)"><path d="m-17.014 1.3628-3.8365 0.52917-0.79375-1.0583-2.6458 0.26458-0.66146 1.1906 0.39688 7.6729 7.9375-1.9844-0.13229-6.35z" fill="url(#linearGradient2474)"/><path d="m-16.854 1.605-4.0971 0.54578-0.80852-1.0448-2.372 0.23878-0.56635 1.0096 0.38686 7.2925" fill="none" stroke="#fff9ec" stroke-linecap="round" stroke-width=".26458"/><path d="m-17.014 1.3628-3.8365 0.52917-0.79375-1.0583-2.6458 0.26458-0.66146 1.1906 0.39688 7.6729 7.9375-1.9844-0.13229-6.35z" fill="none" stroke="#c90" stroke-linejoin="round" stroke-width=".26458"/></g><path d="m68.989 119.39 15.99-10.66 42.64-5.33 21.32-15.99 21.32-5.33 69.29-10.66 5.33 10.66-45.305 95.94-159.9 39.975z" fill="#fcfcfc"/><path d="m68.989 119.39 15.99-10.66 42.64-5.33 21.32-15.99 21.32-5.33 69.29-10.66 5.33 10.66-45.305 95.94-159.9 39.975z" fill="url(#linearGradient2476)" style="mix-blend-mode:normal"/><path d="m197.55 82.959 2.0226 95.062" fill="none" stroke="#ff5100" stroke-width="5.33px"/><path d="m152 45.068c-19.04 0-28.83-11.849-44.861-12.776-18.446 3.4814-26.208 22.577-26.208 41.616 0 18.911 6.6892 35.119 20.068 48.627 13.508 13.379 29.783 20.07 48.822 20.07 18.911 0 35.121-6.6911 48.629-20.07 13.379-13.508 15.401-30.344 15.401-49.255 0-19.04-0.48173-11.394-13.861-24.773-13.508-13.379-29.08-3.4397-47.991-3.4397z" fill="url(#linearGradient33380)" fill-rule="evenodd" filter="url(#filter22696)"/><g transform="matrix(.86499 0 0 .86499 273.99 53.177)" fill-rule="evenodd"><path d="m-217.41 19.342q0 32.794 23.201 56.219 23.424 23.201 56.442 23.201 32.794 0 56.219-23.201 23.201-23.424 23.201-56.219 0-33.017-23.201-56.219-23.424-23.201-56.219-23.201-33.017 0-56.442 23.201-23.201 23.201-23.201 56.219" fill="url(#gradient0-1)"/><path d="m-212.95 19.342q0 31.009 21.863 53.095 22.086 22.086 53.318 22.086 31.009 0 53.318-22.086 21.863-22.086 21.863-53.095 0-31.233-21.863-53.318-22.309-22.086-53.318-22.086-31.233 0-53.318 22.086-21.863 22.086-21.863 53.318" fill="url(#gradient1-6)"/><path transform="matrix(3.7819 0 0 3.7819 -225.48 -69.054)" d="m20.951 3.6719v0.11719h-0.11719v0.11719h-0.47266v0.11914h-0.47266v0.17578h-0.11719v0.47266h0.23633v0.11719h1.0605v0.11914h-0.58984v0.23633h-0.11719v-0.11914h-0.47266v0.23633h0.11914v0.35352h-0.11914v0.23633h-0.23438v0.11719h-0.11914v0.11914h-0.11719v0.11719h-0.11914v0.29492h-0.17578v0.11914h-0.11914v0.23438h0.11914v0.11914h0.29492v0.11719h0.4707v0.11914h0.47266v-0.11914h0.23633v-0.35352h0.11719v-0.11719h0.23633v-0.11914h0.11719v-0.11719h0.11914v-0.17773h0.11719v-0.23633h0.17773v-0.11719h0.4707v-0.11719h0.11914v0.23438h-0.11914v0.23633h0.35547v0.29492h0.11719v0.11914h-0.11719v0.11719h-0.47266v0.11719h-0.11719v0.11914h-0.65039v0.11719h-0.11719v0.11914h-0.11719v0.11719h0.11719v0.11914h0.23633v0.11719h0.29492v0.11719h0.11719v0.11914h-0.53125v0.35352h0.11914v0.23633h0.76562v0.29492h0.23633v-0.17773h0.35352v-0.11719h0.94531v0.11719h0.17578v0.17773h0.11914v0.35352h0.11719v0.11719h0.11719v0.94531h-0.11719v0.11719h-0.11719v0.11719h0.4707v0.11914h-0.11719v0.11719h0.11719v0.11914h0.35547v0.17578h0.11719v0.11914h-0.11719v0.11719h-0.23633v0.23633h-0.11914v0.11719h-0.11719v0.11914h0.11719v0.4707h0.11914v0.23633h0.11719v0.23633h0.11914v0.23633h0.11719v0.11719h0.11719v0.29492h0.11914v0.11914h0.11719v0.11719h0.58984v0.11719h0.53125v-0.35352h0.11719v-0.41211h0.29492v-0.35352h0.11914v-0.23633h0.35352v-0.11914h0.35352v-0.11719h0.11914v-0.11914h0.11719v-0.11719h0.11719v-0.23633h0.47266v-0.11719h0.11719v-0.11914h0.11914v0.11914h0.23633v-0.11914h0.41211v-0.11719h0.11719v-0.11719h0.35547v-0.11914h0.11719v-0.29492h0.11914v-0.4707h-0.11914v-0.11914h-0.11719v-0.4707h0.35352v-0.11914h0.11719v-0.11719h0.11914v-0.11914h0.11719v-0.11719h0.11914v-0.35352h-0.11914v-0.17773h-0.11719v-0.11719h0.58984v-0.23633h-0.11914v-0.11719h-0.11719v-0.23633h-0.11719v-0.23633h-0.35547v-0.11719h-0.35352v0.4707h-0.11719v0.23633h-0.11914v-0.47266h-0.11719v-0.11719h0.11719v-0.35352h0.23633v0.11719h0.23633v-0.35352h0.47266v-0.23633h-0.11914v-0.11719h-0.4707v0.23438h-0.23633v0.11914h-0.11914v-0.35352h0.11914v-0.11914h0.94336v-0.11719h0.11719v-0.17773h-0.58984v-0.11719h0.11914v-0.23633h0.11719v-0.11719h0.23633v-0.11914h0.11719v-0.35352h0.11914v-0.23633h-0.23633v-0.11719h-0.58984v0.35352h-0.11719v0.11719h-0.11914v0.11914h-0.23633v-0.11914h0.11914v-0.11719h0.11719v-0.11719h0.11914v-0.35547h-0.70898v-0.11719h0.11719v-0.23633h-0.11719v-0.11719h-0.53125v-0.11914h-0.4707v-0.17578h-0.47266v-0.11914h-1.3574v0.11914h-0.23438v0.17578h-0.41406v0.11914h-0.11719v0.11719h-0.35352v0.11914h-0.11914v0.11719h-0.58984v0.11719h-0.58984v0.11914h-0.64844v0.11719h-0.35352v-0.11719h0.23437v-0.11914h0.23633v-0.11719h-0.11719v-0.11719h-0.11914v-0.53125h-0.11719v-0.11914h-0.11719v-0.11719h-0.11914v-0.11719h-0.82617v0.11719h-0.35352v-0.11719zm-2.7734 0.5293v0.23633h-0.11719v0.35352h-0.11719v-0.11719h-0.23633v-0.23633h-0.47266v0.11914h-0.41211v0.11719h0.29492v0.11719h0.11719v0.11914h0.23633v0.11719h0.35352v-0.11719h0.11914v0.23633h0.11719v0.11719h-0.11719v0.11719h0.23438v0.23633h-0.11719v0.11914h0.11719v0.35352h0.82617v-0.23633h0.11914v-0.11719h0.17578v-0.23633h0.11914v-0.35352h-0.29492v-0.47266h-0.11914v-0.11719h-0.11719v-0.11914h-0.35352v-0.23633zm-1.709 0.47266v0.11719h0.11719v-0.11719zm-0.82617 0.35352v0.11914h-0.35352v0.11719h-0.23633v0.23633h0.4707v0.4707h0.35547v0.11914h0.11719v-0.11914h0.11719v0.11914h0.11914v1.002h-0.23633v0.23633h-0.11719v0.11914h-0.11914v0.23438h0.11914v0.82617h0.35352v-0.35352h0.11719v-0.11719h0.23633v-0.11914h0.11719v-0.11719h0.11914v-0.35352h0.11719v-0.11914h0.88477v-0.11719h0.23633v0.11719h0.35352v0.47266h1.2402v-0.35352h-0.11914v-0.23633h-0.76758v-0.82617h-0.23438v-0.17773h-0.47266v-0.11719h-0.47266v0.11719h-0.4707v-0.11719h-0.17774v-0.11914h-0.23633v-0.23438h-0.11719v-0.23633h-0.47266v-0.11914h-0.11719v-0.11719h-0.23633v-0.23633zm-1.1211 0.47266v0.11719h-0.23633v0.11914h-0.23633v0.11719h-0.23633v0.11719h0.11914v0.11914h0.23633v0.11719h0.11719v0.29492h0.11914v0.11914h0.41211v0.11719h0.70703v-0.11719h0.23633v-0.53125h-0.82617v0.29492h-0.11719v-0.64844h0.11719v-0.23633zm-1.5332 0.88477v0.11719h-0.23633v0.11914h-0.11914v0.11719h-0.29492v0.11719h-0.11719v0.11914h-0.23633v0.11719h0.23633v0.23633h0.64844v-0.11719h0.47266v-0.11914h0.23633v-0.23633h0.11719v-0.23438h-0.11719v-0.11914h-0.35547v-0.11719zm1.1797 0.58984v0.11719h-0.11914v0.47266h-0.35352v0.35352h0.11719v0.11914h0.11914v0.11719h0.11719v0.23633h0.23633v0.11719h0.64844v-0.11719h0.11914v0.29492h-0.11914v0.11719h-0.11719v0.23633h-0.29492v0.23633h-0.23633v-0.35352h-0.35352v-0.11914h-0.35352v-0.29492h-0.11914v-0.70703h-0.11719v-0.11914h-0.35352v0.11914h-0.11914v-0.11914h-0.53125v-0.11719h-0.35352v0.23633h-0.11719v-0.35352h-0.23633v-0.11914h-0.11719v0.11914h-0.11914v0.23438h-0.11719v-0.11719h-0.11914v0.11719h-0.11719v0.11914h-0.11719v0.11719h-0.11914v0.11914h-0.23633v0.11719h-0.11719v0.11719h0.23633v-0.11719h0.11719v0.23633h0.11914v0.41211h0.23438v0.11914h0.47266v-0.11914h0.23633v0.11914h0.23633v0.11719h-0.94531v0.35352h0.11914v0.11914h0.35352v0.11719h0.11719v0.11719h0.58984v-0.11719h0.65039v-0.11719h0.35352v0.11719h0.58984v-0.11719h0.11719v-0.23633h0.11914v0.35352h0.23633v0.11719h0.23438v-0.11719h0.29492v0.11719h0.11914v0.23633h0.11719v0.11914h0.11914v0.23438h-0.11914v0.11914h-0.35352v-0.11914h0.11719v-0.23438h-0.76562v0.35352h-0.47266v0.11719h-0.11719v-0.11719h-0.11914v-0.11914h-0.11719v-0.11719h-0.35352v-0.23633h-0.11914v-0.11719h-0.11719v0.11719h-0.53125v0.11914h-0.11719v0.35352h0.11719v0.11719h-0.11719v0.11914h-0.11914v-0.23633h-0.11719v-0.11914h-0.23633v0.11914h-0.58984v-0.11914h0.11719v-0.35352h-0.11719v-0.11719h-0.11719v-0.11914h-0.23633v0.23633h-0.11914v-0.11719h-0.11719v-0.11914h-0.17773v-0.11719h-0.23438v-0.11719h-0.23633v-0.11914l-0.82422-0.0019531c-0.1868 0.17398-0.86564 0.86862-1.8262 2.125-0.65818 0.86091-1.2548 1.8047-1.5156 2.3555l0.1543 0.0059v0.23438h0.11719v0.11914h0.11914v0.11719h0.53125v0.11914h0.35352v0.11719h0.11719v0.11719h0.11914v0.23629h0.23438v0.41406h0.11914v0.11719h0.23633v0.11719h-0.11914v0.35547h0.11914v0.41211h0.11719v0.11719h0.11719v0.11914h0.11914v0.23633h0.17578v0.11719h0.23633v0.11719h0.11914v0.11914h0.23633v0.11719h0.11719v0.11914h0.11719v0.88476h-0.11719v0.58984h-0.11719v1.1797h0.11719v0.23633h0.11719v0.29492h0.11914v0.11719h0.11719v0.23633h0.23633v0.23633h0.11719v0.11719h0.11914v0.11719h0.35352v0.11914h0.11719v0.35352h0.17773v0.11719h0.11719v0.23633h0.11914v0.11914h0.11719v0.29492h0.11914v0.23633h0.23438v0.11719h0.11914v0.11719h0.11719v0.23633h0.11914v0.11914h0.11719v0.23437h0.23633v0.11914h0.35352v-0.23633h-0.11719v-0.11719h-0.11914v-0.23633h-0.11719v-0.11914h-0.11914v-0.23438h0.23633v0.23438h0.11914v0.11914h0.23438v0.23633h0.29492v0.11719h0.11914v0.11719h0.11719v0.47266h0.11914v0.35352h0.23438v0.11914h0.47266v0.17578h0.23633v0.11914h0.58984v0.23438h1.3574v0.11914h0.11719v0.11719h0.11719v0.11914h0.11914v0.11719h0.35352v0.11719h0.23633v0.11914h0.11719v0.23633h0.17774v0.35352h0.23633v0.11719h0.82422v0.11914h0.47266v0.11719h0.11719v0.53125h-0.11719v0.23633h-0.11719v0.23438h-0.11914v0.35547h-0.11719v0.23633h-0.23633v0.11719h-0.11719v0.47266h-0.11914v0.29492h0.11914v0.35352h0.11719v0.11719h0.11719v0.11914h0.11914v0.23438h0.11719v0.23633h0.11914v0.58984h0.11719v0.11914h0.11719v0.11719h0.11914v0.11719h0.11719v0.17773h0.29492v0.11719h0.23633v0.11914h0.11914v0.11719h0.11719v0.11914h0.11719v1.9453h-0.11719v0.35547h-0.11719v0.82422h-0.11914v0.65039h-0.11719v0.35352h-0.11914v0.88477h0.11914v0.11719h-0.11914v0.23633h-0.17578v0.23633h0.17578v0.94336h-0.17578v0.11914h-0.11914v0.5293h-0.11719v1.416h0.11719v0.11914h0.11914v0.11719h0.17578v0.11719h0.23633v-0.11719h0.23633v0.11719h0.11719v0.29492h-0.23438v0.35547h0.23438v0.23438h0.47266v0.11914h0.23633v-0.11914h0.23633v0.11914h0.23438v-0.23633h0.11914v-0.35352h-0.11914v-0.11914h-0.11719v-0.11719h-0.35352v-0.17773h-0.11914v-0.11719h-0.11719v-0.47266h-0.11719v-0.23438h0.11719v-0.11914h0.11719v-0.23633h0.11914v-0.11719h0.11719v-0.11719h0.11914v-0.58984h-0.23633v-0.41406h0.23633v-0.11719h0.11719v-0.35547h0.11719v-0.23438h0.11914v-0.35547h-0.11914v-0.11719h0.41406v-0.23633h0.11719v-0.35352h0.35352v0.11719h0.23633v-0.11719h0.23633v-0.11719h0.11719v-0.76758h-0.11719v-0.11719h0.70703v-0.17774h0.11914v-0.23633h0.11719v-0.23633h0.11914v-0.23438h0.17578v-0.35547h0.11914v-0.11719h0.11719v-0.23633h0.11719v-0.23633h0.11914v-0.41211h0.11719v-0.11719h0.11914v-0.11914h0.23633v-0.23633h0.4707v-0.11719h0.23633v-0.11914h0.11719v-0.11719h0.11914v-0.11719h0.11719v-0.11914h0.11914v-0.23633h0.17578v-0.58984h0.11914v-0.5293h0.11719v-0.23633h0.11719v-0.23633h0.11914v-0.11719h0.17578v-0.23633h0.11914v-0.11914h0.11719v-1.002h-0.23633v-0.11719h-0.29492v-0.11914h-0.11719v-0.11719h-0.41211v-0.11914h-0.47266v-0.11719h-0.35352v-0.35352h-1.0625v-0.58984h-0.11719v-0.11914h-0.11914v-0.11719h-0.17578v-0.11914h-0.23633v-0.11719h-0.11914v-0.17774h-0.4707v-0.11719h-0.23633v-0.11719h-0.11719v-0.11914h-0.11914v-0.11719h-0.11719v-0.11914h-0.11914v-0.11719h-0.11719v-0.11719h-0.23633v-0.11914h-0.76562v0.11914h-0.11914v-0.11914h-0.11719v-0.11719h-0.23633v-0.23633h-0.58984v0.11719h-0.23633v0.11914h-0.41211v0.11719h-0.11914v0.23633h-0.11719v0.11719h-0.11914v-0.11719h-0.4707v0.11719h-0.23633v-0.11719h-0.23633v-0.11719h-0.11719v-0.23633h-0.11914v-0.11914h0.11914v-0.82422h-0.76758v-0.76758h0.17774v-0.35352h-0.64844v0.11719h-0.35547v0.23633h-0.11719v0.11719h-0.23633v0.11914h-0.35352v-0.11914h-0.35352v-0.11719h-0.11914v-0.35352h-0.11719v-0.23633h-0.17773v-0.35352h-0.11719v-0.47266h0.11719v-0.11719h0.17773v-0.17774h0.23633v-0.11719h1.0605v-0.11914h1.1211v0.11914h0.11914v0.41211h0.11719v0.23633h0.11719v0.11719h0.11914v0.11914h0.11719v0.11719h0.35352v-0.11719h0.11914v-0.35352h-0.11914v-0.23633h-0.11719v-0.29492h-0.11719v-0.47266h0.11719v-0.23633h0.23633v-0.11719h0.11719v-0.11914h0.11914v-0.23438h0.23438v-0.11914h0.11914v-0.11719h0.11719v-0.23633h-0.11719v-0.11719h0.23633v-0.29492h0.29492v-0.70898h0.82617v-0.11719h0.11719v-0.11914h-0.11719v-0.11719h-0.11914v-0.11719h0.11914v-0.11914h0.11719v-0.11719h0.23633v0.11719h0.4707v-0.11719h0.23633v-0.11914h0.29492v-0.23438h-0.11719v-0.11914h-0.17773v-0.11719h-0.23633v-0.17773h-0.11719v-0.35352h0.11719v-0.47266h-0.35352v0.11914h-0.11719v-0.11914h0.11719v-0.11719h0.88476v-0.11914h0.35352v0.11914h0.23633v-0.11914h0.11914v-0.11719h0.11719v-0.11719h0.11719v-0.11914h0.23633v-0.11719h0.11914v-0.47266h-0.11914v-0.29492h-0.11719v-0.11719h-0.11914v-0.11914h-0.4707v-0.11719h-0.11914v-0.41211h-0.11719v-0.11914h-0.11719v-0.23633h-0.11914v-0.35352h-0.11719v-0.23633h-0.17773v-0.23438h-0.11719v-0.23633h-0.23633v0.11719h-0.11719v0.35352h-0.23633v0.11914h-0.35352v-0.11914h-0.11914v-0.82422h-0.23633v-0.11914h-0.11719v-0.11719h-0.11719v-0.17773h-0.76758v-0.11719h-0.11914v-0.11914h0.35547v-0.4707h-0.23633v0.11719h-0.11914v0.11914h-0.23438v-0.11914h-0.11914v-0.11719h-0.11719v-0.23633h-0.23633v-0.11914h-0.11719v-0.11719h-0.23633v-0.23633h-0.11914v0.11914h-0.11719v0.11719h-0.23633v0.23633h-0.11719v0.35352h0.23633v0.23633h0.35352v-0.11719h0.11719v-0.11914h0.23633v0.11914h0.23633v0.64844h-0.11914v0.4707h0.11914v0.35547h-0.11914v0.70703h0.11914v0.47266h0.11719v0.17578h-0.11719v0.11914h-0.11914v0.11719h-0.11719v0.11719h-0.11719v0.88476h0.11719v0.23633h-0.11719v0.11914h-0.11914v-0.11914h-0.11719v-0.23633h-0.11914v-0.11719h-0.11719v-0.41211h-0.11719v-0.35547h-0.11914v-0.11719h-1.1211v-0.11719h-0.11719v-0.11914h-0.11719v-0.41211h-0.11914v-0.23633h-0.23633v-0.11719h-0.11719v-0.23633h-0.11719v0.11719h-0.11914v-0.11719h-0.11719v-0.11914h-0.11914v-0.23438h0.11914v-0.35547h0.11719v-0.11719h0.11914v-0.11719h0.11719v-0.11914h0.11719v-0.29492h0.23633v-0.11719h0.58984v-0.58984h0.11914v-0.23633h0.11719v-0.11914h0.11719v-0.35352h-0.23438v-0.11719h0.35352v0.11719h0.29492v-0.11719h0.4707v-0.23633h0.11914v-0.11719h0.11719v-0.65039h-0.23633v-0.11719h0.11914v-0.11719h0.11719v-0.35547h-0.23633v-0.35352h-0.64844v0.35352h0.17774v0.11914h-0.17774v0.11719h-0.11719v0.35352h-0.11914v-0.11719h-0.11719v-0.47266h-0.23633v0.11914h-0.11719v-0.11914h-0.35352v-0.58984h-0.11914v-0.4707h-0.11719v-0.53125h-0.58984v-1.0625h-0.11914v-0.11719zm3.5391 5.5449v0.23633h0.4707v-0.23633zm0.4707-4.3652v0.35352h-0.11719v0.41406h-0.11719v0.23438h0.11719v0.11914h0.11719v0.23633h0.11914v0.35352h0.23633v0.11719h0.23438v0.47266h0.23633v0.11719h0.11914v-0.11719h0.17578v-0.47266h0.23633v0.11914h0.35352v0.11719h0.11914v0.11719h0.11719v0.11914h0.11914v0.64844h-0.11914v0.35352h-0.11719v0.11914h-0.11914v-0.11914h-0.23438v0.23633h-0.11914v0.23633h0.11914v0.11719h0.58984v0.11914h0.23438v0.23633h0.11914v0.11719h0.23633v0.11719h0.11719v0.11914h0.35352v-0.23633h0.17773v0.11719h0.23633v-0.4707h-0.11914v-0.23633h-0.11719v-0.11914h0.11719v-0.11719h0.35352v-0.11719h0.23633v-0.23633h-0.11719v-0.35352h-0.35352v-0.29492h-0.11914v-0.11914h-0.29492v-0.11719h-0.23633v-0.11914h0.23633v-0.58984h-0.23633v-0.23438h-0.11719v-0.11914h-0.23633v-0.23633h-0.35352v-0.23438h-0.11719v-0.11914h-0.70898v-0.11719h-0.23633v-0.17773h0.11914v-0.11719h-0.11914v-0.23633zm19.885 1.9453-0.18164 2e-3v0.11719h-0.11719v0.23633h-0.17773v0.41211h-0.11719v0.23633h-0.11914v0.23633h-0.11719v0.35352h-0.23633v0.23633h-0.11719v0.23633h-0.11914v0.23633h-0.11719v0.11719h-0.11914v0.11719h-0.11719v0.11914h-0.11719v0.11719h-0.11914v0.17773h-0.11719v0.11719h-0.23633v0.11914h-0.11719v0.11719h-0.11914v0.11719h-0.29492v0.11914h0.17774v0.11719h-0.17774v0.35352h0.17774v0.47266h-0.17774v0.23633h0.17774v0.41211h0.11719v0.11914h0.58984v-0.11914h0.11914v-0.17578h0.11719v-0.23633h0.11719v-0.11914h0.11914v-0.11719h0.11719v0.47266h-0.11719v0.29492h0.11719v0.35352h0.11914v0.23633h0.11719v0.17578h0.47266v-0.17578h0.29492v-0.23633h0.11719v-0.35352h0.11719v-0.29492h0.11914v-0.23633h0.11719v-0.11914h0.11914v-0.4707h-0.23633v-0.70898h0.11719v-0.11719h0.11914v-0.11719h0.23438v-0.11914h0.11914v1.1797h0.11719v0.11914h0.23633v0.11719h0.11719v0.11719h-0.11719v0.53125h0.11719v0.23633h-0.11719v-0.11719h-0.11719v-0.11914h-0.11914v0.11914h-0.11719v0.11719h-0.11914v0.11719h-0.11719v0.35547h-0.11719v0.29492h-0.23633v0.11719h-0.11914v-0.11719h-0.23438v0.11719h-0.17773v0.11719h-0.47266v-0.11719h-0.58984v-0.53125h0.11914v-0.23633h-0.11914v-0.35356h-0.11719v0.11914h-0.23633v0.11719h-0.11719v0.11719h-0.11914v0.53125h0.11914v0.47266h-0.23633v0.11719h-0.53125v0.23633h-0.11719v0.23633h-0.11914v0.11719h-0.11719v0.11914h-0.11914v-0.47266h-0.11719v-0.11719h-0.11719v-0.11914h-0.11914v-0.23633h-0.11719v-0.11719h-0.11914v-1.002h-0.35352v-0.11914h-0.11719v-0.17578h0.11719v-0.23633h-0.4707v0.11719h-0.11914v0.41406h-0.17578v0.4707h0.17578v0.29492h-0.76562v0.35352h-0.11914v-0.11719h-0.23633v0.11719h-0.11719v0.23633h0.23633v0.70898h0.4707v-0.11914h0.35547v-0.11719h0.17578v0.11719h0.23633v0.11914h-0.23633v0.11719h-0.17578v0.11914h-0.11914v0.23438h0.53125v-0.11719h0.47266v0.11719h-0.35547v0.11914h-0.23437v0.41211h0.23437v0.11914h0.11914v0.11719h0.11719v0.11719h0.11914v0.70898h-1.1211v-0.11914h-0.23633v0.11914h-0.23633v1.7109h0.23633v0.23438h0.11719v0.11914h-0.11719v0.35352h-0.11719v0.11719h-0.11914v0.11914h-0.11719v0.23633h-0.11914v0.29492h-0.11719v0.11719h-0.11719v0.11914h-0.11914v0.11719h-0.23633v0.11719h-0.11719v0.11914h-0.11719v0.23633h-0.41406v0.58984h-0.23633v0.11719h-0.11719v0.23633h-0.11719v0.11719h0.11719v0.53125h0.11719v0.23633h-0.11719v0.11719h-0.11719v0.70898h0.11719v0.11719h0.11719v0.11719h0.11914v0.11914h0.11719v0.11719h0.29492v0.11914h0.11914v0.11719h0.11719v0.29492h0.11719v0.23633h0.23633v0.11719h0.11914v0.11914h0.11719v0.11719h0.11719v0.11719h0.70898v-0.11719h0.88476v0.11719h0.11719v-0.11719h0.47266v-0.11719h0.58984v0.11719h0.23633v0.11719h0.76562v0.11914h0.11914v0.35352h-0.11914v0.23633h-0.11719v0.47266h0.11719v0.11719h0.23633v0.41211h0.11914v0.11914h0.11719v0.4707h0.11719v0.11914h0.11914v0.23633h0.11719v0.35352h-0.11719v0.11719h-0.11914v0.11914h0.11914v0.23438h-0.23633v0.53125h-0.11719v0.35352h0.11719v0.23633h0.11719v0.23633h0.11914v0.35352h0.11719v0.35547h0.11914v0.41211h0.11719v0.23633h0.11719v0.4707h0.11914v0.11914h0.11719v0.11719h0.11914v0.23633h0.11719v0.58984h0.29492v0.17774h0.58984v-0.17774l0.45117 0.0039c1.2822-1.7287 4.1523-5.3101 4.1523-12.242s-3.0035-10.929-5.0117-13.246zm-19.176 2e-3h0.11719v0.23438h-0.11719zm10.146 0.35352h0.11719v0.11719h-0.11719zm-7.9648 0.88477h0.11914v0.23633h-0.11914zm8.4355 0.11719v0.11914h-0.11719v0.23438h-0.11914v0.23633h0.23633v0.11914h-0.11719v0.11719h-0.11914v0.23633h0.35547v0.11719h0.23633v0.11914h0.11719v0.11719h0.35352v0.17773h0.58984v-0.17778h0.76758v-0.11719h0.23633v-0.11914h0.23438v-0.11719h0.11914v-0.11719h0.11719v-0.35547h-0.11719v-0.11719h-0.11914v-0.11914h-0.11719v-0.11719h-0.11719v-0.11719h-0.47266v0.11719h-0.64844v-0.11719h-0.47266v0.11719h-0.11719v0.11719h-0.11914v-0.11719h-0.11719v-0.11719h-0.11719v-0.11914zm9.5566 0.82617h0.35352v0.23633h-0.11719v0.11719h-0.11914v0.11914h-0.11719v0.11719h-0.11719v0.17773h-0.11914v-0.53125h0.11914v-0.11719h0.11719zm0.70703 2.0645h0.29492v0.11914h-0.11719v0.11719h-0.53125v-0.11719h0.35352zm-6.3691 2.123h0.23437v0.23633h-0.35352v-0.11719h0.11914zm-13.037 0.94531h0.11719v0.11719h-0.11719zm-0.23633 0.11714h0.11914v0.11914h-0.11914zm-4.0117 0.11914h0.35547v0.11719h0.11719v0.11719h0.23633v0.11914h-0.35352v-0.11914h-0.11914v0.11914h-0.4707v-0.11914h0.11719v-0.11719h0.11719zm18.699 0h0.23633v0.23438h0.11914v0.11914h-0.82617v-0.11914h0.23633v-0.11719h0.23438zm-1.0605 0.4707h0.23633v0.41406h-0.11914v-0.11914h-0.11719zm-16.518 0.17773h0.47266v0.11719h0.11719v0.11914h-0.11719v-0.11914h-0.11914v0.35352h-0.11719v-0.35352h-0.23633zm0.70898 0.11719h0.11719v0.11914h-0.11719zm-1.2402 0.23633h0.11914v0.23633h-0.11914v0.35352h-0.23438v-0.11719h0.11719v-0.35547h0.11719zm1.5938 0h0.23633v0.11719h-0.11914v0.23633h-0.11719v0.11914h-0.11914v0.11719h-0.4707v-0.11719h0.11719v-0.11914h0.47266zm0.4707 0h0.11914v0.11719h-0.11914zm18.582 0.94336h0.23633v0.11914h0.17773v0.11719h0.11719v0.11719h0.23633v0.11914h0.11719v0.41211h0.11914v0.47266h0.11719v0.23633h0.11719v0.11719h0.11914v0.11719h0.35352v-0.23438h0.11719v-0.11914h0.11914v-0.4707h0.11719v-0.11914h0.11914v0.47266h0.11719v0.11719h0.11719v0.23633h0.17773v0.11719h0.23633v0.11914h0.47266v-0.11914h0.11719v0.11914h0.58984v0.11719h0.11719v0.23633h-0.11719v0.11719h-0.11719v0.23633h-0.11914v0.11914h-0.11719v0.11719h-1.3574v-0.11719h-0.58984v-0.11914h-0.82617v0.11914h-0.11719v0.29492h0.11719v0.11719h-0.35352v-0.11719h-0.29492v-0.17774h-0.11719v-0.23633h-0.11914v-0.11719h-0.35352v-0.11914h-0.35352v-0.11719h-0.11914v-0.70703h-0.11719v-0.11914h-1.1211v0.11914h-0.82617v0.11719h-0.23633v-0.47266h0.11914v-0.11719h0.11719v-0.41211h0.23633v-0.11914h0.35352v-0.11719h0.11914v-0.35352h0.11719v0.11719h0.53125v-0.11719h0.23633v0.35352h-0.11914v0.76563h0.35547v-0.11719h0.11719v-0.88477h0.11719v0.11719h0.23633v0.23633h0.11914v0.11914h0.23438v0.5293h-0.35352v0.23633h0.11914v0.11914h0.4707v0.11719h0.11914v-0.23633h0.29492v-0.11719h0.23438v-0.11914h0.11914v-0.5293h-0.11914v-0.23633h-0.23438v-0.11914h-0.17773v-0.11719h-0.23633zm-2.6543 0.88477v0.23633h0.35352v-0.23633zm-1.1797 0.70898h0.47266v0.23438h-0.23633v0.11914h-0.47266v-0.11914h-0.29492v-0.11719h0.53125zm-22.357 1.0605h0.11914v0.11914h-0.11914zm26.074 0.11914h0.11719v0.11719h-0.11719zm-18.699 0.41211v0.11914h0.4707v-0.11914zm0.58984 0v0.47266h0.17578v-0.11914h0.11914v-0.35352zm20.939 0.11914h0.11914v0.11719h0.11719v0.11719h0.11914v0.11914h0.11719v0.23633h-0.23633v-0.11914h-0.23633zm-21.176 0.4707v0.23633h0.11719v0.23633h0.29492v-0.47266zm0.11719 0.47266h-0.23633v-0.11914h-0.35352v-0.11719h-0.35352v-0.11719h-0.47266v0.11719h-0.23438v0.35352h0.35352v-0.11719h0.11719v0.11719h0.35352v0.11914h0.11914v0.11719h0.23633v0.11719h0.35352v0.53125h0.23633v-0.29492h-0.11914v-0.11719h0.29492v0.23633h0.35547v0.17578h0.4707v-0.17578h0.35352v-0.35547h-0.23438v-0.11719h-0.23633v-0.23633h-0.47266v0.11914h-0.23633v-0.11914h-0.29492zm0.41406-0.47266v0.23633h0.4707v-0.23633zm21.707 0h0.23633v0.11914h0.11719v0.11719h0.11914v0.23633h0.11719v0.11719h0.11914v0.23633h0.11719v0.23633h0.17773v0.23633h0.11719v0.17578h0.11719v0.11914h0.11914v0.35352h0.11719v0.11719h0.11914v0.35352h0.11719v0.23633h-0.11719v-0.11719h-0.23633v-0.11914h-0.11914v-0.11719h-0.11719v-0.23633h-0.29492v-0.4707h-0.11719v-0.29492h-0.11914v-0.23633h-0.11719v-0.23633h-0.11914v-0.23633h-0.11719v-0.23633h-0.11719v-0.23437h-0.11914zm-12.092 0.82617v0.23633h-0.11914v0.41211h0.23633v-0.17578h0.11719v-0.23633h0.11914v-0.23633zm-8.4355 0.23633v0.41211h0.4707v-0.17578h0.41406v-0.23633zm1.002 0.11719v0.11914h0.11914v-0.11914zm0.23633 0v0.11914h0.11719v-0.11914zm0 0.29492v0.11914h-0.11719v0.58984h0.11719v0.11719h0.23633v-0.82617zm1.8281 3.3633h0.11914v0.11719h-0.11914v0.11914h-0.17578v-0.11914h0.17578z" fill="url(#gradient2-62)"/><path d="m-212.95 19.342q0 31.009 21.863 53.095 22.086 22.086 53.318 22.086 31.009 0 53.318-22.086 21.863-22.086 21.863-53.095 0-31.233-21.863-53.318-22.309-22.086-53.318-22.086-31.233 0-53.318 22.086-21.863 22.086-21.863 53.318" fill="url(#radialGradient1624)"/></g><path d="m68.989 119.39 15.99-10.66 42.64-5.33 21.32-15.99 21.32-5.33 69.29-10.66 5.33 10.66-45.305 95.94-159.9 39.975z" fill="url(#linearGradient2476)" opacity=".75" style="mix-blend-mode:normal"/><path d="m241.41 76.264-71.148 11.147-19.858 4.8694-20.507 15.931-43.096 5.2196-13.648 9.0686-27.218 93.068" fill="none" stroke="#fff9ec" stroke-width="5.33px"/><path d="m68.989 119.39 15.99-10.66 42.64-5.33 21.32-15.99 21.32-5.33 69.29-10.66 5.33 10.66-45.305 95.94-159.9 39.975z" fill="none" stroke="#c90" stroke-linejoin="round" stroke-width="5.33"/></g></svg>
