<?xml version="1.0" encoding="UTF-8" standalone="no"?>
<svg
   inkscape:export-ydpi="96"
   inkscape:export-xdpi="96"
   inkscape:export-filename="/media/klapeto/Αρχεία/WindowsXP Theme/Vectors/RASTER/downloads.png"
   sodipodi:docname="downloads.svg"
   inkscape:version="1.1.1 (3bf5ae0d25, 2021-09-20)"
   id="svg8"
   version="1.1"
   viewBox="0 0 256 256"
   height="16"
   width="16"
   xmlns:inkscape="http://www.inkscape.org/namespaces/inkscape"
   xmlns:sodipodi="http://sodipodi.sourceforge.net/DTD/sodipodi-0.dtd"
   xmlns:xlink="http://www.w3.org/1999/xlink"
   xmlns="http://www.w3.org/2000/svg"
   xmlns:svg="http://www.w3.org/2000/svg"
   xmlns:rdf="http://www.w3.org/1999/02/22-rdf-syntax-ns#"
   xmlns:cc="http://creativecommons.org/ns#"
   xmlns:dc="http://purl.org/dc/elements/1.1/">
  <defs
     id="defs2">
    <linearGradient
       inkscape:collect="always"
       id="linearGradient33378">
      <stop
         style="stop-color:#f6cd6d;stop-opacity:1;"
         offset="0"
         id="stop33374" />
      <stop
         style="stop-color:#d89a0d;stop-opacity:1"
         offset="1"
         id="stop33376" />
    </linearGradient>
    <linearGradient
       id="linearGradient2067"
       inkscape:collect="always">
      <stop
         id="stop2063"
         offset="0"
         style="stop-color:#edba42;stop-opacity:1" />
      <stop
         id="stop2065"
         offset="1"
         style="stop-color:#ffff99;stop-opacity:1" />
    </linearGradient>
    <linearGradient
       inkscape:collect="always"
       id="linearGradient2059">
      <stop
         style="stop-color:#ffd56f;stop-opacity:1"
         offset="0"
         id="stop2055" />
      <stop
         id="stop2100"
         offset="0.5"
         style="stop-color:#fffe98;stop-opacity:1" />
      <stop
         style="stop-color:#ffffe0;stop-opacity:1"
         offset="1"
         id="stop2057" />
    </linearGradient>
    <linearGradient
       inkscape:collect="always"
       xlink:href="#linearGradient2067"
       id="linearGradient2474"
       gradientUnits="userSpaceOnUse"
       gradientTransform="translate(-2.8588687,0.17215515)"
       x1="-17.669527"
       y1="6.4752192"
       x2="-17.701683"
       y2="2.6076741" />
    <linearGradient
       inkscape:collect="always"
       xlink:href="#linearGradient2059"
       id="linearGradient2476"
       gradientUnits="userSpaceOnUse"
       gradientTransform="matrix(20.144809,0,0,20.144809,308.83794,4.7965908)"
       x1="-8.9786987"
       y1="9.2108154"
       x2="-8.9786987"
       y2="4.7845073" />
    <linearGradient
       inkscape:collect="always"
       id="linearGradient1620">
      <stop
         style="stop-color:#ffffff;stop-opacity:1;"
         offset="0"
         id="stop1616" />
      <stop
         style="stop-color:#ffffff;stop-opacity:0;"
         offset="1"
         id="stop1618" />
    </linearGradient>
    <radialGradient
       spreadMethod="pad"
       r="819.20001"
       id="gradient2-62"
       gradientUnits="userSpaceOnUse"
       gradientTransform="matrix(0.03321492,0.02554013,-0.0225253,0.02929414,177.21918,-98.257282)"
       cy="5091.1753"
       cx="-1495.2026"
       fx="-1495.2026"
       fy="5091.1753">
      <stop
         id="stop4113"
         stop-color="#00bf00"
         offset="0.0" />
      <stop
         id="stop4115"
         stop-color="#006600"
         offset="0.9294117647058824" />
    </radialGradient>
    <radialGradient
       spreadMethod="pad"
       r="819.20001"
       id="gradient1-6"
       gradientUnits="userSpaceOnUse"
       gradientTransform="matrix(0.15259312,0,0,0.15259312,-147.36205,-19.475779)"
       cy="0"
       cx="0">
      <stop
         id="stop4100"
         stop-color="#ffffff"
         offset="0.0" />
      <stop
         id="stop4102"
         stop-color="#ccffff"
         offset="0.0784313725490196" />
      <stop
         id="stop4104"
         stop-color="#0099ff"
         offset="0.2980392156862745" />
      <stop
         id="stop4106"
         stop-color="#0066cc"
         offset="0.5372549019607843" />
      <stop
         id="stop4108"
         stop-color="#003399"
         offset="0.7529411764705882" />
      <stop
         id="stop4110"
         stop-color="#9999ff"
         offset="1.0" />
    </radialGradient>
    <linearGradient
       x2="819.20001"
       x1="-819.20001"
       spreadMethod="pad"
       id="gradient0-1"
       gradientUnits="userSpaceOnUse"
       gradientTransform="matrix(-0.06871152,-0.06871152,-0.06871152,0.06871152,-137.76921,19.341771)">
      <stop
         id="stop4093"
         stop-color="#003399"
         offset="0.0" />
      <stop
         id="stop4095"
         stop-color="#0099ff"
         offset="0.47058823529411764" />
      <stop
         id="stop4097"
         stop-color="#ccffff"
         offset="1.0" />
    </linearGradient>
    <radialGradient
       inkscape:collect="always"
       xlink:href="#linearGradient1620"
       id="radialGradient1624"
       cx="-154.3782"
       cy="-18.647072"
       fx="-154.72092"
       fy="-18.647072"
       r="75.181114"
       gradientTransform="matrix(0.65631144,0,0,0.65430257,-49.101672,-7.0885197)"
       gradientUnits="userSpaceOnUse" />
    <filter
       inkscape:collect="always"
       style="color-interpolation-filters:sRGB"
       id="filter22696"
       x="-0.049650463"
       y="-0.059825589"
       width="1.0993009"
       height="1.1196512">
      <feGaussianBlur
         inkscape:collect="always"
         stdDeviation="2.7498242"
         id="feGaussianBlur22698" />
    </filter>
    <linearGradient
       inkscape:collect="always"
       xlink:href="#linearGradient33378"
       id="linearGradient33380"
       x1="95.973244"
       y1="105.1426"
       x2="102.48702"
       y2="113.3695"
       gradientUnits="userSpaceOnUse" />
    <filter
       inkscape:collect="always"
       style="color-interpolation-filters:sRGB"
       id="filter1144"
       x="-0.048098397"
       y="-0.048377242"
       width="1.0961968"
       height="1.0967545">
      <feGaussianBlur
         inkscape:collect="always"
         stdDeviation="4.3834468"
         id="feGaussianBlur1146" />
    </filter>
  </defs>
  <sodipodi:namedview
     inkscape:snap-global="false"
     inkscape:bbox-paths="false"
     fit-margin-bottom="0"
     fit-margin-right="0"
     fit-margin-left="0"
     fit-margin-top="0"
     inkscape:bbox-nodes="true"
     inkscape:snap-bbox="true"
     inkscape:window-maximized="1"
     inkscape:window-y="0"
     inkscape:window-x="3840"
     inkscape:window-height="2045"
     inkscape:window-width="3840"
     units="px"
     showgrid="false"
     inkscape:document-rotation="0"
     inkscape:current-layer="layer1"
     inkscape:document-units="px"
     inkscape:cy="77.975364"
     inkscape:cx="118.96976"
     inkscape:zoom="3.4882813"
     inkscape:pageshadow="2"
     inkscape:pageopacity="0.0"
     borderopacity="1.0"
     bordercolor="#666666"
     pagecolor="#ffffff"
     id="base"
     showguides="false"
     inkscape:pagecheckerboard="0">
    <inkscape:grid
       originy="0"
       originx="0"
       id="grid1504"
       type="xygrid" />
    <inkscape:grid
       originy="0"
       originx="0"
       spacingy="0.5"
       spacingx="0.5"
       id="grid1507"
       type="xygrid" />
  </sodipodi:namedview>
  <metadata
     id="metadata5">
    <rdf:RDF>
      <cc:Work
         rdf:about="">
        <dc:format>image/svg+xml</dc:format>
        <dc:type
           rdf:resource="http://purl.org/dc/dcmitype/StillImage" />
      </cc:Work>
    </rdf:RDF>
  </metadata>
  <g
     transform="translate(-12.567709)"
     id="layer1"
     inkscape:groupmode="layer"
     inkscape:label="Layer 1">
    <path
       id="path895"
       style="fill:#212121;fill-opacity:1;stroke:none;stroke-width:5.32997;stroke-linecap:butt;stroke-linejoin:round;stroke-miterlimit:4;stroke-dasharray:none;stroke-opacity:1;filter:url(#filter1144)"
       d="m 159.82514,7.3696296 c -17.33452,-0.011137 -35.3144,4.5305254 -48.82226,17.9097294 -3.29515,3.295146 -6.17853,6.763848 -8.66212,10.402344 L 49.541936,40.961 c -0.868983,0.08692 -1.640254,0.594046 -2.064453,1.357421 L 34.153265,66.302796 c -0.24266,0.436666 -0.357711,0.932741 -0.332032,1.431641 l 7.994141,154.570313 c 0.08703,1.67515 1.681345,2.85442 3.308594,2.44726 L 205.02241,184.7774 c 0.78153,-0.19546 1.43271,-0.73393 1.77148,-1.46484 0.0648,-0.0486 0.12738,-0.10004 0.1875,-0.1543 l 45.30469,-95.939448 c 0.3495,-0.739449 0.34013,-1.598424 -0.0254,-2.330078 L 246.9306,74.230531 c -0.51744,-1.035905 -1.64454,-1.619191 -2.78906,-1.44336 l -15.64844,2.408203 c 0.007,-0.430132 0.0293,-0.854143 0.0293,-1.287109 0,-19.039639 -6.68914,-35.249699 -20.06836,-48.628906 C 194.94621,11.900155 177.09916,7.3807283 159.82514,7.3696296 Z"
       sodipodi:nodetypes="accccccccccccccccsca" />
    <g
       id="g893">
      <g
         id="g1722-8-6"
         transform="matrix(20.144809,0,0,20.144809,534.12783,17.489202)">
        <path
           id="path1612-5-2"
           d="m -17.014076,1.3627803 -3.83646,0.5291665 -0.79375,-1.05833323 -2.645833,0.26458333 -0.661459,1.190625 0.396876,7.6729167 7.9375,-1.984375 -0.132291,-6.3500001 z"
           style="fill:url(#linearGradient2474);fill-opacity:1;stroke:none;stroke-width:0.264583;stroke-linecap:butt;stroke-linejoin:round;stroke-miterlimit:4;stroke-dasharray:none;stroke-opacity:1"
           sodipodi:nodetypes="ccccccccc" />
        <path
           sodipodi:nodetypes="cccccc"
           id="path1624-0-9"
           d="m -16.85445,1.6049866 -4.097077,0.5457765 -0.808525,-1.0448296 -2.372049,0.2387808 -0.566354,1.0096419 0.386861,7.292457"
           style="fill:none;stroke:#fff9ec;stroke-width:0.264583;stroke-linecap:round;stroke-linejoin:miter;stroke-miterlimit:4;stroke-dasharray:none;stroke-opacity:1" />
        <path
           sodipodi:nodetypes="ccccccccc"
           style="fill:none;fill-opacity:1;stroke:#cc9900;stroke-width:0.264583;stroke-linecap:butt;stroke-linejoin:round;stroke-miterlimit:4;stroke-dasharray:none;stroke-opacity:1"
           d="m -17.014076,1.3627803 -3.83646,0.5291665 -0.79375,-1.05833323 -2.645833,0.26458333 -0.661459,1.190625 0.396876,7.6729167 7.9375,-1.984375 -0.132291,-6.3500001 z"
           id="path1717-6-9" />
      </g>
      <path
         style="fill:#fcfcfc;fill-opacity:1;stroke:none;stroke-width:5.32997;stroke-linecap:butt;stroke-linejoin:round;stroke-miterlimit:4;stroke-dasharray:none;stroke-opacity:1;opacity:1"
         d="m 68.988807,119.39118 15.989943,-10.65997 42.63985,-5.32998 21.31993,-15.989941 21.31992,-5.329981 69.28975,-10.659962 5.32998,10.659962 -45.30484,95.939662 -159.899399,39.97484 z"
         id="path1916"
         sodipodi:nodetypes="cccccccccc" />
      <g
         id="g22474">
        <path
           style="opacity:1;mix-blend-mode:normal;fill:url(#linearGradient2476);fill-opacity:1;stroke:none;stroke-width:5.32997;stroke-linecap:butt;stroke-linejoin:round;stroke-miterlimit:4;stroke-dasharray:none;stroke-opacity:1"
           d="m 68.988807,119.39118 15.989943,-10.65997 42.63985,-5.32998 21.31993,-15.989941 21.31992,-5.329981 69.28975,-10.659962 5.32998,10.659962 -45.30484,95.939662 -159.899399,39.97484 z"
           id="path2053-8"
           sodipodi:nodetypes="cccccccccc" />
        <path
           style="fill:none;fill-opacity:1;stroke:#ff5100;stroke-width:5.32997px;stroke-linecap:butt;stroke-linejoin:miter;stroke-opacity:1"
           d="m 197.55077,82.958923 2.0226,95.062037"
           id="path2078-1"
           sodipodi:nodetypes="cc" />
      </g>
      <path
         id="path22558"
         style="fill:url(#linearGradient33380);fill-opacity:1;fill-rule:evenodd;stroke:none;stroke-width:0.864987;filter:url(#filter22696)"
         d="m 152.0035,45.067622 c -19.03963,0 -28.83026,-11.849001 -44.86117,-12.775729 -18.44628,3.481446 -26.207621,22.576733 -26.207621,41.616372 0,18.910986 6.689158,35.119095 20.068361,48.626955 13.50786,13.3792 29.78263,20.07031 48.82226,20.07031 18.911,0 35.12107,-6.69111 48.62891,-20.07031 13.37922,-13.50786 15.40125,-30.343735 15.40125,-49.254721 0,-19.039639 -0.48173,-11.393982 -13.86095,-24.773189 C 186.4867,35.128106 170.9145,45.067622 152.0035,45.067622 Z"
         sodipodi:nodetypes="scscscscs" />
      <g
         transform="matrix(0.8649866,0,0,0.8649866,273.99385,53.177429)"
         id="g1296">
        <path
           d="m -217.41211,19.341771 q 0,32.794126 23.20129,56.218516 23.42439,23.20129 56.44161,23.20129 32.79415,0 56.218518,-23.20129 23.20131,-23.42439 23.20131,-56.218516 0,-33.017226 -23.20131,-56.218521 -23.424368,-23.201293 -56.218518,-23.201293 -33.01722,0 -56.44161,23.201293 -23.20129,23.201295 -23.20129,56.218521"
           id="path3998"
           style="fill:url(#gradient0-1);fill-rule:evenodd;stroke:none"
           inkscape:connector-curvature="0" />
        <path
           d="m -212.95032,19.341771 q 0,31.009416 21.86275,53.095266 22.08585,22.08585 53.31836,22.08585 31.00943,0 53.318368,-22.08585 21.86275,-22.08585 21.86275,-53.095266 0,-31.232512 -21.86275,-53.318359 -22.308938,-22.085846 -53.318368,-22.085846 -31.23251,0 -53.31836,22.085846 -21.86275,22.085847 -21.86275,53.318359"
           id="path4000"
           style="fill:url(#gradient1-6);fill-rule:evenodd;stroke:none"
           inkscape:connector-curvature="0" />
        <path
           transform="matrix(3.7818957,0,0,3.7818957,-225.48149,-69.053591)"
           d="M 20.951172,3.671875 V 3.7890625 H 20.833984 V 3.90625 h -0.472656 v 0.1191406 h -0.472656 v 0.1757813 h -0.117188 v 0.4726562 h 0.236328 v 0.1171875 h 1.060547 V 4.9101562 H 20.478516 V 5.1464844 H 20.361328 V 5.0273438 h -0.472656 v 0.2363281 h 0.11914 v 0.3535156 h -0.11914 v 0.2363281 h -0.234375 v 0.1171875 h -0.119141 v 0.1191407 h -0.117187 v 0.1171874 h -0.119141 v 0.2949219 h -0.175781 v 0.1191407 h -0.119141 v 0.234375 h 0.119141 v 0.1191406 h 0.294922 v 0.1171875 h 0.470703 v 0.1191406 h 0.472656 V 7.0917969 h 0.236328 V 6.7382812 h 0.117188 V 6.6210938 h 0.236328 V 6.5019531 h 0.117187 V 6.3847656 H 21.1875 V 6.2070312 h 0.117188 V 5.9707031 h 0.177734 V 5.8535156 h 0.470703 V 5.7363281 h 0.119141 v 0.234375 h -0.119141 v 0.2363281 h 0.355469 v 0.2949219 h 0.117187 V 6.6210938 H 22.308594 V 6.7382812 H 21.835938 V 6.8554688 H 21.71875 V 6.9746094 H 21.068359 V 7.0917969 H 20.951172 V 7.2109375 H 20.833984 V 7.328125 h 0.117188 V 7.4472656 H 21.1875 v 0.1171875 h 0.294922 v 0.1171875 h 0.117187 v 0.1191406 h -0.53125 V 8.1542969 H 21.1875 V 8.390625 h 0.765625 v 0.2949219 h 0.236328 V 8.5078125 h 0.353516 V 8.390625 h 0.945312 v 0.1171875 h 0.175781 v 0.1777344 h 0.119141 v 0.3535156 h 0.117188 V 9.15625 h 0.117187 v 0.945312 h -0.117187 v 0.117188 h -0.117188 v 0.117188 h 0.470703 v 0.11914 h -0.117187 v 0.117188 h 0.117187 v 0.11914 h 0.355469 v 0.175782 h 0.117187 v 0.11914 h -0.117187 v 0.117188 h -0.236328 v 0.236328 h -0.119141 v 0.117187 h -0.117187 v 0.119141 h 0.117187 v 0.470703 h 0.119141 v 0.236328 h 0.117187 v 0.236328 h 0.119141 v 0.236328 h 0.117187 v 0.117188 h 0.117188 v 0.294922 h 0.119141 v 0.11914 h 0.117187 v 0.117188 h 0.589844 v 0.117187 h 0.53125 v -0.353515 h 0.117187 v -0.41211 h 0.294922 v -0.353515 h 0.119141 v -0.236328 h 0.353516 v -0.119141 h 0.353515 v -0.117187 h 0.119141 v -0.119141 h 0.117187 v -0.117188 h 0.117188 v -0.236328 h 0.472656 v -0.117187 h 0.117187 v -0.119141 h 0.119141 v 0.119141 h 0.236328 v -0.119141 h 0.41211 v -0.117187 h 0.117187 v -0.117188 h 0.355469 v -0.11914 h 0.117187 v -0.294922 h 0.119141 V 10.101562 H 29.740234 V 9.9824219 H 29.623047 V 9.5117188 h 0.353515 V 9.3925781 H 30.09375 V 9.2753906 h 0.119141 V 9.15625 h 0.117187 V 9.0390625 h 0.119141 V 8.6855469 H 30.330078 V 8.5078125 H 30.212891 V 8.390625 h 0.589843 V 8.1542969 h -0.11914 V 8.0371094 H 30.566406 V 7.8007812 H 30.449219 V 7.5644531 H 30.09375 V 7.4472656 H 29.740234 V 7.9179688 H 29.623047 V 8.1542969 H 29.503906 V 7.6816406 H 29.386719 V 7.5644531 h 0.117187 V 7.2109375 h 0.236328 V 7.328125 h 0.236328 V 6.9746094 h 0.472657 V 6.7382812 H 30.330078 V 6.6210938 h -0.470703 v 0.234375 H 29.623047 V 6.9746094 H 29.503906 V 6.6210938 h 0.119141 V 6.5019531 h 0.943359 V 6.3847656 h 0.117188 V 6.2070312 H 30.09375 V 6.0898438 h 0.119141 V 5.8535156 h 0.117187 V 5.7363281 h 0.236328 V 5.6171875 h 0.117188 V 5.2636719 h 0.11914 V 5.0273438 H 30.566406 V 4.9101562 H 29.976562 V 5.2636719 H 29.859375 V 5.3808594 H 29.740234 V 5.5 H 29.503906 V 5.3808594 h 0.119141 V 5.2636719 h 0.117187 V 5.1464844 h 0.119141 V 4.7910156 H 29.150391 V 4.6738281 h 0.117187 V 4.4375 H 29.150391 V 4.3203125 h -0.53125 V 4.2011719 H 28.148438 V 4.0253906 H 27.675781 V 3.90625 H 26.318359 V 4.0253906 H 26.083984 V 4.2011719 H 25.669922 V 4.3203125 H 25.552734 V 4.4375 H 25.199219 V 4.5566406 H 25.080078 V 4.6738281 H 24.490234 V 4.7910156 H 23.900391 V 4.9101562 H 23.251953 V 5.0273438 H 22.898438 V 4.9101562 h 0.234374 V 4.7910156 h 0.236329 V 4.6738281 H 23.251953 V 4.5566406 h -0.119141 v -0.53125 H 23.015625 V 3.90625 H 22.898438 V 3.7890625 H 22.779297 V 3.671875 H 21.953125 V 3.7890625 H 21.599609 V 3.671875 Z M 18.177734,4.2011719 V 4.4375 H 18.060547 V 4.7910156 H 17.943359 V 4.6738281 H 17.707031 V 4.4375 h -0.472656 v 0.1191406 h -0.412109 v 0.1171875 h 0.294922 v 0.1171875 h 0.117187 v 0.1191406 h 0.236328 v 0.1171876 h 0.353516 V 4.9101562 h 0.11914 v 0.2363282 h 0.117188 v 0.1171875 h -0.117188 v 0.1171875 h 0.234375 v 0.2363281 h -0.117187 v 0.1191406 h 0.117187 v 0.3535157 h 0.826172 V 5.8535156 h 0.119141 V 5.7363281 h 0.175781 V 5.5 h 0.119141 V 5.1464844 H 19.123047 V 4.6738281 H 19.003906 V 4.5566406 H 18.886719 V 4.4375 H 18.533203 V 4.2011719 Z M 16.46875,4.6738281 v 0.1171875 h 0.117188 V 4.6738281 Z M 15.642578,5.0273438 V 5.1464844 H 15.289062 V 5.2636719 H 15.052734 V 5.5 h 0.470704 v 0.4707031 h 0.355468 v 0.1191407 h 0.117188 V 5.9707031 h 0.117187 v 0.1191407 h 0.119141 V 7.0917969 H 15.996094 V 7.328125 h -0.117188 v 0.1191406 h -0.11914 v 0.234375 h 0.11914 v 0.8261719 h 0.353516 V 8.1542969 h 0.117187 V 8.0371094 h 0.236329 V 7.9179688 h 0.117187 V 7.8007812 h 0.119141 V 7.4472656 h 0.117187 V 7.328125 h 0.884766 V 7.2109375 h 0.236328 V 7.328125 h 0.353515 v 0.4726562 h 1.240235 V 7.4472656 H 19.535156 V 7.2109375 H 18.767578 V 6.3847656 H 18.533203 V 6.2070312 H 18.060547 V 6.0898438 H 17.587891 V 6.2070312 H 17.117188 V 6.0898438 H 16.939453 V 5.9707031 H 16.703125 V 5.7363281 H 16.585938 V 5.5 H 16.113281 V 5.3808594 H 15.996094 V 5.2636719 H 15.759766 V 5.0273438 Z M 14.521484,5.5 V 5.6171875 H 14.285156 V 5.7363281 H 14.048828 V 5.8535156 H 13.8125 v 0.1171875 h 0.119141 v 0.1191407 h 0.236328 v 0.1171874 h 0.117187 v 0.2949219 h 0.119141 v 0.1191407 h 0.412109 v 0.1171874 h 0.707032 V 6.6210938 h 0.236328 v -0.53125 H 14.933594 V 6.3847656 H 14.816406 V 5.7363281 h 0.117188 V 5.5 Z m -1.533203,0.8847656 v 0.1171875 h -0.236328 v 0.1191407 h -0.119141 v 0.1171874 h -0.294921 v 0.1171876 h -0.117188 v 0.1191406 h -0.236328 v 0.1171875 h 0.236328 V 7.328125 h 0.648438 V 7.2109375 h 0.472656 V 7.0917969 h 0.236328 V 6.8554688 h 0.117187 V 6.6210938 H 13.578125 V 6.5019531 H 13.222656 V 6.3847656 Z m 1.179688,0.5898438 V 7.0917969 H 14.048828 V 7.5644531 H 13.695312 V 7.9179688 H 13.8125 v 0.1191406 h 0.119141 v 0.1171875 h 0.117187 V 8.390625 h 0.236328 v 0.1171875 h 0.648438 V 8.390625 h 0.11914 v 0.2949219 h -0.11914 V 8.8027344 H 14.816406 V 9.0390625 H 14.521484 V 9.2753906 H 14.285156 V 8.921875 H 13.931641 V 8.8027344 H 13.578125 V 8.5078125 H 13.458984 V 7.8007812 H 13.341797 V 7.6816406 h -0.353516 v 0.1191406 h -0.11914 V 7.6816406 h -0.53125 V 7.5644531 H 11.984375 V 7.8007812 H 11.867188 V 7.4472656 H 11.630859 V 7.328125 h -0.117187 v 0.1191406 h -0.119141 v 0.234375 H 11.277344 V 7.5644531 h -0.119141 v 0.1171875 h -0.117187 v 0.1191406 h -0.117188 v 0.1171876 h -0.11914 V 8.0371094 H 10.568359 V 8.1542969 H 10.451172 V 8.2714844 H 10.6875 V 8.1542969 h 0.117188 V 8.390625 h 0.11914 v 0.4121094 h 0.234375 V 8.921875 h 0.472656 V 8.8027344 h 0.236329 V 8.921875 h 0.236328 v 0.1171875 h -0.945313 v 0.3535156 h 0.119141 v 0.1191407 h 0.353515 v 0.1171874 h 0.117188 v 0.1171876 h 0.589844 V 9.6289062 h 0.65039 V 9.5117188 h 0.353516 v 0.1171874 h 0.589844 V 9.5117188 h 0.117187 V 9.2753906 h 0.119141 v 0.3535156 h 0.236328 v 0.1171876 h 0.234375 V 9.6289062 h 0.294922 v 0.1171876 h 0.11914 v 0.2363281 h 0.117188 v 0.1191401 h 0.11914 v 0.234376 h -0.11914 v 0.11914 h -0.353516 v -0.11914 h 0.117188 v -0.234376 h -0.765625 v 0.353516 h -0.472657 v 0.117188 h -0.117187 v -0.117188 h -0.119141 v -0.11914 H 13.341797 V 10.21875 H 12.988281 V 9.9824219 h -0.11914 V 9.8652344 h -0.117188 v 0.1171875 h -0.53125 v 0.1191401 h -0.117187 v 0.353516 h 0.117187 v 0.117188 h -0.117187 v 0.11914 h -0.119141 v -0.236328 h -0.117187 v -0.11914 h -0.236329 v 0.11914 h -0.589843 v -0.11914 h 0.117187 V 9.9824219 H 11.041016 V 9.8652344 H 10.923828 V 9.7460938 H 10.6875 V 9.9824219 H 10.568359 V 9.8652344 H 10.451172 V 9.7460938 H 10.273438 V 9.6289062 H 10.039062 V 9.5117188 H 9.8027344 V 9.3925781 L 8.9785156,9.390625 c -0.1868005,0.1739836 -0.865643,0.868616 -1.8261718,2.125 -0.6581834,0.860909 -1.2548088,1.80467 -1.515625,2.355469 l 0.1542968,0.0059 v 0.234375 h 0.1171875 v 0.119141 h 0.1191407 v 0.117187 h 0.53125 v 0.119141 h 0.3535156 v 0.117187 h 0.1171875 v 0.117188 H 7.1484375 V 14.9375 h 0.234375 v 0.414062 h 0.1191406 v 0.117188 h 0.2363281 v 0.117188 H 7.6191406 v 0.355468 h 0.1191406 v 0.41211 h 0.1171876 v 0.117187 h 0.1171874 v 0.119141 h 0.1191407 v 0.236328 h 0.1757812 v 0.117187 h 0.2363281 v 0.117188 h 0.1191407 v 0.119141 H 8.859375 v 0.117187 h 0.1171875 v 0.119141 H 9.09375 v 0.884765 H 8.9765625 v 0.589844 H 8.859375 v 1.179687 h 0.1171875 v 0.236329 H 9.09375 v 0.294921 h 0.1191406 v 0.117188 h 0.1171875 v 0.236328 h 0.2363281 v 0.236328 h 0.1171876 v 0.117188 h 0.1191406 v 0.117187 H 10.15625 v 0.119141 h 0.117188 v 0.353516 h 0.177734 v 0.117187 h 0.117187 v 0.236328 H 10.6875 v 0.119141 h 0.117188 v 0.294922 h 0.11914 v 0.236328 h 0.234375 v 0.117187 h 0.119141 v 0.117188 h 0.117187 v 0.236328 h 0.119141 v 0.119141 h 0.117187 v 0.234374 h 0.236329 v 0.119141 h 0.353515 v -0.236328 h -0.117187 v -0.117187 h -0.119141 v -0.236329 h -0.117187 v -0.11914 h -0.119141 v -0.234375 h 0.236328 v 0.234375 h 0.119141 v 0.11914 h 0.234375 v 0.236329 h 0.294921 v 0.117187 h 0.119141 v 0.117187 h 0.117188 v 0.472657 h 0.11914 v 0.353515 h 0.234375 v 0.119141 h 0.472656 v 0.175781 h 0.236329 v 0.119141 h 0.589843 v 0.234375 h 1.357422 v 0.11914 h 0.117188 V 25.4375 h 0.117187 v 0.119141 h 0.119141 v 0.117187 h 0.353516 v 0.117188 h 0.236328 v 0.11914 h 0.117187 v 0.236328 h 0.177735 V 26.5 h 0.236328 v 0.117188 h 0.824218 v 0.11914 h 0.472657 v 0.117188 h 0.117187 v 0.53125 h -0.117187 v 0.236328 h -0.117188 v 0.234375 h -0.119141 v 0.355469 h -0.117187 v 0.236328 h -0.236328 v 0.117187 h -0.117188 v 0.472656 h -0.11914 v 0.294922 h 0.11914 v 0.353516 h 0.117188 v 0.117187 h 0.117187 v 0.119141 h 0.119141 v 0.234375 h 0.117187 v 0.236328 h 0.119141 v 0.589844 h 0.117188 v 0.11914 h 0.117187 v 0.117188 h 0.119141 v 0.117188 h 0.117187 v 0.177734 h 0.294922 v 0.117187 h 0.236328 V 31.75 h 0.119141 v 0.117188 h 0.117187 v 0.11914 h 0.117188 v 1.945313 h -0.117188 v 0.355468 h -0.117187 v 0.824219 h -0.119141 v 0.650391 h -0.117187 v 0.353515 H 19.298828 V 37 h 0.119141 v 0.117188 h -0.119141 v 0.236328 h -0.175781 v 0.236328 h 0.175781 v 0.943359 h -0.175781 v 0.119141 h -0.119141 v 0.529297 h -0.117187 v 1.416015 h 0.117187 v 0.119141 h 0.119141 v 0.117187 h 0.175781 v 0.117188 h 0.236328 v -0.117188 h 0.236328 v 0.117188 h 0.117188 v 0.294922 h -0.234375 v 0.355468 h 0.234375 v 0.234376 h 0.472656 v 0.11914 h 0.236328 v -0.11914 h 0.236328 v 0.11914 h 0.234375 V 41.71875 H 21.1875 v -0.353516 h -0.119141 v -0.11914 h -0.117187 v -0.117188 h -0.353516 v -0.177734 h -0.11914 v -0.117188 h -0.117188 v -0.472656 h -0.117187 v -0.234375 h 0.117187 v -0.119141 h 0.117188 v -0.236328 h 0.11914 v -0.117187 h 0.117188 v -0.117188 h 0.11914 v -0.589843 h -0.236328 v -0.414063 h 0.236328 v -0.117187 h 0.117188 v -0.355469 h 0.117187 V 37.826172 H 21.1875 v -0.355469 h -0.119141 v -0.117187 h 0.414063 v -0.236328 h 0.117187 v -0.353516 h 0.353516 v 0.117187 h 0.236328 v -0.117187 h 0.236328 v -0.117188 h 0.117188 v -0.767578 h -0.117188 v -0.117187 h 0.707031 v -0.177735 h 0.119141 v -0.236328 h 0.117188 v -0.236328 h 0.11914 v -0.234375 h 0.175781 v -0.355469 h 0.119141 v -0.117187 h 0.117188 v -0.236328 h 0.117187 v -0.236328 h 0.119141 v -0.41211 h 0.117187 v -0.117187 h 0.119141 v -0.119141 h 0.236328 v -0.236328 h 0.470703 v -0.117187 h 0.236328 v -0.119141 h 0.117188 v -0.117188 h 0.11914 v -0.117187 h 0.117188 v -0.119141 h 0.11914 v -0.236328 h 0.175782 v -0.589844 h 0.11914 v -0.529297 h 0.117188 v -0.236328 h 0.117187 V 30.628906 H 26.4375 v -0.117187 h 0.175781 v -0.236328 h 0.119141 V 30.15625 h 0.117187 v -1.001953 h -0.236328 v -0.117188 h -0.294922 v -0.11914 h -0.117187 v -0.117188 h -0.41211 v -0.11914 h -0.472656 v -0.117188 h -0.353515 v -0.353515 h -1.0625 v -0.589844 h -0.117188 v -0.119141 h -0.119141 v -0.117187 h -0.175781 v -0.119141 h -0.236328 v -0.117187 h -0.119141 v -0.177735 h -0.470703 v -0.117187 h -0.236328 v -0.117188 h -0.117187 v -0.11914 H 22.189453 V 26.5 h -0.117187 v -0.119141 h -0.119141 v -0.117187 h -0.117187 v -0.117188 h -0.236329 v -0.11914 h -0.765625 v 0.11914 h -0.11914 v -0.11914 h -0.117188 v -0.117188 h -0.236328 v -0.236328 h -0.589844 v 0.117188 h -0.236328 v 0.11914 h -0.412109 v 0.117188 h -0.119141 v 0.236328 h -0.117187 v 0.117187 h -0.119141 v -0.117187 h -0.470703 v 0.117187 h -0.236328 v -0.117187 h -0.236328 v -0.117188 h -0.117188 v -0.236328 h -0.11914 v -0.11914 h 0.11914 v -0.824219 h -0.767578 v -0.767578 h 0.177735 V 23.845703 H 16.46875 v 0.117188 h -0.355469 v 0.236328 h -0.117187 v 0.117187 h -0.236328 v 0.119141 H 15.40625 v -0.119141 h -0.353516 v -0.117187 h -0.11914 v -0.353516 h -0.117188 v -0.236328 h -0.177734 v -0.353516 h -0.117188 v -0.472656 h 0.117188 v -0.117187 h 0.177734 v -0.177735 h 0.236328 v -0.117187 h 1.060547 v -0.119141 h 1.121094 v 0.119141 h 0.119141 v 0.412109 h 0.117187 v 0.236328 h 0.117188 v 0.117188 h 0.11914 v 0.11914 h 0.117188 v 0.117188 h 0.353515 v -0.117188 h 0.119141 v -0.353515 h -0.119141 v -0.236328 h -0.117187 v -0.294922 h -0.117188 v -0.472656 h 0.117188 v -0.236329 h 0.236328 v -0.117187 h 0.117187 v -0.119141 h 0.119141 v -0.234375 h 0.234375 v -0.11914 h 0.119141 v -0.117188 h 0.117187 V 20.71875 h -0.117187 v -0.117188 h 0.236328 v -0.294921 h 0.294922 v -0.708985 h 0.826172 v -0.117187 h 0.117187 V 19.361328 H 20.244141 V 19.244141 H 20.125 v -0.117188 h 0.119141 v -0.119141 h 0.117187 v -0.117187 h 0.236328 v 0.117187 h 0.470703 v -0.117187 h 0.236329 v -0.119141 h 0.294921 v -0.234375 h -0.117187 v -0.11914 h -0.177734 v -0.117188 h -0.236329 v -0.177734 h -0.117187 v -0.353516 h 0.117187 v -0.472656 h -0.353515 v 0.119141 h -0.117188 v -0.119141 h 0.117188 v -0.117187 h 0.884765 v -0.119141 h 0.353516 v 0.119141 h 0.236328 v -0.119141 h 0.119141 v -0.117188 h 0.117187 v -0.117187 h 0.117188 v -0.119141 h 0.236328 v -0.117187 h 0.119141 v -0.472656 h -0.119141 v -0.294922 h -0.117188 v -0.117188 h -0.11914 v -0.11914 H 22.072266 V 15.46875 H 21.953125 V 15.056641 H 21.835938 V 14.9375 H 21.71875 V 14.701172 H 21.599609 V 14.347656 H 21.482422 V 14.111328 H 21.304688 V 13.876953 H 21.1875 v -0.236328 h -0.236328 v 0.117187 h -0.117188 v 0.353516 h -0.236328 v 0.119141 H 20.244141 V 14.111328 H 20.125 v -0.824219 h -0.236328 v -0.11914 h -0.117188 v -0.117188 h -0.117187 v -0.177734 h -0.767578 v -0.117188 h -0.119141 v -0.11914 h 0.355469 v -0.470703 h -0.236328 v 0.117187 h -0.119141 v 0.119141 h -0.234375 v -0.119141 h -0.119141 v -0.117187 h -0.117187 v -0.236328 h -0.236328 v -0.119141 h -0.117188 v -0.117188 h -0.236328 v -0.236328 h -0.11914 v 0.119141 h -0.117188 v 0.117187 h -0.236328 v 0.236329 h -0.117187 v 0.353515 h 0.236328 v 0.236328 h 0.353515 v -0.117187 h 0.117188 v -0.119141 h 0.236328 v 0.119141 h 0.236328 v 0.648437 h -0.119141 v 0.470703 h 0.119141 v 0.355469 h -0.119141 v 0.707031 h 0.119141 v 0.472657 h 0.117187 v 0.175781 h -0.117187 v 0.11914 h -0.119141 v 0.117188 h -0.117187 v 0.117188 h -0.117188 v 0.884765 h 0.117188 v 0.236328 h -0.117188 v 0.119141 h -0.11914 v -0.119141 h -0.117188 v -0.236328 h -0.11914 v -0.117187 h -0.117188 v -0.41211 H 17.353516 V 15.585938 H 17.234375 V 15.46875 h -1.121094 v -0.117188 h -0.117187 v -0.11914 h -0.117188 v -0.41211 h -0.11914 V 14.583984 H 15.523438 V 14.466797 H 15.40625 v -0.236328 h -0.117188 v 0.117187 h -0.11914 v -0.117187 h -0.117188 v -0.119141 h -0.11914 v -0.234375 h 0.11914 v -0.355469 h 0.117188 v -0.117187 h 0.11914 v -0.117188 h 0.117188 v -0.11914 h 0.117188 v -0.294922 h 0.236328 v -0.117188 h 0.589843 v -0.589843 h 0.119141 v -0.236328 h 0.117188 v -0.119141 h 0.117187 V 11.457031 H 16.46875 v -0.117187 h 0.353516 v 0.117187 h 0.294922 v -0.117187 h 0.470703 v -0.236328 h 0.11914 v -0.117188 h 0.117188 v -0.65039 H 17.587891 V 10.21875 h 0.11914 v -0.117188 h 0.117188 V 9.7460938 H 17.587891 V 9.3925781 h -0.648438 v 0.3535157 h 0.177735 V 9.8652344 H 16.939453 V 9.9824219 H 16.822266 V 10.335938 H 16.703125 V 10.21875 H 16.585938 V 9.7460938 H 16.349609 V 9.8652344 H 16.232422 V 9.7460938 H 15.878906 V 9.15625 h -0.11914 V 8.6855469 h -0.117188 v -0.53125 h -0.589844 v -1.0625 h -0.11914 V 6.9746094 Z m 3.539062,5.5449216 v 0.236328 h 0.470703 V 12.519531 Z M 18.177734,8.1542969 V 8.5078125 H 18.060547 V 8.921875 H 17.943359 V 9.15625 h 0.117188 v 0.1191406 h 0.117187 v 0.2363282 h 0.119141 v 0.3535156 h 0.236328 v 0.1171875 h 0.234375 v 0.4726561 h 0.236328 v 0.117188 h 0.119141 v -0.117188 h 0.175781 V 9.9824219 h 0.236328 v 0.1191401 h 0.353516 v 0.117188 h 0.11914 v 0.117188 H 20.125 v 0.11914 h 0.119141 v 0.648438 H 20.125 v 0.353515 h -0.117188 v 0.119141 h -0.11914 v -0.119141 h -0.234375 v 0.236328 h -0.119141 v 0.236329 h 0.119141 v 0.117187 h 0.589844 v 0.119141 h 0.234375 v 0.236328 h 0.11914 v 0.117187 h 0.236328 v 0.117188 h 0.117188 v 0.11914 h 0.353516 v -0.236328 h 0.177734 v 0.117188 h 0.236328 v -0.470703 h -0.119141 v -0.236328 h -0.117187 v -0.119141 h 0.117187 v -0.117188 h 0.353516 v -0.117187 h 0.236328 V 11.339844 H 22.072266 V 10.986328 H 21.71875 v -0.294922 h -0.119141 v -0.11914 h -0.294921 v -0.117188 h -0.236329 v -0.11914 h 0.236329 V 9.7460938 H 21.068359 V 9.5117188 H 20.951172 V 9.3925781 H 20.714844 V 9.15625 H 20.361328 V 8.921875 H 20.244141 V 8.8027344 H 19.535156 V 8.6855469 H 19.298828 V 8.5078125 h 0.119141 V 8.390625 H 19.298828 V 8.1542969 Z m 19.884766,1.9453121 -0.181641,0.002 v 0.117188 h -0.117187 v 0.236328 h -0.177734 v 0.41211 H 37.46875 v 0.236328 h -0.119141 v 0.236328 h -0.117187 v 0.353515 h -0.236328 v 0.236329 h -0.117188 v 0.236328 h -0.11914 v 0.236328 h -0.117188 v 0.117187 h -0.11914 v 0.117188 H 36.40625 v 0.11914 h -0.117188 v 0.117188 h -0.11914 v 0.177734 h -0.117188 v 0.117188 h -0.236328 v 0.11914 h -0.117187 v 0.117188 h -0.119141 v 0.117187 h -0.294922 v 0.119141 h 0.177735 v 0.117187 h -0.177735 v 0.353516 h 0.177735 v 0.472656 h -0.177735 v 0.236328 h 0.177735 v 0.41211 h 0.117187 v 0.11914 h 0.589844 v -0.11914 h 0.11914 v -0.175781 h 0.117188 v -0.236329 h 0.117188 v -0.11914 h 0.11914 v -0.117188 h 0.117188 v 0.472657 h -0.117188 v 0.294921 h 0.117188 v 0.353516 h 0.11914 v 0.236328 h 0.117188 v 0.175782 h 0.472656 v -0.175782 h 0.294922 v -0.236328 h 0.117187 v -0.353516 h 0.117188 v -0.294921 h 0.119141 v -0.236329 h 0.117187 v -0.11914 h 0.119141 v -0.470703 h -0.236328 v -0.708985 h 0.117187 v -0.117187 h 0.119141 v -0.117188 h 0.234375 v -0.11914 h 0.11914 v 1.179687 h 0.117188 v 0.119141 h 0.236328 v 0.117187 h 0.117187 v 0.117188 h -0.117187 v 0.53125 h 0.117187 v 0.236328 h -0.117187 v -0.117188 h -0.117188 v -0.11914 h -0.11914 v 0.11914 h -0.117188 v 0.117188 h -0.11914 v 0.117188 h -0.117188 v 0.355468 h -0.117187 v 0.294922 h -0.236328 v 0.117188 h -0.119141 v -0.117188 h -0.234375 v 0.117188 h -0.177734 v 0.117187 h -0.472657 v -0.117187 h -0.589843 v -0.53125 h 0.11914 v -0.236328 h -0.11914 V 15.232422 H 36.40625 v 0.11914 h -0.236328 v 0.117188 h -0.117188 v 0.117188 h -0.11914 v 0.53125 h 0.11914 v 0.472656 h -0.236328 v 0.117187 h -0.53125 v 0.236328 h -0.117187 v 0.236329 h -0.119141 v 0.117187 h -0.117187 v 0.119141 H 34.8125 v -0.472657 h -0.117188 v -0.117187 h -0.117187 v -0.119141 h -0.119141 v -0.236328 h -0.117187 v -0.117187 h -0.119141 v -1.001954 h -0.353515 v -0.11914 h -0.117188 v -0.175781 h 0.117188 V 14.820312 H 33.398438 V 14.9375 h -0.119141 v 0.414062 h -0.175781 v 0.470704 h 0.175781 v 0.294922 h -0.765625 v 0.353515 h -0.119141 v -0.117187 h -0.236328 v 0.117187 h -0.117187 v 0.236328 h 0.236328 v 0.708985 h 0.470703 v -0.119141 h 0.355469 v -0.117187 h 0.175781 v 0.117187 h 0.236328 v 0.119141 h -0.236328 v 0.117187 h -0.175781 v 0.119141 h -0.119141 v 0.234375 h 0.53125 v -0.117188 h 0.472656 v 0.117188 h -0.355469 v 0.11914 h -0.234374 v 0.41211 h 0.234374 v 0.11914 h 0.119141 v 0.117188 h 0.117188 v 0.117187 h 0.11914 v 0.708985 h -1.121093 v -0.119141 h -0.236329 v 0.119141 h -0.236328 v 1.710937 h 0.236328 v 0.234375 h 0.117188 v 0.119141 h -0.117188 v 0.353516 h -0.117187 v 0.117187 h -0.119141 v 0.119141 h -0.117187 v 0.236328 h -0.119141 v 0.294922 h -0.117187 v 0.117187 h -0.117188 v 0.119141 h -0.11914 v 0.117187 h -0.236329 v 0.117188 h -0.117187 v 0.11914 h -0.117188 v 0.236329 h -0.414062 v 0.589843 h -0.236328 v 0.117188 h -0.117188 v 0.236328 h -0.117187 v 0.117187 h 0.117187 v 0.53125 h 0.117188 v 0.236328 H 30.566406 V 25.4375 h -0.117187 v 0.708984 h 0.117187 v 0.117188 h 0.117188 v 0.117187 h 0.11914 V 26.5 h 0.117188 v 0.117188 h 0.294922 v 0.11914 h 0.11914 v 0.117188 h 0.117188 v 0.294922 h 0.117187 v 0.236328 h 0.236329 v 0.117187 h 0.11914 v 0.119141 h 0.117188 v 0.117187 h 0.117187 v 0.117188 h 0.708985 v -0.117188 h 0.884765 v 0.117188 h 0.117188 v -0.117188 h 0.472656 v -0.117187 h 0.589844 v 0.117187 h 0.236328 v 0.117188 h 0.765625 v 0.11914 h 0.11914 v 0.353516 h -0.11914 v 0.236328 h -0.117188 v 0.472656 h 0.117188 v 0.117188 h 0.236328 v 0.412109 h 0.11914 v 0.119141 h 0.117188 v 0.470703 h 0.117188 v 0.119141 h 0.11914 v 0.236328 h 0.117188 v 0.353515 h -0.117188 v 0.117188 h -0.11914 v 0.11914 h 0.11914 v 0.234376 H 36.40625 v 0.53125 h -0.117188 v 0.353515 h 0.117188 v 0.236328 h 0.117188 v 0.236328 h 0.11914 v 0.353516 h 0.117188 v 0.355469 h 0.11914 v 0.412109 h 0.117188 v 0.236328 h 0.117187 v 0.470703 h 0.119141 v 0.119141 h 0.117187 v 0.117187 h 0.119141 v 0.236329 h 0.117188 v 0.589843 h 0.294921 v 0.177735 h 0.589844 v -0.177735 l 0.451172,0.0039 c 1.282242,-1.728743 4.152344,-5.310135 4.152344,-12.242188 0,-6.932053 -3.003538,-10.928835 -5.011719,-13.246094 z m -19.175781,0.002 h 0.117187 v 0.234376 h -0.117187 z m 10.146484,0.353516 h 0.117188 v 0.117188 h -0.117188 z m -7.964844,0.884766 H 21.1875 v 0.236328 h -0.119141 z m 8.435547,0.117187 v 0.119141 h -0.117187 v 0.234375 h -0.119141 v 0.236328 h 0.236328 v 0.119141 h -0.117187 v 0.117187 h -0.119141 v 0.236328 h 0.355469 v 0.117188 h 0.236328 v 0.11914 h 0.117187 v 0.117188 h 0.353516 v 0.177734 h 0.589844 V 12.873047 H 31.6875 v -0.117188 h 0.236328 v -0.11914 h 0.234375 v -0.117188 h 0.119141 v -0.117187 h 0.117187 v -0.355469 h -0.117187 v -0.117187 h -0.119141 v -0.119141 h -0.117187 v -0.117188 h -0.117188 v -0.117187 h -0.472656 v 0.117187 h -0.648438 v -0.117187 h -0.472656 v 0.117187 h -0.117187 v 0.117188 H 30.09375 v -0.117188 h -0.117188 v -0.117187 h -0.117187 v -0.119141 z m 9.556641,0.826172 h 0.353515 v 0.236328 h -0.117187 v 0.117188 h -0.119141 v 0.11914 h -0.117187 v 0.117188 h -0.117188 v 0.177734 h -0.11914 v -0.53125 h 0.11914 v -0.117187 h 0.117188 z m 0.707031,2.064453 H 40.0625 v 0.119141 h -0.117188 v 0.117187 h -0.53125 v -0.117187 h 0.353516 z m -6.36914,2.123047 h 0.234374 v 0.236328 h -0.353515 v -0.117187 h 0.119141 z m -13.03711,0.945313 h 0.117188 V 17.53325 H 20.361328 Z M 20.125,17.533203 h 0.119141 v 0.119141 H 20.125 Z m -4.011719,0.119141 h 0.355469 v 0.117187 h 0.117188 v 0.117188 h 0.236328 v 0.11914 H 16.46875 v -0.11914 h -0.119141 v 0.11914 h -0.470703 v -0.11914 h 0.117188 v -0.117188 h 0.117187 z m 18.699219,0 h 0.236328 v 0.234375 h 0.119141 v 0.11914 h -0.826172 v -0.11914 h 0.236328 V 17.769531 H 34.8125 Z m -1.060547,0.470703 h 0.236328 v 0.414062 h -0.11914 v -0.11914 h -0.117188 z m -16.517578,0.177734 h 0.472656 v 0.117188 h 0.117188 v 0.11914 h -0.117188 v -0.11914 h -0.11914 v 0.353515 h -0.117188 v -0.353515 h -0.236328 z m 0.708984,0.117188 h 0.117188 v 0.11914 h -0.117188 z m -1.240234,0.236328 h 0.119141 v 0.236328 h -0.119141 v 0.353516 H 16.46875 v -0.117188 h 0.117188 v -0.355469 h 0.117187 z m 1.59375,0 h 0.236328 v 0.117187 h -0.119141 v 0.236328 h -0.117187 v 0.119141 h -0.119141 v 0.117188 h -0.470703 v -0.117188 h 0.117188 v -0.119141 h 0.472656 z m 0.470703,0 h 0.119141 v 0.117187 h -0.119141 z m 18.582031,0.943359 h 0.236329 v 0.119141 h 0.177734 v 0.117187 h 0.117187 v 0.117188 h 0.236329 v 0.11914 h 0.117187 v 0.41211 h 0.119141 v 0.472656 h 0.117187 v 0.236328 h 0.117188 v 0.117188 h 0.11914 v 0.117187 h 0.353516 v -0.234375 h 0.117187 v -0.11914 h 0.119141 v -0.470704 h 0.117187 v -0.11914 h 0.119141 v 0.472656 h 0.117188 v 0.117188 h 0.117187 v 0.236328 h 0.177734 v 0.117187 h 0.236329 v 0.119141 h 0.472656 v -0.119141 h 0.117187 v 0.119141 h 0.589844 v 0.117187 h 0.117188 v 0.236329 h -0.117188 v 0.117187 h -0.117187 v 0.236328 H 41.125 v 0.119141 h -0.117188 v 0.117187 h -1.357421 v -0.117187 h -0.589844 v -0.119141 h -0.826172 v 0.119141 h -0.117187 v 0.294922 h 0.117187 v 0.117187 H 37.880859 V 22.666016 H 37.585938 V 22.488281 H 37.46875 v -0.236328 h -0.119141 v -0.117187 h -0.353515 v -0.119141 h -0.353516 v -0.117187 h -0.11914 V 21.191406 H 36.40625 v -0.11914 h -1.121094 v 0.11914 h -0.826172 v 0.117188 h -0.236328 v -0.472656 h 0.119141 V 20.71875 h 0.117187 v -0.412109 h 0.236328 V 20.1875 h 0.353516 v -0.117188 h 0.119141 v -0.353515 h 0.117187 v 0.117187 h 0.53125 v -0.117187 h 0.236328 v 0.353515 h -0.11914 v 0.765626 h 0.355468 V 20.71875 h 0.117188 v -0.884766 h 0.117188 v 0.117188 h 0.236328 V 20.1875 h 0.11914 v 0.119141 h 0.234375 v 0.529297 h -0.353515 v 0.236328 h 0.11914 v 0.11914 h 0.470703 v 0.117188 h 0.119141 v -0.236328 h 0.294922 v -0.117188 h 0.234375 v -0.11914 h 0.119141 v -0.529297 h -0.119141 v -0.236329 h -0.234375 v -0.11914 h -0.177734 v -0.117188 h -0.236329 z m -2.654297,0.884766 v 0.236328 h 0.353516 v -0.236328 z m -1.179687,0.708984 h 0.472656 v 0.234375 h -0.236328 v 0.119141 h -0.472656 v -0.119141 h -0.294922 v -0.117187 h 0.53125 z m -22.357422,1.060547 h 0.119141 v 0.119141 h -0.119141 z m 26.074219,0.119141 h 0.117187 v 0.117187 h -0.117187 z m -18.699219,0.412109 v 0.119141 h 0.470703 v -0.119141 z m 0.589844,0 v 0.472656 h 0.175781 v -0.11914 h 0.119141 V 22.783203 Z M 40.0625,22.902344 h 0.119141 v 0.117187 h 0.117187 v 0.117188 h 0.119141 v 0.11914 h 0.117187 v 0.236329 H 40.298828 V 23.373047 H 40.0625 Z m -21.175781,0.470703 v 0.236328 h 0.117187 v 0.236328 h 0.294922 v -0.472656 z m 0.117187,0.472656 h -0.236328 v -0.119141 h -0.353516 v -0.117187 h -0.353515 v -0.117187 h -0.472656 v 0.117187 h -0.234375 v 0.353516 h 0.353515 v -0.117188 h 0.117188 v 0.117188 h 0.353515 v 0.11914 h 0.119141 v 0.117188 h 0.236328 v 0.117187 h 0.353516 v 0.53125 h 0.236328 v -0.294922 h -0.119141 v -0.117187 h 0.294922 v 0.236328 h 0.355469 v 0.175781 H 20.125 v -0.175781 h 0.353516 v -0.355469 h -0.234375 v -0.117187 h -0.236329 v -0.236328 h -0.472656 v 0.11914 h -0.236328 v -0.11914 h -0.294922 z m 0.414063,-0.472656 v 0.236328 h 0.470703 v -0.236328 z m 21.707031,0 h 0.236328 v 0.119141 h 0.117188 v 0.117187 h 0.11914 v 0.236328 h 0.117188 v 0.117188 h 0.11914 v 0.236328 h 0.117188 v 0.236328 h 0.177734 v 0.236328 h 0.117188 v 0.175781 h 0.117187 v 0.119141 h 0.119141 v 0.353515 h 0.117187 V 25.4375 h 0.119141 v 0.353516 h 0.117188 v 0.236328 H 42.71875 v -0.117188 h -0.236328 v -0.11914 H 42.363281 V 25.673828 H 42.246094 V 25.4375 h -0.294922 v -0.470703 h -0.117188 v -0.294922 h -0.11914 v -0.236328 h -0.117188 v -0.236328 h -0.11914 V 23.962891 H 41.361328 V 23.726562 H 41.244141 V 23.492188 H 41.125 Z m -12.091797,0.826172 v 0.236328 h -0.119141 v 0.412109 h 0.236329 v -0.175781 h 0.117187 v -0.236328 h 0.119141 v -0.236328 z m -8.435547,0.236328 v 0.412109 h 0.470703 v -0.175781 h 0.414063 v -0.236328 z m 1.001953,0.117187 v 0.119141 h 0.119141 v -0.119141 z m 0.236329,0 v 0.119141 h 0.117187 v -0.119141 z m 0,0.294922 v 0.119141 H 21.71875 v 0.589844 h 0.117188 v 0.117187 h 0.236328 v -0.826172 z m 1.828124,3.363282 h 0.119141 v 0.117187 h -0.119141 v 0.119141 h -0.175781 v -0.119141 h 0.175781 z"
           style="fill:url(#gradient2-62);fill-rule:evenodd;stroke:none;stroke-width:0.264418"
           id="path4002" />
        <path
           inkscape:connector-curvature="0"
           style="fill:url(#radialGradient1624);fill-opacity:1;fill-rule:evenodd;stroke:none"
           id="path1614"
           d="m -212.95032,19.341771 q 0,31.009416 21.86275,53.095266 22.08585,22.08585 53.31836,22.08585 31.00943,0 53.318368,-22.08585 21.86275,-22.08585 21.86275,-53.095266 0,-31.232512 -21.86275,-53.318359 -22.308938,-22.085846 -53.318368,-22.085846 -31.23251,0 -53.31836,22.085846 -21.86275,22.085847 -21.86275,53.318359" />
      </g>
      <g
         id="g22468">
        <path
           style="opacity:0.75;mix-blend-mode:normal;fill:url(#linearGradient2476);fill-opacity:1;stroke:none;stroke-width:5.32997;stroke-linecap:butt;stroke-linejoin:round;stroke-miterlimit:4;stroke-dasharray:none;stroke-opacity:1"
           d="m 68.988807,119.39118 15.989943,-10.65997 42.63985,-5.32998 21.31993,-15.989941 21.31992,-5.329981 69.28975,-10.659962 5.32998,10.659962 -45.30484,95.939662 -159.899399,39.97484 z"
           id="path2326"
           sodipodi:nodetypes="cccccccccc" />
        <path
           style="fill:none;stroke:#fff9ec;stroke-width:5.32997px;stroke-linecap:butt;stroke-linejoin:miter;stroke-opacity:1"
           d="m 241.40601,76.264406 -71.14757,11.146885 -19.85768,4.869409 -20.5072,15.93052 -43.095703,5.21959 -13.648251,9.0686 -27.217977,93.06797"
           id="path2069-3"
           sodipodi:nodetypes="ccccccc" />
        <path
           sodipodi:nodetypes="cccccccccc"
           id="path2071-1"
           d="m 68.988807,119.39118 15.989943,-10.65997 42.63985,-5.32998 21.31993,-15.989941 21.31992,-5.329981 69.28975,-10.659962 5.32998,10.659962 -45.30484,95.939662 -159.899399,39.97484 z"
           style="fill:none;fill-opacity:1;stroke:#cc9900;stroke-width:5.32997;stroke-linecap:butt;stroke-linejoin:round;stroke-miterlimit:4;stroke-dasharray:none;stroke-opacity:1" />
      </g>
    </g>
  </g>
</svg>
