<svg version="1.1" viewBox="0 0 256 256" xmlns="http://www.w3.org/2000/svg" xmlns:xlink="http://www.w3.org/1999/xlink"><defs><linearGradient id="linearGradient2981" x1="16.7" x2="57.281" y1="3.9522" y2="42.969" gradientTransform="matrix(5.3333 0 0 5.3333 -55.576 2.1344)" gradientUnits="userSpaceOnUse"><stop stop-color="#339833" offset="0"/><stop stop-color="#026202" offset="1"/></linearGradient><linearGradient id="linearGradient3159" x1="49.568" x2="56.068" y1="3.75" y2="3.75" gradientTransform="matrix(5.3333 0 0 5.3333 -43.793 10.667)" gradientUnits="userSpaceOnUse"><stop stop-color="#197b19" stop-opacity="0" offset="0"/><stop stop-color="#197b19" offset="1"/></linearGradient><linearGradient id="linearGradient3182" x1="49.568" x2="56.068" y1="22.001" y2="22.001" gradientTransform="matrix(5.3333 0 0 5.3333 -43.793 10.667)" gradientUnits="userSpaceOnUse"><stop stop-color="#197b19" stop-opacity="0" offset="0"/><stop stop-color="#197b19" offset="1"/></linearGradient><radialGradient id="radialGradient3208" cx="49.568" cy="37.002" r="3.25" gradientTransform="matrix(7.9497 8.1991 -7.697 7.4629 111.32 -474.54)" gradientUnits="userSpaceOnUse"><stop stop-color="#197b19" stop-opacity="0" offset="0"/><stop stop-color="#197b19" offset="1"/></radialGradient><linearGradient id="linearGradient3182-2" x1="49.568" x2="56.068" y1="22.001" y2="22.001" gradientTransform="matrix(0 5.3333 -5.3333 0 257.9 -56.351)" gradientUnits="userSpaceOnUse"><stop stop-color="#197b19" stop-opacity="0" offset="0"/><stop stop-color="#197b19" offset="1"/></linearGradient><linearGradient id="linearGradient3159-4" x1="52.566" x2="52.566" y1="7.0018" y2=".50182" gradientTransform="matrix(-5.3333 0 0 -5.3333 324.92 245.34)" gradientUnits="userSpaceOnUse"><stop stop-color="#197b19" stop-opacity="0" offset="0"/><stop stop-color="#197b19" offset="1"/></linearGradient><radialGradient id="radialGradient3266" cx="14.505" cy="-19.35" r="21.5" gradientTransform="matrix(0 7.6084 -8.9473 0 -117.61 -70.057)" gradientUnits="userSpaceOnUse"><stop stop-color="#a4d9a4" offset="0"/><stop stop-color="#319b31" stop-opacity="0" offset="1"/></radialGradient><linearGradient id="linearGradient3182-3" x1="53.568" x2="55.568" y1="22.002" y2="22.002" gradientTransform="matrix(0 -5.3333 5.3333 0 23.225 312.36)" gradientUnits="userSpaceOnUse"><stop stop-color="#269826" stop-opacity="0" offset="0"/><stop stop-color="#269826" offset="1"/></linearGradient><radialGradient id="radialGradient1015" cx="19.568" cy="6.9966" r="3.25" gradientTransform="matrix(1.2168e-6 -10.661 10.667 1.1845e-6 -14.063 256.6)" gradientUnits="userSpaceOnUse"><stop stop-color="#269826" stop-opacity="0" offset="0"/><stop stop-color="#269826" stop-opacity=".00481" offset=".61518"/><stop stop-color="#269826" offset=".92304"/><stop stop-color="#269826" offset="1"/></radialGradient><linearGradient id="linearGradient3182-3-9" x1="53.568" x2="55.568" y1="22.002" y2="22.002" gradientTransform="matrix(-5.3333 0 0 -5.3333 324.93 245.34)" gradientUnits="userSpaceOnUse"><stop stop-color="#269826" stop-opacity="0" offset="0"/><stop stop-color="#269826" offset="1"/></linearGradient><radialGradient id="radialGradient1122" cx="14.515" cy="-19.851" r="21.5" gradientTransform="matrix(0 1.6376 -1.9258 0 20.919 16.548)" gradientUnits="userSpaceOnUse"><stop stop-color="#a0d0a0" offset="0"/><stop stop-color="#6eb76e" stop-opacity=".11852" offset="1"/></radialGradient></defs><g transform="translate(-12.568)"><rect x="23.234" y="10.667" width="234.67" height="234.67" rx="26.667" ry="26.667" fill="none" stroke="#fff" stroke-linecap="round" stroke-linejoin="round" stroke-width="21.333"/><g fill-rule="evenodd"><rect x="25.901" y="13.333" width="229.33" height="229.33" rx="26.667" ry="26.667" fill="#1e981e"/><rect x="25.901" y="13.333" width="229.33" height="229.33" rx="26.667" ry="26.667" fill="url(#radialGradient3266)"/><path d="m25.901 221.17v-173.17h34.667v192.5l-20.403 6e-3z" fill="url(#linearGradient3182-3-9)"/><path d="m60.558 13.333h168.55l18.972 7.7524 7.4023 16.656v10.258h-194.92z" fill="url(#linearGradient3182-3)"/><path d="m228.57 13.333h-8v34.649l34.667 0.01813v-8c0-14.773-11.893-26.667-26.667-26.667z" fill="url(#linearGradient3159)"/><path d="m228.57 242.68h-8v-34.649l34.667-0.0181v8c0 14.773-11.893 26.667-26.667 26.667z" fill="url(#radialGradient3208)"/><path d="m255.23 48v160.01h-34.667v-160z" fill="url(#linearGradient3182)"/><path d="m220.57 242.68h-160.01v-34.667h160z" fill="url(#linearGradient3182-2)"/><path d="m52.558 242.68h8v-34.649l-34.667-0.0181v8c0 14.773 11.893 26.667 26.667 26.667z" fill="url(#linearGradient3159-4)"/><path d="m52.568 13.333h8v34.649l-34.667 0.01813v-8c0-14.773 11.893-26.667 26.667-26.667z" fill="url(#radialGradient1015)"/><rect x="28.568" y="13.333" width="229.33" height="229.33" rx="26.667" ry="26.667" fill="url(#radialGradient1122)"/></g><rect x="25.901" y="13.333" width="229.33" height="229.33" rx="26.667" ry="26.667" fill="none" stroke="url(#linearGradient2981)" stroke-linecap="round" stroke-linejoin="round" stroke-width="5.3333"/><g transform="matrix(-5.3333 0 0 5.3333 41.595 39.833)" fill="none" stroke="#f9f9f9"><path d="m-2.526 15.5h-25.956" stroke-width="6"/><path d="m-18.932 3.7812-11.812 11.719 11.812 11.719" stroke-linecap="round" stroke-width="6"/></g></g></svg>
