<?xml version="1.0" encoding="UTF-8" standalone="no"?>
<svg
   width="256"
   height="256"
   viewBox="0 0 256 256"
   version="1.1"
   id="svg8"
   inkscape:version="1.1.1 (3bf5ae0d25, 2021-09-20)"
   sodipodi:docname="favourites-import.svg"
   inkscape:export-filename="/media/klapeto/Αρχεία/WindowsXP Theme/Vectors/RASTER/Favourites-add.png"
   inkscape:export-xdpi="96"
   inkscape:export-ydpi="96"
   xmlns:inkscape="http://www.inkscape.org/namespaces/inkscape"
   xmlns:sodipodi="http://sodipodi.sourceforge.net/DTD/sodipodi-0.dtd"
   xmlns:xlink="http://www.w3.org/1999/xlink"
   xmlns="http://www.w3.org/2000/svg"
   xmlns:svg="http://www.w3.org/2000/svg"
   xmlns:rdf="http://www.w3.org/1999/02/22-rdf-syntax-ns#"
   xmlns:cc="http://creativecommons.org/ns#"
   xmlns:dc="http://purl.org/dc/elements/1.1/">
  <defs
     id="defs2">
    <linearGradient
       id="linearGradient1019"
       inkscape:collect="always">
      <stop
         id="stop1015"
         offset="0"
         style="stop-color:#fffe97;stop-opacity:1" />
      <stop
         style="stop-color:#ffcc02;stop-opacity:1"
         offset="0.2"
         id="stop1031" />
      <stop
         style="stop-color:#fffe96;stop-opacity:1"
         offset="0.40000001"
         id="stop1023" />
      <stop
         id="stop1033"
         offset="0.60000002"
         style="stop-color:#ffcc02;stop-opacity:1" />
      <stop
         id="stop1029"
         offset="0.80000001"
         style="stop-color:#fffe97;stop-opacity:1" />
      <stop
         id="stop1017"
         offset="1"
         style="stop-color:#ffcc02;stop-opacity:1" />
    </linearGradient>
    <linearGradient
       gradientTransform="matrix(5.1684363,0,0,5.1684363,-48.345464,5.7142624)"
       gradientUnits="userSpaceOnUse"
       y2="10.641655"
       x2="18.747946"
       y1="35"
       x1="57.567711"
       id="linearGradient1021"
       xlink:href="#linearGradient1019"
       inkscape:collect="always" />
    <filter
       height="1.0976681"
       y="-0.048834"
       width="1.094388"
       x="-0.047194012"
       id="filter1123"
       style="color-interpolation-filters:sRGB"
       inkscape:collect="always">
      <feGaussianBlur
         id="feGaussianBlur1125"
         stdDeviation="0.88878787"
         inkscape:collect="always" />
    </filter>
    <filter
       height="1.0979368"
       y="-0.048968378"
       width="1.0941384"
       x="-0.047069181"
       id="filter1007"
       style="color-interpolation-filters:sRGB"
       inkscape:collect="always">
      <feGaussianBlur
         id="feGaussianBlur1009"
         stdDeviation="0.90576696"
         inkscape:collect="always" />
    </filter>
    <linearGradient
       inkscape:collect="always"
       xlink:href="#linearGradient1616"
       id="linearGradient1618"
       x1="-2.7981372"
       y1="7.7862825"
       x2="-1.6334057"
       y2="8.9143724"
       gradientUnits="userSpaceOnUse"
       gradientTransform="matrix(0,-39.003453,-31.625529,0,419.0439,6.6852695)" />
    <linearGradient
       inkscape:collect="always"
       id="linearGradient1616">
      <stop
         style="stop-color:#2fb119;stop-opacity:1"
         offset="0"
         id="stop1612-5" />
      <stop
         style="stop-color:#8df35b;stop-opacity:1"
         offset="1"
         id="stop1614-5" />
    </linearGradient>
    <filter
       inkscape:collect="always"
       style="color-interpolation-filters:sRGB"
       id="filter1039"
       x="-0.046609757"
       y="-0.049475729"
       width="1.0932195"
       height="1.0989515">
      <feGaussianBlur
         inkscape:collect="always"
         stdDeviation="2.9143057"
         id="feGaussianBlur1041" />
    </filter>
  </defs>
  <sodipodi:namedview
     id="base"
     pagecolor="#ffffff"
     bordercolor="#666666"
     borderopacity="1.0"
     inkscape:pageopacity="0.0"
     inkscape:pageshadow="2"
     inkscape:zoom="2.8284272"
     inkscape:cx="-52.502677"
     inkscape:cy="44.370949"
     inkscape:document-units="px"
     inkscape:current-layer="layer1"
     inkscape:document-rotation="0"
     showgrid="false"
     units="px"
     inkscape:window-width="3840"
     inkscape:window-height="2043"
     inkscape:window-x="3840"
     inkscape:window-y="0"
     inkscape:window-maximized="1"
     inkscape:snap-bbox="true"
     inkscape:bbox-nodes="true"
     fit-margin-top="0"
     fit-margin-left="0"
     fit-margin-right="0"
     fit-margin-bottom="0"
     inkscape:bbox-paths="false"
     inkscape:snap-global="true"
     inkscape:pagecheckerboard="0">
    <inkscape:grid
       type="xygrid"
       id="grid1504"
       originx="0"
       originy="0" />
    <inkscape:grid
       type="xygrid"
       id="grid1507"
       spacingx="0.5"
       spacingy="0.5"
       originx="0"
       originy="0" />
  </sodipodi:namedview>
  <metadata
     id="metadata5">
    <rdf:RDF>
      <cc:Work
         rdf:about="">
        <dc:format>image/svg+xml</dc:format>
        <dc:type
           rdf:resource="http://purl.org/dc/dcmitype/StillImage" />
      </cc:Work>
    </rdf:RDF>
  </metadata>
  <g
     inkscape:label="Layer 1"
     inkscape:groupmode="layer"
     id="layer1"
     transform="translate(-12.567709)">
    <g
       id="g1036"
       transform="matrix(0.88354526,0,0,0.88354526,-1.7034793,29.13039)">
      <g
         id="g1162"
         style="mix-blend-mode:normal;fill:#050505;fill-opacity:1;stroke:none;filter:url(#filter1007)"
         transform="matrix(5.1684363,0,0,5.1684363,-48.038821,-0.15025434)">
        <path
           id="path1164"
           style="color:#000000;font-style:normal;font-variant:normal;font-weight:normal;font-stretch:normal;font-size:medium;line-height:normal;font-family:sans-serif;font-variant-ligatures:normal;font-variant-position:normal;font-variant-caps:normal;font-variant-numeric:normal;font-variant-alternates:normal;font-variant-east-asian:normal;font-feature-settings:normal;font-variation-settings:normal;text-indent:0;text-align:start;text-decoration:none;text-decoration-line:none;text-decoration-style:solid;text-decoration-color:#000000;letter-spacing:normal;word-spacing:normal;text-transform:none;writing-mode:lr-tb;direction:ltr;text-orientation:mixed;dominant-baseline:auto;baseline-shift:baseline;text-anchor:start;white-space:normal;shape-padding:0;shape-margin:0;inline-size:0;clip-rule:nonzero;display:inline;overflow:visible;visibility:visible;opacity:1;isolation:auto;mix-blend-mode:normal;color-interpolation:sRGB;color-interpolation-filters:linearRGB;solid-color:#000000;solid-opacity:1;vector-effect:none;fill:#212121;fill-opacity:1;fill-rule:nonzero;stroke:none;stroke-width:1.50007;stroke-linecap:butt;stroke-linejoin:round;stroke-miterlimit:4;stroke-dasharray:none;stroke-dashoffset:0;stroke-opacity:1;color-rendering:auto;image-rendering:auto;shape-rendering:auto;text-rendering:auto;enable-background:accumulate;stop-color:#000000;stop-opacity:1"
           d="M 36.854423,0.80304541 C 35.30808,0.81131633 33.761064,1.9204261 33.334892,3.8382016 L 30.481376,16.678045 18.153251,15.25617 c -2.177531,-0.251253 -3.810419,0.868051 -4.195312,2.421875 -0.384892,1.553825 0.405298,3.35905 2.21875,4.462891 l 10.919922,6.648437 -5.207032,10.886719 c -0.90156,1.88508 -0.644036,3.790725 0.605469,4.748047 1.249504,0.957322 3.209924,0.718147 5.056641,-0.851562 l 9.5,-8.076172 9.513672,8.560547 c 1.589589,1.430629 3.491984,1.422335 4.681641,0.480468 1.189656,-0.941866 1.694989,-2.68632 1.011718,-4.326171 l -4.757812,-11.416016 10.46875,-6.66211 c 1.837774,-1.169491 2.409482,-3.036617 1.898437,-4.517578 -0.511046,-1.48096 -2.047621,-2.557746 -3.880859,-2.361328 L 42.676689,16.679999 40.303642,3.8635922 C 39.9431,1.9166693 38.400766,0.79477448 36.854423,0.80304541 Z" />
      </g>
      <g
         id="g1005"
         transform="translate(0,-5.7142624)">
        <g
           style="fill:#000000;fill-opacity:1;stroke:none;stroke-width:1.5;stroke-miterlimit:4;stroke-dasharray:none;filter:url(#filter1123)"
           transform="matrix(5.1684363,0,0,5.1684363,16.609939,5.7142624)"
           id="g1108" />
        <path
           style="fill:url(#linearGradient1021);fill-opacity:1;stroke:none;stroke-width:5.16844;stroke-linecap:butt;stroke-linejoin:round;stroke-miterlimit:4;stroke-dasharray:none;stroke-opacity:1"
           d="m 107.05757,90.993461 19.10498,-72.515179 c 2.50272,-9.4993503 19.84942,-11.0107328 22.24252,0.157071 l 15.5053,72.358108 77.52655,-5.168436 c 11.89897,-0.793267 14.69566,14.322265 5.16843,20.673745 l -62.02123,41.34749 27.75371,66.65119 c 5.78226,13.88624 -10.8053,21.77955 -20.00106,13.45957 L 138.06819,178.85688 81.215393,225.37281 C 70.1295,234.44309 58.627735,222.67474 63.125866,212.45171 l 28.4264,-64.60545 -62.021236,-41.34749 c -9.745278,-6.49685 -6.121465,-21.480166 5.168436,-20.673745 z"
           id="path1035"
           sodipodi:nodetypes="csscsscsscsscssc" />
        <path
           sodipodi:nodetypes="ccc"
           id="path1037"
           d="M 131.16018,12.850427 111.64693,98.060755 28.197243,88.373245"
           style="fill:none;stroke:#ffffff;stroke-width:5.16844;stroke-linecap:butt;stroke-linejoin:round;stroke-miterlimit:4;stroke-dasharray:none;stroke-opacity:1" />
        <path
           sodipodi:nodetypes="cc"
           id="path1039"
           d="m 168.79902,96.768228 c 0,0 77.16618,-8.308737 77.22137,-7.992465"
           style="fill:none;stroke:#ffffff;stroke-width:5.16844;stroke-linecap:round;stroke-linejoin:miter;stroke-miterlimit:4;stroke-dasharray:none;stroke-opacity:1" />
        <path
           sodipodi:nodetypes="cc"
           id="path1041"
           d="m 144.44294,176.15301 58.45533,52.36592"
           style="fill:none;stroke:#ffffff;stroke-width:5.16844;stroke-linecap:round;stroke-linejoin:miter;stroke-miterlimit:4;stroke-dasharray:none;stroke-opacity:1" />
        <path
           sodipodi:nodetypes="cc"
           id="path1043"
           d="M 67.763576,211.99889 95.860457,153.59462"
           style="fill:none;stroke:#ffffff;stroke-width:5.16844;stroke-linecap:round;stroke-linejoin:miter;stroke-miterlimit:4;stroke-dasharray:none;stroke-opacity:1" />
        <path
           sodipodi:nodetypes="csscssccscsscssc"
           id="path997"
           d="m 107.05757,90.993461 15.50531,-69.77389 c 3.38521,-15.2334421 25.51691,-15.7112297 28.4264,0 l 12.92109,69.77389 72.35811,-7.752654 c 15.62717,-1.674341 24.41249,17.824683 7.75266,28.426403 l -56.8528,36.17905 25.84218,62.02124 c 5.80231,13.92556 -8.87257,28.45216 -23.25796,15.50531 L 138.06819,178.85688 86.383829,222.78859 C 68.934718,237.62033 54.875285,224.5345 63.125866,207.28328 l 28.4264,-59.43702 -59.437018,-36.17905 C 15.658032,101.64977 20.07258,80.95673 39.867903,83.240807 Z"
           style="fill:none;fill-opacity:1;stroke:#996600;stroke-width:7.75265;stroke-linecap:butt;stroke-linejoin:round;stroke-miterlimit:4;stroke-dasharray:none;stroke-opacity:1" />
      </g>
    </g>
    <path
       id="path2166"
       style="color:#000000;font-style:normal;font-variant:normal;font-weight:normal;font-stretch:normal;font-size:medium;line-height:normal;font-family:sans-serif;font-variant-ligatures:normal;font-variant-position:normal;font-variant-caps:normal;font-variant-numeric:normal;font-variant-alternates:normal;font-variant-east-asian:normal;font-feature-settings:normal;font-variation-settings:normal;text-indent:0;text-align:start;text-decoration:none;text-decoration-line:none;text-decoration-style:solid;text-decoration-color:#000000;letter-spacing:normal;word-spacing:normal;text-transform:none;writing-mode:lr-tb;direction:ltr;text-orientation:mixed;dominant-baseline:auto;baseline-shift:baseline;text-anchor:start;white-space:normal;shape-padding:0;shape-margin:0;inline-size:0;clip-rule:nonzero;display:inline;overflow:visible;visibility:visible;isolation:auto;mix-blend-mode:normal;color-interpolation:sRGB;color-interpolation-filters:linearRGB;solid-color:#000000;solid-opacity:1;vector-effect:none;fill:#212121;fill-opacity:1;fill-rule:nonzero;stroke:none;stroke-width:5.33;stroke-linecap:butt;stroke-linejoin:round;stroke-miterlimit:5.8;stroke-dasharray:none;stroke-dashoffset:0;stroke-opacity:1;filter:url(#filter1039);color-rendering:auto;image-rendering:auto;shape-rendering:auto;text-rendering:auto;enable-background:accumulate;stop-color:#000000"
       d="m 168.54494,150.64393 a 2.6652665,2.6652665 0 0 0 2.61719,-2.66407 v -28.45898 c 33.26034,-0.87525 59.08717,-17.57918 74.37305,-39.095703 15.70105,-22.100936 20.63037,-49.248776 11.16015,-69.609376 a 2.6652665,2.6652665 0 0 0 -5.05664,1.48828 c 1.74698,12.68331 -0.64957,22.54038 -5.60937,30.47266 -4.95981,7.93229 -12.59391,13.97336 -21.53321,18.492182 -16.93485,8.560604 -38.25299,11.401148 -53.33398,11.687504 V 39.624401 a 2.6652665,2.6652665 0 0 0 -4.49805,-1.9336 l -54.39062,51.597658 a 2.6652665,2.6652665 0 0 0 -0.0899,3.77734 l 54.38872,56.757811 a 2.6652665,2.6652665 0 0 0 1.97266,0.82032 z" />
    <path
       style="fill:url(#linearGradient1618);fill-opacity:1;stroke:#1d701d;stroke-width:5.33;stroke-linecap:butt;stroke-linejoin:round;stroke-miterlimit:5.8;stroke-dasharray:none;stroke-opacity:1"
       d="M 249.27894,7.9388895 C 256.55374,60.754796 194.38316,71.742013 163.49688,71.742013 V 35.62315 l -54.3893,51.598319 54.3893,56.758171 v -30.959 c 67.40178,0 103.64362,-66.68012 85.78206,-105.0817505 z"
       id="path1610"
       sodipodi:nodetypes="ccccccc" />
  </g>
</svg>
