<?xml version="1.0" encoding="UTF-8" standalone="no"?>
<svg
   inkscape:export-ydpi="96"
   inkscape:export-xdpi="96"
   inkscape:export-filename="/media/klapeto/Αρχεία/WindowsXP Theme/Vectors/RASTER/Folder-closed.png"
   width="256"
   height="256"
   viewBox="0 0 256 256"
   version="1.1"
   id="svg8"
   inkscape:version="1.1.1 (3bf5ae0d25, 2021-09-20)"
   sodipodi:docname="folder-closed.svg"
   xmlns:inkscape="http://www.inkscape.org/namespaces/inkscape"
   xmlns:sodipodi="http://sodipodi.sourceforge.net/DTD/sodipodi-0.dtd"
   xmlns:xlink="http://www.w3.org/1999/xlink"
   xmlns="http://www.w3.org/2000/svg"
   xmlns:svg="http://www.w3.org/2000/svg"
   xmlns:rdf="http://www.w3.org/1999/02/22-rdf-syntax-ns#"
   xmlns:cc="http://creativecommons.org/ns#"
   xmlns:dc="http://purl.org/dc/elements/1.1/">
  <defs
     id="defs2">
    <linearGradient
       id="linearGradient1636"
       inkscape:collect="always">
      <stop
         id="stop1632"
         offset="0"
         style="stop-color:#ffda74;stop-opacity:1" />
      <stop
         style="stop-color:#fffe98;stop-opacity:1"
         offset="0.5"
         id="stop2116" />
      <stop
         id="stop1634"
         offset="1"
         style="stop-color:#ffffd8;stop-opacity:1" />
    </linearGradient>
    <linearGradient
       id="linearGradient1618"
       inkscape:collect="always">
      <stop
         id="stop1614"
         offset="0"
         style="stop-color:#ffdd77;stop-opacity:1" />
      <stop
         id="stop1616"
         offset="1"
         style="stop-color:#ffff99;stop-opacity:1" />
    </linearGradient>
    <linearGradient
       gradientTransform="matrix(5.3300096,0,0,5.3300096,137.85899,6.5878482)"
       gradientUnits="userSpaceOnUse"
       y2="4.9200902"
       x2="-17.44005"
       y1="8.598959"
       x1="-17.4625"
       id="linearGradient1620"
       xlink:href="#linearGradient1618"
       inkscape:collect="always" />
    <linearGradient
       y2="8.9189568"
       x2="-31.690252"
       y1="14.209696"
       x1="-31.671658"
       gradientTransform="matrix(5.3300096,0,0,5.3300096,214.22183,-24.407102)"
       gradientUnits="userSpaceOnUse"
       id="linearGradient1707"
       xlink:href="#linearGradient1636"
       inkscape:collect="always" />
    <filter
       height="1.0954978"
       y="-0.047748879"
       width="1.0965075"
       x="-0.048253773"
       id="filter930"
       style="color-interpolation-filters:sRGB"
       inkscape:collect="always">
      <feGaussianBlur
         id="feGaussianBlur932"
         stdDeviation="3.7667299"
         inkscape:collect="always" />
    </filter>
  </defs>
  <sodipodi:namedview
     showguides="false"
     id="base"
     pagecolor="#ffffff"
     bordercolor="#666666"
     borderopacity="1.0"
     inkscape:pageopacity="0.0"
     inkscape:pageshadow="2"
     inkscape:zoom="0.8314029"
     inkscape:cx="-328.36065"
     inkscape:cy="89.006185"
     inkscape:document-units="px"
     inkscape:current-layer="layer1"
     inkscape:document-rotation="0"
     showgrid="false"
     units="px"
     inkscape:window-width="3840"
     inkscape:window-height="2045"
     inkscape:window-x="3840"
     inkscape:window-y="0"
     inkscape:window-maximized="1"
     inkscape:snap-bbox="true"
     inkscape:bbox-nodes="true"
     fit-margin-top="0"
     fit-margin-left="0"
     fit-margin-right="0"
     fit-margin-bottom="0"
     inkscape:bbox-paths="false"
     inkscape:snap-global="true"
     inkscape:pagecheckerboard="0"
     scale-x="0.26458">
    <inkscape:grid
       type="xygrid"
       id="grid1504"
       originx="0"
       originy="0" />
    <inkscape:grid
       type="xygrid"
       id="grid1507"
       spacingx="0.13229167"
       spacingy="0.13229167"
       originx="0"
       originy="0" />
  </sodipodi:namedview>
  <metadata
     id="metadata5">
    <rdf:RDF>
      <cc:Work
         rdf:about="">
        <dc:format>image/svg+xml</dc:format>
        <dc:type
           rdf:resource="http://purl.org/dc/dcmitype/StillImage" />
      </cc:Work>
    </rdf:RDF>
  </metadata>
  <g
     inkscape:label="Layer 1"
     inkscape:groupmode="layer"
     id="layer1"
     transform="translate(-12.567709)">
    <g
       id="g945"
       transform="matrix(3.779549,0,0,3.779549,-34.932535,-2.1406975e-5)">
      <g
         id="g923"
         transform="matrix(0.26458333,0,0,0.26458333,12.567709,0)"
         style="opacity:1">
        <path
           id="path925"
           style="color:#000000;font-style:normal;font-variant:normal;font-weight:normal;font-stretch:normal;font-size:medium;line-height:normal;font-family:sans-serif;font-variant-ligatures:normal;font-variant-position:normal;font-variant-caps:normal;font-variant-numeric:normal;font-variant-alternates:normal;font-variant-east-asian:normal;font-feature-settings:normal;font-variation-settings:normal;text-indent:0;text-align:start;text-decoration:none;text-decoration-line:none;text-decoration-style:solid;text-decoration-color:#000000;letter-spacing:normal;word-spacing:normal;text-transform:none;writing-mode:lr-tb;direction:ltr;text-orientation:mixed;dominant-baseline:auto;baseline-shift:baseline;text-anchor:start;white-space:normal;shape-padding:0;shape-margin:0;inline-size:0;clip-rule:nonzero;display:inline;overflow:visible;visibility:visible;isolation:auto;mix-blend-mode:normal;color-interpolation:sRGB;color-interpolation-filters:linearRGB;solid-color:#000000;solid-opacity:1;vector-effect:none;fill:#212121;fill-opacity:1;fill-rule:nonzero;stroke:none;stroke-width:5.33;stroke-linecap:butt;stroke-linejoin:round;stroke-miterlimit:4;stroke-dasharray:none;stroke-dashoffset:0;stroke-opacity:1;filter:url(#filter930);color-rendering:auto;image-rendering:auto;shape-rendering:auto;text-rendering:auto;enable-background:accumulate;stop-color:#000000;stop-opacity:1"
           d="m 100.11155,39.561045 a 2.6652634,2.6652665 0 0 0 -0.265622,0.01172 l -53.300719,5.330078 a 2.6652634,2.6652665 0 0 0 -2.064451,1.357422 L 31.156554,70.244639 a 2.6652634,2.6652665 0 0 0 -0.33203,1.43164 l 6.996085,135.259771 -0.871092,19.16601 a 2.6652634,2.6652665 0 0 0 3.265621,2.7168 l 0.580077,-0.13477 a 2.6652634,2.6652665 0 0 0 1.320311,0.0137 L 68.470964,222.22708 200.1173,191.51029 a 2.6652634,2.6652665 0 0 0 2.02734,-2.17969 l -0.01,0.0781 0.36132,-0.0898 a 2.6652634,2.6652665 0 0 0 2.01171,-2.27344 L 218.14853,71.967295 a 2.6652634,2.6652665 0 0 0 -1.45508,-2.697266 L 206.0333,63.939951 a 2.6652634,2.6652665 0 0 0 -1.65429,-0.242187 l -2.87109,0.505859 -0.12695,-6.044922 a 2.6652634,2.6652665 0 0 0 -0.7793,-1.828125 l -5.33008,-5.330078 a 2.6652634,2.6652665 0 0 0 -2.24803,-0.755859 L 117.29122,60.691904 102.24436,40.625498 a 2.6652634,2.6652665 0 0 0 -2.13281,-1.064453 z" />
      </g>
      <g
         id="g890">
        <path
           id="path1612"
           d="M 62.411605,12.933892 41.963236,15.754354 37.732541,10.113428 23.630226,11.52366 20.104643,17.869703 22.219996,58.766424 64.526947,48.189685 63.821835,14.344123 Z"
           style="fill:url(#linearGradient1620);fill-opacity:1;stroke:none;stroke-width:1.41023;stroke-linecap:butt;stroke-linejoin:round;stroke-miterlimit:4;stroke-dasharray:none;stroke-opacity:1"
           sodipodi:nodetypes="ccccccccc" />
        <path
           sodipodi:nodetypes="cccccc"
           id="path1624"
           d="m 63.262413,14.224854 -21.83746,2.908994 -4.309446,-5.568952 -12.643044,1.272704 -3.018672,5.381401 1.308064,28.040718"
           style="fill:none;stroke:#fff9ec;stroke-width:1.41023;stroke-linecap:round;stroke-linejoin:miter;stroke-miterlimit:4;stroke-dasharray:none;stroke-opacity:1" />
        <path
           sodipodi:nodetypes="ccccccccc"
           style="fill:none;fill-opacity:1;stroke:#cc9900;stroke-width:1.41023;stroke-linecap:butt;stroke-linejoin:round;stroke-miterlimit:4;stroke-dasharray:none;stroke-opacity:1"
           d="M 62.411605,12.933892 41.963236,15.754354 37.732541,10.113428 23.630226,11.52366 20.104643,17.869703 22.219996,58.766424 64.526947,48.189685 63.821835,14.344123 Z"
           id="path1717" />
        <path
           style="fill:url(#linearGradient1707);fill-opacity:1;stroke:none;stroke-width:1.41023px;stroke-linecap:butt;stroke-linejoin:round;stroke-opacity:1"
           d="m 21.7252,58.796571 1.410235,-31.0251 14.102316,-2.820464 4.230695,-4.230695 23.973941,-4.230695 2.820465,1.410232 -4.230695,31.025101 z"
           id="path1626-4" />
        <path
           style="fill:none;stroke:none;stroke-width:1.41023px;stroke-linecap:butt;stroke-linejoin:miter;stroke-opacity:1"
           d="M 67.557729,19.310082 65.442387,17.89985 42.173564,22.130545 37.942868,26.361241 24.545665,29.181704 23.13543,57.386341"
           id="path1640-8"
           sodipodi:nodetypes="ccccc" />
        <path
           sodipodi:nodetypes="cc"
           id="path2159"
           d="m 63.925264,18.17214 0.734907,30.186814"
           style="fill:none;fill-opacity:1;stroke:#ffcc66;stroke-width:1.41023px;stroke-linecap:butt;stroke-linejoin:miter;stroke-opacity:1" />
        <path
           sodipodi:nodetypes="ccccccc"
           id="path1652-8"
           d="m 67.666435,19.166448 -2.486354,-1.234287 -23.043918,4.04915 -4.324184,3.970376 -10.792843,1.473686 -1.668932,1.433253 -1.752769,29.126008"
           style="fill:none;stroke:#fff9ec;stroke-width:1.41023px;stroke-linecap:butt;stroke-linejoin:miter;stroke-opacity:1" />
        <path
           sodipodi:nodetypes="ccccccccc"
           id="path1650-9"
           d="m 26.445313,26.124659 10.834023,-1.466291 4.18911,-3.938056 23.973941,-4.230695 2.820465,1.410232 -3.608859,30.447544 -42.433997,10.419031 1.811926,-30.612902 z"
           style="fill:none;fill-opacity:1;stroke:#cc9900;stroke-width:1.41023;stroke-linecap:round;stroke-linejoin:round;stroke-miterlimit:4;stroke-dasharray:none;stroke-opacity:1" />
      </g>
    </g>
  </g>
</svg>
