<?xml version="1.0" encoding="UTF-8" standalone="no"?>
<svg
   xmlns:dc="http://purl.org/dc/elements/1.1/"
   xmlns:cc="http://creativecommons.org/ns#"
   xmlns:rdf="http://www.w3.org/1999/02/22-rdf-syntax-ns#"
   xmlns:svg="http://www.w3.org/2000/svg"
   xmlns="http://www.w3.org/2000/svg"
   xmlns:xlink="http://www.w3.org/1999/xlink"
   xmlns:sodipodi="http://sodipodi.sourceforge.net/DTD/sodipodi-0.dtd"
   xmlns:inkscape="http://www.inkscape.org/namespaces/inkscape"
   width="256"
   height="256"
   viewBox="0 0 256 256"
   version="1.1"
   id="svg8"
   inkscape:version="1.0 (1.0+r73+1)"
   sodipodi:docname="Home.svg"
   inkscape:export-filename="/media/klapeto/Αρχεία/WindowsXP Theme/Vectors/RASTER/Home.png"
   inkscape:export-xdpi="96"
   inkscape:export-ydpi="96">
  <defs
     id="defs2">
    <linearGradient
       id="linearGradient1412"
       inkscape:collect="always">
      <stop
         id="stop1408"
         offset="0"
         style="stop-color:#cd8080;stop-opacity:1" />
      <stop
         id="stop1410"
         offset="1"
         style="stop-color:#e15424;stop-opacity:1" />
    </linearGradient>
    <linearGradient
       id="linearGradient1404"
       inkscape:collect="always">
      <stop
         id="stop1400"
         offset="0"
         style="stop-color:#990101;stop-opacity:1" />
      <stop
         id="stop1402"
         offset="1"
         style="stop-color:#d14624;stop-opacity:1" />
    </linearGradient>
    <linearGradient
       id="linearGradient1390"
       inkscape:collect="always">
      <stop
         id="stop1386"
         offset="0"
         style="stop-color:#ba6e48;stop-opacity:1" />
      <stop
         id="stop1388"
         offset="1"
         style="stop-color:#a0869e;stop-opacity:1" />
    </linearGradient>
    <linearGradient
       id="linearGradient1362"
       inkscape:collect="always">
      <stop
         id="stop1358"
         offset="0"
         style="stop-color:#9eb8df;stop-opacity:1" />
      <stop
         id="stop1360"
         offset="1"
         style="stop-color:#979ac3;stop-opacity:1" />
    </linearGradient>
    <linearGradient
       id="linearGradient1352"
       inkscape:collect="always">
      <stop
         id="stop1348"
         offset="0"
         style="stop-color:#84ace0;stop-opacity:1" />
      <stop
         id="stop1350"
         offset="1"
         style="stop-color:#b5e8f9;stop-opacity:1" />
    </linearGradient>
    <linearGradient
       id="linearGradient1330"
       inkscape:collect="always">
      <stop
         id="stop1326"
         offset="0"
         style="stop-color:#676799;stop-opacity:1;" />
      <stop
         id="stop1328"
         offset="1"
         style="stop-color:#7c7cae;stop-opacity:1" />
    </linearGradient>
    <linearGradient
       id="linearGradient1322"
       inkscape:collect="always">
      <stop
         id="stop1318"
         offset="0"
         style="stop-color:#7f84ae;stop-opacity:1" />
      <stop
         id="stop1320"
         offset="1"
         style="stop-color:#8b95c0;stop-opacity:1" />
    </linearGradient>
    <linearGradient
       id="linearGradient1297"
       inkscape:collect="always">
      <stop
         id="stop1293"
         offset="0"
         style="stop-color:#a0cce4;stop-opacity:1" />
      <stop
         id="stop1295"
         offset="1"
         style="stop-color:#f8fafd;stop-opacity:1" />
    </linearGradient>
    <linearGradient
       id="linearGradient1269"
       inkscape:collect="always">
      <stop
         id="stop1265"
         offset="0"
         style="stop-color:#ffac47;stop-opacity:1" />
      <stop
         style="stop-color:#ffcc67;stop-opacity:1"
         offset="0.45247233"
         id="stop1273" />
      <stop
         id="stop1267"
         offset="1"
         style="stop-color:#ff9b36;stop-opacity:1" />
    </linearGradient>
    <linearGradient
       gradientTransform="translate(11.270713,0.20653884)"
       gradientUnits="userSpaceOnUse"
       y2="5.0851278"
       x2="-9.1540461"
       y1="3.7622113"
       x1="-10.609254"
       id="linearGradient1271"
       xlink:href="#linearGradient1269"
       inkscape:collect="always" />
    <linearGradient
       gradientTransform="translate(6.8791669,0.2645834)"
       gradientUnits="userSpaceOnUse"
       y2="4.8947916"
       x2="-4.4979162"
       y1="7.5406251"
       x1="-1.5874997"
       id="linearGradient1299"
       xlink:href="#linearGradient1297"
       inkscape:collect="always" />
    <linearGradient
       gradientUnits="userSpaceOnUse"
       y2="8.2020836"
       x2="-4.2333331"
       y1="6.5002823"
       x1="-4.2333331"
       id="linearGradient1324"
       xlink:href="#linearGradient1322"
       inkscape:collect="always" />
    <linearGradient
       gradientUnits="userSpaceOnUse"
       y2="7.9375"
       x2="-4.630208"
       y1="7.5280876"
       x1="-4.6510725"
       id="linearGradient1332"
       xlink:href="#linearGradient1330"
       inkscape:collect="always" />
    <linearGradient
       gradientTransform="translate(-2.8717372,2.6458334)"
       gradientUnits="userSpaceOnUse"
       y2="2.2489583"
       x2="-4.3656244"
       y1="6.0854168"
       x1="-2.3812497"
       id="linearGradient1354"
       xlink:href="#linearGradient1352"
       inkscape:collect="always" />
    <linearGradient
       gradientTransform="translate(-5.6498623,-1.0583334)"
       gradientUnits="userSpaceOnUse"
       y2="9.7895832"
       x2="0.26458368"
       y1="7.9375"
       x1="-1.7197911"
       id="linearGradient1364"
       xlink:href="#linearGradient1362"
       inkscape:collect="always" />
    <linearGradient
       gradientTransform="translate(-3.5718751,0.7937497)"
       gradientUnits="userSpaceOnUse"
       y2="4.8947921"
       x2="9.1281252"
       y1="3.0427084"
       x1="7.2760425"
       id="linearGradient1392"
       xlink:href="#linearGradient1390"
       inkscape:collect="always" />
    <linearGradient
       gradientTransform="translate(-2.5135423,0.39687506)"
       gradientUnits="userSpaceOnUse"
       y2="3.175"
       x2="6.3525515"
       y1="3.175"
       x1="5.8233848"
       id="linearGradient1406"
       xlink:href="#linearGradient1404"
       inkscape:collect="always" />
    <linearGradient
       gradientTransform="translate(-6.0676269e-7,0.13229169)"
       gradientUnits="userSpaceOnUse"
       y2="3.3072917"
       x2="3.8390098"
       y1="3.3072917"
       x1="3.3098431"
       id="linearGradient1414"
       xlink:href="#linearGradient1412"
       inkscape:collect="always" />
    <filter
       height="1.09815"
       y="-0.049074985"
       width="1.0939422"
       x="-0.0469711"
       id="filter986"
       style="color-interpolation-filters:sRGB"
       inkscape:collect="always">
      <feGaussianBlur
         id="feGaussianBlur988"
         stdDeviation="4.7362526"
         inkscape:collect="always" />
    </filter>
  </defs>
  <sodipodi:namedview
     id="base"
     pagecolor="#ffffff"
     bordercolor="#666666"
     borderopacity="1.0"
     inkscape:pageopacity="0.0"
     inkscape:pageshadow="2"
     inkscape:zoom="2.1571535"
     inkscape:cx="17.421134"
     inkscape:cy="46.224478"
     inkscape:document-units="px"
     inkscape:current-layer="layer1"
     inkscape:document-rotation="0"
     showgrid="false"
     units="px"
     inkscape:window-width="3840"
     inkscape:window-height="2045"
     inkscape:window-x="3840"
     inkscape:window-y="0"
     inkscape:window-maximized="1"
     inkscape:snap-bbox="true"
     inkscape:bbox-nodes="true"
     fit-margin-top="0"
     fit-margin-left="0"
     fit-margin-right="0"
     fit-margin-bottom="0"
     inkscape:bbox-paths="false"
     inkscape:snap-global="true">
    <inkscape:grid
       type="xygrid"
       id="grid1504"
       originx="0"
       originy="0" />
    <inkscape:grid
       type="xygrid"
       id="grid1507"
       spacingx="0.13229167"
       spacingy="0.13229167"
       originx="0"
       originy="0" />
  </sodipodi:namedview>
  <metadata
     id="metadata5">
    <rdf:RDF>
      <cc:Work
         rdf:about="">
        <dc:format>image/svg+xml</dc:format>
        <dc:type
           rdf:resource="http://purl.org/dc/dcmitype/StillImage" />
        <dc:title></dc:title>
      </cc:Work>
    </rdf:RDF>
  </metadata>
  <g
     inkscape:label="Layer 1"
     inkscape:groupmode="layer"
     id="layer1"
     transform="translate(-12.567709)">
    <path
       d="m 178.69718,4 c -11.07112,0 -20.14093,9.069819 -20.14093,20.140944 v 3.775462 L 108.20389,9.0352359 17.567709,89.600939 27.63818,97.512627 v 69.812293 l 72.102264,66.9532 a 5.0352792,5.0352792 0 0 0 0.02315,0.0212 5.0352792,5.0352792 0 0 0 0.0926,0.083 5.0352792,5.0352792 0 0 0 0.06366,0.054 5.0352792,5.0352792 0 0 0 0.0656,0.054 5.0352792,5.0352792 0 0 0 0.06752,0.054 5.0352792,5.0352792 0 0 0 0.0463,0.0366 5.0352792,5.0352792 0 0 0 0.0752,0.0559 5.0352792,5.0352792 0 0 0 0.54983,0.35498 5.0352792,5.0352792 0 0 0 0.0829,0.0444 5.0352792,5.0352792 0 0 0 0.28745,0.14084 5.0352792,5.0352792 0 0 0 0.10225,0.0443 5.0352792,5.0352792 0 0 0 0.0347,0.0154 5.0352792,5.0352792 0 0 0 0.0868,0.0347 5.0352792,5.0352792 0 0 0 0.30289,0.10805 5.0352792,5.0352792 0 0 0 0.10224,0.0328 5.0352792,5.0352792 0 0 0 0.0386,0.0116 5.0352792,5.0352792 0 0 0 0.0907,0.0251 5.0352792,5.0352792 0 0 0 0.15048,0.0386 5.0352792,5.0352792 0 0 0 0.10611,0.0231 5.0352792,5.0352792 0 0 0 0.0309,0.008 5.0352792,5.0352792 0 0 0 0.12347,0.0231 5.0352792,5.0352792 0 0 0 0.0926,0.0174 5.0352792,5.0352792 0 0 0 0.0926,0.0135 5.0352792,5.0352792 0 0 0 0.0926,0.0135 5.0352792,5.0352792 0 0 0 0.0907,0.01 5.0352792,5.0352792 0 0 0 0.0984,0.01 5.0352792,5.0352792 0 0 0 0.1389,0.01 5.0352792,5.0352792 0 0 0 0.18714,0.008 5.0352792,5.0352792 0 0 0 0.27973,-0.002 5.0352792,5.0352792 0 0 0 0.0945,-0.004 5.0352792,5.0352792 0 0 0 0.0926,-0.006 5.0352792,5.0352792 0 0 0 0.0945,-0.008 5.0352792,5.0352792 0 0 0 0.004,0 5.0352792,5.0352792 0 0 0 0.18135,-0.0193 5.0352792,5.0352792 0 0 0 0.0945,-0.0135 5.0352792,5.0352792 0 0 0 0.0232,-0.004 5.0352792,5.0352792 0 0 0 0.0945,-0.0154 5.0352792,5.0352792 0 0 0 0.15819,-0.0289 5.0352792,5.0352792 0 0 0 0.0926,-0.0193 5.0352792,5.0352792 0 0 0 0.0907,-0.0212 5.0352792,5.0352792 0 0 0 0.0309,-0.008 L 249.19049,199.27262 V 119.81236 L 259.56771,109.43514 198.83813,48.707493 V 24.140944 C 198.83813,13.069824 189.76831,4 178.69718,4 Z"
       style="color:#000000;font-style:normal;font-variant:normal;font-weight:normal;font-stretch:normal;font-size:medium;line-height:normal;font-family:sans-serif;font-variant-ligatures:normal;font-variant-position:normal;font-variant-caps:normal;font-variant-numeric:normal;font-variant-alternates:normal;font-variant-east-asian:normal;font-feature-settings:normal;font-variation-settings:normal;text-indent:0;text-align:start;text-decoration:none;text-decoration-line:none;text-decoration-style:solid;text-decoration-color:#000000;letter-spacing:normal;word-spacing:normal;text-transform:none;writing-mode:lr-tb;direction:ltr;text-orientation:mixed;dominant-baseline:auto;baseline-shift:baseline;text-anchor:start;white-space:normal;shape-padding:0;shape-margin:0;inline-size:0;clip-rule:nonzero;display:inline;overflow:visible;visibility:visible;isolation:auto;mix-blend-mode:normal;color-interpolation:sRGB;color-interpolation-filters:linearRGB;solid-color:#000000;solid-opacity:1;vector-effect:none;fill:#212121;fill-opacity:1;fill-rule:nonzero;stroke:none;stroke-width:10.0706;stroke-linecap:butt;stroke-linejoin:round;stroke-miterlimit:4;stroke-dasharray:none;stroke-dashoffset:0;stroke-opacity:1;filter:url(#filter986);color-rendering:auto;image-rendering:auto;shape-rendering:auto;text-rendering:auto;enable-background:accumulate;stop-color:#000000"
       id="path959" />
    <g
       transform="matrix(38.062136,0,0,38.062136,37.744201,-105.74139)"
       id="g1430">
      <rect
         style="fill:url(#linearGradient1406);fill-opacity:1;stroke:url(#linearGradient1414);stroke-width:0.264583;stroke-linecap:butt;stroke-linejoin:round;stroke-miterlimit:4;stroke-dasharray:none;stroke-opacity:1"
         id="rect1398"
         width="0.79375005"
         height="1.4552083"
         x="3.1750002"
         y="2.9104168"
         rx="0.39687499"
         ry="0.39687499" />
      <g
         id="g1382">
        <path
           sodipodi:nodetypes="cccccc"
           id="path1291"
           d="M 1.5875005,8.73125 V 5.9531252 l 1.984375,-2.1166669 1.7197917,1.5875002 v 2.38125 z"
           style="fill:url(#linearGradient1299);fill-opacity:1;stroke:none;stroke-width:0.264583px;stroke-linecap:butt;stroke-linejoin:miter;stroke-opacity:1" />
        <g
           transform="translate(8.2046343)"
           id="g1336">
          <path
             style="fill:url(#linearGradient1332);fill-opacity:1;stroke:none;stroke-width:0.264583px;stroke-linecap:butt;stroke-linejoin:miter;stroke-opacity:1"
             d="M -5.1619255,8.3343752 V 6.2177085 l 1.0583331,-0.1322917 2e-7,1.9843751 z"
             id="path1314"
             sodipodi:nodetypes="ccccc" />
          <path
             style="fill:none;fill-opacity:1;stroke:url(#linearGradient1324);stroke-width:0.264583px;stroke-linecap:butt;stroke-linejoin:miter;stroke-opacity:1"
             d="m -4.2333332,8.2020833 10e-8,-1.9843748 L -5.1593748,6.35"
             id="path1316"
             sodipodi:nodetypes="ccc" />
        </g>
      </g>
      <g
         id="g1368"
         transform="translate(6.9727792)">
        <path
           sodipodi:nodetypes="ccccc"
           id="path1338"
           d="M -5.252987,8.73125 V 5.8208333 L -7.237362,4.8947916 v 2.1166669 z"
           style="fill:url(#linearGradient1354);fill-opacity:1;stroke:none;stroke-width:0.264583px;stroke-linecap:butt;stroke-linejoin:miter;stroke-opacity:1" />
        <path
           sodipodi:nodetypes="ccc"
           id="path1356"
           d="M -5.3852788,8.73125 -7.237362,7.0114585 V 5.1593749"
           style="fill:none;stroke:url(#linearGradient1364);stroke-width:0.264583px;stroke-linecap:round;stroke-linejoin:miter;stroke-opacity:1" />
      </g>
      <path
         style="fill:#8bbced;fill-opacity:1;stroke:none;stroke-width:0.264583px;stroke-linecap:round;stroke-linejoin:miter;stroke-opacity:1"
         d="M -0.26458299,5.6885418 1.1906257,6.7468752 c 0.2152091,0.00856 0.4219397,-0.041005 0.5291666,-0.396875 V 5.55625 L -0.26458299,5.0270835 Z"
         id="path1370"
         sodipodi:nodetypes="cccccc" />
      <g
         id="g1396">
        <path
           sodipodi:nodetypes="ccc"
           id="path1289"
           d="M 5.2916672,5.4239585 V 7.8052083 L 1.5875004,8.73125"
           style="fill:none;fill-opacity:1;stroke:#8d8db3;stroke-width:0.264583;stroke-linecap:round;stroke-linejoin:miter;stroke-miterlimit:4;stroke-dasharray:none;stroke-opacity:1" />
        <path
           id="path1384"
           d="M 3.7041671,3.8364584 5.5562505,5.6885418"
           style="fill:none;stroke:url(#linearGradient1392);stroke-width:0.396875;stroke-linecap:butt;stroke-linejoin:miter;stroke-miterlimit:4;stroke-dasharray:none;stroke-opacity:1"
           sodipodi:nodetypes="cc" />
      </g>
      <path
         style="fill:url(#linearGradient1271);fill-opacity:1;stroke:none;stroke-width:0.264583;stroke-linecap:butt;stroke-linejoin:miter;stroke-miterlimit:4;stroke-dasharray:none;stroke-opacity:1"
         d="M 1.1906257,6.4822918 3.836459,3.7041668 1.7197921,2.9104167 -0.66145767,5.0270835 Z"
         id="path1255"
         sodipodi:nodetypes="ccccc" />
    </g>
  </g>
</svg>
