<?xml version="1.0" encoding="UTF-8" standalone="no"?>
<svg
   inkscape:export-ydpi="96"
   inkscape:export-xdpi="96"
   inkscape:export-filename="/media/klapeto/Αρχεία/WindowsXP Theme/Vectors/RASTER/no-sound.png"
   sodipodi:docname="no-sound.svg"
   inkscape:version="1.1.1 (3bf5ae0d25, 2021-09-20)"
   id="svg8"
   version="1.1"
   viewBox="0 0 256 256"
   height="256"
   width="256"
   xmlns:inkscape="http://www.inkscape.org/namespaces/inkscape"
   xmlns:sodipodi="http://sodipodi.sourceforge.net/DTD/sodipodi-0.dtd"
   xmlns:xlink="http://www.w3.org/1999/xlink"
   xmlns="http://www.w3.org/2000/svg"
   xmlns:svg="http://www.w3.org/2000/svg"
   xmlns:rdf="http://www.w3.org/1999/02/22-rdf-syntax-ns#"
   xmlns:cc="http://creativecommons.org/ns#"
   xmlns:dc="http://purl.org/dc/elements/1.1/">
  <defs
     id="defs2">
    <linearGradient
       inkscape:collect="always"
       id="linearGradient2465">
      <stop
         style="stop-color:#3e3e3e;stop-opacity:1"
         offset="0"
         id="stop2461" />
      <stop
         style="stop-color:#999999;stop-opacity:0.9974103"
         offset="1"
         id="stop2463" />
    </linearGradient>
    <linearGradient
       gradientTransform="matrix(0.01427236,-0.04107656,-0.02784851,-0.00974698,-113.31099,112.58001)"
       gradientUnits="userSpaceOnUse"
       id="gradient4-3-5"
       spreadMethod="pad"
       x1="-819.20001"
       x2="819.20001">
      <stop
         offset="0.0"
         stop-color="#9999cc"
         id="stop127-6-4" />
      <stop
         offset="0.20392156862745098"
         stop-color="#ff9933"
         id="stop129-7-7"
         style="stop-color:#b5b5da;stop-opacity:1" />
      <stop
         offset="0.4823529411764706"
         stop-color="#ffff99"
         id="stop131-5-6"
         style="stop-color:#ffffff;stop-opacity:1" />
      <stop
         offset="1.0"
         stop-color="#ffcc66"
         id="stop133-3-5"
         style="stop-color:#99999c;stop-opacity:1" />
    </linearGradient>
    <linearGradient
       gradientTransform="matrix(0.05465271,0.05465271,0.06300726,-0.06300726,-59.702603,137.29556)"
       gradientUnits="userSpaceOnUse"
       id="gradient5-5-6"
       spreadMethod="pad"
       x1="-819.20001"
       x2="819.20001">
      <stop
         offset="0.0"
         stop-color="#333333"
         id="stop136-6-9" />
      <stop
         offset="0.3686274509803922"
         stop-color="#666666"
         id="stop138-2-3" />
      <stop
         offset="0.7215686274509804"
         stop-color="#cccccc"
         id="stop140-9-7" />
      <stop
         offset="1.0"
         stop-color="#cccccc"
         id="stop142-1-4" />
    </linearGradient>
    <radialGradient
       cx="0"
       cy="0"
       gradientTransform="matrix(0.0758872,0,0,0.0758872,-86.680851,113.45027)"
       gradientUnits="userSpaceOnUse"
       id="gradient6-2-5"
       r="819.20001"
       spreadMethod="pad">
      <stop
         offset="0.0"
         stop-color="#dddddd"
         id="stop145-7-2" />
      <stop
         offset="0.5137254901960784"
         stop-color="#666666"
         id="stop147-0-5" />
      <stop
         offset="1.0"
         stop-color="#9999ff"
         id="stop149-9-4" />
    </radialGradient>
    <linearGradient
       inkscape:collect="always"
       xlink:href="#linearGradient2465"
       id="linearGradient185327"
       gradientUnits="userSpaceOnUse"
       x1="-104.58068"
       y1="107.85081"
       x2="-31.202173"
       y2="162.23285" />
    <filter
       inkscape:collect="always"
       style="color-interpolation-filters:sRGB"
       id="filter1228"
       x="-0.058551796"
       y="-0.058195979"
       width="1.1171036"
       height="1.116392">
      <feGaussianBlur
         inkscape:collect="always"
         stdDeviation="4.627762"
         id="feGaussianBlur1230" />
    </filter>
    <filter
       inkscape:collect="always"
       style="color-interpolation-filters:sRGB"
       id="filter1828"
       x="-0.048336211"
       y="-0.047668433"
       width="1.0966724"
       height="1.0953369">
      <feGaussianBlur
         inkscape:collect="always"
         stdDeviation="2.370379"
         id="feGaussianBlur1830" />
    </filter>
  </defs>
  <sodipodi:namedview
     showguides="false"
     inkscape:snap-global="true"
     inkscape:bbox-paths="false"
     fit-margin-bottom="0"
     fit-margin-right="0"
     fit-margin-left="0"
     fit-margin-top="0"
     inkscape:bbox-nodes="true"
     inkscape:snap-bbox="true"
     inkscape:window-maximized="1"
     inkscape:window-y="0"
     inkscape:window-x="3840"
     inkscape:window-height="2045"
     inkscape:window-width="3840"
     units="px"
     showgrid="false"
     inkscape:document-rotation="0"
     inkscape:current-layer="layer1"
     inkscape:document-units="px"
     inkscape:cy="161.22035"
     inkscape:cx="39.244427"
     inkscape:zoom="2.8284271"
     inkscape:pageshadow="2"
     inkscape:pageopacity="0.0"
     borderopacity="1.0"
     bordercolor="#666666"
     pagecolor="#ffffff"
     id="base"
     inkscape:guide-bbox="true"
     inkscape:pagecheckerboard="0">
    <inkscape:grid
       originy="0"
       originx="0"
       id="grid1504"
       type="xygrid" />
    <inkscape:grid
       originy="0"
       originx="0"
       spacingy="0.5"
       spacingx="0.5"
       id="grid1507"
       type="xygrid" />
  </sodipodi:namedview>
  <metadata
     id="metadata5">
    <rdf:RDF>
      <cc:Work
         rdf:about="">
        <dc:format>image/svg+xml</dc:format>
        <dc:type
           rdf:resource="http://purl.org/dc/dcmitype/StillImage" />
      </cc:Work>
    </rdf:RDF>
  </metadata>
  <g
     transform="translate(-12.567709)"
     id="layer1"
     inkscape:groupmode="layer"
     inkscape:label="Layer 1">
    <g
       id="g1938">
      <path
         id="path193429"
         style="fill:#212121;fill-opacity:1;fill-rule:evenodd;stroke:none;stroke-width:4.34579;filter:url(#filter1228)"
         d="m 144.01732,6.9740523 c -0.95968,-0.013267 -1.92006,-0.0048 -2.8801,0.026166 C 128.34121,7.4129938 115.52205,11.749881 102.8848,19.924213 96.746193,23.851119 91.140772,28.370698 86.054639,33.453759 L 71.766287,28.551425 c -0.05062,-0.01708 -0.101722,-0.03266 -0.153256,-0.04672 -2.175154,-0.604214 -4.370674,-0.909795 -6.573202,-0.92328 -6.607585,-0.04046 -13.284526,2.536266 -19.710262,7.470312 -0.0081,0.0056 -0.01622,0.01118 -0.02429,0.01683 -8.552338,6.719676 -14.935139,16.04001 -19.130886,27.728177 -0.0091,0.02603 -0.01784,0.0522 -0.02616,0.07849 -3.890058,11.969425 -4.609703,23.246904 -2.007285,33.656592 2.605326,10.564364 8.313777,18.042654 16.843246,21.422254 0.03951,0.0159 0.0794,0.0309 0.119615,0.0449 l 11.774574,4.03886 c 0.541683,9.37541 2.339701,18.55545 5.440601,27.51138 7.735612,22.76055 22.007399,37.94332 42.334268,44.72283 0.002,6.4e-4 0.004,9e-4 0.006,0.002 0.002,6.4e-4 0.004,9.1e-4 0.006,0.002 20.45163,6.91368 41.20443,3.66467 61.42589,-9.41591 l 0.008,-0.006 c 20.22312,-12.93943 34.75451,-32.13762 43.465,-57.23565 0.002,-0.003 0.004,-0.005 0.006,-0.008 8.56655,-24.96117 8.96216,-49.06433 1.08588,-71.950122 -0.003,-0.0069 -0.007,-0.01372 -0.01,-0.02056 -8.02929,-22.745332 -22.34055,-38.041198 -42.51288,-45.116563 -0.008,-0.0025 -0.0162,-0.005 -0.0243,-0.0075 C 157.44131,8.2438588 150.735,7.0669171 144.01732,6.9740523 Z"
         sodipodi:nodetypes="scccccscccccccccsccccccccccs" />
      <g
         id="g143735-0-0"
         transform="matrix(1.2484115,0,0,1.2484115,201.91273,-72.79242)">
        <path
           inkscape:connector-curvature="0"
           style="fill:url(#gradient4-3-5);fill-rule:evenodd;stroke:none;stroke-width:3.48106"
           id="path64-6-7"
           d="m -142.72599,106.14004 c -3.01692,9.28284 -3.53908,17.86946 -1.56648,25.75987 1.97261,8.00645 6.03385,13.22805 12.18373,15.66479 l 23.84529,8.1805 23.149078,-67.532643 c -7.071952,-3.946271 -23.845288,-8.180501 -23.845288,-8.180501 -6.26592,-1.740533 -12.64787,-0.116036 -19.14586,4.87349 -6.49799,5.105561 -11.37148,12.183725 -14.62047,21.234494"
           sodipodi:nodetypes="cccccccc" />
        <path
           style="fill:none;stroke:#333366;stroke-width:4.35133;stroke-linecap:round;stroke-linejoin:round;stroke-opacity:1"
           inkscape:connector-curvature="0"
           id="path66-2-8"
           d="m -142.72599,106.14004 c 3.24899,-9.050769 8.12248,-16.128933 14.62047,-21.234494 6.49799,-4.989526 12.87994,-6.614023 19.14586,-4.87349 l 23.845288,8.180501 -23.149078,67.532643 -23.84529,-8.1805 c -6.14988,-2.43674 -10.21112,-7.65834 -12.18373,-15.66479 -1.9726,-7.89041 -1.45044,-16.47703 1.56648,-25.75987 z"
           sodipodi:nodetypes="cccccccc" />
        <path
           style="fill:#666666;fill-rule:evenodd;stroke:none;stroke-width:3.48106"
           inkscape:connector-curvature="0"
           id="path68-6-6"
           d="m -103.04185,94.652526 q -10.09509,7.658344 -14.79453,21.582594 -4.87349,13.92426 -1.56648,26.10799 3.30702,12.35777 12.70589,15.49073 9.398873,3.13296 19.493959,-4.35133 10.095087,-7.65834 14.794523,-21.5826 4.87349,-14.09831 1.566479,-26.10798 -3.307011,-12.357777 -12.705884,-15.490735 -9.224821,-3.132957 -19.493957,4.351331" />
        <path
           style="fill:none;stroke:#333333;stroke-width:4.35133;stroke-linecap:round;stroke-linejoin:round"
           inkscape:connector-curvature="0"
           id="path70-1-8"
           d="m -103.04185,94.652526 q 10.269136,-7.484288 19.493957,-4.351331 9.398873,3.132958 12.705884,15.490735 3.307011,12.00967 -1.566479,26.10798 -4.699436,13.92426 -14.794523,21.5826 -10.095086,7.48429 -19.493959,4.35133 -9.39887,-3.13296 -12.70589,-15.49073 -3.30701,-12.18373 1.56648,-26.10799 4.69944,-13.92425 14.79453,-21.582594 z" />
        <path
           inkscape:connector-curvature="0"
           style="fill:url(#gradient5-5-6);fill-rule:evenodd;stroke:none;stroke-width:3.48106"
           id="path72-8-8"
           d="m -116.09584,117.8016 q -10.09509,29.7631 -0.87027,56.39325 9.05077,26.63014 32.547951,34.46253 23.671237,8.00645 47.342474,-7.31023 23.671237,-15.14263 33.940377,-44.73168 10.0950864,-29.41499 0.870266,-56.21919 -9.398874,-26.63014 -32.722004,-34.810641 -23.497184,-8.006448 -47.168422,7.310235 -23.671232,15.14263 -33.940372,44.905726" />
        <path
           style="fill:none;stroke:#333333;stroke-width:4.35133;stroke-linecap:round;stroke-linejoin:round"
           inkscape:connector-curvature="0"
           id="path74-7-4"
           d="m -116.09584,117.8016 q 10.26914,-29.763096 33.940372,-44.905726 23.671238,-15.316683 47.168422,-7.310235 23.32313,8.180501 32.722004,34.810641 9.2248204,26.8042 -0.870266,56.21919 -10.26914,29.58905 -33.940377,44.73168 -23.671237,15.31668 -47.342474,7.31023 -23.497181,-7.83239 -32.547951,-34.46253 -9.22482,-26.63015 0.87027,-56.39325 z" />
        <path
           inkscape:connector-curvature="0"
           style="fill:url(#gradient6-2-5);fill-rule:evenodd;stroke:none;stroke-width:3.48106"
           id="path76-9-3"
           d="m -100.95321,123.0232 q -5.04755,14.79452 -0.69622,28.02257 4.525386,13.40209 15.838845,17.23127 11.487512,3.82917 23.149077,-3.82918 11.661566,-7.83239 16.709109,-22.62691 5.047543,-14.62047 0.696213,-28.02257 -4.35133,-13.22804 -15.664789,-17.057216 -11.487513,-4.003224 -23.323131,3.829176 -11.487512,7.65834 -16.709104,22.45286" />
        <path
           style="fill:none;stroke:#333333;stroke-width:4.35133;stroke-linecap:round;stroke-linejoin:round"
           inkscape:connector-curvature="0"
           id="path78-2-1"
           d="m -100.95321,123.0232 q 5.221592,-14.79452 16.709104,-22.45286 11.835618,-7.8324 23.323131,-3.829176 11.313459,3.829176 15.664789,17.057216 4.35133,13.4021 -0.696213,28.02257 -5.047543,14.79452 -16.709109,22.62691 -11.661565,7.65835 -23.149077,3.82918 -11.313459,-3.82918 -15.838845,-17.23127 -4.35133,-13.22805 0.69622,-28.02257 z" />
        <path
           style="fill:none;stroke:url(#linearGradient185327);stroke-width:4.35133;stroke-linecap:round;stroke-linejoin:round"
           inkscape:connector-curvature="0"
           id="path80-0-4"
           d="m -71.771715,192.991 c 30.891651,0 54.484011,-34.94114 53.853211,-69.55447 -0.455446,-24.991279 -15.097053,-50.543339 -40.164879,-50.543339 -28.173631,0 -57.224307,44.064759 -57.333477,60.420999 -0.24032,36.006 11.58584,59.67681 43.645145,59.67681 z"
           sodipodi:nodetypes="sssss" />
      </g>
      <path
         d="m 185.80818,119.293 a 57.326246,57.326246 0 0 0 -57.32647,57.32647 57.326246,57.326246 0 0 0 10.80598,33.49776 57.326246,57.326246 0 0 0 49.56211,28.5191 57.326246,57.326246 0 0 0 57.32648,-57.32647 A 57.326246,57.326246 0 0 0 235.3703,147.8121 57.326246,57.326246 0 0 0 185.80818,119.293 Z"
         style="opacity:1;fill:#212121;fill-opacity:1;fill-rule:evenodd;stroke:none;stroke-width:31.1562;stroke-linecap:round;stroke-linejoin:round;stroke-miterlimit:4;stroke-dasharray:none;filter:url(#filter1828)"
         id="circle942" />
      <g
         transform="matrix(2.6663372,0,0,2.6663372,361.67301,112.62668)"
         id="g940"
         style="opacity:1">
        <circle
           style="opacity:1;fill:#ffffff;fill-opacity:1;fill-rule:evenodd;stroke:none;stroke-width:11.685;stroke-linecap:round;stroke-linejoin:round;stroke-miterlimit:4;stroke-dasharray:none"
           id="path919"
           cx="-67.310364"
           cy="22.756973"
           r="18.249216" />
        <path
           d="m -66.691769,2.7592809 a 21.5,21.5 0 0 0 -21.5,21.5000001 21.5,21.5 0 0 0 21.5,21.5 21.5,21.5 0 0 0 21.5,-21.5 21.5,21.5 0 0 0 -21.5,-21.5000001 z m 0,5.5 a 16,16 0 0 1 16,16.0000001 16,16 0 0 1 -2.099609,7.921875 L -74.8988,10.524906 a 16,16 0 0 1 8.207031,-2.2656251 z M -79.40466,14.54639 -56.978878,36.972172 a 16,16 0 0 1 -9.712891,3.287109 16,16 0 0 1 -16,-16 16,16 0 0 1 3.287109,-9.712891 z"
           style="opacity:1;fill:#a21907;fill-opacity:1;fill-rule:evenodd;stroke:none;stroke-width:11.685;stroke-linecap:round;stroke-linejoin:round;stroke-miterlimit:4;stroke-dasharray:none"
           id="path917" />
        <path
           id="path889"
           style="opacity:1;fill:#f52e14;fill-opacity:1;fill-rule:evenodd;stroke:none;stroke-width:11.685;stroke-linecap:round;stroke-linejoin:round;stroke-miterlimit:4;stroke-dasharray:none"
           d="m -67.832682,1 a 21.5,21.5 0 0 0 -21.5,21.5 21.5,21.5 0 0 0 21.5,21.5 21.5,21.5 0 0 0 21.5,-21.5 21.5,21.5 0 0 0 -21.5,-21.5 z m 0,5.5 a 16,16 0 0 1 16,16 16,16 0 0 1 -2.099609,7.921875 L -76.039713,8.765625 A 16,16 0 0 1 -67.832682,6.5 Z m -12.712891,6.287109 22.425782,22.425782 A 16,16 0 0 1 -67.832682,38.5 a 16,16 0 0 1 -16,-16 16,16 0 0 1 3.287109,-9.712891 z" />
      </g>
    </g>
  </g>
</svg>
