<?xml version="1.0" encoding="UTF-8" standalone="no"?>
<svg
   inkscape:export-ydpi="96"
   inkscape:export-xdpi="96"
   inkscape:export-filename="/media/klapeto/Αρχεία/WindowsXP Theme/Vectors/RASTER/Convert.png"
   width="256"
   height="256"
   viewBox="0 0 256 256"
   version="1.1"
   id="svg8"
   inkscape:version="1.1.1 (3bf5ae0d25, 2021-09-20)"
   sodipodi:docname="refresh.svg"
   xmlns:inkscape="http://www.inkscape.org/namespaces/inkscape"
   xmlns:sodipodi="http://sodipodi.sourceforge.net/DTD/sodipodi-0.dtd"
   xmlns="http://www.w3.org/2000/svg"
   xmlns:svg="http://www.w3.org/2000/svg"
   xmlns:rdf="http://www.w3.org/1999/02/22-rdf-syntax-ns#"
   xmlns:cc="http://creativecommons.org/ns#"
   xmlns:dc="http://purl.org/dc/elements/1.1/">
  <defs
     id="defs2">
    <filter
       height="1.0814004"
       y="-0.040700221"
       width="1.1169811"
       x="-0.058490559"
       id="filter1115"
       style="color-interpolation-filters:sRGB"
       inkscape:collect="always">
      <feGaussianBlur
         id="feGaussianBlur1117"
         stdDeviation="2.6071086"
         inkscape:collect="always" />
    </filter>
  </defs>
  <sodipodi:namedview
     id="base"
     pagecolor="#ffffff"
     bordercolor="#666666"
     borderopacity="1.0"
     inkscape:pageopacity="0.0"
     inkscape:pageshadow="2"
     inkscape:zoom="0.35355341"
     inkscape:cx="-2576.697"
     inkscape:cy="-33.941124"
     inkscape:document-units="px"
     inkscape:current-layer="layer1"
     inkscape:document-rotation="0"
     showgrid="false"
     units="px"
     inkscape:window-width="3840"
     inkscape:window-height="2045"
     inkscape:window-x="3840"
     inkscape:window-y="0"
     inkscape:window-maximized="1"
     inkscape:snap-bbox="true"
     inkscape:bbox-nodes="true"
     fit-margin-top="0"
     fit-margin-left="0"
     fit-margin-right="0"
     fit-margin-bottom="0"
     inkscape:bbox-paths="false"
     inkscape:snap-global="true"
     inkscape:pagecheckerboard="0">
    <inkscape:grid
       type="xygrid"
       id="grid1504"
       originx="0"
       originy="0" />
    <inkscape:grid
       type="xygrid"
       id="grid1507"
       spacingx="0.5"
       spacingy="0.5"
       originx="0"
       originy="0" />
  </sodipodi:namedview>
  <metadata
     id="metadata5">
    <rdf:RDF>
      <cc:Work
         rdf:about="">
        <dc:format>image/svg+xml</dc:format>
        <dc:type
           rdf:resource="http://purl.org/dc/dcmitype/StillImage" />
      </cc:Work>
    </rdf:RDF>
  </metadata>
  <g
     inkscape:label="Layer 1"
     inkscape:groupmode="layer"
     id="layer1"
     transform="translate(-12.567709)">
    <g
       style="fill:#212121;fill-opacity:1;filter:url(#filter1115)"
       id="g1109"
       transform="matrix(1.5741343,0,0,1.5741343,-70.217178,-77.989778)">
      <path
         sodipodi:nodetypes="ccccccc"
         id="path1105"
         d="M 84.036304,133.14534 C 99.48626,93.276798 133.08927,79.634142 147.81248,95.942566 c -2.98972,11.202254 -9.24108,15.400984 -21.25869,21.258724 19.15456,5.89993 38.60688,6.68023 58.4615,5.31469 1.75611,-28.520048 4.49803,-51.205565 -4.18807,-70.430349 -3.50234,9.260505 -7.75358,16.031285 -11.75598,17.283523 -30.0946,-33.622826 -85.19406,9.056563 -85.034936,63.776186 z"
         style="fill:#212121;fill-opacity:1;stroke:none;stroke-width:10.6294px;stroke-linecap:butt;stroke-linejoin:miter;stroke-opacity:1" />
      <path
         style="fill:#212121;fill-opacity:1;stroke:none;stroke-width:10.2819px;stroke-linecap:butt;stroke-linejoin:miter;stroke-opacity:1"
         d="m 190.98016,132.30897 c -15.07808,37.15737 -49.15423,37.64502 -61.51084,25.91926 5.20352,-5.54483 13.02393,-8.23411 26.27716,-11.96876 -18.52847,-5.70708 -43.4817,-6.64537 -62.687323,-5.32446 -3.513006,23.6316 -4.747041,49.66409 4.133045,64.88592 3.387888,-8.9578 7.405158,-15.94584 11.116088,-18.26505 29.11088,32.52378 84.20567,-2.61945 82.67187,-55.24691 z"
         id="path1107"
         sodipodi:nodetypes="ccccccc" />
    </g>
    <g
       transform="matrix(1.5741343,0,0,1.5741343,-75.217284,-81.989777)"
       id="g1103">
      <path
         style="fill:#019901;fill-opacity:1;stroke:none;stroke-width:10.6294px;stroke-linecap:butt;stroke-linejoin:miter;stroke-opacity:1"
         d="M 84.036304,133.14534 C 99.48626,93.276798 133.08927,79.634142 147.81248,95.942566 c -2.98972,11.202254 -9.24108,15.400984 -21.25869,21.258724 19.15456,5.89993 38.60688,6.68023 58.4615,5.31469 1.75611,-28.520048 4.49803,-51.205565 -4.18807,-70.430349 -3.50234,9.260505 -7.75358,16.031285 -11.75598,17.283523 -30.0946,-33.622826 -85.19406,9.056563 -85.034936,63.776186 z"
         id="path2383-0"
         sodipodi:nodetypes="ccccccc" />
      <path
         sodipodi:nodetypes="ccccccc"
         id="path2383-8-3"
         d="m 190.98016,132.30897 c -15.07808,37.15737 -49.15423,37.64502 -61.51084,25.91926 5.20352,-5.54483 13.02393,-8.23411 26.27716,-11.96876 -18.52847,-5.70708 -43.4817,-6.64537 -62.687323,-5.32446 -3.513006,23.6316 -4.747041,49.66409 4.133045,64.88592 3.387888,-8.9578 7.405158,-15.94584 11.116088,-18.26505 29.11088,32.52378 84.20567,-2.61945 82.67187,-55.24691 z"
         style="fill:#019901;fill-opacity:1;stroke:none;stroke-width:10.2819px;stroke-linecap:butt;stroke-linejoin:miter;stroke-opacity:1" />
    </g>
  </g>
</svg>
