<?xml version="1.0" encoding="UTF-8" standalone="no"?>
<svg
   inkscape:export-ydpi="96"
   inkscape:export-xdpi="96"
   inkscape:export-filename="/media/klapeto/Αρχεία/WindowsXP Theme/Vectors/RASTER/bluetooth-locked.png"
   sodipodi:docname="bluetooth-locked.svg"
   inkscape:version="1.1.1 (3bf5ae0d25, 2021-09-20)"
   id="svg8"
   version="1.1"
   viewBox="0 0 256 256"
   height="256"
   width="256"
   xmlns:inkscape="http://www.inkscape.org/namespaces/inkscape"
   xmlns:sodipodi="http://sodipodi.sourceforge.net/DTD/sodipodi-0.dtd"
   xmlns:xlink="http://www.w3.org/1999/xlink"
   xmlns="http://www.w3.org/2000/svg"
   xmlns:svg="http://www.w3.org/2000/svg"
   xmlns:rdf="http://www.w3.org/1999/02/22-rdf-syntax-ns#"
   xmlns:cc="http://creativecommons.org/ns#"
   xmlns:dc="http://purl.org/dc/elements/1.1/">
  <defs
     id="defs2">
    <filter
       inkscape:collect="always"
       style="color-interpolation-filters:sRGB"
       id="filter18934"
       x="-0.058758526"
       y="-0.040571472"
       width="1.1175171"
       height="1.0811429">
      <feGaussianBlur
         inkscape:collect="always"
         stdDeviation="3.7854491"
         id="feGaussianBlur18936" />
    </filter>
    <linearGradient
       id="linearGradient1206"
       inkscape:collect="always">
      <stop
         id="stop1202"
         offset="0"
         style="stop-color:#e4bc4d;stop-opacity:1" />
      <stop
         id="stop1204"
         offset="1"
         style="stop-color:#cc9900;stop-opacity:1" />
    </linearGradient>
    <linearGradient
       id="linearGradient1150"
       inkscape:collect="always">
      <stop
         id="stop1146"
         offset="0"
         style="stop-color:#8d6420;stop-opacity:1" />
      <stop
         id="stop1148"
         offset="1"
         style="stop-color:#a77d35;stop-opacity:1" />
    </linearGradient>
    <linearGradient
       inkscape:collect="always"
       id="linearGradient1365">
      <stop
         style="stop-color:#daa943;stop-opacity:1"
         offset="0"
         id="stop1361" />
      <stop
         style="stop-color:#817a69;stop-opacity:1"
         offset="1"
         id="stop1363" />
    </linearGradient>
    <linearGradient
       inkscape:collect="always"
       id="linearGradient1339">
      <stop
         style="stop-color:#fffff0;stop-opacity:1"
         offset="0"
         id="stop1335" />
      <stop
         id="stop1343"
         offset="0.5"
         style="stop-color:#fffd9d;stop-opacity:1" />
      <stop
         style="stop-color:#fefbec;stop-opacity:1"
         offset="1"
         id="stop1337" />
    </linearGradient>
    <linearGradient
       inkscape:collect="always"
       id="linearGradient1325">
      <stop
         style="stop-color:#d8a518;stop-opacity:1"
         offset="0"
         id="stop1321" />
      <stop
         style="stop-color:#ffec86;stop-opacity:1"
         offset="1"
         id="stop1323" />
    </linearGradient>
    <linearGradient
       inkscape:collect="always"
       id="linearGradient1317">
      <stop
         style="stop-color:#ffd06a;stop-opacity:1"
         offset="0"
         id="stop1313" />
      <stop
         style="stop-color:#ffffc6;stop-opacity:1"
         offset="1"
         id="stop1315" />
    </linearGradient>
    <linearGradient
       id="linearGradient1308"
       inkscape:collect="always">
      <stop
         style="stop-color:#ffff99;stop-opacity:1"
         offset="0"
         id="stop1306" />
      <stop
         id="stop1304"
         offset="0.5"
         style="stop-color:#ffcd67;stop-opacity:1" />
      <stop
         style="stop-color:#d3a00f;stop-opacity:1"
         offset="1"
         id="stop1302" />
    </linearGradient>
    <linearGradient
       inkscape:collect="always"
       id="linearGradient1280">
      <stop
         style="stop-color:#d3a00f;stop-opacity:1"
         offset="0"
         id="stop1276" />
      <stop
         id="stop1284"
         offset="0.5"
         style="stop-color:#ffcc66;stop-opacity:1" />
      <stop
         style="stop-color:#ffff99;stop-opacity:1"
         offset="1"
         id="stop1278" />
    </linearGradient>
    <linearGradient
       gradientTransform="translate(12.5)"
       inkscape:collect="always"
       xlink:href="#linearGradient1280"
       id="linearGradient1282"
       x1="70.567711"
       y1="21"
       x2="70.567711"
       y2="3"
       gradientUnits="userSpaceOnUse" />
    <linearGradient
       gradientTransform="translate(12.5)"
       inkscape:collect="always"
       xlink:href="#linearGradient1308"
       id="linearGradient1300"
       x1="57.544079"
       y1="18.976562"
       x2="82.567711"
       y2="18.976562"
       gradientUnits="userSpaceOnUse" />
    <linearGradient
       gradientTransform="translate(12.5)"
       inkscape:collect="always"
       xlink:href="#linearGradient1317"
       id="linearGradient1319"
       x1="62.567711"
       y1="43.5"
       x2="62.567711"
       y2="22.5"
       gradientUnits="userSpaceOnUse" />
    <linearGradient
       gradientTransform="translate(12.5)"
       inkscape:collect="always"
       xlink:href="#linearGradient1325"
       id="linearGradient1327"
       x1="57.067711"
       y1="41"
       x2="57.067711"
       y2="24"
       gradientUnits="userSpaceOnUse" />
    <linearGradient
       gradientTransform="translate(12.5)"
       inkscape:collect="always"
       xlink:href="#linearGradient1339"
       id="linearGradient1341"
       x1="60.817451"
       y1="43.861931"
       x2="60.817451"
       y2="25.458643"
       gradientUnits="userSpaceOnUse" />
    <linearGradient
       inkscape:collect="always"
       xlink:href="#linearGradient1365"
       id="linearGradient1367"
       x1="53.067711"
       y1="74.257309"
       x2="53.067711"
       y2="64.257309"
       gradientUnits="userSpaceOnUse"
       gradientTransform="translate(32.104535,-36.757308)" />
    <linearGradient
       gradientTransform="translate(25.51726,2.0150484)"
       gradientUnits="userSpaceOnUse"
       y2="31.482708"
       x2="47.459911"
       y1="30.491322"
       x1="41.594791"
       id="linearGradient1152"
       xlink:href="#linearGradient1150"
       inkscape:collect="always" />
    <linearGradient
       inkscape:collect="always"
       xlink:href="#linearGradient1150"
       id="linearGradient1152-6"
       x1="41.594791"
       y1="30.491322"
       x2="47.459911"
       y2="31.482708"
       gradientUnits="userSpaceOnUse"
       gradientTransform="translate(40.721959,1.2996838)" />
    <linearGradient
       gradientUnits="userSpaceOnUse"
       y2="31.061457"
       x2="96.567709"
       y1="31.061457"
       x1="71.567709"
       id="linearGradient1208"
       xlink:href="#linearGradient1206"
       inkscape:collect="always" />
    <linearGradient
       gradientUnits="userSpaceOnUse"
       y2="18.976562"
       x2="96.567711"
       y1="18.976562"
       x1="67.567711"
       id="linearGradient1216"
       xlink:href="#linearGradient1206"
       inkscape:collect="always" />
    <linearGradient
       gradientUnits="userSpaceOnUse"
       y2="21"
       x2="78.567711"
       y1="2"
       x1="78.567711"
       id="linearGradient1224"
       xlink:href="#linearGradient1206"
       inkscape:collect="always" />
    <filter
       inkscape:collect="always"
       style="color-interpolation-filters:sRGB"
       id="filter954"
       x="-0.060293394"
       y="-0.039870659"
       width="1.1205868"
       height="1.0797413">
      <feGaussianBlur
         inkscape:collect="always"
         stdDeviation="2.8696098"
         id="feGaussianBlur956" />
    </filter>
  </defs>
  <sodipodi:namedview
     showguides="false"
     inkscape:snap-global="true"
     inkscape:bbox-paths="false"
     fit-margin-bottom="0"
     fit-margin-right="0"
     fit-margin-left="0"
     fit-margin-top="0"
     inkscape:bbox-nodes="true"
     inkscape:snap-bbox="true"
     inkscape:window-maximized="1"
     inkscape:window-y="0"
     inkscape:window-x="3840"
     inkscape:window-height="2045"
     inkscape:window-width="3840"
     units="px"
     showgrid="false"
     inkscape:document-rotation="0"
     inkscape:current-layer="layer1"
     inkscape:document-units="px"
     inkscape:cy="167.99104"
     inkscape:cx="-301.58118"
     inkscape:zoom="1.7441406"
     inkscape:pageshadow="2"
     inkscape:pageopacity="0.0"
     borderopacity="1.0"
     bordercolor="#666666"
     pagecolor="#ffffff"
     id="base"
     inkscape:guide-bbox="true"
     inkscape:pagecheckerboard="0">
    <inkscape:grid
       originy="0"
       originx="0"
       id="grid1504"
       type="xygrid" />
    <inkscape:grid
       originy="0"
       originx="0"
       spacingy="0.5"
       spacingx="0.5"
       id="grid1507"
       type="xygrid" />
  </sodipodi:namedview>
  <metadata
     id="metadata5">
    <rdf:RDF>
      <cc:Work
         rdf:about="">
        <dc:format>image/svg+xml</dc:format>
        <dc:type
           rdf:resource="http://purl.org/dc/dcmitype/StillImage" />
      </cc:Work>
    </rdf:RDF>
  </metadata>
  <g
     transform="translate(-12.567709)"
     id="layer1"
     inkscape:groupmode="layer"
     inkscape:label="Layer 1">
    <path
       id="rect18811"
       style="fill:#212121;fill-opacity:1;fill-rule:evenodd;stroke:none;stroke-width:26.6582;stroke-linecap:round;stroke-linejoin:round;filter:url(#filter18934);stop-color:#000000"
       d="m 106.88864,12.023 c -42.829001,0 -77.308592,34.479587 -77.308592,77.308593 v 69.310547 c 0,42.82901 34.479591,77.30859 77.308592,77.30859 42.82901,0 77.30859,-34.47958 77.30859,-77.30859 V 89.331593 C 184.19723,46.502587 149.71765,12.023 106.88864,12.023 Z" />
    <g
       id="g18027"
       transform="matrix(5.3316327,0,0,5.3316327,162.84181,-159.92347)">
      <rect
         style="opacity:1;fill:#0156f3;fill-opacity:1;fill-rule:evenodd;stroke:none;stroke-width:5;stroke-linecap:round;stroke-linejoin:round;stop-color:#000000"
         id="rect965"
         width="29.000002"
         height="42"
         x="-25.932289"
         y="31.5"
         rx="14.500001"
         ry="14.500001" />
      <path
         style="fill:none;stroke:#ffffff;stroke-width:3.37608;stroke-linecap:butt;stroke-linejoin:miter;stroke-miterlimit:4;stroke-dasharray:none;stroke-opacity:1"
         d="m -20.432291,43 17,16.5 -8,8 V 37 l 8,8 -17,16"
         id="path1223"
         sodipodi:nodetypes="cccccc" />
    </g>
    <path
       d="m 212.94508,77.176672 c -0.51515,0.0163 -1.03206,0.05112 -1.55055,0.104655 -20.66845,2.134144 -43.20062,19.457963 -43.20062,48.062953 v 13.02408 c -1.3137,0.58054 -2.60036,1.16795 -3.82267,1.7695 -7.17093,3.52909 -12.71472,7.31585 -15.55509,11.71038 a 1.9696101,1.9696101 0 0 0 -0.31397,1.06859 h -0.001 v 74.83682 c 0,4.04824 2.70885,8.86961 6.06587,13.25956 1.67851,2.19497 3.54884,4.20673 5.48339,5.734 1.86143,1.46956 3.7835,2.57149 5.92404,2.65357 14.49539,2.06111 37.14426,-2.49043 57.00823,-9.19452 9.93816,-3.35413 19.13706,-7.26192 26.19137,-11.26147 7.05433,-3.99954 12.14875,-7.81702 13.47714,-12.46638 a 1.9696101,1.9696101 0 0 0 0.0757,-0.54117 v -74.79689 a 1.9696101,1.9696101 0 0 0 0,-0.0399 1.9694131,1.9694131 0 0 0 -0.01,-0.19829 c -0.0515,-1.60441 -0.71384,-3.10625 -1.65658,-4.81001 -0.98166,-1.77411 -2.33099,-3.67277 -3.93146,-5.471 -3.20095,-3.59645 -7.34408,-6.93169 -11.99681,-7.24187 -0.68352,-0.0456 -1.39269,-0.073 -2.09998,-0.1019 v -13.68782 c 0,-8.47705 -3.81098,-16.864584 -9.61452,-23.018658 -5.07804,-5.384815 -11.77915,-9.114148 -18.93293,-9.388684 -0.51097,-0.01961 -1.02438,-0.02181 -1.53953,-0.0055 z m -0.88407,18.427599 c 4.97189,-0.06291 8.3567,2.296792 10.88278,5.988759 2.88695,4.21939 4.33355,10.29456 4.33355,15.87456 v 6.29447 c -11.94328,1.07122 -25.19922,3.59017 -37.45834,7.02017 -1.98965,0.55669 -3.94334,1.14313 -5.86896,1.74609 v -5.21349 c 0,-9.32189 3.69747,-16.75607 8.8117,-22.13598 5.11424,-5.379907 11.69095,-8.627348 17.06846,-9.395563 0.77714,-0.11102 1.52054,-0.17003 2.23081,-0.179016 z"
       style="fill:#212121;fill-opacity:1;stroke:none;stroke-width:3.93882px;stroke-linecap:butt;stroke-linejoin:miter;stroke-opacity:1;filter:url(#filter954)"
       id="path1238" />
    <g
       transform="matrix(3.9388271,0,0,3.9388271,-122.63662,68.16921)"
       id="g1236">
      <path
         style="fill:url(#linearGradient1327);fill-opacity:1;stroke:none;stroke-width:1px;stroke-linecap:butt;stroke-linejoin:miter;stroke-opacity:1"
         d="m 68.067709,20.5 v 19 c 0,1.5 2.5,5 4,5 v -20 c -1.130954,-0.310872 -3.456129,-3.098284 -4,-4 z"
         id="path1329"
         sodipodi:nodetypes="ccccc" />
      <path
         style="fill:url(#linearGradient1319);fill-opacity:1;stroke:none;stroke-width:1px;stroke-linecap:butt;stroke-linejoin:miter;stroke-opacity:1"
         d="m 72.067709,24.5 v 20 c 7,1 23,-4.5 24,-8 v -19"
         id="path1333"
         sodipodi:nodetypes="cccc" />
      <path
         sodipodi:nodetypes="ccc"
         id="path1331"
         d="m 96.067709,19 c -2.133286,1.627119 -16.5,6.5 -23,6.5 v 19"
         style="fill:none;stroke:url(#linearGradient1341);stroke-width:1.5;stroke-linecap:butt;stroke-linejoin:miter;stroke-miterlimit:4;stroke-dasharray:none;stroke-opacity:1" />
      <path
         sodipodi:nodetypes="ccc"
         id="path1266"
         d="m 68.067709,20.5 v 19 c 0,1.5 2.5,5 4,5"
         style="fill:none;fill-opacity:1;stroke:#d09d07;stroke-width:1px;stroke-linecap:butt;stroke-linejoin:miter;stroke-opacity:1" />
      <path
         sodipodi:nodetypes="cccc"
         id="path1264"
         d="m 72.067709,24.5 v 20 c 7,1 23,-4.5 24,-8 v -19"
         style="fill:none;fill-opacity:1;stroke:url(#linearGradient1208);stroke-width:1px;stroke-linecap:round;stroke-linejoin:round;stroke-opacity:1" />
      <path
         sodipodi:nodetypes="scscs"
         id="path1260"
         d="m 72.067709,24.5 c -1,0 -3.5,-2.5 -4,-4 2.5,-3.86792 16.5,-7.5 24,-7 1.881442,0.125429 4,3 4,4 -1.1547,2.000001 -15.666667,7 -24,7 z"
         style="fill:url(#linearGradient1300);fill-opacity:1;stroke:url(#linearGradient1216);stroke-width:1px;stroke-linecap:round;stroke-linejoin:round;stroke-opacity:1" />
      <ellipse
         rx="3.0141602"
         ry="1.8139881"
         style="fill:url(#linearGradient1152);fill-opacity:1;fill-rule:evenodd;stroke-width:5;stroke-linecap:round;stroke-linejoin:round"
         id="path1129"
         cx="69.977173"
         cy="33.497753"
         transform="rotate(-9.5940682)" />
      <ellipse
         rx="3.1270189"
         ry="1.8139881"
         transform="rotate(-9.5940682)"
         cy="32.782387"
         cx="85.18187"
         id="path1129-3"
         style="fill:url(#linearGradient1152-6);fill-opacity:1;fill-rule:evenodd;stroke-width:5;stroke-linecap:round;stroke-linejoin:round" />
      <path
         sodipodi:nodetypes="sssssssssss"
         id="path1262"
         d="m 76.067709,21 v -7 c 0,-5 4,-8.0714286 7,-8.5 3.5,-0.5 5,3 5,6 v 7 c 0,1 3,0 3,-1 v -8 c 0,-4 -3.652256,-8.100548 -7.481035,-7.7052031 C 78.576284,2.3121504 73.067709,6.5 73.067709,13.5 v 8 c 0,1 3,0.362872 3,-0.5 z"
         style="fill:url(#linearGradient1282);fill-opacity:1;stroke:url(#linearGradient1224);stroke-width:1px;stroke-linecap:round;stroke-linejoin:round;stroke-opacity:1" />
      <path
         d="m 86.567709,26.723842 -2.5,0.776158 V 31 c -1.0617,0.477211 -1.669208,1.325993 -1.509766,2.109375 0.1237,0.605322 0.689222,1.079394 1.509766,1.265625 V 38 l 2.5,-0.736612 v -3.181357 c 1.035426,-0.482185 1.620995,-1.318712 1.462891,-2.089843 -0.121503,-0.592745 -0.666999,-1.060313 -1.462891,-1.253907 V 30.53125 Z"
         style="fill:url(#linearGradient1367);fill-opacity:1;stroke:none;stroke-width:1px;stroke-linecap:butt;stroke-linejoin:miter;stroke-opacity:1"
         id="path1345"
         sodipodi:nodetypes="cccccccccccc" />
    </g>
  </g>
</svg>
