<?xml version="1.0" encoding="UTF-8"?>
<!-- Created with Inkscape (http://www.inkscape.org/) -->
<svg width="48" height="48" version="1.1" viewBox="0 0 48 48" xmlns="http://www.w3.org/2000/svg" xmlns:xlink="http://www.w3.org/1999/xlink">
 <defs>
  <linearGradient id="gradient0-1" x1="-819.2" x2="819.2" gradientTransform="matrix(-.084862 -.084862 -.084862 .084862 184.24 133.99)" gradientUnits="userSpaceOnUse">
   <stop stop-color="#039" offset="0"/>
   <stop stop-color="#09f" offset=".47059"/>
   <stop stop-color="#cff" offset="1"/>
  </linearGradient>
  <radialGradient id="gradient1-6" cx="0" cy="0" r="819.2" gradientTransform="matrix(.18846 0 0 .18846 172.4 86.046)" gradientUnits="userSpaceOnUse">
   <stop stop-color="#fff" offset="0"/>
   <stop stop-color="#cff" offset=".078431"/>
   <stop stop-color="#09f" offset=".29804"/>
   <stop stop-color="#06c" offset=".53725"/>
   <stop stop-color="#039" offset=".75294"/>
   <stop stop-color="#99f" offset="1"/>
  </radialGradient>
  <radialGradient id="gradient2-62" cx="-1495.2" cy="5091.2" r="819.2" gradientTransform="matrix(.15514 .11929 -.10521 .13683 903.68 -434.13)" gradientUnits="userSpaceOnUse">
   <stop stop-color="#00bf00" offset="0"/>
   <stop stop-color="#060" offset=".92941"/>
  </radialGradient>
  <radialGradient id="radialGradient1624" cx="-154.38" cy="-18.647" r="75.181" fx="-154.72" gradientTransform="matrix(.81058 0 0 .8081 293.75 101.34)" gradientUnits="userSpaceOnUse">
   <stop stop-color="#fff" offset="0"/>
   <stop stop-color="#fff" stop-opacity="0" offset="1"/>
  </radialGradient>
 </defs>
 <g transform="matrix(.23448 0 0 .23448 -20.138 -8.418)" fill-rule="evenodd">
  <path d="m85.882 133.99q0 40.502 28.655 69.433 28.93 28.655 69.708 28.655 40.503 0 69.433-28.655 28.655-28.93 28.655-69.433 0-40.778-28.655-69.433-28.93-28.655-69.433-28.655-40.778 0-69.708 28.655-28.655 28.655-28.655 69.433" fill="url(#gradient0-1)"/>
  <path d="m91.392 133.99q0 38.298 27.002 65.575 27.277 27.277 65.851 27.277 38.298 0 65.851-27.277 27.002-27.277 27.002-65.575 0-38.574-27.002-65.851-27.553-27.277-65.851-27.277-38.574 0-65.851 27.277-27.002 27.277-27.002 65.851" fill="url(#gradient1-6)"/>
  <path d="m173.78 41.965v0.54736h-0.54737v0.54736h-2.2077v0.55649h-2.2077v0.82105h-0.54737v2.2077h1.1038v0.54736h4.9536v0.55649h-2.7551v1.1039h-0.54736v-0.55649h-2.2077v1.1039h0.55648v1.6512h-0.55648v1.1039h-1.0947v0.54736h-0.55648v0.55649h-0.54736v0.54736h-0.55649v1.3775h-0.82105v0.55649h-0.55649v1.0947h0.55649v0.55649h1.3775v0.54736h2.1986v0.55649h2.2077v-0.55649h1.1038v-1.6512h0.54737v-0.54736h1.1038v-0.55649h0.54735v-0.54736h0.5565v-0.83017h0.54737v-1.1039h0.83016v-0.54736h2.1986v-0.54736h0.55649v1.0947h-0.55649v1.1039h1.6603v1.3775h0.54736v0.55649h-0.54736v0.54736h-2.2077v0.54736h-0.54736v0.55649h-3.0379v0.54736h-0.54735v0.55649h-0.54737v0.54736h0.54737v0.55649h1.1038v0.54736h1.3775v0.54736h0.54736v0.55649h-2.4814v1.6512h0.5565v1.1039h3.5761v1.3775h1.1039v-0.83017h1.6512v-0.54736h4.4154v0.54736h0.82105v0.83017h0.55649v1.6512h0.54737v0.54736h0.54735v4.4154h-0.54735v0.54737h-0.54737v0.54737h2.1986v0.55648h-0.54737v0.54737h0.54737v0.55648h1.6603v0.82105h0.54737v0.55648h-0.54737v0.54737h-1.1038v1.1039h-0.55649v0.54736h-0.54737v0.55649h0.54737v2.1986h0.55649v1.1039h0.54736v1.1039h0.55648v1.1039h0.54737v0.54737h0.54737v1.3775h0.55649v0.55649h0.54735v0.54736h2.7551v0.54736h2.4814v-1.6512h0.54735v-1.9249h1.3775v-1.6512h0.55649v-1.1039h1.6512v-0.55649h1.6512v-0.54736h0.55648v-0.55649h0.54737v-0.54737h0.54737v-1.1039h2.2077v-0.54736h0.54736v-0.55649h0.55649v0.55649h1.1038v-0.55649h1.9249v-0.54736h0.54735v-0.54737h1.6604v-0.55648h0.54736v-1.3775h0.55649v-2.1986h-0.55649v-0.55648h-0.54736v-2.1986h1.6512v-0.55649h0.54738v-0.54736h0.55649v-0.55649h0.54735v-0.54736h0.55649v-1.6512h-0.55649v-0.83017h-0.54735v-0.54736h2.7551v-1.1039h-0.55649v-0.54736h-0.54736v-1.1039h-0.54737v-1.1039h-1.6603v-0.54736h-1.6512v2.1986h-0.54736v1.1039h-0.5565v-2.2077h-0.54736v-0.54736h0.54736v-1.6512h1.1039v0.54736h1.1038v-1.6512h2.2077v-1.1039h-0.55649v-0.54736h-2.1986v1.0947h-1.1038v0.55649h-0.55649v-1.6512h0.55649v-0.55649h4.4063v-0.54736h0.54736v-0.83017h-2.7551v-0.54736h0.55649v-1.1039h0.54735v-0.54736h1.1039v-0.55649h0.54736v-1.6512h0.55649v-1.1039h-1.1038v-0.54736h-2.7551v1.6512h-0.54735v0.54736h-0.55649v0.55649h-1.1038v-0.55649h0.55649v-0.54736h0.54736v-0.54736h0.55649v-1.6603h-3.3116v-0.54736h0.54735v-1.1039h-0.54735v-0.54736h-2.4814v-0.55649h-2.1986v-0.82105h-2.2077v-0.55649h-6.3403v0.55649h-1.0947v0.82105h-1.934v0.55649h-0.54737v0.54736h-1.6512v0.55649h-0.5565v0.54736h-2.7551v0.54736h-2.7551v0.55649h-3.0288v0.54736h-1.6512v-0.54736h1.0947v-0.55649h1.1038v-0.54736h-0.54736v-0.54736h-0.55649v-2.4814h-0.54737v-0.55649h-0.54736v-0.54736h-0.55649v-0.54736h-3.8589v0.54736h-1.6512v-0.54736zm-12.954 2.4723v1.1039h-0.54737v1.6512h-0.54737v-0.54736h-1.1038v-1.1039h-2.2077v0.55649h-1.9249v0.54736h1.3775v0.54736h0.54736v0.55649h1.1038v0.54736h1.6512v-0.54736h0.55648v1.1039h0.54737v0.54736h-0.54737v0.54736h1.0947v1.1039h-0.54737v0.55649h0.54737v1.6512h3.8589v-1.1039h0.55649v-0.54736h0.82105v-1.1039h0.55649v-1.6512h-1.3775v-2.2077h-0.55649v-0.54736h-0.54736v-0.55649h-1.6512v-1.1039zm-7.9824 2.2077v0.54736h0.54736v-0.54736zm-3.8589 1.6512v0.55649h-1.6512v0.54736h-1.1038v1.1039h2.1986v2.1986h1.6603v0.55649h0.54736v-0.55649h0.54736v0.55649h0.55649v4.68h-1.1038v1.1039h-0.54736v0.55649h-0.55648v1.0947h0.55648v3.8589h1.6512v-1.6512h0.54737v-0.54736h1.1038v-0.55649h0.54737v-0.54736h0.55649v-1.6512h0.54736v-0.55649h4.1326v-0.54736h1.1038v0.54736h1.6512v2.2077h5.7929v-1.6512h-0.55648v-1.1039h-3.5852v-3.8589h-1.0947v-0.83017h-2.2077v-0.54736h-2.2077v0.54736h-2.1986v-0.54736h-0.83017v-0.55649h-1.1038v-1.0947h-0.54737v-1.1039h-2.2077v-0.55649h-0.54736v-0.54736h-1.1038v-1.1039zm-5.2364 2.2077v0.54736h-1.1038v0.55649h-1.1038v0.54736h-1.1038v0.54736h0.55649v0.55649h1.1038v0.54736h0.54736v1.3775h0.55649v0.55649h1.9249v0.54736h3.3024v-0.54736h1.1039v-2.4814h-3.8589v1.3775h-0.54736v-3.0288h0.54736v-1.1039zm-7.1614 4.1326v0.54736h-1.1038v0.55649h-0.55649v0.54736h-1.3775v0.54736h-0.54737v0.55649h-1.1038v0.54736h1.1038v1.1039h3.0288v-0.54736h2.2077v-0.55649h1.1038v-1.1039h0.54736v-1.0947h-0.54736v-0.55649h-1.6603v-0.54736zm5.5101 2.7551v0.54736h-0.55649v2.2077h-1.6512v1.6512h0.54737v0.55649h0.55649v0.54736h0.54736v1.1039h1.1038v0.54736h3.0288v-0.54736h0.55649v1.3775h-0.55649v0.54736h-0.54736v1.1039h-1.3775v1.1039h-1.1038v-1.6512h-1.6512v-0.55649h-1.6512v-1.3775h-0.55649v-3.3024h-0.54736v-0.55649h-1.6512v0.55649h-0.55648v-0.55649h-2.4814v-0.54736h-1.6512v1.1039h-0.54735v-1.6512h-1.1039v-0.55649h-0.54736v0.55649h-0.55648v1.0947h-0.54737v-0.54736h-0.55649v0.54736h-0.54736v0.55649h-0.54736v0.54736h-0.55649v0.55649h-1.1039v0.54736h-0.54736v0.54736h1.1038v-0.54736h0.54737v1.1039h0.55649v1.9249h1.0947v0.55649h2.2077v-0.55649h1.1039v0.55649h1.1038v0.54736h-4.4154v1.6512h0.55649v0.55649h1.6512v0.54736h0.54737v0.54736h2.7551v-0.54736h3.0379v-0.54736h1.6512v0.54736h2.7551v-0.54736h0.54736v-1.1039h0.55649v1.6512h1.1038v0.54736h1.0947v-0.54736h1.3775v0.54736h0.55649v1.1039h0.54736v0.55648h0.55649v1.0947h-0.55649v0.55648h-1.6512v-0.55648h0.54736v-1.0947h-3.5761v1.6512h-2.2077v0.54737h-0.54736v-0.54737h-0.55649v-0.55648h-0.54736v-0.54737h-1.6512v-1.1039h-0.55648v-0.54736h-0.54737v0.54736h-2.4814v0.55648h-0.54736v1.6512h0.54736v0.54737h-0.54736v0.55648h-0.55649v-1.1039h-0.54735v-0.55648h-1.1039v0.55648h-2.7551v-0.55648h0.54736v-1.6512h-0.54736v-0.54736h-0.54736v-0.55649h-1.1039v1.1039h-0.55649v-0.54736h-0.54736v-0.55649h-0.83017v-0.54736h-1.0947v-0.54736h-1.1038v-0.55649l-3.8498-0.0091c-0.87252 0.81265-4.0433 4.0572-8.5298 9.9255-3.0743 4.0212-5.861 8.4293-7.0792 11.002l0.72069 0.0276v1.0947h0.54737v0.55649h0.55649v0.54736h2.4814v0.55649h1.6512v0.54736h0.54736v0.54737h0.55649v1.1037h1.0947v1.934h0.55649v0.54736h1.1038v0.54737h-0.55648v1.6603h0.55648v1.9249h0.54737v0.54737h0.54736v0.55649h0.55649v1.1038h0.82104v0.54736h1.1039v0.54737h0.55649v0.55649h1.1038v0.54736h0.54737v0.55649h0.54737v4.1326h-0.54737v2.7551h-0.54737v5.5101h0.54737v1.1038h0.54737v1.3775h0.55648v0.54737h0.54737v1.1038h1.1038v1.1038h0.54736v0.54737h0.55649v0.54736h1.6512v0.55649h0.54736v1.6512h0.83017v0.54736h0.54736v1.1038h0.55649v0.55649h0.54737v1.3775h0.55649v1.1039h1.0947v0.54736h0.55649v0.54737h0.54737v1.1038h0.55648v0.55649h0.54736v1.0947h1.1039v0.55649h1.6512v-1.1038h-0.54736v-0.54736h-0.55649v-1.1039h-0.54735v-0.55648h-0.5565v-1.0947h1.1038v1.0947h0.55649v0.55648h1.0947v1.1039h1.3775v0.54736h0.55649v0.54736h0.54737v2.2077h0.55648v1.6512h1.0947v0.55649h2.2077v0.82105h1.1039v0.55649h2.7551v1.0947h6.3403v0.55648h0.54736v0.54737h0.54736v0.55649h0.55649v0.54736h1.6512v0.54737h1.1039v0.55648h0.54736v1.1038h0.83017v1.6512h1.1038v0.54737h3.8498v0.55648h2.2077v0.54737h0.54737v2.4814h-0.54737v1.1038h-0.54736v1.0947h-0.55649v1.6603h-0.54736v1.1038h-1.1038v0.54737h-0.54737v2.2077h-0.55648v1.3775h0.55648v1.6512h0.54737v0.54736h0.54737v0.55649h0.55648v1.0947h0.54736v1.1038h0.55649v2.7551h0.54736v0.55648h0.54737v0.54737h0.55649v0.54737h0.54736v0.83017h1.3775v0.54736h1.1038v0.55649h0.55648v0.54736h0.54737v0.55649h0.54737v9.0862h-0.54737v1.6603h-0.54737v3.8498h-0.55648v3.0379h-0.54736v1.6512h-0.55649v4.1326h0.55649v0.54737h-0.55649v1.1038h-0.82105v1.1038h0.82105v4.4063h-0.82105v0.55649h-0.55649v2.4723h-0.54736v6.614h0.54736v0.55649h0.55649v0.54736h0.82105v0.54737h1.1038v-0.54737h1.1038v0.54737h0.54737v1.3775h-1.0947v1.6603h1.0947v1.0947h2.2077v0.55649h1.1038v-0.55649h1.1038v0.55649h1.0947v-1.1039h0.5565v-1.6512h-0.5565v-0.55649h-0.54735v-0.54736h-1.6512v-0.83017h-0.55649v-0.54737h-0.54736v-2.2077h-0.54736v-1.0947h0.54736v-0.55649h0.54736v-1.1038h0.55649v-0.54736h0.54737v-0.54737h0.55648v-2.7551h-1.1038v-1.934h1.1038v-0.54736h0.54737v-1.6603h0.54735v-1.0947h0.5565v-1.6603h-0.5565v-0.54736h1.934v-1.1038h0.54736v-1.6512h1.6512v0.54736h1.1039v-0.54736h1.1038v-0.54737h0.54737v-3.5852h-0.54737v-0.54743h3.3024v-0.83018h0.55649v-1.1038h0.54736v-1.1038h0.55648v-1.0947h0.82105v-1.6603h0.55649v-0.54736h0.54737v-1.1038h0.54735v-1.1038h0.55649v-1.9249h0.54737v-0.54736h0.55649v-0.55649h1.1038v-1.1038h2.1986v-0.54737h1.1039v-0.55649h0.54736v-0.54736h0.55649v-0.54736h0.54737v-0.55649h0.55648v-1.1038h0.82105v-2.7551h0.55648v-2.4723h0.54738v-1.1038h0.54735v-1.1038h0.55649v-0.54736h0.82105v-1.1038h0.55649v-0.55649h0.54736v-4.68h-1.1038v-0.54736h-1.3775v-0.55649h-0.54735v-0.54736h-1.9249v-0.55649h-2.2077v-0.54736h-1.6512v-1.6512h-4.9628v-2.7551h-0.54737v-0.55649h-0.55649v-0.54736h-0.82105v-0.55649h-1.1038v-0.54736h-0.55649v-0.83017h-2.1986v-0.54736h-1.1038v-0.54737h-0.54736v-0.55648h-0.55648v-0.54737h-0.54737v-0.55649h-0.55649v-0.54736h-0.54736v-0.54737h-1.1039v-0.55648h-3.5761v0.55648h-0.55648v-0.55648h-0.54737v-0.54737h-1.1038v-1.1038h-2.7551v0.54737h-1.1038v0.55648h-1.9249v0.54737h-0.55649v1.1038h-0.54736v0.54736h-0.55649v-0.54736h-2.1986v0.54736h-1.1038v-0.54736h-1.1038v-0.54737h-0.54737v-1.1038h-0.55649v-0.55648h0.55649v-3.8498h-3.5852v-3.5852h0.83017v-1.6512h-3.0288v0.54737h-1.6604v1.1038h-0.54736v0.54736h-1.1038v0.55649h-1.6512v-0.55649h-1.6512v-0.54736h-0.55649v-1.6512h-0.54736v-1.1038h-0.83018v-1.6512h-0.54736v-2.2077h0.54736v-0.54736h0.83018v-0.83017h1.1038v-0.54736h4.9536v-0.55649h5.2365v0.55649h0.55649v1.9249h0.54736v1.1038h0.54736v0.54737h0.55649v0.55648h0.54737v0.54737h1.6512v-0.54737h0.55648v-1.6512h-0.55648v-1.1038h-0.54737v-1.3775h-0.54737v-2.2077h0.54737v-1.1038h1.1038v-0.54736h0.54736v-0.55649h0.55649v-1.0947h1.0947v-0.55649h0.55649v-0.54736h0.54736v-1.1038h-0.54736v-0.54737h1.1038v-1.3775h1.3775v-3.3116h3.8589v-0.54736h0.54736v-0.55649h-0.54736v-0.54736h-0.5565v-0.54737h0.5565v-0.55649h0.54736v-0.54736h1.1038v0.54736h2.1986v-0.54736h1.1039v-0.55649h1.3775v-1.0947h-0.54736v-0.55648h-0.83016v-0.54737h-1.1039v-0.83017h-0.54735v-1.6512h0.54735v-2.2077h-1.6512v0.55649h-0.54737v-0.55649h0.54737v-0.54736h4.1326v-0.55649h1.6512v0.55649h1.1039v-0.55649h0.55648v-0.54736h0.54736v-0.54737h0.54737v-0.55648h1.1038v-0.54737h0.55649v-2.2077h-0.55649v-1.3775h-0.54737v-0.54737h-0.55648v-0.55648h-2.1986v-0.54737h-0.55649v-1.9249h-0.54736v-0.55649h-0.54736v-1.1038h-0.5565v-1.6512h-0.54736v-1.1038h-0.83016v-1.0947h-0.54737v-1.1038h-1.1038v0.54737h-0.54737v1.6512h-1.1038v0.55649h-1.6512v-0.55649h-0.5565v-3.8498h-1.1038v-0.55649h-0.54737v-0.54737h-0.54737v-0.83017h-3.5852v-0.54737h-0.55649v-0.55648h1.6603v-2.1986h-1.1038v0.54736h-0.55649v0.55649h-1.0947v-0.55649h-0.55649v-0.54736h-0.54736v-1.1039h-1.1038v-0.55649h-0.54737v-0.54737h-1.1038v-1.1039h-0.55649v0.55649h-0.54736v0.54736h-1.1038v1.1039h-0.54736v1.6512h1.1038v1.1039h1.6512v-0.54736h0.54737v-0.55649h1.1038v0.55649h1.1038v3.0287h-0.55648v2.1986h0.55648v1.6603h-0.55648v3.3024h0.55648v2.2077h0.54736v0.82105h-0.54736v0.55648h-0.55648v0.54737h-0.54737v0.54737h-0.54737v4.1326h0.54737v1.1039h-0.54737v0.55648h-0.55648v-0.55648h-0.54737v-1.1039h-0.55649v-0.54736h-0.54736v-1.9249h-0.54736v-1.6603h-0.55649v-0.54737h-5.2365v-0.54737h-0.54736v-0.55648h-0.54736v-1.9249h-0.55648v-1.1038h-1.1039v-0.54737h-0.54736v-1.1038h-0.54737v0.54736h-0.55649v-0.54736h-0.54736v-0.55649h-0.55649v-1.0947h0.55649v-1.6603h0.54736v-0.54736h0.55649v-0.54736h0.54737v-0.55649h0.54736v-1.3775h1.1039v-0.54737h2.7551v-2.7551h0.55649v-1.1039h0.54736v-0.55649h0.54737v-1.6512h-1.0947v-0.54736h1.6512v0.54736h1.3775v-0.54736h2.1986v-1.1039h0.55649v-0.54737h0.54737v-3.0379h-1.1039v-0.54737h0.55649v-0.54737h0.54737v-1.6603h-1.1039v-1.6512h-3.0287v1.6512h0.83017v0.55649h-0.83017v0.54736h-0.54736v1.6512h-0.55649v-0.54737h-0.54737v-2.2077h-1.1038v0.55649h-0.54737v-0.55649h-1.6512v-2.7551h-0.55648v-2.1986h-0.54738v-2.4814h-2.7551v-4.9628h-0.55649v-0.54736zm16.53 25.899v1.1039h2.1986v-1.1039zm2.1986-20.389v1.6512h-0.54737v1.934h-0.54737v1.0947h0.54737v0.55649h0.54737v1.1039h0.55648v1.6512h1.1038v0.54736h1.0947v2.2077h1.1038v0.54737h0.55649v-0.54737h0.82105v-2.2077h1.1038v0.55648h1.6512v0.54737h0.55648v0.54737h0.54736v0.55648h0.5565v3.0288h-0.5565v1.6512h-0.54736v0.55649h-0.55648v-0.55649h-1.0947v1.1039h-0.55648v1.1039h0.55648v0.54736h2.7551v0.55649h1.0947v1.1039h0.55649v0.54736h1.1038v0.54737h0.54737v0.55648h1.6512v-1.1039h0.83016v0.54737h1.1039v-2.1986h-0.5565v-1.1039h-0.54736v-0.55649h0.54736v-0.54737h1.6512v-0.54736h1.1039v-1.1039h-0.54737v-1.6512h-1.6512v-1.3775h-0.5565v-0.55648h-1.3775v-0.54737h-1.1039v-0.55648h1.1039v-2.7551h-1.1039v-1.0947h-0.54735v-0.55649h-1.1038v-1.1039h-1.6512v-1.0947h-0.54736v-0.55649h-3.3116v-0.54736h-1.1038v-0.83017h0.55649v-0.54736h-0.55649v-1.1039zm92.879 9.0862-0.84841 0.0093v0.54737h-0.54736v1.1039h-0.83017v1.9249h-0.54736v1.1038h-0.5565v1.1039h-0.54736v1.6512h-1.1038v1.1039h-0.54738v1.1039h-0.55648v1.1039h-0.54736v0.54736h-0.55649v0.54737h-0.54737v0.55648h-0.54737v0.54737h-0.55648v0.83017h-0.54736v0.54737h-1.1039v0.55648h-0.54736v0.54737h-0.55648v0.54736h-1.3775v0.55649h0.83017v0.54736h-0.83017v1.6512h0.83017v2.2077h-0.83017v1.1038h0.83017v1.9249h0.54737v0.55648h2.7551v-0.55648h0.55648v-0.82104h0.54737v-1.1039h0.54737v-0.55648h0.55649v-0.54737h0.54736v2.2077h-0.54736v1.3775h0.54736v1.6512h0.55648v1.1038h0.54738v0.82105h2.2077v-0.82105h1.3775v-1.1038h0.54736v-1.6512h0.54737v-1.3775h0.55649v-1.1039h0.54736v-0.55648h0.55648v-2.1986h-1.1038v-3.3116h0.54736v-0.54736h0.55648v-0.54737h1.0947v-0.55648h0.55648v5.5101h0.54736v0.55649h1.1039v0.54737h0.54736v0.54736h-0.54736v2.4814h0.54736v1.1038h-0.54736v-0.54737h-0.54736v-0.55648h-0.5565v0.55648h-0.54736v0.54737h-0.55648v0.54737h-0.54737v1.6603h-0.54737v1.3775h-1.1038v0.54736h-0.55649v-0.54736h-1.0947v0.54736h-0.83017v0.54736h-2.2077v-0.54736h-2.7551v-2.4814h0.55649v-1.1038h-0.55649v-1.6514h-0.54737v0.55648h-1.1038v0.54737h-0.54736v0.54737h-0.55649v2.4814h0.55649v2.2077h-1.1039v0.54737h-2.4814v1.1038h-0.54736v1.1038h-0.55649v0.54736h-0.54737v0.55649h-0.55649v-2.2077h-0.54736v-0.54737h-0.54736v-0.55648h-0.55649v-1.1039h-0.54737v-0.54736h-0.55648v-4.68h-1.6512v-0.55648h-0.54736v-0.82105h0.54736v-1.1038h-2.1986v0.54736h-0.55649v1.934h-0.82104v2.1986h0.82104v1.3775h-3.5761v1.6512h-0.55649v-0.54736h-1.1038v0.54736h-0.54736v1.1039h1.1038v3.3116h2.1986v-0.55649h1.6603v-0.54736h0.82104v0.54736h1.1039v0.55649h-1.1039v0.54737h-0.82104v0.55648h-0.55648v1.0947h2.4814v-0.54736h2.2077v0.54736h-1.6603v0.55649h-1.0947v1.9249h1.0947v0.55648h0.55649v0.54737h0.54736v0.54736h0.55649v3.3116h-5.2364v-0.55649h-1.1038v0.55649h-1.1039v7.9915h1.1039v1.0947h0.54736v0.55649h-0.54736v1.6512h-0.54737v0.54737h-0.55649v0.55648h-0.54736v1.1039h-0.55649v1.3775h-0.54736v0.54736h-0.54737v0.55649h-0.55648v0.54736h-1.1038v0.54737h-0.54737v0.55648h-0.54737v1.1039h-1.934v2.7551h-1.1038v0.54737h-0.54736v1.1038h-0.54737v0.54736h0.54737v2.4814h0.54736v1.1038h-0.54736v0.54737h-0.54737v3.3116h0.54737v0.54737h0.54736v0.54736h0.55649v0.55649h0.54736v0.54737h1.3775v0.55648h0.55648v0.54737h0.54737v1.3775h0.54737v1.1038h1.1038v0.54736h0.55648v0.55649h0.54737v0.54736h0.54736v0.54737h3.3116v-0.54737h4.1326v0.54737h0.54736v-0.54737h2.2077v-0.54736h2.7551v0.54736h1.1039v0.54737h3.5761v0.55649h0.55648v1.6512h-0.55648v1.1039h-0.54738v2.2077h0.54738v0.54736h1.1038v1.9249h0.55648v0.55649h0.54737v2.1986h0.54737v0.55649h0.55649v1.1038h0.54736v1.6512h-0.54736v0.54737h-0.55649v0.55648h0.55649v1.0947h-1.1039v2.4814h-0.54737v1.6512h0.54737v1.1038h0.54737v1.1038h0.55649v1.6512h0.54736v1.6603h0.55648v1.9249h0.54738v1.1038h0.54735v2.1986h0.55649v0.55649h0.54736v0.54736h0.5565v1.1039h0.54736v2.7551h1.3775v0.83018h2.7551v-0.83018l2.1074 0.0182c5.9891-8.0747 19.395-24.803 19.395-57.181 0-32.379-14.029-51.047-23.409-61.87zm-89.567 0.0093h0.54736v1.0947h-0.54736zm47.393 1.6512h0.54738v0.54737h-0.54738zm-37.203 4.1326h0.5565v1.1039h-0.5565zm39.401 0.54736v0.55649h-0.54737v1.0947h-0.55649v1.1039h1.1039v0.55649h-0.54737v0.54736h-0.55649v1.1039h1.6604v0.54737h1.1038v0.55648h0.54735v0.54737h1.6512v0.83017h2.7551v-0.83039h3.5852v-0.54737h1.1038v-0.55648h1.0947v-0.54737h0.55649v-0.54736h0.54736v-1.6603h-0.54736v-0.54736h-0.55649v-0.55649h-0.54736v-0.54737h-0.54737v-0.54736h-2.2077v0.54736h-3.0288v-0.54736h-2.2077v0.54736h-0.54735v0.54737h-0.55649v-0.54737h-0.54738v-0.54736h-0.54735v-0.55649zm44.638 3.8589h1.6512v1.1039h-0.54737v0.54737h-0.55649v0.55648h-0.54736v0.54737h-0.54736v0.83017h-0.5565v-2.4814h0.5565v-0.54732h0.54736zm3.3024 9.6427h1.3775v0.55649h-0.54736v0.54736h-2.4814v-0.54736h1.6512zm-29.749 9.9164h1.0947v1.1038h-1.6512v-0.54736h0.55649zm-60.894 4.4154h0.54736v0.54736h-0.54736zm-1.1039 0.54714h0.5565v0.55649h-0.5565zm-18.738 0.55649h1.6604v0.54736h0.54736v0.54737h1.1039v0.55648h-1.6512v-0.55648h-0.55649v0.55648h-2.1986v-0.55648h0.54736v-0.54737h0.54736zm87.341 0h1.1039v1.0947h0.55649v0.55648h-3.8589v-0.55648h1.1039v-0.54737h1.0947zm-4.9536 2.1986h1.1038v1.934h-0.55649v-0.55649h-0.54736zm-77.151 0.83017h2.2077v0.54736h0.54737v0.55649h-0.54737v-0.55649h-0.55649v1.6512h-0.54736v-1.6512h-1.1038zm3.3116 0.54736h0.54737v0.55649h-0.54737zm-5.7929 1.1038h0.55649v1.1038h-0.55649v1.6512h-1.0947v-0.54736h0.54736v-1.6603h0.54737zm7.4442 0h1.1038v0.54737h-0.55649v1.1038h-0.54736v0.55649h-0.55648v0.54736h-2.1986v-0.54736h0.54737v-0.55649h2.2077zm2.1986 0h0.55649v0.54737h-0.55649zm86.794 4.4063h1.1039v0.55648h0.83017v0.54737h0.54736v0.54736h1.1039v0.55649h0.54736v1.9249h0.55648v2.2077h0.54737v1.1038h0.54737v0.54737h0.55648v0.54736h1.6512v-1.0947h0.54736v-0.55648h0.55649v-2.1986h0.54737v-0.55648h0.55648v2.2077h0.54737v0.54737h0.54736v1.1038h0.83017v0.54736h1.1038v0.55649h2.2077v-0.55649h0.54735v0.55649h2.7551v0.54736h0.54736v1.1039h-0.54736v0.54736h-0.54737v1.1038h-0.55649v0.55649h-0.54736v0.54736h-6.3403v-0.54736h-2.7551v-0.55644h-3.8589v0.55649h-0.54736v1.3775h0.54736v0.54736h-1.6512v-0.54736h-1.3775v-0.83017h-0.54736v-1.1038h-0.5565v-0.54737h-1.6512v-0.55648h-1.6512v-0.54737h-0.55649v-3.3024h-0.54737v-0.55649h-5.2364v0.55649h-3.8589v0.54736h-1.1038v-2.2077h0.55648v-0.54736h0.54737v-1.9249h1.1038v-0.55649h1.6512v-0.54737h0.55649v-1.6512h0.54736v0.54736h2.4814v-0.54736h1.1039v1.6512h-0.55649v3.5761h1.6603v-0.54736h0.54737v-4.1326h0.54737v0.54737h1.1038v1.1038h0.55648v0.55649h1.0947v2.4723h-1.6512v1.1038h0.55648v0.55649h2.1986v0.54736h0.5565v-1.1038h1.3775v-0.54736h1.0947v-0.55649h0.55649v-2.4723h-0.55649v-1.1039h-1.0947v-0.55648h-0.83017v-0.54737h-1.1039zm-12.398 4.1326v1.1038h1.6512v-1.1038zm-5.5101 3.3116h2.2077v1.0947h-1.1038v0.55649h-2.2077v-0.55649h-1.3775v-0.54737h2.4814zm-104.43 4.9537h0.55649v0.55649h-0.55649zm121.79 0.55649h0.54736v0.54736h-0.54736zm-87.341 1.9249v0.55649h2.1986v-0.5565zm2.7551 0v2.2077h0.82105v-0.55649h0.55649v-1.6512zm97.805 0.55649h0.55649v0.54736h0.54736v0.54736h0.55649v0.55649h0.54737v1.1038h-1.1039v-0.55649h-1.1038zm-98.909 2.1986v1.1039h0.54736v1.1038h1.3775v-2.2077zm0.54736 2.2077h-1.1038v-0.5565h-1.6512v-0.54736h-1.6512v-0.54736h-2.2077v0.54736h-1.0947v1.6512h1.6512v-0.54737h0.54737v0.54737h1.6512v0.55648h0.55648v0.54737h1.1038v0.54736h1.6512v2.4814h1.1038v-1.3775h-0.55649v-0.54736h1.3775v1.1038h1.6603v0.82105h2.1986v-0.82105h1.6512v-1.6603h-1.0947v-0.54736h-1.1039v-1.1038h-2.2077v0.55648h-1.1038v-0.55648h-1.3775zm1.934-2.2077v1.1039h2.1986v-1.1039zm101.39 0h1.1039v0.55649h0.54736v0.54737h0.55649v1.1038h0.54736v0.54736h0.55648v1.1038h0.54738v1.1039h0.83016v1.1038h0.54737v0.82104h0.54736v0.55649h0.55649v1.6512h0.54736v0.54737h0.55649v1.6512h0.54737v1.1038h-0.54737v-0.54737h-1.1038v-0.55648h-0.55649v-0.54737h-0.54736v-1.1038h-1.3775v-2.1986h-0.54738v-1.3775h-0.55648v-1.1038h-0.54736v-1.1039h-0.55649v-1.1038h-0.54736v-1.1039h-0.54737v-1.0947h-0.55649zm-56.479 3.8589v1.1039h-0.55649v1.9249h1.1039v-0.82104h0.54735v-1.1038h0.55649v-1.1039zm-39.401 1.1039v1.9249h2.1986v-0.82104h1.934v-1.1038zm4.68 0.54736v0.55649h0.5565v-0.55649zm1.1039 0v0.55649h0.54736v-0.55649zm0 1.3775v0.55649h-0.54736v2.7551h0.54736v0.54736h1.1038v-3.8589zm8.5389 15.709h0.55649v0.54735h-0.55649v0.55649h-0.82105v-0.55649h0.82105z" fill="url(#gradient2-62)"/>
  <path d="m91.392 133.99q0 38.298 27.002 65.575 27.277 27.277 65.851 27.277 38.298 0 65.851-27.277 27.002-27.277 27.002-65.575 0-38.574-27.002-65.851-27.553-27.277-65.851-27.277-38.574 0-65.851 27.277-27.002 27.277-27.002 65.851" fill="url(#radialGradient1624)"/>
 </g>
</svg>
