<?xml version="1.0" encoding="UTF-8" standalone="no"?>
<svg
   version="1.1"
   viewBox="0 0 256 256"
   id="svg191"
   sodipodi:docname="workgroup.svg"
   inkscape:export-filename="network-workgroup.png"
   inkscape:export-xdpi="36"
   inkscape:export-ydpi="36"
   inkscape:version="1.1.2 (0a00cf5339, 2022-02-04)"
   xmlns:inkscape="http://www.inkscape.org/namespaces/inkscape"
   xmlns:sodipodi="http://sodipodi.sourceforge.net/DTD/sodipodi-0.dtd"
   xmlns:xlink="http://www.w3.org/1999/xlink"
   xmlns="http://www.w3.org/2000/svg"
   xmlns:svg="http://www.w3.org/2000/svg">
  <sodipodi:namedview
     id="namedview193"
     pagecolor="#ffffff"
     bordercolor="#666666"
     borderopacity="1.0"
     inkscape:pageshadow="2"
     inkscape:pageopacity="0.0"
     inkscape:pagecheckerboard="0"
     showgrid="false"
     inkscape:zoom="3.2070312"
     inkscape:cx="127.84409"
     inkscape:cy="128"
     inkscape:window-width="3840"
     inkscape:window-height="2056"
     inkscape:window-x="3840"
     inkscape:window-y="0"
     inkscape:window-maximized="1"
     inkscape:current-layer="svg191" />
  <defs
     id="defs79">
    <linearGradient
       id="linearGradient1485-7"
       x1="-63.352"
       x2="-63.352"
       y1="17.206"
       y2="15.603"
       gradientTransform="matrix(.62381 0 0 .62381 69.52 -6.1656)"
       gradientUnits="userSpaceOnUse"
       xlink:href="#linearGradient1070" />
    <linearGradient
       id="linearGradient1070">
      <stop
         stop-color="#737373"
         offset="0"
         id="stop3" />
      <stop
         stop-color="#a6a6a6"
         offset=".25"
         id="stop5" />
      <stop
         stop-color="#e6e6e6"
         offset=".625"
         id="stop7" />
      <stop
         stop-color="#dff1ff"
         offset="1"
         id="stop9" />
    </linearGradient>
    <linearGradient
       id="linearGradient1473"
       x1="-57.638"
       x2="-57.638"
       y1="10.21"
       y2="5.4008"
       gradientTransform="translate(15.698 2.4885)"
       gradientUnits="userSpaceOnUse">
      <stop
         stop-color="#e0b92b"
         offset="0"
         id="stop12" />
      <stop
         stop-color="#fff"
         offset="1"
         id="stop14" />
    </linearGradient>
    <filter
       x="-.15"
       y="-.15"
       width="1.3"
       height="1.3"
       color-interpolation-filters="sRGB"
       id="filter19">
      <feGaussianBlur
         stdDeviation="0.50938065"
         id="feGaussianBlur17" />
    </filter>
    <linearGradient
       id="linearGradient1701"
       x1="-39.569"
       x2="-44.345"
       y1="12.67"
       y2="7.8893"
       gradientUnits="userSpaceOnUse">
      <stop
         stop-color="#a26f01"
         offset="0"
         id="stop21" />
      <stop
         stop-color="#d9b240"
         offset="1"
         id="stop23" />
    </linearGradient>
    <linearGradient
       id="gradient5-6-5"
       x1="-819.2"
       x2="819.2"
       gradientTransform="matrix(0 .052634 .092564 0 29.296 200.04)"
       gradientUnits="userSpaceOnUse">
      <stop
         stop-color="#99c"
         offset="0"
         id="stop26" />
      <stop
         stop-color="#669"
         offset="1"
         id="stop28" />
    </linearGradient>
    <radialGradient
       id="gradient6-2-1"
       cx="0"
       cy="0"
       r="819.2"
       gradientTransform="matrix(.14111 0 0 .14111 -11.994 188.7)"
       gradientUnits="userSpaceOnUse">
      <stop
         stop-color="#fff"
         offset="0"
         id="stop31" />
      <stop
         stop-color="#ddd"
         offset=".28235"
         id="stop33" />
      <stop
         stop-color="#99c"
         offset="1"
         id="stop35" />
    </radialGradient>
    <linearGradient
       id="gradient7-7-4"
       x1="-819.2"
       x2="819.2"
       gradientTransform="matrix(-.026771 -.025863 -.031762 .03267 52.437 188.7)"
       gradientUnits="userSpaceOnUse">
      <stop
         stop-color="#669"
         offset="0"
         id="stop38" />
      <stop
         stop-color="#99c"
         offset="1"
         id="stop40" />
    </linearGradient>
    <linearGradient
       id="gradient8-0-0"
       x1="-819.2"
       x2="819.2"
       gradientTransform="matrix(-.012251 .049004 .036753 .0090749 49.261 180.08)"
       gradientUnits="userSpaceOnUse">
      <stop
         stop-color="#339"
         offset="0"
         id="stop43" />
      <stop
         stop-color="#66c"
         offset=".27451"
         id="stop45" />
      <stop
         stop-color="#999"
         offset="1"
         id="stop47" />
    </linearGradient>
    <linearGradient
       id="gradient13-9-4"
       x1="-819.2"
       x2="819.2"
       gradientTransform="matrix(-.0095286 .027225 .023141 .0077137 38.144 191.42)"
       gradientUnits="userSpaceOnUse">
      <stop
         stop-color="#99c"
         offset="0"
         id="stop50" />
      <stop
         stop-color="#eee"
         offset="1"
         id="stop52" />
    </linearGradient>
    <linearGradient
       id="gradient9-5-7"
       x1="-819.2"
       x2="819.2"
       gradientTransform="matrix(-.080313 -.07759 -.086665 .089388 38.598 94.772)"
       gradientUnits="userSpaceOnUse">
      <stop
         stop-color="#66c"
         offset="0"
         id="stop55" />
      <stop
         stop-color="#999"
         offset="1"
         id="stop57" />
    </linearGradient>
    <radialGradient
       id="gradient10-2-1"
       cx="0"
       cy="0"
       r="819.2"
       gradientTransform="matrix(.18331 0 0 .18331 37.464 23.308)"
       gradientUnits="userSpaceOnUse">
      <stop
         stop-color="#cff"
         offset="0"
         id="stop60" />
      <stop
         stop-color="#cff"
         offset=".094118"
         id="stop62" />
      <stop
         stop-color="#09f"
         offset="1"
         id="stop64" />
    </radialGradient>
    <linearGradient
       id="gradient11-3-6"
       x1="-819.2"
       x2="819.2"
       gradientTransform="matrix(-.054903 -.053088 -.082582 .085758 48.807 99.537)"
       gradientUnits="userSpaceOnUse">
      <stop
         stop-color="#99c"
         offset="0"
         id="stop67" />
      <stop
         stop-color="#fff"
         offset="1"
         id="stop69" />
    </linearGradient>
    <linearGradient
       id="gradient12-2-7"
       x1="-819.2"
       x2="819.2"
       gradientTransform="matrix(-.063978 .034031 .0040837 .0081674 48.581 146.27)"
       gradientUnits="userSpaceOnUse">
      <stop
         stop-color="#66c"
         offset="0"
         id="stop72" />
      <stop
         stop-color="#99c"
         offset=".078431"
         id="stop74" />
      <stop
         stop-color="#fff"
         offset="1"
         id="stop76" />
    </linearGradient>
  </defs>
  <g
     transform="translate(-12.568)"
     id="g189">
    <g
       transform="translate(-.21721 -2.625)"
       id="g127">
      <g
         fill="none"
         stroke="#000"
         stroke-width="5.33px"
         id="g87">
        <path
           d="m142.48 144.12v-21.32"
           id="path81" />
        <path
           d="m179.79 186.77h21.32"
           id="path83" />
        <path
           d="m105.17 186.77h-21.32"
           id="path85" />
      </g>
      <g
         transform="matrix(5.33 0 0 5.33 -55.097 2.8789)"
         id="g125">
        <g
           transform="matrix(0 1 1 0 11.568 30.432)"
           id="g97">
          <rect
             transform="matrix(0,1,1,0,0,0)"
             x="25.5"
             y="3.0677"
             width="7"
             height="2"
             fill="url(#linearGradient1485-7)"
             id="rect89" />
          <g
             transform="matrix(0 .62381 .62381 0 -6.1656 69.52)"
             fill="none"
             stroke-linecap="round"
             id="g95">
            <path
               d="m-70.566 16.405v-1.6031h11.221"
               stroke="#999"
               stroke-width="1.6031"
               id="path91" />
            <path
               d="m-59.345 14.802v3.2061l-11.221-1e-6"
               stroke="#262626"
               stroke-linejoin="round"
               stroke-width="1.603"
               id="path93" />
          </g>
        </g>
        <g
           transform="translate(33 1)"
           id="g107">
          <rect
             transform="matrix(0,1,1,0,0,0)"
             x="25.5"
             y="3.0677"
             width="7"
             height="2"
             fill="url(#linearGradient1485-7)"
             id="rect99" />
          <g
             transform="matrix(0 .62381 .62381 0 -6.1656 69.52)"
             fill="none"
             stroke-linecap="round"
             stroke-linejoin="round"
             stroke-width="1.6031"
             id="g105">
            <path
               d="m-59.345 14.802v3.2061l-11.221-1e-6"
               stroke="#262626"
               id="path101" />
            <path
               d="m-70.566 18.008v-3.2061h9.6183"
               stroke="#999"
               id="path103" />
          </g>
        </g>
        <g
           transform="matrix(0 1 1 0 4.5677 30.432)"
           id="g117">
          <rect
             transform="matrix(0,1,1,0,0,0)"
             x="25.5"
             y="3.0677"
             width="7"
             height="2"
             fill="url(#linearGradient1485-7)"
             id="rect109" />
          <g
             transform="matrix(0 .62381 .62381 0 -6.1656 69.52)"
             fill="none"
             stroke-linecap="round"
             stroke-linejoin="round"
             stroke-width="1.6031"
             id="g115">
            <path
               d="m-70.566 18.008v-3.2061h11.221"
               stroke="#999"
               id="path111" />
            <path
               d="m-59.345 16.405v1.6031l-11.221-1e-6"
               stroke="#262626"
               id="path113" />
          </g>
        </g>
        <g
           transform="matrix(.62381 0 0 .62381 63.23 28.079)"
           id="g123">
          <rect
             x="-45.146"
             y="7.0878"
             width="6.4122"
             height="6.4122"
             fill="url(#linearGradient1473)"
             id="rect119" />
          <path
             d="m-45.146 7.0878h6.4122v6.4122h-6.4122z"
             fill="none"
             stroke="url(#linearGradient1701)"
             stroke-linecap="square"
             stroke-width="1.603"
             id="path121" />
        </g>
      </g>
    </g>
    <g
       transform="matrix(.50498 0 0 .50498 123.02 1.0218)"
       fill-rule="evenodd"
       stroke-width="4.5374"
       id="g147">
      <path
         d="m-46.252 199.81q0 17.923 22.233 30.628 22.007 12.705 53.542 12.705 31.308 0 53.542-12.705 22.007-12.705 22.007-30.628 0-17.923-22.007-30.401-22.234-12.705-53.542-12.705-31.535 0-53.542 12.705-22.233 12.478-22.233 30.401"
         fill="url(#gradient5-6-5)"
         id="path129" />
      <path
         d="m-41.261 199.13q0 16.562 20.419 28.132 20.645 11.797 49.685 11.797 29.04 0 49.685-11.797 20.645-11.57 20.645-28.132 0-16.335-20.645-28.132-20.645-11.57-49.685-11.57-29.04 0-49.685 11.57-20.419 11.797-20.419 28.132"
         fill="url(#gradient6-2-1)"
         id="path131" />
      <path
         d="m72.175 140.37-53.769 17.696c4.9912 9.8311 8.9993 19.587 12.024 29.267l7.9405 32.216 11.117 6.8062c14.369-4.3862 23.822-8.9993 28.359-13.839 0.10469-1.9893 0.0644-3.8799 0-6.3524"
         fill="url(#gradient7-7-4)"
         id="path133" />
      <path
         d="m73.31 140.6-47.643 18.604c9.5286 17.545 16.108 36.526 19.738 56.945l4.0837 3.63c13.612-4.84 23.368-9.0749 28.359-13.612 0-24.653-1.5125-46.509-4.5374-65.566"
         fill="url(#gradient8-0-0)"
         id="path135" />
      <path
         d="m36.783 188.92 6.1256 26.771 6.5793 4.0837q-2.0418-24.502-9.9824-51.5-6.1256-2.9493-12.478-5.6718 7.4868 17.696 9.7555 26.317"
         fill="url(#gradient13-9-4)"
         id="path137" />
      <path
         d="m-9.7256 178.94 113.89-49.004q4.9912-2.2687 4.3106-8.848l-13.159-115.7q-1.3612-9.0749-8.1674-7.033l-127.28 22.46q-11.117 2.2687-7.9405 12.024 2.0419 5.6718 31.082 144.29 2.0419 3.63 7.2599 1.815"
         fill="url(#gradient9-5-7)"
         id="path139" />
      <path
         d="m-7.0032 166.46 108.22-43.333-13.612-104.36-115.48 24.048 20.872 123.65"
         fill="url(#gradient10-2-1)"
         id="path141" />
      <path
         d="m-11.541 173.27-25.637-139.07q1.3612-4.5374 3.1762-5.2181l120.47-22.233q3.63-5.4449-2.4956-4.0837l-122.51 22.687q-4.0837 1.3612-4.5374 7.4868l28.359 142.7q0.22686 1.815 2.2687 1.1344 1.815-0.45372 0.90748-3.4031"
         fill="url(#gradient11-3-6)"
         id="path143" />
      <path
         d="m-7.0032 166.46q0 2.9493 2.9493 1.815l108.67-44.467-3.4031-0.90749-108.22 43.56"
         fill="url(#gradient12-2-7)"
         id="path145" />
    </g>
    <g
       transform="matrix(.50498 0 0 .50498 37.686 119.11)"
       fill-rule="evenodd"
       stroke-width="4.5374"
       id="g167">
      <path
         d="m-46.252 199.81q0 17.923 22.233 30.628 22.007 12.705 53.542 12.705 31.308 0 53.542-12.705 22.007-12.705 22.007-30.628 0-17.923-22.007-30.401-22.234-12.705-53.542-12.705-31.535 0-53.542 12.705-22.233 12.478-22.233 30.401"
         fill="url(#gradient5-6-5)"
         id="path149" />
      <path
         d="m-41.261 199.13q0 16.562 20.419 28.132 20.645 11.797 49.685 11.797 29.04 0 49.685-11.797 20.645-11.57 20.645-28.132 0-16.335-20.645-28.132-20.645-11.57-49.685-11.57-29.04 0-49.685 11.57-20.419 11.797-20.419 28.132"
         fill="url(#gradient6-2-1)"
         id="path151" />
      <path
         d="m72.175 140.37-53.769 17.696c4.9912 9.8311 8.9993 19.587 12.024 29.267l7.9405 32.216 11.117 6.8062c14.369-4.3862 23.822-8.9993 28.359-13.839 0.10469-1.9893 0.0644-3.8799 0-6.3524"
         fill="url(#gradient7-7-4)"
         id="path153" />
      <path
         d="m73.31 140.6-47.643 18.604c9.5286 17.545 16.108 36.526 19.738 56.945l4.0837 3.63c13.612-4.84 23.368-9.0749 28.359-13.612 0-24.653-1.5125-46.509-4.5374-65.566"
         fill="url(#gradient8-0-0)"
         id="path155" />
      <path
         d="m36.783 188.92 6.1256 26.771 6.5793 4.0837q-2.0418-24.502-9.9824-51.5-6.1256-2.9493-12.478-5.6718 7.4868 17.696 9.7555 26.317"
         fill="url(#gradient13-9-4)"
         id="path157" />
      <path
         d="m-9.7256 178.94 113.89-49.004q4.9912-2.2687 4.3106-8.848l-13.159-115.7q-1.3612-9.0749-8.1674-7.033l-127.28 22.46q-11.117 2.2687-7.9405 12.024 2.0419 5.6718 31.082 144.29 2.0419 3.63 7.2599 1.815"
         fill="url(#gradient9-5-7)"
         id="path159" />
      <path
         d="m-7.0032 166.46 108.22-43.333-13.612-104.36-115.48 24.048 20.872 123.65"
         fill="url(#gradient10-2-1)"
         id="path161" />
      <path
         d="m-11.541 173.27-25.637-139.07q1.3612-4.5374 3.1762-5.2181l120.47-22.233q3.63-5.4449-2.4956-4.0837l-122.51 22.687q-4.0837 1.3612-4.5374 7.4868l28.359 142.7q0.22686 1.815 2.2687 1.1344 1.815-0.45372 0.90748-3.4031"
         fill="url(#gradient11-3-6)"
         id="path163" />
      <path
         d="m-7.0032 166.46q0 2.9493 2.9493 1.815l108.67-44.467-3.4031-0.90749-108.22 43.56"
         fill="url(#gradient12-2-7)"
         id="path165" />
    </g>
    <g
       transform="matrix(.50498 0 0 .50498 202.69 118.52)"
       fill-rule="evenodd"
       stroke-width="4.5374"
       id="g187">
      <path
         d="m-46.252 199.81q0 17.923 22.233 30.628 22.007 12.705 53.542 12.705 31.308 0 53.542-12.705 22.007-12.705 22.007-30.628 0-17.923-22.007-30.401-22.234-12.705-53.542-12.705-31.535 0-53.542 12.705-22.233 12.478-22.233 30.401"
         fill="url(#gradient5-6-5)"
         id="path169" />
      <path
         d="m-41.261 199.13q0 16.562 20.419 28.132 20.645 11.797 49.685 11.797 29.04 0 49.685-11.797 20.645-11.57 20.645-28.132 0-16.335-20.645-28.132-20.645-11.57-49.685-11.57-29.04 0-49.685 11.57-20.419 11.797-20.419 28.132"
         fill="url(#gradient6-2-1)"
         id="path171" />
      <path
         d="m72.175 140.37-53.769 17.696c4.9912 9.8311 8.9993 19.587 12.024 29.267l7.9405 32.216 11.117 6.8062c14.369-4.3862 23.822-8.9993 28.359-13.839 0.10469-1.9893 0.0644-3.8799 0-6.3524"
         fill="url(#gradient7-7-4)"
         id="path173" />
      <path
         d="m73.31 140.6-47.643 18.604c9.5286 17.545 16.108 36.526 19.738 56.945l4.0837 3.63c13.612-4.84 23.368-9.0749 28.359-13.612 0-24.653-1.5125-46.509-4.5374-65.566"
         fill="url(#gradient8-0-0)"
         id="path175" />
      <path
         d="m36.783 188.92 6.1256 26.771 6.5793 4.0837q-2.0418-24.502-9.9824-51.5-6.1256-2.9493-12.478-5.6718 7.4868 17.696 9.7555 26.317"
         fill="url(#gradient13-9-4)"
         id="path177" />
      <path
         d="m-9.7256 178.94 113.89-49.004q4.9912-2.2687 4.3106-8.848l-13.159-115.7q-1.3612-9.0749-8.1674-7.033l-127.28 22.46q-11.117 2.2687-7.9405 12.024 2.0419 5.6718 31.082 144.29 2.0419 3.63 7.2599 1.815"
         fill="url(#gradient9-5-7)"
         id="path179" />
      <path
         d="m-7.0032 166.46 108.22-43.333-13.612-104.36-115.48 24.048 20.872 123.65"
         fill="url(#gradient10-2-1)"
         id="path181" />
      <path
         d="m-11.541 173.27-25.637-139.07q1.3612-4.5374 3.1762-5.2181l120.47-22.233q3.63-5.4449-2.4956-4.0837l-122.51 22.687q-4.0837 1.3612-4.5374 7.4868l28.359 142.7q0.22686 1.815 2.2687 1.1344 1.815-0.45372 0.90748-3.4031"
         fill="url(#gradient11-3-6)"
         id="path183" />
      <path
         d="m-7.0032 166.46q0 2.9493 2.9493 1.815l108.67-44.467-3.4031-0.90749-108.22 43.56"
         fill="url(#gradient12-2-7)"
         id="path185" />
    </g>
  </g>
</svg>
