<?xml version="1.0" encoding="UTF-8" standalone="no"?>
<svg
   inkscape:export-ydpi="96"
   inkscape:export-xdpi="96"
   inkscape:export-filename="character-set.png"
   sodipodi:docname="character-set.svg"
   inkscape:version="1.1.2 (0a00cf5339, 2022-02-04)"
   id="svg8"
   version="1.1"
   viewBox="0 0 256 256"
   height="256"
   width="256"
   xmlns:inkscape="http://www.inkscape.org/namespaces/inkscape"
   xmlns:sodipodi="http://sodipodi.sourceforge.net/DTD/sodipodi-0.dtd"
   xmlns:xlink="http://www.w3.org/1999/xlink"
   xmlns="http://www.w3.org/2000/svg"
   xmlns:svg="http://www.w3.org/2000/svg"
   xmlns:rdf="http://www.w3.org/1999/02/22-rdf-syntax-ns#"
   xmlns:cc="http://creativecommons.org/ns#"
   xmlns:dc="http://purl.org/dc/elements/1.1/">
  <defs
     id="defs2">
    <linearGradient
       id="linearGradient1159"
       inkscape:collect="always">
      <stop
         id="stop1155"
         offset="0"
         style="stop-color:#0088ee;stop-opacity:1" />
      <stop
         id="stop1157"
         offset="1"
         style="stop-color:#004ab0;stop-opacity:1" />
    </linearGradient>
    <linearGradient
       id="linearGradient1151"
       inkscape:collect="always">
      <stop
         id="stop1147"
         offset="0"
         style="stop-color:#fe9431;stop-opacity:1" />
      <stop
         id="stop1149"
         offset="1"
         style="stop-color:#f74b11;stop-opacity:1" />
    </linearGradient>
    <linearGradient
       gradientUnits="userSpaceOnUse"
       y2="83.17775"
       x2="9.1269293"
       y1="83.17775"
       x1="0.072128415"
       id="linearGradient1153"
       xlink:href="#linearGradient1151"
       inkscape:collect="always" />
    <linearGradient
       gradientUnits="userSpaceOnUse"
       y2="82.670723"
       x2="-15.330586"
       y1="73.643463"
       x1="-12.699667"
       id="linearGradient1161"
       xlink:href="#linearGradient1159"
       inkscape:collect="always" />
    <filter
       height="1.0956451"
       y="-0.047822547"
       width="1.0963575"
       x="-0.048178774"
       id="filter1247"
       style="color-interpolation-filters:sRGB"
       inkscape:collect="always">
      <feGaussianBlur
         id="feGaussianBlur1249"
         stdDeviation="4.832511"
         inkscape:collect="always" />
    </filter>
  </defs>
  <sodipodi:namedview
     inkscape:snap-global="true"
     inkscape:bbox-paths="false"
     fit-margin-bottom="0"
     fit-margin-right="0"
     fit-margin-left="0"
     fit-margin-top="0"
     inkscape:bbox-nodes="true"
     inkscape:snap-bbox="true"
     inkscape:window-maximized="1"
     inkscape:window-y="0"
     inkscape:window-x="0"
     inkscape:window-height="2043"
     inkscape:window-width="3840"
     units="px"
     showgrid="false"
     inkscape:document-rotation="0"
     inkscape:current-layer="layer1"
     inkscape:document-units="px"
     inkscape:cy="154.5"
     inkscape:cx="68.500001"
     inkscape:zoom="4"
     inkscape:pageshadow="2"
     inkscape:pageopacity="0.0"
     borderopacity="1.0"
     bordercolor="#666666"
     pagecolor="#ffffff"
     id="base"
     inkscape:object-paths="false"
     inkscape:snap-smooth-nodes="true"
     inkscape:snap-others="true"
     inkscape:snap-grids="true"
     showguides="false"
     inkscape:pagecheckerboard="0">
    <inkscape:grid
       originy="0"
       originx="0"
       id="grid1504"
       type="xygrid" />
    <inkscape:grid
       originy="0"
       originx="0"
       spacingy="0.5"
       spacingx="0.5"
       id="grid1507"
       type="xygrid" />
  </sodipodi:namedview>
  <metadata
     id="metadata5">
    <rdf:RDF>
      <cc:Work
         rdf:about="">
        <dc:format>image/svg+xml</dc:format>
        <dc:type
           rdf:resource="http://purl.org/dc/dcmitype/StillImage" />
      </cc:Work>
    </rdf:RDF>
  </metadata>
  <g
     transform="translate(-12.567709)"
     id="layer1"
     inkscape:groupmode="layer"
     inkscape:label="Layer 1">
    <path
       d="m 165.27048,4.0659748 c -10.9733,0 -19.00034,0.9648066 -24.43554,3.2324219 -5.41033,2.1871968 -9.82288,6.2013153 -13.02149,11.7910153 -3.20083,5.594204 -4.80078,12.045706 -4.80078,19.123047 0,8.950352 2.44493,16.67491 7.32422,22.691406 l 0.004,0.0039 0.004,0.0059 c 3.87571,4.73478 9.24731,7.96329 15.84961,9.875 -2.49331,1.998846 -4.79435,4.082169 -6.68945,6.349609 l -0.004,0.0059 c -3.14041,3.7023 -7.04835,9.845074 -11.9707,18.638672 l -0.008,0.0098 -8.36914,14.812494 c -0.0668,-12.492819 -0.53966,-20.546602 -1.86328,-25.052728 l -0.004,-0.01758 -0.006,-0.01758 C 115.15717,78.60264 110.56596,72.416265 103.79392,66.8941 96.842114,61.058344 87.531628,58.273006 76.088843,58.273006 v -0.002 c -9.439429,0 -18.564944,1.709207 -27.332031,5.123047 -8.819633,3.434302 -15.853265,8.463025 -20.933594,15.134765 -5.041528,6.527173 -7.720703,13.706227 -7.720703,21.232422 0,5.56652 2.138723,10.63224 6.035156,14.63281 l 0.01172,0.01 0.0078,0.0117 c 4.018811,4.03026 9.10238,6.07031 14.837891,6.07031 5.380263,0 10.046447,-1.8402 13.519532,-5.5625 h 0.002 c 3.488552,-3.74483 5.36914,-8.56666 5.36914,-13.88281 0,-4.635848 -1.935592,-9.182398 -5.349609,-13.566399 l -0.0098,-0.01172 -0.0059,-0.0098 c -2.162764,-2.717114 -2.904297,-4.803891 -2.904297,-5.611328 0,-1.312759 0.476652,-2.391533 2.244141,-3.78125 l 0.002,-0.002 c 3.042854,-2.382914 6.994314,-3.65039 12.074219,-3.65039 2.931315,0 5.435769,0.838979 7.734375,2.550781 l 0.02344,0.01367 0.02148,0.01758 c 2.358693,1.672905 3.741875,3.503431 4.447265,5.541015 l 0.02148,0.05469 0.01953,0.05273 c 0.269841,0.688986 0.694924,2.780239 0.935547,5.806641 0.240622,3.026401 0.365234,7.052509 0.365234,12.02734 v 11.69132 c -25.053803,13.13975 -41.48923,23.65369 -49.505859,32.15625 -8.32e-4,8.9e-4 -0.003,9.5e-4 -0.0039,0.002 -8.040696,8.43484 -12.275391,18.34817 -12.275391,29.25195 0,8.08578 2.489665,15.16334 7.330079,20.65625 l 0.0078,0.008 0.0098,0.01 c 4.849514,5.3994 11.118053,8.1582 18.310547,8.1582 11.345954,0 23.639526,-6.80501 36.941406,-19.36328 1.243889,5.59485 3.498377,10.20135 6.912109,13.47266 l 0.01172,0.01 0.01172,0.0137 c 4.28674,3.99979 10.110427,5.86718 17.15625,5.86718 6.06104,0 11.59384,-1.69676 16.4043,-5.0957 l 0.006,-0.004 0.006,-0.002 c 3.8597,-2.75777 7.50029,-6.72909 10.98242,-11.83203 v 3.11328 h 52.18945 v 38.0625 c 0,0.0589 0.006,0.0181 0.006,0.0606 -0.008,-0.0268 -0.12536,0.0256 -0.88672,0.0801 -2.68717,-1e-5 -12.35809,-8.9e-4 -20.05273,-0.26172 l -4.51563,-0.15235 2.26953,3.90625 c 2.18743,3.76723 4.67364,10.23462 5.38086,14.24219 l 0.36328,2.06445 h 2.09766 c 11.37091,0 20.11164,-0.0341 26.875,-2.52734 3.52872,-1.25232 6.25283,-3.24627 7.82617,-6.14453 1.57531,-2.90188 2.01953,-6.39311 2.01953,-10.74023 v -38.58985 h 20.97657 c -2.68596,4.53576 -5.49696,8.94162 -7.92579,12.28125 l -1.63281,2.24414 17.70117,10.23828 1.34961,-1.61328 c 7.62987,-9.12859 15.46165,-22.44523 21.47657,-35.00976 l 1.12109,-2.3418 -16.11328,-6.97656 -0.9336,0.34179 -2.49414,0.90625 h -15.96093 l 2.2832,-3.71093 -2.50781,-1.19727 c -2.06984,-0.98991 -4.82298,-2.01292 -7.41407,-3.02148 9.94182,-7.07055 19.62286,-15.04474 27.26172,-22.6836 l 1.99024,-1.99023 -14.41407,-11.36133 -4.46093,1.15625 h -81.19141 v 19.40039 h 27.45703 l -10.26367,15.65625 2.92578,1.09766 c 4.89026,1.83385 10.9633,4.33915 16.75196,6.65429 H 131.81 v 6.89649 l -3.40821,-3.09375 -1.44726,2.24805 c -2.04441,3.17926 -3.68702,4.16992 -4.7461,4.16992 -0.60475,0 -0.96787,-0.1498 -1.41601,-0.55664 -0.38517,-0.34967 -0.77896,-0.97147 -1.0957,-2.10743 -0.193,-0.75625 -0.5293,-4.75824 -0.5293,-10.74414 v -43.72656 h 23.75781 l 15.52539,-25.630854 0.002,-0.002 c 5.2396,-8.7041 8.92632,-14.250986 10.54492,-16.128906 l 0.008,-0.01367 0.01,-0.0098 c 1.7329,-2.056237 3.46075,-3.327992 5.1914,-3.980469 l 0.0215,-0.0078 0.0195,-0.0098 c 1.65257,-0.66198 4.93352,-1.146485 9.50976,-1.146485 h 1.7793 v 46.929684 h 22.87109 2.375 V 4.0659748 Z m 6.64649,24.2773432 h 13.61914 V 51.60699 H 172.749 c -9.76493,0 -16.12544,-0.665194 -17.6543,-1.240234 -2.01755,-0.758851 -3.44593,-1.952704 -4.54882,-3.744141 -1.07333,-1.743403 -1.66211,-3.97783 -1.66211,-6.953125 0,-3.30884 0.75119,-5.611769 2.16797,-7.376953 l 0.0195,-0.02344 0.0156,-0.02344 c 1.39341,-1.82015 3.34574,-3.003025 6.23047,-3.542969 1.14163,-0.173099 6.32982,-0.359375 14.59961,-0.359375 z M 79.504859,128.22613 v 38.3457 c -4.913261,4.52456 -9.067962,6.61328 -12.189453,6.61328 -3.290394,0 -5.440901,-1.01089 -7.052735,-2.98633 l -0.0059,-0.01 -0.0078,-0.01 c -2.405111,-2.89473 -3.496094,-5.96882 -3.496094,-9.69336 0,-4.58239 1.406305,-9.16479 4.439453,-13.93359 l 0.002,-0.004 c 8.38e-4,-0.001 0.0011,-0.003 0.002,-0.004 4.0768,-6.34868 10.248005,-12.4709 18.308594,-18.31836 z m 94.152341,17.02148 h 30.0293 c -3.28885,2.55326 -6.64829,4.98146 -10.01562,7.13867 -6.9966,-2.59542 -13.98153,-4.99386 -19.54688,-6.97265 z"
       style="color:#000000;font-style:normal;font-variant:normal;font-weight:bold;font-stretch:normal;font-size:medium;line-height:1.25;font-family:Arial;-inkscape-font-specification:'Arial Bold';font-variant-ligatures:normal;font-variant-position:normal;font-variant-caps:normal;font-variant-numeric:normal;font-variant-alternates:normal;font-variant-east-asian:normal;font-feature-settings:normal;font-variation-settings:normal;text-indent:0;text-align:start;text-decoration:none;text-decoration-line:none;text-decoration-style:solid;text-decoration-color:#000000;letter-spacing:0px;word-spacing:0px;text-transform:none;writing-mode:lr-tb;direction:ltr;text-orientation:mixed;dominant-baseline:auto;baseline-shift:baseline;text-anchor:start;white-space:normal;shape-padding:0;shape-margin:0;inline-size:0;clip-rule:nonzero;display:inline;overflow:visible;visibility:visible;isolation:auto;mix-blend-mode:normal;color-interpolation:sRGB;color-interpolation-filters:linearRGB;solid-color:#000000;solid-opacity:1;vector-effect:none;fill:#212121;fill-opacity:1;fill-rule:nonzero;stroke:none;stroke-width:5;stroke-linecap:butt;stroke-linejoin:miter;stroke-miterlimit:4;stroke-dasharray:none;stroke-dashoffset:0;stroke-opacity:1;filter:url(#filter1247);color-rendering:auto;image-rendering:auto;shape-rendering:auto;text-rendering:auto;enable-background:accumulate;stop-color:#000000"
       id="path1209" />
    <g
       style="stroke-width:0.492857;stroke-miterlimit:4;stroke-dasharray:none"
       transform="matrix(10.144921,0,0,10.144921,20.110553,-772.76795)"
       id="g1169">
      <text
         xml:space="preserve"
         style="font-weight:bold;font-size:14.7094px;line-height:1.25;font-family:Arial;-inkscape-font-specification:'Arial Bold';text-align:center;letter-spacing:0px;word-spacing:0px;text-anchor:middle;fill:url(#linearGradient1161);fill-opacity:1;stroke:#0066cc;stroke-width:0.492857;stroke-miterlimit:4;stroke-dasharray:none;stroke-opacity:1"
         x="-14.779893"
         y="83.145844"
         id="text1131"
         transform="scale(-0.95023822,1.0523677)"><tspan
           sodipodi:role="line"
           id="tspan1129"
           x="-14.779893"
           y="83.145844"
           style="font-style:normal;font-variant:normal;font-weight:bold;font-stretch:normal;font-family:Arial;-inkscape-font-specification:'Arial Bold';fill:url(#linearGradient1161);fill-opacity:1;stroke:#0066cc;stroke-width:0.492857;stroke-miterlimit:4;stroke-dasharray:none;stroke-opacity:1">R</tspan></text>
      <text
         xml:space="preserve"
         style="font-weight:bold;font-size:26.9513px;line-height:1.25;font-family:'Times New Roman';-inkscape-font-specification:'Times New Roman, Bold';text-align:center;letter-spacing:0px;word-spacing:0px;text-anchor:middle;fill:url(#linearGradient1153);fill-opacity:1;stroke:#e35c2f;stroke-width:0.492857;stroke-miterlimit:4;stroke-dasharray:none;stroke-opacity:1"
         x="4.9975963"
         y="89.428665"
         id="text1115"
         transform="scale(0.93872854,1.0652707)"><tspan
           sodipodi:role="line"
           id="tspan1113"
           x="4.9975963"
           y="89.428665"
           style="fill:url(#linearGradient1153);fill-opacity:1;stroke:#e35c2f;stroke-width:0.492857;stroke-miterlimit:4;stroke-dasharray:none;stroke-opacity:1">a</tspan></text>
      <text
         xml:space="preserve"
         style="font-weight:bold;font-size:13.0238px;line-height:1.25;font-family:Arial;-inkscape-font-specification:'Arial Bold';text-align:center;letter-spacing:0px;word-spacing:0px;text-anchor:middle;fill:#00cc00;fill-opacity:1;stroke:#009900;stroke-width:0.492857;stroke-miterlimit:4;stroke-dasharray:none;stroke-opacity:1"
         x="16.637678"
         y="98.712311"
         id="text1119"><tspan
           sodipodi:role="line"
           id="tspan1117"
           x="16.637678"
           y="98.712311"
           style="fill:#00cc00;fill-opacity:1;stroke:#009900;stroke-width:0.492857;stroke-miterlimit:4;stroke-dasharray:none;stroke-opacity:1">予</tspan></text>
    </g>
  </g>
</svg>
