<?xml version="1.0" encoding="UTF-8" standalone="no"?>
<svg
   inkscape:export-ydpi="96"
   inkscape:export-xdpi="96"
   inkscape:export-filename="/media/klapeto/Αρχεία/WindowsXP Theme/Vectors/RASTER/document-print-direct.png"
   sodipodi:docname="Default-Printer.svg"
   inkscape:version="1.1.1 (3bf5ae0d25, 2021-09-20)"
   id="svg8"
   version="1.1"
   viewBox="0 0 256 256"
   height="256"
   width="256"
   xmlns:inkscape="http://www.inkscape.org/namespaces/inkscape"
   xmlns:sodipodi="http://sodipodi.sourceforge.net/DTD/sodipodi-0.dtd"
   xmlns:xlink="http://www.w3.org/1999/xlink"
   xmlns="http://www.w3.org/2000/svg"
   xmlns:svg="http://www.w3.org/2000/svg"
   xmlns:rdf="http://www.w3.org/1999/02/22-rdf-syntax-ns#"
   xmlns:cc="http://creativecommons.org/ns#"
   xmlns:dc="http://purl.org/dc/elements/1.1/">
  <defs
     id="defs2">
    <linearGradient
       id="linearGradient1009"
       inkscape:collect="always">
      <stop
         id="stop1005"
         offset="0"
         style="stop-color:#f1f1f1;stop-opacity:1" />
      <stop
         id="stop1007"
         offset="1"
         style="stop-color:#e0e0e0;stop-opacity:1" />
    </linearGradient>
    <linearGradient
       inkscape:collect="always"
       id="linearGradient1029">
      <stop
         style="stop-color:#636394;stop-opacity:1"
         offset="0"
         id="stop1025" />
      <stop
         style="stop-color:#8188c5;stop-opacity:1"
         offset="1"
         id="stop1027" />
    </linearGradient>
    <linearGradient
       id="linearGradient1535"
       inkscape:collect="always">
      <stop
         id="stop1531"
         offset="0"
         style="stop-color:#fefeff;stop-opacity:1" />
      <stop
         id="stop1533"
         offset="1"
         style="stop-color:#b5daff;stop-opacity:1" />
    </linearGradient>
    <linearGradient
       id="linearGradient1523"
       inkscape:collect="always">
      <stop
         id="stop1519"
         offset="0"
         style="stop-color:#a1a1a1;stop-opacity:1" />
      <stop
         id="stop1521"
         offset="1"
         style="stop-color:#d6d6d6;stop-opacity:1" />
    </linearGradient>
    <linearGradient
       id="linearGradient1509"
       inkscape:collect="always">
      <stop
         id="stop1505"
         offset="0"
         style="stop-color:#cfcfcf;stop-opacity:1" />
      <stop
         id="stop1507"
         offset="1"
         style="stop-color:#fafafa;stop-opacity:1" />
    </linearGradient>
    <linearGradient
       id="linearGradient1499"
       inkscape:collect="always">
      <stop
         id="stop1495"
         offset="0"
         style="stop-color:#a7a7a7;stop-opacity:1" />
      <stop
         id="stop1497"
         offset="1"
         style="stop-color:#c0c0c0;stop-opacity:1" />
    </linearGradient>
    <linearGradient
       id="linearGradient1483"
       inkscape:collect="always">
      <stop
         id="stop1479"
         offset="0"
         style="stop-color:#2d2d2d;stop-opacity:1" />
      <stop
         style="stop-color:#9d9d9d;stop-opacity:1"
         offset="0.5"
         id="stop1487" />
      <stop
         id="stop1481"
         offset="1"
         style="stop-color:#838383;stop-opacity:1" />
    </linearGradient>
    <linearGradient
       gradientTransform="translate(-130,115)"
       gradientUnits="userSpaceOnUse"
       y2="96.737518"
       x2="115.56771"
       y1="96.737518"
       x1="11.167826"
       id="linearGradient1485"
       xlink:href="#linearGradient1483"
       inkscape:collect="always" />
    <linearGradient
       gradientTransform="translate(224.5,115)"
       gradientUnits="userSpaceOnUse"
       y2="74.75"
       x2="-244.9323"
       y1="74.75"
       x1="-373.93228"
       id="linearGradient1501"
       xlink:href="#linearGradient1499"
       inkscape:collect="always" />
    <linearGradient
       gradientTransform="translate(156.38623,114.99367)"
       gradientUnits="userSpaceOnUse"
       y2="102.66159"
       x2="-349.72525"
       y1="0.1497875"
       x1="-342.54907"
       id="linearGradient1511"
       xlink:href="#linearGradient1509"
       inkscape:collect="always" />
    <linearGradient
       gradientTransform="translate(217,137.43546)"
       gradientUnits="userSpaceOnUse"
       y2="-36.28249"
       x2="-295.43228"
       y1="-36.28249"
       x1="-384.43228"
       id="linearGradient1525"
       xlink:href="#linearGradient1523"
       inkscape:collect="always" />
    <linearGradient
       gradientUnits="userSpaceOnUse"
       y2="-21"
       x2="-162.4323"
       y1="-113"
       x1="-162.4323"
       id="linearGradient1537"
       xlink:href="#linearGradient1535"
       inkscape:collect="always"
       gradientTransform="translate(0,115)" />
    <linearGradient
       inkscape:collect="always"
       xlink:href="#linearGradient1029"
       id="linearGradient1031"
       x1="-175.9323"
       y1="-115"
       x2="-175.9323"
       y2="-20"
       gradientUnits="userSpaceOnUse"
       gradientTransform="translate(0,115)" />
    <linearGradient
       gradientUnits="userSpaceOnUse"
       y2="107.59556"
       x2="-34.83263"
       y1="134.13057"
       x1="-173.81999"
       id="linearGradient1011"
       xlink:href="#linearGradient1009"
       inkscape:collect="always" />
    <filter
       inkscape:collect="always"
       style="color-interpolation-filters:sRGB"
       id="filter1116"
       x="-0.051388645"
       width="1.1027773"
       y="-0.045030613"
       height="1.0900612">
      <feGaussianBlur
         inkscape:collect="always"
         stdDeviation="4.5405822"
         id="feGaussianBlur1118" />
    </filter>
  </defs>
  <sodipodi:namedview
     showguides="false"
     inkscape:snap-smooth-nodes="true"
     inkscape:snap-global="true"
     inkscape:bbox-paths="false"
     fit-margin-bottom="0"
     fit-margin-right="0"
     fit-margin-left="0"
     fit-margin-top="0"
     inkscape:bbox-nodes="true"
     inkscape:snap-bbox="true"
     inkscape:window-maximized="1"
     inkscape:window-y="0"
     inkscape:window-x="3840"
     inkscape:window-height="2045"
     inkscape:window-width="3840"
     units="px"
     showgrid="false"
     inkscape:document-rotation="0"
     inkscape:current-layer="layer1"
     inkscape:document-units="px"
     inkscape:cy="55.861436"
     inkscape:cx="21.213204"
     inkscape:zoom="2.8284271"
     inkscape:pageshadow="2"
     inkscape:pageopacity="0.0"
     borderopacity="1.0"
     bordercolor="#666666"
     pagecolor="#ffffff"
     id="base"
     inkscape:pagecheckerboard="0">
    <inkscape:grid
       originy="0"
       originx="0"
       id="grid1504"
       type="xygrid" />
    <inkscape:grid
       originy="0"
       originx="0"
       spacingy="0.5"
       spacingx="0.5"
       id="grid1507"
       type="xygrid" />
  </sodipodi:namedview>
  <metadata
     id="metadata5">
    <rdf:RDF>
      <cc:Work
         rdf:about="">
        <dc:format>image/svg+xml</dc:format>
        <dc:type
           rdf:resource="http://purl.org/dc/dcmitype/StillImage" />
      </cc:Work>
    </rdf:RDF>
  </metadata>
  <g
     transform="translate(-12.567709)"
     id="layer1"
     inkscape:groupmode="layer"
     inkscape:label="Layer 1">
    <path
       id="path1103"
       style="color:#000000;font-style:normal;font-variant:normal;font-weight:normal;font-stretch:normal;font-size:medium;line-height:normal;font-family:sans-serif;font-variant-ligatures:normal;font-variant-position:normal;font-variant-caps:normal;font-variant-numeric:normal;font-variant-alternates:normal;font-variant-east-asian:normal;font-feature-settings:normal;font-variation-settings:normal;text-indent:0;text-align:start;text-decoration:none;text-decoration-line:none;text-decoration-style:solid;text-decoration-color:#000000;letter-spacing:normal;word-spacing:normal;text-transform:none;writing-mode:lr-tb;direction:ltr;text-orientation:mixed;dominant-baseline:auto;baseline-shift:baseline;text-anchor:start;white-space:normal;shape-padding:0;shape-margin:0;inline-size:0;clip-rule:nonzero;display:inline;overflow:visible;visibility:visible;isolation:auto;mix-blend-mode:normal;color-interpolation:sRGB;color-interpolation-filters:linearRGB;solid-color:#000000;solid-opacity:1;vector-effect:none;fill:#212121;fill-opacity:1;fill-rule:nonzero;stroke:none;stroke-width:2.94522;stroke-linecap:round;stroke-linejoin:round;stroke-miterlimit:4;stroke-dasharray:none;stroke-dashoffset:0;stroke-opacity:1;filter:url(#filter1116);color-rendering:auto;image-rendering:auto;shape-rendering:auto;text-rendering:auto;enable-background:accumulate;stop-color:#000000"
       d="m 142.32039,4.0002349 a 1.4727554,1.4727554 0 0 0 -0.10611,0.00193 L 54.840496,9.4020154 a 1.4727554,1.4727554 0 0 0 -0.202567,2.9131026 c 6.077089,1.237926 11.291758,5.950656 15.72111,12.85238 4.429352,6.901722 8.004742,15.90504 10.834428,25.276474 4.48467,14.852454 7.063714,30.32994 8.573398,40.276061 l -17.386017,2.635298 a 1.4727554,1.4727554 0 0 0 -1.252055,1.456551 v 16.697298 c -5.856103,0.20104 -10.821989,1.73355 -14.883834,4.10341 -10.022629,5.84767 -14.569374,16.18065 -14.569374,22.8862 v 61.84845 a 1.4738766,1.4738766 0 0 0 0.756249,1.28871 l 76.576016,42.70493 a 1.4738766,1.4738766 0 0 0 1.26363,0.081 l 28.58121,-11.41126 25.18194,12.82923 a 1.4739358,1.4739358 0 0 0 1.25784,0.0366 l 77.558,-33.86916 a 1.4739358,1.4739358 0 0 0 0.88358,-1.35044 v -8.83577 a 1.4739358,1.4739358 0 0 0 -1.05722,-1.41411 l -12.75399,-3.75231 6.99338,-2.79156 a 1.4738766,1.4738766 0 0 0 0.92796,-1.36974 v -54.97662 c 0,-7.82908 -5.37663,-19.01 -15.31984,-28.26096 -8.70031,-8.09456 -21.00478,-14.602075 -36.39257,-15.429803 -1.70173,-0.09153 -3.45335,-0.09122 -5.23008,-0.03858 V 85.976036 A 1.4727554,1.4727554 0 0 0 189.8522,84.565785 L 174.27192,79.891392 C 173.68789,73.04077 172.38694,61.054245 169.32351,48.445313 165.05074,30.858869 157.45289,11.915731 143.0014,4.1738635 a 1.4727554,1.4727554 0 0 0 -0.68101,-0.1736286 z" />
    <g
       id="g1092"
       transform="matrix(0.98173876,0,0,0.98173876,261.42939,-5.2098029e-6)">
      <path
         style="fill:#f3f3f3;fill-opacity:1;stroke:none;stroke-width:1px;stroke-linecap:butt;stroke-linejoin:miter;stroke-opacity:1"
         d="M -197.43229,92.5 V 111 l 7.60161,0.81077 7.2212,1.70374 7.63962,3.05252 8.18085,4.21174 V 100.0617 l -29.06452,-7.838384 z"
         id="path1527" />
      <path
         style="fill:#ffffff;fill-opacity:1;stroke:none;stroke-width:1px;stroke-linecap:butt;stroke-linejoin:miter;stroke-opacity:1"
         d="M -93.932291,233.5 V 245 l 1,-0.5 78.5,-34 v -9 l -3,-0.5 z"
         id="path1491"
         sodipodi:nodetypes="ccccccc" />
      <path
         style="fill:#9292bf;fill-opacity:1;stroke:none;stroke-width:1px;stroke-linecap:butt;stroke-linejoin:miter;stroke-opacity:1"
         d="M -93.432291,245 V 233.49886 L -122.01558,217.57364 -122.43229,230.5 Z"
         id="path1489"
         sodipodi:nodetypes="ccccc" />
      <path
         id="path1023"
         d="m -38.064195,195.11882 -17.022946,-5.07163 17.925291,-7.1651 z"
         style="fill:#303030;fill-opacity:1;stroke:none;stroke-width:1px;stroke-linecap:butt;stroke-linejoin:miter;stroke-opacity:1" />
      <path
         style="fill:url(#linearGradient1485);fill-opacity:1;stroke:none;stroke-width:1px;stroke-linecap:butt;stroke-linejoin:miter;stroke-opacity:1"
         d="m -93.432291,234.5 79,-33 -44.000001,-13 -72.999998,26.5 z"
         id="path1477"
         sodipodi:nodetypes="ccccc" />
      <path
         style="fill:url(#linearGradient1011);fill-opacity:1;stroke:none;stroke-width:1px;stroke-linecap:butt;stroke-linejoin:miter;stroke-opacity:1"
         d="m -214.59448,115.85614 61.5,59.5 133.000003,-33 -0.5,-8.5 -1.5,-6.5 -4.5,-8.5 -7.5,-9 -6.5,-6 -6,-3.5 -7.5,-3.5 -10,-3 -7.5,-1 h -7 l -119.000003,18 -5,0.5 -7.5,2 z"
         id="path1513" />
      <path
         style="fill:url(#linearGradient1525);fill-opacity:1;stroke:none;stroke-width:1px;stroke-linecap:butt;stroke-linejoin:miter;stroke-opacity:1"
         d="M -167.43229,120.5 V 99.435457 L -83.91231,81.805933 -78.43229,83.5 v 18 z"
         id="path1517" />
      <path
         style="fill:#e8e8e8;fill-opacity:1;stroke:none;stroke-width:1px;stroke-linecap:butt;stroke-linejoin:miter;stroke-opacity:1"
         d="m -197.43229,92.5 30,8.5 89,-17.5 -20,-6 z"
         id="path1515" />
      <path
         sodipodi:nodetypes="cc"
         id="path1071"
         d="m -119.93229,231.5 v -17"
         style="fill:none;stroke:#535353;stroke-width:3;stroke-linecap:round;stroke-linejoin:miter;stroke-miterlimit:4;stroke-dasharray:none;stroke-opacity:1" />
      <path
         style="fill:url(#linearGradient1501);fill-opacity:1;stroke:none;stroke-width:1px;stroke-linecap:butt;stroke-linejoin:miter;stroke-opacity:1"
         d="M -149.43229,243.5 V 170.99367 L -20.432291,136 v 56 l -11,4.5 -8.02124,-2.37678 0.02124,-9.0908 L -120.43229,214.5 V 232 Z"
         id="path1493"
         sodipodi:nodetypes="cccccccccc" />
      <path
         style="fill:url(#linearGradient1511);fill-opacity:1;stroke:none;stroke-width:1px;stroke-linecap:butt;stroke-linejoin:miter;stroke-opacity:1"
         d="m -149.43229,243.49367 v -72.5 c 0,-18.89051 -21.3529,-48.30206 -47.5,-60 -9.5327,-1.05978 -30.5,7.58556 -30.5,27 v 62 z"
         id="path1503"
         sodipodi:nodetypes="cccccc" />
      <path
         style="fill:none;stroke:#838383;stroke-width:2;stroke-linecap:butt;stroke-linejoin:miter;stroke-miterlimit:4;stroke-dasharray:none;stroke-opacity:1"
         d="m -167.43229,120.5 c 12.58342,7.97271 23,24 26,31 l 100.999999,-27 c -3.291775,-11.54418 -23.790476,-26.545954 -37.5,-26"
         id="path1469"
         sodipodi:nodetypes="cccc" />
      <path
         style="fill:none;stroke:#535353;stroke-width:3.00228;stroke-linecap:round;stroke-linejoin:round;stroke-miterlimit:4;stroke-dasharray:none;stroke-opacity:1"
         d="m -119.83591,231.68439 -29.59638,11.81561 -78,-43.5 v -63 c 0,-12.22035 17.58615,-40.987648 60,-16.5 l 88.999999,-19 V 93 c 37,-2 58,28.5 58,43 v 56 l -11.003112,4.39271"
         id="path1461"
         sodipodi:nodetypes="cccccccccc" />
      <path
         style="fill:none;stroke:#535353;stroke-width:4;stroke-linecap:butt;stroke-linejoin:miter;stroke-miterlimit:4;stroke-dasharray:none;stroke-opacity:1"
         d="m -20.432291,150 -128.999999,41.5 -77.5,-35"
         id="path1463"
         sodipodi:nodetypes="ccc" />
      <path
         style="fill:none;stroke:#535353;stroke-width:3.0024;stroke-linecap:butt;stroke-linejoin:round;stroke-miterlimit:4;stroke-dasharray:none;stroke-opacity:1"
         d="m -119.93229,231.5 26.499999,13.5 79,-34.5 v -9 l -17,-5"
         id="path1465"
         sodipodi:nodetypes="ccccc" />
      <path
         style="fill:none;stroke:#535353;stroke-width:3;stroke-linecap:butt;stroke-linejoin:round;stroke-miterlimit:4;stroke-dasharray:none;stroke-opacity:1"
         d="M -197.43229,111 V 92.5 l 98.999999,-15 20,6 V 93"
         id="path1467"
         sodipodi:nodetypes="ccccc" />
      <ellipse
         style="fill:#686968;fill-opacity:1;fill-rule:evenodd;stroke:none;stroke-width:1;stroke-linecap:round;stroke-linejoin:round;stroke-miterlimit:4;stroke-dasharray:none;stroke-opacity:1"
         id="path1471"
         cx="-37.030643"
         cy="169.6131"
         ry="6.4573951"
         rx="5.7613707"
         transform="rotate(-0.64602941)" />
      <ellipse
         style="fill:#41ff41;fill-opacity:1;fill-rule:evenodd;stroke:#409840;stroke-width:1;stroke-linecap:round;stroke-linejoin:round;stroke-miterlimit:4;stroke-dasharray:none;stroke-opacity:1"
         id="path1475"
         cx="-35.04147"
         cy="169.62027"
         ry="5.8703885"
         rx="5.027452"
         transform="rotate(-0.67207111)" />
      <path
         style="fill:url(#linearGradient1537);fill-opacity:1;stroke:url(#linearGradient1031);stroke-width:3;stroke-linecap:round;stroke-linejoin:round;stroke-miterlimit:4;stroke-dasharray:none;stroke-opacity:1"
         d="m -177.43229,95 82.499999,-12 c -0.5,-6 -3.5,-66.5 -31.499999,-81.5 l -89,5.5 c 27,5.5 35.5,71.5 38,88 z"
         id="path1529"
         sodipodi:nodetypes="ccccc" />
    </g>
    <g
       id="g1180"
       transform="translate(12.567709)"
       style="opacity:1" />
    <g
       transform="matrix(5.3300313,0,0,5.3300313,205.73042,0.07947072)"
       id="g1019">
      <circle
         style="fill:#000000;fill-opacity:1;fill-rule:evenodd;stroke:none;stroke-width:1;stroke-linejoin:round;stroke-miterlimit:4;stroke-dasharray:none"
         id="path1013"
         cx="2.067709"
         cy="7"
         r="7" />
      <path
         style="fill:none;stroke:#ffffff;stroke-width:2;stroke-linecap:round;stroke-linejoin:round;stroke-miterlimit:4;stroke-dasharray:none;stroke-opacity:1"
         d="m -1.432291,7 2.5,3 4.5,-5"
         id="path1015"
         sodipodi:nodetypes="ccc" />
    </g>
  </g>
</svg>
