<?xml version="1.0" encoding="UTF-8" standalone="no"?>
<svg
   sodipodi:docname="zoom-shrink.svg"
   inkscape:version="1.1.1 (3bf5ae0d25, 2021-09-20)"
   id="svg8"
   version="1.1"
   viewBox="0 0 256 256"
   height="256"
   width="256"
   inkscape:export-filename="/media/klapeto/Αρχεία/WindowsXP Theme/Vectors/RASTER/zoom-fit-best.png"
   inkscape:export-xdpi="96"
   inkscape:export-ydpi="96"
   xmlns:inkscape="http://www.inkscape.org/namespaces/inkscape"
   xmlns:sodipodi="http://sodipodi.sourceforge.net/DTD/sodipodi-0.dtd"
   xmlns:xlink="http://www.w3.org/1999/xlink"
   xmlns="http://www.w3.org/2000/svg"
   xmlns:svg="http://www.w3.org/2000/svg"
   xmlns:rdf="http://www.w3.org/1999/02/22-rdf-syntax-ns#"
   xmlns:cc="http://creativecommons.org/ns#"
   xmlns:dc="http://purl.org/dc/elements/1.1/">
  <defs
     id="defs2">
    <linearGradient
       id="linearGradient912"
       inkscape:collect="always">
      <stop
         id="stop908"
         offset="0"
         style="stop-color:#055804;stop-opacity:1" />
      <stop
         style="stop-color:#348f1d;stop-opacity:1;"
         offset="0.5"
         id="stop918" />
      <stop
         id="stop910"
         offset="1"
         style="stop-color:#64c637;stop-opacity:1" />
    </linearGradient>
    <linearGradient
       id="linearGradient902"
       inkscape:collect="always">
      <stop
         id="stop898"
         offset="0"
         style="stop-color:#35a3ff;stop-opacity:1" />
      <stop
         id="stop900"
         offset="1"
         style="stop-color:#ffffff;stop-opacity:1" />
    </linearGradient>
    <linearGradient
       id="linearGradient878"
       inkscape:collect="always">
      <stop
         id="stop874"
         offset="0"
         style="stop-color:#0180fe;stop-opacity:1" />
      <stop
         id="stop876"
         offset="1"
         style="stop-color:#3aaefd;stop-opacity:1" />
    </linearGradient>
    <linearGradient
       gradientUnits="userSpaceOnUse"
       y2="7"
       x2="47.067711"
       y1="1.5"
       x1="36.067711"
       id="linearGradient904"
       xlink:href="#linearGradient902"
       inkscape:collect="always" />
    <linearGradient
       gradientUnits="userSpaceOnUse"
       y2="10.5"
       x2="36.567711"
       y1="3.5"
       x1="36.567711"
       id="linearGradient914"
       xlink:href="#linearGradient912"
       inkscape:collect="always" />
    <linearGradient
       gradientTransform="matrix(-35.546919,-35.546919,35.546919,-35.546919,291.12076,790.11775)"
       gradientUnits="userSpaceOnUse"
       y2="6.7463374"
       x2="13.027307"
       y1="6.7371945"
       x1="14.242815"
       id="linearGradient880-3-3-3"
       xlink:href="#linearGradient878"
       inkscape:collect="always" />
    <linearGradient
       inkscape:collect="always"
       xlink:href="#linearGradient878"
       id="linearGradient880-3-3-3-0"
       x1="14.242815"
       y1="6.7371945"
       x2="13.027307"
       y2="6.7463374"
       gradientUnits="userSpaceOnUse"
       gradientTransform="matrix(36.69159,-36.69159,-36.69159,-36.69159,-35.034066,814.52675)" />
    <linearGradient
       gradientTransform="matrix(36.69159,36.69159,-36.69159,36.69159,-35.034066,-557.71264)"
       gradientUnits="userSpaceOnUse"
       y2="6.7463374"
       x2="13.027307"
       y1="6.7371945"
       x1="14.242815"
       id="linearGradient880-3-3-3-0-1"
       xlink:href="#linearGradient878"
       inkscape:collect="always" />
    <linearGradient
       inkscape:collect="always"
       xlink:href="#linearGradient878"
       id="linearGradient880-3-3-3-9"
       x1="14.242815"
       y1="6.7371945"
       x2="13.027307"
       y2="6.7463374"
       gradientUnits="userSpaceOnUse"
       gradientTransform="matrix(-36.69159,36.69159,36.69159,36.69159,300.0891,-557.71264)" />
    <filter
       height="1.1121649"
       y="-0.056082447"
       width="1.0839075"
       x="-0.041953743"
       id="filter1120"
       style="color-interpolation-filters:sRGB"
       inkscape:collect="always">
      <feGaussianBlur
         id="feGaussianBlur1122"
         stdDeviation="3.1620312"
         inkscape:collect="always" />
    </filter>
    <filter
       height="1.1077738"
       y="-0.053886902"
       width="1.0865453"
       x="-0.04327266"
       id="filter1297"
       style="color-interpolation-filters:sRGB"
       inkscape:collect="always">
      <feGaussianBlur
         id="feGaussianBlur1299"
         stdDeviation="4.3241142"
         inkscape:collect="always" />
    </filter>
  </defs>
  <sodipodi:namedview
     inkscape:snap-smooth-nodes="true"
     inkscape:object-paths="true"
     inkscape:snap-global="true"
     inkscape:bbox-paths="false"
     fit-margin-bottom="0"
     fit-margin-right="0"
     fit-margin-left="0"
     fit-margin-top="0"
     inkscape:bbox-nodes="true"
     inkscape:snap-bbox="true"
     inkscape:window-maximized="1"
     inkscape:window-y="0"
     inkscape:window-x="3840"
     inkscape:window-height="2045"
     inkscape:window-width="3840"
     units="px"
     showgrid="false"
     inkscape:document-rotation="0"
     inkscape:current-layer="layer1"
     inkscape:document-units="px"
     inkscape:cy="166.34687"
     inkscape:cx="133.99673"
     inkscape:zoom="5.6568544"
     inkscape:pageshadow="2"
     inkscape:pageopacity="0.0"
     borderopacity="1.0"
     bordercolor="#666666"
     pagecolor="#ffffff"
     id="base"
     inkscape:pagecheckerboard="0">
    <inkscape:grid
       originy="0"
       originx="0"
       id="grid1504"
       type="xygrid" />
    <inkscape:grid
       originy="0"
       originx="0"
       spacingy="0.5"
       spacingx="0.5"
       id="grid1507"
       type="xygrid" />
  </sodipodi:namedview>
  <metadata
     id="metadata5">
    <rdf:RDF>
      <cc:Work
         rdf:about="">
        <dc:format>image/svg+xml</dc:format>
        <dc:type
           rdf:resource="http://purl.org/dc/dcmitype/StillImage" />
      </cc:Work>
    </rdf:RDF>
  </metadata>
  <g
     transform="translate(-12.567709)"
     id="layer1"
     inkscape:groupmode="layer"
     inkscape:label="Layer 1">
    <path
       d="m 50.589843,64.342 a 5.0005,5.0005 0 0 0 -5,5 v 125.3164 a 5.0005,5.0005 0 0 0 5,5 H 221.47656 a 5.0005,5.0005 0 0 0 5,-5 V 69.342 a 5.0005,5.0005 0 0 0 -5,-5 z"
       style="fill:#212121;fill-opacity:1;fill-rule:evenodd;stroke:none;stroke-width:10;stroke-linecap:round;stroke-linejoin:round;stroke-miterlimit:4;stroke-dasharray:none;stroke-opacity:1;filter:url(#filter1120);stop-color:#000000"
       id="rect1098" />
    <g
       style="stroke-width:0.877778;stroke-miterlimit:4;stroke-dasharray:none"
       transform="matrix(11.392405,0,0,11.392405,-331.13095,59.64557)"
       id="g923">
      <rect
         y="0.5"
         x="33.067711"
         height="11"
         width="15"
         id="rect916"
         style="fill:url(#linearGradient904);fill-opacity:1;fill-rule:evenodd;stroke:none;stroke-width:0.877778;stroke-linecap:round;stroke-linejoin:round;stroke-miterlimit:4;stroke-dasharray:none;stroke-opacity:1;stop-color:#000000" />
      <path
         style="fill:url(#linearGradient914);fill-opacity:1;stroke:none;stroke-width:0.877778;stroke-linecap:butt;stroke-linejoin:miter;stroke-miterlimit:4;stroke-dasharray:none;stroke-opacity:1"
         d="m 33.067709,6 c 1,-1 3,-3 3.5,-3 1,0 3,4 4,4 1,0 1.755616,-2.002197 2.5,-2 0.999996,0.00295 3,2 5,3.5 v 3 h -15 z"
         id="path906"
         sodipodi:nodetypes="cssscccc" />
      <rect
         style="fill:none;fill-opacity:1;fill-rule:evenodd;stroke:#5a6397;stroke-width:0.877778;stroke-linecap:round;stroke-linejoin:round;stroke-miterlimit:4;stroke-dasharray:none;stroke-opacity:1;stop-color:#000000"
         id="rect888"
         width="15"
         height="11"
         x="33.067711"
         y="0.5" />
    </g>
    <path
       d="m 39.063419,36.114752 a 2.4222471,2.4222471 0 0 0 -1.650391,0.708985 l -19.08789,19.08789 a 2.4222471,2.4222471 0 0 0 0,3.423829 L 40.471622,81.483893 27.868106,94.087409 a 2.4222471,2.4222471 0 0 0 1.712891,4.134765 H 77.3017 a 2.4222471,2.4222471 0 0 0 2.421875,-2.421875 V 48.079596 a 2.4222471,2.4222471 0 0 0 -4.134766,-1.71289 L 62.985294,58.970221 40.836856,36.823737 a 2.4222471,2.4222471 0 0 0 -1.773437,-0.708985 z m 196.140631,0 a 2.50025,2.50025 0 0 0 -1.73633,0.730469 L 210.60639,59.706549 197.59663,46.696784 a 2.50025,2.50025 0 0 0 -4.26758,1.767578 v 49.257812 a 2.50025,2.50025 0 0 0 2.5,2.499996 h 49.25781 a 2.50025,2.50025 0 0 0 1.76758,-4.267574 L 233.84467,82.94483 256.706,60.083502 a 2.50025,2.50025 0 0 0 0,-3.535156 L 237.00288,36.845221 a 2.50025,2.50025 0 0 0 -1.79883,-0.730469 z M 29.965763,164.59132 a 2.50025,2.50025 0 0 0 -1.767579,4.26758 l 13.009766,13.00976 -22.861328,22.85938 a 2.50025,2.50025 0 0 0 0,3.5371 l 19.703125,19.70313 a 2.50025,2.50025 0 0 0 3.535156,0 l 22.861328,-22.86133 13.009766,13.00977 a 2.50025,2.50025 0 0 0 4.267578,-1.76758 v -49.25781 a 2.50025,2.50025 0 0 0 -2.5,-2.5 z m 165.863287,0 a 2.50025,2.50025 0 0 0 -2.5,2.5 v 49.25781 a 2.50025,2.50025 0 0 0 4.26758,1.76758 l 13.00976,-13.00977 22.86133,22.86133 a 2.50025,2.50025 0 0 0 3.53516,0 L 256.706,208.26514 a 2.50025,2.50025 0 0 0 0,-3.5371 l -22.86133,-22.85938 13.00977,-13.00976 a 2.50025,2.50025 0 0 0 -1.76758,-4.26758 z"
       style="color:#000000;font-style:normal;font-variant:normal;font-weight:normal;font-stretch:normal;font-size:medium;line-height:normal;font-family:sans-serif;font-variant-ligatures:normal;font-variant-position:normal;font-variant-caps:normal;font-variant-numeric:normal;font-variant-alternates:normal;font-variant-east-asian:normal;font-feature-settings:normal;font-variation-settings:normal;text-indent:0;text-align:start;text-decoration:none;text-decoration-line:none;text-decoration-style:solid;text-decoration-color:#000000;letter-spacing:normal;word-spacing:normal;text-transform:none;writing-mode:lr-tb;direction:ltr;text-orientation:mixed;dominant-baseline:auto;baseline-shift:baseline;text-anchor:start;white-space:normal;shape-padding:0;shape-margin:0;inline-size:0;clip-rule:nonzero;display:inline;overflow:visible;visibility:visible;isolation:auto;mix-blend-mode:normal;color-interpolation:sRGB;color-interpolation-filters:linearRGB;solid-color:#000000;solid-opacity:1;vector-effect:none;fill:#212121;fill-opacity:1;fill-rule:nonzero;stroke:none;stroke-width:4.84401;stroke-linecap:round;stroke-linejoin:round;stroke-miterlimit:4;stroke-dasharray:none;stroke-dashoffset:0;stroke-opacity:1;filter:url(#filter1297);color-rendering:auto;image-rendering:auto;shape-rendering:auto;text-rendering:auto;enable-background:accumulate;stop-color:#000000"
       id="path1276" />
    <path
       sodipodi:nodetypes="cccccccc"
       id="path872-5-5-2"
       d="M 24.58206,91.800627 H 72.302564 V 44.080123 L 57.986413,58.396275 34.126162,34.536023 15.03796,53.624225 38.898212,77.484476 Z"
       style="fill:url(#linearGradient880-3-3-3);fill-opacity:1;stroke:#0158e4;stroke-width:4.84401;stroke-linecap:round;stroke-linejoin:round;stroke-miterlimit:4;stroke-dasharray:none;stroke-opacity:1" />
    <path
       style="fill:url(#linearGradient880-3-3-3-0);fill-opacity:1;stroke:#0158e4;stroke-width:5;stroke-linecap:round;stroke-linejoin:round;stroke-miterlimit:4;stroke-dasharray:none;stroke-opacity:1"
       d="M 240.08763,93.722634 H 190.83044 V 44.465449 l 14.77716,14.777156 24.62859,-24.628591 19.70288,19.702873 -24.6286,24.628592 z"
       id="path872-5-5-2-6"
       sodipodi:nodetypes="cccccccc" />
    <path
       style="fill:url(#linearGradient880-3-3-3-9);fill-opacity:1;stroke:#0158e4;stroke-width:5;stroke-linecap:round;stroke-linejoin:round;stroke-miterlimit:4;stroke-dasharray:none;stroke-opacity:1"
       d="m 24.967387,163.09148 h 49.257185 v 49.25719 L 59.447417,197.57151 34.818825,222.2001 15.115951,202.49723 39.744543,177.86864 Z"
       id="path872-5-5-2-2"
       sodipodi:nodetypes="cccccccc" />
    <path
       sodipodi:nodetypes="cccccccc"
       id="path872-5-5-2-6-0"
       d="m 240.08763,163.09148 h -49.25719 v 49.25719 l 14.77716,-14.77716 24.62859,24.62859 19.70288,-19.70287 -24.6286,-24.62859 z"
       style="fill:url(#linearGradient880-3-3-3-0-1);fill-opacity:1;stroke:#0158e4;stroke-width:5;stroke-linecap:round;stroke-linejoin:round;stroke-miterlimit:4;stroke-dasharray:none;stroke-opacity:1" />
  </g>
</svg>
