<?xml version="1.0" encoding="UTF-8" standalone="no"?>
<svg
   width="256"
   height="256"
   viewBox="0 0 256 256"
   version="1.1"
   id="svg8"
   inkscape:version="1.1.1 (3bf5ae0d25, 2021-09-20)"
   sodipodi:docname="delete-comment.svg"
   inkscape:export-filename="/media/klapeto/Αρχεία/WindowsXP Theme/Vectors/RASTER/delete-comment.png"
   inkscape:export-xdpi="96"
   inkscape:export-ydpi="96"
   xmlns:inkscape="http://www.inkscape.org/namespaces/inkscape"
   xmlns:sodipodi="http://sodipodi.sourceforge.net/DTD/sodipodi-0.dtd"
   xmlns:xlink="http://www.w3.org/1999/xlink"
   xmlns="http://www.w3.org/2000/svg"
   xmlns:svg="http://www.w3.org/2000/svg"
   xmlns:rdf="http://www.w3.org/1999/02/22-rdf-syntax-ns#"
   xmlns:cc="http://creativecommons.org/ns#"
   xmlns:dc="http://purl.org/dc/elements/1.1/">
  <defs
     id="defs2">
    <linearGradient
       inkscape:collect="always"
       id="linearGradient972">
      <stop
         style="stop-color:#ffa13b;stop-opacity:1"
         offset="0"
         id="stop968" />
      <stop
         id="stop976"
         offset="0.18335964"
         style="stop-color:#ffcd67;stop-opacity:1" />
      <stop
         style="stop-color:#fdfb92;stop-opacity:1"
         offset="1"
         id="stop970" />
    </linearGradient>
    <linearGradient
       inkscape:collect="always"
       xlink:href="#linearGradient972"
       id="linearGradient974"
       x1="86.274849"
       y1="19.125887"
       x2="74.4655"
       y2="7.3165359"
       gradientUnits="userSpaceOnUse"
       gradientTransform="translate(0.067496,-2.7521824)" />
    <filter
       inkscape:collect="always"
       style="color-interpolation-filters:sRGB"
       id="filter1087"
       x="-0.047911697"
       width="1.0958234"
       y="-0.048088624"
       height="1.0961772">
      <feGaussianBlur
         inkscape:collect="always"
         stdDeviation="4.584069"
         id="feGaussianBlur1089" />
    </filter>
    <filter
       height="1.0955438"
       y="-0.047771907"
       width="1.0964606"
       x="-0.048230283"
       id="filter1308"
       style="color-interpolation-filters:sRGB"
       inkscape:collect="always">
      <feGaussianBlur
         id="feGaussianBlur1310"
         stdDeviation="2.5612192"
         inkscape:collect="always" />
    </filter>
  </defs>
  <sodipodi:namedview
     showguides="true"
     id="base"
     pagecolor="#ffffff"
     bordercolor="#666666"
     borderopacity="1.0"
     inkscape:pageopacity="0.0"
     inkscape:pageshadow="2"
     inkscape:zoom="0.7071068"
     inkscape:cx="-83.438598"
     inkscape:cy="530.33007"
     inkscape:document-units="px"
     inkscape:current-layer="layer1"
     inkscape:document-rotation="0"
     showgrid="false"
     units="px"
     inkscape:window-width="3840"
     inkscape:window-height="2045"
     inkscape:window-x="3840"
     inkscape:window-y="0"
     inkscape:window-maximized="1"
     inkscape:snap-bbox="true"
     inkscape:bbox-nodes="true"
     fit-margin-top="0"
     fit-margin-left="0"
     fit-margin-right="0"
     fit-margin-bottom="0"
     inkscape:bbox-paths="false"
     inkscape:snap-global="true"
     inkscape:snap-smooth-nodes="true"
     inkscape:snap-intersection-paths="true"
     inkscape:object-paths="true"
     inkscape:guide-bbox="true"
     inkscape:pagecheckerboard="0">
    <inkscape:grid
       type="xygrid"
       id="grid1504"
       originx="0"
       originy="0" />
    <inkscape:grid
       type="xygrid"
       id="grid964"
       spacingx="0.5"
       spacingy="0.5" />
  </sodipodi:namedview>
  <metadata
     id="metadata5">
    <rdf:RDF>
      <cc:Work
         rdf:about="">
        <dc:format>image/svg+xml</dc:format>
        <dc:type
           rdf:resource="http://purl.org/dc/dcmitype/StillImage" />
      </cc:Work>
    </rdf:RDF>
  </metadata>
  <g
     inkscape:label="Layer 1"
     inkscape:groupmode="layer"
     id="layer1"
     transform="translate(-12.567709)">
    <path
       id="path1064"
       style="color:#000000;font-style:normal;font-variant:normal;font-weight:normal;font-stretch:normal;font-size:medium;line-height:normal;font-family:sans-serif;font-variant-ligatures:normal;font-variant-position:normal;font-variant-caps:normal;font-variant-numeric:normal;font-variant-alternates:normal;font-variant-east-asian:normal;font-feature-settings:normal;font-variation-settings:normal;text-indent:0;text-align:start;text-decoration:none;text-decoration-line:none;text-decoration-style:solid;text-decoration-color:#000000;letter-spacing:normal;word-spacing:normal;text-transform:none;writing-mode:lr-tb;direction:ltr;text-orientation:mixed;dominant-baseline:auto;baseline-shift:baseline;text-anchor:start;white-space:normal;shape-padding:0;shape-margin:0;inline-size:0;clip-rule:nonzero;display:inline;overflow:visible;visibility:visible;isolation:auto;mix-blend-mode:normal;color-interpolation:sRGB;color-interpolation-filters:linearRGB;solid-color:#000000;solid-opacity:1;vector-effect:none;fill:#212121;fill-opacity:1;fill-rule:nonzero;stroke:none;stroke-width:10.213;stroke-linecap:butt;stroke-linejoin:miter;stroke-miterlimit:4;stroke-dasharray:none;stroke-dashoffset:0;stroke-opacity:1;filter:url(#filter1087);color-rendering:auto;image-rendering:auto;shape-rendering:auto;text-rendering:auto;enable-background:accumulate;stop-color:#000000"
       d="M 135.70089,4.0014033 C 102.05145,4.0757136 68.424933,14.782138 49.118864,42.386169 20.396568,83.453622 25.78231,118.63491 40.029021,143.10297 c 7.123355,12.23403 16.264284,21.92774 24.183593,29.03711 5.665221,5.08582 10.119595,8.40104 13.283203,10.70898 -6.929599,11.79571 -22.396793,21.63018 -27.542968,24.125 -6.023685,2.92023 -10.303221,5.58412 -13.271485,8.49805 -1.484133,1.45697 -2.716952,2.99565 -3.410156,5.07813 -0.693204,2.08247 -0.451428,4.94634 0.867187,6.91406 2.637232,3.93544 6.522326,4.56527 11.00586,5.05078 4.483534,0.48551 10.046501,0.30745 16.816406,-0.52344 22.972734,-2.8195 56.229559,-11.55586 87.949219,-40.83984 42.73231,-7.64081 70.12445,-28.25031 81.87109,-39.58399 20.28628,-19.57309 27.77471,-42.98169 26.03125,-64.451173 C 256.06876,65.647162 245.35462,46.12649 229.74386,33.423278 208.41527,16.067205 173.67785,4.651454 138.95675,4.0267939 c -1.08503,-0.019521 -2.17039,-0.027788 -3.25586,-0.025391 z" />
    <g
       id="g991"
       transform="matrix(10.025334,1.949852,-1.949852,10.025334,-674.42507,-165.95394)"
       style="stroke-width:0.999981;stroke-miterlimit:4;stroke-dasharray:none">
      <path
         sodipodi:nodetypes="scssscss"
         id="path966"
         d="m 77.504301,23.715435 c 2.119955,-0.688949 5.086462,-2.107812 7.531287,-5.503023 3.940087,-1.48504 6.15311,-3.957933 7.032121,-5.212412 3.012189,-4.2988374 0.998101,-8.8628811 -2.23066,-10.5891012 -4.460791,-2.38491071 -13.91323,-1.82023387 -16.5,4 -3.857674,8.6797672 4.5,12.0000012 5.5,12.5000012 -0.337509,1.632112 -1.934315,3.075736 -2.5,3.5 -2,1.5 -1.275408,2.098357 1.167252,1.304535 z"
         style="fill:url(#linearGradient974);fill-opacity:1;stroke:#d0a10c;stroke-width:0.999981;stroke-linecap:butt;stroke-linejoin:miter;stroke-miterlimit:4;stroke-dasharray:none;stroke-opacity:1" />
      <path
         sodipodi:nodetypes="csc"
         id="path978"
         d="M 75.157635,14.001763 C 73.154965,10.829009 74.332604,6.8771898 76.875188,4.8248576 78.923899,3.1711733 82.581433,2.4047233 85.857943,2.8107752"
         style="fill:none;stroke:#ffffff;stroke-width:0.999981;stroke-linecap:round;stroke-linejoin:miter;stroke-miterlimit:4;stroke-dasharray:none;stroke-opacity:1" />
      <path
         id="path980"
         d="m 77.441295,7.359077 10.5,-2"
         style="fill:none;stroke:#d0a10c;stroke-width:0.999981;stroke-linecap:round;stroke-linejoin:miter;stroke-miterlimit:4;stroke-dasharray:none;stroke-opacity:1" />
      <path
         sodipodi:nodetypes="cc"
         id="path982"
         d="m 77.941295,10.359077 10.5,-2"
         style="fill:none;stroke:#d0a10c;stroke-width:0.999981;stroke-linecap:round;stroke-linejoin:miter;stroke-miterlimit:4;stroke-dasharray:none;stroke-opacity:1" />
      <path
         sodipodi:nodetypes="cc"
         id="path984"
         d="M 78.441295,13.359077 85.067709,12"
         style="fill:none;stroke:#d0a10c;stroke-width:0.999981;stroke-linecap:round;stroke-linejoin:miter;stroke-miterlimit:4;stroke-dasharray:none;stroke-opacity:1" />
    </g>
    <g
       transform="translate(-427.30344,-194.81905)"
       id="g1159">
      <path
         id="path1306"
         style="color:#000000;font-style:normal;font-variant:normal;font-weight:normal;font-stretch:normal;font-size:medium;line-height:normal;font-family:sans-serif;font-variant-ligatures:normal;font-variant-position:normal;font-variant-caps:normal;font-variant-numeric:normal;font-variant-alternates:normal;font-variant-east-asian:normal;font-feature-settings:normal;font-variation-settings:normal;text-indent:0;text-align:start;text-decoration:none;text-decoration-line:none;text-decoration-style:solid;text-decoration-color:#000000;letter-spacing:normal;word-spacing:normal;text-transform:none;writing-mode:lr-tb;direction:ltr;text-orientation:mixed;dominant-baseline:auto;baseline-shift:baseline;text-anchor:start;white-space:normal;shape-padding:0;shape-margin:0;inline-size:0;clip-rule:nonzero;display:inline;overflow:visible;visibility:visible;isolation:auto;mix-blend-mode:normal;color-interpolation:sRGB;color-interpolation-filters:linearRGB;solid-color:#000000;solid-opacity:1;vector-effect:none;fill:#212121;fill-opacity:1;fill-rule:nonzero;stroke:none;stroke-width:10;stroke-linecap:butt;stroke-linejoin:miter;stroke-miterlimit:4;stroke-dasharray:none;stroke-dashoffset:0;stroke-opacity:1;filter:url(#filter1308);color-rendering:auto;image-rendering:auto;shape-rendering:auto;text-rendering:auto;enable-background:accumulate;stop-color:#000000"
         d="m 576.38905,201.32577 c -3.30732,-0.072 -6.60119,0.9084 -9.26367,2.82226 -3.04284,2.18724 -5.35609,5.94147 -5.42969,10.25196 -0.0692,4.31048 1.89968,8.72767 5.67774,12.97851 3.61424,4.06638 19.83245,21.08894 39.33593,40.23047 -14.08851,12.35895 -27.26729,25.5581 -38.32226,40.45703 -3.2408,4.36782 -4.48649,9.30709 -2.77149,13.38282 1.715,4.07568 5.31602,6.07794 8.65235,7.21093 3.33632,1.13287 6.76514,1.47539 9.8457,1.28516 1.54023,-0.0923 2.97294,-0.31139 4.43945,-0.83399 1.46651,-0.52144 3.43565,-1.25427 4.5293,-3.98828 5.41464,-13.5366 16.88257,-28.12134 30,-41.72851 17.15275,16.22495 34.86439,31.91922 47.84766,40.87109 2.39865,1.65397 5.01668,2.58248 7.63867,2.86328 2.62188,0.28033 5.45659,0.0919 8.02148,-2.05078 2.56477,-2.14161 3.1863,-6.57043 1.91407,-9.62109 -1.27211,-3.05068 -3.59943,-5.70713 -7.27735,-8.81055 -15.09868,-12.74048 -29.06396,-26.08493 -41.67969,-39.15625 13.75089,-12.49064 27.37908,-23.20009 36.47461,-30.03906 2.60861,-1.96141 4.50223,-4.51992 4.91211,-7.54883 0.40955,-3.02892 -0.98428,-6.03335 -3.01953,-7.79687 -4.07016,-3.52707 -10.41635,-3.43744 -15.25391,0.45117 -12.27403,9.86695 -25.00454,19.55084 -37.45312,29.57617 -15.14278,-16.74456 -27.78297,-32.4176 -37.33008,-44.98828 -2.62764,-3.45973 -6.30251,-5.29408 -10.07226,-5.72266 -0.47122,-0.0536 -0.94355,-0.0854 -1.41602,-0.0957 z" />
      <path
         d="m 571.38857,197.32577 c -3.30732,-0.072 -6.60119,0.9084 -9.26367,2.82226 -3.04284,2.18724 -5.35609,5.94147 -5.42969,10.25196 -0.0692,4.31048 1.89968,8.72767 5.67774,12.97851 3.61424,4.06638 19.83245,21.08894 39.33593,40.23047 -14.08851,12.35895 -27.26729,25.5581 -38.32226,40.45703 -3.2408,4.36782 -4.48649,9.30709 -2.77149,13.38282 1.715,4.07568 5.31602,6.07794 8.65235,7.21093 3.33632,1.13287 6.76514,1.47539 9.8457,1.28516 1.54023,-0.0923 2.97294,-0.31139 4.43945,-0.83399 1.46651,-0.52144 3.43565,-1.25427 4.5293,-3.98828 5.41464,-13.5366 16.88257,-28.12134 30,-41.72851 17.15275,16.22495 34.86439,31.91922 47.84766,40.87109 2.39865,1.65397 5.01668,2.58248 7.63867,2.86328 2.62188,0.28033 5.45659,0.0919 8.02148,-2.05078 2.56477,-2.14161 3.1863,-6.57043 1.91407,-9.62109 -1.27211,-3.05068 -3.59943,-5.70713 -7.27735,-8.81055 -15.09868,-12.74048 -29.06396,-26.08493 -41.67969,-39.15625 13.75089,-12.49064 27.37908,-23.20009 36.47461,-30.03906 2.60861,-1.96141 4.50223,-4.51992 4.91211,-7.54883 0.40955,-3.02892 -0.98428,-6.03335 -3.01953,-7.79687 -4.07016,-3.52707 -10.41635,-3.43744 -15.25391,0.45117 -12.27403,9.86695 -25.00454,19.55084 -37.45312,29.57617 -15.14278,-16.74456 -27.78297,-32.4176 -37.33008,-44.98828 -2.62764,-3.45973 -6.30251,-5.29408 -10.07226,-5.72266 -0.47122,-0.0536 -0.94355,-0.0854 -1.41602,-0.0957 z"
         style="color:#000000;font-style:normal;font-variant:normal;font-weight:normal;font-stretch:normal;font-size:medium;line-height:normal;font-family:sans-serif;font-variant-ligatures:normal;font-variant-position:normal;font-variant-caps:normal;font-variant-numeric:normal;font-variant-alternates:normal;font-variant-east-asian:normal;font-feature-settings:normal;font-variation-settings:normal;text-indent:0;text-align:start;text-decoration:none;text-decoration-line:none;text-decoration-style:solid;text-decoration-color:#000000;letter-spacing:normal;word-spacing:normal;text-transform:none;writing-mode:lr-tb;direction:ltr;text-orientation:mixed;dominant-baseline:auto;baseline-shift:baseline;text-anchor:start;white-space:normal;shape-padding:0;shape-margin:0;inline-size:0;clip-rule:nonzero;display:inline;overflow:visible;visibility:visible;isolation:auto;mix-blend-mode:normal;color-interpolation:sRGB;color-interpolation-filters:linearRGB;solid-color:#000000;solid-opacity:1;vector-effect:none;fill:#df0029;fill-opacity:1;fill-rule:nonzero;stroke:none;stroke-width:10;stroke-linecap:butt;stroke-linejoin:miter;stroke-miterlimit:4;stroke-dasharray:none;stroke-dashoffset:0;stroke-opacity:1;color-rendering:auto;image-rendering:auto;shape-rendering:auto;text-rendering:auto;enable-background:accumulate;stop-color:#000000"
         id="path1285" />
    </g>
  </g>
</svg>
