<?xml version="1.0" encoding="UTF-8" standalone="no"?>
<svg
   inkscape:export-ydpi="96"
   inkscape:export-xdpi="96"
   inkscape:export-filename="/media/klapeto/Αρχεία/WindowsXP Theme/Vectors/RASTER/key-changes.png"
   sodipodi:docname="key-change.svg"
   inkscape:version="1.1.1 (3bf5ae0d25, 2021-09-20)"
   id="svg8"
   version="1.1"
   viewBox="0 0 256 256"
   height="256"
   width="256"
   xmlns:inkscape="http://www.inkscape.org/namespaces/inkscape"
   xmlns:sodipodi="http://sodipodi.sourceforge.net/DTD/sodipodi-0.dtd"
   xmlns="http://www.w3.org/2000/svg"
   xmlns:svg="http://www.w3.org/2000/svg"
   xmlns:rdf="http://www.w3.org/1999/02/22-rdf-syntax-ns#"
   xmlns:cc="http://creativecommons.org/ns#"
   xmlns:dc="http://purl.org/dc/elements/1.1/">
  <defs
     id="defs2">
    <linearGradient
       x2="819.20001"
       x1="-819.20001"
       spreadMethod="pad"
       id="gradient0-0"
       gradientUnits="userSpaceOnUse"
       gradientTransform="matrix(0.00737907,0.00737907,0.00613441,-0.00613441,25.633722,14.575442)">
      <stop
         id="stop1285"
         stop-color="#99ccff"
         offset="0.0" />
      <stop
         id="stop1287"
         stop-color="#ffffff"
         offset="1.0" />
    </linearGradient>
    <linearGradient
       x2="819.20001"
       x1="-819.20001"
       spreadMethod="pad"
       id="gradient1-6"
       gradientUnits="userSpaceOnUse"
       gradientTransform="matrix(-0.00693455,0.00275604,0.00142247,0.00355618,27.145099,16.664698)">
      <stop
         id="stop1290"
         stop-color="#333333"
         offset="0.0" />
      <stop
         id="stop1292"
         stop-color="#999999"
         offset="1.0" />
    </linearGradient>
    <linearGradient
       x2="819.20001"
       x1="-819.20001"
       spreadMethod="pad"
       id="gradient2-2"
       gradientUnits="userSpaceOnUse"
       gradientTransform="matrix(0.00622332,0.00222261,0.00231152,-0.00640112,27.278455,16.620246)">
      <stop
         id="stop1295"
         stop-color="#cccccc"
         offset="0.0" />
      <stop
         id="stop1297"
         stop-color="#999999"
         offset="0.19215686274509805" />
      <stop
         id="stop1299"
         stop-color="#ffffff"
         offset="0.3843137254901961" />
      <stop
         id="stop1301"
         stop-color="#999999"
         offset="0.611764705882353" />
      <stop
         id="stop1303"
         stop-color="#cccccc"
         offset="0.7647058823529411" />
      <stop
         id="stop1305"
         stop-color="#ffffff"
         offset="1.0" />
    </linearGradient>
    <linearGradient
       x2="819.20001"
       x1="-819.20001"
       spreadMethod="pad"
       id="gradient3-6"
       gradientUnits="userSpaceOnUse"
       gradientTransform="matrix(0.0040007,0.00871264,0.00346728,-0.00160028,16.521011,18.976215)">
      <stop
         id="stop1308"
         stop-color="#ffffff"
         offset="0.0" />
      <stop
         id="stop1310"
         stop-color="#cccccc"
         offset="1.0" />
    </linearGradient>
    <linearGradient
       x2="819.20001"
       x1="-819.20001"
       spreadMethod="pad"
       id="gradient4-1"
       gradientUnits="userSpaceOnUse"
       gradientTransform="matrix(-0.01146868,0.00533427,0.00142247,0.00311166,25.055843,9.8635038)">
      <stop
         id="stop1313"
         stop-color="#cccccc"
         offset="0.0" />
      <stop
         id="stop1315"
         stop-color="#ffffff"
         offset="1.0" />
    </linearGradient>
    <linearGradient
       x2="819.20001"
       x1="-819.20001"
       spreadMethod="pad"
       id="gradient5-8"
       gradientUnits="userSpaceOnUse"
       gradientTransform="matrix(2.667135e-4,0.00222261,0.0019559,-1.77809e-4,29.100998,43.647214)">
      <stop
         id="stop1318"
         stop-color="#999999"
         offset="0.0" />
      <stop
         id="stop1320"
         stop-color="#dddddd"
         offset="0.21568627450980393" />
      <stop
         id="stop1322"
         stop-color="#ffffff"
         offset="1.0" />
    </linearGradient>
    <linearGradient
       x2="819.20001"
       x1="-819.20001"
       spreadMethod="pad"
       id="gradient6-7"
       gradientUnits="userSpaceOnUse"
       gradientTransform="matrix(-0.00524537,-0.01120197,-0.00462303,0.00222261,30.701279,33.778815)">
      <stop
         id="stop1325"
         stop-color="#999999"
         offset="0.0" />
      <stop
         id="stop1327"
         stop-color="#666666"
         offset="1.0" />
    </linearGradient>
    <linearGradient
       x2="819.20001"
       x1="-819.20001"
       spreadMethod="pad"
       id="gradient7-9"
       gradientUnits="userSpaceOnUse"
       gradientTransform="matrix(-0.00142247,-0.00302275,-0.00168919,8.0014051e-4,31.501419,15.464487)">
      <stop
         id="stop1330"
         stop-color="#999999"
         offset="0.0" />
      <stop
         id="stop1332"
         stop-color="#666666"
         offset="1.0" />
    </linearGradient>
    <linearGradient
       x2="819.20001"
       x1="-819.20001"
       spreadMethod="pad"
       id="gradient8-2"
       gradientUnits="userSpaceOnUse"
       gradientTransform="matrix(0.00515646,0.00186699,0.00133357,-0.00355618,27.36736,19.242929)">
      <stop
         id="stop1335"
         stop-color="#cccccc"
         offset="0.0" />
      <stop
         id="stop1337"
         stop-color="#ffffff"
         offset="1.0" />
    </linearGradient>
    <linearGradient
       x2="819.20001"
       x1="-819.20001"
       spreadMethod="pad"
       id="gradient9-0"
       gradientUnits="userSpaceOnUse"
       gradientTransform="matrix(-0.00293385,-0.00293385,-0.00533427,0.00533427,37.858091,14.664347)">
      <stop
         id="stop1340"
         stop-color="#996600"
         offset="0.0" />
      <stop
         id="stop1342"
         stop-color="#ff9933"
         offset="1.0" />
    </linearGradient>
    <linearGradient
       x2="819.20001"
       x1="-819.20001"
       spreadMethod="pad"
       id="gradient10-23"
       gradientUnits="userSpaceOnUse"
       gradientTransform="matrix(0.00666784,0,0,-0.00675674,37.946996,14.575442)">
      <stop
         id="stop1345"
         stop-color="#ff9933"
         offset="0.0" />
      <stop
         id="stop1347"
         stop-color="#ff9933"
         offset="0.19215686274509805" />
      <stop
         id="stop1349"
         stop-color="#ffff99"
         offset="0.3843137254901961" />
      <stop
         id="stop1351"
         stop-color="#ff9933"
         offset="0.611764705882353" />
      <stop
         id="stop1353"
         stop-color="#ffcc66"
         offset="0.7647058823529411" />
      <stop
         id="stop1355"
         stop-color="#ffff99"
         offset="1.0" />
    </linearGradient>
    <linearGradient
       x2="819.20001"
       x1="-819.20001"
       spreadMethod="pad"
       id="gradient11-7"
       gradientUnits="userSpaceOnUse"
       gradientTransform="matrix(0.00675674,0.00675674,0.00266714,-0.00266714,28.700927,20.487592)">
      <stop
         id="stop1358"
         stop-color="#ffff99"
         offset="0.0" />
      <stop
         id="stop1360"
         stop-color="#ffcc66"
         offset="1.0" />
    </linearGradient>
    <linearGradient
       x2="819.20001"
       x1="-819.20001"
       spreadMethod="pad"
       id="gradient12-5"
       gradientUnits="userSpaceOnUse"
       gradientTransform="matrix(-0.00889045,0.00889045,0.00240042,0.00240042,33.368414,9.0633633)">
      <stop
         id="stop1363"
         stop-color="#ffff99"
         offset="0.0" />
      <stop
         id="stop1365"
         stop-color="#ffffff"
         offset="1.0" />
    </linearGradient>
    <linearGradient
       x2="819.20001"
       x1="-819.20001"
       spreadMethod="pad"
       id="gradient13-92"
       gradientUnits="userSpaceOnUse"
       gradientTransform="matrix(9.7794951e-4,0.0020448,0.00177809,-8.8904501e-4,48.882249,39.379798)">
      <stop
         id="stop1368"
         stop-color="#ffcc66"
         offset="0.0" />
      <stop
         id="stop1370"
         stop-color="#ffff99"
         offset="0.21568627450980393" />
      <stop
         id="stop1372"
         stop-color="#ffffff"
         offset="1.0" />
    </linearGradient>
    <linearGradient
       x2="819.20001"
       x1="-819.20001"
       spreadMethod="pad"
       id="gradient14"
       gradientUnits="userSpaceOnUse"
       gradientTransform="matrix(-0.00871264,-0.00871264,-0.00364508,0.00364508,47.059707,29.600303)">
      <stop
         id="stop1375"
         stop-color="#ff9933"
         offset="0.0" />
      <stop
         id="stop1377"
         stop-color="#996600"
         offset="1.0" />
    </linearGradient>
    <linearGradient
       x2="819.20001"
       x1="-819.20001"
       spreadMethod="pad"
       id="gradient15"
       gradientUnits="userSpaceOnUse"
       gradientTransform="matrix(-0.00240042,-0.00240042,-0.00133357,0.00133357,41.369819,11.508237)">
      <stop
         id="stop1380"
         stop-color="#ff9933"
         offset="0.0" />
      <stop
         id="stop1382"
         stop-color="#996600"
         offset="1.0" />
    </linearGradient>
    <linearGradient
       x2="819.20001"
       x1="-819.20001"
       spreadMethod="pad"
       id="gradient16"
       gradientUnits="userSpaceOnUse"
       gradientTransform="matrix(0.00560098,0,0,-0.00382289,38.836041,17.020316)">
      <stop
         id="stop1385"
         stop-color="#ffff99"
         offset="0.0" />
      <stop
         id="stop1387"
         stop-color="#ffffff"
         offset="1.0" />
    </linearGradient>
    <linearGradient
       x2="819.20001"
       x1="-819.20001"
       spreadMethod="pad"
       id="gradient17"
       gradientUnits="userSpaceOnUse"
       gradientTransform="matrix(0.01618062,0,0,-0.0097795,27.678526,9.1967201)">
      <stop
         id="stop1390"
         stop-color="#99ccff"
         offset="0.0" />
      <stop
         id="stop1392"
         stop-color="#ffffff"
         offset="0.4470588235294118" />
      <stop
         id="stop1394"
         stop-color="#9999cc"
         offset="1.0" />
    </linearGradient>
    <filter
       height="1.0893572"
       y="-0.044678588"
       width="1.1037098"
       x="-0.051854899"
       id="filter1512"
       style="color-interpolation-filters:sRGB"
       inkscape:collect="always">
      <feGaussianBlur
         id="feGaussianBlur1514"
         stdDeviation="3.8891175"
         inkscape:collect="always" />
    </filter>
    <filter
       height="1.0814004"
       y="-0.040700221"
       width="1.1169811"
       x="-0.058490559"
       id="filter1522"
       style="color-interpolation-filters:sRGB"
       inkscape:collect="always">
      <feGaussianBlur
         id="feGaussianBlur1524"
         stdDeviation="2.6071086"
         inkscape:collect="always" />
    </filter>
  </defs>
  <sodipodi:namedview
     inkscape:snap-global="true"
     inkscape:bbox-paths="false"
     fit-margin-bottom="0"
     fit-margin-right="0"
     fit-margin-left="0"
     fit-margin-top="0"
     inkscape:bbox-nodes="true"
     inkscape:snap-bbox="true"
     inkscape:window-maximized="1"
     inkscape:window-y="0"
     inkscape:window-x="3840"
     inkscape:window-height="2045"
     inkscape:window-width="3840"
     units="px"
     showgrid="false"
     inkscape:document-rotation="0"
     inkscape:current-layer="layer1"
     inkscape:document-units="px"
     inkscape:cy="9.1923881"
     inkscape:cx="21.92031"
     inkscape:zoom="5.6568543"
     inkscape:pageshadow="2"
     inkscape:pageopacity="0.0"
     borderopacity="1.0"
     bordercolor="#666666"
     pagecolor="#ffffff"
     id="base"
     showguides="false"
     inkscape:pagecheckerboard="0">
    <inkscape:grid
       originy="0"
       originx="0"
       id="grid1504"
       type="xygrid" />
    <inkscape:grid
       originy="0"
       originx="0"
       spacingy="0.5"
       spacingx="0.5"
       id="grid1507"
       type="xygrid" />
  </sodipodi:namedview>
  <metadata
     id="metadata5">
    <rdf:RDF>
      <cc:Work
         rdf:about="">
        <dc:format>image/svg+xml</dc:format>
        <dc:type
           rdf:resource="http://purl.org/dc/dcmitype/StillImage" />
      </cc:Work>
    </rdf:RDF>
  </metadata>
  <g
     transform="translate(-12.567709)"
     id="layer1"
     inkscape:groupmode="layer"
     inkscape:label="Layer 1">
    <path
       d="m 73.967147,4.0035511 c -1.033192,0.0078 -2.074595,0.029012 -3.121094,0.0625 a 2.1736523,2.1736523 0 0 0 -0.01563,0 C 53.809913,4.73615 40.360729,8.693904 30.662459,16.175426 c -5.42365,4.172978 -9.030126,9.157442 -10.550781,14.841797 -1.337685,5.000399 -1.048818,10.455732 0.730469,16.253906 l -3.273438,0.855469 7.507813,65.994132 14.423828,10.07618 25.091797,-8.10157 1.976562,23.71094 11.855469,6.125 -7.904297,14.42383 9.089844,5.5332 -8.101563,15.21289 10.275391,5.53321 -8.298828,15.60937 19.560547,10.66797 12.249998,-4.54297 6.125,-14.0293 -6.32422,-68.82812 0.99024,0.26562 20.94336,-16.20117 9.8789,21.53711 13.43555,1.77735 -2.56836,16.20312 10.27539,1.97461 -2.37109,17.19141 11.6582,1.58007 -2.57031,17.38672 22.13086,3.35938 9.8789,-8.29883 0.79102,-15.41211 -39.51758,-83.972651 16.39844,-12.447266 -22.91992,-57.695312 -18.76954,-1.779297 -8.5625,5.947265 c -2.51709,-1.645029 -5.28174,-3.171349 -8.31445,-4.5625 C 103.46171,6.661151 89.465021,3.886536 73.967147,4.0035511 Z m 0.701172,15.4726559 a 2.1736523,2.1736523 0 0 0 0.02148,0 c 13.040689,-0.129115 24.146398,2.128759 33.398431,6.691407 a 2.1736523,2.1736523 0 0 0 0.0176,0.0098 c 0.55365,0.266818 1.08323,0.538751 1.60547,0.8125 l -1.20703,0.837891 -4.78906,-2.226563 -64.535156,16.875 c -1.339871,-3.272561 -1.553837,-6.039014 -0.853515,-8.466796 0.807009,-2.797633 2.894006,-5.375048 6.675781,-7.753907 a 2.1736523,2.1736523 0 0 0 0.01953,-0.0098 c 6.881497,-4.423819 16.73496,-6.769531 29.646485,-6.769532 z m 64.845701,34.691407 2.74805,5.40039 -11.66992,8.337891 c 1.48346,-1.564424 2.87151,-3.261499 4.15039,-5.105469 2.0516,-2.917302 3.6462,-5.79777 4.77148,-8.632812 z M 59.205428,84.538707 c 0.197537,0.02368 0.400449,0.04229 0.599609,0.06445 l -0.582031,0.162109 z"
       style="fill:#212121;fill-opacity:1;stroke-width:3.9517;filter:url(#filter1512)"
       id="path1387" />
    <g
       id="g1567"
       transform="matrix(4.4448834,0,0,4.4448834,-47.628058,-3.0743372)">
      <path
         style="fill:url(#gradient0-0);stroke-width:0.889045"
         id="path1231"
         stroke="none"
         fill-rule="evenodd"
         fill="url(#gradient0)"
         d="m 17.009986,11.152619 q -1.37802,0.622332 -0.800141,2.444874 2.533778,7.601335 19.025563,3.289466 0.933498,-0.266713 1.022402,-1.511376 0.04445,-1.200211 -1.022402,-1.466924 -6.934551,1.866994 -10.579635,1.600281 -3.867346,-0.266714 -5.245366,-3.022753 -1.022402,-1.955899 -2.400421,-1.333568" />
      <path
         style="stroke-width:0.889045"
         id="path1255"
         stroke="none"
         fill-rule="evenodd"
         fill="#666666"
         d="m 21.942409,15.255564 0.446299,4.476339 0.577879,-0.222261 -0.355618,-4.400773"
         sodipodi:nodetypes="cccc" />
      <path
         id="path1233"
         stroke-width="0.97795"
         stroke-linejoin="round"
         stroke-linecap="round"
         stroke="#666666"
         fill="none"
         d="m 17.009986,11.152619 q 1.378019,-0.622331 2.400421,1.333568 1.37802,2.756039 5.245366,3.022753 3.645084,0.266713 10.579635,-1.600281 1.066854,0.266713 1.022402,1.466924 -0.0889,1.244663 -1.022402,1.511376 -16.491785,4.311869 -19.025563,-3.289466 -0.577879,-1.822542 0.800141,-2.444874 z" />
      <path
         style="stroke-width:0.889045"
         id="path1251"
         stroke="none"
         fill-rule="evenodd"
         fill="#666666"
         d="m 22.388708,19.687451 8.668189,-2.489326 -0.08891,-0.577879 -8.623736,2.400421 0.04445,0.666784" />
      <path
         style="fill:url(#gradient1-6);stroke-width:0.889045"
         id="path1235"
         stroke="none"
         fill-rule="evenodd"
         fill="url(#gradient1)"
         d="m 21.899733,15.286678 10.312922,-2.844944 0.311166,5.423175 -10.090661,2.889396 -0.533427,-5.467627 m -8.357023,-4.667486 1.689186,14.847052 3.245014,2.267065 5.645436,-1.822543 0.444522,5.33427 2.667135,1.37802 -1.77809,3.245014 2.044804,1.244663 -1.822543,3.422824 2.311517,1.244663 -1.866994,3.511727 4.400773,2.400422 2.756039,-1.022402 1.37802,-3.15611 -1.911447,-20.803653 4.400773,-1.37802 L 36.746785,7.3297256 32.923891,5.5516355 13.54271,10.619192" />
      <path
         style="fill:url(#gradient8-2);stroke-width:0.889045"
         id="path1249"
         stroke="none"
         fill-rule="evenodd"
         fill="url(#gradient8)"
         d="m 31.056897,17.198125 -8.712641,2.400422 0.155408,1.167326 10.068609,-2.81206 -1.511376,-0.755688"
         sodipodi:nodetypes="ccccc" />
      <path
         style="stroke-width:0.889045"
         id="path1253"
         stroke="none"
         fill-rule="evenodd"
         fill="#666666"
         d="m 22.027229,16.038867 8.718502,-2.530279 0.222261,-0.622331 -9.029667,2.396922 0.0889,0.755688"
         sodipodi:nodetypes="ccccc" />
      <path
         style="fill:url(#gradient2-2);stroke-width:0.889045"
         id="path1237"
         stroke="none"
         fill-rule="evenodd"
         fill="url(#gradient2)"
         d="m 21.988638,15.286678 10.312922,-2.800491 0.311165,5.378722 -10.09066,2.889396 -0.533427,-5.467627 m 6.934551,21.470437 -1.911447,3.645085 2.355969,1.155758 -1.955899,3.467276 3.333919,1.822542 1.822542,-0.711236 1.155759,-2.57823 -1.911447,-21.292628 4.489677,-1.466925 -0.577879,-13.0689612 -18.625493,5.2009132 1.289115,13.913555 6.801195,-2.222613 0.533427,6.178863 2.844944,1.511376 -1.77809,3.245015 2.133708,1.20021" />
      <path
         sodipodi:nodetypes="cccc"
         style="stroke-width:0.889045"
         id="path1277"
         stroke="none"
         fill-rule="evenodd"
         fill="#996600"
         d="m 32.44656,15.185503 1.894153,4.032751 0.539077,-0.419848 -1.822542,-4.000702" />
      <path
         style="fill:url(#gradient3-6);stroke-width:0.889045"
         id="path1239"
         stroke="none"
         fill-rule="evenodd"
         fill="url(#gradient3)"
         d="m 14.565112,11.419333 1.511376,13.646841 2.334584,1.76417 -1.085587,-13.778327 -2.760373,-1.632684"
         sodipodi:nodetypes="ccccc" />
      <path
         style="fill:url(#gradient4-1);stroke-width:0.889045"
         id="path1241"
         stroke="none"
         fill-rule="evenodd"
         fill="url(#gradient4)"
         d="M 14.565112,11.419333 17.321151,13.108518 35.724383,7.7297958 32.612725,6.351776 14.565112,11.419333" />
      <path
         style="fill:url(#gradient5-8);stroke-width:0.889045"
         id="path1243"
         stroke="none"
         fill-rule="evenodd"
         fill="url(#gradient5)"
         d="m 25.411461,30.800514 1.466924,0.711236 -0.457043,-7.274366 -1.397073,0.435611 0.387192,6.127519 m 1.2974,4.829227 1.126806,0.565366 1.798758,-3.305337 -1.100225,-0.590481 m -1.573221,8.108421 1.155801,0.571101 1.894059,-3.612657 -1.109508,-0.61675 m -1.525761,8.284319 1.276637,0.672504 1.915715,-3.481485 -1.236007,-0.669496"
         sodipodi:nodetypes="ccccccccccccccccc" />
      <path
         style="fill:url(#gradient6-7);stroke-width:0.889045"
         id="path1245"
         stroke="none"
         fill-rule="evenodd"
         fill="url(#gradient6)"
         d="m 31.012444,44.669616 1.289116,-0.444523 -2.044804,-21.248175 -1.155758,0.40007 1.911446,21.292628" />
      <path
         style="fill:url(#gradient7-9);stroke-width:0.889045"
         id="path1247"
         stroke="none"
         fill-rule="evenodd"
         fill="url(#gradient7)"
         d="m 30.745731,12.930709 0.266713,4.178512 1.644734,0.977949 -0.355618,-5.600983 -1.555829,0.444522" />
      <path
         style="fill:url(#gradient9-0);stroke-width:0.889045"
         id="path1257"
         stroke="none"
         fill-rule="evenodd"
         fill="url(#gradient9)"
         d="m 32.434916,15.197774 8.712642,-6.1788629 2.133708,4.9786519 -8.49038,6.134411 -2.35597,-4.9342 M 53.860901,40.80227 54.03871,37.334995 45.14826,18.442788 48.837797,15.642296 43.681336,2.6622393 39.458372,2.262169 23.011039,13.686397 l 6.623386,13.380128 3.822893,1.022402 4.711939,-3.645085 2.222612,4.845295 3.022753,0.400071 -0.577879,3.645084 2.311517,0.444523 -0.533427,3.867345 2.622683,0.355618 -0.577879,3.911798 4.978652,0.755689 2.222612,-1.866995" />
      <path
         sodipodi:nodetypes="cccccccccccccccccccccc"
         style="fill:url(#gradient10-23);stroke-width:0.889045"
         id="path1259"
         stroke="none"
         fill-rule="evenodd"
         fill="url(#gradient10)"
         d="m 32.523821,15.197774 8.712641,-6.1788629 2.17816,4.9341999 -8.534832,6.178863 -2.355969,-4.9342 m 13.291223,21.870507 2.622683,0.266714 -0.666784,3.95625 3.778441,0.533427 c 0.503792,-0.444523 0.992767,-0.874228 1.466924,-1.289115 L 53.194117,37.735065 44.125858,18.353884 47.859847,15.464487 42.836743,3.4179275 27.100646,14.619895 33.1017,27.244334 l 5.600984,-4.400773 2.622683,5.600984 3.200562,0.488974 -0.45822,3.566481 2.325214,0.434222 -0.577879,4.134059" />
      <path
         style="fill:url(#gradient11-7);stroke-width:0.889045"
         id="path1261"
         stroke="none"
         fill-rule="evenodd"
         fill="url(#gradient11)"
         d="m 30.301208,26.399741 2.889397,0.844593 -5.867697,-12.624439 -3.111658,-0.57788 6.089958,12.357726" />
      <path
         sodipodi:nodetypes="ccccc"
         style="stroke-width:0.889045"
         id="path1273"
         stroke="none"
         fill-rule="evenodd"
         fill="#996600"
         d="m 34.435268,19.154024 7.532082,-5.454265 c -0.01564,0.06301 -0.353664,-0.518982 -0.353664,-0.518982 l -7.489584,5.350916 0.311166,0.622331" />
      <path
         style="fill:url(#gradient12-5);stroke-width:0.889045"
         id="path1263"
         stroke="none"
         fill-rule="evenodd"
         fill="url(#gradient12)"
         d="M 24.21125,14.042015 27.411812,14.708799 42.836743,3.4179275 39.458372,3.1067618 24.21125,14.042015" />
      <path
         style="fill:url(#gradient13-92);stroke-width:0.889045"
         id="path1265"
         stroke="none"
         fill-rule="evenodd"
         fill="url(#gradient13)"
         d="m 45.142332,32.718319 0.574373,-3.646794 -1.217212,-0.125059 -0.579098,3.591101 m -2.607172,-4.007781 1.600281,0.177809 -3.045941,-6.777446 -1.200211,0.933497 2.645871,5.66614 m 4.489215,8.545725 1.257932,0.128418 0.501039,-4.084185 -1.177601,-0.175533 m 2.049873,4.39952 -0.673937,3.9438 1.30121,0.189146 0.566082,-4.043688"
         sodipodi:nodetypes="ccccccccccccccccc" />
      <path
         sodipodi:nodetypes="cccc"
         id="path1271"
         stroke="none"
         fill-rule="evenodd"
         fill="url(#gradient16)"
         d="m 41.909214,13.732765 -7.607303,5.376807 0.550083,1.04525 8.663896,-5.981786"
         style="fill:url(#gradient16);stroke-width:0.889045" />
      <path
         id="path1267"
         stroke="none"
         fill-rule="evenodd"
         fill="url(#gradient14)"
         d="m 51.060409,39.690964 1.022402,-0.844593 -9.157163,-19.247824 -0.933498,0.711236 9.068259,19.381181"
         style="fill:url(#gradient14);stroke-width:0.889045" />
      <path
         sodipodi:nodetypes="ccccc"
         id="path1269"
         stroke="none"
         fill-rule="evenodd"
         fill="url(#gradient15)"
         d="m 39.947347,9.9524083 1.933491,3.8005647 1.659632,0.446208 -2.304008,-5.1802699 -1.289115,0.9334972"
         style="fill:url(#gradient15);stroke-width:0.889045" />
      <path
         style="stroke-width:0.889045"
         id="path1275"
         stroke="none"
         fill-rule="evenodd"
         fill="#996600"
         d="m 32.879439,15.775653 7.245717,-5.245365 V 9.8635038 l -7.601335,5.2898182 0.355618,0.622331" />
      <path
         id="path1279"
         stroke="none"
         fill-rule="evenodd"
         fill="url(#gradient17)"
         d="M 16.787724,3.8179978 Q 13.320449,6.4851328 14.92073,10.797001 L 18.121292,9.9079561 Q 16.69882,7.0185598 19.454859,5.284922 21.944185,3.684641 26.38941,3.684641 q 4.489678,-0.044452 7.734692,1.5558288 3.689537,1.77809 3.778441,4.8008432 0.0889,1.822542 -1.866994,3.378371 l -2.711588,1.955899 q 0.711237,1.822542 1.022402,1.77809 3.245015,-0.755688 5.156461,-3.511728 1.689186,-2.400421 1.37802,-4.4452249 Q 40.302965,5.2404698 35.45767,3.0178573 31.101349,1.017506 25.544818,1.195315 19.899382,1.4175762 16.787724,3.8179978"
         style="fill:url(#gradient17);stroke-width:0.889045" />
      <path
         id="path1281"
         stroke-width="0.97795"
         stroke-linejoin="round"
         stroke-linecap="round"
         stroke="#666666"
         fill="none"
         d="m 16.787724,3.8179978 q 3.111658,-2.4004216 8.757094,-2.6226828 5.556531,-0.177809 9.912852,1.8225423 4.845295,2.2226125 5.423174,6.1788628 0.311166,2.0448039 -1.37802,4.4452249 -1.911446,2.75604 -5.156461,3.511728 -0.311165,0.04445 -1.022402,-1.77809 l 2.711588,-1.955899 q 1.955899,-1.555829 1.866994,-3.378371 -0.0889,-3.0227532 -3.778441,-4.8008432 -3.245014,-1.600281 -7.734692,-1.5558288 -4.445225,0 -6.934551,1.600281 -2.756039,1.7336378 -1.333567,4.6230341 L 14.92073,10.797001 Q 13.320449,6.4851328 16.787724,3.8179978 Z" />
    </g>
    <g
       id="g1520"
       transform="matrix(1.0734908,0,0,1.0734908,57.462879,28.995554)"
       style="fill:#212121;fill-opacity:1;stroke:none;stroke-width:4.02976;stroke-miterlimit:4;stroke-dasharray:none;stroke-opacity:1;filter:url(#filter1522)">
      <path
         sodipodi:nodetypes="ccccccc"
         id="path1516"
         d="M 84.036304,133.14534 C 99.48626,93.276798 133.08927,79.634142 147.81248,95.942566 c -2.98972,11.202254 -9.24108,15.400984 -21.25869,21.258724 19.15456,5.89993 38.60688,6.68023 58.4615,5.31469 1.75611,-28.520048 4.49803,-51.205565 -4.18807,-70.430349 -3.50234,9.260505 -7.75358,16.031285 -11.75598,17.283523 -30.0946,-33.622826 -85.19406,9.056563 -85.034936,63.776186 z"
         style="fill:#212121;fill-opacity:1;stroke:none;stroke-width:4.02976;stroke-linecap:butt;stroke-linejoin:miter;stroke-miterlimit:4;stroke-dasharray:none;stroke-opacity:1" />
      <path
         style="fill:#212121;fill-opacity:1;stroke:none;stroke-width:4.02976;stroke-linecap:butt;stroke-linejoin:miter;stroke-miterlimit:4;stroke-dasharray:none;stroke-opacity:1"
         d="m 190.98016,132.30897 c -15.07808,37.15737 -49.15423,37.64502 -61.51084,25.91926 5.20352,-5.54483 13.02393,-8.23411 26.27716,-11.96876 -18.52847,-5.70708 -43.4817,-6.64537 -62.687323,-5.32446 -3.513006,23.6316 -4.747041,49.66409 4.133045,64.88592 3.387888,-8.9578 7.405158,-15.94584 11.116088,-18.26505 29.11088,32.52378 84.20567,-2.61945 82.67187,-55.24691 z"
         id="path1518"
         sodipodi:nodetypes="ccccccc" />
    </g>
    <g
       style="stroke:none;stroke-width:4.02976;stroke-miterlimit:4;stroke-dasharray:none;stroke-opacity:1"
       transform="matrix(1.0734908,0,0,1.0734908,52.462551,24.995886)"
       id="g1103">
      <path
         style="fill:#019901;fill-opacity:1;stroke:none;stroke-width:4.02976;stroke-linecap:butt;stroke-linejoin:miter;stroke-miterlimit:4;stroke-dasharray:none;stroke-opacity:1"
         d="M 84.036304,133.14534 C 99.48626,93.276798 133.08927,79.634142 147.81248,95.942566 c -2.98972,11.202254 -9.24108,15.400984 -21.25869,21.258724 19.15456,5.89993 38.60688,6.68023 58.4615,5.31469 1.75611,-28.520048 4.49803,-51.205565 -4.18807,-70.430349 -3.50234,9.260505 -7.75358,16.031285 -11.75598,17.283523 -30.0946,-33.622826 -85.19406,9.056563 -85.034936,63.776186 z"
         id="path2383-0"
         sodipodi:nodetypes="ccccccc" />
      <path
         sodipodi:nodetypes="ccccccc"
         id="path2383-8-3"
         d="m 190.98016,132.30897 c -15.07808,37.15737 -49.15423,37.64502 -61.51084,25.91926 5.20352,-5.54483 13.02393,-8.23411 26.27716,-11.96876 -18.52847,-5.70708 -43.4817,-6.64537 -62.687323,-5.32446 -3.513006,23.6316 -4.747041,49.66409 4.133045,64.88592 3.387888,-8.9578 7.405158,-15.94584 11.116088,-18.26505 29.11088,32.52378 84.20567,-2.61945 82.67187,-55.24691 z"
         style="fill:#019901;fill-opacity:1;stroke:none;stroke-width:4.02976;stroke-linecap:butt;stroke-linejoin:miter;stroke-miterlimit:4;stroke-dasharray:none;stroke-opacity:1" />
    </g>
  </g>
</svg>
