<?xml version="1.0" encoding="UTF-8" standalone="no"?>
<svg
   inkscape:export-ydpi="96"
   inkscape:export-xdpi="96"
   inkscape:export-filename="vm_new_wizard.png"
   sodipodi:docname="vm-new-wizard.svg"
   inkscape:version="1.1.2 (0a00cf5339, 2022-02-04)"
   id="svg8"
   version="1.1"
   viewBox="0 0 256 256"
   height="256"
   width="256"
   xmlns:inkscape="http://www.inkscape.org/namespaces/inkscape"
   xmlns:sodipodi="http://sodipodi.sourceforge.net/DTD/sodipodi-0.dtd"
   xmlns:xlink="http://www.w3.org/1999/xlink"
   xmlns="http://www.w3.org/2000/svg"
   xmlns:svg="http://www.w3.org/2000/svg"
   xmlns:rdf="http://www.w3.org/1999/02/22-rdf-syntax-ns#"
   xmlns:cc="http://creativecommons.org/ns#"
   xmlns:dc="http://purl.org/dc/elements/1.1/">
  <defs
     id="defs2">
    <linearGradient
       x2="819.20001"
       x1="-819.20001"
       spreadMethod="pad"
       id="gradient3-2-4"
       gradientUnits="userSpaceOnUse"
       gradientTransform="matrix(0,0.00550385,0.02404313,0,36.603919,5.9383667)">
      <stop
         id="stop68-6-9"
         stop-color="#9999cc"
         offset="0.0" />
      <stop
         id="stop70-1-5"
         stop-color="#ffffff"
         offset="1.0" />
    </linearGradient>
    <linearGradient
       x2="819.20001"
       x1="-819.20001"
       spreadMethod="pad"
       id="gradient4-6-0"
       gradientUnits="userSpaceOnUse"
       gradientTransform="matrix(-0.02404313,0,0,0.02636056,36.241823,23.39137)">
      <stop
         id="stop73-0-4"
         stop-color="#9999cc"
         offset="0.0" />
      <stop
         id="stop75-6-8"
         stop-color="#eeeeee"
         offset="1.0" />
    </linearGradient>
    <linearGradient
       x2="819.20001"
       x1="-819.20001"
       spreadMethod="pad"
       id="gradient12-0-7"
       gradientUnits="userSpaceOnUse"
       gradientTransform="matrix(-0.01636673,-0.00173806,-5.7935282e-4,0.00608321,29.434429,31.936825)">
      <stop
         id="stop117-9-1"
         stop-color="#9999cc"
         offset="0.0" />
      <stop
         id="stop119-3-7"
         stop-color="#9999cc"
         offset="1.0" />
    </linearGradient>
    <linearGradient
       x2="819.20001"
       x1="-819.20001"
       spreadMethod="pad"
       id="gradient14-1-2"
       gradientUnits="userSpaceOnUse"
       gradientTransform="matrix(0,0.02375346,0.0086903,0,49.277261,25.636363)">
      <stop
         id="stop127-2-7"
         stop-color="#6666cc"
         offset="0.0" />
      <stop
         id="stop129-7-2"
         stop-color="#aaaaaa"
         offset="1.0" />
    </linearGradient>
    <linearGradient
       x2="819.20001"
       x1="-819.20001"
       spreadMethod="pad"
       id="gradient5-6-2"
       gradientUnits="userSpaceOnUse"
       gradientTransform="matrix(-0.02607086,0,0,0.02867795,36.531499,23.46379)">
      <stop
         style="stop-color:#7777ab;stop-opacity:1"
         id="stop78-2-6"
         stop-color="#333366"
         offset="0.0" />
      <stop
         style="stop-color:#9898c8;stop-opacity:1"
         id="stop80-9-1"
         stop-color="#666699"
         offset="1.0" />
    </linearGradient>
    <filter
       inkscape:collect="always"
       style="color-interpolation-filters:sRGB"
       id="filter868"
       x="-0.05035466"
       y="-0.045855717"
       width="1.1007093"
       height="1.0917114">
      <feGaussianBlur
         inkscape:collect="always"
         stdDeviation="4.6810355"
         id="feGaussianBlur870" />
    </filter>
    <filter
       inkscape:collect="always"
       style="color-interpolation-filters:sRGB"
       id="filter1083"
       x="-0.047999999"
       y="-0.047999999"
       width="1.096"
       height="1.096">
      <feGaussianBlur
         inkscape:collect="always"
         stdDeviation="2.56"
         id="feGaussianBlur1085" />
    </filter>
    <linearGradient
       inkscape:collect="always"
       id="linearGradient250497">
      <stop
         style="stop-color:#ffffff;stop-opacity:1"
         offset="0"
         id="stop250493" />
      <stop
         style="stop-color:#cc9900;stop-opacity:1"
         offset="0.5"
         id="stop250670" />
      <stop
         style="stop-color:#cc9900;stop-opacity:0.00227354"
         offset="1"
         id="stop250495" />
    </linearGradient>
    <linearGradient
       inkscape:collect="always"
       id="linearGradient142567">
      <stop
         style="stop-color:#fffff5;stop-opacity:1"
         offset="0"
         id="stop142563" />
      <stop
         style="stop-color:#fffc6b;stop-opacity:1"
         offset="0.5"
         id="stop198543" />
      <stop
         style="stop-color:#ffedb1;stop-opacity:0"
         offset="1"
         id="stop142565" />
    </linearGradient>
    <linearGradient
       inkscape:collect="always"
       id="linearGradient116095">
      <stop
         style="stop-color:#e6b200;stop-opacity:1"
         offset="0"
         id="stop116091" />
      <stop
         style="stop-color:#ffec5f;stop-opacity:1"
         offset="0.36635566"
         id="stop116193" />
      <stop
         style="stop-color:#ffcc01;stop-opacity:1"
         offset="0.68317783"
         id="stop176803" />
      <stop
         style="stop-color:#e3ba3c;stop-opacity:1"
         offset="1"
         id="stop116093" />
    </linearGradient>
    <linearGradient
       inkscape:collect="always"
       id="linearGradient93599">
      <stop
         style="stop-color:#ac7e3d;stop-opacity:1"
         offset="0"
         id="stop93595" />
      <stop
         style="stop-color:#d5b63a;stop-opacity:1"
         offset="0.5"
         id="stop108366" />
      <stop
         style="stop-color:#f3ee5d;stop-opacity:1"
         offset="1"
         id="stop93597" />
    </linearGradient>
    <linearGradient
       inkscape:collect="always"
       id="linearGradient18715">
      <stop
         style="stop-color:#7773ae;stop-opacity:1"
         offset="0"
         id="stop18711" />
      <stop
         style="stop-color:#abaacb;stop-opacity:1;"
         offset="0.5"
         id="stop34894" />
      <stop
         style="stop-color:#fdfdfe;stop-opacity:1"
         offset="1"
         id="stop18713" />
    </linearGradient>
    <linearGradient
       x2="819.20001"
       x1="-819.20001"
       spreadMethod="pad"
       id="gradient0-6"
       gradientUnits="userSpaceOnUse"
       gradientTransform="matrix(0,-0.0161,-0.0204,0,-127.68505,80.594016)">
      <stop
         id="stop44-7"
         stop-color="#996600"
         offset="0.0" />
      <stop
         id="stop46-5"
         stop-color="#cc9900"
         offset="1.0" />
    </linearGradient>
    <linearGradient
       x2="819.20001"
       x1="-819.20001"
       spreadMethod="pad"
       id="gradient1-3"
       gradientUnits="userSpaceOnUse"
       gradientTransform="matrix(0,-0.0152,-0.0071,0,-137.78505,80.594016)">
      <stop
         id="stop49-5"
         stop-color="#ffcc66"
         offset="0.0" />
      <stop
         id="stop51-6"
         stop-color="#ffff99"
         offset="0.34509803921568627" />
      <stop
         id="stop53-2"
         stop-color="#ffffff"
         offset="1.0" />
    </linearGradient>
    <linearGradient
       x2="819.20001"
       x1="-819.20001"
       spreadMethod="pad"
       id="gradient2-9"
       gradientUnits="userSpaceOnUse"
       gradientTransform="matrix(0,0.0128,0.0171,0,-129.63505,78.694016)">
      <stop
         id="stop56-1"
         stop-color="#ffff99"
         offset="0.0" />
      <stop
         id="stop58"
         stop-color="#ffcc66"
         offset="0.47058823529411764" />
      <stop
         id="stop60"
         stop-color="#cc9900"
         offset="1.0" />
    </linearGradient>
    <linearGradient
       x2="819.20001"
       x1="-819.20001"
       spreadMethod="pad"
       id="gradient6-6"
       gradientUnits="userSpaceOnUse"
       gradientTransform="matrix(0,-0.0104,-5e-4,0,-115.23505,84.494016)">
      <stop
         id="stop78-2"
         stop-color="#cc9900"
         offset="0.0" />
      <stop
         id="stop80-6"
         stop-color="#ffcc66"
         offset="1.0" />
    </linearGradient>
    <linearGradient
       x2="819.20001"
       x1="-819.20001"
       spreadMethod="pad"
       id="gradient7-1"
       gradientUnits="userSpaceOnUse"
       gradientTransform="matrix(0,0.0104,0.0019,0,-113.28505,84.494016)">
      <stop
         id="stop83-8"
         stop-color="#ffff99"
         offset="0.0" />
      <stop
         id="stop85-7"
         stop-color="#ffff99"
         offset="1.0" />
    </linearGradient>
    <linearGradient
       x2="819.20001"
       x1="-819.20001"
       spreadMethod="pad"
       id="gradient8-9"
       gradientUnits="userSpaceOnUse"
       gradientTransform="matrix(0,0.0104,0.0166,0,-129.23505,84.494016)">
      <stop
         id="stop88-2"
         stop-color="#ffff99"
         offset="0.0" />
      <stop
         id="stop90-0"
         stop-color="#ffcc66"
         offset="1.0" />
    </linearGradient>
    <linearGradient
       x2="819.20001"
       x1="-819.20001"
       spreadMethod="pad"
       id="gradient9-23"
       gradientUnits="userSpaceOnUse"
       gradientTransform="matrix(0,0.0114,0.0166,0,-129.23505,83.694016)">
      <stop
         id="stop93-7"
         stop-color="#ffcc66"
         offset="0.0" />
      <stop
         id="stop95-5"
         stop-color="#996600"
         offset="1.0" />
    </linearGradient>
    <linearGradient
       x2="819.20001"
       x1="-819.20001"
       spreadMethod="pad"
       id="gradient10-92"
       gradientUnits="userSpaceOnUse"
       gradientTransform="matrix(0,0.0114,0.0194,0,-126.93505,84.494016)">
      <stop
         id="stop98-2"
         stop-color="#ffffff"
         offset="0.0" />
      <stop
         id="stop100-8"
         stop-color="#ffffff"
         offset="0.3686274509803922" />
      <stop
         id="stop102-9"
         stop-color="#ffcc66"
         offset="0.8901960784313725" />
      <stop
         id="stop104"
         stop-color="#cc9900"
         offset="1.0" />
    </linearGradient>
    <linearGradient
       x2="819.20001"
       x1="-819.20001"
       spreadMethod="pad"
       id="gradient11-73"
       gradientUnits="userSpaceOnUse"
       gradientTransform="matrix(0.0175,0,0,-5e-4,-129.23505,93.444016)">
      <stop
         id="stop107-61"
         stop-color="#996600"
         offset="0.0" />
      <stop
         id="stop109"
         stop-color="#cc9900"
         offset="1.0" />
    </linearGradient>
    <linearGradient
       x2="819.20001"
       x1="-819.20001"
       spreadMethod="pad"
       id="gradient13-7"
       gradientUnits="userSpaceOnUse"
       gradientTransform="matrix(0.0012,0.0012,0.0014,-0.0014,-142.93505,91.094016)">
      <stop
         id="stop117-8"
         stop-color="#ffcc66"
         offset="0.0" />
      <stop
         id="stop119-4"
         stop-color="#cc9900"
         offset="1.0" />
    </linearGradient>
    <linearGradient
       gradientTransform="matrix(0,0.00550385,0.02404313,0,36.603919,5.9383667)"
       gradientUnits="userSpaceOnUse"
       id="gradient3-2-4-7"
       spreadMethod="pad"
       x1="-819.20001"
       x2="819.20001">
      <stop
         offset="0.0"
         stop-color="#9999cc"
         id="stop68-6-9-5" />
      <stop
         offset="1.0"
         stop-color="#ffffff"
         id="stop70-1-5-3" />
    </linearGradient>
    <linearGradient
       gradientTransform="matrix(-0.02404313,0,0,0.02636056,36.241823,23.39137)"
       gradientUnits="userSpaceOnUse"
       id="gradient4-6-0-5"
       spreadMethod="pad"
       x1="-819.20001"
       x2="819.20001">
      <stop
         offset="0.0"
         stop-color="#9999cc"
         id="stop73-0-4-6" />
      <stop
         offset="1.0"
         stop-color="#eeeeee"
         id="stop75-6-8-2" />
    </linearGradient>
    <linearGradient
       gradientTransform="matrix(-0.01636673,-0.00173806,-5.7935282e-4,0.00608321,29.434429,31.936825)"
       gradientUnits="userSpaceOnUse"
       id="gradient12-0-7-9"
       spreadMethod="pad"
       x1="-819.20001"
       x2="819.20001">
      <stop
         offset="0.0"
         stop-color="#9999cc"
         id="stop117-9-1-1" />
      <stop
         offset="1.0"
         stop-color="#9999cc"
         id="stop119-3-7-2" />
    </linearGradient>
    <linearGradient
       gradientTransform="matrix(0,0.02375346,0.0086903,0,49.277261,25.636363)"
       gradientUnits="userSpaceOnUse"
       id="gradient14-1-2-7"
       spreadMethod="pad"
       x1="-819.20001"
       x2="819.20001">
      <stop
         offset="0.0"
         stop-color="#6666cc"
         id="stop127-2-7-0" />
      <stop
         offset="1.0"
         stop-color="#aaaaaa"
         id="stop129-7-2-9" />
    </linearGradient>
    <linearGradient
       gradientTransform="matrix(-0.02607086,0,0,0.02867795,36.531499,23.46379)"
       gradientUnits="userSpaceOnUse"
       id="gradient5-6-2-3"
       spreadMethod="pad"
       x1="-819.20001"
       x2="819.20001">
      <stop
         offset="0.0"
         stop-color="#333366"
         id="stop78-2-6-6"
         style="stop-color:#7777ab;stop-opacity:1" />
      <stop
         offset="1.0"
         stop-color="#666699"
         id="stop80-9-1-0"
         style="stop-color:#9898c8;stop-opacity:1" />
    </linearGradient>
    <linearGradient
       inkscape:collect="always"
       xlink:href="#linearGradient18715"
       id="linearGradient18717"
       x1="20.816912"
       y1="51.873905"
       x2="20.816912"
       y2="48.373905"
       gradientUnits="userSpaceOnUse"
       gradientTransform="translate(-16.749202,-1.8739068)" />
    <linearGradient
       inkscape:collect="always"
       xlink:href="#linearGradient93599"
       id="linearGradient93601"
       x1="-9.432291"
       y1="50"
       x2="-9.432291"
       y2="46.5"
       gradientUnits="userSpaceOnUse" />
    <linearGradient
       inkscape:collect="always"
       xlink:href="#linearGradient116095"
       id="linearGradient116097"
       x1="-54.761221"
       y1="9.5244401"
       x2="-10.360636"
       y2="9.5244401"
       gradientUnits="userSpaceOnUse" />
    <radialGradient
       inkscape:collect="always"
       xlink:href="#linearGradient142567"
       id="radialGradient142569"
       cx="-48.443567"
       cy="6.9353771"
       fx="-48.443567"
       fy="6.9353771"
       r="3.5"
       gradientUnits="userSpaceOnUse" />
    <radialGradient
       inkscape:collect="always"
       xlink:href="#linearGradient142567"
       id="radialGradient229495"
       cx="-44.443565"
       cy="2.9353771"
       fx="-44.443565"
       fy="2.9353771"
       r="1.9999995"
       gradientUnits="userSpaceOnUse" />
    <radialGradient
       inkscape:collect="always"
       xlink:href="#linearGradient142567"
       id="radialGradient229503"
       cx="-37.443565"
       cy="1.9353771"
       fx="-37.443565"
       fy="1.9353771"
       r="2.5"
       gradientUnits="userSpaceOnUse" />
    <radialGradient
       inkscape:collect="always"
       xlink:href="#linearGradient250497"
       id="radialGradient250499"
       cx="-29.443567"
       cy="8.935377"
       fx="-29.443567"
       fy="8.935377"
       r="3.5"
       gradientUnits="userSpaceOnUse" />
    <filter
       inkscape:collect="always"
       style="color-interpolation-filters:sRGB"
       id="filter323819"
       x="-0.044636594"
       y="-0.051911583"
       width="1.0892732"
       height="1.1038232">
      <feGaussianBlur
         inkscape:collect="always"
         stdDeviation="3.0083804"
         id="feGaussianBlur323821" />
    </filter>
  </defs>
  <sodipodi:namedview
     inkscape:snap-global="true"
     inkscape:bbox-paths="false"
     fit-margin-bottom="0"
     fit-margin-right="0"
     fit-margin-left="0"
     fit-margin-top="0"
     inkscape:bbox-nodes="true"
     inkscape:snap-bbox="true"
     inkscape:window-maximized="1"
     inkscape:window-y="0"
     inkscape:window-x="3840"
     inkscape:window-height="2043"
     inkscape:window-width="3840"
     units="px"
     showgrid="false"
     inkscape:document-rotation="0"
     inkscape:current-layer="layer1"
     inkscape:document-units="px"
     inkscape:cy="172.57624"
     inkscape:cx="-418.67968"
     inkscape:zoom="0.82282474"
     inkscape:pageshadow="2"
     inkscape:pageopacity="0.0"
     borderopacity="1.0"
     bordercolor="#666666"
     pagecolor="#ffffff"
     id="base"
     inkscape:pagecheckerboard="0">
    <inkscape:grid
       originy="0"
       originx="0"
       id="grid1504"
       type="xygrid" />
    <inkscape:grid
       originy="0"
       originx="0"
       spacingy="0.5"
       spacingx="0.5"
       id="grid1507"
       type="xygrid" />
  </sodipodi:namedview>
  <metadata
     id="metadata5">
    <rdf:RDF>
      <cc:Work
         rdf:about="">
        <dc:format>image/svg+xml</dc:format>
        <dc:type
           rdf:resource="http://purl.org/dc/dcmitype/StillImage" />
      </cc:Work>
    </rdf:RDF>
  </metadata>
  <g
     transform="translate(-12.567709)"
     id="layer1"
     inkscape:groupmode="layer"
     inkscape:label="Layer 1">
    <g
       id="g1237"
       transform="translate(61.350731)">
      <path
         style="fill:#8b8bbc;fill-opacity:1;stroke:none;stroke-width:0.808762px;stroke-linecap:butt;stroke-linejoin:miter;stroke-opacity:1"
         d="M 80.442042,6.9736509 17.858909,19.308898 18.477734,140.99114 128.7125,196.70475 191.39179,166.84178 190.98631,27.284561 Z"
         id="path1038"
         sodipodi:nodetypes="ccccccc" />
      <path
         d="M 104.83511,4 21.401529,19.312274 21.778251,131.97559 v 6.03735 l -0.376722,39.25807 141.567281,71.72538 81.53988,-41.52843 V 28.159593 L 129.37139,8.1538616 123.71074,7.4004654 Z"
         style="mix-blend-mode:normal;fill:#212121;fill-opacity:1;fill-rule:evenodd;stroke:none;stroke-width:7.54996;filter:url(#filter868)"
         id="path861"
         transform="matrix(0.80876206,0,0,0.80876206,1.2890657,1.0683604)" />
      <g
         id="g876"
         transform="matrix(4.2158252,0,0,4.2158252,-49.38637,1.1137565)">
        <path
           d="M 42.325029,10.500771 16.139584,3.9687501 31.220836,1.3229167 56.753125,6.0854168 42.025167,11.154566"
           id="path14"
           style="fill:url(#gradient3-2-4);fill-rule:evenodd;stroke:none;stroke-width:1.44838"
           inkscape:connector-curvature="0"
           sodipodi:nodetypes="ccccc" />
        <path
           d="M 42.490203,10.528984 42.418185,36.332338 16.461993,25.745199 16.636615,3.9166662 m -0.405706,22.8060618 26.167544,11.421328 0.08652,6.977335 -26.212238,-12.564093"
           id="path16"
           style="fill:url(#gradient4-6-0);fill-rule:evenodd;stroke:none;stroke-width:1.44838"
           inkscape:connector-curvature="0"
           sodipodi:nodetypes="cccccccc" />
        <path
           d="m 42.325029,36.064714 v 2.244991 L 16.369244,27.10571 l 0.05394,-1.647377"
           id="path32"
           style="fill:url(#gradient12-0-7);fill-rule:evenodd;stroke:none;stroke-width:1.44838"
           inkscape:connector-curvature="0"
           sodipodi:nodetypes="cccc" />
        <path
           d="M 42.325029,10.500771 55.722563,6.3004621 56.682366,6 56.610312,38.283607 c -4.731379,2.220854 -9.60969,4.534167 -14.292788,6.8033 m 11.884238,-9.311875 c -0.531074,-0.193118 -0.86903,0.09656 -1.013868,0.869029 -0.193107,0.675913 -0.02405,1.086289 0.506934,1.231127 0.579351,0.04826 0.941447,-0.241402 1.086284,-0.869031 0.144849,-0.724192 -0.04826,-1.134565 -0.57935,-1.231125"
           id="path38"
           style="fill:url(#gradient14-1-2);fill-rule:evenodd;stroke:none;stroke-width:1.44838"
           inkscape:connector-curvature="0"
           sodipodi:nodetypes="cccccccccc" />
        <path
           sodipodi:nodetypes="ccccc"
           d="M 45.439049,30.922958 45.294211,16.94607 54.056924,13.687211 v 13.687211 l -8.617875,3.548536"
           id="path42"
           inkscape:connector-curvature="0"
           style="fill:#9999cc;fill-rule:evenodd;stroke:none;stroke-width:1.44838" />
        <path
           d="M 42.325029,38.309705 V 36.064714 L 56.520523,30.09497 v 1.810477 l -14.195494,6.404258 m 3.11402,-7.386747 8.617875,-3.548536 V 13.687211 l -8.762713,3.258859 0.144849,13.976888 m 1.52079,-9.631741 v -1.231125 l 5.431435,-2.100153 v 1.086286 l -5.431435,2.244992 m 6.517719,-0.579353 v 1.231125 l -7.241911,2.969183 v -1.375963 l 7.241911,-2.824345 m 1.520802,7.314329 -10.790444,4.489985 V 15.859784 l 10.790444,-3.910631 v 16.07704"
           id="path40"
           inkscape:connector-curvature="0"
           style="fill:#666699;fill-rule:evenodd;stroke:none;stroke-width:1.44838"
           sodipodi:nodetypes="ccccccccccccccccccccccccc" />
        <path
           d="m 54.201762,35.775037 q 0.796609,0.144838 0.57935,1.231125 -0.217236,0.941447 -1.086284,0.86903 -0.796613,-0.217274 -0.506934,-1.231126 0.217273,-1.158705 1.013868,-0.869029"
           id="path44"
           inkscape:connector-curvature="0"
           style="fill:#99ff66;fill-rule:evenodd;stroke:none;stroke-width:1.44838" />
        <path
           d="m 34.793443,0.65177231 1.086284,0.1448377 22.087826,3.83821259 V 39.033897 L 42.325029,47 15.167865,33.240369 15.24029,25.708782 V 24.550076 L 15.167865,2.9374999 31.1725,4.804161e-8 34.793457,0.65177194 M 18.571579,3.6209552 16.636615,3.9166662 16.544132,32.516178 42.325059,44.972261 v 0.07242 c 4.683098,-2.269134 9.390344,-4.514124 14.121722,-6.734977 V 6.0832052 L 55.722593,6.3004636 56.488545,6.0854168 31.100068,1.3759634 18.571594,3.6209556"
           id="path18"
           style="fill:url(#gradient5-6-2);fill-rule:evenodd;stroke:none;stroke-width:1.44838"
           inkscape:connector-curvature="0"
           sodipodi:nodetypes="cccccccccccccccccccccc" />
      </g>
    </g>
    <g
       inkscape:label="Layer 1"
       id="layer1-8"
       transform="matrix(0.80057004,0,0,0.80057004,2.5063779,52.789244)">
      <path
         id="rect323669"
         style="fill:#212121;fill-opacity:1;fill-rule:evenodd;stroke:none;stroke-width:5.38003;stroke-linecap:round;stroke-linejoin:round;stroke-miterlimit:4;stroke-dasharray:none;stroke-opacity:1;filter:url(#filter323819);stop-color:#000000"
         d="m 57.735624,106.9065 c -2.586135,-0.2201 -5.240291,0.79442 -6.980469,2.94336 l -11.851562,14.63477 c -2.784286,3.4383 -2.244953,8.56531 1.193359,11.3496 L 173.89188,244.17994 c 3.4383,2.78428 8.56728,2.24494 11.35156,-1.19336 l 11.84961,-14.63281 c 2.78429,-3.43831 2.24494,-8.56533 -1.19336,-11.34961 L 62.104764,108.65845 c -1.289366,-1.04411 -2.817459,-1.61989 -4.36914,-1.75195 z" />
      <g
         id="g321943"
         transform="matrix(5.3800336,0,0,5.3800336,308.30828,17.941545)">
        <path
           style="opacity:1;fill:url(#linearGradient116097);fill-opacity:1;stroke:none;stroke-width:1px;stroke-linecap:butt;stroke-linejoin:miter;stroke-opacity:1"
           d="m -48.360634,17.27444 c -1,-7.9999997 4.4723,-10.4999997 9,-10.4999997 10.499998,0 7.5,12.9999997 19.999998,12.9999997 7.5,0 9,-4.5 9,-7.5 0,-2.4999997 -0.890195,-4.9999997 -4,-4.9999997 -3.15551,0 -4.040752,2.07402 -4.025127,3.8048377 0.01354,1.499938 1.525127,2.695162 3.025127,2.695162 1.5,0 2.5,-1.5 2,-2.5 0,1 -1.021827,1.300083 -2.021827,1.300083 -0.671803,0 -1.396793,-0.857821 -1.396793,-1.357821 0,-1.118034 0.899037,-1.9126259 2.399037,-1.9126259 1,0 2.019583,0.8892249 2.019583,2.4703639 0,3 -2.5,5 -6.5,5 -9.5,0 0,-17.49999974 -20.499998,-17.49999974 -12,0 -21.304102,13.24557274 -11.5,20.49999974 0.5,0 2.5,-2.5 2.5,-2.5 z"
           id="path112760"
           sodipodi:nodetypes="csssssscsssssscc" />
        <path
           id="path131392"
           style="color:#000000;opacity:1;fill:url(#radialGradient142569);fill-opacity:1;stroke-linecap:round;-inkscape-stroke:none"
           d="m -48.443567,3.4353771 a 0.5,0.5 0 0 0 -0.5,0.5 v 2.5 h -2.5 a 0.5,0.5 0 0 0 -0.5,0.5 0.5,0.5 0 0 0 0.5,0.5 h 2.5 v 2.5 a 0.5,0.5 0 0 0 0.5,0.4999999 0.5,0.5 0 0 0 0.5,-0.4999999 v -2.5 h 2.5 a 0.5,0.5 0 0 0 0.5,-0.5 0.5,0.5 0 0 0 -0.5,-0.5 h -2.5 v -2.5 a 0.5,0.5 0 0 0 -0.5,-0.5 z" />
        <path
           id="path131392-06"
           style="color:#000000;opacity:1;fill:url(#radialGradient250499);fill-opacity:1;stroke-linecap:round;-inkscape-stroke:none"
           d="m -29.443567,5.4353771 a 0.5,0.5 0 0 0 -0.5,0.5 v 2.5 h -2.5 a 0.5,0.5 0 0 0 -0.5,0.5 0.5,0.5 0 0 0 0.5,0.5 h 2.5 v 2.4999999 a 0.5,0.5 0 0 0 0.5,0.5 0.5,0.5 0 0 0 0.5,-0.5 V 9.4353771 h 2.5 a 0.5,0.5 0 0 0 0.5,-0.5 0.5,0.5 0 0 0 -0.5,-0.5 h -2.5 v -2.5 a 0.5,0.5 0 0 0 -0.5,-0.5 z" />
        <path
           id="path131392-3"
           style="color:#000000;opacity:1;fill:url(#radialGradient229503);fill-opacity:1;stroke-width:0.714286;stroke-linecap:round;-inkscape-stroke:none"
           d="m -37.443567,-0.56462292 a 0.35714286,0.35714286 0 0 0 -0.357143,0.357143 V 1.5782341 h -1.785714 a 0.35714286,0.35714286 0 0 0 -0.357143,0.357143 0.35714286,0.35714286 0 0 0 0.357143,0.357143 h 1.785714 v 1.785714 a 0.35714286,0.35714286 0 0 0 0.357143,0.357143 0.35714286,0.35714286 0 0 0 0.357143,-0.357143 v -1.785714 h 1.785714 a 0.35714286,0.35714286 0 0 0 0.357143,-0.357143 0.35714286,0.35714286 0 0 0 -0.357143,-0.357143 h -1.785714 v -1.78571402 a 0.35714286,0.35714286 0 0 0 -0.357143,-0.357143 z" />
        <path
           id="path131392-0"
           style="color:#000000;opacity:1;fill:url(#radialGradient229495);fill-opacity:1;stroke-width:0.571429;stroke-linecap:round;-inkscape-stroke:none"
           d="m -44.443566,0.93537608 a 0.28571437,0.28571437 0 0 0 -0.28571,0.28571502 v 1.428572 h -1.42858 a 0.28571437,0.28571437 0 0 0 -0.28571,0.285714 0.28571437,0.28571437 0 0 0 0.28571,0.285714 h 1.42858 v 1.428572 a 0.28571437,0.28571437 0 0 0 0.28571,0.285715 0.28571437,0.28571437 0 0 0 0.28571,-0.285715 v -1.428572 h 1.42857 a 0.28571437,0.28571437 0 0 0 0.285719,-0.285714 0.28571437,0.28571437 0 0 0 -0.285719,-0.285714 h -1.42857 v -1.428572 a 0.28571437,0.28571437 0 0 0 -0.28571,-0.28571502 z" />
        <circle
           style="opacity:1;fill:#fff9e2;fill-opacity:1;fill-rule:evenodd;stroke:none;stroke-width:1;stroke-linecap:round;stroke-linejoin:round;stroke-miterlimit:4;stroke-dasharray:none;stroke-opacity:1;stop-color:#000000"
           id="path141492"
           cx="-51.443565"
           cy="8.9353771"
           r="0.5" />
        <circle
           style="opacity:1;fill:#ffffff;fill-opacity:1;fill-rule:evenodd;stroke:none;stroke-width:1;stroke-linecap:round;stroke-linejoin:round;stroke-miterlimit:4;stroke-dasharray:none;stroke-opacity:1;stop-color:#000000"
           id="path141492-20"
           cx="-26.443565"
           cy="14.935377"
           r="0.5" />
        <circle
           style="opacity:1;fill:#d9a600;fill-opacity:1;fill-rule:evenodd;stroke:none;stroke-width:1;stroke-linecap:round;stroke-linejoin:round;stroke-miterlimit:4;stroke-dasharray:none;stroke-opacity:1;stop-color:#000000"
           id="path141492-23"
           cx="-22.943565"
           cy="16.935377"
           r="0.5" />
        <circle
           style="opacity:1;fill:#ffffff;fill-opacity:1;fill-rule:evenodd;stroke:none;stroke-width:1;stroke-linecap:round;stroke-linejoin:round;stroke-miterlimit:4;stroke-dasharray:none;stroke-opacity:1;stop-color:#000000"
           id="path141492-7"
           cx="-15.443566"
           cy="17.935377"
           r="0.5" />
        <circle
           style="opacity:1;fill:#ffffff;fill-opacity:1;fill-rule:evenodd;stroke:none;stroke-width:1;stroke-linecap:round;stroke-linejoin:round;stroke-miterlimit:4;stroke-dasharray:none;stroke-opacity:1;stop-color:#000000"
           id="path141492-5"
           cx="-11.799519"
           cy="11.939536"
           r="0.5" />
        <circle
           style="opacity:1;fill:#ffffff;fill-opacity:1;fill-rule:evenodd;stroke:none;stroke-width:1;stroke-linecap:round;stroke-linejoin:round;stroke-miterlimit:4;stroke-dasharray:none;stroke-opacity:1;stop-color:#000000"
           id="path141492-9"
           cx="-17.213892"
           cy="8.9461479"
           r="0.5" />
        <circle
           style="opacity:1;fill:#ffff99;fill-opacity:1;fill-rule:evenodd;stroke:none;stroke-width:1;stroke-linecap:round;stroke-linejoin:round;stroke-miterlimit:4;stroke-dasharray:none;stroke-opacity:1;stop-color:#000000"
           id="path141492-6"
           cx="-34.443565"
           cy="2.9353771"
           r="0.5" />
        <circle
           style="opacity:1;fill:#fdfb94;fill-opacity:1;fill-rule:evenodd;stroke:none;stroke-width:1;stroke-linecap:round;stroke-linejoin:round;stroke-miterlimit:4;stroke-dasharray:none;stroke-opacity:1;stop-color:#000000"
           id="path141492-18"
           cx="-41.443565"
           cy="0.93537706"
           r="0.5" />
        <circle
           style="opacity:1;fill:#ffffff;fill-opacity:1;fill-rule:evenodd;stroke:none;stroke-width:1;stroke-linecap:round;stroke-linejoin:round;stroke-miterlimit:4;stroke-dasharray:none;stroke-opacity:1;stop-color:#000000"
           id="path141492-1"
           cx="-53.443565"
           cy="11.935377"
           r="0.5" />
        <circle
           style="opacity:1;fill:#ffff99;fill-opacity:1;fill-rule:evenodd;stroke:none;stroke-width:0.920712;stroke-linecap:round;stroke-linejoin:round;stroke-miterlimit:4;stroke-dasharray:none;stroke-opacity:1;stop-color:#000000"
           id="path141492-2"
           cx="-51.008148"
           cy="14.556204"
           r="0.75" />
        <circle
           style="opacity:1;fill:#ffff99;fill-opacity:1;fill-rule:evenodd;stroke:none;stroke-width:0.920712;stroke-linecap:round;stroke-linejoin:round;stroke-miterlimit:4;stroke-dasharray:none;stroke-opacity:1;stop-color:#000000"
           id="path141492-2-7"
           cx="-50.008148"
           cy="11.556204"
           r="0.75"
           inkscape:transform-center-x="-0.47550965"
           inkscape:transform-center-y="-0.098321915" />
        <circle
           style="opacity:1;fill:#cc9900;fill-opacity:1;fill-rule:evenodd;stroke:none;stroke-width:0.920712;stroke-linecap:round;stroke-linejoin:round;stroke-miterlimit:4;stroke-dasharray:none;stroke-opacity:1;stop-color:#000000"
           id="path141492-2-7-9"
           cx="-33.193565"
           cy="5.4353771"
           r="0.75"
           inkscape:transform-center-x="-0.47550965"
           inkscape:transform-center-y="-0.098321915" />
      </g>
      <g
         id="g322055"
         transform="matrix(4.1810714,3.3857648,-3.3857648,4.1810714,255.17303,-46.475498)">
        <rect
           style="opacity:1;fill:url(#linearGradient18717);fill-opacity:1;fill-rule:evenodd;stroke:none;stroke-width:1;stroke-linecap:round;stroke-linejoin:round;stroke-miterlimit:4;stroke-dasharray:none;stroke-opacity:1;stop-color:#000000"
           id="rect18673"
           width="34"
           height="5.5"
           x="-11.932291"
           y="45.5"
           rx="1"
           ry="1" />
        <rect
           style="opacity:1;fill:url(#linearGradient93601);fill-opacity:1;fill-rule:evenodd;stroke:none;stroke-width:1;stroke-linecap:round;stroke-linejoin:round;stroke-miterlimit:4;stroke-dasharray:none;stroke-opacity:1;stop-color:#000000"
           id="rect76139"
           width="5"
           height="5.5"
           x="-11.932291"
           y="45.5" />
        <rect
           style="opacity:1;fill:none;fill-rule:evenodd;stroke:#5c5b9a;stroke-width:1;stroke-linecap:round;stroke-linejoin:round;stroke-miterlimit:4;stroke-dasharray:none;stroke-opacity:1;stop-color:#000000"
           id="rect2527"
           width="33.999989"
           height="5.5"
           x="-11.932291"
           y="45.5"
           rx="1"
           ry="1" />
      </g>
    </g>
    <g
       id="g1096"
       transform="matrix(0.80876206,0,0,0.80876206,47.51574,-0.43628822)">
      <path
         id="rect927"
         style="fill:#212121;fill-opacity:1;stroke:none;stroke-width:5.27863;stroke-linecap:round;stroke-linejoin:round;stroke-miterlimit:4;stroke-dasharray:none;stroke-opacity:1;filter:url(#filter1083)"
         d="m 204.71971,4.795 c -5.06514,0 -9.14453,4.0774355 -9.14453,9.142578 v 29.066406 a 27.42857,27.42857 0 0 0 -2.65625,1.060547 L 174.54979,25.69539 c -3.58159,-3.581596 -9.35004,-3.581596 -12.93164,0 -3.5816,3.581597 -3.5816,9.348091 0,12.929688 l 18.3711,18.371094 a 27.42857,27.42857 0 0 0 -1.06055,2.65625 h -29.06641 c -5.06514,0 -9.14258,4.077435 -9.14258,9.142578 0,5.065142 4.07744,9.142578 9.14258,9.142578 h 29.06641 a 27.42857,27.42857 0 0 0 1.06055,2.65625 l -18.3711,18.371094 c -3.5816,3.581598 -3.5816,9.348088 0,12.929688 3.5816,3.5816 9.35005,3.5816 12.93164,0 l 18.3711,-18.371094 a 27.42857,27.42857 0 0 0 2.65429,1.060546 v 29.068358 c 0,5.06515 4.07939,9.14258 9.14453,9.14258 5.06515,0 9.14258,-4.07743 9.14258,-9.14258 V 94.584062 a 27.42857,27.42857 0 0 0 2.65625,-1.060546 l 18.3711,18.371094 c 3.58159,3.5816 9.34809,3.5816 12.92968,0 3.5816,-3.5816 3.5816,-9.34809 0,-12.929688 L 229.44823,80.593828 a 27.42857,27.42857 0 0 0 1.06055,-2.65625 h 29.0664 c 5.06515,0 9.14453,-4.077436 9.14453,-9.142578 0,-5.065143 -4.07938,-9.142578 -9.14453,-9.142578 h -28.99804 a 27.42857,27.42857 0 0 0 -1.10743,-2.677735 l 18.34961,-18.349609 c 3.5816,-3.581597 3.5816,-9.348091 0,-12.929688 -3.58159,-3.581596 -9.34809,-3.581596 -12.92968,0 l -18.35157,18.351563 a 27.42857,27.42857 0 0 0 -2.67578,-1.109375 v -29 c 0,-5.0651425 -4.07743,-9.142578 -9.14258,-9.142578 z" />
      <g
         transform="matrix(23.03712,0,0,23.03712,214.95728,-60.157921)"
         id="g4993">
        <rect
           ry="0.39687499"
           rx="0.39687499"
           y="0.26458335"
           x="2.6458335"
           height="0.79374999"
           width="5.5562501"
           id="rect4900-2"
           style="fill:#ff3300;fill-opacity:1;stroke:none;stroke-width:0.229136;stroke-linecap:round;stroke-linejoin:round;stroke-miterlimit:4;stroke-dasharray:none;stroke-opacity:1"
           transform="rotate(90)" />
        <rect
           ry="0.39687499"
           rx="0.39687499"
           y="3.9061642"
           x="0.72176301"
           height="0.79374999"
           width="5.2916665"
           id="rect4900-0"
           style="fill:#ff3300;fill-opacity:1;stroke:none;stroke-width:0.229136;stroke-linecap:round;stroke-linejoin:round;stroke-miterlimit:4;stroke-dasharray:none;stroke-opacity:1"
           transform="rotate(45)" />
        <rect
           style="fill:#ff3300;fill-opacity:1;stroke:none;stroke-width:0.229136;stroke-linecap:round;stroke-linejoin:round;stroke-miterlimit:4;stroke-dasharray:none;stroke-opacity:1"
           id="rect4900"
           width="5.5562501"
           height="0.79374999"
           x="-3.4395831"
           y="5.0270834"
           rx="0.39687499"
           ry="0.39687499" />
        <rect
           transform="matrix(-0.70710678,0.70710678,0.70710678,0.70710678,0,0)"
           style="fill:#ff3300;fill-opacity:1;stroke:none;stroke-width:0.229136;stroke-linecap:round;stroke-linejoin:round;stroke-miterlimit:4;stroke-dasharray:none;stroke-opacity:1"
           id="rect4900-0-1"
           width="5.2916665"
           height="0.79374999"
           x="1.6572058"
           y="2.9707212"
           rx="0.39687499"
           ry="0.39687499" />
        <g
           id="g4898"
           transform="translate(-1.1906254)">
          <circle
             r="1.190625"
             cy="5.4239583"
             cx="0.52916735"
             id="path4879"
             style="fill:#ffcc00;fill-opacity:1;stroke:none;stroke-width:0.264583;stroke-linecap:round;stroke-linejoin:round;stroke-miterlimit:4;stroke-dasharray:none;stroke-opacity:1" />
          <circle
             style="fill:#ffff99;fill-opacity:1;stroke:none;stroke-width:0.264583;stroke-linecap:round;stroke-linejoin:round;stroke-miterlimit:4;stroke-dasharray:none;stroke-opacity:1"
             id="path4879-9"
             cx="0.52916735"
             cy="5.4239583"
             r="0.39687493" />
        </g>
      </g>
    </g>
  </g>
</svg>
