<?xml version="1.0" encoding="UTF-8" standalone="no"?>
<svg
   sodipodi:docname="align-horizontal-baseline.svg"
   inkscape:version="1.1.2 (0a00cf5339, 2022-02-04)"
   id="svg8"
   version="1.1"
   viewBox="0 0 256 256"
   height="256"
   width="256"
   inkscape:export-filename="align-horizontal-baseline.png"
   inkscape:export-xdpi="96"
   inkscape:export-ydpi="96"
   xmlns:inkscape="http://www.inkscape.org/namespaces/inkscape"
   xmlns:sodipodi="http://sodipodi.sourceforge.net/DTD/sodipodi-0.dtd"
   xmlns="http://www.w3.org/2000/svg"
   xmlns:svg="http://www.w3.org/2000/svg"
   xmlns:rdf="http://www.w3.org/1999/02/22-rdf-syntax-ns#"
   xmlns:cc="http://creativecommons.org/ns#"
   xmlns:dc="http://purl.org/dc/elements/1.1/">
  <defs
     id="defs2" />
  <sodipodi:namedview
     inkscape:snap-global="true"
     inkscape:bbox-paths="true"
     fit-margin-bottom="0"
     fit-margin-right="0"
     fit-margin-left="0"
     fit-margin-top="0"
     inkscape:bbox-nodes="true"
     inkscape:snap-bbox="true"
     inkscape:window-maximized="1"
     inkscape:window-y="0"
     inkscape:window-x="0"
     inkscape:window-height="2043"
     inkscape:window-width="3840"
     units="px"
     showgrid="false"
     inkscape:document-rotation="0"
     inkscape:current-layer="layer1"
     inkscape:document-units="px"
     inkscape:cy="127.25"
     inkscape:cx="52"
     inkscape:zoom="4"
     inkscape:pageshadow="2"
     inkscape:pageopacity="0.0"
     borderopacity="1.0"
     bordercolor="#666666"
     pagecolor="#ffffff"
     id="base"
     showguides="false"
     inkscape:guide-bbox="true"
     inkscape:object-paths="false"
     inkscape:snap-midpoints="false"
     inkscape:snap-smooth-nodes="false"
     inkscape:snap-bbox-edge-midpoints="true"
     inkscape:pagecheckerboard="0">
    <inkscape:grid
       originy="0"
       originx="0"
       id="grid1504"
       type="xygrid" />
    <inkscape:grid
       spacingy="0.5"
       spacingx="0.5"
       id="grid1765"
       type="xygrid" />
  </sodipodi:namedview>
  <metadata
     id="metadata5">
    <rdf:RDF>
      <cc:Work
         rdf:about="">
        <dc:format>image/svg+xml</dc:format>
        <dc:type
           rdf:resource="http://purl.org/dc/dcmitype/StillImage" />
      </cc:Work>
    </rdf:RDF>
  </metadata>
  <g
     transform="translate(-12.567709)"
     id="layer1"
     inkscape:groupmode="layer"
     inkscape:label="Layer 1">
    <path
       d="m 164.93016,85.911572 q -15.73127,13.89135 -28.24269,13.89135 -7.35966,0 -12.23543,-4.78378 -4.87578,-4.87577 -4.87578,-12.14344 0,-9.84353 8.46361,-17.66318 8.46361,-7.91163 36.89029,-20.97502 v -8.6476 q 0,-9.751547 -1.10395,-12.235426 -1.01198,-2.57588 -3.95582,-4.415794 -2.94386,-1.931917 -6.62369,-1.931917 -5.97972,0 -9.84354,2.667882 -2.39189,1.655923 -2.39189,3.863821 0,1.931904 2.57588,4.783778 3.49584,3.95581 3.49584,7.635639 0,4.507797 -3.40385,7.727637 -3.31184,3.12786 -8.73958,3.12786 -5.79574,0 -9.75155,-3.49584 -3.86382,-3.495836 -3.86382,-8.187613 0,-6.623692 5.24375,-12.60342 5.24376,-6.071718 14.62733,-9.291562 9.38356,-3.219857 19.50309,-3.219857 12.23543,0 19.3191,5.243763 7.17567,5.15176 9.29156,11.223478 1.28794,3.863821 1.28794,17.755171 v 33.39445 q 0,5.88773 0.45995,7.45165 0.45995,1.47193 1.37993,2.2079 0.92002,0.73596 2.11591,0.73596 2.39189,0 4.87577,-3.40383 l 2.75987,2.2079 q -4.59979,6.80768 -9.56755,9.93553 -4.87577,3.03586 -11.13148,3.03586 -7.35966,0 -11.49947,-3.40384 -4.13977,-3.49584 -5.05973,-10.48751 z m 0,-6.7157 v -28.79465 q -11.13149,6.53169 -16.55923,13.98335 -3.58784,4.96777 -3.58784,10.02753 0,4.2318 3.03587,7.45166 2.29988,2.48388 6.4397,2.48388 4.59978,0 10.6715,-5.15177 z"
       id="path1067"
       style="font-weight:bold;font-size:16px;line-height:1.25;font-family:'Times New Roman';-inkscape-font-specification:'Times New Roman, Bold';text-align:center;letter-spacing:0px;word-spacing:0px;text-anchor:middle;stroke-width:1;fill-opacity:1;fill:#000000" />
    <path
       d="m 156.92653,201.108 -27.78271,-63.75304 q -6.25571,-14.44333 -9.29156,-17.75517 -2.94387,-3.31185 -7.17567,-4.59979 v -3.40385 h 45.72187 V 115 q -4.50778,0.18405 -6.3477,1.74791 -1.83991,1.56394 -1.83991,3.77183 0,3.49584 4.59978,13.79936 l 14.71932,33.67044 10.02753,-26.0348 q 5.42775,-13.89135 5.42775,-19.3191 0,-3.40384 -2.2999,-5.42774 -2.2079,-2.02391 -7.91163,-2.2079 v -3.40385 h 28.79467 V 115 q -4.23181,0.45995 -6.89969,3.31185 -2.66787,2.75987 -8.92358,19.04311 L 163.18224,201.108 q -9.29156,23.91889 -13.79936,29.43863 -6.3477,7.72764 -15.91526,7.72764 -7.63565,0 -12.41942,-4.41579 -4.69178,-4.32383 -4.69178,-10.48757 0,-5.3357 3.21984,-8.83159 3.31185,-3.49578 8.09563,-3.49578 4.59978,0 7.35966,2.94386 2.85187,2.94387 2.94386,9.10761 0.0919,3.49578 0.82793,4.50776 0.73597,1.01151 2.1159,1.01151 2.20789,0 4.69178,-2.66796 3.67983,-3.86376 8.6476,-17.66318 z"
       id="path1069"
       style="font-weight:bold;font-size:16px;line-height:1.25;font-family:'Times New Roman';-inkscape-font-specification:'Times New Roman, Bold';text-align:center;letter-spacing:0px;word-spacing:0px;text-anchor:middle;stroke-width:1" />
    <path
       sodipodi:nodetypes="cc"
       id="path1080"
       d="m 114.72994,10 0,235"
       style="fill:none;stroke:#000000;stroke-width:10;stroke-linecap:round;stroke-linejoin:miter;stroke-miterlimit:4;stroke-dasharray:none;stroke-opacity:1" />
  </g>
</svg>
