<?xml version="1.0" encoding="UTF-8" standalone="no"?>
<svg
   inkscape:export-ydpi="96"
   inkscape:export-xdpi="96"
   inkscape:export-filename="/media/klapeto/Αρχεία/WindowsXP Theme/Vectors/RASTER/bookmark-remove.png"
   sodipodi:docname="Favourites-remove.svg"
   inkscape:version="1.1.1 (3bf5ae0d25, 2021-09-20)"
   id="svg8"
   version="1.1"
   viewBox="0 0 256 256"
   height="256"
   width="256"
   xmlns:inkscape="http://www.inkscape.org/namespaces/inkscape"
   xmlns:sodipodi="http://sodipodi.sourceforge.net/DTD/sodipodi-0.dtd"
   xmlns:xlink="http://www.w3.org/1999/xlink"
   xmlns="http://www.w3.org/2000/svg"
   xmlns:svg="http://www.w3.org/2000/svg"
   xmlns:rdf="http://www.w3.org/1999/02/22-rdf-syntax-ns#"
   xmlns:cc="http://creativecommons.org/ns#"
   xmlns:dc="http://purl.org/dc/elements/1.1/">
  <defs
     id="defs2">
    <linearGradient
       inkscape:collect="always"
       id="linearGradient1019">
      <stop
         style="stop-color:#fffe97;stop-opacity:1"
         offset="0"
         id="stop1015" />
      <stop
         id="stop1031"
         offset="0.2"
         style="stop-color:#ffcc02;stop-opacity:1" />
      <stop
         id="stop1023"
         offset="0.40000001"
         style="stop-color:#fffe96;stop-opacity:1" />
      <stop
         style="stop-color:#ffcc02;stop-opacity:1"
         offset="0.60000002"
         id="stop1033" />
      <stop
         style="stop-color:#fffe97;stop-opacity:1"
         offset="0.80000001"
         id="stop1029" />
      <stop
         style="stop-color:#ffcc02;stop-opacity:1"
         offset="1"
         id="stop1017" />
    </linearGradient>
    <linearGradient
       inkscape:collect="always"
       xlink:href="#linearGradient1019"
       id="linearGradient1021"
       x1="57.567711"
       y1="35"
       x2="18.747946"
       y2="10.641655"
       gradientUnits="userSpaceOnUse"
       gradientTransform="matrix(5.1684363,0,0,5.1684363,-48.345464,5.7142624)" />
    <filter
       inkscape:collect="always"
       style="color-interpolation-filters:sRGB"
       id="filter1123"
       x="-0.047194012"
       width="1.094388"
       y="-0.048834"
       height="1.0976681">
      <feGaussianBlur
         inkscape:collect="always"
         stdDeviation="0.88878787"
         id="feGaussianBlur1125" />
    </filter>
    <filter
       inkscape:collect="always"
       style="color-interpolation-filters:sRGB"
       id="filter1007"
       x="-0.047069181"
       width="1.0941384"
       y="-0.048968378"
       height="1.0979368">
      <feGaussianBlur
         inkscape:collect="always"
         stdDeviation="0.90576696"
         id="feGaussianBlur1009" />
    </filter>
    <filter
       height="1.0955438"
       y="-0.047771906"
       width="1.0964606"
       x="-0.048230283"
       id="filter1308"
       style="color-interpolation-filters:sRGB"
       inkscape:collect="always">
      <feGaussianBlur
         id="feGaussianBlur1310"
         stdDeviation="2.5612192"
         inkscape:collect="always" />
    </filter>
  </defs>
  <sodipodi:namedview
     inkscape:snap-global="true"
     inkscape:bbox-paths="false"
     fit-margin-bottom="0"
     fit-margin-right="0"
     fit-margin-left="0"
     fit-margin-top="0"
     inkscape:bbox-nodes="true"
     inkscape:snap-bbox="true"
     inkscape:window-maximized="1"
     inkscape:window-y="0"
     inkscape:window-x="3840"
     inkscape:window-height="2045"
     inkscape:window-width="3840"
     units="px"
     showgrid="false"
     inkscape:document-rotation="0"
     inkscape:current-layer="layer1"
     inkscape:document-units="px"
     inkscape:cy="33.234018"
     inkscape:cx="-118.08683"
     inkscape:zoom="1.4142136"
     inkscape:pageshadow="2"
     inkscape:pageopacity="0.0"
     borderopacity="1.0"
     bordercolor="#666666"
     pagecolor="#ffffff"
     id="base"
     inkscape:pagecheckerboard="0">
    <inkscape:grid
       originy="0"
       originx="0"
       id="grid1504"
       type="xygrid" />
    <inkscape:grid
       originy="0"
       originx="0"
       spacingy="0.5"
       spacingx="0.5"
       id="grid1507"
       type="xygrid" />
  </sodipodi:namedview>
  <metadata
     id="metadata5">
    <rdf:RDF>
      <cc:Work
         rdf:about="">
        <dc:format>image/svg+xml</dc:format>
        <dc:type
           rdf:resource="http://purl.org/dc/dcmitype/StillImage" />
      </cc:Work>
    </rdf:RDF>
  </metadata>
  <g
     transform="translate(-12.567709)"
     id="layer1"
     inkscape:groupmode="layer"
     inkscape:label="Layer 1">
    <g
       transform="matrix(0.88354526,0,0,0.88354526,-1.7034793,29.13039)"
       id="g1036">
      <g
         transform="matrix(5.1684363,0,0,5.1684363,-48.038821,-0.15025434)"
         style="mix-blend-mode:normal;fill:#050505;fill-opacity:1;stroke:none;filter:url(#filter1007)"
         id="g1162">
        <path
           d="M 36.854423,0.80304541 C 35.30808,0.81131633 33.761064,1.9204261 33.334892,3.8382016 L 30.481376,16.678045 18.153251,15.25617 c -2.177531,-0.251253 -3.810419,0.868051 -4.195312,2.421875 -0.384892,1.553825 0.405298,3.35905 2.21875,4.462891 l 10.919922,6.648437 -5.207032,10.886719 c -0.90156,1.88508 -0.644036,3.790725 0.605469,4.748047 1.249504,0.957322 3.209924,0.718147 5.056641,-0.851562 l 9.5,-8.076172 9.513672,8.560547 c 1.589589,1.430629 3.491984,1.422335 4.681641,0.480468 1.189656,-0.941866 1.694989,-2.68632 1.011718,-4.326171 l -4.757812,-11.416016 10.46875,-6.66211 c 1.837774,-1.169491 2.409482,-3.036617 1.898437,-4.517578 -0.511046,-1.48096 -2.047621,-2.557746 -3.880859,-2.361328 L 42.676689,16.679999 40.303642,3.8635922 C 39.9431,1.9166693 38.400766,0.79477448 36.854423,0.80304541 Z"
           style="color:#000000;font-style:normal;font-variant:normal;font-weight:normal;font-stretch:normal;font-size:medium;line-height:normal;font-family:sans-serif;font-variant-ligatures:normal;font-variant-position:normal;font-variant-caps:normal;font-variant-numeric:normal;font-variant-alternates:normal;font-variant-east-asian:normal;font-feature-settings:normal;font-variation-settings:normal;text-indent:0;text-align:start;text-decoration:none;text-decoration-line:none;text-decoration-style:solid;text-decoration-color:#000000;letter-spacing:normal;word-spacing:normal;text-transform:none;writing-mode:lr-tb;direction:ltr;text-orientation:mixed;dominant-baseline:auto;baseline-shift:baseline;text-anchor:start;white-space:normal;shape-padding:0;shape-margin:0;inline-size:0;clip-rule:nonzero;display:inline;overflow:visible;visibility:visible;opacity:1;isolation:auto;mix-blend-mode:normal;color-interpolation:sRGB;color-interpolation-filters:linearRGB;solid-color:#000000;solid-opacity:1;vector-effect:none;fill:#212121;fill-opacity:1;fill-rule:nonzero;stroke:none;stroke-width:1.50007;stroke-linecap:butt;stroke-linejoin:round;stroke-miterlimit:4;stroke-dasharray:none;stroke-dashoffset:0;stroke-opacity:1;color-rendering:auto;image-rendering:auto;shape-rendering:auto;text-rendering:auto;enable-background:accumulate;stop-color:#000000;stop-opacity:1"
           id="path1164" />
      </g>
      <g
         transform="translate(0,-5.7142624)"
         id="g1005">
        <g
           id="g1108"
           transform="matrix(5.1684363,0,0,5.1684363,16.609939,5.7142624)"
           style="fill:#000000;fill-opacity:1;stroke:none;stroke-width:1.5;stroke-miterlimit:4;stroke-dasharray:none;filter:url(#filter1123)" />
        <path
           sodipodi:nodetypes="csscsscsscsscssc"
           id="path1035"
           d="m 107.05757,90.993461 19.10498,-72.515179 c 2.50272,-9.4993503 19.84942,-11.0107328 22.24252,0.157071 l 15.5053,72.358108 77.52655,-5.168436 c 11.89897,-0.793267 14.69566,14.322265 5.16843,20.673745 l -62.02123,41.34749 27.75371,66.65119 c 5.78226,13.88624 -10.8053,21.77955 -20.00106,13.45957 L 138.06819,178.85688 81.215393,225.37281 C 70.1295,234.44309 58.627735,222.67474 63.125866,212.45171 l 28.4264,-64.60545 -62.021236,-41.34749 c -9.745278,-6.49685 -6.121465,-21.480166 5.168436,-20.673745 z"
           style="fill:url(#linearGradient1021);fill-opacity:1;stroke:none;stroke-width:5.16844;stroke-linecap:butt;stroke-linejoin:round;stroke-miterlimit:4;stroke-dasharray:none;stroke-opacity:1" />
        <path
           style="fill:none;stroke:#ffffff;stroke-width:5.16844;stroke-linecap:butt;stroke-linejoin:round;stroke-miterlimit:4;stroke-dasharray:none;stroke-opacity:1"
           d="M 131.16018,12.850427 111.64693,98.060755 28.197243,88.373245"
           id="path1037"
           sodipodi:nodetypes="ccc" />
        <path
           style="fill:none;stroke:#ffffff;stroke-width:5.16844;stroke-linecap:round;stroke-linejoin:miter;stroke-miterlimit:4;stroke-dasharray:none;stroke-opacity:1"
           d="m 168.79902,96.768228 c 0,0 77.16618,-8.308737 77.22137,-7.992465"
           id="path1039"
           sodipodi:nodetypes="cc" />
        <path
           style="fill:none;stroke:#ffffff;stroke-width:5.16844;stroke-linecap:round;stroke-linejoin:miter;stroke-miterlimit:4;stroke-dasharray:none;stroke-opacity:1"
           d="m 144.44294,176.15301 58.45533,52.36592"
           id="path1041"
           sodipodi:nodetypes="cc" />
        <path
           style="fill:none;stroke:#ffffff;stroke-width:5.16844;stroke-linecap:round;stroke-linejoin:miter;stroke-miterlimit:4;stroke-dasharray:none;stroke-opacity:1"
           d="M 67.763576,211.99889 95.860457,153.59462"
           id="path1043"
           sodipodi:nodetypes="cc" />
        <path
           style="fill:none;fill-opacity:1;stroke:#996600;stroke-width:7.75265;stroke-linecap:butt;stroke-linejoin:round;stroke-miterlimit:4;stroke-dasharray:none;stroke-opacity:1"
           d="m 107.05757,90.993461 15.50531,-69.77389 c 3.38521,-15.2334421 25.51691,-15.7112297 28.4264,0 l 12.92109,69.77389 72.35811,-7.752654 c 15.62717,-1.674341 24.41249,17.824683 7.75266,28.426403 l -56.8528,36.17905 25.84218,62.02124 c 5.80231,13.92556 -8.87257,28.45216 -23.25796,15.50531 L 138.06819,178.85688 86.383829,222.78859 C 68.934718,237.62033 54.875285,224.5345 63.125866,207.28328 l 28.4264,-59.43702 -59.437018,-36.17905 C 15.658032,101.64977 20.07258,80.95673 39.867903,83.240807 Z"
           id="path997"
           sodipodi:nodetypes="csscssccscsscssc" />
      </g>
    </g>
    <path
       id="path1306"
       style="color:#000000;font-style:normal;font-variant:normal;font-weight:normal;font-stretch:normal;font-size:medium;line-height:normal;font-family:sans-serif;font-variant-ligatures:normal;font-variant-position:normal;font-variant-caps:normal;font-variant-numeric:normal;font-variant-alternates:normal;font-variant-east-asian:normal;font-feature-settings:normal;font-variation-settings:normal;text-indent:0;text-align:start;text-decoration:none;text-decoration-line:none;text-decoration-style:solid;text-decoration-color:#000000;letter-spacing:normal;word-spacing:normal;text-transform:none;writing-mode:lr-tb;direction:ltr;text-orientation:mixed;dominant-baseline:auto;baseline-shift:baseline;text-anchor:start;white-space:normal;shape-padding:0;shape-margin:0;inline-size:0;clip-rule:nonzero;display:inline;overflow:visible;visibility:visible;isolation:auto;mix-blend-mode:normal;color-interpolation:sRGB;color-interpolation-filters:linearRGB;solid-color:#000000;solid-opacity:1;vector-effect:none;fill:#212121;fill-opacity:1;fill-rule:nonzero;stroke:none;stroke-width:10;stroke-linecap:butt;stroke-linejoin:miter;stroke-miterlimit:4;stroke-dasharray:none;stroke-dashoffset:0;stroke-opacity:1;filter:url(#filter1308);color-rendering:auto;image-rendering:auto;shape-rendering:auto;text-rendering:auto;enable-background:accumulate;stop-color:#000000"
       d="m 149.85884,4.0036982 c -3.30732,-0.07199 -6.60119,0.9083976 -9.26367,2.8222657 -3.04284,2.1872316 -5.35609,5.9414701 -5.42969,10.2519531 -0.0692,4.310482 1.89968,8.727677 5.67774,12.978515 3.61424,4.066379 19.83245,21.088943 39.33593,40.230469 -14.08851,12.358951 -27.26729,25.558095 -38.32226,40.457029 -3.2408,4.36782 -4.48649,9.30709 -2.77149,13.38282 1.715,4.07568 5.31602,6.07794 8.65235,7.21093 3.33632,1.13287 6.76514,1.47539 9.8457,1.28516 1.54023,-0.0923 2.97294,-0.31139 4.43945,-0.83399 1.46651,-0.52144 3.43565,-1.25427 4.5293,-3.98828 5.41464,-13.5366 16.88257,-28.121337 30,-41.728512 17.15275,16.224952 34.86439,31.919222 47.84766,40.871092 2.39865,1.65397 5.01668,2.58248 7.63867,2.86328 2.62188,0.28033 5.45659,0.0919 8.02148,-2.05078 2.56477,-2.14161 3.1863,-6.57043 1.91407,-9.62109 -1.27211,-3.05068 -3.59943,-5.70713 -7.27735,-8.81055 -15.09868,-12.740484 -29.06396,-26.084928 -41.67969,-39.156249 13.75089,-12.490643 27.37908,-23.200088 36.47461,-30.039063 2.60861,-1.961407 4.50223,-4.519913 4.91211,-7.548828 0.40955,-3.028916 -0.98428,-6.033352 -3.01953,-7.796875 -4.07016,-3.527069 -10.41635,-3.437436 -15.25391,0.451172 C 223.85629,35.10112 211.12578,44.785011 198.6772,54.810339 183.53442,38.065778 170.89423,22.392744 161.34712,9.8220576 158.71948,6.3623268 155.04461,4.5279785 151.27486,4.0994013 c -0.47122,-0.053572 -0.94355,-0.085419 -1.41602,-0.095703 z" />
    <path
       d="m 144.85836,0.00369824 c -3.30732,-0.07199 -6.60119,0.9083976 -9.26367,2.82226566 -3.04284,2.1872316 -5.35609,5.9414702 -5.42969,10.2519531 -0.0692,4.310482 1.89968,8.727677 5.67774,12.978515 3.61424,4.066379 19.83245,21.088943 39.33593,40.230469 -14.08851,12.358951 -27.26729,25.558095 -38.32226,40.457029 -3.2408,4.36782 -4.48649,9.30709 -2.77149,13.38282 1.715,4.07568 5.31602,6.07794 8.65235,7.21093 3.33632,1.13287 6.76514,1.47539 9.8457,1.28516 1.54023,-0.0923 2.97294,-0.31139 4.43945,-0.83399 1.46651,-0.52144 3.43565,-1.25427 4.5293,-3.98828 5.41464,-13.5366 16.88257,-28.121337 30,-41.728512 17.15275,16.224952 34.86439,31.919222 47.84766,40.871092 2.39865,1.65397 5.01668,2.58248 7.63867,2.86328 2.62188,0.28033 5.45659,0.0919 8.02148,-2.05078 2.56477,-2.14161 3.1863,-6.57043 1.91407,-9.62109 -1.27211,-3.05068 -3.59943,-5.70713 -7.27735,-8.81055 -15.09868,-12.740484 -29.06396,-26.084928 -41.67969,-39.156249 13.75089,-12.490643 27.37908,-23.200088 36.47461,-30.039063 2.60861,-1.961407 4.50223,-4.519913 4.91211,-7.548828 0.40955,-3.028916 -0.98428,-6.033352 -3.01953,-7.796875 -4.07016,-3.527069 -10.41635,-3.437436 -15.25391,0.451172 C 218.85581,31.10112 206.1253,40.785011 193.67672,50.810339 178.53394,34.065778 165.89375,18.392744 156.34664,5.8220576 153.719,2.3623268 150.04413,0.52797854 146.27438,0.09940134 c -0.47122,-0.053572 -0.94355,-0.085419 -1.41602,-0.0957031 z"
       style="color:#000000;font-style:normal;font-variant:normal;font-weight:normal;font-stretch:normal;font-size:medium;line-height:normal;font-family:sans-serif;font-variant-ligatures:normal;font-variant-position:normal;font-variant-caps:normal;font-variant-numeric:normal;font-variant-alternates:normal;font-variant-east-asian:normal;font-feature-settings:normal;font-variation-settings:normal;text-indent:0;text-align:start;text-decoration:none;text-decoration-line:none;text-decoration-style:solid;text-decoration-color:#000000;letter-spacing:normal;word-spacing:normal;text-transform:none;writing-mode:lr-tb;direction:ltr;text-orientation:mixed;dominant-baseline:auto;baseline-shift:baseline;text-anchor:start;white-space:normal;shape-padding:0;shape-margin:0;inline-size:0;clip-rule:nonzero;display:inline;overflow:visible;visibility:visible;isolation:auto;mix-blend-mode:normal;color-interpolation:sRGB;color-interpolation-filters:linearRGB;solid-color:#000000;solid-opacity:1;vector-effect:none;fill:#df0029;fill-opacity:1;fill-rule:nonzero;stroke:none;stroke-width:10;stroke-linecap:butt;stroke-linejoin:miter;stroke-miterlimit:4;stroke-dasharray:none;stroke-dashoffset:0;stroke-opacity:1;color-rendering:auto;image-rendering:auto;shape-rendering:auto;text-rendering:auto;enable-background:accumulate;stop-color:#000000"
       id="path1285" />
  </g>
</svg>
