<?xml version="1.0" encoding="UTF-8" standalone="no"?>
<svg
   inkscape:export-ydpi="96"
   inkscape:export-xdpi="96"
   inkscape:export-filename="/media/klapeto/Αρχεία/WindowsXP Theme/Vectors/RASTER/rated-half.png"
   sodipodi:docname="rated-half.svg"
   inkscape:version="1.1.1 (3bf5ae0d25, 2021-09-20)"
   id="svg8"
   version="1.1"
   viewBox="0 0 256 256"
   height="256"
   width="256"
   xmlns:inkscape="http://www.inkscape.org/namespaces/inkscape"
   xmlns:sodipodi="http://sodipodi.sourceforge.net/DTD/sodipodi-0.dtd"
   xmlns:xlink="http://www.w3.org/1999/xlink"
   xmlns="http://www.w3.org/2000/svg"
   xmlns:svg="http://www.w3.org/2000/svg"
   xmlns:rdf="http://www.w3.org/1999/02/22-rdf-syntax-ns#"
   xmlns:cc="http://creativecommons.org/ns#"
   xmlns:dc="http://purl.org/dc/elements/1.1/">
  <defs
     id="defs2">
    <linearGradient
       inkscape:collect="always"
       id="linearGradient1019">
      <stop
         style="stop-color:#fffe97;stop-opacity:1"
         offset="0"
         id="stop1015" />
      <stop
         id="stop1031"
         offset="0.2"
         style="stop-color:#ffcc02;stop-opacity:1" />
      <stop
         id="stop1023"
         offset="0.40000001"
         style="stop-color:#fffe96;stop-opacity:1" />
      <stop
         style="stop-color:#ffcc02;stop-opacity:1"
         offset="0.60000002"
         id="stop1033" />
      <stop
         style="stop-color:#fffe97;stop-opacity:1"
         offset="0.80000001"
         id="stop1029" />
      <stop
         style="stop-color:#ffcc02;stop-opacity:1"
         offset="1"
         id="stop1017" />
    </linearGradient>
    <linearGradient
       inkscape:collect="always"
       xlink:href="#linearGradient1019"
       id="linearGradient1021"
       x1="57.567711"
       y1="35"
       x2="18.747946"
       y2="10.641655"
       gradientUnits="userSpaceOnUse"
       gradientTransform="matrix(5.1684363,0,0,5.1684363,-48.345464,0)" />
    <filter
       inkscape:collect="always"
       style="color-interpolation-filters:sRGB"
       id="filter1123"
       x="-0.047194012"
       width="1.094388"
       y="-0.048834"
       height="1.0976681">
      <feGaussianBlur
         inkscape:collect="always"
         stdDeviation="0.88878787"
         id="feGaussianBlur1125" />
    </filter>
    <filter
       height="1.0981639"
       y="-0.049081941"
       width="1.0939295"
       x="-0.046964731"
       id="filter1068"
       style="color-interpolation-filters:sRGB"
       inkscape:collect="always">
      <feGaussianBlur
         id="feGaussianBlur1070"
         stdDeviation="4.6709594"
         inkscape:collect="always" />
    </filter>
  </defs>
  <sodipodi:namedview
     inkscape:snap-global="true"
     inkscape:bbox-paths="false"
     fit-margin-bottom="0"
     fit-margin-right="0"
     fit-margin-left="0"
     fit-margin-top="0"
     inkscape:bbox-nodes="true"
     inkscape:snap-bbox="true"
     inkscape:window-maximized="1"
     inkscape:window-y="0"
     inkscape:window-x="3840"
     inkscape:window-height="2045"
     inkscape:window-width="3840"
     units="px"
     showgrid="false"
     inkscape:document-rotation="0"
     inkscape:current-layer="layer1"
     inkscape:document-units="px"
     inkscape:cy="446.18437"
     inkscape:cx="-215.66756"
     inkscape:zoom="1.4142136"
     inkscape:pageshadow="2"
     inkscape:pageopacity="0.0"
     borderopacity="1.0"
     bordercolor="#666666"
     pagecolor="#ffffff"
     id="base"
     inkscape:pagecheckerboard="0">
    <inkscape:grid
       originy="0"
       originx="0"
       id="grid1504"
       type="xygrid" />
    <inkscape:grid
       originy="0"
       originx="0"
       spacingy="0.5"
       spacingx="0.5"
       id="grid1507"
       type="xygrid" />
  </sodipodi:namedview>
  <metadata
     id="metadata5">
    <rdf:RDF>
      <cc:Work
         rdf:about="">
        <dc:format>image/svg+xml</dc:format>
        <dc:type
           rdf:resource="http://purl.org/dc/dcmitype/StillImage" />
      </cc:Work>
    </rdf:RDF>
  </metadata>
  <g
     transform="translate(-12.567709)"
     id="layer1"
     inkscape:groupmode="layer"
     inkscape:label="Layer 1">
    <path
       d="m 141.9173,4.0257849 c -7.90102,0.074667 -16.05987,5.2840452 -18.13867,14.6386711 L 109.03058,85.027738 45.311826,77.676175 c -11.25443,-1.298589 -19.688444,4.488688 -21.677735,12.519531 -1.989292,8.030845 2.09213,17.363224 11.464844,23.068354 l 56.443359,34.35742 -26.914062,56.27539 c -4.659652,9.74292 -3.327124,19.58535 3.130859,24.53321 6.457982,4.94785 16.590128,3.71059 26.134766,-4.40235 l 49.101563,-41.73437 49.16407,44.24609 c 8.21568,7.39412 18.0486,7.3504 24.19726,2.48242 6.14867,-4.86797 8.76191,-13.8839 5.23047,-22.35937 l -24.58789,-59.00977 54.10156,-34.42968 c 9.49842,-6.04446 12.45576,-15.697314 9.81446,-23.351562 C 258.27404,82.21724 250.32977,76.657093 240.8548,77.672269 L 172.06769,85.043363 159.80011,18.799222 C 158.02365,9.2063246 149.81832,3.9511181 141.9173,4.0257849 Z m 0.78125,7.7675781 c 4.45377,0.190002 8.40237,2.606736 9.47852,8.417969 l 12.92187,69.773437 a 3.8767125,3.8767125 0 0 0 4.22461,3.148437 l 72.35742,-7.751953 c 6.1522,-0.659164 10.41306,2.692422 11.90625,7.019532 1.49319,4.327109 0.51298,9.725935 -6.64844,14.283195 l -56.85156,36.17774 a 3.8767125,3.8767125 0 0 0 -1.49805,4.76172 l 25.8418,62.02148 c 2.27087,5.45009 0.44783,10.65883 -2.88672,13.29883 -3.33454,2.64 -8.02951,3.38672 -14.19922,-2.16602 l -51.68359,-46.51562 a 3.8767125,3.8767125 0 0 0 -2.96289,-0.97656 z"
       style="fill:#212121;fill-opacity:1;stroke:none;stroke-width:5.16844;stroke-linecap:butt;stroke-linejoin:round;stroke-miterlimit:4;stroke-dasharray:none;stroke-opacity:1;filter:url(#filter1068)"
       id="path1038" />
    <g
       id="g1033">
      <g
         style="fill:#000000;fill-opacity:1;stroke:none;stroke-width:1.5;stroke-miterlimit:4;stroke-dasharray:none;filter:url(#filter1123)"
         transform="matrix(5.1684363,0,0,5.1684363,16.609939,0)"
         id="g1108" />
      <path
         d="m 137.32552,5.0917969 c -4.94865,0.1692889 -9.91075,2.9221998 -11.16211,7.6718751 L 107.05794,85.279297 34.698568,80.111328 C 23.408667,79.304907 19.785322,94.288306 29.5306,100.78516 l 62.021484,41.34765 -28.425781,64.60547 c -4.498131,10.22303 7.00395,21.9902 18.089844,12.91992 L 137.69857,173.44531 V 5.0917969 c -0.12455,9.77e-4 -0.24842,-0.00426 -0.37305,0 z"
         style="fill:url(#linearGradient1021);fill-opacity:1;stroke:none;stroke-width:5.16844;stroke-linecap:butt;stroke-linejoin:round;stroke-miterlimit:4;stroke-dasharray:none;stroke-opacity:1"
         id="path1035" />
      <path
         sodipodi:nodetypes="ccc"
         id="path1037"
         d="M 131.16018,7.1361646 111.64693,92.346493 28.197243,82.658983"
         style="fill:none;stroke:#ffffff;stroke-width:5.16844;stroke-linecap:butt;stroke-linejoin:round;stroke-miterlimit:4;stroke-dasharray:none;stroke-opacity:1" />
      <path
         sodipodi:nodetypes="cc"
         id="path1043"
         d="M 67.763576,206.28463 95.860457,147.88036"
         style="fill:none;stroke:#ffffff;stroke-width:5.16844;stroke-linecap:round;stroke-linejoin:miter;stroke-miterlimit:4;stroke-dasharray:none;stroke-opacity:1" />
      <path
         sodipodi:nodetypes="csscssccscsscssc"
         id="path997"
         d="m 107.05757,85.279199 15.50531,-69.77389 c 3.38521,-15.2334425 25.51691,-15.7112301 28.4264,0 l 12.92109,69.77389 72.35811,-7.752654 c 15.62717,-1.674341 24.41249,17.824683 7.75266,28.426405 l -56.8528,36.17905 25.84218,62.02124 c 5.80231,13.92556 -8.87257,28.45216 -23.25796,15.50531 L 138.06819,173.14262 86.383829,217.07433 C 68.934718,231.90607 54.875285,218.82024 63.125866,201.56902 L 91.552266,142.132 32.115248,105.95295 C 15.658032,95.935508 20.07258,75.242468 39.867903,77.526545 Z"
         style="fill:none;fill-opacity:1;stroke:#996600;stroke-width:7.75265;stroke-linecap:butt;stroke-linejoin:round;stroke-miterlimit:4;stroke-dasharray:none;stroke-opacity:1" />
    </g>
  </g>
</svg>
