<?xml version="1.0" encoding="UTF-8" standalone="no"?>
<svg
   sodipodi:docname="composite-track-off.16.svg"
   inkscape:version="1.3.2 (1:1.3.2+202311252150+091e20ef0f)"
   version="1.1"
   id="svg2"
   width="16"
   height="16"
   inkscape:export-filename="/media/klapeto/Αρχεία/WindowsXP Theme/Vectors/RASTER/kdenlive-composite.png"
   inkscape:export-xdpi="96"
   inkscape:export-ydpi="96"
   xmlns:inkscape="http://www.inkscape.org/namespaces/inkscape"
   xmlns:sodipodi="http://sodipodi.sourceforge.net/DTD/sodipodi-0.dtd"
   xmlns:xlink="http://www.w3.org/1999/xlink"
   xmlns="http://www.w3.org/2000/svg"
   xmlns:svg="http://www.w3.org/2000/svg"
   xmlns:rdf="http://www.w3.org/1999/02/22-rdf-syntax-ns#"
   xmlns:cc="http://creativecommons.org/ns#"
   xmlns:dc="http://purl.org/dc/elements/1.1/">
  <metadata
     id="metadata229">
    <rdf:RDF>
      <cc:Work
         rdf:about="">
        <dc:format>image/svg+xml</dc:format>
        <dc:type
           rdf:resource="http://purl.org/dc/dcmitype/StillImage" />
      </cc:Work>
    </rdf:RDF>
  </metadata>
  <sodipodi:namedview
     inkscape:bbox-nodes="true"
     inkscape:bbox-paths="true"
     inkscape:snap-nodes="true"
     inkscape:snap-bbox-midpoints="false"
     showguides="false"
     pagecolor="#ffffff"
     bordercolor="#666666"
     borderopacity="1"
     objecttolerance="10"
     gridtolerance="10"
     guidetolerance="10"
     inkscape:pageopacity="0"
     inkscape:pageshadow="2"
     inkscape:window-width="3840"
     inkscape:window-height="2057"
     id="namedview227"
     showgrid="true"
     fit-margin-top="0"
     fit-margin-left="0"
     fit-margin-right="0"
     fit-margin-bottom="0"
     inkscape:zoom="90.509668"
     inkscape:cx="11.462864"
     inkscape:cy="11.578874"
     inkscape:window-x="0"
     inkscape:window-y="0"
     inkscape:window-maximized="1"
     inkscape:current-layer="svg2"
     inkscape:document-rotation="0"
     inkscape:snap-bbox="true"
     inkscape:pagecheckerboard="0"
     inkscape:showpageshadow="2"
     inkscape:deskcolor="#d1d1d1">
    <inkscape:grid
       type="xygrid"
       id="grid958"
       originx="0"
       originy="0"
       spacingy="1"
       spacingx="1"
       units="px"
       visible="true" />
    <inkscape:grid
       type="xygrid"
       id="grid960"
       spacingx="0.5"
       spacingy="0.5"
       originx="0"
       originy="0"
       units="px"
       visible="true" />
  </sodipodi:namedview>
  <defs
     id="defs66">
    <linearGradient
       inkscape:collect="always"
       id="linearGradient7108">
      <stop
         style="stop-color:#ccccff;stop-opacity:1"
         offset="0"
         id="stop7104" />
      <stop
         style="stop-color:#f6f6ff;stop-opacity:1"
         offset="1"
         id="stop7106" />
    </linearGradient>
    <radialGradient
       cx="0"
       cy="0"
       gradientTransform="matrix(0.0208,0,0,0.0208,14.255824,22.4)"
       gradientUnits="userSpaceOnUse"
       id="gradient6-1"
       r="819.20001"
       spreadMethod="pad">
      <stop
         offset="0.0"
         stop-color="#99ccff"
         id="stop99" />
      <stop
         offset="1.0"
         stop-color="#0236b0"
         id="stop103-6"
         style="stop-color:#0045e5;stop-opacity:1" />
    </radialGradient>
    <linearGradient
       inkscape:collect="always"
       xlink:href="#linearGradient7108"
       id="linearGradient7110"
       x1="10.34436"
       y1="231.43539"
       x2="237.44356"
       y2="16.761375"
       gradientUnits="userSpaceOnUse"
       gradientTransform="matrix(0.05694733,0,0,0.05694733,-0.18228675,-0.2354444)" />
  </defs>
  <rect
     y="0.25"
     x="0.25"
     height="13"
     width="13.053158"
     id="rect1102-3"
     style="fill:url(#linearGradient7110);fill-opacity:1;fill-rule:evenodd;stroke:#003399;stroke-width:0.5;stroke-linecap:butt;stroke-linejoin:round;stroke-miterlimit:4;stroke-dasharray:none;stroke-dashoffset:0;stroke-opacity:1;stop-color:#b0a6ff" />
  <rect
     style="fill:#6666cc;fill-opacity:1;fill-rule:evenodd;stroke:none;stroke-width:0.33264;stroke-linejoin:round;stroke-miterlimit:4;stroke-dasharray:none;stroke-dashoffset:0;stroke-opacity:1;stop-color:#000000"
     id="rect4003"
     width="3"
     height="3"
     x="1.8031574"
     y="1.75" />
  <rect
     style="fill:#6666cc;fill-opacity:1;fill-rule:evenodd;stroke:none;stroke-width:0.33264;stroke-linejoin:round;stroke-miterlimit:4;stroke-dasharray:none;stroke-dashoffset:0;stroke-opacity:1;stop-color:#000000"
     id="rect4003-36"
     width="3"
     height="3"
     x="8.8031578"
     y="1.75" />
  <rect
     style="fill:#6666cc;fill-opacity:1;fill-rule:evenodd;stroke:none;stroke-width:0.33264;stroke-linejoin:round;stroke-miterlimit:4;stroke-dasharray:none;stroke-dashoffset:0;stroke-opacity:1;stop-color:#000000"
     id="rect4003-75"
     width="3"
     height="3"
     x="1.8031574"
     y="8.75" />
  <rect
     style="fill:#6666cc;fill-opacity:1;fill-rule:evenodd;stroke:none;stroke-width:0.33264;stroke-linejoin:round;stroke-miterlimit:4;stroke-dasharray:none;stroke-dashoffset:0;stroke-opacity:1;stop-color:#000000"
     id="rect4003-75-6"
     width="4"
     height="4"
     x="4.8031573"
     y="4.75" />
  <rect
     style="fill:#6666cc;fill-opacity:1;fill-rule:evenodd;stroke:none;stroke-width:0.33264;stroke-linejoin:round;stroke-miterlimit:4;stroke-dasharray:none;stroke-dashoffset:0;stroke-opacity:1;stop-color:#000000"
     id="rect4003-35"
     width="3"
     height="3"
     x="8.8031578"
     y="8.75" />
  <rect
     style="fill:none;fill-opacity:1;fill-rule:evenodd;stroke:none;stroke-width:0.33264;stroke-linecap:butt;stroke-linejoin:round;stroke-miterlimit:4;stroke-dasharray:none;stroke-dashoffset:0;stroke-opacity:1;stop-color:#000000"
     id="rect3162"
     width="13.089491"
     height="13.141897"
     x="0.25"
     y="0.25" />
  <g
     transform="matrix(0.20107562,0,0,0.20107562,24.139499,5.7585886)"
     id="g940">
    <circle
       style="opacity:1;fill:#ffffff;fill-opacity:1;fill-rule:evenodd;stroke:none;stroke-width:11.685;stroke-linecap:round;stroke-linejoin:round;stroke-miterlimit:4;stroke-dasharray:none"
       id="path919"
       cx="-67.310364"
       cy="22.756973"
       r="18.249216" />
    <path
       d="m -66.691769,2.7592809 a 21.5,21.5 0 0 0 -21.5,21.5000001 21.5,21.5 0 0 0 21.5,21.5 21.5,21.5 0 0 0 21.5,-21.5 21.5,21.5 0 0 0 -21.5,-21.5000001 z m 0,5.5 a 16,16 0 0 1 16,16.0000001 16,16 0 0 1 -2.099609,7.921875 L -74.8988,10.524906 a 16,16 0 0 1 8.207031,-2.2656251 z M -79.40466,14.54639 -56.978878,36.972172 a 16,16 0 0 1 -9.712891,3.287109 16,16 0 0 1 -16,-16 16,16 0 0 1 3.287109,-9.712891 z"
       style="opacity:1;fill:#990000;fill-opacity:1;fill-rule:evenodd;stroke:none;stroke-width:11.685;stroke-linecap:round;stroke-linejoin:round;stroke-miterlimit:4;stroke-dasharray:none"
       id="path917" />
    <path
       id="path889"
       style="opacity:1;fill:#ff3300;fill-opacity:1;fill-rule:evenodd;stroke:none;stroke-width:11.685;stroke-linecap:round;stroke-linejoin:round;stroke-miterlimit:4;stroke-dasharray:none"
       d="m -67.832682,1 a 21.5,21.5 0 0 0 -21.5,21.5 21.5,21.5 0 0 0 21.5,21.5 21.5,21.5 0 0 0 21.5,-21.5 21.5,21.5 0 0 0 -21.5,-21.5 z m 0,5.5 a 16,16 0 0 1 16,16 16,16 0 0 1 -2.099609,7.921875 L -76.039713,8.765625 A 16,16 0 0 1 -67.832682,6.5 Z m -12.712891,6.287109 22.425782,22.425782 A 16,16 0 0 1 -67.832682,38.5 a 16,16 0 0 1 -16,-16 16,16 0 0 1 3.287109,-9.712891 z" />
  </g>
</svg>
