<?xml version="1.0" encoding="UTF-8" standalone="no"?>
<svg
   sodipodi:docname="composite-track-off.svg"
   inkscape:version="1.3.2 (1:1.3.2+202311252150+091e20ef0f)"
   version="1.1"
   id="svg2"
   width="48"
   height="48"
   inkscape:export-filename="/media/klapeto/Αρχεία/WindowsXP Theme/Vectors/RASTER/kdenlive-composite.png"
   inkscape:export-xdpi="96"
   inkscape:export-ydpi="96"
   xmlns:inkscape="http://www.inkscape.org/namespaces/inkscape"
   xmlns:sodipodi="http://sodipodi.sourceforge.net/DTD/sodipodi-0.dtd"
   xmlns:xlink="http://www.w3.org/1999/xlink"
   xmlns="http://www.w3.org/2000/svg"
   xmlns:svg="http://www.w3.org/2000/svg"
   xmlns:rdf="http://www.w3.org/1999/02/22-rdf-syntax-ns#"
   xmlns:cc="http://creativecommons.org/ns#"
   xmlns:dc="http://purl.org/dc/elements/1.1/">
  <metadata
     id="metadata229">
    <rdf:RDF>
      <cc:Work
         rdf:about="">
        <dc:format>image/svg+xml</dc:format>
        <dc:type
           rdf:resource="http://purl.org/dc/dcmitype/StillImage" />
      </cc:Work>
    </rdf:RDF>
  </metadata>
  <sodipodi:namedview
     inkscape:bbox-nodes="true"
     inkscape:bbox-paths="true"
     inkscape:snap-nodes="true"
     inkscape:snap-bbox-midpoints="false"
     showguides="false"
     pagecolor="#ffffff"
     bordercolor="#666666"
     borderopacity="1"
     objecttolerance="10"
     gridtolerance="10"
     guidetolerance="10"
     inkscape:pageopacity="0"
     inkscape:pageshadow="2"
     inkscape:window-width="3840"
     inkscape:window-height="2057"
     id="namedview227"
     showgrid="true"
     fit-margin-top="0"
     fit-margin-left="0"
     fit-margin-right="0"
     fit-margin-bottom="0"
     inkscape:zoom="16"
     inkscape:cx="20.34375"
     inkscape:cy="26.125"
     inkscape:window-x="0"
     inkscape:window-y="0"
     inkscape:window-maximized="1"
     inkscape:current-layer="svg2"
     inkscape:document-rotation="0"
     inkscape:snap-bbox="true"
     inkscape:pagecheckerboard="0"
     inkscape:showpageshadow="2"
     inkscape:deskcolor="#d1d1d1">
    <inkscape:grid
       type="xygrid"
       id="grid958"
       originx="0"
       originy="0"
       spacingy="1"
       spacingx="1"
       units="px"
       visible="true" />
    <inkscape:grid
       type="xygrid"
       id="grid960"
       spacingx="0.5"
       spacingy="0.5"
       originx="0"
       originy="0"
       units="px"
       visible="true" />
  </sodipodi:namedview>
  <defs
     id="defs66">
    <linearGradient
       inkscape:collect="always"
       id="linearGradient7108">
      <stop
         style="stop-color:#ccccff;stop-opacity:1"
         offset="0"
         id="stop7104" />
      <stop
         style="stop-color:#f6f6ff;stop-opacity:1"
         offset="1"
         id="stop7106" />
    </linearGradient>
    <radialGradient
       cx="0"
       cy="0"
       gradientTransform="matrix(0.0208,0,0,0.0208,14.255824,22.4)"
       gradientUnits="userSpaceOnUse"
       id="gradient6-1"
       r="819.20001"
       spreadMethod="pad">
      <stop
         offset="0.0"
         stop-color="#99ccff"
         id="stop99" />
      <stop
         offset="1.0"
         stop-color="#0236b0"
         id="stop103-6"
         style="stop-color:#0045e5;stop-opacity:1" />
    </radialGradient>
    <linearGradient
       inkscape:collect="always"
       xlink:href="#linearGradient7108"
       id="linearGradient7110"
       x1="10.34436"
       y1="231.43539"
       x2="237.44356"
       y2="16.761375"
       gradientUnits="userSpaceOnUse" />
  </defs>
  <g
     id="g7820"
     transform="matrix(0.17119812,0,0,0.17119812,0.04375738,0.04375664)"
     style="stroke-width:5.84119;stroke-dasharray:none">
    <rect
       y="2.6650021"
       x="2.665"
       height="240"
       width="240"
       id="rect1102-3"
       style="fill:url(#linearGradient7110);fill-opacity:1;fill-rule:evenodd;stroke:#003399;stroke-width:5.84119;stroke-linecap:butt;stroke-linejoin:round;stroke-miterlimit:4;stroke-dasharray:none;stroke-dashoffset:0;stroke-opacity:1;stop-color:#b0a6ff" />
    <g
       id="g6901"
       transform="matrix(0.81839904,0,0,0.81839904,22.264163,22.600802)"
       style="fill:#6b6dff;fill-opacity:1;stroke-width:7.13733;stroke-dasharray:none">
      <rect
         style="fill:#6666cc;fill-opacity:1;fill-rule:evenodd;stroke:none;stroke-width:7.13733;stroke-linejoin:round;stroke-miterlimit:4;stroke-dasharray:none;stroke-dashoffset:0;stroke-opacity:1;stop-color:#000000"
         id="rect4003"
         width="80"
         height="80"
         x="2.5993717"
         y="4.4531026" />
      <rect
         style="fill:#6666cc;fill-opacity:1;fill-rule:evenodd;stroke:none;stroke-width:7.13733;stroke-linejoin:round;stroke-miterlimit:4;stroke-dasharray:none;stroke-dashoffset:0;stroke-opacity:1;stop-color:#000000"
         id="rect4003-6"
         width="80"
         height="80"
         x="82.599373"
         y="84.453102" />
      <rect
         style="fill:#6666cc;fill-opacity:1;fill-rule:evenodd;stroke:none;stroke-width:7.13733;stroke-linejoin:round;stroke-miterlimit:4;stroke-dasharray:none;stroke-dashoffset:0;stroke-opacity:1;stop-color:#000000"
         id="rect4003-7"
         width="80"
         height="80"
         x="162.59937"
         y="4.4531021" />
      <rect
         style="fill:#6666cc;fill-opacity:1;fill-rule:evenodd;stroke:none;stroke-width:7.13733;stroke-linejoin:round;stroke-miterlimit:4;stroke-dasharray:none;stroke-dashoffset:0;stroke-opacity:1;stop-color:#000000"
         id="rect4003-5"
         width="80"
         height="80"
         x="162.59937"
         y="164.45309" />
      <rect
         style="fill:#6666cc;fill-opacity:1;fill-rule:evenodd;stroke:none;stroke-width:7.13733;stroke-linejoin:round;stroke-miterlimit:4;stroke-dasharray:none;stroke-dashoffset:0;stroke-opacity:1;stop-color:#000000"
         id="rect4003-3"
         width="80"
         height="80"
         x="2.5993729"
         y="164.45309" />
    </g>
    <rect
       style="fill:none;fill-opacity:1;fill-rule:evenodd;stroke:none;stroke-width:5.84119;stroke-linecap:butt;stroke-linejoin:round;stroke-miterlimit:4;stroke-dasharray:none;stroke-dashoffset:0;stroke-opacity:1;stop-color:#000000"
       id="rect3162"
       width="234.84419"
       height="234.84419"
       x="2.5993717"
       y="4.4531026" />
  </g>
  <g
     transform="matrix(0.54371327,0,0,0.54371327,69.581315,20.143389)"
     id="g940">
    <circle
       style="opacity:1;fill:#ffffff;fill-opacity:1;fill-rule:evenodd;stroke:none;stroke-width:11.685;stroke-linecap:round;stroke-linejoin:round;stroke-miterlimit:4;stroke-dasharray:none"
       id="path919"
       cx="-67.310364"
       cy="22.756973"
       r="18.249216" />
    <path
       d="m -66.691769,2.7592809 a 21.5,21.5 0 0 0 -21.5,21.5000001 21.5,21.5 0 0 0 21.5,21.5 21.5,21.5 0 0 0 21.5,-21.5 21.5,21.5 0 0 0 -21.5,-21.5000001 z m 0,5.5 a 16,16 0 0 1 16,16.0000001 16,16 0 0 1 -2.099609,7.921875 L -74.8988,10.524906 a 16,16 0 0 1 8.207031,-2.2656251 z M -79.40466,14.54639 -56.978878,36.972172 a 16,16 0 0 1 -9.712891,3.287109 16,16 0 0 1 -16,-16 16,16 0 0 1 3.287109,-9.712891 z"
       style="opacity:1;fill:#990000;fill-opacity:1;fill-rule:evenodd;stroke:none;stroke-width:11.685;stroke-linecap:round;stroke-linejoin:round;stroke-miterlimit:4;stroke-dasharray:none"
       id="path917" />
    <path
       id="path889"
       style="opacity:1;fill:#ff3300;fill-opacity:1;fill-rule:evenodd;stroke:none;stroke-width:11.685;stroke-linecap:round;stroke-linejoin:round;stroke-miterlimit:4;stroke-dasharray:none"
       d="m -67.832682,1 a 21.5,21.5 0 0 0 -21.5,21.5 21.5,21.5 0 0 0 21.5,21.5 21.5,21.5 0 0 0 21.5,-21.5 21.5,21.5 0 0 0 -21.5,-21.5 z m 0,5.5 a 16,16 0 0 1 16,16 16,16 0 0 1 -2.099609,7.921875 L -76.039713,8.765625 A 16,16 0 0 1 -67.832682,6.5 Z m -12.712891,6.287109 22.425782,22.425782 A 16,16 0 0 1 -67.832682,38.5 a 16,16 0 0 1 -16,-16 16,16 0 0 1 3.287109,-9.712891 z" />
  </g>
</svg>
