<?xml version="1.0" encoding="UTF-8" standalone="no"?>
<svg
   inkscape:export-ydpi="96"
   inkscape:export-xdpi="96"
   inkscape:export-filename="/media/klapeto/Αρχεία/WindowsXP Theme/Vectors/RASTER/battery.png"
   sodipodi:docname="battery-missing.svg"
   inkscape:version="1.3.2 (1:1.3.2+202311252150+091e20ef0f)"
   id="svg8"
   version="1.1"
   viewBox="0 0 48 48"
   height="48"
   width="48"
   xml:space="preserve"
   xmlns:inkscape="http://www.inkscape.org/namespaces/inkscape"
   xmlns:sodipodi="http://sodipodi.sourceforge.net/DTD/sodipodi-0.dtd"
   xmlns:xlink="http://www.w3.org/1999/xlink"
   xmlns="http://www.w3.org/2000/svg"
   xmlns:svg="http://www.w3.org/2000/svg"
   xmlns:rdf="http://www.w3.org/1999/02/22-rdf-syntax-ns#"
   xmlns:cc="http://creativecommons.org/ns#"
   xmlns:dc="http://purl.org/dc/elements/1.1/"><defs
     id="defs2"><linearGradient
       inkscape:collect="always"
       id="linearGradient144595"><stop
         style="stop-color:#fbfbfb;stop-opacity:1"
         offset="0"
         id="stop144591" /><stop
         style="stop-color:#dcdcdc;stop-opacity:1"
         offset="1"
         id="stop144593" /></linearGradient><linearGradient
       inkscape:collect="always"
       xlink:href="#linearGradient1488"
       id="linearGradient1490"
       x1="-110.43229"
       y1="19.5"
       x2="-94.432289"
       y2="19.5"
       gradientUnits="userSpaceOnUse"
       gradientTransform="matrix(1.4124127,0,0,1.4124213,180.71455,-3.073927)" /><linearGradient
       inkscape:collect="always"
       id="linearGradient1488"><stop
         style="stop-color:#e2e2e2;stop-opacity:1"
         offset="0"
         id="stop1484" /><stop
         style="stop-color:#ffffff;stop-opacity:1"
         offset="0.15624994"
         id="stop1617" /><stop
         style="stop-color:#9999cc;stop-opacity:1"
         offset="0.81249994"
         id="stop1619" /><stop
         style="stop-color:#ccccff;stop-opacity:1"
         offset="1"
         id="stop1486" /></linearGradient><linearGradient
       inkscape:collect="always"
       xlink:href="#linearGradient17468-6"
       id="linearGradient17470-5"
       x1="-94.932289"
       y1="6"
       x2="-83.572739"
       y2="5.9997034"
       gradientUnits="userSpaceOnUse"
       gradientTransform="matrix(1.4124127,0,0,1.4124213,164.47115,-2.7126093)" /><linearGradient
       inkscape:collect="always"
       id="linearGradient17468-6"><stop
         style="stop-color:#ccccff;stop-opacity:1"
         offset="0"
         id="stop17464-2" /><stop
         style="stop-color:#6666cc;stop-opacity:1"
         offset="1"
         id="stop17466-9" /></linearGradient><linearGradient
       inkscape:collect="always"
       xlink:href="#linearGradient117107-2"
       id="linearGradient117109-1"
       x1="-100.43229"
       y1="3.5"
       x2="-89.432289"
       y2="3.5"
       gradientUnits="userSpaceOnUse"
       gradientTransform="matrix(1.4124127,0,0,1.4124213,170.12146,0.15775013)" /><linearGradient
       inkscape:collect="always"
       id="linearGradient117107-2"><stop
         style="stop-color:#ffdb9d;stop-opacity:1"
         offset="0"
         id="stop117103-7" /><stop
         style="stop-color:#ffffff;stop-opacity:1"
         offset="0.25"
         id="stop133283-0" /><stop
         style="stop-color:#ff9933;stop-opacity:1"
         offset="0.63636345"
         id="stop123827-9" /><stop
         style="stop-color:#ccccff;stop-opacity:1"
         offset="1"
         id="stop117105-3" /></linearGradient><linearGradient
       inkscape:collect="always"
       xlink:href="#linearGradient144595"
       id="linearGradient1"
       gradientUnits="userSpaceOnUse"
       gradientTransform="matrix(1.4124127,0,0,1.4124213,169.47128,0.8173554)"
       x1="-97.932289"
       y1="1.5"
       x2="-93.97493"
       y2="1.5" /></defs><sodipodi:namedview
     inkscape:guide-bbox="true"
     inkscape:snap-object-midpoints="true"
     showguides="false"
     inkscape:snap-global="true"
     inkscape:bbox-paths="false"
     fit-margin-bottom="0"
     fit-margin-right="0"
     fit-margin-left="0"
     fit-margin-top="0"
     inkscape:bbox-nodes="true"
     inkscape:snap-bbox="true"
     inkscape:window-maximized="1"
     inkscape:window-y="0"
     inkscape:window-x="0"
     inkscape:window-height="2057"
     inkscape:window-width="3840"
     units="px"
     showgrid="true"
     inkscape:document-rotation="0"
     inkscape:current-layer="layer1"
     inkscape:document-units="px"
     inkscape:cy="18.634037"
     inkscape:cx="24"
     inkscape:zoom="18.729167"
     inkscape:pageshadow="2"
     inkscape:pageopacity="0.0"
     borderopacity="1.0"
     bordercolor="#666666"
     pagecolor="#ffffff"
     id="base"
     inkscape:snap-others="true"
     inkscape:snap-grids="true"
     inkscape:object-paths="true"
     inkscape:snap-intersection-paths="true"
     inkscape:snap-smooth-nodes="true"
     inkscape:pagecheckerboard="0"
     inkscape:snap-nodes="true"
     inkscape:showpageshadow="2"
     inkscape:deskcolor="#d1d1d1"><inkscape:grid
       originy="0"
       originx="0"
       id="grid1504"
       type="xygrid"
       spacingy="1"
       spacingx="1"
       units="px"
       visible="true" /><inkscape:grid
       type="xygrid"
       id="grid879"
       spacingx="0.5"
       spacingy="0.5"
       originx="0"
       originy="0"
       units="px"
       visible="true" /></sodipodi:namedview><metadata
     id="metadata5"><rdf:RDF><cc:Work
         rdf:about=""><dc:format>image/svg+xml</dc:format><dc:type
           rdf:resource="http://purl.org/dc/dcmitype/StillImage" /></cc:Work></rdf:RDF></metadata><g
     transform="translate(-12.567709)"
     id="layer1"
     inkscape:groupmode="layer"
     inkscape:label="Layer 1"><g
       id="g1"
       transform="translate(0.530482)"><path
         id="path186741-2"
         style="fill:none;fill-opacity:1;stroke:#a4a4a4;stroke-width:2.92804;stroke-linecap:round;stroke-linejoin:round;stroke-miterlimit:4;stroke-dasharray:none;stroke-opacity:1"
         d="M 39.647906,1.464024 33.0079,1.4778234 29.937921,3.2709405 29.289638,3.6626667 c -3.172392,0.7625945 -5.257919,2.0465857 -5.257919,3.5034607 v 4.4083006 3.856571 2.328289 21.539425 c 0,5.649685 24.011016,5.649685 24.011016,0 V 17.759288 12.255811 11.574428 7.1661274 c 0,-1.4899482 -2.184141,-2.7976581 -5.478621,-3.5531223 L 42.172395,3.3592106 Z"
         sodipodi:nodetypes="ccccscccsscccsccc" /><path
         id="path1056"
         style="fill:url(#linearGradient1490);fill-opacity:1;stroke:none;stroke-width:1.41242px;stroke-linecap:butt;stroke-linejoin:miter;stroke-opacity:1"
         d="m 36.038412,2.9296875 c -6.630451,6e-7 -12.005859,1.8961546 -12.005859,4.2363281 V 39.298828 c 0,5.649679 24.011718,5.649679 24.011719,0 V 7.1660156 c -10e-7,-2.3401735 -5.375408,-4.2363275 -12.00586,-4.2363281 z"
         sodipodi:nodetypes="ssssss" /><path
         style="fill:url(#linearGradient17470-5);fill-opacity:1;stroke:none;stroke-width:1.41242px;stroke-linecap:butt;stroke-linejoin:miter;stroke-opacity:1"
         d="M 29.588558,6.6714017 C 34.061763,10.769147 45.645214,7.6984769 47.657829,6.0968087 46.403964,4.4686226 43.503973,3.8207732 42.564114,3.6130051 Z"
         id="path16668-6"
         sodipodi:nodetypes="cccc" /><path
         style="fill:url(#linearGradient117109-1);fill-opacity:1;stroke:none;stroke-width:1.41242px;stroke-linecap:butt;stroke-linejoin:miter;stroke-opacity:1"
         d="m 27.011629,5.0320279 4.435908,-2.6673695 h 9.180683 l 4.301248,2.7709597 C 42.810849,8.6666714 29.130248,8.5630812 27.011629,5.0320279 Z"
         id="path116409-1"
         sodipodi:nodetypes="ccccc" /><path
         style="fill:url(#linearGradient1);fill-opacity:1;stroke:none;stroke-width:1.41242px;stroke-linecap:butt;stroke-linejoin:miter;stroke-opacity:1"
         d="m 29.938134,3.2722854 c 2.118619,1.4124213 10.115446,1.4994573 12.234065,0.087036 l -2.65035,-1.8966457 -6.639696,0.014696 z"
         id="path144021-8"
         sodipodi:nodetypes="ccccc" /></g><g
       transform="matrix(0.53620164,0,0,0.53620164,81.744007,20.631161)"
       id="g940"><circle
         style="opacity:1;fill:#ffffff;fill-opacity:1;fill-rule:evenodd;stroke:none;stroke-width:11.685;stroke-linecap:round;stroke-linejoin:round;stroke-miterlimit:4;stroke-dasharray:none"
         id="path919"
         cx="-67.310364"
         cy="22.756973"
         r="18.249216" /><path
         d="m -66.691769,2.7592809 a 21.5,21.5 0 0 0 -21.5,21.5000001 21.5,21.5 0 0 0 21.5,21.5 21.5,21.5 0 0 0 21.5,-21.5 21.5,21.5 0 0 0 -21.5,-21.5000001 z m 0,5.5 a 16,16 0 0 1 16,16.0000001 16,16 0 0 1 -2.099609,7.921875 L -74.8988,10.524906 a 16,16 0 0 1 8.207031,-2.2656251 z M -79.40466,14.54639 -56.978878,36.972172 a 16,16 0 0 1 -9.712891,3.287109 16,16 0 0 1 -16,-16 16,16 0 0 1 3.287109,-9.712891 z"
         style="opacity:1;fill:#990000;fill-opacity:1;fill-rule:evenodd;stroke:none;stroke-width:11.685;stroke-linecap:round;stroke-linejoin:round;stroke-miterlimit:4;stroke-dasharray:none"
         id="path917" /><path
         id="path889"
         style="opacity:1;fill:#ff3300;fill-opacity:1;fill-rule:evenodd;stroke:none;stroke-width:11.685;stroke-linecap:round;stroke-linejoin:round;stroke-miterlimit:4;stroke-dasharray:none"
         d="m -67.832682,1 a 21.5,21.5 0 0 0 -21.5,21.5 21.5,21.5 0 0 0 21.5,21.5 21.5,21.5 0 0 0 21.5,-21.5 21.5,21.5 0 0 0 -21.5,-21.5 z m 0,5.5 a 16,16 0 0 1 16,16 16,16 0 0 1 -2.099609,7.921875 L -76.039713,8.765625 A 16,16 0 0 1 -67.832682,6.5 Z m -12.712891,6.287109 22.425782,22.425782 A 16,16 0 0 1 -67.832682,38.5 a 16,16 0 0 1 -16,-16 16,16 0 0 1 3.287109,-9.712891 z" /></g></g></svg>
