<?xml version="1.0" encoding="UTF-8"?>
<svg width="48" height="48" version="1.1" viewBox="0 0 48 48" xmlns="http://www.w3.org/2000/svg" xmlns:cc="http://creativecommons.org/ns#" xmlns:dc="http://purl.org/dc/elements/1.1/" xmlns:rdf="http://www.w3.org/1999/02/22-rdf-syntax-ns#" xmlns:xlink="http://www.w3.org/1999/xlink"><defs><linearGradient id="linearGradient1490" x1="-110.43" x2="-94.432" y1="19.5" y2="19.5" gradientTransform="matrix(1.4124,0,0,1.4124,180.71,-3.0739)" gradientUnits="userSpaceOnUse"><stop stop-color="#e2e2e2" offset="0"/><stop stop-color="#fff" offset=".15625"/><stop stop-color="#99c" offset=".8125"/><stop stop-color="#ccf" offset="1"/></linearGradient><linearGradient id="linearGradient17470-5" x1="-94.932" x2="-83.573" y1="6" y2="5.9997" gradientTransform="matrix(1.4124,0,0,1.4124,164.47,-2.7126)" gradientUnits="userSpaceOnUse"><stop stop-color="#ccf" offset="0"/><stop stop-color="#66c" offset="1"/></linearGradient><linearGradient id="linearGradient117109-1" x1="-100.43" x2="-89.432" y1="3.5" y2="3.5" gradientTransform="matrix(1.4124 0 0 1.4124 170.12 .15775)" gradientUnits="userSpaceOnUse"><stop stop-color="#ffdb9d" offset="0"/><stop stop-color="#fff" offset=".25"/><stop stop-color="#f93" offset=".63636"/><stop stop-color="#ccf" offset="1"/></linearGradient><linearGradient id="linearGradient1" x1="-97.932" x2="-93.975" y1="1.5" y2="1.5" gradientTransform="matrix(1.4124 0 0 1.4124 169.47 .81736)" gradientUnits="userSpaceOnUse"><stop stop-color="#fbfbfb" offset="0"/><stop stop-color="#dcdcdc" offset="1"/></linearGradient><linearGradient id="linearGradient6250" x1="-92.38" x2="-50.403" y1="18.132" y2="18.132" gradientTransform="matrix(.98925 0 0 .98925 91.152 .39946)" gradientUnits="userSpaceOnUse"><stop stop-color="#ccc" offset="0"/><stop stop-color="#fff" offset="1"/></linearGradient><linearGradient id="gradient4-5-3" x1="-819.2" x2="819.2" gradientTransform="matrix(5.0439e-5 -.0075731 -.012014 .00075053 -56.75 33.699)" gradientUnits="userSpaceOnUse"><stop stop-color="#99f" offset="0"/><stop stop-color="#669" offset="1"/></linearGradient><linearGradient id="gradient1-6-6" x1="-819.2" x2="819.2" gradientTransform="matrix(.0073518 .0075667 .0051765 -.0058693 -54.563 28.26)" gradientUnits="userSpaceOnUse"><stop stop-color="#fff" offset="0"/><stop stop-color="#ccf" offset=".42353"/><stop stop-color="#99c" offset="1"/></linearGradient><linearGradient id="gradient2-2-2" x1="-819.2" x2="819.2" gradientTransform="matrix(.0054091 -.00028934 -5.8749e-5 -.0021067 -54.536 25.897)" gradientUnits="userSpaceOnUse"><stop stop-color="#fff" offset="0"/><stop stop-color="#ccf" offset="1"/></linearGradient><linearGradient id="gradient3-9-9" x1="-819.2" x2="819.2" gradientTransform="matrix(.00045239 -.0036446 -.0013097 -5.5816e-5 -51.88 35.887)" gradientUnits="userSpaceOnUse"><stop stop-color="#fc6" offset="0"/><stop stop-color="#ff9" offset=".74902"/><stop stop-color="#99f" offset="1"/></linearGradient><linearGradient id="gradient5-6-6" x1="-819.2" x2="819.2" gradientTransform="matrix(.0045023 .0047222 .0027305 -.0030771 -55.559 28.403)" gradientUnits="userSpaceOnUse"><stop stop-color="#99c" offset="0"/><stop stop-color="#99c" offset=".23529"/><stop stop-color="#66c" offset="1"/></linearGradient><linearGradient id="gradient6-8-8" x1="-819.2" x2="819.2" gradientTransform="matrix(.0067755 -.0004044 5.4838e-5 -.0024485 -55.446 27.776)" gradientUnits="userSpaceOnUse"><stop stop-color="#fff" offset="0"/><stop stop-color="#ccf" offset="1"/></linearGradient><linearGradient id="gradient7-2-2" x1="-819.2" x2="819.2" gradientTransform="matrix(.0017058 -.0028485 -.0017092 -.0011373 -53.072 40.899)" gradientUnits="userSpaceOnUse"><stop stop-color="#ff9" offset="0"/><stop stop-color="#fc6" offset=".44706"/><stop stop-color="#960" offset="1"/></linearGradient><linearGradient id="gradient8-7-7" x1="-819.2" x2="819.2" gradientTransform="matrix(.0036475 .0038688 .0021616 -.0025072 -54.821 26.181)" gradientUnits="userSpaceOnUse"><stop stop-color="#99c" offset="0"/><stop stop-color="#99c" offset=".23529"/><stop stop-color="#66c" offset="1"/></linearGradient><linearGradient id="gradient9-2-2" x1="-819.2" x2="819.2" gradientTransform="matrix(.0003956 -.0034737 -.0020499 -.00011212 -62.473 33.22)" gradientUnits="userSpaceOnUse"><stop stop-color="#fc6" offset="0"/><stop stop-color="#ff9" offset=".74902"/><stop stop-color="#99f" offset="1"/></linearGradient><linearGradient id="gradient10-3-3" x1="-819.2" x2="819.2" gradientTransform="matrix(-5.9726e-5 -.0032455 -.0019359 .00011554 -63.921 38.147)" gradientUnits="userSpaceOnUse"><stop stop-color="#ff9" offset="0"/><stop stop-color="#fc6" offset=".44706"/><stop stop-color="#960" offset="1"/></linearGradient><linearGradient id="linearGradient43" x1="24.032" x2="48.044" y1="23.233" y2="23.233" gradientTransform="translate(-22.532 .035976)" gradientUnits="userSpaceOnUse"><stop stop-color="#ff9" offset="0"/><stop stop-color="#ffdb9d" offset="1"/></linearGradient></defs><metadata><rdf:RDF><cc:Work rdf:about=""><dc:format>image/svg+xml</dc:format><dc:type rdf:resource="http://purl.org/dc/dcmitype/StillImage"/></cc:Work></rdf:RDF></metadata><path d="m40.3 24.428c1.4081-3.9264-0.47-9.4181-8.4188-9.8046-1.8596-0.09042-3.7047 0.23756-5.5343 0.7821l-0.03739 2.0624c1.5696-0.48236 3.1584-0.80054 4.7871-0.81499 6.3768-0.05655 7.1754 4.1523 6.0506 6.6744" fill="url(#linearGradient6250)" stroke="#999" stroke-linecap="round" stroke-linejoin="round" stroke-width=".98925"/><path d="m17.116 1.5-6.64 0.013799-3.07 1.7931-0.64828 0.39173c-3.1724 0.76259-5.2579 2.0466-5.2579 3.5035v32.133c0 5.6497 24.011 5.6497 24.011 0v-32.133c0-1.4899-2.1841-2.7977-5.4786-3.5531l-0.39172-0.25379z" fill="none" stroke="#a4a4a4" stroke-linecap="round" stroke-linejoin="round" stroke-width="3"/><g transform="translate(-22.532 .035976)"><path d="m36.038 2.9297c-6.6305 6e-7 -12.006 1.8962-12.006 4.2363v32.133c0 5.6497 24.012 5.6497 24.012 0v-32.133c-1e-6 -2.3402-5.3754-4.2363-12.006-4.2363z" fill="url(#linearGradient1490)"/><path d="m29.589 6.6714c4.4732 4.0977 16.057 1.0271 18.069-0.57459-1.2539-1.6282-4.1539-2.276-5.0937-2.4838z" fill="url(#linearGradient17470-5)"/><path d="m27.012 5.032 4.4359-2.6674h9.1807l4.3012 2.771c-2.1186 3.5311-15.799 3.4275-17.918-0.10359z" fill="url(#linearGradient117109-1)"/><path d="m29.938 3.2723c2.1186 1.4124 10.115 1.4995 12.234 0.087036l-2.6504-1.8966-6.6397 0.014696z" fill="url(#linearGradient1)"/></g><path d="m1.5 31v8.335c0 5.6497 24.012 5.6497 24.012 0v-8.335z" fill="url(#linearGradient43)"/><g transform="matrix(.99294 0 0 .99294 91.082 .71656)" fill-rule="evenodd" stroke-width="1.8006"><path d="m-54.255 38.324-5.1315-1.5151-5.7807-1.447-1.8225-0.5109 1.6719-7.2021s6.6626 1.53 9.8353 2.0604l9.1258 3.3919-2.2338 6.454" fill="url(#gradient4-5-3)"/><path d="m-46.758 33.036-18.282-4.9381c1.7234-4.8146 5.8986-5.7718 10.929-4.6215 6.3554 1.4533 7.7951 5.2589 7.3535 9.5596" fill="url(#gradient1-6-6)"/><path d="m-58.523 24.476 8.3721 2.2135 0.08568 0.3131 2.45e-4 0.2847 0.08543 0.02839-0.08543-0.02839-8.4005-2.128-0.541-0.08494 0.31261-0.65508 0.17087 0.0568" fill="url(#gradient2-2-2)"/><path d="m-45.875 33.519-2.4142 6.6925-2.8202-0.68132 0.07206-0.51309 0.24164-0.11308 0.25459-1.9077 0.3956-3.4737 0.02864 0.19927 1.1721 5.6076 2.1868-6.2938c0.06251-5.5741-2.4095-7.8893-7.3772-9.4016-4.6156-1.4052-9.7169 1.069-10.905 4.4635 0 0-1.0433 4.463-1.5601 6.6918l1.8225 0.5109 0.16906 0.3599-0.11899 0.40368-2.9253-0.67564 1.787-7.66c0.66878-2.8667 5.7052-6.6009 12.238-4.8504 8.324 2.2304 8.3785 8.7589 7.7529 10.641zm-8.2673 5.1864-7.2743-1.8136 0.09703-0.75318 1.5492-5.0561 0.77356 5.6649 4.9784 1.2818" fill="#669"/><path d="m-50.937 39.616-1.5334 4.6135-3.047-0.82302 1.1917-4.7271 0.14174-0.71187 1.2766-5.2681 2.7623 0.82326-0.62155 5.5807-0.17038 0.51261m-10.479-2.7241-1.6189 4.5851-3.1608-0.76598 1.4189-5.4105 2.1594-5.0695 2.8761 0.76622-1.3621 5.2397-0.31261 0.65508" fill="#333"/><path d="m-50.574 33.395-0.67772 5.4524-2.0504-0.68152 1.0757-5.2634" fill="url(#gradient3-9-9)"/><path d="m-60.372 26.898 10.508 2.6387-0.08568-0.3131c0.24692 0.20858 0.15234 0.58825-0.28372 1.139l-10.707-2.8948" fill="url(#gradient5-6-6)"/><path d="m-49.95 29.224 0.08568 0.3131-10.508-2.6387-0.541-0.08494 0.19878-0.59804 0.02839-0.08543 10.593 2.6671 0.14272 0.42693" fill="url(#gradient6-8-8)"/><path d="m-51.251 38.848-1.448 4.6419-2.0788-0.59609 1.4764-4.7273 0.08543 0.02839 1.965 0.65312" fill="url(#gradient7-2-2)"/><path d="m-50.065 27.288-0.45508 0.51285-8.5714-2.1848 0.62595-0.45606" fill="url(#gradient8-7-7)"/><path d="m-59.092 25.616q-0.65484-0.02791-0.62693-0.68274 0.02791-0.65484 0.59731-0.65532l0.59804 0.19878-0.17087-0.0568-0.31261 0.65508 0.541 0.08494-0.62595 0.45606m-1.2801 1.2823-0.56891 0.56989q-0.68323 0.05753-0.65532-0.59731t0.68274-0.62693l0.19926-0.02864-0.19878 0.59804 0.541 0.08494" fill="#fff"/><path d="m-62.093 30.371 1.6608 0.44246-1.8391 5.2253-2.0788-0.59609" fill="url(#gradient9-2-2)"/><path d="m-62.357 36.01 0.08543 0.02839-1.2771 4.6987-1.9934-0.56769 1.1917-4.7271 1.9934 0.56769" fill="url(#gradient10-3-3)"/></g></svg>
