<?xml version="1.0" encoding="UTF-8"?>
<svg width="48" height="48" version="1.1" viewBox="0 0 48 48" xmlns="http://www.w3.org/2000/svg" xmlns:cc="http://creativecommons.org/ns#" xmlns:dc="http://purl.org/dc/elements/1.1/" xmlns:rdf="http://www.w3.org/1999/02/22-rdf-syntax-ns#" xmlns:xlink="http://www.w3.org/1999/xlink"><defs><linearGradient id="linearGradient1490" x1="-110.43" x2="-94.432" y1="19.5" y2="19.5" gradientTransform="matrix(1.4124,0,0,1.4124,180.71,-3.0739)" gradientUnits="userSpaceOnUse"><stop stop-color="#e2e2e2" offset="0"/><stop stop-color="#fff" offset=".15625"/><stop stop-color="#99c" offset=".8125"/><stop stop-color="#ccf" offset="1"/></linearGradient><linearGradient id="linearGradient17470-5" x1="-94.932" x2="-83.573" y1="6" y2="5.9997" gradientTransform="matrix(1.4124,0,0,1.4124,164.47,-2.7126)" gradientUnits="userSpaceOnUse"><stop stop-color="#ccf" offset="0"/><stop stop-color="#66c" offset="1"/></linearGradient><linearGradient id="linearGradient117109-1" x1="-100.43" x2="-89.432" y1="3.5" y2="3.5" gradientTransform="matrix(1.4124 0 0 1.4124 170.12 .15775)" gradientUnits="userSpaceOnUse"><stop stop-color="#ffdb9d" offset="0"/><stop stop-color="#fff" offset=".25"/><stop stop-color="#f93" offset=".63636"/><stop stop-color="#ccf" offset="1"/></linearGradient><linearGradient id="linearGradient1" x1="-97.932" x2="-93.975" y1="1.5" y2="1.5" gradientTransform="matrix(1.4124 0 0 1.4124 169.47 .81736)" gradientUnits="userSpaceOnUse"><stop stop-color="#fbfbfb" offset="0"/><stop stop-color="#dcdcdc" offset="1"/></linearGradient><linearGradient id="linearGradient43" x1="24.032" x2="48.044" y1="23.233" y2="23.233" gradientTransform="translate(-22.532 .035976)" gradientUnits="userSpaceOnUse"><stop stop-color="#9f6" offset="0"/><stop stop-color="#6c3" offset="1"/></linearGradient></defs><metadata><rdf:RDF><cc:Work rdf:about=""><dc:format>image/svg+xml</dc:format><dc:type rdf:resource="http://purl.org/dc/dcmitype/StillImage"/></cc:Work></rdf:RDF></metadata><g transform="translate(10.495)"><path d="m17.116 1.5-6.64 0.013799-3.07 1.7931-0.64828 0.39173c-3.1724 0.76259-5.2579 2.0466-5.2579 3.5035v32.133c0 5.6497 24.011 5.6497 24.011 0v-32.133c0-1.4899-2.1841-2.7977-5.4786-3.5531l-0.39172-0.25379z" fill="none" stroke="#a4a4a4" stroke-linecap="round" stroke-linejoin="round" stroke-width="3"/><g transform="translate(-22.532 .035976)"><path d="m36.038 2.9297c-6.6305 6e-7 -12.006 1.8962-12.006 4.2363v32.133c0 5.6497 24.012 5.6497 24.012 0v-32.133c-1e-6 -2.3402-5.3754-4.2363-12.006-4.2363z" fill="url(#linearGradient1490)"/><path d="m29.589 6.6714c4.4732 4.0977 16.057 1.0271 18.069-0.57459-1.2539-1.6282-4.1539-2.276-5.0937-2.4838z" fill="url(#linearGradient17470-5)"/><path d="m27.012 5.032 4.4359-2.6674h9.1807l4.3012 2.771c-2.1186 3.5311-15.799 3.4275-17.918-0.10359z" fill="url(#linearGradient117109-1)"/><path d="m29.938 3.2723c2.1186 1.4124 10.115 1.4995 12.234 0.087036l-2.6504-1.8966-6.6397 0.014696z" fill="url(#linearGradient1)"/></g><path d="m1.5 11v28.335c0 5.6497 24.012 5.6497 24.012 0v-28.335z" fill="url(#linearGradient43)"/></g></svg>
