<?xml version="1.0" encoding="UTF-8" standalone="no"?>
<svg
   width="256"
   height="256"
   viewBox="0 0 256 256"
   version="1.1"
   id="svg8"
   inkscape:version="1.1.1 (3bf5ae0d25, 2021-09-20)"
   sodipodi:docname="address-book.svg"
   inkscape:export-filename="/media/klapeto/Αρχεία/WindowsXP Theme/Vectors/RASTER/address-book-new.png"
   inkscape:export-xdpi="96"
   inkscape:export-ydpi="96"
   xmlns:inkscape="http://www.inkscape.org/namespaces/inkscape"
   xmlns:sodipodi="http://sodipodi.sourceforge.net/DTD/sodipodi-0.dtd"
   xmlns:xlink="http://www.w3.org/1999/xlink"
   xmlns="http://www.w3.org/2000/svg"
   xmlns:svg="http://www.w3.org/2000/svg"
   xmlns:rdf="http://www.w3.org/1999/02/22-rdf-syntax-ns#"
   xmlns:cc="http://creativecommons.org/ns#"
   xmlns:dc="http://purl.org/dc/elements/1.1/">
  <defs
     id="defs2">
    <linearGradient
       inkscape:collect="always"
       id="linearGradient380793">
      <stop
         style="stop-color:#ff4711;stop-opacity:1"
         offset="0"
         id="stop380789" />
      <stop
         style="stop-color:#f77221;stop-opacity:1"
         offset="1"
         id="stop380791" />
    </linearGradient>
    <linearGradient
       inkscape:collect="always"
       id="linearGradient299204">
      <stop
         style="stop-color:#ff7325;stop-opacity:1"
         offset="0"
         id="stop299200" />
      <stop
         style="stop-color:#ffbf5b;stop-opacity:1"
         offset="1"
         id="stop299202" />
    </linearGradient>
    <linearGradient
       inkscape:collect="always"
       id="linearGradient271741">
      <stop
         style="stop-color:#ffef00;stop-opacity:1"
         offset="0"
         id="stop271737" />
      <stop
         style="stop-color:#fcd607;stop-opacity:1"
         offset="1"
         id="stop271739" />
    </linearGradient>
    <linearGradient
       inkscape:collect="always"
       id="linearGradient259464">
      <stop
         style="stop-color:#83cbff;stop-opacity:1"
         offset="0"
         id="stop259460" />
      <stop
         style="stop-color:#30abff;stop-opacity:1"
         offset="1"
         id="stop259462" />
    </linearGradient>
    <linearGradient
       inkscape:collect="always"
       id="linearGradient246270">
      <stop
         style="stop-color:#a1c6ed;stop-opacity:1"
         offset="0"
         id="stop246266" />
      <stop
         style="stop-color:#4d53b4;stop-opacity:1"
         offset="1"
         id="stop246268" />
    </linearGradient>
    <linearGradient
       inkscape:collect="always"
       id="linearGradient215567">
      <stop
         style="stop-color:#9eb6e6;stop-opacity:1"
         offset="0"
         id="stop215563" />
      <stop
         style="stop-color:#3667c7;stop-opacity:1"
         offset="0.5"
         id="stop215729" />
      <stop
         style="stop-color:#9eb6e6;stop-opacity:1"
         offset="1"
         id="stop215565" />
    </linearGradient>
    <linearGradient
       inkscape:collect="always"
       id="linearGradient174148">
      <stop
         style="stop-color:#4372c8;stop-opacity:1;"
         offset="0"
         id="stop174144" />
      <stop
         style="stop-color:#8bb7ee;stop-opacity:1"
         offset="1"
         id="stop174146" />
    </linearGradient>
    <linearGradient
       inkscape:collect="always"
       id="linearGradient148866">
      <stop
         style="stop-color:#98c5f2;stop-opacity:1"
         offset="0"
         id="stop148862" />
      <stop
         style="stop-color:#a8d3ff;stop-opacity:0.02748899"
         offset="1"
         id="stop148864" />
    </linearGradient>
    <linearGradient
       inkscape:collect="always"
       id="linearGradient77535">
      <stop
         style="stop-color:#a8d3ff;stop-opacity:1"
         offset="0"
         id="stop77531" />
      <stop
         style="stop-color:#f3f9ff;stop-opacity:1"
         offset="1"
         id="stop77533" />
    </linearGradient>
    <linearGradient
       inkscape:collect="always"
       id="linearGradient54632">
      <stop
         style="stop-color:#4ce029;stop-opacity:1"
         offset="0"
         id="stop54628" />
      <stop
         style="stop-color:#199c05;stop-opacity:1"
         offset="1"
         id="stop54630" />
    </linearGradient>
    <linearGradient
       inkscape:collect="always"
       id="linearGradient14054">
      <stop
         style="stop-color:#84b7f0;stop-opacity:1"
         offset="0"
         id="stop14050" />
      <stop
         style="stop-color:#ffffff;stop-opacity:1"
         offset="1"
         id="stop14052" />
    </linearGradient>
    <linearGradient
       inkscape:collect="always"
       xlink:href="#linearGradient14054"
       id="linearGradient14056"
       x1="-91.524971"
       y1="76.425667"
       x2="-86.230881"
       y2="73.614326"
       gradientUnits="userSpaceOnUse"
       gradientTransform="translate(-19.212578,0.076379)" />
    <linearGradient
       inkscape:collect="always"
       xlink:href="#linearGradient54632"
       id="linearGradient54634"
       x1="-100.05664"
       y1="33.026669"
       x2="-98.08699"
       y2="33.044537"
       gradientUnits="userSpaceOnUse"
       gradientTransform="rotate(-27.019237,-9.4473358,40.021692)" />
    <linearGradient
       inkscape:collect="always"
       xlink:href="#linearGradient77535"
       id="linearGradient77537"
       x1="-91.717705"
       y1="68.907478"
       x2="-86.958611"
       y2="65.540314"
       gradientUnits="userSpaceOnUse"
       gradientTransform="translate(-19.212578,0.076379)" />
    <linearGradient
       inkscape:collect="always"
       xlink:href="#linearGradient77535"
       id="linearGradient141810"
       x1="-90.655266"
       y1="70.918449"
       x2="-84.453354"
       y2="66.561226"
       gradientUnits="userSpaceOnUse"
       gradientTransform="translate(-19.212578,0.076379)" />
    <linearGradient
       inkscape:collect="always"
       xlink:href="#linearGradient77535"
       id="linearGradient148017"
       x1="-89.676872"
       y1="73.106483"
       x2="-82.277809"
       y2="67.990936"
       gradientUnits="userSpaceOnUse"
       gradientTransform="translate(-19.212578,0.076379)" />
    <linearGradient
       inkscape:collect="always"
       xlink:href="#linearGradient77535"
       id="linearGradient148101"
       x1="-87.987747"
       y1="78.159126"
       x2="-83.364693"
       y2="74.972122"
       gradientUnits="userSpaceOnUse"
       gradientTransform="translate(-19.212578,0.076379)" />
    <linearGradient
       inkscape:collect="always"
       xlink:href="#linearGradient77535"
       id="linearGradient148223"
       x1="-86.878853"
       y1="80.332672"
       x2="-80.95768"
       y2="76.285538"
       gradientUnits="userSpaceOnUse"
       gradientTransform="translate(-19.212578,0.076379)" />
    <linearGradient
       inkscape:collect="always"
       xlink:href="#linearGradient77535"
       id="linearGradient148307"
       x1="-85.754776"
       y1="82.684509"
       x2="-78.204872"
       y2="77.437332"
       gradientUnits="userSpaceOnUse"
       gradientTransform="translate(-19.212578,0.076379)" />
    <linearGradient
       inkscape:collect="always"
       xlink:href="#linearGradient14054"
       id="linearGradient148719"
       x1="-96.289688"
       y1="86.383514"
       x2="-97.844398"
       y2="76"
       gradientUnits="userSpaceOnUse"
       gradientTransform="translate(-19.212578,0.076379)" />
    <linearGradient
       inkscape:collect="always"
       xlink:href="#linearGradient148866"
       id="linearGradient148822"
       x1="-101.3444"
       y1="81.5"
       x2="-94.344398"
       y2="83.5"
       gradientUnits="userSpaceOnUse"
       gradientTransform="translate(-19.212578,0.076379)" />
    <linearGradient
       inkscape:collect="always"
       xlink:href="#linearGradient148866"
       id="linearGradient158833"
       x1="-101.8444"
       y1="79"
       x2="-94.844398"
       y2="81"
       gradientUnits="userSpaceOnUse"
       gradientTransform="translate(-19.212578,0.076379)" />
    <linearGradient
       inkscape:collect="always"
       xlink:href="#linearGradient148866"
       id="linearGradient158879"
       x1="-102.8444"
       y1="76.5"
       x2="-97.844398"
       y2="78"
       gradientUnits="userSpaceOnUse"
       gradientTransform="translate(-19.212578,0.076379)" />
    <linearGradient
       inkscape:collect="always"
       xlink:href="#linearGradient148866"
       id="linearGradient158965"
       gradientUnits="userSpaceOnUse"
       x1="-103.8444"
       y1="73"
       x2="-97.921967"
       y2="74.860443"
       gradientTransform="translate(-19.212578,0.076379)" />
    <linearGradient
       inkscape:collect="always"
       xlink:href="#linearGradient148866"
       id="linearGradient159011"
       x1="-104.88408"
       y1="70.453018"
       x2="-99.380058"
       y2="72.174858"
       gradientUnits="userSpaceOnUse"
       gradientTransform="translate(-19.212578,0.076379)" />
    <linearGradient
       inkscape:collect="always"
       xlink:href="#linearGradient148866"
       id="linearGradient159095"
       x1="-105.84933"
       y1="67.486839"
       x2="-100.35226"
       y2="69.423622"
       gradientUnits="userSpaceOnUse"
       gradientTransform="translate(-19.212578,0.076379)" />
    <linearGradient
       inkscape:collect="always"
       xlink:href="#linearGradient174148"
       id="linearGradient174150"
       x1="-87.844398"
       y1="88.5"
       x2="-95.344398"
       y2="67.5"
       gradientUnits="userSpaceOnUse"
       gradientTransform="translate(-19.212578,0.076379)" />
    <linearGradient
       inkscape:collect="always"
       xlink:href="#linearGradient215567"
       id="linearGradient215569"
       x1="-97.713359"
       y1="68.77062"
       x2="-92.562581"
       y2="68.77062"
       gradientUnits="userSpaceOnUse"
       gradientTransform="translate(-19.212578,0.076379)" />
    <linearGradient
       inkscape:collect="always"
       xlink:href="#linearGradient215567"
       id="linearGradient246040"
       x1="-96.207314"
       y1="71.531136"
       x2="-91.056534"
       y2="71.531136"
       gradientUnits="userSpaceOnUse"
       gradientTransform="translate(-19.212578,0.076379)" />
    <linearGradient
       inkscape:collect="always"
       xlink:href="#linearGradient215567"
       id="linearGradient246048"
       x1="-94.967079"
       y1="74.375771"
       x2="-89.816299"
       y2="74.375771"
       gradientUnits="userSpaceOnUse"
       gradientTransform="translate(-19.212578,0.076379)" />
    <linearGradient
       inkscape:collect="always"
       xlink:href="#linearGradient215567"
       id="linearGradient246056"
       x1="-93.752007"
       y1="77.577507"
       x2="-88.601234"
       y2="77.577507"
       gradientUnits="userSpaceOnUse"
       gradientTransform="translate(-19.212578,0.076379)" />
    <linearGradient
       inkscape:collect="always"
       xlink:href="#linearGradient215567"
       id="linearGradient246064"
       x1="-92.347221"
       y1="81.025581"
       x2="-87.196442"
       y2="81.025581"
       gradientUnits="userSpaceOnUse"
       gradientTransform="translate(-19.212578,0.076379)" />
    <linearGradient
       inkscape:collect="always"
       xlink:href="#linearGradient215567"
       id="linearGradient246072"
       x1="-90.800339"
       y1="84.831673"
       x2="-85.649559"
       y2="84.831673"
       gradientUnits="userSpaceOnUse"
       gradientTransform="translate(-19.212578,0.076379)" />
    <linearGradient
       inkscape:collect="always"
       xlink:href="#linearGradient246270"
       id="linearGradient246272"
       x1="-110.20219"
       y1="64.921829"
       x2="-89.421669"
       y2="88.747787"
       gradientUnits="userSpaceOnUse"
       gradientTransform="translate(-19.212578,0.076379)" />
    <linearGradient
       inkscape:collect="always"
       xlink:href="#linearGradient259464"
       id="linearGradient259466"
       x1="-107.94913"
       y1="77.891655"
       x2="-105.96934"
       y2="77.702431"
       gradientUnits="userSpaceOnUse"
       gradientTransform="translate(-19.212578,0.076379)" />
    <linearGradient
       inkscape:collect="always"
       xlink:href="#linearGradient271741"
       id="linearGradient271743"
       x1="-109.57538"
       y1="72.730904"
       x2="-107.7004"
       y2="72.50032"
       gradientUnits="userSpaceOnUse"
       gradientTransform="translate(-19.212578,0.076379)" />
    <linearGradient
       inkscape:collect="always"
       xlink:href="#linearGradient54632"
       id="linearGradient288957"
       x1="-111.74496"
       y1="66.941422"
       x2="-109.75889"
       y2="66.685059"
       gradientUnits="userSpaceOnUse"
       gradientTransform="translate(-19.212578,0.076379)" />
    <linearGradient
       inkscape:collect="always"
       xlink:href="#linearGradient299204"
       id="linearGradient299206"
       x1="0.72604555"
       y1="62.548103"
       x2="7.5213461"
       y2="30.376637"
       gradientUnits="userSpaceOnUse"
       gradientTransform="translate(-108.13255,27.5)" />
    <linearGradient
       inkscape:collect="always"
       xlink:href="#linearGradient380793"
       id="linearGradient380795"
       x1="-107.34941"
       y1="89.44632"
       x2="-125.60225"
       y2="73.943352"
       gradientUnits="userSpaceOnUse" />
    <filter
       inkscape:collect="always"
       style="color-interpolation-filters:sRGB"
       id="filter399307"
       x="-0.24256951"
       y="-0.18184787"
       width="1.485139"
       height="1.3636957">
      <feGaussianBlur
         inkscape:collect="always"
         stdDeviation="0.35182146"
         id="feGaussianBlur399309" />
    </filter>
    <filter
       inkscape:collect="always"
       style="color-interpolation-filters:sRGB"
       id="filter399618"
       x="-0.24264566"
       y="-0.17949458"
       width="1.4852913"
       height="1.3589892">
      <feGaussianBlur
         inkscape:collect="always"
         stdDeviation="0.35006455"
         id="feGaussianBlur399620" />
    </filter>
    <filter
       inkscape:collect="always"
       style="color-interpolation-filters:sRGB"
       id="filter399750"
       x="-0.25004586"
       y="-0.18089797"
       width="1.5000917"
       height="1.3617959">
      <feGaussianBlur
         inkscape:collect="always"
         stdDeviation="0.35182146"
         id="feGaussianBlur399752" />
    </filter>
    <filter
       inkscape:collect="always"
       style="color-interpolation-filters:sRGB"
       id="filter399980"
       x="-0.21021654"
       y="-0.17668885"
       width="1.4204331"
       height="1.3533777">
      <feGaussianBlur
         inkscape:collect="always"
         stdDeviation="0.412844"
         id="feGaussianBlur399982" />
    </filter>
    <filter
       inkscape:collect="always"
       style="color-interpolation-filters:sRGB"
       id="filter403441"
       x="-0.042275914"
       y="-0.055516893"
       width="1.0845518"
       height="1.1110338">
      <feGaussianBlur
         inkscape:collect="always"
         stdDeviation="4.2595882"
         id="feGaussianBlur403443" />
    </filter>
    <filter
       inkscape:collect="always"
       style="color-interpolation-filters:sRGB"
       id="filter1125"
       x="-0.047999999"
       y="-0.047999997"
       width="1.096"
       height="1.096">
      <feGaussianBlur
         inkscape:collect="always"
         stdDeviation="2.56"
         id="feGaussianBlur1127" />
    </filter>
  </defs>
  <sodipodi:namedview
     inkscape:guide-bbox="true"
     id="base"
     pagecolor="#ffffff"
     bordercolor="#666666"
     borderopacity="1.0"
     inkscape:pageopacity="0.0"
     inkscape:pageshadow="2"
     inkscape:zoom="0.70710678"
     inkscape:cx="182.43355"
     inkscape:cy="285.67114"
     inkscape:document-units="px"
     inkscape:current-layer="layer1"
     inkscape:document-rotation="0"
     showgrid="false"
     units="px"
     inkscape:window-width="3840"
     inkscape:window-height="2043"
     inkscape:window-x="3840"
     inkscape:window-y="0"
     inkscape:window-maximized="1"
     inkscape:snap-bbox="true"
     inkscape:bbox-nodes="true"
     fit-margin-top="0"
     fit-margin-left="0"
     fit-margin-right="0"
     fit-margin-bottom="0"
     inkscape:bbox-paths="false"
     inkscape:snap-global="false"
     showguides="true"
     inkscape:pagecheckerboard="0"
     inkscape:snap-smooth-nodes="true"
     inkscape:object-paths="true">
    <inkscape:grid
       type="xygrid"
       id="grid1504"
       originx="0"
       originy="0" />
    <inkscape:grid
       type="xygrid"
       id="grid1507"
       spacingx="0.5"
       spacingy="0.5"
       originx="0"
       originy="0" />
  </sodipodi:namedview>
  <metadata
     id="metadata5">
    <rdf:RDF>
      <cc:Work
         rdf:about="">
        <dc:format>image/svg+xml</dc:format>
        <dc:type
           rdf:resource="http://purl.org/dc/dcmitype/StillImage" />
      </cc:Work>
    </rdf:RDF>
  </metadata>
  <g
     inkscape:label="Layer 1"
     inkscape:groupmode="layer"
     id="layer1"
     transform="translate(-12.567709)">
    <path
       id="path403036"
       style="fill:#212121;fill-opacity:1;stroke:none;stroke-width:5.33px;stroke-linecap:butt;stroke-linejoin:miter;stroke-opacity:1;filter:url(#filter403441)"
       d="m 200.70393,61.479705 c -2.19381,-0.058 -4.39411,0.652054 -6.32617,1.99414 L 120.11018,115.06369 29.149241,84.794158 C 18.489247,81.563855 15.920559,93.421284 18.489085,100.78439 l 39.974609,114.5957 c 2.664998,7.63966 10.659301,11.61101 18.654297,13.32422 l 74.621099,15.99023 c 8.24039,1.7658 15.99031,1.06694 21.32031,-2.66406 l 79.94922,-55.9668 c 5.33,-3.731 7.99507,-10.36217 5.33007,-15.98828 L 210.36799,68.803924 c -2.36694,-4.996873 -6.00771,-7.227545 -9.66406,-7.324219 z" />
    <g
       id="g402954"
       transform="matrix(5.3299971,0,0,5.3299971,728.05432,-244.33527)">
      <path
         style="opacity:1;fill:url(#linearGradient299206);fill-opacity:1;stroke:none;stroke-width:1px;stroke-linecap:butt;stroke-linejoin:miter;stroke-opacity:1"
         d="m -126.56484,85.5 -7.5,-21.5 c -0.4819,-1.381447 0,-3.606061 2,-3 L -114.9988,66.679008 -101.06484,57 c 0.96664,-0.671463 2.289476,-0.5 3.000002,1 l 9,19 c 0.5,1.055556 0,2.3 -1,3 l -15.000002,10.5 c -1,0.7 -2.45396,0.831295 -4,0.5 l -14,-3 c -1.5,-0.321429 -3,-1.066667 -3.5,-2.5 z"
         id="path1048"
         sodipodi:nodetypes="ssscssssssss" />
      <path
         style="fill:url(#linearGradient380795);fill-opacity:1;stroke:none;stroke-width:1px;stroke-linecap:butt;stroke-linejoin:miter;stroke-opacity:1"
         d="m -121.82316,67.190925 -8.8633,-1.054272 6.26625,18.295422 c 0.39955,1.166578 1.22397,2.42746 3.12719,2.841193 l 14.49746,3.15155 13.46431,-9.111628 c 1.110177,-1.588317 0.485534,-3.001681 0.485534,-3.001681 0,0 -24.401694,-9.91057 -28.977444,-11.120584 z"
         id="path321624"
         sodipodi:nodetypes="ccsscccc" />
      <path
         style="fill:url(#linearGradient174150);fill-opacity:1;stroke:none;stroke-width:1px;stroke-linecap:butt;stroke-linejoin:miter;stroke-opacity:1"
         d="m -114.55698,67.576379 -0.47756,0.62754 8.82077,21.454864 12.236031,-8.437882 c 1.481285,-1.021484 1.7178,-2.634032 1.330868,-3.397067 l -13.202039,9.890786 -8.70807,-20.138241"
         id="path6913"
         sodipodi:nodetypes="cccsccc" />
      <path
         style="fill:url(#linearGradient246272);fill-opacity:1;stroke:none;stroke-width:1px;stroke-linecap:butt;stroke-linejoin:miter;stroke-opacity:1"
         d="m -107.05698,88.576379 -0.29243,0.86994 -12.55757,-2.701999 c -1.49548,-0.321781 -3.12298,-1.167941 -3.65,-2.667941 l -6.5,-18.5 c -0.33149,-0.94346 0.5,-2.5 1,-2 z"
         id="path4690"
         sodipodi:nodetypes="ccssscc" />
      <path
         style="fill:#212121;fill-opacity:1;stroke:none;stroke-width:1px;stroke-linecap:butt;stroke-linejoin:miter;stroke-opacity:1;filter:url(#filter399750)"
         d="m -124.40527,81.085667 -1.46517,-0.504482 c -0.47542,-0.163696 -0.91036,-0.476209 -1.03151,-0.842516 l -0.86065,-2.60221 c -0.11766,-0.355757 0.31551,-0.706499 0.77945,-0.718459 l 1.23652,0.434102 z"
         id="path399622"
         sodipodi:nodetypes="csssscc" />
      <path
         style="fill:url(#linearGradient259466);fill-opacity:1;stroke:none;stroke-width:1px;stroke-linecap:butt;stroke-linejoin:miter;stroke-opacity:1"
         d="m -124.2977,80.436239 -1.57288,-0.355289 c -0.49046,-0.110787 -0.91036,-0.476209 -1.03151,-0.842516 l -0.86065,-2.60221 c -0.11766,-0.355757 0.31551,-0.706499 0.77945,-0.718459 l 1.18613,0.256767 z"
         id="path11587"
         sodipodi:nodetypes="csssscc" />
      <path
         style="fill:#212121;fill-opacity:1;stroke:none;stroke-width:1px;stroke-linecap:butt;stroke-linejoin:miter;stroke-opacity:1;filter:url(#filter399618)"
         d="m -126.21966,75.68467 -1.55078,-0.517485 c -0.47696,-0.159159 -0.91036,-0.476209 -1.03151,-0.842516 l -0.86065,-2.60221 c -0.11766,-0.355757 0.31551,-0.706499 0.77945,-0.718459 l 1.32213,0.447105 z"
         id="path399490"
         sodipodi:nodetypes="csssscc" />
      <path
         style="fill:url(#linearGradient271743);fill-opacity:1;stroke:none;stroke-width:1px;stroke-linecap:butt;stroke-linejoin:miter;stroke-opacity:1"
         d="m -126.17823,75.02642 -1.59235,-0.359687 c -0.49046,-0.110787 -0.91036,-0.476209 -1.03151,-0.842516 l -0.86065,-2.60221 c -0.11766,-0.355757 0.31551,-0.706499 0.77945,-0.718459 l 1.25988,0.291652 z"
         id="path11587-7"
         sodipodi:nodetypes="csssscc" />
      <path
         style="fill:#212121;fill-opacity:1;stroke:none;stroke-width:1px;stroke-linecap:butt;stroke-linejoin:miter;stroke-opacity:1;filter:url(#filter399307)"
         d="m -128.22631,70.208285 -1.56925,-0.4801 c -0.48082,-0.147103 -0.91036,-0.476209 -1.03151,-0.842516 l -0.86065,-2.60221 c -0.11766,-0.355757 0.31551,-0.706499 0.77945,-0.718459 l 1.3406,0.40972 z"
         id="path399053"
         sodipodi:nodetypes="csssscc" />
      <path
         style="fill:url(#linearGradient288957);fill-opacity:1;stroke:none;stroke-width:1px;stroke-linecap:butt;stroke-linejoin:miter;stroke-opacity:1"
         d="m -128.09768,69.49361 -1.69788,-0.265157 c -0.4968,-0.07758 -0.91036,-0.476209 -1.03151,-0.842516 l -0.86065,-2.60221 c -0.11766,-0.355757 0.31551,-0.706499 0.77945,-0.718459 l 1.3175,0.240275 z"
         id="path11587-5"
         sodipodi:nodetypes="csssscc" />
      <path
         style="fill:url(#linearGradient148719);fill-opacity:1;stroke:none;stroke-width:1px;stroke-linecap:butt;stroke-linejoin:miter;stroke-opacity:1"
         d="m -107.05698,88.576379 -13,-3 c -1.48837,-0.34347 -2.64865,-1.5 -3,-2.5 l -6.5,-18.5 c -0.5,-1.423077 0.5,-1.5 2,-1 l 12,4 z"
         id="path3815"
         sodipodi:nodetypes="csssscc" />
      <path
         id="path399834"
         style="fill:#212121;fill-opacity:1;fill-rule:evenodd;stroke-width:9;stroke-linecap:round;stroke-linejoin:round;filter:url(#filter399980);stop-color:#000000"
         d="m -94.995457,73.825395 1.412098,-0.975542 c 0.455804,-0.314896 1.093467,-0.05697 1.345143,0.436565 l 1.313012,2.574792 c 0.251676,0.493533 0.01924,1.030251 -0.436565,1.345143 l -1.412098,0.975542 c -0.4558,0.314884 -1.093467,0.05697 -1.345144,-0.436564 l -1.313011,-2.574792 c -0.251676,-0.493533 -0.01923,-1.030256 0.436565,-1.345144 z"
         sodipodi:nodetypes="sssssssss" />
      <path
         id="rect10885"
         style="fill:url(#linearGradient54634);fill-rule:evenodd;stroke-width:9;stroke-linecap:round;stroke-linejoin:round;stop-color:#000000"
         d="m -94.995726,73.325719 1.412098,-0.975542 c 0.455804,-0.314896 1.093467,-0.05697 1.345143,0.436565 l 1.313012,2.574792 c 0.251676,0.493533 0.01924,1.030251 -0.436565,1.345143 l -1.412098,0.975542 c -0.4558,0.314884 -1.093467,0.05697 -1.345144,-0.436564 l -1.313011,-2.574792 c -0.251676,-0.493533 -0.01923,-1.030256 0.436565,-1.345144 z"
         sodipodi:nodetypes="sssssssss" />
      <path
         style="fill:url(#linearGradient14056);fill-opacity:1;stroke:none;stroke-width:1px;stroke-linecap:butt;stroke-linejoin:miter;stroke-opacity:1"
         d="m -114.55698,67.576379 8.57528,21.243053 12.536056,-8.599411 c 0.99108,-0.679855 1.50888,-2.051117 0.516525,-4.188016 l -7.470431,-16.086536 c -0.49618,-1.06845 -1.65743,-1.10822 -2.65743,-0.36909 z"
         id="path5768"
         sodipodi:nodetypes="ccssssc" />
      <path
         style="fill:none;stroke:url(#linearGradient148822);stroke-width:1px;stroke-linecap:round;stroke-linejoin:miter;stroke-opacity:1"
         d="m -120.55698,81.576379 6.5,1.5"
         id="path7113" />
      <path
         style="fill:none;stroke:url(#linearGradient158833);stroke-width:1px;stroke-linecap:round;stroke-linejoin:miter;stroke-opacity:1"
         d="m -121.05698,79.076379 6.5,1.5"
         id="path7113-3"
         sodipodi:nodetypes="cc" />
      <path
         style="fill:none;stroke:url(#linearGradient158879);stroke-width:1px;stroke-linecap:round;stroke-linejoin:miter;stroke-opacity:1"
         d="m -122.05698,76.576379 4.5,1"
         id="path7393" />
      <path
         style="fill:none;stroke:url(#linearGradient158965);stroke-width:1px;stroke-linecap:round;stroke-linejoin:miter;stroke-opacity:1"
         d="m -123.05698,73.076379 5.42244,1.360446"
         id="path7518"
         sodipodi:nodetypes="cc" />
      <path
         style="fill:none;stroke:url(#linearGradient159011);stroke-width:1px;stroke-linecap:round;stroke-linejoin:miter;stroke-opacity:1"
         d="m -124.09666,70.529396 5.00402,1.221838"
         id="path7871"
         sodipodi:nodetypes="cc" />
      <path
         style="fill:none;stroke:url(#linearGradient159095);stroke-width:1px;stroke-linecap:round;stroke-linejoin:miter;stroke-opacity:1"
         d="M -125.06191,67.563218 -120.06484,69"
         id="path8034" />
      <path
         style="fill:none;stroke:url(#linearGradient148017);stroke-width:1px;stroke-linecap:round;stroke-linejoin:miter;stroke-opacity:1"
         d="m -108.88945,73.182859 6.89906,-4.615543"
         id="path8313"
         sodipodi:nodetypes="cc" />
      <path
         style="fill:none;stroke:url(#linearGradient141810);stroke-width:1px;stroke-linecap:round;stroke-linejoin:miter;stroke-opacity:1"
         d="m -109.86784,70.994825 5.70191,-3.857221"
         id="path8590"
         sodipodi:nodetypes="cc" />
      <path
         style="fill:none;stroke:url(#linearGradient77537);stroke-width:1px;stroke-linecap:round;stroke-linejoin:miter;stroke-opacity:1"
         d="m -110.93028,68.983858 4.25909,-2.867166"
         id="path8753"
         sodipodi:nodetypes="cc" />
      <path
         style="fill:none;stroke:url(#linearGradient148101);stroke-width:1px;stroke-linecap:round;stroke-linejoin:miter;stroke-opacity:1"
         d="m -107.20033,78.235505 4.12306,-2.687006"
         id="path8840" />
      <path
         style="fill:none;stroke:url(#linearGradient148223);stroke-width:1px;stroke-linecap:round;stroke-linejoin:miter;stroke-opacity:1"
         d="m -106.09143,80.409049 5.42117,-3.54713"
         id="path8875"
         sodipodi:nodetypes="cc" />
      <path
         style="fill:none;stroke:url(#linearGradient148307);stroke-width:1px;stroke-linecap:round;stroke-linejoin:miter;stroke-opacity:1"
         d="m -104.96736,82.760889 7.049912,-4.747175"
         id="path9000"
         sodipodi:nodetypes="cc" />
      <path
         style="fill:#416bbf;fill-opacity:1;stroke:url(#linearGradient215569);stroke-width:1px;stroke-linecap:round;stroke-linejoin:miter;stroke-opacity:1"
         d="m -112.27516,68.909181 c -1.31389,-0.538047 -3.15294,-0.523274 -4.15078,0.265836"
         id="path13133"
         sodipodi:nodetypes="cc" />
      <path
         style="fill:#416bbf;fill-opacity:1;stroke:url(#linearGradient246040);stroke-width:1px;stroke-linecap:round;stroke-linejoin:miter;stroke-opacity:1"
         d="m -110.76912,71.669698 c -1.31389,-0.538047 -3.15293,-0.523274 -4.15077,0.265836"
         id="path13133-3"
         sodipodi:nodetypes="cc" />
      <path
         style="fill:#416bbf;fill-opacity:1;stroke:url(#linearGradient246048);stroke-width:1px;stroke-linecap:round;stroke-linejoin:miter;stroke-opacity:1"
         d="m -109.52888,74.514328 c -1.31389,-0.538047 -3.15294,-0.523274 -4.15078,0.265836"
         id="path13133-5"
         sodipodi:nodetypes="cc" />
      <path
         style="fill:#416bbf;fill-opacity:1;stroke:url(#linearGradient246056);stroke-width:1px;stroke-linecap:round;stroke-linejoin:miter;stroke-opacity:1"
         d="m -108.31381,77.716068 c -1.31389,-0.538047 -3.15294,-0.523274 -4.15078,0.265836"
         id="path13133-6"
         sodipodi:nodetypes="cc" />
      <path
         style="fill:#416bbf;fill-opacity:1;stroke:url(#linearGradient246064);stroke-width:1px;stroke-linecap:round;stroke-linejoin:miter;stroke-opacity:1"
         d="m -106.90902,81.164143 c -1.31389,-0.538047 -3.15294,-0.523274 -4.15078,0.265836"
         id="path13133-2"
         sodipodi:nodetypes="cc" />
      <path
         style="fill:#416bbf;fill-opacity:1;stroke:url(#linearGradient246072);stroke-width:1px;stroke-linecap:round;stroke-linejoin:miter;stroke-opacity:1"
         d="m -105.36214,84.970232 c -1.31389,-0.538047 -3.15293,-0.523274 -4.15077,0.265836"
         id="path13133-9"
         sodipodi:nodetypes="cc" />
    </g>
    <path
       id="rect1005"
       style="fill:#212121;fill-opacity:1;stroke:none;stroke-width:5.27863;stroke-linecap:round;stroke-linejoin:round;stroke-miterlimit:4;stroke-dasharray:none;stroke-opacity:1;filter:url(#filter1125)"
       d="m 200.59386,4.4962455 c -5.06514,0 -9.14258,4.077436 -9.14258,9.1425785 v 29.066405 a 27.42857,27.42857 0 0 0 -2.6582,1.060547 l -18.36914,-18.36914 c -3.5816,-3.581597 -9.34809,-3.581597 -12.92969,0 -3.58159,3.581596 -3.58159,9.34809 0,12.929687 l 18.3711,18.371094 a 27.42857,27.42857 0 0 0 -1.06055,2.65625 h -29.06836 c -5.06514,0 -9.14258,4.077435 -9.14258,9.142578 0,5.065143 4.07744,9.142578 9.14258,9.142578 h 29.06836 a 27.42857,27.42857 0 0 0 1.06055,2.65625 l -18.3711,18.371092 c -3.58159,3.581605 -3.58159,9.348105 0,12.929695 3.5816,3.5816 9.34809,3.5816 12.92969,0 l 18.37109,-18.371099 a 27.42857,27.42857 0 0 0 2.65625,1.060547 v 29.068372 c 0,5.06513 4.07744,9.14257 9.14258,9.14257 5.06514,0 9.14258,-4.07744 9.14258,-9.14257 V 94.285308 a 27.42857,27.42857 0 0 0 2.65625,-1.060547 l 18.37109,18.371099 c 3.5816,3.5816 9.34809,3.5816 12.92969,0 3.5816,-3.58159 3.5816,-9.34809 0,-12.929695 L 225.32433,80.297026 a 27.42857,27.42857 0 0 0 1.06055,-2.658203 h 29.0664 c 5.06515,0 9.14258,-4.077435 9.14258,-9.142578 0,-5.065143 -4.07743,-9.142578 -9.14258,-9.142578 h -28.99804 a 27.42857,27.42857 0 0 0 -1.10938,-2.677735 l 18.34961,-18.349609 c 3.5816,-3.581597 3.5816,-9.348091 0,-12.929687 -3.5816,-3.581597 -9.34809,-3.581597 -12.92969,0 L 212.41417,43.746245 A 27.42857,27.42857 0 0 0 209.73644,42.63687 V 13.638824 c 0,-5.0651425 -4.07744,-9.1425785 -9.14258,-9.1425785 z" />
    <g
       transform="matrix(23.03712,0,0,23.03712,210.83226,-60.456412)"
       id="g4993">
      <rect
         ry="0.39687499"
         rx="0.39687499"
         y="0.26458335"
         x="2.6458335"
         height="0.79374999"
         width="5.5562501"
         id="rect4900-2"
         style="fill:#ff3300;fill-opacity:1;stroke:none;stroke-width:0.229136;stroke-linecap:round;stroke-linejoin:round;stroke-miterlimit:4;stroke-dasharray:none;stroke-opacity:1"
         transform="rotate(90)" />
      <rect
         ry="0.39687499"
         rx="0.39687499"
         y="3.9061642"
         x="0.72176301"
         height="0.79374999"
         width="5.2916665"
         id="rect4900-0"
         style="fill:#ff3300;fill-opacity:1;stroke:none;stroke-width:0.229136;stroke-linecap:round;stroke-linejoin:round;stroke-miterlimit:4;stroke-dasharray:none;stroke-opacity:1"
         transform="rotate(45)" />
      <rect
         style="fill:#ff3300;fill-opacity:1;stroke:none;stroke-width:0.229136;stroke-linecap:round;stroke-linejoin:round;stroke-miterlimit:4;stroke-dasharray:none;stroke-opacity:1"
         id="rect4900"
         width="5.5562501"
         height="0.79374999"
         x="-3.4395831"
         y="5.0270834"
         rx="0.39687499"
         ry="0.39687499" />
      <rect
         transform="matrix(-0.70710678,0.70710678,0.70710678,0.70710678,0,0)"
         style="fill:#ff3300;fill-opacity:1;stroke:none;stroke-width:0.229136;stroke-linecap:round;stroke-linejoin:round;stroke-miterlimit:4;stroke-dasharray:none;stroke-opacity:1"
         id="rect4900-0-1"
         width="5.2916665"
         height="0.79374999"
         x="1.6572058"
         y="2.9707212"
         rx="0.39687499"
         ry="0.39687499" />
      <g
         id="g4898"
         transform="translate(-1.1906254)">
        <circle
           r="1.190625"
           cy="5.4239583"
           cx="0.52916735"
           id="path4879"
           style="fill:#ffcc00;fill-opacity:1;stroke:none;stroke-width:0.264583;stroke-linecap:round;stroke-linejoin:round;stroke-miterlimit:4;stroke-dasharray:none;stroke-opacity:1" />
        <circle
           style="fill:#ffff99;fill-opacity:1;stroke:none;stroke-width:0.264583;stroke-linecap:round;stroke-linejoin:round;stroke-miterlimit:4;stroke-dasharray:none;stroke-opacity:1"
           id="path4879-9"
           cx="0.52916735"
           cy="5.4239583"
           r="0.39687493" />
      </g>
    </g>
  </g>
</svg>
