<?xml version="1.0" encoding="UTF-8" standalone="no"?>
<svg
   inkscape:export-ydpi="96"
   inkscape:export-xdpi="96"
   inkscape:export-filename="aggregation.png"
   sodipodi:docname="aggregation.svg"
   inkscape:version="1.3.2 (1:1.3.2+202311252150+091e20ef0f)"
   id="svg8"
   version="1.1"
   viewBox="0 0 48 48"
   height="48"
   width="48"
   xmlns:inkscape="http://www.inkscape.org/namespaces/inkscape"
   xmlns:sodipodi="http://sodipodi.sourceforge.net/DTD/sodipodi-0.dtd"
   xmlns:xlink="http://www.w3.org/1999/xlink"
   xmlns="http://www.w3.org/2000/svg"
   xmlns:svg="http://www.w3.org/2000/svg"
   xmlns:rdf="http://www.w3.org/1999/02/22-rdf-syntax-ns#"
   xmlns:cc="http://creativecommons.org/ns#"
   xmlns:dc="http://purl.org/dc/elements/1.1/">
  <defs
     id="defs2">
    <linearGradient
       id="linearGradient10"
       inkscape:collect="always">
      <stop
         id="stop9"
         offset="0"
         style="stop-color:#003399;stop-opacity:1" />
      <stop
         id="stop10"
         offset="1"
         style="stop-color:#0066cc;stop-opacity:1" />
    </linearGradient>
    <linearGradient
       id="linearGradient5"
       inkscape:collect="always">
      <stop
         id="stop4"
         offset="0"
         style="stop-color:#99ccff;stop-opacity:1" />
      <stop
         id="stop5"
         offset="1"
         style="stop-color:#003399;stop-opacity:1" />
    </linearGradient>
    <linearGradient
       id="linearGradient3"
       inkscape:collect="always">
      <stop
         id="stop1"
         offset="0"
         style="stop-color:#deffff;stop-opacity:1" />
      <stop
         id="stop3"
         offset="1"
         style="stop-color:#0099ff;stop-opacity:1" />
    </linearGradient>
    <linearGradient
       inkscape:collect="always"
       xlink:href="#linearGradient3"
       id="linearGradient1013-6"
       x1="69.297157"
       y1="63.719299"
       x2="73.557251"
       y2="67.979393"
       gradientUnits="userSpaceOnUse"
       gradientTransform="matrix(1.3515226,0,0,1.3515226,-62.588967,-73.618075)" />
    <linearGradient
       inkscape:collect="always"
       xlink:href="#linearGradient5"
       id="linearGradient1031-5"
       x1="68.557251"
       y1="62.979397"
       x2="74.557251"
       y2="68.979393"
       gradientUnits="userSpaceOnUse"
       gradientTransform="matrix(1.3515226,0,0,1.3515226,-62.588967,-73.618075)" />
    <linearGradient
       inkscape:collect="always"
       xlink:href="#linearGradient10"
       id="linearGradient999-6"
       gradientUnits="userSpaceOnUse"
       x1="-87.407677"
       y1="213.56934"
       x2="-87.407677"
       y2="198.56152"
       gradientTransform="matrix(1.6209829,0,0,1.6209829,165.2914,-303.65876)" />
    <linearGradient
       gradientTransform="matrix(-1.6209829,0,0,1.6209829,-106.4253,-316.51425)"
       y2="198.56152"
       x2="-87.407677"
       y1="213.56934"
       x1="-87.407677"
       gradientUnits="userSpaceOnUse"
       id="linearGradient999-6-8"
       xlink:href="#linearGradient10"
       inkscape:collect="always" />
    <linearGradient
       inkscape:collect="always"
       xlink:href="#linearGradient3"
       id="linearGradient6"
       gradientUnits="userSpaceOnUse"
       gradientTransform="matrix(1.3515226,0,0,1.3515226,-70.588967,-64.618075)"
       x1="69.297157"
       y1="63.719299"
       x2="73.557251"
       y2="67.979393" />
    <linearGradient
       inkscape:collect="always"
       xlink:href="#linearGradient5"
       id="linearGradient7"
       gradientUnits="userSpaceOnUse"
       gradientTransform="matrix(1.3515226,0,0,1.3515226,-70.588967,-64.618075)"
       x1="68.557251"
       y1="62.979397"
       x2="74.557251"
       y2="68.979393" />
    <linearGradient
       inkscape:collect="always"
       xlink:href="#linearGradient3"
       id="linearGradient8"
       gradientUnits="userSpaceOnUse"
       gradientTransform="matrix(1.3515226,0,0,1.3515226,-70.588967,-55.618075)"
       x1="69.297157"
       y1="63.719299"
       x2="73.557251"
       y2="67.979393" />
    <linearGradient
       inkscape:collect="always"
       xlink:href="#linearGradient5"
       id="linearGradient9"
       gradientUnits="userSpaceOnUse"
       gradientTransform="matrix(1.3515226,0,0,1.3515226,-70.588967,-55.618075)"
       x1="68.557251"
       y1="62.979397"
       x2="74.557251"
       y2="68.979393" />
  </defs>
  <sodipodi:namedview
     inkscape:snap-global="true"
     inkscape:bbox-paths="false"
     fit-margin-bottom="0"
     fit-margin-right="0"
     fit-margin-left="0"
     fit-margin-top="0"
     inkscape:bbox-nodes="true"
     inkscape:snap-bbox="true"
     inkscape:window-maximized="1"
     inkscape:window-y="0"
     inkscape:window-x="0"
     inkscape:window-height="2058"
     inkscape:window-width="3840"
     units="px"
     showgrid="true"
     inkscape:document-rotation="0"
     inkscape:current-layer="layer1"
     inkscape:document-units="px"
     inkscape:cy="22.171875"
     inkscape:cx="10.109375"
     inkscape:zoom="32"
     inkscape:pageshadow="2"
     inkscape:pageopacity="0.0"
     borderopacity="1.0"
     bordercolor="#666666"
     pagecolor="#ffffff"
     id="base"
     showguides="false"
     inkscape:pagecheckerboard="0"
     inkscape:showpageshadow="2"
     inkscape:deskcolor="#d1d1d1">
    <inkscape:grid
       originy="0"
       originx="0"
       id="grid1504"
       type="xygrid"
       spacingy="1"
       spacingx="1"
       units="px"
       visible="true" />
    <inkscape:grid
       spacingy="0.5"
       spacingx="0.5"
       id="grid1035"
       type="xygrid"
       originx="0"
       originy="0"
       units="px"
       visible="true" />
  </sodipodi:namedview>
  <metadata
     id="metadata5">
    <rdf:RDF>
      <cc:Work
         rdf:about="">
        <dc:format>image/svg+xml</dc:format>
        <dc:type
           rdf:resource="http://purl.org/dc/dcmitype/StillImage" />
      </cc:Work>
    </rdf:RDF>
  </metadata>
  <g
     transform="translate(-12.567709)"
     id="layer1"
     inkscape:groupmode="layer"
     inkscape:label="Layer 1">
    <rect
       y="11.5"
       x="30.067709"
       height="8"
       width="8"
       id="rect1005-9"
       style="fill:url(#linearGradient1013-6);fill-opacity:1;fill-rule:evenodd;stroke:url(#linearGradient1031-5);stroke-width:1;stroke-linecap:round;stroke-linejoin:round;stroke-miterlimit:4;stroke-dasharray:none;stroke-opacity:1" />
    <rect
       y="20.5"
       x="22.067709"
       height="8"
       width="8"
       id="rect1005-9-3"
       style="fill:url(#linearGradient6);fill-opacity:1;fill-rule:evenodd;stroke:url(#linearGradient7);stroke-width:1;stroke-linecap:round;stroke-linejoin:round;stroke-miterlimit:4;stroke-dasharray:none;stroke-opacity:1" />
    <rect
       y="29.5"
       x="22.067709"
       height="8"
       width="8"
       id="rect1005-9-3-1"
       style="fill:url(#linearGradient8);fill-opacity:1;fill-rule:evenodd;stroke:url(#linearGradient9);stroke-width:1;stroke-linecap:round;stroke-linejoin:round;stroke-miterlimit:4;stroke-dasharray:none;stroke-opacity:1" />
    <path
       d="m 19.887465,42.591446 h -0.696517 q -1.051105,0 -1.823604,-0.202624 -0.759838,-0.189958 -1.329716,-0.949803 -0.557209,-0.747152 -0.709179,-1.772943 -0.139304,-1.025776 -0.139304,-3.001351 0,-1.975575 -0.139305,-2.925376 -0.139304,-0.949774 -0.709182,-1.595636 -0.557211,-0.658528 -1.772949,-0.683872 v -2.064199 q 1.215738,-0.02523 1.772949,-0.671204 0.569879,-0.658528 0.709182,-1.608305 0.139305,-0.949803 0.139305,-2.925371 0,-1.975576 0.139304,-3.001351 0.151971,-1.025793 0.709179,-1.772952 0.569878,-0.759837 1.329716,-0.949799 0.772499,-0.202621 1.823604,-0.202621 h 0.696517 v 1.975574 h -0.392582 q -1.317047,0 -1.620981,0.696521 -0.291271,0.696503 -0.291271,3.761183 0,2.748065 -0.721844,4.014455 -0.721847,1.266398 -2.19086,1.722293 1.469013,0.443249 2.19086,1.709648 0.721844,1.26639 0.721844,4.014452 0,3.064683 0.291271,3.761184 0.303934,0.696519 1.620981,0.696519 h 0.392582 z"
       style="font-style:normal;font-variant:normal;font-weight:bold;font-stretch:normal;font-size:16px;line-height:1.25;font-family:'Microsoft Sans Serif';-inkscape-font-specification:'Microsoft Sans Serif Bold';text-align:center;letter-spacing:0px;word-spacing:0px;text-anchor:middle;fill:url(#linearGradient999-6);fill-opacity:1;stroke-width:1.62098"
       id="path1027-1" />
    <path
       id="path1027-1-2"
       style="font-style:normal;font-variant:normal;font-weight:bold;font-stretch:normal;font-size:16px;line-height:1.25;font-family:'Microsoft Sans Serif';-inkscape-font-specification:'Microsoft Sans Serif Bold';text-align:center;letter-spacing:0px;word-spacing:0px;text-anchor:middle;fill:url(#linearGradient999-6-8);fill-opacity:1;stroke-width:1.62098"
       d="m 38.978625,29.735961 h 0.696517 q 1.051105,0 1.823604,-0.202623 0.759839,-0.189959 1.329715,-0.949803 0.55721,-0.747152 0.70918,-1.772943 0.139303,-1.025774 0.139303,-3.001351 0,-1.975576 0.139306,-2.925377 0.139305,-0.949773 0.709181,-1.595636 0.557212,-0.658528 1.772951,-0.683871 v -2.064199 q -1.215739,-0.02523 -1.772951,-0.671204 -0.569878,-0.658528 -0.709181,-1.608305 -0.139306,-0.949803 -0.139306,-2.925372 0,-1.9755747 -0.139303,-3.0013506 Q 43.38567,7.3081343 42.828461,6.5609747 42.258585,5.8011379 41.498746,5.611176 40.726247,5.4085545 39.675142,5.4085545 H 38.978625 V 7.384129 h 0.392582 q 1.317047,0 1.620981,0.6965207 0.291271,0.6965032 0.291271,3.7611823 0,2.748065 0.721844,4.014456 0.721848,1.266396 2.190861,1.722294 -1.469013,0.443247 -2.190861,1.709646 -0.721844,1.266391 -0.721844,4.014452 0,3.064684 -0.291271,3.761185 -0.303934,0.696519 -1.620981,0.696519 h -0.392582 z" />
    <g
       aria-label="Σ"
       id="text1160"
       style="font-style:normal;font-variant:normal;font-weight:bold;font-stretch:normal;font-size:16px;line-height:1.25;font-family:'Noto Serif';-inkscape-font-specification:'Noto Serif Bold';text-align:center;letter-spacing:0px;word-spacing:0px;text-anchor:middle"
       transform="matrix(1.3515226,0,0,1.3515226,-71.779405,-64.880547)">
      <path
         d="m 87.288738,65.361153 v -0.992 l 3.296,-4.528 -2.944,-5.28 v -0.624 h 7.984 l 0.08,2.96 h -0.992 l -0.08,-0.848 c -0.04267,-0.352 -0.170667,-0.629333 -0.384,-0.832 -0.202667,-0.202667 -0.544,-0.304 -1.024,-0.304 h -3.072 l 2.224,4.016 v 0.24 l -3.290657,4.764298 h 4.051594 c 0.501333,0 0.864,-0.144 1.088,-0.432 0.224,-0.288 0.362666,-0.650667 0.416,-1.088 l 0.064,-0.48 h 0.992 l -0.131232,3.427702 z"
         style="font-style:normal;font-variant:normal;font-weight:bold;font-stretch:normal;font-family:'Noto Serif';-inkscape-font-specification:'Noto Serif Bold'"
         id="path1162"
         sodipodi:nodetypes="ccccccccccsccccssccccc" />
    </g>
  </g>
</svg>
