<?xml version="1.0" encoding="UTF-8" standalone="no"?>
<svg
   inkscape:export-ydpi="96"
   inkscape:export-xdpi="96"
   inkscape:export-filename="aggregation.png"
   sodipodi:docname="aggregation.16.svg"
   inkscape:version="1.3.2 (1:1.3.2+202311252150+091e20ef0f)"
   id="svg8"
   version="1.1"
   viewBox="0 0 16 16"
   height="16"
   width="16"
   xmlns:inkscape="http://www.inkscape.org/namespaces/inkscape"
   xmlns:sodipodi="http://sodipodi.sourceforge.net/DTD/sodipodi-0.dtd"
   xmlns:xlink="http://www.w3.org/1999/xlink"
   xmlns="http://www.w3.org/2000/svg"
   xmlns:svg="http://www.w3.org/2000/svg"
   xmlns:rdf="http://www.w3.org/1999/02/22-rdf-syntax-ns#"
   xmlns:cc="http://creativecommons.org/ns#"
   xmlns:dc="http://purl.org/dc/elements/1.1/">
  <defs
     id="defs2">
    <linearGradient
       id="linearGradient10"
       inkscape:collect="always">
      <stop
         id="stop9"
         offset="0"
         style="stop-color:#003399;stop-opacity:1" />
      <stop
         id="stop10"
         offset="1"
         style="stop-color:#0066cc;stop-opacity:1" />
    </linearGradient>
    <linearGradient
       id="linearGradient5"
       inkscape:collect="always">
      <stop
         id="stop4"
         offset="0"
         style="stop-color:#99ccff;stop-opacity:1" />
      <stop
         id="stop5"
         offset="1"
         style="stop-color:#003399;stop-opacity:1" />
    </linearGradient>
    <linearGradient
       id="linearGradient3"
       inkscape:collect="always">
      <stop
         id="stop1"
         offset="0"
         style="stop-color:#deffff;stop-opacity:1" />
      <stop
         id="stop3"
         offset="1"
         style="stop-color:#0099ff;stop-opacity:1" />
    </linearGradient>
    <linearGradient
       inkscape:collect="always"
       xlink:href="#linearGradient10"
       id="linearGradient999-6"
       gradientUnits="userSpaceOnUse"
       x1="-87.407677"
       y1="213.56934"
       x2="-87.407677"
       y2="198.56152"
       gradientTransform="matrix(0.53305575,0,0,0.53305575,62.790483,-99.863421)" />
    <linearGradient
       gradientTransform="matrix(-0.54034555,0,0,0.54032761,-27.410766,-105.30759)"
       y2="198.56152"
       x2="-87.407677"
       y1="213.56934"
       x1="-87.407677"
       gradientUnits="userSpaceOnUse"
       id="linearGradient999-6-8"
       xlink:href="#linearGradient10"
       inkscape:collect="always" />
    <linearGradient
       inkscape:collect="always"
       xlink:href="#linearGradient3"
       id="linearGradient8"
       gradientUnits="userSpaceOnUse"
       gradientTransform="matrix(0.45050752,0,0,0.45050752,-26.984515,-16.706024)"
       x1="69.297157"
       y1="63.719299"
       x2="73.557251"
       y2="67.979393" />
    <linearGradient
       inkscape:collect="always"
       xlink:href="#linearGradient5"
       id="linearGradient9"
       gradientUnits="userSpaceOnUse"
       gradientTransform="matrix(0.45050752,0,0,0.45050752,-26.984515,-16.706024)"
       x1="68.557251"
       y1="62.979397"
       x2="74.557251"
       y2="68.979393" />
    <linearGradient
       inkscape:collect="always"
       xlink:href="#linearGradient3"
       id="linearGradient11"
       gradientUnits="userSpaceOnUse"
       gradientTransform="matrix(0.45050752,0,0,0.45050752,-13.817849,-22.872691)"
       x1="69.297157"
       y1="63.719299"
       x2="73.557251"
       y2="67.979393" />
    <linearGradient
       inkscape:collect="always"
       xlink:href="#linearGradient5"
       id="linearGradient12"
       gradientUnits="userSpaceOnUse"
       gradientTransform="matrix(0.45050752,0,0,0.45050752,-13.817849,-22.872691)"
       x1="68.557251"
       y1="62.979397"
       x2="74.557251"
       y2="68.979393" />
    <linearGradient
       inkscape:collect="always"
       xlink:href="#linearGradient3"
       id="linearGradient13"
       gradientUnits="userSpaceOnUse"
       gradientTransform="matrix(0.45050752,0,0,0.45050752,-14.817849,-18.872691)"
       x1="69.297157"
       y1="63.719299"
       x2="73.557251"
       y2="67.979393" />
    <linearGradient
       inkscape:collect="always"
       xlink:href="#linearGradient5"
       id="linearGradient14"
       gradientUnits="userSpaceOnUse"
       gradientTransform="matrix(0.45050752,0,0,0.45050752,-14.817849,-18.872691)"
       x1="68.557251"
       y1="62.979397"
       x2="74.557251"
       y2="68.979393" />
  </defs>
  <sodipodi:namedview
     inkscape:snap-global="true"
     inkscape:bbox-paths="false"
     fit-margin-bottom="0"
     fit-margin-right="0"
     fit-margin-left="0"
     fit-margin-top="0"
     inkscape:bbox-nodes="true"
     inkscape:snap-bbox="true"
     inkscape:window-maximized="1"
     inkscape:window-y="0"
     inkscape:window-x="0"
     inkscape:window-height="2058"
     inkscape:window-width="3840"
     units="px"
     showgrid="true"
     inkscape:document-rotation="0"
     inkscape:current-layer="layer1"
     inkscape:document-units="px"
     inkscape:cy="6.3515625"
     inkscape:cx="1.0703125"
     inkscape:zoom="64"
     inkscape:pageshadow="2"
     inkscape:pageopacity="0.0"
     borderopacity="1.0"
     bordercolor="#666666"
     pagecolor="#ffffff"
     id="base"
     showguides="false"
     inkscape:pagecheckerboard="0"
     inkscape:showpageshadow="2"
     inkscape:deskcolor="#d1d1d1">
    <inkscape:grid
       originy="0"
       originx="0"
       id="grid1504"
       type="xygrid"
       spacingy="1"
       spacingx="1"
       units="px"
       visible="true" />
    <inkscape:grid
       spacingy="0.5"
       spacingx="0.5"
       id="grid1035"
       type="xygrid"
       originx="0"
       originy="0"
       units="px"
       visible="true" />
  </sodipodi:namedview>
  <metadata
     id="metadata5">
    <rdf:RDF>
      <cc:Work
         rdf:about="">
        <dc:format>image/svg+xml</dc:format>
        <dc:type
           rdf:resource="http://purl.org/dc/dcmitype/StillImage" />
      </cc:Work>
    </rdf:RDF>
  </metadata>
  <g
     transform="translate(-12.567709)"
     id="layer1"
     inkscape:groupmode="layer"
     inkscape:label="Layer 1">
    <rect
       y="5.5000005"
       x="17.067709"
       height="3"
       width="3"
       id="rect1005-9-3-3"
       style="fill:url(#linearGradient11);fill-opacity:1;fill-rule:evenodd;stroke:url(#linearGradient12);stroke-width:0.75;stroke-linecap:round;stroke-linejoin:round;stroke-miterlimit:4;stroke-dasharray:none;stroke-opacity:1" />
    <rect
       y="9.5"
       x="16.067709"
       height="3"
       width="3"
       id="rect1005-9-3-3-6"
       style="fill:url(#linearGradient13);fill-opacity:1;fill-rule:evenodd;stroke:url(#linearGradient14);stroke-width:0.75;stroke-linecap:round;stroke-linejoin:round;stroke-miterlimit:4;stroke-dasharray:none;stroke-opacity:1" />
    <rect
       y="11.666667"
       x="3.9010429"
       height="2.6666665"
       width="2.6666665"
       id="rect1005-9-3-1"
       style="fill:url(#linearGradient8);fill-opacity:1;fill-rule:evenodd;stroke:url(#linearGradient9);stroke-width:0.333333;stroke-linecap:round;stroke-linejoin:round;stroke-miterlimit:4;stroke-dasharray:none;stroke-opacity:1" />
    <path
       d="m 14.974801,14 h -0.229049 q -0.345652,0 -0.599687,-0.06663 -0.24987,-0.06247 -0.437272,-0.31234 -0.183238,-0.245699 -0.233212,-0.583027 -0.04582,-0.337325 -0.04582,-0.986987 0,-0.649662 -0.04581,-0.962002 -0.0458,-0.31233 -0.233213,-0.524719 -0.183237,-0.216556 -0.583029,-0.22489 V 9.6605968 q 0.399792,-0.0083 0.583029,-0.2207241 0.187404,-0.2165548 0.233213,-0.528886 0.04581,-0.3123401 0.04581,-0.9620006 0,-0.6496624 0.04582,-0.9869857 Q 13.525561,6.6246712 13.708793,6.37897 13.896195,6.1290995 14.146065,6.066631 14.4001,6 14.745752,6 h 0.229049 v 0.6496613 h -0.1291 q -0.433108,0 -0.533055,0.2290494 -0.09578,0.2290434 -0.09578,1.236855 0,0.9036929 -0.237376,1.3201418 -0.237378,0.4164513 -0.720459,0.5663715 0.483081,0.145762 0.720459,0.562214 0.237376,0.416448 0.237376,1.32014 0,1.007813 0.09578,1.236855 0.09995,0.229049 0.533055,0.229049 h 0.1291 z"
       style="font-style:normal;font-variant:normal;font-weight:bold;font-stretch:normal;font-size:16px;line-height:1.25;font-family:'Microsoft Sans Serif';-inkscape-font-specification:'Microsoft Sans Serif Bold';text-align:center;letter-spacing:0px;word-spacing:0px;text-anchor:middle;fill:url(#linearGradient999-6);fill-opacity:1;stroke-width:0.533055"
       id="path1027-1" />
    <path
       id="path1027-1-2"
       style="font-style:normal;font-variant:normal;font-weight:bold;font-stretch:normal;font-size:16px;line-height:1.25;font-family:'Microsoft Sans Serif';-inkscape-font-specification:'Microsoft Sans Serif Bold';text-align:center;letter-spacing:0px;word-spacing:0px;text-anchor:middle;fill:url(#linearGradient999-6-8);fill-opacity:1;stroke-width:0.540336"
       d="m 21.058816,10.109135 h 0.232181 q 0.350379,0 0.607887,-0.06754 0.253288,-0.06332 0.443254,-0.316601 0.185742,-0.249051 0.2364,-0.590981 0.04643,-0.341925 0.04643,-1.000451 0,-0.658525 0.04644,-0.975125 0.04643,-0.316591 0.2364,-0.531879 0.185745,-0.2195092 0.591004,-0.2279569 V 5.7105338 q -0.405259,-0.00841 -0.591004,-0.2237346 -0.189965,-0.2195094 -0.2364,-0.5361017 -0.04644,-0.316601 -0.04644,-0.9751239 0,-0.6585249 -0.04643,-1.0004502 -0.05066,-0.3419307 -0.2364,-0.5909839 Q 22.152172,2.1308606 21.898884,2.06754 21.641376,2 21.290997,2 h -0.232181 v 0.6585248 h 0.130865 q 0.439031,0 0.540345,0.2321736 0.09709,0.2321677 0.09709,1.2537273 0,0.9160216 0.240622,1.338152 0.240624,0.4221319 0.730312,0.5740979 -0.489688,0.147749 -0.730312,0.5698819 -0.240622,0.42213 -0.240622,1.338151 0,1.021561 -0.09709,1.253728 -0.101314,0.232173 -0.540345,0.232173 h -0.130865 z" />
    <g
       aria-label="Σ"
       id="text1160"
       style="font-style:normal;font-variant:normal;font-weight:bold;font-stretch:normal;font-size:16px;line-height:1.25;font-family:'Noto Serif';-inkscape-font-specification:'Noto Serif Bold';text-align:center;letter-spacing:0px;word-spacing:0px;text-anchor:middle"
       transform="matrix(0.48144258,0,0,0.48144258,-18.456806,-22.967641)">
      <path
         d="m 87.288738,65.361153 v -0.992 l 3.296,-4.528 -2.944,-5.28 v -0.624 h 7.984 l 0.08,2.96 h -0.992 l -0.08,-0.848 c -0.04267,-0.352 -0.170667,-0.629333 -0.384,-0.832 -0.202667,-0.202667 -0.544,-0.304 -1.024,-0.304 h -3.072 l 2.224,4.016 v 0.24 l -3.290657,4.764298 h 4.051594 c 0.501333,0 0.864,-0.144 1.088,-0.432 0.224,-0.288 0.362666,-0.650667 0.416,-1.088 l 0.064,-0.48 h 0.992 l -0.131232,3.427702 z"
         style="font-style:normal;font-variant:normal;font-weight:bold;font-stretch:normal;font-family:'Noto Serif';-inkscape-font-specification:'Noto Serif Bold'"
         id="path1162"
         sodipodi:nodetypes="ccccccccccsccccssccccc" />
    </g>
  </g>
</svg>
