<?xml version="1.0" encoding="UTF-8" standalone="no"?>
<svg
   inkscape:export-ydpi="96"
   inkscape:export-xdpi="96"
   inkscape:export-filename="aggregation.png"
   sodipodi:docname="aggregation.svg"
   inkscape:version="1.1.2 (0a00cf5339, 2022-02-04)"
   id="svg8"
   version="1.1"
   viewBox="0 0 256 256"
   height="256"
   width="256"
   xmlns:inkscape="http://www.inkscape.org/namespaces/inkscape"
   xmlns:sodipodi="http://sodipodi.sourceforge.net/DTD/sodipodi-0.dtd"
   xmlns:xlink="http://www.w3.org/1999/xlink"
   xmlns="http://www.w3.org/2000/svg"
   xmlns:svg="http://www.w3.org/2000/svg"
   xmlns:rdf="http://www.w3.org/1999/02/22-rdf-syntax-ns#"
   xmlns:cc="http://creativecommons.org/ns#"
   xmlns:dc="http://purl.org/dc/elements/1.1/">
  <defs
     id="defs2">
    <linearGradient
       id="linearGradient1029"
       inkscape:collect="always">
      <stop
         id="stop1025"
         offset="0"
         style="stop-color:#a2c2ff;stop-opacity:1" />
      <stop
         id="stop1027"
         offset="1"
         style="stop-color:#3067d3;stop-opacity:1" />
    </linearGradient>
    <linearGradient
       id="linearGradient1011"
       inkscape:collect="always">
      <stop
         id="stop1007"
         offset="0"
         style="stop-color:#b1ebfc;stop-opacity:1" />
      <stop
         style="stop-color:#8bdbf1;stop-opacity:1"
         offset="0.49999958"
         id="stop1033" />
      <stop
         id="stop1009"
         offset="1"
         style="stop-color:#5bc5e4;stop-opacity:1" />
    </linearGradient>
    <linearGradient
       id="linearGradient1050"
       inkscape:collect="always">
      <stop
         id="stop1046"
         offset="0"
         style="stop-color:#2b5b95;stop-opacity:1" />
      <stop
         id="stop1048"
         offset="1"
         style="stop-color:#6d83e3;stop-opacity:1" />
    </linearGradient>
    <linearGradient
       gradientTransform="matrix(7.3582896,0,0,7.3582896,-442.49718,-358.92065)"
       gradientUnits="userSpaceOnUse"
       y2="67.979393"
       x2="73.557251"
       y1="63.979397"
       x1="69.557251"
       id="linearGradient1013"
       xlink:href="#linearGradient1011"
       inkscape:collect="always" />
    <linearGradient
       gradientTransform="matrix(7.3582896,0,0,7.3582896,-442.49718,-358.92065)"
       gradientUnits="userSpaceOnUse"
       y2="68.979393"
       x2="74.557251"
       y1="62.979397"
       x1="68.557251"
       id="linearGradient1031"
       xlink:href="#linearGradient1029"
       inkscape:collect="always" />
    <linearGradient
       inkscape:collect="always"
       xlink:href="#linearGradient1011"
       id="linearGradient1013-6"
       x1="69.557251"
       y1="63.979397"
       x2="73.557251"
       y2="67.979393"
       gradientUnits="userSpaceOnUse"
       gradientTransform="matrix(7.3582896,0,0,7.3582896,-398.34745,-408.07037)" />
    <linearGradient
       inkscape:collect="always"
       xlink:href="#linearGradient1029"
       id="linearGradient1031-5"
       x1="68.557251"
       y1="62.979397"
       x2="74.557251"
       y2="68.979393"
       gradientUnits="userSpaceOnUse"
       gradientTransform="matrix(7.3582896,0,0,7.3582896,-398.34745,-408.07037)" />
    <linearGradient
       gradientTransform="matrix(7.3582896,0,0,7.3582896,-442.4972,-309.42063)"
       gradientUnits="userSpaceOnUse"
       y2="67.979393"
       x2="73.557251"
       y1="63.979397"
       x1="69.557251"
       id="linearGradient1013-6-1"
       xlink:href="#linearGradient1011"
       inkscape:collect="always" />
    <linearGradient
       gradientTransform="matrix(7.3582896,0,0,7.3582896,-442.4972,-309.42063)"
       gradientUnits="userSpaceOnUse"
       y2="68.979393"
       x2="74.557251"
       y1="62.979397"
       x1="68.557251"
       id="linearGradient1031-5-9"
       xlink:href="#linearGradient1029"
       inkscape:collect="always" />
    <linearGradient
       inkscape:collect="always"
       xlink:href="#linearGradient1050"
       id="linearGradient999-6"
       gradientUnits="userSpaceOnUse"
       x1="-87.407677"
       y1="213.56934"
       x2="-87.407677"
       y2="198.56152"
       gradientTransform="matrix(8.8253515,0,0,8.8253515,844.46552,-1662.6353)" />
    <linearGradient
       gradientTransform="matrix(-8.8253515,0,0,8.8253515,-634.88096,-1732.6263)"
       y2="198.56152"
       x2="-87.407677"
       y1="213.56934"
       x1="-87.407677"
       gradientUnits="userSpaceOnUse"
       id="linearGradient999-6-8"
       xlink:href="#linearGradient1050"
       inkscape:collect="always" />
    <filter
       height="1.1621537"
       y="-0.081076852"
       width="1.5389221"
       x="-0.26946103"
       id="filter1693"
       style="color-interpolation-filters:sRGB"
       inkscape:collect="always">
      <feGaussianBlur
         id="feGaussianBlur1695"
         stdDeviation="4.4196132"
         inkscape:collect="always" />
    </filter>
    <filter
       height="1.2554943"
       y="-0.12774714"
       width="1.3468116"
       x="-0.17340581"
       id="filter1697"
       style="color-interpolation-filters:sRGB"
       inkscape:collect="always">
      <feGaussianBlur
         id="feGaussianBlur1699"
         stdDeviation="4.4196132"
         inkscape:collect="always" />
    </filter>
    <filter
       height="1.1449862"
       y="-0.072493105"
       width="1.229376"
       x="-0.114688"
       id="filter1701"
       style="color-interpolation-filters:sRGB"
       inkscape:collect="always">
      <feGaussianBlur
         id="feGaussianBlur1703"
         stdDeviation="4.4196132"
         inkscape:collect="always" />
    </filter>
    <filter
       height="1.1621537"
       y="-0.081076849"
       width="1.5389222"
       x="-0.2694611"
       id="filter1705"
       style="color-interpolation-filters:sRGB"
       inkscape:collect="always">
      <feGaussianBlur
         id="feGaussianBlur1707"
         stdDeviation="4.4196132"
         inkscape:collect="always" />
    </filter>
  </defs>
  <sodipodi:namedview
     inkscape:snap-global="true"
     inkscape:bbox-paths="false"
     fit-margin-bottom="0"
     fit-margin-right="0"
     fit-margin-left="0"
     fit-margin-top="0"
     inkscape:bbox-nodes="true"
     inkscape:snap-bbox="true"
     inkscape:window-maximized="1"
     inkscape:window-y="0"
     inkscape:window-x="0"
     inkscape:window-height="2043"
     inkscape:window-width="3840"
     units="px"
     showgrid="false"
     inkscape:document-rotation="0"
     inkscape:current-layer="layer1"
     inkscape:document-units="px"
     inkscape:cy="129.7541"
     inkscape:cx="89.802562"
     inkscape:zoom="5.6568542"
     inkscape:pageshadow="2"
     inkscape:pageopacity="0.0"
     borderopacity="1.0"
     bordercolor="#666666"
     pagecolor="#ffffff"
     id="base"
     showguides="false"
     inkscape:pagecheckerboard="0">
    <inkscape:grid
       originy="0"
       originx="0"
       id="grid1504"
       type="xygrid" />
    <inkscape:grid
       spacingy="0.5"
       spacingx="0.5"
       id="grid1035"
       type="xygrid" />
  </sodipodi:namedview>
  <metadata
     id="metadata5">
    <rdf:RDF>
      <cc:Work
         rdf:about="">
        <dc:format>image/svg+xml</dc:format>
        <dc:type
           rdf:resource="http://purl.org/dc/dcmitype/StillImage" />
      </cc:Work>
    </rdf:RDF>
  </metadata>
  <g
     transform="translate(-12.567709)"
     id="layer1"
     inkscape:groupmode="layer"
     inkscape:label="Layer 1">
    <path
       d="m 109.57357,63.000092 a 2.6341135,2.6341135 0 0 0 -2.63477,2.632812 v 43.609376 a 2.6341135,2.6341135 0 0 0 1.35938,2.30469 H 65.964193 a 2.6341135,2.6341135 0 0 0 -2.634765,2.63476 v 43.60938 a 2.6341135,2.6341135 0 0 0 2.634765,2.63281 h 43.609377 a 2.6341135,2.6341135 0 0 0 2.63281,-2.63281 v -43.60938 a 2.6341135,2.6341135 0 0 0 -1.35742,-2.30469 h 42.33398 a 2.6341135,2.6341135 0 0 0 2.63282,-2.63476 V 65.632904 a 2.6341135,2.6341135 0 0 0 -2.63282,-2.632812 z M 65.964193,160.4415 a 2.6341135,2.6341135 0 0 0 -2.634765,2.63476 v 43.60742 a 2.6341135,2.6341135 0 0 0 2.634765,2.63477 h 43.609377 a 2.6341135,2.6341135 0 0 0 2.63281,-2.63477 v -43.60742 a 2.6341135,2.6341135 0 0 0 -2.63281,-2.63476 z"
       style="color:#000000;font-style:normal;font-variant:normal;font-weight:normal;font-stretch:normal;font-size:medium;line-height:normal;font-family:sans-serif;font-variant-ligatures:normal;font-variant-position:normal;font-variant-caps:normal;font-variant-numeric:normal;font-variant-alternates:normal;font-variant-east-asian:normal;font-feature-settings:normal;font-variation-settings:normal;text-indent:0;text-align:start;text-decoration:none;text-decoration-line:none;text-decoration-style:solid;text-decoration-color:#000000;letter-spacing:normal;word-spacing:normal;text-transform:none;writing-mode:lr-tb;direction:ltr;text-orientation:mixed;dominant-baseline:auto;baseline-shift:baseline;text-anchor:start;white-space:normal;shape-padding:0;shape-margin:0;inline-size:0;clip-rule:nonzero;display:inline;overflow:visible;visibility:visible;isolation:auto;mix-blend-mode:normal;color-interpolation:sRGB;color-interpolation-filters:linearRGB;solid-color:#000000;solid-opacity:1;vector-effect:none;fill:#0d1a33;fill-opacity:1;fill-rule:evenodd;stroke:none;stroke-width:5.2677;stroke-linecap:round;stroke-linejoin:round;stroke-miterlimit:4;stroke-dasharray:none;stroke-dashoffset:0;stroke-opacity:1;filter:url(#filter1701);color-rendering:auto;image-rendering:auto;shape-rendering:auto;text-rendering:auto;enable-background:accumulate;stop-color:#000000"
       id="path1676" />
    <path
       d="m 56.931729,230.74132 h -3.745712 q -5.652608,0 -9.806937,-1.08966 -4.086241,-1.02156 -7.150916,-5.10783 -2.99655,-4.01802 -3.813807,-9.5345 -0.749147,-5.51639 -0.749147,-16.14059 0,-10.62421 -0.749154,-15.73203 -0.749147,-5.10767 -3.813822,-8.58097 -2.996557,-3.54142 -9.534525,-3.67771 v -11.10081 q 6.537968,-0.1357 9.534525,-3.60958 3.064683,-3.54142 3.813822,-8.64911 0.749154,-5.10783 0.749154,-15.732 0,-10.6242 0.749147,-16.1406 0.817264,-5.51648 3.813807,-9.53454 3.064675,-4.08623 7.150916,-5.1078 4.154329,-1.089654 9.806937,-1.089654 h 3.745712 v 10.624194 h -2.11122 q -7.082784,0 -8.717276,3.74574 -1.566388,3.74564 -1.566388,20.2268 0,14.77849 -3.881918,21.58885 -3.881932,6.81041 -11.781958,9.26211 7.900026,2.38369 11.781958,9.19411 3.881918,6.81036 3.881918,21.58883 0,16.48118 1.566388,20.22681 1.634492,3.74573 8.717276,3.74573 h 2.11122 z"
       style="font-style:normal;font-variant:normal;font-weight:bold;font-stretch:normal;font-size:16px;line-height:1.25;font-family:'Microsoft Sans Serif';-inkscape-font-specification:'Microsoft Sans Serif Bold';text-align:center;letter-spacing:0px;word-spacing:0px;text-anchor:middle;fill:#0d1a33;fill-opacity:1;stroke-width:8.71725;filter:url(#filter1705)"
       id="path1595" />
    <path
       id="path1597"
       style="font-style:normal;font-variant:normal;font-weight:bold;font-stretch:normal;font-size:16px;line-height:1.25;font-family:'Microsoft Sans Serif';-inkscape-font-specification:'Microsoft Sans Serif Bold';text-align:center;letter-spacing:0px;word-spacing:0px;text-anchor:middle;fill:#0d1a33;fill-opacity:1;stroke-width:8.71725;filter:url(#filter1693)"
       d="m 159.59974,161.60738 h 3.74572 q 5.65261,0 9.80694,-1.08966 4.08624,-1.02155 7.15091,-5.10783 2.99655,-4.01802 3.81381,-9.53449 0.74914,-5.51639 0.74914,-16.1406 0,-10.62421 0.74915,-15.73203 0.74916,-5.10767 3.81383,-8.58097 2.99656,-3.54142 9.53453,-3.67771 V 90.643289 q -6.53797,-0.135696 -9.53453,-3.609586 -3.06468,-3.541417 -3.81383,-8.649107 -0.74915,-5.107828 -0.74915,-15.732 0,-10.624201 -0.74914,-16.140596 -0.81727,-5.516482 -3.81381,-9.53454 -3.06467,-4.086233 -7.15091,-5.107806 Q 168.99807,30.78 163.34546,30.78 h -3.74572 v 10.624201 h 2.11122 q 7.08279,0 8.71728,3.745733 1.56639,3.74564 1.56639,20.2268 0,14.778487 3.88191,21.588852 3.88194,6.810401 11.78197,9.262114 -7.90003,2.383689 -11.78197,9.1941 -3.88191,6.81036 -3.88191,21.58883 0,16.48119 -1.56639,20.22681 -1.63449,3.74573 -8.71728,3.74573 h -2.11122 z" />
    <path
       sodipodi:nodetypes="ccccccccccsccccssccccc"
       id="path1599"
       style="font-style:normal;font-variant:normal;font-weight:bold;font-stretch:normal;font-size:16px;line-height:1.25;font-family:'Noto Serif';-inkscape-font-specification:'Noto Serif Bold';text-align:center;letter-spacing:0px;word-spacing:0px;text-anchor:middle;fill:#0d1a33;fill-opacity:1;stroke-width:7.26819;filter:url(#filter1697)"
       d="m 198.39864,127.83799 v -7.21004 L 222.35459,87.717592 200.95704,49.34156 v -4.53535 h 58.02921 l 0.58146,21.513837 h -7.21004 l -0.58146,-6.163424 c -0.31013,-2.558402 -1.24044,-4.57411 -2.79098,-6.047132 -1.47303,-1.473022 -3.9539,-2.209529 -7.44263,-2.209529 h -22.32787 l 16.16445,29.189043 v 1.744365 l -23.91712,34.62781 h 29.44775 c 3.64378,0 6.27972,-1.04662 7.90779,-3.13986 1.62807,-2.09323 2.63592,-4.72917 3.02357,-7.90778 l 0.46516,-3.48873 h 7.21004 l -0.95382,24.91318 z" />
    <g
       transform="matrix(0.98775509,0,0,0.98775509,-0.24336195,6.9610604)"
       id="g1188">
      <rect
         style="fill:url(#linearGradient1013);fill-opacity:1;fill-rule:evenodd;stroke:url(#linearGradient1031);stroke-width:5.333;stroke-linecap:round;stroke-linejoin:round;stroke-miterlimit:4;stroke-dasharray:none;stroke-opacity:1"
         id="rect1005"
         width="44.149723"
         height="44.149738"
         x="61.966938"
         y="104.5" />
      <rect
         y="55.350262"
         x="106.11667"
         height="44.149738"
         width="44.149723"
         id="rect1005-9"
         style="fill:url(#linearGradient1013-6);fill-opacity:1;fill-rule:evenodd;stroke:url(#linearGradient1031-5);stroke-width:5.33330585;stroke-linecap:round;stroke-linejoin:round;stroke-miterlimit:4;stroke-dasharray:none;stroke-opacity:1" />
      <rect
         style="fill:url(#linearGradient1013-6-1);fill-opacity:1;fill-rule:evenodd;stroke:url(#linearGradient1031-5-9);stroke-width:5.333;stroke-linecap:round;stroke-linejoin:round;stroke-miterlimit:4;stroke-dasharray:none;stroke-opacity:1"
         id="rect1005-9-0"
         width="44.149723"
         height="44.149738"
         x="61.966938"
         y="154" />
      <path
         d="m 52.82189,222.50472 h -3.792146 q -5.722682,0 -9.928511,-1.10317 -4.136897,-1.03422 -7.239564,-5.17115 -3.033697,-4.06783 -3.861085,-9.65269 -0.758434,-5.58478 -0.758434,-16.34069 0,-10.75591 -0.758441,-15.92705 -0.758434,-5.17099 -3.861101,-8.68735 -3.033705,-3.58532 -9.652722,-3.7233 V 150.6609 q 6.619017,-0.13738 9.652722,-3.65433 3.102675,-3.58532 3.861101,-8.75633 0.758441,-5.17115 0.758441,-15.92702 0,-10.75591 0.758434,-16.34069 0.827395,-5.58487 3.861085,-9.652737 3.102667,-4.136889 7.239564,-5.171126 4.205829,-1.103162 9.928511,-1.103162 h 3.792146 v 10.755905 h -2.137392 q -7.170587,0 -8.825341,3.79217 -1.585807,3.79207 -1.585807,20.47755 0,14.96169 -3.930041,21.85648 -3.930055,6.89483 -11.928015,9.37693 7.99796,2.41324 11.928015,9.30808 3.930041,6.89479 3.930041,21.85646 0,16.6855 1.585807,20.47756 1.654754,3.79216 8.825341,3.79216 h 2.137392 z"
         style="font-style:normal;font-variant:normal;font-weight:bold;font-stretch:normal;font-size:16px;line-height:1.25;font-family:'Microsoft Sans Serif';-inkscape-font-specification:'Microsoft Sans Serif Bold';text-align:center;letter-spacing:0px;word-spacing:0px;text-anchor:middle;fill:url(#linearGradient999-6);fill-opacity:1;stroke-width:8.82531"
         id="path1027-1" />
      <path
         id="path1027-1-2"
         style="font-style:normal;font-variant:normal;font-weight:bold;font-stretch:normal;font-size:16px;line-height:1.25;font-family:'Microsoft Sans Serif';-inkscape-font-specification:'Microsoft Sans Serif Bold';text-align:center;letter-spacing:0px;word-spacing:0px;text-anchor:middle;fill:url(#linearGradient999-6-8);fill-opacity:1;stroke-width:8.82531"
         d="m 156.76265,152.51375 h 3.79215 q 5.72268,0 9.92851,-1.10317 4.1369,-1.03422 7.23956,-5.17115 3.0337,-4.06783 3.86109,-9.65269 0.75843,-5.58477 0.75843,-16.34069 0,-10.75591 0.75844,-15.92705 0.75844,-5.170989 3.8611,-8.687354 3.03371,-3.585319 9.65273,-3.723294 V 80.669933 q -6.61902,-0.137379 -9.65273,-3.654333 -3.10267,-3.585319 -3.8611,-8.756328 -0.75844,-5.171148 -0.75844,-15.927025 0,-10.755906 -0.75843,-16.340686 -0.8274,-5.584868 -3.86109,-9.652737 -3.10266,-4.136889 -7.23956,-5.171126 -4.20583,-1.103162 -9.92851,-1.103162 h -3.79215 v 10.755906 h 2.13739 q 7.17059,0 8.82534,3.792168 1.58581,3.792073 1.58581,20.477546 0,14.961691 3.93004,21.856482 3.93006,6.894828 11.92802,9.376934 -7.99796,2.413239 -11.92802,9.308074 -3.93004,6.894794 -3.93004,21.856464 0,16.6855 -1.58581,20.47756 -1.65475,3.79216 -8.82534,3.79216 h -2.13739 z" />
      <g
         aria-label="Σ"
         id="text1160"
         style="font-style:normal;font-variant:normal;font-weight:bold;font-stretch:normal;font-size:16px;line-height:1.25;font-family:'Noto Serif';-inkscape-font-specification:'Noto Serif Bold';text-align:center;letter-spacing:0px;word-spacing:0px;text-anchor:middle"
         transform="matrix(7.3582896,0,0,7.3582896,-446.25329,-362.62057)">
        <path
           d="m 87.288738,65.361153 v -0.992 l 3.296,-4.528 -2.944,-5.28 v -0.624 h 7.984 l 0.08,2.96 h -0.992 l -0.08,-0.848 c -0.04267,-0.352 -0.170667,-0.629333 -0.384,-0.832 -0.202667,-0.202667 -0.544,-0.304 -1.024,-0.304 h -3.072 l 2.224,4.016 v 0.24 l -3.290657,4.764298 h 4.051594 c 0.501333,0 0.864,-0.144 1.088,-0.432 0.224,-0.288 0.362666,-0.650667 0.416,-1.088 l 0.064,-0.48 h 0.992 l -0.131232,3.427702 z"
           style="font-style:normal;font-variant:normal;font-weight:bold;font-stretch:normal;font-family:'Noto Serif';-inkscape-font-specification:'Noto Serif Bold'"
           id="path1162"
           sodipodi:nodetypes="ccccccccccsccccssccccc" />
      </g>
    </g>
  </g>
</svg>
