<?xml version="1.0" encoding="UTF-8" standalone="no"?>
<svg
   width="256"
   height="256"
   viewBox="0 0 256 256"
   version="1.1"
   id="svg8"
   inkscape:version="1.1.1 (3bf5ae0d25, 2021-09-20)"
   sodipodi:docname="bbox-prev.svg"
   inkscape:export-filename="/media/klapeto/Αρχεία/WindowsXP Theme/Vectors/RASTER/bboxprevpng"
   inkscape:export-xdpi="96"
   inkscape:export-ydpi="96"
   xmlns:inkscape="http://www.inkscape.org/namespaces/inkscape"
   xmlns:sodipodi="http://sodipodi.sourceforge.net/DTD/sodipodi-0.dtd"
   xmlns:xlink="http://www.w3.org/1999/xlink"
   xmlns="http://www.w3.org/2000/svg"
   xmlns:svg="http://www.w3.org/2000/svg"
   xmlns:rdf="http://www.w3.org/1999/02/22-rdf-syntax-ns#"
   xmlns:cc="http://creativecommons.org/ns#"
   xmlns:dc="http://purl.org/dc/elements/1.1/">
  <defs
     id="defs2">
    <linearGradient
       id="linearGradient924"
       inkscape:collect="always">
      <stop
         id="stop920"
         offset="0"
         style="stop-color:#9a9aff;stop-opacity:1" />
      <stop
         style="stop-color:#cacaff;stop-opacity:1"
         offset="0.5"
         id="stop928" />
      <stop
         id="stop922"
         offset="1"
         style="stop-color:#fcfcff;stop-opacity:1" />
    </linearGradient>
    <linearGradient
       gradientTransform="matrix(19.883828,0,0,19.883828,-1876.7477,-1673.7478)"
       gradientUnits="userSpaceOnUse"
       y2="89.033745"
       x2="99.478172"
       y1="100.01395"
       x1="103.44692"
       id="linearGradient926"
       xlink:href="#linearGradient924"
       inkscape:collect="always" />
    <filter
       height="1.0674152"
       y="-0.0337076"
       width="1.1666699"
       x="-0.083334949"
       id="filter987"
       style="color-interpolation-filters:sRGB"
       inkscape:collect="always">
      <feGaussianBlur
         id="feGaussianBlur989"
         stdDeviation="0.86995716"
         inkscape:collect="always" />
    </filter>
  </defs>
  <sodipodi:namedview
     showguides="false"
     id="base"
     pagecolor="#ffffff"
     bordercolor="#666666"
     borderopacity="1.0"
     inkscape:pageopacity="0.0"
     inkscape:pageshadow="2"
     inkscape:zoom="1.1376503"
     inkscape:cx="-438.62336"
     inkscape:cy="87.021469"
     inkscape:document-units="px"
     inkscape:current-layer="layer1"
     inkscape:document-rotation="0"
     showgrid="false"
     units="px"
     fit-margin-top="2"
     fit-margin-left="2"
     fit-margin-bottom="2"
     fit-margin-right="2"
     inkscape:window-width="3840"
     inkscape:window-height="2043"
     inkscape:window-x="3840"
     inkscape:window-y="0"
     inkscape:window-maximized="1"
     inkscape:snap-bbox="true"
     inkscape:snap-smooth-nodes="true"
     inkscape:pagecheckerboard="0"
     scale-x="1">
    <inkscape:grid
       type="xygrid"
       id="grid847"
       originx="0"
       originy="0" />
    <inkscape:grid
       spacingy="0.13229167"
       spacingx="0.13229167"
       id="grid873"
       type="xygrid" />
  </sodipodi:namedview>
  <metadata
     id="metadata5">
    <rdf:RDF>
      <cc:Work
         rdf:about="">
        <dc:format>image/svg+xml</dc:format>
        <dc:type
           rdf:resource="http://purl.org/dc/dcmitype/StillImage" />
      </cc:Work>
    </rdf:RDF>
  </metadata>
  <g
     inkscape:label="Layer 1"
     inkscape:groupmode="layer"
     id="layer1"
     transform="translate(-91.93755,-88.636871)">
    <path
       d="m 130.84268,89.695204 v 6.780981 l 0.49609,0.148312 c 0.84547,0.253595 2.25776,0.42382 3.82199,0.805119 1.46282,0.356579 2.96423,0.9141 4.03334,1.704805 v 43.006159 c -1.15923,0.7359 -2.66092,1.30941 -4.10776,1.6893 -1.5521,0.40754 -2.93828,0.6342 -3.74757,0.87695 l -0.49609,0.14831 v 6.7815 h 0.69711 c 6.09623,0 8.96738,-1.8941 11.78688,-4.02766 2.73403,2.27897 5.77599,4.02766 11.87524,4.02766 h 0.69505 v -6.7815 l -0.49609,-0.14831 c -0.84556,-0.25364 -2.27276,-0.42854 -3.84576,-0.81235 -1.47152,-0.35907 -2.97236,-0.91765 -4.00958,-1.69551 V 99.07396 c 0.60801,-0.650766 2.09356,-1.259587 3.68556,-1.626775 1.67428,-0.38616 3.29057,-0.558977 4.16978,-0.822688 l 0.49609,-0.148312 v -6.780981 h -0.69505 c -5.41335,0 -8.74979,1.407163 -11.82047,3.992004 -2.7071,-2.251489 -5.12496,-3.992004 -11.84165,-3.992004 z"
       style="color:#000000;font-style:normal;font-variant:normal;font-weight:normal;font-stretch:normal;font-size:medium;line-height:normal;font-family:sans-serif;font-variant-ligatures:normal;font-variant-position:normal;font-variant-caps:normal;font-variant-numeric:normal;font-variant-alternates:normal;font-variant-east-asian:normal;font-feature-settings:normal;font-variation-settings:normal;text-indent:0;text-align:start;text-decoration:none;text-decoration-line:none;text-decoration-style:solid;text-decoration-color:#000000;letter-spacing:normal;word-spacing:normal;text-transform:none;writing-mode:lr-tb;direction:ltr;text-orientation:mixed;dominant-baseline:auto;baseline-shift:baseline;text-anchor:start;white-space:normal;shape-padding:0;shape-margin:0;inline-size:0;clip-rule:nonzero;display:inline;overflow:visible;visibility:visible;isolation:auto;mix-blend-mode:normal;color-interpolation:sRGB;color-interpolation-filters:linearRGB;solid-color:#000000;solid-opacity:1;vector-effect:none;fill:#212121;fill-opacity:1;fill-rule:nonzero;stroke:none;stroke-width:1.39194px;stroke-linecap:butt;stroke-linejoin:miter;stroke-miterlimit:4;stroke-dasharray:none;stroke-dashoffset:0;stroke-opacity:1;filter:url(#filter987);color-rendering:auto;image-rendering:auto;shape-rendering:auto;text-rendering:auto;enable-background:accumulate;stop-color:#000000"
       id="path978"
       transform="matrix(3.7795715,0,0,3.7795715,-396.16176,-246.31694)" />
    <path
       style="fill:url(#linearGradient926);fill-opacity:1;stroke:#212121;stroke-width:5.26094px;stroke-linecap:butt;stroke-linejoin:miter;stroke-opacity:1"
       d="m 127.56394,122.88849 c -9.20806,-7.6023 -26.27815,-8.93593 -31.565554,-10.52187 V 91.322918 c 26.304694,0 33.737634,6.584327 44.717894,15.782782 11.76906,-10.453798 23.67429,-15.782782 44.71792,-15.782782 v 21.043702 c -5.2875,1.58594 -25.77955,3.07094 -31.56558,10.52187 v 165.71928 c 8.95369,7.52808 26.27808,8.93586 31.56558,10.52188 v 21.04375 c -23.67425,0 -34.14907,-6.69548 -44.71792,-15.78285 -11.16674,8.54791 -21.04363,15.78285 -44.717894,15.78285 v -21.04379 c 5.287404,-1.58595 21.728994,-3.6694 31.565554,-10.52184 z"
       id="path877-6"
       sodipodi:nodetypes="ccccccccccccccc" />
    <path
       sodipodi:nodetypes="ccccccc"
       id="path880"
       d="m 345.6306,211.41796 -106.4208,28.99343 v 41.41922 L 172.93907,211.41796 239.2098,141.0053 v 41.41922 z"
       style="fill:#019901;fill-opacity:1;stroke:none;stroke-width:17.2881px;stroke-linecap:butt;stroke-linejoin:miter;stroke-opacity:1" />
  </g>
</svg>
