<?xml version="1.0" encoding="UTF-8" standalone="no"?>
<svg
   viewBox="0 0 48 48"
   width="48"
   height="48"
   version="1.1"
   id="svg14"
   sodipodi:docname="call-stop.svg"
   inkscape:version="1.3.2 (1:1.3.2+202311252150+091e20ef0f)"
   inkscape:export-filename="/media/klapeto/Αρχεία/WindowsXP Theme/Vectors/RASTER/call-start.png"
   inkscape:export-xdpi="96"
   inkscape:export-ydpi="96"
   xmlns:inkscape="http://www.inkscape.org/namespaces/inkscape"
   xmlns:sodipodi="http://sodipodi.sourceforge.net/DTD/sodipodi-0.dtd"
   xmlns:xlink="http://www.w3.org/1999/xlink"
   xmlns="http://www.w3.org/2000/svg"
   xmlns:svg="http://www.w3.org/2000/svg">
  <sodipodi:namedview
     id="namedview16"
     pagecolor="#ffffff"
     bordercolor="#666666"
     borderopacity="1.0"
     inkscape:pageshadow="2"
     inkscape:pageopacity="0.0"
     inkscape:pagecheckerboard="0"
     showgrid="true"
     inkscape:zoom="22.627418"
     inkscape:cx="13.50132"
     inkscape:cy="27.024736"
     inkscape:window-width="3840"
     inkscape:window-height="2058"
     inkscape:window-x="0"
     inkscape:window-y="0"
     inkscape:window-maximized="1"
     inkscape:current-layer="svg14"
     inkscape:snap-bbox="true"
     inkscape:snap-smooth-nodes="true"
     inkscape:snap-global="true"
     inkscape:showpageshadow="2"
     inkscape:deskcolor="#d1d1d1">
    <inkscape:grid
       type="xygrid"
       id="grid918"
       originx="0"
       originy="0"
       spacingy="1"
       spacingx="1"
       units="px"
       visible="true" />
  </sodipodi:namedview>
  <defs
     id="defs3051">
    <linearGradient
       inkscape:collect="always"
       id="linearGradient14257">
      <stop
         style="stop-color:#ff794b;stop-opacity:1"
         offset="0"
         id="stop14253" />
      <stop
         style="stop-color:#ffcc66;stop-opacity:1"
         offset="0.5"
         id="stop27563" />
      <stop
         style="stop-color:#ffe03c;stop-opacity:1"
         offset="0.86599267"
         id="stop46537" />
      <stop
         style="stop-color:#fffde9;stop-opacity:1"
         offset="1"
         id="stop14255" />
    </linearGradient>
    <style
       type="text/css"
       id="current-color-scheme">
      .ColorScheme-Text {
        color:#232629;
      }
      </style>
    <linearGradient
       inkscape:collect="always"
       xlink:href="#linearGradient14257"
       id="linearGradient14259"
       x1="-70.111496"
       y1="14.934465"
       x2="-75.980957"
       y2="7.8442326"
       gradientUnits="userSpaceOnUse" />
    <radialGradient
       spreadMethod="pad"
       r="819.20001"
       id="gradient2-62"
       gradientUnits="userSpaceOnUse"
       gradientTransform="matrix(0.03321492,0.02554013,-0.0225253,0.02929414,177.21918,-98.257282)"
       cy="5091.1753"
       cx="-1495.2026"
       fx="-1495.2026"
       fy="5091.1753">
      <stop
         id="stop4113"
         stop-color="#00bf00"
         offset="0.0" />
      <stop
         id="stop4115"
         stop-color="#006600"
         offset="0.9294117647058824" />
    </radialGradient>
    <radialGradient
       spreadMethod="pad"
       r="819.20001"
       id="gradient1-6"
       gradientUnits="userSpaceOnUse"
       gradientTransform="matrix(0.15259312,0,0,0.15259312,-147.36205,-19.475779)"
       cy="0"
       cx="0">
      <stop
         id="stop4100"
         stop-color="#ffffff"
         offset="0.0" />
      <stop
         id="stop4102"
         stop-color="#ccffff"
         offset="0.0784313725490196" />
      <stop
         id="stop4104"
         stop-color="#0099ff"
         offset="0.2980392156862745" />
      <stop
         id="stop4106"
         stop-color="#0066cc"
         offset="0.5372549019607843" />
      <stop
         id="stop4108"
         stop-color="#003399"
         offset="0.7529411764705882" />
      <stop
         id="stop4110"
         stop-color="#9999ff"
         offset="1.0" />
    </radialGradient>
    <linearGradient
       x2="819.20001"
       x1="-819.20001"
       spreadMethod="pad"
       id="gradient0-1"
       gradientUnits="userSpaceOnUse"
       gradientTransform="matrix(-0.06871152,-0.06871152,-0.06871152,0.06871152,-137.76921,19.341771)">
      <stop
         id="stop4093"
         stop-color="#003399"
         offset="0.0" />
      <stop
         id="stop4095"
         stop-color="#0099ff"
         offset="0.47058823529411764" />
      <stop
         id="stop4097"
         stop-color="#ccffff"
         offset="1.0" />
    </linearGradient>
  </defs>
  <g
     id="g185513"
     transform="matrix(1.4183127,0,0,1.4183127,125.87979,5.1518538)">
    <path
       style="opacity:1;fill:url(#linearGradient14259);fill-opacity:1;stroke:none;stroke-width:1px;stroke-linecap:butt;stroke-linejoin:miter;stroke-opacity:1"
       d="m -73.864728,17.725635 c -1.262734,-1.576707 -3.056224,-1.721287 -3.056224,-2.721287 0,-1 6.760553,-7.0207052 8.79306,-6.4159107 0.739804,0.2201366 0.453026,2.5632687 1.981847,3.2294137 1.44187,0.628257 8.369872,-5.6473623 8.365394,-6.6473523 -0.0075,-1.6793985 -3.00861,-4.79575952 -6.561611,-4.85313043 -7.116292,-0.11490796 -21.547987,13.37868873 -21.540457,18.65258673 0.0029,1.99973 2.642618,5.315785 3.774281,6.163924 1.477989,1.107697 9.359193,-6.0154 8.24371,-7.408244 z"
       id="path14398"
       sodipodi:nodetypes="sssssssss" />
    <path
       style="opacity:1;fill:none;fill-opacity:1;stroke:#996600;stroke-width:1.05759;stroke-linecap:round;stroke-linejoin:round;stroke-dasharray:none;stroke-opacity:1"
       d="m -73.864728,17.725635 c -1.262734,-1.576707 -3.056224,-1.721287 -3.056224,-2.721287 0,-1 6.760553,-7.0207052 8.79306,-6.4159107 0.739804,0.2201366 0.453026,2.5632687 1.981847,3.2294137 1.44187,0.628257 8.369872,-5.6473623 8.365394,-6.6473523 -0.0075,-1.6793985 -3.00861,-4.79575952 -6.561611,-4.85313043 -7.116292,-0.11490796 -21.547987,13.37868873 -21.540457,18.65258673 0.0029,1.99973 2.642618,5.315785 3.774281,6.163924 1.477989,1.107697 9.359193,-6.0154 8.24371,-7.408244 z"
       id="path953"
       sodipodi:nodetypes="sssssssss" />
    <path
       style="opacity:1;fill:none;stroke:#996600;stroke-width:1.05759;stroke-linecap:butt;stroke-linejoin:miter;stroke-dasharray:none;stroke-opacity:1"
       d="m -75.753999,16.138959 c -2.342742,2.575246 -5.359146,5.348264 -8.095855,7.130385"
       id="path5229"
       sodipodi:nodetypes="cc" />
    <path
       style="opacity:1;fill:none;stroke:#996600;stroke-width:1.05759;stroke-linecap:butt;stroke-linejoin:miter;stroke-dasharray:none;stroke-opacity:1"
       d="m -67.540206,9.7638174 c 2.937239,-1.6935362 6.350157,-4.9380287 8.2182,-7.1773938"
       id="path5815"
       sodipodi:nodetypes="cc" />
  </g>
  <g
     transform="matrix(0.46917644,0,0,0.46917644,66.13359,23.463651)"
     id="g940">
    <circle
       style="opacity:1;fill:#ffffff;fill-opacity:1;fill-rule:evenodd;stroke:none;stroke-width:11.685;stroke-linecap:round;stroke-linejoin:round;stroke-miterlimit:4;stroke-dasharray:none"
       id="path919"
       cx="-67.310364"
       cy="22.756973"
       r="18.249216" />
    <path
       d="m -66.691769,2.7592809 a 21.5,21.5 0 0 0 -21.5,21.5000001 21.5,21.5 0 0 0 21.5,21.5 21.5,21.5 0 0 0 21.5,-21.5 21.5,21.5 0 0 0 -21.5,-21.5000001 z m 0,5.5 a 16,16 0 0 1 16,16.0000001 16,16 0 0 1 -2.099609,7.921875 L -74.8988,10.524906 a 16,16 0 0 1 8.207031,-2.2656251 z M -79.40466,14.54639 -56.978878,36.972172 a 16,16 0 0 1 -9.712891,3.287109 16,16 0 0 1 -16,-16 16,16 0 0 1 3.287109,-9.712891 z"
       style="opacity:1;fill:#990000;fill-opacity:1;fill-rule:evenodd;stroke:none;stroke-width:11.685;stroke-linecap:round;stroke-linejoin:round;stroke-miterlimit:4;stroke-dasharray:none"
       id="path917" />
    <path
       id="path889"
       style="opacity:1;fill:#ff3300;fill-opacity:1;fill-rule:evenodd;stroke:none;stroke-width:11.685;stroke-linecap:round;stroke-linejoin:round;stroke-miterlimit:4;stroke-dasharray:none"
       d="m -67.832682,1 a 21.5,21.5 0 0 0 -21.5,21.5 21.5,21.5 0 0 0 21.5,21.5 21.5,21.5 0 0 0 21.5,-21.5 21.5,21.5 0 0 0 -21.5,-21.5 z m 0,5.5 a 16,16 0 0 1 16,16 16,16 0 0 1 -2.099609,7.921875 L -76.039713,8.765625 A 16,16 0 0 1 -67.832682,6.5 Z m -12.712891,6.287109 22.425782,22.425782 A 16,16 0 0 1 -67.832682,38.5 a 16,16 0 0 1 -16,-16 16,16 0 0 1 3.287109,-9.712891 z" />
  </g>
</svg>
