<?xml version="1.0" encoding="UTF-8" standalone="no"?>
<svg
   viewBox="0 0 48 48"
   id="svg2"
   version="1.1"
   inkscape:version="1.3.2 (1:1.3.2+202311252150+091e20ef0f)"
   sodipodi:docname="check_contraint.svg"
   width="48"
   height="48"
   inkscape:export-filename="/media/klapeto/Αρχεία/WindowsXP Theme/Vectors/RASTER/check_constraint.png"
   inkscape:export-xdpi="96"
   inkscape:export-ydpi="96"
   xmlns:inkscape="http://www.inkscape.org/namespaces/inkscape"
   xmlns:sodipodi="http://sodipodi.sourceforge.net/DTD/sodipodi-0.dtd"
   xmlns:xlink="http://www.w3.org/1999/xlink"
   xmlns="http://www.w3.org/2000/svg"
   xmlns:svg="http://www.w3.org/2000/svg"
   xmlns:rdf="http://www.w3.org/1999/02/22-rdf-syntax-ns#"
   xmlns:cc="http://creativecommons.org/ns#"
   xmlns:dc="http://purl.org/dc/elements/1.1/">
  <metadata
     id="metadata10">
    <rdf:RDF>
      <cc:Work
         rdf:about="">
        <dc:format>image/svg+xml</dc:format>
        <dc:type
           rdf:resource="http://purl.org/dc/dcmitype/StillImage" />
      </cc:Work>
    </rdf:RDF>
  </metadata>
  <sodipodi:namedview
     pagecolor="#ffffff"
     bordercolor="#666666"
     borderopacity="1"
     objecttolerance="10"
     gridtolerance="10"
     guidetolerance="10"
     inkscape:pageopacity="0"
     inkscape:pageshadow="2"
     inkscape:window-width="3840"
     inkscape:window-height="2058"
     id="namedview8"
     showgrid="false"
     inkscape:zoom="30.341309"
     inkscape:cx="29.415342"
     inkscape:cy="18.275414"
     inkscape:window-x="0"
     inkscape:window-y="0"
     inkscape:window-maximized="1"
     inkscape:current-layer="svg2"
     inkscape:pagecheckerboard="0"
     inkscape:showpageshadow="2"
     inkscape:deskcolor="#d1d1d1" />
  <defs
     id="defs3051">
    <style
       type="text/css"
       id="current-color-scheme">
      .ColorScheme-Text {
        color:#232629;
      }
      </style>
    <linearGradient
       inkscape:collect="always"
       xlink:href="#linearGradient878"
       id="linearGradient880-3"
       x1="16.559904"
       y1="6.7518754"
       x2="15.55442"
       y2="6.760282"
       gradientUnits="userSpaceOnUse"
       gradientTransform="matrix(0,10.920784,-10.920784,0,108.55875,-168.16213)" />
    <linearGradient
       inkscape:collect="always"
       id="linearGradient878">
      <stop
         style="stop-color:#0099ff;stop-opacity:1"
         offset="0"
         id="stop874" />
      <stop
         style="stop-color:#99ccff;stop-opacity:1"
         offset="1"
         id="stop876" />
    </linearGradient>
  </defs>
  <path
     id="path16285"
     style="font-weight:bold;font-size:174.253px;font-family:'Times New Roman';-inkscape-font-specification:'Times New Roman,  Bold';text-align:center;letter-spacing:0px;word-spacing:0px;text-anchor:middle;fill:#0099ff;fill-opacity:1;stroke:#0066cc;stroke-width:1;stroke-linecap:round;stroke-linejoin:round;stroke-miterlimit:4;stroke-dasharray:none;stroke-opacity:1"
     d="M 12.284176,17.130965 4.3572739,34.815298 C 3.6054376,36.504203 2.9735858,37.621263 2.4614656,38.166072 1.9493452,38.699983 1.2954209,39.026946 0.5,39.146802 v 0.604424 H 7.871254 V 39.146802 C 6.7162593,39.059636 5.9916305,38.9287 5.6974336,38.754362 5.1962095,38.460163 4.9455635,38.002641 4.9455635,37.381559 c 0,-0.468536 0.1526323,-1.062602 0.4577255,-1.781751 l 0.9315835,-2.157312 h 7.8289785 l 1.17658,2.762109 c 0.305092,0.719146 0.468574,1.127662 0.490366,1.225728 0.06538,0.207028 0.0983,0.408667 0.0983,0.604796 0,0.326887 -0.120086,0.577534 -0.359802,0.751874 -0.348677,0.239713 -0.95322,0.359799 -1.814018,0.359799 H 13.31406 v 0.604424 H 24.035711 V 39.146802 C 23.360148,39.092322 22.837159,38.89592 22.466688,38.558138 21.976359,38.111396 21.349747,37.027257 20.587012,35.305663 L 12.594829,17.130965 Z m 12.830192,0.457725 v 0.604798 c 1.013341,0 1.705428,0.0924 2.075896,0.277637 0.370471,0.185235 0.626354,0.435881 0.768004,0.75187 0.152547,0.305093 0.228861,1.057031 0.228861,2.255611 V 35.86131 c 0,1.19858 -0.07631,1.95052 -0.228861,2.255614 -0.14165,0.305092 -0.397533,0.555734 -0.768004,0.751867 -0.359573,0.185234 -1.051657,0.278011 -2.075896,0.278011 v 0.604424 h 11.261168 c 3.138098,0 5.530085,-0.65916 7.175406,-1.977597 1.340232,-1.089619 2.01024,-2.467795 2.01024,-4.134911 0,-1.579947 -0.610155,-2.865724 -1.830524,-3.857274 -0.849905,-0.697357 -2.326469,-1.291426 -4.429431,-1.781753 1.950415,-0.490327 3.312508,-1.149491 4.086136,-1.977601 0.77363,-0.839005 1.160446,-1.792208 1.160446,-2.86003 0,-1.013347 -0.305265,-1.966922 -0.915449,-2.860411 -0.610187,-0.904381 -1.443678,-1.580002 -2.500607,-2.026746 -1.056929,-0.457639 -2.854847,-0.686213 -5.393655,-0.686213 z m 8.237555,1.241862 c 1.59084,-0.0109 2.746057,0.147348 3.465205,0.474233 0.719149,0.326886 1.269072,0.806103 1.650439,1.438084 0.392263,0.621081 0.588664,1.422028 0.588664,2.402682 0,0.980657 -0.196401,1.787211 -0.588664,2.419191 -0.392264,0.631979 -0.958649,1.122046 -1.699589,1.470725 -0.730044,0.348676 -1.868797,0.523007 -3.416055,0.523007 z m -23.045346,5.76959 3.301626,7.632758 H 6.9070293 Z m 23.045346,4.233209 c 1.667114,-0.01089 2.920345,0.147348 3.759348,0.474233 0.839011,0.326885 1.498171,0.90412 1.977599,1.732229 0.479434,0.817214 0.719229,1.74348 0.71923,2.778616 0,0.904386 -0.196402,1.727027 -0.588666,2.467966 -0.392258,0.730044 -0.958643,1.291191 -1.699582,1.683454 -0.730046,0.381369 -1.530993,0.572156 -2.402687,0.572156 -0.588392,0 -1.035065,-0.147021 -1.340157,-0.441217 C 33.48281,37.795694 33.33579,37.348647 33.33579,36.760256 l 0.01612,-0.817153 z" />
  <path
     style="fill:url(#linearGradient880-3);fill-opacity:1;stroke:#0066cc;stroke-width:1;stroke-linecap:round;stroke-linejoin:round;stroke-miterlimit:4;stroke-dasharray:none;stroke-opacity:1"
     d="m 33.432862,0.5 v 6.150045 h -5.778914 l 7.223641,8.668359 7.223644,-8.668359 H 36.322321 V 0.5 Z"
     id="path872-5"
     sodipodi:nodetypes="cccccccc" />
  <g
     transform="matrix(0.50130796,0,0,0.50130796,64.877807,55.042396)"
     id="g885"
     style="fill:none;stroke:#f7f7f7" />
</svg>
