<?xml version="1.0" encoding="UTF-8" standalone="no"?>
<svg
   width="256"
   height="256"
   viewBox="0 0 256 256"
   version="1.1"
   id="svg8"
   inkscape:version="1.1.1 (3bf5ae0d25, 2021-09-20)"
   sodipodi:docname="checkmark.svg"
   inkscape:export-filename="/media/klapeto/Αρχεία/WindowsXP Theme/Vectors/RASTER/checkmark.png"
   inkscape:export-xdpi="96"
   inkscape:export-ydpi="96"
   xmlns:inkscape="http://www.inkscape.org/namespaces/inkscape"
   xmlns:sodipodi="http://sodipodi.sourceforge.net/DTD/sodipodi-0.dtd"
   xmlns:xlink="http://www.w3.org/1999/xlink"
   xmlns="http://www.w3.org/2000/svg"
   xmlns:svg="http://www.w3.org/2000/svg"
   xmlns:rdf="http://www.w3.org/1999/02/22-rdf-syntax-ns#"
   xmlns:cc="http://creativecommons.org/ns#"
   xmlns:dc="http://purl.org/dc/elements/1.1/">
  <defs
     id="defs2">
    <radialGradient
       inkscape:collect="always"
       xlink:href="#linearGradient21660"
       id="radialGradient22114"
       gradientUnits="userSpaceOnUse"
       gradientTransform="matrix(1.4584701,0,0,1.4584701,376.95715,-76.120893)"
       cx="-214.56883"
       cy="102.78445"
       fx="-214.56883"
       fy="102.78445"
       r="112.01711" />
    <linearGradient
       inkscape:collect="always"
       id="linearGradient21660">
      <stop
         style="stop-color:#10e800;stop-opacity:1"
         offset="0"
         id="stop21656" />
      <stop
         style="stop-color:#0db300;stop-opacity:1"
         offset="1"
         id="stop21658" />
    </linearGradient>
    <linearGradient
       inkscape:collect="always"
       xlink:href="#linearGradient21904"
       id="linearGradient21906"
       x1="212.99319"
       y1="199.77892"
       x2="59.596699"
       y2="48.182297"
       gradientUnits="userSpaceOnUse"
       gradientTransform="matrix(1.0712649,0,0,1.0712649,-22.010821,0.76596246)" />
    <linearGradient
       inkscape:collect="always"
       id="linearGradient21904">
      <stop
         style="stop-color:#008a19;stop-opacity:1"
         offset="0"
         id="stop21900" />
      <stop
         style="stop-color:#00ba24;stop-opacity:1"
         offset="1"
         id="stop21902" />
    </linearGradient>
    <filter
       inkscape:collect="always"
       style="color-interpolation-filters:sRGB"
       id="filter1078"
       x="-0.049284248"
       y="-0.049501844"
       width="1.0985685"
       height="1.0990037">
      <feGaussianBlur
         inkscape:collect="always"
         stdDeviation="4.8"
         id="feGaussianBlur1080" />
    </filter>
  </defs>
  <sodipodi:namedview
     showguides="false"
     id="base"
     pagecolor="#ffffff"
     bordercolor="#666666"
     borderopacity="1.0"
     inkscape:pageopacity="0.0"
     inkscape:pageshadow="2"
     inkscape:zoom="4.0000002"
     inkscape:cx="-1.3749999"
     inkscape:cy="114.49999"
     inkscape:document-units="px"
     inkscape:current-layer="layer1"
     inkscape:document-rotation="0"
     showgrid="false"
     units="px"
     inkscape:window-width="3840"
     inkscape:window-height="2043"
     inkscape:window-x="3840"
     inkscape:window-y="0"
     inkscape:window-maximized="1"
     inkscape:snap-bbox="true"
     inkscape:bbox-nodes="true"
     fit-margin-top="0"
     fit-margin-left="0"
     fit-margin-right="0"
     fit-margin-bottom="0"
     inkscape:bbox-paths="false"
     inkscape:snap-global="true"
     inkscape:pagecheckerboard="0">
    <inkscape:grid
       type="xygrid"
       id="grid1504"
       originx="0"
       originy="0" />
    <inkscape:grid
       type="xygrid"
       id="grid844"
       spacingx="0.5"
       spacingy="0.5" />
  </sodipodi:namedview>
  <metadata
     id="metadata5">
    <rdf:RDF>
      <cc:Work
         rdf:about="">
        <dc:format>image/svg+xml</dc:format>
        <dc:type
           rdf:resource="http://purl.org/dc/dcmitype/StillImage" />
      </cc:Work>
    </rdf:RDF>
  </metadata>
  <g
     inkscape:label="Layer 1"
     inkscape:groupmode="layer"
     id="layer1"
     transform="translate(-12.567709)">
    <path
       id="circle942"
       style="fill:#212121;fill-opacity:1;fill-rule:evenodd;stroke:none;stroke-width:5.35601;stroke-linecap:round;stroke-linejoin:round;stroke-miterlimit:4;stroke-dasharray:none;filter:url(#filter1078);stop-color:#000000"
       d="M 137.56771,11.281387 C 71.325327,11.281387 23.821615,57.757619 23.821615,124 c 0,66.24238 47.503712,120 113.746095,120 66.24238,0 120,-53.75762 120,-120 0,-66.242381 -53.75762,-112.718613 -120,-112.718613 z"
       sodipodi:nodetypes="sssss" />
    <g
       id="g23478"
       transform="matrix(1.0000013,0,0,1.0000013,4.567543,-8.0001664)">
      <circle
         style="fill:#f8f8f8;fill-opacity:1;fill-rule:evenodd;stroke:none;stroke-width:5.356;stroke-linecap:round;stroke-linejoin:round;stroke-miterlimit:4;stroke-dasharray:none;stop-color:#000000"
         id="circle22033"
         cx="128"
         cy="128"
         r="117.32184" />
      <path
         id="circle22053"
         style="fill:url(#radialGradient22114);fill-opacity:1;fill-rule:evenodd;stroke:none;stroke-width:5.356;stroke-linecap:round;stroke-linejoin:round;stroke-miterlimit:4;stroke-dasharray:none;stop-color:#000000"
         d="M 128,10.677661 A 117.32183,117.32183 0 0 0 10.67766,128 117.32183,117.32183 0 0 0 128,245.32234 117.32183,117.32183 0 0 0 245.32234,128 117.32183,117.32183 0 0 0 128,10.677661 Z m 35.41033,43.98463 a 11.835926,11.835926 0 0 1 5.89823,1.661297 11.835926,11.835926 0 0 1 4.12396,16.221712 c -12.55755,21.119525 -25.60561,59.21793 -37.64284,112.97032 a 11.83711,11.83711 0 0 1 -21.1219,4.37504 l -2.51706,-3.46278 a 11.83711,11.83711 0 0 1 -0.16111,-0.22388 l -2.59865,-3.75361 -3.44604,-4.31017 C 97.876099,168.30301 87.537006,157.83548 74.928443,146.85384 a 11.835926,11.835926 0 0 1 -1.152863,-16.69667 11.835926,11.835926 0 0 1 16.698759,-1.15286 c 10.681831,9.30352 19.945911,18.39449 27.915661,27.34445 10.61996,-42.55812 21.87677,-74.340154 34.69685,-95.90122 a 11.835926,11.835926 0 0 1 10.32348,-5.785249 z" />
      <circle
         style="fill:none;fill-opacity:1;fill-rule:evenodd;stroke:url(#linearGradient21906);stroke-width:5.356;stroke-linecap:round;stroke-linejoin:round;stroke-miterlimit:4;stroke-dasharray:none;stop-color:#000000"
         id="path17507"
         cx="128"
         cy="128"
         r="117.32184" />
    </g>
  </g>
</svg>
