<?xml version="1.0" encoding="UTF-8" standalone="no"?>
<svg
   inkscape:export-ydpi="96"
   inkscape:export-xdpi="96"
   inkscape:export-filename="/media/klapeto/Αρχεία/WindowsXP Theme/Vectors/RASTER/configure.png"
   width="48"
   height="48"
   viewBox="0 0 48 48"
   version="1.1"
   id="svg8"
   inkscape:version="1.3.2 (1:1.3.2+202311252150+091e20ef0f)"
   sodipodi:docname="configure.svg"
   xmlns:inkscape="http://www.inkscape.org/namespaces/inkscape"
   xmlns:sodipodi="http://sodipodi.sourceforge.net/DTD/sodipodi-0.dtd"
   xmlns:xlink="http://www.w3.org/1999/xlink"
   xmlns="http://www.w3.org/2000/svg"
   xmlns:svg="http://www.w3.org/2000/svg"
   xmlns:rdf="http://www.w3.org/1999/02/22-rdf-syntax-ns#"
   xmlns:cc="http://creativecommons.org/ns#"
   xmlns:dc="http://purl.org/dc/elements/1.1/">
  <defs
     id="defs2">
    <linearGradient
       id="linearGradient1068"
       inkscape:collect="always">
      <stop
         id="stop1064"
         offset="0"
         style="stop-color:#ccccff;stop-opacity:1" />
      <stop
         id="stop1066"
         offset="1"
         style="stop-color:#6666cc;stop-opacity:1" />
    </linearGradient>
    <linearGradient
       gradientTransform="translate(109.97268,-2.0157549)"
       gradientUnits="userSpaceOnUse"
       y2="3.6782823"
       x2="-67.432755"
       y1="48.839687"
       x1="-67.432755"
       id="linearGradient1070"
       xlink:href="#linearGradient1068"
       inkscape:collect="always" />
  </defs>
  <sodipodi:namedview
     inkscape:snap-bbox-edge-midpoints="true"
     inkscape:snap-smooth-nodes="false"
     inkscape:snap-midpoints="false"
     inkscape:object-paths="false"
     inkscape:guide-bbox="true"
     showguides="true"
     id="base"
     pagecolor="#ffffff"
     bordercolor="#666666"
     borderopacity="1.0"
     inkscape:pageopacity="0.0"
     inkscape:pageshadow="2"
     inkscape:zoom="16"
     inkscape:cx="-15.34375"
     inkscape:cy="29.031249"
     inkscape:document-units="px"
     inkscape:current-layer="layer1"
     inkscape:document-rotation="0"
     showgrid="false"
     units="px"
     inkscape:window-width="3840"
     inkscape:window-height="2058"
     inkscape:window-x="0"
     inkscape:window-y="0"
     inkscape:window-maximized="1"
     inkscape:snap-bbox="true"
     inkscape:bbox-nodes="true"
     fit-margin-top="0"
     fit-margin-left="0"
     fit-margin-right="0"
     fit-margin-bottom="0"
     inkscape:bbox-paths="true"
     inkscape:snap-global="false"
     inkscape:pagecheckerboard="0"
     inkscape:showpageshadow="2"
     inkscape:deskcolor="#d1d1d1">
    <inkscape:grid
       type="xygrid"
       id="grid1504"
       originx="0"
       originy="0"
       spacingy="1"
       spacingx="1"
       units="px"
       visible="false" />
    <inkscape:grid
       type="xygrid"
       id="grid1765"
       spacingx="0.5"
       spacingy="0.5"
       originx="0"
       originy="0"
       units="px"
       visible="false" />
  </sodipodi:namedview>
  <metadata
     id="metadata5">
    <rdf:RDF>
      <cc:Work
         rdf:about="">
        <dc:format>image/svg+xml</dc:format>
        <dc:type
           rdf:resource="http://purl.org/dc/dcmitype/StillImage" />
      </cc:Work>
    </rdf:RDF>
  </metadata>
  <g
     inkscape:label="Layer 1"
     inkscape:groupmode="layer"
     id="layer1"
     transform="translate(-12.567709)">
    <g
       transform="matrix(0.95740569,0,0,0.95740569,-3.6814515,-0.38249902)"
       id="g1076">
      <path
         d="m 41.130068,0.40334362 c -1.103376,0.050577 -2.193323,0.77431798 -2.410011,1.18708858 -0.734923,1.39996 0.150902,4.4838714 -1.163866,5.3393462 -1.207191,0.7854777 0.808468,-2.3942924 -3.939453,-3.0625 -2.126465,-0.299272 -4.36872,1.5899662 -4.174774,2.9966468 0.254083,1.8428484 2.164747,4.3936658 1.425003,5.1954308 -0.725517,0.786346 -4.049264,-0.41917 -5.044433,-0.517346 -1.475579,-0.14557 -4.35563,3.950249 -2.971421,5.305737 1.288047,1.261322 3.514932,2.482537 3.302735,3.470703 -0.444546,2.070179 -3.404696,1.619826 -4.685547,2.546875 -0.63501,0.459606 -0.778614,4.621165 0.466797,5.53125 2.578141,1.883978 4.389164,0.418606 4.458984,1.433594 0.108173,1.572512 -2.108282,2.299674 -3.175781,4.220703 -0.771479,1.388325 2.826423,7.555592 5.92569,5.357207 1.140638,-0.809083 0.129913,-3.024839 0.750091,-2.07791 0.743521,1.135257 -0.407313,2.754298 -0.439453,5.101562 -0.01952,1.42561 5.123566,4.164383 6.623566,3.164383 1.5,-1 -0.211132,-4.513683 0.815887,-4.265945 1.387507,0.334695 0.642292,3.105329 1.798828,4.697266 0.558275,0.768449 4.168356,1.689558 5.010056,1.268214 1.752303,-0.877179 0.0067,-6.546801 1.394242,-6.881496 1.027019,-0.247738 1.441406,1.507813 2.941406,2.507813 1.5,1 3.241544,1.550672 4.514413,0.591197 1.874572,-1.413032 -1.756492,-7.645267 -1.063241,-8.8119 0.42836,-0.720863 1.546649,0.22298 3.644531,0.382812 2.161872,0.164708 4.332026,-3.492534 3.560547,-4.880859 -1.067499,-1.921029 -3.599165,-2.089905 -3.376953,-3.650391 0.222904,-1.565349 6.054775,-2.090576 6.858932,-3.44017 2.025678,-3.399637 -0.504648,-4.157018 -1.198815,-4.52117 -1.462186,-0.767048 -5.12707,0.33815 -5.476524,-1.253504 -0.239758,-1.092024 3.950344,-3.161957 5.05954,-4.583113 C 61.467023,11.594084 58.895822,8.1092905 57.033563,8.275289 56.037512,8.364075 52.638669,10.717534 51.974161,9.8789971 51.279766,9.0027461 53.643266,6.8430349 54.54283,4.9881017 55.162448,3.7104322 50.742687,1.4775559 48.669474,2.0372002 46.919581,2.5095672 46.548946,6.774022 45.093302,6.2813409 43.672478,5.8004453 46.401742,2.5664489 45.666488,1.4718463 45.22089,0.80846698 42.233445,0.35276682 41.130068,0.40334362 Z m 0.70542,11.25104438 c 6.260402,0 9.123048,6.280897 9.123048,11.603515 0,4.664316 -4.847855,11.800782 -10.898438,11.800782 -6.341987,0 -9.187212,-7.372269 -9.238282,-10.683594 -0.07876,-5.106433 4.184789,-12.720703 11.013672,-12.720703 z"
         style="opacity:1;fill:#9999cc;fill-opacity:1;stroke:none;stroke-width:1px;stroke-linecap:butt;stroke-linejoin:miter;stroke-opacity:1"
         id="path1072"
         sodipodi:nodetypes="sssssssssssssssssssssssssssssssssssssssssss" />
      <path
         id="path1057"
         style="opacity:1;fill:url(#linearGradient1070);fill-opacity:1;stroke:none;stroke-width:1px;stroke-linecap:butt;stroke-linejoin:miter;stroke-opacity:1"
         d="m 43.315005,0.94550139 c -1.103377,0.050577 -1.962944,0.10604431 -2.365235,0.78320311 -0.80757,1.3593491 -0.256312,5.6699978 -1.041016,6.1230469 -1.247283,0.720119 -2.40573,-2.6781909 -3.939453,-3.0625 -2.083023,-0.5219485 -4.66681,1.7790236 -4.380859,3.1699218 0.282838,1.3757573 1.852335,4.0226068 1.083984,4.8847658 -0.941331,1.056259 -3.837356,-0.490345 -4.837356,-0.490345 -1.118034,0 -3.537373,4.255342 -2.631394,5.416126 1.109196,1.421156 3.463517,2.677298 3.203675,3.611221 -0.567551,2.03989 -3.305636,1.479308 -4.586487,2.406357 -0.63501,0.459606 -0.884916,4.788166 0.466797,5.53125 1.376698,0.756819 4.389164,0.418606 4.458984,1.433594 0.108173,1.572512 -2.108282,2.299674 -3.175781,4.220703 -0.771479,1.388325 0.916253,4.801427 3.078125,4.636719 2.097882,-0.159832 2.977478,-2.304351 3.597656,-1.357422 0.743521,1.135257 -0.407313,2.754298 -0.439453,5.101562 -0.01952,1.42561 3.298828,3.275391 4.798828,2.275391 1.5,-1 1.613606,-3.624691 2.640625,-3.376953 1.387507,0.334695 0.642292,3.105329 1.798828,4.697266 0.558275,0.768449 4.07212,0.444754 4.472657,-0.238282 0.991258,-1.69039 0.544134,-5.040305 1.931641,-5.375 1.027019,-0.247738 1.441406,1.507813 2.941406,2.507813 1.5,1 4.654286,-1.722828 4.634766,-3.148438 -0.03214,-2.347264 -1.876845,-3.905632 -1.183594,-5.072265 0.42836,-0.720863 1.546649,0.22298 3.644531,0.382812 2.161872,0.164708 4.332026,-3.492534 3.560547,-4.880859 -1.067499,-1.921029 -3.599165,-2.089905 -3.376953,-3.650391 0.222904,-1.565349 3.066661,-1.403337 4.443359,-2.160156 1.351712,-0.743084 1.106275,-5.448348 0.412109,-5.8125 -1.462186,-0.767048 -4.322421,0.349466 -4.671875,-1.242188 -0.239758,-1.092024 2.36932,-2.535875 3.478516,-3.957031 0.905979,-1.160784 -1.356575,-5.1132809 -2.474609,-5.1132809 -1,0 -3.866742,2.4498649 -4.53125,1.6113279 C 53.632329,9.9247191 54.967931,7.3264699 55.254458,5.8790951 55.530212,4.4861394 53.09525,2.3995289 51.022037,2.9591732 49.272144,3.4315402 48.901509,7.695995 47.445865,7.2033139 46.025041,6.7224183 46.761197,2.8721352 46.025943,1.7775326 45.580345,1.1141533 44.418382,0.89492459 43.315005,0.94550139 Z M 44.188052,12.576361 c 6.260401,0 9.123047,6.280897 9.123047,11.603515 0,4.664316 -4.847855,11.800782 -10.898438,11.800782 -6.341987,0 -9.187212,-7.372269 -9.238282,-10.683594 -0.07876,-5.106433 4.184789,-12.720703 11.013673,-12.720703 z"
         sodipodi:nodetypes="sssssssssssssssssssssssssssssssssssssssssss" />
    </g>
  </g>
</svg>
