<?xml version="1.0" encoding="UTF-8" standalone="no"?>
<svg
   width="256"
   height="256"
   viewBox="0 0 256 256"
   version="1.1"
   id="svg8"
   inkscape:version="1.1.1 (3bf5ae0d25, 2021-09-20)"
   sodipodi:docname="delete.svg"
   inkscape:export-filename="/media/klapeto/Αρχεία/WindowsXP Theme/Vectors/RASTER/delete.png"
   inkscape:export-xdpi="96"
   inkscape:export-ydpi="96"
   xmlns:inkscape="http://www.inkscape.org/namespaces/inkscape"
   xmlns:sodipodi="http://sodipodi.sourceforge.net/DTD/sodipodi-0.dtd"
   xmlns="http://www.w3.org/2000/svg"
   xmlns:svg="http://www.w3.org/2000/svg"
   xmlns:rdf="http://www.w3.org/1999/02/22-rdf-syntax-ns#"
   xmlns:cc="http://creativecommons.org/ns#"
   xmlns:dc="http://purl.org/dc/elements/1.1/">
  <defs
     id="defs2">
    <filter
       height="1.095581"
       y="-0.047790501"
       width="1.0964227"
       x="-0.048211343"
       id="filter893"
       style="color-interpolation-filters:sRGB"
       inkscape:collect="always">
      <feGaussianBlur
         id="feGaussianBlur895"
         stdDeviation="0.20481369"
         inkscape:collect="always" />
    </filter>
  </defs>
  <sodipodi:namedview
     id="base"
     pagecolor="#ffffff"
     bordercolor="#666666"
     borderopacity="1.0"
     inkscape:pageopacity="0.0"
     inkscape:pageshadow="2"
     inkscape:zoom="1.1376503"
     inkscape:cx="-346.32787"
     inkscape:cy="157.34185"
     inkscape:document-units="px"
     inkscape:current-layer="layer1"
     inkscape:document-rotation="0"
     showgrid="false"
     units="px"
     fit-margin-top="2"
     fit-margin-left="2"
     fit-margin-bottom="2"
     fit-margin-right="2"
     inkscape:window-width="3840"
     inkscape:window-height="2045"
     inkscape:window-x="3840"
     inkscape:window-y="0"
     inkscape:window-maximized="1"
     inkscape:pagecheckerboard="0"
     scale-x="1">
    <inkscape:grid
       type="xygrid"
       id="grid847"
       originx="0"
       originy="0" />
    <inkscape:grid
       spacingy="0.13229167"
       spacingx="0.13229167"
       id="grid873"
       type="xygrid" />
  </sodipodi:namedview>
  <metadata
     id="metadata5">
    <rdf:RDF>
      <cc:Work
         rdf:about="">
        <dc:format>image/svg+xml</dc:format>
        <dc:type
           rdf:resource="http://purl.org/dc/dcmitype/StillImage" />
      </cc:Work>
    </rdf:RDF>
  </metadata>
  <g
     inkscape:label="Layer 1"
     inkscape:groupmode="layer"
     id="layer1"
     transform="translate(-91.93755,-88.636871)">
    <g
       transform="matrix(3.7882556,0,0,3.7882556,-250.10023,-239.89478)"
       id="g903">
      <g
         id="g881"
         transform="matrix(6.0450751,0,0,6.0450751,-555.06966,-453.6331)"
         style="fill:#212121;fill-opacity:1;filter:url(#filter893)">
        <path
           sodipodi:nodetypes="sssss"
           id="path875"
           d="m 116.89755,98.905633 c 1.15707,0.97636 0.20884,1.235957 -0.36722,0.838765 -2.73123,-1.883167 -8.31026,-7.667944 -8.89799,-8.329206 -1.11491,-1.254407 0.49862,-2.006363 1.10785,-1.204199 1.71819,2.262336 4.57011,5.66767 8.15736,8.69464 z"
           style="fill:#212121;fill-opacity:1;stroke:none;stroke-width:0.264583px;stroke-linecap:butt;stroke-linejoin:miter;stroke-opacity:1" />
        <path
           sodipodi:nodetypes="sssss"
           id="path877"
           d="m 109.13547,100.01395 c 1.21708,-3.042704 5.42396,-6.349996 7.33047,-7.783505 0.65518,-0.492626 -0.0685,-1.055612 -0.62653,-0.607046 -2.86749,2.305139 -5.97055,4.467639 -8.09533,7.33124 -0.91818,1.237451 1.25909,1.390041 1.39139,1.059311 z"
           style="fill:#212121;fill-opacity:1;stroke:none;stroke-width:0.264583px;stroke-linecap:butt;stroke-linejoin:miter;stroke-opacity:1" />
      </g>
      <g
         transform="matrix(6.0450751,0,0,6.0450751,-556.39257,-454.69143)"
         id="g887">
        <path
           style="fill:#df0029;fill-opacity:1;stroke:none;stroke-width:0.264583px;stroke-linecap:butt;stroke-linejoin:miter;stroke-opacity:1"
           d="m 116.89755,98.905633 c 1.15707,0.97636 0.20884,1.235957 -0.36722,0.838765 -2.73123,-1.883167 -8.31026,-7.667944 -8.89799,-8.329206 -1.11491,-1.254407 0.49862,-2.006363 1.10785,-1.204199 1.71819,2.262336 4.57011,5.66767 8.15736,8.69464 z"
           id="path883"
           sodipodi:nodetypes="sssss" />
        <path
           style="fill:#df0029;fill-opacity:1;stroke:none;stroke-width:0.264583px;stroke-linecap:butt;stroke-linejoin:miter;stroke-opacity:1"
           d="m 109.13547,100.01395 c 1.21708,-3.042704 5.42396,-6.349996 7.33047,-7.783505 0.65518,-0.492626 -0.0685,-1.055612 -0.62653,-0.607046 -2.86749,2.305139 -5.97055,4.467639 -8.09533,7.33124 -0.91818,1.237451 1.25909,1.390041 1.39139,1.059311 z"
           id="path885"
           sodipodi:nodetypes="sssss" />
      </g>
    </g>
  </g>
</svg>
