<?xml version="1.0" encoding="UTF-8" standalone="no"?>
<svg
   inkscape:export-ydpi="96"
   inkscape:export-xdpi="96"
   inkscape:export-filename="application-exit.png"
   inkscape:version="1.3.2 (1:1.3.2+202311252150+091e20ef0f)"
   sodipodi:docname="exit.svg"
   id="svg19"
   version="1.1"
   width="48"
   height="48"
   xmlns:inkscape="http://www.inkscape.org/namespaces/inkscape"
   xmlns:sodipodi="http://sodipodi.sourceforge.net/DTD/sodipodi-0.dtd"
   xmlns="http://www.w3.org/2000/svg"
   xmlns:svg="http://www.w3.org/2000/svg"
   xmlns:rdf="http://www.w3.org/1999/02/22-rdf-syntax-ns#"
   xmlns:cc="http://creativecommons.org/ns#"
   xmlns:dc="http://purl.org/dc/elements/1.1/">
  <metadata
     id="metadata23">
    <rdf:RDF>
      <cc:Work
         rdf:about="">
        <dc:format>image/svg+xml</dc:format>
        <dc:type
           rdf:resource="http://purl.org/dc/dcmitype/StillImage" />
      </cc:Work>
    </rdf:RDF>
  </metadata>
  <sodipodi:namedview
     inkscape:current-layer="svg19"
     inkscape:window-maximized="1"
     inkscape:window-y="0"
     inkscape:window-x="0"
     inkscape:cy="30.674697"
     inkscape:cx="12.121246"
     inkscape:zoom="19.511195"
     showgrid="false"
     id="namedview21"
     inkscape:window-height="2058"
     inkscape:window-width="3840"
     inkscape:pageshadow="2"
     inkscape:pageopacity="0"
     guidetolerance="10"
     gridtolerance="10"
     objecttolerance="10"
     borderopacity="1"
     bordercolor="#666666"
     pagecolor="#ffffff"
     inkscape:pagecheckerboard="0"
     inkscape:showpageshadow="2"
     inkscape:deskcolor="#d1d1d1">
    <inkscape:grid
       type="xygrid"
       id="grid832"
       originx="0"
       originy="0"
       spacingy="1"
       spacingx="1"
       units="px"
       visible="false" />
    <inkscape:grid
       type="xygrid"
       id="grid834"
       spacingx="0.5"
       spacingy="0.5"
       originx="0"
       originy="0"
       units="px"
       visible="false" />
  </sodipodi:namedview>
  <g
     id="g8"
     transform="matrix(2.0131291,0,0,2.0131291,24.560175,24.660827)">
    <path
       style="fill:url(#gradient0)"
       id="path2"
       stroke="none"
       fill-rule="evenodd"
       fill="url(#gradient0)"
       d="m 9.55,-11.1 q 0.6,0.6 0.6,1.55 V 7.95 Q 10.15,8.85 9.5,9.5 8.9,10.1 8,10.1 H -9.5 q -0.95,0 -1.55,-0.65 -0.65,-0.6 -0.65,-1.5 v -17.5 q 0,-0.95 0.65,-1.55 0.6,-0.65 1.55,-0.65 H 8 q 0.9,0 1.55,0.65" />
    <path
       id="path4"
       stroke-width="1"
       stroke-linejoin="round"
       stroke-linecap="round"
       stroke="#ffffff"
       fill="none"
       d="m 9.55,-11.1 q 0.6,0.6 0.6,1.55 V 7.95 Q 10.15,8.85 9.5,9.5 8.9,10.1 8,10.1 H -9.5 q -0.95,0 -1.55,-0.65 -0.65,-0.6 -0.65,-1.5 v -17.5 q 0,-0.95 0.65,-1.55 0.6,-0.65 1.55,-0.65 H 8 q 0.9,0 1.55,0.65 z" />
    <path
       id="path6"
       stroke-width="3"
       stroke-linejoin="round"
       stroke-linecap="round"
       stroke="#ffffff"
       fill="none"
       d="M -6.1,-6.25 -0.75,-0.8 4.5,-6.3 M 4.45,4.55 -0.75,-0.8 -5.9,4.55" />
  </g>
  <defs
     id="defs17">
    <radialGradient
       spreadMethod="pad"
       r="819.20001"
       id="gradient0"
       gradientUnits="userSpaceOnUse"
       gradientTransform="matrix(0.0209,0,0,0.0209,-6.1,-6.25)"
       cy="0"
       cx="0">
      <stop
         id="stop10"
         stop-color="#ff837d"
         offset="0.0" />
      <stop
         id="stop12"
         stop-color="#e13300"
         offset="0.5843137254901961" />
      <stop
         id="stop14"
         stop-color="#ab2200"
         offset="1.0" />
    </radialGradient>
  </defs>
</svg>
