<?xml version="1.0" encoding="UTF-8" standalone="no"?>
<svg
   inkscape:export-ydpi="6"
   inkscape:export-xdpi="6"
   inkscape:export-filename="application-exit.png"
   inkscape:version="1.1.2 (0a00cf5339, 2022-02-04)"
   sodipodi:docname="exit_16.svg"
   id="svg19"
   version="1.1"
   width="256"
   height="256"
   xmlns:inkscape="http://www.inkscape.org/namespaces/inkscape"
   xmlns:sodipodi="http://sodipodi.sourceforge.net/DTD/sodipodi-0.dtd"
   xmlns="http://www.w3.org/2000/svg"
   xmlns:svg="http://www.w3.org/2000/svg"
   xmlns:rdf="http://www.w3.org/1999/02/22-rdf-syntax-ns#"
   xmlns:cc="http://creativecommons.org/ns#"
   xmlns:dc="http://purl.org/dc/elements/1.1/">
  <metadata
     id="metadata23">
    <rdf:RDF>
      <cc:Work
         rdf:about="">
        <dc:format>image/svg+xml</dc:format>
        <dc:type
           rdf:resource="http://purl.org/dc/dcmitype/StillImage" />
      </cc:Work>
    </rdf:RDF>
  </metadata>
  <sodipodi:namedview
     inkscape:current-layer="svg19"
     inkscape:window-maximized="1"
     inkscape:window-y="0"
     inkscape:window-x="0"
     inkscape:cy="246.43934"
     inkscape:cx="-27.253292"
     inkscape:zoom="1.7245623"
     showgrid="false"
     id="namedview21"
     inkscape:window-height="2043"
     inkscape:window-width="3840"
     inkscape:pageshadow="2"
     inkscape:pageopacity="0"
     guidetolerance="10"
     gridtolerance="10"
     objecttolerance="10"
     borderopacity="1"
     bordercolor="#666666"
     pagecolor="#ffffff"
     inkscape:pagecheckerboard="0">
    <inkscape:grid
       type="xygrid"
       id="grid832" />
    <inkscape:grid
       type="xygrid"
       id="grid834"
       spacingx="0.5"
       spacingy="0.5" />
  </sodipodi:namedview>
  <path
     id="path1278"
     style="fill:#0d1a33;fill-opacity:1;stroke-width:10.2625;filter:url(#filter1338)"
     d="M 42.576172,10 C 34.362439,10 26.554548,13.191185 21.033203,19.033203 15.191185,24.554548 12,32.362439 12,40.576172 V 220.16991 c 0,7.97103 3.266475,15.5801 9.025391,21.02344 5.521762,5.84718 13.333259,9.04102 21.550781,9.04102 H 222.16992 c 7.93527,0 15.53158,-2.98079 21.05079,-8.5 5.7525,-5.7525 9.01367,-13.48104 9.01367,-21.56446 V 40.576172 c 0,-8.18378 -2.90223,-15.964727 -8.5,-21.5625 C 237.98187,13.261168 230.25334,10 222.16992,10 Z" />
  <g
     id="g8"
     transform="matrix(10.262493,0,0,10.262493,128.07119,128.58429)">
    <path
       style="fill:url(#gradient0)"
       id="path2"
       stroke="none"
       fill-rule="evenodd"
       fill="url(#gradient0)"
       d="m 9.55,-11.1 q 0.6,0.6 0.6,1.55 V 7.95 Q 10.15,8.85 9.5,9.5 8.9,10.1 8,10.1 H -9.5 q -0.95,0 -1.55,-0.65 -0.65,-0.6 -0.65,-1.5 v -17.5 q 0,-0.95 0.65,-1.55 0.6,-0.65 1.55,-0.65 H 8 q 0.9,0 1.55,0.65" />
    <path
       id="path4"
       stroke-width="1"
       stroke-linejoin="round"
       stroke-linecap="round"
       stroke="#ffffff"
       fill="none"
       d="m 9.55,-11.1 q 0.6,0.6 0.6,1.55 V 7.95 Q 10.15,8.85 9.5,9.5 8.9,10.1 8,10.1 H -9.5 q -0.95,0 -1.55,-0.65 -0.65,-0.6 -0.65,-1.5 v -17.5 q 0,-0.95 0.65,-1.55 0.6,-0.65 1.55,-0.65 H 8 q 0.9,0 1.55,0.65 z"
       style="stroke-width:1.55908;stroke-miterlimit:4;stroke-dasharray:none" />
    <path
       id="path6"
       stroke-width="3"
       stroke-linejoin="round"
       stroke-linecap="round"
       stroke="#ffffff"
       fill="none"
       d="M -6.1,-6.25 -0.75,-0.8 4.5,-6.3 M 4.45,4.55 -0.75,-0.8 -5.9,4.55" />
  </g>
  <defs
     id="defs17">
    <radialGradient
       spreadMethod="pad"
       r="819.20001"
       id="gradient0"
       gradientUnits="userSpaceOnUse"
       gradientTransform="matrix(0.0209,0,0,0.0209,-6.1,-6.25)"
       cy="0"
       cx="0">
      <stop
         id="stop10"
         stop-color="#ff837d"
         offset="0.0" />
      <stop
         id="stop12"
         stop-color="#e13300"
         offset="0.5843137254901961" />
      <stop
         id="stop14"
         stop-color="#ab2200"
         offset="1.0" />
    </radialGradient>
    <filter
       inkscape:collect="always"
       style="color-interpolation-filters:sRGB"
       id="filter1338"
       x="-0.147"
       y="-0.147"
       width="1.294"
       height="1.294">
      <feGaussianBlur
         inkscape:collect="always"
         stdDeviation="14.714355"
         id="feGaussianBlur1340" />
    </filter>
  </defs>
</svg>
