<?xml version="1.0" encoding="UTF-8" standalone="no"?>
<svg
   inkscape:export-ydpi="96"
   inkscape:export-xdpi="96"
   inkscape:export-filename="/media/klapeto/Αρχεία/WindowsXP Theme/Vectors/RASTER/information.png"
   sodipodi:docname="information-new.svg"
   inkscape:version="1.1.1 (3bf5ae0d25, 2021-09-20)"
   id="svg8"
   version="1.1"
   viewBox="0 0 256 256"
   height="256"
   width="256"
   xmlns:inkscape="http://www.inkscape.org/namespaces/inkscape"
   xmlns:sodipodi="http://sodipodi.sourceforge.net/DTD/sodipodi-0.dtd"
   xmlns:xlink="http://www.w3.org/1999/xlink"
   xmlns="http://www.w3.org/2000/svg"
   xmlns:svg="http://www.w3.org/2000/svg"
   xmlns:rdf="http://www.w3.org/1999/02/22-rdf-syntax-ns#"
   xmlns:cc="http://creativecommons.org/ns#"
   xmlns:dc="http://purl.org/dc/elements/1.1/">
  <defs
     id="defs2">
    <linearGradient
       inkscape:collect="always"
       id="linearGradient1211">
      <stop
         style="stop-color:#001a4e;stop-opacity:1"
         offset="0"
         id="stop1207" />
      <stop
         style="stop-color:#2957b2;stop-opacity:1"
         offset="1"
         id="stop1209" />
    </linearGradient>
    <linearGradient
       inkscape:collect="always"
       id="linearGradient1201">
      <stop
         style="stop-color:#87b7ff;stop-opacity:1"
         offset="0"
         id="stop1197" />
      <stop
         id="stop1205"
         offset="0.43725517"
         style="stop-color:#003297;stop-opacity:1" />
      <stop
         style="stop-color:#00246e;stop-opacity:1"
         offset="1"
         id="stop1199" />
    </linearGradient>
    <linearGradient
       inkscape:collect="always"
       id="linearGradient1191">
      <stop
         style="stop-color:#79abff;stop-opacity:1;"
         offset="0"
         id="stop1187" />
      <stop
         style="stop-color:#003399;stop-opacity:1"
         offset="1"
         id="stop1189" />
    </linearGradient>
    <linearGradient
       inkscape:collect="always"
       id="linearGradient1177">
      <stop
         style="stop-color:#9ac4ed;stop-opacity:1"
         offset="0"
         id="stop1172" />
      <stop
         style="stop-color:#f0f7ff;stop-opacity:1"
         offset="1"
         id="stop1175" />
    </linearGradient>
    <linearGradient
       inkscape:collect="always"
       id="linearGradient1125">
      <stop
         style="stop-color:#253a63;stop-opacity:1"
         offset="0"
         id="stop1121" />
      <stop
         style="stop-color:#d7dfe6;stop-opacity:1"
         offset="1"
         id="stop1123" />
    </linearGradient>
    <linearGradient
       inkscape:collect="always"
       id="linearGradient1117">
      <stop
         style="stop-color:#7897bb;stop-opacity:1"
         offset="0"
         id="stop1112" />
      <stop
         id="stop1148"
         offset="0.18502942"
         style="stop-color:#7897b7;stop-opacity:1" />
      <stop
         style="stop-color:#f3f3f3;stop-opacity:1"
         offset="1"
         id="stop1115" />
    </linearGradient>
    <linearGradient
       inkscape:collect="always"
       xlink:href="#linearGradient1117"
       id="linearGradient1119"
       x1="37.567711"
       y1="44.317711"
       x2="37.567711"
       y2="0.66145837"
       gradientUnits="userSpaceOnUse"
       gradientTransform="translate(0.41299994,0.44599992)" />
    <linearGradient
       inkscape:collect="always"
       xlink:href="#linearGradient1125"
       id="linearGradient1127"
       x1="47.567711"
       y1="41"
       x2="17.859375"
       y2="7.276042"
       gradientUnits="userSpaceOnUse"
       gradientTransform="translate(0.41299994,0.44599992)" />
    <linearGradient
       inkscape:collect="always"
       xlink:href="#linearGradient1177"
       id="linearGradient1179"
       x1="38.726906"
       y1="40.900723"
       x2="38.726906"
       y2="6.0420032"
       gradientUnits="userSpaceOnUse"
       gradientTransform="translate(0.41299994,0.44599992)" />
    <linearGradient
       inkscape:collect="always"
       xlink:href="#linearGradient1191"
       id="linearGradient1193"
       x1="34.9375"
       y1="30.691668"
       x2="34.9375"
       y2="29.104168"
       gradientUnits="userSpaceOnUse"
       gradientTransform="translate(-0.0124998)" />
    <radialGradient
       inkscape:collect="always"
       xlink:href="#linearGradient1201"
       id="radialGradient1203"
       cx="11.906251"
       cy="8.598959"
       fx="11.906251"
       fy="8.598959"
       r="3.3734386"
       gradientUnits="userSpaceOnUse"
       gradientTransform="matrix(1.3679629,-0.67682612,0.54025499,1.0919332,-35.50065,7.2679327)" />
    <linearGradient
       inkscape:collect="always"
       xlink:href="#linearGradient1211"
       id="linearGradient1215"
       x1="8.9419565"
       y1="4.5652432"
       x2="13.375966"
       y2="9.3158751"
       gradientUnits="userSpaceOnUse"
       gradientTransform="translate(-26.47396)" />
    <filter
       inkscape:collect="always"
       style="color-interpolation-filters:sRGB"
       id="filter1229"
       x="-0.049342947"
       width="1.0986859"
       y="-0.047616475"
       height="1.0952329">
      <feGaussianBlur
         inkscape:collect="always"
         stdDeviation="0.77189958"
         id="feGaussianBlur1231" />
    </filter>
    <filter
       inkscape:collect="always"
       style="color-interpolation-filters:sRGB"
       id="filter1245"
       x="-0.047869866"
       width="1.0957397"
       y="-0.048130848"
       height="1.0962617">
      <feGaussianBlur
         inkscape:collect="always"
         stdDeviation="4.8531735"
         id="feGaussianBlur1247" />
    </filter>
    <filter
       inkscape:collect="always"
       style="color-interpolation-filters:sRGB"
       id="filter1224"
       x="-0.048"
       y="-0.048000002"
       width="1.096"
       height="1.096">
      <feGaussianBlur
         inkscape:collect="always"
         stdDeviation="2"
         id="feGaussianBlur1226" />
    </filter>
  </defs>
  <sodipodi:namedview
     inkscape:snap-global="true"
     inkscape:bbox-paths="false"
     fit-margin-bottom="0"
     fit-margin-right="0"
     fit-margin-left="0"
     fit-margin-top="0"
     inkscape:bbox-nodes="true"
     inkscape:snap-bbox="true"
     inkscape:window-maximized="1"
     inkscape:window-y="0"
     inkscape:window-x="3840"
     inkscape:window-height="2045"
     inkscape:window-width="3840"
     units="px"
     showgrid="false"
     inkscape:document-rotation="0"
     inkscape:current-layer="layer1"
     inkscape:document-units="px"
     inkscape:cy="285.06035"
     inkscape:cx="-838.34204"
     inkscape:zoom="0.8314029"
     inkscape:pageshadow="2"
     inkscape:pageopacity="0.0"
     borderopacity="1.0"
     bordercolor="#666666"
     pagecolor="#ffffff"
     id="base"
     showguides="false"
     inkscape:pagecheckerboard="0">
    <inkscape:grid
       originy="0"
       originx="0"
       id="grid1504"
       type="xygrid" />
    <inkscape:grid
       originy="0"
       originx="0"
       spacingy="0.5"
       spacingx="0.5"
       id="grid1507"
       type="xygrid" />
  </sodipodi:namedview>
  <metadata
     id="metadata5">
    <rdf:RDF>
      <cc:Work
         rdf:about="">
        <dc:format>image/svg+xml</dc:format>
        <dc:type
           rdf:resource="http://purl.org/dc/dcmitype/StillImage" />
      </cc:Work>
    </rdf:RDF>
  </metadata>
  <g
     transform="translate(-12.567709)"
     id="layer1"
     inkscape:groupmode="layer"
     inkscape:label="Layer 1">
    <path
       id="path1171"
       style="fill:#212121;fill-opacity:1;stroke:none;stroke-width:5.31078;stroke-linecap:round;stroke-linejoin:round;filter:url(#filter1245)"
       d="m 139.46186,4.232 c -66.910349,0 -121.660151,44.956586 -121.660151,101.01563 0,48.92476 41.767475,89.41681 96.808591,98.89843 1.99502,0.54112 5.701,3.35498 9.75392,7.45313 4.05848,4.10379 8.64357,9.37411 13.50194,14.54883 4.85837,5.17472 9.98517,10.26133 15.31445,14.05664 5.32928,3.7953 10.96066,6.40013 16.8086,5.98242 a 2.6556556,2.6556556 0 0 0 2.46679,-2.58398 l 0.99414,-41.39258 C 223.87949,190.04593 261.12006,151.4183 261.12006,105.24763 261.12006,49.188586 206.37222,4.232 139.46186,4.232 Z" />
    <g
       id="g1112"
       transform="matrix(5.3107787,0,0,5.3107787,-55.189153,-1.000829)">
      <path
         sodipodi:nodetypes="scccsss"
         d="m 58.118711,19.253003 c 0,8.538279 -6.99036,15.7271 -16.498862,17.870062 l -0.196431,8.169811 c -3.704167,0.264583 -7.9375,-7.276042 -10.264683,-7.901416 -10.193066,-1.738415 -17.85614,-9.198775 -17.85614,-18.138457 0,-10.2287742 10.032429,-18.52083403 22.408058,-18.52083403 12.375629,0 22.408058,8.29205983 22.408058,18.52083403 z"
         style="fill:url(#linearGradient1119);fill-opacity:1;stroke:none;stroke-linecap:round;stroke-linejoin:round"
         id="path1108" />
      <path
         id="path1143"
         style="fill:none;fill-opacity:1;stroke:none;stroke-linecap:round;stroke-linejoin:round"
         d="m 58.118711,19.253003 c 0,8.538279 -6.99036,15.7271 -16.498862,17.870062 l -0.196431,8.169811 c -3.704167,0.264583 -7.9375,-7.276042 -10.264683,-7.901416 -10.193066,-1.738415 -17.85614,-9.198775 -17.85614,-18.138457 0,-10.2287742 10.032429,-18.52083403 22.408058,-18.52083403 12.375629,0 22.408058,8.29205983 22.408058,18.52083403 z"
         sodipodi:nodetypes="scccsss" />
      <path
         sodipodi:nodetypes="cccsssc"
         d="m 40.076067,34.092234 c -0.277699,1.634681 -0.883153,8.416556 -0.883153,8.416556 0,0 -3.077233,-6.22712 -3.553348,-7.994256 -10.59307,0 -18.823827,-6.52886 -18.823827,-15.203948 0,-8.675088 8.230757,-15.7076371 18.823827,-15.7076371 10.59307,-5e-7 18.720728,7.0325481 18.720728,15.7076371 0,7.424495 -5.83022,13.142201 -14.284227,14.781648 z"
         style="fill:url(#linearGradient1179);fill-opacity:1;stroke:none;stroke-linecap:round;stroke-linejoin:round;stroke-opacity:1;filter:url(#filter1229)"
         id="path1129" />
      <path
         id="path1145"
         style="fill:none;fill-opacity:1;stroke:url(#linearGradient1127);stroke-linecap:round;stroke-linejoin:round"
         d="m 58.118711,19.253003 c 0,8.538279 -6.99036,15.7271 -16.498862,17.870062 l -0.196431,8.169811 c -3.704167,0.264583 -7.9375,-7.276042 -10.264683,-7.901416 -10.193066,-1.738415 -17.85614,-9.198775 -17.85614,-18.138457 0,-10.2287742 10.032429,-18.52083403 22.408058,-18.52083403 12.375629,0 22.408058,8.29205983 22.408058,18.52083403 z"
         sodipodi:nodetypes="scccsss" />
      <path
         sodipodi:nodetypes="scscs"
         d="m 35.638912,3.6022499 c -9.178695,0 -16.259435,5.338211 -18.129349,12.3916951 2.813122,-6.0947842 9.783321,-10.5225545 18.129349,-10.5225545 8.563156,-4e-7 15.962819,4.5546435 18.483093,10.8983215 C 52.459898,9.0806823 45.021574,3.6022495 35.638912,3.6022499 Z"
         style="fill:#ffffff;fill-opacity:1;stroke:none;stroke-linecap:round;stroke-linejoin:round;stroke-opacity:1"
         id="path1233" />
      <g
         transform="translate(50.841894,0.44599992)"
         id="g1227">
        <g
           id="g1220"
           transform="translate(-50.796876,0.06562543)">
          <path
             sodipodi:nodetypes="cccccccc"
             id="path1181"
             d="M 30.367983,14.022917 38.4409,13.626042 V 28 l 3,2.559376 H 31.029441 L 33.4409,28 V 17 Z"
             style="fill:#003399;fill-opacity:1;stroke:none;stroke-width:1px;stroke-linecap:round;stroke-linejoin:round;stroke-opacity:1" />
          <path
             style="fill:none;fill-opacity:1;stroke:#002369;stroke-width:1px;stroke-linecap:round;stroke-linejoin:round;stroke-opacity:1"
             d="m 30.291668,14.022917 8.072917,-0.396875 V 28 l 3,2.162501 H 30.956251 L 33.364585,28 V 17 Z"
             id="path1185"
             sodipodi:nodetypes="cccccccc" />
          <path
             sodipodi:nodetypes="ccccc"
             id="path1183"
             d="m 39.026237,29.068867 -6.085611,0.0353 -1.852083,1.5875 H 41.14271 Z"
             style="fill:url(#linearGradient1193);fill-opacity:1;stroke:none;stroke-width:1px;stroke-linecap:round;stroke-linejoin:round;stroke-opacity:1" />
        </g>
        <circle
           style="fill:url(#radialGradient1203);fill-opacity:1;stroke:url(#linearGradient1215);stroke-linecap:round;stroke-linejoin:round;stroke-opacity:1"
           id="path1195"
           cx="-15.279689"
           cy="6.9161458"
           r="2.8734386" />
      </g>
    </g>
    <path
       id="rect1104"
       style="fill:#212121;fill-opacity:1;stroke:none;stroke-width:4.12393;stroke-linecap:round;stroke-linejoin:round;stroke-miterlimit:4;stroke-dasharray:none;stroke-opacity:1;filter:url(#filter1224)"
       d="m 215.8065,5.0919645 c -3.95714,0 -7.14258,3.187388 -7.14258,7.1445305 v 22.707032 a 21.42857,21.42857 0 0 0 -2.07617,0.828125 L 192.23619,21.420089 c -2.79812,-2.798123 -7.30344,-2.798123 -10.10156,0 -2.79813,2.798122 -2.79813,7.303439 0,10.101563 l 14.35351,14.353515 a 21.42857,21.42857 0 0 0 -0.83008,2.074219 h -22.70898 c -3.95714,0 -7.14258,3.185435 -7.14258,7.142578 0,3.957143 3.18544,7.144531 7.14258,7.144531 h 22.70898 a 21.42857,21.42857 0 0 0 0.82813,2.074219 l -14.35156,14.351563 c -2.79813,2.798123 -2.79813,7.303439 0,10.101562 2.79812,2.798123 7.30344,2.798123 10.10156,0 l 14.35156,-14.351562 a 21.42857,21.42857 0 0 0 2.07617,0.828125 v 22.708982 c 0,3.957146 3.18544,7.142576 7.14258,7.142576 3.95714,0 7.14258,-3.18543 7.14258,-7.142576 V 75.240402 a 21.42857,21.42857 0 0 0 2.07422,-0.830079 l 14.35351,14.353516 c 2.79813,2.798123 7.30344,2.798123 10.10157,0 2.79812,-2.798123 2.79812,-7.303439 0,-10.101562 L 235.12681,64.310714 a 21.42857,21.42857 0 0 0 0.82813,-2.074219 h 22.70898 c 3.95715,0 7.14258,-3.187388 7.14258,-7.144531 0,-3.957143 -3.18543,-7.142578 -7.14258,-7.142578 h -22.65625 a 21.42857,21.42857 0 0 0 -0.86523,-2.091797 l 14.33594,-14.335937 c 2.79812,-2.798124 2.79812,-7.303441 0,-10.101563 -2.79813,-2.798123 -7.30344,-2.798123 -10.10157,0 l -14.33593,14.335938 a 21.42857,21.42857 0 0 0 -2.0918,-0.865235 V 12.236495 c 0,-3.9571425 -3.18544,-7.1445305 -7.14258,-7.1445305 z" />
    <g
       transform="matrix(17.99775,0,0,17.99775,222.71051,-46.526259)"
       id="g4993">
      <rect
         ry="0.39687499"
         rx="0.39687499"
         y="0.26458335"
         x="2.6458335"
         height="0.79374999"
         width="5.5562501"
         id="rect4900-2"
         style="fill:#ff3300;fill-opacity:1;stroke:none;stroke-width:0.229136;stroke-linecap:round;stroke-linejoin:round;stroke-miterlimit:4;stroke-dasharray:none;stroke-opacity:1"
         transform="rotate(90)" />
      <rect
         ry="0.39687499"
         rx="0.39687499"
         y="3.9061642"
         x="0.72176301"
         height="0.79374999"
         width="5.2916665"
         id="rect4900-0"
         style="fill:#ff3300;fill-opacity:1;stroke:none;stroke-width:0.229136;stroke-linecap:round;stroke-linejoin:round;stroke-miterlimit:4;stroke-dasharray:none;stroke-opacity:1"
         transform="rotate(45)" />
      <rect
         style="fill:#ff3300;fill-opacity:1;stroke:none;stroke-width:0.229136;stroke-linecap:round;stroke-linejoin:round;stroke-miterlimit:4;stroke-dasharray:none;stroke-opacity:1"
         id="rect4900"
         width="5.5562501"
         height="0.79374999"
         x="-3.4395831"
         y="5.0270834"
         rx="0.39687499"
         ry="0.39687499" />
      <rect
         transform="matrix(-0.70710678,0.70710678,0.70710678,0.70710678,0,0)"
         style="fill:#ff3300;fill-opacity:1;stroke:none;stroke-width:0.229136;stroke-linecap:round;stroke-linejoin:round;stroke-miterlimit:4;stroke-dasharray:none;stroke-opacity:1"
         id="rect4900-0-1"
         width="5.2916665"
         height="0.79374999"
         x="1.6572058"
         y="2.9707212"
         rx="0.39687499"
         ry="0.39687499" />
      <g
         id="g4898"
         transform="translate(-1.1906254)">
        <circle
           r="1.190625"
           cy="5.4239583"
           cx="0.52916735"
           id="path4879"
           style="fill:#ffcc00;fill-opacity:1;stroke:none;stroke-width:0.264583;stroke-linecap:round;stroke-linejoin:round;stroke-miterlimit:4;stroke-dasharray:none;stroke-opacity:1" />
        <circle
           style="fill:#ffff99;fill-opacity:1;stroke:none;stroke-width:0.264583;stroke-linecap:round;stroke-linejoin:round;stroke-miterlimit:4;stroke-dasharray:none;stroke-opacity:1"
           id="path4879-9"
           cx="0.52916735"
           cy="5.4239583"
           r="0.39687493" />
      </g>
    </g>
  </g>
</svg>
