<?xml version="1.0" encoding="UTF-8" standalone="no"?>
<svg
   inkscape:export-ydpi="96"
   inkscape:export-xdpi="96"
   inkscape:export-filename="/media/klapeto/Αρχεία/WindowsXP Theme/Vectors/RASTER/magic.png"
   sodipodi:docname="magic.svg"
   inkscape:version="1.1.1 (3bf5ae0d25, 2021-09-20)"
   id="svg8"
   version="1.1"
   viewBox="0 0 256 256"
   height="256"
   width="256"
   xmlns:inkscape="http://www.inkscape.org/namespaces/inkscape"
   xmlns:sodipodi="http://sodipodi.sourceforge.net/DTD/sodipodi-0.dtd"
   xmlns:xlink="http://www.w3.org/1999/xlink"
   xmlns="http://www.w3.org/2000/svg"
   xmlns:svg="http://www.w3.org/2000/svg"
   xmlns:rdf="http://www.w3.org/1999/02/22-rdf-syntax-ns#"
   xmlns:cc="http://creativecommons.org/ns#"
   xmlns:dc="http://purl.org/dc/elements/1.1/">
  <defs
     id="defs2">
    <linearGradient
       gradientTransform="matrix(-0.00788835,-0.02730582,-0.0618932,0.01759709,85.149657,172.27677)"
       gradientUnits="userSpaceOnUse"
       id="gradient5"
       spreadMethod="pad"
       x1="-819.20001"
       x2="819.20001">
      <stop
         offset="0.0"
         stop-color="#ffff99"
         id="stop71" />
      <stop
         offset="1.0"
         stop-color="#ffffff"
         id="stop73" />
    </linearGradient>
    <linearGradient
       gradientTransform="matrix(-0.00788835,-0.02730582,-0.0618932,0.01759709,85.149657,172.27677)"
       gradientUnits="userSpaceOnUse"
       id="gradient6"
       spreadMethod="pad"
       x1="-819.20001"
       x2="819.20001">
      <stop
         offset="0.0"
         stop-color="#ffff99"
         id="stop76" />
      <stop
         offset="1.0"
         stop-color="#ffffff"
         id="stop78" />
    </linearGradient>
    <radialGradient
       cx="0"
       cy="0"
       gradientTransform="matrix(0.04000329,0,0,0.04000329,171.44028,61.365171)"
       gradientUnits="userSpaceOnUse"
       id="gradient7"
       r="819.20001"
       spreadMethod="pad">
      <stop
         offset="0.0"
         stop-color="#ffff99"
         id="stop81" />
      <stop
         offset="0.3333333333333333"
         stop-color="#ffff00"
         id="stop83" />
      <stop
         offset="1.0"
         stop-color="#f26c21"
         id="stop85" />
    </radialGradient>
    <radialGradient
       cx="0"
       cy="0"
       gradientTransform="matrix(0.03200263,0,0,0.03200263,218.82879,174.29752)"
       gradientUnits="userSpaceOnUse"
       id="gradient8"
       r="819.20001"
       spreadMethod="pad">
      <stop
         offset="0.0"
         stop-color="#ffff99"
         id="stop88" />
      <stop
         offset="0.2196078431372549"
         stop-color="#ffff00"
         id="stop90" />
      <stop
         offset="1.0"
         stop-color="#ff9933"
         id="stop92" />
    </radialGradient>
    <radialGradient
       cx="0"
       cy="0"
       gradientTransform="matrix(0.01969393,0,0,0.01969393,251.13913,91.521491)"
       gradientUnits="userSpaceOnUse"
       id="gradient9"
       r="819.20001"
       spreadMethod="pad">
      <stop
         offset="0.0"
         stop-color="#ffff99"
         id="stop95" />
      <stop
         offset="0.2980392156862745"
         stop-color="#ffff00"
         id="stop97" />
      <stop
         offset="1.0"
         stop-color="#ff9933"
         id="stop99" />
    </radialGradient>
    <radialGradient
       cx="0"
       cy="0"
       gradientTransform="matrix(0.01969393,0,0,0.01969393,126.51352,17.669282)"
       gradientUnits="userSpaceOnUse"
       id="gradient10"
       r="819.20001"
       spreadMethod="pad">
      <stop
         offset="0.0"
         stop-color="#ffff99"
         id="stop102" />
      <stop
         offset="0.2980392156862745"
         stop-color="#ffff00"
         id="stop104" />
      <stop
         offset="1.0"
         stop-color="#ff9933"
         id="stop106" />
    </radialGradient>
    <radialGradient
       cx="0"
       cy="0"
       gradientTransform="matrix(0.01969393,0,0,0.02030936,174.51746,236.45646)"
       gradientUnits="userSpaceOnUse"
       id="gradient11"
       r="819.20001"
       spreadMethod="pad">
      <stop
         offset="0.0"
         stop-color="#ffff99"
         id="stop109" />
      <stop
         offset="0.2980392156862745"
         stop-color="#ffff00"
         id="stop111" />
      <stop
         offset="1.0"
         stop-color="#ff9933"
         id="stop113" />
    </radialGradient>
    <radialGradient
       cx="0"
       cy="0"
       gradientTransform="matrix(0.01969393,0,0,0.01969393,233.90695,238.61049)"
       gradientUnits="userSpaceOnUse"
       id="gradient12"
       r="819.20001"
       spreadMethod="pad">
      <stop
         offset="0.0"
         stop-color="#ffff99"
         id="stop116" />
      <stop
         offset="0.2980392156862745"
         stop-color="#ffff00"
         id="stop118" />
      <stop
         offset="1.0"
         stop-color="#ff9933"
         id="stop120" />
    </radialGradient>
    <radialGradient
       cx="0"
       cy="0"
       gradientTransform="matrix(0.01969393,0,0,0.01969393,65.893166,33.055159)"
       gradientUnits="userSpaceOnUse"
       id="gradient13"
       r="819.20001"
       spreadMethod="pad">
      <stop
         offset="0.0"
         stop-color="#ffff99"
         id="stop123" />
      <stop
         offset="0.2980392156862745"
         stop-color="#ffff00"
         id="stop125" />
      <stop
         offset="1.0"
         stop-color="#ff9933"
         id="stop127" />
    </radialGradient>
    <linearGradient
       spreadMethod="pad"
       x2="819.20001"
       x1="-819.20001"
       gradientTransform="matrix(-0.00788835,-0.02730582,-0.0618932,0.01759709,85.149657,172.27677)"
       gradientUnits="userSpaceOnUse"
       id="linearGradient1193"
       xlink:href="#gradient5"
       inkscape:collect="always" />
    <linearGradient
       spreadMethod="pad"
       x2="819.20001"
       x1="-819.20001"
       gradientTransform="matrix(-0.00788835,-0.02730582,-0.0618932,0.01759709,85.149657,172.27677)"
       gradientUnits="userSpaceOnUse"
       id="linearGradient1195"
       xlink:href="#gradient6"
       inkscape:collect="always" />
    <radialGradient
       spreadMethod="pad"
       r="819.20001"
       cy="0"
       cx="0"
       gradientTransform="matrix(0.04000329,0,0,0.04000329,171.44028,61.365171)"
       gradientUnits="userSpaceOnUse"
       id="radialGradient1197"
       xlink:href="#gradient7"
       inkscape:collect="always" />
    <radialGradient
       spreadMethod="pad"
       r="819.20001"
       cy="0"
       cx="0"
       gradientTransform="matrix(0.03200263,0,0,0.03200263,218.82879,174.29752)"
       gradientUnits="userSpaceOnUse"
       id="radialGradient1199"
       xlink:href="#gradient8"
       inkscape:collect="always" />
    <radialGradient
       spreadMethod="pad"
       r="819.20001"
       cy="0"
       cx="0"
       gradientTransform="matrix(0.01969393,0,0,0.01969393,251.13913,91.521491)"
       gradientUnits="userSpaceOnUse"
       id="radialGradient1201"
       xlink:href="#gradient9"
       inkscape:collect="always" />
    <radialGradient
       spreadMethod="pad"
       r="819.20001"
       cy="0"
       cx="0"
       gradientTransform="matrix(0.01969393,0,0,0.01969393,126.51352,17.669282)"
       gradientUnits="userSpaceOnUse"
       id="radialGradient1203"
       xlink:href="#gradient10"
       inkscape:collect="always" />
    <radialGradient
       spreadMethod="pad"
       r="819.20001"
       cy="0"
       cx="0"
       gradientTransform="matrix(0.01969393,0,0,0.02030936,174.51746,236.45646)"
       gradientUnits="userSpaceOnUse"
       id="radialGradient1205"
       xlink:href="#gradient11"
       inkscape:collect="always" />
    <radialGradient
       spreadMethod="pad"
       r="819.20001"
       cy="0"
       cx="0"
       gradientTransform="matrix(0.01969393,0,0,0.01969393,233.90695,238.61049)"
       gradientUnits="userSpaceOnUse"
       id="radialGradient1207"
       xlink:href="#gradient12"
       inkscape:collect="always" />
    <radialGradient
       spreadMethod="pad"
       r="819.20001"
       cy="0"
       cx="0"
       gradientTransform="matrix(0.01969393,0,0,0.01969393,65.893166,33.055159)"
       gradientUnits="userSpaceOnUse"
       id="radialGradient1209"
       xlink:href="#gradient13"
       inkscape:collect="always" />
    <filter
       height="1.0909299"
       y="-0.045464926"
       width="1.0995446"
       x="-0.049772283"
       id="filter1288"
       style="color-interpolation-filters:sRGB"
       inkscape:collect="always">
      <feGaussianBlur
         id="feGaussianBlur1290"
         stdDeviation="4.5464927"
         inkscape:collect="always" />
    </filter>
  </defs>
  <sodipodi:namedview
     inkscape:snap-global="true"
     inkscape:bbox-paths="false"
     fit-margin-bottom="0"
     fit-margin-right="0"
     fit-margin-left="0"
     fit-margin-top="0"
     inkscape:bbox-nodes="true"
     inkscape:snap-bbox="true"
     inkscape:window-maximized="1"
     inkscape:window-y="0"
     inkscape:window-x="3840"
     inkscape:window-height="2045"
     inkscape:window-width="3840"
     units="px"
     showgrid="false"
     inkscape:document-rotation="0"
     inkscape:current-layer="layer1"
     inkscape:document-units="px"
     inkscape:cy="105.00535"
     inkscape:cx="22.627416"
     inkscape:zoom="2.8284272"
     inkscape:pageshadow="2"
     inkscape:pageopacity="0.0"
     borderopacity="1.0"
     bordercolor="#666666"
     pagecolor="#ffffff"
     id="base"
     showguides="false"
     inkscape:pagecheckerboard="0">
    <inkscape:grid
       originy="0"
       originx="0"
       id="grid1504"
       type="xygrid" />
    <inkscape:grid
       type="xygrid"
       id="grid898"
       spacingx="0.5"
       spacingy="0.5" />
  </sodipodi:namedview>
  <metadata
     id="metadata5">
    <rdf:RDF>
      <cc:Work
         rdf:about="">
        <dc:format>image/svg+xml</dc:format>
        <dc:type
           rdf:resource="http://purl.org/dc/dcmitype/StillImage" />
      </cc:Work>
    </rdf:RDF>
  </metadata>
  <g
     transform="translate(-12.567709)"
     id="layer1"
     inkscape:groupmode="layer"
     inkscape:label="Layer 1">
    <path
       d="m 123.03035,4.26 -2.62109,7.574219 -6.40821,-4.6601565 2.33008,7.5722655 -7.86523,0.291015 6.4082,4.660157 -6.4082,4.660156 7.86523,0.291016 -2.33008,7.574218 6.40821,-4.660156 2.62109,7.572266 2.62109,-7.572266 6.40821,4.660156 -2.33008,-7.574218 7.86328,-0.291016 -6.4082,-4.660156 6.4082,-4.660157 -7.86328,-0.291015 2.33008,-7.5722655 -6.40821,4.6601565 z m -57.378905,14.564453 -2.621093,7.572265 -6.699219,-4.660156 2.621094,7.572266 h -8.15625 L 57.20418,34.26 50.795977,38.920156 h 8.15625 l -2.621094,7.865234 6.699219,-4.660156 2.621093,7.572266 2.330078,-7.572266 6.699219,4.660156 -2.621093,-7.865234 h 8.154296 L 73.805742,34.26 80.213945,29.308828 h -8.154296 l 2.621093,-7.572266 -6.699219,4.660156 z m 99.902345,11.359375 -4.95117,15.435547 -13.10743,-9.320313 4.66016,15.146484 -16.01953,0.291016 13.10742,9.320313 -13.10742,9.611328 h 16.01953 l -4.66016,15.4375 13.10743,-9.320313 4.95117,15.144532 4.95117,-15.144532 13.10742,9.320313 -4.66015,-15.4375 h 16.01953 l -12.81641,-9.611328 12.81641,-9.320313 -16.01953,-0.291016 4.66015,-15.146484 -13.10742,9.320313 z m 75.4375,43.980468 -2.6211,7.572266 -6.4082,-4.660156 2.33008,7.863281 h -7.86523 l 6.4082,4.660156 -6.4082,4.953125 h 7.86523 l -2.33008,7.572262 6.4082,-4.660152 2.6211,7.572262 2.62109,-7.572262 6.4082,4.660152 -2.33007,-7.572262 h 8.15429 l -6.69922,-4.953125 6.69922,-4.660156 h -8.15429 l 2.33007,-7.863281 -6.4082,4.660156 z m -99.22852,30.578124 c -0.80539,-0.0113 -1.62025,-0.008 -2.4414,0.01 a 7.552555,7.552555 0 0 0 -3.30664,0.8418 l -88.357425,45.68921 a 7.552555,7.552555 0 0 0 -2.382813,1.9336 c -4.483666,5.49611 -7.527355,11.23366 -8.417969,17.3789 -0.890612,6.14524 0.713407,12.47445 4.242188,17.6836 a 7.552555,7.552555 0 0 0 0.03516,0.0527 c 3.695926,5.3591 9.606926,8.83199 16.226563,10.26758 6.619637,1.43559 14.078971,1.17253 22.628906,-0.32031 a 7.552555,7.552555 0 0 0 2.234375,-0.76368 l 84.201165,-44.55468 a 7.552555,7.552555 0 0 0 3.12696,-3.11328 c 3.22587,-6.03099 5.26278,-11.75213 5.6875,-17.44336 0.42472,-5.69123 -1.03785,-11.44499 -4.41602,-15.94922 a 7.552555,7.552555 0 0 0 -0.24024,-0.30274 c -6.49691,-7.7963 -16.73944,-11.24047 -28.82031,-11.41015 z m 68.64649,38.45117 -4.07813,12.23242 -10.19531,-7.28125 3.78711,11.94141 -12.81641,0.29101 10.19532,7.57227 -10.19532,7.57422 h 12.81641 l -3.78711,12.23242 10.19531,-7.28125 4.07813,11.94141 4.07617,-11.94141 10.48633,7.28125 -3.78711,-12.23242 h 12.8164 l -10.48632,-7.57422 10.48632,-7.57227 -12.8164,-0.29101 3.78711,-11.94141 -10.48633,7.28125 z m -41.94336,67.86328 -2.33008,7.86328 -6.69922,-4.66015 2.62305,7.57421 h -8.15625 l 6.4082,4.95118 -6.4082,4.66015 h 8.15625 l -2.62305,7.57227 6.69922,-4.66016 2.33008,7.86524 2.62109,-7.86524 6.69922,4.66016 -2.62109,-7.57227 h 8.15625 l -6.40821,-4.66015 6.40821,-4.95118 h -8.15625 l 2.62109,-7.57421 -6.69922,4.66015 z m 56.21484,2.33008 -2.62109,7.57226 -6.40821,-4.66015 2.33008,7.57422 h -8.15625 l 6.69922,4.95117 -6.69922,4.66016 h 8.15625 l -2.33008,7.86328 6.40821,-4.66016 2.62109,7.57227 2.6211,-7.57227 6.4082,4.66016 -2.33008,-7.86328 h 7.86328 l -6.4082,-4.66016 6.4082,-4.95117 h -7.86328 l 2.33008,-7.57422 -6.4082,4.66015 z"
       style="fill:#212121;fill-opacity:1;stroke-width:7.5518;filter:url(#filter1288)"
       id="path1211" />
    <g
       transform="matrix(0.94652426,0,0,0.94652426,-1.7182172,-1.0269555)"
       id="g1138">
      <g
         transform="matrix(1.314849,0,0,1.314849,-3.5660828,-68.327336)"
         id="g1122">
        <path
           d="m 63.305047,202.92 q -19.114081,3.33738 -25.18204,-5.46117 -6.371358,-9.40533 3.033974,-20.93446 l 70.995149,-36.71116 q 14.25972,-0.3034 20.32767,6.97815 5.46117,7.28155 -1.51699,20.32767 L 63.305047,202.92"
           fill="url(#gradient5)"
           fill-rule="evenodd"
           stroke="none"
           id="path1114"
           style="fill:url(#linearGradient1193);stroke-width:6.06796" />
        <path
           d="m 63.305047,202.92 67.657763,-35.80097 q 6.97816,-13.04612 1.51699,-20.32767 -6.06795,-7.28155 -20.32767,-6.97815 l -70.995149,36.71116 q -9.405332,11.52913 -3.033974,20.93446 6.067959,8.79855 25.18204,5.46117 z"
           fill="none"
           stroke="#333333"
           stroke-linecap="round"
           stroke-linejoin="round"
           stroke-width="12.1359"
           id="path1116" />
        <path
           d="m 112.15213,139.81321 q 14.25972,-0.3034 20.32767,6.97815 5.46117,7.28155 -1.51699,20.32767 L 63.305047,202.92 q -19.114081,3.33738 -25.18204,-5.46117 -6.371358,-9.40533 3.033974,-20.93446 l 70.995149,-36.71116"
           fill="url(#gradient6)"
           fill-rule="evenodd"
           stroke="none"
           id="path1118"
           style="fill:url(#linearGradient1195);stroke-width:6.06796" />
        <path
           d="m 112.15213,139.81321 -70.995149,36.71116 q -9.405332,11.52913 -3.033974,20.93446 6.067959,8.79855 25.18204,5.46117 l 67.657763,-35.80097 q 6.97816,-13.04612 1.51699,-20.32767 -6.06795,-7.28155 -20.32767,-6.97815 z"
           fill="none"
           stroke="#333333"
           stroke-linecap="round"
           stroke-linejoin="round"
           stroke-width="3.03398"
           id="path1120" />
      </g>
      <path
         style="fill:url(#radialGradient1197);stroke-width:6.15435"
         id="path1124"
         stroke="none"
         fill-rule="evenodd"
         fill="url(#gradient7)"
         d="m 202.51981,71.519873 -13.53958,-10.154683 13.53958,-9.846954 -16.92447,-0.307718 4.92349,-16.001313 -13.8473,9.846954 -5.2312,-16.309022 -5.23119,16.309022 -13.8473,-9.846954 4.92349,16.001313 -16.92447,0.307718 13.84729,9.846954 -13.84729,10.154683 h 16.92447 l -4.92349,16.309032 13.8473,-9.846966 5.23119,16.001314 5.2312,-16.001314 13.8473,9.846966 -4.92349,-16.309032 h 16.92447" />
      <path
         style="fill:url(#radialGradient1199);stroke-width:6.15435"
         id="path1126"
         stroke="none"
         fill-rule="evenodd"
         fill="url(#gradient8)"
         d="m 218.82883,200.14581 4.30805,-12.61641 11.07784,7.69294 -4.00033,-12.92415 h 13.53957 l -11.07784,-8.00066 11.07784,-8.00064 -13.53957,-0.30772 4.00033,-12.61642 -11.07784,7.69293 -4.30805,-12.92413 -4.30803,12.92413 -10.77012,-7.69293 4.00032,12.61642 -13.53957,0.30772 10.77011,8.00064 -10.77011,8.00066 H 207.751 l -4.00032,12.92415 10.77012,-7.69294 4.30803,12.61641" />
      <path
         style="fill:url(#radialGradient1201);stroke-width:6.15435"
         id="path1128"
         stroke="none"
         fill-rule="evenodd"
         fill="url(#gradient9)"
         d="m 251.13918,107.83055 2.76947,-8.000655 6.76978,4.923475 -2.46175,-8.000655 h 8.6161 l -7.0775,-5.231195 7.0775,-4.923487 h -8.6161 l 2.46175,-8.308375 -6.76978,4.923487 -2.76947,-8.000657 -2.76946,8.000657 -6.76978,-4.923487 2.46174,8.308375 h -8.30837 l 6.76977,4.923487 -6.76977,5.231195 h 8.30837 l -2.46174,8.000655 6.76978,-4.923475 2.76946,8.000655" />
      <path
         style="fill:url(#radialGradient1203);stroke-width:6.15435"
         id="path1130"
         stroke="none"
         fill-rule="evenodd"
         fill="url(#gradient10)"
         d="m 126.51357,33.978333 2.76946,-8.000657 6.76977,4.923478 -2.46173,-8.000658 8.30838,-0.307717 -6.76978,-4.923478 6.76978,-4.923477 -8.30838,-0.307718 2.46173,-8.0006564 -6.76977,4.9234772 -2.76946,-8.0006567 -2.76947,8.0006567 -6.76977,-4.9234772 2.46174,8.0006564 -8.30837,0.307718 6.76978,4.923477 -6.76978,4.923478 8.30837,0.307717 -2.46174,8.000658 6.76977,-4.923478 2.76947,8.000657" />
      <path
         style="fill:url(#radialGradient1205);stroke-width:6.15435"
         id="path1132"
         stroke="none"
         fill-rule="evenodd"
         fill="url(#gradient11)"
         d="m 190.21111,241.37998 -6.7698,-4.9235 6.7698,-5.23119 h -8.6161 l 2.76946,-8.00065 -7.07751,4.92347 -2.76945,-8.30838 -2.46174,8.30838 -7.0775,-4.92347 2.76944,8.00065 h -8.61607 l 6.76978,5.23119 -6.76978,4.9235 h 8.61607 l -2.76944,8.00064 7.0775,-4.92348 2.46174,8.30838 2.76945,-8.30838 7.07751,4.92348 -2.76946,-8.00064 h 8.6161" />
      <path
         style="fill:url(#radialGradient1207);stroke-width:6.15435"
         id="path1134"
         stroke="none"
         fill-rule="evenodd"
         fill="url(#gradient12)"
         d="m 224.36775,251.84236 6.76978,-4.92347 2.76947,8.00065 2.76945,-8.00065 6.76979,4.92347 -2.46174,-8.30838 h 8.30837 l -6.76979,-4.92347 6.76979,-5.23119 h -8.30837 l 2.46174,-8.00066 -6.76979,4.92347 -2.76945,-8.00065 -2.76947,8.00065 -6.76978,-4.92347 2.46174,8.00066 h -8.61609 l 7.0775,5.23119 -7.0775,4.92347 h 8.61609 l -2.46174,8.30838" />
      <path
         style="fill:url(#radialGradient1209);stroke-width:6.15435"
         id="path1136"
         stroke="none"
         fill-rule="evenodd"
         fill="url(#gradient13)"
         d="m 50.19961,37.978656 h 8.616092 l -2.769451,8.308375 7.077503,-4.923477 2.769452,8.000656 2.461743,-8.000656 7.077503,4.923477 -2.769462,-8.308375 h 8.616093 l -6.769785,-4.923477 6.769785,-5.231195 H 72.66299 l 2.769462,-8.000657 -7.077503,4.923478 -2.461743,-8.000658 -2.769452,8.000658 -7.077503,-4.923478 2.769451,8.000657 H 50.19961 l 6.769785,5.231195 -6.769785,4.923477" />
    </g>
  </g>
</svg>
