<?xml version="1.0" encoding="UTF-8" standalone="no"?>
<svg
   width="256"
   height="256"
   viewBox="0 0 256 256"
   version="1.1"
   id="svg8"
   inkscape:version="1.1.2 (0a00cf5339, 2022-02-04)"
   sodipodi:docname="present.svg"
   inkscape:export-filename="present.png"
   inkscape:export-xdpi="18"
   inkscape:export-ydpi="18"
   xmlns:inkscape="http://www.inkscape.org/namespaces/inkscape"
   xmlns:sodipodi="http://sodipodi.sourceforge.net/DTD/sodipodi-0.dtd"
   xmlns:xlink="http://www.w3.org/1999/xlink"
   xmlns="http://www.w3.org/2000/svg"
   xmlns:svg="http://www.w3.org/2000/svg"
   xmlns:rdf="http://www.w3.org/1999/02/22-rdf-syntax-ns#"
   xmlns:cc="http://creativecommons.org/ns#"
   xmlns:dc="http://purl.org/dc/elements/1.1/">
  <defs
     id="defs2">
    <linearGradient
       inkscape:collect="always"
       id="linearGradient114863">
      <stop
         style="stop-color:#f3f1f4;stop-opacity:1"
         offset="0"
         id="stop114859" />
      <stop
         style="stop-color:#767676;stop-opacity:1"
         offset="1"
         id="stop114861" />
    </linearGradient>
    <linearGradient
       inkscape:collect="always"
       id="linearGradient63780">
      <stop
         style="stop-color:#fcfcff;stop-opacity:1"
         offset="0"
         id="stop63776" />
      <stop
         style="stop-color:#ccccff;stop-opacity:1"
         offset="1"
         id="stop63778" />
    </linearGradient>
    <linearGradient
       inkscape:collect="always"
       id="linearGradient40792">
      <stop
         style="stop-color:#f6f6f6;stop-opacity:1"
         offset="0"
         id="stop40788" />
      <stop
         style="stop-color:#b4b4b4;stop-opacity:1"
         offset="0.5"
         id="stop50980" />
      <stop
         style="stop-color:#6a6a6a;stop-opacity:1"
         offset="1"
         id="stop40790" />
    </linearGradient>
    <linearGradient
       inkscape:collect="always"
       id="linearGradient1630">
      <stop
         style="stop-color:#555459;stop-opacity:1"
         offset="0"
         id="stop1626" />
      <stop
         style="stop-color:#b5b5b5;stop-opacity:1"
         offset="0.5"
         id="stop17047" />
      <stop
         style="stop-color:#fdfdfd;stop-opacity:1"
         offset="1"
         id="stop1628" />
    </linearGradient>
    <linearGradient
       inkscape:collect="always"
       xlink:href="#linearGradient1630"
       id="linearGradient1634"
       x1="-340.48358"
       y1="257.14633"
       x2="-341.32553"
       y2="245.51108"
       gradientUnits="userSpaceOnUse"
       gradientTransform="matrix(2.2607888,0,0,2.2607888,958.49912,-440.69712)" />
    <radialGradient
       inkscape:collect="always"
       xlink:href="#linearGradient40792"
       id="radialGradient40794"
       cx="-262.71887"
       cy="264.27646"
       fx="-262.71887"
       fy="264.27646"
       r="5.2499957"
       gradientTransform="matrix(3.4450126,-0.92308834,1.2307874,4.5933402,709.05151,-1338.1565)"
       gradientUnits="userSpaceOnUse" />
    <linearGradient
       inkscape:collect="always"
       xlink:href="#linearGradient63780"
       id="linearGradient63782"
       x1="-247.13191"
       y1="277.01666"
       x2="-185.56245"
       y2="315.63687"
       gradientUnits="userSpaceOnUse"
       gradientTransform="matrix(2.2607888,0,0,2.2607888,712.07315,-466.69621)" />
    <linearGradient
       inkscape:collect="always"
       xlink:href="#linearGradient114863"
       id="linearGradient129724"
       x1="-169.56245"
       y1="325.63687"
       x2="-162.10841"
       y2="323.79132"
       gradientUnits="userSpaceOnUse"
       gradientTransform="matrix(2.2607888,0,0,2.2607888,597.90332,-440.69715)" />
    <filter
       inkscape:collect="always"
       style="color-interpolation-filters:sRGB"
       id="filter4161"
       x="-0.052837782"
       y="-0.043973794"
       width="1.1056756"
       height="1.0879476">
      <feGaussianBlur
         inkscape:collect="always"
         stdDeviation="4.4340245"
         id="feGaussianBlur4163" />
    </filter>
  </defs>
  <sodipodi:namedview
     showguides="false"
     id="base"
     pagecolor="#ffffff"
     bordercolor="#666666"
     borderopacity="1.0"
     inkscape:pageopacity="0.0"
     inkscape:pageshadow="2"
     inkscape:zoom="2"
     inkscape:cx="28.5"
     inkscape:cy="173.25"
     inkscape:document-units="px"
     inkscape:current-layer="layer1"
     inkscape:document-rotation="0"
     showgrid="false"
     units="px"
     fit-margin-top="2"
     fit-margin-left="2"
     fit-margin-bottom="2"
     fit-margin-right="2"
     inkscape:window-width="3840"
     inkscape:window-height="2050"
     inkscape:window-x="3840"
     inkscape:window-y="0"
     inkscape:window-maximized="1"
     inkscape:snap-bbox="true"
     inkscape:snap-smooth-nodes="true"
     inkscape:pagecheckerboard="0"
     scale-x="1"
     inkscape:object-paths="true">
    <inkscape:grid
       type="xygrid"
       id="grid847"
       originx="0"
       originy="0" />
    <inkscape:grid
       spacingy="0.5"
       spacingx="0.5"
       id="grid873"
       type="xygrid" />
  </sodipodi:namedview>
  <metadata
     id="metadata5">
    <rdf:RDF>
      <cc:Work
         rdf:about="">
        <dc:format>image/svg+xml</dc:format>
        <dc:type
           rdf:resource="http://purl.org/dc/dcmitype/StillImage" />
      </cc:Work>
    </rdf:RDF>
  </metadata>
  <g
     inkscape:label="Layer 1"
     inkscape:groupmode="layer"
     id="layer1"
     transform="translate(-91.93755,-88.636871)">
    <path
       id="path3986"
       style="color:#000000;fill:#212121;fill-opacity:1;fill-rule:evenodd;stroke:none;stroke-width:8.89755;stroke-linecap:round;stroke-linejoin:round;stroke-opacity:1;-inkscape-stroke:none;filter:url(#filter4161)"
       d="m 225.16961,92.636961 c -4.864,0 -8.91879,4.054797 -8.91879,8.918789 v 5.97611 l -77.42877,5.23079 a 4.4492204,4.4492204 0 0 0 -0.1873,0.0907 c -4.69081,0.39002 -8.59398,3.29097 -11.13546,7.09024 -2.57673,3.85198 -3.9952,8.73223 -4.00274,14.01441 a 4.4492204,4.4492204 0 0 0 0,0.006 c -2.4e-4,5.47069 1.50716,10.49979 4.24024,14.40445 2.73308,3.90465 6.98474,6.80834 11.94257,6.80833 a 4.4492204,4.4492204 0 0 0 0.2626,-0.008 c 0.2147,-0.0128 0.42924,-0.0363 0.64299,-0.0599 a 4.4492204,4.4492204 0 0 0 0.13516,0.0425 l 7.49573,-0.81677 2.10081,126.09884 a 4.4492204,4.4492204 0 0 0 5.25009,4.30203 l 61.80207,-11.32275 v 3.44278 c -1.3467,0.58907 -2.58607,1.42557 -3.71118,2.44837 -2.27135,2.06485 -4.11087,5.16048 -4.11087,8.87825 v 2.78434 l -24.58798,27.79326 a 4.4492204,4.4492204 0 0 0 0,0.002 l -3.57987,4.04715 a 4.4492204,4.4492204 0 0 0 0.2124,6.11899 l 4.50477,4.4314 a 4.4492204,4.4492204 0 0 0 6.45304,-0.22398 l 3.54319,-4.00467 a 4.4492204,4.4492204 0 0 0 0.64684,-0.95966 l -0.25874,0.51748 22.28443,-25.18849 c 2.58135,0.87092 5.17852,1.425 7.52276,1.425 3.36215,0 7.03022,-0.93566 10.42295,-2.72835 l 26.32,16.57285 a 4.4492204,4.4492204 0 0 0 0.002,0 l 3.82317,2.40589 a 4.4492204,4.4492204 0 0 0 5.88922,-1.04462 l 3.82703,-4.95273 a 4.4492204,4.4492204 0 0 0 -1.2126,-6.52448 l -3.91006,-2.37307 a 4.4492204,4.4492204 0 0 0 -0.27805,-0.15447 l 0.12745,0.0637 -27.15221,-16.48016 v -2.64339 c 0,-3.15873 -1.44056,-5.79975 -3.39644,-7.75639 -0.94378,-0.94414 -2.06371,-1.74748 -3.30761,-2.34797 v -7.2254 l 64.52076,-11.82092 a 4.4492204,4.4492204 0 0 0 3.64745,-4.3754 v -113.11167 -3.22652 l -0.56575,0.0618 c 12.84902,-1.53826 20.22227,-10.58026 19.83991,-19.53097 -0.38233,-8.9507 -8.73214,-16.95262 -20.66826,-16.14612 l -67.8921,4.5878 v -4.6187 c 0,-4.863992 -4.0548,-8.918789 -8.9188,-8.918789 z" />
    <g
       id="g3926"
       transform="matrix(0.98861679,0,0,0.98861679,1.3488665,0.98773227)">
      <path
         id="rect3829"
         style="fill:#d6dadd;fill-opacity:1;fill-rule:evenodd;stroke:#000000;stroke-width:9;stroke-linecap:round;stroke-linejoin:round;stroke-miterlimit:4;stroke-dasharray:none;stroke-opacity:1;stop-color:#000000"
         d="m 129.40234,4.5214844 c -2.50495,0 -4.52148,2.0165302 -4.52148,4.5214844 V 19.292969 l -82.517579,5.576172 0.002,0.05273 a 11.869131,16.955917 0 0 0 -11.30664,16.902344 11.869131,16.955917 0 0 0 11.86914,16.957031 11.869131,16.955917 0 0 0 0.564454,-0.05273 l 0.002,0.05273 12.486328,-1.359375 2.207031,132.484379 67.824216,-12.42578 v 12.42578 c -3.39118,0 -7.91211,3.39054 -7.91211,7.91211 v 4.52148 l -25.999997,29.39063 -3.621093,4.09375 4.55664,4.48242 3.583985,-4.05078 0.002,-0.004 24.958985,-28.21289 c 2.68875,1.47443 6.37112,2.21485 8.95312,2.21485 2.8743,0 7.57307,-1.37128 10.61719,-3.53125 l 28.94727,18.22656 3.86718,2.43359 3.8711,-5.00976 -3.95508,-2.40039 -0.0156,-0.008 -29.76757,-18.06836 v -5.20703 c 0,-3.39118 -3.39007,-6.7832 -6.78125,-6.7832 V 175.40989 L 206.2697,162.77707 V 48.363281 41.0625 l 3.39258,-0.369141 c 22.60789,-2.70657 20.3471,-28.503716 0,-27.128906 l -73.47656,4.964844 V 9.0429688 c 0,-2.5049542 -2.01653,-4.5214844 -4.52149,-4.5214844 z"
         transform="translate(91.93755,88.636871)" />
      <g
         id="g3766">
        <rect
           style="fill:#d6dadd;fill-opacity:1;fill-rule:evenodd;stroke:none;stroke-width:2.26079;stroke-linecap:round;stroke-linejoin:round;stop-color:#000000"
           id="rect63370"
           width="11.303951"
           height="21.477493"
           x="216.81923"
           y="93.158447"
           rx="4.5215778"
           ry="4.5215778" />
        <path
           style="fill:#f3f1f4;fill-opacity:1;stroke:none;stroke-width:2.26079px;stroke-linecap:butt;stroke-linejoin:miter;stroke-opacity:1"
           d="m 234.90554,289.84707 30.89749,18.75374 c 3.96682,3.26693 2.27942,7.65272 -3.76803,4.98454 l -30.52065,-19.21671 z"
           id="path100414-3"
           sodipodi:nodetypes="ccccc" />
        <path
           style="fill:url(#linearGradient129724);fill-opacity:1;stroke:none;stroke-width:2.26079px;stroke-linecap:butt;stroke-linejoin:miter;stroke-opacity:1"
           d="m 217.94962,262.7176 v 15.82552 c -3.39118,0 -7.91276,3.39119 -7.91276,7.91276 v 5.65198 c 0,4.52157 7.91276,6.78236 12.43434,6.78236 4.52158,0 13.56473,-3.39118 13.56473,-7.91276 v -5.65197 c 0,-3.39118 -3.39118,-6.78237 -6.78236,-6.78237 v -19.2167 z"
           id="path98665"
           sodipodi:nodetypes="ccsssssccc" />
        <path
           style="fill:#f3f1f4;fill-opacity:1;stroke:none;stroke-width:2.26079px;stroke-linecap:butt;stroke-linejoin:miter;stroke-opacity:1"
           d="m 210.03686,290.97746 -25.99907,29.39026 c -2.40528,4.16606 1.11215,7.931 4.52158,4.52157 l 25.99907,-29.39025 z"
           id="path100414"
           sodipodi:nodetypes="ccccc" />
        <path
           id="path113988"
           style="fill:#6b6b69;fill-opacity:1;stroke:none;stroke-width:2.26079px;stroke-linecap:butt;stroke-linejoin:miter;stroke-opacity:1"
           d="m 92.099609,231.73047 -3.621093,4.09375 4.55664,4.48242 3.583985,-4.05078 0.002,-0.004 z"
           transform="translate(91.93755,88.636871)" />
        <path
           id="path114089"
           style="fill:#6b6b69;fill-opacity:1;stroke:none;stroke-width:2.26079px;stroke-linecap:butt;stroke-linejoin:miter;stroke-opacity:1"
           d="m 173.86523,219.96484 -3.76778,4.98364 3.86719,2.43359 3.8713,-5.00902 -3.95508,-2.40039 z"
           transform="translate(91.93755,88.636871)"
           sodipodi:nodetypes="cccccc" />
        <path
           style="fill:url(#linearGradient63782);fill-opacity:1;stroke:none;stroke-width:2.26079px;stroke-linecap:butt;stroke-linejoin:miter;stroke-opacity:1"
           d="m 147.86517,142.89579 2.26079,135.64733 148.08166,-27.12946 V 127.07027 Z"
           id="path63485"
           sodipodi:nodetypes="ccccc" />
        <path
           id="path101905"
           style="fill:#9b9ac2;fill-opacity:1;stroke:none;stroke-width:2.26079px;stroke-linecap:butt;stroke-linejoin:miter;stroke-opacity:1"
           d="m 298.20762,127.07028 -150.34245,15.82552 0.2296,13.77668 150.11285,-19.6715 z" />
        <path
           style="fill:url(#linearGradient1634);fill-opacity:1;stroke:none;stroke-width:2.26079px;stroke-linecap:butt;stroke-linejoin:miter;stroke-opacity:1"
           d="m 134.30042,113.50558 167.29837,-11.30395 c 20.3471,-1.37481 22.60789,24.4229 0,27.12947 l -166.16798,18.08631 z"
           id="path922"
           sodipodi:nodetypes="csscc" />
        <ellipse
           style="fill:url(#radialGradient40794);fill-opacity:1;fill-rule:evenodd;stroke:none;stroke-width:2.26079;stroke-linecap:round;stroke-linejoin:round;stop-color:#000000"
           id="path1263"
           cx="134.86563"
           cy="130.46146"
           rx="11.869131"
           ry="16.955917" />
      </g>
    </g>
  </g>
</svg>
