<?xml version="1.0" encoding="UTF-8" standalone="no"?>
<svg
   inkscape:export-ydpi="96"
   inkscape:export-xdpi="96"
   inkscape:export-filename="/media/klapeto/Αρχεία/WindowsXP Theme/Vectors/RASTER/edit-redo.png"
   sodipodi:docname="redo.svg"
   inkscape:version="1.1.1 (3bf5ae0d25, 2021-09-20)"
   id="svg8"
   version="1.1"
   viewBox="0 0 256 256"
   height="256"
   width="256"
   xmlns:inkscape="http://www.inkscape.org/namespaces/inkscape"
   xmlns:sodipodi="http://sodipodi.sourceforge.net/DTD/sodipodi-0.dtd"
   xmlns:xlink="http://www.w3.org/1999/xlink"
   xmlns="http://www.w3.org/2000/svg"
   xmlns:svg="http://www.w3.org/2000/svg"
   xmlns:rdf="http://www.w3.org/1999/02/22-rdf-syntax-ns#"
   xmlns:cc="http://creativecommons.org/ns#"
   xmlns:dc="http://purl.org/dc/elements/1.1/">
  <defs
     id="defs2">
    <linearGradient
       id="linearGradient893"
       inkscape:collect="always">
      <stop
         id="stop889"
         offset="0"
         style="stop-color:#0066cc;stop-opacity:1" />
      <stop
         style="stop-color:#0066cc;stop-opacity:1"
         offset="0.5"
         id="stop899" />
      <stop
         id="stop891"
         offset="1"
         style="stop-color:#57b6ff;stop-opacity:1" />
    </linearGradient>
    <linearGradient
       gradientTransform="matrix(-41.575361,0,0,41.575361,4568.4454,-3614.6663)"
       gradientUnits="userSpaceOnUse"
       y2="89.827499"
       x2="106.48963"
       y1="93.928535"
       x1="103.7115"
       id="linearGradient895"
       xlink:href="#linearGradient893"
       inkscape:collect="always" />
    <filter
       height="1.1002491"
       y="-0.050124527"
       width="1.0920965"
       x="-0.046048246"
       id="filter1040"
       style="color-interpolation-filters:sRGB"
       inkscape:collect="always">
      <feGaussianBlur
         id="feGaussianBlur1042"
         stdDeviation="1.2234166"
         inkscape:collect="always" />
    </filter>
  </defs>
  <sodipodi:namedview
     inkscape:snap-smooth-nodes="true"
     inkscape:snap-bbox="true"
     inkscape:window-maximized="1"
     inkscape:window-y="0"
     inkscape:window-x="3840"
     inkscape:window-height="2045"
     inkscape:window-width="3840"
     fit-margin-right="2"
     fit-margin-bottom="2"
     fit-margin-left="2"
     fit-margin-top="2"
     units="px"
     showgrid="false"
     inkscape:document-rotation="0"
     inkscape:current-layer="layer1"
     inkscape:document-units="px"
     inkscape:cy="390.95508"
     inkscape:cx="-455.5963"
     inkscape:zoom="1.6088805"
     inkscape:pageshadow="2"
     inkscape:pageopacity="0.0"
     borderopacity="1.0"
     bordercolor="#666666"
     pagecolor="#ffffff"
     id="base"
     inkscape:pagecheckerboard="0"
     scale-x="1">
    <inkscape:grid
       originy="0"
       originx="0"
       id="grid847"
       type="xygrid" />
    <inkscape:grid
       type="xygrid"
       id="grid873"
       spacingx="0.13229167"
       spacingy="0.13229167" />
  </sodipodi:namedview>
  <metadata
     id="metadata5">
    <rdf:RDF>
      <cc:Work
         rdf:about="">
        <dc:format>image/svg+xml</dc:format>
        <dc:type
           rdf:resource="http://purl.org/dc/dcmitype/StillImage" />
      </cc:Work>
    </rdf:RDF>
  </metadata>
  <g
     transform="translate(-91.93755,-88.636871)"
     id="layer1"
     inkscape:groupmode="layer"
     inkscape:label="Layer 1">
    <g
       id="g835"
       transform="translate(0,3.5024532)">
      <path
         d="m 115.53611,94.274149 c -0.19871,-0.0022 -0.39797,-0.0017 -0.59789,0.001 -8.29197,0.111979 -13.85513,2.976792 -17.203091,7.161841 -3.347964,4.18504 -4.474662,9.53101 -4.474662,14.53348 0,7.0874 4.167951,14.83992 8.599473,21.30258 4.43152,6.46265 9.17207,11.5704 10.70529,13.10359 3.30794,3.30797 7.60213,3.01933 10.11101,0.77928 2.50888,-2.24006 3.3048,-6.42519 0.59015,-9.81853 -1.43768,-1.79707 -5.32794,-5.75135 -8.94364,-10.58384 -3.6157,-4.83248 -6.7753,-10.47536 -6.7753,-14.78308 0,-1.88883 0.63675,-3.75885 1.8495,-5.1232 1.21275,-1.36434 2.97913,-2.28513 5.55884,-2.28513 6.89007,0 13.0539,5.63853 17.49815,10.45104 h -5.85545 c -3.84602,0 -7.14479,2.78305 -7.14479,6.41614 0,3.6331 3.29877,6.41615 7.14479,6.41615 h 23.28281 c 3.84602,0 7.14272,-2.78308 7.14272,-6.41615 v -24.0099 c 0,-3.846005 -2.78309,-7.14427 -6.41615,-7.14427 -3.63315,0 -6.41562,3.298295 -6.41562,7.14427 v 9.54877 c -6.02913,-6.67003 -16.13734,-16.551695 -28.65614,-16.694041 z"
         style="color:#000000;font-style:normal;font-variant:normal;font-weight:normal;font-stretch:normal;font-size:medium;line-height:normal;font-family:sans-serif;font-variant-ligatures:normal;font-variant-position:normal;font-variant-caps:normal;font-variant-numeric:normal;font-variant-alternates:normal;font-variant-east-asian:normal;font-feature-settings:normal;font-variation-settings:normal;text-indent:0;text-align:start;text-decoration:none;text-decoration-line:none;text-decoration-style:solid;text-decoration-color:#000000;letter-spacing:normal;word-spacing:normal;text-transform:none;writing-mode:lr-tb;direction:ltr;text-orientation:mixed;dominant-baseline:auto;baseline-shift:baseline;text-anchor:start;white-space:normal;shape-padding:0;shape-margin:0;inline-size:0;clip-rule:nonzero;display:inline;overflow:visible;visibility:visible;isolation:auto;mix-blend-mode:normal;color-interpolation:sRGB;color-interpolation-filters:linearRGB;solid-color:#000000;solid-opacity:1;vector-effect:none;fill:#212121;fill-opacity:1;fill-rule:nonzero;stroke:none;stroke-width:2.64583;stroke-linecap:butt;stroke-linejoin:miter;stroke-miterlimit:4;stroke-dasharray:none;stroke-dashoffset:0;stroke-opacity:1;filter:url(#filter1040);color-rendering:auto;image-rendering:auto;shape-rendering:auto;text-rendering:auto;enable-background:accumulate;stop-color:#000000"
         id="path1031"
         transform="matrix(3.7795779,0,0,3.7795779,-255.38524,-253.87711)" />
      <path
         sodipodi:nodetypes="sssssscsssssssscs"
         d="m 174.10128,103.44382 c -60.49548,0.81695 -77.001318,40.70234 -77.001318,77.00099 0,49.50068 60.500468,115.50148 71.500898,126.50172 22.00001,22.00016 50.60053,-5.50012 33.00044,-27.5004 -9.71824,-12.14764 -60.50046,-61.87865 -60.50046,-99.00132 0,-16.5002 11.00001,-33.00044 33.00044,-33.00044 33.10812,0 60.72122,30.30269 77.58086,49.50068 h -33.58042 c -12.18823,0 -22.00043,8.58561 -22.00043,19.25026 0,10.66464 9.8122,19.25026 22.00043,19.25026 h 88.00132 c 12.18823,0 22.00001,-8.58562 22.00001,-19.25026 v -90.75122 c 0,-12.18812 -8.58573,-22.00027 -19.25022,-22.00027 -10.66491,0 -19.25022,9.81215 -19.25022,22.00027 v 48.89908 c -21.0916,-24.09398 -64.30419,-71.59079 -115.50133,-70.89935 z"
         style="fill:url(#linearGradient895);fill-opacity:1;stroke:#003399;stroke-width:10.0001;stroke-linecap:butt;stroke-linejoin:miter;stroke-miterlimit:4;stroke-dasharray:none;stroke-opacity:1"
         id="path887" />
    </g>
  </g>
</svg>
