<?xml version="1.0" encoding="UTF-8" standalone="no"?>
<svg
   inkscape:export-ydpi="96"
   inkscape:export-xdpi="96"
   inkscape:export-filename="/media/klapeto/Αρχεία/WindowsXP Theme/Vectors/RASTER/edit-reset.png"
   sodipodi:docname="revert.svg"
   inkscape:version="1.1.1 (3bf5ae0d25, 2021-09-20)"
   id="svg8"
   version="1.1"
   viewBox="0 0 256 256"
   height="256"
   width="256"
   xmlns:inkscape="http://www.inkscape.org/namespaces/inkscape"
   xmlns:sodipodi="http://sodipodi.sourceforge.net/DTD/sodipodi-0.dtd"
   xmlns:xlink="http://www.w3.org/1999/xlink"
   xmlns="http://www.w3.org/2000/svg"
   xmlns:svg="http://www.w3.org/2000/svg"
   xmlns:rdf="http://www.w3.org/1999/02/22-rdf-syntax-ns#"
   xmlns:cc="http://creativecommons.org/ns#"
   xmlns:dc="http://purl.org/dc/elements/1.1/">
  <defs
     id="defs2">
    <linearGradient
       id="linearGradient893"
       inkscape:collect="always">
      <stop
         id="stop889"
         offset="0"
         style="stop-color:#0066cc;stop-opacity:1" />
      <stop
         style="stop-color:#0066cc;stop-opacity:1"
         offset="0.5"
         id="stop899" />
      <stop
         id="stop891"
         offset="1"
         style="stop-color:#57b6ff;stop-opacity:1" />
    </linearGradient>
    <linearGradient
       inkscape:collect="always"
       xlink:href="#linearGradient893"
       id="linearGradient895-5"
       x1="105.44596"
       y1="94.201279"
       x2="102.40325"
       y2="89.703362"
       gradientUnits="userSpaceOnUse"
       gradientTransform="matrix(36.27656,0,0,36.27656,-3594.6358,-3150.4821)" />
    <filter
       height="1.0941306"
       y="-0.04706529"
       width="1.0979452"
       x="-0.048972592"
       id="filter910"
       style="color-interpolation-filters:sRGB"
       inkscape:collect="always">
      <feGaussianBlur
         id="feGaussianBlur912"
         stdDeviation="1.2452767"
         inkscape:collect="always" />
    </filter>
  </defs>
  <sodipodi:namedview
     inkscape:snap-smooth-nodes="true"
     inkscape:snap-bbox="true"
     inkscape:window-maximized="1"
     inkscape:window-y="0"
     inkscape:window-x="3840"
     inkscape:window-height="2045"
     inkscape:window-width="3840"
     fit-margin-right="2"
     fit-margin-bottom="2"
     fit-margin-left="2"
     fit-margin-top="2"
     units="px"
     showgrid="false"
     inkscape:document-rotation="0"
     inkscape:current-layer="layer1"
     inkscape:document-units="px"
     inkscape:cy="-58"
     inkscape:cx="-237"
     inkscape:zoom="1"
     inkscape:pageshadow="2"
     inkscape:pageopacity="0.0"
     borderopacity="1.0"
     bordercolor="#666666"
     pagecolor="#ffffff"
     id="base"
     inkscape:pagecheckerboard="0"
     scale-x="1">
    <inkscape:grid
       originy="0"
       originx="0"
       id="grid847"
       type="xygrid" />
    <inkscape:grid
       type="xygrid"
       id="grid873"
       spacingx="0.13229167"
       spacingy="0.13229167" />
  </sodipodi:namedview>
  <metadata
     id="metadata5">
    <rdf:RDF>
      <cc:Work
         rdf:about="">
        <dc:format>image/svg+xml</dc:format>
        <dc:type
           rdf:resource="http://purl.org/dc/dcmitype/StillImage" />
      </cc:Work>
    </rdf:RDF>
  </metadata>
  <g
     transform="translate(-91.93755,-88.636871)"
     id="layer1"
     inkscape:groupmode="layer"
     inkscape:label="Layer 1">
    <path
       d="m 101.3249,89.697137 c -3.26289,0 -5.750039,2.958212 -5.750039,6.38514 v 20.951173 c 0,3.26291 2.957708,5.75004 6.384619,5.75004 h 20.31659 c 3.42693,0 6.38463,-2.48711 6.38463,-5.75004 0,-3.26291 -2.9577,-5.75003 -6.38463,-5.75003 h -4.76198 c 3.85475,-4.12908 9.10856,-8.81652 14.91795,-8.81652 1.96028,0 4.90338,1.44782 7.25434,4.27932 2.35096,2.83152 4.146,6.96316 4.146,12.14655 0,4.87104 -0.66342,10.1728 -2.88665,14.14642 -2.22322,3.97362 -5.83556,6.74407 -12.49794,6.92 -4.1429,0.1094 -7.98174,-0.92419 -10.70116,-2.40451 -2.71943,-1.48031 -4.11344,-3.39365 -4.11344,-4.58577 0,-1.97342 -0.8365,-3.62898 -2.07584,-4.69738 -1.23934,-1.0684 -2.82957,-1.5879 -4.4142,-1.59577 -1.58463,-0.008 -3.20002,0.50237 -4.44728,1.61954 -1.24725,1.11717 -2.05672,2.85227 -2.05672,4.96248 0,5.27268 3.54709,10.23543 8.72091,13.88701 5.17381,3.65157 12.07087,6.0508 19.25206,6.0508 9.81959,0 16.96441,-4.8102 21.47466,-11.47269 4.51024,-6.66249 6.51536,-15.13302 6.51536,-22.83013 0,-7.23489 -2.2952,-14.41691 -6.4611,-19.883024 -4.16591,-5.466122 -10.28271,-9.212555 -17.69143,-9.312609 -11.06755,-0.149463 -19.98699,8.403773 -25.37468,14.326253 v -7.941113 c 0,-3.426892 -2.48708,-6.38514 -5.75003,-6.38514 z"
       style="color:#000000;font-style:normal;font-variant:normal;font-weight:normal;font-stretch:normal;font-size:medium;line-height:normal;font-family:sans-serif;font-variant-ligatures:normal;font-variant-position:normal;font-variant-caps:normal;font-variant-numeric:normal;font-variant-alternates:normal;font-variant-east-asian:normal;font-feature-settings:normal;font-variation-settings:normal;text-indent:0;text-align:start;text-decoration:none;text-decoration-line:none;text-decoration-style:solid;text-decoration-color:#000000;letter-spacing:normal;word-spacing:normal;text-transform:none;writing-mode:lr-tb;direction:ltr;text-orientation:mixed;dominant-baseline:auto;baseline-shift:baseline;text-anchor:start;white-space:normal;shape-padding:0;shape-margin:0;inline-size:0;clip-rule:nonzero;display:inline;overflow:visible;visibility:visible;isolation:auto;mix-blend-mode:normal;color-interpolation:sRGB;color-interpolation-filters:linearRGB;solid-color:#000000;solid-opacity:1;vector-effect:none;fill:#212121;fill-opacity:1;fill-rule:nonzero;stroke:none;stroke-width:2.61144;stroke-linecap:butt;stroke-linejoin:miter;stroke-miterlimit:4;stroke-dasharray:none;stroke-dashoffset:0;stroke-opacity:1;filter:url(#filter910);color-rendering:auto;image-rendering:auto;shape-rendering:auto;text-rendering:auto;enable-background:accumulate;stop-color:#000000"
       id="path901"
       transform="matrix(3.7795972,0,0,3.7795972,-255.89618,-246.20173)" />
    <path
       id="path887-2"
       style="fill:url(#linearGradient895-5);fill-opacity:1;stroke:#003399;stroke-width:9.87019;stroke-linecap:butt;stroke-linejoin:miter;stroke-miterlimit:4;stroke-dasharray:none;stroke-opacity:1"
       d="m 239.64753,93.753274 c 52.78525,0.712863 86.41694,52.821916 86.41694,105.407716 0,56.44768 -29.78912,124.71828 -100.85674,124.71828 -52.06569,0 -100.7935,-35.10562 -100.7935,-70.42357 0,-27.14757 39.23963,-25.67046 39.23963,-1.08724 0,15.10444 27.97219,32.22208 61.06272,31.34828 53.15791,-1.40363 62.95497,-46.87914 62.95497,-84.55575 0,-41.46937 -28.82763,-67.01502 -48.02402,-67.01502 -28.88848,0 -52.98235,26.44059 -67.69319,43.1918 h 29.30058 c 10.63484,0 19.19642,7.49139 19.19642,16.79679 0,9.30552 -8.56158,16.7968 -19.19642,16.7968 h -76.78543 c -10.63481,0 -19.1962,-7.49128 -19.1962,-16.7968 v -79.18493 c 0,-10.63477 7.49153,-19.196356 16.79683,-19.196356 9.3056,0 16.79668,8.561586 16.79668,19.196356 v 42.66688 c 18.40347,-21.02318 56.10865,-62.466516 100.78073,-61.863236 z"
       sodipodi:nodetypes="sssssssscsssssssscs" />
  </g>
</svg>
