<?xml version="1.0" encoding="UTF-8" standalone="no"?>
<svg
   width="256"
   height="256"
   viewBox="0 0 256 256"
   version="1.1"
   id="svg8"
   inkscape:version="1.1.1 (3bf5ae0d25, 2021-09-20)"
   sodipodi:docname="shared.svg"
   inkscape:export-filename="/media/klapeto/Αρχεία/WindowsXP Theme/Vectors/RASTER/shared.png"
   inkscape:export-xdpi="96"
   inkscape:export-ydpi="96"
   xmlns:inkscape="http://www.inkscape.org/namespaces/inkscape"
   xmlns:sodipodi="http://sodipodi.sourceforge.net/DTD/sodipodi-0.dtd"
   xmlns:xlink="http://www.w3.org/1999/xlink"
   xmlns="http://www.w3.org/2000/svg"
   xmlns:svg="http://www.w3.org/2000/svg"
   xmlns:rdf="http://www.w3.org/1999/02/22-rdf-syntax-ns#"
   xmlns:cc="http://creativecommons.org/ns#"
   xmlns:dc="http://purl.org/dc/elements/1.1/">
  <defs
     id="defs2">
    <linearGradient
       id="linearGradient1564"
       inkscape:collect="always">
      <stop
         style="stop-color:#ffb363;stop-opacity:1"
         offset="0"
         id="stop1560" />
      <stop
         id="stop1562"
         offset="1"
         style="stop-color:#ffb769;stop-opacity:0" />
    </linearGradient>
    <linearGradient
       inkscape:collect="always"
       id="linearGradient1530">
      <stop
         id="stop1542"
         offset="0"
         style="stop-color:#952d10;stop-opacity:1" />
      <stop
         style="stop-color:#d97326;stop-opacity:1"
         offset="0.56800753"
         id="stop1732" />
      <stop
         style="stop-color:#fa9035;stop-opacity:0"
         offset="1"
         id="stop1528" />
    </linearGradient>
    <linearGradient
       inkscape:collect="always"
       id="linearGradient1470">
      <stop
         style="stop-color:#f98d30;stop-opacity:1"
         offset="0"
         id="stop1466" />
      <stop
         id="stop1490"
         offset="0.38999999"
         style="stop-color:#ffb465;stop-opacity:1" />
      <stop
         id="stop1488"
         offset="0.64999998"
         style="stop-color:#ffff99;stop-opacity:1" />
      <stop
         style="stop-color:#ffffff;stop-opacity:1"
         offset="1"
         id="stop1468" />
    </linearGradient>
    <linearGradient
       inkscape:collect="always"
       id="linearGradient1458">
      <stop
         style="stop-color:#c0c0c0;stop-opacity:1"
         offset="0"
         id="stop1454" />
      <stop
         style="stop-color:#fcfcfc;stop-opacity:1"
         offset="1"
         id="stop1456" />
    </linearGradient>
    <linearGradient
       inkscape:collect="always"
       id="linearGradient1446">
      <stop
         style="stop-color:#333363;stop-opacity:1"
         offset="0"
         id="stop1442" />
      <stop
         id="stop1450"
         offset="0.5"
         style="stop-color:#4d4d4d;stop-opacity:1" />
      <stop
         style="stop-color:#959595;stop-opacity:1"
         offset="1"
         id="stop1444" />
    </linearGradient>
    <linearGradient
       inkscape:collect="always"
       xlink:href="#linearGradient1446"
       id="linearGradient1448"
       x1="-3.432291"
       y1="41"
       x2="-3.432291"
       y2="28"
       gradientUnits="userSpaceOnUse"
       gradientTransform="matrix(5.7324073,0,0,5.7324073,52.306412,-6.8146501)" />
    <linearGradient
       inkscape:collect="always"
       xlink:href="#linearGradient1458"
       id="linearGradient1460"
       x1="-3.932291"
       y1="38.5"
       x2="-3.932291"
       y2="26.5"
       gradientUnits="userSpaceOnUse"
       gradientTransform="matrix(5.7324073,0,0,5.7324073,83.834653,1.7839609)" />
    <linearGradient
       inkscape:collect="always"
       xlink:href="#linearGradient1470"
       id="linearGradient1472"
       x1="-6.060123"
       y1="39.886417"
       x2="-6.060123"
       y2="28.365753"
       gradientUnits="userSpaceOnUse"
       gradientTransform="matrix(5.7324073,0,0,5.7324073,198.48281,-9.6808537)" />
    <radialGradient
       inkscape:collect="always"
       xlink:href="#linearGradient1530"
       id="radialGradient1548"
       cx="-11.776288"
       cy="35.754013"
       fx="-11.776288"
       fy="35.754013"
       r="10.138086"
       gradientTransform="matrix(-3.9069607,-0.45554506,0.2785093,-1.6831474,97.028103,253.19687)"
       gradientUnits="userSpaceOnUse" />
    <radialGradient
       inkscape:collect="always"
       xlink:href="#linearGradient1564"
       id="radialGradient1558"
       gradientUnits="userSpaceOnUse"
       gradientTransform="matrix(1.11644,-3.3709543,4.9787388,1.6489283,-59.117879,145.74341)"
       cx="2.6184263"
       cy="36.042507"
       fx="2.6184263"
       fy="36.042507"
       r="10.138086" />
    <filter
       height="1.1768673"
       y="-0.088433648"
       width="1.0658789"
       x="-0.032939429"
       id="filter1561"
       style="color-interpolation-filters:sRGB"
       inkscape:collect="always">
      <feGaussianBlur
         id="feGaussianBlur1563"
         stdDeviation="3.3525336"
         inkscape:collect="always" />
    </filter>
  </defs>
  <sodipodi:namedview
     showguides="true"
     inkscape:snap-grids="true"
     inkscape:snap-others="true"
     inkscape:snap-smooth-nodes="true"
     inkscape:object-paths="false"
     id="base"
     pagecolor="#ffffff"
     bordercolor="#666666"
     borderopacity="1.0"
     inkscape:pageopacity="0.0"
     inkscape:pageshadow="2"
     inkscape:zoom="0.70710678"
     inkscape:cx="743.87634"
     inkscape:cy="362.03867"
     inkscape:document-units="px"
     inkscape:current-layer="layer1"
     inkscape:document-rotation="0"
     showgrid="false"
     units="px"
     inkscape:window-width="3840"
     inkscape:window-height="2045"
     inkscape:window-x="3840"
     inkscape:window-y="0"
     inkscape:window-maximized="1"
     inkscape:snap-bbox="true"
     inkscape:bbox-nodes="true"
     fit-margin-top="0"
     fit-margin-left="0"
     fit-margin-right="0"
     fit-margin-bottom="0"
     inkscape:bbox-paths="false"
     inkscape:snap-global="true"
     inkscape:pagecheckerboard="0">
    <inkscape:grid
       type="xygrid"
       id="grid1504"
       originx="0"
       originy="0" />
    <inkscape:grid
       type="xygrid"
       id="grid1507"
       spacingx="0.5"
       spacingy="0.5"
       originx="0"
       originy="0" />
  </sodipodi:namedview>
  <metadata
     id="metadata5">
    <rdf:RDF>
      <cc:Work
         rdf:about="">
        <dc:format>image/svg+xml</dc:format>
        <dc:type
           rdf:resource="http://purl.org/dc/dcmitype/StillImage" />
      </cc:Work>
    </rdf:RDF>
  </metadata>
  <g
     inkscape:label="Layer 1"
     inkscape:groupmode="layer"
     id="layer1"
     transform="translate(-12.567709)">
    <path
       d="m 17.567709,86.508 v 2.5 88.48438 H 56.96224 v -5.73242 H 79.891928 V 143.1291 c 2.193973,0.0273 5.461987,0.0902 9.908203,0.32421 6.733672,0.35442 14.661269,1.16053 18.328129,2.38282 1.79389,0.59796 5.63495,2.39735 10.43554,4.64062 0.38029,0.1777 0.86249,0.39295 1.25586,0.57617 0.32255,0.14795 0.62315,0.28669 0.96094,0.43946 4.37611,2.03089 9.33798,4.29105 14.79688,6.47461 12.6921,5.07684 27.24434,9.5842 39.57421,8.04297 9.59377,-1.19922 23.27329,-6.31331 37.66407,-13.63672 14.39078,-7.32342 29.37736,-16.86706 41.06054,-27.08985 4.56571,-3.99499 7.11271,-7.87341 7.79883,-11.63281 0.68613,-3.7594 -0.86476,-7.32868 -3.67383,-9.37695 -5.52197,-4.02644 -14.81304,-3.38576 -23.88281,2.4707 -5.65445,2.09474 -14.90557,6.54537 -21.27734,12.09766 -1.80392,0.56497 -3.58224,1.09245 -5.29688,1.56054 -1.91037,0.21435 -3.87165,0.51796 -5.85742,0.89258 -0.93712,-1.93134 -3.11867,-3.80726 -6.67969,-5.45508 -0.524,-1.83349 -1.62549,-3.55491 -3.18554,-5.01367 -4.17491,-3.9038 -11.48025,-6.37954 -22.54493,-7.11719 -9.45191,-0.63013 -17.75524,-4.40037 -26.76171,-8.197263 -9.00646,-3.796893 -18.72908,-7.583985 -30.71876,-7.583985 -13.70282,0 -21.229878,4.347291 -31.904292,6.646485 V 86.508 H 56.96224 Z"
       style="fill:#212121;fill-opacity:1;stroke:none;stroke-width:5.73241px;stroke-linecap:round;stroke-linejoin:miter;stroke-opacity:1;filter:url(#filter1561)"
       id="path1455" />
    <g
       id="g1774"
       transform="translate(-0.36620232,-62.953396)">
      <path
         style="fill:url(#linearGradient1472);fill-opacity:1;stroke:none;stroke-width:5.73241px;stroke-linecap:round;stroke-linejoin:miter;stroke-opacity:1"
         d="m 141.54687,190.9534 c 45.85926,8.59861 65.92269,-22.92963 22.92963,-25.79583 -20.01899,-1.3346 -34.38411,-15.77629 -57.31374,-15.77629 -14.33102,0 -21.615344,5.04611 -34.404775,7.17768 v 42.99305 c 0,0 22.929629,0 31.528245,2.86621 8.59861,2.8662 42.99305,22.92963 65.92268,20.06342 17.98748,-2.24843 54.45787,-20.06342 77.3875,-40.12685 17.19722,-15.04757 -1e-5,-25.79583 -17.19722,-14.33102 -12.89792,8.59861 -37.26065,14.33102 -42.99306,14.33102"
         id="path1464"
         sodipodi:nodetypes="cssccssssc" />
      <rect
         y="147.96034"
         x="15.433911"
         height="85.986107"
         width="34.394444"
         id="rect1440"
         style="fill:url(#linearGradient1448);fill-opacity:1;fill-rule:evenodd;stroke:#333333;stroke-width:5;stroke-linecap:round;stroke-linejoin:miter;stroke-miterlimit:4;stroke-dasharray:none;stroke-opacity:1" />
      <path
         style="fill:url(#radialGradient1558);fill-opacity:1;stroke:none;stroke-width:5.73241px;stroke-linecap:round;stroke-linejoin:miter;stroke-opacity:1"
         d="m 141.54687,190.9534 c 45.85926,8.59861 65.92269,-22.92963 22.92963,-25.79583 -20.01899,-1.3346 -34.38411,-15.77629 -57.31374,-15.77629 -14.33102,0 -21.615344,5.04611 -34.404775,7.17768 v 42.99305 c 0,0 22.929629,0 31.528245,2.86621 8.59861,2.8662 42.99305,22.92963 65.92268,20.06342 17.01695,-11.76564 21.63064,-25.30086 17.19722,-40.12685"
         id="path1556"
         sodipodi:nodetypes="cssccscc" />
      <path
         sodipodi:nodetypes="cscccc"
         id="path1510"
         d="m 139.41523,192.73328 c 56.10233,10.9201 82.34309,-17.51093 29.49749,-22.85996 -24.60666,-2.49069 -58.19395,-0.79155 -58.19395,-0.79155 l -3.3636,37.1417 c 5.37237,2.69808 37.47156,19.22911 65.86709,17.94631 21.53662,-10.02203 27.87287,-22.47431 23.12177,-36.69927"
         style="fill:url(#radialGradient1548);fill-opacity:1;stroke:none;stroke-width:6.18103px;stroke-linecap:round;stroke-linejoin:miter;stroke-opacity:1" />
      <path
         sodipodi:nodetypes="cccc"
         id="path1568"
         d="m 174.1978,176.75118 c -8.72566,4.8164 -9.43523,6.91893 -9.13572,14.59427 l 17.81548,-5.28891 c 1.46822,-7.36795 -1.24822,-7.34506 -8.67976,-9.30536 z"
         style="fill:#ffedd6;fill-opacity:1;stroke:none;stroke-width:5.73241px;stroke-linecap:butt;stroke-linejoin:miter;stroke-opacity:1" />
      <path
         sodipodi:nodetypes="cc"
         id="path1566"
         d="m 146.14139,191.50614 c 0.004,-3.07206 0.7965,-8.00822 7.24082,-12.75562"
         style="fill:#562822;fill-opacity:1;stroke:#8c3b19;stroke-width:5;stroke-linecap:round;stroke-linejoin:miter;stroke-miterlimit:4;stroke-dasharray:none;stroke-opacity:1" />
      <path
         sodipodi:nodetypes="cssccsssccc"
         id="path1462"
         d="m 141.54687,190.9534 c 45.85926,8.59861 65.92269,-22.92963 22.92963,-25.79583 -20.01899,-1.3346 -34.38411,-15.77629 -57.31374,-15.77629 -14.33102,0 -21.615344,5.04611 -34.404775,7.17768 -0.137692,14.39076 -1.695698,29.39794 0,42.99305 0,0 22.929629,0 31.528245,2.86621 8.59861,2.8662 42.99305,22.92963 65.92268,20.06342 17.98748,-2.24843 54.45787,-20.06342 77.3875,-40.12685 17.19722,-15.04757 -1e-5,-25.79583 -17.19722,-14.33102 -5.98297,2.2115 -16.82242,7.54301 -22.52767,13.40709 -10.63751,0.31947 -24.99396,4.62568 -34.71806,8.98982"
         style="fill:none;stroke:#8c3b19;stroke-width:5;stroke-linecap:round;stroke-linejoin:miter;stroke-miterlimit:4;stroke-dasharray:none;stroke-opacity:1" />
      <rect
         y="147.96034"
         x="49.828346"
         height="80.2537"
         width="22.929628"
         id="rect1452"
         style="fill:url(#linearGradient1460);fill-opacity:1;fill-rule:evenodd;stroke:#333333;stroke-width:5;stroke-linecap:round;stroke-linejoin:miter;stroke-miterlimit:4;stroke-dasharray:none;stroke-opacity:1" />
      <circle
         r="4.7477508"
         cy="216.74924"
         cx="61.293171"
         id="path1574"
         style="fill:#333333;fill-opacity:1;fill-rule:evenodd;stroke:none;stroke-width:5.73241;stroke-linecap:round;stroke-linejoin:miter;stroke-miterlimit:4;stroke-dasharray:none;stroke-opacity:1" />
    </g>
  </g>
</svg>
