<?xml version="1.0" encoding="UTF-8" standalone="no"?>
<svg
   width="256"
   height="256"
   viewBox="0 0 256 256"
   version="1.1"
   id="svg8"
   inkscape:version="1.1.1 (3bf5ae0d25, 2021-09-20)"
   sodipodi:docname="shuffle.svg"
   inkscape:export-filename="/media/klapeto/Αρχεία/WindowsXP Theme/Vectors/RASTER/media-playlist-shuffle.png"
   inkscape:export-xdpi="96"
   inkscape:export-ydpi="96"
   xmlns:inkscape="http://www.inkscape.org/namespaces/inkscape"
   xmlns:sodipodi="http://sodipodi.sourceforge.net/DTD/sodipodi-0.dtd"
   xmlns:xlink="http://www.w3.org/1999/xlink"
   xmlns="http://www.w3.org/2000/svg"
   xmlns:svg="http://www.w3.org/2000/svg"
   xmlns:rdf="http://www.w3.org/1999/02/22-rdf-syntax-ns#"
   xmlns:cc="http://creativecommons.org/ns#"
   xmlns:dc="http://purl.org/dc/elements/1.1/">
  <defs
     id="defs2">
    <linearGradient
       id="linearGradient1006"
       inkscape:collect="always">
      <stop
         style="stop-color:#88abf7;stop-opacity:1"
         offset="0"
         id="stop1004" />
      <stop
         style="stop-color:#215dde;stop-opacity:1"
         offset="1"
         id="stop1002" />
    </linearGradient>
    <linearGradient
       inkscape:collect="always"
       id="linearGradient942">
      <stop
         style="stop-color:#215dde;stop-opacity:1"
         offset="0"
         id="stop938" />
      <stop
         style="stop-color:#88abf7;stop-opacity:1"
         offset="1"
         id="stop940" />
    </linearGradient>
    <linearGradient
       inkscape:collect="always"
       xlink:href="#linearGradient942"
       id="linearGradient1618-5"
       x1="-2.7981372"
       y1="7.7862825"
       x2="-1.6334057"
       y2="8.9143724"
       gradientUnits="userSpaceOnUse"
       gradientTransform="matrix(0,39.003453,-31.625529,0,349.95695,139.95996)" />
    <linearGradient
       gradientTransform="matrix(0,-39.003453,31.625529,0,-63.913588,100.97002)"
       gradientUnits="userSpaceOnUse"
       y2="8.9143724"
       x2="-1.6334057"
       y1="7.7862825"
       x1="-2.7981372"
       id="linearGradient1618-5-3"
       xlink:href="#linearGradient1006"
       inkscape:collect="always" />
    <filter
       height="1.0901039"
       y="-0.045051948"
       width="1.1027218"
       x="-0.051360888"
       id="filter998"
       style="color-interpolation-filters:sRGB"
       inkscape:collect="always">
      <feGaussianBlur
         id="feGaussianBlur1000"
         stdDeviation="4.5226093"
         inkscape:collect="always" />
    </filter>
  </defs>
  <sodipodi:namedview
     showguides="false"
     id="base"
     pagecolor="#ffffff"
     bordercolor="#666666"
     borderopacity="1.0"
     inkscape:pageopacity="0.0"
     inkscape:pageshadow="2"
     inkscape:zoom="2.3515626"
     inkscape:cx="-11.481727"
     inkscape:cy="268.33221"
     inkscape:document-units="px"
     inkscape:current-layer="layer1"
     inkscape:document-rotation="0"
     showgrid="false"
     units="px"
     inkscape:window-width="3840"
     inkscape:window-height="2045"
     inkscape:window-x="3840"
     inkscape:window-y="0"
     inkscape:window-maximized="1"
     inkscape:snap-bbox="true"
     inkscape:bbox-nodes="true"
     fit-margin-top="0"
     fit-margin-left="0"
     fit-margin-right="0"
     fit-margin-bottom="0"
     inkscape:bbox-paths="false"
     inkscape:snap-global="true"
     inkscape:pagecheckerboard="0">
    <inkscape:grid
       type="xygrid"
       id="grid1504"
       originx="0"
       originy="0" />
    <inkscape:grid
       type="xygrid"
       id="grid892"
       spacingx="0.5"
       spacingy="0.5" />
  </sodipodi:namedview>
  <metadata
     id="metadata5">
    <rdf:RDF>
      <cc:Work
         rdf:about="">
        <dc:format>image/svg+xml</dc:format>
        <dc:type
           rdf:resource="http://purl.org/dc/dcmitype/StillImage" />
      </cc:Work>
    </rdf:RDF>
  </metadata>
  <g
     inkscape:label="Layer 1"
     inkscape:groupmode="layer"
     id="layer1"
     transform="translate(-12.567709)">
    <path
       d="M 99.339678,4.0008955 A 2.6652915,2.6652915 0 0 0 97.486163,4.821208 L 43.095538,61.57902 a 2.6652915,2.6652915 0 0 0 0.08984,3.777344 l 54.390624,51.599606 a 2.6652915,2.6652915 0 0 0 4.498048,-1.93359 V 81.782145 c 13.28922,0.499306 27.00827,4.634239 37.26171,13.669922 a 2.6652915,2.6652915 0 0 0 -1.25586,-0.326172 2.6652915,2.6652915 0 0 0 -2.43555,1.539063 c -9.28346,19.959052 -11.5089,48.824682 -2.77929,73.181642 8.49407,23.69975 28.09981,42.90254 61.10351,43.92968 v 28.48829 a 2.6652915,2.6652915 0 0 0 4.58789,1.84375 l 54.39063,-56.75782 a 2.6652915,2.6652915 0 0 0 -0.0898,-3.77734 l -54.39062,-51.59961 a 2.6652915,2.6652915 0 0 0 -4.49805,1.93359 v 33.24024 c -13.28906,-0.4994 -27.00659,-4.63434 -37.25977,-13.66992 a 2.6652915,2.6652915 0 0 0 3.69141,-1.21289 c 9.28345,-19.95906 11.50892,-48.82468 2.7793,-73.181643 -8.49412,-23.69976 -28.10181,-42.902541 -61.10551,-43.929688 V 6.664958 A 2.6652915,2.6652915 0 0 0 99.339678,4.0008955 Z M 140.2928,96.33488 c 0.28226,0.263074 0.57313,0.514216 0.84961,0.785156 11.06751,10.845614 17.7538,27.865694 14.20117,53.658204 a 2.6652915,2.6652915 0 0 0 0.41016,1.81836 c -0.28295,-0.26368 -0.57443,-0.51553 -0.85157,-0.78711 -11.06751,-10.84562 -17.7538,-27.86375 -14.20117,-53.656251 a 2.6652915,2.6652915 0 0 0 -0.4082,-1.818359 z"
       style="color:#000000;font-style:normal;font-variant:normal;font-weight:normal;font-stretch:normal;font-size:medium;line-height:normal;font-family:sans-serif;font-variant-ligatures:normal;font-variant-position:normal;font-variant-caps:normal;font-variant-numeric:normal;font-variant-alternates:normal;font-variant-east-asian:normal;font-feature-settings:normal;font-variation-settings:normal;text-indent:0;text-align:start;text-decoration:none;text-decoration-line:none;text-decoration-style:solid;text-decoration-color:#000000;letter-spacing:normal;word-spacing:normal;text-transform:none;writing-mode:lr-tb;direction:ltr;text-orientation:mixed;dominant-baseline:auto;baseline-shift:baseline;text-anchor:start;white-space:normal;shape-padding:0;shape-margin:0;inline-size:0;clip-rule:nonzero;display:inline;overflow:visible;visibility:visible;isolation:auto;mix-blend-mode:normal;color-interpolation:sRGB;color-interpolation-filters:linearRGB;solid-color:#000000;solid-opacity:1;vector-effect:none;fill:#212121;fill-opacity:1;fill-rule:nonzero;stroke:none;stroke-width:5.33005;stroke-linecap:butt;stroke-linejoin:round;stroke-miterlimit:5.8;stroke-dasharray:none;stroke-dashoffset:0;stroke-opacity:1;filter:url(#filter998);color-rendering:auto;image-rendering:auto;shape-rendering:auto;text-rendering:auto;enable-background:accumulate;stop-color:#000000"
       id="path985" />
    <path
       style="fill:url(#linearGradient1618-5);fill-opacity:1;stroke:#2f5ab6;stroke-width:5.33005;stroke-linecap:butt;stroke-linejoin:round;stroke-miterlimit:5.8;stroke-dasharray:none;stroke-opacity:1"
       d="M 152.98307,147.14091 C 160.25787,94.325019 125.29623,74.903229 94.409946,74.903229 V 111.02209 L 40.020633,59.423759 94.409946,2.665585 v 30.958994 c 67.401784,0 76.434674,75.114711 58.573124,113.516331 z"
       id="path1610-9"
       sodipodi:nodetypes="ccccccc" />
    <path
       sodipodi:nodetypes="ccccccc"
       id="path1610-9-5"
       d="m 133.06029,93.789073 c -7.2748,52.815887 27.68684,72.237677 58.57312,72.237677 v -36.11886 l 54.38931,51.59833 -54.38931,56.75816 v -30.95899 c -67.40178,0 -76.43468,-75.1147 -58.57312,-113.516317 z"
       style="fill:url(#linearGradient1618-5-3);fill-opacity:1;stroke:#2f5ab6;stroke-width:5.33005;stroke-linecap:butt;stroke-linejoin:round;stroke-miterlimit:5.8;stroke-dasharray:none;stroke-opacity:1" />
  </g>
</svg>
