<?xml version="1.0" encoding="UTF-8" standalone="no"?>
<svg
   width="256"
   height="256"
   viewBox="0 0 256 256"
   version="1.1"
   id="svg8"
   inkscape:version="1.1.1 (3bf5ae0d25, 2021-09-20)"
   sodipodi:docname="undo.svg"
   inkscape:export-filename="/media/klapeto/Αρχεία/WindowsXP Theme/Vectors/RASTER/edit-undo.png"
   inkscape:export-xdpi="96"
   inkscape:export-ydpi="96"
   xmlns:inkscape="http://www.inkscape.org/namespaces/inkscape"
   xmlns:sodipodi="http://sodipodi.sourceforge.net/DTD/sodipodi-0.dtd"
   xmlns:xlink="http://www.w3.org/1999/xlink"
   xmlns="http://www.w3.org/2000/svg"
   xmlns:svg="http://www.w3.org/2000/svg"
   xmlns:rdf="http://www.w3.org/1999/02/22-rdf-syntax-ns#"
   xmlns:cc="http://creativecommons.org/ns#"
   xmlns:dc="http://purl.org/dc/elements/1.1/">
  <defs
     id="defs2">
    <linearGradient
       inkscape:collect="always"
       id="linearGradient893">
      <stop
         style="stop-color:#0066cc;stop-opacity:1"
         offset="0"
         id="stop889" />
      <stop
         id="stop899"
         offset="0.5"
         style="stop-color:#0066cc;stop-opacity:1" />
      <stop
         style="stop-color:#57b6ff;stop-opacity:1"
         offset="1"
         id="stop891" />
    </linearGradient>
    <linearGradient
       gradientTransform="matrix(41.575342,0,0,41.575342,-4143.3474,-3607.3292)"
       gradientUnits="userSpaceOnUse"
       y2="89.703362"
       x2="102.40325"
       y1="94.201279"
       x1="105.44596"
       id="linearGradient895-5"
       xlink:href="#linearGradient893"
       inkscape:collect="always" />
    <filter
       inkscape:collect="always"
       style="color-interpolation-filters:sRGB"
       id="filter1005"
       x="-0.046048259"
       width="1.0920965"
       y="-0.050124514"
       height="1.100249">
      <feGaussianBlur
         inkscape:collect="always"
         stdDeviation="1.2234169"
         id="feGaussianBlur1007" />
    </filter>
  </defs>
  <sodipodi:namedview
     id="base"
     pagecolor="#ffffff"
     bordercolor="#666666"
     borderopacity="1.0"
     inkscape:pageopacity="0.0"
     inkscape:pageshadow="2"
     inkscape:zoom="36.40481"
     inkscape:cx="-19.118353"
     inkscape:cy="75.649345"
     inkscape:document-units="px"
     inkscape:current-layer="layer1"
     inkscape:document-rotation="0"
     showgrid="false"
     units="px"
     fit-margin-top="2"
     fit-margin-left="2"
     fit-margin-bottom="2"
     fit-margin-right="2"
     inkscape:window-width="3840"
     inkscape:window-height="2045"
     inkscape:window-x="3840"
     inkscape:window-y="0"
     inkscape:window-maximized="1"
     inkscape:snap-bbox="true"
     inkscape:snap-smooth-nodes="true"
     inkscape:pagecheckerboard="0"
     scale-x="1">
    <inkscape:grid
       type="xygrid"
       id="grid847"
       originx="0"
       originy="0" />
    <inkscape:grid
       spacingy="0.13229167"
       spacingx="0.13229167"
       id="grid873"
       type="xygrid" />
  </sodipodi:namedview>
  <metadata
     id="metadata5">
    <rdf:RDF>
      <cc:Work
         rdf:about="">
        <dc:format>image/svg+xml</dc:format>
        <dc:type
           rdf:resource="http://purl.org/dc/dcmitype/StillImage" />
      </cc:Work>
    </rdf:RDF>
  </metadata>
  <g
     inkscape:label="Layer 1"
     inkscape:groupmode="layer"
     id="layer1"
     transform="translate(-91.93755,-88.636871)">
    <path
       id="path996"
       style="color:#000000;font-style:normal;font-variant:normal;font-weight:normal;font-stretch:normal;font-size:medium;line-height:normal;font-family:sans-serif;font-variant-ligatures:normal;font-variant-position:normal;font-variant-caps:normal;font-variant-numeric:normal;font-variant-alternates:normal;font-variant-east-asian:normal;font-feature-settings:normal;font-variation-settings:normal;text-indent:0;text-align:start;text-decoration:none;text-decoration-line:none;text-decoration-style:solid;text-decoration-color:#000000;letter-spacing:normal;word-spacing:normal;text-transform:none;writing-mode:lr-tb;direction:ltr;text-orientation:mixed;dominant-baseline:auto;baseline-shift:baseline;text-anchor:start;white-space:normal;shape-padding:0;shape-margin:0;inline-size:0;clip-rule:nonzero;display:inline;overflow:visible;visibility:visible;isolation:auto;mix-blend-mode:normal;color-interpolation:sRGB;color-interpolation-filters:linearRGB;solid-color:#000000;solid-opacity:1;vector-effect:none;fill:#212121;fill-opacity:1;fill-rule:nonzero;stroke:none;stroke-width:2.64583;stroke-linecap:butt;stroke-linejoin:miter;stroke-miterlimit:4;stroke-dasharray:none;stroke-dashoffset:0;stroke-opacity:1;filter:url(#filter1005);color-rendering:auto;image-rendering:auto;shape-rendering:auto;text-rendering:auto;enable-background:accumulate;stop-color:#000000"
       d="m 134.74838,94.274153 c -12.51879,0.142346 -22.62702,10.024017 -28.65614,16.694067 v -9.54877 c 0,-3.845976 -2.78248,-7.144264 -6.415627,-7.144264 -3.633059,0 -6.416146,3.298252 -6.416146,7.144264 v 24.00991 c 0,3.63309 3.298257,6.41614 7.144263,6.41614 h 23.28334 c 3.84602,0 7.14272,-2.78303 7.14272,-6.41614 0,-3.63308 -3.2967,-6.41615 -7.14272,-6.41615 h -5.85546 c 4.44422,-4.8124 10.60629,-10.45104 17.49609,-10.45104 2.57971,0 4.34764,0.92079 5.56039,2.28513 1.21275,1.36435 1.84795,3.23437 1.84795,5.1232 0,4.30772 -3.15959,9.9506 -6.7753,14.78308 -3.6157,4.83249 -7.5039,8.78676 -8.94157,10.58385 -2.71465,3.39332 -1.9208,7.57846 0.58807,9.81852 2.50887,2.24005 6.80307,2.52868 10.11101,-0.77928 1.53323,-1.53319 6.27583,-6.64093 10.70736,-13.10359 4.43152,-6.46265 8.59741,-14.21518 8.59741,-21.30258 0,-5.00246 -1.12464,-10.34844 -4.4726,-14.53348 -3.34797,-4.185044 -8.91318,-7.049856 -17.20515,-7.161834 -0.19992,-0.0027 -0.39918,-0.0033 -0.59789,-0.001 z"
       transform="matrix(3.7795779,0,0,3.7795779,-255.49175,-246.54144)" />
    <path
       sodipodi:nodetypes="sssssscsssssssscs"
       d="m 250.9952,110.77953 c 60.49547,0.81695 77.00131,40.70237 77.00131,77.00098 0,49.50064 -60.50046,115.50149 -71.50089,126.50168 -22.00001,22.00013 -50.6005,-5.50015 -33.00044,-27.50036 9.71824,-12.14767 60.50046,-61.87864 60.50046,-99.00132 0,-16.5002 -11.00001,-33.00044 -33.00044,-33.00044 -33.10808,0 -60.72118,30.30269 -77.58082,49.50068 h 33.58041 c 12.18823,0 22.0004,8.58562 22.0004,19.25022 0,10.66473 -9.81217,19.25026 -22.0004,19.25026 h -88.00125 c -12.18823,0 -22.000083,-8.58553 -22.000083,-19.25026 v -90.75114 c 0,-12.18815 8.585793,-22.0003 19.250253,-22.0003 10.66489,0 19.2502,9.81215 19.2502,22.0003 v 48.89905 C 156.5855,157.5849 199.7981,110.08809 250.9952,110.77953 Z"
       style="fill:url(#linearGradient895-5);fill-opacity:1;stroke:#003399;stroke-width:10.0001;stroke-linecap:butt;stroke-linejoin:miter;stroke-miterlimit:4;stroke-dasharray:none;stroke-opacity:1"
       id="path887-2" />
  </g>
</svg>
