<?xml version="1.0" encoding="UTF-8" standalone="no"?>
<svg
   sodipodi:docname="unlock.svg"
   inkscape:version="1.1.2 (0a00cf5339, 2022-02-04)"
   id="svg8"
   version="1.1"
   viewBox="0 0 256 256"
   height="256"
   width="256"
   inkscape:export-filename="unlock.png"
   inkscape:export-xdpi="96"
   inkscape:export-ydpi="96"
   xmlns:inkscape="http://www.inkscape.org/namespaces/inkscape"
   xmlns:sodipodi="http://sodipodi.sourceforge.net/DTD/sodipodi-0.dtd"
   xmlns:xlink="http://www.w3.org/1999/xlink"
   xmlns="http://www.w3.org/2000/svg"
   xmlns:svg="http://www.w3.org/2000/svg"
   xmlns:rdf="http://www.w3.org/1999/02/22-rdf-syntax-ns#"
   xmlns:cc="http://creativecommons.org/ns#"
   xmlns:dc="http://purl.org/dc/elements/1.1/">
  <defs
     id="defs2">
    <linearGradient
       gradientTransform="translate(12.5)"
       inkscape:collect="always"
       xlink:href="#linearGradient1325"
       id="linearGradient1327"
       x1="57.067711"
       y1="41"
       x2="57.067711"
       y2="24"
       gradientUnits="userSpaceOnUse" />
    <linearGradient
       inkscape:collect="always"
       id="linearGradient1325">
      <stop
         style="stop-color:#d8a518;stop-opacity:1"
         offset="0"
         id="stop1321" />
      <stop
         style="stop-color:#ffec86;stop-opacity:1"
         offset="1"
         id="stop1323" />
    </linearGradient>
    <linearGradient
       gradientTransform="translate(12.5)"
       inkscape:collect="always"
       xlink:href="#linearGradient1317"
       id="linearGradient1319"
       x1="62.567711"
       y1="43.5"
       x2="62.567711"
       y2="22.5"
       gradientUnits="userSpaceOnUse" />
    <linearGradient
       inkscape:collect="always"
       id="linearGradient1317">
      <stop
         style="stop-color:#ffd06a;stop-opacity:1"
         offset="0"
         id="stop1313" />
      <stop
         style="stop-color:#ffffc6;stop-opacity:1"
         offset="1"
         id="stop1315" />
    </linearGradient>
    <linearGradient
       gradientTransform="translate(12.5)"
       inkscape:collect="always"
       xlink:href="#linearGradient1339"
       id="linearGradient1341"
       x1="60.817451"
       y1="43.861931"
       x2="60.817451"
       y2="25.458643"
       gradientUnits="userSpaceOnUse" />
    <linearGradient
       inkscape:collect="always"
       id="linearGradient1339">
      <stop
         style="stop-color:#fffff0;stop-opacity:1"
         offset="0"
         id="stop1335" />
      <stop
         id="stop1343"
         offset="0.5"
         style="stop-color:#fffd9d;stop-opacity:1" />
      <stop
         style="stop-color:#fefbec;stop-opacity:1"
         offset="1"
         id="stop1337" />
    </linearGradient>
    <linearGradient
       gradientUnits="userSpaceOnUse"
       y2="31.061457"
       x2="96.567711"
       y1="31.061457"
       x1="71.567711"
       id="linearGradient1208"
       xlink:href="#linearGradient1206"
       inkscape:collect="always" />
    <linearGradient
       id="linearGradient1206"
       inkscape:collect="always">
      <stop
         id="stop1202"
         offset="0"
         style="stop-color:#e4bc4d;stop-opacity:1" />
      <stop
         id="stop1204"
         offset="1"
         style="stop-color:#cc9900;stop-opacity:1" />
    </linearGradient>
    <linearGradient
       gradientTransform="translate(12.5)"
       inkscape:collect="always"
       xlink:href="#linearGradient1308"
       id="linearGradient1300"
       x1="57.544079"
       y1="18.976562"
       x2="82.567711"
       y2="18.976562"
       gradientUnits="userSpaceOnUse" />
    <linearGradient
       id="linearGradient1308"
       inkscape:collect="always">
      <stop
         style="stop-color:#ffff99;stop-opacity:1"
         offset="0"
         id="stop1306" />
      <stop
         id="stop1304"
         offset="0.5"
         style="stop-color:#ffcd67;stop-opacity:1" />
      <stop
         style="stop-color:#d3a00f;stop-opacity:1"
         offset="1"
         id="stop1302" />
    </linearGradient>
    <linearGradient
       gradientUnits="userSpaceOnUse"
       y2="18.976562"
       x2="96.567711"
       y1="18.976562"
       x1="67.567711"
       id="linearGradient1216"
       xlink:href="#linearGradient1206"
       inkscape:collect="always" />
    <linearGradient
       gradientTransform="translate(25.51726,2.0150484)"
       gradientUnits="userSpaceOnUse"
       y2="31.482708"
       x2="47.459911"
       y1="30.491322"
       x1="41.594791"
       id="linearGradient1152"
       xlink:href="#linearGradient1150"
       inkscape:collect="always" />
    <linearGradient
       id="linearGradient1150"
       inkscape:collect="always">
      <stop
         id="stop1146"
         offset="0"
         style="stop-color:#8d6420;stop-opacity:1" />
      <stop
         id="stop1148"
         offset="1"
         style="stop-color:#a77d35;stop-opacity:1" />
    </linearGradient>
    <linearGradient
       inkscape:collect="always"
       xlink:href="#linearGradient1150"
       id="linearGradient1152-6"
       x1="41.594791"
       y1="30.491322"
       x2="47.459911"
       y2="31.482708"
       gradientUnits="userSpaceOnUse"
       gradientTransform="translate(40.721959,1.2996838)" />
    <linearGradient
       gradientTransform="translate(12.5)"
       inkscape:collect="always"
       xlink:href="#linearGradient1280"
       id="linearGradient1282"
       x1="70.567711"
       y1="21"
       x2="70.567711"
       y2="3"
       gradientUnits="userSpaceOnUse" />
    <linearGradient
       inkscape:collect="always"
       id="linearGradient1280">
      <stop
         style="stop-color:#d3a00f;stop-opacity:1"
         offset="0"
         id="stop1276" />
      <stop
         id="stop1284"
         offset="0.5"
         style="stop-color:#ffcc66;stop-opacity:1" />
      <stop
         style="stop-color:#ffff99;stop-opacity:1"
         offset="1"
         id="stop1278" />
    </linearGradient>
    <linearGradient
       gradientUnits="userSpaceOnUse"
       y2="21"
       x2="78.567711"
       y1="2"
       x1="78.567711"
       id="linearGradient1224"
       xlink:href="#linearGradient1206"
       inkscape:collect="always" />
    <linearGradient
       inkscape:collect="always"
       xlink:href="#linearGradient1365"
       id="linearGradient1367"
       x1="53.067711"
       y1="74.257309"
       x2="53.067711"
       y2="64.257309"
       gradientUnits="userSpaceOnUse"
       gradientTransform="translate(32.104535,-36.757308)" />
    <linearGradient
       inkscape:collect="always"
       id="linearGradient1365">
      <stop
         style="stop-color:#daa943;stop-opacity:1"
         offset="0"
         id="stop1361" />
      <stop
         style="stop-color:#817a69;stop-opacity:1"
         offset="1"
         id="stop1363" />
    </linearGradient>
    <filter
       height="1.0797402"
       y="-0.039870095"
       width="1.1205894"
       x="-0.060294684"
       id="filter1262"
       style="color-interpolation-filters:sRGB"
       inkscape:collect="always">
      <feGaussianBlur
         id="feGaussianBlur1264"
         stdDeviation="4.0203351"
         inkscape:collect="always" />
    </filter>
  </defs>
  <sodipodi:namedview
     inkscape:bbox-paths="false"
     fit-margin-bottom="0"
     fit-margin-right="0"
     fit-margin-left="0"
     fit-margin-top="0"
     inkscape:bbox-nodes="true"
     inkscape:snap-bbox="true"
     inkscape:window-maximized="1"
     inkscape:window-y="0"
     inkscape:window-x="3840"
     inkscape:window-height="2050"
     inkscape:window-width="3840"
     units="px"
     showgrid="false"
     inkscape:document-rotation="0"
     inkscape:current-layer="layer1"
     inkscape:document-units="px"
     inkscape:cy="160.68238"
     inkscape:cx="117.45901"
     inkscape:zoom="2.5796232"
     inkscape:pageshadow="2"
     inkscape:pageopacity="0.0"
     borderopacity="1.0"
     bordercolor="#666666"
     pagecolor="#ffffff"
     id="base"
     showguides="true"
     inkscape:guide-bbox="true"
     inkscape:snap-smooth-nodes="true"
     inkscape:pagecheckerboard="0">
    <inkscape:grid
       originy="0"
       originx="0"
       id="grid1504"
       type="xygrid" />
    <inkscape:grid
       originy="0"
       originx="0"
       spacingy="0.5"
       spacingx="0.5"
       id="grid1507"
       type="xygrid" />
  </sodipodi:namedview>
  <metadata
     id="metadata5">
    <rdf:RDF>
      <cc:Work
         rdf:about="">
        <dc:format>image/svg+xml</dc:format>
        <dc:type
           rdf:resource="http://purl.org/dc/dcmitype/StillImage" />
      </cc:Work>
    </rdf:RDF>
  </metadata>
  <g
     transform="translate(-12.567709)"
     id="layer1"
     inkscape:groupmode="layer"
     inkscape:label="Layer 1">
    <path
       d="m 142.13593,4.011571 c -0.74619,0.024493 -1.48491,0.07502 -2.21484,0.1503907 -13.90008,1.435268 -25.6038,5.1565468 -34.04102,10.6328123 -8.437223,5.476265 -13.728518,12.97234 -13.728518,21.482422 v 18.542968 c 0,1.379554 0.647978,2.800095 1.587891,3.677735 0.939913,0.87764 2.030279,1.312217 3.115234,1.572265 2.16991,0.5201 4.507503,0.379054 6.847653,-0.06445 2.34016,-0.443509 4.64178,-1.21364 6.57618,-2.351562 1.93439,-1.137922 3.94726,-2.804581 3.94726,-5.59375 V 39.036961 c 0,-1.050132 0.35509,-1.769605 1.43946,-2.722656 1.08436,-0.953051 2.91871,-1.923182 5.21875,-2.734375 4.60006,-1.622386 10.96032,-2.655047 16.84765,-3.496094 8.62584,-1.232262 18.03273,2.527894 25.23242,8.677735 7.1997,6.149841 11.96094,14.59019 11.96094,21.699219 v 8.820312 c -16.73182,1.500457 -35.3016,5.028574 -52.47656,9.833984 -13.23041,3.701758 -25.607986,8.163247 -35.6543,13.107422 C 76.747816,97.166684 68.982413,102.47017 65.003115,108.6268 a 2.7593809,2.7593809 0 0 0 -0.441406,1.49805 v 104.8457 c 0,5.6715 3.796886,12.42594 8.5,18.57618 2.351557,3.0751 4.969419,5.89547 7.679687,8.03515 2.610054,2.06058 5.30653,3.60616 8.308594,3.71875 20.30808,2.88467 52.03413,-3.49375 79.85938,-12.88476 13.92314,-4.69907 26.80845,-10.17407 36.6914,-15.77735 9.88295,-5.60328 17.02178,-10.94925 18.88282,-17.46289 a 2.7593809,2.7593809 0 0 0 0.10546,-0.75976 V 93.618993 a 2.7593809,2.7593809 0 0 0 0,-0.04883 2.759105,2.759105 0 0 0 -0.0137,-0.279296 c -0.0726,-2.247013 -0.9999,-4.350019 -2.32031,-6.736328 -1.37528,-2.485479 -3.26559,-5.144785 -5.50781,-7.664063 -4.48446,-5.038555 -10.28828,-9.711928 -16.80664,-10.146484 -0.95809,-0.06387 -1.95161,-0.102216 -2.94336,-0.142579 v -19.17578 c 0,-12.407504 -8.89515,-24.095422 -20.19727,-32.564453 C 166.9106,9.4507783 155.03413,4.3622 144.39566,4.0135242 c -0.75988,-0.024906 -1.51357,-0.026446 -2.25976,-0.00195 z"
       style="fill:#000000;fill-opacity:1;stroke:none;stroke-width:5.51821px;stroke-linecap:butt;stroke-linejoin:miter;stroke-opacity:1;filter:url(#filter1262)"
       id="path1161" />
    <g
       transform="matrix(5.5182134,0,0,5.5182134,-313.29133,-6.9978677)"
       id="g1236">
      <path
         style="fill:url(#linearGradient1327);fill-opacity:1;stroke:none;stroke-width:1px;stroke-linecap:butt;stroke-linejoin:miter;stroke-opacity:1"
         d="m 68.067709,20.5 v 19 c 0,1.5 2.5,5 4,5 v -20 c -1.130954,-0.310872 -3.456129,-3.098284 -4,-4 z"
         id="path1329"
         sodipodi:nodetypes="ccccc" />
      <path
         style="fill:url(#linearGradient1319);fill-opacity:1;stroke:none;stroke-width:1px;stroke-linecap:butt;stroke-linejoin:miter;stroke-opacity:1"
         d="m 72.067709,24.5 v 20 c 7,1 23,-4.5 24,-8 v -19"
         id="path1333"
         sodipodi:nodetypes="cccc" />
      <path
         sodipodi:nodetypes="ccc"
         id="path1331"
         d="m 96.067709,19 c -2.133286,1.627119 -16.5,6.5 -23,6.5 v 19"
         style="fill:none;stroke:url(#linearGradient1341);stroke-width:1.5;stroke-linecap:butt;stroke-linejoin:miter;stroke-miterlimit:4;stroke-dasharray:none;stroke-opacity:1" />
      <path
         sodipodi:nodetypes="ccc"
         id="path1266"
         d="m 68.067709,20.5 v 19 c 0,1.5 2.5,5 4,5"
         style="fill:none;fill-opacity:1;stroke:#d09d07;stroke-width:1px;stroke-linecap:butt;stroke-linejoin:miter;stroke-opacity:1" />
      <path
         sodipodi:nodetypes="cccc"
         id="path1264"
         d="m 72.067709,24.5 v 20 c 7,1 23,-4.5 24,-8 v -19"
         style="fill:none;fill-opacity:1;stroke:url(#linearGradient1208);stroke-width:1px;stroke-linecap:round;stroke-linejoin:round;stroke-opacity:1" />
      <path
         sodipodi:nodetypes="scscs"
         id="path1260"
         d="m 72.067709,24.5 c -1,0 -3.5,-2.5 -4,-4 2.5,-3.86792 16.5,-7.5 24,-7 1.881442,0.125429 4,3 4,4 -1.1547,2.000001 -15.666667,7 -24,7 z"
         style="fill:url(#linearGradient1300);fill-opacity:1;stroke:url(#linearGradient1216);stroke-width:1px;stroke-linecap:round;stroke-linejoin:round;stroke-opacity:1" />
      <ellipse
         rx="3.0141602"
         ry="1.8139881"
         style="fill:url(#linearGradient1152);fill-opacity:1;fill-rule:evenodd;stroke-width:5;stroke-linecap:round;stroke-linejoin:round"
         id="path1129"
         cx="69.977173"
         cy="33.497753"
         transform="rotate(-9.5940682)" />
      <ellipse
         rx="3.1270189"
         ry="1.8139881"
         transform="rotate(-9.5940682)"
         cy="32.782387"
         cx="85.18187"
         id="path1129-3"
         style="fill:url(#linearGradient1152-6);fill-opacity:1;fill-rule:evenodd;stroke-width:5;stroke-linecap:round;stroke-linejoin:round" />
      <path
         sodipodi:nodetypes="sssssssssss"
         id="path1262"
         d="M 76.067709,9.9776386 V 7.6173894 c 0,-1.3771509 2.544725,-1.8110477 4.689117,-2.1173894 3.5,-0.5 7.310883,3 7.310883,6 v 7 c 0,1 3,0 3,-1 v -8 c 0,-4 -5.963139,-8.100548 -9.791918,-7.7052031 -4.917754,0.5077882 -8.208082,2.6483579 -8.208082,5.3225925 v 3.3602496 c 0,1 3,0.362872 3,-0.5000004 z"
         style="fill:url(#linearGradient1282);fill-opacity:1;stroke:url(#linearGradient1224);stroke-width:1px;stroke-linecap:round;stroke-linejoin:round;stroke-opacity:1" />
      <path
         d="m 86.567709,26.723842 -2.5,0.776158 V 31 c -1.0617,0.477211 -1.669208,1.325993 -1.509766,2.109375 0.1237,0.605322 0.689222,1.079394 1.509766,1.265625 V 38 l 2.5,-0.736612 v -3.181357 c 1.035426,-0.482185 1.620995,-1.318712 1.462891,-2.089843 -0.121503,-0.592745 -0.666999,-1.060313 -1.462891,-1.253907 V 30.53125 Z"
         style="fill:url(#linearGradient1367);fill-opacity:1;stroke:none;stroke-width:1px;stroke-linecap:butt;stroke-linejoin:miter;stroke-opacity:1"
         id="path1345"
         sodipodi:nodetypes="cccccccccccc" />
    </g>
  </g>
</svg>
