<?xml version="1.0" encoding="UTF-8" standalone="no"?>
<svg
   sodipodi:docname="unlock-16.svg"
   inkscape:version="1.1.2 (0a00cf5339, 2022-02-04)"
   id="svg8"
   version="1.1"
   viewBox="0 0 256 256"
   height="256"
   width="256"
   inkscape:export-filename="unlock.png"
   inkscape:export-xdpi="6"
   inkscape:export-ydpi="6"
   xmlns:inkscape="http://www.inkscape.org/namespaces/inkscape"
   xmlns:sodipodi="http://sodipodi.sourceforge.net/DTD/sodipodi-0.dtd"
   xmlns:xlink="http://www.w3.org/1999/xlink"
   xmlns="http://www.w3.org/2000/svg"
   xmlns:svg="http://www.w3.org/2000/svg"
   xmlns:rdf="http://www.w3.org/1999/02/22-rdf-syntax-ns#"
   xmlns:cc="http://creativecommons.org/ns#"
   xmlns:dc="http://purl.org/dc/elements/1.1/">
  <defs
     id="defs2">
    <linearGradient
       gradientTransform="translate(12.5)"
       inkscape:collect="always"
       xlink:href="#linearGradient1325"
       id="linearGradient1327"
       x1="57.067711"
       y1="41"
       x2="57.067711"
       y2="24"
       gradientUnits="userSpaceOnUse" />
    <linearGradient
       inkscape:collect="always"
       id="linearGradient1325">
      <stop
         style="stop-color:#d8a518;stop-opacity:1"
         offset="0"
         id="stop1321" />
      <stop
         style="stop-color:#ffec86;stop-opacity:1"
         offset="1"
         id="stop1323" />
    </linearGradient>
    <linearGradient
       gradientTransform="translate(12.5)"
       inkscape:collect="always"
       xlink:href="#linearGradient1317"
       id="linearGradient1319"
       x1="62.567711"
       y1="43.5"
       x2="62.567711"
       y2="22.5"
       gradientUnits="userSpaceOnUse" />
    <linearGradient
       inkscape:collect="always"
       id="linearGradient1317">
      <stop
         style="stop-color:#ffd06a;stop-opacity:1"
         offset="0"
         id="stop1313" />
      <stop
         style="stop-color:#ffffc6;stop-opacity:1"
         offset="1"
         id="stop1315" />
    </linearGradient>
    <linearGradient
       gradientTransform="translate(12.5)"
       inkscape:collect="always"
       xlink:href="#linearGradient1339"
       id="linearGradient1341"
       x1="60.817451"
       y1="43.861931"
       x2="60.817451"
       y2="25.458643"
       gradientUnits="userSpaceOnUse" />
    <linearGradient
       inkscape:collect="always"
       id="linearGradient1339">
      <stop
         style="stop-color:#fffff0;stop-opacity:1"
         offset="0"
         id="stop1335" />
      <stop
         id="stop1343"
         offset="0.5"
         style="stop-color:#fffd9d;stop-opacity:1" />
      <stop
         style="stop-color:#fefbec;stop-opacity:1"
         offset="1"
         id="stop1337" />
    </linearGradient>
    <linearGradient
       gradientUnits="userSpaceOnUse"
       y2="31.061457"
       x2="96.567711"
       y1="31.061457"
       x1="71.567711"
       id="linearGradient1208"
       xlink:href="#linearGradient1206"
       inkscape:collect="always" />
    <linearGradient
       id="linearGradient1206"
       inkscape:collect="always">
      <stop
         id="stop1202"
         offset="0"
         style="stop-color:#e4bc4d;stop-opacity:1" />
      <stop
         id="stop1204"
         offset="1"
         style="stop-color:#cc9900;stop-opacity:1" />
    </linearGradient>
    <linearGradient
       gradientTransform="translate(12.5)"
       inkscape:collect="always"
       xlink:href="#linearGradient1308"
       id="linearGradient1300"
       x1="57.544079"
       y1="18.976562"
       x2="82.567711"
       y2="18.976562"
       gradientUnits="userSpaceOnUse" />
    <linearGradient
       id="linearGradient1308"
       inkscape:collect="always">
      <stop
         style="stop-color:#ffff99;stop-opacity:1"
         offset="0"
         id="stop1306" />
      <stop
         id="stop1304"
         offset="0.5"
         style="stop-color:#ffcd67;stop-opacity:1" />
      <stop
         style="stop-color:#d3a00f;stop-opacity:1"
         offset="1"
         id="stop1302" />
    </linearGradient>
    <linearGradient
       gradientUnits="userSpaceOnUse"
       y2="18.976562"
       x2="96.567711"
       y1="18.976562"
       x1="67.567711"
       id="linearGradient1216"
       xlink:href="#linearGradient1206"
       inkscape:collect="always" />
    <linearGradient
       gradientTransform="translate(25.51726,2.0150484)"
       gradientUnits="userSpaceOnUse"
       y2="31.482708"
       x2="47.459911"
       y1="30.491322"
       x1="41.594791"
       id="linearGradient1152"
       xlink:href="#linearGradient1150"
       inkscape:collect="always" />
    <linearGradient
       id="linearGradient1150"
       inkscape:collect="always">
      <stop
         id="stop1146"
         offset="0"
         style="stop-color:#8d6420;stop-opacity:1" />
      <stop
         id="stop1148"
         offset="1"
         style="stop-color:#a77d35;stop-opacity:1" />
    </linearGradient>
    <linearGradient
       inkscape:collect="always"
       xlink:href="#linearGradient1150"
       id="linearGradient1152-6"
       x1="41.594791"
       y1="30.491322"
       x2="47.459911"
       y2="31.482708"
       gradientUnits="userSpaceOnUse"
       gradientTransform="translate(40.721959,1.2996838)" />
    <linearGradient
       gradientTransform="translate(12.5)"
       inkscape:collect="always"
       xlink:href="#linearGradient1280"
       id="linearGradient1282"
       x1="70.567711"
       y1="21"
       x2="70.567711"
       y2="3"
       gradientUnits="userSpaceOnUse" />
    <linearGradient
       inkscape:collect="always"
       id="linearGradient1280">
      <stop
         style="stop-color:#d3a00f;stop-opacity:1"
         offset="0"
         id="stop1276" />
      <stop
         id="stop1284"
         offset="0.5"
         style="stop-color:#ffcc66;stop-opacity:1" />
      <stop
         style="stop-color:#ffff99;stop-opacity:1"
         offset="1"
         id="stop1278" />
    </linearGradient>
    <linearGradient
       gradientUnits="userSpaceOnUse"
       y2="21"
       x2="78.567711"
       y1="2"
       x1="78.567711"
       id="linearGradient1224"
       xlink:href="#linearGradient1206"
       inkscape:collect="always" />
    <linearGradient
       inkscape:collect="always"
       xlink:href="#linearGradient1365"
       id="linearGradient1367"
       x1="53.067711"
       y1="74.257309"
       x2="53.067711"
       y2="64.257309"
       gradientUnits="userSpaceOnUse"
       gradientTransform="translate(32.104535,-36.757308)" />
    <linearGradient
       inkscape:collect="always"
       id="linearGradient1365">
      <stop
         style="stop-color:#daa943;stop-opacity:1"
         offset="0"
         id="stop1361" />
      <stop
         style="stop-color:#817a69;stop-opacity:1"
         offset="1"
         id="stop1363" />
    </linearGradient>
    <filter
       inkscape:collect="always"
       style="color-interpolation-filters:sRGB"
       id="filter1525"
       x="-0.18319625"
       y="-0.12274734"
       width="1.3663925"
       height="1.2454947">
      <feGaussianBlur
         inkscape:collect="always"
         stdDeviation="12.172235"
         id="feGaussianBlur1527" />
    </filter>
  </defs>
  <sodipodi:namedview
     inkscape:bbox-paths="false"
     fit-margin-bottom="0"
     fit-margin-right="0"
     fit-margin-left="0"
     fit-margin-top="0"
     inkscape:bbox-nodes="true"
     inkscape:snap-bbox="true"
     inkscape:window-maximized="1"
     inkscape:window-y="0"
     inkscape:window-x="3840"
     inkscape:window-height="2050"
     inkscape:window-width="3840"
     units="px"
     showgrid="false"
     inkscape:document-rotation="0"
     inkscape:current-layer="layer1"
     inkscape:document-units="px"
     inkscape:cy="160.68238"
     inkscape:cx="117.45901"
     inkscape:zoom="2.5796232"
     inkscape:pageshadow="2"
     inkscape:pageopacity="0.0"
     borderopacity="1.0"
     bordercolor="#666666"
     pagecolor="#ffffff"
     id="base"
     showguides="true"
     inkscape:guide-bbox="true"
     inkscape:snap-smooth-nodes="true"
     inkscape:pagecheckerboard="0">
    <inkscape:grid
       originy="0"
       originx="0"
       id="grid1504"
       type="xygrid" />
    <inkscape:grid
       originy="0"
       originx="0"
       spacingy="0.5"
       spacingx="0.5"
       id="grid1507"
       type="xygrid" />
  </sodipodi:namedview>
  <metadata
     id="metadata5">
    <rdf:RDF>
      <cc:Work
         rdf:about="">
        <dc:format>image/svg+xml</dc:format>
        <dc:type
           rdf:resource="http://purl.org/dc/dcmitype/StillImage" />
      </cc:Work>
    </rdf:RDF>
  </metadata>
  <g
     transform="translate(-12.567709)"
     id="layer1"
     inkscape:groupmode="layer"
     inkscape:label="Layer 1">
    <path
       id="path1360"
       style="fill:#000000;fill-opacity:1;stroke:none;stroke-width:11.4922;stroke-linecap:butt;stroke-linejoin:miter;stroke-miterlimit:4;stroke-dasharray:none;stroke-opacity:1;filter:url(#filter1525)"
       d="m 151.99549,16.015889 c -1.5884,-0.04605 -3.16387,0.0074 -4.71875,0.167969 -13.68469,1.413028 -25.32342,5.052141 -33.97266,10.666015 -8.64923,5.613875 -14.560543,13.754868 -14.560543,23.177735 V 67.78542 c 0,2.097109 1.057613,4.438721 2.505863,5.791016 1.44824,1.352295 2.99232,1.923512 4.3789,2.255859 2.77318,0.664694 5.3136,0.453185 7.85938,-0.0293 2.54578,-0.482479 5.01027,-1.284139 7.29297,-2.626953 2.2827,-1.342813 5.30859,-3.56357 5.30859,-8.033203 V 52.670186 c 0,-0.04983 -0.24322,0.225048 0.32618,-0.275391 0.56939,-0.500438 1.99694,-1.323874 3.98046,-2.023437 3.96706,-1.399127 9.93578,-2.402377 15.54102,-3.203125 7.10096,-1.014424 15.34477,2.163413 21.70898,7.599609 6.36422,5.436196 10.36719,12.925977 10.36719,18.419922 v 5.644531 c -15.50384,1.58026 -32.30106,4.843271 -47.98828,9.232422 -12.81072,3.584332 -24.81248,7.900791 -34.677737,12.755863 -9.865253,4.85507 -17.699858,9.9913 -22.107422,16.81054 a 5.7466746,5.7466746 0 0 0 -0.804687,3.11914 h -0.115235 v 100.41016 c 10e-7,7.15578 4.028228,13.46089 8.779297,19.67382 2.375535,3.10647 5.018337,5.97233 7.898438,8.2461 2.737296,2.16102 5.694493,4.03251 9.599609,4.21484 20.560187,2.86864 50.884097,-3.42038 77.751957,-12.48828 13.47747,-4.54865 25.95872,-9.83927 35.67773,-15.34961 9.71902,-5.51033 17.21125,-10.43857 19.53516,-18.57226 a 5.7466746,5.7466746 0 0 0 0.22266,-1.58008 v -100.4082 c 0,-3.35008 -1.17429,-5.60243 -2.62305,-8.220705 -1.44876,-2.618274 -3.37604,-5.322836 -5.67187,-7.902343 -4.5756,-5.140965 -10.43331,-10.194613 -18.12891,-10.740235 V 62.619405 c 0,-13.42476 -9.27318,-25.190966 -20.58594,-33.667969 -9.89867,-7.417378 -21.6605,-12.613199 -32.7793,-12.935547 z" />
    <g
       transform="matrix(5.2846866,0,0,5.2846866,-297.64961,-3.5854561)"
       id="g1236"
       style="stroke-width:2.17462;stroke-miterlimit:4;stroke-dasharray:none">
      <path
         style="fill:url(#linearGradient1327);fill-opacity:1;stroke:none;stroke-width:2.17462;stroke-linecap:butt;stroke-linejoin:miter;stroke-miterlimit:4;stroke-dasharray:none;stroke-opacity:1"
         d="m 68.067709,20.5 v 19 c 0,1.5 2.5,5 4,5 v -20 c -1.130954,-0.310872 -3.456129,-3.098284 -4,-4 z"
         id="path1329"
         sodipodi:nodetypes="ccccc" />
      <path
         style="fill:url(#linearGradient1319);fill-opacity:1;stroke:none;stroke-width:2.17462;stroke-linecap:butt;stroke-linejoin:miter;stroke-miterlimit:4;stroke-dasharray:none;stroke-opacity:1"
         d="m 72.067709,24.5 v 20 c 7,1 23,-4.5 24,-8 v -19"
         id="path1333"
         sodipodi:nodetypes="cccc" />
      <path
         sodipodi:nodetypes="ccc"
         id="path1331"
         d="m 96.067709,19 c -2.133286,1.627119 -16.5,6.5 -23,6.5 v 19"
         style="fill:none;stroke:url(#linearGradient1341);stroke-width:2.17462;stroke-linecap:butt;stroke-linejoin:miter;stroke-miterlimit:4;stroke-dasharray:none;stroke-opacity:1" />
      <path
         sodipodi:nodetypes="ccc"
         id="path1266"
         d="m 68.067709,20.5 v 19 c 0,1.5 2.5,5 4,5"
         style="fill:none;fill-opacity:1;stroke:#d09d07;stroke-width:2.17462;stroke-linecap:butt;stroke-linejoin:miter;stroke-miterlimit:4;stroke-dasharray:none;stroke-opacity:1" />
      <path
         sodipodi:nodetypes="cccc"
         id="path1264"
         d="m 72.067709,24.5 v 20 c 7,1 23,-4.5 24,-8 v -19"
         style="fill:none;fill-opacity:1;stroke:url(#linearGradient1208);stroke-width:2.17462;stroke-linecap:round;stroke-linejoin:round;stroke-miterlimit:4;stroke-dasharray:none;stroke-opacity:1" />
      <path
         sodipodi:nodetypes="scscs"
         id="path1260"
         d="m 72.067709,24.5 c -1,0 -3.5,-2.5 -4,-4 2.5,-3.86792 16.5,-7.5 24,-7 1.881442,0.125429 4,3 4,4 -1.1547,2.000001 -15.666667,7 -24,7 z"
         style="fill:url(#linearGradient1300);fill-opacity:1;stroke:url(#linearGradient1216);stroke-width:2.17462;stroke-linecap:round;stroke-linejoin:round;stroke-miterlimit:4;stroke-dasharray:none;stroke-opacity:1" />
      <ellipse
         rx="3.0141602"
         ry="1.8139881"
         style="fill:url(#linearGradient1152);fill-opacity:1;fill-rule:evenodd;stroke-width:2.17462;stroke-linecap:round;stroke-linejoin:round;stroke-miterlimit:4;stroke-dasharray:none"
         id="path1129"
         cx="69.977173"
         cy="33.497753"
         transform="rotate(-9.5940682)" />
      <ellipse
         rx="3.1270189"
         ry="1.8139881"
         transform="rotate(-9.5940682)"
         cy="32.782387"
         cx="85.18187"
         id="path1129-3"
         style="fill:url(#linearGradient1152-6);fill-opacity:1;fill-rule:evenodd;stroke-width:2.17462;stroke-linecap:round;stroke-linejoin:round;stroke-miterlimit:4;stroke-dasharray:none" />
      <path
         sodipodi:nodetypes="sssssssssss"
         id="path1262"
         d="M 76.067709,9.9776386 V 7.6173894 c 0,-1.3771509 2.544725,-1.8110477 4.689117,-2.1173894 3.5,-0.5 7.310883,3 7.310883,6 v 7 c 0,1 3,0 3,-1 v -8 c 0,-4 -5.963139,-8.100548 -9.791918,-7.7052031 -4.917754,0.5077882 -8.208082,2.6483579 -8.208082,5.3225925 v 3.3602496 c 0,1 3,0.362872 3,-0.5000004 z"
         style="fill:url(#linearGradient1282);fill-opacity:1;stroke:url(#linearGradient1224);stroke-width:2.17462;stroke-linecap:round;stroke-linejoin:round;stroke-miterlimit:4;stroke-dasharray:none;stroke-opacity:1" />
      <path
         d="m 86.567709,26.723842 -2.5,0.776158 V 31 c -1.0617,0.477211 -1.669208,1.325993 -1.509766,2.109375 0.1237,0.605322 0.689222,1.079394 1.509766,1.265625 V 38 l 2.5,-0.736612 v -3.181357 c 1.035426,-0.482185 1.620995,-1.318712 1.462891,-2.089843 -0.121503,-0.592745 -0.666999,-1.060313 -1.462891,-1.253907 V 30.53125 Z"
         style="fill:url(#linearGradient1367);fill-opacity:1;stroke:none;stroke-width:2.17462;stroke-linecap:butt;stroke-linejoin:miter;stroke-miterlimit:4;stroke-dasharray:none;stroke-opacity:1"
         id="path1345"
         sodipodi:nodetypes="cccccccccccc" />
    </g>
  </g>
</svg>
