<?xml version="1.0" encoding="UTF-8" standalone="no"?>
<svg
   inkscape:export-ydpi="96"
   inkscape:export-xdpi="96"
   inkscape:export-filename="/media/klapeto/Αρχεία/WindowsXP Theme/Vectors/RASTER/view-hidden.png"
   width="256"
   height="256"
   viewBox="0 0 256 256"
   version="1.1"
   id="svg8"
   inkscape:version="1.1.1 (3bf5ae0d25, 2021-09-20)"
   sodipodi:docname="view-hidden.svg"
   xmlns:inkscape="http://www.inkscape.org/namespaces/inkscape"
   xmlns:sodipodi="http://sodipodi.sourceforge.net/DTD/sodipodi-0.dtd"
   xmlns:xlink="http://www.w3.org/1999/xlink"
   xmlns="http://www.w3.org/2000/svg"
   xmlns:svg="http://www.w3.org/2000/svg"
   xmlns:rdf="http://www.w3.org/1999/02/22-rdf-syntax-ns#"
   xmlns:cc="http://creativecommons.org/ns#"
   xmlns:dc="http://purl.org/dc/elements/1.1/">
  <defs
     id="defs2">
    <linearGradient
       inkscape:collect="always"
       id="linearGradient1273">
      <stop
         style="stop-color:#abd5ff;stop-opacity:1"
         offset="0"
         id="stop1267" />
      <stop
         id="stop1269"
         offset="0.5"
         style="stop-color:#cacaff;stop-opacity:1" />
      <stop
         style="stop-color:#ffffff;stop-opacity:1"
         offset="1"
         id="stop1271" />
    </linearGradient>
    <linearGradient
       id="linearGradient1242"
       inkscape:collect="always">
      <stop
         id="stop1238"
         offset="0"
         style="stop-color:#927ee5;stop-opacity:1" />
      <stop
         id="stop1240"
         offset="1"
         style="stop-color:#331d96;stop-opacity:1" />
    </linearGradient>
    <linearGradient
       id="linearGradient1232"
       inkscape:collect="always">
      <stop
         id="stop1228"
         offset="0"
         style="stop-color:#ffffff;stop-opacity:1" />
      <stop
         id="stop1230"
         offset="1"
         style="stop-color:#4d2eff;stop-opacity:1" />
    </linearGradient>
    <linearGradient
       gradientTransform="translate(312.94178,56.365261)"
       gradientUnits="userSpaceOnUse"
       y2="44.046867"
       x2="-252.34164"
       y1="128.5479"
       x1="-119.68574"
       id="linearGradient1298"
       xlink:href="#linearGradient1273"
       inkscape:collect="always" />
    <linearGradient
       gradientTransform="translate(-4.2971419)"
       gradientUnits="userSpaceOnUse"
       y2="164.9482"
       x2="168.00951"
       y1="102.87228"
       x1="89.51149"
       id="linearGradient1345"
       xlink:href="#linearGradient1232"
       inkscape:collect="always" />
    <linearGradient
       inkscape:collect="always"
       xlink:href="#linearGradient1242"
       id="linearGradient1139"
       gradientUnits="userSpaceOnUse"
       gradientTransform="matrix(1.2264564,0,0,1.2264564,-38.761422,-19.815461)"
       x1="102.2962"
       y1="95.171394"
       x2="173.05869"
       y2="142.0565" />
    <filter
       inkscape:collect="always"
       style="color-interpolation-filters:sRGB"
       id="filter1184"
       x="-0.035889626"
       width="1.0717793"
       y="-0.072445584"
       height="1.1448912">
      <feGaussianBlur
         inkscape:collect="always"
         stdDeviation="3.6019393"
         id="feGaussianBlur1186" />
    </filter>
    <filter
       inkscape:collect="always"
       style="color-interpolation-filters:sRGB"
       id="filter963"
       x="-0.048336213"
       width="1.0966724"
       y="-0.04766843"
       height="1.0953369">
      <feGaussianBlur
         inkscape:collect="always"
         stdDeviation="4.8065668"
         id="feGaussianBlur965" />
    </filter>
  </defs>
  <sodipodi:namedview
     inkscape:guide-bbox="true"
     showguides="true"
     id="base"
     pagecolor="#ffffff"
     bordercolor="#666666"
     borderopacity="1.0"
     inkscape:pageopacity="0.0"
     inkscape:pageshadow="2"
     inkscape:zoom="8"
     inkscape:cx="155.375"
     inkscape:cy="143.875"
     inkscape:document-units="px"
     inkscape:current-layer="layer1"
     inkscape:document-rotation="0"
     showgrid="false"
     units="px"
     inkscape:window-width="3840"
     inkscape:window-height="2045"
     inkscape:window-x="3840"
     inkscape:window-y="0"
     inkscape:window-maximized="1"
     inkscape:snap-bbox="true"
     inkscape:bbox-nodes="true"
     fit-margin-top="0"
     fit-margin-left="0"
     fit-margin-right="0"
     fit-margin-bottom="0"
     inkscape:bbox-paths="false"
     inkscape:snap-intersection-paths="false"
     inkscape:snap-smooth-nodes="true"
     inkscape:snap-global="false"
     inkscape:object-paths="false"
     inkscape:pagecheckerboard="0">
    <inkscape:grid
       type="xygrid"
       id="grid1504"
       originx="0"
       originy="0" />
    <inkscape:grid
       type="xygrid"
       id="grid1507"
       spacingx="0.5"
       spacingy="0.5"
       originx="0"
       originy="0" />
  </sodipodi:namedview>
  <metadata
     id="metadata5">
    <rdf:RDF>
      <cc:Work
         rdf:about="">
        <dc:format>image/svg+xml</dc:format>
        <dc:type
           rdf:resource="http://purl.org/dc/dcmitype/StillImage" />
      </cc:Work>
    </rdf:RDF>
  </metadata>
  <g
     inkscape:label="Layer 1"
     inkscape:groupmode="layer"
     id="layer1"
     transform="translate(-12.567709)">
    <path
       id="path1151"
       style="fill:#212121;fill-opacity:1;stroke:none;stroke-width:5;stroke-linecap:butt;stroke-linejoin:round;stroke-miterlimit:4;stroke-dasharray:none;stroke-opacity:1;filter:url(#filter1184)"
       d="m 140.91712,65.29807 c -29.79378,0 -56.650499,10.07203 -77.845703,22.32813 C 41.876212,99.88229 26.35505,114.26329 18.97962,123.38987 a 2.50025,2.50025 0 0 0 0.03125,3.18164 c 7.647896,9.08123 23.319046,23.47085 44.585938,35.72461 21.266893,12.25376 48.124192,22.32813 77.917972,22.32812 29.25707,0 55.79255,-10.87311 76.37695,-23.52148 20.5844,-12.64837 35.1683,-26.94996 40.9043,-34.64844 a 2.50025,2.50025 0 0 0 -0.0391,-3.03906 C 252.76272,115.79258 238.02232,101.46147 217.36634,88.81565 196.71035,76.169829 170.17418,65.29807 140.91712,65.29807 Z" />
    <g
       id="g1149"
       transform="translate(0,-15.01593)">
      <path
         style="fill:url(#linearGradient1298);fill-opacity:1;stroke:none;stroke-width:5;stroke-linecap:butt;stroke-linejoin:round;stroke-miterlimit:4;stroke-dasharray:none;stroke-opacity:1"
         d="m 15.798101,136.23701 c 14.49656,-17.65202 61.35576,-57.926466 119.814449,-57.926466 57.27207,0 104.96398,43.360606 116.05349,56.867006 -15.46749,15.74938 -45.89469,56.96005 -114.18044,56.96005 -66.227532,0 -105.627019,-39.70743 -121.687499,-55.90059 z"
         id="path1183"
         sodipodi:nodetypes="cscsc" />
      <path
         sodipodi:nodetypes="cssccc"
         d="m 185.17194,127.59549 c 0,28.50499 -23.10786,51.61285 -51.61285,51.61285 -28.50499,0 -51.612853,-23.10786 -51.612854,-51.61285 0,-19.22594 10.51219,-35.996635 26.102364,-44.877858 l 49.07224,-1.055269 c 16.65654,8.561315 28.0511,25.916547 28.0511,45.933127"
         style="fill:url(#linearGradient1345);fill-opacity:1;fill-rule:evenodd;stroke:none;stroke-width:5;stroke-linecap:round;stroke-linejoin:round;stroke-miterlimit:4;stroke-dasharray:none;stroke-opacity:1;stop-color:#000000"
         id="path1133" />
      <path
         id="path1203"
         style="fill:none;fill-opacity:1;fill-rule:evenodd;stroke:url(#linearGradient1139);stroke-width:5;stroke-linecap:round;stroke-linejoin:round;stroke-miterlimit:4;stroke-dasharray:none;stroke-opacity:1;stop-color:#000000"
         d="m 185.17194,127.59549 c 0,28.50499 -23.10786,51.61285 -51.61285,51.61285 -28.50499,0 -51.612853,-23.10786 -51.612854,-51.61285 0,-19.22594 10.51219,-35.996635 26.102364,-44.877858 l 2.81422,-1.450838 m 41.36607,-1.250536 4.89195,1.646105 c 16.65654,8.561315 28.0511,25.916547 28.0511,45.933127"
         sodipodi:nodetypes="cssccccc" />
      <circle
         r="25.990171"
         cy="127.59549"
         cx="133.5591"
         id="path1203-3"
         style="fill:#212121;fill-opacity:1;fill-rule:evenodd;stroke:none;stroke-width:5;stroke-linecap:round;stroke-linejoin:round;stroke-miterlimit:4;stroke-dasharray:none;stroke-opacity:1;stop-color:#000000" />
      <path
         style="fill:none;fill-opacity:1;stroke:#7075ad;stroke-width:5;stroke-linecap:butt;stroke-linejoin:round;stroke-miterlimit:4;stroke-dasharray:none;stroke-opacity:1"
         d="m 136.51542,193.14058 c -58.458689,0 -105.795739,-39.59502 -120.5913,-57.1635 14.197559,-17.56848 61.534609,-57.163504 119.9933,-57.163504 57.27207,0 104.48613,42.681184 115.87464,57.163504 -10.79051,14.48232 -58.00457,57.1635 -115.27664,57.1635 z"
         id="path1130"
         sodipodi:nodetypes="scscs" />
    </g>
    <g
       id="layer1-6"
       inkscape:label="Layer 1"
       transform="matrix(0.51580227,0,0,0.51580227,130.95706,122.67899)">
      <path
         id="circle942"
         style="fill:#212121;fill-opacity:1;fill-rule:evenodd;stroke:none;stroke-width:63.1773;stroke-linecap:round;stroke-linejoin:round;stroke-miterlimit:4;stroke-dasharray:none;filter:url(#filter963)"
         d="M 133.81221,4 A 116.24404,116.24404 0 0 0 17.567709,120.2445 116.24404,116.24404 0 0 0 39.479668,188.17002 116.24404,116.24404 0 0 0 139.97989,246 116.24404,116.24404 0 0 0 256.22439,129.7555 116.24404,116.24404 0 0 0 234.31243,61.829975 116.24404,116.24404 0 0 0 133.81221,4 Z" />
      <g
         id="g940"
         transform="matrix(5.4066999,0,0,5.4066999,495.5627,-5.4066999)">
        <circle
           r="18.249216"
           cy="22.756973"
           cx="-67.310364"
           id="path919"
           style="opacity:1;fill:#ffffff;fill-opacity:1;fill-rule:evenodd;stroke:none;stroke-width:11.685;stroke-linecap:round;stroke-linejoin:round;stroke-miterlimit:4;stroke-dasharray:none" />
        <path
           id="path917"
           style="opacity:1;fill:#a21907;fill-opacity:1;fill-rule:evenodd;stroke:none;stroke-width:11.685;stroke-linecap:round;stroke-linejoin:round;stroke-miterlimit:4;stroke-dasharray:none"
           d="m -66.691769,2.7592809 a 21.5,21.5 0 0 0 -21.5,21.5000001 21.5,21.5 0 0 0 21.5,21.5 21.5,21.5 0 0 0 21.5,-21.5 21.5,21.5 0 0 0 -21.5,-21.5000001 z m 0,5.5 a 16,16 0 0 1 16,16.0000001 16,16 0 0 1 -2.099609,7.921875 L -74.8988,10.524906 a 16,16 0 0 1 8.207031,-2.2656251 z M -79.40466,14.54639 -56.978878,36.972172 a 16,16 0 0 1 -9.712891,3.287109 16,16 0 0 1 -16,-16 16,16 0 0 1 3.287109,-9.712891 z" />
        <path
           d="m -67.832682,1 a 21.5,21.5 0 0 0 -21.5,21.5 21.5,21.5 0 0 0 21.5,21.5 21.5,21.5 0 0 0 21.5,-21.5 21.5,21.5 0 0 0 -21.5,-21.5 z m 0,5.5 a 16,16 0 0 1 16,16 16,16 0 0 1 -2.099609,7.921875 L -76.039713,8.765625 A 16,16 0 0 1 -67.832682,6.5 Z m -12.712891,6.287109 22.425782,22.425782 A 16,16 0 0 1 -67.832682,38.5 a 16,16 0 0 1 -16,-16 16,16 0 0 1 3.287109,-9.712891 z"
           style="opacity:1;fill:#f52e14;fill-opacity:1;fill-rule:evenodd;stroke:none;stroke-width:11.685;stroke-linecap:round;stroke-linejoin:round;stroke-miterlimit:4;stroke-dasharray:none"
           id="path889" />
      </g>
    </g>
  </g>
</svg>
