<?xml version="1.0" encoding="UTF-8" standalone="no"?>
<svg
   version="1.1"
   viewBox="0 0 256 256"
   id="svg96"
   sodipodi:docname="my-music.svg"
   inkscape:version="1.1.2 (0a00cf5339, 2022-02-04)"
   xmlns:inkscape="http://www.inkscape.org/namespaces/inkscape"
   xmlns:sodipodi="http://sodipodi.sourceforge.net/DTD/sodipodi-0.dtd"
   xmlns:xlink="http://www.w3.org/1999/xlink"
   xmlns="http://www.w3.org/2000/svg"
   xmlns:svg="http://www.w3.org/2000/svg">
  <sodipodi:namedview
     id="namedview98"
     pagecolor="#ffffff"
     bordercolor="#666666"
     borderopacity="1.0"
     inkscape:pageshadow="2"
     inkscape:pageopacity="0.0"
     inkscape:pagecheckerboard="0"
     showgrid="false"
     inkscape:zoom="4.5557954"
     inkscape:cx="92.629269"
     inkscape:cy="107.22606"
     inkscape:window-width="3840"
     inkscape:window-height="2114"
     inkscape:window-x="0"
     inkscape:window-y="0"
     inkscape:window-maximized="1"
     inkscape:current-layer="svg96" />
  <defs
     id="defs58">
    <linearGradient
       id="gradient7-7"
       x1="-819.2"
       x2="819.2"
       gradientTransform="matrix(0.0049742,0.0037571,0.003466,-0.0046038,2.9381,-2.3366)"
       gradientUnits="userSpaceOnUse">
      <stop
         stop-color="#66c"
         offset="0"
         id="stop2" />
      <stop
         stop-color="#336"
         offset=".20784"
         id="stop4" />
      <stop
         stop-color="#66c"
         offset=".44706"
         id="stop6" />
      <stop
         stop-color="#336"
         offset=".7098"
         id="stop8" />
      <stop
         stop-color="#336"
         offset="1"
         id="stop10" />
    </linearGradient>
    <linearGradient
       id="gradient8-3"
       x1="-819.2"
       x2="819.2"
       gradientTransform="matrix(-0.0033338,-0.0025135,-0.0027781,0.0037042,1.0992,4.1457)"
       gradientUnits="userSpaceOnUse">
      <stop
         stop-color="#336"
         offset="0"
         id="stop13" />
      <stop
         stop-color="#66c"
         offset="1"
         id="stop15" />
    </linearGradient>
    <linearGradient
       id="gradient9-9"
       x1="-819.2"
       x2="819.2"
       gradientTransform="matrix(-0.0014023,-0.0072231,-4.2333e-4,7.9375e-5,2.8322,-2.416)"
       gradientUnits="userSpaceOnUse">
      <stop
         stop-color="#99f"
         offset="0"
         id="stop18" />
      <stop
         stop-color="#ccf"
         offset="1"
         id="stop20" />
    </linearGradient>
    <radialGradient
       id="gradient10-6"
       cx="0"
       cy="0"
       r="819.2"
       gradientTransform="matrix(0.0068262,0,0,0.0067998,-0.27661,2.4127)"
       gradientUnits="userSpaceOnUse">
      <stop
         stop-color="#ccf"
         offset="0"
         id="stop23" />
      <stop
         stop-color="#99f"
         offset=".28627"
         id="stop25" />
      <stop
         stop-color="#336"
         offset=".59608"
         id="stop27" />
      <stop
         stop-color="#99f"
         offset=".82745"
         id="stop29" />
      <stop
         stop-color="#ccf"
         offset="1"
         id="stop31" />
    </radialGradient>
    <radialGradient
       id="gradient11-4"
       cx="0"
       cy="0"
       r="819.2"
       gradientTransform="matrix(0.0018785,0,0,0.0018785,-0.93807,2.3862)"
       gradientUnits="userSpaceOnUse">
      <stop
         stop-color="#fff"
         offset="0"
         id="stop34" />
      <stop
         stop-color="#ccf"
         offset=".85098"
         id="stop36" />
      <stop
         stop-color="#ccf"
         offset="1"
         id="stop38" />
    </radialGradient>
    <linearGradient
       id="linearGradient2474"
       x1="-17.67"
       x2="-17.702"
       y1="6.4752"
       y2="2.6077"
       gradientTransform="translate(-2.8589,0.17216)"
       gradientUnits="userSpaceOnUse">
      <stop
         stop-color="#edba42"
         offset="0"
         id="stop41" />
      <stop
         stop-color="#ff9"
         offset="1"
         id="stop43" />
    </linearGradient>
    <linearGradient
       id="linearGradient2476"
       x1="-8.9787"
       x2="-8.9787"
       y1="9.2108"
       y2="4.7845"
       gradientTransform="matrix(19.890264,0,0,19.890264,292.48311,31.692834)"
       gradientUnits="userSpaceOnUse">
      <stop
         stop-color="#ffd56f"
         offset="0"
         id="stop46" />
      <stop
         stop-color="#fffe98"
         offset=".5"
         id="stop48" />
      <stop
         stop-color="#ffffe0"
         offset="1"
         id="stop50" />
    </linearGradient>
    <linearGradient
       id="linearGradient918"
       x1="18.493"
       x2="18.524"
       y1="7.8921"
       y2="5.7804"
       gradientTransform="matrix(19.890264,0,0,19.890264,-246.12998,31.329989)"
       gradientUnits="userSpaceOnUse">
      <stop
         stop-color="#fc6"
         offset="0"
         id="stop53" />
      <stop
         stop-color="#ff9"
         offset="1"
         id="stop55" />
    </linearGradient>
    <linearGradient
       inkscape:collect="always"
       xlink:href="#linearGradient2476"
       id="linearGradient1662"
       gradientUnits="userSpaceOnUse"
       gradientTransform="matrix(19.890264,0,0,19.890264,292.48311,31.692835)"
       x1="-8.9787"
       y1="9.2108"
       x2="-8.9787"
       y2="4.7845" />
  </defs>
  <g
     transform="matrix(19.890264,0,0,19.890264,514.93611,44.225342)"
     id="g66">
    <path
       d="m -17.014,1.3628 -3.8365,0.52917 -0.79375,-1.0583 -2.6458,0.26458 -0.66146,1.1906 0.39688,7.6729 7.9375,-1.9844 -0.13229,-6.35 z"
       fill="url(#linearGradient2474)"
       id="path60"
       style="fill:url(#linearGradient2474)" />
    <path
       d="m -16.854,1.605 -4.0971,0.54578 -0.80852,-1.0448 -2.372,0.23878 -0.56635,1.0096 0.38686,7.2925"
       fill="none"
       stroke="#fff9ec"
       stroke-linecap="round"
       stroke-width="0.26458"
       id="path62" />
    <path
       d="m -17.014,1.3628 -3.8365,0.52917 -0.79375,-1.0583 -2.6458,0.26458 -0.66146,1.1906 0.39688,7.6729 7.9375,-1.9844 -0.13229,-6.35 z"
       fill="none"
       stroke="#cc9900"
       stroke-linejoin="round"
       stroke-width="0.26458"
       id="path64" />
  </g>
  <path
     d="m 55.665579,144.84429 15.788231,-10.52548 42.10195,-5.26275 21.05097,-15.78823 21.05098,-5.26264 68.41468,-10.525489 5.26274,10.525489 -44.73283,94.72839 -157.882306,39.47009 z"
     fill="url(#linearGradient2476)"
     id="path68"
     style="fill:url(#linearGradient2476);stroke-width:0.98868" />
  <path
     d="m 80.084283,143.43132 c -12.489089,51.45214 85.750497,62.00585 86.214507,0.83777"
     fill="none"
     stroke="url(#linearGradient918)"
     stroke-linecap="round"
     stroke-width="5.26274"
     id="path70"
     style="fill:#ffa600;fill-opacity:1;stroke:#ffa600;stroke-width:8;stroke-miterlimit:4;stroke-dasharray:none;stroke-opacity:1"
     sodipodi:nodetypes="cc" />
  <g
     transform="matrix(12.270507,3.1655556,-2.7227259,11.150333,122.20275,93.005825)"
     fill-rule="evenodd"
     id="g82">
    <path
       d="M 3.5598,3.6165 4.7107,3.24608 2.8322,-5.28672 q 3.1618,1.2435 2.7517,3.0295 1.3626,-2.249 0.34396,-3.8232 -0.83344,-1.3097 -3.8894,-2.831 l -1.1774,0.33073 2.6988,12.197"
       fill="url(#gradient7-7)"
       id="path72"
       style="fill:url(#gradient7-7)" />
    <path
       d="m -2.4727,5.2702 q 0.33073,1.4155 1.6007,2.077 1.2832,0.64823 2.7649,0.17198 1.4684,-0.48948 2.2754,-1.7992 0.80698,-1.3097 0.48948,-2.6988 -0.29104,-1.3758 -1.5478,-2.0505 -1.27,-0.67469 -2.7384,-0.2249 -1.4817,0.44979 -2.3283,1.7727 -0.83344,1.3361 -0.51594,2.7517"
       fill="url(#gradient8-3)"
       id="path74"
       style="fill:url(#gradient8-3)" />
    <path
       d="M 3.9435,3.4843 4.34038,3.36524 1.74748,-8.34276 1.3506,-8.23693 3.9435,3.48407"
       fill="url(#gradient9-9)"
       id="path76"
       style="fill:url(#gradient9-9)" />
    <path
       d="m -2.0625,5.1511 q 0.27781,1.2171 1.4023,1.7727 1.1377,0.56885 2.4606,0.14552 1.2965,-0.43656 2.0108,-1.5743 0.7276,-1.1377 0.47625,-2.3548 -0.27781,-1.2039 -1.3891,-1.7727 -1.098,-0.56885 -2.4209,-0.17198 -1.3229,0.39688 -2.077,1.5478 -0.74083,1.1774 -0.46302,2.4077"
       fill="url(#gradient10-6)"
       id="path78"
       style="fill:url(#gradient10-6)" />
    <path
       d="m -1.2953,2.4656 q -0.21167,0.33073 -0.14552,0.66146 0.0926,0.33073 0.39688,0.46302 l 0.70115,0.03969 Q 0.0144,3.51071 0.22606,3.19321 0.4245,2.88894 0.35835,2.55821 0.2922,2.22748 -0.0253,2.09519 L -0.71322,2.04227 Q -1.09686,2.16133 -1.2953,2.4656"
       fill="url(#gradient11-4)"
       id="path80"
       style="fill:url(#gradient11-4)" />
  </g>
  <path
     d="m 55.665582,144.84429 15.78823,-10.52548 42.101948,-5.26275 21.05097,-15.78823 21.05098,-5.26264 68.41468,-10.525488 5.26274,10.525488 -44.73283,94.72839 -157.882308,39.47009 z"
     fill="url(#linearGradient2476)"
     id="path68-5"
     style="opacity:0.75;fill:url(#linearGradient1662);stroke-width:0.98868" />
  <path
     d="m 182.60122,108.86623 1.99703,93.86231"
     fill="none"
     stroke="#ffcc66"
     stroke-width="5.26274px"
     id="path84" />
  <path
     d="m 225.9054,102.26185 -70.24967,11.00598 -19.60651,4.80795 -20.24817,15.7299 -42.551798,5.15369 -13.475708,8.95408 -26.8743,91.89287"
     fill="none"
     stroke="#fff9ec"
     stroke-width="5.26274px"
     id="path88" />
  <path
     d="m 55.665579,144.84429 15.788231,-10.52548 42.10195,-5.26275 21.05097,-15.78823 21.05098,-5.26264 68.41468,-10.525489 5.26274,10.525489 -44.73283,94.72839 -157.882306,39.47009 z"
     fill="none"
     stroke="#cc9900"
     stroke-linejoin="round"
     stroke-width="5.26274"
     id="path90" />
</svg>
