<svg version="1.1" viewBox="0 0 256 256" xmlns="http://www.w3.org/2000/svg" xmlns:xlink="http://www.w3.org/1999/xlink"><defs><linearGradient id="gradient0-9-36" x1="-819.2" x2="819.2" gradientTransform="matrix(-.035696 0 0 .079216 177.7 76.149)" gradientUnits="userSpaceOnUse"><stop stop-color="#669" offset="0"/><stop stop-color="#99c" offset="1"/></linearGradient><linearGradient id="gradient1-6-0" x1="-819.2" x2="819.2" gradientTransform="matrix(-.034229 0 0 .076283 178.19 77.616)" gradientUnits="userSpaceOnUse"><stop stop-color="#99c" offset="0"/><stop stop-color="#eee" offset="1"/></linearGradient><linearGradient id="gradient2-2-5" x1="-819.2" x2="819.2" gradientTransform="matrix(0 .051833 .093886 0 174.28 198.64)" gradientUnits="userSpaceOnUse"><stop stop-color="#99c" offset="0"/><stop stop-color="#669" offset="1"/></linearGradient><radialGradient id="gradient3-0-4" cx="0" cy="0" r="819.2" gradientTransform="matrix(.1423 0 0 .1423 132.72 187.39)" gradientUnits="userSpaceOnUse"><stop stop-color="#fff" offset="0"/><stop stop-color="#ddd" offset=".28235"/><stop stop-color="#99c" offset="1"/></radialGradient><linearGradient id="gradient4-0-6" x1="-819.2" x2="819.2" gradientTransform="matrix(-.032273 0 0 .049877 197.75 181.04)" gradientUnits="userSpaceOnUse"><stop stop-color="#669" offset="0"/><stop stop-color="#99c" offset="1"/></linearGradient><linearGradient id="gradient5-5-2" x1="-819.2" x2="819.2" gradientTransform="matrix(0 .050366 .03374 0 198 182.02)" gradientUnits="userSpaceOnUse"><stop stop-color="#339" offset="0"/><stop stop-color="#66c" offset=".28627"/><stop stop-color="#ccc" offset="1"/></linearGradient><linearGradient id="gradient6-1-8" x1="-819.2" x2="819.2" gradientTransform="matrix(-.078727 -.078727 -.08704 .08704 182.1 96.197)" gradientUnits="userSpaceOnUse"><stop stop-color="#66c" offset="0"/><stop stop-color="#999" offset="1"/></linearGradient><radialGradient id="gradient7-1-28" cx="0" cy="0" r="819.2" gradientTransform="matrix(.17995 0 0 .17995 181.37 25.049)" gradientUnits="userSpaceOnUse"><stop stop-color="#cff" offset="0"/><stop stop-color="#cff" offset=".094118"/><stop stop-color="#09f" offset="1"/></radialGradient><linearGradient id="gradient8-3-8" x1="-819.2" x2="819.2" gradientTransform="matrix(-.054767 -.054767 -.084595 .084595 192.37 101.33)" gradientUnits="userSpaceOnUse"><stop stop-color="#99c" offset="0"/><stop stop-color="#fff" offset="1"/></linearGradient><linearGradient id="gradient9-2-3" x1="-819.2" x2="819.2" gradientTransform="matrix(-.064547 .034229 .0044009 .0088018 193.84 145.83)" gradientUnits="userSpaceOnUse"><stop stop-color="#66c" offset="0"/><stop stop-color="#99c" offset=".078431"/><stop stop-color="#fff" offset="1"/></linearGradient><linearGradient id="gradient10-0-4" x1="-819.2" x2="819.2" gradientTransform="matrix(-.0097798 .029339 .024939 .0083128 184.55 192.77)" gradientUnits="userSpaceOnUse"><stop stop-color="#99c" offset="0"/><stop stop-color="#eee" offset="1"/></linearGradient><radialGradient id="gradient1-6" cx="0" cy="0" r="819.2" fr="0" gradientTransform="matrix(.14928 0 0 .14928 -148.88 -20.358)" gradientUnits="userSpaceOnUse"><stop stop-color="#fff" offset="0"/><stop stop-color="#cff" offset=".078431"/><stop stop-color="#09f" offset=".29804"/><stop stop-color="#06c" offset=".53725"/><stop stop-color="#039" offset=".75294"/><stop stop-color="#039" offset="1"/></radialGradient><linearGradient id="gradient0-1" x1="-819.2" x2="819.2" gradientTransform="matrix(-.067218 -.067218 -.067218 .067218 -139.5 17.615)" gradientUnits="userSpaceOnUse"><stop stop-color="#039" offset="0"/><stop stop-color="#09f" offset=".47059"/><stop stop-color="#cff" offset="1"/></linearGradient><radialGradient id="radialGradient112947" cx="17.52" cy="11.414" r="18.719" gradientTransform="matrix(2.9024 4.2729 -4.0227 2.7325 -164.46 -137.93)" gradientUnits="userSpaceOnUse"><stop stop-color="#c1fabb" offset="0"/><stop stop-color="#6ccf3b" offset=".2895"/><stop stop-color="#009100" offset=".61972"/><stop stop-color="#0f661e" offset="1"/></radialGradient><radialGradient id="gradient1-6-7" cx="0" cy="0" r="819.2" fr="0" gradientTransform="matrix(.14928 0 0 .14928 -148.88 -20.358)" gradientUnits="userSpaceOnUse"><stop stop-color="#fff" stop-opacity="0" offset="0"/><stop stop-color="#99f" stop-opacity=".056918" offset=".75294"/><stop stop-color="#99f" offset="1"/></radialGradient></defs><g transform="translate(-12.568)"><g fill-rule="evenodd"><g transform="matrix(.98562 0 0 .98562 226.85 59.214)"><path d="m-217.41 17.615q0 32.081 22.697 54.996 22.915 22.697 55.215 22.697 32.081 0 54.996-22.697 22.697-22.915 22.697-54.996 0-32.299-22.697-54.996-22.915-22.697-54.996-22.697-32.299 0-55.215 22.697-22.697 22.697-22.697 54.996" fill="url(#gradient0-1)"/><path d="m-213.05 17.615q0 30.335 21.387 51.941 21.606 21.606 52.159 21.606 30.335 0 52.159-21.606 21.387-21.606 21.387-51.941 0-30.554-21.387-52.159-21.824-21.606-52.159-21.606-30.554 0-52.159 21.606-21.387 21.606-21.387 52.159" fill="url(#gradient1-6)"/><path d="m-147.79-55.274v0.43356h-0.43356v0.43356h-1.7487v0.44078h-1.7487v0.65034h-0.43356v1.7487h0.87434v0.43356h3.9237v0.44078h-2.1822v0.87434h-0.43356v-0.44078h-1.7487v0.87434h0.44078v1.3079h-0.44078v0.87434h-0.86711v0.43356h-0.44078v0.44078h-0.43356v0.43356h-0.44078v1.0911h-0.65034v0.44078h-0.44078v0.86711h0.44078v0.44078h1.0911v0.43356h1.7414v0.44078h1.7487v-0.44078h0.87434v-1.3079h0.43355v-0.43356h0.87434v-0.44078h0.43356v-0.43356h0.44078v-0.65756h0.43356v-0.87434h0.65756v-0.43356h1.7414v-0.43356h0.44078v0.86711h-0.44078v0.87434h1.3151v1.0911h0.43355v0.44078h-0.43355v0.43356h-1.7487v0.43356h-0.43355v0.44078h-2.4062v0.43356h-0.43356v0.44078h-0.43356v0.43356h0.43356v0.44078h0.87434v0.43356h1.0911v0.43356h0.43355v0.44078h-1.9654v1.3079h0.44078v0.87434h2.8326v1.0911h0.87434v-0.65756h1.3079v-0.43356h3.4974v0.43356h0.65033v0.65756h0.44078v1.3079h0.43356v0.43356h0.43355v3.4974h-0.43355v0.43356h-0.43356v0.43356h1.7414v0.44078h-0.43355v0.43356h0.43355v0.44078h1.3151v0.65034h0.43356v0.44078h-0.43356v0.43356h-0.87433v0.87434h-0.44079v0.43355h-0.43355v0.44078h0.43355v1.7415h0.44079v0.87434h0.43355v0.87434h0.44078v0.87434h0.43356v0.43356h0.43356v1.0911h0.44078v0.44078h0.43356v0.43356h2.1822v0.43356h1.9655v-1.3079h0.43355v-1.5247h1.0911v-1.3079h0.44078v-0.87434h1.3079v-0.44078h1.3079v-0.43356h0.44078v-0.44078h0.43356v-0.43356h0.43356v-0.87434h1.7487v-0.43355h0.43356v-0.44078h0.44078v0.44078h0.87434v-0.44078h1.5247v-0.43355h0.43356v-0.43356h1.3151v-0.44078h0.43355v-1.0911h0.44079v-1.7415h-0.44079v-0.44078h-0.43355v-1.7415h1.3079v-0.44078h0.43356v-0.43356h0.44078v-0.44078h0.43356v-0.43356h0.44078v-1.3079h-0.44078v-0.65756h-0.43356v-0.43356h2.1822v-0.87434h-0.44078v-0.43356h-0.43355v-0.87434h-0.43356v-0.87434h-1.3151v-0.43356h-1.3079v1.7415h-0.43355v0.87434h-0.44078v-1.7487h-0.43356v-0.43356h0.43356v-1.3079h0.87433v0.43356h0.87434v-1.3079h1.7487v-0.87434h-0.44078v-0.43356h-1.7414v0.86711h-0.87434v0.44078h-0.44078v-1.3079h0.44078v-0.44078h3.4901v-0.43356h0.43355v-0.65756h-2.1822v-0.43356h0.44078v-0.87434h0.43356v-0.43356h0.87434v-0.44078h0.43355v-1.3079h0.44078v-0.87434h-0.87433v-0.43356h-2.1822v1.3079h-0.43355v0.43356h-0.44079v0.44078h-0.87433v-0.44078h0.44078v-0.43356h0.43355v-0.43356h0.44079v-1.3151h-2.623v-0.43356h0.43356v-0.87434h-0.43356v-0.43356h-1.9654v-0.44078h-1.7414v-0.65034h-1.7487v-0.44078h-5.022v0.44078h-0.86711v0.65034h-1.5319v0.44078h-0.43356v0.43356h-1.3079v0.44078h-0.44078v0.43356h-2.1822v0.43356h-2.1822v0.44078h-2.399v0.43356h-1.3079v-0.43356h0.86711v-0.44078h0.87435v-0.43356h-0.43356v-0.43356h-0.44079v-1.9655h-0.43355v-0.44078h-0.43356v-0.43356h-0.44078v-0.43356h-3.0566v0.43356h-1.3079v-0.43356zm-10.261 1.9582v0.87434h-0.43356v1.3079h-0.43355v-0.43356h-0.87434v-0.87434h-1.7487v0.44078h-1.5247v0.43356h1.0911v0.43356h0.43355v0.44078h0.87434v0.43356h1.3079v-0.43356h0.44078v0.87434h0.43355v0.43356h-0.43355v0.43356h0.86711v0.87434h-0.43356v0.44078h0.43356v1.3079h3.0566v-0.87434h0.44078v-0.43356h0.65034v-0.87434h0.44078v-1.3079h-1.0911v-1.7487h-0.44078v-0.43356h-0.43355v-0.44078h-1.3079v-0.87434zm-6.3227 1.7487v0.43356h0.43356v-0.43356zm-3.0566 1.3079v0.44078h-1.3079v0.43356h-0.87433v0.87434h1.7414v1.7415h1.3151v0.44078h0.43356v-0.44078h0.43355v0.44078h0.44079v3.7069h-0.87434v0.87434h-0.43356v0.44078h-0.44078v0.86711h0.44078v3.0566h1.3079v-1.3079h0.43355v-0.43356h0.87434v-0.44078h0.43356v-0.43356h0.44078v-1.3079h0.43355v-0.44078h3.2734v-0.43356h0.87433v0.43356h1.3079v1.7487h4.5885v-1.3079h-0.44078v-0.87434h-2.8398v-3.0566h-0.86711v-0.65756h-1.7487v-0.43356h-1.7487v0.43356h-1.7414v-0.43356h-0.65757v-0.44078h-0.87433v-0.86711h-0.43356v-0.87434h-1.7487v-0.44078h-0.43355v-0.43356h-0.87434v-0.87434zm-4.1477 1.7487v0.43356h-0.87434v0.44078h-0.87434v0.43356h-0.87433v0.43356h0.44078v0.44078h0.87434v0.43356h0.43355v1.0911h0.44079v0.44078h1.5247v0.43356h2.6158v-0.43356h0.87434v-1.9655h-3.0566v1.0911h-0.43356v-2.399h0.43356v-0.87434zm-5.6724 3.2734v0.43356h-0.87434v0.44078h-0.44078v0.43356h-1.0911v0.43356h-0.43355v0.44078h-0.87434v0.43356h0.87434v0.87434h2.399v-0.43356h1.7487v-0.44078h0.87433v-0.87434h0.43356v-0.86711h-0.43356v-0.44078h-1.3151v-0.43356zm4.3645 2.1822v0.43356h-0.44079v1.7487h-1.3079v1.3079h0.43356v0.44078h0.44078v0.43356h0.43355v0.87434h0.87434v0.43356h2.399v-0.43356h0.44078v1.0911h-0.44078v0.43356h-0.43356v0.87434h-1.0911v0.87434h-0.87434v-1.3079h-1.3079v-0.44078h-1.3079v-1.0911h-0.44078v-2.6158h-0.43355v-0.44078h-1.3079v0.44078h-0.44078v-0.44078h-1.9655v-0.43356h-1.3079v0.87434h-0.43356v-1.3079h-0.87434v-0.44078h-0.43355v0.44078h-0.44079v0.86711h-0.43355v-0.43356h-0.44078v0.43356h-0.43356v0.44078h-0.43356v0.43356h-0.44078v0.44078h-0.87434v0.43356h-0.43355v0.43356h0.87434v-0.43356h0.43355v0.87434h0.44078v1.5247h0.86712v0.44078h1.7487v-0.44078h0.87434v0.44078h0.87434v0.43356h-3.4974v1.3079h0.44078v0.44078h1.3079v0.43356h0.43356v0.43356h2.1822v-0.43356h2.4062v-0.43356h1.3079v0.43356h2.1822v-0.43356h0.43355v-0.87434h0.44079v1.3079h0.87434v0.43356h0.86711v-0.43356h1.0911v0.43356h0.44078v0.87434h0.43355v0.44078h0.44078v0.86712h-0.44078v0.44078h-1.3079v-0.44078h0.43356v-0.86712h-2.8326v1.3079h-1.7487v0.43356h-0.43356v-0.43356h-0.44078v-0.44078h-0.43355v-0.43356h-1.3079v-0.87434h-0.44078v-0.43356h-0.43356v0.43356h-1.9654v0.44078h-0.43356v1.3079h0.43356v0.43356h-0.43356v0.44078h-0.44078v-0.87434h-0.43356v-0.44078h-0.87434v0.44078h-2.1822v-0.44078h0.43356v-1.3079h-0.43356v-0.43356h-0.43356v-0.44078h-0.87433v0.87434h-0.44079v-0.43356h-0.43355v-0.44078h-0.65756v-0.43356h-0.86712v-0.43356h-0.87433v-0.44078l-3.0494-0.0072c-0.6911 0.64368-3.2026 3.2136-6.7562 7.8618-2.4351 3.1851-4.6424 6.6767-5.6073 8.7145l0.57085 0.02183v0.86711h0.43355v0.44078h0.44079v0.43356h1.9654v0.44078h1.3079v0.43356h0.43355v0.43356h0.44078v0.87419h0.86712v1.5319h0.44078v0.43356h0.87434v0.43356h-0.44078v1.3151h0.44078v1.5247h0.43355v0.43355h0.43356v0.44078h0.44078v0.87434h0.65034v0.43355h0.87434v0.43356h0.44078v0.44078h0.87434v0.43355h0.43355v0.44078h0.43356v3.2733h-0.43356v2.1822h-0.43355v4.3645h0.43355v0.87434h0.43356v1.0911h0.44078v0.43356h0.43356v0.87434h0.87434v0.87434h0.43355v0.43356h0.44079v0.43355h1.3079v0.44078h0.43356v1.3079h0.65756v0.43356h0.43355v0.87434h0.44079v0.44078h0.43355v1.0911h0.44078v0.87434h0.86712v0.43355h0.44078v0.43356h0.43355v0.87434h0.44079v0.44078h0.43355v0.86711h0.87434v0.44078h1.3079v-0.87434h-0.43356v-0.43358h-0.44078v-0.87434h-0.43356v-0.44078h-0.44078v-0.86711h0.87434v0.86711h0.44078v0.44078h0.86711v0.87434h1.0911v0.43355h0.44078v0.43356h0.43356v1.7487h0.44078v1.3079h0.86711v0.44078h1.7487v0.65033h0.87434v0.44078h2.1822v0.86711h5.022v0.44078h0.43356v0.43356h0.43355v0.44078h0.44079v0.43356h1.3079v0.43356h0.87434v0.44078h0.43355v0.87434h0.65757v1.3079h0.87433v0.43356h3.0494v0.44078h1.7487v0.43356h0.43355v1.9655h-0.43355v0.87434h-0.43356v0.86711h-0.44078v1.3151h-0.43356v0.87434h-0.87434v0.43356h-0.43355v1.7487h-0.44078v1.0911h0.44078v1.3079h0.43355v0.43356h0.43356v0.44078h0.44078v0.86711h0.43356v0.87434h0.44078v2.1822h0.43356v0.44078h0.43355v0.43356h0.44079v0.43356h0.43355v0.65756h1.0911v0.43355h0.87434v0.44078h0.44078v0.43356h0.43355v0.44078h0.43356v7.197h-0.43356v1.3151h-0.43355v3.0493h-0.44078v2.4062h-0.43356v1.3079h-0.44078v3.2734h0.44078v0.43356h-0.44078v0.87434h-0.65034v0.87434h0.65034v3.4901h-0.65034v0.44078h-0.44078v1.9582h-0.43355v5.2388h0.43355v0.44078h0.44078v0.43355h0.65034v0.43356h0.87434v-0.43356h0.87433v0.43356h0.43356v1.0911h-0.86711v1.3151h0.86711v0.86712h1.7487v0.44078h0.87434v-0.44078h0.87433v0.44078h0.86712v-0.87434h0.44078v-1.3079h-0.44078v-0.44078h-0.43356v-0.43356h-1.3079v-0.65756h-0.44078v-0.43356h-0.43356v-1.7487h-0.43356v-0.86711h0.43356v-0.44078h0.43356v-0.87434h0.44078v-0.43356h0.43355v-0.43356h0.44078v-2.1822h-0.87433v-1.5319h0.87433v-0.43356h0.43356v-1.3151h0.43356v-0.86711h0.44078v-1.3151h-0.44078v-0.43355h1.5319v-0.87434h0.43355v-1.3079h1.3079v0.43356h0.87434v-0.43356h0.87433v-0.43356h0.43356v-2.8398h-0.43356v-0.43356h2.6158v-0.65756h0.44079v-0.87434h0.43356v-0.87434h0.44078v-0.86711h0.65033v-1.3151h0.44078v-0.43355h0.43356v-0.87434h0.43355v-0.87434h0.44079v-1.5247h0.43355v-0.43355h0.44079v-0.44078h0.87433v-0.87434h1.7415v-0.43355h0.87433v-0.44078h0.43356v-0.43356h0.44078v-0.43356h0.43356v-0.44078h0.44078v-0.87434h0.65034v-2.1822h0.44078v-1.9582h0.43356v-0.87434h0.43355v-0.87434h0.44078v-0.43355h0.65034v-0.87434h0.44078v-0.44078h0.43355v-3.7069h-0.87433v-0.43356h-1.0911v-0.44078h-0.43355v-0.43356h-1.5247v-0.44078h-1.7487v-0.43356h-1.3079v-1.3079h-3.9309v-2.1822h-0.43356v-0.44078h-0.44078v-0.43355h-0.65033v-0.44078h-0.87434v-0.43355h-0.44079v-0.65756h-1.7414v-0.43355h-0.87434v-0.43356h-0.43355v-0.44078h-0.44078v-0.43356h-0.43356v-0.44078h-0.44078v-0.43356h-0.43356v-0.43356h-0.87434v-0.44078h-2.8326v0.44078h-0.44078v-0.44078h-0.43355v-0.43356h-0.87434v-0.87434h-2.1822v0.43356h-0.87433v0.44078h-1.5247v0.43356h-0.44078v0.87434h-0.43355v0.43356h-0.44079v-0.43356h-1.7414v0.43356h-0.87434v-0.43356h-0.87433v-0.43356h-0.43356v-0.87434h-0.44078v-0.44078h0.44078v-3.0493h-2.8398v-2.8398h0.65757v-1.3079h-2.399v0.43356h-1.3151v0.87434h-0.43355v0.43355h-0.87434v0.44078h-1.3079v-0.44078h-1.3079v-0.43355h-0.44078v-1.3079h-0.43356v-0.87434h-0.65756v-1.3079h-0.43356v-1.7487h0.43356v-0.43356h0.65756v-0.65756h0.87434v-0.43356h3.9237v-0.44078h4.1477v0.44078h0.44078v1.5247h0.43356v0.87434h0.43356v0.43356h0.44078v0.44078h0.43356v0.43356h1.3079v-0.43356h0.44078v-1.3079h-0.44078v-0.87434h-0.43356v-1.0911h-0.43355v-1.7487h0.43355v-0.87434h0.87434v-0.43355h0.43356v-0.44078h0.44078v-0.86711h0.86711v-0.44078h0.44079v-0.43356h0.43355v-0.87434h-0.43355v-0.43356h0.87433v-1.0911h1.0911v-2.623h3.0566v-0.43355h0.43356v-0.44078h-0.43356v-0.43355h-0.44078v-0.43356h0.44078v-0.44078h0.43356v-0.43355h0.87434v0.43355h1.7414v-0.43355h0.87434v-0.44078h1.0911v-0.86711h-0.43355v-0.44078h-0.65756v-0.43356h-0.87434v-0.65756h-0.43356v-1.3079h0.43356v-1.7487h-1.3079v0.44078h-0.43355v-0.44078h0.43355v-0.43355h3.2734v-0.44078h1.3079v0.44078h0.87434v-0.44078h0.44078v-0.43356h0.43355v-0.43355h0.43356v-0.44078h0.87434v-0.43355h0.44078v-1.7487h-0.44078v-1.0911h-0.43356v-0.43356h-0.44078v-0.44078h-1.7414v-0.43356h-0.44078v-1.5247h-0.43356v-0.44078h-0.43355v-0.87434h-0.44079v-1.3079h-0.43355v-0.87434h-0.65756v-0.86711h-0.43356v-0.87434h-0.87434v0.43356h-0.43356v1.3079h-0.87433v0.44078h-1.3079v-0.44078h-0.44078v-3.0493h-0.87434v-0.44078h-0.43356v-0.43356h-0.43355v-0.65756h-2.8398v-0.43356h-0.44079v-0.44078h1.3151v-1.7415h-0.87433v0.43356h-0.44079v0.44078h-0.86711v-0.44078h-0.44078v-0.43356h-0.43356v-0.87434h-0.87434v-0.44078h-0.43355v-0.43356h-0.87434v-0.87434h-0.44078v0.44078h-0.43356v0.43355h-0.87434v0.87434h-0.43355v1.3079h0.87433v0.87434h1.3079v-0.43356h0.43356v-0.44078h0.87433v0.44078h0.87434v2.399h-0.44078v1.7415h0.44078v1.3151h-0.44078v2.6158h0.44078v1.7487h0.43356v0.65033h-0.43356v0.44078h-0.44078v0.43356h-0.43356v0.43356h-0.43355v3.2733h0.43355v0.87434h-0.43355v0.44078h-0.44078v-0.44078h-0.43356v-0.87434h-0.44078v-0.43355h-0.43356v-1.5247h-0.43356v-1.3151h-0.44078v-0.43356h-4.1477v-0.43356h-0.43355v-0.44078h-0.43356v-1.5247h-0.44078v-0.87434h-0.87434v-0.43355h-0.43356v-0.87434h-0.43356v0.43355h-0.44078v-0.43355h-0.43355v-0.44078h-0.44078v-0.86711h0.44078v-1.3151h0.43355v-0.43356h0.44078v-0.43356h0.43356v-0.44078h0.43356v-1.0911h0.87434v-0.43356h2.1822v-2.1822h0.44078v-0.87434h0.43356v-0.44078h0.43356v-1.3079h-0.86712v-0.43355h1.3079v0.43355h1.0911v-0.43355h1.7414v-0.87434h0.44078v-0.43356h0.43356v-2.4062h-0.87434v-0.43356h0.44078v-0.43356h0.43356v-1.3151h-0.87434v-1.3079h-2.399v1.3079h0.65757v0.44078h-0.65757v0.43356h-0.43355v1.3079h-0.44078v-0.43356h-0.43356v-1.7487h-0.87434v0.44078h-0.43355v-0.44078h-1.3079v-2.1822h-0.44078v-1.7415h-0.43356v-1.9655h-2.1822v-3.9309h-0.44078v-0.43356zm13.093 20.514v0.87434h1.7414v-0.87434zm1.7414-16.15v1.3079h-0.43356v1.5319h-0.43355v0.86711h0.43355v0.44078h0.43356v0.87434h0.44078v1.3079h0.87434v0.43356h0.86711v1.7487h0.87434v0.43356h0.44078v-0.43356h0.65034v-1.7487h0.87434v0.44078h1.3079v0.43356h0.44078v0.43356h0.43356v0.44078h0.44078v2.399h-0.44078v1.3079h-0.43356v0.44078h-0.44078v-0.44078h-0.86711v0.87434h-0.44078v0.87434h0.44078v0.43356h2.1822v0.44078h0.86712v0.87434h0.44078v0.43356h0.87433v0.43356h0.43356v0.44078h1.3079v-0.87434h0.65756v0.43356h0.87434v-1.7415h-0.44079v-0.87434h-0.43355v-0.44078h0.43355v-0.43356h1.3079v-0.43355h0.87434v-0.87434h-0.43356v-1.3079h-1.3079v-1.0911h-0.44079v-0.44078h-1.0911v-0.43356h-0.87434v-0.44078h0.87434v-2.1822h-0.87434v-0.86711h-0.43356v-0.44078h-0.87434v-0.87434h-1.3079v-0.86711h-0.43356v-0.44078h-2.623v-0.43356h-0.87434v-0.65756h0.44078v-0.43356h-0.44078v-0.87434zm73.567 7.197-0.67201 0.0074v0.43356h-0.43355v0.87434h-0.65756v1.5247h-0.43356v0.87434h-0.44078v0.87434h-0.43355v1.3079h-0.87434v0.87434h-0.43356v0.87434h-0.44078v0.87434h-0.43356v0.43356h-0.44078v0.43356h-0.43356v0.44078h-0.43356v0.43356h-0.44078v0.65756h-0.43356v0.43356h-0.87434v0.44078h-0.43356v0.43356h-0.44078v0.43356h-1.0911v0.44078h0.65756v0.43356h-0.65756v1.3079h0.65756v1.7487h-0.65756v0.87434h0.65756v1.5247h0.43356v0.44078h2.1822v-0.44078h0.44078v-0.65033h0.43356v-0.87434h0.43356v-0.44078h0.44078v-0.43356h0.43356v1.7487h-0.43356v1.0911h0.43356v1.3079h0.44078v0.87434h0.43356v0.65034h1.7487v-0.65034h1.0911v-0.87434h0.43355v-1.3079h0.43356v-1.0911h0.44078v-0.87434h0.43356v-0.44078h0.44078v-1.7414h-0.87434v-2.623h0.43356v-0.43356h0.44078v-0.43356h0.86711v-0.44078h0.44078v4.3645h0.43356v0.44078h0.87434v0.43355h0.43356v0.43356h-0.43356v1.9655h0.43356v0.87434h-0.43356v-0.43356h-0.43356v-0.44078h-0.44078v0.44078h-0.43356v0.43356h-0.44078v0.43356h-0.43356v1.3151h-0.43356v1.0911h-0.87434v0.43356h-0.44078v-0.43356h-0.86711v0.43356h-0.65756v0.43355h-1.7487v-0.43355h-2.1822v-1.9655h0.44078v-0.87434h-0.44078v-1.3081h-0.43356v0.44078h-0.87434v0.43356h-0.43356v0.43356h-0.44078v1.9655h0.44078v1.7487h-0.87434v0.43355h-1.9655v0.87434h-0.43356v0.87434h-0.44078v0.43355h-0.43355v0.44078h-0.44078v-1.7487h-0.43356v-0.43355h-0.43355v-0.44078h-0.44078v-0.87434h-0.43355v-0.43355h-0.44078v-3.7069h-1.3079v-0.44078h-0.43356v-0.65033h0.43356v-0.87434h-1.7414v0.43356h-0.44078v1.5319h-0.65034v1.7415h0.65034v1.0911h-2.8326v1.3079h-0.44079v-0.43355h-0.87433v0.43355h-0.43356v0.87434h0.87434v2.623h1.7414v-0.44078h1.3151v-0.43355h0.65034v0.43355h0.87433v0.44078h-0.87433v0.43355h-0.65034v0.44078h-0.44078v0.86711h1.9654v-0.43356h1.7487v0.43356h-1.3151v0.44078h-0.86711v1.5247h0.86711v0.44078h0.44078v0.43356h0.43356v0.43355h0.44078v2.623h-4.1477v-0.44078h-0.87434v0.44078h-0.87434v6.3299h0.87434v0.86711h0.43356v0.44078h-0.43356v1.3079h-0.43355v0.43356h-0.44079v0.44078h-0.43355v0.87434h-0.44078v1.0911h-0.43356v0.43356h-0.43356v0.44078h-0.44078v0.43355h-0.87434v0.43356h-0.43355v0.44078h-0.43356v0.87434h-1.5319v2.1822h-0.87434v0.43356h-0.43355v0.87434h-0.43356v0.43355h0.43356v1.9655h0.43355v0.87434h-0.43355v0.43356h-0.43356v2.623h0.43356v0.43356h0.43355v0.43356h0.44078v0.44078h0.43356v0.43356h1.0911v0.44078h0.44078v0.43356h0.43356v1.0911h0.43355v0.87434h0.87434v0.43355h0.44078v0.44078h0.43356v0.43355h0.43356v0.43356h2.623v-0.43356h3.2734v0.43356h0.43356v-0.43356h1.7487v-0.43355h2.1822v0.43355h0.87434v0.43356h2.8326v0.44078h0.44078v1.3079h-0.44078v0.87434h-0.43356v1.7487h0.43356v0.43356h0.87434v1.5247h0.44078v0.44078h0.43356v1.7415h0.43356v0.44078h0.44078v0.87434h0.43356v1.3079h-0.43356v0.43356h-0.44078v0.44078h0.44078v0.86712h-0.87434v1.9655h-0.43356v1.3079h0.43356v0.87434h0.43356v0.87434h0.44078v1.3079h0.43356v1.3151h0.44078v1.5247h0.43356v0.87434h0.43355v1.7415h0.44078v0.44078h0.43355v0.43355h0.44078v0.87434h0.43356v2.1822h1.0911v0.65756h2.1822v-0.65756l1.6692 0.01443c4.7439-6.3958 15.362-19.646 15.362-45.292 0-25.646-11.112-40.433-18.542-49.006zm-70.944 0.0074h0.43355v0.86712h-0.43355zm37.539 1.3079h0.43356v0.43356h-0.43356zm-29.467 3.2734h0.44078v0.87434h-0.44078zm31.209 0.43355v0.44078h-0.43356v0.86711h-0.44078v0.87434h0.87434v0.44078h-0.43356v0.43356h-0.44078v0.87434h1.3151v0.43356h0.87434v0.44078h0.43355v0.43356h1.3079v0.65756h2.1822v-0.65773h2.8398v-0.43356h0.87433v-0.44078h0.86712v-0.43356h0.44078v-0.43356h0.43355v-1.3151h-0.43355v-0.43356h-0.44078v-0.44078h-0.43356v-0.43356h-0.43356v-0.43355h-1.7487v0.43355h-2.399v-0.43355h-1.7487v0.43355h-0.43356v0.43356h-0.44078v-0.43356h-0.43356v-0.43355h-0.43355v-0.44078zm35.357 3.0566h1.3079v0.87434h-0.43356v0.43356h-0.44078v0.44078h-0.43356v0.43356h-0.43356v0.65756h-0.44078v-1.9655h0.44078v-0.43356h0.43356zm2.6158 7.6378h1.0911v0.44078h-0.43356v0.43355h-1.9655v-0.43355h1.3079zm-23.564 7.8546h0.86711v0.87434h-1.3079v-0.43355h0.44078zm-48.233 3.4974h0.43356v0.43355h-0.43356zm-0.87434 0.43338h0.44078v0.44078h-0.44078zm-14.842 0.44078h1.3151v0.43355h0.43356v0.43356h0.87434v0.44078h-1.3079v-0.44078h-0.44078v0.44078h-1.7414v-0.44078h0.43356v-0.43356h0.43355zm69.181 0h0.87434v0.86711h0.44078v0.44078h-3.0566v-0.44078h0.87434v-0.43356h0.86711zm-3.9237 1.7415h0.87434v1.5319h-0.44078v-0.44078h-0.43356zm-61.11 0.65756h1.7487v0.43356h0.43356v0.44078h-0.43356v-0.44078h-0.44078v1.3079h-0.43356v-1.3079h-0.87434zm2.623 0.43356h0.43355v0.44078h-0.43355zm-4.5885 0.87434h0.44078v0.87434h-0.44078v1.3079h-0.86712v-0.43356h0.43356v-1.3151h0.43356zm5.8964 0h0.87434v0.43355h-0.44078v0.87434h-0.43356v0.44078h-0.44078v0.43356h-1.7414v-0.43356h0.43356v-0.44078h1.7487zm1.7414 0h0.44079v0.43355h-0.44079zm68.748 3.4901h0.87434v0.44078h0.65756v0.43355h0.43355v0.43356h0.87434v0.44078h0.43356v1.5247h0.44078v1.7487h0.43356v0.87434h0.43356v0.43356h0.44078v0.43355h1.3079v-0.86711h0.43356v-0.44078h0.44078v-1.7415h0.43356v-0.44078h0.44078v1.7487h0.43356v0.43356h0.43356v0.87434h0.65756v0.43355h0.87434v0.44078h1.7487v-0.44078h0.43355v0.44078h2.1822v0.43355h0.43356v0.87434h-0.43356v0.43356h-0.43356v0.87434h-0.44078v0.44078h-0.43356v0.43356h-5.022v-0.43356h-2.1822v-0.44078h-3.0566v0.44078h-0.43356v1.0911h0.43356v0.43356h-1.3079v-0.43356h-1.0911v-0.65756h-0.43356v-0.87434h-0.44078v-0.43356h-1.3079v-0.44078h-1.3079v-0.43356h-0.44078v-2.6158h-0.43356v-0.44078h-4.1477v0.44078h-3.0566v0.43356h-0.87434v-1.7487h0.44078v-0.43356h0.43355v-1.5247h0.87434v-0.44078h1.3079v-0.43356h0.44078v-1.3079h0.43356v0.43355h1.9655v-0.43355h0.87434v1.3079h-0.44078v2.8326h1.3151v-0.43356h0.43356v-3.2734h0.43356v0.43356h0.87434v0.87434h0.44078v0.44078h0.86711v1.9582h-1.3079v0.87434h0.44078v0.44078h1.7415v0.43356h0.44078v-0.87434h1.0911v-0.43356h0.86711v-0.44078h0.44078v-1.9582h-0.44078v-0.87434h-0.86711v-0.44078h-0.65756v-0.43356h-0.87434zm-9.8201 3.2734v0.87434h1.3079v-0.87434zm-4.3645 2.623h1.7487v0.86711h-0.87434v0.44078h-1.7487v-0.44078h-1.0911v-0.43355h1.9654zm-82.715 3.9237h0.44078v0.44078h-0.44078zm96.466 0.44078h0.43355v0.43356h-0.43355zm-69.181 1.5247v0.44078h1.7414v-0.44078zm2.1822 0v1.7487h0.65034v-0.44078h0.44078v-1.3079zm77.469 0.44078h0.44078v0.43355h0.43355v0.43356h0.44078v0.44078h0.43355v0.87434h-0.87434v-0.44078h-0.87434zm-78.344 1.7414v0.87434h0.43355v0.87434h1.0911v-1.7487zm0.43355 1.7487h-0.87434v-0.44078h-1.3079v-0.43356h-1.3079v-0.43355h-1.7487v0.43355h-0.86712v1.3079h1.3079v-0.43356h0.43356v0.43356h1.3079v0.44078h0.44078v0.43356h0.87434v0.43355h1.3079v1.9655h0.87433v-1.0911h-0.44078v-0.43355h1.0911v0.87434h1.3151v0.65033h1.7414v-0.65033h1.3079v-1.3151h-0.86712v-0.43355h-0.87434v-0.87434h-1.7487v0.44078h-0.87434v-0.44078h-1.0911zm1.5319-1.7487v0.87434h1.7414v-0.87434zm80.309 0h0.87434v0.44078h0.43356v0.43355h0.44078v0.87434h0.43356v0.43356h0.44078v0.87434h0.43356v0.87434h0.65756v0.87434h0.43356v0.65033h0.43356v0.44078h0.44078v1.3079h0.43356v0.43356h0.44078v1.3079h0.43356v0.87434h-0.43356v-0.43356h-0.87434v-0.44078h-0.44078v-0.43356h-0.43356v-0.87434h-1.0911v-1.7415h-0.43356v-1.0911h-0.44078v-0.87434h-0.43356v-0.87434h-0.44078v-0.87434h-0.43356v-0.87434h-0.43356v-0.86711h-0.44078zm-44.736 3.0566v0.87434h-0.44078v1.5247h0.87434v-0.65033h0.43356v-0.87434h0.44078v-0.87434zm-31.209 0.87434v1.5247h1.7414v-0.65033h1.5319v-0.87434zm3.7069 0.43355v0.44078h0.44079v-0.44078zm0.87434 0v0.44078h0.43356v-0.44078zm0 1.0911v0.44078h-0.43355v2.1822h0.43355v0.43356h0.87434v-3.0566zm6.7635 12.443h0.44078v0.43356h-0.44078v0.44078h-0.65033v-0.44078h0.65033z" fill="url(#radialGradient112947)"/><path d="m-213.05 17.615q0 30.335 21.387 51.941 21.606 21.606 52.159 21.606 30.335 0 52.159-21.606 21.387-21.606 21.387-51.941 0-30.554-21.387-52.159-21.824-21.606-52.159-21.606-30.554 0-52.159 21.606-21.387 21.606-21.387 52.159" fill="url(#gradient1-6-7)"/></g><path d="m148.61 23.582 20.782 117.6 37.652-130.07-58.434 12.469" fill="url(#gradient0-9-36)"/><path d="m150.32 24.805 21.76 115.16 34.229-124.69-55.989 9.5353" fill="url(#gradient1-6-0)"/><path d="m97.754 198.64q0 17.604 22.494 30.073 22.494 12.469 54.278 12.469t54.033-12.469q22.494-12.469 22.494-30.073 0-17.604-22.494-30.073-22.249-12.469-54.033-12.469t-54.278 12.469q-22.494 12.469-22.494 30.073" fill="url(#gradient2-2-5)"/><path d="m102.64 197.91q0 16.137 21.027 27.628 20.782 11.491 50.122 11.491 29.584 0 50.366-11.491 20.782-11.491 20.782-27.628 0-16.137-20.782-27.628-20.782-11.247-50.366-11.247-29.339 0-50.122 11.247-21.027 11.491-21.027 27.628" fill="url(#gradient3-0-4)"/><path d="m197.02 227.49q22.738-5.1344 31.784-16.381 1.956-36.43-6.1124-74.327-0.24452-0.97798-29.339 8.8018-29.095 9.5353-28.85 10.513 16.87 33.007 22.494 64.302l10.024 7.0904m27.139-18.826q-10.024 8.8018-27.628 13.203l-4.4009-3.6674q-5.3789-29.584-20.538-60.879l45.965-17.115q6.6014 32.029 6.6014 68.459" fill="url(#gradient4-0-6)"/><path d="m170.61 158.54q15.159 30.073 20.538 60.146l5.6234 4.6454q18.337-4.1564 28.85-13.692 0-36.43-6.6014-69.192l-48.41 18.093" fill="url(#gradient5-5-2)"/><path d="m93.842 36.051q1.956 5.6234 33.496 140.1 2.2005 3.6674 7.3348 1.7115l115.4-48.166q5.1344-1.956 4.4009-8.5573l-13.203-113.69q-1.467-8.8018-8.3128-6.8459l-130.8 23.716q-11.491 2.2005-8.3128 11.736" fill="url(#gradient6-1-8)"/><path d="m247.14 123.34-13.692-102.69-119.8 25.428 23.716 119.8 109.78-42.542" fill="url(#gradient7-1-28)"/><path d="m131.98 173.21-29.339-138.38q0-3.4229 1.7115-4.1564l129.58-26.161q2.934-2.6894-3.4229-1.467l-128.85 23.961q-4.1564 1.2225-4.4009 7.0904l32.273 140.58 1.956 1.7115q1.467 0 0.48898-3.1784" fill="url(#gradient8-3-8)"/><path d="m137.61 165.63q0 2.9339 2.934 1.956l110.02-43.765-3.4229-0.97799-109.53 42.787" fill="url(#gradient9-2-3)"/><path d="m172.08 161.97q8.5573 19.315 11.002 27.872l7.5794 28.85 6.6014 4.6454q-1.956-23.961-12.469-55.745l-12.714-5.6234" fill="url(#gradient10-0-4)"/></g></g></svg>
