<svg version="1.1" viewBox="0 0 256 256" xmlns="http://www.w3.org/2000/svg" xmlns:xlink="http://www.w3.org/1999/xlink"><defs><linearGradient id="linearGradient1690"><stop stop-color="#fc6" offset="0"/><stop stop-color="#ff9" offset="1"/></linearGradient><linearGradient id="linearGradient2474" x1="-17.67" x2="-17.702" y1="6.4752" y2="2.6077" gradientTransform="translate(-2.8589 .17216)" gradientUnits="userSpaceOnUse"><stop stop-color="#edba42" offset="0"/><stop stop-color="#ff9" offset="1"/></linearGradient><linearGradient id="linearGradient2476" x1="-8.9787" x2="-8.9787" y1="9.2108" y2="4.7845" gradientTransform="translate(27.079 1.5908)" gradientUnits="userSpaceOnUse"><stop stop-color="#ffd56f" offset="0"/><stop stop-color="#fffe98" offset=".5"/><stop stop-color="#ffffe0" offset="1"/></linearGradient><linearGradient id="gradient5-1" x1="-819.2" x2="819.2" gradientTransform="matrix(0 .011456 .0096573 0 -11.256 16.014)" gradientUnits="userSpaceOnUse"><stop stop-color="#999" offset="0"/><stop stop-color="#666" offset="1"/></linearGradient><linearGradient id="gradient6-0" x1="-819.2" x2="819.2" gradientTransform="matrix(0 .010769 .0091017 0 -11.23 16.014)" gradientUnits="userSpaceOnUse"><stop stop-color="#fff" offset="0"/><stop stop-color="#ddd" offset="1"/></linearGradient><linearGradient id="gradient7-6-6" x1="-819.2" x2="819.2" gradientTransform="matrix(.0039158 .0039158 .0038894 -.0038894 -11.799 15.207)" gradientUnits="userSpaceOnUse"><stop stop-color="#09f" offset="0"/><stop stop-color="#9cf" offset="1"/></linearGradient><linearGradient id="gradient8-7-2" x1="-819.2" x2="819.2" gradientTransform="matrix(0 .0051329 .0040217 0 -7.0758 20.658)" gradientUnits="userSpaceOnUse"><stop stop-color="#ccc" offset="0"/><stop stop-color="#ccf" offset="1"/></linearGradient><linearGradient id="gradient9-5-8" x1="-819.2" x2="819.2" gradientTransform="matrix(0 .0056356 .0051065 0 -14.497 20.261)" gradientUnits="userSpaceOnUse"><stop stop-color="#ccc" offset="0"/><stop stop-color="#ccf" offset="1"/></linearGradient><linearGradient id="gradient10-3-2" x1="-819.2" x2="819.2" gradientTransform="matrix(0 .004445 .0071173 0 -11.878 11.966)" gradientUnits="userSpaceOnUse"><stop stop-color="#999" offset="0"/><stop stop-color="#ccc" offset="1"/></linearGradient><radialGradient id="gradient11-5-3" cx="0" cy="0" r="819.2" gradientTransform="matrix(.0053446 0 0 .0053446 -12.354 14.44)" gradientUnits="userSpaceOnUse"><stop stop-color="#fff" offset="0"/><stop stop-color="#fff" offset=".49412"/><stop stop-color="#cff" offset=".76471"/><stop stop-color="#cff" offset="1"/></radialGradient><radialGradient id="gradient12-2" cx="0" cy="0" r="819.2" gradientTransform="matrix(.0026988 0 0 .0026723 -12.579 13.567)" gradientUnits="userSpaceOnUse"><stop stop-color="#fff" offset="0"/><stop stop-color="#ff9980" offset=".48627"/><stop stop-color="#f30" offset="1"/></radialGradient><linearGradient id="linearGradient1676" x1="27.613" x2="27.621" y1="19.842" y2="33.782" gradientTransform="matrix(.26458 0 0 .26458 12.568 .033852)" gradientUnits="userSpaceOnUse"><stop stop-color="#cff" offset="0"/><stop stop-color="#9cf" offset="1"/></linearGradient><linearGradient id="linearGradient1696" x1="17.596" x2="17.596" y1="6.4705" y2="4.5194" gradientUnits="userSpaceOnUse" xlink:href="#linearGradient1690"/><linearGradient id="linearGradient1710" x1="19.843" x2="19.844" y1="9.3831" y2="6.8304" gradientUnits="userSpaceOnUse" xlink:href="#linearGradient1690"/></defs><g transform="translate(-12.568)"><g transform="matrix(19.902 0 0 19.902 -233.71 -.093267)"><g transform="translate(38.263 2.2209)"><path d="m-17.014 1.3628-3.8365 0.52917-0.79375-1.0583-2.6458 0.26458-0.66146 1.1906 0.39688 7.6729 7.9375-1.9844-0.13229-6.35z" fill="url(#linearGradient2474)"/><path d="m-16.854 1.605-4.0971 0.54578-0.80852-1.0448-2.372 0.23878-0.56635 1.0096 0.38686 7.2925" fill="none" stroke="#fff9ec" stroke-linecap="round" stroke-width=".26458"/><path d="m-17.014 1.3628-3.8365 0.52917-0.79375-1.0583-2.6458 0.26458-0.66146 1.1906 0.39688 7.6729 7.9375-1.9844-0.13229-6.35z" fill="none" stroke="#c90" stroke-linejoin="round" stroke-width=".26458"/></g><path d="m15.173 7.2793 0.79375-0.52917 2.1167-0.26458 1.0583-0.79375 1.0583-0.26458 3.4396-0.52917 0.26458 0.52917-2.249 4.7625-7.9375 1.9844z" fill="url(#linearGradient2476)"/><path d="m21.555 5.4708 0.1004 4.7189" fill="none" stroke="#fc6" stroke-width=".26458px"/><path d="m15.842 4.6517 1.7275 1.9162" fill="none" stroke="url(#linearGradient1696)" stroke-linecap="round" stroke-width=".26458"/><path d="m17.68 6.6914c-0.05474 0.048948-0.05914 0.13311-0.0098 0.1875l2.2578 2.5039 1.794-2.2939-0.0083-0.50513-0.233 0.36155-1.5664 2.0254-2.0469-2.2695c-0.04896-0.05473-0.13312-0.059116-0.1875-0.00977z" color="#000000" fill="url(#linearGradient1710)" stroke-linecap="round" style="-inkscape-stroke:none"/><g transform="matrix(.47601 0 0 .47601 24.844 -3.1473)"><path transform="matrix(.26458 0 0 .26458 4.6429 .30269)" d="m-62.141 26.033-26.1 31.949 1.8984-0.09961 24.201-29.75 28.65 33.051 1.6484-0.09961-1.0488-1.2012zm21.85 29.4-1.7012 0.09961-20.125 25.211c-0.25443-0.2861-15.519-17.452-20.623-23.061l-1.8008 0.09961c7.5286 8.42 22.564 25.279 22.564 25.279zm8.4492 5.6992-0.09961 0.15039h0.25z" fill="#fff"/><g fill-rule="evenodd" stroke-width=".26458"><path d="m-10.377 24.902 6.608-8.4376-8.0301-9.2736-6.9056 8.4534m8.335 9.8163s-6.0494-6.7613-8.8113-9.7634l7.3819-9.0752 8.4799 9.816" fill="url(#gradient5-1)"/><path d="m-6.0175 14.969-5.7811-6.6543-5.9267 7.276 7.6056 8.5137-0.25136 0.25136-7.8305-8.7386 6.4029-7.8714 7.5803 8.7445-5.9306 7.5815-1.6062-1.7927m7.9867-5.8152h-0.01323c-0.31563-0.35986-0.30161-0.34347 0.01323 0m-0.21166 0.27781c0.19057-0.24921 0.19057-0.24921 0 0" fill="url(#gradient6-0)"/><path d="m-6.4673 14.996-5.2879 6.7117-5.4939-6.1429 5.4504-6.694 5.3314 6.1251" fill="url(#gradient7-6-6)"/><path d="m-10.145 24.606-0.45642 0.04449 6.3832-8.1601 0.44979-0.02646" fill="url(#gradient8-7-2)"/><path d="m-10.145 24.606-0.23145 0.29554-8.3277-9.2578 0.50271-0.02646" fill="url(#gradient9-5-8)"/><path d="m-6.0175 14.969-0.44979 0.02646-5.3314-6.1251-5.4504 6.694-0.47625 0.02646 5.9267-7.276 5.7811 6.6543" fill="url(#gradient10-3-2)"/><path d="m-13.267 13.051c1.0231-0.50271 1.98-0.24694 2.8707 0.76729l0.64823-0.80698c0.49389 0.56444 0.74524 1.2656 0.75406 2.1034-0.00882 0.69674-0.18521 1.3229-0.52917 1.8785 0.37924-1.0231 0.088194-2.0814-0.87313-3.175l-1.1509 1.442 1.8521 2.1034-0.11906 0.14552c-1.0142 0.49389-2.0197 0.19404-2.9104-0.79374l-0.64823 0.80698c-0.50271-0.57326-0.75406-1.2832-0.75406-2.1299-0.01764-0.77611 0.19403-1.4596 0.635-2.0505-0.39688 1.2347-0.14111 2.3592 0.76729 3.3734l1.1774-1.4552-1.8256-2.0638 0.10583-0.14552" fill="url(#gradient11-5-3)"/><path d="m-13.267 13.051-0.15875 0.0926q0.7276-0.92604 1.7727-1.0583 1.1245-0.0926 1.9579 0.8599l-0.05292 0.06615-0.64823 0.80698q-1.3361-1.5214-2.8707-0.76729m3.7439 3.9423-0.17198 0.37042q-0.75406 0.92604-1.7727 1.0583-1.1112 0.11906-1.9579-0.83344l0.05292-0.06615 0.64823-0.80698q1.3361 1.4817 2.8575 0.74083l0.17198-0.09261-0.05292-0.05292-1.7992-2.0505 1.1509-1.442q1.442 1.6404 0.87313 3.175m-3.9688-3.6512 0.06615-0.19844 0.05292 0.05292 1.8256 2.0638-1.1774 1.4552q-1.3626-1.5213-0.7673-3.3734" fill="url(#gradient12-2)"/><path d="m-13.373 13.197c-0.50118 0.63222-0.76163 1.5389-0.75407 2.196 0 0.84667 0.28582 1.5282 0.75406 2.1299 1.0722 1.3779 2.8821 0.8493 3.6513-0.18522 0.48826-0.65668 0.71262-1.5389 0.7276-2.2225-0.0088-0.83785-0.29842-1.5077-0.75406-2.1034-1.0238-1.3386-2.8746-0.94032-3.6248 0.18521zm1.1774 5.6356c-0.56444-0.10583-1.0672-0.40128-1.5081-0.88635-0.59972-0.67028-0.89958-1.5037-0.89958-2.5003-0.01764-1.0231 0.2734-1.9006 0.87312-2.6326 0.59972-0.74965 1.3273-1.1421 2.1828-1.1774 0.82903-0.03528 1.539 0.28222 2.1299 0.9525 0.58208 0.6791 0.87313 1.5125 0.87313 2.5003 0 0.97896-0.29104 1.8389-0.87313 2.5797-0.33514 0.41451-0.70997 0.7232-1.1245 0.92604-0.3175 0.14993-0.65264 0.24254-1.0054 0.27781l-0.64823-0.03969 0.06615-0.01323 1.5875-0.2249-1.5875 0.2249-0.06615 0.01323" fill="#666"/></g><path transform="matrix(.26458 0 0 .26458 4.6429 .30269)" d="m-62.141 26.033-26.1 31.949 1.8984-0.09961 24.201-29.75 28.65 33.051 1.6989-0.10058z" fill="#fff"/></g><path d="m22.793 5.078-3.7145 0.71985-1.219 0.894c1.0834 1.2026 2.0495 2.28 2.0495 2.28l2.8779-3.683z" fill="url(#linearGradient1676)" opacity=".8" stroke-width=".12594" style="mix-blend-mode:normal"/><path d="m23.732 5.1385-3.5318 0.55334-0.98575 0.24172-1.018 0.7908-2.1393 0.2591-0.67751 0.45017-1.3511 4.6199" fill="none" stroke="#fff9ec" stroke-width=".26458px"/><path d="m15.173 7.2793 0.79375-0.52917 2.1167-0.26458 1.0583-0.79375 1.0583-0.26458 3.4396-0.52917 0.26458 0.52917-2.249 4.7625-7.9375 1.9844z" fill="none" stroke="#c90" stroke-linejoin="round" stroke-width=".26458"/></g></g></svg>
