<?xml version="1.0" encoding="UTF-8" standalone="no"?>
<svg
   width="256"
   height="256"
   viewBox="0 0 256 256"
   version="1.1"
   id="svg8"
   inkscape:version="1.1.1 (3bf5ae0d25, 2021-09-20)"
   sodipodi:docname="My-Pictures.svg"
   inkscape:export-filename="/media/klapeto/Αρχεία/WindowsXP Theme/Vectors/My-Pictures.png"
   inkscape:export-xdpi="96"
   inkscape:export-ydpi="96"
   xmlns:inkscape="http://www.inkscape.org/namespaces/inkscape"
   xmlns:sodipodi="http://sodipodi.sourceforge.net/DTD/sodipodi-0.dtd"
   xmlns:xlink="http://www.w3.org/1999/xlink"
   xmlns="http://www.w3.org/2000/svg"
   xmlns:svg="http://www.w3.org/2000/svg"
   xmlns:rdf="http://www.w3.org/1999/02/22-rdf-syntax-ns#"
   xmlns:cc="http://creativecommons.org/ns#"
   xmlns:dc="http://purl.org/dc/elements/1.1/">
  <defs
     id="defs2">
    <linearGradient
       id="linearGradient1690"
       inkscape:collect="always">
      <stop
         id="stop1686"
         offset="0"
         style="stop-color:#ffcc66;stop-opacity:1" />
      <stop
         id="stop1688"
         offset="1"
         style="stop-color:#ffff99;stop-opacity:1" />
    </linearGradient>
    <linearGradient
       x2="819.20001"
       x1="-819.20001"
       spreadMethod="pad"
       id="linearGradient1682"
       gradientUnits="userSpaceOnUse"
       gradientTransform="matrix(0,0.00436562,0.00566208,0,-18.841833,-1.9967339)">
      <stop
         id="stop1678"
         stop-color="#ccffff"
         offset="0.0" />
      <stop
         style="stop-opacity:1"
         id="stop1680"
         stop-color="#99ccff"
         offset="1.0" />
    </linearGradient>
    <linearGradient
       inkscape:collect="always"
       xlink:href="#linearGradient2067"
       id="linearGradient2474"
       gradientUnits="userSpaceOnUse"
       gradientTransform="translate(-2.8588687,0.17215515)"
       x1="-17.669527"
       y1="6.4752192"
       x2="-17.701683"
       y2="2.6076741" />
    <linearGradient
       id="linearGradient2067"
       inkscape:collect="always">
      <stop
         id="stop2063"
         offset="0"
         style="stop-color:#edba42;stop-opacity:1" />
      <stop
         id="stop2065"
         offset="1"
         style="stop-color:#ffff99;stop-opacity:1" />
    </linearGradient>
    <linearGradient
       inkscape:collect="always"
       xlink:href="#linearGradient2059"
       id="linearGradient2476"
       gradientUnits="userSpaceOnUse"
       gradientTransform="translate(27.07898,1.5907861)"
       x1="-8.9786987"
       y1="9.2108154"
       x2="-8.9786987"
       y2="4.7845073" />
    <linearGradient
       inkscape:collect="always"
       id="linearGradient2059">
      <stop
         style="stop-color:#ffd56f;stop-opacity:1"
         offset="0"
         id="stop2055" />
      <stop
         id="stop2100"
         offset="0.5"
         style="stop-color:#fffe98;stop-opacity:1" />
      <stop
         style="stop-color:#ffffe0;stop-opacity:1"
         offset="1"
         id="stop2057" />
    </linearGradient>
    <linearGradient
       x2="819.20001"
       x1="-819.20001"
       spreadMethod="pad"
       id="gradient5-1"
       gradientUnits="userSpaceOnUse"
       gradientTransform="matrix(0,0.01145646,0.00965729,0,-11.256229,16.014444)">
      <stop
         id="stop95-2"
         stop-color="#999999"
         offset="0.0" />
      <stop
         id="stop97-7"
         stop-color="#666666"
         offset="1.0" />
    </linearGradient>
    <linearGradient
       x2="819.20001"
       x1="-819.20001"
       spreadMethod="pad"
       id="gradient6-0"
       gradientUnits="userSpaceOnUse"
       gradientTransform="matrix(0,0.01076854,0.00910167,0,-11.229771,16.014444)">
      <stop
         id="stop100-9"
         stop-color="#ffffff"
         offset="0.0" />
      <stop
         id="stop102-3"
         stop-color="#dddddd"
         offset="1.0" />
    </linearGradient>
    <linearGradient
       x2="819.20001"
       x1="-819.20001"
       spreadMethod="pad"
       id="gradient7-6-6"
       gradientUnits="userSpaceOnUse"
       gradientTransform="matrix(0.00391583,0.00391583,0.00388937,-0.00388937,-11.798625,15.207465)">
      <stop
         id="stop105-0"
         stop-color="#0099ff"
         offset="0.0" />
      <stop
         id="stop107-6"
         stop-color="#99ccff"
         offset="1.0" />
    </linearGradient>
    <linearGradient
       x2="819.20001"
       x1="-819.20001"
       spreadMethod="pad"
       id="gradient8-7-2"
       gradientUnits="userSpaceOnUse"
       gradientTransform="matrix(0,0.00513292,0.00402167,0,-7.0758122,20.657882)">
      <stop
         id="stop110-6"
         stop-color="#cccccc"
         offset="0.0" />
      <stop
         id="stop112-1"
         stop-color="#ccccff"
         offset="1.0" />
    </linearGradient>
    <linearGradient
       x2="819.20001"
       x1="-819.20001"
       spreadMethod="pad"
       id="gradient9-5-8"
       gradientUnits="userSpaceOnUse"
       gradientTransform="matrix(0,0.00563562,0.00510646,0,-14.497375,20.261007)">
      <stop
         id="stop115-7"
         stop-color="#cccccc"
         offset="0.0" />
      <stop
         id="stop117-9"
         stop-color="#ccccff"
         offset="1.0" />
    </linearGradient>
    <linearGradient
       x2="819.20001"
       x1="-819.20001"
       spreadMethod="pad"
       id="gradient10-3-2"
       gradientUnits="userSpaceOnUse"
       gradientTransform="matrix(0,0.004445,0.00711729,0,-11.878,11.96632)">
      <stop
         id="stop120-0"
         stop-color="#999999"
         offset="0.0" />
      <stop
         id="stop122-2"
         stop-color="#cccccc"
         offset="1.0" />
    </linearGradient>
    <radialGradient
       spreadMethod="pad"
       r="819.20001"
       id="gradient11-5-3"
       gradientUnits="userSpaceOnUse"
       gradientTransform="matrix(0.00534458,0,0,0.00534458,-12.35425,14.440174)"
       cy="0"
       cx="0">
      <stop
         id="stop125-7"
         stop-color="#ffffff"
         offset="0.0" />
      <stop
         id="stop127-5"
         stop-color="#ffffff"
         offset="0.49411764705882355" />
      <stop
         id="stop129-9"
         stop-color="#ccffff"
         offset="0.7647058823529411" />
      <stop
         id="stop131-2"
         stop-color="#ccffff"
         offset="1.0" />
    </radialGradient>
    <radialGradient
       spreadMethod="pad"
       r="819.20001"
       id="gradient12-2"
       gradientUnits="userSpaceOnUse"
       gradientTransform="matrix(0.00269875,0,0,0.00267229,-12.579146,13.567048)"
       cy="0"
       cx="0">
      <stop
         id="stop134-8"
         stop-color="#ffffff"
         offset="0.0" />
      <stop
         id="stop136-9"
         stop-color="#ff9980"
         offset="0.48627450980392156" />
      <stop
         id="stop138-7"
         stop-color="#ff3300"
         offset="1.0" />
    </radialGradient>
    <linearGradient
       gradientTransform="matrix(0.26458333,0,0,0.26458333,12.567709,0.0338519)"
       gradientUnits="userSpaceOnUse"
       y2="33.7822"
       x2="27.620525"
       y1="19.841753"
       x1="27.612898"
       id="linearGradient1676"
       xlink:href="#linearGradient1682"
       inkscape:collect="always" />
    <linearGradient
       y2="4.5193658"
       x2="17.5958"
       y1="6.4704852"
       x1="17.5958"
       gradientUnits="userSpaceOnUse"
       id="linearGradient1696"
       xlink:href="#linearGradient1690"
       inkscape:collect="always" />
    <linearGradient
       gradientUnits="userSpaceOnUse"
       y2="6.8303909"
       x2="19.84375"
       y1="9.3831339"
       x1="19.843288"
       id="linearGradient1710"
       xlink:href="#linearGradient1690"
       inkscape:collect="always" />
    <filter
       inkscape:collect="always"
       style="color-interpolation-filters:sRGB"
       id="filter1016"
       x="-0.051210427"
       y="-0.045168359"
       width="1.1024209"
       height="1.0903367">
      <feGaussianBlur
         inkscape:collect="always"
         stdDeviation="4.6109365"
         id="feGaussianBlur1018" />
    </filter>
  </defs>
  <sodipodi:namedview
     inkscape:snap-nodes="true"
     inkscape:snap-grids="false"
     inkscape:snap-midpoints="true"
     inkscape:snap-smooth-nodes="true"
     inkscape:snap-intersection-paths="true"
     inkscape:object-paths="true"
     showguides="false"
     id="base"
     pagecolor="#ffffff"
     bordercolor="#666666"
     borderopacity="1.0"
     inkscape:pageopacity="0.0"
     inkscape:pageshadow="2"
     inkscape:zoom="0.35355339"
     inkscape:cx="-1442.4978"
     inkscape:cy="698.6215"
     inkscape:document-units="px"
     inkscape:current-layer="layer1"
     inkscape:document-rotation="0"
     showgrid="false"
     units="px"
     inkscape:window-width="3840"
     inkscape:window-height="2045"
     inkscape:window-x="3840"
     inkscape:window-y="0"
     inkscape:window-maximized="1"
     inkscape:snap-bbox="true"
     inkscape:bbox-nodes="true"
     fit-margin-top="0"
     fit-margin-left="0"
     fit-margin-right="0"
     fit-margin-bottom="0"
     inkscape:bbox-paths="true"
     inkscape:snap-global="true"
     inkscape:guide-bbox="true"
     inkscape:pagecheckerboard="0"
     scale-x="0.26458">
    <inkscape:grid
       type="xygrid"
       id="grid1504"
       originx="0"
       originy="0" />
    <inkscape:grid
       type="xygrid"
       id="grid1507"
       spacingx="0.13229167"
       spacingy="0.13229167"
       originx="0"
       originy="0" />
  </sodipodi:namedview>
  <metadata
     id="metadata5">
    <rdf:RDF>
      <cc:Work
         rdf:about="">
        <dc:format>image/svg+xml</dc:format>
        <dc:type
           rdf:resource="http://purl.org/dc/dcmitype/StillImage" />
      </cc:Work>
    </rdf:RDF>
  </metadata>
  <g
     inkscape:label="Layer 1"
     inkscape:groupmode="layer"
     id="layer1"
     transform="translate(-12.567709)">
    <path
       d="m 153.97419,4 -48.99645,60.237659 -0.84336,-1.121031 a 2.6331513,2.6331513 0 0 0 -2.17007,-1.049044 2.6331513,2.6331513 0 0 0 -0.19541,0.01053 l -52.657821,5.265781 a 2.6331513,2.6331513 0 0 0 -2.046661,1.347298 L 33.899964,92.387211 a 2.6331513,2.6331513 0 0 0 -0.329111,1.409007 l 7.898673,152.707662 a 2.6331513,2.6331513 0 0 0 3.270543,2.41692 L 202.71351,209.42743 a 2.6331513,2.6331513 0 0 0 0.76107,-0.32911 l -0.5348,0.14397 a 2.6331513,2.6331513 0 0 0 1.0079,-0.51426 2.6331513,2.6331513 0 0 0 0.0926,-0.0926 2.6331513,2.6331513 0 0 0 0.66851,-1.70726 v 0.76107 l 44.69743,-94.65037 a 2.6331513,2.6331513 0 0 0 -0.0206,-2.30378 l -5.26578,-10.53156 a 2.6331513,2.6331513 0 0 0 -2.75631,-1.419293 l -9.60594,1.481003 2.55062,-3.270548 z m 0,10.65498 71.81826,82.8435 h -0.0106 z m 54.76618,68.424304 v 0.01053 h -0.0106 l -4.24759,0.246807 z"
       style="color:#000000;font-style:normal;font-variant:normal;font-weight:normal;font-stretch:normal;font-size:medium;line-height:normal;font-family:sans-serif;font-variant-ligatures:normal;font-variant-position:normal;font-variant-caps:normal;font-variant-numeric:normal;font-variant-alternates:normal;font-variant-east-asian:normal;font-feature-settings:normal;font-variation-settings:normal;text-indent:0;text-align:start;text-decoration:none;text-decoration-line:none;text-decoration-style:solid;text-decoration-color:#000000;letter-spacing:normal;word-spacing:normal;text-transform:none;writing-mode:lr-tb;direction:ltr;text-orientation:mixed;dominant-baseline:auto;baseline-shift:baseline;text-anchor:start;white-space:normal;shape-padding:0;shape-margin:0;inline-size:0;clip-rule:nonzero;display:inline;overflow:visible;visibility:visible;isolation:auto;mix-blend-mode:normal;color-interpolation:sRGB;color-interpolation-filters:linearRGB;solid-color:#000000;solid-opacity:1;vector-effect:none;fill:#212121;fill-opacity:1;fill-rule:nonzero;stroke:none;stroke-width:5.26578;stroke-linecap:butt;stroke-linejoin:round;stroke-miterlimit:4;stroke-dasharray:none;stroke-dashoffset:0;stroke-opacity:1;color-rendering:auto;image-rendering:auto;shape-rendering:auto;text-rendering:auto;enable-background:accumulate;stop-color:#000000;filter:url(#filter1016)"
       id="path1249" />
    <g
       id="g1735"
       transform="matrix(19.902167,0,0,19.902167,-233.71407,-0.09326682)">
      <g
         transform="translate(38.262501,2.2208547)"
         id="g1722-8-6">
        <path
           sodipodi:nodetypes="ccccccccc"
           style="fill:url(#linearGradient2474);fill-opacity:1;stroke:none;stroke-width:0.264583;stroke-linecap:butt;stroke-linejoin:round;stroke-miterlimit:4;stroke-dasharray:none;stroke-opacity:1"
           d="m -17.014076,1.3627803 -3.83646,0.5291665 -0.79375,-1.05833323 -2.645833,0.26458333 -0.661459,1.190625 0.396876,7.6729167 7.9375,-1.984375 -0.132291,-6.3500001 z"
           id="path1612-5-2" />
        <path
           style="fill:none;stroke:#fff9ec;stroke-width:0.264583;stroke-linecap:round;stroke-linejoin:miter;stroke-miterlimit:4;stroke-dasharray:none;stroke-opacity:1"
           d="m -16.85445,1.6049866 -4.097077,0.5457765 -0.808525,-1.0448296 -2.372049,0.2387808 -0.566354,1.0096419 0.386861,7.292457"
           id="path1624-0-9"
           sodipodi:nodetypes="cccccc" />
        <path
           id="path1717-6-9"
           d="m -17.014076,1.3627803 -3.83646,0.5291665 -0.79375,-1.05833323 -2.645833,0.26458333 -0.661459,1.190625 0.396876,7.6729167 7.9375,-1.984375 -0.132291,-6.3500001 z"
           style="fill:none;fill-opacity:1;stroke:#cc9900;stroke-width:0.264583;stroke-linecap:butt;stroke-linejoin:round;stroke-miterlimit:4;stroke-dasharray:none;stroke-opacity:1"
           sodipodi:nodetypes="ccccccccc" />
      </g>
      <path
         style="fill:url(#linearGradient2476);fill-opacity:1;stroke:none;stroke-width:0.264583;stroke-linecap:butt;stroke-linejoin:round;stroke-miterlimit:4;stroke-dasharray:none;stroke-opacity:1"
         d="m 15.17273,7.2793279 0.79375,-0.529167 2.116667,-0.2645833 1.058333,-0.79375 1.058334,-0.2645833 3.439583,-0.5291667 0.264584,0.5291667 -2.248959,4.7625007 -7.937499,1.984374 z"
         id="path2053-8"
         sodipodi:nodetypes="cccccccccc" />
      <path
         style="fill:none;fill-opacity:1;stroke:#ffcc66;stroke-width:0.264583px;stroke-linecap:butt;stroke-linejoin:miter;stroke-opacity:1"
         d="m 21.55462,5.4708096 0.100403,4.7189344"
         id="path2078-1-1"
         sodipodi:nodetypes="cc" />
      <path
         sodipodi:nodetypes="cc"
         id="path1694"
         d="m 15.841545,4.6516573 1.727529,1.9162461"
         style="fill:none;stroke:url(#linearGradient1696);stroke-width:0.264583;stroke-linecap:round;stroke-linejoin:miter;stroke-miterlimit:4;stroke-dasharray:none;stroke-opacity:1" />
      <path
         style="fill:none;stroke:url(#linearGradient1710);stroke-width:0.264583;stroke-linecap:round;stroke-linejoin:miter;stroke-miterlimit:4;stroke-dasharray:none;stroke-opacity:1"
         d="m 17.769145,6.789801 2.151372,2.3860675 1.664418,-2.1491497"
         id="path1684"
         sodipodi:nodetypes="ccc" />
      <g
         id="g1186"
         transform="matrix(0.47600878,0,0,0.47600878,24.84446,-3.1472967)">
        <path
           id="path2-2"
           style="fill:#ffffff;fill-opacity:1;stroke-width:0.999999"
           d="m -62.140625,26.033203 -26.099609,31.949219 1.898437,-0.09961 24.201172,-29.75 28.650391,33.050782 1.648437,-0.09961 -1.048828,-1.201172 z m 21.849609,29.400391 -1.701172,0.09961 -20.125,25.210938 C -62.371621,80.458037 -77.635856,63.29244 -82.740234,57.683594 l -1.800782,0.09961 c 7.52865,8.42002 22.564454,25.279297 22.564454,25.279297 z m 8.449219,5.699218 -0.09961,0.150391 h 0.25 z"
           transform="matrix(0.26458333,0,0,0.26458333,4.6429296,0.30268861)"
           sodipodi:nodetypes="ccccccccccccccccccc" />
        <path
           sodipodi:nodetypes="cccccccc"
           d="m -10.376542,24.901809 6.6080238,-8.437572 -8.0301048,-9.2736454 -6.905625,8.4534374 m 8.335034,9.816333 c 0,0 -6.049365,-6.76133 -8.811284,-9.763417 l 7.381875,-9.0752074 8.4798968,9.8160414"
           fill="url(#gradient5)"
           fill-rule="evenodd"
           stroke="none"
           id="path22-9"
           style="fill:url(#gradient5-1);stroke-width:0.264583" />
        <path
           sodipodi:nodetypes="ccccccccccccccc"
           d="m -6.0174792,14.96934 -5.7811468,-6.6542704 -5.926667,7.2760414 7.6056,8.513688 -0.251355,0.251355 -7.830495,-8.738584 6.402917,-7.8713544 7.5803138,8.7444794 -5.9306098,7.5815 -1.60625,-1.792724 m 7.9866508,-5.815235 h -0.01323 c -0.3156287,-0.359862 -0.3016147,-0.343468 0.01323,0 m -0.211665,0.277813 c 0.1905714,-0.249209 0.1905714,-0.249209 0,0"
           fill="url(#gradient6)"
           fill-rule="evenodd"
           stroke="none"
           id="path24-4"
           style="fill:url(#gradient6-0);stroke-width:0.264583" />
        <path
           sodipodi:nodetypes="ccccc"
           d="m -6.4672712,14.995799 -5.2878938,6.711743 -5.493882,-6.14289 5.450417,-6.6939584 5.3313548,6.1251044"
           fill="url(#gradient7)"
           fill-rule="evenodd"
           stroke="none"
           id="path26-7"
           style="fill:url(#gradient7-6-6);stroke-width:0.264583" />
        <path
           sodipodi:nodetypes="cccc"
           d="m -10.145088,24.606273 -0.456417,0.04449 6.3831928,-8.160069 0.449792,-0.02646"
           fill="url(#gradient8)"
           fill-rule="evenodd"
           stroke="none"
           id="path28-8"
           style="fill:url(#gradient8-7-2);stroke-width:0.264583" />
        <path
           sodipodi:nodetypes="cccc"
           d="m -10.145088,24.606273 -0.231454,0.295536 -8.327705,-9.257778 0.502708,-0.02646"
           fill="url(#gradient9)"
           fill-rule="evenodd"
           stroke="none"
           id="path30-4"
           style="fill:url(#gradient9-5-8);stroke-width:0.264583" />
        <path
           d="m -6.0174792,14.96934 -0.449792,0.02646 -5.3313548,-6.1251034 -5.450417,6.6939584 -0.47625,0.02646 5.926667,-7.2760415 5.7811468,6.6542705"
           fill="url(#gradient10)"
           fill-rule="evenodd"
           stroke="none"
           id="path32-5"
           style="fill:url(#gradient10-3-2);stroke-width:0.264583" />
        <path
           sodipodi:nodetypes="ccccccccccccccccc"
           d="m -13.267063,13.051111 c 1.023055,-0.502708 1.979965,-0.246944 2.870729,0.767292 l 0.6482295,-0.806979 c 0.4938889,0.564445 0.745243,1.26559 0.7540623,2.103437 -0.00882,0.696736 -0.1852088,1.322917 -0.5291663,1.878542 0.3792362,-1.023055 0.088194,-2.081389 -0.8731255,-3.175 l -1.150938,1.441979 1.8520885,2.103428 -0.119063,0.145521 c -1.0142365,0.493889 -2.0196575,0.194037 -2.9104215,-0.793741 l -0.648229,0.806979 c -0.502708,-0.573263 -0.754062,-1.283228 -0.754062,-2.129895 -0.01764,-0.776111 0.194027,-1.459618 0.635,-2.050521 -0.396875,1.234722 -0.141112,2.359201 0.767291,3.373437 l 1.177396,-1.455208 -1.825625,-2.06375 0.105833,-0.145521"
           fill="url(#gradient11)"
           fill-rule="evenodd"
           stroke="none"
           id="path34-0"
           style="fill:url(#gradient11-5-3);stroke-width:0.264583" />
        <path
           d="m -13.267063,13.051111 -0.15875,0.0926 q 0.727604,-0.926042 1.772708,-1.058333 1.124479,-0.0926 1.9579175,0.859896 l -0.05292,0.06615 -0.6482295,0.806979 q -1.336143,-1.521354 -2.870726,-0.767292 m 3.7438545,3.942292 -0.171979,0.370416 q -0.7540635,0.926042 -1.7727095,1.058334 -1.11125,0.119062 -1.957916,-0.833438 l 0.05292,-0.06615 0.648229,-0.806979 q 1.336146,1.481667 2.8575005,0.740834 l 0.17198,-0.09261 -0.05292,-0.05292 -1.7991675,-2.050521 1.150938,-1.441978 q 1.4419798,1.640416 0.8731255,3.174999 m -3.9687505,-3.651249 0.06615,-0.198439 0.05292,0.05292 1.825625,2.063751 -1.177396,1.455207 q -1.362613,-1.521341 -0.7673,-3.373424"
           fill="url(#gradient12)"
           fill-rule="evenodd"
           stroke="none"
           id="path36-3"
           style="fill:url(#gradient12-2);stroke-width:0.264583" />
        <path
           sodipodi:nodetypes="ccsscscccccccscccccccc"
           d="m -13.372894,13.196632 c -0.501177,0.632218 -0.761629,1.538911 -0.75407,2.196038 0,0.846667 0.285815,1.528156 0.754062,2.129896 1.072201,1.377874 2.882074,0.849295 3.6512585,-0.185216 0.4882602,-0.656683 0.7126161,-1.538924 0.7276013,-2.222492 -0.0088,-0.837847 -0.2984183,-1.507691 -0.7540623,-2.103435 -1.0238315,-1.338638 -2.8746145,-0.940317 -3.6247895,0.185209 z m 1.177393,5.635622 c -0.564444,-0.105833 -1.067153,-0.401285 -1.508125,-0.886354 -0.599722,-0.670278 -0.899583,-1.503715 -0.899583,-2.500312 -0.01764,-1.023056 0.273402,-1.900591 0.873125,-2.632605 0.599722,-0.749653 1.327326,-1.142117 2.182812,-1.177396 0.829028,-0.03528 1.538993,0.282223 2.1298965,0.9525 0.5820833,0.679098 0.8731253,1.512536 0.8731253,2.500313 0,0.978958 -0.291042,1.838854 -0.8731253,2.579687 -0.335139,0.414514 -0.7099655,0.723195 -1.1244795,0.926042 -0.3175,0.14993 -0.652639,0.242535 -1.005417,0.277812 l -0.648229,-0.03969 0.06615,-0.01323 1.5875,-0.224896 -1.5875,0.224896 -0.06615,0.01323"
           fill="#666666"
           fill-rule="evenodd"
           stroke="none"
           id="path6-3"
           style="stroke-width:0.264583" />
        <path
           transform="matrix(0.26458333,0,0,0.26458333,4.6429296,0.30268861)"
           d="m -62.140625,26.033203 -26.099609,31.949219 1.898437,-0.09961 24.201172,-29.75 28.650391,33.050782 1.698923,-0.100579 z"
           style="fill:#ffffff;fill-opacity:1;stroke-width:0.999999"
           id="path1613"
           sodipodi:nodetypes="ccccccc" />
      </g>
      <path
         id="path1615"
         style="opacity:0.8;mix-blend-mode:normal;fill:url(#linearGradient1676);fill-opacity:1;stroke-width:0.125944"
         d="m 22.792924,5.0779884 -3.714501,0.7198527 -1.219047,0.8940022 c 1.083409,1.2026235 2.049487,2.2799643 2.049487,2.2799643 l 2.87786,-3.6829793 z" />
      <path
         style="fill:none;stroke:#fff9ec;stroke-width:0.264583px;stroke-linecap:butt;stroke-linejoin:miter;stroke-opacity:1"
         d="M 23.73162,5.1384899 20.199813,5.6918277 19.214067,5.933548 18.196077,6.7243485 16.056781,6.9834516 15.379274,7.4336221 14.028158,12.05357"
         id="path2069-3"
         sodipodi:nodetypes="ccccccc" />
      <path
         sodipodi:nodetypes="cccccccccc"
         id="path2071-1"
         d="m 15.17273,7.2793279 0.79375,-0.529167 2.116667,-0.2645833 1.058333,-0.79375 1.058334,-0.2645833 3.439583,-0.5291667 0.264584,0.5291667 -2.248959,4.7625007 -7.937499,1.984374 z"
         style="fill:none;fill-opacity:1;stroke:#cc9900;stroke-width:0.264583;stroke-linecap:butt;stroke-linejoin:round;stroke-miterlimit:4;stroke-dasharray:none;stroke-opacity:1" />
    </g>
  </g>
</svg>
