<?xml version="1.0" encoding="UTF-8" standalone="no"?>
<svg
   inkscape:export-ydpi="6"
   inkscape:export-xdpi="6"
   inkscape:export-filename="programs.png"
   width="16"
   height="16"
   viewBox="0 0 16 16"
   version="1.1"
   id="svg8"
   inkscape:version="1.3.2 (1:1.3.2+202311252150+091e20ef0f)"
   sodipodi:docname="programs.16.svg"
   xml:space="preserve"
   xmlns:inkscape="http://www.inkscape.org/namespaces/inkscape"
   xmlns:sodipodi="http://sodipodi.sourceforge.net/DTD/sodipodi-0.dtd"
   xmlns:xlink="http://www.w3.org/1999/xlink"
   xmlns="http://www.w3.org/2000/svg"
   xmlns:svg="http://www.w3.org/2000/svg"
   xmlns:rdf="http://www.w3.org/1999/02/22-rdf-syntax-ns#"
   xmlns:cc="http://creativecommons.org/ns#"
   xmlns:dc="http://purl.org/dc/elements/1.1/"><defs
     id="defs2"><linearGradient
       inkscape:collect="always"
       id="linearGradient224686"><stop
         style="stop-color:#aeabba;stop-opacity:1"
         offset="0"
         id="stop224682" /><stop
         style="stop-color:#adaab9;stop-opacity:0"
         offset="1"
         id="stop224684" /></linearGradient><linearGradient
       inkscape:collect="always"
       xlink:href="#linearGradient1"
       id="linearGradient2"
       x1="18.067709"
       y1="2.5"
       x2="26.067709"
       y2="13.5"
       gradientUnits="userSpaceOnUse"
       gradientTransform="translate(0,-2)" /><linearGradient
       id="linearGradient1"
       inkscape:collect="always"><stop
         style="stop-color:#cc9900;stop-opacity:1"
         offset="0"
         id="stop1" /><stop
         style="stop-color:#996600;stop-opacity:1"
         offset="1"
         id="stop2" /></linearGradient><linearGradient
       inkscape:collect="always"
       xlink:href="#linearGradient99492"
       id="linearGradient99494"
       x1="7.067709"
       y1="12.5"
       x2="7.067709"
       y2="8.5"
       gradientUnits="userSpaceOnUse"
       gradientTransform="translate(18,-2)" /><linearGradient
       inkscape:collect="always"
       id="linearGradient99492"><stop
         style="stop-color:#d3a03a;stop-opacity:1"
         offset="0"
         id="stop99488" /><stop
         style="stop-color:#f8c55f;stop-opacity:1"
         offset="1"
         id="stop99490" /></linearGradient><linearGradient
       inkscape:collect="always"
       xlink:href="#linearGradient70027"
       id="linearGradient70029"
       x1="-1.432291"
       y1="15.5"
       x2="-1.432291"
       y2="11.5"
       gradientUnits="userSpaceOnUse"
       gradientTransform="translate(22,-5)" /><linearGradient
       inkscape:collect="always"
       id="linearGradient70027"><stop
         style="stop-color:#ffcc66;stop-opacity:1"
         offset="0"
         id="stop70023" /><stop
         style="stop-color:#ffff99;stop-opacity:1"
         offset="1"
         id="stop70025" /></linearGradient><linearGradient
       inkscape:collect="always"
       xlink:href="#linearGradient17863"
       id="linearGradient17865"
       x1="-3.932291"
       y1="12.5"
       x2="-3.932291"
       y2="4.5"
       gradientUnits="userSpaceOnUse"
       gradientTransform="translate(18,-2)" /><linearGradient
       inkscape:collect="always"
       id="linearGradient17863"><stop
         style="stop-color:#ffcc66;stop-opacity:1"
         offset="0"
         id="stop17859" /><stop
         style="stop-color:#ffd46e;stop-opacity:1"
         offset="0.5"
         id="stop30484" /><stop
         style="stop-color:#ffff99;stop-opacity:1"
         offset="1"
         id="stop17861" /></linearGradient><linearGradient
       inkscape:collect="always"
       xlink:href="#linearGradient3813-3"
       id="linearGradient1119-7"
       gradientUnits="userSpaceOnUse"
       x1="-94.106674"
       y1="6.4852605"
       x2="-94.112091"
       y2="1.8144366"
       gradientTransform="matrix(0.74933143,8.6904241e-4,-8.6904241e-4,0.74933143,108.59036,17.704138)" /><linearGradient
       inkscape:collect="always"
       id="linearGradient3813-3"><stop
         style="stop-color:#0099ff;stop-opacity:1"
         offset="0"
         id="stop3809-6" /><stop
         style="stop-color:#0066cc;stop-opacity:1"
         offset="0.5"
         id="stop3815-5" /><stop
         style="stop-color:#0083d7;stop-opacity:1"
         offset="1"
         id="stop3811-6" /></linearGradient><linearGradient
       inkscape:collect="always"
       xlink:href="#linearGradient3"
       id="linearGradient4"
       x1="39.067711"
       y1="28"
       x2="41.567711"
       y2="24.5"
       gradientUnits="userSpaceOnUse"
       gradientTransform="translate(-0.13814215,1.3802777)" /><linearGradient
       id="linearGradient3"
       inkscape:collect="always"><stop
         style="stop-color:#003399;stop-opacity:1;"
         offset="0"
         id="stop3" /><stop
         style="stop-color:#9999ff;stop-opacity:1"
         offset="0.5"
         id="stop5" /><stop
         style="stop-color:#003399;stop-opacity:1"
         offset="1"
         id="stop4" /></linearGradient><linearGradient
       inkscape:collect="always"
       xlink:href="#linearGradient224686"
       id="linearGradient12"
       gradientUnits="userSpaceOnUse"
       gradientTransform="matrix(0.9852956,0.0011427,-0.0011427,0.9852956,66.096248,7.5703413)"
       x1="-38.254696"
       y1="34"
       x2="-32.305027"
       y2="34.006657" /><linearGradient
       inkscape:collect="always"
       xlink:href="#linearGradient224686"
       id="linearGradient13"
       gradientUnits="userSpaceOnUse"
       gradientTransform="matrix(0.9852956,0.0011427,-0.0011427,0.9852956,77.096179,7.5703413)"
       x1="-38.254696"
       y1="34"
       x2="-32.305027"
       y2="34.006657" /><linearGradient
       inkscape:collect="always"
       xlink:href="#linearGradient224686"
       id="linearGradient14"
       gradientUnits="userSpaceOnUse"
       gradientTransform="matrix(0.9852956,0.0011427,-0.0011427,0.9852956,86.596248,7.5703413)"
       x1="-38.254696"
       y1="34"
       x2="-32.305027"
       y2="34.006657" /><linearGradient
       inkscape:collect="always"
       xlink:href="#linearGradient152230-9"
       id="linearGradient33988-2"
       gradientUnits="userSpaceOnUse"
       gradientTransform="matrix(0.9852956,0.0011427,-0.0011427,0.9852956,103.88111,-2.9368637)"
       x1="-54.318817"
       y1="38.637314"
       x2="-54.62859"
       y2="41.735828" /><linearGradient
       inkscape:collect="always"
       id="linearGradient152230-9"><stop
         style="stop-color:#0099ff;stop-opacity:1"
         offset="0"
         id="stop152226-3" /><stop
         style="stop-color:#003399;stop-opacity:1"
         offset="1"
         id="stop152228-9" /></linearGradient><linearGradient
       inkscape:collect="always"
       xlink:href="#linearGradient224686"
       id="linearGradient9"
       gradientUnits="userSpaceOnUse"
       gradientTransform="matrix(0.9852956,0.0011427,-0.0011427,0.9852956,65.43657,-1.4696947)"
       x1="-38.254696"
       y1="34"
       x2="-32.305027"
       y2="34.006657" /><linearGradient
       inkscape:collect="always"
       id="linearGradient10"
       gradientTransform="scale(1.8708283,0.53452261)"
       x1="20.08079"
       y1="57.995676"
       x2="23.822448"
       y2="57.995676"
       gradientUnits="userSpaceOnUse"><stop
         style="stop-color:#aeabba;stop-opacity:1"
         offset="0"
         id="stop8" /><stop
         style="stop-color:#adaab9;stop-opacity:0"
         offset="1"
         id="stop9" /></linearGradient><linearGradient
       inkscape:collect="always"
       xlink:href="#linearGradient224686"
       id="linearGradient11"
       gradientUnits="userSpaceOnUse"
       gradientTransform="matrix(0.9852956,0.0011427,-0.0011427,0.9852956,76.43657,-1.4696947)"
       x1="-38.254696"
       y1="34"
       x2="-32.305027"
       y2="34.006657" /><linearGradient
       inkscape:collect="always"
       xlink:href="#linearGradient224686"
       id="linearGradient16"
       gradientUnits="userSpaceOnUse"
       gradientTransform="matrix(0.9852956,0.0011427,-0.0011427,0.9852956,85.936501,-1.4656747)"
       x1="-38.254696"
       y1="34"
       x2="-32.305027"
       y2="34.006657" /></defs><sodipodi:namedview
     showguides="false"
     id="base"
     pagecolor="#ffffff"
     bordercolor="#666666"
     borderopacity="1.0"
     inkscape:pageopacity="0.0"
     inkscape:pageshadow="2"
     inkscape:zoom="11.679906"
     inkscape:cx="-50.556912"
     inkscape:cy="-12.970994"
     inkscape:document-units="px"
     inkscape:current-layer="layer1"
     inkscape:document-rotation="0"
     showgrid="true"
     units="px"
     inkscape:window-width="3840"
     inkscape:window-height="2058"
     inkscape:window-x="0"
     inkscape:window-y="0"
     inkscape:window-maximized="1"
     inkscape:snap-bbox="true"
     inkscape:bbox-nodes="true"
     fit-margin-top="0"
     fit-margin-left="0"
     fit-margin-right="0"
     fit-margin-bottom="0"
     inkscape:bbox-paths="false"
     inkscape:snap-global="true"
     inkscape:pagecheckerboard="0"
     scale-x="0.26458"
     inkscape:snap-nodes="true"
     inkscape:showpageshadow="2"
     inkscape:deskcolor="#d1d1d1"><inkscape:grid
       type="xygrid"
       id="grid1504"
       originx="0"
       originy="0"
       spacingy="1"
       spacingx="1"
       units="px"
       visible="true" /><inkscape:grid
       type="xygrid"
       id="grid1507"
       spacingx="0.5"
       spacingy="0.5"
       originx="0"
       originy="0"
       units="px"
       visible="true" /></sodipodi:namedview><metadata
     id="metadata5"><rdf:RDF><cc:Work
         rdf:about=""><dc:format>image/svg+xml</dc:format><dc:type
           rdf:resource="http://purl.org/dc/dcmitype/StillImage" /></cc:Work></rdf:RDF></metadata><g
     inkscape:label="Layer 1"
     inkscape:groupmode="layer"
     id="layer1"
     transform="translate(-12.567709)"><path
       id="path50157"
       style="fill:url(#linearGradient17865);fill-opacity:1;fill-rule:evenodd;stroke:none;stroke-linecap:round;stroke-linejoin:round;stop-color:#000000"
       d="m 15.067709,0.5 h 3 l 1.937779,2 h 5.062221 v 9 h -11 l -1,-1 v -8 z"
       sodipodi:nodetypes="ccccccccc" /><path
       style="fill:none;stroke:#ffffff;stroke-width:1px;stroke-linecap:butt;stroke-linejoin:miter;stroke-opacity:1"
       d="m 19.567709,3.5 h 5.5"
       id="path50009"
       sodipodi:nodetypes="cc" /><path
       id="rect51881"
       style="fill:url(#linearGradient70029);fill-rule:evenodd;stroke-linecap:round;stroke-linejoin:round;stop-color:#000000"
       d="m 16.067709,4.5 h 10 c 0.554,0 1,0.446 1,1 v 5 l -1,1 h -10 c -0.554,0 -1,-0.446 -1,-1 v -5 z"
       sodipodi:nodetypes="cssccsscc" /><path
       style="fill:none;fill-opacity:1;stroke:#ffff99;stroke-width:1px;stroke-linecap:butt;stroke-linejoin:miter;stroke-opacity:1"
       d="m 16.067709,5.5 v 6"
       id="path90149" /><path
       style="fill:none;fill-opacity:1;stroke:#ffff99;stroke-width:1px;stroke-linecap:butt;stroke-linejoin:miter;stroke-opacity:1"
       d="m 26.067709,5.5 v 6"
       id="path90149-3" /><path
       style="fill:none;stroke:#ffffff;stroke-width:1px;stroke-linecap:butt;stroke-linejoin:miter;stroke-opacity:1"
       d="m 15.067709,5.5 h 12"
       id="path84301"
       sodipodi:nodetypes="cc" /><path
       style="fill:none;stroke:url(#linearGradient99494);stroke-width:1px;stroke-linecap:butt;stroke-linejoin:miter;stroke-opacity:1"
       d="m 25.067709,4.5 v 7"
       id="path99486" /><rect
       style="fill:#ffe680;fill-opacity:1;fill-rule:evenodd;stroke:none;stroke-width:1;stroke-linecap:round;stroke-linejoin:round;stroke-miterlimit:4;stroke-dasharray:none;stroke-opacity:1;stop-color:#000000"
       id="rect109807"
       width="1"
       height="1"
       x="24.567709"
       y="5" /><rect
       style="fill:#ffffff;fill-opacity:1;stroke:none;stroke-linecap:butt;stroke-linejoin:miter"
       id="rect1-3-6"
       width="1"
       height="1"
       x="18.567709"
       y="2" /><rect
       style="fill:#ffffff;fill-opacity:1;stroke:none;stroke-linecap:butt;stroke-linejoin:miter"
       id="rect1-3-6-6"
       width="1"
       height="1"
       x="13.567709"
       y="2" /><path
       id="rect1-3-0"
       style="fill:#ffffff"
       d="m 14.567709,1 h 4 v 1 h -4 z" /><path
       id="rect1"
       style="fill:url(#linearGradient2);stroke:none;stroke-width:0.1;stroke-dasharray:none;stroke-opacity:1"
       d="m 14.567709,0 v 1 h 4 V 0 Z m 4,1 v 1 h 1 V 1 Z m -3,10 V 5 h -1 v 6 h -1.000004 v 1 h 2.5 9.5 1 v -1 m 0,-6 v 6 h 1 V 4 h -2 V 2 h -4.5 -1.0625 -0.4375 v 1 h 0.4375 1.0625 3.5 v 1 h -9 v 1 m -2,6 V 2.5 2 h -1 V 3.5 11 Z m 0,-9 h 1 V 1 h -1 z"
       sodipodi:nodetypes="cccccccccccccccccccccccccccccccccccccccccccccccc" /><g
       id="g1"
       transform="matrix(0.34095991,0,0,0.34095991,7.258483,-1.0136758)"><path
         style="fill:#efead8;fill-opacity:1;stroke:none;stroke-width:0.984836;stroke-linecap:butt;stroke-linejoin:miter;stroke-miterlimit:4;stroke-dasharray:none;stroke-opacity:1"
         d="m 23.58698,21.919569 -0.01887,23.062396 h 33.499998 l 0.02522,-23.023537 z"
         id="path3642-2-0"
         sodipodi:nodetypes="ccccc" /><path
         style="fill:url(#linearGradient1119-7);fill-opacity:1;stroke:none;stroke-width:0.984836;stroke-linecap:butt;stroke-linejoin:miter;stroke-miterlimit:4;stroke-dasharray:none;stroke-opacity:1"
         d="m 23.567637,22.981965 0.02262,-3.877742 1.499967,-1.122258 31.097254,0.03607 1.122693,1.1253 -0.242524,3.83863"
         id="path3338-0-8"
         sodipodi:nodetypes="cccccc" /><path
         style="fill:none;stroke:#003399;stroke-width:0.984836;stroke-linecap:butt;stroke-linejoin:miter;stroke-miterlimit:4;stroke-dasharray:none;stroke-opacity:1"
         d="M 23.567634,21.981963 23.567649,45.5 h 33.499998 l -1.5e-5,-23.518037"
         id="path1183-3-8"
         sodipodi:nodetypes="cccc" /><path
         style="fill:none;stroke:#003399;stroke-width:1;stroke-linecap:butt;stroke-linejoin:miter;stroke-miterlimit:4;stroke-dasharray:none;stroke-opacity:1"
         d="m 57.067566,21.981963 1.42e-4,-2.499999 c 8.69e-4,-0.749332 -0.750668,-1.499132 -1.5,-1.500001 l -30.499999,3e-6 c -0.749332,-8.69e-4 -1.499133,0.750669 -1.500002,1.500001 l 5.5e-5,2.499999"
         id="path116814-6-5"
         sodipodi:nodetypes="cccccc" /><path
         id="rect162604-2-0"
         style="fill:#99ccff;fill-rule:evenodd;stroke-width:0.984836;stroke-linecap:round;stroke-linejoin:round;stroke-miterlimit:4;stroke-dasharray:none;stop-color:#000000"
         d="m 46.567709,19.5 h 2 v 2 h -2 z"
         sodipodi:nodetypes="ccccc" /><path
         id="rect162604-2-7"
         style="fill:#99ccff;fill-rule:evenodd;stroke-width:0.984836;stroke-linecap:round;stroke-linejoin:round;stroke-miterlimit:4;stroke-dasharray:none;stop-color:#000000"
         d="m 50.067709,19.5 h 2 v 2 h -2 z"
         sodipodi:nodetypes="ccccc" /><path
         id="rect162604-2-76"
         style="fill:#ff794b;fill-opacity:1;fill-rule:evenodd;stroke-width:0.984836;stroke-linecap:round;stroke-linejoin:round;stroke-miterlimit:4;stroke-dasharray:none;stop-color:#000000"
         d="m 53.567709,19.5 h 2 v 2 h -2 z"
         sodipodi:nodetypes="ccccc" /><g
         id="g3"
         transform="translate(-0.476469,0.483965)"><path
           style="fill:#009900;fill-opacity:1;stroke:none;stroke-width:0.985296px;stroke-linecap:butt;stroke-linejoin:miter;stroke-opacity:1"
           d="m 27.044178,30.516035 -6.9e-5,-7.018035 3.5,-2e-6 1.5,1.5 7e-5,5.518037 z"
           id="path1441-7-9"
           sodipodi:nodetypes="cccccc" /><path
           style="fill:#ffcc66;fill-opacity:1;stroke:none;stroke-width:0.985296px;stroke-linecap:butt;stroke-linejoin:miter;stroke-opacity:1"
           d="m 28.36584,27.349713 c 0.759355,0.977586 0.995637,1.891074 1.991748,1.999271 0.843248,0.0916 0.277438,-0.431099 0.0011,-0.985295 l -0.491505,-0.985867 c 0,0 0.231094,-0.0045 0.623355,-0.004 0.492648,5.72e-4 0.644792,-0.707638 -0.01923,-0.918543 -0.494787,-0.157155 -0.545131,-0.137086 -0.827174,-0.73175 -0.248909,-0.43228 -1.38922,-0.119644 -1.38922,-0.119644 -0.202797,0.567355 -0.192927,1.09504 0.110883,1.745835 z"
           id="path1825-36-6"
           sodipodi:nodetypes="csscssccc" /></g><g
         id="g6"
         transform="translate(-0.465043,1.131005)"><path
           style="fill:#ffcc66;fill-opacity:1;stroke:none;stroke-width:0.985296px;stroke-linecap:butt;stroke-linejoin:miter;stroke-opacity:1"
           d="m 27.032752,39.868995 -6.9e-5,-7.018037 h 3.5 l 1.5,1.5 6.9e-5,5.518037 z"
           id="path1441-5-29-3"
           sodipodi:nodetypes="cccccc" /><path
           style="fill:#ff3300;fill-opacity:1;stroke:none;stroke-width:0.985296px;stroke-linecap:butt;stroke-linejoin:miter;stroke-opacity:1"
           d="m 28.343298,36.387965 c 0.759355,0.977586 1.38794,2.313993 2.38405,2.42219 0.843248,0.0916 0.273084,-0.428949 0.0011,-0.985295 l -0.743922,-1.521939 c 0.07344,-0.732096 0.07157,-1.134035 -0.322928,-1.654415 -0.301349,-0.397506 -1.285719,0.04482 -1.378826,0.305067 -0.223102,0.623597 -0.175793,1.055838 0.06048,1.434392 z"
           id="path1825-3-19-8"
           sodipodi:nodetypes="csscsscc" /><path
           style="fill:#0099ff;fill-opacity:1;stroke:none;stroke-width:0.985296px;stroke-linecap:butt;stroke-linejoin:miter;stroke-opacity:1"
           d="m 28.196077,37.202337 c -0.106244,-0.398355 2.801869,-0.913144 2.875549,-0.369581 0.120736,0.890718 -2.73768,0.886512 -2.875549,0.369581 z"
           id="path34867-4-5"
           sodipodi:nodetypes="sss" /></g><g
         id="g7"
         transform="translate(-0.303295,1.118435)"><path
           style="fill:#0099ff;fill-opacity:1;stroke:none;stroke-width:0.985296px;stroke-linecap:butt;stroke-linejoin:miter;stroke-opacity:1"
           d="m 37.871004,39.881565 -6.9e-5,-7.018037 h 3.5 l 1.5,1.5 6.9e-5,5.518037 z"
           id="path1441-5-2-7-6"
           sodipodi:nodetypes="cccccc" /><path
           style="fill:#006600;fill-opacity:1;stroke:none;stroke-width:0.985296px;stroke-linecap:butt;stroke-linejoin:miter;stroke-opacity:1"
           d="m 39.056633,36.099039 c 0.759354,0.977586 1.18906,2.342743 2.185171,2.45094 0.843247,0.0916 0.310146,-0.448649 0.0011,-0.985296 -0.155888,-0.270731 -0.206621,-1.248945 -0.206621,-1.248945 0.07344,-0.732096 0.07157,-1.134035 -0.322929,-1.654415 -0.301348,-0.397506 -1.62414,-0.256926 -1.717246,0.0033 -0.223102,0.623598 -0.175793,1.055839 0.06048,1.434393 z"
           id="path1825-3-1-4-1"
           sodipodi:nodetypes="csscsscc" /><path
           style="fill:#99ff66;fill-opacity:1;stroke:none;stroke-width:0.985296px;stroke-linecap:butt;stroke-linejoin:miter;stroke-opacity:1"
           d="m 38.951368,36.811297 c -0.106245,-0.398355 2.751056,-0.612864 2.824736,-0.0693 0.120735,0.890719 -2.686868,0.586232 -2.824736,0.0693 z"
           id="path34867-2-5-1"
           sodipodi:nodetypes="sss" /></g><path
         style="fill:#ff794b;fill-opacity:1;stroke:none;stroke-width:0.985296px;stroke-linecap:butt;stroke-linejoin:miter;stroke-opacity:1"
         d="m 37.567709,31 -6.9e-5,-7.018035 h 3.5 l 1.5,1.5 L 42.567709,31 Z"
         id="path1441-5-2-6-03-5"
         sodipodi:nodetypes="cccccc" /><path
         style="fill:url(#linearGradient4);stroke:none;stroke-width:0.985296px;stroke-linecap:butt;stroke-linejoin:miter;stroke-opacity:1"
         d="m 41.256721,27.20336 c -0.76162,0.975822 -1.194492,2.339979 -2.19085,2.445865 -0.843458,0.08964 -0.309106,-0.449367 0.0011,-0.985296 0.156515,-0.270369 0.630098,-1.008178 0.630098,-1.008178 -0.07174,-0.732264 -0.06894,-1.134198 0.326765,-1.653661 0.302269,-0.396806 1.204151,-0.493443 1.296654,-0.232973 0.221655,0.624114 0.173343,1.056244 -0.06381,1.434249 z"
         id="path1825-3-1-8-1-9"
         sodipodi:nodetypes="csscsscc" /><g
         id="g5"
         transform="translate(-0.659678,0.959964)"><path
           style="fill:#6666cc;fill-opacity:1;stroke:none;stroke-width:0.985296px;stroke-linecap:butt;stroke-linejoin:miter;stroke-opacity:1"
           d="m 47.727387,30.040036 0.0079,-7.018037 h 3.492 l 1.5,1.5 -0.0063,5.522057 z"
           id="path1441-5-2-6-0-0-8"
           sodipodi:nodetypes="cccccc" /><path
           style="fill:none;stroke:url(#linearGradient12);stroke-width:2;stroke-linecap:butt;stroke-linejoin:miter;stroke-miterlimit:4;stroke-dasharray:none;stroke-opacity:1"
           d="m 27.227387,41.040036 7,10e-7"
           id="path12773-1-0-5-1"
           sodipodi:nodetypes="cc" /><path
           style="fill:none;stroke:url(#linearGradient13);stroke-width:2;stroke-linecap:butt;stroke-linejoin:miter;stroke-miterlimit:4;stroke-dasharray:none;stroke-opacity:1"
           d="m 38.227318,41.040036 7,10e-7"
           id="path12773-1-0-5-1-1"
           sodipodi:nodetypes="cc" /><path
           style="fill:none;stroke:url(#linearGradient14);stroke-width:2;stroke-linecap:butt;stroke-linejoin:miter;stroke-miterlimit:4;stroke-dasharray:none;stroke-opacity:1"
           d="m 47.727387,41.040036 7,10e-7"
           id="path12773-1-0-5-1-9"
           sodipodi:nodetypes="cc" /><path
           style="fill:#ffcc00;fill-opacity:1;stroke:none;stroke-width:0.985296px;stroke-linecap:butt;stroke-linejoin:miter;stroke-opacity:1"
           d="m 50.686633,26.96661 c -0.586532,1.090079 -0.336281,1.615521 -1.332639,1.721407 -0.843458,0.08964 -0.309106,-0.449367 0.0011,-0.985295 0.156516,-0.27037 -0.01502,-0.713583 0.214872,-1.197546 0.315685,-0.664605 0.34629,-0.94483 0.741992,-1.464294 0.302269,-0.396806 1.202387,-0.492809 1.296654,-0.232972 0.603084,1.662346 -0.670864,1.691921 -0.922021,2.1587 z"
           id="path1825-3-1-8-3-3-4"
           sodipodi:nodetypes="sssssss" /></g><g
         id="g8"
         transform="translate(-0.648251,1.107008)"><path
           style="fill:#ff3300;fill-opacity:1;stroke:none;stroke-width:0.985296px;stroke-linecap:butt;stroke-linejoin:miter;stroke-opacity:1"
           d="m 47.71596,39.892992 0.0079,-7.018037 h 3.492 l 1.5,1.5 6.9e-5,5.518037 z"
           id="path1441-5-2-9-2-8"
           sodipodi:nodetypes="cccccc" /><path
           style="fill:url(#linearGradient33988-2);fill-opacity:1;stroke:none;stroke-width:0.985296px;stroke-linecap:butt;stroke-linejoin:miter;stroke-opacity:1"
           d="m 51.661175,36.240057 c -0.03722,0.271311 -0.04241,0.643833 -0.200162,0.900906 -0.497259,0.810293 -1.280543,1.435123 -2.036931,1.515506 -0.843458,0.08964 -0.309104,-0.449366 0.0011,-0.985296 0.07518,-0.129867 -0.397086,-0.149414 -0.572405,-0.328951 -0.189676,-0.194241 -0.0722,-0.520434 0.161712,-0.593095 1.533793,-0.476441 0.376601,-1.662124 0.946976,-1.980078 1.454444,-0.810774 1.888685,0.09344 1.699667,1.471008 z"
           id="path1825-3-1-6-6-1"
           sodipodi:nodetypes="ssssssss" /></g><path
         style="fill:none;stroke:url(#linearGradient9);stroke-width:2;stroke-linecap:butt;stroke-linejoin:miter;stroke-miterlimit:4;stroke-dasharray:none;stroke-opacity:1"
         d="m 26.567709,32 7,10e-7"
         id="path12773-1-0"
         sodipodi:nodetypes="cc" /><path
         style="fill:none;stroke:url(#linearGradient10);stroke-width:2;stroke-linecap:butt;stroke-linejoin:miter;stroke-miterlimit:4;stroke-dasharray:none;stroke-opacity:1"
         d="m 37.567709,32 7,10e-7"
         id="path12773-1-0-5"
         sodipodi:nodetypes="cc" /><path
         style="fill:none;stroke:url(#linearGradient11);stroke-width:2;stroke-linecap:butt;stroke-linejoin:miter;stroke-miterlimit:4;stroke-dasharray:none;stroke-opacity:1"
         d="m 47.06764,32.00402 7,1e-6"
         id="path12773-1-0-5-9"
         sodipodi:nodetypes="cc" /></g></g></svg>
