<?xml version="1.0" encoding="UTF-8" standalone="no"?>
<svg
   width="256"
   height="256"
   viewBox="0 0 256 256"
   version="1.1"
   id="svg8"
   inkscape:version="1.1.2 (0a00cf5339, 2022-02-04)"
   sodipodi:docname="trash-full-32.svg"
   inkscape:export-filename="trash-full.png"
   inkscape:export-xdpi="96"
   inkscape:export-ydpi="96"
   xmlns:inkscape="http://www.inkscape.org/namespaces/inkscape"
   xmlns:sodipodi="http://sodipodi.sourceforge.net/DTD/sodipodi-0.dtd"
   xmlns:xlink="http://www.w3.org/1999/xlink"
   xmlns="http://www.w3.org/2000/svg"
   xmlns:svg="http://www.w3.org/2000/svg"
   xmlns:rdf="http://www.w3.org/1999/02/22-rdf-syntax-ns#"
   xmlns:cc="http://creativecommons.org/ns#"
   xmlns:dc="http://purl.org/dc/elements/1.1/">
  <defs
     id="defs2">
    <linearGradient
       inkscape:collect="always"
       id="linearGradient53867">
      <stop
         style="stop-color:#ffffac;stop-opacity:1"
         offset="0"
         id="stop53863" />
      <stop
         style="stop-color:#ffffff;stop-opacity:1"
         offset="0.42978305"
         id="stop56270" />
      <stop
         style="stop-color:#ffffc0;stop-opacity:1"
         offset="0.60416293"
         id="stop56272" />
      <stop
         style="stop-color:#ffffff;stop-opacity:1"
         offset="0.78536308"
         id="stop56274" />
      <stop
         style="stop-color:#ffe7b9;stop-opacity:1"
         offset="1"
         id="stop53865" />
    </linearGradient>
    <linearGradient
       inkscape:collect="always"
       id="linearGradient17288">
      <stop
         style="stop-color:#9a9acd;stop-opacity:1"
         offset="0"
         id="stop17284" />
      <stop
         style="stop-color:#ffffff;stop-opacity:1"
         offset="0.57070649"
         id="stop17507" />
      <stop
         style="stop-color:#e4ffff;stop-opacity:1"
         offset="1"
         id="stop17286" />
    </linearGradient>
    <linearGradient
       inkscape:collect="always"
       id="linearGradient2794">
      <stop
         style="stop-color:#9a9acd;stop-opacity:1"
         offset="0"
         id="stop2790" />
      <stop
         style="stop-color:#e5e5f2;stop-opacity:1"
         offset="1"
         id="stop2792" />
    </linearGradient>
    <linearGradient
       inkscape:collect="always"
       id="linearGradient1189">
      <stop
         style="stop-color:#a5d1fd;stop-opacity:1"
         offset="0"
         id="stop1185" />
      <stop
         style="stop-color:#d2f7fe;stop-opacity:1"
         offset="1"
         id="stop1187" />
    </linearGradient>
    <linearGradient
       inkscape:collect="always"
       id="linearGradient1173">
      <stop
         style="stop-color:#67b0ed;stop-opacity:1"
         offset="0"
         id="stop1169" />
      <stop
         id="stop1193"
         offset="0.62779731"
         style="stop-color:#aad9ff;stop-opacity:1" />
      <stop
         style="stop-color:#deffff;stop-opacity:1"
         offset="1"
         id="stop1171" />
    </linearGradient>
    <linearGradient
       inkscape:collect="always"
       id="linearGradient1163">
      <stop
         style="stop-color:#ccf2ff;stop-opacity:1"
         offset="0"
         id="stop1159" />
      <stop
         id="stop1167"
         offset="0.5"
         style="stop-color:#9fd1ff;stop-opacity:1" />
      <stop
         style="stop-color:#deffff;stop-opacity:1"
         offset="1"
         id="stop1161" />
    </linearGradient>
    <linearGradient
       inkscape:collect="always"
       id="linearGradient1145">
      <stop
         style="stop-color:#62aeeb;stop-opacity:1"
         offset="0"
         id="stop1141" />
      <stop
         style="stop-color:#97cbfe;stop-opacity:1"
         offset="1"
         id="stop1143" />
    </linearGradient>
    <linearGradient
       gradientUnits="userSpaceOnUse"
       y2="2.5"
       x2="54.567711"
       y1="11"
       x1="31.567709"
       id="linearGradient1147-3"
       xlink:href="#linearGradient1145"
       inkscape:collect="always"
       gradientTransform="matrix(5.2226384,0,0,5.2226384,-48.372504,-0.4435826)" />
    <linearGradient
       gradientUnits="userSpaceOnUse"
       y2="0.99360228"
       x2="52.320591"
       y1="10.141542"
       x1="29.20693"
       id="linearGradient1183-5"
       xlink:href="#linearGradient1145"
       inkscape:collect="always"
       gradientTransform="matrix(5.2226384,0,0,5.2226384,-48.372504,-0.4435826)" />
    <linearGradient
       gradientUnits="userSpaceOnUse"
       y2="14.448513"
       x2="37.567711"
       y1="39"
       x1="37.567711"
       id="linearGradient1175-3"
       xlink:href="#linearGradient1173"
       inkscape:collect="always"
       gradientTransform="matrix(5.2226384,0,0,5.2226384,-48.372504,-0.4435826)" />
    <linearGradient
       gradientUnits="userSpaceOnUse"
       y2="22.5"
       x2="56.567711"
       y1="22.621016"
       x1="14.059734"
       id="linearGradient1191-9"
       xlink:href="#linearGradient1189"
       inkscape:collect="always"
       gradientTransform="matrix(5.2226384,0,0,5.2226384,-48.372504,-0.4435826)" />
    <linearGradient
       gradientUnits="userSpaceOnUse"
       y2="39.5"
       x2="52.567711"
       y1="39.50658"
       x1="21.491629"
       id="linearGradient1165-7"
       xlink:href="#linearGradient1163"
       inkscape:collect="always"
       gradientTransform="matrix(5.2226384,0,0,5.2226384,-48.372504,-0.4435826)" />
    <linearGradient
       inkscape:collect="always"
       xlink:href="#linearGradient2794"
       id="linearGradient2796"
       x1="-92.467355"
       y1="25.5"
       x2="-74.740646"
       y2="25.5"
       gradientUnits="userSpaceOnUse" />
    <linearGradient
       inkscape:collect="always"
       xlink:href="#linearGradient17288"
       id="linearGradient17290"
       x1="-81.59108"
       y1="46.71088"
       x2="-94.728264"
       y2="21.695705"
       gradientUnits="userSpaceOnUse" />
    <linearGradient
       inkscape:collect="always"
       xlink:href="#linearGradient53867"
       id="linearGradient53869"
       x1="-75.836609"
       y1="7.0810003"
       x2="-83.961685"
       y2="25.279911"
       gradientUnits="userSpaceOnUse" />
    <filter
       inkscape:collect="always"
       style="color-interpolation-filters:sRGB"
       id="filter98527"
       x="-0.078390075"
       y="-0.071890981"
       width="1.1567802"
       height="1.143782">
      <feGaussianBlur
         inkscape:collect="always"
         stdDeviation="7.1825459"
         id="feGaussianBlur98529" />
    </filter>
  </defs>
  <sodipodi:namedview
     showguides="false"
     inkscape:snap-grids="true"
     inkscape:snap-others="true"
     inkscape:snap-smooth-nodes="true"
     inkscape:object-paths="false"
     id="base"
     pagecolor="#ffffff"
     bordercolor="#666666"
     borderopacity="1.0"
     inkscape:pageopacity="0.0"
     inkscape:pageshadow="2"
     inkscape:zoom="4"
     inkscape:cx="89.25"
     inkscape:cy="79.375"
     inkscape:document-units="px"
     inkscape:current-layer="layer1"
     inkscape:document-rotation="0"
     showgrid="false"
     units="px"
     inkscape:window-width="3840"
     inkscape:window-height="2050"
     inkscape:window-x="3840"
     inkscape:window-y="0"
     inkscape:window-maximized="1"
     inkscape:snap-bbox="true"
     inkscape:bbox-nodes="true"
     fit-margin-top="0"
     fit-margin-left="0"
     fit-margin-right="0"
     fit-margin-bottom="0"
     inkscape:bbox-paths="false"
     inkscape:snap-global="true"
     inkscape:pagecheckerboard="0">
    <inkscape:grid
       type="xygrid"
       id="grid1504"
       originx="0"
       originy="0" />
    <inkscape:grid
       type="xygrid"
       id="grid1507"
       spacingx="0.5"
       spacingy="0.5"
       originx="0"
       originy="0" />
  </sodipodi:namedview>
  <metadata
     id="metadata5">
    <rdf:RDF>
      <cc:Work
         rdf:about="">
        <dc:format>image/svg+xml</dc:format>
        <dc:type
           rdf:resource="http://purl.org/dc/dcmitype/StillImage" />
      </cc:Work>
    </rdf:RDF>
  </metadata>
  <g
     inkscape:label="Layer 1"
     inkscape:groupmode="layer"
     id="layer1"
     transform="translate(-12.567709)">
    <path
       id="path98358"
       style="color:#000000;fill:#000000;fill-opacity:1;stroke-width:5;-inkscape-stroke:none;filter:url(#filter98527)"
       d="m 235.95588,12.829007 c -7.64146,-0.344443 -17.01131,-2.56927 -28.01953,2.934839 -4.53449,2.267248 -9.65427,5.000779 -15.0957,7.882813 l -4.61328,-13.132812 -94.251965,29.623046 0.974609,2.535156 4.585938,11.923828 C 97.85962,54.105887 96.18482,53.620978 94.537905,53.181815 86.163234,50.948641 78.176797,49.44744 70.655093,49.44744 c -10.929616,0 -19.684558,3.20199 -25.572266,8.83789 -5.887707,5.635901 -8.748475,13.630683 -8.259766,22.523438 3.025148,55.047162 21.768623,110.470632 33.955079,143.669922 0.01107,0.0748 0.01102,0.15207 0.02344,0.22656 1.111974,6.67184 7.704767,12.66552 17.339844,17.44336 9.635078,4.77784 22.606416,8.1465 37.351566,8.14649 29.21691,0 58.57859,-8.58299 80.47656,-19.52149 10.94899,-5.46925 20.02973,-11.51752 26.33985,-17.52148 5.16122,-4.91082 8.69331,-9.85502 9.34179,-14.76368 l 0.25196,-1.05078 C 251.63681,156.83001 258.61629,73.137513 256.1844,32.101737 h -0.004 c 0.006,-2.396538 -0.0385,-9.595392 -3.59766,-15.013672 5e-5,0.0022 -4e-5,0.0056 0,0.0078 -2.21196,-3.61371 -5.48883,-1.510209 -9.56445,-2.950466 -2.16015,-0.763362 -4.51534,-1.201591 -7.0625,-1.316405 z"
       sodipodi:nodetypes="cscccccssssccssssccccccscc" />
    <g
       id="g98264">
      <path
         style="fill:url(#linearGradient1147-3);fill-opacity:1;stroke:url(#linearGradient1183-5);stroke-width:5;stroke-linecap:butt;stroke-linejoin:miter;stroke-miterlimit:4;stroke-dasharray:none;stroke-opacity:1"
         d="M 35.54333,57.00544 C 126.9395,54.394121 171.83486,24.112485 200.05644,10.001694 228.78095,-4.3605614 244.80007,2.8228108 244.68982,24.251933 L 226.16963,75.284674 95.603672,85.729951 Z"
         id="path1129-0"
         sodipodi:nodetypes="cscccc" />
      <path
         style="fill:url(#linearGradient1175-3);fill-opacity:1;stroke:url(#linearGradient1191-9);stroke-width:5;stroke-linecap:butt;stroke-linejoin:miter;stroke-miterlimit:4;stroke-dasharray:none;stroke-opacity:1"
         d="m 61.656522,43.948844 c 28.724511,0 67.118828,23.479452 107.064088,23.501873 29.19543,0.01619 70.52441,-22.432441 75.96921,-43.198784 2.40286,40.545897 -4.60329,124.498387 -14.2168,164.604807 C 206.97115,196.6907 65.239424,218.68841 65.239424,218.68841 53.136545,185.95031 33.408258,128.85631 30.320692,72.673355 29.409388,56.090862 40.765968,43.948844 61.656522,43.948844 Z"
         id="path1127-6"
         sodipodi:nodetypes="sscccss" />
      <path
         style="fill:url(#linearGradient1165-7);fill-opacity:1;stroke:#d2f7fe;stroke-width:5;stroke-linecap:butt;stroke-linejoin:miter;stroke-miterlimit:4;stroke-dasharray:none;stroke-opacity:1"
         d="m 64.267841,216.29591 c -2.176101,-13.0566 22.654678,-41.68988 57.482229,-47.25317 50.53036,-8.07164 106.87334,7.70768 108.41919,18.52866 2.61132,18.27923 -56.22601,52.22638 -113.67503,52.22638 -28.724516,0 -50.509196,-13.19871 -52.226389,-23.50187 z"
         id="path1131-2"
         sodipodi:nodetypes="sssss" />
      <g
         id="g96638"
         transform="matrix(5.1031846,0,0,5.1031846,560.21098,-22.377297)"
         style="opacity:1">
        <path
           style="fill:url(#linearGradient53869);fill-opacity:1;stroke:#fbdc91;stroke-width:1px;stroke-linecap:butt;stroke-linejoin:miter;stroke-opacity:1"
           d="m -92.467355,11 17.5,-5.5 6.5,18.5 -16.5,6.5 z"
           id="path1115" />
        <path
           style="fill:url(#linearGradient17290);fill-opacity:1;stroke:none;stroke-width:1px;stroke-linecap:butt;stroke-linejoin:miter;stroke-opacity:1"
           d="m -100.96736,23 c 5.500005,1 10.947317,-1.406107 13.500005,-3.5 0,0 2.331729,13.869509 9,20.5 0.5,3 -0.5,9.363636 -7,7 -5.5,-2 -13.5,-13 -15.500005,-24 z"
           id="path2045"
           sodipodi:nodetypes="cccsc" />
        <path
           style="fill:url(#linearGradient2796);fill-opacity:1;stroke:none;stroke-width:1px;stroke-linecap:butt;stroke-linejoin:miter;stroke-opacity:1"
           d="m -92.467355,25.5 c 3.5,13.5 9.849156,14.5 13.5,14.5 1.862483,-1.862483 8.418375,-21.049321 -0.569178,-29.361528 C -78.859834,19.326762 -84.967355,30.5 -92.467355,25.5 Z"
           id="path1117"
           sodipodi:nodetypes="cccc" />
      </g>
      <g
         id="g8355"
         style="stroke:#f8f8f8;stroke-width:8;stroke-miterlimit:4;stroke-dasharray:none;stroke-opacity:1"
         transform="translate(0,-5.6842692)">
        <path
           style="opacity:1;fill:#019901;fill-opacity:1;stroke:#f8f8f8;stroke-width:8;stroke-linecap:round;stroke-linejoin:round;stroke-miterlimit:4;stroke-dasharray:none;stroke-opacity:1"
           d="m 131.50903,152.55137 c 13.42604,-34.27968 40.00671,-41.96853 51.32655,-29.00189 -2.48809,8.73574 -7.43961,11.943 -16.92951,16.37451 14.9268,4.87148 30.15368,5.73663 45.72369,4.92618 1.74787,-22.31691 2.52453,-42.3385 -4.02835,-57.510719 -2.86428,7.208061 -4.61544,14.743879 -7.76688,15.672519 -28.4641,-25.043719 -72.33585,5.2438 -68.3255,49.5394 z"
           id="path8351"
           sodipodi:nodetypes="ccccccc" />
        <path
           sodipodi:nodetypes="ccccccc"
           id="path8353"
           d="m 215.21905,149.89926 c -12.0192,30.46793 -40.54491,39.66048 -50.2974,27.07534 2.71694,-4.64846 7.64513,-11.14401 17.55089,-17.52021 -14.6756,-3.91333 -29.47611,-2.68579 -44.47152,-1.07706 -2.04301,18.60488 -1.41048,40.22582 5.99667,51.87637 2.38414,-7.1139 3.098,-9.92802 5.93367,-11.85463 23.76235,24.58986 68.06312,-7.34681 65.28769,-48.49981 z"
           style="opacity:1;fill:#019901;fill-opacity:1;stroke:#f8f8f8;stroke-width:8;stroke-linecap:round;stroke-linejoin:round;stroke-miterlimit:4;stroke-dasharray:none;stroke-opacity:1" />
      </g>
      <g
         id="g8349"
         transform="translate(0,-5.6842692)">
        <path
           style="opacity:1;fill:#019901;fill-opacity:1;stroke:none;stroke-width:2.5;stroke-linecap:round;stroke-linejoin:round;stroke-miterlimit:4;stroke-dasharray:none;stroke-opacity:1"
           d="m 131.50903,152.55137 c 13.42604,-34.27968 40.00671,-41.96853 51.32655,-29.00189 -2.48809,8.73574 -7.43961,11.943 -16.92951,16.37451 14.9268,4.87148 30.15368,5.73663 45.72369,4.92618 1.74787,-22.31691 2.52453,-42.3385 -4.02835,-57.510719 -2.86428,7.208061 -4.61544,14.743879 -7.76688,15.672519 -28.4641,-25.043719 -72.33585,5.2438 -68.3255,49.5394 z"
           id="path2383-0"
           sodipodi:nodetypes="ccccccc" />
        <path
           sodipodi:nodetypes="ccccccc"
           id="path2383-8-3"
           d="m 215.21905,149.89926 c -12.0192,30.46793 -40.54491,39.66048 -50.2974,27.07534 2.71694,-4.64846 7.64513,-11.14401 17.55089,-17.52021 -14.6756,-3.91333 -29.47611,-2.68579 -44.47152,-1.07706 -2.04301,18.60488 -1.41048,40.22582 5.99667,51.87637 2.38414,-7.1139 3.098,-9.92802 5.93367,-11.85463 23.76235,24.58986 68.06312,-7.34681 65.28769,-48.49981 z"
           style="opacity:1;fill:#019901;fill-opacity:1;stroke:none;stroke-width:2.5;stroke-linecap:round;stroke-linejoin:round;stroke-miterlimit:4;stroke-dasharray:none;stroke-opacity:1" />
      </g>
      <path
         style="fill:#d1f6fe;fill-opacity:1;stroke:none;stroke-width:1px;stroke-linecap:butt;stroke-linejoin:miter;stroke-opacity:1"
         d="m 242.23366,23.689675 c 1.8452,-5.437295 1.39929,-12.067085 1.34964,-14.5994372 3.58302,5.4546762 3.60356,12.7238532 3.59725,15.0711062"
         id="path8904"
         sodipodi:nodetypes="ccc" />
      <path
         style="fill:none;fill-opacity:1;stroke:url(#linearGradient1191-9);stroke-width:5;stroke-linecap:butt;stroke-linejoin:miter;stroke-miterlimit:4;stroke-dasharray:none;stroke-opacity:1"
         d="m 30.320692,72.673355 c -0.911304,-16.582493 10.445276,-28.724511 31.33583,-28.724511 28.724511,0 67.118828,23.479452 107.064088,23.501873 29.19543,0.01619 70.52441,-22.432441 75.96921,-43.198784"
         id="path97106"
         sodipodi:nodetypes="cssc" />
    </g>
  </g>
</svg>
