<?xml version="1.0" encoding="UTF-8" standalone="no"?>
<svg
   inkscape:export-ydpi="96"
   inkscape:export-xdpi="96"
   inkscape:export-filename="/media/klapeto/Αρχεία/WindowsXP Theme/Vectors/RASTER/education-math.png"
   sodipodi:docname="education-mathematics.svg"
   inkscape:version="1.1.1 (3bf5ae0d25, 2021-09-20)"
   id="svg8"
   version="1.1"
   viewBox="0 0 256 256"
   height="256"
   width="256"
   xmlns:inkscape="http://www.inkscape.org/namespaces/inkscape"
   xmlns:sodipodi="http://sodipodi.sourceforge.net/DTD/sodipodi-0.dtd"
   xmlns="http://www.w3.org/2000/svg"
   xmlns:svg="http://www.w3.org/2000/svg"
   xmlns:rdf="http://www.w3.org/1999/02/22-rdf-syntax-ns#"
   xmlns:cc="http://creativecommons.org/ns#"
   xmlns:dc="http://purl.org/dc/elements/1.1/">
  <defs
     id="defs2">
    <linearGradient
       gradientTransform="matrix(0.0251,0.0251,0.0275,-0.0275,-45.616756,27.329322)"
       gradientUnits="userSpaceOnUse"
       id="gradient0-6"
       spreadMethod="pad"
       x1="-819.20001"
       x2="819.20001">
      <stop
         offset="0.0"
         stop-color="#996600"
         id="stop1009" />
      <stop
         offset="1.0"
         stop-color="#ffcc66"
         id="stop1011" />
    </linearGradient>
    <linearGradient
       gradientTransform="matrix(0.0228,0.0228,0.027,-0.027,-47.666756,24.479322)"
       gradientUnits="userSpaceOnUse"
       id="gradient1-7"
       spreadMethod="pad"
       x1="-819.20001"
       x2="819.20001">
      <stop
         offset="0.0"
         stop-color="#996600"
         id="stop1014" />
      <stop
         offset="1.0"
         stop-color="#ffcc66"
         id="stop1016" />
    </linearGradient>
    <linearGradient
       gradientTransform="matrix(0,0.023,0.0235,0,-45.066756,23.929322)"
       gradientUnits="userSpaceOnUse"
       id="gradient2-5"
       spreadMethod="pad"
       x1="-819.20001"
       x2="819.20001">
      <stop
         offset="0.0"
         stop-color="#333333"
         id="stop1019" />
      <stop
         offset="1.0"
         stop-color="#6666cc"
         id="stop1021" />
    </linearGradient>
    <linearGradient
       gradientTransform="matrix(-0.0183,0.0183,0.0127,0.0127,-43.466756,43.929322)"
       gradientUnits="userSpaceOnUse"
       id="gradient3-3"
       spreadMethod="pad"
       x1="-819.20001"
       x2="819.20001">
      <stop
         offset="0.0"
         stop-color="#cc9900"
         id="stop1024" />
      <stop
         offset="1.0"
         stop-color="#ffcc66"
         id="stop1026" />
    </linearGradient>
    <linearGradient
       gradientTransform="matrix(-0.0177,0.0177,0.0121,0.0121,-43.166756,42.629322)"
       gradientUnits="userSpaceOnUse"
       id="gradient4-5"
       spreadMethod="pad"
       x1="-819.20001"
       x2="819.20001">
      <stop
         offset="0.0"
         stop-color="#ffcc66"
         id="stop1029" />
      <stop
         offset="1.0"
         stop-color="#ffff99"
         id="stop1031" />
    </linearGradient>
    <linearGradient
       gradientTransform="matrix(-0.0013,-0.0045,-0.0102,0.0029,-18.566756,18.129322)"
       gradientUnits="userSpaceOnUse"
       id="gradient5-62"
       spreadMethod="pad"
       x1="-819.20001"
       x2="819.20001">
      <stop
         offset="0.0"
         stop-color="#ffff99"
         id="stop1034" />
      <stop
         offset="1.0"
         stop-color="#ffffff"
         id="stop1036" />
    </linearGradient>
    <linearGradient
       gradientTransform="matrix(-0.0013,-0.0045,-0.0102,0.0029,-18.566756,18.129322)"
       gradientUnits="userSpaceOnUse"
       id="gradient6-9"
       spreadMethod="pad"
       x1="-819.20001"
       x2="819.20001">
      <stop
         offset="0.0"
         stop-color="#ffff99"
         id="stop1039" />
      <stop
         offset="1.0"
         stop-color="#ffffff"
         id="stop1041" />
    </linearGradient>
    <filter
       inkscape:collect="always"
       style="color-interpolation-filters:sRGB"
       id="filter1639"
       x="-0.044323761"
       y="-0.052341211"
       width="1.0886475"
       height="1.1046824">
      <feGaussianBlur
         inkscape:collect="always"
         stdDeviation="4.5247221"
         id="feGaussianBlur1641" />
    </filter>
  </defs>
  <sodipodi:namedview
     inkscape:snap-global="true"
     inkscape:bbox-paths="false"
     fit-margin-bottom="0"
     fit-margin-right="0"
     fit-margin-left="0"
     fit-margin-top="0"
     inkscape:bbox-nodes="true"
     inkscape:snap-bbox="true"
     inkscape:window-maximized="1"
     inkscape:window-y="0"
     inkscape:window-x="3840"
     inkscape:window-height="2045"
     inkscape:window-width="3840"
     units="px"
     showgrid="false"
     inkscape:document-rotation="0"
     inkscape:current-layer="layer1"
     inkscape:document-units="px"
     inkscape:cy="143.99999"
     inkscape:cx="26.999998"
     inkscape:zoom="2.0000001"
     inkscape:pageshadow="2"
     inkscape:pageopacity="0.0"
     borderopacity="1.0"
     bordercolor="#666666"
     pagecolor="#ffffff"
     id="base"
     inkscape:pagecheckerboard="0"
     inkscape:lockguides="true">
    <inkscape:grid
       originy="0"
       originx="0"
       id="grid1504"
       type="xygrid" />
    <inkscape:grid
       originy="0"
       originx="0"
       spacingy="0.5"
       spacingx="0.5"
       id="grid1507"
       type="xygrid" />
  </sodipodi:namedview>
  <metadata
     id="metadata5">
    <rdf:RDF>
      <cc:Work
         rdf:about="">
        <dc:format>image/svg+xml</dc:format>
        <dc:type
           rdf:resource="http://purl.org/dc/dcmitype/StillImage" />
      </cc:Work>
    </rdf:RDF>
  </metadata>
  <g
     transform="translate(-12.567709)"
     id="layer1"
     inkscape:groupmode="layer"
     inkscape:label="Layer 1">
    <path
       id="path1394"
       style="fill:#212121;fill-opacity:1;stroke-width:4.14943;filter:url(#filter1639)"
       d="M 204.57748,28.277664 21.380209,43.217117 a 4.14985,4.14985 0 0 0 -3.8125,4.134765 V 222.45735 a 4.14985,4.14985 0 0 0 2.677734,3.88086 l 24.066407,9.12891 a 4.14985,4.14985 0 0 0 2.515625,0.13476 L 226.29037,188.9222 a 4.14985,4.14985 0 0 0 3.10546,-4.01758 v -7.46875 a 4.14985,4.14985 0 0 0 -3.45507,-4.08985 l -17.28125,-2.9375 0.13867,-47.3789 c 0.46065,-0.0686 0.92188,-0.13818 1.39453,-0.22071 a 4.1497851,4.1497851 0 0 0 1.22656,-0.41992 L 257.6849,97.908523 a 4.1497851,4.1497851 0 0 0 1.71875,-1.710937 c 1.77249,-3.313794 2.89163,-6.456881 3.125,-9.583985 0.23336,-3.127103 -0.57157,-6.28878 -2.42774,-8.763672 a 4.1497851,4.1497851 0 0 0 -0.13086,-0.166015 c -3.80778,-4.569336 -9.95865,-6.41727 -17.17773,-6.263672 a 4.1497851,4.1497851 0 0 0 -1.81641,0.46289 L 208.89974,88.46907 209.0638,32.426101 a 4.14985,4.14985 0 0 0 -4.48632,-4.148437 z" />
    <g
       style="opacity:1"
       transform="translate(12.567709)"
       id="g1292" />
    <g
       transform="matrix(4.1494338,0,0,4.1494338,296.45851,18.540742)"
       id="g1207">
      <path
         d="m -67.416756,48.179322 v -42.2 l 44.15,-3.6 -0.1,34.1 5,0.85 v 1.8 l -43.25,11.25 -5.8,-2.2"
         fill="url(#gradient0)"
         fill-rule="evenodd"
         stroke="none"
         id="path965"
         style="fill:url(#gradient0-6)" />
      <path
         d="m -67.416756,48.179322 v -42.2 l 44.15,-3.6 -0.1,34.1 5,0.85 v 1.8 l -43.25,11.25 z"
         fill="none"
         stroke="#333333"
         stroke-linecap="round"
         stroke-linejoin="round"
         stroke-width="2"
         id="path967" />
      <path
         d="m -23.266756,2.379322 -44.15,3.6 v 40.6 l 44.05,-10 0.1,-34.2"
         fill="url(#gradient1)"
         fill-rule="evenodd"
         stroke="none"
         id="path969"
         style="fill:url(#gradient1-7)" />
      <path
         d="m -25.816756,5.029322 -38.55,3.95 v 33.75 l 38.55,-8.25 v -29.45"
         fill="url(#gradient2)"
         fill-rule="evenodd"
         stroke="none"
         id="path971"
         style="fill:url(#gradient2-5)" />
      <path
         d="m -61.616756,50.379322 43.25,-11.25 v -1.8 l -5,-0.75 -44.05,10 v 1.6 l 5.8,2.2"
         fill="url(#gradient3)"
         fill-rule="evenodd"
         stroke="none"
         id="path973"
         style="fill:url(#gradient3-3)" />
      <path
         d="m -61.716756,48.179322 43.25,-10.85 -5,-0.85 -43.75,10 5.5,1.7"
         fill="url(#gradient4)"
         fill-rule="evenodd"
         stroke="none"
         id="path975"
         style="fill:url(#gradient4-5)" />
      <path
         d="m -22.166756,23.179322 q -3.15,0.55 -4.15,-0.9 -1.05,-1.55 0.5,-3.45 l 11.7,-6.05 q 2.35,-0.05 3.35,1.15 0.9,1.2 -0.25,3.35 l -11.15,5.9"
         fill="url(#gradient5)"
         fill-rule="evenodd"
         stroke="none"
         id="path977"
         style="fill:url(#gradient5-62)" />
      <path
         style="stroke-width:1.99997;stroke-miterlimit:4;stroke-dasharray:none"
         d="m -22.166756,23.179322 11.15,-5.9 q 1.15,-2.15 0.25,-3.35 -1,-1.2 -3.35,-1.15 l -11.7,6.05 q -1.55,1.9 -0.5,3.45 1,1.45 4.15,0.9 z"
         fill="none"
         stroke="#333333"
         stroke-linecap="round"
         stroke-linejoin="round"
         stroke-width="2"
         id="path979" />
      <path
         d="m -14.116756,12.779322 q 2.35,-0.05 3.35,1.15 0.9,1.2 -0.25,3.35 l -11.15,5.9 q -3.15,0.55 -4.15,-0.9 -1.05,-1.55 0.5,-3.45 l 11.7,-6.05"
         fill="url(#gradient6)"
         fill-rule="evenodd"
         stroke="none"
         id="path981"
         style="fill:url(#gradient6-9)" />
      <path
         d="m -14.116756,12.779322 -11.7,6.05 q -1.55,1.9 -0.5,3.45 1,1.45 4.15,0.9 l 11.15,-5.9 q 1.15,-2.15 0.25,-3.35 -1,-1.2 -3.35,-1.15 z"
         fill="none"
         stroke="#333333"
         stroke-linecap="round"
         stroke-linejoin="round"
         stroke-width="0.5"
         id="path983-3" />
    </g>
    <g
       aria-label="2+2"
       transform="rotate(-9.0112726)"
       id="text6630"
       style="font-weight:bold;font-size:64.1067px;line-height:1.25;-inkscape-font-specification:'sans-serif Bold';text-align:center;letter-spacing:0px;word-spacing:0px;text-anchor:middle;fill:#ffff99;stroke-width:4.00666">
      <path
         d="M 73.845143,152.97093 H 41.855901 v -6.7312 l 11.475098,-11.60331 q 3.461762,-3.58998 5.577283,-5.96193 2.115521,-2.43605 3.077122,-4.35925 0.9616,-1.98731 0.9616,-4.23104 0,-2.75659 -1.538561,-4.10283 -1.474454,-1.34624 -4.038722,-1.34624 -2.628374,0 -5.128535,1.21802 -2.500162,1.21803 -5.25675,3.46177 l -5.256749,-6.21835 q 1.987308,-1.73088 4.166936,-3.20534 2.243734,-1.47445 5.128535,-2.37195 2.948908,-0.9616 7.051737,-0.9616 4.487469,0 7.692804,1.66678 3.269441,1.60266 5.000322,4.42336 1.794988,2.75659 1.794988,6.28246 0,3.78229 -1.538561,6.92352 -1.474454,3.14123 -4.359256,6.21835 -2.820694,3.07712 -6.859416,6.79531 l -5.897816,5.51317 v 0.44875 h 19.937183 z"
         id="path30082" />
      <path
         d="m 97.692745,126.94361 h 12.116165 v 6.85942 H 97.692745 v 12.05206 H 90.833328 V 133.80303 H 78.717162 v -6.85942 h 12.116166 v -12.18027 h 6.859417 z"
         id="path30084" />
      <path
         d="m 147.18303,152.97093 h -31.98925 v -6.7312 l 11.4751,-11.60331 q 3.46176,-3.58998 5.57729,-5.96193 2.11552,-2.43605 3.07712,-4.35925 0.9616,-1.98731 0.9616,-4.23104 0,-2.75659 -1.53856,-4.10283 -1.47446,-1.34624 -4.03873,-1.34624 -2.62837,0 -5.12853,1.21802 -2.50016,1.21803 -5.25675,3.46177 l -5.25675,-6.21835 q 1.98731,-1.73088 4.16694,-3.20534 2.24373,-1.47445 5.12853,-2.37195 2.94891,-0.9616 7.05174,-0.9616 4.48747,0 7.6928,1.66678 3.26944,1.60266 5.00032,4.42336 1.79499,2.75659 1.79499,6.28246 0,3.78229 -1.53856,6.92352 -1.47445,3.14123 -4.35925,6.21835 -2.8207,3.07712 -6.85942,6.79531 l -5.89782,5.51317 v 0.44875 h 19.93719 z"
         id="path30086" />
    </g>
  </g>
</svg>
