<?xml version="1.0" encoding="UTF-8" standalone="no"?>
<svg
   width="256"
   height="256"
   viewBox="0 0 256 256"
   version="1.1"
   id="svg8"
   inkscape:version="1.1.1 (3bf5ae0d25, 2021-09-20)"
   sodipodi:docname="printers-hardware.svg"
   inkscape:export-filename="/home/klapeto/document-print.png"
   inkscape:export-xdpi="96"
   inkscape:export-ydpi="96"
   xmlns:inkscape="http://www.inkscape.org/namespaces/inkscape"
   xmlns:sodipodi="http://sodipodi.sourceforge.net/DTD/sodipodi-0.dtd"
   xmlns:xlink="http://www.w3.org/1999/xlink"
   xmlns="http://www.w3.org/2000/svg"
   xmlns:svg="http://www.w3.org/2000/svg"
   xmlns:rdf="http://www.w3.org/1999/02/22-rdf-syntax-ns#"
   xmlns:cc="http://creativecommons.org/ns#"
   xmlns:dc="http://purl.org/dc/elements/1.1/">
  <defs
     id="defs2">
    <linearGradient
       inkscape:collect="always"
       id="linearGradient1009">
      <stop
         style="stop-color:#f1f1f1;stop-opacity:1"
         offset="0"
         id="stop1005" />
      <stop
         style="stop-color:#e0e0e0;stop-opacity:1"
         offset="1"
         id="stop1007" />
    </linearGradient>
    <linearGradient
       id="linearGradient1029"
       inkscape:collect="always">
      <stop
         id="stop1025"
         offset="0"
         style="stop-color:#636394;stop-opacity:1" />
      <stop
         id="stop1027"
         offset="1"
         style="stop-color:#8188c5;stop-opacity:1" />
    </linearGradient>
    <linearGradient
       inkscape:collect="always"
       id="linearGradient1535">
      <stop
         style="stop-color:#fefeff;stop-opacity:1"
         offset="0"
         id="stop1531" />
      <stop
         style="stop-color:#b5daff;stop-opacity:1"
         offset="1"
         id="stop1533" />
    </linearGradient>
    <linearGradient
       inkscape:collect="always"
       id="linearGradient1523">
      <stop
         style="stop-color:#a1a1a1;stop-opacity:1"
         offset="0"
         id="stop1519" />
      <stop
         style="stop-color:#d6d6d6;stop-opacity:1"
         offset="1"
         id="stop1521" />
    </linearGradient>
    <linearGradient
       inkscape:collect="always"
       id="linearGradient1509">
      <stop
         style="stop-color:#cfcfcf;stop-opacity:1"
         offset="0"
         id="stop1505" />
      <stop
         style="stop-color:#fafafa;stop-opacity:1"
         offset="1"
         id="stop1507" />
    </linearGradient>
    <linearGradient
       inkscape:collect="always"
       id="linearGradient1499">
      <stop
         style="stop-color:#a7a7a7;stop-opacity:1"
         offset="0"
         id="stop1495" />
      <stop
         style="stop-color:#c0c0c0;stop-opacity:1"
         offset="1"
         id="stop1497" />
    </linearGradient>
    <linearGradient
       inkscape:collect="always"
       id="linearGradient1483">
      <stop
         style="stop-color:#2d2d2d;stop-opacity:1"
         offset="0"
         id="stop1479" />
      <stop
         id="stop1487"
         offset="0.5"
         style="stop-color:#9d9d9d;stop-opacity:1" />
      <stop
         style="stop-color:#838383;stop-opacity:1"
         offset="1"
         id="stop1481" />
    </linearGradient>
    <linearGradient
       inkscape:collect="always"
       xlink:href="#linearGradient1483"
       id="linearGradient1485"
       x1="11.167826"
       y1="96.737518"
       x2="115.56771"
       y2="96.737518"
       gradientUnits="userSpaceOnUse"
       gradientTransform="translate(-130,115)" />
    <linearGradient
       inkscape:collect="always"
       xlink:href="#linearGradient1499"
       id="linearGradient1501"
       x1="-373.93228"
       y1="74.75"
       x2="-244.9323"
       y2="74.75"
       gradientUnits="userSpaceOnUse"
       gradientTransform="translate(224.5,115)" />
    <linearGradient
       inkscape:collect="always"
       xlink:href="#linearGradient1509"
       id="linearGradient1511"
       x1="-342.54907"
       y1="0.1497875"
       x2="-349.72525"
       y2="102.66159"
       gradientUnits="userSpaceOnUse"
       gradientTransform="translate(156.38623,114.99367)" />
    <linearGradient
       inkscape:collect="always"
       xlink:href="#linearGradient1523"
       id="linearGradient1525"
       x1="-384.43228"
       y1="-36.28249"
       x2="-295.43228"
       y2="-36.28249"
       gradientUnits="userSpaceOnUse"
       gradientTransform="translate(217,137.43546)" />
    <linearGradient
       gradientTransform="translate(0,115)"
       inkscape:collect="always"
       xlink:href="#linearGradient1535"
       id="linearGradient1537"
       x1="-162.4323"
       y1="-113"
       x2="-162.4323"
       y2="-21"
       gradientUnits="userSpaceOnUse" />
    <linearGradient
       gradientTransform="translate(0,115)"
       gradientUnits="userSpaceOnUse"
       y2="-20"
       x2="-175.9323"
       y1="-115"
       x1="-175.9323"
       id="linearGradient1031"
       xlink:href="#linearGradient1029"
       inkscape:collect="always" />
    <linearGradient
       inkscape:collect="always"
       xlink:href="#linearGradient1009"
       id="linearGradient1011"
       x1="-173.81999"
       y1="134.13057"
       x2="-34.83263"
       y2="107.59556"
       gradientUnits="userSpaceOnUse" />
    <linearGradient
       inkscape:collect="always"
       id="linearGradient155888">
      <stop
         style="stop-color:#c7c7c7;stop-opacity:1"
         offset="0"
         id="stop155884" />
      <stop
         style="stop-color:#fbfbfb;stop-opacity:1"
         offset="1"
         id="stop155886" />
    </linearGradient>
    <linearGradient
       inkscape:collect="always"
       id="linearGradient44216">
      <stop
         style="stop-color:#ffffff;stop-opacity:0"
         offset="0"
         id="stop44212" />
      <stop
         style="stop-color:#ffffff;stop-opacity:1"
         offset="1"
         id="stop44214" />
    </linearGradient>
    <linearGradient
       inkscape:collect="always"
       id="linearGradient29560">
      <stop
         style="stop-color:#e1e1e1;stop-opacity:1"
         offset="0"
         id="stop29556" />
      <stop
         style="stop-color:#f1f1f1;stop-opacity:1"
         offset="0.5"
         id="stop70897" />
      <stop
         style="stop-color:#ebebeb;stop-opacity:1"
         offset="1"
         id="stop29558" />
    </linearGradient>
    <linearGradient
       inkscape:collect="always"
       id="linearGradient11961">
      <stop
         style="stop-color:#ffffff;stop-opacity:1"
         offset="0"
         id="stop11957" />
      <stop
         style="stop-color:#ffffff;stop-opacity:1"
         offset="1"
         id="stop11959" />
    </linearGradient>
    <linearGradient
       inkscape:collect="always"
       xlink:href="#linearGradient11961"
       id="linearGradient11963"
       x1="-103.35112"
       y1="46.020035"
       x2="-103.35112"
       y2="22.819208"
       gradientUnits="userSpaceOnUse" />
    <linearGradient
       inkscape:collect="always"
       xlink:href="#linearGradient29560"
       id="linearGradient29562"
       x1="-101.61787"
       y1="51.99313"
       x2="-88.293831"
       y2="22.435371"
       gradientUnits="userSpaceOnUse" />
    <linearGradient
       inkscape:collect="always"
       xlink:href="#linearGradient44216"
       id="linearGradient44218"
       x1="-99.203766"
       y1="45.007095"
       x2="-87.911499"
       y2="45.007095"
       gradientUnits="userSpaceOnUse" />
    <linearGradient
       inkscape:collect="always"
       xlink:href="#linearGradient155888"
       id="linearGradient155890"
       x1="-116.37477"
       y1="18.002298"
       x2="-97.694679"
       y2="18.002298"
       gradientUnits="userSpaceOnUse" />
    <filter
       inkscape:collect="always"
       style="color-interpolation-filters:sRGB"
       id="filter4636"
       x="-0.048312874"
       y="-0.048214819"
       width="1.0966257"
       height="1.0964296">
      <feGaussianBlur
         inkscape:collect="always"
         stdDeviation="4.8004479"
         id="feGaussianBlur4638" />
    </filter>
  </defs>
  <sodipodi:namedview
     id="base"
     pagecolor="#ffffff"
     bordercolor="#666666"
     borderopacity="1.0"
     inkscape:pageopacity="0.0"
     inkscape:pageshadow="2"
     inkscape:zoom="0.60801516"
     inkscape:cx="323.18273"
     inkscape:cy="229.43507"
     inkscape:document-units="px"
     inkscape:current-layer="layer1"
     inkscape:document-rotation="0"
     showgrid="false"
     units="px"
     inkscape:window-width="3840"
     inkscape:window-height="2043"
     inkscape:window-x="3840"
     inkscape:window-y="0"
     inkscape:window-maximized="1"
     inkscape:snap-bbox="true"
     inkscape:bbox-nodes="true"
     fit-margin-top="0"
     fit-margin-left="0"
     fit-margin-right="0"
     fit-margin-bottom="0"
     inkscape:bbox-paths="false"
     inkscape:snap-global="true"
     inkscape:snap-smooth-nodes="true"
     showguides="false"
     inkscape:pagecheckerboard="0">
    <inkscape:grid
       type="xygrid"
       id="grid1504"
       originx="0"
       originy="0" />
    <inkscape:grid
       type="xygrid"
       id="grid1507"
       spacingx="0.5"
       spacingy="0.5"
       originx="0"
       originy="0" />
  </sodipodi:namedview>
  <metadata
     id="metadata5">
    <rdf:RDF>
      <cc:Work
         rdf:about="">
        <dc:format>image/svg+xml</dc:format>
        <dc:type
           rdf:resource="http://purl.org/dc/dcmitype/StillImage" />
      </cc:Work>
    </rdf:RDF>
  </metadata>
  <g
     inkscape:label="Layer 1"
     inkscape:groupmode="layer"
     id="layer1"
     transform="translate(-12.567709)">
    <path
       id="path3620"
       style="mix-blend-mode:normal;fill:#212121;fill-opacity:1;stroke-width:0.789248px;filter:url(#filter4636)"
       d="m 128.24899,8.5722523 c -4.18307,0.025263 -8.5826,1.9889977 -12.18164,5.0683597 -4.11322,3.519271 -7.22693,8.640919 -7.20508,14.464844 0.028,7.392788 3.76568,12.071961 8.06836,14.486328 4.30273,2.41437 9.00993,2.842105 11.875,2.568359 6.20211,-0.592581 11.82352,-5.96276 17.35742,-10.841797 5.53387,-4.879033 10.96567,-9.175059 14.73242,-9.123047 2.83717,0.03917 4.66374,1.288074 6.28711,3.28125 1.26959,1.558795 2.29914,3.572596 3.23047,5.595704 -2.98767,0.810148 -6.07892,1.85159 -9.08789,3.210937 -8.63753,3.902135 -16.67446,10.468591 -18.41015,20.882813 -2.90323,17.419239 -2.31571,43.743627 0.9082,62.685547 l -12.35156,-3.52148 c -0.48158,-5.36942 -1.55215,-14.76412 -4.07813,-24.646489 -3.52327,-13.784021 -9.79053,-28.629293 -21.70703,-34.697266 -0.19858,-0.101963 -0.42313,-0.149307 -0.64844,-0.136719 l -72.046872,4.232422 c -1.426764,0.07459 -1.569959,2.022706 -0.167969,2.285157 5.011085,0.970269 9.310504,4.662785 12.962891,10.072265 3.652388,5.409478 6.602224,12.467294 8.935547,19.8125 3.698358,11.64228 5.823738,23.773 7.068359,31.56836 l -14.333984,2.06446 c -0.592912,0.086 -1.030989,0.57052 -1.03125,1.14062 v 13.08789 c -4.829985,0.15718 -8.925442,1.35704 -12.275391,3.21484 -8.264528,4.58332 -12.013672,12.68375 -12.013672,17.93946 v 48.47656 c 3.52e-4,0.41839 0.238683,0.80391 0.623047,1.00781 l 63.144532,33.47266 c 0.319696,0.16972 0.702858,0.19338 1.042968,0.0644 l 23.568354,-8.94336 20.76368,10.05469 c 0.32405,0.15594 0.70448,0.16596 1.03711,0.0273 l 63.95117,-26.54687 c 0.44265,-0.18307 0.72935,-0.59779 0.73047,-1.05664 v -6.92578 c -2.4e-4,-0.5118 -0.35472,-0.96244 -0.8711,-1.10742 l -10.51953,-2.94141 5.76953,-2.1875 c 0.46188,-0.17574 0.76443,-0.60132 0.76368,-1.07422 v -34.01172 c 4.88571,0.82 10.12304,1.14217 15.71875,0.84766 17.33486,-0.91236 31.21125,-9.03642 40.69726,-19.60938 9.48601,-10.57296 12.04809,-23.57379 12.04809,-34.65039 0,-8.45078 -3.88553,-21.676035 -11.02149,-36.087891 -7.13596,-14.411856 -17.55596,-29.893917 -30.84179,-42.271484 -5.89872,-5.495467 -10.69813,-7.575597 -17.51098,-8.246094 -3.22158,-0.317057 -6.28139,-0.310403 -9.00586,-0.210938 -1.43901,-2.937095 -4.72989,-7.565021 -9.61719,-11.865234 -5.28847,-4.65319 -12.43857,-8.781934 -20.78711,-8.732422 -9.03688,0.05358 -15.81415,5.85366 -21.21875,11.335938 -2.70229,2.741141 -5.10078,5.437186 -7.23242,7.396484 -2.13163,1.959302 -3.96655,3.03632 -5.24023,3.095703 -2.87791,0.134167 -4.37535,-0.620165 -5.30078,-1.601563 -0.92539,-0.981394 -1.34267,-2.385968 -1.36329,-3.808593 -0.021,-1.438061 0.64148,-3.742255 2.04883,-5.376953 1.40739,-1.634697 3.39852,-2.760841 6.71094,-2.34961 2.48599,0.308628 4.58772,0.102606 6.24805,-0.546875 1.6603,-0.649489 3.05147,-1.87699 3.24609,-3.623047 0.19463,-1.746057 -0.93369,-3.312633 -2.58203,-4.363281 -1.64833,-1.0506447 -3.96339,-1.8079538 -7.10938,-2.2265627 -0.58576,-0.077943 -1.17976,-0.1129839 -1.77734,-0.109375 z m 16.9375,119.0644577 c 0.0444,0.19232 0.0858,0.39416 0.13086,0.58398 -0.0436,0.001 -0.0872,0.003 -0.13086,0.004 z"
       sodipodi:nodetypes="cscssssscscccsccccssccccsscccccccccccccccsssssscssssscccssssscccccc" />
    <g
       style="opacity:1"
       transform="translate(12.567709)"
       id="g1180" />
    <g
       id="g3618">
      <g
         id="g976"
         transform="matrix(0.82458764,0,0,0.78378751,-13.106214,53.848925)"
         style="opacity:1">
        <g
           transform="matrix(0.98173876,0,0,0.98173876,261.42939,-5.2098029e-6)"
           id="g1092">
          <path
             id="path1527"
             d="M -197.43229,92.5 V 111 l 7.60161,0.81077 7.2212,1.70374 7.63962,3.05252 8.18085,4.21174 V 100.0617 l -29.06452,-7.838384 z"
             style="fill:#f3f3f3;fill-opacity:1;stroke:none;stroke-width:1px;stroke-linecap:butt;stroke-linejoin:miter;stroke-opacity:1" />
          <path
             sodipodi:nodetypes="ccccccc"
             id="path1491"
             d="M -93.932291,233.5 V 245 l 1,-0.5 78.5,-34 v -9 l -3,-0.5 z"
             style="fill:#ffffff;fill-opacity:1;stroke:none;stroke-width:1px;stroke-linecap:butt;stroke-linejoin:miter;stroke-opacity:1" />
          <path
             sodipodi:nodetypes="ccccc"
             id="path1489"
             d="M -93.432291,245 V 233.49886 L -122.01558,217.57364 -122.43229,230.5 Z"
             style="fill:#9292bf;fill-opacity:1;stroke:none;stroke-width:1px;stroke-linecap:butt;stroke-linejoin:miter;stroke-opacity:1" />
          <path
             style="fill:#303030;fill-opacity:1;stroke:none;stroke-width:1px;stroke-linecap:butt;stroke-linejoin:miter;stroke-opacity:1"
             d="m -38.064195,195.11882 -17.022946,-5.07163 17.925291,-7.1651 z"
             id="path1023" />
          <path
             sodipodi:nodetypes="ccccc"
             id="path1477"
             d="m -93.432291,234.5 79,-33 -44.000001,-13 -72.999998,26.5 z"
             style="fill:url(#linearGradient1485);fill-opacity:1;stroke:none;stroke-width:1px;stroke-linecap:butt;stroke-linejoin:miter;stroke-opacity:1" />
          <path
             id="path1513"
             d="m -214.59448,115.85614 61.5,59.5 133.000003,-33 -0.5,-8.5 -1.5,-6.5 -4.5,-8.5 -7.5,-9 -6.5,-6 -6,-3.5 -7.5,-3.5 -10,-3 -7.5,-1 h -7 l -119.000003,18 -5,0.5 -7.5,2 z"
             style="fill:url(#linearGradient1011);fill-opacity:1;stroke:none;stroke-width:1px;stroke-linecap:butt;stroke-linejoin:miter;stroke-opacity:1" />
          <path
             id="path1517"
             d="M -167.43229,120.5 V 99.435457 L -83.91231,81.805933 -78.43229,83.5 v 18 z"
             style="fill:url(#linearGradient1525);fill-opacity:1;stroke:none;stroke-width:1px;stroke-linecap:butt;stroke-linejoin:miter;stroke-opacity:1" />
          <path
             id="path1515"
             d="m -197.43229,92.5 30,8.5 89,-17.5 -20,-6 z"
             style="fill:#e8e8e8;fill-opacity:1;stroke:none;stroke-width:1px;stroke-linecap:butt;stroke-linejoin:miter;stroke-opacity:1" />
          <path
             style="fill:none;stroke:#535353;stroke-width:3;stroke-linecap:round;stroke-linejoin:miter;stroke-miterlimit:4;stroke-dasharray:none;stroke-opacity:1"
             d="m -119.93229,231.5 v -17"
             id="path1071"
             sodipodi:nodetypes="cc" />
          <path
             sodipodi:nodetypes="cccccccccc"
             id="path1493"
             d="M -149.43229,243.5 V 170.99367 L -20.432291,136 v 56 l -11,4.5 -8.02124,-2.37678 0.02124,-9.0908 L -120.43229,214.5 V 232 Z"
             style="fill:url(#linearGradient1501);fill-opacity:1;stroke:none;stroke-width:1px;stroke-linecap:butt;stroke-linejoin:miter;stroke-opacity:1" />
          <path
             sodipodi:nodetypes="cccccc"
             id="path1503"
             d="m -149.43229,243.49367 v -72.5 c 0,-18.89051 -21.3529,-48.30206 -47.5,-60 -9.5327,-1.05978 -30.5,7.58556 -30.5,27 v 62 z"
             style="fill:url(#linearGradient1511);fill-opacity:1;stroke:none;stroke-width:1px;stroke-linecap:butt;stroke-linejoin:miter;stroke-opacity:1" />
          <path
             sodipodi:nodetypes="cccc"
             id="path1469"
             d="m -167.43229,120.5 c 12.58342,7.97271 23,24 26,31 l 100.999999,-27 c -3.291775,-11.54418 -23.790476,-26.545954 -37.5,-26"
             style="fill:none;stroke:#838383;stroke-width:2;stroke-linecap:butt;stroke-linejoin:miter;stroke-miterlimit:4;stroke-dasharray:none;stroke-opacity:1" />
          <path
             sodipodi:nodetypes="cccccccccc"
             id="path1461"
             d="m -119.83591,231.68439 -29.59638,11.81561 -78,-43.5 v -63 c 0,-12.22035 17.58615,-40.987648 60,-16.5 l 88.999999,-19 V 93 c 37,-2 58,28.5 58,43 v 56 l -11.003112,4.39271"
             style="fill:none;stroke:#535353;stroke-width:3.00228;stroke-linecap:round;stroke-linejoin:round;stroke-miterlimit:4;stroke-dasharray:none;stroke-opacity:1" />
          <path
             sodipodi:nodetypes="ccc"
             id="path1463"
             d="m -20.432291,150 -128.999999,41.5 -77.5,-35"
             style="fill:none;stroke:#535353;stroke-width:4;stroke-linecap:butt;stroke-linejoin:miter;stroke-miterlimit:4;stroke-dasharray:none;stroke-opacity:1" />
          <path
             sodipodi:nodetypes="ccccc"
             id="path1465"
             d="m -119.93229,231.5 26.499999,13.5 79,-34.5 v -9 l -17,-5"
             style="fill:none;stroke:#535353;stroke-width:3.0024;stroke-linecap:butt;stroke-linejoin:round;stroke-miterlimit:4;stroke-dasharray:none;stroke-opacity:1" />
          <path
             sodipodi:nodetypes="ccccc"
             id="path1467"
             d="M -197.43229,111 V 92.5 l 98.999999,-15 20,6 V 93"
             style="fill:none;stroke:#535353;stroke-width:3;stroke-linecap:butt;stroke-linejoin:round;stroke-miterlimit:4;stroke-dasharray:none;stroke-opacity:1" />
          <ellipse
             transform="rotate(-0.64602941)"
             rx="5.7613707"
             ry="6.4573951"
             cy="169.6131"
             cx="-37.030643"
             id="path1471"
             style="fill:#686968;fill-opacity:1;fill-rule:evenodd;stroke:none;stroke-width:1;stroke-linecap:round;stroke-linejoin:round;stroke-miterlimit:4;stroke-dasharray:none;stroke-opacity:1" />
          <ellipse
             transform="rotate(-0.67207111)"
             rx="5.027452"
             ry="5.8703885"
             cy="169.62027"
             cx="-35.04147"
             id="path1475"
             style="fill:#41ff41;fill-opacity:1;fill-rule:evenodd;stroke:#409840;stroke-width:1;stroke-linecap:round;stroke-linejoin:round;stroke-miterlimit:4;stroke-dasharray:none;stroke-opacity:1" />
          <path
             sodipodi:nodetypes="ccccc"
             id="path1529"
             d="m -177.43229,95 82.499999,-12 c -0.5,-6 -3.5,-66.5 -31.499999,-81.5 l -89,5.5 c 27,5.5 35.5,71.5 38,88 z"
             style="fill:url(#linearGradient1537);fill-opacity:1;stroke:url(#linearGradient1031);stroke-width:3;stroke-linecap:round;stroke-linejoin:round;stroke-miterlimit:4;stroke-dasharray:none;stroke-opacity:1" />
        </g>
      </g>
      <g
         inkscape:label="Layer 1"
         id="layer1-6"
         transform="matrix(0.67750909,0,0,0.67750909,87.455586,4.5723836)"
         style="opacity:1">
        <g
           id="g154816"
           transform="matrix(5.1759167,0,0,5.1759167,632.87187,-66.12435)">
          <path
             style="opacity:1;fill:url(#linearGradient155890);fill-opacity:1;stroke:#999999;stroke-width:1px;stroke-linecap:butt;stroke-linejoin:miter;stroke-opacity:1"
             d="m -99.367414,20.325046 c -0.644036,-1.451961 -1.448976,-3.282328 -3.380906,-3.309001 -2.80205,-0.03869 -6.23594,5.410936 -9.20623,5.694733 -1.41111,0.134825 -5.12499,-0.46704 -5.13963,-4.366083 -0.0111,-2.95885 3.19975,-5.344256 5.47021,-5.042147 3.3945,0.451674 2.76326,2.39654 0.18301,2.076203 -2.1857,-0.271352 -3.07451,1.607774 -3.05861,2.705912 0.0144,0.993805 0.57484,2.122344 2.42371,2.036146 2.311,-0.107744 4.86136,-6.195788 9.58704,-6.223813 4.426009,-0.02625 7.721827,4.408252 8.304724,5.772526"
             id="path7101"
             sodipodi:nodetypes="cssssssssc" />
          <g
             id="g154806">
            <path
               style="fill:url(#linearGradient29562);fill-opacity:1;stroke:#999999;stroke-width:1px;stroke-linecap:butt;stroke-linejoin:miter;stroke-opacity:1"
               d="m -107.38995,27 c 0.91902,-5.51411 8.500001,-7 11.45398,-7.113438 2.060035,-0.07911 6.935455,-0.771754 10.082505,2.160153 C -78.389949,29 -74.073299,39.528 -74.073299,44.028 c 0,6 -5.712251,14.466505 -15.31665,14.972 -9.5,0.5 -15.269941,-5.233122 -17.000001,-11 -1.5,-5 -2,-15 -1,-21 z"
               id="path962"
               sodipodi:nodetypes="sssssss" />
            <path
               style="opacity:1;fill:url(#linearGradient11963);fill-opacity:1;stroke:none;stroke-width:1px;stroke-linecap:butt;stroke-linejoin:miter;stroke-opacity:1"
               d="m -90.538234,28.177155 c 2.03106,-3.176405 -0.09966,-6.85884 -2.891236,-7.069767 -2.892057,-0.218519 -12.96671,-0.509771 -13.38968,6.396137 -0.34036,5.557042 0.12755,12.158708 2.33678,18.46648 0.67008,1.913214 1.24561,2.194429 1.69625,-0.330328 0.93643,-5.246373 8.272991,-11.246123 12.247886,-17.462522 z"
               id="path4531"
               sodipodi:nodetypes="ssssss" />
            <path
               style="fill:none;stroke:#999999;stroke-width:1px;stroke-linecap:butt;stroke-linejoin:miter;stroke-opacity:1"
               d="m -107.88995,34 c 4,-4 8.875232,-6.020736 14.000001,-7 3.483185,-0.665583 11,0.5 13,1"
               id="path2536"
               sodipodi:nodetypes="csc" />
            <path
               style="fill:none;stroke:#999999;stroke-width:1px;stroke-linecap:butt;stroke-linejoin:miter;stroke-opacity:1"
               d="m -96.889949,20 c 2,3 3.202301,5.523819 3.5,7"
               id="path3236"
               sodipodi:nodetypes="cc" />
            <path
               style="fill:#6666cc;fill-opacity:1;stroke:#66666c;stroke-width:1px;stroke-linecap:butt;stroke-linejoin:miter;stroke-opacity:1"
               d="m -93.25014,28.962171 c 3.87666,-0.811799 0.681063,-6.914894 -2.195229,-6.104886 -1.747658,0.492167 -0.964593,6.766573 2.195229,6.104886 z"
               id="path3328"
               sodipodi:nodetypes="sss" />
            <path
               style="opacity:1;fill:url(#linearGradient44218);fill-opacity:1;stroke:none;stroke-width:1px;stroke-linecap:butt;stroke-linejoin:miter;stroke-opacity:1"
               d="m -94.928548,50.2034 c -5.518922,0.223786 -7.585162,3.151526 -1.291144,5.407368 7.256683,2.600871 16.787522,-1.901238 18.394379,-6.013573 1.37998,-3.5317 1.620533,-8.847921 -0.852891,-14.267905 -1.146078,-2.511387 -1.529345,-1.166211 -1.616177,2.489905 -0.209067,8.802934 -6.715693,12.063119 -14.634167,12.384205 z"
               id="path5963"
               sodipodi:nodetypes="ssssss" />
          </g>
        </g>
      </g>
    </g>
  </g>
</svg>
