<?xml version="1.0" encoding="UTF-8" standalone="no"?>
<svg
   inkscape:export-ydpi="96"
   inkscape:export-xdpi="96"
   inkscape:export-filename="edit-select-none.png"
   sodipodi:docname="select-none.svg"
   inkscape:version="1.1.2 (0a00cf5339, 2022-02-04)"
   id="svg8"
   version="1.1"
   viewBox="0 0 256 256"
   height="256"
   width="256"
   xmlns:inkscape="http://www.inkscape.org/namespaces/inkscape"
   xmlns:sodipodi="http://sodipodi.sourceforge.net/DTD/sodipodi-0.dtd"
   xmlns:xlink="http://www.w3.org/1999/xlink"
   xmlns="http://www.w3.org/2000/svg"
   xmlns:svg="http://www.w3.org/2000/svg"
   xmlns:rdf="http://www.w3.org/1999/02/22-rdf-syntax-ns#"
   xmlns:cc="http://creativecommons.org/ns#"
   xmlns:dc="http://purl.org/dc/elements/1.1/">
  <defs
     id="defs2">
    <linearGradient
       inkscape:collect="always"
       id="linearGradient1304">
      <stop
         style="stop-color:#a1d2ff;stop-opacity:1"
         offset="0"
         id="stop1300" />
      <stop
         style="stop-color:#ffffff;stop-opacity:1"
         offset="1"
         id="stop1302" />
    </linearGradient>
    <linearGradient
       inkscape:collect="always"
       xlink:href="#linearGradient1304"
       id="linearGradient1306"
       x1="-5.432291"
       y1="11.5"
       x2="-5.432291"
       y2="45.5"
       gradientUnits="userSpaceOnUse"
       gradientTransform="matrix(6.6751111,0,0,6.6751111,620.01231,12.410363)" />
    <filter
       height="1.084744"
       y="-0.042371992"
       width="1.1107041"
       x="-0.055352074"
       id="filter1166"
       style="color-interpolation-filters:sRGB"
       inkscape:collect="always">
      <feGaussianBlur
         id="feGaussianBlur1168"
         stdDeviation="4.2719254"
         inkscape:collect="always" />
    </filter>
    <filter
       height="1.0953369"
       y="-0.04766843"
       width="1.0966724"
       x="-0.048336213"
       id="filter963"
       style="color-interpolation-filters:sRGB"
       inkscape:collect="always">
      <feGaussianBlur
         id="feGaussianBlur965"
         stdDeviation="4.8065668"
         inkscape:collect="always" />
    </filter>
  </defs>
  <sodipodi:namedview
     inkscape:lockguides="true"
     inkscape:snap-global="true"
     inkscape:bbox-paths="false"
     fit-margin-bottom="0"
     fit-margin-right="0"
     fit-margin-left="0"
     fit-margin-top="0"
     inkscape:bbox-nodes="true"
     inkscape:snap-bbox="true"
     inkscape:window-maximized="1"
     inkscape:window-y="0"
     inkscape:window-x="3840"
     inkscape:window-height="2050"
     inkscape:window-width="3840"
     units="px"
     showgrid="false"
     inkscape:document-rotation="0"
     inkscape:current-layer="layer1"
     inkscape:document-units="px"
     inkscape:cy="115.625"
     inkscape:cx="97.25"
     inkscape:zoom="4"
     inkscape:pageshadow="2"
     inkscape:pageopacity="0.0"
     borderopacity="1.0"
     bordercolor="#666666"
     pagecolor="#ffffff"
     id="base"
     inkscape:object-paths="false"
     inkscape:snap-smooth-nodes="true"
     inkscape:snap-others="true"
     inkscape:snap-grids="true"
     showguides="false"
     inkscape:pagecheckerboard="0">
    <inkscape:grid
       originy="0"
       originx="0"
       id="grid1504"
       type="xygrid" />
    <inkscape:grid
       originy="0"
       originx="0"
       spacingy="0.5"
       spacingx="0.5"
       id="grid1507"
       type="xygrid" />
  </sodipodi:namedview>
  <metadata
     id="metadata5">
    <rdf:RDF>
      <cc:Work
         rdf:about="">
        <dc:format>image/svg+xml</dc:format>
        <dc:type
           rdf:resource="http://purl.org/dc/dcmitype/StillImage" />
      </cc:Work>
    </rdf:RDF>
  </metadata>
  <g
     transform="translate(-12.567709)"
     id="layer1"
     inkscape:groupmode="layer"
     inkscape:label="Layer 1">
    <rect
       y="5"
       x="17.567709"
       height="150"
       width="150"
       id="rect1113"
       style="fill:none;fill-rule:evenodd;stroke:#524d42;stroke-width:10;stroke-linecap:round;stroke-miterlimit:4;stroke-dasharray:30, 30;stroke-dashoffset:0;stop-color:#000000" />
    <g
       transform="matrix(0.8407553,0,0,0.8407553,-295.93397,-23.994325)"
       id="g1117">
      <path
         id="path1195"
         style="color:#000000;font-style:normal;font-variant:normal;font-weight:normal;font-stretch:normal;font-size:medium;line-height:normal;font-family:sans-serif;font-variant-ligatures:normal;font-variant-position:normal;font-variant-caps:normal;font-variant-numeric:normal;font-variant-alternates:normal;font-variant-east-asian:normal;font-feature-settings:normal;font-variation-settings:normal;text-indent:0;text-align:start;text-decoration:none;text-decoration-line:none;text-decoration-style:solid;text-decoration-color:#000000;letter-spacing:normal;word-spacing:normal;text-transform:none;writing-mode:lr-tb;direction:ltr;text-orientation:mixed;dominant-baseline:auto;baseline-shift:baseline;text-anchor:start;white-space:normal;shape-padding:0;shape-margin:0;inline-size:0;clip-rule:nonzero;display:inline;overflow:visible;visibility:visible;isolation:auto;mix-blend-mode:normal;color-interpolation:sRGB;color-interpolation-filters:linearRGB;solid-color:#000000;solid-opacity:1;vector-effect:none;fill:#000000;fill-opacity:1;fill-rule:nonzero;stroke:none;stroke-width:5;stroke-linecap:round;stroke-linejoin:round;stroke-miterlimit:5;stroke-dasharray:none;stroke-dashoffset:0;stroke-opacity:1;filter:url(#filter1166);color-rendering:auto;image-rendering:auto;shape-rendering:auto;text-rendering:auto;enable-background:accumulate;stop-color:#000000"
         d="m 479.48896,80.927785 a 2.50025,2.50025 0 0 0 -2.36914,2.986328 c 3.03611,15.297587 15.53129,61.280377 28.17188,106.957037 12.64059,45.67665 25.4075,90.90655 28.80469,103.76562 a 2.50025,2.50025 0 0 0 4.82227,0.0469 c 5.18194,-18.17357 12.49469,-32.46716 27.03125,-44.14453 l 55.16016,71.38281 a 2.50025,2.50025 0 0 0 3.65039,0.33008 l 33.375,-30.03907 a 2.50025,2.50025 0 0 0 0.27343,-3.42773 l -51.47851,-63.73242 c 16.04672,-8.47448 38.22947,-12.75438 52.79297,-12.30078 a 2.50025,2.50025 0 0 0 1.51953,-4.53907 C 642.77589,195.16789 603.57175,166.63957 566.06514,139.78911 528.55854,112.93866 493.05287,87.911887 480.76631,81.230519 a 2.50025,2.50025 0 0 0 -1.27735,-0.302734 z" />
      <path
         sodipodi:nodetypes="cccccccc"
         id="path1298"
         d="m 473.61182,78.522007 c 23.47557,12.765889 143.21228,100.679303 180.22799,126.827113 -15.91948,-0.49583 -39.97958,4.23226 -56.73843,13.98969 l 53.40088,66.11164 -33.37556,30.03799 -56.73844,-73.42621 c -16.36442,12.32269 -24.34386,27.77374 -29.83495,47.03152 -6.8447,-25.90856 -51.00972,-180.6842 -56.94149,-210.571743 z"
         style="opacity:1;fill:url(#linearGradient1306);fill-opacity:1;stroke:#7075ad;stroke-width:5;stroke-linecap:round;stroke-linejoin:round;stroke-miterlimit:5;stroke-dasharray:none;stroke-opacity:1" />
    </g>
    <g
       transform="matrix(0.45978423,0,0,0.45978423,146.8071,3.776446)"
       inkscape:label="Layer 1"
       id="layer1-7">
      <path
         d="M 133.81221,4 A 116.24404,116.24404 0 0 0 17.567709,120.2445 116.24404,116.24404 0 0 0 39.479668,188.17002 116.24404,116.24404 0 0 0 139.97989,246 116.24404,116.24404 0 0 0 256.22439,129.7555 116.24404,116.24404 0 0 0 234.31243,61.829975 116.24404,116.24404 0 0 0 133.81221,4 Z"
         style="fill:#000000;fill-opacity:1;fill-rule:evenodd;stroke:none;stroke-width:63.1773;stroke-linecap:round;stroke-linejoin:round;stroke-miterlimit:4;stroke-dasharray:none;filter:url(#filter963)"
         id="circle942" />
      <g
         transform="matrix(5.4066999,0,0,5.4066999,495.5627,-5.4066999)"
         id="g940">
        <circle
           style="opacity:1;fill:#ffffff;fill-opacity:1;fill-rule:evenodd;stroke:none;stroke-width:11.685;stroke-linecap:round;stroke-linejoin:round;stroke-miterlimit:4;stroke-dasharray:none"
           id="path919"
           cx="-67.310364"
           cy="22.756973"
           r="18.249216" />
        <path
           d="m -66.691769,2.7592809 a 21.5,21.5 0 0 0 -21.5,21.5000001 21.5,21.5 0 0 0 21.5,21.5 21.5,21.5 0 0 0 21.5,-21.5 21.5,21.5 0 0 0 -21.5,-21.5000001 z m 0,5.5 a 16,16 0 0 1 16,16.0000001 16,16 0 0 1 -2.099609,7.921875 L -74.8988,10.524906 a 16,16 0 0 1 8.207031,-2.2656251 z M -79.40466,14.54639 -56.978878,36.972172 a 16,16 0 0 1 -9.712891,3.287109 16,16 0 0 1 -16,-16 16,16 0 0 1 3.287109,-9.712891 z"
           style="opacity:1;fill:#a21907;fill-opacity:1;fill-rule:evenodd;stroke:none;stroke-width:11.685;stroke-linecap:round;stroke-linejoin:round;stroke-miterlimit:4;stroke-dasharray:none"
           id="path917" />
        <path
           id="path889"
           style="opacity:1;fill:#f52e14;fill-opacity:1;fill-rule:evenodd;stroke:none;stroke-width:11.685;stroke-linecap:round;stroke-linejoin:round;stroke-miterlimit:4;stroke-dasharray:none"
           d="m -67.832682,1 a 21.5,21.5 0 0 0 -21.5,21.5 21.5,21.5 0 0 0 21.5,21.5 21.5,21.5 0 0 0 21.5,-21.5 21.5,21.5 0 0 0 -21.5,-21.5 z m 0,5.5 a 16,16 0 0 1 16,16 16,16 0 0 1 -2.099609,7.921875 L -76.039713,8.765625 A 16,16 0 0 1 -67.832682,6.5 Z m -12.712891,6.287109 22.425782,22.425782 A 16,16 0 0 1 -67.832682,38.5 a 16,16 0 0 1 -16,-16 16,16 0 0 1 3.287109,-9.712891 z" />
      </g>
    </g>
  </g>
</svg>
