<?xml version="1.0" encoding="UTF-8" standalone="no"?>
<svg
   inkscape:export-ydpi="96"
   inkscape:export-xdpi="96"
   inkscape:export-filename="/media/klapeto/Αρχεία/WindowsXP Theme/Vectors/RASTER/binary-file.png"
   width="48"
   height="48"
   viewBox="0 0 48 48"
   version="1.1"
   id="svg8"
   inkscape:version="1.3.2 (1:1.3.2+202311252150+091e20ef0f)"
   sodipodi:docname="binary.svg"
   xmlns:inkscape="http://www.inkscape.org/namespaces/inkscape"
   xmlns:sodipodi="http://sodipodi.sourceforge.net/DTD/sodipodi-0.dtd"
   xmlns:xlink="http://www.w3.org/1999/xlink"
   xmlns="http://www.w3.org/2000/svg"
   xmlns:svg="http://www.w3.org/2000/svg"
   xmlns:rdf="http://www.w3.org/1999/02/22-rdf-syntax-ns#"
   xmlns:cc="http://creativecommons.org/ns#"
   xmlns:dc="http://purl.org/dc/elements/1.1/">
  <defs
     id="defs2">
    <linearGradient
       inkscape:collect="always"
       xlink:href="#linearGradient861"
       id="linearGradient1832"
       gradientUnits="userSpaceOnUse"
       gradientTransform="matrix(3.8634903,0,0,3.8634903,-389.1189,-322.7853)"
       x1="110.94085"
       y1="94.871544"
       x2="102.62605"
       y2="83.838333" />
    <linearGradient
       inkscape:collect="always"
       id="linearGradient861">
      <stop
         style="stop-color:#99ccff;stop-opacity:1;"
         offset="0"
         id="stop857" />
      <stop
         style="stop-color:#ffffff;stop-opacity:1"
         offset="1"
         id="stop859" />
    </linearGradient>
    <linearGradient
       inkscape:collect="always"
       xlink:href="#linearGradient1562"
       id="linearGradient1836"
       gradientUnits="userSpaceOnUse"
       x1="8.5520248"
       y1="1.7641931"
       x2="7.5752969"
       y2="0.7878077"
       gradientTransform="matrix(3.8634903,0,0,3.8634903,5.743914,0.4999999)" />
    <linearGradient
       inkscape:collect="always"
       id="linearGradient1562">
      <stop
         style="stop-color:#1ba2ff;stop-opacity:1"
         offset="0"
         id="stop1558" />
      <stop
         style="stop-color:#7ec3ff;stop-opacity:1"
         offset="1"
         id="stop1560" />
    </linearGradient>
    <linearGradient
       inkscape:collect="always"
       xlink:href="#linearGradient1576"
       id="linearGradient1838"
       gradientUnits="userSpaceOnUse"
       x1="7.5090418"
       y1="1.9412498"
       x2="7.5090418"
       y2="0.51766664"
       gradientTransform="matrix(3.8634903,0,0,3.8634903,5.493915,0.25)" />
    <linearGradient
       inkscape:collect="always"
       id="linearGradient1576">
      <stop
         style="stop-color:#99ccff;stop-opacity:1"
         offset="0"
         id="stop1572" />
      <stop
         style="stop-color:#c9fcff;stop-opacity:1"
         offset="1"
         id="stop1574" />
    </linearGradient>
    <linearGradient
       inkscape:collect="always"
       xlink:href="#linearGradient1601"
       id="linearGradient1840"
       gradientUnits="userSpaceOnUse"
       x1="7.3783245"
       y1="1.8765416"
       x2="8.5430746"
       y2="1.8765416"
       gradientTransform="matrix(3.8634903,0,0,3.8634903,5.743915,0.7499998)" />
    <linearGradient
       inkscape:collect="always"
       id="linearGradient1601">
      <stop
         style="stop-color:#0099ff;stop-opacity:1"
         offset="0"
         id="stop1597" />
      <stop
         style="stop-color:#1966bf;stop-opacity:1"
         offset="1"
         id="stop1599" />
    </linearGradient>
    <linearGradient
       inkscape:collect="always"
       xlink:href="#linearGradient1613"
       id="linearGradient1842"
       gradientUnits="userSpaceOnUse"
       x1="6.8619585"
       y1="2.2000833"
       x2="6.8619585"
       y2="0.32354215"
       gradientTransform="matrix(3.8634903,0,0,3.8634903,6.493916,1.2e-7)" />
    <linearGradient
       id="linearGradient1613"
       inkscape:collect="always">
      <stop
         id="stop1609"
         offset="0"
         style="stop-color:#6c72a5;stop-opacity:1" />
      <stop
         id="stop1611"
         offset="1"
         style="stop-color:#7585b8;stop-opacity:1" />
    </linearGradient>
    <radialGradient
       inkscape:collect="always"
       xlink:href="#linearGradient1623"
       id="radialGradient29742"
       cx="39.633572"
       cy="22.952927"
       fx="39.633572"
       fy="22.952927"
       r="3.4999974"
       gradientTransform="matrix(-1.7142864,-3.2410042e-7,4.39099e-7,-9.2145702,107.19328,222.00137)"
       gradientUnits="userSpaceOnUse" />
    <linearGradient
       inkscape:collect="always"
       id="linearGradient1623">
      <stop
         style="stop-color:#9d9cff;stop-opacity:1"
         offset="0"
         id="stop1619" />
      <stop
         style="stop-color:#cbcaff;stop-opacity:1"
         offset="1"
         id="stop1621" />
    </linearGradient>
    <linearGradient
       inkscape:collect="always"
       xlink:href="#linearGradient111966"
       id="linearGradient111968"
       x1="32"
       y1="9.250001"
       x2="39.931995"
       y2="9.250001"
       gradientUnits="userSpaceOnUse" />
    <linearGradient
       inkscape:collect="always"
       id="linearGradient111966">
      <stop
         style="stop-color:#8a91ba;stop-opacity:1"
         offset="0"
         id="stop111962" />
      <stop
         style="stop-color:#5e5e91;stop-opacity:1"
         offset="1"
         id="stop111964" />
    </linearGradient>
    <linearGradient
       inkscape:collect="always"
       xlink:href="#linearGradient1643"
       id="linearGradient1850"
       gradientUnits="userSpaceOnUse"
       x1="0.45453331"
       y1="11.518083"
       x2="8.3489494"
       y2="11.518083"
       gradientTransform="matrix(3.8634903,0,0,3.8634903,6.243915,0)" />
    <linearGradient
       inkscape:collect="always"
       id="linearGradient1643">
      <stop
         style="stop-color:#ccccff;stop-opacity:1"
         offset="0"
         id="stop1639" />
      <stop
         style="stop-color:#ccccff;stop-opacity:1"
         offset="1"
         id="stop1641" />
    </linearGradient>
    <radialGradient
       inkscape:collect="always"
       xlink:href="#linearGradient1663"
       id="radialGradient299109"
       cx="14.142424"
       cy="10.040477"
       fx="14.142424"
       fy="10.040477"
       r="12.627658"
       gradientTransform="matrix(0,3.2666392,-4.9108714,0,57.057201,-44.448197)"
       gradientUnits="userSpaceOnUse" />
    <linearGradient
       inkscape:collect="always"
       id="linearGradient1663">
      <stop
         style="stop-color:#ffffff;stop-opacity:1"
         offset="0"
         id="stop1659" />
      <stop
         style="stop-color:#cccccc;stop-opacity:1"
         offset="1"
         id="stop1661" />
    </linearGradient>
    <radialGradient
       inkscape:collect="always"
       xlink:href="#linearGradient869"
       id="radialGradient144284"
       cx="6.6762424"
       cy="6.7253423"
       fx="6.6762424"
       fy="6.7253423"
       r="17.500143"
       gradientTransform="matrix(1.9142701,2.4714083,-2.3638582,1.8309654,9.6176245,-28.313589)"
       gradientUnits="userSpaceOnUse" />
    <linearGradient
       inkscape:collect="always"
       id="linearGradient869">
      <stop
         style="stop-color:#99cbfe;stop-opacity:0.98555011"
         offset="0"
         id="stop865" />
      <stop
         style="stop-color:#4c4c7f;stop-opacity:1"
         offset="1"
         id="stop867" />
    </linearGradient>
  </defs>
  <sodipodi:namedview
     inkscape:guide-bbox="true"
     showguides="true"
     id="base"
     pagecolor="#ffffff"
     bordercolor="#666666"
     borderopacity="1.0"
     inkscape:pageopacity="0.0"
     inkscape:pageshadow="2"
     inkscape:zoom="9.6228034"
     inkscape:cx="46.815879"
     inkscape:cy="64.482249"
     inkscape:document-units="px"
     inkscape:current-layer="layer1"
     inkscape:document-rotation="0"
     showgrid="false"
     units="px"
     inkscape:window-width="3840"
     inkscape:window-height="2056"
     inkscape:window-x="3840"
     inkscape:window-y="0"
     inkscape:window-maximized="1"
     inkscape:snap-bbox="true"
     inkscape:bbox-nodes="true"
     fit-margin-top="0"
     fit-margin-left="0"
     fit-margin-right="0"
     fit-margin-bottom="0"
     inkscape:bbox-paths="false"
     inkscape:pagecheckerboard="0"
     inkscape:showpageshadow="2"
     inkscape:deskcolor="#d1d1d1">
    <inkscape:grid
       type="xygrid"
       id="grid1504"
       originx="0"
       originy="0"
       spacingy="1"
       spacingx="1"
       units="px"
       visible="false" />
    <inkscape:grid
       type="xygrid"
       id="grid1507"
       spacingx="0.5"
       spacingy="0.5"
       originx="0"
       originy="0"
       units="px"
       visible="false" />
  </sodipodi:namedview>
  <metadata
     id="metadata5">
    <rdf:RDF>
      <cc:Work
         rdf:about="">
        <dc:format>image/svg+xml</dc:format>
        <dc:type
           rdf:resource="http://purl.org/dc/dcmitype/StillImage" />
      </cc:Work>
    </rdf:RDF>
  </metadata>
  <g
     inkscape:label="Layer 1"
     inkscape:groupmode="layer"
     id="layer1"
     transform="translate(-12.567709)">
    <g
       id="g1106"
       transform="translate(12.567709)">
      <path
         id="rect1498-0"
         style="fill:url(#linearGradient1832);fill-opacity:1;stroke:none;stroke-width:0.999999;stroke-linejoin:round;stroke-miterlimit:4;stroke-dasharray:none;stroke-opacity:1;paint-order:normal"
         d="M 6.749714,0.50000218 H 32.5 l 8,8.74999912 V 44.5 H 6.749714 Z"
         sodipodi:nodetypes="cccccc" />
      <path
         style="fill:url(#linearGradient1836);fill-opacity:1;stroke:none;stroke-width:0.999999;stroke-linecap:butt;stroke-linejoin:miter;stroke-miterlimit:4;stroke-dasharray:none;stroke-opacity:1"
         d="m 32.750003,1.0000021 v 7.9999992 h 7.249993 z"
         id="path1548-1"
         sodipodi:nodetypes="cccc" />
      <path
         style="fill:none;stroke:url(#linearGradient1838);stroke-width:0.999999;stroke-linecap:butt;stroke-linejoin:miter;stroke-miterlimit:4;stroke-dasharray:none;stroke-opacity:1"
         d="M 33.500009,7.7500015 V 1.7500021"
         id="path1570-0"
         sodipodi:nodetypes="cc" />
      <path
         sodipodi:nodetypes="cc"
         style="fill:none;stroke:url(#linearGradient1840);stroke-width:0.999999;stroke-linecap:butt;stroke-linejoin:miter;stroke-miterlimit:4;stroke-dasharray:none;stroke-opacity:1"
         d="M 39.499991,8.2500014 H 34.000014"
         id="path1595-5" />
      <path
         sodipodi:nodetypes="cc"
         id="path1593-1"
         d="M 32.5,0.50000218 V 9"
         style="fill:#7494c7;fill-opacity:1;stroke:url(#linearGradient1842);stroke-width:0.999999;stroke-linecap:butt;stroke-linejoin:miter;stroke-miterlimit:4;stroke-dasharray:none;stroke-opacity:1" />
      <path
         style="fill:none;stroke:url(#radialGradient29742);stroke-width:0.999999;stroke-linecap:butt;stroke-linejoin:miter;stroke-miterlimit:4;stroke-dasharray:none;stroke-opacity:1"
         d="M 33.000005,10.250001 39.5,10.25 39.499991,43"
         id="path1617-8"
         sodipodi:nodetypes="ccc" />
      <path
         style="fill:#000000;fill-opacity:0;stroke:url(#linearGradient111968);stroke-width:0.999999;stroke-linecap:butt;stroke-linejoin:miter;stroke-miterlimit:4;stroke-dasharray:none;stroke-opacity:1"
         d="m 32,9.25 8.5,1.3e-6"
         id="path1605-0"
         sodipodi:nodetypes="cc" />
      <path
         style="fill:none;stroke:url(#linearGradient1850);stroke-width:0.999999;stroke-linecap:butt;stroke-linejoin:miter;stroke-miterlimit:4;stroke-dasharray:none;stroke-opacity:1"
         d="M 38.999987,43.5 H 6.999716"
         id="path1637-0"
         sodipodi:nodetypes="cc" />
      <path
         style="fill:none;fill-opacity:1;stroke:url(#radialGradient299109);stroke-width:0.999999;stroke-linecap:butt;stroke-linejoin:miter;stroke-miterlimit:4;stroke-dasharray:none;stroke-opacity:1"
         d="M 31.999996,1.5000021 H 7.499721 V 43"
         id="path1657-4"
         sodipodi:nodetypes="ccc" />
      <path
         sodipodi:nodetypes="cccccc"
         d="M 6.499712,0.50000218 H 32.5 l 8,8.74999912 V 44.5 H 6.499712 Z"
         style="fill:none;fill-opacity:1;stroke:url(#radialGradient144284);stroke-width:0.999999;stroke-linejoin:miter;stroke-miterlimit:4;stroke-dasharray:none;stroke-opacity:1;paint-order:normal"
         id="path1566-2" />
    </g>
    <g
       id="g78806"
       transform="matrix(0.18415576,0,0,0.18415576,11.370305,1.365747)">
      <g
         id="g1">
        <path
           d="M 82.75369,81.831579 V 58.340075 h -5.41511 l -7.59677,5.083983 v 5.220336 l 7.24614,-4.81128 h 0.35063 v 17.998465 h -7.5773 v 4.616491 h 20.18011 v -4.616491 z"
           style="font-weight:bold;font-size:16px;line-height:1.25;font-family:'SF Mono';-inkscape-font-specification:'SF Mono Bold';text-align:center;letter-spacing:0px;word-spacing:0px;text-anchor:middle;fill:#6db6ff;fill-opacity:1;stroke-width:2.49329"
           id="path35101-88" />
        <path
           d="m 106.96642,57.74597 c -6.73968,0 -10.55754,5.27877 -10.55754,14.648104 0,9.36933 3.81786,14.648101 10.55754,14.648101 6.75917,0 10.57702,-5.278772 10.57702,-14.648101 0,-9.369333 -3.81785,-14.648103 -10.57702,-14.648104 z m 5.1619,14.648104 c 0,5.616985 -1.63718,10.070569 -5.1619,10.070569 -3.52471,0 -5.14242,-4.448707 -5.14242,-10.070569 0,-5.621862 1.71587,-10.070572 5.14242,-10.070572 3.42656,0 5.1619,4.453587 5.1619,10.070572 z"
           style="font-weight:bold;font-size:16px;line-height:1.25;font-family:'SF Mono';-inkscape-font-specification:'SF Mono Bold';text-align:center;letter-spacing:0px;word-spacing:0px;text-anchor:middle;fill:#6db6ff;fill-opacity:1;stroke-width:2.49329"
           id="path35103-3"
           sodipodi:nodetypes="ssssszzzzz" />
        <path
           d="m 79.83185,95.042175 c -6.73967,0 -10.55753,5.278765 -10.55753,14.648105 0,9.36933 3.81786,14.6481 10.55753,14.6481 6.75917,0 10.57703,-5.27877 10.57703,-14.6481 0,-9.36934 -3.81786,-14.648105 -10.57703,-14.648105 z m 5.1619,14.648105 c 0,5.61698 -2.39589,10.07057 -5.1619,10.07057 -2.76599,0 -5.14242,-4.44871 -5.14242,-10.07057 0,-5.62186 2.30655,-10.070576 5.14242,-10.070576 2.83588,0 5.1619,4.453586 5.1619,10.070576 z"
           style="font-weight:bold;font-size:16px;line-height:1.25;font-family:'SF Mono';-inkscape-font-specification:'SF Mono Bold';text-align:center;letter-spacing:0px;word-spacing:0px;text-anchor:middle;fill:#6db6ff;fill-opacity:1;stroke-width:2.49329"
           id="path35103-7-1"
           sodipodi:nodetypes="ssssszzzzz" />
        <path
           d="m 134.10098,95.042175 c -6.73968,0 -10.55754,5.278765 -10.55754,14.648105 0,9.36933 3.81786,14.6481 10.55754,14.6481 6.75917,0 10.57702,-5.27877 10.57702,-14.6481 0,-9.36934 -3.81785,-14.648105 -10.57702,-14.648105 z m 5.16189,14.648105 c 0,5.61698 -2.39588,10.07057 -5.16189,10.07057 -2.76599,0 -5.14243,-4.44871 -5.14243,-10.07057 0,-5.62186 2.30655,-10.070574 5.14243,-10.070574 2.83587,0 5.16189,4.453584 5.16189,10.070574 z"
           style="font-weight:bold;font-size:16px;line-height:1.25;font-family:'SF Mono';-inkscape-font-specification:'SF Mono Bold';text-align:center;letter-spacing:0px;word-spacing:0px;text-anchor:middle;fill:#6db6ff;fill-opacity:1;stroke-width:2.49329"
           id="path35103-7-6-8"
           sodipodi:nodetypes="ssssszzzzz" />
        <path
           d="M 191.29191,81.831579 V 58.340075 h -5.41512 l -7.59676,5.083983 v 5.220336 l 7.24614,-4.81128 h 0.35062 v 17.998465 h -7.57728 v 4.616491 h 20.1801 v -4.616491 z"
           style="font-weight:bold;font-size:16px;line-height:1.25;font-family:'SF Mono';-inkscape-font-specification:'SF Mono Bold';text-align:center;letter-spacing:0px;word-spacing:0px;text-anchor:middle;fill:#6db6ff;fill-opacity:1;stroke-width:2.49329"
           id="path35105-9" />
        <path
           d="M 137.02281,81.831579 V 58.340075 h -5.41512 l -7.59676,5.083983 v 5.220336 l 7.24614,-4.81128 h 0.35062 v 17.998465 h -7.57728 v 4.616491 h 20.1801 v -4.616491 z"
           style="font-weight:bold;font-size:16px;line-height:1.25;font-family:'SF Mono';-inkscape-font-specification:'SF Mono Bold';text-align:center;letter-spacing:0px;word-spacing:0px;text-anchor:middle;fill:#6db6ff;fill-opacity:1;stroke-width:2.49329"
           id="path35109-6" />
        <path
           d="M 109.88825,119.12779 V 95.636278 h -5.41512 l -7.59676,5.083982 v 5.22034 l 7.24614,-4.81129 h 0.35062 v 17.99848 h -7.57728 v 4.61649 h 20.1801 v -4.61649 z"
           style="font-weight:bold;font-size:16px;line-height:1.25;font-family:'SF Mono';-inkscape-font-specification:'SF Mono Bold';text-align:center;letter-spacing:0px;word-spacing:0px;text-anchor:middle;fill:#6db6ff;fill-opacity:1;stroke-width:2.49329"
           id="path35114-4" />
        <path
           d="M 164.15736,119.12779 V 95.636279 h -5.41512 l -7.59676,5.083981 v 5.22034 l 7.24614,-4.81128 h 0.35062 v 17.99847 h -7.57729 v 4.61649 h 20.18011 v -4.61649 z"
           style="font-weight:bold;font-size:16px;line-height:1.25;font-family:'SF Mono';-inkscape-font-specification:'SF Mono Bold';text-align:center;letter-spacing:0px;word-spacing:0px;text-anchor:middle;fill:#6db6ff;fill-opacity:1;stroke-width:2.49329"
           id="path35118-3" />
        <path
           d="m 188.37008,95.042175 c -6.73968,0 -10.55753,5.278765 -10.55753,14.648105 0,9.36933 3.81785,14.6481 10.55753,14.6481 6.75917,0 10.57702,-5.27877 10.57702,-14.6481 0,-9.36934 -3.81785,-14.648105 -10.57702,-14.648105 z m 5.16189,14.648105 c 0,5.61698 -2.39588,10.07057 -5.16189,10.07057 -2.76599,0 -5.14242,-4.44871 -5.14242,-10.07057 0,-5.62186 2.30654,-10.070574 5.14242,-10.070574 2.83587,0 5.16189,4.453584 5.16189,10.070574 z"
           style="font-weight:bold;font-size:16px;line-height:1.25;font-family:'SF Mono';-inkscape-font-specification:'SF Mono Bold';text-align:center;letter-spacing:0px;word-spacing:0px;text-anchor:middle;fill:#6db6ff;fill-opacity:1;stroke-width:2.49329"
           id="path35103-7-6-2-3"
           sodipodi:nodetypes="ssssszzzzz" />
        <path
           d="m 161.23553,57.74597 c -6.73968,0 -10.55753,5.27877 -10.55753,14.648104 0,9.36933 3.81785,14.648101 10.55753,14.648101 6.75917,0 10.57702,-5.278772 10.57702,-14.648101 0,-9.369333 -3.81785,-14.648103 -10.57702,-14.648104 z m 5.16189,14.648104 c 0,5.616985 -2.39588,10.070569 -5.16189,10.070569 -2.76599,0 -5.14242,-4.448707 -5.14242,-10.070569 0,-5.621862 2.30654,-10.070572 5.14242,-10.070572 2.83587,0 5.16189,4.453587 5.16189,10.070572 z"
           style="font-weight:bold;font-size:16px;line-height:1.25;font-family:'SF Mono';-inkscape-font-specification:'SF Mono Bold';text-align:center;letter-spacing:0px;word-spacing:0px;text-anchor:middle;fill:#6db6ff;fill-opacity:1;stroke-width:2.49329"
           id="path35103-7-6-2-1-3"
           sodipodi:nodetypes="ssssszzzzz" />
        <path
           d="m 82.75369,156.424 v -23.49151 h -5.41511 l -7.59677,5.08398 v 5.22034 l 7.24614,-4.81128 h 0.35063 V 156.424 h -7.5773 v 4.61649 H 89.94139 V 156.424 Z"
           style="font-weight:bold;font-size:16px;line-height:1.25;font-family:'SF Mono';-inkscape-font-specification:'SF Mono Bold';text-align:center;letter-spacing:0px;word-spacing:0px;text-anchor:middle;fill:#6db6ff;fill-opacity:1;stroke-width:2.49329"
           id="path35101-88-6" />
        <path
           d="m 106.96642,132.33838 c -6.73968,0 -10.55754,5.27877 -10.55754,14.6481 0,9.36933 3.81786,14.64811 10.55754,14.64811 6.75917,0 10.57702,-5.27878 10.57702,-14.64811 0,-9.36933 -3.81785,-14.6481 -10.57702,-14.6481 z m 5.1619,14.6481 c 0,5.61699 -1.63718,10.07057 -5.1619,10.07057 -3.52471,0 -5.14242,-4.44871 -5.14242,-10.07057 0,-5.62186 1.71587,-10.07057 5.14242,-10.07057 3.42656,0 5.1619,4.45359 5.1619,10.07057 z"
           style="font-weight:bold;font-size:16px;line-height:1.25;font-family:'SF Mono';-inkscape-font-specification:'SF Mono Bold';text-align:center;letter-spacing:0px;word-spacing:0px;text-anchor:middle;fill:#6db6ff;fill-opacity:1;stroke-width:2.49329"
           id="path35103-3-0"
           sodipodi:nodetypes="ssssszzzzz" />
        <path
           d="m 79.83185,169.63459 c -6.73967,0 -10.55753,5.27877 -10.55753,14.64811 0,9.36932 3.81786,14.6481 10.55753,14.6481 6.75917,0 10.57703,-5.27878 10.57703,-14.6481 0,-9.36934 -3.81786,-14.64811 -10.57703,-14.64811 z m 5.1619,14.64811 c 0,5.61697 -2.39589,10.07056 -5.1619,10.07056 -2.76599,0 -5.14242,-4.44871 -5.14242,-10.07056 0,-5.62187 2.30655,-10.07058 5.14242,-10.07058 2.83588,0 5.1619,4.45359 5.1619,10.07058 z"
           style="font-weight:bold;font-size:16px;line-height:1.25;font-family:'SF Mono';-inkscape-font-specification:'SF Mono Bold';text-align:center;letter-spacing:0px;word-spacing:0px;text-anchor:middle;fill:#6db6ff;fill-opacity:1;stroke-width:2.49329"
           id="path35103-7-1-4"
           sodipodi:nodetypes="ssssszzzzz" />
        <path
           d="m 134.10098,169.6346 c -6.73968,0 -10.55754,5.27877 -10.55754,14.6481 0,9.36933 3.81786,14.6481 10.55754,14.6481 6.75917,0 10.57702,-5.27877 10.57702,-14.6481 0,-9.36933 -3.81785,-14.6481 -10.57702,-14.6481 z m 5.16189,14.6481 c 0,5.61698 -2.39588,10.07058 -5.16189,10.07058 -2.76599,0 -5.14243,-4.44871 -5.14243,-10.07058 0,-5.62185 2.30655,-10.07057 5.14243,-10.07057 2.83587,0 5.16189,4.45358 5.16189,10.07057 z"
           style="font-weight:bold;font-size:16px;line-height:1.25;font-family:'SF Mono';-inkscape-font-specification:'SF Mono Bold';text-align:center;letter-spacing:0px;word-spacing:0px;text-anchor:middle;fill:#6db6ff;fill-opacity:1;stroke-width:2.49329"
           id="path35103-7-6-8-8"
           sodipodi:nodetypes="ssssszzzzz" />
        <path
           d="m 191.29191,156.424 v -23.49151 h -5.41512 l -7.59676,5.08398 v 5.22034 l 7.24614,-4.81128 h 0.35062 V 156.424 h -7.57728 v 4.61649 h 20.1801 V 156.424 Z"
           style="font-weight:bold;font-size:16px;line-height:1.25;font-family:'SF Mono';-inkscape-font-specification:'SF Mono Bold';text-align:center;letter-spacing:0px;word-spacing:0px;text-anchor:middle;fill:#6db6ff;fill-opacity:1;stroke-width:2.49329"
           id="path35105-9-8" />
        <path
           d="m 137.02281,156.424 v -23.49151 h -5.41512 l -7.59676,5.08398 v 5.22034 l 7.24614,-4.81128 h 0.35062 V 156.424 h -7.57728 v 4.61649 h 20.1801 V 156.424 Z"
           style="font-weight:bold;font-size:16px;line-height:1.25;font-family:'SF Mono';-inkscape-font-specification:'SF Mono Bold';text-align:center;letter-spacing:0px;word-spacing:0px;text-anchor:middle;fill:#6db6ff;fill-opacity:1;stroke-width:2.49329"
           id="path35109-6-8" />
        <path
           d="m 109.88825,193.7202 v -23.4915 h -5.41512 l -7.59676,5.08398 v 5.22033 l 7.24614,-4.81128 h 0.35062 v 17.99847 h -7.57728 v 4.61649 h 20.1801 v -4.61649 z"
           style="font-weight:bold;font-size:16px;line-height:1.25;font-family:'SF Mono';-inkscape-font-specification:'SF Mono Bold';text-align:center;letter-spacing:0px;word-spacing:0px;text-anchor:middle;fill:#6db6ff;fill-opacity:1;stroke-width:2.49329"
           id="path35114-4-9" />
        <path
           d="m 164.15736,193.7202 v -23.4915 h -5.41512 l -7.59676,5.08398 v 5.22033 l 7.24614,-4.81127 h 0.35062 v 17.99846 h -7.57729 v 4.61649 h 20.18011 v -4.61649 z"
           style="font-weight:bold;font-size:16px;line-height:1.25;font-family:'SF Mono';-inkscape-font-specification:'SF Mono Bold';text-align:center;letter-spacing:0px;word-spacing:0px;text-anchor:middle;fill:#6db6ff;fill-opacity:1;stroke-width:2.49329"
           id="path35118-3-7" />
        <path
           d="m 188.37008,169.6346 c -6.73968,0 -10.55753,5.27877 -10.55753,14.6481 0,9.36933 3.81785,14.6481 10.55753,14.6481 6.75917,0 10.57702,-5.27877 10.57702,-14.6481 0,-9.36933 -3.81785,-14.6481 -10.57702,-14.6481 z m 5.16189,14.6481 c 0,5.61698 -2.39588,10.07058 -5.16189,10.07058 -2.76599,0 -5.14242,-4.44871 -5.14242,-10.07058 0,-5.62185 2.30654,-10.07057 5.14242,-10.07057 2.83587,0 5.16189,4.45358 5.16189,10.07057 z"
           style="font-weight:bold;font-size:16px;line-height:1.25;font-family:'SF Mono';-inkscape-font-specification:'SF Mono Bold';text-align:center;letter-spacing:0px;word-spacing:0px;text-anchor:middle;fill:#6db6ff;fill-opacity:1;stroke-width:2.49329"
           id="path35103-7-6-2-3-7"
           sodipodi:nodetypes="ssssszzzzz" />
        <path
           d="m 161.23553,132.33838 c -6.73968,0 -10.55753,5.27877 -10.55753,14.6481 0,9.36933 3.81785,14.64811 10.55753,14.64811 6.75917,0 10.57702,-5.27878 10.57702,-14.64811 0,-9.36933 -3.81785,-14.6481 -10.57702,-14.6481 z m 5.16189,14.6481 c 0,5.61699 -2.39588,10.07057 -5.16189,10.07057 -2.76599,0 -5.14242,-4.44871 -5.14242,-10.07057 0,-5.62186 2.30654,-10.07057 5.14242,-10.07057 2.83587,0 5.16189,4.45359 5.16189,10.07057 z"
           style="font-weight:bold;font-size:16px;line-height:1.25;font-family:'SF Mono';-inkscape-font-specification:'SF Mono Bold';text-align:center;letter-spacing:0px;word-spacing:0px;text-anchor:middle;fill:#6db6ff;fill-opacity:1;stroke-width:2.49329"
           id="path35103-7-6-2-1-3-6"
           sodipodi:nodetypes="ssssszzzzz" />
      </g>
    </g>
  </g>
</svg>
