<?xml version="1.0" encoding="UTF-8" standalone="no"?>
<svg
   inkscape:export-ydpi="96"
   inkscape:export-xdpi="96"
   inkscape:export-filename="/media/klapeto/Αρχεία/WindowsXP Theme/Vectors/RASTER/binary-file.png"
   width="256"
   height="256"
   viewBox="0 0 256 256"
   version="1.1"
   id="svg8"
   inkscape:version="1.1.1 (3bf5ae0d25, 2021-09-20)"
   sodipodi:docname="binary.svg"
   xmlns:inkscape="http://www.inkscape.org/namespaces/inkscape"
   xmlns:sodipodi="http://sodipodi.sourceforge.net/DTD/sodipodi-0.dtd"
   xmlns:xlink="http://www.w3.org/1999/xlink"
   xmlns="http://www.w3.org/2000/svg"
   xmlns:svg="http://www.w3.org/2000/svg"
   xmlns:rdf="http://www.w3.org/1999/02/22-rdf-syntax-ns#"
   xmlns:cc="http://creativecommons.org/ns#"
   xmlns:dc="http://purl.org/dc/elements/1.1/">
  <defs
     id="defs2">
    <linearGradient
       inkscape:collect="always"
       id="linearGradient1663">
      <stop
         style="stop-color:#ffffff;stop-opacity:1"
         offset="0"
         id="stop1659" />
      <stop
         style="stop-color:#dddddd;stop-opacity:1"
         offset="1"
         id="stop1661" />
    </linearGradient>
    <linearGradient
       inkscape:collect="always"
       id="linearGradient1653">
      <stop
         style="stop-color:#cccccc;stop-opacity:1"
         offset="0"
         id="stop1649" />
      <stop
         style="stop-color:#ffffff;stop-opacity:1"
         offset="1"
         id="stop1651" />
    </linearGradient>
    <linearGradient
       inkscape:collect="always"
       id="linearGradient1643">
      <stop
         style="stop-color:#ccccf2;stop-opacity:1"
         offset="0"
         id="stop1639" />
      <stop
         style="stop-color:#ccccff;stop-opacity:1"
         offset="1"
         id="stop1641" />
    </linearGradient>
    <linearGradient
       inkscape:collect="always"
       id="linearGradient1633">
      <stop
         style="stop-color:#9fa0ff;stop-opacity:1"
         offset="0"
         id="stop1629" />
      <stop
         style="stop-color:#cbcaff;stop-opacity:1"
         offset="1"
         id="stop1631" />
    </linearGradient>
    <linearGradient
       inkscape:collect="always"
       id="linearGradient1623">
      <stop
         style="stop-color:#dddddd;stop-opacity:1"
         offset="0"
         id="stop1619" />
      <stop
         style="stop-color:#99ccff;stop-opacity:1"
         offset="1"
         id="stop1621" />
    </linearGradient>
    <linearGradient
       id="linearGradient1613"
       inkscape:collect="always">
      <stop
         id="stop1609"
         offset="0"
         style="stop-color:#6983b6;stop-opacity:1" />
      <stop
         id="stop1611"
         offset="1"
         style="stop-color:#7ca0d3;stop-opacity:1" />
    </linearGradient>
    <linearGradient
       inkscape:collect="always"
       id="linearGradient1601">
      <stop
         style="stop-color:#0096fc;stop-opacity:1"
         offset="0"
         id="stop1597" />
      <stop
         style="stop-color:#0068ce;stop-opacity:1"
         offset="1"
         id="stop1599" />
    </linearGradient>
    <linearGradient
       inkscape:collect="always"
       id="linearGradient1576">
      <stop
         style="stop-color:#9bceff;stop-opacity:1"
         offset="0"
         id="stop1572" />
      <stop
         style="stop-color:#c9fcff;stop-opacity:1"
         offset="1"
         id="stop1574" />
    </linearGradient>
    <linearGradient
       inkscape:collect="always"
       id="linearGradient1562">
      <stop
         style="stop-color:#2da8ff;stop-opacity:1"
         offset="0"
         id="stop1558" />
      <stop
         style="stop-color:#74c0ff;stop-opacity:1"
         offset="1"
         id="stop1560" />
    </linearGradient>
    <linearGradient
       inkscape:collect="always"
       id="linearGradient869">
      <stop
         style="stop-color:#343467;stop-opacity:1"
         offset="0"
         id="stop865" />
      <stop
         style="stop-color:#99cbfe;stop-opacity:1"
         offset="1"
         id="stop867" />
    </linearGradient>
    <linearGradient
       inkscape:collect="always"
       id="linearGradient861">
      <stop
         style="stop-color:#99ccff;stop-opacity:1;"
         offset="0"
         id="stop857" />
      <stop
         style="stop-color:#ffffff;stop-opacity:1"
         offset="1"
         id="stop859" />
    </linearGradient>
    <linearGradient
       inkscape:collect="always"
       xlink:href="#linearGradient861"
       id="linearGradient1832"
       gradientUnits="userSpaceOnUse"
       gradientTransform="translate(-88.177861,-83.54759)"
       x1="111.4612"
       y1="95.321548"
       x2="102.62605"
       y2="83.838333" />
    <linearGradient
       inkscape:collect="always"
       xlink:href="#linearGradient869"
       id="linearGradient1834"
       gradientUnits="userSpaceOnUse"
       gradientTransform="translate(-88.177861,-83.54759)"
       x1="111.3289"
       y1="95.189255"
       x2="102.62605"
       y2="83.838333" />
    <linearGradient
       inkscape:collect="always"
       xlink:href="#linearGradient1562"
       id="linearGradient1836"
       gradientUnits="userSpaceOnUse"
       x1="8.7312498"
       y1="1.984375"
       x2="7.5419135"
       y2="0.69042891"
       gradientTransform="translate(14.155209)" />
    <linearGradient
       inkscape:collect="always"
       xlink:href="#linearGradient1576"
       id="linearGradient1838"
       gradientUnits="userSpaceOnUse"
       x1="7.276042"
       y1="1.8520833"
       x2="7.276042"
       y2="0.26458335"
       gradientTransform="translate(14.155209)" />
    <linearGradient
       inkscape:collect="always"
       xlink:href="#linearGradient1601"
       id="linearGradient1840"
       gradientUnits="userSpaceOnUse"
       x1="7.4083338"
       y1="1.984375"
       x2="8.9958334"
       y2="1.984375"
       gradientTransform="translate(14.155209)" />
    <linearGradient
       inkscape:collect="always"
       xlink:href="#linearGradient1613"
       id="linearGradient1842"
       gradientUnits="userSpaceOnUse"
       x1="7.0114584"
       y1="2.1166666"
       x2="7.0114584"
       y2="0"
       gradientTransform="translate(14.155209)" />
    <linearGradient
       inkscape:collect="always"
       xlink:href="#linearGradient1623"
       id="linearGradient1846"
       gradientUnits="userSpaceOnUse"
       x1="7.1437502"
       y1="2.5135417"
       x2="8.7312498"
       y2="2.5135417"
       gradientTransform="translate(14.155209)" />
    <linearGradient
       inkscape:collect="always"
       xlink:href="#linearGradient1633"
       id="linearGradient1848"
       gradientUnits="userSpaceOnUse"
       x1="8.8635416"
       y1="2.6458335"
       x2="8.8635416"
       y2="11.377084"
       gradientTransform="translate(14.155209)" />
    <linearGradient
       inkscape:collect="always"
       xlink:href="#linearGradient1643"
       id="linearGradient1850"
       gradientUnits="userSpaceOnUse"
       x1="0.26458332"
       y1="11.509375"
       x2="8.7312498"
       y2="11.509375"
       gradientTransform="translate(14.155209)" />
    <linearGradient
       inkscape:collect="always"
       xlink:href="#linearGradient1653"
       id="linearGradient1852"
       gradientUnits="userSpaceOnUse"
       x1="0.39687502"
       y1="11.377084"
       x2="0.39687502"
       y2="0.26458335"
       gradientTransform="translate(14.155209)" />
    <linearGradient
       inkscape:collect="always"
       xlink:href="#linearGradient1663"
       id="linearGradient1854"
       gradientUnits="userSpaceOnUse"
       x1="0.52916664"
       y1="0.39687499"
       x2="6.8791666"
       y2="0.39687499"
       gradientTransform="translate(14.155209)" />
    <filter
       height="1.0853334"
       y="-0.04266669"
       width="1.1097142"
       x="-0.054857109"
       id="filter1189"
       style="color-interpolation-filters:sRGB"
       inkscape:collect="always">
      <feGaussianBlur
         id="feGaussianBlur1191"
         stdDeviation="4.2639258"
         inkscape:collect="always" />
    </filter>
  </defs>
  <sodipodi:namedview
     inkscape:guide-bbox="true"
     showguides="true"
     id="base"
     pagecolor="#ffffff"
     bordercolor="#666666"
     borderopacity="1.0"
     inkscape:pageopacity="0.0"
     inkscape:pageshadow="2"
     inkscape:zoom="0.25"
     inkscape:cx="-3010"
     inkscape:cy="-300"
     inkscape:document-units="px"
     inkscape:current-layer="layer1"
     inkscape:document-rotation="0"
     showgrid="false"
     units="px"
     inkscape:window-width="3840"
     inkscape:window-height="2045"
     inkscape:window-x="3840"
     inkscape:window-y="0"
     inkscape:window-maximized="1"
     inkscape:snap-bbox="true"
     inkscape:bbox-nodes="true"
     fit-margin-top="0"
     fit-margin-left="0"
     fit-margin-right="0"
     fit-margin-bottom="0"
     inkscape:bbox-paths="false"
     inkscape:pagecheckerboard="0">
    <inkscape:grid
       type="xygrid"
       id="grid1504"
       originx="0"
       originy="0" />
    <inkscape:grid
       type="xygrid"
       id="grid1507"
       spacingx="0.5"
       spacingy="0.5"
       originx="0"
       originy="0" />
  </sodipodi:namedview>
  <metadata
     id="metadata5">
    <rdf:RDF>
      <cc:Work
         rdf:about="">
        <dc:format>image/svg+xml</dc:format>
        <dc:type
           rdf:resource="http://purl.org/dc/dcmitype/StillImage" />
      </cc:Work>
    </rdf:RDF>
  </metadata>
  <g
     inkscape:label="Layer 1"
     inkscape:groupmode="layer"
     id="layer1"
     transform="translate(-12.567709)">
    <g
       style="opacity:1;mix-blend-mode:normal;filter:url(#filter1189)"
       transform="translate(14.844146,3.8164063)"
       id="g1164">
      <path
         sodipodi:nodetypes="cccccccccccccc"
         d="m 34.818203,0.18359375 c 0,0 -0.09098,1.19301645 -0.09164,2.66406245 V 237.36523 c 6.6e-4,1.47105 1.193014,2.66341 2.664063,2.66407 H 218.60938 c 1.47105,-6.7e-4 2.6634,-1.19302 2.66406,-2.66407 V 45.488281 42.822266 c 4.8e-4,-0.674756 -0.25498,-1.32458 -0.71485,-1.81836 L 180.49967,1.0292969 c -0.50396,-0.53940184 -1.20906,-0.84563109 -1.94726,-0.84570315 h -2.66406 -2.66602 z"
         style="color:#000000;font-style:normal;font-variant:normal;font-weight:normal;font-stretch:normal;font-size:medium;line-height:normal;font-family:sans-serif;font-variant-ligatures:normal;font-variant-position:normal;font-variant-caps:normal;font-variant-numeric:normal;font-variant-alternates:normal;font-variant-east-asian:normal;font-feature-settings:normal;font-variation-settings:normal;text-indent:0;text-align:start;text-decoration:none;text-decoration-line:none;text-decoration-style:solid;text-decoration-color:#000000;letter-spacing:normal;word-spacing:normal;text-transform:none;writing-mode:lr-tb;direction:ltr;text-orientation:mixed;dominant-baseline:auto;baseline-shift:baseline;text-anchor:start;white-space:normal;shape-padding:0;shape-margin:0;inline-size:0;clip-rule:nonzero;display:inline;overflow:visible;visibility:visible;isolation:auto;mix-blend-mode:normal;color-interpolation:sRGB;color-interpolation-filters:linearRGB;solid-color:#000000;solid-opacity:1;vector-effect:none;fill:#212121;fill-opacity:1;fill-rule:nonzero;stroke:none;stroke-width:5.33;stroke-linecap:butt;stroke-linejoin:round;stroke-miterlimit:4;stroke-dasharray:none;stroke-dashoffset:0;stroke-opacity:1;paint-order:normal;color-rendering:auto;image-rendering:auto;shape-rendering:auto;text-rendering:auto;enable-background:accumulate;stop-color:#000000;stop-opacity:1"
         id="path1166" />
    </g>
    <g
       transform="matrix(20.144742,0,0,20.144742,-240.5845,8.3591683e-4)"
       id="g943">
      <path
         id="rect1498-0"
         style="fill:url(#linearGradient1832);fill-opacity:1;stroke:none;stroke-width:0.264583;stroke-linejoin:round;stroke-miterlimit:4;stroke-dasharray:none;stroke-opacity:1;paint-order:normal"
         d="m 14.287501,0.1322915 h 7.011458 l 1.984375,2.1166669 v 9.5249996 h -8.995833 z"
         sodipodi:nodetypes="cccccc" />
      <path
         style="fill:url(#linearGradient1836);fill-opacity:1;stroke:none;stroke-width:0.264583px;stroke-linecap:butt;stroke-linejoin:miter;stroke-opacity:1"
         d="M 21.166667,0.13229167 V 2.2489584 L 23.283334,2.1166667 21.431251,0.13229167 Z"
         id="path1548-1"
         sodipodi:nodetypes="ccccc" />
      <path
         style="fill:none;stroke:url(#linearGradient1838);stroke-width:0.264583px;stroke-linecap:butt;stroke-linejoin:miter;stroke-opacity:1"
         d="M 21.431251,2.1166666 V 0.26458333"
         id="path1570-0" />
      <path
         sodipodi:nodetypes="cc"
         style="fill:none;stroke:url(#linearGradient1840);stroke-width:0.264583px;stroke-linecap:butt;stroke-linejoin:miter;stroke-opacity:1"
         d="M 23.151042,1.9843751 H 21.166667"
         id="path1595-5" />
      <path
         style="fill:#000000;fill-opacity:0;stroke:#667eb1;stroke-width:0.264583;stroke-linecap:butt;stroke-linejoin:miter;stroke-miterlimit:4;stroke-dasharray:none;stroke-opacity:1"
         d="m 21.034376,2.2489584 h 2.38125"
         id="path1605-0"
         sodipodi:nodetypes="cc" />
      <path
         sodipodi:nodetypes="cc"
         id="path1593-1"
         d="M 21.166667,0 V 2.1166667"
         style="fill:#7494c7;fill-opacity:1;stroke:url(#linearGradient1842);stroke-width:0.264583;stroke-linecap:butt;stroke-linejoin:miter;stroke-miterlimit:4;stroke-dasharray:none;stroke-opacity:1" />
      <path
         style="fill:none;stroke:url(#linearGradient1846);stroke-width:0.264583px;stroke-linecap:butt;stroke-linejoin:miter;stroke-opacity:1"
         d="m 21.298959,2.5135417 h 1.852083"
         id="path1617-8" />
      <path
         style="fill:none;stroke:url(#linearGradient1848);stroke-width:0.264583px;stroke-linecap:butt;stroke-linejoin:miter;stroke-opacity:1"
         d="M 23.018751,2.3812501 V 11.377083"
         id="path1627-5"
         sodipodi:nodetypes="cc" />
      <path
         style="fill:none;stroke:url(#linearGradient1850);stroke-width:0.264583px;stroke-linecap:butt;stroke-linejoin:miter;stroke-opacity:1"
         d="M 22.886459,11.509375 H 14.419792"
         id="path1637-0" />
      <path
         style="fill:none;stroke:url(#linearGradient1852);stroke-width:0.264583px;stroke-linecap:butt;stroke-linejoin:miter;stroke-opacity:1"
         d="M 14.552084,11.377083 V 0.26458333"
         id="path1647-6" />
      <path
         style="fill:#e8ebee;fill-opacity:1;stroke:url(#linearGradient1854);stroke-width:0.264583px;stroke-linecap:butt;stroke-linejoin:miter;stroke-opacity:1"
         d="m 21.034376,0.396875 h -6.35"
         id="path1657-4" />
      <path
         sodipodi:nodetypes="cccccc"
         d="m 14.287501,0.1322915 h 7.011458 l 1.984375,1.9843752 v 9.6572913 h -8.995833 z"
         style="fill:none;fill-opacity:1;stroke:url(#linearGradient1834);stroke-width:0.264666;stroke-linejoin:round;stroke-miterlimit:4;stroke-dasharray:none;stroke-opacity:1;paint-order:normal"
         id="path1566-2" />
      <rect
         y="1.8520833"
         x="21.29896"
         height="0.26458329"
         width="0.26458311"
         id="rect928"
         style="fill:#4db3ff;fill-opacity:1;stroke:none;stroke-width:0.264583;stroke-linecap:round;stroke-miterlimit:4;stroke-dasharray:none;stroke-opacity:1" />
    </g>
    <g
       id="g78806"
       transform="translate(3.7321789)">
      <path
         d="M 82.75369,81.831579 V 58.340075 h -5.41511 l -7.59677,5.083983 v 5.220336 l 7.24614,-4.81128 h 0.35063 v 17.998465 h -7.5773 v 4.616491 h 20.18011 v -4.616491 z"
         style="font-weight:bold;font-size:16px;line-height:1.25;font-family:'SF Mono';-inkscape-font-specification:'SF Mono Bold';text-align:center;letter-spacing:0px;word-spacing:0px;text-anchor:middle;fill:#6db6ff;fill-opacity:1;stroke-width:2.49329"
         id="path35101-88" />
      <path
         d="m 106.96642,57.74597 c -6.73968,0 -10.55754,5.27877 -10.55754,14.648104 0,9.36933 3.81786,14.648101 10.55754,14.648101 6.75917,0 10.57702,-5.278772 10.57702,-14.648101 0,-9.369333 -3.81785,-14.648103 -10.57702,-14.648104 z m 5.1619,14.648104 c 0,5.616985 -1.63718,10.070569 -5.1619,10.070569 -3.52471,0 -5.14242,-4.448707 -5.14242,-10.070569 0,-5.621862 1.71587,-10.070572 5.14242,-10.070572 3.42656,0 5.1619,4.453587 5.1619,10.070572 z"
         style="font-weight:bold;font-size:16px;line-height:1.25;font-family:'SF Mono';-inkscape-font-specification:'SF Mono Bold';text-align:center;letter-spacing:0px;word-spacing:0px;text-anchor:middle;fill:#6db6ff;fill-opacity:1;stroke-width:2.49329"
         id="path35103-3"
         sodipodi:nodetypes="ssssszzzzz" />
      <path
         d="m 79.83185,95.042175 c -6.73967,0 -10.55753,5.278765 -10.55753,14.648105 0,9.36933 3.81786,14.6481 10.55753,14.6481 6.75917,0 10.57703,-5.27877 10.57703,-14.6481 0,-9.36934 -3.81786,-14.648105 -10.57703,-14.648105 z m 5.1619,14.648105 c 0,5.61698 -2.39589,10.07057 -5.1619,10.07057 -2.76599,0 -5.14242,-4.44871 -5.14242,-10.07057 0,-5.62186 2.30655,-10.070576 5.14242,-10.070576 2.83588,0 5.1619,4.453586 5.1619,10.070576 z"
         style="font-weight:bold;font-size:16px;line-height:1.25;font-family:'SF Mono';-inkscape-font-specification:'SF Mono Bold';text-align:center;letter-spacing:0px;word-spacing:0px;text-anchor:middle;fill:#6db6ff;fill-opacity:1;stroke-width:2.49329"
         id="path35103-7-1"
         sodipodi:nodetypes="ssssszzzzz" />
      <path
         d="m 134.10098,95.042175 c -6.73968,0 -10.55754,5.278765 -10.55754,14.648105 0,9.36933 3.81786,14.6481 10.55754,14.6481 6.75917,0 10.57702,-5.27877 10.57702,-14.6481 0,-9.36934 -3.81785,-14.648105 -10.57702,-14.648105 z m 5.16189,14.648105 c 0,5.61698 -2.39588,10.07057 -5.16189,10.07057 -2.76599,0 -5.14243,-4.44871 -5.14243,-10.07057 0,-5.62186 2.30655,-10.070574 5.14243,-10.070574 2.83587,0 5.16189,4.453584 5.16189,10.070574 z"
         style="font-weight:bold;font-size:16px;line-height:1.25;font-family:'SF Mono';-inkscape-font-specification:'SF Mono Bold';text-align:center;letter-spacing:0px;word-spacing:0px;text-anchor:middle;fill:#6db6ff;fill-opacity:1;stroke-width:2.49329"
         id="path35103-7-6-8"
         sodipodi:nodetypes="ssssszzzzz" />
      <path
         d="M 191.29191,81.831579 V 58.340075 h -5.41512 l -7.59676,5.083983 v 5.220336 l 7.24614,-4.81128 h 0.35062 v 17.998465 h -7.57728 v 4.616491 h 20.1801 v -4.616491 z"
         style="font-weight:bold;font-size:16px;line-height:1.25;font-family:'SF Mono';-inkscape-font-specification:'SF Mono Bold';text-align:center;letter-spacing:0px;word-spacing:0px;text-anchor:middle;fill:#6db6ff;fill-opacity:1;stroke-width:2.49329"
         id="path35105-9" />
      <path
         d="M 137.02281,81.831579 V 58.340075 h -5.41512 l -7.59676,5.083983 v 5.220336 l 7.24614,-4.81128 h 0.35062 v 17.998465 h -7.57728 v 4.616491 h 20.1801 v -4.616491 z"
         style="font-weight:bold;font-size:16px;line-height:1.25;font-family:'SF Mono';-inkscape-font-specification:'SF Mono Bold';text-align:center;letter-spacing:0px;word-spacing:0px;text-anchor:middle;fill:#6db6ff;fill-opacity:1;stroke-width:2.49329"
         id="path35109-6" />
      <path
         d="M 109.88825,119.12779 V 95.636278 h -5.41512 l -7.59676,5.083982 v 5.22034 l 7.24614,-4.81129 h 0.35062 v 17.99848 h -7.57728 v 4.61649 h 20.1801 v -4.61649 z"
         style="font-weight:bold;font-size:16px;line-height:1.25;font-family:'SF Mono';-inkscape-font-specification:'SF Mono Bold';text-align:center;letter-spacing:0px;word-spacing:0px;text-anchor:middle;fill:#6db6ff;fill-opacity:1;stroke-width:2.49329"
         id="path35114-4" />
      <path
         d="M 164.15736,119.12779 V 95.636279 h -5.41512 l -7.59676,5.083981 v 5.22034 l 7.24614,-4.81128 h 0.35062 v 17.99847 h -7.57729 v 4.61649 h 20.18011 v -4.61649 z"
         style="font-weight:bold;font-size:16px;line-height:1.25;font-family:'SF Mono';-inkscape-font-specification:'SF Mono Bold';text-align:center;letter-spacing:0px;word-spacing:0px;text-anchor:middle;fill:#6db6ff;fill-opacity:1;stroke-width:2.49329"
         id="path35118-3" />
      <path
         d="m 188.37008,95.042175 c -6.73968,0 -10.55753,5.278765 -10.55753,14.648105 0,9.36933 3.81785,14.6481 10.55753,14.6481 6.75917,0 10.57702,-5.27877 10.57702,-14.6481 0,-9.36934 -3.81785,-14.648105 -10.57702,-14.648105 z m 5.16189,14.648105 c 0,5.61698 -2.39588,10.07057 -5.16189,10.07057 -2.76599,0 -5.14242,-4.44871 -5.14242,-10.07057 0,-5.62186 2.30654,-10.070574 5.14242,-10.070574 2.83587,0 5.16189,4.453584 5.16189,10.070574 z"
         style="font-weight:bold;font-size:16px;line-height:1.25;font-family:'SF Mono';-inkscape-font-specification:'SF Mono Bold';text-align:center;letter-spacing:0px;word-spacing:0px;text-anchor:middle;fill:#6db6ff;fill-opacity:1;stroke-width:2.49329"
         id="path35103-7-6-2-3"
         sodipodi:nodetypes="ssssszzzzz" />
      <path
         d="m 161.23553,57.74597 c -6.73968,0 -10.55753,5.27877 -10.55753,14.648104 0,9.36933 3.81785,14.648101 10.55753,14.648101 6.75917,0 10.57702,-5.278772 10.57702,-14.648101 0,-9.369333 -3.81785,-14.648103 -10.57702,-14.648104 z m 5.16189,14.648104 c 0,5.616985 -2.39588,10.070569 -5.16189,10.070569 -2.76599,0 -5.14242,-4.448707 -5.14242,-10.070569 0,-5.621862 2.30654,-10.070572 5.14242,-10.070572 2.83587,0 5.16189,4.453587 5.16189,10.070572 z"
         style="font-weight:bold;font-size:16px;line-height:1.25;font-family:'SF Mono';-inkscape-font-specification:'SF Mono Bold';text-align:center;letter-spacing:0px;word-spacing:0px;text-anchor:middle;fill:#6db6ff;fill-opacity:1;stroke-width:2.49329"
         id="path35103-7-6-2-1-3"
         sodipodi:nodetypes="ssssszzzzz" />
      <path
         d="m 82.75369,156.424 v -23.49151 h -5.41511 l -7.59677,5.08398 v 5.22034 l 7.24614,-4.81128 h 0.35063 V 156.424 h -7.5773 v 4.61649 H 89.94139 V 156.424 Z"
         style="font-weight:bold;font-size:16px;line-height:1.25;font-family:'SF Mono';-inkscape-font-specification:'SF Mono Bold';text-align:center;letter-spacing:0px;word-spacing:0px;text-anchor:middle;fill:#6db6ff;fill-opacity:1;stroke-width:2.49329"
         id="path35101-88-6" />
      <path
         d="m 106.96642,132.33838 c -6.73968,0 -10.55754,5.27877 -10.55754,14.6481 0,9.36933 3.81786,14.64811 10.55754,14.64811 6.75917,0 10.57702,-5.27878 10.57702,-14.64811 0,-9.36933 -3.81785,-14.6481 -10.57702,-14.6481 z m 5.1619,14.6481 c 0,5.61699 -1.63718,10.07057 -5.1619,10.07057 -3.52471,0 -5.14242,-4.44871 -5.14242,-10.07057 0,-5.62186 1.71587,-10.07057 5.14242,-10.07057 3.42656,0 5.1619,4.45359 5.1619,10.07057 z"
         style="font-weight:bold;font-size:16px;line-height:1.25;font-family:'SF Mono';-inkscape-font-specification:'SF Mono Bold';text-align:center;letter-spacing:0px;word-spacing:0px;text-anchor:middle;fill:#6db6ff;fill-opacity:1;stroke-width:2.49329"
         id="path35103-3-0"
         sodipodi:nodetypes="ssssszzzzz" />
      <path
         d="m 79.83185,169.63459 c -6.73967,0 -10.55753,5.27877 -10.55753,14.64811 0,9.36932 3.81786,14.6481 10.55753,14.6481 6.75917,0 10.57703,-5.27878 10.57703,-14.6481 0,-9.36934 -3.81786,-14.64811 -10.57703,-14.64811 z m 5.1619,14.64811 c 0,5.61697 -2.39589,10.07056 -5.1619,10.07056 -2.76599,0 -5.14242,-4.44871 -5.14242,-10.07056 0,-5.62187 2.30655,-10.07058 5.14242,-10.07058 2.83588,0 5.1619,4.45359 5.1619,10.07058 z"
         style="font-weight:bold;font-size:16px;line-height:1.25;font-family:'SF Mono';-inkscape-font-specification:'SF Mono Bold';text-align:center;letter-spacing:0px;word-spacing:0px;text-anchor:middle;fill:#6db6ff;fill-opacity:1;stroke-width:2.49329"
         id="path35103-7-1-4"
         sodipodi:nodetypes="ssssszzzzz" />
      <path
         d="m 134.10098,169.6346 c -6.73968,0 -10.55754,5.27877 -10.55754,14.6481 0,9.36933 3.81786,14.6481 10.55754,14.6481 6.75917,0 10.57702,-5.27877 10.57702,-14.6481 0,-9.36933 -3.81785,-14.6481 -10.57702,-14.6481 z m 5.16189,14.6481 c 0,5.61698 -2.39588,10.07058 -5.16189,10.07058 -2.76599,0 -5.14243,-4.44871 -5.14243,-10.07058 0,-5.62185 2.30655,-10.07057 5.14243,-10.07057 2.83587,0 5.16189,4.45358 5.16189,10.07057 z"
         style="font-weight:bold;font-size:16px;line-height:1.25;font-family:'SF Mono';-inkscape-font-specification:'SF Mono Bold';text-align:center;letter-spacing:0px;word-spacing:0px;text-anchor:middle;fill:#6db6ff;fill-opacity:1;stroke-width:2.49329"
         id="path35103-7-6-8-8"
         sodipodi:nodetypes="ssssszzzzz" />
      <path
         d="m 191.29191,156.424 v -23.49151 h -5.41512 l -7.59676,5.08398 v 5.22034 l 7.24614,-4.81128 h 0.35062 V 156.424 h -7.57728 v 4.61649 h 20.1801 V 156.424 Z"
         style="font-weight:bold;font-size:16px;line-height:1.25;font-family:'SF Mono';-inkscape-font-specification:'SF Mono Bold';text-align:center;letter-spacing:0px;word-spacing:0px;text-anchor:middle;fill:#6db6ff;fill-opacity:1;stroke-width:2.49329"
         id="path35105-9-8" />
      <path
         d="m 137.02281,156.424 v -23.49151 h -5.41512 l -7.59676,5.08398 v 5.22034 l 7.24614,-4.81128 h 0.35062 V 156.424 h -7.57728 v 4.61649 h 20.1801 V 156.424 Z"
         style="font-weight:bold;font-size:16px;line-height:1.25;font-family:'SF Mono';-inkscape-font-specification:'SF Mono Bold';text-align:center;letter-spacing:0px;word-spacing:0px;text-anchor:middle;fill:#6db6ff;fill-opacity:1;stroke-width:2.49329"
         id="path35109-6-8" />
      <path
         d="m 109.88825,193.7202 v -23.4915 h -5.41512 l -7.59676,5.08398 v 5.22033 l 7.24614,-4.81128 h 0.35062 v 17.99847 h -7.57728 v 4.61649 h 20.1801 v -4.61649 z"
         style="font-weight:bold;font-size:16px;line-height:1.25;font-family:'SF Mono';-inkscape-font-specification:'SF Mono Bold';text-align:center;letter-spacing:0px;word-spacing:0px;text-anchor:middle;fill:#6db6ff;fill-opacity:1;stroke-width:2.49329"
         id="path35114-4-9" />
      <path
         d="m 164.15736,193.7202 v -23.4915 h -5.41512 l -7.59676,5.08398 v 5.22033 l 7.24614,-4.81127 h 0.35062 v 17.99846 h -7.57729 v 4.61649 h 20.18011 v -4.61649 z"
         style="font-weight:bold;font-size:16px;line-height:1.25;font-family:'SF Mono';-inkscape-font-specification:'SF Mono Bold';text-align:center;letter-spacing:0px;word-spacing:0px;text-anchor:middle;fill:#6db6ff;fill-opacity:1;stroke-width:2.49329"
         id="path35118-3-7" />
      <path
         d="m 188.37008,169.6346 c -6.73968,0 -10.55753,5.27877 -10.55753,14.6481 0,9.36933 3.81785,14.6481 10.55753,14.6481 6.75917,0 10.57702,-5.27877 10.57702,-14.6481 0,-9.36933 -3.81785,-14.6481 -10.57702,-14.6481 z m 5.16189,14.6481 c 0,5.61698 -2.39588,10.07058 -5.16189,10.07058 -2.76599,0 -5.14242,-4.44871 -5.14242,-10.07058 0,-5.62185 2.30654,-10.07057 5.14242,-10.07057 2.83587,0 5.16189,4.45358 5.16189,10.07057 z"
         style="font-weight:bold;font-size:16px;line-height:1.25;font-family:'SF Mono';-inkscape-font-specification:'SF Mono Bold';text-align:center;letter-spacing:0px;word-spacing:0px;text-anchor:middle;fill:#6db6ff;fill-opacity:1;stroke-width:2.49329"
         id="path35103-7-6-2-3-7"
         sodipodi:nodetypes="ssssszzzzz" />
      <path
         d="m 161.23553,132.33838 c -6.73968,0 -10.55753,5.27877 -10.55753,14.6481 0,9.36933 3.81785,14.64811 10.55753,14.64811 6.75917,0 10.57702,-5.27878 10.57702,-14.64811 0,-9.36933 -3.81785,-14.6481 -10.57702,-14.6481 z m 5.16189,14.6481 c 0,5.61699 -2.39588,10.07057 -5.16189,10.07057 -2.76599,0 -5.14242,-4.44871 -5.14242,-10.07057 0,-5.62186 2.30654,-10.07057 5.14242,-10.07057 2.83587,0 5.16189,4.45359 5.16189,10.07057 z"
         style="font-weight:bold;font-size:16px;line-height:1.25;font-family:'SF Mono';-inkscape-font-specification:'SF Mono Bold';text-align:center;letter-spacing:0px;word-spacing:0px;text-anchor:middle;fill:#6db6ff;fill-opacity:1;stroke-width:2.49329"
         id="path35103-7-6-2-1-3-6"
         sodipodi:nodetypes="ssssszzzzz" />
    </g>
  </g>
</svg>
