<?xml version="1.0" encoding="UTF-8" standalone="no"?>
<svg
   inkscape:export-ydpi="96"
   inkscape:export-xdpi="96"
   inkscape:export-filename="text-file.png"
   sodipodi:docname="config-file-2.svg"
   inkscape:version="1.3.2 (1:1.3.2+202311252150+091e20ef0f)"
   id="svg8"
   version="1.1"
   viewBox="0 0 48 48"
   height="48"
   width="48"
   xml:space="preserve"
   xmlns:inkscape="http://www.inkscape.org/namespaces/inkscape"
   xmlns:sodipodi="http://sodipodi.sourceforge.net/DTD/sodipodi-0.dtd"
   xmlns:xlink="http://www.w3.org/1999/xlink"
   xmlns="http://www.w3.org/2000/svg"
   xmlns:svg="http://www.w3.org/2000/svg"
   xmlns:rdf="http://www.w3.org/1999/02/22-rdf-syntax-ns#"
   xmlns:cc="http://creativecommons.org/ns#"
   xmlns:dc="http://purl.org/dc/elements/1.1/"><defs
     id="defs2"><linearGradient
       id="linearGradient8"
       inkscape:collect="always"><stop
         style="stop-color:#3e9ade;stop-opacity:1;"
         offset="0"
         id="stop8" /><stop
         style="stop-color:#b4e2ff;stop-opacity:1"
         offset="1"
         id="stop9" /></linearGradient><linearGradient
       inkscape:collect="always"
       id="linearGradient2"><stop
         style="stop-color:#cc9900;stop-opacity:1"
         offset="0"
         id="stop1" /><stop
         style="stop-color:#ffff00;stop-opacity:1"
         offset="1"
         id="stop2" /></linearGradient><linearGradient
       id="linearGradient932"
       inkscape:collect="always"><stop
         id="stop928"
         offset="0"
         style="stop-color:#deffff;stop-opacity:1" /><stop
         id="stop930"
         offset="1"
         style="stop-color:#ffffff;stop-opacity:1;" /></linearGradient><linearGradient
       y2="19.199724"
       x2="-42.836578"
       y1="29.804968"
       x1="-52.706017"
       gradientTransform="matrix(1.0325149,0,0,1.1017618,78.998135,-1.3757612)"
       gradientUnits="userSpaceOnUse"
       id="linearGradient3912"
       xlink:href="#linearGradient932"
       inkscape:collect="always" /><linearGradient
       y2="5.1591501"
       x2="-20.165092"
       y1="10.185062"
       x1="-21.386543"
       gradientTransform="matrix(1.0279242,0.1031566,-0.09667309,1.0968633,42.696003,-1.5584079)"
       gradientUnits="userSpaceOnUse"
       id="linearGradient3914"
       xlink:href="#linearGradient2"
       inkscape:collect="always" /><linearGradient
       inkscape:collect="always"
       xlink:href="#linearGradient2"
       id="linearGradient3"
       gradientUnits="userSpaceOnUse"
       gradientTransform="matrix(1.0279242,0.1031566,-0.09667309,1.0968633,48.014987,-1.9081626)"
       x1="-21.386543"
       y1="10.185062"
       x2="-20.165092"
       y2="5.1591501" /><linearGradient
       inkscape:collect="always"
       xlink:href="#linearGradient2"
       id="linearGradient4"
       gradientUnits="userSpaceOnUse"
       gradientTransform="matrix(1.0279242,0.1031566,-0.09667309,1.0968633,53.637597,-2.2355118)"
       x1="-21.386543"
       y1="10.185062"
       x2="-20.165092"
       y2="5.1591501" /><linearGradient
       inkscape:collect="always"
       xlink:href="#linearGradient2"
       id="linearGradient5"
       gradientUnits="userSpaceOnUse"
       gradientTransform="matrix(1.0279242,0.1031566,-0.09667309,1.0968633,58.940374,-2.555275)"
       x1="-21.386543"
       y1="10.185062"
       x2="-20.165092"
       y2="5.1591501" /><linearGradient
       inkscape:collect="always"
       xlink:href="#linearGradient2"
       id="linearGradient6"
       gradientUnits="userSpaceOnUse"
       gradientTransform="matrix(1.0279242,0.1031566,-0.09667309,1.0968633,63.733221,-2.7943433)"
       x1="-21.386543"
       y1="10.185062"
       x2="-20.165092"
       y2="5.1591501" /><linearGradient
       inkscape:collect="always"
       xlink:href="#linearGradient1297"
       id="linearGradient1299-3-9"
       x1="-610.89648"
       y1="-86.140625"
       x2="-482.89648"
       y2="-86.140625"
       gradientUnits="userSpaceOnUse" /><linearGradient
       inkscape:collect="always"
       id="linearGradient1297"><stop
         style="stop-color:#ffcc66;stop-opacity:1"
         offset="0"
         id="stop1293" /><stop
         style="stop-color:#cc9900;stop-opacity:1"
         offset="1"
         id="stop1295" /></linearGradient><linearGradient
       inkscape:collect="always"
       xlink:href="#linearGradient1330"
       id="linearGradient1195-3-3"
       gradientUnits="userSpaceOnUse"
       gradientTransform="matrix(0.18365648,0,0,0.18365648,79.469145,-28.568722)"
       x1="-183.65593"
       y1="270.01913"
       x2="-151.74518"
       y2="270.01913" /><linearGradient
       inkscape:collect="always"
       id="linearGradient1330"><stop
         style="stop-color:#8f520c;stop-opacity:1"
         offset="0"
         id="stop1326" /><stop
         style="stop-color:#8f520c;stop-opacity:0"
         offset="1"
         id="stop1328" /></linearGradient><linearGradient
       inkscape:collect="always"
       xlink:href="#linearGradient1047"
       id="linearGradient1097-9"
       gradientUnits="userSpaceOnUse"
       gradientTransform="matrix(0.18365648,0,0,0.18365648,111.06129,1.9552872)"
       x1="-383.65329"
       y1="83.663925"
       x2="-351.65329"
       y2="83.663925" /><linearGradient
       inkscape:collect="always"
       id="linearGradient1047"><stop
         style="stop-color:#ececec;stop-opacity:1"
         offset="0"
         id="stop1043" /><stop
         style="stop-color:#29292d;stop-opacity:1"
         offset="1"
         id="stop1045" /></linearGradient><linearGradient
       inkscape:collect="always"
       xlink:href="#linearGradient1307"
       id="linearGradient1099-8"
       gradientUnits="userSpaceOnUse"
       gradientTransform="matrix(0.18365648,0,0,0.18365648,111.06129,1.9552872)"
       x1="-381.32599"
       y1="51.977211"
       x2="-352.63574"
       y2="60.823318" /><linearGradient
       id="linearGradient1307"
       inkscape:collect="always"><stop
         id="stop1303"
         offset="0"
         style="stop-color:#99ccff;stop-opacity:1" /><stop
         style="stop-color:#5e6b77;stop-opacity:1"
         offset="0.51075882"
         id="stop1309" /><stop
         id="stop1305"
         offset="1"
         style="stop-color:#4c4c4c;stop-opacity:1" /></linearGradient><linearGradient
       inkscape:collect="always"
       xlink:href="#linearGradient8"
       id="linearGradient9"
       x1="20.567709"
       y1="10.921926"
       x2="32.567709"
       y2="10.921926"
       gradientUnits="userSpaceOnUse" /><linearGradient
       inkscape:collect="always"
       xlink:href="#linearGradient8"
       id="linearGradient11"
       x1="20.567709"
       y1="14.921926"
       x2="32.567711"
       y2="14.921926"
       gradientUnits="userSpaceOnUse" /><linearGradient
       inkscape:collect="always"
       xlink:href="#linearGradient8"
       id="linearGradient13"
       x1="20.567709"
       y1="20.659166"
       x2="37.567711"
       y2="20.659166"
       gradientUnits="userSpaceOnUse" /><linearGradient
       inkscape:collect="always"
       xlink:href="#linearGradient8"
       id="linearGradient14"
       x1="20.567709"
       y1="24.659166"
       x2="37.567711"
       y2="24.659166"
       gradientUnits="userSpaceOnUse" /><linearGradient
       inkscape:collect="always"
       xlink:href="#linearGradient8"
       id="linearGradient15"
       x1="20.567709"
       y1="28.659166"
       x2="37.567711"
       y2="28.659166"
       gradientUnits="userSpaceOnUse" /><linearGradient
       inkscape:collect="always"
       xlink:href="#linearGradient8"
       id="linearGradient16"
       x1="20.567709"
       y1="32.659164"
       x2="37.567711"
       y2="32.659164"
       gradientUnits="userSpaceOnUse" /><linearGradient
       inkscape:collect="always"
       xlink:href="#linearGradient8"
       id="linearGradient17"
       x1="20.567709"
       y1="36.948204"
       x2="32.067711"
       y2="36.948204"
       gradientUnits="userSpaceOnUse" /></defs><sodipodi:namedview
     inkscape:guide-bbox="true"
     inkscape:snap-object-midpoints="true"
     showguides="true"
     inkscape:snap-global="true"
     inkscape:bbox-paths="false"
     fit-margin-bottom="0"
     fit-margin-right="0"
     fit-margin-left="0"
     fit-margin-top="0"
     inkscape:bbox-nodes="true"
     inkscape:snap-bbox="true"
     inkscape:window-maximized="1"
     inkscape:window-y="0"
     inkscape:window-x="3840"
     inkscape:window-height="2056"
     inkscape:window-width="3840"
     units="px"
     showgrid="false"
     inkscape:document-rotation="0"
     inkscape:current-layer="layer1"
     inkscape:document-units="px"
     inkscape:cy="30.068887"
     inkscape:cx="49.304641"
     inkscape:zoom="7.2001336"
     inkscape:pageshadow="2"
     inkscape:pageopacity="0.0"
     borderopacity="1.0"
     bordercolor="#666666"
     pagecolor="#ffffff"
     id="base"
     inkscape:pagecheckerboard="0"
     inkscape:showpageshadow="2"
     inkscape:deskcolor="#d1d1d1"><inkscape:grid
       originy="0"
       originx="0"
       id="grid1504"
       type="xygrid"
       spacingy="1"
       spacingx="1"
       units="px"
       visible="false" /><inkscape:grid
       originy="0"
       originx="0"
       spacingy="0.5"
       spacingx="0.5"
       id="grid1507"
       type="xygrid"
       units="px"
       visible="false" /></sodipodi:namedview><metadata
     id="metadata5"><rdf:RDF><cc:Work
         rdf:about=""><dc:format>image/svg+xml</dc:format><dc:type
           rdf:resource="http://purl.org/dc/dcmitype/StillImage" /></cc:Work></rdf:RDF></metadata><g
     transform="translate(-12.567709)"
     id="layer1"
     inkscape:groupmode="layer"
     inkscape:label="Layer 1"><path
       id="path3864"
       style="fill:#6666cc;fill-opacity:1;stroke:none;stroke-width:1.06658px;stroke-linecap:butt;stroke-linejoin:miter;stroke-opacity:1"
       d="M 41.896943,1.9286727 15.567708,3.581322 v 39.663583 l 2.065038,2.754416 26.767253,-41.8307261 0.02984,-0.036389 z"
       sodipodi:nodetypes="ccccccc" /><path
       style="fill:#9999cc;fill-opacity:1;stroke:none;stroke-width:1.06658px;stroke-linecap:butt;stroke-linejoin:miter;stroke-opacity:1"
       d="M 17.633404,45.999998 16.609256,44.632069 16.600892,4.6839291 43.236215,2.9576042 44.47824,4.1322051"
       id="path3868"
       sodipodi:nodetypes="ccccc" /><path
       style="fill:url(#linearGradient3912);fill-opacity:1;stroke:none;stroke-width:1.06658px;stroke-linecap:butt;stroke-linejoin:miter;stroke-opacity:1"
       d="M 17.633407,5.7856905 V 45.999998 L 44.47824,41.599448 V 4.1322051 Z"
       id="path3870"
       sodipodi:nodetypes="ccccc" /><path
       id="circle3890"
       style="fill:#666699;fill-opacity:1;fill-rule:evenodd;stroke:none;stroke-width:1.36642;stroke-linecap:round;stroke-linejoin:round"
       d="m 20.856249,6.8036402 a 0.96859141,1.0335512 0 0 1 -0.968592,1.0335512 0.96859141,1.0335512 0 0 1 -0.96859,-1.0335512 0.96859141,1.0335512 0 0 1 0.96859,-1.0335512 0.96859141,1.0335512 0 0 1 0.968592,1.0335512" /><path
       id="circle3892"
       style="fill:#666699;fill-opacity:1;fill-rule:evenodd;stroke:none;stroke-width:1.3664;stroke-linecap:round;stroke-linejoin:round"
       d="M 26.10143,6.5010141 A 0.96859141,1.0335512 0 0 1 25.132839,7.5345653 0.96859141,1.0335512 0 0 1 24.164248,6.5010141 0.96859141,1.0335512 0 0 1 25.132839,5.4674629 0.96859141,1.0335512 0 0 1 26.10143,6.5010141" /><path
       id="circle3894"
       style="fill:#666699;fill-opacity:1;fill-rule:evenodd;stroke:none;stroke-width:1.3664;stroke-linecap:round;stroke-linejoin:round"
       d="M 31.710762,6.1647792 A 0.96859141,1.0335512 0 0 1 30.74217,7.1983304 0.96859141,1.0335512 0 0 1 29.77358,6.1647792 0.96859141,1.0335512 0 0 1 30.74217,5.131228 0.96859141,1.0335512 0 0 1 31.710762,6.1647792" /><path
       id="circle3896"
       style="fill:#666699;fill-opacity:1;fill-rule:evenodd;stroke:none;stroke-width:1.3664;stroke-linecap:round;stroke-linejoin:round"
       d="M 36.87226,5.9167337 A 0.96859141,1.0335512 0 0 1 35.903669,6.9502849 0.96859141,1.0335512 0 0 1 34.935077,5.9167337 0.96859141,1.0335512 0 0 1 35.903669,4.8831825 0.96859141,1.0335512 0 0 1 36.87226,5.9167337" /><path
       id="circle3898"
       style="fill:#666699;fill-opacity:1;fill-rule:evenodd;stroke:none;stroke-width:1.3664;stroke-linecap:round;stroke-linejoin:round"
       d="M 41.738276,5.6931522 A 0.96859141,1.0335512 0 0 1 40.769684,6.7267034 0.96859141,1.0335512 0 0 1 39.801092,5.6931522 0.96859141,1.0335512 0 0 1 40.769684,4.659601 0.96859141,1.0335512 0 0 1 41.738276,5.6931522" /><path
       style="color:#000000;font-style:normal;font-variant:normal;font-weight:normal;font-stretch:normal;font-size:medium;line-height:normal;font-family:sans-serif;font-variant-ligatures:normal;font-variant-position:normal;font-variant-caps:normal;font-variant-numeric:normal;font-variant-alternates:normal;font-variant-east-asian:normal;font-feature-settings:normal;font-variation-settings:normal;text-indent:0;text-align:start;text-decoration:none;text-decoration-line:none;text-decoration-style:solid;text-decoration-color:#000000;letter-spacing:normal;word-spacing:normal;text-transform:none;writing-mode:lr-tb;direction:ltr;text-orientation:mixed;dominant-baseline:auto;baseline-shift:baseline;text-anchor:start;white-space:normal;shape-padding:0;shape-margin:0;inline-size:0;clip-rule:nonzero;display:inline;overflow:visible;visibility:visible;isolation:auto;mix-blend-mode:normal;color-interpolation:sRGB;color-interpolation-filters:linearRGB;solid-color:#000000;solid-opacity:1;vector-effect:none;fill:url(#linearGradient6);fill-opacity:1;fill-rule:evenodd;stroke:none;stroke-width:1.33315;stroke-linecap:round;stroke-linejoin:round;stroke-miterlimit:4;stroke-dasharray:none;stroke-dashoffset:0;stroke-opacity:1;color-rendering:auto;image-rendering:auto;shape-rendering:auto;text-rendering:auto;enable-background:accumulate;stop-color:#000000"
       d="m 40.482419,6.1562753 c 1.34969,0.158318 2.419267,-0.9558038 2.761829,-2.357415 0.06404,-0.3111851 0.08628,-0.6161762 0.07951,-0.9256842 C 43.229958,1.4303281 42.37405,0.14761608 41.023894,0.01212175 39.706369,-0.1200978 38.543211,0.84391931 38.167872,2.1903789 L 39.6023,2.1075327 c 0.293405,-0.4917689 0.788379,-0.7757511 1.300752,-0.7243323 0.757582,0.076026 1.349673,0.8648736 1.263479,1.8428357 -0.08619,0.9779623 -0.806566,1.6441032 -1.563315,1.5591538 -0.642764,-0.072154 -0.76437,1.2955943 -0.120793,1.3710854 z"
       id="path3900-7-9-7"
       sodipodi:nodetypes="sccsccsssss" /><path
       style="color:#000000;font-style:normal;font-variant:normal;font-weight:normal;font-stretch:normal;font-size:medium;line-height:normal;font-family:sans-serif;font-variant-ligatures:normal;font-variant-position:normal;font-variant-caps:normal;font-variant-numeric:normal;font-variant-alternates:normal;font-variant-east-asian:normal;font-feature-settings:normal;font-variation-settings:normal;text-indent:0;text-align:start;text-decoration:none;text-decoration-line:none;text-decoration-style:solid;text-decoration-color:#000000;letter-spacing:normal;word-spacing:normal;text-transform:none;writing-mode:lr-tb;direction:ltr;text-orientation:mixed;dominant-baseline:auto;baseline-shift:baseline;text-anchor:start;white-space:normal;shape-padding:0;shape-margin:0;inline-size:0;clip-rule:nonzero;display:inline;overflow:visible;visibility:visible;isolation:auto;mix-blend-mode:normal;color-interpolation:sRGB;color-interpolation-filters:linearRGB;solid-color:#000000;solid-opacity:1;vector-effect:none;fill:url(#linearGradient3914);fill-opacity:1;fill-rule:evenodd;stroke:none;stroke-width:1.33315;stroke-linecap:round;stroke-linejoin:round;stroke-miterlimit:4;stroke-dasharray:none;stroke-dashoffset:0;stroke-opacity:1;color-rendering:auto;image-rendering:auto;shape-rendering:auto;text-rendering:auto;enable-background:accumulate;stop-color:#000000"
       d="m 19.4452,7.3922108 c 1.34969,0.1583179 2.419268,-0.9558038 2.761829,-2.357415 0.06404,-0.3111852 0.08628,-0.6161762 0.07952,-0.9256843 -0.0938,-1.442848 -0.949712,-2.7255601 -2.299868,-2.8610543 -1.349367,-0.1354151 -2.536817,0.8790351 -2.881846,2.276542 l 1.430564,-0.1294097 c 0.288904,-0.5234627 0.800361,-0.8292493 1.33044,-0.7760537 0.757582,0.076026 1.349673,0.8648736 1.263479,1.8428357 -0.0862,0.9779623 -0.806567,1.6441033 -1.563315,1.5591538 -0.642764,-0.072154 -0.76437,1.2955943 -0.120794,1.3710855 z"
       id="path3900"
       sodipodi:nodetypes="sccsccssss" /><path
       style="color:#000000;font-style:normal;font-variant:normal;font-weight:normal;font-stretch:normal;font-size:medium;line-height:normal;font-family:sans-serif;font-variant-ligatures:normal;font-variant-position:normal;font-variant-caps:normal;font-variant-numeric:normal;font-variant-alternates:normal;font-variant-east-asian:normal;font-feature-settings:normal;font-variation-settings:normal;text-indent:0;text-align:start;text-decoration:none;text-decoration-line:none;text-decoration-style:solid;text-decoration-color:#000000;letter-spacing:normal;word-spacing:normal;text-transform:none;writing-mode:lr-tb;direction:ltr;text-orientation:mixed;dominant-baseline:auto;baseline-shift:baseline;text-anchor:start;white-space:normal;shape-padding:0;shape-margin:0;inline-size:0;clip-rule:nonzero;display:inline;overflow:visible;visibility:visible;isolation:auto;mix-blend-mode:normal;color-interpolation:sRGB;color-interpolation-filters:linearRGB;solid-color:#000000;solid-opacity:1;vector-effect:none;fill:url(#linearGradient3);fill-opacity:1;fill-rule:evenodd;stroke:none;stroke-width:1.33315;stroke-linecap:round;stroke-linejoin:round;stroke-miterlimit:4;stroke-dasharray:none;stroke-dashoffset:0;stroke-opacity:1;color-rendering:auto;image-rendering:auto;shape-rendering:auto;text-rendering:auto;enable-background:accumulate;stop-color:#000000"
       d="m 24.764185,7.042456 c 1.34969,0.1583179 2.419267,-0.9558038 2.761829,-2.357415 0.06404,-0.3111852 0.08628,-0.6161762 0.07951,-0.9256843 -0.0938,-1.442848 -0.949712,-2.72556 -2.299868,-2.86105432 C 23.963523,0.7636129 22.781574,1.7664993 22.429433,3.1524133 l 1.424945,-0.1069782 c 0.0062,-0.011272 0.01255,-0.022444 0.01897,-0.033512 0.291968,-0.502953 0.792804,-0.7945908 1.311468,-0.7425407 0.757582,0.076026 1.349673,0.8648736 1.263479,1.8428357 -0.08619,0.9779623 -0.806566,1.6441033 -1.563315,1.5591538 -0.642764,-0.072154 -0.76437,1.2955943 -0.120793,1.3710845 z"
       id="path3900-7"
       sodipodi:nodetypes="sccsccssssss" /><path
       style="color:#000000;font-style:normal;font-variant:normal;font-weight:normal;font-stretch:normal;font-size:medium;line-height:normal;font-family:sans-serif;font-variant-ligatures:normal;font-variant-position:normal;font-variant-caps:normal;font-variant-numeric:normal;font-variant-alternates:normal;font-variant-east-asian:normal;font-feature-settings:normal;font-variation-settings:normal;text-indent:0;text-align:start;text-decoration:none;text-decoration-line:none;text-decoration-style:solid;text-decoration-color:#000000;letter-spacing:normal;word-spacing:normal;text-transform:none;writing-mode:lr-tb;direction:ltr;text-orientation:mixed;dominant-baseline:auto;baseline-shift:baseline;text-anchor:start;white-space:normal;shape-padding:0;shape-margin:0;inline-size:0;clip-rule:nonzero;display:inline;overflow:visible;visibility:visible;isolation:auto;mix-blend-mode:normal;color-interpolation:sRGB;color-interpolation-filters:linearRGB;solid-color:#000000;solid-opacity:1;vector-effect:none;fill:url(#linearGradient4);fill-opacity:1;fill-rule:evenodd;stroke:none;stroke-width:1.33315;stroke-linecap:round;stroke-linejoin:round;stroke-miterlimit:4;stroke-dasharray:none;stroke-dashoffset:0;stroke-opacity:1;color-rendering:auto;image-rendering:auto;shape-rendering:auto;text-rendering:auto;enable-background:accumulate;stop-color:#000000"
       d="M 30.386794,6.7151068 C 31.736484,6.8734247 32.806061,5.759303 33.148623,4.3576918 33.21266,4.0465066 33.2349,3.7415156 33.228137,3.4320076 33.134333,1.9891596 32.278425,0.70644743 30.928269,0.57095321 29.578902,0.4355381 28.391453,1.4499883 28.046423,2.8474952 l 1.430564,-0.1294097 c 0.288904,-0.5234626 0.800362,-0.8292493 1.33044,-0.7760537 0.757582,0.076026 1.349673,0.8648736 1.263479,1.8428358 -0.08619,0.9779623 -0.806566,1.6441032 -1.563315,1.5591537 -0.642764,-0.072153 -0.76437,1.2955943 -0.120793,1.3710855 z"
       id="path3900-7-5"
       sodipodi:nodetypes="sccsccssss" /><path
       style="color:#000000;font-style:normal;font-variant:normal;font-weight:normal;font-stretch:normal;font-size:medium;line-height:normal;font-family:sans-serif;font-variant-ligatures:normal;font-variant-position:normal;font-variant-caps:normal;font-variant-numeric:normal;font-variant-alternates:normal;font-variant-east-asian:normal;font-feature-settings:normal;font-variation-settings:normal;text-indent:0;text-align:start;text-decoration:none;text-decoration-line:none;text-decoration-style:solid;text-decoration-color:#000000;letter-spacing:normal;word-spacing:normal;text-transform:none;writing-mode:lr-tb;direction:ltr;text-orientation:mixed;dominant-baseline:auto;baseline-shift:baseline;text-anchor:start;white-space:normal;shape-padding:0;shape-margin:0;inline-size:0;clip-rule:nonzero;display:inline;overflow:visible;visibility:visible;isolation:auto;mix-blend-mode:normal;color-interpolation:sRGB;color-interpolation-filters:linearRGB;solid-color:#000000;solid-opacity:1;vector-effect:none;fill:url(#linearGradient5);fill-opacity:1;fill-rule:evenodd;stroke:none;stroke-width:1.33315;stroke-linecap:round;stroke-linejoin:round;stroke-miterlimit:4;stroke-dasharray:none;stroke-dashoffset:0;stroke-opacity:1;color-rendering:auto;image-rendering:auto;shape-rendering:auto;text-rendering:auto;enable-background:accumulate;stop-color:#000000"
       d="M 35.689571,6.3953436 C 37.039261,6.5536616 38.108838,5.4395398 38.4514,4.0379286 38.51544,3.7267435 38.53768,3.4217524 38.53091,3.1122444 38.43711,1.6693964 37.581202,0.38668425 36.231046,0.25119003 34.881679,0.11577492 33.69423,1.1302252 33.3492,2.5277321 l 1.430564,-0.1294097 c 0.288904,-0.5234627 0.800362,-0.8292493 1.33044,-0.7760537 0.757582,0.076026 1.349673,0.8648735 1.263479,1.8428357 -0.08619,0.9779623 -0.806566,1.6441032 -1.563315,1.5591537 -0.642764,-0.072153 -0.76437,1.2955944 -0.120793,1.3710855 z"
       id="path3900-7-9"
       sodipodi:nodetypes="sccsccssss" /><path
       style="fill:none;stroke:url(#linearGradient17);stroke-width:1px;stroke-linecap:round;stroke-linejoin:miter;stroke-opacity:1"
       d="m 21.067709,37.5 10.5,-1.103594"
       id="path1"
       sodipodi:nodetypes="cc" /><path
       style="fill:none;stroke:url(#linearGradient16);stroke-width:1px;stroke-linecap:round;stroke-linejoin:miter;stroke-opacity:1"
       d="m 21.067709,33.5 16,-1.681668"
       id="path1-3"
       sodipodi:nodetypes="cc" /><path
       style="fill:none;stroke:url(#linearGradient15);stroke-width:1px;stroke-linecap:round;stroke-linejoin:miter;stroke-opacity:1"
       d="m 21.067709,29.5 16,-1.681668"
       id="path1-3-6"
       sodipodi:nodetypes="cc" /><path
       style="fill:none;stroke:url(#linearGradient14);stroke-width:1px;stroke-linecap:round;stroke-linejoin:miter;stroke-opacity:1"
       d="m 21.067709,25.5 16,-1.681668"
       id="path1-3-7"
       sodipodi:nodetypes="cc" /><path
       style="fill:none;stroke:url(#linearGradient13);stroke-width:1px;stroke-linecap:round;stroke-linejoin:miter;stroke-opacity:1"
       d="m 21.067709,21.5 16,-1.681668"
       id="path1-3-5"
       sodipodi:nodetypes="cc" /><path
       style="fill:none;stroke:url(#linearGradient11);stroke-width:1px;stroke-linecap:round;stroke-linejoin:miter;stroke-opacity:1"
       d="m 21.067709,15.5 11,-1.156147"
       id="path1-3-5-3"
       sodipodi:nodetypes="cc" /><path
       style="fill:none;stroke:url(#linearGradient9);stroke-width:1px;stroke-linecap:round;stroke-linejoin:miter;stroke-opacity:1;fill-opacity:1"
       d="m 21.067709,11.5 11,-1.156147"
       id="path1-3-5-3-5"
       sodipodi:nodetypes="cc" /><path
       id="path1126-1"
       style="fill:#3e9ade;fill-opacity:1;fill-rule:evenodd;stroke:none;stroke-width:0.207246;stroke-linecap:round;stroke-linejoin:round"
       d="M 44.477865 15.259766 C 43.801597 15.360253 43.349162 15.647703 43.257162 15.96875 L 42.651693 18.083984 C 41.991212 18.225327 41.355235 18.426513 40.759115 18.681641 L 38.573568 17.548828 C 38.161592 17.335234 37.374233 17.468381 36.690756 18.025391 C 36.007278 18.582399 35.747046 19.26543 36.106772 19.558594 L 37.497397 21.179688 C 37.064137 21.7784 36.762182 22.425626 36.602865 23.095703 L 34.167318 23.376953 C 33.661935 23.435193 33.247396 24.011096 33.247397 24.798828 C 33.247397 25.58656 33.658591 26.220703 34.167318 26.220703 L 37.052084 26.519531 C 37.24568 26.891461 37.485738 27.249483 37.768881 27.587891 L 36.106772 30.037109 C 35.747046 30.330274 36.007279 31.015255 36.690756 31.572266 C 37.374233 32.129275 38.172344 32.281992 38.573568 32.048828 L 41.866537 30.134766 C 42.094457 30.202096 42.325065 30.262028 42.559897 30.314453 L 42.99935 33.615234 C 42.99935 33.954794 43.695033 34.246385 44.477865 34.341797 L 44.477865 15.259766 z " /><g
       id="g1245-9-2"
       transform="matrix(0.18365648,0,0,0.14967375,168.61467,-7.5177904)"
       style="fill:#893500;fill-opacity:1"><path
         id="path1237-3-9"
         style="opacity:1;fill:#990000;fill-opacity:1;fill-rule:evenodd;stroke:none;stroke-width:1.12844;stroke-linecap:round;stroke-linejoin:round"
         d="m -546.89648,-126.34375 c -5.263,0 -8.87813,1.90411 -9.5,4.07422 l -3.30274,11.52734 c -3.59629,0.7696 -7.05494,1.86084 -10.30078,3.25 l -11.89844,-6.16797 c -2.24319,-1.163 -14.31566,-2.97869 -14.31566,-2.97869 0,0 -1.07857,12.33165 0.88012,13.92791 l 7.57226,8.822268 c -2.35934,3.26057 -4.00389,6.782428 -4.87109,10.431641 l -18.26367,-2.683595 V -74.1875 c 0,4.289165 2.23,7.742188 5,7.742188 l 15.70703,1.628906 c 1.05474,2.025193 2.36192,3.971898 3.90429,5.814453 l -9.92894,3.359552 0.30186,9.869399 c 0.16643,2.234521 0.0384,5.435417 3.7599,8.468314 3.7215,3.032898 8.06925,3.861367 10.2539,2.591797 l 20.49336,-10.416015 c 1.24105,0.365927 1.5471,0.665963 2.82571,0.950775 l 2.35365,17.625755 c 0.46475,2.261297 4.06624,4.523079 9.32924,4.523079 5.263,0 8.71658,-2.084329 9.24117,-4.279986 l 2.66731,-18.104079 c 1.07842,-0.250842 1.2219,-0.394958 2.27298,-0.703826 l 20.82049,10.404297 c 2.18649,1.266401 6.53045,0.441101 10.25195,-2.591797 3.7215,-3.032897 3.53872,-5.087231 3.86524,-8.345703 l 0.19726,-9.992187 -7.41211,-6.779297 c 0.50305,-0.786171 0.96627,-1.586218 1.38867,-2.398437 l 15.70704,-1.625 c 2.7553,-0.284986 5,-3.453023 5,-7.742188 v -11.953126 l -18.26954,2.654298 c -0.89322,-3.736703 -2.60147,-7.338601 -5.05664,-10.66211 l 7.76172,-8.562502 c 1.95869,-1.59626 0.88012,-13.92791 0.88012,-13.92791 0,0 -12.01483,1.93005 -14.31371,2.97869 l -12.74609,5.81446 c -2.83106,-1.15346 -5.81525,-2.08361 -8.9043,-2.77539 l -3.85156,-11.64844 c 0,-2.25746 -4.237,-4.07422 -9.5,-4.07422 z"
         transform="matrix(1,0,0,1.2270454,-134.20708,293.9699)"
         sodipodi:nodetypes="scccccccccscccccsccccsccccscccccscccccccccs" /></g><g
       transform="matrix(0.18365648,0,0,0.14967375,168.61467,-9.7131959)"
       id="g1401-4-1-8-0-3"><path
         id="rect1061-6-20-7-7-9-6-1"
         style="opacity:1;fill:url(#linearGradient1299-3-9);fill-opacity:1;fill-rule:evenodd;stroke:none;stroke-width:1.12844;stroke-linecap:round;stroke-linejoin:round"
         d="m -546.89648,-138.29883 c -5.263,0 -8.87813,1.90607 -9.5,4.07617 l -3.30274,11.52735 c -3.59629,0.7696 -7.05494,1.86084 -10.30078,3.25 l -11.89844,-6.16992 c -2.24319,-1.16301 -6.5324,-0.43915 -10.2539,2.59375 -3.72151,3.03289 -5.14033,6.7592 -3.18164,8.35546 l 7.57226,8.82422 c -2.35908,3.25996 -4.00362,6.781149 -4.87109,10.429691 l -13.26367,1.529297 c -2.75179,0.317135 -5,3.453022 -5,7.742187 0,4.289165 2.23,7.742187 5,7.742187 l 15.70898,1.628907 c 1.05412,2.025139 2.36064,3.971843 3.90234,5.814453 l -9.04882,13.339844 c -1.95869,1.596261 -0.53987,5.322571 3.18164,8.355468 3.7215,3.032898 8.06925,3.86332 10.2539,2.59375 l 17.92578,-10.417968 c 1.24101,0.366587 2.5026,0.693061 3.78125,0.978515 l 2.38508,17.975383 c 0,2.257456 5.64685,4.147664 10.90985,4.147664 5.263,0 10.52778,-2.025354 11.05237,-4.221011 l 2.78942,-18.027036 c 1.0778,-0.251518 2.14296,-0.532304 3.19336,-0.841797 l 17.9668,10.40625 c 2.18649,1.266401 6.53045,0.439148 10.25195,-2.59375 3.7215,-3.032897 5.14033,-6.759207 3.18164,-8.355468 l -10.01953,-12.230469 c 1.97034,-2.164459 3.6064,-4.48849 4.87695,-6.927735 l 15.70704,-1.625 c 2.7553,-0.284985 5,-3.453022 5,-7.742187 0,-4.289165 -2.23,-7.742188 -5,-7.742187 l -13.26954,-1.556641 c -0.89322,-3.736702 -2.60147,-7.338597 -5.05664,-10.662107 l 7.76172,-8.56446 c 1.95869,-1.59626 0.53986,-5.32257 -3.18164,-8.35546 -3.7215,-3.0329 -7.95307,-3.64239 -10.25195,-2.59375 l -12.74805,5.81445 c -2.83054,-1.1527 -5.81407,-2.08219 -8.90234,-2.77344 l -3.85156,-11.64844 c 0,-2.25745 -4.237,-4.07617 -9.5,-4.07617 z"
         transform="matrix(1,0,0,1.2270454,-134.20708,308.63784)"
         sodipodi:nodetypes="sccccsccccsccccsccccscccssccccsccccsccccs" /></g><path
       sodipodi:nodetypes="cccccc"
       id="path1324-7-2-2-9"
       d="m 43.428836,22.857026 c 1.607087,0 2.005612,-0.05502 2.904736,-0.72004 l 5.072155,-0.01304 c 0.999925,-0.01025 -0.430904,-2.936845 -1.199439,-2.936845 h -3.858679 z"
       style="fill:url(#linearGradient1195-3-3);fill-opacity:1;stroke:none;stroke-width:0.183657px;stroke-linecap:butt;stroke-linejoin:miter;stroke-opacity:1" /><path
       sodipodi:nodetypes="cccc"
       id="path932-9-2-6-3-1-4"
       d="m 40.600871,12.405022 v 7.835356 c 0,3.456147 5.877007,3.523135 5.877007,-0.0044 v -7.830899"
       style="fill:url(#linearGradient1097-9);fill-opacity:1;stroke:none;stroke-width:0.183657px;stroke-linecap:butt;stroke-linejoin:miter;stroke-opacity:1" /><ellipse
       rx="2.9385042"
       ry="2.0202215"
       cy="12.405022"
       cx="43.539375"
       id="path930-1-9-8-1-8-7"
       style="fill:url(#linearGradient1099-8);fill-opacity:1;fill-rule:evenodd;stroke:none;stroke-width:0.242327;stroke-linecap:round;stroke-linejoin:round" /></g></svg>
