<svg version="1.1" viewBox="0 0 48 48" xmlns="http://www.w3.org/2000/svg"><defs><linearGradient id="linearGradient1832-3" x1="110.94" x2="102.63" y1="94.872" y2="83.838" gradientTransform="matrix(3.8635,0,0,3.8635,-389.12,-322.79)" gradientUnits="userSpaceOnUse"><stop stop-color="#9cf" offset="0"/><stop stop-color="#fff" offset="1"/></linearGradient><linearGradient id="linearGradient1836-5" x1="8.552" x2="7.5753" y1="1.7642" y2=".78781" gradientTransform="matrix(3.8635 0 0 3.8635 5.7439 .5)" gradientUnits="userSpaceOnUse"><stop stop-color="#1ba2ff" offset="0"/><stop stop-color="#7ec3ff" offset="1"/></linearGradient><linearGradient id="linearGradient1838-2" x1="7.509" x2="7.509" y1="1.9412" y2=".51767" gradientTransform="matrix(3.8635 0 0 3.8635 5.4939 .25)" gradientUnits="userSpaceOnUse"><stop stop-color="#9cf" offset="0"/><stop stop-color="#c9fcff" offset="1"/></linearGradient><linearGradient id="linearGradient1840-7" x1="7.3783" x2="8.5431" y1="1.8765" y2="1.8765" gradientTransform="matrix(3.8635 0 0 3.8635 5.7439 .75)" gradientUnits="userSpaceOnUse"><stop stop-color="#09f" offset="0"/><stop stop-color="#1966bf" offset="1"/></linearGradient><linearGradient id="linearGradient1842-6" x1="6.862" x2="6.862" y1="2.2001" y2=".32354" gradientTransform="matrix(3.8635,0,0,3.8635,6.4939,1.2e-7)" gradientUnits="userSpaceOnUse"><stop stop-color="#6c72a5" offset="0"/><stop stop-color="#7585b8" offset="1"/></linearGradient><radialGradient id="radialGradient29742" cx="39.634" cy="22.953" r="3.5" gradientTransform="matrix(-1.7143,-3.241e-7,4.391e-7,-9.2146,107.19,222)" gradientUnits="userSpaceOnUse"><stop stop-color="#9d9cff" offset="0"/><stop stop-color="#cbcaff" offset="1"/></radialGradient><linearGradient id="linearGradient111968" x1="32" x2="39.932" y1="9.25" y2="9.25" gradientUnits="userSpaceOnUse"><stop stop-color="#8a91ba" offset="0"/><stop stop-color="#5e5e91" offset="1"/></linearGradient><linearGradient id="linearGradient1850-7" x1=".45453" x2="8.3489" y1="11.518" y2="11.518" gradientTransform="matrix(3.8635,0,0,3.8635,6.2439,0)" gradientUnits="userSpaceOnUse"><stop stop-color="#ccf" offset="0"/><stop stop-color="#ccf" offset="1"/></linearGradient><radialGradient id="radialGradient299109" cx="14.142" cy="10.04" r="12.628" gradientTransform="matrix(0,3.2666,-4.9109,0,57.057,-44.448)" gradientUnits="userSpaceOnUse"><stop stop-color="#fff" offset="0"/><stop stop-color="#ccc" offset="1"/></radialGradient><radialGradient id="radialGradient144284" cx="6.6762" cy="6.7253" r="17.5" gradientTransform="matrix(1.9143,2.4714,-2.3639,1.831,9.6176,-28.314)" gradientUnits="userSpaceOnUse"><stop stop-color="#99cbfe" stop-opacity=".98555" offset="0"/><stop stop-color="#4c4c7f" offset="1"/></radialGradient></defs><path d="m6.7497 0.5h25.75l8 8.75v35.25h-33.75z" fill="url(#linearGradient1832-3)" style="paint-order:normal"/><path d="m32.75 1v8h7.25z" fill="url(#linearGradient1836-5)"/><path d="m33.5 7.75v-6" fill="none" stroke="url(#linearGradient1838-2)"/><path d="m39.5 8.25h-5.5" fill="none" stroke="url(#linearGradient1840-7)"/><path d="m32.5 0.5v8.5" fill="#7494c7" stroke="url(#linearGradient1842-6)"/><path d="m33 10.25 6.5-1e-6 -9e-6 32.75" fill="none" stroke="url(#radialGradient29742)"/><path d="m32 9.25 8.5 1.3e-6" fill-opacity="0" stroke="url(#linearGradient111968)"/><g fill="none"><path d="m39 43.5h-32" stroke="url(#linearGradient1850-7)"/><path d="m32 1.5h-24.5v41.5" stroke="url(#radialGradient299109)"/><path d="m6.4997 0.5h26l8 8.75v35.25h-34z" stroke="url(#radialGradient144284)" style="paint-order:normal"/></g><g transform="matrix(.14056 0 0 .14056 76.441 13.785)" fill="#06c" fill-rule="evenodd" stroke-linejoin="round"><path d="m-433.85 117.1c-10.993 0-19.782-3.6258-26.367-10.877-6.5555-7.2516-9.8622-16.94-9.8622-29.123 0-12.183 3.3068-21.871 9.8622-29.123 6.5845-7.2516 15.373-10.877 26.367-10.877 8.4409 0 15.664 2.3205 21.697 6.9326 6.0334 4.641 9.5141 11.574 10.442 20.769h-14.329c-0.43509-5.3082-2.2625-9.1371-5.4242-11.545-3.1907-2.4075-7.2806-3.5968-12.299-3.5968-6.7585 0-12.125 2.3205-16.07 6.9906-3.9449 4.6701-5.9173 11.487-5.9173 20.45 0 8.934 1.9434 15.751 5.8593 20.421 3.9159 4.67 9.2241 7.0196 15.925 7.0196 5.2502 0 9.3981-1.2183 12.502-3.6838 3.1037-2.4365 4.9311-6.6135 5.4532-12.502h14.271c-0.89921 9.9492-4.264 17.23-10.152 21.842-5.8593 4.612-13.169 6.9036-21.958 6.9036z" stroke-width=".81862"/><path d="m-339.17 77.171h-18.797v18.797h-11.888v-18.797h-18.77v-11.861h18.77v-18.797h11.888v18.797h18.797v11.861z" stroke-width=".76772"/><path d="m-283.21 77.171h-18.797v18.797h-11.888v-18.797h-18.77v-11.861h18.77v-18.797h11.888v18.797h18.797v11.861z" stroke-width=".76772"/></g></svg>
