<?xml version="1.0" encoding="UTF-8" standalone="no"?>
<svg
   sodipodi:docname="cs-project-file.svg"
   inkscape:version="1.1.1 (3bf5ae0d25, 2021-09-20)"
   id="svg8"
   version="1.1"
   viewBox="0 0 256 256"
   height="256"
   width="256"
   inkscape:export-filename="/media/klapeto/Αρχεία/WindowsXP Theme/Vectors/RASTER/cpp-project.png"
   inkscape:export-xdpi="96"
   inkscape:export-ydpi="96"
   xmlns:inkscape="http://www.inkscape.org/namespaces/inkscape"
   xmlns:sodipodi="http://sodipodi.sourceforge.net/DTD/sodipodi-0.dtd"
   xmlns:xlink="http://www.w3.org/1999/xlink"
   xmlns="http://www.w3.org/2000/svg"
   xmlns:svg="http://www.w3.org/2000/svg"
   xmlns:rdf="http://www.w3.org/1999/02/22-rdf-syntax-ns#"
   xmlns:cc="http://creativecommons.org/ns#"
   xmlns:dc="http://purl.org/dc/elements/1.1/">
  <defs
     id="defs2">
    <linearGradient
       id="linearGradient2225"
       inkscape:collect="always">
      <stop
         id="stop2221"
         offset="0"
         style="stop-color:#0082d6;stop-opacity:1" />
      <stop
         id="stop2223"
         offset="1"
         style="stop-color:#00359a;stop-opacity:1" />
    </linearGradient>
    <linearGradient
       id="linearGradient2217"
       inkscape:collect="always">
      <stop
         id="stop2213"
         offset="0"
         style="stop-color:#333367;stop-opacity:1" />
      <stop
         id="stop2215"
         offset="1"
         style="stop-color:#003399;stop-opacity:1" />
    </linearGradient>
    <linearGradient
       id="linearGradient2146"
       inkscape:collect="always">
      <stop
         id="stop2142"
         offset="0"
         style="stop-color:#ffc41d;stop-opacity:1" />
      <stop
         id="stop2144"
         offset="1"
         style="stop-color:#ffef92;stop-opacity:1" />
    </linearGradient>
    <linearGradient
       id="linearGradient1663"
       inkscape:collect="always">
      <stop
         id="stop1659"
         offset="0"
         style="stop-color:#ffffff;stop-opacity:1" />
      <stop
         id="stop1661"
         offset="1"
         style="stop-color:#dddddd;stop-opacity:1" />
    </linearGradient>
    <linearGradient
       id="linearGradient1653"
       inkscape:collect="always">
      <stop
         id="stop1649"
         offset="0"
         style="stop-color:#cccccc;stop-opacity:1" />
      <stop
         id="stop1651"
         offset="1"
         style="stop-color:#ffffff;stop-opacity:1" />
    </linearGradient>
    <linearGradient
       id="linearGradient1643"
       inkscape:collect="always">
      <stop
         id="stop1639"
         offset="0"
         style="stop-color:#ccccf2;stop-opacity:1" />
      <stop
         id="stop1641"
         offset="1"
         style="stop-color:#ccccff;stop-opacity:1" />
    </linearGradient>
    <linearGradient
       id="linearGradient1633"
       inkscape:collect="always">
      <stop
         id="stop1629"
         offset="0"
         style="stop-color:#9fa0ff;stop-opacity:1" />
      <stop
         id="stop1631"
         offset="1"
         style="stop-color:#cbcaff;stop-opacity:1" />
    </linearGradient>
    <linearGradient
       id="linearGradient869"
       inkscape:collect="always">
      <stop
         id="stop865"
         offset="0"
         style="stop-color:#343467;stop-opacity:1" />
      <stop
         id="stop867"
         offset="1"
         style="stop-color:#99cbfe;stop-opacity:1" />
    </linearGradient>
    <linearGradient
       id="linearGradient861"
       inkscape:collect="always">
      <stop
         id="stop857"
         offset="0"
         style="stop-color:#99ccff;stop-opacity:1;" />
      <stop
         id="stop859"
         offset="1"
         style="stop-color:#ffffff;stop-opacity:1" />
    </linearGradient>
    <linearGradient
       y2="83.838333"
       x2="102.62605"
       y1="95.321548"
       x1="111.4612"
       gradientTransform="matrix(1.8777394,0,0,1.8777394,-154.33554,-186.62901)"
       gradientUnits="userSpaceOnUse"
       id="linearGradient1832-9-2"
       xlink:href="#linearGradient861"
       inkscape:collect="always" />
    <linearGradient
       gradientTransform="matrix(1.8777394,0,0,1.8777394,37.8193,-29.748409)"
       y2="11.049675"
       x2="8.6531763"
       y1="0.39856938"
       x1="8.6531763"
       gradientUnits="userSpaceOnUse"
       id="linearGradient1848-0-9"
       xlink:href="#linearGradient1633"
       inkscape:collect="always" />
    <linearGradient
       gradientTransform="matrix(1.8777394,0,0,1.8777394,37.8193,-29.748409)"
       y2="11.315952"
       x2="8.386899"
       y1="11.315952"
       x1="0.39856958"
       gradientUnits="userSpaceOnUse"
       id="linearGradient1850-2-8"
       xlink:href="#linearGradient1643"
       inkscape:collect="always" />
    <linearGradient
       gradientTransform="matrix(1.8777394,0,0,1.8777394,37.8193,-29.748409)"
       y2="0.39856938"
       x2="0.6648472"
       y1="11.049675"
       x1="0.6648472"
       gradientUnits="userSpaceOnUse"
       id="linearGradient1852-3-8"
       xlink:href="#linearGradient1653"
       inkscape:collect="always" />
    <linearGradient
       gradientTransform="matrix(1.8777394,0,0,1.8777394,37.8193,-29.748409)"
       y2="0.66484702"
       x2="8.386899"
       y1="0.66484702"
       x1="0.93112487"
       gradientUnits="userSpaceOnUse"
       id="linearGradient1854-7-3"
       xlink:href="#linearGradient1663"
       inkscape:collect="always" />
    <linearGradient
       y2="83.838333"
       x2="102.62605"
       y1="95.189255"
       x1="111.3289"
       gradientTransform="matrix(1.8777394,0,0,1.8777394,-154.33554,-186.62901)"
       gradientUnits="userSpaceOnUse"
       id="linearGradient1834-1-8"
       xlink:href="#linearGradient869"
       inkscape:collect="always" />
    <linearGradient
       gradientTransform="matrix(8.0827718,0,0,8.0827718,187.23885,63.832809)"
       gradientUnits="userSpaceOnUse"
       y2="-2.8028955"
       x2="-19.307901"
       y1="-2.8028955"
       x1="7.7286162"
       id="linearGradient2219"
       xlink:href="#linearGradient2217"
       inkscape:collect="always" />
    <linearGradient
       gradientTransform="matrix(8.0827718,0,0,8.0827718,168.03733,61.560124)"
       gradientUnits="userSpaceOnUse"
       y2="-3.1811464"
       x2="9.4447994"
       y1="-3.1811464"
       x1="-16.272863"
       id="linearGradient2227"
       xlink:href="#linearGradient2225"
       inkscape:collect="always" />
    <linearGradient
       gradientTransform="matrix(1.5164675,0,0,1.5164675,44.775213,4.4336512)"
       gradientUnits="userSpaceOnUse"
       y2="4.0003157"
       x2="-17.94137"
       y1="23.453421"
       x1="9.0951481"
       id="linearGradient2235"
       xlink:href="#linearGradient869"
       inkscape:collect="always" />
    <linearGradient
       gradientTransform="matrix(1.5164675,0,0,1.5164675,43.244978,10.324105)"
       gradientUnits="userSpaceOnUse"
       y2="0"
       x2="-16.432291"
       y1="18.909666"
       x1="9.4447994"
       id="linearGradient2243"
       xlink:href="#linearGradient861"
       inkscape:collect="always" />
    <linearGradient
       gradientUnits="userSpaceOnUse"
       y2="8.7829494"
       x2="22.009552"
       y1="8.7829494"
       x1="15.618875"
       id="linearGradient1409"
       xlink:href="#linearGradient1343"
       inkscape:collect="always"
       gradientTransform="matrix(1.8777352,0,0,1.8777352,11.239599,-29.492053)" />
    <linearGradient
       id="linearGradient1343"
       inkscape:collect="always">
      <stop
         id="stop1339"
         offset="0"
         style="stop-color:#99ccff;stop-opacity:1" />
      <stop
         id="stop1341"
         offset="1"
         style="stop-color:#80bdfb;stop-opacity:1" />
    </linearGradient>
    <linearGradient
       gradientTransform="matrix(1.8777352,0,0,1.8777352,11.239599,-29.748395)"
       gradientUnits="userSpaceOnUse"
       y2="4.6590142"
       x2="22.009552"
       y1="4.6590142"
       x1="15.618875"
       id="linearGradient1377"
       xlink:href="#linearGradient1343"
       inkscape:collect="always" />
    <linearGradient
       gradientTransform="matrix(1.8777352,0,0,1.8777352,11.239599,-29.748395)"
       gradientUnits="userSpaceOnUse"
       y2="3.5939012"
       x2="22.009552"
       y1="3.5939012"
       x1="15.618875"
       id="linearGradient1393"
       xlink:href="#linearGradient1343"
       inkscape:collect="always" />
    <linearGradient
       inkscape:collect="always"
       xlink:href="#linearGradient1343"
       id="linearGradient1377-1"
       x1="15.618875"
       y1="4.6590142"
       x2="22.009552"
       y2="4.6590142"
       gradientUnits="userSpaceOnUse"
       gradientTransform="matrix(1.8777352,0,0,1.8777352,11.239599,-27.748395)" />
    <linearGradient
       gradientTransform="matrix(1.8777352,0,0,1.8777352,11.239599,-25.748395)"
       gradientUnits="userSpaceOnUse"
       y2="4.6590142"
       x2="22.009552"
       y1="4.6590142"
       x1="15.618875"
       id="linearGradient1377-1-5"
       xlink:href="#linearGradient1343"
       inkscape:collect="always" />
    <linearGradient
       gradientTransform="matrix(1.8777352,0,0,1.8777352,11.239599,-23.748395)"
       gradientUnits="userSpaceOnUse"
       y2="4.6590142"
       x2="22.009552"
       y1="4.6590142"
       x1="15.618875"
       id="linearGradient1377-1-4"
       xlink:href="#linearGradient1343"
       inkscape:collect="always" />
    <linearGradient
       y2="83.838333"
       x2="102.62605"
       y1="95.321548"
       x1="111.4612"
       gradientTransform="matrix(1.8777394,0,0,1.8777394,-212.20972,-138.62351)"
       gradientUnits="userSpaceOnUse"
       id="linearGradient3286"
       xlink:href="#linearGradient2146"
       inkscape:collect="always" />
    <linearGradient
       y2="83.838333"
       x2="102.62605"
       y1="95.189255"
       x1="111.3289"
       gradientTransform="matrix(1.8777394,0,0,1.8777394,-212.20972,-138.62351)"
       gradientUnits="userSpaceOnUse"
       id="linearGradient3296"
       xlink:href="#linearGradient869"
       inkscape:collect="always" />
    <linearGradient
       inkscape:collect="always"
       xlink:href="#linearGradient1633"
       id="linearGradient1848-0-9-5"
       gradientUnits="userSpaceOnUse"
       x1="8.6531754"
       y1="0.93112391"
       x2="8.6531754"
       y2="15.576394"
       gradientTransform="matrix(1.8777394,0,0,1.8777394,41.3193,9.2515919)" />
    <linearGradient
       inkscape:collect="always"
       xlink:href="#linearGradient1643"
       id="linearGradient1850-2-8-9"
       gradientUnits="userSpaceOnUse"
       x1="0.13229205"
       y1="11.315951"
       x2="20.63567"
       y2="11.315951"
       gradientTransform="matrix(1.8777394,0,0,1.8777394,18.319299,17.751592)" />
    <filter
       height="1.1006727"
       y="-0.050336347"
       width="1.0917418"
       x="-0.045870915"
       id="filter3656"
       style="color-interpolation-filters:sRGB"
       inkscape:collect="always">
      <feGaussianBlur
         id="feGaussianBlur3658"
         stdDeviation="4.5833212"
         inkscape:collect="always" />
    </filter>
    <filter
       inkscape:collect="always"
       style="color-interpolation-filters:sRGB"
       id="filter1922"
       x="-0.13188393"
       y="-0.13244766"
       width="1.2637676"
       height="1.2648973">
      <feGaussianBlur
         inkscape:collect="always"
         stdDeviation="5.5863239"
         id="feGaussianBlur1924" />
    </filter>
  </defs>
  <sodipodi:namedview
     inkscape:snap-global="true"
     inkscape:bbox-paths="false"
     fit-margin-bottom="0"
     fit-margin-right="0"
     fit-margin-left="0"
     fit-margin-top="0"
     inkscape:bbox-nodes="true"
     inkscape:snap-bbox="true"
     inkscape:window-maximized="1"
     inkscape:window-y="0"
     inkscape:window-x="3840"
     inkscape:window-height="2043"
     inkscape:window-width="3840"
     units="px"
     showgrid="false"
     inkscape:document-rotation="0"
     inkscape:current-layer="layer1"
     inkscape:document-units="px"
     inkscape:cy="117.82167"
     inkscape:cx="176.15798"
     inkscape:zoom="5.6568542"
     inkscape:pageshadow="2"
     inkscape:pageopacity="0.0"
     borderopacity="1.0"
     bordercolor="#666666"
     pagecolor="#ffffff"
     id="base"
     showguides="false"
     inkscape:guide-bbox="true"
     inkscape:pagecheckerboard="0">
    <inkscape:grid
       originy="0"
       originx="0"
       id="grid1504"
       type="xygrid" />
    <inkscape:grid
       spacingy="0.5"
       spacingx="0.5"
       id="grid1765"
       type="xygrid" />
  </sodipodi:namedview>
  <metadata
     id="metadata5">
    <rdf:RDF>
      <cc:Work
         rdf:about="">
        <dc:format>image/svg+xml</dc:format>
        <dc:type
           rdf:resource="http://purl.org/dc/dcmitype/StillImage" />
      </cc:Work>
    </rdf:RDF>
  </metadata>
  <g
     transform="translate(-12.567709)"
     id="layer1"
     inkscape:groupmode="layer"
     inkscape:label="Layer 1">
    <g
       id="g3611"
       transform="matrix(1.0000011,0,0,1,13.311845,18.073425)"
       style="fill:#212121;fill-opacity:1;filter:url(#filter3656)">
      <path
         id="path3613"
         style="color:#000000;font-style:normal;font-variant:normal;font-weight:normal;font-stretch:normal;font-size:medium;line-height:normal;font-family:sans-serif;font-variant-ligatures:normal;font-variant-position:normal;font-variant-caps:normal;font-variant-numeric:normal;font-variant-alternates:normal;font-variant-east-asian:normal;font-feature-settings:normal;font-variation-settings:normal;text-indent:0;text-align:start;text-decoration:none;text-decoration-line:none;text-decoration-style:solid;text-decoration-color:#000000;letter-spacing:normal;word-spacing:normal;text-transform:none;writing-mode:lr-tb;direction:ltr;text-orientation:mixed;dominant-baseline:auto;baseline-shift:baseline;text-anchor:start;white-space:normal;shape-padding:0;shape-margin:0;inline-size:0;clip-rule:nonzero;display:inline;overflow:visible;visibility:visible;isolation:auto;mix-blend-mode:normal;color-interpolation:sRGB;color-interpolation-filters:linearRGB;solid-color:#000000;solid-opacity:1;vector-effect:none;fill:#212121;fill-opacity:1;fill-rule:nonzero;stroke:none;stroke-width:5.33;stroke-linecap:round;stroke-linejoin:round;stroke-miterlimit:4;stroke-dasharray:none;stroke-dashoffset:0;stroke-opacity:1;color-rendering:auto;image-rendering:auto;shape-rendering:auto;text-rendering:auto;enable-background:accumulate;stop-color:#000000;stop-opacity:1"
         d="M 22.865234,8.4492188 A 2.6652665,2.6652665 0 0 0 20.201172,11.113281 V 43.09375 88.400391 H 6.9199219 A 2.6652665,2.6652665 0 0 0 4.2558594,91.064453 V 207.57812 a 2.6652665,2.6652665 0 0 0 2.6425781,2.66407 l 13.3027345,0.10937 v 13.2168 a 2.6652665,2.6652665 0 0 0 2.642578,2.66406 l 90.60937,0.7461 a 2.6652665,2.6652665 0 0 0 2.68555,-2.66407 v -15.99218 h 125.25586 a 2.6652665,2.6652665 0 0 0 2.66406,-2.66407 V 43.09375 11.113281 a 2.6652665,2.6652665 0 0 0 -2.66406,-2.6640622 z" />
    </g>
    <g
       id="g3417"
       transform="matrix(5.33,0,0,5.33,-62.458402,6.532644)">
      <path
         style="fill:url(#linearGradient2243);fill-opacity:1;stroke:url(#linearGradient2235);stroke-width:1;stroke-linecap:round;stroke-linejoin:round;stroke-miterlimit:4;stroke-dasharray:none;stroke-opacity:1"
         d="M 58.567709,9.5 V 40 h -41 V 9.5 Z"
         id="path1769"
         sodipodi:nodetypes="ccccc" />
      <path
         style="fill:none;stroke:url(#linearGradient1848-0-9-5);stroke-width:0.999999;stroke-linecap:butt;stroke-linejoin:miter;stroke-miterlimit:4;stroke-dasharray:none;stroke-opacity:1"
         d="M 57.567709,10 V 38.5"
         id="path1627-5-2-8-2"
         sodipodi:nodetypes="cc" />
      <path
         style="fill:none;stroke:url(#linearGradient1850-2-8-9);stroke-width:0.999999;stroke-linecap:butt;stroke-linejoin:miter;stroke-miterlimit:4;stroke-dasharray:none;stroke-opacity:1"
         d="m 57.067709,39 h -39"
         id="path1637-0-2-9-9"
         sodipodi:nodetypes="cc" />
    </g>
    <path
       sodipodi:nodetypes="ccccc"
       id="path1767"
       d="M 31.177487,25.187644 H 249.70749 v 31.98 H 31.177487 Z"
       style="fill:url(#linearGradient2227);fill-opacity:1;stroke:url(#linearGradient2219);stroke-width:5.33;stroke-linecap:round;stroke-linejoin:round;stroke-miterlimit:4;stroke-dasharray:none;stroke-opacity:1" />
    <g
       transform="matrix(5.33,0,0,5.33,120.80118,6.503313)"
       id="g3330">
      <path
         sodipodi:nodetypes="ccccc"
         d="m -19.806468,18.505503 h 16.891946 l -1.16e-4,21.860016 h -16.89183 z"
         style="fill:url(#linearGradient3286);fill-opacity:1;stroke:none;stroke-width:0.999999;stroke-linejoin:round;stroke-miterlimit:4;stroke-dasharray:none;stroke-opacity:1;paint-order:normal"
         id="rect1498-0-4-6-6" />
      <path
         id="path1566-2-1-8-0"
         style="fill:none;fill-opacity:1;stroke:url(#linearGradient3296);stroke-width:0.999999;stroke-linejoin:round;stroke-miterlimit:4;stroke-dasharray:none;stroke-opacity:1;paint-order:normal"
         d="M -19.806468,18.505503 H -2.806469 V 40.505504 L -19.806468,40.365519 Z"
         sodipodi:nodetypes="ccccc" />
    </g>
    <g
       transform="matrix(5.33,0,0,5.33,-171.72341,278.36264)"
       id="g3122">
      <path
         id="rect1498-0-4-6"
         style="fill:url(#linearGradient1832-9-2);fill-opacity:1;stroke:none;stroke-width:0.999999;stroke-linejoin:round;stroke-miterlimit:4;stroke-dasharray:none;stroke-opacity:1;paint-order:normal"
         d="M 38.06771,-29.5 H 54.959656 L 54.95954,-7.6399842 H 38.06771 Z"
         sodipodi:nodetypes="ccccc" />
      <path
         style="fill:none;stroke:url(#linearGradient1848-0-9);stroke-width:0.999999;stroke-linecap:butt;stroke-linejoin:miter;stroke-miterlimit:4;stroke-dasharray:none;stroke-opacity:1"
         d="M 54.067709,-29 V -8.9999989"
         id="path1627-5-2-8"
         sodipodi:nodetypes="cc" />
      <path
         style="fill:none;stroke:url(#linearGradient1850-2-8);stroke-width:0.999999;stroke-linecap:butt;stroke-linejoin:miter;stroke-miterlimit:4;stroke-dasharray:none;stroke-opacity:1"
         d="m 53.56771,-8.5000001 h -15"
         id="path1637-0-2-9"
         sodipodi:nodetypes="cc" />
      <path
         style="fill:none;stroke:url(#linearGradient1852-3-8);stroke-width:0.999999;stroke-linecap:butt;stroke-linejoin:miter;stroke-miterlimit:4;stroke-dasharray:none;stroke-opacity:1"
         d="M 39.067709,-8.9999989 V -29"
         id="path1647-6-6-0"
         sodipodi:nodetypes="cc" />
      <path
         style="fill:#e8ebee;fill-opacity:1;stroke:url(#linearGradient1854-7-3);stroke-width:0.999999;stroke-linecap:butt;stroke-linejoin:miter;stroke-miterlimit:4;stroke-dasharray:none;stroke-opacity:1"
         d="m 53.56771,-28.5 h -14"
         id="path1657-4-4-6"
         sodipodi:nodetypes="cc" />
      <path
         sodipodi:nodetypes="ccccc"
         d="M 38.06771,-29.5 H 55.067709 V -7.4999987 L 38.06771,-7.6399842 Z"
         style="fill:none;fill-opacity:1;stroke:url(#linearGradient1834-1-8);stroke-width:0.999999;stroke-linejoin:round;stroke-miterlimit:4;stroke-dasharray:none;stroke-opacity:1;paint-order:normal"
         id="path1566-2-1-8" />
      <path
         style="fill:none;stroke:url(#linearGradient1393);stroke-width:0.999998;stroke-linecap:round;stroke-linejoin:miter;stroke-miterlimit:4;stroke-dasharray:none;stroke-opacity:1"
         d="m 41.067709,-23 h 11"
         id="path908"
         sodipodi:nodetypes="cc" />
      <path
         style="fill:none;stroke:url(#linearGradient1377);stroke-width:0.999998;stroke-linecap:round;stroke-linejoin:miter;stroke-miterlimit:4;stroke-dasharray:none;stroke-opacity:1"
         d="m 41.067709,-21 h 11"
         id="path908-3-6"
         sodipodi:nodetypes="cc" />
      <path
         sodipodi:nodetypes="cc"
         id="path908-3-6-0-6-2-6-1"
         d="m 41.067709,-13 h 8"
         style="fill:none;stroke:url(#linearGradient1409);stroke-width:0.999998;stroke-linecap:round;stroke-linejoin:miter;stroke-miterlimit:4;stroke-dasharray:none;stroke-opacity:1" />
      <path
         sodipodi:nodetypes="cc"
         id="path908-3-6-0"
         d="m 41.067709,-19 h 11"
         style="fill:none;stroke:url(#linearGradient1377-1);stroke-width:0.999998;stroke-linecap:round;stroke-linejoin:miter;stroke-miterlimit:4;stroke-dasharray:none;stroke-opacity:1" />
      <path
         style="fill:none;stroke:url(#linearGradient1377-1-5);stroke-width:0.999998;stroke-linecap:round;stroke-linejoin:miter;stroke-miterlimit:4;stroke-dasharray:none;stroke-opacity:1"
         d="m 41.067709,-17 h 11"
         id="path908-3-6-0-7"
         sodipodi:nodetypes="cc" />
      <path
         style="fill:none;stroke:url(#linearGradient1377-1-4);stroke-width:0.999998;stroke-linecap:round;stroke-linejoin:miter;stroke-miterlimit:4;stroke-dasharray:none;stroke-opacity:1"
         d="m 41.067709,-15 h 11"
         id="path908-3-6-0-4"
         sodipodi:nodetypes="cc" />
    </g>
    <path
       id="path1388"
       style="mix-blend-mode:normal;fill:#f4f4f4;fill-opacity:1;fill-rule:evenodd;stroke:#fafafa;stroke-width:6;stroke-linejoin:round;stroke-miterlimit:4;stroke-dasharray:none;stroke-opacity:1;filter:url(#filter1922)"
       d="m 222.11268,67.272937 c -4.10426,2.511038 -8.20881,5.023319 -12.28311,7.516031 -0.11317,8.324849 -0.25224,16.69919 -0.36541,25.024039 -3.98443,2.437723 -7.99782,4.894073 -12.01221,7.350133 0.11317,-8.324853 0.22074,-16.682394 0.33391,-25.007243 -4.0743,2.492709 -8.17886,5.004992 -12.28312,7.516033 -0.11317,8.324847 -0.22073,16.68029 -0.3339,25.00514 -3.95448,2.41941 -7.90863,4.84042 -11.86311,7.25983 0.7479,4.31075 1.49494,8.62127 2.24284,12.93202 3.11565,-1.90619 6.26102,-3.8311 9.37666,-5.73729 -0.0956,5.75201 -0.16062,11.48508 -0.2562,17.2371 -3.53505,2.1628 -7.07013,4.3263 -10.60519,6.48911 l 2.24494,12.93203 c 2.69623,-1.6496 5.42251,-3.31699 8.11874,-4.96659 -0.12433,8.26051 -0.21935,16.50245 -0.3381,24.79513 4.10427,-2.51103 8.2088,-5.0233 12.28312,-7.51603 0.11874,-8.29268 0.27258,-16.57033 0.3969,-24.83083 3.98444,-2.43774 7.99782,-4.89408 12.01221,-7.35013 -0.12433,8.26049 -0.24876,16.52136 -0.3675,24.81404 4.07432,-2.49272 8.17883,-5.005 12.28311,-7.51604 0.11874,-8.29268 0.24318,-16.55143 0.36751,-24.81193 3.92453,-2.40108 7.87979,-4.82097 11.80431,-7.22203 l -2.24494,-12.93203 c -3.0857,1.88786 -6.20012,3.79331 -9.31577,5.6995 0.0956,-5.75201 0.16061,-11.48508 0.2562,-17.2371 3.53506,-2.16279 7.07012,-4.32632 10.6052,-6.48911 -0.7479,-4.310758 -1.49496,-8.621279 -2.24285,-12.932032 -2.7262,1.667918 -5.45345,3.33647 -8.17964,5.004388 0.14312,-8.34318 0.25226,-16.701293 0.3654,-25.026139 z m -12.89002,46.994623 c -0.0657,5.73369 -0.16122,11.48451 -0.22681,17.2182 -4.01439,2.45605 -7.99838,4.89351 -11.98281,7.33123 0.0656,-5.73369 0.12972,-11.46559 0.19531,-17.19929 4.01439,-2.45606 7.9999,-4.89409 12.01431,-7.35014 z m -66.57327,1.39023 c -10.37358,0 -18.66595,3.42226 -24.87914,10.26497 -6.18582,6.84273 -9.30736,15.98532 -9.30736,27.48109 0,11.49576 3.12154,20.63627 9.30736,27.47898 6.21319,6.84272 14.50556,10.26498 24.87914,10.26498 8.29336,0 15.19005,-2.16233 20.71896,-6.51431 5.55628,-4.35195 8.73188,-11.22155 9.58037,-20.60976 h -13.46544 c -0.49267,5.5563 -2.21851,9.49674 -5.14719,11.7959 -2.92869,2.32653 -6.84177,3.47556 -11.7959,3.47556 -6.32265,0 -11.33279,-2.2168 -15.02786,-6.62351 -3.69506,-4.40671 -5.52731,-10.83762 -5.52731,-19.26784 0,-8.45758 1.86155,-14.89055 5.584,-19.29724 3.72243,-4.40672 8.78485,-6.59621 15.16227,-6.59621 4.73515,-1e-5 8.59402,1.12188 11.6048,3.39365 2.98342,2.27177 4.70934,5.88401 5.11989,10.89289 h 13.52004 c -0.87587,-8.67657 -4.16024,-15.2182 -9.85337,-19.59754 -5.69314,-4.35196 -12.50833,-6.54161 -20.47326,-6.54161 z" />
    <g
       id="g1044"
       transform="matrix(1.0752189,0,0,1.0752189,25.007596,3.1178243)">
      <path
         fill="#000000"
         stroke="none"
         d="m 109.41131,174.87625 c -9.647862,0 -17.361052,-3.18202 -23.139582,-9.54604 -5.75308,-6.36402 -8.65507,-14.86635 -8.65507,-25.5579 0,-10.69157 2.90199,-19.19389 8.65507,-25.55792 5.77853,-6.36402 13.49172,-9.54603 23.139582,-9.54603 7.40773,0 13.74629,2.03649 19.04116,6.084 5.29486,4.07298 8.34959,10.15699 9.16419,18.22658 h -12.57532 c -0.38183,-4.65848 -1.98557,-8.01869 -4.76028,-10.13154 -2.80016,-2.11285 -6.38949,-3.15655 -10.79338,-3.15655 -5.93127,0 -10.640642,2.03648 -14.102662,6.13492 -3.46204,4.09841 -5.19306,10.08062 -5.19306,17.94654 0,7.84047 1.70557,13.82264 5.14213,17.92107 3.43658,4.09843 8.095052,6.16039 13.975392,6.16039 4.60756,0 8.24777,-1.06916 10.97158,-3.23293 2.7238,-2.13832 4.32753,-5.80398 4.78574,-10.97158 h 12.52439 c -0.78913,8.73144 -3.74204,15.12093 -8.90962,19.16843 -5.14212,4.04753 -11.55707,6.05856 -19.27026,6.05856 z"
         id="path1271-8"
         style="fill:#079807;fill-opacity:1;fill-rule:evenodd;stroke-width:0.718423;stroke-linejoin:round" />
      <path
         style="fill:#079807;fill-opacity:1;fill-rule:evenodd;stroke-width:0.856998;stroke-linejoin:round"
         id="path1278-3-8"
         d="m 192.6696,90.316286 c -3.28777,2.011492 -6.57553,4.022984 -9.86329,6.034476 -0.0889,5.349628 -0.14997,10.682208 -0.23888,16.031828 2.89769,-1.77284 5.79537,-3.54568 8.6652,-5.30147 0.69558,4.00919 1.39116,8.01837 2.08674,12.02756 -3.64997,2.23309 -7.32781,4.48324 -10.9778,6.71634 -0.11563,7.68263 -0.23125,15.36525 -0.34169,23.0778 -3.81715,2.33538 -7.63429,4.67076 -11.42358,6.98909 0.11043,-7.71255 0.22606,-15.39519 0.34169,-23.07781 -3.73355,2.28424 -7.46711,4.56847 -11.17281,6.83567 -0.11563,7.68262 -0.25912,15.38229 -0.36956,23.09484 -3.78929,2.31834 -7.60644,4.65372 -11.42359,6.98909 0.11044,-7.71255 0.19821,-15.37813 0.31384,-23.06076 -2.50761,1.5342 -5.04309,3.08542 -7.5507,4.61962 -0.69558,-4.00919 -1.39116,-8.01837 -2.08674,-12.02756 3.28776,-2.0115 6.57554,-4.02298 9.86329,-6.03448 0.0889,-5.34963 0.14997,-10.68221 0.23888,-16.03183 -2.89768,1.77284 -5.82323,3.56272 -8.72092,5.33556 -0.69558,-4.00918 -1.39116,-8.01836 -2.08674,-12.02755 3.67784,-2.25015 7.35567,-4.50029 11.0335,-6.75044 0.10525,-7.742466 0.2053,-15.514847 0.31055,-23.257317 3.81714,-2.335376 7.6343,-4.670756 11.42357,-6.989083 -0.10525,7.742469 -0.20529,15.514852 -0.31054,23.257321 3.73356,-2.28424 7.46713,-4.568475 11.17283,-6.835665 0.10525,-7.742469 0.23316,-15.5319 0.33841,-23.274369 3.78928,-2.31833 7.60643,-4.653706 11.42357,-6.989081 -0.10523,7.742466 -0.20529,15.51485 -0.3384,23.274367 2.53547,-1.551235 5.07095,-3.102472 7.60644,-4.653708 0.69557,4.009187 1.39115,8.018375 2.08673,12.027561 z m -21.34259,13.057654 c -3.73357,2.28423 -7.43927,4.55142 -11.17283,6.83566 -0.061,5.33259 -0.12211,10.66516 -0.18316,15.99774 3.70569,-2.26719 7.4114,-4.53438 11.14496,-6.81861 0.061,-5.33258 0.14997,-10.68221 0.21103,-16.01479 z"
         stroke="none"
         fill="#000000" />
    </g>
  </g>
</svg>
