<svg version="1.1" viewBox="0 0 48 48" xmlns="http://www.w3.org/2000/svg" xmlns:xlink="http://www.w3.org/1999/xlink"><defs><linearGradient id="linearGradient1832-3" x1="110.94" x2="102.63" y1="94.872" y2="83.838" gradientTransform="matrix(3.8635 0 0 3.8635 -389.12 -322.79)" gradientUnits="userSpaceOnUse"><stop stop-color="#9cf" offset="0"/><stop stop-color="#fff" offset="1"/></linearGradient><linearGradient id="linearGradient1836-5" x1="8.552" x2="7.5753" y1="1.7642" y2=".78781" gradientTransform="matrix(3.8635 0 0 3.8635 5.7439 .5)" gradientUnits="userSpaceOnUse"><stop stop-color="#1ba2ff" offset="0"/><stop stop-color="#7ec3ff" offset="1"/></linearGradient><linearGradient id="linearGradient1838-2" x1="7.509" x2="7.509" y1="1.9412" y2=".51767" gradientTransform="matrix(3.8635 0 0 3.8635 5.4939 .25)" gradientUnits="userSpaceOnUse"><stop stop-color="#9cf" offset="0"/><stop stop-color="#c9fcff" offset="1"/></linearGradient><linearGradient id="linearGradient1840-7" x1="7.3783" x2="8.5431" y1="1.8765" y2="1.8765" gradientTransform="matrix(3.8635 0 0 3.8635 5.7439 .75)" gradientUnits="userSpaceOnUse"><stop stop-color="#09f" offset="0"/><stop stop-color="#1966bf" offset="1"/></linearGradient><linearGradient id="linearGradient1842-6" x1="6.862" x2="6.862" y1="2.2001" y2=".32354" gradientTransform="matrix(3.8635 0 0 3.8635 6.4939 1.2e-7)" gradientUnits="userSpaceOnUse"><stop stop-color="#6c72a5" offset="0"/><stop stop-color="#7585b8" offset="1"/></linearGradient><radialGradient id="radialGradient29742" cx="39.634" cy="22.953" r="3.5" gradientTransform="matrix(-1.7143 -3.241e-7 4.391e-7 -9.2146 107.19 222)" gradientUnits="userSpaceOnUse"><stop stop-color="#9d9cff" offset="0"/><stop stop-color="#cbcaff" offset="1"/></radialGradient><linearGradient id="linearGradient111968" x1="32" x2="39.932" y1="9.25" y2="9.25" gradientUnits="userSpaceOnUse"><stop stop-color="#8a91ba" offset="0"/><stop stop-color="#5e5e91" offset="1"/></linearGradient><linearGradient id="linearGradient1850-7" x1=".45453" x2="8.3489" y1="11.518" y2="11.518" gradientTransform="matrix(3.8635 0 0 3.8635 6.2439 0)" gradientUnits="userSpaceOnUse"><stop stop-color="#ccf" offset="0"/><stop stop-color="#ccf" offset="1"/></linearGradient><radialGradient id="radialGradient299109" cx="14.142" cy="10.04" r="12.628" gradientTransform="matrix(0 3.2666 -4.9109 0 57.057 -44.448)" gradientUnits="userSpaceOnUse"><stop stop-color="#fff" offset="0"/><stop stop-color="#ccc" offset="1"/></radialGradient><radialGradient id="radialGradient144284" cx="6.6762" cy="6.7253" r="17.5" gradientTransform="matrix(1.9143 2.4714 -2.3639 1.831 9.6176 -28.314)" gradientUnits="userSpaceOnUse"><stop stop-color="#99cbfe" stop-opacity=".98555" offset="0"/><stop stop-color="#4c4c7f" offset="1"/></radialGradient></defs><g transform="translate(-12.568)"><g transform="translate(12.568)"><path d="m6.7497 0.5h25.75l8 8.75v35.25h-33.75z" fill="url(#linearGradient1832-3)" style="paint-order:normal"/><path d="m32.75 1v8h7.25z" fill="url(#linearGradient1836-5)"/><g><path d="m33.5 7.75v-6" fill="none" stroke="url(#linearGradient1838-2)"/><path d="m39.5 8.25h-5.5" fill="none" stroke="url(#linearGradient1840-7)"/><path d="m32.5 0.5v8.5" fill="#7494c7" stroke="url(#linearGradient1842-6)"/><path d="m33 10.25 6.5-1e-6 -9e-6 32.75" fill="none" stroke="url(#radialGradient29742)"/><path d="m32 9.25 8.5 1.3e-6" fill-opacity="0" stroke="url(#linearGradient111968)"/></g><g fill="none"><path d="m39 43.5h-32" stroke="url(#linearGradient1850-7)"/><path d="m32 1.5h-24.5v41.5" stroke="url(#radialGradient299109)"/><path d="m6.4997 0.5h26l8 8.75v35.25h-34z" stroke="url(#radialGradient144284)" style="paint-order:normal"/></g></g><g transform="matrix(.18762 0 0 .18762 10.651 .80524)" fill="#090" fill-rule="evenodd" stroke-linejoin="round"><path d="m109.41 174.88c-9.6479 0-17.361-3.182-23.14-9.546-5.7531-6.364-8.6551-14.866-8.6551-25.558 0-10.692 2.902-19.194 8.6551-25.558 5.7785-6.364 13.492-9.546 23.14-9.546 7.4077 0 13.746 2.0365 19.041 6.084 5.2949 4.073 8.3496 10.157 9.1642 18.227h-12.575c-0.38183-4.6585-1.9856-8.0187-4.7603-10.132-2.8002-2.1128-6.3895-3.1566-10.793-3.1566-5.9313 0-10.641 2.0365-14.103 6.1349-3.462 4.0984-5.1931 10.081-5.1931 17.947 0 7.8405 1.7056 13.823 5.1421 17.921 3.4366 4.0984 8.0951 6.1604 13.975 6.1604 4.6076 0 8.2478-1.0692 10.972-3.2329 2.7238-2.1383 4.3275-5.804 4.7857-10.972h12.524c-0.78913 8.7314-3.742 15.121-8.9096 19.168-5.1421 4.0475-11.557 6.0586-19.27 6.0586z" stroke-width=".71842"/><path d="m192.67 90.316c-3.2878 2.0115-6.5755 4.023-9.8633 6.0345-0.0889 5.3496-0.14997 10.682-0.23888 16.032 2.8977-1.7728 5.7954-3.5457 8.6652-5.3015 0.69558 4.0092 1.3912 8.0184 2.0867 12.028-3.65 2.2331-7.3278 4.4832-10.978 6.7163-0.11563 7.6826-0.23125 15.365-0.34169 23.078-3.8172 2.3354-7.6343 4.6708-11.424 6.9891 0.11043-7.7126 0.22606-15.395 0.34169-23.078-3.7336 2.2842-7.4671 4.5685-11.173 6.8357-0.11563 7.6826-0.25912 15.382-0.36956 23.095-3.7893 2.3183-7.6064 4.6537-11.424 6.9891 0.11044-7.7126 0.19821-15.378 0.31384-23.061-2.5076 1.5342-5.0431 3.0854-7.5507 4.6196-0.69558-4.0092-1.3912-8.0184-2.0867-12.028 3.2878-2.0115 6.5755-4.023 9.8633-6.0345 0.0889-5.3496 0.14997-10.682 0.23888-16.032-2.8977 1.7728-5.8232 3.5627-8.7209 5.3356-0.69558-4.0092-1.3912-8.0184-2.0867-12.028 3.6778-2.2502 7.3557-4.5003 11.034-6.7504 0.10525-7.7425 0.2053-15.515 0.31055-23.257 3.8171-2.3354 7.6343-4.6708 11.424-6.9891-0.10525 7.7425-0.20529 15.515-0.31054 23.257 3.7336-2.2842 7.4671-4.5685 11.173-6.8357 0.10525-7.7425 0.23316-15.532 0.33841-23.274 3.7893-2.3183 7.6064-4.6537 11.424-6.9891-0.10523 7.7425-0.20529 15.515-0.3384 23.274 2.5355-1.5512 5.071-3.1025 7.6064-4.6537 0.69557 4.0092 1.3912 8.0184 2.0867 12.028zm-21.343 13.058c-3.7336 2.2842-7.4393 4.5514-11.173 6.8357-0.061 5.3326-0.12211 10.665-0.18316 15.998 3.7057-2.2672 7.4114-4.5344 11.145-6.8186 0.061-5.3326 0.14997-10.682 0.21103-16.015z" stroke-width=".857"/></g></g></svg>
