<?xml version="1.0" encoding="UTF-8" standalone="no"?>
<svg
   sodipodi:docname="database-file.svg"
   inkscape:version="1.3.2 (1:1.3.2+202311252150+091e20ef0f)"
   id="svg8"
   version="1.1"
   viewBox="0 0 48 48"
   height="48"
   width="48"
   inkscape:export-filename="/media/klapeto/Αρχεία/WindowsXP Theme/Vectors/RASTER/application-database.png"
   inkscape:export-xdpi="96"
   inkscape:export-ydpi="96"
   xml:space="preserve"
   xmlns:inkscape="http://www.inkscape.org/namespaces/inkscape"
   xmlns:sodipodi="http://sodipodi.sourceforge.net/DTD/sodipodi-0.dtd"
   xmlns:xlink="http://www.w3.org/1999/xlink"
   xmlns="http://www.w3.org/2000/svg"
   xmlns:svg="http://www.w3.org/2000/svg"
   xmlns:rdf="http://www.w3.org/1999/02/22-rdf-syntax-ns#"
   xmlns:cc="http://creativecommons.org/ns#"
   xmlns:dc="http://purl.org/dc/elements/1.1/"><defs
     id="defs2"><linearGradient
       inkscape:collect="always"
       xlink:href="#linearGradient861"
       id="linearGradient1832"
       gradientUnits="userSpaceOnUse"
       gradientTransform="matrix(3.8634903,0,0,3.8634903,-389.1189,-322.7853)"
       x1="110.94085"
       y1="94.871544"
       x2="102.62605"
       y2="83.838333" /><linearGradient
       inkscape:collect="always"
       id="linearGradient861"><stop
         style="stop-color:#99ccff;stop-opacity:1;"
         offset="0"
         id="stop857" /><stop
         style="stop-color:#ffffff;stop-opacity:1"
         offset="1"
         id="stop859" /></linearGradient><linearGradient
       inkscape:collect="always"
       xlink:href="#linearGradient1562"
       id="linearGradient1836"
       gradientUnits="userSpaceOnUse"
       x1="8.5520248"
       y1="1.7641931"
       x2="7.5752969"
       y2="0.7878077"
       gradientTransform="matrix(3.8634903,0,0,3.8634903,5.743914,0.4999999)" /><linearGradient
       inkscape:collect="always"
       id="linearGradient1562"><stop
         style="stop-color:#1ba2ff;stop-opacity:1"
         offset="0"
         id="stop1558" /><stop
         style="stop-color:#7ec3ff;stop-opacity:1"
         offset="1"
         id="stop1560" /></linearGradient><linearGradient
       inkscape:collect="always"
       xlink:href="#linearGradient1576"
       id="linearGradient1838"
       gradientUnits="userSpaceOnUse"
       x1="7.5090418"
       y1="1.9412498"
       x2="7.5090418"
       y2="0.51766664"
       gradientTransform="matrix(3.8634903,0,0,3.8634903,5.493915,0.25)" /><linearGradient
       inkscape:collect="always"
       id="linearGradient1576"><stop
         style="stop-color:#99ccff;stop-opacity:1"
         offset="0"
         id="stop1572" /><stop
         style="stop-color:#c9fcff;stop-opacity:1"
         offset="1"
         id="stop1574" /></linearGradient><linearGradient
       inkscape:collect="always"
       xlink:href="#linearGradient1601"
       id="linearGradient1840"
       gradientUnits="userSpaceOnUse"
       x1="7.3783245"
       y1="1.8765416"
       x2="8.5430746"
       y2="1.8765416"
       gradientTransform="matrix(3.8634903,0,0,3.8634903,5.743915,0.7499998)" /><linearGradient
       inkscape:collect="always"
       id="linearGradient1601"><stop
         style="stop-color:#0099ff;stop-opacity:1"
         offset="0"
         id="stop1597" /><stop
         style="stop-color:#1966bf;stop-opacity:1"
         offset="1"
         id="stop1599" /></linearGradient><linearGradient
       inkscape:collect="always"
       xlink:href="#linearGradient1613"
       id="linearGradient1842"
       gradientUnits="userSpaceOnUse"
       x1="6.8619585"
       y1="2.2000833"
       x2="6.8619585"
       y2="0.32354215"
       gradientTransform="matrix(3.8634903,0,0,3.8634903,6.493916,1.2e-7)" /><linearGradient
       id="linearGradient1613"
       inkscape:collect="always"><stop
         id="stop1609"
         offset="0"
         style="stop-color:#6c72a5;stop-opacity:1" /><stop
         id="stop1611"
         offset="1"
         style="stop-color:#7585b8;stop-opacity:1" /></linearGradient><radialGradient
       inkscape:collect="always"
       xlink:href="#linearGradient1623"
       id="radialGradient29742"
       cx="39.633572"
       cy="22.952927"
       fx="39.633572"
       fy="22.952927"
       r="3.4999974"
       gradientTransform="matrix(-1.7142864,-3.2410042e-7,4.39099e-7,-9.2145702,107.19328,222.00137)"
       gradientUnits="userSpaceOnUse" /><linearGradient
       inkscape:collect="always"
       id="linearGradient1623"><stop
         style="stop-color:#9d9cff;stop-opacity:1"
         offset="0"
         id="stop1619" /><stop
         style="stop-color:#cbcaff;stop-opacity:1"
         offset="1"
         id="stop1621" /></linearGradient><linearGradient
       inkscape:collect="always"
       xlink:href="#linearGradient111966"
       id="linearGradient111968"
       x1="32"
       y1="9.250001"
       x2="39.931995"
       y2="9.250001"
       gradientUnits="userSpaceOnUse" /><linearGradient
       inkscape:collect="always"
       id="linearGradient111966"><stop
         style="stop-color:#8a91ba;stop-opacity:1"
         offset="0"
         id="stop111962" /><stop
         style="stop-color:#5e5e91;stop-opacity:1"
         offset="1"
         id="stop111964" /></linearGradient><linearGradient
       inkscape:collect="always"
       xlink:href="#linearGradient1643"
       id="linearGradient1850"
       gradientUnits="userSpaceOnUse"
       x1="0.45453331"
       y1="11.518083"
       x2="8.3489494"
       y2="11.518083"
       gradientTransform="matrix(3.8634903,0,0,3.8634903,6.243915,0)" /><linearGradient
       inkscape:collect="always"
       id="linearGradient1643"><stop
         style="stop-color:#ccccff;stop-opacity:1"
         offset="0"
         id="stop1639" /><stop
         style="stop-color:#ccccff;stop-opacity:1"
         offset="1"
         id="stop1641" /></linearGradient><radialGradient
       inkscape:collect="always"
       xlink:href="#linearGradient1663"
       id="radialGradient299109"
       cx="14.142424"
       cy="10.040477"
       fx="14.142424"
       fy="10.040477"
       r="12.627658"
       gradientTransform="matrix(0,3.2666392,-4.9108714,0,57.057201,-44.448197)"
       gradientUnits="userSpaceOnUse" /><linearGradient
       inkscape:collect="always"
       id="linearGradient1663"><stop
         style="stop-color:#ffffff;stop-opacity:1"
         offset="0"
         id="stop1659" /><stop
         style="stop-color:#cccccc;stop-opacity:1"
         offset="1"
         id="stop1661" /></linearGradient><radialGradient
       inkscape:collect="always"
       xlink:href="#linearGradient869"
       id="radialGradient144284"
       cx="6.6762424"
       cy="6.7253423"
       fx="6.6762424"
       fy="6.7253423"
       r="17.500143"
       gradientTransform="matrix(1.9142701,2.4714083,-2.3638582,1.8309654,9.6176245,-28.313589)"
       gradientUnits="userSpaceOnUse" /><linearGradient
       inkscape:collect="always"
       id="linearGradient869"><stop
         style="stop-color:#99cbfe;stop-opacity:0.98555011"
         offset="0"
         id="stop865" /><stop
         style="stop-color:#4c4c7f;stop-opacity:1"
         offset="1"
         id="stop867" /></linearGradient><linearGradient
       id="linearGradient1012"
       inkscape:collect="always"><stop
         id="stop1008"
         offset="0"
         style="stop-color:#ffcc00;stop-opacity:1" /><stop
         style="stop-color:#ffff99;stop-opacity:1"
         offset="0.37533283"
         id="stop1016" /><stop
         id="stop1023"
         offset="0.68766642"
         style="stop-color:#ffcc00;stop-opacity:1" /><stop
         id="stop1010"
         offset="1"
         style="stop-color:#cc9900;stop-opacity:1" /></linearGradient><linearGradient
       id="linearGradient989"
       inkscape:collect="always"><stop
         id="stop985"
         offset="0"
         style="stop-color:#ffff00;stop-opacity:1" /><stop
         id="stop987"
         offset="1"
         style="stop-color:#ffff99;stop-opacity:1" /></linearGradient><linearGradient
       inkscape:collect="always"
       xlink:href="#linearGradient1012"
       id="linearGradient1014-3"
       x1="-15.932291"
       y1="25.480541"
       x2="14.067709"
       y2="25.480541"
       gradientUnits="userSpaceOnUse"
       gradientTransform="matrix(1.0577562,0,0,1.0577562,37.574832,-3.952124)" /><linearGradient
       inkscape:collect="always"
       xlink:href="#linearGradient989"
       id="linearGradient991-1"
       x1="28.230461"
       y1="22.032276"
       x2="-12.09204"
       y2="7.2657962"
       gradientUnits="userSpaceOnUse"
       gradientTransform="matrix(1.0577562,0,0,1.0577562,37.574832,-3.952124)" /><linearGradient
       inkscape:collect="always"
       xlink:href="#linearGradient1012"
       id="linearGradient2"
       gradientUnits="userSpaceOnUse"
       gradientTransform="matrix(1.036543,0,0,1.036543,37.20618,-3.4116014)"
       x1="-15.932291"
       y1="25.480541"
       x2="14.067709"
       y2="25.480541" /></defs><sodipodi:namedview
     inkscape:bbox-paths="false"
     fit-margin-bottom="0"
     fit-margin-right="0"
     fit-margin-left="0"
     fit-margin-top="0"
     inkscape:bbox-nodes="true"
     inkscape:snap-bbox="true"
     inkscape:window-maximized="1"
     inkscape:window-y="0"
     inkscape:window-x="3840"
     inkscape:window-height="2056"
     inkscape:window-width="3840"
     units="px"
     showgrid="false"
     inkscape:document-rotation="0"
     inkscape:current-layer="layer1"
     inkscape:document-units="px"
     inkscape:cy="36.731176"
     inkscape:cx="32.117201"
     inkscape:zoom="30.450972"
     inkscape:pageshadow="2"
     inkscape:pageopacity="0.0"
     borderopacity="1.0"
     bordercolor="#666666"
     pagecolor="#ffffff"
     id="base"
     showguides="true"
     inkscape:guide-bbox="true"
     inkscape:snap-grids="true"
     inkscape:object-paths="true"
     inkscape:snap-intersection-paths="true"
     inkscape:pagecheckerboard="0"
     inkscape:showpageshadow="2"
     inkscape:deskcolor="#d1d1d1"><inkscape:grid
       originy="0"
       originx="0"
       id="grid1504"
       type="xygrid"
       spacingy="1"
       spacingx="1"
       units="px"
       visible="false" /><inkscape:grid
       originy="0"
       originx="0"
       spacingy="0.5"
       spacingx="0.5"
       id="grid1507"
       type="xygrid"
       units="px"
       visible="false" /></sodipodi:namedview><metadata
     id="metadata5"><rdf:RDF><cc:Work
         rdf:about=""><dc:format>image/svg+xml</dc:format><dc:type
           rdf:resource="http://purl.org/dc/dcmitype/StillImage" /></cc:Work></rdf:RDF></metadata><g
     transform="translate(-12.567709)"
     id="layer1"
     inkscape:groupmode="layer"
     inkscape:label="Layer 1"><g
       id="g1106"
       transform="translate(12.567709)"><path
         id="rect1498-0"
         style="fill:url(#linearGradient1832);fill-opacity:1;stroke:none;stroke-width:0.999999;stroke-linejoin:round;stroke-miterlimit:4;stroke-dasharray:none;stroke-opacity:1;paint-order:normal"
         d="M 6.749714,0.50000218 H 32.5 l 8,8.74999912 V 44.5 H 6.749714 Z"
         sodipodi:nodetypes="cccccc" /><path
         style="fill:url(#linearGradient1836);fill-opacity:1;stroke:none;stroke-width:0.999999;stroke-linecap:butt;stroke-linejoin:miter;stroke-miterlimit:4;stroke-dasharray:none;stroke-opacity:1"
         d="m 32.750003,1.0000021 v 7.9999992 h 7.249993 z"
         id="path1548-1"
         sodipodi:nodetypes="cccc" /><path
         style="fill:none;stroke:url(#linearGradient1838);stroke-width:0.999999;stroke-linecap:butt;stroke-linejoin:miter;stroke-miterlimit:4;stroke-dasharray:none;stroke-opacity:1"
         d="M 33.500009,7.7500015 V 1.7500021"
         id="path1570-0"
         sodipodi:nodetypes="cc" /><path
         sodipodi:nodetypes="cc"
         style="fill:none;stroke:url(#linearGradient1840);stroke-width:0.999999;stroke-linecap:butt;stroke-linejoin:miter;stroke-miterlimit:4;stroke-dasharray:none;stroke-opacity:1"
         d="M 39.499991,8.2500014 H 34.000014"
         id="path1595-5" /><path
         sodipodi:nodetypes="cc"
         id="path1593-1"
         d="M 32.5,0.50000218 V 9"
         style="fill:#7494c7;fill-opacity:1;stroke:url(#linearGradient1842);stroke-width:0.999999;stroke-linecap:butt;stroke-linejoin:miter;stroke-miterlimit:4;stroke-dasharray:none;stroke-opacity:1" /><path
         style="fill:none;stroke:url(#radialGradient29742);stroke-width:0.999999;stroke-linecap:butt;stroke-linejoin:miter;stroke-miterlimit:4;stroke-dasharray:none;stroke-opacity:1"
         d="M 33.000005,10.250001 39.5,10.25 39.499991,43"
         id="path1617-8"
         sodipodi:nodetypes="ccc" /><path
         style="fill:#000000;fill-opacity:0;stroke:url(#linearGradient111968);stroke-width:0.999999;stroke-linecap:butt;stroke-linejoin:miter;stroke-miterlimit:4;stroke-dasharray:none;stroke-opacity:1"
         d="m 32,9.25 8.5,1.3e-6"
         id="path1605-0"
         sodipodi:nodetypes="cc" /><path
         style="fill:none;stroke:url(#linearGradient1850);stroke-width:0.999999;stroke-linecap:butt;stroke-linejoin:miter;stroke-miterlimit:4;stroke-dasharray:none;stroke-opacity:1"
         d="M 38.999987,43.5 H 6.999716"
         id="path1637-0"
         sodipodi:nodetypes="cc" /><path
         style="fill:none;fill-opacity:1;stroke:url(#radialGradient299109);stroke-width:0.999999;stroke-linecap:butt;stroke-linejoin:miter;stroke-miterlimit:4;stroke-dasharray:none;stroke-opacity:1"
         d="M 31.999996,1.5000021 H 7.499721 V 43"
         id="path1657-4"
         sodipodi:nodetypes="ccc" /><path
         sodipodi:nodetypes="cccccc"
         d="M 6.499712,0.50000218 H 32.5 l 8,8.74999912 V 44.5 H 6.499712 Z"
         style="fill:none;fill-opacity:1;stroke:url(#radialGradient144284);stroke-width:0.999999;stroke-linejoin:miter;stroke-miterlimit:4;stroke-dasharray:none;stroke-opacity:1;paint-order:normal"
         id="path1566-2" /></g><path
       id="path7"
       style="color:#000000;mix-blend-mode:soft-light;fill:#000000;fill-opacity:1;fill-rule:evenodd;stroke-linecap:round;-inkscape-stroke:none"
       d="m 36.538537,13.5 v 0.0098 c -0.15414,0.0034 -0.311538,0.0043 -0.46289,0.0098 h -0.0039 -0.002 c -0.06885,0.0032 -0.13843,0.0061 -0.207031,0.0098 -0.252541,0.0111 -0.502967,0.02498 -0.75,0.04297 -0.0915,0.0068 -0.182641,0.01574 -0.273438,0.02344 -0.235037,0.0197 -0.465374,0.0409 -0.691406,0.06641 -0.08112,0.0088 -0.161875,0.01975 -0.242187,0.0293 h -0.002 -0.002 c -0.292056,0.03614 -0.577849,0.07491 -0.857421,0.121094 -0.311805,0.05149 -0.613136,0.109131 -0.902344,0.171875 -0.286893,0.06224 -0.558674,0.131295 -0.81836,0.203125 h -0.0039 l -0.0039,0.002 c -0.01198,0.0035 -0.02323,0.0062 -0.03516,0.0098 -0.899565,0.252196 -1.65053,0.559531 -2.214844,0.941406 -0.56618,0.383137 -0.998047,0.890332 -0.998047,1.527344 v 0.03125 17.949219 c 0,0.59105 0.378821,1.074261 0.880859,1.441406 0.502038,0.367143 1.168118,0.663817 1.970704,0.914062 1.60517,0.500493 3.762502,0.800782 6.146484,0.800782 2.350042,0 4.48023,-0.291698 6.078125,-0.785157 0.798948,-0.246729 1.465753,-0.541644 1.974609,-0.904297 0.502506,-0.358126 0.87713,-0.818242 0.927735,-1.390625 h 0.01172 v -0.01563 l 0.0059,-0.07227 h -0.002 c 9.3e-4,-0.01578 0.002,-0.0072 0.002,-0.03125 h -0.0059 l 0.0059,-17.873047 0.0039,-0.06641 -0.01172,-0.06055 c 0.001,0.02037 0.0038,0.03993 0.0039,0.06055 l -0.0059,-0.06641 c -0.02785,-0.513884 -0.339274,-0.949622 -0.757812,-1.285156 -0.438727,-0.351718 -1.018212,-0.638247 -1.714844,-0.884765 -0.223612,-0.07913 -0.457387,-0.151173 -0.703125,-0.220704 l -0.0039,-0.002 c -0.02904,-0.0085 -0.05853,-0.01707 -0.08789,-0.02539 h -0.002 l -0.002,-0.002 c -0.251595,-0.06914 -0.51445,-0.134847 -0.792969,-0.195313 -0.282308,-0.06128 -0.575689,-0.1175 -0.878906,-0.167969 h -0.002 -0.002 c -0.03696,-0.0058 -0.07413,-0.01198 -0.111329,-0.01758 h -0.0039 C 40.74089,13.75874 40.485205,13.7238 40.223772,13.691488 h -0.002 c -0.07721,-0.0092 -0.154455,-0.01883 -0.232422,-0.02734 h -0.002 c -0.228084,-0.0258 -0.460233,-0.0485 -0.697266,-0.06836 h -0.002 c -0.08879,-0.0076 -0.1781,-0.01672 -0.267578,-0.02344 h -0.002 c -0.248007,-0.01808 -0.500007,-0.03176 -0.755859,-0.04297 h -0.0039 c -0.06595,-0.0033 -0.13306,-0.007 -0.199218,-0.0098 h -0.002 -0.002 C 37.73276,13.507804 37.403362,13.5 37.065881,13.5 Z" /><g
       inkscape:label="Layer 1"
       id="layer1-1"
       transform="matrix(0.52789976,0,0,0.52789976,16.446467,12.010587)"><path
         id="path1"
         style="fill:url(#linearGradient2);fill-opacity:1;fill-rule:evenodd;stroke:#996600;stroke-width:2;stroke-linecap:round;stroke-miterlimit:4;stroke-dasharray:none;stroke-opacity:1"
         d="m 36.219255,0.979945 c -0.623658,0 -1.236108,0.0145513 -1.841225,0.0363651 a 16.045247,5.0597405 0 0 0 -0.382791,0.01914 c -0.474308,0.02077 -0.942835,0.04688 -1.40293,0.080386 a 16.045247,5.0597405 0 0 0 -0.507198,0.040193 c -0.434883,0.036444 -0.860911,0.078972 -1.280436,0.126321 a 16.045247,5.0597405 0 0 0 -0.455521,0.051677 c -0.543313,0.067234 -1.074213,0.141209 -1.586669,0.2258467 -0.574775,0.09493 -1.12846,0.2006162 -1.659399,0.3158026 -0.523579,0.1135898 -1.01897,0.2377774 -1.494799,0.3693934 a 16.045247,5.0597405 0 0 0 -0.06507,0.01914 c -3.287996,0.919471 -5.370559,2.248048 -5.370559,3.7149871 v 0.061247 34.0014141 c 0,2.71276 7.185064,4.978198 16.046601,4.978198 8.735294,0 15.834455,-2.202435 16.035116,-4.941833 l 0.0077,-34.0109838 a 16.045247,5.0597405 0 0 0 0.0019,-0.026795 16.045247,5.0597405 0 0 0 -0.0019,-0.00957 V 5.9887658 C 52.262815,4.7279668 50.731216,3.5706323 48.229324,2.685279 47.827039,2.5429213 47.399811,2.4088683 46.948888,2.2814345 A 16.045247,5.0597405 0 0 0 46.782374,2.2335857 C 46.319963,2.1065106 45.84064,1.9857721 45.333509,1.875676 44.815797,1.7632823 44.277583,1.6606474 43.718132,1.5675292 a 16.045247,5.0597405 0 0 0 -0.21245,-0.032537 C 43.04281,1.460658 42.567321,1.3942797 42.079786,1.3340267 A 16.045247,5.0597405 0 0 0 41.645317,1.2842639 C 41.219902,1.2361098 40.786968,1.1929523 40.345743,1.1560289 A 16.045247,5.0597405 0 0 0 39.8462,1.1158358 c -0.462838,-0.03373 -0.933366,-0.061467 -1.410585,-0.0823 A 16.045247,5.0597405 0 0 0 38.060479,1.0163102 C 37.455285,0.99448726 36.842996,0.979945 36.219255,0.979945 Z m 16.035116,39.098277 v 0.04785 l 0.0096,-0.166513 c 0,0.03981 -0.0067,0.07907 -0.0096,0.118663 z" /><g
         id="g1"
         transform="matrix(0.97994508,0,0,0.97994508,0.38490823,0.46126313)"><path
           id="path1006-6"
           style="fill:url(#linearGradient1014-3);fill-opacity:1;fill-rule:evenodd;stroke:none;stroke-width:1;stroke-linecap:round;stroke-miterlimit:4;stroke-dasharray:none"
           d="m 52.940711,40.306982 c 0,2.851606 -7.330718,5.163289 -16.373618,5.163289 -9.0429,0 -16.373619,-2.311683 -16.373619,-5.079963 V 5.6304274 c 0,-2.7888607 7.330719,-5.10054432 16.373619,-5.10054432 9.0429,0 16.373618,2.31168362 16.371872,5.10996022 l -0.0072,34.8368857"
           sodipodi:nodetypes="csccscc" /><path
           id="ellipse983-2"
           style="fill:url(#linearGradient991-1);fill-opacity:1;fill-rule:evenodd;stroke:none;stroke-width:1;stroke-linecap:round;stroke-miterlimit:4;stroke-dasharray:none"
           d="M 52.940711,5.6931729 A 16.373619,5.1632899 0 0 1 36.567093,10.856463 16.373619,5.1632899 0 0 1 20.193474,5.6931729 16.373619,5.1632899 0 0 1 36.567093,0.52988308 16.373619,5.1632899 0 0 1 52.940711,5.6931729" /></g></g></g></svg>
