<?xml version="1.0" encoding="UTF-8" standalone="no"?>
<svg
   inkscape:export-ydpi="96"
   inkscape:export-xdpi="96"
   inkscape:export-filename="database-file.png"
   width="16"
   height="16"
   viewBox="0 0 16 16"
   version="1.1"
   id="svg8"
   inkscape:version="1.3.2 (1:1.3.2+202311252150+091e20ef0f)"
   sodipodi:docname="database-file.16.svg"
   xml:space="preserve"
   xmlns:inkscape="http://www.inkscape.org/namespaces/inkscape"
   xmlns:sodipodi="http://sodipodi.sourceforge.net/DTD/sodipodi-0.dtd"
   xmlns:xlink="http://www.w3.org/1999/xlink"
   xmlns="http://www.w3.org/2000/svg"
   xmlns:svg="http://www.w3.org/2000/svg"
   xmlns:rdf="http://www.w3.org/1999/02/22-rdf-syntax-ns#"
   xmlns:cc="http://creativecommons.org/ns#"
   xmlns:dc="http://purl.org/dc/elements/1.1/"><defs
     id="defs2"><linearGradient
       inkscape:collect="always"
       id="linearGradient33218"><stop
         style="stop-color:#ccd5ff;stop-opacity:1"
         offset="0"
         id="stop33214" /><stop
         style="stop-color:#aab3f5;stop-opacity:1"
         offset="1"
         id="stop33216" /></linearGradient><linearGradient
       inkscape:collect="always"
       id="linearGradient19556"><stop
         style="stop-color:#a5bdee;stop-opacity:1"
         offset="0"
         id="stop19552" /><stop
         style="stop-color:#bac9f4;stop-opacity:1"
         offset="1"
         id="stop19554" /></linearGradient><linearGradient
       inkscape:collect="always"
       id="linearGradient10735"><stop
         style="stop-color:#9dadd9;stop-opacity:1"
         offset="0"
         id="stop10731" /><stop
         style="stop-color:#8b8eb8;stop-opacity:1"
         offset="1"
         id="stop10733" /></linearGradient><linearGradient
       inkscape:collect="always"
       id="linearGradient1920"><stop
         style="stop-color:#6e7bae;stop-opacity:1"
         offset="0"
         id="stop1916" /><stop
         style="stop-color:#87a9dc;stop-opacity:1"
         offset="1"
         id="stop1918" /></linearGradient><linearGradient
       inkscape:collect="always"
       id="linearGradient1601"><stop
         style="stop-color:#0096fc;stop-opacity:1"
         offset="0"
         id="stop1597" /><stop
         style="stop-color:#0068ce;stop-opacity:1"
         offset="1"
         id="stop1599" /></linearGradient><linearGradient
       inkscape:collect="always"
       id="linearGradient1562"><stop
         style="stop-color:#2da8ff;stop-opacity:1"
         offset="0"
         id="stop1558" /><stop
         style="stop-color:#74c0ff;stop-opacity:1"
         offset="1"
         id="stop1560" /></linearGradient><linearGradient
       inkscape:collect="always"
       id="linearGradient861"><stop
         style="stop-color:#99ccff;stop-opacity:1;"
         offset="0"
         id="stop857" /><stop
         style="stop-color:#ffffff;stop-opacity:1"
         offset="1"
         id="stop859" /></linearGradient><linearGradient
       inkscape:collect="always"
       xlink:href="#linearGradient1920"
       id="linearGradient1922"
       x1="-38.932289"
       y1="21.5"
       x2="-38.932289"
       y2="8"
       gradientUnits="userSpaceOnUse" /><linearGradient
       inkscape:collect="always"
       xlink:href="#linearGradient10735"
       id="linearGradient10737"
       x1="-37.932289"
       y1="22"
       x2="-28.932291"
       y2="22"
       gradientUnits="userSpaceOnUse" /><linearGradient
       inkscape:collect="always"
       xlink:href="#linearGradient19556"
       id="linearGradient19558"
       x1="-27.932291"
       y1="21"
       x2="-27.932291"
       y2="11.5"
       gradientUnits="userSpaceOnUse" /><linearGradient
       inkscape:collect="always"
       xlink:href="#linearGradient1562"
       id="linearGradient26952"
       gradientUnits="userSpaceOnUse"
       gradientTransform="matrix(1.5871812,0,0,1.5871812,-42.560746,7.9304953)"
       x1="8.0956125"
       y1="1.4187587"
       x2="7.2706113"
       y2="0.4584797" /><linearGradient
       inkscape:collect="always"
       xlink:href="#linearGradient861"
       id="linearGradient32816"
       x1="-28.683321"
       y1="21.127937"
       x2="-38.224697"
       y2="9.0368757"
       gradientUnits="userSpaceOnUse" /><linearGradient
       inkscape:collect="always"
       xlink:href="#linearGradient33218"
       id="linearGradient33220"
       x1="-30.932291"
       y1="11"
       x2="-28.932291"
       y2="11"
       gradientUnits="userSpaceOnUse" /><linearGradient
       inkscape:collect="always"
       xlink:href="#linearGradient1601"
       id="linearGradient57243"
       x1="-31.155609"
       y1="10.5"
       x2="-28.432291"
       y2="10.5"
       gradientUnits="userSpaceOnUse"
       gradientTransform="translate(0,-0.25000002)" /><linearGradient
       id="linearGradient1012"
       inkscape:collect="always"><stop
         id="stop1008"
         offset="0"
         style="stop-color:#ffcc00;stop-opacity:1" /><stop
         style="stop-color:#ffff99;stop-opacity:1"
         offset="0.37533283"
         id="stop1016" /><stop
         id="stop1023"
         offset="0.68766642"
         style="stop-color:#ffcc00;stop-opacity:1" /><stop
         id="stop1010"
         offset="1"
         style="stop-color:#cc9900;stop-opacity:1" /></linearGradient><linearGradient
       id="linearGradient989"
       inkscape:collect="always"><stop
         id="stop985"
         offset="0"
         style="stop-color:#ffff00;stop-opacity:1" /><stop
         id="stop987"
         offset="1"
         style="stop-color:#ffff99;stop-opacity:1" /></linearGradient><linearGradient
       inkscape:collect="always"
       xlink:href="#linearGradient1012"
       id="linearGradient1014-3"
       x1="-15.932291"
       y1="25.480541"
       x2="14.067709"
       y2="25.480541"
       gradientUnits="userSpaceOnUse"
       gradientTransform="matrix(1.0577562,0,0,1.0577562,37.574832,-3.952124)" /><linearGradient
       inkscape:collect="always"
       xlink:href="#linearGradient989"
       id="linearGradient991-1"
       x1="28.230461"
       y1="22.032276"
       x2="-12.09204"
       y2="7.2657962"
       gradientUnits="userSpaceOnUse"
       gradientTransform="matrix(1.0577562,0,0,1.0577562,37.574832,-3.952124)" /><linearGradient
       inkscape:collect="always"
       xlink:href="#linearGradient1012"
       id="linearGradient2"
       gradientUnits="userSpaceOnUse"
       gradientTransform="matrix(0.32364923,0,0,0.32364923,20.886007,-0.43204184)"
       x1="-15.932291"
       y1="25.480541"
       x2="14.067709"
       y2="25.480541" /></defs><sodipodi:namedview
     inkscape:guide-bbox="true"
     showguides="true"
     id="base"
     pagecolor="#ffffff"
     bordercolor="#666666"
     borderopacity="1.0"
     inkscape:pageopacity="0.0"
     inkscape:pageshadow="2"
     inkscape:zoom="65.402295"
     inkscape:cx="1.3990335"
     inkscape:cy="6.5823378"
     inkscape:document-units="px"
     inkscape:current-layer="layer1"
     inkscape:document-rotation="0"
     showgrid="true"
     units="px"
     inkscape:window-width="3840"
     inkscape:window-height="2056"
     inkscape:window-x="3840"
     inkscape:window-y="0"
     inkscape:window-maximized="1"
     inkscape:snap-bbox="true"
     inkscape:bbox-nodes="true"
     fit-margin-top="0"
     fit-margin-left="0"
     fit-margin-right="0"
     fit-margin-bottom="0"
     inkscape:bbox-paths="false"
     inkscape:pagecheckerboard="0"
     inkscape:showpageshadow="2"
     inkscape:deskcolor="#d1d1d1"><inkscape:grid
       type="xygrid"
       id="grid1504"
       originx="0"
       originy="0"
       spacingy="1"
       spacingx="1"
       units="px"
       visible="true" /><inkscape:grid
       type="xygrid"
       id="grid1507"
       spacingx="0.5"
       spacingy="0.5"
       originx="0"
       originy="0"
       units="px"
       visible="true" /></sodipodi:namedview><metadata
     id="metadata5"><rdf:RDF><cc:Work
         rdf:about=""><dc:format>image/svg+xml</dc:format><dc:type
           rdf:resource="http://purl.org/dc/dcmitype/StillImage" /></cc:Work></rdf:RDF></metadata><g
     inkscape:label="Layer 1"
     inkscape:groupmode="layer"
     id="layer1"
     transform="translate(-12.567709)"><g
       id="g66635"
       transform="translate(54.005865,-7.4946405)"><path
         id="rect32383"
         style="fill:url(#linearGradient32816);fill-opacity:1;fill-rule:evenodd;stroke-linecap:round;stroke-linejoin:round;stop-color:#000000"
         d="m -38.932289,8 h 8.504071 l 2.495929,3.120377 V 22 h -11 z"
         sodipodi:nodetypes="cccccc" /><path
         style="fill:url(#linearGradient26952);fill-opacity:1;stroke:none;stroke-width:0.419942px;stroke-linecap:butt;stroke-linejoin:miter;stroke-opacity:1"
         d="M -31.432291,8.1404667 V 11 h 3.499999 L -31.01235,8.1404667 Z"
         id="path1548-1-7"
         sodipodi:nodetypes="ccccc" /><path
         style="fill:none;stroke:url(#linearGradient57243);stroke-width:0.5;stroke-linecap:butt;stroke-linejoin:miter;stroke-miterlimit:4;stroke-dasharray:none;stroke-opacity:1"
         d="m -31.432291,10.25 h 3"
         id="path57178" /><path
         style="fill:#aab3f5;fill-opacity:1;stroke:url(#linearGradient33220);stroke-width:1px;stroke-linecap:butt;stroke-linejoin:miter;stroke-opacity:1"
         d="m -27.932291,11 h -3.5"
         id="path33155"
         sodipodi:nodetypes="cc" /><path
         style="fill:none;stroke:url(#linearGradient19558);stroke-width:1px;stroke-linecap:round;stroke-linejoin:miter;stroke-opacity:1"
         d="M -27.932291,22 V 11"
         id="path1357"
         sodipodi:nodetypes="cc" /><path
         style="fill:none;stroke:url(#linearGradient10737);stroke-width:1px;stroke-linecap:round;stroke-linejoin:miter;stroke-opacity:1"
         d="m -38.932291,22 h 11"
         id="path1355"
         sodipodi:nodetypes="cc" /><path
         style="fill:none;stroke:url(#linearGradient1922);stroke-width:1px;stroke-linecap:round;stroke-linejoin:miter;stroke-opacity:1"
         d="m -30.432291,8 h -8.5 v 14"
         id="path1225"
         sodipodi:nodetypes="ccc" /><path
         style="fill:none;stroke:#87a9dc;stroke-width:1px;stroke-linecap:round;stroke-linejoin:miter;stroke-opacity:1"
         d="m -30.432291,8 2.5,3"
         id="path1359"
         sodipodi:nodetypes="cc" /></g><g
       id="g2"
       transform="matrix(1.0079768,0,0,1.0079768,-0.13508194,-0.06780275)"><g
         inkscape:label="Layer 1"
         id="layer1-6"
         transform="matrix(0.53165419,0,0,0.53165419,9.6318222,4.5323405)"><path
           id="path1"
           style="fill:url(#linearGradient2);fill-opacity:1;fill-rule:evenodd;stroke:#996600;stroke-width:2.05264057;stroke-linecap:round;stroke-miterlimit:4;stroke-dasharray:none;stroke-opacity:1"
           d="m 20.577851,0.93917062 c -0.194731,0 -0.385961,0.004543 -0.574903,0.0113546 -0.03992,0.00184 -0.07976,0.003832 -0.119522,0.005976 -0.148097,0.00648 -0.29439,0.014638 -0.438049,0.0251 -0.053,0.003912 -0.105798,0.008096 -0.158367,0.01255 -0.135788,0.011379 -0.268811,0.024658 -0.399803,0.039442 -0.04766,0.00515 -0.09508,0.010532 -0.142231,0.016136 -0.169644,0.020993 -0.335411,0.044091 -0.49542,0.070518 -0.179467,0.029641 -0.352349,0.06264 -0.518129,0.098606 -0.163482,0.035467 -0.318163,0.074243 -0.466735,0.1153391 -0.0068,0.00199 -0.01356,0.00398 -0.02032,0.00598 -1.026641,0.2870947 -1.676899,0.7019284 -1.676899,1.1599641 v 0.019124 9.9128966 c 0,0.84703 2.243458,1.554388 5.010376,1.554388 2.7275,0 4.944136,-0.687686 5.00679,-1.543034 l 0.0024,-9.9158842 c 2.21e-4,-0.00279 4.19e-4,-0.00558 5.93e-4,-0.00837 -1.95e-4,-9.967e-4 -3.92e-4,-0.00199 -5.93e-4,-0.00299 V 2.5031198 C 25.587277,2.1094491 25.109052,1.748084 24.327864,1.4716421 24.202255,1.4271921 24.068857,1.3853361 23.928062,1.345546 c -0.01722,-0.00502 -0.03455,-0.01 -0.05199,-0.01494 C 23.73169,1.2909284 23.582026,1.2532294 23.42368,1.218853 23.26203,1.183759 23.093979,1.151713 22.919296,1.122637 22.897266,1.119197 22.875156,1.115817 22.852966,1.112478 22.708439,1.089268 22.559973,1.068542 22.407746,1.049729 22.362766,1.044349 22.317536,1.039165 22.272087,1.034191 22.139256,1.019155 22.004077,1.00568 21.86631,0.994151 21.81453,0.989705 21.762535,0.985521 21.710333,0.981601 21.565817,0.9710691 21.418899,0.9624085 21.269893,0.9559036 21.230913,0.9539656 21.191873,0.9521716 21.152761,0.9505246 20.963796,0.9437106 20.772615,0.93917 20.577859,0.93917 Z m 5.00679,11.50433638 v 0.01494 l 0.003,-0.05199 c 0,0.01243 -0.0021,0.02469 -0.003,0.03705 z"
           sodipodi:nodetypes="sccccccssccscsscccccsccsccccccccsscccc" /><g
           id="g1"
           transform="matrix(0.30597715,0,0,0.30597715,9.3889674,0.77721787)"
           style="stroke-width:6.53644;stroke-dasharray:none"><path
             id="path1006-6"
             style="fill:url(#linearGradient1014-3);fill-opacity:1;fill-rule:evenodd;stroke:none;stroke-width:6.53644;stroke-linecap:round;stroke-miterlimit:4;stroke-dasharray:none"
             d="m 52.940711,38.007224 c 0,2.851606 -7.330718,5.163289 -16.373618,5.163289 -9.0429,0 -16.373619,-2.311683 -16.373619,-5.079963 V 5.6304274 c 0,-2.7888607 7.330719,-5.10054432 16.373619,-5.10054432 9.0429,0 16.373618,2.31168362 16.371872,5.10996022 l -0.0072,32.5371277"
             sodipodi:nodetypes="csccscc" /><path
             id="ellipse983-2"
             style="fill:url(#linearGradient991-1);fill-opacity:1;fill-rule:evenodd;stroke:none;stroke-width:6.53644;stroke-linecap:round;stroke-miterlimit:4;stroke-dasharray:none"
             d="M 52.940711,5.6931729 A 16.373619,5.1632899 0 0 1 36.567093,10.856463 16.373619,5.1632899 0 0 1 20.193474,5.6931729 16.373619,5.1632899 0 0 1 36.567093,0.52988308 16.373619,5.1632899 0 0 1 52.940711,5.6931729" /></g></g></g></g></svg>
