<svg version="1.1" viewBox="0 0 48 48" xmlns="http://www.w3.org/2000/svg" xmlns:xlink="http://www.w3.org/1999/xlink"><defs><linearGradient id="linearGradient1832-3" x1="110.94" x2="102.63" y1="94.872" y2="83.838" gradientTransform="matrix(3.8635 0 0 3.8635 -389.12 -322.79)" gradientUnits="userSpaceOnUse"><stop stop-color="#9cf" offset="0"/><stop stop-color="#fff" offset="1"/></linearGradient><linearGradient id="linearGradient1836-5" x1="8.552" x2="7.5753" y1="1.7642" y2=".78781" gradientTransform="matrix(3.8635 0 0 3.8635 5.7439 .5)" gradientUnits="userSpaceOnUse"><stop stop-color="#1ba2ff" offset="0"/><stop stop-color="#7ec3ff" offset="1"/></linearGradient><linearGradient id="linearGradient1838-2" x1="7.509" x2="7.509" y1="1.9412" y2=".51767" gradientTransform="matrix(3.8635 0 0 3.8635 5.4939 .25)" gradientUnits="userSpaceOnUse"><stop stop-color="#9cf" offset="0"/><stop stop-color="#c9fcff" offset="1"/></linearGradient><linearGradient id="linearGradient1840-7" x1="7.3783" x2="8.5431" y1="1.8765" y2="1.8765" gradientTransform="matrix(3.8635 0 0 3.8635 5.7439 .75)" gradientUnits="userSpaceOnUse"><stop stop-color="#09f" offset="0"/><stop stop-color="#1966bf" offset="1"/></linearGradient><linearGradient id="linearGradient1842-6" x1="6.862" x2="6.862" y1="2.2001" y2=".32354" gradientTransform="matrix(3.8635 0 0 3.8635 6.4939 1.2e-7)" gradientUnits="userSpaceOnUse"><stop stop-color="#6c72a5" offset="0"/><stop stop-color="#7585b8" offset="1"/></linearGradient><radialGradient id="radialGradient29742" cx="39.634" cy="22.953" r="3.5" gradientTransform="matrix(-1.7143 -3.241e-7 4.391e-7 -9.2146 107.19 222)" gradientUnits="userSpaceOnUse"><stop stop-color="#9d9cff" offset="0"/><stop stop-color="#cbcaff" offset="1"/></radialGradient><linearGradient id="linearGradient111968" x1="32" x2="39.932" y1="9.25" y2="9.25" gradientUnits="userSpaceOnUse"><stop stop-color="#8a91ba" offset="0"/><stop stop-color="#5e5e91" offset="1"/></linearGradient><linearGradient id="linearGradient1850-7" x1=".45453" x2="8.3489" y1="11.518" y2="11.518" gradientTransform="matrix(3.8635 0 0 3.8635 6.2439 0)" gradientUnits="userSpaceOnUse"><stop stop-color="#ccf" offset="0"/><stop stop-color="#ccf" offset="1"/></linearGradient><radialGradient id="radialGradient299109" cx="14.142" cy="10.04" r="12.628" gradientTransform="matrix(0 3.2666 -4.9109 0 57.057 -44.448)" gradientUnits="userSpaceOnUse"><stop stop-color="#fff" offset="0"/><stop stop-color="#ccc" offset="1"/></radialGradient><radialGradient id="radialGradient144284" cx="6.6762" cy="6.7253" r="17.5" gradientTransform="matrix(1.9143 2.4714 -2.3639 1.831 9.6176 -28.314)" gradientUnits="userSpaceOnUse"><stop stop-color="#99cbfe" stop-opacity=".98555" offset="0"/><stop stop-color="#4c4c7f" offset="1"/></radialGradient></defs><g transform="translate(-12.568)"><g transform="translate(12.568)"><path d="m6.7497 0.5h25.75l8 8.75v35.25h-33.75z" fill="url(#linearGradient1832-3)" style="paint-order:normal"/><path d="m32.75 1v8h7.25z" fill="url(#linearGradient1836-5)"/><g><path d="m33.5 7.75v-6" fill="none" stroke="url(#linearGradient1838-2)"/><path d="m39.5 8.25h-5.5" fill="none" stroke="url(#linearGradient1840-7)"/><path d="m32.5 0.5v8.5" fill="#7494c7" stroke="url(#linearGradient1842-6)"/><path d="m33 10.25 6.5-1e-6 -9e-6 32.75" fill="none" stroke="url(#radialGradient29742)"/><path d="m32 9.25 8.5 1.3e-6" fill-opacity="0" stroke="url(#linearGradient111968)"/></g><g fill="none"><path d="m39 43.5h-32" stroke="url(#linearGradient1850-7)"/><path d="m32 1.5h-24.5v41.5" stroke="url(#radialGradient299109)"/><path d="m6.4997 0.5h26l8 8.75v35.25h-34z" stroke="url(#radialGradient144284)" style="paint-order:normal"/></g></g><path d="m33.614 19.286c0.64528-0.73038 1.7586-1.092 3.3541-1.092 3.269 0 4.907 1.7657 4.907 5.297v8.9985h-3.3541v-8.8993c0-0.93602-0.14182-1.5813-0.43255-1.9288-0.28364-0.35455-0.78002-0.53183-1.4749-0.53183-1.014 0-2.0139 0.58147-2.9995 1.7444v9.6155h-3.3541v-18.947h3.3541z" fill="#06c" fill-rule="evenodd" stroke-linejoin="round" stroke-width=".20012"/></g></svg>
