<svg version="1.1" viewBox="0 0 256 256" xmlns="http://www.w3.org/2000/svg" xmlns:xlink="http://www.w3.org/1999/xlink">
<defs>
<linearGradient id="linearGradient1832" x1="111.46" x2="102.63" y1="95.322" y2="83.838" gradientTransform="translate(-88.178,-83.548)" gradientUnits="userSpaceOnUse">
<stop stop-color="#9cf" offset="0"/>
<stop stop-color="#fff" offset="1"/>
</linearGradient>
<linearGradient id="linearGradient1834" x1="111.33" x2="102.63" y1="95.189" y2="83.838" gradientTransform="translate(-88.178,-83.548)" gradientUnits="userSpaceOnUse">
<stop stop-color="#343467" offset="0"/>
<stop stop-color="#99cbfe" offset="1"/>
</linearGradient>
<linearGradient id="linearGradient1836" x1="8.7312" x2="7.5419" y1="1.9844" y2=".69043" gradientTransform="translate(14.155)" gradientUnits="userSpaceOnUse">
<stop stop-color="#2da8ff" offset="0"/>
<stop stop-color="#74c0ff" offset="1"/>
</linearGradient>
<linearGradient id="linearGradient1838" x1="7.276" x2="7.276" y1="1.8521" y2=".26458" gradientTransform="translate(14.155)" gradientUnits="userSpaceOnUse">
<stop stop-color="#9bceff" offset="0"/>
<stop stop-color="#c9fcff" offset="1"/>
</linearGradient>
<linearGradient id="linearGradient1840" x1="7.4083" x2="8.9958" y1="1.9844" y2="1.9844" gradientTransform="translate(14.155)" gradientUnits="userSpaceOnUse">
<stop stop-color="#0096fc" offset="0"/>
<stop stop-color="#0068ce" offset="1"/>
</linearGradient>
<linearGradient id="linearGradient1842" x1="7.0115" x2="7.0115" y1="2.1167" gradientTransform="translate(14.155)" gradientUnits="userSpaceOnUse">
<stop stop-color="#6983b6" offset="0"/>
<stop stop-color="#7ca0d3" offset="1"/>
</linearGradient>
<linearGradient id="linearGradient1846" x1="7.1438" x2="8.7312" y1="2.5135" y2="2.5135" gradientTransform="translate(14.155)" gradientUnits="userSpaceOnUse">
<stop stop-color="#ddd" offset="0"/>
<stop stop-color="#9cf" offset="1"/>
</linearGradient>
<linearGradient id="linearGradient1848" x1="8.8635" x2="8.8635" y1="2.6458" y2="11.377" gradientTransform="translate(14.155)" gradientUnits="userSpaceOnUse">
<stop stop-color="#9fa0ff" offset="0"/>
<stop stop-color="#cbcaff" offset="1"/>
</linearGradient>
<linearGradient id="linearGradient1850" x1=".26458" x2="8.7312" y1="11.509" y2="11.509" gradientTransform="translate(14.155)" gradientUnits="userSpaceOnUse">
<stop stop-color="#ccccf2" offset="0"/>
<stop stop-color="#ccf" offset="1"/>
</linearGradient>
<linearGradient id="linearGradient1852" x1=".39688" x2=".39688" y1="11.377" y2=".26458" gradientTransform="translate(14.155)" gradientUnits="userSpaceOnUse">
<stop stop-color="#ccc" offset="0"/>
<stop stop-color="#fff" offset="1"/>
</linearGradient>
<linearGradient id="linearGradient1854" x1=".52917" x2="6.8792" y1=".39687" y2=".39687" gradientTransform="translate(14.155)" gradientUnits="userSpaceOnUse">
<stop stop-color="#fff" offset="0"/>
<stop stop-color="#ddd" offset="1"/>
</linearGradient>
<radialGradient id="gradient2-62" cx="-1495.2" cy="5091.2" r="819.2" gradientTransform="matrix(.033215 .02554 -.022525 .029294 177.22 -98.257)" gradientUnits="userSpaceOnUse">
<stop stop-color="#00bf00" offset="0"/>
<stop stop-color="#060" offset=".92941"/>
</radialGradient>
<radialGradient id="gradient1-6" cx="0" cy="0" r="819.2" gradientTransform="matrix(.15259 0 0 .15259 -147.36 -19.476)" gradientUnits="userSpaceOnUse">
<stop stop-color="#fff" offset="0"/>
<stop stop-color="#cff" offset=".078431"/>
<stop stop-color="#09f" offset=".29804"/>
<stop stop-color="#06c" offset=".53725"/>
<stop stop-color="#039" offset=".75294"/>
<stop stop-color="#99f" offset="1"/>
</radialGradient>
<linearGradient id="gradient0-1" x1="-819.2" x2="819.2" gradientTransform="matrix(-.068712 -.068712 -.068712 .068712 -137.77 19.342)" gradientUnits="userSpaceOnUse">
<stop stop-color="#039" offset="0"/>
<stop stop-color="#09f" offset=".47059"/>
<stop stop-color="#cff" offset="1"/>
</linearGradient>
<filter id="filter1610" x="-.047965" y="-.048035" width="1.0959" height="1.0961" color-interpolation-filters="sRGB">
<feGaussianBlur stdDeviation="0.84060547"/>
</filter>
<radialGradient id="radialGradient1624" cx="-154.38" cy="-18.647" r="75.181" fx="-154.72" gradientTransform="matrix(.65631 0 0 .6543 -49.102 -7.0885)" gradientUnits="userSpaceOnUse">
<stop stop-color="#fff" offset="0"/>
<stop stop-color="#fff" stop-opacity="0" offset="1"/>
</radialGradient>
<linearGradient id="linearGradient1230" x1="-87.408" x2="-87.408" y1="213.57" y2="198.56" gradientTransform="matrix(5.6 0 0 5.6 595.45 -1010.7)" gradientUnits="userSpaceOnUse">
<stop stop-color="#0068e5" offset="0"/>
<stop stop-color="#8098ff" offset="1"/>
</linearGradient>
<filter id="filter1565" x="-.21943" y="-.17067" width="1.4389" height="1.3413" color-interpolation-filters="sRGB">
<feGaussianBlur stdDeviation="17.055856"/>
</filter>
</defs>
<g transform="translate(12.276 11.816)" filter="url(#filter1565)" style="mix-blend-mode:normal">
<path d="m34.818 0.18359s-0.09098 1.193-0.09164 2.6641v234.52c6.6e-4 1.471 1.193 2.6634 2.6641 2.6641h181.22c1.471-6.7e-4 2.6634-1.193 2.6641-2.6641v-194.54c4.8e-4 -0.67476-0.25498-1.3246-0.71485-1.8184l-40.059-39.975c-0.50396-0.5394-1.2091-0.84563-1.9473-0.8457h-5.3301z" color="#000000" color-rendering="auto" dominant-baseline="auto" image-rendering="auto" shape-rendering="auto" solid-color="#000000" stop-color="#000000" style="font-feature-settings:normal;font-variant-alternates:normal;font-variant-caps:normal;font-variant-east-asian:normal;font-variant-ligatures:normal;font-variant-numeric:normal;font-variant-position:normal;font-variation-settings:normal;inline-size:0;isolation:auto;mix-blend-mode:normal;paint-order:normal;shape-margin:0;shape-padding:0;text-decoration-color:#000000;text-decoration-line:none;text-decoration-style:solid;text-indent:0;text-orientation:mixed;text-transform:none;white-space:normal"/>
</g>
<g transform="matrix(20.145 0 0 20.145 -253.15 .00083592)">
<path d="m14.288 0.13229h7.0115l1.9844 2.1167v9.525h-8.9958z" fill="url(#linearGradient1832)" style="paint-order:normal"/>
<path d="m21.167 0.13229v2.1167l2.1167-0.13229-1.8521-1.9844z" fill="url(#linearGradient1836)"/>
<path d="m21.431 2.1167v-1.8521" fill="none" stroke="url(#linearGradient1838)" stroke-width=".26458px"/>
<path d="m23.151 1.9844h-1.9844" fill="none" stroke="url(#linearGradient1840)" stroke-width=".26458px"/>
<path d="m21.034 2.249h2.3812" fill-opacity="0" stroke="#667eb1" stroke-width=".26458"/>
<path d="m21.167 0v2.1167" fill="#7494c7" stroke="url(#linearGradient1842)" stroke-width=".26458"/>
<g fill="none" stroke-width=".26458px">
<path d="m21.299 2.5135h1.8521" stroke="url(#linearGradient1846)"/>
<path d="m23.019 2.3813v8.9958" stroke="url(#linearGradient1848)"/>
<path d="m22.886 11.509h-8.4667" stroke="url(#linearGradient1850)"/>
<path d="m14.552 11.377v-11.112" stroke="url(#linearGradient1852)"/>
</g>
<path d="m21.034 0.39688h-6.35" fill="#e8ebee" stroke="url(#linearGradient1854)" stroke-width=".26458px"/>
<path d="m14.288 0.13229h7.0115l1.9844 1.9844v9.6573h-8.9958z" fill="none" stroke="url(#linearGradient1834)" stroke-linejoin="round" stroke-width=".26467" style="paint-order:normal"/>
<rect x="21.299" y="1.8521" width=".26458" height=".26458" fill="#4db3ff"/>
</g>
<g transform="matrix(2.1723 0 0 2.1723 44.477 77.377)" fill-rule="evenodd">
<path d="m36.261 2.8735c-5.8202 0-10.797 2.0449-14.926 6.1348-4.0899 4.0899-6.1348 9.045-6.1348 14.865 0 5.7809 2.0449 10.736 6.1348 14.865 4.1292 4.0899 9.1056 6.1348 14.926 6.1348 5.7809 0 10.736-2.0449 14.865-6.1348 4.0899-4.1292 6.1348-9.0843 6.1348-14.865 0-5.8202-2.0449-10.775-6.1348-14.865-4.1292-4.0899-9.0843-6.1348-14.865-6.1348z" filter="url(#filter1610)"/>
<g transform="matrix(.26442 0 0 .26442 72.189 18.259)">
<path d="m-217.41 19.342q0 32.794 23.201 56.219 23.424 23.201 56.442 23.201 32.794 0 56.219-23.201 23.201-23.424 23.201-56.219 0-33.017-23.201-56.219-23.424-23.201-56.219-23.201-33.017 0-56.442 23.201-23.201 23.201-23.201 56.219" fill="url(#gradient0-1)"/>
<path d="m-212.95 19.342q0 31.009 21.863 53.095 22.086 22.086 53.318 22.086 31.009 0 53.318-22.086 21.863-22.086 21.863-53.095 0-31.233-21.863-53.318-22.309-22.086-53.318-22.086-31.233 0-53.318 22.086-21.863 22.086-21.863 53.318" fill="url(#gradient1-6)"/>
<path transform="matrix(3.7819,0,0,3.7819,-225.48,-69.054)" d="m20.951 3.6719v0.11719h-0.11719v0.11719h-0.47266v0.11914h-0.47266v0.17578h-0.11719v0.47266h0.23633v0.11719h1.0605v0.11914h-0.58984v0.23633h-0.11719v-0.11914h-0.47266v0.23633h0.11914v0.35352h-0.11914v0.23633h-0.23438v0.11719h-0.11914v0.11914h-0.11719v0.11719h-0.11914v0.29492h-0.17578v0.11914h-0.11914v0.23438h0.11914v0.11914h0.29492v0.11719h0.4707v0.11914h0.47266v-0.11914h0.23633v-0.35352h0.11719v-0.11719h0.23633v-0.11914h0.11719v-0.11719h0.11914v-0.17773h0.11719v-0.23633h0.17773v-0.11719h0.4707v-0.11719h0.11914v0.23438h-0.11914v0.23633h0.35547v0.29492h0.11719v0.11914h-0.11719v0.11719h-0.47266v0.11719h-0.11719v0.11914h-0.65039v0.11719h-0.11719v0.11914h-0.11719v0.11719h0.11719v0.11914h0.23633v0.11719h0.29492v0.11719h0.11719v0.11914h-0.53125v0.35352h0.11914v0.23633h0.76562v0.29492h0.23633v-0.17773h0.35352v-0.11719h0.94531v0.11719h0.17578v0.17773h0.11914v0.35352h0.11719v0.11719h0.11719v0.94531h-0.11719v0.11719h-0.11719v0.11719h0.4707v0.11914h-0.11719v0.11719h0.11719v0.11914h0.35547v0.17578h0.11719v0.11914h-0.11719v0.11719h-0.23633v0.23633h-0.11914v0.11719h-0.11719v0.11914h0.11719v0.4707h0.11914v0.23633h0.11719v0.23633h0.11914v0.23633h0.11719v0.11719h0.11719v0.29492h0.11914v0.11914h0.11719v0.11719h0.58984v0.11719h0.53125v-0.35352h0.11719v-0.41211h0.29492v-0.35352h0.11914v-0.23633h0.35352v-0.11914h0.35352v-0.11719h0.11914v-0.11914h0.11719v-0.11719h0.11719v-0.23633h0.47266v-0.11719h0.11719v-0.11914h0.11914v0.11914h0.23633v-0.11914h0.41211v-0.11719h0.11719v-0.11719h0.35547v-0.11914h0.11719v-0.29492h0.11914v-0.4707h-0.11914v-0.11914h-0.11719v-0.4707h0.35352v-0.11914h0.11719v-0.11719h0.11914v-0.11914h0.11719v-0.11719h0.11914v-0.35352h-0.11914v-0.17773h-0.11719v-0.11719h0.58984v-0.23633h-0.11914v-0.11719h-0.11719v-0.23633h-0.11719v-0.23633h-0.35547v-0.11719h-0.35352v0.4707h-0.11719v0.23633h-0.11914v-0.47266h-0.11719v-0.11719h0.11719v-0.35352h0.23633v0.11719h0.23633v-0.35352h0.47266v-0.23633h-0.11914v-0.11719h-0.4707v0.23438h-0.23633v0.11914h-0.11914v-0.35352h0.11914v-0.11914h0.94336v-0.11719h0.11719v-0.17773h-0.58984v-0.11719h0.11914v-0.23633h0.11719v-0.11719h0.23633v-0.11914h0.11719v-0.35352h0.11914v-0.23633h-0.23633v-0.11719h-0.58984v0.35352h-0.11719v0.11719h-0.11914v0.11914h-0.23633v-0.11914h0.11914v-0.11719h0.11719v-0.11719h0.11914v-0.35547h-0.70898v-0.11719h0.11719v-0.23633h-0.11719v-0.11719h-0.53125v-0.11914h-0.4707v-0.17578h-0.47266v-0.11914h-1.3574v0.11914h-0.23438v0.17578h-0.41406v0.11914h-0.11719v0.11719h-0.35352v0.11914h-0.11914v0.11719h-0.58984v0.11719h-0.58984v0.11914h-0.64844v0.11719h-0.35352v-0.11719h0.23437v-0.11914h0.23633v-0.11719h-0.11719v-0.11719h-0.11914v-0.53125h-0.11719v-0.11914h-0.11719v-0.11719h-0.11914v-0.11719h-0.82617v0.11719h-0.35352v-0.11719zm-2.7734 0.5293v0.23633h-0.11719v0.35352h-0.11719v-0.11719h-0.23633v-0.23633h-0.47266v0.11914h-0.41211v0.11719h0.29492v0.11719h0.11719v0.11914h0.23633v0.11719h0.35352v-0.11719h0.11914v0.23633h0.11719v0.11719h-0.11719v0.11719h0.23438v0.23633h-0.11719v0.11914h0.11719v0.35352h0.82617v-0.23633h0.11914v-0.11719h0.17578v-0.23633h0.11914v-0.35352h-0.29492v-0.47266h-0.11914v-0.11719h-0.11719v-0.11914h-0.35352v-0.23633zm-1.709 0.47266v0.11719h0.11719v-0.11719zm-0.82617 0.35352v0.11914h-0.35352v0.11719h-0.23633v0.23633h0.4707v0.4707h0.35547v0.11914h0.11719v-0.11914h0.11719v0.11914h0.11914v1.002h-0.23633v0.23633h-0.11719v0.11914h-0.11914v0.23438h0.11914v0.82617h0.35352v-0.35352h0.11719v-0.11719h0.23633v-0.11914h0.11719v-0.11719h0.11914v-0.35352h0.11719v-0.11914h0.88477v-0.11719h0.23633v0.11719h0.35352v0.47266h1.2402v-0.35352h-0.11914v-0.23633h-0.76758v-0.82617h-0.23438v-0.17773h-0.47266v-0.11719h-0.47266v0.11719h-0.4707v-0.11719h-0.17774v-0.11914h-0.23633v-0.23438h-0.11719v-0.23633h-0.47266v-0.11914h-0.11719v-0.11719h-0.23633v-0.23633zm-1.1211 0.47266v0.11719h-0.23633v0.11914h-0.23633v0.11719h-0.23633v0.11719h0.11914v0.11914h0.23633v0.11719h0.11719v0.29492h0.11914v0.11914h0.41211v0.11719h0.70703v-0.11719h0.23633v-0.53125h-0.82617v0.29492h-0.11719v-0.64844h0.11719v-0.23633zm-1.5332 0.88477v0.11719h-0.23633v0.11914h-0.11914v0.11719h-0.29492v0.11719h-0.11719v0.11914h-0.23633v0.11719h0.23633v0.23633h0.64844v-0.11719h0.47266v-0.11914h0.23633v-0.23633h0.11719v-0.23438h-0.11719v-0.11914h-0.35547v-0.11719zm1.1797 0.58984v0.11719h-0.11914v0.47266h-0.35352v0.35352h0.11719v0.11914h0.11914v0.11719h0.11719v0.23633h0.23633v0.11719h0.64844v-0.11719h0.11914v0.29492h-0.11914v0.11719h-0.11719v0.23633h-0.29492v0.23633h-0.23633v-0.35352h-0.35352v-0.11914h-0.35352v-0.29492h-0.11914v-0.70703h-0.11719v-0.11914h-0.35352v0.11914h-0.11914v-0.11914h-0.53125v-0.11719h-0.35352v0.23633h-0.11719v-0.35352h-0.23633v-0.11914h-0.11719v0.11914h-0.11914v0.23438h-0.11719v-0.11719h-0.11914v0.11719h-0.11719v0.11914h-0.11719v0.11719h-0.11914v0.11914h-0.23633v0.11719h-0.11719v0.11719h0.23633v-0.11719h0.11719v0.23633h0.11914v0.41211h0.23438v0.11914h0.47266v-0.11914h0.23633v0.11914h0.23633v0.11719h-0.94531v0.35352h0.11914v0.11914h0.35352v0.11719h0.11719v0.11719h0.58984v-0.11719h0.65039v-0.11719h0.35352v0.11719h0.58984v-0.11719h0.11719v-0.23633h0.11914v0.35352h0.23633v0.11719h0.23438v-0.11719h0.29492v0.11719h0.11914v0.23633h0.11719v0.11914h0.11914v0.23438h-0.11914v0.11914h-0.35352v-0.11914h0.11719v-0.23438h-0.76562v0.35352h-0.47266v0.11719h-0.11719v-0.11719h-0.11914v-0.11914h-0.11719v-0.11719h-0.35352v-0.23633h-0.11914v-0.11719h-0.11719v0.11719h-0.53125v0.11914h-0.11719v0.35352h0.11719v0.11719h-0.11719v0.11914h-0.11914v-0.23633h-0.11719v-0.11914h-0.23633v0.11914h-0.58984v-0.11914h0.11719v-0.35352h-0.11719v-0.11719h-0.11719v-0.11914h-0.23633v0.23633h-0.11914v-0.11719h-0.11719v-0.11914h-0.17773v-0.11719h-0.23438v-0.11719h-0.23633v-0.11914l-0.82422-0.00195c-0.1868 0.17398-0.86564 0.86862-1.8262 2.125-0.65818 0.86091-1.2548 1.8047-1.5156 2.3555l0.1543 0.0059v0.23438h0.11719v0.11914h0.11914v0.11719h0.53125v0.11914h0.35352v0.11719h0.11719v0.11719h0.11914v0.23629h0.23438v0.41406h0.11914v0.11719h0.23633v0.11719h-0.11914v0.35547h0.11914v0.41211h0.11719v0.11719h0.11719v0.11914h0.11914v0.23633h0.17578v0.11719h0.23633v0.11719h0.11914v0.11914h0.23633v0.11719h0.11719v0.11914h0.11719v0.88476h-0.11719v0.58984h-0.11719v1.1797h0.11719v0.23633h0.11719v0.29492h0.11914v0.11719h0.11719v0.23633h0.23633v0.23633h0.11719v0.11719h0.11914v0.11719h0.35352v0.11914h0.11719v0.35352h0.17773v0.11719h0.11719v0.23633h0.11914v0.11914h0.11719v0.29492h0.11914v0.23633h0.23438v0.11719h0.11914v0.11719h0.11719v0.23633h0.11914v0.11914h0.11719v0.23437h0.23633v0.11914h0.35352v-0.23633h-0.11719v-0.11719h-0.11914v-0.23633h-0.11719v-0.11914h-0.11914v-0.23438h0.23633v0.23438h0.11914v0.11914h0.23438v0.23633h0.29492v0.11719h0.11914v0.11719h0.11719v0.47266h0.11914v0.35352h0.23438v0.11914h0.47266v0.17578h0.23633v0.11914h0.58984v0.23438h1.3574v0.11914h0.11719v0.11719h0.11719v0.11914h0.11914v0.11719h0.35352v0.11719h0.23633v0.11914h0.11719v0.23633h0.17774v0.35352h0.23633v0.11719h0.82422v0.11914h0.47266v0.11719h0.11719v0.53125h-0.11719v0.23633h-0.11719v0.23438h-0.11914v0.35547h-0.11719v0.23633h-0.23633v0.11719h-0.11719v0.47266h-0.11914v0.29492h0.11914v0.35352h0.11719v0.11719h0.11719v0.11914h0.11914v0.23438h0.11719v0.23633h0.11914v0.58984h0.11719v0.11914h0.11719v0.11719h0.11914v0.11719h0.11719v0.17773h0.29492v0.11719h0.23633v0.11914h0.11914v0.11719h0.11719v0.11914h0.11719v1.9453h-0.11719v0.35547h-0.11719v0.82422h-0.11914v0.65039h-0.11719v0.35352h-0.11914v0.88477h0.11914v0.11719h-0.11914v0.23633h-0.17578v0.23633h0.17578v0.94336h-0.17578v0.11914h-0.11914v0.5293h-0.11719v1.416h0.11719v0.11914h0.11914v0.11719h0.17578v0.11719h0.23633v-0.11719h0.23633v0.11719h0.11719v0.29492h-0.23438v0.35547h0.23438v0.23438h0.47266v0.11914h0.23633v-0.11914h0.23633v0.11914h0.23438v-0.23633h0.11914v-0.35352h-0.11914v-0.11914h-0.11719v-0.11719h-0.35352v-0.17773h-0.11914v-0.11719h-0.11719v-0.47266h-0.11719v-0.23438h0.11719v-0.11914h0.11719v-0.23633h0.11914v-0.11719h0.11719v-0.11719h0.11914v-0.58984h-0.23633v-0.41406h0.23633v-0.11719h0.11719v-0.35547h0.11719v-0.23438h0.11914v-0.35547h-0.11914v-0.11719h0.41406v-0.23633h0.11719v-0.35352h0.35352v0.11719h0.23633v-0.11719h0.23633v-0.11719h0.11719v-0.76758h-0.11719v-0.11719h0.70703v-0.17774h0.11914v-0.23633h0.11719v-0.23633h0.11914v-0.23438h0.17578v-0.35547h0.11914v-0.11719h0.11719v-0.23633h0.11719v-0.23633h0.11914v-0.41211h0.11719v-0.11719h0.11914v-0.11914h0.23633v-0.23633h0.4707v-0.11719h0.23633v-0.11914h0.11719v-0.11719h0.11914v-0.11719h0.11719v-0.11914h0.11914v-0.23633h0.17578v-0.58984h0.11914v-0.5293h0.11719v-0.23633h0.11719v-0.23633h0.11914v-0.11719h0.17578v-0.23633h0.11914v-0.11914h0.11719v-1.002h-0.23633v-0.11719h-0.29492v-0.11914h-0.11719v-0.11719h-0.41211v-0.11914h-0.47266v-0.11719h-0.35352v-0.35352h-1.0625v-0.58984h-0.11719v-0.11914h-0.11914v-0.11719h-0.17578v-0.11914h-0.23633v-0.11719h-0.11914v-0.17774h-0.4707v-0.11719h-0.23633v-0.11719h-0.11719v-0.11914h-0.11914v-0.11719h-0.11719v-0.11914h-0.11914v-0.11719h-0.11719v-0.11719h-0.23633v-0.11914h-0.76562v0.11914h-0.11914v-0.11914h-0.11719v-0.11719h-0.23633v-0.23633h-0.58984v0.11719h-0.23633v0.11914h-0.41211v0.11719h-0.11914v0.23633h-0.11719v0.11719h-0.11914v-0.11719h-0.4707v0.11719h-0.23633v-0.11719h-0.23633v-0.11719h-0.11719v-0.23633h-0.11914v-0.11914h0.11914v-0.82422h-0.76758v-0.76758h0.17774v-0.35352h-0.64844v0.11719h-0.35547v0.23633h-0.11719v0.11719h-0.23633v0.11914h-0.35352v-0.11914h-0.35352v-0.11719h-0.11914v-0.35352h-0.11719v-0.23633h-0.17773v-0.35352h-0.11719v-0.47266h0.11719v-0.11719h0.17773v-0.17774h0.23633v-0.11719h1.0605v-0.11914h1.1211v0.11914h0.11914v0.41211h0.11719v0.23633h0.11719v0.11719h0.11914v0.11914h0.11719v0.11719h0.35352v-0.11719h0.11914v-0.35352h-0.11914v-0.23633h-0.11719v-0.29492h-0.11719v-0.47266h0.11719v-0.23633h0.23633v-0.11719h0.11719v-0.11914h0.11914v-0.23438h0.23438v-0.11914h0.11914v-0.11719h0.11719v-0.23633h-0.11719v-0.11719h0.23633v-0.29492h0.29492v-0.70898h0.82617v-0.11719h0.11719v-0.11914h-0.11719v-0.11719h-0.11914v-0.11719h0.11914v-0.11914h0.11719v-0.11719h0.23633v0.11719h0.4707v-0.11719h0.23633v-0.11914h0.29492v-0.23438h-0.11719v-0.11914h-0.17773v-0.11719h-0.23633v-0.17773h-0.11719v-0.35352h0.11719v-0.47266h-0.35352v0.11914h-0.11719v-0.11914h0.11719v-0.11719h0.88476v-0.11914h0.35352v0.11914h0.23633v-0.11914h0.11914v-0.11719h0.11719v-0.11719h0.11719v-0.11914h0.23633v-0.11719h0.11914v-0.47266h-0.11914v-0.29492h-0.11719v-0.11719h-0.11914v-0.11914h-0.4707v-0.11719h-0.11914v-0.41211h-0.11719v-0.11914h-0.11719v-0.23633h-0.11914v-0.35352h-0.11719v-0.23633h-0.17773v-0.23438h-0.11719v-0.23633h-0.23633v0.11719h-0.11719v0.35352h-0.23633v0.11914h-0.35352v-0.11914h-0.11914v-0.82422h-0.23633v-0.11914h-0.11719v-0.11719h-0.11719v-0.17773h-0.76758v-0.11719h-0.11914v-0.11914h0.35547v-0.4707h-0.23633v0.11719h-0.11914v0.11914h-0.23438v-0.11914h-0.11914v-0.11719h-0.11719v-0.23633h-0.23633v-0.11914h-0.11719v-0.11719h-0.23633v-0.23633h-0.11914v0.11914h-0.11719v0.11719h-0.23633v0.23633h-0.11719v0.35352h0.23633v0.23633h0.35352v-0.11719h0.11719v-0.11914h0.23633v0.11914h0.23633v0.64844h-0.11914v0.4707h0.11914v0.35547h-0.11914v0.70703h0.11914v0.47266h0.11719v0.17578h-0.11719v0.11914h-0.11914v0.11719h-0.11719v0.11719h-0.11719v0.88476h0.11719v0.23633h-0.11719v0.11914h-0.11914v-0.11914h-0.11719v-0.23633h-0.11914v-0.11719h-0.11719v-0.41211h-0.11719v-0.35547h-0.11914v-0.11719h-1.1211v-0.11719h-0.11719v-0.11914h-0.11719v-0.41211h-0.11914v-0.23633h-0.23633v-0.11719h-0.11719v-0.23633h-0.11719v0.11719h-0.11914v-0.11719h-0.11719v-0.11914h-0.11914v-0.23438h0.11914v-0.35547h0.11719v-0.11719h0.11914v-0.11719h0.11719v-0.11914h0.11719v-0.29492h0.23633v-0.11719h0.58984v-0.58984h0.11914v-0.23633h0.11719v-0.11914h0.11719v-0.35352h-0.23438v-0.11719h0.35352v0.11719h0.29492v-0.11719h0.4707v-0.23633h0.11914v-0.11719h0.11719v-0.65039h-0.23633v-0.11719h0.11914v-0.11719h0.11719v-0.35547h-0.23633v-0.35352h-0.64844v0.35352h0.17774v0.11914h-0.17774v0.11719h-0.11719v0.35352h-0.11914v-0.11719h-0.11719v-0.47266h-0.23633v0.11914h-0.11719v-0.11914h-0.35352v-0.58984h-0.11914v-0.4707h-0.11719v-0.53125h-0.58984v-1.0625h-0.11914v-0.11719zm3.5391 5.5449v0.23633h0.4707v-0.23633zm0.4707-4.3652v0.35352h-0.11719v0.41406h-0.11719v0.23438h0.11719v0.11914h0.11719v0.23633h0.11914v0.35352h0.23633v0.11719h0.23438v0.47266h0.23633v0.11719h0.11914v-0.11719h0.17578v-0.47266h0.23633v0.11914h0.35352v0.11719h0.11914v0.11719h0.11719v0.11914h0.11914v0.64844h-0.11914v0.35352h-0.11719v0.11914h-0.11914v-0.11914h-0.23438v0.23633h-0.11914v0.23633h0.11914v0.11719h0.58984v0.11914h0.23438v0.23633h0.11914v0.11719h0.23633v0.11719h0.11719v0.11914h0.35352v-0.23633h0.17773v0.11719h0.23633v-0.4707h-0.11914v-0.23633h-0.11719v-0.11914h0.11719v-0.11719h0.35352v-0.11719h0.23633v-0.23633h-0.11719v-0.35352h-0.35352v-0.29492h-0.11914v-0.11914h-0.29492v-0.11719h-0.23633v-0.11914h0.23633v-0.58984h-0.23633v-0.23438h-0.11719v-0.11914h-0.23633v-0.23633h-0.35352v-0.23438h-0.11719v-0.11914h-0.70898v-0.11719h-0.23633v-0.17773h0.11914v-0.11719h-0.11914v-0.23633zm19.885 1.9453-0.18164 2e-3v0.11719h-0.11719v0.23633h-0.17773v0.41211h-0.11719v0.23633h-0.11914v0.23633h-0.11719v0.35352h-0.23633v0.23633h-0.11719v0.23633h-0.11914v0.23633h-0.11719v0.11719h-0.11914v0.11719h-0.11719v0.11914h-0.11719v0.11719h-0.11914v0.17773h-0.11719v0.11719h-0.23633v0.11914h-0.11719v0.11719h-0.11914v0.11719h-0.29492v0.11914h0.17774v0.11719h-0.17774v0.35352h0.17774v0.47266h-0.17774v0.23633h0.17774v0.41211h0.11719v0.11914h0.58984v-0.11914h0.11914v-0.17578h0.11719v-0.23633h0.11719v-0.11914h0.11914v-0.11719h0.11719v0.47266h-0.11719v0.29492h0.11719v0.35352h0.11914v0.23633h0.11719v0.17578h0.47266v-0.17578h0.29492v-0.23633h0.11719v-0.35352h0.11719v-0.29492h0.11914v-0.23633h0.11719v-0.11914h0.11914v-0.4707h-0.23633v-0.70898h0.11719v-0.11719h0.11914v-0.11719h0.23438v-0.11914h0.11914v1.1797h0.11719v0.11914h0.23633v0.11719h0.11719v0.11719h-0.11719v0.53125h0.11719v0.23633h-0.11719v-0.11719h-0.11719v-0.11914h-0.11914v0.11914h-0.11719v0.11719h-0.11914v0.11719h-0.11719v0.35547h-0.11719v0.29492h-0.23633v0.11719h-0.11914v-0.11719h-0.23438v0.11719h-0.17773v0.11719h-0.47266v-0.11719h-0.58984v-0.53125h0.11914v-0.23633h-0.11914v-0.35356h-0.11719v0.11914h-0.23633v0.11719h-0.11719v0.11719h-0.11914v0.53125h0.11914v0.47266h-0.23633v0.11719h-0.53125v0.23633h-0.11719v0.23633h-0.11914v0.11719h-0.11719v0.11914h-0.11914v-0.47266h-0.11719v-0.11719h-0.11719v-0.11914h-0.11914v-0.23633h-0.11719v-0.11719h-0.11914v-1.002h-0.35352v-0.11914h-0.11719v-0.17578h0.11719v-0.23633h-0.4707v0.11719h-0.11914v0.41406h-0.17578v0.4707h0.17578v0.29492h-0.76562v0.35352h-0.11914v-0.11719h-0.23633v0.11719h-0.11719v0.23633h0.23633v0.70898h0.4707v-0.11914h0.35547v-0.11719h0.17578v0.11719h0.23633v0.11914h-0.23633v0.11719h-0.17578v0.11914h-0.11914v0.23438h0.53125v-0.11719h0.47266v0.11719h-0.35547v0.11914h-0.23437v0.41211h0.23437v0.11914h0.11914v0.11719h0.11719v0.11719h0.11914v0.70898h-1.1211v-0.11914h-0.23633v0.11914h-0.23633v1.7109h0.23633v0.23438h0.11719v0.11914h-0.11719v0.35352h-0.11719v0.11719h-0.11914v0.11914h-0.11719v0.23633h-0.11914v0.29492h-0.11719v0.11719h-0.11719v0.11914h-0.11914v0.11719h-0.23633v0.11719h-0.11719v0.11914h-0.11719v0.23633h-0.41406v0.58984h-0.23633v0.11719h-0.11719v0.23633h-0.11719v0.11719h0.11719v0.53125h0.11719v0.23633h-0.11719v0.11719h-0.11719v0.70898h0.11719v0.11719h0.11719v0.11719h0.11914v0.11914h0.11719v0.11719h0.29492v0.11914h0.11914v0.11719h0.11719v0.29492h0.11719v0.23633h0.23633v0.11719h0.11914v0.11914h0.11719v0.11719h0.11719v0.11719h0.70898v-0.11719h0.88476v0.11719h0.11719v-0.11719h0.47266v-0.11719h0.58984v0.11719h0.23633v0.11719h0.76562v0.11914h0.11914v0.35352h-0.11914v0.23633h-0.11719v0.47266h0.11719v0.11719h0.23633v0.41211h0.11914v0.11914h0.11719v0.4707h0.11719v0.11914h0.11914v0.23633h0.11719v0.35352h-0.11719v0.11719h-0.11914v0.11914h0.11914v0.23438h-0.23633v0.53125h-0.11719v0.35352h0.11719v0.23633h0.11719v0.23633h0.11914v0.35352h0.11719v0.35547h0.11914v0.41211h0.11719v0.23633h0.11719v0.4707h0.11914v0.11914h0.11719v0.11719h0.11914v0.23633h0.11719v0.58984h0.29492v0.17774h0.58984v-0.17774l0.45117 0.0039c1.2822-1.7287 4.1523-5.3101 4.1523-12.242s-3.0035-10.929-5.0117-13.246zm-19.176 2e-3h0.11719v0.23438h-0.11719zm10.146 0.35352h0.11719v0.11719h-0.11719zm-7.9648 0.88477h0.11914v0.23633h-0.11914zm8.4355 0.11719v0.11914h-0.11719v0.23438h-0.11914v0.23633h0.23633v0.11914h-0.11719v0.11719h-0.11914v0.23633h0.35547v0.11719h0.23633v0.11914h0.11719v0.11719h0.35352v0.17773h0.58984v-0.17778h0.76758v-0.11719h0.23633v-0.11914h0.23438v-0.11719h0.11914v-0.11719h0.11719v-0.35547h-0.11719v-0.11719h-0.11914v-0.11914h-0.11719v-0.11719h-0.11719v-0.11719h-0.47266v0.11719h-0.64844v-0.11719h-0.47266v0.11719h-0.11719v0.11719h-0.11914v-0.11719h-0.11719v-0.11719h-0.11719v-0.11914zm9.5566 0.82617h0.35352v0.23633h-0.11719v0.11719h-0.11914v0.11914h-0.11719v0.11719h-0.11719v0.17773h-0.11914v-0.53125h0.11914v-0.11719h0.11719zm0.70703 2.0645h0.29492v0.11914h-0.11719v0.11719h-0.53125v-0.11719h0.35352zm-6.3691 2.123h0.23437v0.23633h-0.35352v-0.11719h0.11914zm-13.037 0.94531h0.11719v0.11719h-0.11719zm-0.23633 0.11714h0.11914v0.11914h-0.11914zm-4.0117 0.11914h0.35547v0.11719h0.11719v0.11719h0.23633v0.11914h-0.35352v-0.11914h-0.11914v0.11914h-0.4707v-0.11914h0.11719v-0.11719h0.11719zm18.699 0h0.23633v0.23438h0.11914v0.11914h-0.82617v-0.11914h0.23633v-0.11719h0.23438zm-1.0605 0.4707h0.23633v0.41406h-0.11914v-0.11914h-0.11719zm-16.518 0.17773h0.47266v0.11719h0.11719v0.11914h-0.11719v-0.11914h-0.11914v0.35352h-0.11719v-0.35352h-0.23633zm0.70898 0.11719h0.11719v0.11914h-0.11719zm-1.2402 0.23633h0.11914v0.23633h-0.11914v0.35352h-0.23438v-0.11719h0.11719v-0.35547h0.11719zm1.5938 0h0.23633v0.11719h-0.11914v0.23633h-0.11719v0.11914h-0.11914v0.11719h-0.4707v-0.11719h0.11719v-0.11914h0.47266zm0.4707 0h0.11914v0.11719h-0.11914zm18.582 0.94336h0.23633v0.11914h0.17773v0.11719h0.11719v0.11719h0.23633v0.11914h0.11719v0.41211h0.11914v0.47266h0.11719v0.23633h0.11719v0.11719h0.11914v0.11719h0.35352v-0.23438h0.11719v-0.11914h0.11914v-0.4707h0.11719v-0.11914h0.11914v0.47266h0.11719v0.11719h0.11719v0.23633h0.17773v0.11719h0.23633v0.11914h0.47266v-0.11914h0.11719v0.11914h0.58984v0.11719h0.11719v0.23633h-0.11719v0.11719h-0.11719v0.23633h-0.11914v0.11914h-0.11719v0.11719h-1.3574v-0.11719h-0.58984v-0.11914h-0.82617v0.11914h-0.11719v0.29492h0.11719v0.11719h-0.35352v-0.11719h-0.29492v-0.17774h-0.11719v-0.23633h-0.11914v-0.11719h-0.35352v-0.11914h-0.35352v-0.11719h-0.11914v-0.70703h-0.11719v-0.11914h-1.1211v0.11914h-0.82617v0.11719h-0.23633v-0.47266h0.11914v-0.11719h0.11719v-0.41211h0.23633v-0.11914h0.35352v-0.11719h0.11914v-0.35352h0.11719v0.11719h0.53125v-0.11719h0.23633v0.35352h-0.11914v0.76563h0.35547v-0.11719h0.11719v-0.88477h0.11719v0.11719h0.23633v0.23633h0.11914v0.11914h0.23438v0.5293h-0.35352v0.23633h0.11914v0.11914h0.4707v0.11719h0.11914v-0.23633h0.29492v-0.11719h0.23438v-0.11914h0.11914v-0.5293h-0.11914v-0.23633h-0.23438v-0.11914h-0.17773v-0.11719h-0.23633zm-2.6543 0.88477v0.23633h0.35352v-0.23633zm-1.1797 0.70898h0.47266v0.23438h-0.23633v0.11914h-0.47266v-0.11914h-0.29492v-0.11719h0.53125zm-22.357 1.0605h0.11914v0.11914h-0.11914zm26.074 0.11914h0.11719v0.11719h-0.11719zm-18.699 0.41211v0.11914h0.4707v-0.11914zm0.58984 0v0.47266h0.17578v-0.11914h0.11914v-0.35352zm20.939 0.11914h0.11914v0.11719h0.11719v0.11719h0.11914v0.11914h0.11719v0.23633h-0.23633v-0.11914h-0.23633zm-21.176 0.4707v0.23633h0.11719v0.23633h0.29492v-0.47266zm0.11719 0.47266h-0.23633v-0.11914h-0.35352v-0.11719h-0.35352v-0.11719h-0.47266v0.11719h-0.23438v0.35352h0.35352v-0.11719h0.11719v0.11719h0.35352v0.11914h0.11914v0.11719h0.23633v0.11719h0.35352v0.53125h0.23633v-0.29492h-0.11914v-0.11719h0.29492v0.23633h0.35547v0.17578h0.4707v-0.17578h0.35352v-0.35547h-0.23438v-0.11719h-0.23633v-0.23633h-0.47266v0.11914h-0.23633v-0.11914h-0.29492zm0.41406-0.47266v0.23633h0.4707v-0.23633zm21.707 0h0.23633v0.11914h0.11719v0.11719h0.11914v0.23633h0.11719v0.11719h0.11914v0.23633h0.11719v0.23633h0.17773v0.23633h0.11719v0.17578h0.11719v0.11914h0.11914v0.35352h0.11719v0.11719h0.11914v0.35352h0.11719v0.23633h-0.11719v-0.11719h-0.23633v-0.11914h-0.11914v-0.11719h-0.11719v-0.23633h-0.29492v-0.4707h-0.11719v-0.29492h-0.11914v-0.23633h-0.11719v-0.23633h-0.11914v-0.23633h-0.11719v-0.23633h-0.11719v-0.23437h-0.11914zm-12.092 0.82617v0.23633h-0.11914v0.41211h0.23633v-0.17578h0.11719v-0.23633h0.11914v-0.23633zm-8.4355 0.23633v0.41211h0.4707v-0.17578h0.41406v-0.23633zm1.002 0.11719v0.11914h0.11914v-0.11914zm0.23633 0v0.11914h0.11719v-0.11914zm0 0.29492v0.11914h-0.11719v0.58984h0.11719v0.11719h0.23633v-0.82617zm1.8281 3.3633h0.11914v0.11719h-0.11914v0.11914h-0.17578v-0.11914h0.17578z" fill="url(#gradient2-62)"/>
<path d="m-212.95 19.342q0 31.009 21.863 53.095 22.086 22.086 53.318 22.086 31.009 0 53.318-22.086 21.863-22.086 21.863-53.095 0-31.233-21.863-53.318-22.309-22.086-53.318-22.086-31.233 0-53.318 22.086-21.863 22.086-21.863 53.318" fill="url(#radialGradient1624)"/>
</g>
</g>
<path d="m95.261 166.69" fill="url(#linearGradient1230)" stroke-width="5.6"/>
<path d="m174.42 80.351h2.7993q4.2244 0 7.2783 0.81435 3.1047 0.76346 5.3441 3.8173 2.2904 3.0028 2.8502 7.1255 0.61074 4.1226 0.61074 12.062 0 7.9399 0.55984 11.757 0.55994 3.8171 2.7994 6.4638 2.2903 2.5958 7.1764 2.6976v8.296q-4.8861 0.10174-7.1764 2.7484-2.2394 2.5958-2.7994 6.4129-0.55984 3.8173-0.55984 11.757 0 7.9398-0.61074 12.062-0.55988 4.1226-2.8502 7.1255-2.2395 3.0538-5.3441 3.8173-3.0537 0.81431-7.2783 0.81431h-2.7993v-7.9398h1.5778q5.2932 0 6.4638-2.7993 1.2215-2.7993 1.2215-15.117 0-11.044 2.9011-16.134 2.9011-5.0896 8.8051-6.871-5.904-1.8322-8.8051-6.9218t-2.9011-16.134q0-12.317-1.2215-15.117-1.1706-2.7993-6.4638-2.7993h-1.5778z" stroke-width="1.3036"/>
<path d="m76.239 80.351h-2.7993q-4.2244 0-7.2781 0.81435-3.1047 0.76346-5.3441 3.8173-2.2903 3.0028-2.8502 7.1255-0.61073 4.1226-0.61073 12.062 0 7.9399-0.55987 11.757-0.55989 3.8171-2.7993 6.4638-2.2903 2.5958-7.1765 2.6976v8.296q4.8861 0.10174 7.1765 2.7484 2.2395 2.5958 2.7993 6.4129 0.55987 3.8173 0.55987 11.757 0 7.9398 0.61073 12.062 0.55988 4.1227 2.8502 7.1255 2.2395 3.0538 5.3441 3.8173 3.0537 0.81433 7.2781 0.81433h2.7993v-7.9399h-1.5778q-5.2932 0-6.4638-2.7993-1.2215-2.7993-1.2215-15.117 0-11.044-2.9011-16.134-2.9011-5.0896-8.8051-6.871 5.904-1.8322 8.8051-6.9219 2.9011-5.0896 2.9011-16.134 0-12.317 1.2215-15.117 1.1706-2.7993 6.4638-2.7993h1.5778z" stroke-width="1.3036"/>
</svg>
