<?xml version="1.0" encoding="UTF-8" standalone="no"?>
<svg
   version="1.1"
   viewBox="0 0 256 256"
   id="svg179"
   sodipodi:docname="json-32.svg"
   inkscape:version="1.1.1 (3bf5ae0d25, 2021-09-20)"
   inkscape:export-filename="/home/klapeto/IdeaProjects/Visual Studio 2005 Theme/resources/fileTypes/json@2x.png"
   inkscape:export-xdpi="12"
   inkscape:export-ydpi="12"
   xmlns:inkscape="http://www.inkscape.org/namespaces/inkscape"
   xmlns:sodipodi="http://sodipodi.sourceforge.net/DTD/sodipodi-0.dtd"
   xmlns:xlink="http://www.w3.org/1999/xlink"
   xmlns="http://www.w3.org/2000/svg"
   xmlns:svg="http://www.w3.org/2000/svg">
  <sodipodi:namedview
     id="namedview181"
     pagecolor="#ffffff"
     bordercolor="#666666"
     borderopacity="1.0"
     inkscape:pageshadow="2"
     inkscape:pageopacity="0.0"
     inkscape:pagecheckerboard="0"
     showgrid="false"
     inkscape:zoom="2.9960938"
     inkscape:cx="128"
     inkscape:cy="128"
     inkscape:window-width="3840"
     inkscape:window-height="2043"
     inkscape:window-x="3840"
     inkscape:window-y="0"
     inkscape:window-maximized="1"
     inkscape:current-layer="svg179" />
  <defs
     id="defs107">
    <linearGradient
       id="linearGradient1343">
      <stop
         stop-color="#9cf"
         offset="0"
         id="stop2" />
      <stop
         stop-color="#80bdfb"
         offset="1"
         id="stop4" />
    </linearGradient>
    <linearGradient
       id="linearGradient1832"
       x1="111.46"
       x2="102.63"
       y1="95.322"
       y2="83.838"
       gradientTransform="translate(-88.178,-83.548)"
       gradientUnits="userSpaceOnUse">
      <stop
         stop-color="#9cf"
         offset="0"
         id="stop7" />
      <stop
         stop-color="#fff"
         offset="1"
         id="stop9" />
    </linearGradient>
    <linearGradient
       id="linearGradient1834"
       x1="111.33"
       x2="102.63"
       y1="95.189"
       y2="83.838"
       gradientTransform="translate(-88.178,-83.548)"
       gradientUnits="userSpaceOnUse">
      <stop
         stop-color="#343467"
         offset="0"
         id="stop12" />
      <stop
         stop-color="#99cbfe"
         offset="1"
         id="stop14" />
    </linearGradient>
    <linearGradient
       id="linearGradient1836"
       x1="8.7312"
       x2="7.5419"
       y1="1.9844"
       y2=".69043"
       gradientTransform="translate(14.155)"
       gradientUnits="userSpaceOnUse">
      <stop
         stop-color="#2da8ff"
         offset="0"
         id="stop17" />
      <stop
         stop-color="#74c0ff"
         offset="1"
         id="stop19" />
    </linearGradient>
    <linearGradient
       id="linearGradient1838"
       x1="7.276"
       x2="7.276"
       y1="1.8521"
       y2=".26458"
       gradientTransform="translate(14.155)"
       gradientUnits="userSpaceOnUse">
      <stop
         stop-color="#9bceff"
         offset="0"
         id="stop22" />
      <stop
         stop-color="#c9fcff"
         offset="1"
         id="stop24" />
    </linearGradient>
    <linearGradient
       id="linearGradient1840"
       x1="7.4083"
       x2="8.9958"
       y1="1.9844"
       y2="1.9844"
       gradientTransform="translate(14.155)"
       gradientUnits="userSpaceOnUse">
      <stop
         stop-color="#0096fc"
         offset="0"
         id="stop27" />
      <stop
         stop-color="#0068ce"
         offset="1"
         id="stop29" />
    </linearGradient>
    <linearGradient
       id="linearGradient1842"
       x1="7.0115"
       x2="7.0115"
       y1="2.1167"
       gradientTransform="translate(14.155)"
       gradientUnits="userSpaceOnUse">
      <stop
         stop-color="#6983b6"
         offset="0"
         id="stop32" />
      <stop
         stop-color="#7ca0d3"
         offset="1"
         id="stop34" />
    </linearGradient>
    <linearGradient
       id="linearGradient1846"
       x1="7.1438"
       x2="8.7312"
       y1="2.5135"
       y2="2.5135"
       gradientTransform="translate(14.155)"
       gradientUnits="userSpaceOnUse">
      <stop
         stop-color="#ddd"
         offset="0"
         id="stop37" />
      <stop
         stop-color="#9cf"
         offset="1"
         id="stop39" />
    </linearGradient>
    <linearGradient
       id="linearGradient1848"
       x1="8.8635"
       x2="8.8635"
       y1="2.6458"
       y2="11.377"
       gradientTransform="translate(14.155)"
       gradientUnits="userSpaceOnUse">
      <stop
         stop-color="#9fa0ff"
         offset="0"
         id="stop42" />
      <stop
         stop-color="#cbcaff"
         offset="1"
         id="stop44" />
    </linearGradient>
    <linearGradient
       id="linearGradient1850"
       x1=".26458"
       x2="8.7312"
       y1="11.509"
       y2="11.509"
       gradientTransform="translate(14.155)"
       gradientUnits="userSpaceOnUse">
      <stop
         stop-color="#ccccf2"
         offset="0"
         id="stop47" />
      <stop
         stop-color="#ccf"
         offset="1"
         id="stop49" />
    </linearGradient>
    <linearGradient
       id="linearGradient1852"
       x1=".39688"
       x2=".39688"
       y1="11.377"
       y2=".26458"
       gradientTransform="translate(14.155)"
       gradientUnits="userSpaceOnUse">
      <stop
         stop-color="#ccc"
         offset="0"
         id="stop52" />
      <stop
         stop-color="#fff"
         offset="1"
         id="stop54" />
    </linearGradient>
    <linearGradient
       id="linearGradient1854"
       x1=".52917"
       x2="6.8792"
       y1=".39687"
       y2=".39687"
       gradientTransform="translate(14.155)"
       gradientUnits="userSpaceOnUse">
      <stop
         stop-color="#fff"
         offset="0"
         id="stop57" />
      <stop
         stop-color="#ddd"
         offset="1"
         id="stop59" />
    </linearGradient>
    <filter
       id="filter1189"
       x="-0.054857211"
       y="-0.042666628"
       width="1.1097144"
       height="1.0853333"
       color-interpolation-filters="sRGB">
      <feGaussianBlur
         stdDeviation="4.263964"
         id="feGaussianBlur62" />
    </filter>
    <radialGradient
       id="gradient2-62"
       cx="-1495.2"
       cy="5091.2"
       r="819.2"
       gradientTransform="matrix(0.033215,0.02554,-0.022525,0.029294,177.22,-98.257)"
       gradientUnits="userSpaceOnUse">
      <stop
         stop-color="#00bf00"
         offset="0"
         id="stop65" />
      <stop
         stop-color="#060"
         offset=".92941"
         id="stop67" />
    </radialGradient>
    <radialGradient
       id="gradient1-6"
       cx="0"
       cy="0"
       r="819.2"
       gradientTransform="matrix(0.15259,0,0,0.15259,-147.36,-19.476)"
       gradientUnits="userSpaceOnUse">
      <stop
         stop-color="#fff"
         offset="0"
         id="stop70" />
      <stop
         stop-color="#cff"
         offset=".078431"
         id="stop72" />
      <stop
         stop-color="#09f"
         offset=".29804"
         id="stop74" />
      <stop
         stop-color="#06c"
         offset=".53725"
         id="stop76" />
      <stop
         stop-color="#039"
         offset=".75294"
         id="stop78" />
      <stop
         stop-color="#99f"
         offset="1"
         id="stop80" />
    </radialGradient>
    <linearGradient
       id="gradient0-1"
       x1="-819.2"
       x2="819.2"
       gradientTransform="matrix(-0.068712,-0.068712,-0.068712,0.068712,-137.77,19.342)"
       gradientUnits="userSpaceOnUse">
      <stop
         stop-color="#039"
         offset="0"
         id="stop83" />
      <stop
         stop-color="#09f"
         offset=".47059"
         id="stop85" />
      <stop
         stop-color="#cff"
         offset="1"
         id="stop87" />
    </linearGradient>
    <filter
       id="filter1610"
       x="-0.047965393"
       y="-0.048035057"
       width="1.0959308"
       height="1.0960701"
       color-interpolation-filters="sRGB">
      <feGaussianBlur
         stdDeviation="0.84060547"
         id="feGaussianBlur90" />
    </filter>
    <radialGradient
       id="radialGradient1624"
       cx="-154.38"
       cy="-18.647"
       r="75.181"
       fx="-154.72"
       gradientTransform="matrix(0.65631,0,0,0.6543,-49.102,-7.0885)"
       gradientUnits="userSpaceOnUse">
      <stop
         stop-color="#fff"
         offset="0"
         id="stop93" />
      <stop
         stop-color="#fff"
         stop-opacity="0"
         offset="1"
         id="stop95" />
    </radialGradient>
    <linearGradient
       id="linearGradient1393-2"
       x1="15.346"
       x2="22.225"
       y1="3.5719"
       y2="3.5719"
       gradientUnits="userSpaceOnUse"
       xlink:href="#linearGradient1343" />
    <linearGradient
       id="linearGradient1385-2"
       x1="15.346"
       x2="22.225"
       y1="4.3656"
       y2="4.3656"
       gradientUnits="userSpaceOnUse"
       xlink:href="#linearGradient1343" />
    <linearGradient
       id="linearGradient1377-7"
       x1="15.346"
       x2="22.225"
       y1="5.1594"
       y2="5.1594"
       gradientUnits="userSpaceOnUse"
       xlink:href="#linearGradient1343" />
    <linearGradient
       id="linearGradient1369-0"
       x1="15.346"
       x2="22.225"
       y1="5.9531"
       y2="5.9531"
       gradientUnits="userSpaceOnUse"
       xlink:href="#linearGradient1343" />
    <linearGradient
       id="linearGradient1230"
       x1="-87.408"
       x2="-87.408"
       y1="213.57"
       y2="198.56"
       gradientTransform="matrix(4.761,0,0,4.761,537.55,-876.5)"
       gradientUnits="userSpaceOnUse">
      <stop
         stop-color="#0068e5"
         offset="0"
         id="stop102" />
      <stop
         stop-color="#8098ff"
         offset="1"
         id="stop104" />
    </linearGradient>
    <filter
       inkscape:collect="always"
       style="color-interpolation-filters:sRGB"
       id="filter1050"
       x="-0.12342872"
       y="-0.095999908"
       width="1.2468574"
       height="1.1919998">
      <feGaussianBlur
         inkscape:collect="always"
         stdDeviation="9.593919"
         id="feGaussianBlur1052" />
    </filter>
  </defs>
  <g
     transform="translate(7.27564,7.81641)"
     id="g111"
     style="filter:url(#filter1050);fill:#1f1f1f;fill-opacity:1">
    <path
       d="m 34.818,0.18359 c 0,0 -0.09098,1.193 -0.09164,2.6641 v 234.52 c 6.6e-4,1.471 1.193,2.6634 2.6641,2.6641 h 181.22 c 1.471,-6.7e-4 2.6634,-1.193 2.6641,-2.6641 v -194.54 c 4.8e-4,-0.67476 -0.25498,-1.3246 -0.71485,-1.8184 l -40.059,-39.975 c -0.50396,-0.5394 -1.2091,-0.84563 -1.9473,-0.8457 h -5.3301 z"
       color="#000000"
       color-rendering="auto"
       dominant-baseline="auto"
       fill="#212121"
       image-rendering="auto"
       shape-rendering="auto"
       solid-color="#000000"
       stop-color="#000000"
       style="font-variant-ligatures:normal;font-variant-position:normal;font-variant-caps:normal;font-variant-numeric:normal;font-variant-alternates:normal;font-variant-east-asian:normal;font-feature-settings:normal;font-variation-settings:normal;text-indent:0;text-decoration-line:none;text-decoration-style:solid;text-decoration-color:#000000;text-transform:none;text-orientation:mixed;white-space:normal;shape-padding:0;shape-margin:0;inline-size:0;isolation:auto;mix-blend-mode:normal;paint-order:normal;fill:#1f1f1f;fill-opacity:1"
       id="path109" />
  </g>
  <g
     transform="matrix(20.145,0,0,20.145,-253.148,8.3592e-4)"
     id="g143">
    <path
       d="m 14.288,0.13229 h 7.0115 l 1.9844,2.1167 v 9.525 h -8.9958 z"
       fill="url(#linearGradient1832)"
       style="fill:url(#linearGradient1832);paint-order:normal"
       id="path113" />
    <path
       d="m 21.167,0.13229 v 2.1167 L 23.2837,2.1167 21.4316,0.1323 Z"
       fill="url(#linearGradient1836)"
       id="path115"
       style="fill:url(#linearGradient1836)" />
    <g
       id="g125">
      <path
         d="M 21.431,2.1167 V 0.2646"
         fill="none"
         stroke="url(#linearGradient1838)"
         stroke-width="0.26458px"
         id="path117"
         style="stroke:url(#linearGradient1838)" />
      <path
         d="M 23.151,1.9844 H 21.1666"
         fill="none"
         stroke="url(#linearGradient1840)"
         stroke-width="0.26458px"
         id="path119"
         style="stroke:url(#linearGradient1840)" />
      <path
         d="m 21.034,2.249 h 2.3812"
         fill-opacity="0"
         stroke="#667eb1"
         stroke-width="0.26458"
         id="path121" />
      <path
         d="M 21.167,0 V 2.1167"
         fill="#7494c7"
         stroke="url(#linearGradient1842)"
         stroke-width="0.26458"
         id="path123"
         style="stroke:url(#linearGradient1842)" />
    </g>
    <g
       fill="none"
       stroke-width="0.26458px"
       id="g135">
      <path
         d="m 21.299,2.5135 h 1.8521"
         stroke="url(#linearGradient1846)"
         id="path127"
         style="stroke:url(#linearGradient1846)" />
      <path
         d="m 23.019,2.3813 v 8.9958"
         stroke="url(#linearGradient1848)"
         id="path129"
         style="stroke:url(#linearGradient1848)" />
      <path
         d="M 22.886,11.509 H 14.4193"
         stroke="url(#linearGradient1850)"
         id="path131"
         style="stroke:url(#linearGradient1850)" />
      <path
         d="M 14.552,11.377 V 0.265"
         stroke="url(#linearGradient1852)"
         id="path133"
         style="stroke:url(#linearGradient1852)" />
    </g>
    <path
       d="m 21.034,0.39688 h -6.35"
       fill="#e8ebee"
       stroke="url(#linearGradient1854)"
       stroke-width="0.26458px"
       id="path137"
       style="stroke:url(#linearGradient1854)" />
    <path
       d="m 14.288,0.13229 h 7.0115 l 1.9844,1.9844 v 9.6573 h -8.9958 z"
       fill="none"
       stroke="url(#linearGradient1834)"
       stroke-linejoin="round"
       stroke-width="0.26467"
       style="stroke:url(#linearGradient1834);paint-order:normal"
       id="path139" />
    <rect
       x="21.299"
       y="1.8521"
       width="0.26458001"
       height="0.26458001"
       fill="#4db3ff"
       id="rect141" />
  </g>
  <g
     transform="matrix(2.1723,0,0,2.1723,44.477,40.781)"
     fill-rule="evenodd"
     id="g157">
    <path
       d="m 36.261,2.8735 c -5.8202,0 -10.797,2.0449 -14.926,6.1348 -4.0899,4.0899 -6.1348,9.045 -6.1348,14.865 0,5.7809 2.0449,10.736 6.1348,14.865 4.1292,4.0899 9.1056,6.1348 14.926,6.1348 5.7809,0 10.736,-2.0449 14.865,-6.1348 4.0899,-4.1292 6.1348,-9.0843 6.1348,-14.865 0,-5.8202 -2.0449,-10.775 -6.1348,-14.865 C 46.9968,4.9184 42.0417,2.8735 36.261,2.8735 Z"
       filter="url(#filter1610)"
       id="path145" />
    <g
       transform="matrix(0.26442,0,0,0.26442,72.189,18.259)"
       id="g155">
      <path
         d="m -217.41,19.342 q 0,32.794 23.201,56.219 23.424,23.201 56.442,23.201 32.794,0 56.219,-23.201 23.201,-23.424 23.201,-56.219 0,-33.017 -23.201,-56.219 -23.424,-23.201 -56.219,-23.201 -33.017,0 -56.442,23.201 -23.201,23.201 -23.201,56.219"
         fill="url(#gradient0-1)"
         id="path147"
         style="fill:url(#gradient0-1)" />
      <path
         d="m -212.95,19.342 q 0,31.009 21.863,53.095 22.086,22.086 53.318,22.086 31.009,0 53.318,-22.086 21.863,-22.086 21.863,-53.095 0,-31.233 -21.863,-53.318 -22.309,-22.086 -53.318,-22.086 -31.233,0 -53.318,22.086 -21.863,22.086 -21.863,53.318"
         fill="url(#gradient1-6)"
         id="path149"
         style="fill:url(#gradient1-6)" />
      <path
         transform="matrix(3.7819,0,0,3.7819,-225.48,-69.054)"
         d="M 20.951,3.6719 V 3.78909 H 20.83381 V 3.90628 H 20.36115 V 4.02542 H 19.88849 V 4.2012 H 19.7713 v 0.47266 h 0.23633 v 0.11719 h 1.0605 V 4.91019 H 20.47829 V 5.14652 H 20.3611 V 5.02738 h -0.47266 v 0.23633 h 0.11914 V 5.61723 H 19.88844 V 5.85356 H 19.65406 V 5.97075 H 19.53492 V 6.08989 H 19.41773 V 6.20708 H 19.29859 V 6.502 h -0.17578 v 0.11914 h -0.11914 v 0.23438 h 0.11914 v 0.11914 h 0.29492 v 0.11719 h 0.4707 v 0.11914 h 0.47266 V 7.09185 h 0.23633 V 6.73833 h 0.11719 V 6.62114 h 0.23633 V 6.502 h 0.11719 V 6.38481 h 0.11914 V 6.20708 h 0.11719 V 5.97075 h 0.17773 V 5.85356 h 0.4707 V 5.73637 h 0.11914 v 0.23438 h -0.11914 v 0.23633 h 0.35547 V 6.502 h 0.11719 V 6.62114 H 22.30836 V 6.73833 H 21.8357 v 0.11719 h -0.11719 v 0.11914 h -0.65039 v 0.11719 h -0.11719 v 0.11914 h -0.11719 v 0.11719 h 0.11719 v 0.11914 h 0.23633 v 0.11719 h 0.29492 V 7.6817 h 0.11719 v 0.11914 h -0.53125 v 0.35352 h 0.11914 v 0.23633 h 0.76562 v 0.29492 h 0.23633 V 8.50788 h 0.35352 V 8.39069 h 0.94531 v 0.11719 h 0.17578 v 0.17773 h 0.11914 v 0.35352 h 0.11719 v 0.11719 h 0.11719 v 0.94531 h -0.11719 v 0.11719 h -0.11719 v 0.11719 h 0.4707 v 0.11914 h -0.11719 v 0.11719 h 0.11719 v 0.11914 h 0.35547 v 0.17578 h 0.11719 v 0.11914 h -0.11719 v 0.11719 H 24.3728 v 0.23633 h -0.11914 v 0.11719 h -0.11719 v 0.11914 h 0.11719 v 0.4707 h 0.11914 v 0.23633 h 0.11719 v 0.23633 h 0.11914 v 0.23633 h 0.11719 v 0.11719 h 0.11719 v 0.29492 h 0.11914 v 0.11914 h 0.11719 v 0.11719 h 0.58984 v 0.11719 h 0.53125 v -0.35352 h 0.11719 v -0.41211 h 0.29492 v -0.35352 h 0.11914 v -0.23633 h 0.35352 v -0.11914 h 0.35352 v -0.11719 h 0.11914 v -0.11914 h 0.11719 v -0.11719 h 0.11719 V 11.4571 h 0.47266 v -0.11719 h 0.11719 v -0.11914 h 0.11914 v 0.11914 h 0.23633 v -0.11914 h 0.41211 v -0.11719 h 0.11719 v -0.11719 h 0.35547 v -0.11914 h 0.11719 v -0.29492 h 0.11914 v -0.4707 H 29.74002 V 9.98249 h -0.11719 v -0.4707 h 0.35352 V 9.39265 h 0.11719 V 9.27546 h 0.11914 V 9.15632 h 0.11719 V 9.03913 h 0.11914 V 8.68561 H 30.32987 V 8.50788 H 30.21268 V 8.39069 h 0.58984 V 8.15436 H 30.68338 V 8.03717 H 30.56619 V 7.80084 H 30.449 V 7.56451 H 30.09353 V 7.44732 h -0.35352 v 0.4707 H 29.62282 V 8.15435 H 29.50368 V 7.68169 H 29.38649 V 7.5645 h 0.11719 V 7.21098 h 0.23633 v 0.11719 h 0.23633 V 6.97465 H 30.449 V 6.73832 H 30.32986 V 6.62113 h -0.4707 V 6.85551 H 29.62283 V 6.97465 H 29.50369 V 6.62113 h 0.11914 V 6.50199 h 0.94336 V 6.3848 h 0.11719 V 6.20707 H 30.09354 V 6.08988 h 0.11914 V 5.85355 h 0.11719 V 5.73636 H 30.5662 V 5.61722 h 0.11719 V 5.2637 h 0.11914 V 5.02737 H 30.5662 V 4.91018 H 29.97636 V 5.2637 H 29.85917 V 5.38089 H 29.74003 V 5.50003 H 29.5037 V 5.38089 h 0.11914 V 5.2637 h 0.11719 V 5.14651 h 0.11914 V 4.79104 H 29.15019 V 4.67385 h 0.11719 V 4.43752 H 29.15019 V 4.32033 H 28.61894 V 4.20119 h -0.4707 V 4.02541 H 27.67558 V 3.90627 h -1.3574 V 4.02541 H 26.0838 V 4.20119 H 25.66974 V 4.32033 H 25.55255 V 4.43752 H 25.19903 V 4.55666 H 25.07989 V 4.67385 H 24.49005 V 4.79104 H 23.90021 V 4.91018 H 23.25177 V 5.02737 H 22.89825 V 4.91018 h 0.23437 V 4.79104 h 0.23633 V 4.67385 H 23.25176 V 4.55666 H 23.13262 V 4.02541 H 23.01543 V 3.90627 H 22.89824 V 3.78908 H 22.7791 V 3.67189 H 21.95293 V 3.78908 H 21.59941 V 3.67189 Z M 18.1776,4.2012 V 4.43753 H 18.06041 V 4.79105 H 17.94322 V 4.67386 H 17.70689 V 4.43753 h -0.47266 v 0.11914 h -0.41211 v 0.11719 h 0.29492 v 0.11719 h 0.11719 v 0.11914 h 0.23633 v 0.11719 h 0.35352 V 4.91019 h 0.11914 v 0.23633 h 0.11719 V 5.26371 H 17.94322 V 5.3809 h 0.23438 v 0.23633 h -0.11719 v 0.11914 h 0.11719 v 0.35352 h 0.82617 V 5.85356 h 0.11914 V 5.73637 h 0.17578 V 5.50004 h 0.11914 V 5.14652 H 19.12291 V 4.67386 H 19.00377 V 4.55667 H 18.88658 V 4.43753 H 18.53306 V 4.2012 Z m -1.709,0.47266 v 0.11719 h 0.11719 V 4.67386 Z m -0.82617,0.35352 v 0.11914 h -0.35352 v 0.11719 h -0.23633 v 0.23633 h 0.4707 v 0.4707 h 0.35547 v 0.11914 h 0.11719 V 5.97074 h 0.11719 v 0.11914 h 0.11914 v 1.002 h -0.23633 v 0.23633 h -0.11719 v 0.11914 h -0.11914 v 0.23438 h 0.11914 V 8.5079 h 0.35352 V 8.15438 h 0.11719 V 8.03719 h 0.23633 V 7.91805 h 0.11719 V 7.80086 h 0.11914 V 7.44734 h 0.11719 V 7.3282 h 0.88477 V 7.21101 h 0.23633 V 7.3282 h 0.35352 v 0.47266 h 1.2402 V 7.44734 H 19.53499 V 7.21101 H 18.76741 V 6.38484 H 18.53303 V 6.20711 H 18.06037 V 6.08992 h -0.47266 v 0.11719 h -0.4707 V 6.08992 H 16.93927 V 5.97078 H 16.70294 V 5.7364 H 16.58575 V 5.50007 H 16.11309 V 5.38093 H 15.9959 V 5.26374 H 15.75957 V 5.02741 Z m -1.1211,0.47266 V 5.61723 H 14.285 v 0.11914 h -0.23633 v 0.11719 h -0.23633 v 0.11719 h 0.11914 v 0.11914 h 0.23633 V 6.20708 H 14.285 V 6.502 h 0.11914 v 0.11914 h 0.41211 v 0.11719 h 0.70703 V 6.62114 h 0.23633 V 6.08989 H 14.93344 V 6.38481 H 14.81625 V 5.73637 h 0.11719 V 5.50004 Z m -1.5332,0.88477 V 6.502 H 12.7518 v 0.11914 h -0.11914 v 0.11719 h -0.29492 v 0.11719 h -0.11719 v 0.11914 h -0.23633 v 0.11719 h 0.23633 v 0.23633 h 0.64844 V 7.21099 h 0.47266 V 7.09185 h 0.23633 V 6.85552 h 0.11719 V 6.62114 H 13.57798 V 6.502 H 13.22251 V 6.38481 Z m 1.1797,0.58984 V 7.09184 H 14.04869 V 7.5645 h -0.35352 v 0.35352 h 0.11719 v 0.11914 h 0.11914 v 0.11719 h 0.11719 v 0.23633 h 0.23633 v 0.11719 h 0.64844 V 8.39068 H 15.0526 V 8.6856 H 14.93346 V 8.80279 H 14.81627 V 9.03912 H 14.52135 V 9.27545 H 14.28502 V 8.92193 H 13.9315 V 8.80279 H 13.57798 V 8.50787 H 13.45884 V 7.80084 H 13.34165 V 7.6817 H 12.98813 V 7.80084 H 12.86899 V 7.6817 H 12.33774 V 7.56451 H 11.98422 V 7.80084 H 11.86703 V 7.44732 H 11.6307 V 7.32818 H 11.51351 V 7.44732 H 11.39437 V 7.6817 H 11.27718 V 7.56451 H 11.15804 V 7.6817 H 11.04085 V 7.80084 H 10.92366 V 7.91803 H 10.80452 V 8.03717 H 10.56819 V 8.15436 H 10.451 v 0.11719 h 0.23633 V 8.15436 h 0.11719 v 0.23633 h 0.11914 V 8.8028 h 0.23438 V 8.92194 H 11.6307 V 8.8028 h 0.23633 v 0.11914 h 0.23633 v 0.11719 h -0.94531 v 0.35352 h 0.11914 v 0.11914 h 0.35352 v 0.11719 h 0.11719 v 0.11719 h 0.58984 V 9.62898 h 0.65039 V 9.51179 h 0.35352 v 0.11719 h 0.58984 V 9.51179 h 0.11719 V 9.27546 h 0.11914 v 0.35352 h 0.23633 v 0.11719 h 0.23438 V 9.62898 h 0.29492 v 0.11719 h 0.11914 V 9.9825 h 0.11719 v 0.11914 h 0.11914 v 0.23438 h -0.11914 v 0.11914 h -0.35352 v -0.11914 h 0.11719 v -0.23438 h -0.76562 v 0.35352 h -0.47266 v 0.11719 H 13.57798 V 10.45516 H 13.45884 V 10.33602 H 13.34165 V 10.21883 H 12.98813 V 9.9825 H 12.86899 V 9.86531 H 12.7518 V 9.9825 h -0.53125 v 0.11914 h -0.11719 v 0.35352 h 0.11719 v 0.11719 h -0.11719 v 0.11914 H 11.98422 V 10.45516 H 11.86703 V 10.33602 H 11.6307 v 0.11914 h -0.58984 v -0.11914 h 0.11719 V 9.9825 H 11.04086 V 9.86531 H 10.92367 V 9.74617 H 10.68734 V 9.9825 H 10.5682 V 9.86531 H 10.45101 V 9.74617 H 10.27328 V 9.62898 H 10.0389 V 9.51179 H 9.80257 V 9.39265 L 8.97835,9.3907 c -0.1868,0.17398 -0.86564,0.86862 -1.8262,2.125 -0.65818,0.86091 -1.2548,1.8047 -1.5156,2.3555 l 0.1543,0.0059 v 0.23438 h 0.11719 v 0.11914 h 0.11914 v 0.11719 h 0.53125 v 0.11914 h 0.35352 v 0.11719 h 0.11719 v 0.11719 h 0.11914 v 0.23629 h 0.23438 v 0.41406 H 7.5018 v 0.11719 h 0.23633 v 0.11719 H 7.61899 v 0.35547 h 0.11914 v 0.41211 h 0.11719 v 0.11719 h 0.11719 v 0.11914 h 0.11914 v 0.23633 h 0.17578 v 0.11719 h 0.23633 v 0.11719 H 8.6229 v 0.11914 h 0.23633 v 0.11719 h 0.11719 v 0.11914 h 0.11719 v 0.88476 H 8.97642 v 0.58984 H 8.85923 v 1.1797 h 0.11719 v 0.23633 h 0.11719 v 0.29492 h 0.11914 v 0.11719 h 0.11719 v 0.23633 h 0.23633 v 0.23633 h 0.11719 v 0.11719 H 9.8026 v 0.11719 h 0.35352 v 0.11914 h 0.11719 v 0.35352 h 0.17773 v 0.11719 h 0.11719 v 0.23633 h 0.11914 v 0.11914 h 0.11719 v 0.29492 h 0.11914 v 0.23633 h 0.23438 v 0.11719 h 0.11914 v 0.11719 h 0.11719 v 0.23633 h 0.11914 v 0.11914 h 0.11719 v 0.23437 h 0.23633 v 0.11914 h 0.35352 V 23.60953 H 12.1034 v -0.11719 h -0.11914 v -0.23633 h -0.11719 v -0.11914 h -0.11914 v -0.23438 h 0.23633 v 0.23438 h 0.11914 v 0.11914 h 0.23438 v 0.23633 h 0.29492 v 0.11719 h 0.11914 v 0.11719 h 0.11719 v 0.47266 h 0.11914 v 0.35352 h 0.23438 v 0.11914 h 0.47266 v 0.17578 h 0.23633 v 0.11914 h 0.58984 v 0.23438 h 1.3574 v 0.11914 h 0.11719 v 0.11719 h 0.11719 v 0.11914 H 16.2323 V 25.674 h 0.35352 v 0.11719 h 0.23633 v 0.11914 h 0.11719 v 0.23633 h 0.17774 v 0.35352 h 0.23633 v 0.11719 h 0.82422 v 0.11914 h 0.47266 v 0.11719 h 0.11719 v 0.53125 h -0.11719 v 0.23633 H 18.5331 v 0.23438 h -0.11914 v 0.35547 h -0.11719 v 0.23633 h -0.23633 v 0.11719 h -0.11719 v 0.47266 h -0.11914 v 0.29492 h 0.11914 v 0.35352 h 0.11719 v 0.11719 h 0.11719 v 0.11914 h 0.11914 v 0.23438 h 0.11719 v 0.23633 h 0.11914 v 0.58984 h 0.11719 v 0.11914 h 0.11719 v 0.11719 h 0.11914 v 0.11719 h 0.11719 v 0.17773 h 0.29492 v 0.11719 h 0.23633 v 0.11914 h 0.11914 v 0.11719 h 0.11719 v 0.11914 h 0.11719 v 1.9453 h -0.11719 v 0.35547 H 19.6542 v 0.82422 h -0.11914 v 0.65039 h -0.11719 v 0.35352 h -0.11914 v 0.88477 h 0.11914 v 0.11719 h -0.11914 v 0.23633 h -0.17578 v 0.23633 h 0.17578 v 0.94336 h -0.17578 v 0.11914 h -0.11914 v 0.5293 h -0.11719 v 1.416 h 0.11719 V 40.717 h 0.11914 v 0.11719 h 0.17578 v 0.11719 h 0.23633 v -0.11719 h 0.23633 v 0.11719 h 0.11719 V 41.2463 H 19.6542 v 0.35547 h 0.23438 v 0.23438 h 0.47266 v 0.11914 h 0.23633 v -0.11914 h 0.23633 v 0.11914 h 0.23438 v -0.23633 h 0.11914 V 41.36544 H 21.06828 V 41.2463 h -0.11719 v -0.11719 h -0.35352 v -0.17773 h -0.11914 v -0.11719 h -0.11719 v -0.47266 h -0.11719 v -0.23438 h 0.11719 v -0.11914 h 0.11719 v -0.23633 h 0.11914 v -0.11719 h 0.11719 V 39.5373 H 20.8339 V 38.94746 H 20.59757 V 38.5334 h 0.23633 v -0.11719 h 0.11719 v -0.35547 h 0.11719 v -0.23438 h 0.11914 V 37.47089 H 21.06828 V 37.3537 h 0.41406 v -0.23633 h 0.11719 v -0.35352 h 0.35352 v 0.11719 h 0.23633 v -0.11719 h 0.23633 v -0.11719 h 0.11719 v -0.76758 h -0.11719 v -0.11719 h 0.70703 v -0.17774 h 0.11914 v -0.23633 h 0.11719 v -0.23633 h 0.11914 v -0.23438 h 0.17578 v -0.35547 h 0.11914 v -0.11719 h 0.11719 v -0.23633 h 0.11719 v -0.23633 h 0.11914 v -0.41211 h 0.11719 v -0.11719 h 0.11914 v -0.11914 h 0.23633 v -0.23633 h 0.4707 v -0.11719 h 0.23633 v -0.11914 h 0.11719 V 32.6935 h 0.11914 v -0.11719 h 0.11719 V 32.45717 H 25.789 v -0.23633 h 0.17578 V 31.631 h 0.11914 v -0.5293 h 0.11719 v -0.23633 h 0.11719 v -0.23633 h 0.11914 v -0.11719 h 0.17578 v -0.23633 h 0.11914 v -0.11914 h 0.11719 v -1.002 H 26.61322 V 29.03719 H 26.3183 V 28.91805 H 26.20111 V 28.80086 H 25.789 v -0.11914 h -0.47266 v -0.11719 h -0.35352 v -0.35352 h -1.0625 V 27.62117 H 23.78313 V 27.50203 H 23.66399 V 27.38484 H 23.48821 V 27.2657 h -0.23633 v -0.11719 h -0.11914 v -0.17774 h -0.4707 V 26.85358 H 22.42571 V 26.73639 H 22.30852 V 26.61725 H 22.18938 V 26.50006 H 22.07219 V 26.38092 H 21.95305 V 26.26373 H 21.83586 V 26.14654 H 21.59953 V 26.0274 h -0.76562 v 0.11914 H 20.71477 V 26.0274 h -0.11719 v -0.11719 h -0.23633 v -0.23633 h -0.58984 v 0.11719 h -0.23633 v 0.11914 h -0.41211 v 0.11719 h -0.11914 v 0.23633 h -0.11719 v 0.11719 H 18.7675 v -0.11719 h -0.4707 v 0.11719 h -0.23633 v -0.11719 h -0.23633 v -0.11719 h -0.11719 v -0.23633 h -0.11914 v -0.11914 h 0.11914 v -0.82422 h -0.76758 v -0.76758 h 0.17774 v -0.35352 h -0.64844 v 0.11719 H 16.1132 v 0.23633 h -0.11719 v 0.11719 H 15.75968 V 24.4356 H 15.40616 V 24.31646 H 15.05264 V 24.19927 H 14.9335 V 23.84575 H 14.81631 V 23.60942 H 14.63858 V 23.2559 h -0.11719 v -0.47266 h 0.11719 v -0.11719 h 0.17773 v -0.17774 h 0.23633 v -0.11719 h 1.0605 v -0.11914 h 1.1211 v 0.11914 h 0.11914 v 0.41211 h 0.11719 v 0.23633 h 0.11719 v 0.11719 h 0.11914 v 0.11914 h 0.11719 v 0.11719 h 0.35352 v -0.11719 h 0.11914 v -0.35352 h -0.11914 v -0.23633 h -0.11719 v -0.29492 h -0.11719 v -0.47266 h 0.11719 v -0.23633 h 0.23633 v -0.11719 h 0.11719 V 21.4258 h 0.11914 v -0.23438 h 0.23438 v -0.11914 h 0.11914 v -0.11719 h 0.11719 V 20.71876 H 18.8866 v -0.11719 h 0.23633 v -0.29492 h 0.29492 v -0.70898 h 0.82617 v -0.11719 h 0.11719 v -0.11914 h -0.11719 v -0.11719 h -0.11914 v -0.11719 h 0.11914 v -0.11914 h 0.11719 v -0.11719 h 0.23633 v 0.11719 h 0.4707 v -0.11719 h 0.23633 v -0.11914 h 0.29492 V 18.53711 H 21.4823 v -0.11914 h -0.17773 v -0.11719 h -0.23633 v -0.17773 h -0.11719 v -0.35352 h 0.11719 v -0.47266 h -0.35352 v 0.11914 h -0.11719 v -0.11914 h 0.11719 v -0.11719 h 0.88476 V 17.06054 H 21.953 v 0.11914 h 0.23633 v -0.11914 h 0.11914 v -0.11719 h 0.11719 v -0.11719 h 0.11719 v -0.11914 h 0.23633 v -0.11719 h 0.11914 v -0.47266 h -0.11914 v -0.29492 h -0.11719 v -0.11719 h -0.11914 v -0.11914 h -0.4707 V 15.46873 H 21.95301 V 15.05662 H 21.83582 V 14.93748 H 21.71863 V 14.70115 H 21.59949 V 14.34763 H 21.4823 V 14.1113 h -0.17773 v -0.23438 h -0.11719 v -0.23633 h -0.23633 v 0.11719 h -0.11719 v 0.35352 h -0.23633 v 0.11914 H 20.24401 V 14.1113 h -0.11914 v -0.82422 h -0.23633 v -0.11914 h -0.11719 v -0.11719 h -0.11719 v -0.17773 h -0.76758 v -0.11719 h -0.11914 v -0.11914 h 0.35547 v -0.4707 h -0.23633 v 0.11719 h -0.11914 v 0.11914 H 18.53306 V 12.28318 H 18.41392 V 12.16599 H 18.29673 V 11.92966 H 18.0604 V 11.81052 H 17.94321 V 11.69333 H 17.70688 V 11.457 h -0.11914 v 0.11914 h -0.11719 v 0.11719 h -0.23633 v 0.23633 h -0.11719 v 0.35352 h 0.23633 v 0.23633 h 0.35352 v -0.11719 h 0.11719 v -0.11914 h 0.23633 v 0.11914 h 0.23633 v 0.64844 h -0.11914 v 0.4707 h 0.11914 v 0.35547 h -0.11914 v 0.70703 h 0.11914 v 0.47266 h 0.11719 v 0.17578 h -0.11719 v 0.11914 h -0.11914 v 0.11719 H 18.0604 v 0.11719 h -0.11719 v 0.88476 h 0.11719 v 0.23633 h -0.11719 v 0.11914 h -0.11914 v -0.11914 h -0.11719 v -0.23633 h -0.11914 v -0.11719 h -0.11719 v -0.41211 h -0.11719 v -0.35547 h -0.11914 v -0.11719 h -1.1211 V 15.35153 H 15.99593 V 15.23239 H 15.87874 V 14.82028 H 15.7596 v -0.23633 h -0.23633 v -0.11719 h -0.11719 v -0.23633 h -0.11719 v 0.11719 h -0.11914 v -0.11719 h -0.11719 v -0.11914 h -0.11914 v -0.23438 h 0.11914 v -0.35547 h 0.11719 v -0.11719 h 0.11914 v -0.11719 h 0.11719 v -0.11914 h 0.11719 V 12.873 h 0.23633 v -0.11719 h 0.58984 v -0.58984 h 0.11914 v -0.23633 h 0.11719 V 11.8105 h 0.11719 v -0.35352 h -0.23438 v -0.11719 h 0.35352 v 0.11719 h 0.29492 v -0.11719 h 0.4707 v -0.23633 h 0.11914 v -0.11719 h 0.11719 v -0.65039 h -0.23633 v -0.11719 h 0.11914 V 10.1015 h 0.11719 V 9.7460269 h -0.23633 v -0.35352 h -0.64844 v 0.35352 h 0.17774 v 0.11914 h -0.17774 v 0.11719 h -0.11719 v 0.3535201 h -0.11914 v -0.11719 H 16.58576 V 9.7460269 h -0.23633 v 0.11914 h -0.11719 v -0.11914 h -0.35352 v -0.58984 h -0.11914 v -0.4707 h -0.11719 v -0.53125 h -0.58984 v -1.0625 h -0.11914 v -0.11719 z m 3.5391,5.5449 v 0.23633 h 0.4707 v -0.23633 z m 0.4707,-4.3652 v 0.35352 h -0.11719 v 0.41406 h -0.11719 v 0.23438 h 0.11719 v 0.11914 h 0.11719 v 0.23633 h 0.11914 V 9.8653 h 0.23633 v 0.11719 h 0.23438 v 0.47266 h 0.23633 v 0.11719 h 0.11914 v -0.11719 h 0.17578 V 9.98249 h 0.23633 v 0.11914 h 0.35352 v 0.11719 h 0.11914 v 0.11719 h 0.11719 v 0.11914 h 0.11914 v 0.64844 h -0.11914 v 0.35352 h -0.11719 v 0.11914 H 19.88858 V 11.45711 H 19.6542 v 0.23633 h -0.11914 v 0.23633 h 0.11914 v 0.11719 h 0.58984 v 0.11914 h 0.23438 v 0.23633 h 0.11914 v 0.11719 h 0.23633 v 0.11719 h 0.11719 v 0.11914 h 0.35352 v -0.23633 h 0.17773 v 0.11719 h 0.23633 v -0.4707 h -0.11914 v -0.23633 h -0.11719 v -0.11914 h 0.11719 v -0.11719 h 0.35352 v -0.11719 h 0.23633 V 11.33993 H 22.07218 V 10.98641 H 21.71866 V 10.69149 H 21.59952 V 10.57235 H 21.3046 V 10.45516 H 21.06827 V 10.33602 H 21.3046 V 9.74618 H 21.06827 V 9.5118 H 20.95108 V 9.39266 H 20.71475 V 9.15633 H 20.36123 V 8.92195 H 20.24404 V 8.80281 H 19.53506 V 8.68562 H 19.29873 V 8.50789 h 0.11914 V 8.3907 H 19.29873 V 8.15437 Z m 19.885,1.9453 -0.18164,0.002 v 0.11719 H 37.7638 v 0.23633 h -0.17773 v 0.41211 h -0.11719 v 0.23633 h -0.11914 v 0.23633 h -0.11719 v 0.35352 h -0.23633 v 0.23633 h -0.11719 v 0.23633 h -0.11914 v 0.23633 H 36.6427 v 0.11719 h -0.11914 v 0.11719 h -0.11719 v 0.11914 h -0.11719 v 0.11719 h -0.11914 v 0.17773 h -0.11719 v 0.11719 h -0.23633 v 0.11914 h -0.11719 v 0.11719 h -0.11914 v 0.11719 h -0.29492 v 0.11914 h 0.17774 v 0.11719 h -0.17774 v 0.35352 h 0.17774 v 0.47266 h -0.17774 v 0.23633 h 0.17774 v 0.41211 h 0.11719 v 0.11914 h 0.58984 v -0.11914 h 0.11914 v -0.17578 h 0.11719 v -0.23633 h 0.11719 V 14.7013 h 0.11914 v -0.11719 h 0.11719 v 0.47266 H 36.6427 v 0.29492 h 0.11719 v 0.35352 h 0.11914 v 0.23633 h 0.11719 v 0.17578 h 0.47266 v -0.17578 h 0.29492 v -0.23633 h 0.11719 v -0.35352 h 0.11719 v -0.29492 h 0.11914 v -0.23633 h 0.11719 V 14.7013 h 0.11914 v -0.4707 h -0.23633 v -0.70898 h 0.11719 v -0.11719 h 0.11914 v -0.11719 h 0.23438 V 13.1681 h 0.11914 v 1.1797 h 0.11719 v 0.11914 h 0.23633 v 0.11719 h 0.11719 v 0.11719 h -0.11719 v 0.53125 h 0.11719 V 15.4689 H 39.06069 V 15.35171 H 38.9435 v -0.11914 h -0.11914 v 0.11914 h -0.11719 v 0.11719 h -0.11914 v 0.11719 h -0.11719 v 0.35547 h -0.11719 v 0.29492 h -0.23633 v 0.11719 H 37.99818 V 16.23648 H 37.7638 v 0.11719 h -0.17773 v 0.11719 h -0.47266 v -0.11719 h -0.58984 v -0.53125 h 0.11914 v -0.23633 h -0.11914 v -0.35356 h -0.11719 v 0.11914 h -0.23633 v 0.11719 h -0.11719 v 0.11719 h -0.11914 v 0.53125 h 0.11914 v 0.47266 h -0.23633 v 0.11719 h -0.53125 v 0.23633 h -0.11719 v 0.23633 H 35.04895 V 17.297 h -0.11719 v 0.11914 H 34.81262 V 16.94348 H 34.69543 V 16.82629 H 34.57824 V 16.70715 H 34.4591 v -0.23633 h -0.11719 v -0.11719 h -0.11914 v -1.002 h -0.35352 v -0.11914 h -0.11719 v -0.17578 h 0.11719 v -0.23633 h -0.4707 v 0.11719 h -0.11914 v 0.41406 h -0.17578 v 0.4707 h 0.17578 v 0.29492 h -0.76562 v 0.35352 h -0.11914 v -0.11719 h -0.23633 v 0.11719 h -0.11719 v 0.23633 h 0.23633 v 0.70898 h 0.4707 v -0.11914 h 0.35547 v -0.11719 h 0.17578 v 0.11719 h 0.23633 v 0.11914 h -0.23633 v 0.11719 h -0.17578 v 0.11914 h -0.11914 v 0.23438 h 0.53125 V 17.7696 h 0.47266 v 0.11719 h -0.35547 v 0.11914 h -0.23437 v 0.41211 h 0.23437 v 0.11914 h 0.11914 v 0.11719 h 0.11719 v 0.11719 h 0.11914 v 0.70898 H 32.8673 V 19.3614 h -0.23633 v 0.11914 h -0.23633 v 1.7109 h 0.23633 v 0.23438 h 0.11719 v 0.11914 h -0.11719 v 0.35352 h -0.11719 v 0.11719 h -0.11914 v 0.11914 h -0.11719 v 0.23633 h -0.11914 v 0.29492 h -0.11719 v 0.11719 h -0.11719 v 0.11914 h -0.11914 v 0.11719 h -0.23633 v 0.11719 h -0.11719 v 0.11914 h -0.11719 v 0.23633 h -0.41406 v 0.58984 h -0.23633 v 0.11719 H 30.5665 v 0.23633 h -0.11719 v 0.11719 h 0.11719 v 0.53125 h 0.11719 v 0.23633 H 30.5665 v 0.11719 h -0.11719 v 0.70898 h 0.11719 v 0.11719 h 0.11719 v 0.11719 h 0.11914 v 0.11914 h 0.11719 v 0.11719 h 0.29492 v 0.11914 h 0.11914 v 0.11719 h 0.11719 v 0.29492 h 0.11719 v 0.23633 h 0.23633 v 0.11719 h 0.11914 v 0.11914 h 0.11719 v 0.11719 h 0.11719 v 0.11719 h 0.70898 v -0.11719 h 0.88476 v 0.11719 h 0.11719 v -0.11719 h 0.47266 v -0.11719 h 0.58984 v 0.11719 h 0.23633 v 0.11719 h 0.76562 v 0.11914 h 0.11914 v 0.35352 h -0.11914 v 0.23633 H 35.8165 v 0.47266 h 0.11719 v 0.11719 h 0.23633 v 0.41211 h 0.11914 v 0.11914 h 0.11719 v 0.4707 h 0.11719 v 0.11914 h 0.11914 v 0.23633 h 0.11719 v 0.35352 h -0.11719 v 0.11719 h -0.11914 v 0.11914 h 0.11914 v 0.23438 h -0.23633 v 0.53125 h -0.11719 v 0.35352 h 0.11719 v 0.23633 h 0.11719 v 0.23633 h 0.11914 v 0.35352 h 0.11719 v 0.35547 h 0.11914 v 0.41211 h 0.11719 v 0.23633 h 0.11719 v 0.4707 h 0.11914 v 0.11914 h 0.11719 v 0.11719 h 0.11914 v 0.23633 h 0.11719 v 0.58984 h 0.29492 v 0.17774 h 0.58984 v -0.17774 l 0.45117,0.0039 c 1.2822,-1.7287 4.1523,-5.3101 4.1523,-12.242 0,-6.9319 -3.0035,-10.929 -5.0117,-13.246 z m -19.176,0.002 h 0.11719 v 0.23438 h -0.11719 z m 10.146,0.35352 h 0.11719 v 0.11719 h -0.11719 z m -7.9648,0.88477 h 0.11914 v 0.23633 h -0.11914 z m 8.4355,0.11719 v 0.11914 h -0.11719 v 0.23438 H 29.267 v 0.23633 h 0.23633 v 0.11914 h -0.11719 v 0.11719 H 29.267 v 0.23633 h 0.35547 v 0.11719 h 0.23633 v 0.11914 h 0.11719 v 0.11719 h 0.35352 v 0.17773 h 0.58984 v -0.17778 h 0.76758 v -0.11719 h 0.23633 v -0.11914 h 0.23438 v -0.11719 h 0.11914 V 12.4024 h 0.11719 V 12.04693 H 32.27678 V 11.92974 H 32.15764 V 11.8106 H 32.04045 V 11.69341 H 31.92326 V 11.57622 H 31.4506 v 0.11719 H 30.80216 V 11.57622 H 30.3295 v 0.11719 h -0.11719 v 0.11719 h -0.11914 v -0.11719 h -0.11719 v -0.11719 h -0.11719 v -0.11914 z m 9.5566,0.82617 h 0.35352 v 0.23633 h -0.11719 v 0.11719 h -0.11914 v 0.11914 h -0.11719 v 0.11719 h -0.11719 v 0.17773 H 38.8236 v -0.53125 h 0.11914 v -0.11719 h 0.11719 z m 0.70703,2.0645 h 0.29492 v 0.11914 h -0.11719 v 0.11719 h -0.53125 v -0.11719 h 0.35352 z m -6.3691,2.123 h 0.23437 v 0.23633 h -0.35352 v -0.11719 h 0.11914 z m -13.037,0.94531 h 0.11719 v 0.11719 h -0.11719 z m -0.23633,0.11714 h 0.11914 v 0.11914 h -0.11914 z m -4.0117,0.11914 h 0.35547 v 0.11719 h 0.11719 v 0.11719 h 0.23633 v 0.11914 H 16.4683 v -0.11914 h -0.11914 v 0.11914 h -0.4707 v -0.11914 h 0.11719 v -0.11719 h 0.11719 z m 18.699,0 h 0.23633 v 0.23438 h 0.11914 v 0.11914 h -0.82617 v -0.11914 h 0.23633 v -0.11719 h 0.23438 z m -1.0605,0.4707 h 0.23633 v 0.41406 h -0.11914 v -0.11914 h -0.11719 z m -16.518,0.17773 h 0.47266 v 0.11719 h 0.11719 v 0.11914 h -0.11719 v -0.11914 h -0.11914 v 0.35352 h -0.11719 v -0.35352 h -0.23633 z m 0.70898,0.11719 h 0.11719 v 0.11914 h -0.11719 z m -1.2402,0.23633 h 0.11914 v 0.23633 h -0.11914 v 0.35352 H 16.46773 V 19.127 h 0.11719 v -0.35547 h 0.11719 z m 1.5938,0 h 0.23633 v 0.11719 H 18.4131 v 0.23633 H 18.29591 V 19.127 h -0.11914 v 0.11719 h -0.4707 V 19.127 h 0.11719 v -0.11914 h 0.47266 z m 0.4707,0 h 0.11914 v 0.11719 h -0.11914 z m 18.582,0.94336 h 0.23633 v 0.11914 h 0.17773 v 0.11719 h 0.11719 v 0.11719 h 0.23633 v 0.11914 h 0.11719 v 0.41211 h 0.11914 v 0.47266 h 0.11719 v 0.23633 h 0.11719 v 0.11719 h 0.11914 v 0.11719 h 0.35352 v -0.23438 h 0.11719 v -0.11914 h 0.11914 v -0.4707 h 0.11719 v -0.11914 h 0.11914 v 0.47266 h 0.11719 v 0.11719 h 0.11719 v 0.23633 h 0.17773 v 0.11719 h 0.23633 v 0.11914 h 0.47266 v -0.11914 h 0.11719 v 0.11914 h 0.58984 v 0.11719 h 0.11719 v 0.23633 h -0.11719 v 0.11719 h -0.11719 v 0.23633 h -0.11914 v 0.11914 h -0.11719 v 0.11719 h -1.3574 v -0.11719 h -0.58984 v -0.11914 h -0.82617 v 0.11914 h -0.11719 v 0.29492 h 0.11719 v 0.11719 H 37.8799 V 22.66609 H 37.58498 V 22.48835 H 37.46779 V 22.25202 H 37.34865 V 22.13483 H 36.99513 V 22.01569 H 36.64161 V 21.8985 h -0.11914 v -0.70703 h -0.11719 v -0.11914 h -1.1211 v 0.11914 h -0.82617 v 0.11719 H 34.22168 V 20.836 h 0.11914 v -0.11719 h 0.11719 V 20.3067 h 0.23633 v -0.11914 h 0.35352 V 20.07037 H 35.167 v -0.35352 h 0.11719 v 0.11719 h 0.53125 v -0.11719 h 0.23633 v 0.35352 H 35.93263 V 20.836 h 0.35547 v -0.11719 h 0.11719 v -0.88477 h 0.11719 v 0.11719 h 0.23633 v 0.23633 h 0.11914 v 0.11914 h 0.23438 v 0.5293 h -0.35352 v 0.23633 h 0.11914 v 0.11914 h 0.4707 v 0.11719 h 0.11914 v -0.23633 h 0.29492 v -0.11719 h 0.23438 V 20.836 h 0.11914 v -0.5293 h -0.11914 v -0.23633 h -0.23438 v -0.11914 h -0.17773 v -0.11719 h -0.23633 z m -2.6543,0.88477 v 0.23633 h 0.35352 v -0.23633 z m -1.1797,0.70898 h 0.47266 v 0.23438 h -0.23633 v 0.11914 h -0.47266 v -0.11914 h -0.29492 v -0.11719 h 0.53125 z m -22.357,1.0605 h 0.11914 v 0.11914 h -0.11914 z m 26.074,0.11914 h 0.11719 v 0.11719 h -0.11719 z m -18.699,0.41211 v 0.11914 h 0.4707 V 22.7832 Z m 0.58984,0 v 0.47266 h 0.17578 v -0.11914 h 0.11914 V 22.7832 Z m 20.939,0.11914 h 0.11914 v 0.11719 h 0.11719 v 0.11719 h 0.11914 v 0.11914 h 0.11719 v 0.23633 h -0.23633 v -0.11914 h -0.23633 z m -21.176,0.4707 v 0.23633 h 0.11719 v 0.23633 h 0.29492 v -0.47266 z m 0.11719,0.47266 h -0.23633 v -0.11914 h -0.35352 v -0.11719 h -0.35352 v -0.11719 h -0.47266 v 0.11719 h -0.23438 v 0.35352 h 0.35352 V 23.8457 h 0.11719 v 0.11719 h 0.35352 v 0.11914 h 0.11914 v 0.11719 h 0.23633 v 0.11719 h 0.35352 v 0.53125 h 0.23633 v -0.29492 h -0.11914 v -0.11719 h 0.29492 v 0.23633 h 0.35547 v 0.17578 h 0.4707 v -0.17578 h 0.35352 v -0.35547 h -0.23438 v -0.11719 h -0.23633 v -0.23633 h -0.47266 v 0.11914 h -0.23633 v -0.11914 h -0.29492 z m 0.41406,-0.47266 v 0.23633 h 0.4707 v -0.23633 z m 21.707,0 h 0.23633 v 0.11914 h 0.11719 v 0.11719 h 0.11914 v 0.23633 h 0.11719 v 0.11719 h 0.11914 v 0.23633 h 0.11719 v 0.23633 h 0.17773 v 0.23633 h 0.11719 v 0.17578 h 0.11719 v 0.11914 h 0.11914 v 0.35352 h 0.11719 v 0.11719 h 0.11914 v 0.35352 h 0.11719 v 0.23633 H 42.71746 V 25.91017 H 42.48113 V 25.79103 H 42.36199 V 25.67384 H 42.2448 v -0.23633 h -0.29492 v -0.4707 H 41.83269 V 24.67189 H 41.71355 V 24.43556 H 41.59636 V 24.19923 H 41.47722 V 23.9629 H 41.36003 V 23.72657 H 41.24284 V 23.4922 H 41.1237 Z m -12.092,0.82617 v 0.23633 h -0.11914 v 0.41211 h 0.23633 v -0.17578 h 0.11719 v -0.23633 h 0.11914 v -0.23633 z m -8.4355,0.23633 v 0.41211 h 0.4707 v -0.17578 h 0.41406 v -0.23633 z m 1.002,0.11719 v 0.11914 h 0.11914 v -0.11914 z m 0.23633,0 v 0.11914 h 0.11719 v -0.11914 z m 0,0.29492 v 0.11914 h -0.11719 v 0.58984 h 0.11719 v 0.11719 h 0.23633 v -0.82617 z m 1.8281,3.3633 h 0.11914 v 0.11719 h -0.11914 v 0.11914 h -0.17578 v -0.11914 h 0.17578 z"
         fill="url(#gradient2-62)"
         id="path151"
         style="fill:url(#gradient2-62)" />
      <path
         d="m -212.95,19.342 q 0,31.009 21.863,53.095 22.086,22.086 53.318,22.086 31.009,0 53.318,-22.086 21.863,-22.086 21.863,-53.095 0,-31.233 -21.863,-53.318 -22.309,-22.086 -53.318,-22.086 -31.233,0 -53.318,22.086 -21.863,22.086 -21.863,53.318"
         fill="url(#radialGradient1624)"
         id="path153"
         style="fill:url(#radialGradient1624)" />
    </g>
  </g>
  <g
     transform="matrix(19.295,0,0,20.211,-237.198,79.72)"
     fill="none"
     stroke-linecap="round"
     stroke-width="0.40511"
     id="g167">
    <path
       d="m 15.346,3.5719 h 6.8792"
       stroke="url(#linearGradient1393-2)"
       id="path159"
       style="stroke:url(#linearGradient1393-2)" />
    <path
       d="m 15.346,4.3656 h 6.8792"
       stroke="url(#linearGradient1385-2)"
       id="path161"
       style="stroke:url(#linearGradient1385-2)" />
    <path
       d="m 15.346,5.1594 h 6.8792"
       stroke="url(#linearGradient1377-7)"
       id="path163"
       style="stroke:url(#linearGradient1377-7)" />
    <path
       d="m 15.346,5.9531 h 6.8792"
       stroke="url(#linearGradient1369-0)"
       id="path165"
       style="stroke:url(#linearGradient1369-0)" />
  </g>
  <g
     id="g175"
     transform="translate(-12.568)">
    <path
       d="M 112.3,124.48"
       fill="url(#linearGradient1230)"
       stroke-width="4.761"
       id="path169"
       style="fill:url(#linearGradient1230)" />
    <path
       d="m 192.31,55.141 h 2.1473 q 3.2405,0 5.5831,0.62468 2.3816,0.58564 4.0994,2.9282 1.7569,2.3034 2.1864,5.4659 0.46849,3.1624 0.46849,9.253 0,6.0906 0.42946,9.0188 0.42952,2.9281 2.1474,4.9583 1.7569,1.9912 5.505,2.0693 v 6.3638 q -3.7481,0.07805 -5.505,2.1083 -1.7178,1.9912 -2.1474,4.9193 -0.42946,2.9282 -0.42946,9.0187 0,6.0906 -0.46849,9.253 -0.42948,3.1624 -2.1864,5.4659 -1.7179,2.3425 -4.0994,2.9282 -2.3425,0.62465 -5.5831,0.62465 H 192.31 v -6.0906 h 1.2103 q 4.0604,0 4.9583,-2.1473 0.93702,-2.1473 0.93702,-11.596 0,-8.4721 2.2254,-12.376 2.2254,-3.9042 6.7543,-5.2707 -4.5289,-1.4055 -6.7543,-5.3097 -2.2254,-3.9042 -2.2254,-12.376 0,-9.4482 -0.93702,-11.596 -0.89795,-2.1473 -4.9583,-2.1473 H 192.31 Z"
       id="path171" />
    <path
       d="m 83.035,55.141 h -2.1473 q -3.2405,0 -5.583,0.62468 -2.3816,0.58564 -4.0994,2.9282 -1.7569,2.3034 -2.1864,5.4659 -0.46849,3.1624 -0.46849,9.253 0,6.0906 -0.42947,9.0188 -0.42949,2.9281 -2.1473,4.9583 -1.7569,1.9912 -5.505,2.0693 v 6.3638 q 3.7481,0.07804 5.505,2.1083 1.7179,1.9912 2.1473,4.9193 0.42947,2.9282 0.42947,9.0187 0,6.0906 0.46849,9.253 0.42948,3.1625 2.1864,5.4659 1.7179,2.3425 4.0994,2.9282 2.3425,0.62466 5.583,0.62466 h 2.1473 v -6.0906 h -1.2103 q -4.0604,0 -4.9583,-2.1473 -0.93701,-2.1473 -0.93701,-11.596 0,-8.4721 -2.2254,-12.376 -2.2254,-3.9042 -6.7543,-5.2707 4.5289,-1.4055 6.7543,-5.3097 2.2254,-3.9042 2.2254,-12.376 0,-9.4482 0.93701,-11.596 0.89796,-2.1473 4.9583,-2.1473 h 1.2103 z"
       id="path173" />
  </g>
</svg>
