<?xml version="1.0" encoding="UTF-8" standalone="no"?>
<svg
   inkscape:export-ydpi="512"
   inkscape:export-xdpi="512"
   inkscape:export-filename="file.png"
   width="48"
   height="48"
   viewBox="0 0 48 48"
   version="1.1"
   id="svg8"
   inkscape:version="1.3.2 (1:1.3.2+202311252150+091e20ef0f)"
   sodipodi:docname="key-file.svg"
   xml:space="preserve"
   xmlns:inkscape="http://www.inkscape.org/namespaces/inkscape"
   xmlns:sodipodi="http://sodipodi.sourceforge.net/DTD/sodipodi-0.dtd"
   xmlns:xlink="http://www.w3.org/1999/xlink"
   xmlns="http://www.w3.org/2000/svg"
   xmlns:svg="http://www.w3.org/2000/svg"
   xmlns:rdf="http://www.w3.org/1999/02/22-rdf-syntax-ns#"
   xmlns:cc="http://creativecommons.org/ns#"
   xmlns:dc="http://purl.org/dc/elements/1.1/"><defs
     id="defs2"><linearGradient
       inkscape:collect="always"
       id="linearGradient111966"><stop
         style="stop-color:#8a91ba;stop-opacity:1"
         offset="0"
         id="stop111962" /><stop
         style="stop-color:#5e5e91;stop-opacity:1"
         offset="1"
         id="stop111964" /></linearGradient><linearGradient
       inkscape:collect="always"
       id="linearGradient1663"><stop
         style="stop-color:#ffffff;stop-opacity:1"
         offset="0"
         id="stop1659" /><stop
         style="stop-color:#cccccc;stop-opacity:1"
         offset="1"
         id="stop1661" /></linearGradient><linearGradient
       inkscape:collect="always"
       id="linearGradient1643"><stop
         style="stop-color:#ccccff;stop-opacity:1"
         offset="0"
         id="stop1639" /><stop
         style="stop-color:#ccccff;stop-opacity:1"
         offset="1"
         id="stop1641" /></linearGradient><linearGradient
       inkscape:collect="always"
       id="linearGradient1623"><stop
         style="stop-color:#9d9cff;stop-opacity:1"
         offset="0"
         id="stop1619" /><stop
         style="stop-color:#cbcaff;stop-opacity:1"
         offset="1"
         id="stop1621" /></linearGradient><linearGradient
       id="linearGradient1613"
       inkscape:collect="always"><stop
         id="stop1609"
         offset="0"
         style="stop-color:#6c72a5;stop-opacity:1" /><stop
         id="stop1611"
         offset="1"
         style="stop-color:#7585b8;stop-opacity:1" /></linearGradient><linearGradient
       inkscape:collect="always"
       id="linearGradient1601"><stop
         style="stop-color:#0099ff;stop-opacity:1"
         offset="0"
         id="stop1597" /><stop
         style="stop-color:#1966bf;stop-opacity:1"
         offset="1"
         id="stop1599" /></linearGradient><linearGradient
       inkscape:collect="always"
       id="linearGradient1576"><stop
         style="stop-color:#99ccff;stop-opacity:1"
         offset="0"
         id="stop1572" /><stop
         style="stop-color:#c9fcff;stop-opacity:1"
         offset="1"
         id="stop1574" /></linearGradient><linearGradient
       inkscape:collect="always"
       id="linearGradient1562"><stop
         style="stop-color:#1ba2ff;stop-opacity:1"
         offset="0"
         id="stop1558" /><stop
         style="stop-color:#7ec3ff;stop-opacity:1"
         offset="1"
         id="stop1560" /></linearGradient><linearGradient
       inkscape:collect="always"
       id="linearGradient869"><stop
         style="stop-color:#99cbfe;stop-opacity:0.98555011"
         offset="0"
         id="stop865" /><stop
         style="stop-color:#4c4c7f;stop-opacity:1"
         offset="1"
         id="stop867" /></linearGradient><linearGradient
       inkscape:collect="always"
       id="linearGradient861"><stop
         style="stop-color:#99ccff;stop-opacity:1;"
         offset="0"
         id="stop857" /><stop
         style="stop-color:#ffffff;stop-opacity:1"
         offset="1"
         id="stop859" /></linearGradient><linearGradient
       inkscape:collect="always"
       xlink:href="#linearGradient861"
       id="linearGradient1832"
       gradientUnits="userSpaceOnUse"
       gradientTransform="matrix(3.8634903,0,0,3.8634903,-389.1189,-322.7853)"
       x1="110.94085"
       y1="94.871544"
       x2="102.62605"
       y2="83.838333" /><linearGradient
       inkscape:collect="always"
       xlink:href="#linearGradient1562"
       id="linearGradient1836"
       gradientUnits="userSpaceOnUse"
       x1="8.5520248"
       y1="1.7641931"
       x2="7.5752969"
       y2="0.7878077"
       gradientTransform="matrix(3.8634903,0,0,3.8634903,5.743914,0.4999999)" /><linearGradient
       inkscape:collect="always"
       xlink:href="#linearGradient1576"
       id="linearGradient1838"
       gradientUnits="userSpaceOnUse"
       x1="7.5090418"
       y1="1.9412498"
       x2="7.5090418"
       y2="0.51766664"
       gradientTransform="matrix(3.8634903,0,0,3.8634903,5.493915,0.25)" /><linearGradient
       inkscape:collect="always"
       xlink:href="#linearGradient1601"
       id="linearGradient1840"
       gradientUnits="userSpaceOnUse"
       x1="7.3783245"
       y1="1.8765416"
       x2="8.5430746"
       y2="1.8765416"
       gradientTransform="matrix(3.8634903,0,0,3.8634903,5.743915,0.7499998)" /><linearGradient
       inkscape:collect="always"
       xlink:href="#linearGradient1613"
       id="linearGradient1842"
       gradientUnits="userSpaceOnUse"
       x1="6.8619585"
       y1="2.2000833"
       x2="6.8619585"
       y2="0.32354215"
       gradientTransform="matrix(3.8634903,0,0,3.8634903,6.493916,1.2e-7)" /><linearGradient
       inkscape:collect="always"
       xlink:href="#linearGradient1643"
       id="linearGradient1850"
       gradientUnits="userSpaceOnUse"
       x1="0.45453331"
       y1="11.518083"
       x2="8.3489494"
       y2="11.518083"
       gradientTransform="matrix(3.8634903,0,0,3.8634903,6.243915,0)" /><radialGradient
       inkscape:collect="always"
       xlink:href="#linearGradient1663"
       id="radialGradient299109"
       cx="14.142424"
       cy="10.040477"
       fx="14.142424"
       fy="10.040477"
       r="12.627658"
       gradientTransform="matrix(0,3.2666392,-4.9108714,0,57.057201,-44.448197)"
       gradientUnits="userSpaceOnUse" /><radialGradient
       inkscape:collect="always"
       xlink:href="#linearGradient1623"
       id="radialGradient29742"
       cx="39.633572"
       cy="22.952927"
       fx="39.633572"
       fy="22.952927"
       r="3.4999974"
       gradientTransform="matrix(-1.7142864,-3.2410042e-7,4.39099e-7,-9.2145702,107.19328,222.00137)"
       gradientUnits="userSpaceOnUse" /><linearGradient
       inkscape:collect="always"
       xlink:href="#linearGradient111966"
       id="linearGradient111968"
       x1="32"
       y1="9.2500007"
       x2="39.931995"
       y2="9.250001"
       gradientUnits="userSpaceOnUse" /><radialGradient
       inkscape:collect="always"
       xlink:href="#linearGradient869"
       id="radialGradient144284"
       cx="6.6762424"
       cy="6.7253423"
       fx="6.6762424"
       fy="6.7253423"
       r="17.500143"
       gradientTransform="matrix(1.9142701,2.4714083,-2.3638582,1.8309654,9.6176245,-28.313589)"
       gradientUnits="userSpaceOnUse" /><linearGradient
       inkscape:collect="always"
       id="linearGradient305363"><stop
         style="stop-color:#ff9933;stop-opacity:1"
         offset="0"
         id="stop305359" /><stop
         style="stop-color:#ff9933;stop-opacity:1"
         offset="1"
         id="stop305361" /></linearGradient><linearGradient
       inkscape:collect="always"
       id="linearGradient237937"><stop
         style="stop-color:#ffff00;stop-opacity:1"
         offset="0"
         id="stop237931" /><stop
         style="stop-color:#ffff99;stop-opacity:1"
         offset="0.61025214"
         id="stop239091" /><stop
         style="stop-color:#fefdf4;stop-opacity:0"
         offset="1"
         id="stop237935" /></linearGradient><linearGradient
       inkscape:collect="always"
       id="linearGradient200486"><stop
         style="stop-color:#f7ad40;stop-opacity:1"
         offset="0"
         id="stop200482" /><stop
         style="stop-color:#fdca60;stop-opacity:1"
         offset="1"
         id="stop200484" /></linearGradient><linearGradient
       inkscape:collect="always"
       id="linearGradient154100"><stop
         style="stop-color:#ffffff;stop-opacity:1;"
         offset="0"
         id="stop154096" /><stop
         style="stop-color:#fbf638;stop-opacity:0"
         offset="0.17431498"
         id="stop163065" /><stop
         style="stop-color:#fcf996;stop-opacity:0"
         offset="0.75"
         id="stop181540" /><stop
         style="stop-color:#fefdf4;stop-opacity:1"
         offset="1"
         id="stop154098" /></linearGradient><linearGradient
       inkscape:collect="always"
       id="linearGradient69702"><stop
         style="stop-color:#fffefd;stop-opacity:1"
         offset="0"
         id="stop69698" /><stop
         style="stop-color:#cc9900;stop-opacity:1"
         offset="0.28"
         id="stop75990" /><stop
         style="stop-color:#ffff00;stop-opacity:1"
         offset="0.63999999"
         id="stop112612" /><stop
         style="stop-color:#ff9933;stop-opacity:1"
         offset="1"
         id="stop69700" /></linearGradient><linearGradient
       inkscape:collect="always"
       id="linearGradient2976"><stop
         style="stop-color:#fffcf5;stop-opacity:1"
         offset="0"
         id="stop2972" /><stop
         style="stop-color:#ffcc00;stop-opacity:1"
         offset="0.41281581"
         id="stop16719" /><stop
         style="stop-color:#cc9900;stop-opacity:1"
         offset="0.62598419"
         id="stop16849" /><stop
         style="stop-color:#ffcc00;stop-opacity:1"
         offset="0.91688526"
         id="stop16979" /><stop
         style="stop-color:#ffff99;stop-opacity:1"
         offset="1"
         id="stop2974" /></linearGradient><radialGradient
       inkscape:collect="always"
       xlink:href="#linearGradient2976"
       id="radialGradient2978"
       cx="-40.701576"
       cy="2.863358"
       fx="-40.701576"
       fy="2.863358"
       r="12.031582"
       gradientUnits="userSpaceOnUse"
       gradientTransform="translate(86.499998,8.4999998)" /><linearGradient
       inkscape:collect="always"
       xlink:href="#linearGradient69702"
       id="linearGradient69704"
       x1="-34.932289"
       y1="23.5"
       x2="-30.932291"
       y2="27.5"
       gradientUnits="userSpaceOnUse"
       gradientTransform="translate(59,3.9999996)" /><radialGradient
       inkscape:collect="always"
       xlink:href="#linearGradient154100"
       id="radialGradient154102"
       cx="-64.670082"
       cy="9.8947163"
       fx="-64.670082"
       fy="9.8947163"
       r="12.03125"
       gradientUnits="userSpaceOnUse"
       gradientTransform="matrix(0.56507903,-0.84745625,0.81983579,0.54666187,75.195087,-46.692728)" /><filter
       inkscape:collect="always"
       style="color-interpolation-filters:sRGB"
       id="filter200459"
       x="-0.14871855"
       y="-0.14124295"
       width="1.2974371"
       height="1.2824859"><feGaussianBlur
         inkscape:collect="always"
         stdDeviation="0.48638432"
         id="feGaussianBlur200461" /></filter><linearGradient
       inkscape:collect="always"
       xlink:href="#linearGradient200486"
       id="linearGradient200488"
       x1="-69.946632"
       y1="17.447788"
       x2="-74.671204"
       y2="12.581718"
       gradientUnits="userSpaceOnUse"
       gradientTransform="translate(110.5,3.9999996)" /><radialGradient
       inkscape:collect="always"
       xlink:href="#linearGradient237937"
       id="radialGradient237897"
       gradientUnits="userSpaceOnUse"
       gradientTransform="matrix(0.27909552,-0.48340761,0.42558781,0.24571323,59.023333,-23.008203)"
       cx="-60.812794"
       cy="8.0397205"
       fx="-60.812794"
       fy="8.0397205"
       r="12.03125" /><linearGradient
       inkscape:collect="always"
       xlink:href="#linearGradient305363"
       id="linearGradient305365"
       x1="-97.932289"
       y1="19.001196"
       x2="-51.932289"
       y2="19.001196"
       gradientUnits="userSpaceOnUse"
       gradientTransform="translate(110.5,3.9999996)" /></defs><sodipodi:namedview
     inkscape:guide-bbox="true"
     showguides="true"
     id="base"
     pagecolor="#ffffff"
     bordercolor="#666666"
     borderopacity="1.0"
     inkscape:pageopacity="0.0"
     inkscape:pageshadow="2"
     inkscape:zoom="24.943972"
     inkscape:cx="12.828751"
     inkscape:cy="16.657331"
     inkscape:document-units="px"
     inkscape:current-layer="g348248"
     inkscape:document-rotation="0"
     showgrid="false"
     units="px"
     inkscape:window-width="3840"
     inkscape:window-height="2056"
     inkscape:window-x="3840"
     inkscape:window-y="0"
     inkscape:window-maximized="1"
     inkscape:snap-bbox="true"
     inkscape:bbox-nodes="true"
     fit-margin-top="0"
     fit-margin-left="0"
     fit-margin-right="0"
     fit-margin-bottom="0"
     inkscape:bbox-paths="false"
     inkscape:pagecheckerboard="0"
     inkscape:snap-global="true"
     inkscape:showpageshadow="2"
     inkscape:deskcolor="#d1d1d1"><inkscape:grid
       type="xygrid"
       id="grid1504"
       originx="0"
       originy="0"
       spacingy="1"
       spacingx="1"
       units="px"
       visible="false" /><inkscape:grid
       type="xygrid"
       id="grid1507"
       spacingx="0.5"
       spacingy="0.5"
       originx="0"
       originy="0"
       units="px"
       visible="false" /><inkscape:grid
       type="xygrid"
       id="grid225783"
       spacingx="0.25"
       spacingy="0.25"
       originx="0"
       originy="0"
       units="px"
       visible="false" /></sodipodi:namedview><metadata
     id="metadata5"><rdf:RDF><cc:Work
         rdf:about=""><dc:format>image/svg+xml</dc:format><dc:type
           rdf:resource="http://purl.org/dc/dcmitype/StillImage" /></cc:Work></rdf:RDF></metadata><g
     inkscape:label="Layer 1"
     inkscape:groupmode="layer"
     id="layer1"><g
       id="g348248"><g
         id="g1106"><path
           id="rect1498-0"
           style="fill:url(#linearGradient1832);fill-opacity:1;stroke:none;stroke-width:0.999999;stroke-linejoin:round;stroke-miterlimit:4;stroke-dasharray:none;stroke-opacity:1;paint-order:normal"
           d="M 6.749714,0.50000218 H 32.5 l 8,8.74999912 V 44.5 H 6.749714 Z"
           sodipodi:nodetypes="cccccc" /><path
           style="fill:url(#linearGradient1836);fill-opacity:1;stroke:none;stroke-width:0.999999;stroke-linecap:butt;stroke-linejoin:miter;stroke-miterlimit:4;stroke-dasharray:none;stroke-opacity:1"
           d="m 32.750003,1.0000021 v 7.9999992 h 7.249993 z"
           id="path1548-1"
           sodipodi:nodetypes="cccc" /><path
           style="fill:none;stroke:url(#linearGradient1838);stroke-width:0.999999;stroke-linecap:butt;stroke-linejoin:miter;stroke-miterlimit:4;stroke-dasharray:none;stroke-opacity:1"
           d="M 33.500009,7.7500015 V 1.7500021"
           id="path1570-0"
           sodipodi:nodetypes="cc" /><path
           sodipodi:nodetypes="cc"
           style="fill:none;stroke:url(#linearGradient1840);stroke-width:0.999999;stroke-linecap:butt;stroke-linejoin:miter;stroke-miterlimit:4;stroke-dasharray:none;stroke-opacity:1"
           d="M 39.499991,8.2500014 H 34.000014"
           id="path1595-5" /><path
           sodipodi:nodetypes="cc"
           id="path1593-1"
           d="M 32.5,0.50000218 V 9"
           style="fill:#7494c7;fill-opacity:1;stroke:url(#linearGradient1842);stroke-width:0.999999;stroke-linecap:butt;stroke-linejoin:miter;stroke-miterlimit:4;stroke-dasharray:none;stroke-opacity:1" /><path
           style="fill:none;stroke:url(#radialGradient29742);stroke-width:0.999999;stroke-linecap:butt;stroke-linejoin:miter;stroke-miterlimit:4;stroke-dasharray:none;stroke-opacity:1"
           d="M 33.000005,10.250001 39.5,10.25 39.499991,43"
           id="path1617-8"
           sodipodi:nodetypes="ccc" /><path
           style="fill:#000000;fill-opacity:0;stroke:url(#linearGradient111968);stroke-width:0.999999;stroke-linecap:butt;stroke-linejoin:miter;stroke-miterlimit:4;stroke-dasharray:none;stroke-opacity:1"
           d="m 32,9.25 8.5,1.3e-6"
           id="path1605-0"
           sodipodi:nodetypes="cc" /><path
           style="fill:none;stroke:url(#linearGradient1850);stroke-width:0.999999;stroke-linecap:butt;stroke-linejoin:miter;stroke-miterlimit:4;stroke-dasharray:none;stroke-opacity:1"
           d="M 38.999987,43.5 H 6.999716"
           id="path1637-0"
           sodipodi:nodetypes="cc" /><path
           style="fill:none;fill-opacity:1;stroke:url(#radialGradient299109);stroke-width:0.999999;stroke-linecap:butt;stroke-linejoin:miter;stroke-miterlimit:4;stroke-dasharray:none;stroke-opacity:1"
           d="M 31.999996,1.5000021 H 7.499721 V 43"
           id="path1657-4"
           sodipodi:nodetypes="ccc" /><path
           sodipodi:nodetypes="cccccc"
           d="M 6.499712,0.50000218 H 32.5 l 8,8.74999912 V 44.5 H 6.499712 Z"
           style="fill:none;fill-opacity:1;stroke:url(#radialGradient144284);stroke-width:0.999999;stroke-linejoin:miter;stroke-miterlimit:4;stroke-dasharray:none;stroke-opacity:1;paint-order:normal"
           id="path1566-2" /></g><path
         id="path9"
         style="color:#000000;mix-blend-mode:soft-light;fill:#000000;fill-opacity:1;fill-rule:evenodd;stroke-linecap:round;stroke-linejoin:round;-inkscape-stroke:none"
         d="m 30.646783,15.346016 c -3.729128,1.03e-4 -6.759662,3.030637 -6.759765,6.759766 4.74e-4,0.126242 0.0075,0.250514 0.01563,0.375 -0.0091,0.14338 -0.01562,0.287937 -0.01563,0.433593 0.0014,0.386053 0.0436,0.762587 0.113281,1.136719 L 12.67608,35.379219 A 0.26967546,0.26967546 0 0 0 12.596,35.570625 v 2.697266 0.04687 a 0.26967546,0.26967546 0 0 0 0.06836,0.179688 l 0.675782,0.761718 a 0.26967546,0.26967546 0 0 0 0.201172,0.08984 h 2.560546 a 0.26967546,0.26967546 0 0 0 0.191407,-0.08008 l 0.458984,-0.458984 h 0.427735 a 0.26967546,0.26967546 0 0 0 0.269531,-0.269532 v -0.810547 -1.617187 h 1.888672 a 0.26967546,0.26967546 0 0 0 0.269531,-0.269531 v -0.269532 h 0.808594 a 0.26967546,0.26967546 0 0 0 0.269531,-0.269531 V 34.49249 33.412411 h 0.269531 a 0.26967546,0.26967546 0 0 0 0.269531,-0.269531 v -0.269531 h 2.427735 a 0.26967546,0.26967546 0 0 0 0.269531,-0.269531 V 31.795224 30.98663 h 0.539063 a 0.26967546,0.26967546 0 0 0 0.269531,-0.269531 v -0.539063 h 1.078125 a 0.26967546,0.26967546 0 0 0 0.189453,-0.07813 l 1.371094,-1.353515 c 1.003132,0.564719 2.117555,0.922302 3.27539,0.925781 a 0.26967546,0.26967546 0 0 0 0.002,0 c 3.729129,-1.03e-4 6.757711,-3.028684 6.757813,-6.757813 -4e-6,-0.13572 -0.0038,-0.270543 -0.01172,-0.404296 0.0079,-0.133753 0.01172,-0.268576 0.01172,-0.404297 -1.03e-4,-3.729129 -3.028684,-6.759663 -6.757813,-6.759766 z m 0.01563,5.125 c 0.605735,0 1.107887,0.396375 1.279297,0.943359 -0.17141,0.546985 -0.673561,0.94336 -1.279297,0.94336 -0.605734,0 -1.107887,-0.396375 -1.279297,-0.94336 0.17141,-0.546984 0.673563,-0.943359 1.279297,-0.943359 z" /><g
         inkscape:label="Layer 1"
         id="layer1-6"
         transform="matrix(0.53929687,0,0,0.53929687,4.3183016,13.846495)"><path
           id="path269305"
           style="fill:url(#linearGradient305365);fill-opacity:1;fill-rule:evenodd;stroke:#996600;stroke-width:1;stroke-linecap:round;stroke-linejoin:round;stroke-miterlimit:4;stroke-dasharray:none;stroke-opacity:1;stop-color:#000000"
           d="m 46.036459,1.9999996 c -6.6446,1.833e-4 -12.031067,5.3866501 -12.03125,12.0312504 0.0046,1.211995 0.147307,2.355794 0.511721,3.511716 v 0 L 13.067709,39 v 3.590412 l 1.252914,1.411978 4.747086,-0.0024 1,-1 h 1 v -5 h 4 v -1 h 2 v -4 h 1 v -1 h 5 v -3.5 h 1.5 V 27 h 2.5 l 2.735346,-2.700054 c 1.873986,1.144158 4.029433,1.755933 6.233404,1.762555 6.6446,-1.84e-4 12.031067,-5.386651 12.03125,-12.031251 C 58.067526,7.3866497 52.681059,2.0001829 46.036459,1.9999996 Z m 0.03125,7 c 1.656854,0 3,1.3431454 3,3.0000004 0,1.656854 -1.343146,3 -3,3 -1.656854,0 -3,-1.343146 -3,-3 0,-1.656855 1.343146,-3.0000004 3,-3.0000004 z"
           sodipodi:nodetypes="ccccccccccccccccccccccccccsssss" /><path
           id="path2670"
           style="fill:url(#radialGradient2978);fill-opacity:1;fill-rule:evenodd;stroke:none;stroke-width:1;stroke-linecap:round;stroke-linejoin:round;stroke-miterlimit:4;stroke-dasharray:none;stroke-opacity:1;stop-color:#000000"
           d="M 46.036459,0.4999996 A 12.031582,12.031582 0 0 0 34.005209,12.53125 12.031582,12.031582 0 0 0 46.036459,24.5625 12.031582,12.031582 0 0 0 58.067709,12.53125 12.031582,12.031582 0 0 0 46.036459,0.4999996 Z m 0.03125,7 a 3,3 0 0 1 3,3.0000004 3,3 0 0 1 -3,3 3,3 0 0 1 -3,-3 3,3 0 0 1 3,-3.0000004 z" /><path
           id="path153962"
           style="fill:url(#radialGradient154102);fill-opacity:1;fill-rule:evenodd;stroke:none;stroke-width:1;stroke-linecap:round;stroke-linejoin:round;stroke-miterlimit:4;stroke-dasharray:none;stroke-opacity:1;stop-color:#000000"
           d="M 46.036459,0.4999996 A 12.031582,12.031582 0 0 0 34.005209,12.53125 12.031582,12.031582 0 0 0 46.036459,24.5625 12.031582,12.031582 0 0 0 58.067709,12.53125 12.031582,12.031582 0 0 0 46.036459,0.4999996 Z m 0.03125,7 a 3,3 0 0 1 3,3.0000004 3,3 0 0 1 -3,3 3,3 0 0 1 -3,-3 3,3 0 0 1 3,-3.0000004 z" /><path
           style="fill:url(#linearGradient69704);fill-opacity:1;stroke:none;stroke-width:1px;stroke-linecap:round;stroke-linejoin:round;stroke-opacity:1"
           d="m 35.067709,16 -22,21.5 v 5 h 6 l 1,-1 h 1 v -5 h 4 v -1 h 2 v -4 h 1 v -1 h 5 V 27 h 1.5 v -1.5 h 2.5 l 2.90934,-3.310493"
           id="path68835"
           sodipodi:nodetypes="ccccccccccccccccccc" /><path
           id="path237796"
           style="fill:url(#radialGradient237897);fill-opacity:1;fill-rule:evenodd;stroke:none;stroke-width:1;stroke-linecap:round;stroke-linejoin:round;stroke-miterlimit:4;stroke-dasharray:none;stroke-opacity:1;stop-color:#000000"
           d="M 46.036459,0.4999996 A 12.031582,12.031582 0 0 0 34.005209,12.53125 12.031582,12.031582 0 0 0 46.036459,24.5625 12.031582,12.031582 0 0 0 58.067709,12.53125 12.031582,12.031582 0 0 0 46.036459,0.4999996 Z m 0.03125,7 a 3,3 0 0 1 3,3.0000004 3,3 0 0 1 -3,3 3,3 0 0 1 -3,-3 3,3 0 0 1 3,-3.0000004 z" /><path
           style="mix-blend-mode:normal;fill:url(#linearGradient200488);fill-opacity:1;stroke:none;stroke-width:1px;stroke-linecap:butt;stroke-linejoin:miter;stroke-opacity:1;filter:url(#filter200459)"
           d="m 34.46092,17.184594 2.085845,-1.893776 1.349043,1.343261 4.414317,4.395401 -3.122957,2.52598 z"
           id="path199955"
           sodipodi:nodetypes="cccccc" /><path
           id="path181377"
           style="fill:none;fill-opacity:1;fill-rule:evenodd;stroke:#996600;stroke-width:1;stroke-linecap:round;stroke-linejoin:round;stroke-miterlimit:4;stroke-dasharray:none;stroke-opacity:1;stop-color:#000000"
           d="m 46.03646,0.4999996 c -6.6446,1.833e-4 -12.031067,5.3866501 -12.03125,12.0312504 0.0046,1.211995 0.147307,2.355794 0.511721,3.511716 v 0 L 13.06771,37.5 v 5 h 6 l 1,-1 h 1 v -5 h 4 v -1 h 2 v -4 h 1 v -1 h 5 V 27 h 1.5 v -1.5 h 2.5 l 2.735346,-2.700054 c 1.873986,1.144158 4.029433,1.755933 6.233404,1.762555 C 52.68106,24.562317 58.067527,19.17585 58.06771,12.53125 58.067527,5.8866497 52.68106,0.5001829 46.03646,0.4999996 Z m 0.03125,7 c 1.656854,0 3,1.3431458 3,3.0000004 0,1.656854 -1.343146,3 -3,3 -1.656854,0 -3,-1.343146 -3,-3 0,-1.6568546 1.343146,-3.0000004 3,-3.0000004 z"
           sodipodi:nodetypes="cccccccccccccccccccccccccsssss" /></g></g></g></svg>
