<?xml version="1.0" encoding="UTF-8" standalone="no"?>
<svg
   inkscape:export-ydpi="96"
   inkscape:export-xdpi="96"
   inkscape:export-filename="key-file.png"
   width="16"
   height="16"
   viewBox="0 0 16 16"
   version="1.1"
   id="svg8"
   inkscape:version="1.3.2 (1:1.3.2+202311252150+091e20ef0f)"
   sodipodi:docname="key-file.16.svg"
   xmlns:inkscape="http://www.inkscape.org/namespaces/inkscape"
   xmlns:sodipodi="http://sodipodi.sourceforge.net/DTD/sodipodi-0.dtd"
   xmlns:xlink="http://www.w3.org/1999/xlink"
   xmlns="http://www.w3.org/2000/svg"
   xmlns:svg="http://www.w3.org/2000/svg"
   xmlns:rdf="http://www.w3.org/1999/02/22-rdf-syntax-ns#"
   xmlns:cc="http://creativecommons.org/ns#"
   xmlns:dc="http://purl.org/dc/elements/1.1/">
  <defs
     id="defs2">
    <linearGradient
       inkscape:collect="always"
       id="linearGradient33218">
      <stop
         style="stop-color:#ccd5ff;stop-opacity:1"
         offset="0"
         id="stop33214" />
      <stop
         style="stop-color:#aab3f5;stop-opacity:1"
         offset="1"
         id="stop33216" />
    </linearGradient>
    <linearGradient
       inkscape:collect="always"
       id="linearGradient19556">
      <stop
         style="stop-color:#a5bdee;stop-opacity:1"
         offset="0"
         id="stop19552" />
      <stop
         style="stop-color:#bac9f4;stop-opacity:1"
         offset="1"
         id="stop19554" />
    </linearGradient>
    <linearGradient
       inkscape:collect="always"
       id="linearGradient10735">
      <stop
         style="stop-color:#9dadd9;stop-opacity:1"
         offset="0"
         id="stop10731" />
      <stop
         style="stop-color:#8b8eb8;stop-opacity:1"
         offset="1"
         id="stop10733" />
    </linearGradient>
    <linearGradient
       inkscape:collect="always"
       id="linearGradient1920">
      <stop
         style="stop-color:#6e7bae;stop-opacity:1"
         offset="0"
         id="stop1916" />
      <stop
         style="stop-color:#87a9dc;stop-opacity:1"
         offset="1"
         id="stop1918" />
    </linearGradient>
    <linearGradient
       inkscape:collect="always"
       id="linearGradient1601">
      <stop
         style="stop-color:#0096fc;stop-opacity:1"
         offset="0"
         id="stop1597" />
      <stop
         style="stop-color:#0068ce;stop-opacity:1"
         offset="1"
         id="stop1599" />
    </linearGradient>
    <linearGradient
       inkscape:collect="always"
       id="linearGradient1562">
      <stop
         style="stop-color:#2da8ff;stop-opacity:1"
         offset="0"
         id="stop1558" />
      <stop
         style="stop-color:#74c0ff;stop-opacity:1"
         offset="1"
         id="stop1560" />
    </linearGradient>
    <linearGradient
       inkscape:collect="always"
       id="linearGradient861">
      <stop
         style="stop-color:#99ccff;stop-opacity:1;"
         offset="0"
         id="stop857" />
      <stop
         style="stop-color:#ffffff;stop-opacity:1"
         offset="1"
         id="stop859" />
    </linearGradient>
    <linearGradient
       inkscape:collect="always"
       xlink:href="#linearGradient1920"
       id="linearGradient1922"
       x1="-38.932289"
       y1="21.5"
       x2="-38.932289"
       y2="8"
       gradientUnits="userSpaceOnUse" />
    <linearGradient
       inkscape:collect="always"
       xlink:href="#linearGradient10735"
       id="linearGradient10737"
       x1="-37.932289"
       y1="22"
       x2="-28.932291"
       y2="22"
       gradientUnits="userSpaceOnUse" />
    <linearGradient
       inkscape:collect="always"
       xlink:href="#linearGradient19556"
       id="linearGradient19558"
       x1="-27.932291"
       y1="21"
       x2="-27.932291"
       y2="11.5"
       gradientUnits="userSpaceOnUse" />
    <linearGradient
       inkscape:collect="always"
       xlink:href="#linearGradient1562"
       id="linearGradient26952"
       gradientUnits="userSpaceOnUse"
       gradientTransform="matrix(1.5871812,0,0,1.5871812,-42.560746,7.9304953)"
       x1="8.0956125"
       y1="1.4187587"
       x2="7.2706113"
       y2="0.4584797" />
    <linearGradient
       inkscape:collect="always"
       xlink:href="#linearGradient861"
       id="linearGradient32816"
       x1="-28.683321"
       y1="21.127937"
       x2="-38.224697"
       y2="9.0368757"
       gradientUnits="userSpaceOnUse" />
    <linearGradient
       inkscape:collect="always"
       xlink:href="#linearGradient33218"
       id="linearGradient33220"
       x1="-30.932291"
       y1="11"
       x2="-28.932291"
       y2="11"
       gradientUnits="userSpaceOnUse" />
    <linearGradient
       inkscape:collect="always"
       xlink:href="#linearGradient1601"
       id="linearGradient57243"
       x1="-31.155609"
       y1="10.5"
       x2="-28.432291"
       y2="10.5"
       gradientUnits="userSpaceOnUse"
       gradientTransform="translate(0,-0.25000002)" />
    <linearGradient
       inkscape:collect="always"
       xlink:href="#linearGradient305363"
       id="linearGradient305365"
       x1="-97.932289"
       y1="19.001196"
       x2="-51.932289"
       y2="19.001196"
       gradientUnits="userSpaceOnUse"
       gradientTransform="translate(110.5,3.9999996)" />
    <linearGradient
       inkscape:collect="always"
       id="linearGradient305363">
      <stop
         style="stop-color:#ff9933;stop-opacity:1"
         offset="0"
         id="stop305359" />
      <stop
         style="stop-color:#ff9933;stop-opacity:1"
         offset="1"
         id="stop305361" />
    </linearGradient>
    <radialGradient
       inkscape:collect="always"
       xlink:href="#linearGradient2976"
       id="radialGradient2978"
       cx="-40.701576"
       cy="2.863358"
       fx="-40.701576"
       fy="2.863358"
       r="12.031582"
       gradientUnits="userSpaceOnUse"
       gradientTransform="translate(86.499998,8.4999998)" />
    <linearGradient
       inkscape:collect="always"
       id="linearGradient2976">
      <stop
         style="stop-color:#fffcf5;stop-opacity:1"
         offset="0"
         id="stop2972" />
      <stop
         style="stop-color:#ffcc00;stop-opacity:1"
         offset="0.41281581"
         id="stop16719" />
      <stop
         style="stop-color:#cc9900;stop-opacity:1"
         offset="0.62598419"
         id="stop16849" />
      <stop
         style="stop-color:#ffcc00;stop-opacity:1"
         offset="0.91688526"
         id="stop16979" />
      <stop
         style="stop-color:#ffff99;stop-opacity:1"
         offset="1"
         id="stop2974" />
    </linearGradient>
    <radialGradient
       inkscape:collect="always"
       xlink:href="#linearGradient154100"
       id="radialGradient154102"
       cx="-64.670082"
       cy="9.8947163"
       fx="-64.670082"
       fy="9.8947163"
       r="12.03125"
       gradientUnits="userSpaceOnUse"
       gradientTransform="matrix(0.56507903,-0.84745625,0.81983579,0.54666187,75.195087,-46.692728)" />
    <linearGradient
       inkscape:collect="always"
       id="linearGradient154100">
      <stop
         style="stop-color:#ffffff;stop-opacity:1;"
         offset="0"
         id="stop154096" />
      <stop
         style="stop-color:#fbf638;stop-opacity:0"
         offset="0.17431498"
         id="stop163065" />
      <stop
         style="stop-color:#fcf996;stop-opacity:0"
         offset="0.75"
         id="stop181540" />
      <stop
         style="stop-color:#fefdf4;stop-opacity:1"
         offset="1"
         id="stop154098" />
    </linearGradient>
    <linearGradient
       inkscape:collect="always"
       xlink:href="#linearGradient69702"
       id="linearGradient69704"
       x1="-34.932289"
       y1="23.5"
       x2="-30.932291"
       y2="27.5"
       gradientUnits="userSpaceOnUse"
       gradientTransform="translate(59,3.9999996)" />
    <linearGradient
       inkscape:collect="always"
       id="linearGradient69702">
      <stop
         style="stop-color:#fffefd;stop-opacity:1"
         offset="0"
         id="stop69698" />
      <stop
         style="stop-color:#cc9900;stop-opacity:1"
         offset="0.28"
         id="stop75990" />
      <stop
         style="stop-color:#ffff00;stop-opacity:1"
         offset="0.63999999"
         id="stop112612" />
      <stop
         style="stop-color:#ff9933;stop-opacity:1"
         offset="1"
         id="stop69700" />
    </linearGradient>
    <radialGradient
       inkscape:collect="always"
       xlink:href="#linearGradient237937"
       id="radialGradient237897"
       gradientUnits="userSpaceOnUse"
       gradientTransform="matrix(0.27909552,-0.48340761,0.42558781,0.24571323,59.023333,-23.008203)"
       cx="-60.812794"
       cy="8.0397205"
       fx="-60.812794"
       fy="8.0397205"
       r="12.03125" />
    <linearGradient
       inkscape:collect="always"
       id="linearGradient237937">
      <stop
         style="stop-color:#ffff00;stop-opacity:1"
         offset="0"
         id="stop237931" />
      <stop
         style="stop-color:#ffff99;stop-opacity:1"
         offset="0.61025214"
         id="stop239091" />
      <stop
         style="stop-color:#fefdf4;stop-opacity:0"
         offset="1"
         id="stop237935" />
    </linearGradient>
    <linearGradient
       inkscape:collect="always"
       xlink:href="#linearGradient200486"
       id="linearGradient200488"
       x1="-69.946632"
       y1="17.447788"
       x2="-74.671204"
       y2="12.581718"
       gradientUnits="userSpaceOnUse"
       gradientTransform="translate(110.5,3.9999996)" />
    <linearGradient
       inkscape:collect="always"
       id="linearGradient200486">
      <stop
         style="stop-color:#f7ad40;stop-opacity:1"
         offset="0"
         id="stop200482" />
      <stop
         style="stop-color:#fdca60;stop-opacity:1"
         offset="1"
         id="stop200484" />
    </linearGradient>
    <filter
       inkscape:collect="always"
       style="color-interpolation-filters:sRGB"
       id="filter200459"
       x="-0.14871855"
       y="-0.14124295"
       width="1.2974371"
       height="1.2824859">
      <feGaussianBlur
         inkscape:collect="always"
         stdDeviation="0.48638432"
         id="feGaussianBlur200461" />
    </filter>
  </defs>
  <sodipodi:namedview
     inkscape:guide-bbox="true"
     showguides="true"
     id="base"
     pagecolor="#ffffff"
     bordercolor="#666666"
     borderopacity="1.0"
     inkscape:pageopacity="0.0"
     inkscape:pageshadow="2"
     inkscape:zoom="56.038075"
     inkscape:cx="10.234113"
     inkscape:cy="5.5587205"
     inkscape:document-units="px"
     inkscape:current-layer="layer1"
     inkscape:document-rotation="0"
     showgrid="false"
     units="px"
     inkscape:window-width="3840"
     inkscape:window-height="2056"
     inkscape:window-x="3840"
     inkscape:window-y="0"
     inkscape:window-maximized="1"
     inkscape:snap-bbox="true"
     inkscape:bbox-nodes="true"
     fit-margin-top="0"
     fit-margin-left="0"
     fit-margin-right="0"
     fit-margin-bottom="0"
     inkscape:bbox-paths="false"
     inkscape:pagecheckerboard="0"
     inkscape:showpageshadow="2"
     inkscape:deskcolor="#d1d1d1">
    <inkscape:grid
       type="xygrid"
       id="grid1504"
       originx="0"
       originy="0"
       spacingy="1"
       spacingx="1"
       units="px"
       visible="false" />
    <inkscape:grid
       type="xygrid"
       id="grid1507"
       spacingx="0.5"
       spacingy="0.5"
       originx="0"
       originy="0"
       units="px"
       visible="false" />
  </sodipodi:namedview>
  <metadata
     id="metadata5">
    <rdf:RDF>
      <cc:Work
         rdf:about="">
        <dc:format>image/svg+xml</dc:format>
        <dc:type
           rdf:resource="http://purl.org/dc/dcmitype/StillImage" />
      </cc:Work>
    </rdf:RDF>
  </metadata>
  <g
     inkscape:label="Layer 1"
     inkscape:groupmode="layer"
     id="layer1"
     transform="translate(-12.567709)">
    <g
       id="g66635"
       transform="translate(54.005865,-7.4946405)">
      <path
         id="rect32383"
         style="fill:url(#linearGradient32816);fill-opacity:1;fill-rule:evenodd;stroke-linecap:round;stroke-linejoin:round;stop-color:#000000"
         d="m -38.932289,8 h 8.504071 l 2.495929,3.120377 V 22 h -11 z"
         sodipodi:nodetypes="cccccc" />
      <path
         style="fill:url(#linearGradient26952);fill-opacity:1;stroke:none;stroke-width:0.419942px;stroke-linecap:butt;stroke-linejoin:miter;stroke-opacity:1"
         d="M -31.432291,8.1404667 V 11 h 3.499999 L -31.01235,8.1404667 Z"
         id="path1548-1-7"
         sodipodi:nodetypes="ccccc" />
      <path
         style="fill:none;stroke:url(#linearGradient57243);stroke-width:0.5;stroke-linecap:butt;stroke-linejoin:miter;stroke-miterlimit:4;stroke-dasharray:none;stroke-opacity:1"
         d="m -31.432291,10.25 h 3"
         id="path57178" />
      <path
         style="fill:#aab3f5;fill-opacity:1;stroke:url(#linearGradient33220);stroke-width:1px;stroke-linecap:butt;stroke-linejoin:miter;stroke-opacity:1"
         d="m -27.932291,11 h -3.5"
         id="path33155"
         sodipodi:nodetypes="cc" />
      <path
         style="fill:none;stroke:url(#linearGradient19558);stroke-width:1px;stroke-linecap:round;stroke-linejoin:miter;stroke-opacity:1"
         d="M -27.932291,22 V 11"
         id="path1357"
         sodipodi:nodetypes="cc" />
      <path
         style="fill:none;stroke:url(#linearGradient10737);stroke-width:1px;stroke-linecap:round;stroke-linejoin:miter;stroke-opacity:1"
         d="m -38.932291,22 h 11"
         id="path1355"
         sodipodi:nodetypes="cc" />
      <path
         style="fill:none;stroke:url(#linearGradient1922);stroke-width:1px;stroke-linecap:round;stroke-linejoin:miter;stroke-opacity:1"
         d="m -30.432291,8 h -8.5 v 14"
         id="path1225"
         sodipodi:nodetypes="ccc" />
      <path
         style="fill:none;stroke:#87a9dc;stroke-width:1px;stroke-linecap:round;stroke-linejoin:miter;stroke-opacity:1"
         d="m -30.432291,8 2.5,3"
         id="path1359"
         sodipodi:nodetypes="cc" />
    </g>
    <path
       id="path9"
       style="color:#000000;mix-blend-mode:soft-light;fill:#000000;fill-opacity:1;fill-rule:evenodd;stroke-linecap:round;stroke-linejoin:round;-inkscape-stroke:none"
       d="m 22.809444,5.0510007 c -1.262021,3.49e-5 -2.287075,1.0250888 -2.28711,2.2871094 1.49e-4,0.039236 0.0033,0.078431 0.0059,0.1171875 -0.0033,0.050426 -0.0059,0.1010829 -0.0059,0.1523438 4.67e-4,0.1229053 0.01507,0.2437161 0.03711,0.3632812 l -3.765625,3.7675784 a 0.1250125,0.1250125 0 0 0 -0.03711,0.08789 v 0.898437 0.01758 a 0.1250125,0.1250125 0 0 0 0.0332,0.08203 l 0.22461,0.253906 a 0.1250125,0.1250125 0 0 0 0.09375,0.04102 h 0.853515 a 0.1250125,0.1250125 0 0 0 0.08789,-0.03516 l 0.142578,-0.144531 h 0.128906 a 0.1250125,0.1250125 0 0 0 0.125,-0.125 v -0.269531 -0.503906 h 0.59375 a 0.1250125,0.1250125 0 0 0 0.125,-0.125 v -0.05469 h 0.234375 a 0.1250125,0.1250125 0 0 0 0.125,-0.125 v -0.269531 -0.324219 h 0.05469 a 0.1250125,0.1250125 0 0 0 0.125,-0.125 v -0.05469 h 0.773437 a 0.1250125,0.1250125 0 0 0 0.125,-0.125 v -0.269527 -0.234375 h 0.144532 a 0.1250125,0.1250125 0 0 0 0.125,-0.125 v -0.144531 h 0.324218 a 0.1250125,0.1250125 0 0 0 0.08789,-0.03711 l 0.445312,-0.4375003 c 0.333029,0.181738 0.698238,0.30354 1.080079,0.304687 1.262019,-3.5e-5 2.287074,-1.0250884 2.287109,-2.287109 -1e-6,-0.045368 -0.0013,-0.090047 -0.0039,-0.1347657 0.0026,-0.044718 0.0039,-0.089398 0.0039,-0.1347656 C 25.096515,6.0760887 24.07146,5.0510349 22.809441,5.051 Z m 0.0059,1.7773438 c 0.182754,0 0.335058,0.1164253 0.390625,0.2792969 -0.05557,0.1628715 -0.207871,0.2792969 -0.390625,0.2792969 -0.182752,0 -0.333105,-0.1164254 -0.388672,-0.2792969 0.05557,-0.1628715 0.20592,-0.2792969 0.388672,-0.2792969 z" />
    <g
       inkscape:label="Layer 1"
       id="layer1-6"
       transform="matrix(0.17976562,0,0,0.17976562,14.034522,4.5849898)"
       style="stroke-width:1.3907;stroke-dasharray:none">
      <path
         id="path269305"
         style="fill:url(#linearGradient305365);fill-opacity:1;fill-rule:evenodd;stroke:#996600;stroke-width:1.3907;stroke-linecap:round;stroke-linejoin:round;stroke-miterlimit:4;stroke-dasharray:none;stroke-opacity:1;stop-color:#000000"
         d="m 46.036459,1.9999996 c -6.6446,1.833e-4 -12.031067,5.3866501 -12.03125,12.0312504 0.0046,1.211995 0.147307,2.355794 0.511721,3.511716 v 0 L 13.067709,39 v 3.590412 l 1.252914,1.411978 4.747086,-0.0024 1,-1 h 1 v -5 h 4 v -1 h 2 v -4 h 1 v -1 h 5 v -3.5 h 1.5 V 27 h 2.5 l 2.735346,-2.700054 c 1.873986,1.144158 4.029433,1.755933 6.233404,1.762555 6.6446,-1.84e-4 12.031067,-5.386651 12.03125,-12.031251 C 58.067526,7.3866497 52.681059,2.0001829 46.036459,1.9999996 Z m 0.03125,7 c 1.656854,0 3,1.3431454 3,3.0000004 0,1.656854 -1.343146,3 -3,3 -1.656854,0 -3,-1.343146 -3,-3 0,-1.656855 1.343146,-3.0000004 3,-3.0000004 z"
         sodipodi:nodetypes="ccccccccccccccccccccccccccsssss" />
      <path
         id="path2670"
         style="fill:url(#radialGradient2978);fill-opacity:1;fill-rule:evenodd;stroke:none;stroke-width:1.3907;stroke-linecap:round;stroke-linejoin:round;stroke-miterlimit:4;stroke-dasharray:none;stroke-opacity:1;stop-color:#000000"
         d="M 46.036459,0.4999996 A 12.031582,12.031582 0 0 0 34.005209,12.53125 12.031582,12.031582 0 0 0 46.036459,24.5625 12.031582,12.031582 0 0 0 58.067709,12.53125 12.031582,12.031582 0 0 0 46.036459,0.4999996 Z m 0.03125,7 a 3,3 0 0 1 3,3.0000004 3,3 0 0 1 -3,3 3,3 0 0 1 -3,-3 3,3 0 0 1 3,-3.0000004 z" />
      <path
         id="path153962"
         style="fill:url(#radialGradient154102);fill-opacity:1;fill-rule:evenodd;stroke:none;stroke-width:1.3907;stroke-linecap:round;stroke-linejoin:round;stroke-miterlimit:4;stroke-dasharray:none;stroke-opacity:1;stop-color:#000000"
         d="M 46.036459,0.4999996 A 12.031582,12.031582 0 0 0 34.005209,12.53125 12.031582,12.031582 0 0 0 46.036459,24.5625 12.031582,12.031582 0 0 0 58.067709,12.53125 12.031582,12.031582 0 0 0 46.036459,0.4999996 Z m 0.03125,7 a 3,3 0 0 1 3,3.0000004 3,3 0 0 1 -3,3 3,3 0 0 1 -3,-3 3,3 0 0 1 3,-3.0000004 z" />
      <path
         style="fill:url(#linearGradient69704);fill-opacity:1;stroke:none;stroke-width:1.3907;stroke-linecap:round;stroke-linejoin:round;stroke-dasharray:none;stroke-opacity:1"
         d="m 35.067709,16 -22,21.5 v 5 h 6 l 1,-1 h 1 v -5 h 4 v -1 h 2 v -4 h 1 v -1 h 5 V 27 h 1.5 v -1.5 h 2.5 l 2.90934,-3.310493"
         id="path68835"
         sodipodi:nodetypes="ccccccccccccccccccc" />
      <path
         id="path237796"
         style="fill:url(#radialGradient237897);fill-opacity:1;fill-rule:evenodd;stroke:none;stroke-width:1.3907;stroke-linecap:round;stroke-linejoin:round;stroke-miterlimit:4;stroke-dasharray:none;stroke-opacity:1;stop-color:#000000"
         d="M 46.036459,0.4999996 A 12.031582,12.031582 0 0 0 34.005209,12.53125 12.031582,12.031582 0 0 0 46.036459,24.5625 12.031582,12.031582 0 0 0 58.067709,12.53125 12.031582,12.031582 0 0 0 46.036459,0.4999996 Z m 0.03125,7 a 3,3 0 0 1 3,3.0000004 3,3 0 0 1 -3,3 3,3 0 0 1 -3,-3 3,3 0 0 1 3,-3.0000004 z" />
      <path
         style="mix-blend-mode:normal;fill:url(#linearGradient200488);fill-opacity:1;stroke:none;stroke-width:1.3907;stroke-linecap:butt;stroke-linejoin:miter;stroke-dasharray:none;stroke-opacity:1;filter:url(#filter200459)"
         d="m 34.46092,17.184594 2.085845,-1.893776 1.349043,1.343261 4.414317,4.395401 -3.122957,2.52598 z"
         id="path199955"
         sodipodi:nodetypes="cccccc" />
      <path
         id="path181377"
         style="fill:none;fill-opacity:1;fill-rule:evenodd;stroke:#996600;stroke-width:1.3907;stroke-linecap:round;stroke-linejoin:round;stroke-miterlimit:4;stroke-dasharray:none;stroke-opacity:1;stop-color:#000000"
         d="m 46.03646,0.4999996 c -6.6446,1.833e-4 -12.031067,5.3866501 -12.03125,12.0312504 0.0046,1.211995 0.147307,2.355794 0.511721,3.511716 v 0 L 13.06771,37.5 v 5 h 6 l 1,-1 h 1 v -5 h 4 v -1 h 2 v -4 h 1 v -1 h 5 V 27 h 1.5 v -1.5 h 2.5 l 2.735346,-2.700054 c 1.873986,1.144158 4.029433,1.755933 6.233404,1.762555 C 52.68106,24.562317 58.067527,19.17585 58.06771,12.53125 58.067527,5.8866497 52.68106,0.5001829 46.03646,0.4999996 Z m 0.03125,7 c 1.656854,0 3,1.3431458 3,3.0000004 0,1.656854 -1.343146,3 -3,3 -1.656854,0 -3,-1.343146 -3,-3 0,-1.6568546 1.343146,-3.0000004 3,-3.0000004 z"
         sodipodi:nodetypes="cccccccccccccccccccccccccsssss" />
    </g>
  </g>
</svg>
