<svg version="1.1" viewBox="0 0 48 48" xml:space="preserve" xmlns="http://www.w3.org/2000/svg" xmlns:xlink="http://www.w3.org/1999/xlink"><defs><linearGradient id="linearGradient1119" x1="-94.347" x2="-94.347" y1="5.1" y2="1.8143" gradientTransform="matrix(.53636 0 0 .53636 -21.165 13.232)" gradientUnits="userSpaceOnUse"><stop stop-color="#0093f9" offset="0"/><stop stop-color="#0067cd" offset=".5"/><stop stop-color="#2e85db" offset="1"/></linearGradient><linearGradient id="linearGradient1121" x1="-93.932" x2="-93.932" y1="36" y2="5.5" gradientTransform="matrix(.53636 0 0 .53636 -21.165 13.232)" gradientUnits="userSpaceOnUse"><stop stop-color="#2652a4" offset="0"/><stop stop-color="#0572d6" offset="1"/></linearGradient><linearGradient id="linearGradient1123" x1="-93.932" x2="-93.932" y1="4.5" y2=".5" gradientTransform="matrix(.53636 0 0 .53636 -21.165 13.232)" gradientUnits="userSpaceOnUse"><stop stop-color="#015baa" offset="0"/><stop stop-color="#0274d6" offset="1"/></linearGradient><linearGradient id="gradient12-3-1" x1="-819.2" x2="819.2" gradientTransform="matrix(-.021944 .021944 .058828 .058828 199.34 254.84)" gradientUnits="userSpaceOnUse"><stop stop-color="#060" offset="0"/><stop stop-color="#333" offset="1"/></linearGradient><linearGradient id="gradient13-6-9" x1="-819.2" x2="819.2" gradientTransform="matrix(-.018676 .018676 .05556 .05556 199.34 256.24)" gradientUnits="userSpaceOnUse"><stop stop-color="#060" offset="0"/><stop stop-color="#6c3" offset="1"/></linearGradient><linearGradient id="gradient14-2" x1="-819.2" x2="819.2" gradientTransform="matrix(-.014474 -.02708 -.031749 .016808 105.73 195.55)" gradientUnits="userSpaceOnUse"><stop stop-color="#600" offset="0"/><stop stop-color="#600" offset=".16863"/><stop stop-color="#960" offset=".30588"/><stop stop-color="#fc6" offset=".61569"/><stop stop-color="#960" offset="1"/></linearGradient><linearGradient id="gradient15-2" x1="-819.2" x2="819.2" gradientTransform="matrix(-.0088709 -.010738 -.0023344 .0018676 94.521 195.31)" gradientUnits="userSpaceOnUse"><stop stop-color="#fc6" offset="0"/><stop stop-color="#fc6" offset=".32941"/><stop stop-color="#ff9" offset=".44314"/><stop stop-color="#fc6" offset=".72157"/><stop stop-color="#fc6" offset="1"/></linearGradient><linearGradient id="gradient16-1" x1="-819.2" x2="819.2" gradientTransform="matrix(-.0098047 -.011672 -.0023344 .0018676 103.39 194.15)" gradientUnits="userSpaceOnUse"><stop stop-color="#fc6" offset="0"/><stop stop-color="#fc6" offset=".32941"/><stop stop-color="#ff9" offset=".44314"/><stop stop-color="#fc6" offset=".72157"/><stop stop-color="#fc6" offset="1"/></linearGradient><linearGradient id="gradient17-4" x1="-819.2" x2="819.2" gradientTransform="matrix(-.0088709 -.010272 -.0023344 .0018676 111.56 188.31)" gradientUnits="userSpaceOnUse"><stop stop-color="#fc6" offset="0"/><stop stop-color="#fc6" offset=".32941"/><stop stop-color="#ff9" offset=".44314"/><stop stop-color="#fc6" offset=".72157"/><stop stop-color="#fc6" offset="1"/></linearGradient><linearGradient id="gradient18-3" x1="-819.2" x2="819.2" gradientTransform="matrix(-.0098047 -.011672 -.0018676 .0018676 118.8 185.74)" gradientUnits="userSpaceOnUse"><stop stop-color="#fc6" offset="0"/><stop stop-color="#fc6" offset=".32941"/><stop stop-color="#ff9" offset=".44314"/><stop stop-color="#fc6" offset=".72157"/><stop stop-color="#fc6" offset="1"/></linearGradient><linearGradient id="gradient19-2" x1="-819.2" x2="819.2" gradientTransform="matrix(0 -.023345 -.022878 0 91.486 206.52)" gradientUnits="userSpaceOnUse"><stop stop-color="#600" offset="0"/><stop stop-color="#960" offset=".45882"/><stop stop-color="#fc6" offset=".83922"/><stop stop-color="#960" offset="1"/></linearGradient><linearGradient id="gradient20-5" x1="-819.2" x2="819.2" gradientTransform="matrix(.046689 .046689 .010272 -.010272 199.34 256.24)" gradientUnits="userSpaceOnUse"><stop stop-color="#cfc" offset="0"/><stop stop-color="#9f6" offset=".43529"/><stop stop-color="#6c3" offset="1"/></linearGradient><linearGradient id="gradient21-5" x1="-819.2" x2="819.2" gradientTransform="matrix(-.019609 -.019609 -.020543 .020543 131.87 219.36)" gradientUnits="userSpaceOnUse"><stop stop-color="#333" offset="0"/><stop stop-color="#06c" offset="1"/></linearGradient><linearGradient id="gradient22-3" x1="-819.2" x2="819.2" gradientTransform="matrix(-.02848 0 0 .02101 132.11 218.66)" gradientUnits="userSpaceOnUse"><stop stop-color="#9cf" offset="0"/><stop stop-color="#fff" offset="1"/></linearGradient><linearGradient id="gradient23-5" x1="-819.2" x2="819.2" gradientTransform="matrix(-.015874 -.0088709 -.0079371 .014007 129.77 215.16)" gradientUnits="userSpaceOnUse"><stop stop-color="#06c" offset="0"/><stop stop-color="#9cf" offset=".60784"/><stop stop-color="#9cf" offset="1"/></linearGradient><linearGradient id="gradient24-7" x1="-819.2" x2="819.2" gradientTransform="matrix(.012606 0 0 -.0074702 127.2 211.19)" gradientUnits="userSpaceOnUse"><stop stop-color="#9cf" offset="0"/><stop stop-color="#cff" offset="1"/></linearGradient><radialGradient id="gradient25-3" cx="0" cy="0" r="819.2" gradientTransform="matrix(.011205 0 0 .011205 153.58 226.36)" gradientUnits="userSpaceOnUse"><stop stop-color="#fff" offset="0"/><stop stop-color="#cfc" offset="1"/></radialGradient><linearGradient id="linearGradient1832-3" x1="110.94" x2="102.63" y1="94.872" y2="83.838" gradientTransform="matrix(3.8635 0 0 3.8635 -389.12 -322.79)" gradientUnits="userSpaceOnUse"><stop stop-color="#9cf" offset="0"/><stop stop-color="#fff" offset="1"/></linearGradient><linearGradient id="linearGradient1836-5" x1="8.552" x2="7.5753" y1="1.7642" y2=".78781" gradientTransform="matrix(3.8635 0 0 3.8635 5.7439 .5)" gradientUnits="userSpaceOnUse"><stop stop-color="#1ba2ff" offset="0"/><stop stop-color="#7ec3ff" offset="1"/></linearGradient><linearGradient id="linearGradient1838-2" x1="7.509" x2="7.509" y1="1.9412" y2=".51767" gradientTransform="matrix(3.8635 0 0 3.8635 5.4939 .25)" gradientUnits="userSpaceOnUse"><stop stop-color="#9cf" offset="0"/><stop stop-color="#c9fcff" offset="1"/></linearGradient><linearGradient id="linearGradient1840-7" x1="7.3783" x2="8.5431" y1="1.8765" y2="1.8765" gradientTransform="matrix(3.8635 0 0 3.8635 5.7439 .75)" gradientUnits="userSpaceOnUse"><stop stop-color="#09f" offset="0"/><stop stop-color="#1966bf" offset="1"/></linearGradient><linearGradient id="linearGradient1842-6" x1="6.862" x2="6.862" y1="2.2001" y2=".32354" gradientTransform="matrix(3.8635 0 0 3.8635 6.4939 1.2e-7)" gradientUnits="userSpaceOnUse"><stop stop-color="#6c72a5" offset="0"/><stop stop-color="#7585b8" offset="1"/></linearGradient><radialGradient id="radialGradient29742" cx="39.634" cy="22.953" r="3.5" gradientTransform="matrix(-1.7143 -3.241e-7 4.391e-7 -9.2146 107.19 222)" gradientUnits="userSpaceOnUse"><stop stop-color="#9d9cff" offset="0"/><stop stop-color="#cbcaff" offset="1"/></radialGradient><linearGradient id="linearGradient111968" x1="32" x2="39.932" y1="9.25" y2="9.25" gradientUnits="userSpaceOnUse"><stop stop-color="#8a91ba" offset="0"/><stop stop-color="#5e5e91" offset="1"/></linearGradient><linearGradient id="linearGradient1850-7" x1=".45453" x2="8.3489" y1="11.518" y2="11.518" gradientTransform="matrix(3.8635 0 0 3.8635 6.2439 0)" gradientUnits="userSpaceOnUse"><stop stop-color="#ccf" offset="0"/><stop stop-color="#ccf" offset="1"/></linearGradient><radialGradient id="radialGradient299109" cx="14.142" cy="10.04" r="12.628" gradientTransform="matrix(0 3.2666 -4.9109 0 57.057 -44.448)" gradientUnits="userSpaceOnUse"><stop stop-color="#fff" offset="0"/><stop stop-color="#ccc" offset="1"/></radialGradient><radialGradient id="radialGradient144284" cx="6.6762" cy="6.7253" r="17.5" gradientTransform="matrix(1.9143 2.4714 -2.3639 1.831 9.6176 -28.314)" gradientUnits="userSpaceOnUse"><stop stop-color="#99cbfe" stop-opacity=".98555" offset="0"/><stop stop-color="#4c4c7f" offset="1"/></radialGradient></defs><g transform="translate(-12.568)"><g transform="translate(12.568)"><path d="m6.7497 0.5h25.75l8 8.75v35.25h-33.75z" fill="url(#linearGradient1832-3)" style="paint-order:normal"/><path d="m32.75 1v8h7.25z" fill="url(#linearGradient1836-5)"/><g><path d="m33.5 7.75v-6" fill="none" stroke="url(#linearGradient1838-2)"/><path d="m39.5 8.25h-5.5" fill="none" stroke="url(#linearGradient1840-7)"/><path d="m32.5 0.5v8.5" fill="#7494c7" stroke="url(#linearGradient1842-6)"/><path d="m33 10.25 6.5-1e-6 -9e-6 32.75" fill="none" stroke="url(#radialGradient29742)"/><path d="m32 9.25 8.5 1.3e-6" fill-opacity="0" stroke="url(#linearGradient111968)"/></g><g fill="none"><path d="m39 43.5h-32" stroke="url(#linearGradient1850-7)"/><path d="m32 1.5h-24.5v41.5" stroke="url(#radialGradient299109)"/><path d="m6.4997 0.5h26l8 8.75v35.25h-34z" stroke="url(#radialGradient144284)" style="paint-order:normal"/></g></g><path d="m25.183 14.162c-0.38848 0-0.73379 0.18301-0.99219 0.44141-0.25839 0.25839-0.44336 0.60566-0.44336 0.99414v20.428h24.869v-20.428c0-0.38848-0.18301-0.73575-0.44141-0.99414-0.25839-0.25839-0.60566-0.44141-0.99414-0.44141z" style="mix-blend-mode:soft-light"/><g transform="matrix(1.0073 0 0 1.0073 105.71 -.081707)"><g><path d="m-82.005 16.32 0.04187 18.097h23.967l-0.0265-18.097z" fill="#efead8"/><path d="m-75.994 26.007h8.5v-10h-8.5z" fill="#6c3"/><path d="m-75.494 16.004v18.503h-6.5v-18.503z" fill="#090"/><path d="m-82.005 16.32v-2.0152l1.0727-0.80453h22.259l0.80453 0.80453-0.1532 2.0152" fill="url(#linearGradient1119)"/></g><path d="m-82.005 16.32v18.18h23.983v-18.18" fill="none" stroke="url(#linearGradient1121)" stroke-width=".70492"/><path d="m-58.022 16.32v-1.747c0-0.53636-0.53635-1.0727-1.0727-1.0727h-21.837c-0.53636 0-1.0727 0.53636-1.0727 1.0727v1.747" fill="none" stroke="url(#linearGradient1123)" stroke-width=".70492"/><g fill-rule="evenodd" stroke-linecap="round" stroke-linejoin="round" stroke-width=".70492"><path d="m-60.505 14.205h1.4098v1.4098h-1.4098z" fill="#e37046" stop-color="#000000"/><path d="m-62.62 14.205h1.4098v1.4098h-1.4098z" fill="#7cbcf8" stop-color="#000000"/><path d="m-64.734 14.205h1.4252l-0.01533 1.4098h-1.4252z" fill="#7cbcf8" stop-color="#000000"/></g></g><path d="m38.921 22.791c-0.37814 0.37814-0.76815 0.61445-1.1699 0.70898l-2.127 0.35352-1.4551 0.85156c-0.40177 0.30724-0.81483 0.46094-1.2402 0.46094-0.23634 0-0.47265 0.18827-0.70898 0.56641-0.18907 0.33087-0.49647 0.40196-0.92188 0.21289 9.41e-4 0.01255 0.002906 0.0246 0.003906 0.03711-0.0013-6.74e-4 -0.002606-0.001253-0.003906-0.001953 0.09453 1.418 0.44998 2.5054 1.0645 3.2617 1.46 1.7312 2.763 2.5898 3.9102 2.5723l0.095703 0.37109 5.4199 2.4082 0.003906 0.001953c0.9463 1.1079 2.0071 2.0079 3.1895 2.6934 1.1108 0.63811 3.2972 1.7025 6.5586 3.1914l2.0273 0.89258v-5.1016c-2.8313-2.282-4.6651-3.6553-5.4648-4.0859-0.25403-0.14516-1.5087-0.69302-3.2812-1.4512l0.054688-0.039063-3.1191-3.3672-0.23633 0.13672c-0.23872-0.764-0.72673-1.3545-1.4668-1.7676-0.44904-0.25997-0.82558-1.2283-1.1328-2.9062z" stroke-width=".70901" style="mix-blend-mode:soft-light"/><g transform="matrix(.15186 0 0 .15186 19.277 -3.4376)" fill-rule="evenodd" stroke-width="4.6689"><path d="m256.3 296.86q5.1358-7.0034-1.4007-12.606-59.529-49.724-71.668-56.26-3.2682-1.8676-31.982-14.007-4.202-1.6341-11.906 7.4702-7.7037 9.1044-4.4355 13.54 11.672 17.275 27.78 26.613 10.972 6.303 43.187 21.01l35.484 15.641q9.5713 5.8361 14.94-1.4007" fill="url(#gradient12-3-1)"/><path d="m242.53 295.23 11.205-0.46689q3.0348-4.9024-3.2682-10.272-54.159-44.588-66.065-51.358l-18.442-8.404-13.54-5.6027q-4.202-1.4007-9.8047 4.6689-5.6027 6.303-2.3345 10.738 10.738 15.407 26.613 24.745 11.205 6.5365 41.553 20.777l34.083 15.174" fill="url(#gradient13-6-9)"/><path d="m91.486 178.74q-3.9686 3.0348-8.1706 3.0348-2.3345 0-4.6689 3.7351-1.8676 3.2682-6.0696 1.4007 0.70034 9.3378 4.6689 16.341 4.202 7.4702 13.54 15.174 11.205 9.5713 17.275 6.0696l32.916-21.477q-0.70034-12.139-10.738-17.742-4.4355-2.5679-7.4702-19.143-3.7351 3.7351-7.7037 4.6689l-14.007 2.3345-9.5713 5.6027" fill="url(#gradient14-2)"/><path d="m87.284 188.78q0.23344 7.7037 2.5679 10.038 2.3345 2.3345 12.139 7.0034l-9.3378-10.272-5.3692-6.7699" fill="url(#gradient15-2)"/><path d="m95.688 185.27q0.46689 7.7037 2.8013 10.038l12.839 10.272-6.7699-10.738-8.8709-9.5712" fill="url(#gradient16-1)"/><path d="m104.09 181.77q3.2682 11.205 5.6027 13.54 2.3344 2.3344 9.1044 3.5017l-6.5365-7.2368-8.1706-9.8047" fill="url(#gradient17-4)"/><path d="m111.1 177.57q0.46689 7.7037 2.8013 10.038l12.839 9.5713-10.272-13.073-5.3692-6.5365" fill="url(#gradient18-3)"/><path d="m108.29 225.19q4.6689-0.70034-2.101-4.4355l-12.606-6.5365q-4.202-2.5679-9.8047-11.205-5.1358-7.4702-5.8361-10.505-0.70034-3.0348-5.3692-5.3692 0.93378 14.007 7.0034 21.477 16.341 19.376 28.714 16.575" fill="url(#gradient19-2)"/><path d="m244.63 287.52q1.6341-2.101-0.70034-3.7351-35.25-30.815-59.295-45.522-24.745-14.94-27.78-14.474-2.5679-0.46689-3.0348 2.101t2.101 3.0348q2.3344-0.46689 25.912 14.007 23.811 14.474 59.062 45.055 2.101 1.6341 3.7351-0.4669" fill="url(#gradient20-5)"/><path d="m141.68 243.87q0.23344-1.6341 2.101-4.6689-2.5679-4.9024 1.6341-11.906 4.6689-7.2368 12.606-6.303l3.9686-2.8013-20.543-22.177-38.052 21.944 2.5679 10.038 35.717 15.874" fill="url(#gradient21-5)"/><path d="m137.71 235.93q2.3344-10.272 8.6375-14.94 4.9024-3.7351 9.1044-4.4355l-14.707-15.407-31.982 19.143 1.1672 4.6689 27.78 10.972" fill="url(#gradient22-3)"/><path d="m143.08 218.19q3.0348-0.93378 6.303-3.2682l-10.272-10.738-26.379 15.641q18.209 7.4702 21.01 5.8361l9.3378-7.4702" fill="url(#gradient23-5)"/><path d="m137.47 204.88-20.543 12.373q10.972 0.93378 16.808-2.8014 4.6689-3.0348 3.7351-9.5712" fill="url(#gradient24-7)"/><path d="m150.78 227.29q0 4.9024 5.8361 4.9024 5.6027 0 5.6027-4.9024t-5.6027-4.9024q-5.8361 0-5.8361 4.9024" fill="url(#gradient25-3)"/><path d="m118.57 216.32q0 1.8676 3.2682 1.8676 3.0348 0 3.0348-1.8676 0-1.8676-3.0348-1.8676-3.2682 0-3.2682 1.8676" fill="#fff"/><path d="m108.76 220.29 0.46689 2.3344 23.811 8.8709q4.9024 1.6341 5.3692-3.7351-8.1706 1.4007-29.648-7.4702" fill="#fff"/></g></g></svg>
