<?xml version="1.0" encoding="UTF-8" standalone="no"?>
<svg
   inkscape:export-ydpi="96"
   inkscape:export-xdpi="96"
   inkscape:export-filename="/media/klapeto/Αρχεία/WindowsXP Theme/Vectors/RASTER/zip-file.png"
   width="256"
   height="256"
   viewBox="0 0 256 256"
   version="1.1"
   id="svg8"
   inkscape:version="1.1.1 (3bf5ae0d25, 2021-09-20)"
   sodipodi:docname="zip-file.svg"
   xmlns:inkscape="http://www.inkscape.org/namespaces/inkscape"
   xmlns:sodipodi="http://sodipodi.sourceforge.net/DTD/sodipodi-0.dtd"
   xmlns:xlink="http://www.w3.org/1999/xlink"
   xmlns="http://www.w3.org/2000/svg"
   xmlns:svg="http://www.w3.org/2000/svg"
   xmlns:rdf="http://www.w3.org/1999/02/22-rdf-syntax-ns#"
   xmlns:cc="http://creativecommons.org/ns#"
   xmlns:dc="http://purl.org/dc/elements/1.1/">
  <defs
     id="defs2">
    <linearGradient
       inkscape:collect="always"
       id="linearGradient18728">
      <stop
         style="stop-color:#d9d9d9;stop-opacity:1"
         offset="0"
         id="stop18724" />
      <stop
         style="stop-color:#7a7a7a;stop-opacity:1"
         offset="1"
         id="stop18726" />
    </linearGradient>
    <linearGradient
       inkscape:collect="always"
       id="linearGradient14904">
      <stop
         style="stop-color:#cacaca;stop-opacity:1"
         offset="0"
         id="stop14900" />
      <stop
         style="stop-color:#404040;stop-opacity:1"
         offset="1"
         id="stop14902" />
    </linearGradient>
    <linearGradient
       inkscape:collect="always"
       id="linearGradient14163">
      <stop
         style="stop-color:#d9d9d9;stop-opacity:1;"
         offset="0"
         id="stop14159" />
      <stop
         style="stop-color:#979797;stop-opacity:1"
         offset="1"
         id="stop14161" />
    </linearGradient>
    <linearGradient
       id="linearGradient1636"
       inkscape:collect="always">
      <stop
         id="stop1632"
         offset="0"
         style="stop-color:#ffda74;stop-opacity:1" />
      <stop
         style="stop-color:#fffe98;stop-opacity:1"
         offset="0.5"
         id="stop2116" />
      <stop
         id="stop1634"
         offset="1"
         style="stop-color:#ffffd8;stop-opacity:1" />
    </linearGradient>
    <linearGradient
       id="linearGradient1618"
       inkscape:collect="always">
      <stop
         id="stop1614"
         offset="0"
         style="stop-color:#ffdd77;stop-opacity:1" />
      <stop
         id="stop1616"
         offset="1"
         style="stop-color:#ffff99;stop-opacity:1" />
    </linearGradient>
    <linearGradient
       gradientTransform="matrix(5.3300096,0,0,5.3300096,137.85899,6.5878482)"
       gradientUnits="userSpaceOnUse"
       y2="4.9200902"
       x2="-17.44005"
       y1="8.598959"
       x1="-17.4625"
       id="linearGradient1620"
       xlink:href="#linearGradient1618"
       inkscape:collect="always" />
    <linearGradient
       y2="8.9189568"
       x2="-31.690252"
       y1="14.209696"
       x1="-31.671658"
       gradientTransform="matrix(5.3300096,0,0,5.3300096,214.22183,-24.407102)"
       gradientUnits="userSpaceOnUse"
       id="linearGradient1707"
       xlink:href="#linearGradient1636"
       inkscape:collect="always" />
    <filter
       height="1.0954978"
       y="-0.047748879"
       width="1.0965075"
       x="-0.048253773"
       id="filter930"
       style="color-interpolation-filters:sRGB"
       inkscape:collect="always">
      <feGaussianBlur
         id="feGaussianBlur932"
         stdDeviation="3.7667299"
         inkscape:collect="always" />
    </filter>
    <linearGradient
       inkscape:collect="always"
       xlink:href="#linearGradient18728"
       id="linearGradient14165"
       x1="175.28059"
       y1="88.325645"
       x2="197.43788"
       y2="88.621971"
       gradientUnits="userSpaceOnUse" />
    <linearGradient
       inkscape:collect="always"
       xlink:href="#linearGradient14163"
       id="linearGradient14325"
       x1="162.34615"
       y1="111.21422"
       x2="189.73462"
       y2="111.21429"
       gradientUnits="userSpaceOnUse" />
    <linearGradient
       inkscape:collect="always"
       xlink:href="#linearGradient14904"
       id="linearGradient14906"
       x1="179.87996"
       y1="86.96306"
       x2="191.76706"
       y2="86.96306"
       gradientUnits="userSpaceOnUse" />
    <filter
       inkscape:collect="always"
       style="color-interpolation-filters:sRGB"
       id="filter33115"
       x="-0.07015096"
       y="-0.03648078"
       width="1.1403019"
       height="1.0729616">
      <feGaussianBlur
         inkscape:collect="always"
         stdDeviation="1.0137972"
         id="feGaussianBlur33117" />
    </filter>
  </defs>
  <sodipodi:namedview
     showguides="false"
     id="base"
     pagecolor="#ffffff"
     bordercolor="#666666"
     borderopacity="1.0"
     inkscape:pageopacity="0.0"
     inkscape:pageshadow="2"
     inkscape:zoom="6.6512232"
     inkscape:cx="24.50677"
     inkscape:cy="115.31713"
     inkscape:document-units="px"
     inkscape:current-layer="layer1"
     inkscape:document-rotation="0"
     showgrid="false"
     units="px"
     inkscape:window-width="3840"
     inkscape:window-height="2045"
     inkscape:window-x="3840"
     inkscape:window-y="0"
     inkscape:window-maximized="1"
     inkscape:snap-bbox="true"
     inkscape:bbox-nodes="true"
     fit-margin-top="0"
     fit-margin-left="0"
     fit-margin-right="0"
     fit-margin-bottom="0"
     inkscape:bbox-paths="false"
     inkscape:snap-global="true"
     inkscape:pagecheckerboard="0"
     scale-x="0.26458">
    <inkscape:grid
       type="xygrid"
       id="grid1504"
       originx="0"
       originy="0" />
    <inkscape:grid
       type="xygrid"
       id="grid1507"
       spacingx="0.13229167"
       spacingy="0.13229167"
       originx="0"
       originy="0" />
  </sodipodi:namedview>
  <metadata
     id="metadata5">
    <rdf:RDF>
      <cc:Work
         rdf:about="">
        <dc:format>image/svg+xml</dc:format>
        <dc:type
           rdf:resource="http://purl.org/dc/dcmitype/StillImage" />
      </cc:Work>
    </rdf:RDF>
  </metadata>
  <g
     inkscape:label="Layer 1"
     inkscape:groupmode="layer"
     id="layer1"
     transform="translate(-12.567709)">
    <g
       id="g945"
       transform="matrix(3.779549,0,0,3.779549,-34.932535,-2.1406975e-5)">
      <g
         id="g923"
         transform="matrix(0.26458333,0,0,0.26458333,12.567709,0)"
         style="opacity:1">
        <path
           id="path925"
           style="color:#000000;font-style:normal;font-variant:normal;font-weight:normal;font-stretch:normal;font-size:medium;line-height:normal;font-family:sans-serif;font-variant-ligatures:normal;font-variant-position:normal;font-variant-caps:normal;font-variant-numeric:normal;font-variant-alternates:normal;font-variant-east-asian:normal;font-feature-settings:normal;font-variation-settings:normal;text-indent:0;text-align:start;text-decoration:none;text-decoration-line:none;text-decoration-style:solid;text-decoration-color:#000000;letter-spacing:normal;word-spacing:normal;text-transform:none;writing-mode:lr-tb;direction:ltr;text-orientation:mixed;dominant-baseline:auto;baseline-shift:baseline;text-anchor:start;white-space:normal;shape-padding:0;shape-margin:0;inline-size:0;clip-rule:nonzero;display:inline;overflow:visible;visibility:visible;isolation:auto;mix-blend-mode:normal;color-interpolation:sRGB;color-interpolation-filters:linearRGB;solid-color:#000000;solid-opacity:1;vector-effect:none;fill:#212121;fill-opacity:1;fill-rule:nonzero;stroke:none;stroke-width:5.33;stroke-linecap:butt;stroke-linejoin:round;stroke-miterlimit:4;stroke-dasharray:none;stroke-dashoffset:0;stroke-opacity:1;filter:url(#filter930);color-rendering:auto;image-rendering:auto;shape-rendering:auto;text-rendering:auto;enable-background:accumulate;stop-color:#000000;stop-opacity:1"
           d="m 100.11155,39.561045 a 2.6652634,2.6652665 0 0 0 -0.265622,0.01172 l -53.300719,5.330078 a 2.6652634,2.6652665 0 0 0 -2.064451,1.357422 L 31.156554,70.244639 a 2.6652634,2.6652665 0 0 0 -0.33203,1.43164 l 6.996085,135.259771 -0.871092,19.16601 a 2.6652634,2.6652665 0 0 0 3.265621,2.7168 l 0.580077,-0.13477 a 2.6652634,2.6652665 0 0 0 1.320311,0.0137 L 68.470964,222.22708 200.1173,191.51029 a 2.6652634,2.6652665 0 0 0 2.02734,-2.17969 l -0.01,0.0781 0.36132,-0.0898 a 2.6652634,2.6652665 0 0 0 2.01171,-2.27344 L 218.14853,71.967295 a 2.6652634,2.6652665 0 0 0 -1.45508,-2.697266 L 206.0333,63.939951 a 2.6652634,2.6652665 0 0 0 -1.65429,-0.242187 l -2.87109,0.505859 -0.12695,-6.044922 a 2.6652634,2.6652665 0 0 0 -0.7793,-1.828125 l -5.33008,-5.330078 a 2.6652634,2.6652665 0 0 0 -2.24803,-0.755859 L 117.29122,60.691904 102.24436,40.625498 a 2.6652634,2.6652665 0 0 0 -2.13281,-1.064453 z" />
      </g>
      <g
         id="g890">
        <path
           id="path1612"
           d="M 62.411605,12.933892 41.963236,15.754354 37.732541,10.113428 23.630226,11.52366 20.104643,17.869703 22.219996,58.766424 64.526947,48.189685 63.821835,14.344123 Z"
           style="fill:url(#linearGradient1620);fill-opacity:1;stroke:none;stroke-width:1.41023;stroke-linecap:butt;stroke-linejoin:round;stroke-miterlimit:4;stroke-dasharray:none;stroke-opacity:1"
           sodipodi:nodetypes="ccccccccc" />
        <path
           sodipodi:nodetypes="cccccc"
           id="path1624"
           d="m 63.262413,14.224854 -21.83746,2.908994 -4.309446,-5.568952 -12.643044,1.272704 -3.018672,5.381401 1.308064,28.040718"
           style="fill:none;stroke:#fff9ec;stroke-width:1.41023;stroke-linecap:round;stroke-linejoin:miter;stroke-miterlimit:4;stroke-dasharray:none;stroke-opacity:1" />
        <path
           sodipodi:nodetypes="ccccccccc"
           style="fill:none;fill-opacity:1;stroke:#cc9900;stroke-width:1.41023;stroke-linecap:butt;stroke-linejoin:round;stroke-miterlimit:4;stroke-dasharray:none;stroke-opacity:1"
           d="M 62.411605,12.933892 41.963236,15.754354 37.732541,10.113428 23.630226,11.52366 20.104643,17.869703 22.219996,58.766424 64.526947,48.189685 63.821835,14.344123 Z"
           id="path1717" />
        <path
           style="fill:url(#linearGradient1707);fill-opacity:1;stroke:none;stroke-width:1.41023px;stroke-linecap:butt;stroke-linejoin:round;stroke-opacity:1"
           d="m 21.7252,58.796571 1.410235,-31.0251 14.102316,-2.820464 4.230695,-4.230695 23.973941,-4.230695 2.820465,1.410232 -4.230695,31.025101 z"
           id="path1626-4" />
        <path
           style="fill:none;stroke:none;stroke-width:1.41023px;stroke-linecap:butt;stroke-linejoin:miter;stroke-opacity:1"
           d="M 67.557729,19.310082 65.442387,17.89985 42.173564,22.130545 37.942868,26.361241 24.545665,29.181704 23.13543,57.386341"
           id="path1640-8"
           sodipodi:nodetypes="ccccc" />
        <path
           sodipodi:nodetypes="cc"
           id="path2159"
           d="m 63.925264,18.17214 0.734907,30.186814"
           style="fill:none;fill-opacity:1;stroke:#ffcc66;stroke-width:1.41023px;stroke-linecap:butt;stroke-linejoin:miter;stroke-opacity:1" />
        <path
           sodipodi:nodetypes="ccccccc"
           id="path1652-8"
           d="m 67.666435,19.166448 -2.486354,-1.234287 -23.043918,4.04915 -4.324184,3.970376 -10.792843,1.473686 -1.668932,1.433253 -1.752769,29.126008"
           style="fill:none;stroke:#fff9ec;stroke-width:1.41023px;stroke-linecap:butt;stroke-linejoin:miter;stroke-opacity:1" />
        <path
           sodipodi:nodetypes="ccccccccc"
           id="path1650-9"
           d="m 26.445313,26.124659 10.834023,-1.466291 4.18911,-3.938056 23.973941,-4.230695 2.820465,1.410232 -3.608859,30.447544 -42.433997,10.419031 1.811926,-30.612902 z"
           style="fill:none;fill-opacity:1;stroke:#cc9900;stroke-width:1.41022117;stroke-linecap:round;stroke-linejoin:round;stroke-miterlimit:4;stroke-dasharray:none;stroke-opacity:1" />
      </g>
    </g>
    <path
       style="fill:none;stroke:#a4a4a4;stroke-width:5.33;stroke-linecap:round;stroke-linejoin:miter;stroke-miterlimit:4;stroke-dasharray:none;stroke-opacity:1"
       d="M 167.28263,83.693258 201.46249,78.16527"
       id="path913"
       sodipodi:nodetypes="cc" />
    <path
       style="fill:none;stroke:#a4a4a4;stroke-width:5.33;stroke-linecap:round;stroke-linejoin:miter;stroke-miterlimit:4;stroke-dasharray:none;stroke-opacity:1"
       d="m 167.28263,94.551246 34.17986,-5.527988"
       id="path913-5"
       sodipodi:nodetypes="cc" />
    <path
       style="fill:none;stroke:#a4a4a4;stroke-width:5.33;stroke-linecap:round;stroke-linejoin:miter;stroke-miterlimit:4;stroke-dasharray:none;stroke-opacity:1"
       d="m 167.28263,105.40923 34.17986,-5.527984"
       id="path913-3"
       sodipodi:nodetypes="cc" />
    <path
       style="fill:none;stroke:#a4a4a4;stroke-width:5.33;stroke-linecap:round;stroke-linejoin:miter;stroke-miterlimit:4;stroke-dasharray:none;stroke-opacity:1"
       d="m 167.28263,116.26722 34.17986,-5.52799"
       id="path913-5-5"
       sodipodi:nodetypes="cc" />
    <path
       style="fill:none;stroke:#a4a4a4;stroke-width:5.33;stroke-linecap:round;stroke-linejoin:miter;stroke-miterlimit:4;stroke-dasharray:none;stroke-opacity:1"
       d="m 167.28263,127.12521 34.17986,-5.52799"
       id="path913-6"
       sodipodi:nodetypes="cc" />
    <path
       style="fill:none;stroke:#a4a4a4;stroke-width:5.33;stroke-linecap:round;stroke-linejoin:miter;stroke-miterlimit:4;stroke-dasharray:none;stroke-opacity:1"
       d="m 167.28263,137.9832 34.17986,-5.52799"
       id="path913-5-2"
       sodipodi:nodetypes="cc" />
    <path
       style="fill:none;stroke:#a4a4a4;stroke-width:5.33;stroke-linecap:round;stroke-linejoin:miter;stroke-miterlimit:4;stroke-dasharray:none;stroke-opacity:1"
       d="m 167.28263,148.84119 34.17986,-5.52799"
       id="path913-9"
       sodipodi:nodetypes="cc" />
    <path
       style="fill:none;stroke:#a4a4a4;stroke-width:5.33;stroke-linecap:round;stroke-linejoin:miter;stroke-miterlimit:4;stroke-dasharray:none;stroke-opacity:1"
       d="m 167.28263,159.69918 34.17986,-5.52799"
       id="path913-5-1"
       sodipodi:nodetypes="cc" />
    <path
       style="fill:none;stroke:#a4a4a4;stroke-width:5.33;stroke-linecap:round;stroke-linejoin:miter;stroke-miterlimit:4;stroke-dasharray:none;stroke-opacity:1"
       d="m 167.16705,169.31689 34.17986,-5.52799"
       id="path913-0"
       sodipodi:nodetypes="cc" />
    <path
       style="fill:none;stroke:#a4a4a4;stroke-width:5.33;stroke-linecap:round;stroke-linejoin:miter;stroke-miterlimit:4;stroke-dasharray:none;stroke-opacity:1"
       d="m 167.16705,180.17488 34.17986,-5.52799"
       id="path913-5-9"
       sodipodi:nodetypes="cc" />
    <path
       style="fill:#a4a4a4;stroke:#5b5b5b;stroke-width:8;stroke-linecap:round;stroke-linejoin:miter;stroke-opacity:1;stroke-miterlimit:4;stroke-dasharray:none;fill-opacity:1"
       d="M 183.99045,80.362654 V 179.6968"
       id="path2250" />
    <path
       id="path32954"
       style="fill:#212121;fill-opacity:1;stroke:none;stroke-width:5;stroke-linecap:butt;stroke-linejoin:miter;stroke-miterlimit:4;stroke-dasharray:none;stroke-opacity:1;filter:url(#filter33115)"
       d="m 187.36308,71.801113 c -0.036,0.0327 -0.0683,0.06668 -0.10351,0.09961 -0.65304,0.03723 -1.3277,0.09003 -2.04493,0.171875 -7.90202,0.901686 -11.65263,7.293184 -12.04882,13.052734 -0.78106,8.344609 3.68868,17.937888 4.89453,20.349608 -0.63395,2.57603 -1.1472,5.22537 -1.48828,7.85742 -0.87503,6.75231 -0.71997,13.36775 1.70117,18.3418 1.21057,2.48702 3.07513,4.57271 5.6289,5.74414 2.55378,1.17143 5.67953,1.39856 9.28711,0.63281 5.97065,-1.26733 10.00504,-5.57588 12.19336,-10.89258 2.18833,-5.31669 2.73832,-11.70202 2.16407,-17.92578 -0.46513,-5.04115 -1.68044,-9.96096 -3.50586,-14.144527 0.31829,-5.799477 0.0536,-11.679166 -1.70704,-14.701172 -3.33067,-5.716753 -6.5905,-8.854591 -14.67187,-8.501953 -0.10826,-0.03748 -0.21099,-0.06825 -0.29883,-0.08398 z m 4.7168,44.273437 c 1.16073,1.2e-4 2.26329,0.59061 3.18359,1.78516 0.9203,1.19454 1.56029,2.9677 1.56055,4.96874 9e-5,2.00136 -0.63824,3.77583 -1.55859,4.97071 -0.92034,1.19488 -2.02462,1.78503 -3.18555,1.78515 -1.16093,-1.2e-4 -2.26324,-0.59027 -3.1836,-1.78515 -0.92034,-1.19488 -1.56063,-2.96935 -1.56054,-4.97071 2.5e-4,-2.00104 0.64026,-3.7742 1.56054,-4.96874 0.9203,-1.19456 2.02286,-1.78504 3.1836,-1.78516 z"
       transform="matrix(1.0925463,0,0,1.0925463,-17.596038,-9.7311457)" />
    <g
       id="g27681"
       transform="matrix(1.0925463,0,0,1.0925463,-14.364338,-9.7311457)">
      <path
         style="fill:url(#linearGradient14165);fill-opacity:1;stroke:none;stroke-width:5;stroke-linecap:butt;stroke-linejoin:miter;stroke-miterlimit:4;stroke-dasharray:none;stroke-opacity:1"
         d="m 167.54618,89.319607 c 2.17694,8.632578 3.80121,15.742093 7.36767,21.894613 l 21.00476,-0.56348 c 0.90363,-2.5992 4.37998,-23.528286 0.45618,-30.263062 -3.65017,-6.265142 -7.19522,-9.447459 -17.11875,-8.315104 -9.92352,1.132356 -13.30441,10.923906 -11.70986,17.247033 z"
         id="path11210"
         sodipodi:nodetypes="sccsss" />
      <path
         style="fill:#b3b3b3;fill-opacity:1;stroke:none;stroke-width:1px;stroke-linecap:butt;stroke-linejoin:miter;stroke-opacity:1"
         d="m 175.34716,73.083224 c -8.18489,10.057227 -1.36551,24.735626 1.48797,29.461786 l -4.41434,3.55838 c 0,0 -13.71376,-25.692694 2.92637,-33.020166 z"
         id="path14503"
         sodipodi:nodetypes="cccc" />
      <path
         id="path12193"
         style="fill:url(#linearGradient14325);fill-opacity:1;stroke:#7f7f7f;stroke-width:3.66117207;stroke-linecap:butt;stroke-linejoin:miter;stroke-miterlimit:4;stroke-dasharray:none;stroke-opacity:1"
         d="m 173.17188,85.933594 c -0.11359,-0.0017 -0.2274,-3.1e-5 -0.3418,0.0039 -0.23243,0.008 -0.46746,0.02869 -0.70313,0.06055 -8.6417,1.168277 -24.32255,55.708656 2.1211,50.095706 21.09559,-4.47776 13.34885,-49.942336 -1.07617,-50.160159 z m 0.54687,6.298828 c 3.33051,-7.45e-4 6.03092,2.698784 6.03125,6.029297 7.5e-4,3.331281 -2.69997,6.032001 -6.03125,6.031251 -3.33052,-3.3e-4 -4.63356,-2.9273 -4.63281,-6.257814 3.3e-4,-3.329751 1.30306,-5.802402 4.63281,-5.802734 z m -0.16406,21.841798 a 6.7447047,8.7553434 0 0 1 6.74414,8.7539 6.7447047,8.7553434 0 0 1 -6.74414,8.75586 6.7447047,8.7553434 0 0 1 -6.74414,-8.75586 6.7447047,8.7553434 0 0 1 6.74414,-8.7539 z"
         transform="translate(12.567709)" />
      <path
         style="fill:url(#linearGradient14906);fill-opacity:1;stroke:none;stroke-width:1px;stroke-linecap:butt;stroke-linejoin:miter;stroke-opacity:1"
         d="m 181.74579,83.660421 c 4.15895,-0.09144 4.97989,8.807887 2.05241,14.775748 -0.34717,1.569841 -0.22358,4.846581 3.74105,3.689841 14.42174,-14.561868 -3.0318,-29.614629 -6.22872,-30.187226 -4.0106,3.642947 -3.07132,8.537498 0.43526,11.721637 z"
         id="path14737"
         sodipodi:nodetypes="ccccc" />
    </g>
  </g>
</svg>
