<?xml version="1.0" encoding="UTF-8" standalone="no"?>
<svg
   inkscape:export-ydpi="96"
   inkscape:export-xdpi="96"
   inkscape:export-filename="/media/klapeto/Αρχεία/WindowsXP Theme/Vectors/RASTER/tag-delete.png"
   inkscape:version="1.1.1 (3bf5ae0d25, 2021-09-20)"
   sodipodi:docname="tag-delete.svg"
   id="svg19"
   version="1.1"
   width="256"
   height="256"
   xmlns:inkscape="http://www.inkscape.org/namespaces/inkscape"
   xmlns:sodipodi="http://sodipodi.sourceforge.net/DTD/sodipodi-0.dtd"
   xmlns:xlink="http://www.w3.org/1999/xlink"
   xmlns="http://www.w3.org/2000/svg"
   xmlns:svg="http://www.w3.org/2000/svg"
   xmlns:rdf="http://www.w3.org/1999/02/22-rdf-syntax-ns#"
   xmlns:cc="http://creativecommons.org/ns#"
   xmlns:dc="http://purl.org/dc/elements/1.1/">
  <metadata
     id="metadata23">
    <rdf:RDF>
      <cc:Work
         rdf:about="">
        <dc:format>image/svg+xml</dc:format>
        <dc:type
           rdf:resource="http://purl.org/dc/dcmitype/StillImage" />
      </cc:Work>
    </rdf:RDF>
  </metadata>
  <sodipodi:namedview
     inkscape:current-layer="svg19"
     inkscape:window-maximized="1"
     inkscape:window-y="0"
     inkscape:window-x="3840"
     inkscape:cy="73.803782"
     inkscape:cx="-342.77757"
     inkscape:zoom="1.2194497"
     showgrid="false"
     id="namedview21"
     inkscape:window-height="2045"
     inkscape:window-width="3840"
     inkscape:pageshadow="2"
     inkscape:pageopacity="0"
     guidetolerance="10"
     gridtolerance="10"
     objecttolerance="10"
     borderopacity="1"
     bordercolor="#666666"
     pagecolor="#ffffff"
     inkscape:document-rotation="0"
     inkscape:snap-bbox="true"
     inkscape:bbox-paths="true"
     inkscape:bbox-nodes="true"
     inkscape:pagecheckerboard="0">
    <inkscape:grid
       type="xygrid"
       id="grid872" />
    <inkscape:grid
       type="xygrid"
       id="grid848"
       spacingx="0.5"
       spacingy="0.5" />
  </sodipodi:namedview>
  <defs
     id="defs17">
    <filter
       inkscape:collect="always"
       style="color-interpolation-filters:sRGB"
       id="filter1308"
       x="-0.048230283"
       width="1.0964606"
       y="-0.047771907"
       height="1.0955438">
      <feGaussianBlur
         inkscape:collect="always"
         stdDeviation="2.5612192"
         id="feGaussianBlur1310" />
    </filter>
    <filter
       height="1.1175143"
       y="-0.058757137"
       width="1.0811443"
       x="-0.040572138"
       id="filter1174"
       style="color-interpolation-filters:sRGB"
       inkscape:collect="always">
      <feGaussianBlur
         id="feGaussianBlur1176"
         stdDeviation="4.0984858"
         inkscape:collect="always" />
    </filter>
    <linearGradient
       gradientUnits="userSpaceOnUse"
       y2="12"
       x2="80"
       y1="27"
       x1="80"
       id="linearGradient882"
       xlink:href="#linearGradient880"
       inkscape:collect="always" />
    <linearGradient
       id="linearGradient880"
       inkscape:collect="always">
      <stop
         id="stop876"
         offset="0"
         style="stop-color:#d2e8ff;stop-opacity:1" />
      <stop
         id="stop878"
         offset="1"
         style="stop-color:#ffffff;stop-opacity:1" />
    </linearGradient>
  </defs>
  <path
     d="m 31.443359,70.62815 c -14.602482,0 -26.4433588,11.842829 -26.4433588,26.445311 V 168.1555 c 0,14.60248 11.8408758,26.44335 26.4433588,26.44335 h 19.732422 l -16.640625,39.625 a 2.750275,2.750275 0 0 0 4.341797,3.13672 L 87.933594,194.59885 H 220.99805 c 14.60248,0 26.44336,-11.84087 26.44336,-26.44335 V 97.073461 c 0,-14.602482 -11.84088,-26.445311 -26.44336,-26.445311 z"
     style="color:#000000;font-style:normal;font-variant:normal;font-weight:normal;font-stretch:normal;font-size:medium;line-height:normal;font-family:sans-serif;font-variant-ligatures:normal;font-variant-position:normal;font-variant-caps:normal;font-variant-numeric:normal;font-variant-alternates:normal;font-variant-east-asian:normal;font-feature-settings:normal;font-variation-settings:normal;text-indent:0;text-align:start;text-decoration:none;text-decoration-line:none;text-decoration-style:solid;text-decoration-color:#000000;letter-spacing:normal;word-spacing:normal;text-transform:none;writing-mode:lr-tb;direction:ltr;text-orientation:mixed;dominant-baseline:auto;baseline-shift:baseline;text-anchor:start;white-space:normal;shape-padding:0;shape-margin:0;inline-size:0;clip-rule:nonzero;display:inline;overflow:visible;visibility:visible;isolation:auto;mix-blend-mode:normal;color-interpolation:sRGB;color-interpolation-filters:linearRGB;solid-color:#000000;solid-opacity:1;vector-effect:none;fill:#212121;fill-opacity:1;fill-rule:evenodd;stroke:none;stroke-width:5.5;stroke-linecap:round;stroke-linejoin:round;stroke-miterlimit:4;stroke-dasharray:none;stroke-dashoffset:0;stroke-opacity:1;filter:url(#filter1174);color-rendering:auto;image-rendering:auto;shape-rendering:auto;text-rendering:auto;enable-background:accumulate;stop-color:#000000"
     id="path1153" />
  <g
     style="stroke-width:0.696375;stroke-miterlimit:4;stroke-dasharray:none"
     transform="matrix(7.8980445,0,0,7.8980445,-514.57191,-13.55092)"
     id="g967">
    <path
       id="rect874"
       style="fill:url(#linearGradient882);fill-opacity:1;fill-rule:evenodd;stroke:#636394;stroke-width:0.696375;stroke-linecap:round;stroke-linejoin:round;stroke-miterlimit:4;stroke-dasharray:none;stroke-opacity:1;stop-color:#000000"
       d="m 68.5,10.5 h 24 c 1.662,0 3,1.338 3,3 v 9 c 0,1.662 -1.338,3 -3,3 H 75.521987 L 69.212416,31 71.521987,25.5 H 68.5 c -1.662,0 -3,-1.338 -3,-3 v -9 c 0,-1.662 1.338,-3 3,-3 z"
       sodipodi:nodetypes="ssssscccssss" />
    <rect
       style="fill:#ffffff;fill-opacity:1;fill-rule:evenodd;stroke:#636394;stroke-width:0.696375;stroke-linecap:round;stroke-linejoin:round;stroke-miterlimit:4;stroke-dasharray:none;stroke-opacity:1;stop-color:#000000"
       id="rect884"
       width="7"
       height="7"
       x="69"
       y="14" />
    <path
       style="fill:none;stroke:#636394;stroke-width:0.696375;stroke-linecap:butt;stroke-linejoin:miter;stroke-miterlimit:4;stroke-dasharray:none;stroke-opacity:1"
       d="M 78,15 H 92"
       id="path886" />
    <path
       id="path886-3"
       d="M 78,17.5 H 92"
       style="fill:none;stroke:#636394;stroke-width:0.696375;stroke-linecap:butt;stroke-linejoin:miter;stroke-miterlimit:4;stroke-dasharray:none;stroke-opacity:1" />
    <path
       id="path886-6"
       d="M 78,20 H 92"
       style="fill:none;stroke:#636394;stroke-width:0.696375;stroke-linecap:butt;stroke-linejoin:miter;stroke-miterlimit:4;stroke-dasharray:none;stroke-opacity:1" />
  </g>
  <g
     id="g1159"
     transform="translate(-439.87115,-194.81905)">
    <path
       d="m 576.38905,201.32577 c -3.30732,-0.072 -6.60119,0.9084 -9.26367,2.82226 -3.04284,2.18724 -5.35609,5.94147 -5.42969,10.25196 -0.0692,4.31048 1.89968,8.72767 5.67774,12.97851 3.61424,4.06638 19.83245,21.08894 39.33593,40.23047 -14.08851,12.35895 -27.26729,25.5581 -38.32226,40.45703 -3.2408,4.36782 -4.48649,9.30709 -2.77149,13.38282 1.715,4.07568 5.31602,6.07794 8.65235,7.21093 3.33632,1.13287 6.76514,1.47539 9.8457,1.28516 1.54023,-0.0923 2.97294,-0.31139 4.43945,-0.83399 1.46651,-0.52144 3.43565,-1.25427 4.5293,-3.98828 5.41464,-13.5366 16.88257,-28.12134 30,-41.72851 17.15275,16.22495 34.86439,31.91922 47.84766,40.87109 2.39865,1.65397 5.01668,2.58248 7.63867,2.86328 2.62188,0.28033 5.45659,0.0919 8.02148,-2.05078 2.56477,-2.14161 3.1863,-6.57043 1.91407,-9.62109 -1.27211,-3.05068 -3.59943,-5.70713 -7.27735,-8.81055 -15.09868,-12.74048 -29.06396,-26.08493 -41.67969,-39.15625 13.75089,-12.49064 27.37908,-23.20009 36.47461,-30.03906 2.60861,-1.96141 4.50223,-4.51992 4.91211,-7.54883 0.40955,-3.02892 -0.98428,-6.03335 -3.01953,-7.79687 -4.07016,-3.52707 -10.41635,-3.43744 -15.25391,0.45117 -12.27403,9.86695 -25.00454,19.55084 -37.45312,29.57617 -15.14278,-16.74456 -27.78297,-32.4176 -37.33008,-44.98828 -2.62764,-3.45973 -6.30251,-5.29408 -10.07226,-5.72266 -0.47122,-0.0536 -0.94355,-0.0854 -1.41602,-0.0957 z"
       style="color:#000000;font-style:normal;font-variant:normal;font-weight:normal;font-stretch:normal;font-size:medium;line-height:normal;font-family:sans-serif;font-variant-ligatures:normal;font-variant-position:normal;font-variant-caps:normal;font-variant-numeric:normal;font-variant-alternates:normal;font-variant-east-asian:normal;font-feature-settings:normal;font-variation-settings:normal;text-indent:0;text-align:start;text-decoration:none;text-decoration-line:none;text-decoration-style:solid;text-decoration-color:#000000;letter-spacing:normal;word-spacing:normal;text-transform:none;writing-mode:lr-tb;direction:ltr;text-orientation:mixed;dominant-baseline:auto;baseline-shift:baseline;text-anchor:start;white-space:normal;shape-padding:0;shape-margin:0;inline-size:0;clip-rule:nonzero;display:inline;overflow:visible;visibility:visible;isolation:auto;mix-blend-mode:normal;color-interpolation:sRGB;color-interpolation-filters:linearRGB;solid-color:#000000;solid-opacity:1;vector-effect:none;fill:#212121;fill-opacity:1;fill-rule:nonzero;stroke:none;stroke-width:10;stroke-linecap:butt;stroke-linejoin:miter;stroke-miterlimit:4;stroke-dasharray:none;stroke-dashoffset:0;stroke-opacity:1;filter:url(#filter1308);color-rendering:auto;image-rendering:auto;shape-rendering:auto;text-rendering:auto;enable-background:accumulate;stop-color:#000000"
       id="path1306" />
    <path
       id="path1285"
       style="color:#000000;font-style:normal;font-variant:normal;font-weight:normal;font-stretch:normal;font-size:medium;line-height:normal;font-family:sans-serif;font-variant-ligatures:normal;font-variant-position:normal;font-variant-caps:normal;font-variant-numeric:normal;font-variant-alternates:normal;font-variant-east-asian:normal;font-feature-settings:normal;font-variation-settings:normal;text-indent:0;text-align:start;text-decoration:none;text-decoration-line:none;text-decoration-style:solid;text-decoration-color:#000000;letter-spacing:normal;word-spacing:normal;text-transform:none;writing-mode:lr-tb;direction:ltr;text-orientation:mixed;dominant-baseline:auto;baseline-shift:baseline;text-anchor:start;white-space:normal;shape-padding:0;shape-margin:0;inline-size:0;clip-rule:nonzero;display:inline;overflow:visible;visibility:visible;isolation:auto;mix-blend-mode:normal;color-interpolation:sRGB;color-interpolation-filters:linearRGB;solid-color:#000000;solid-opacity:1;vector-effect:none;fill:#df0029;fill-opacity:1;fill-rule:nonzero;stroke:none;stroke-width:10;stroke-linecap:butt;stroke-linejoin:miter;stroke-miterlimit:4;stroke-dasharray:none;stroke-dashoffset:0;stroke-opacity:1;color-rendering:auto;image-rendering:auto;shape-rendering:auto;text-rendering:auto;enable-background:accumulate;stop-color:#000000"
       d="m 571.38857,197.32577 c -3.30732,-0.072 -6.60119,0.9084 -9.26367,2.82226 -3.04284,2.18724 -5.35609,5.94147 -5.42969,10.25196 -0.0692,4.31048 1.89968,8.72767 5.67774,12.97851 3.61424,4.06638 19.83245,21.08894 39.33593,40.23047 -14.08851,12.35895 -27.26729,25.5581 -38.32226,40.45703 -3.2408,4.36782 -4.48649,9.30709 -2.77149,13.38282 1.715,4.07568 5.31602,6.07794 8.65235,7.21093 3.33632,1.13287 6.76514,1.47539 9.8457,1.28516 1.54023,-0.0923 2.97294,-0.31139 4.43945,-0.83399 1.46651,-0.52144 3.43565,-1.25427 4.5293,-3.98828 5.41464,-13.5366 16.88257,-28.12134 30,-41.72851 17.15275,16.22495 34.86439,31.91922 47.84766,40.87109 2.39865,1.65397 5.01668,2.58248 7.63867,2.86328 2.62188,0.28033 5.45659,0.0919 8.02148,-2.05078 2.56477,-2.14161 3.1863,-6.57043 1.91407,-9.62109 -1.27211,-3.05068 -3.59943,-5.70713 -7.27735,-8.81055 -15.09868,-12.74048 -29.06396,-26.08493 -41.67969,-39.15625 13.75089,-12.49064 27.37908,-23.20009 36.47461,-30.03906 2.60861,-1.96141 4.50223,-4.51992 4.91211,-7.54883 0.40955,-3.02892 -0.98428,-6.03335 -3.01953,-7.79687 -4.07016,-3.52707 -10.41635,-3.43744 -15.25391,0.45117 -12.27403,9.86695 -25.00454,19.55084 -37.45312,29.57617 -15.14278,-16.74456 -27.78297,-32.4176 -37.33008,-44.98828 -2.62764,-3.45973 -6.30251,-5.29408 -10.07226,-5.72266 -0.47122,-0.0536 -0.94355,-0.0854 -1.41602,-0.0957 z" />
  </g>
</svg>
