<?xml version="1.0" encoding="UTF-8" standalone="no"?>
<svg
   height="256"
   width="256"
   version="1.1"
   id="svg19"
   sodipodi:docname="tag-new.svg"
   inkscape:version="1.1.1 (3bf5ae0d25, 2021-09-20)"
   inkscape:export-filename="/media/klapeto/Αρχεία/WindowsXP Theme/Vectors/RASTER/tag-new.png"
   inkscape:export-xdpi="96"
   inkscape:export-ydpi="96"
   xmlns:inkscape="http://www.inkscape.org/namespaces/inkscape"
   xmlns:sodipodi="http://sodipodi.sourceforge.net/DTD/sodipodi-0.dtd"
   xmlns:xlink="http://www.w3.org/1999/xlink"
   xmlns="http://www.w3.org/2000/svg"
   xmlns:svg="http://www.w3.org/2000/svg"
   xmlns:rdf="http://www.w3.org/1999/02/22-rdf-syntax-ns#"
   xmlns:cc="http://creativecommons.org/ns#"
   xmlns:dc="http://purl.org/dc/elements/1.1/">
  <metadata
     id="metadata23">
    <rdf:RDF>
      <cc:Work
         rdf:about="">
        <dc:format>image/svg+xml</dc:format>
        <dc:type
           rdf:resource="http://purl.org/dc/dcmitype/StillImage" />
      </cc:Work>
    </rdf:RDF>
  </metadata>
  <sodipodi:namedview
     inkscape:bbox-nodes="true"
     inkscape:bbox-paths="true"
     inkscape:snap-bbox="true"
     inkscape:document-rotation="0"
     pagecolor="#ffffff"
     bordercolor="#666666"
     borderopacity="1"
     objecttolerance="10"
     gridtolerance="10"
     guidetolerance="10"
     inkscape:pageopacity="0"
     inkscape:pageshadow="2"
     inkscape:window-width="3840"
     inkscape:window-height="2045"
     id="namedview21"
     showgrid="false"
     inkscape:zoom="1.7245623"
     inkscape:cx="-422.71596"
     inkscape:cy="209.32848"
     inkscape:window-x="3840"
     inkscape:window-y="0"
     inkscape:window-maximized="1"
     inkscape:current-layer="svg19"
     inkscape:pagecheckerboard="0">
    <inkscape:grid
       id="grid872"
       type="xygrid" />
    <inkscape:grid
       type="xygrid"
       id="grid854"
       spacingx="0.5"
       spacingy="0.5" />
  </sodipodi:namedview>
  <defs
     id="defs17">
    <filter
       inkscape:collect="always"
       style="color-interpolation-filters:sRGB"
       id="filter1082"
       x="-0.047999999"
       width="1.096"
       y="-0.047999999"
       height="1.096">
      <feGaussianBlur
         inkscape:collect="always"
         stdDeviation="2.56"
         id="feGaussianBlur1084" />
    </filter>
    <filter
       height="1.1175143"
       y="-0.058757137"
       width="1.0811443"
       x="-0.040572138"
       id="filter1174"
       style="color-interpolation-filters:sRGB"
       inkscape:collect="always">
      <feGaussianBlur
         id="feGaussianBlur1176"
         stdDeviation="4.0984858"
         inkscape:collect="always" />
    </filter>
    <linearGradient
       gradientUnits="userSpaceOnUse"
       y2="12"
       x2="80"
       y1="27"
       x1="80"
       id="linearGradient882"
       xlink:href="#linearGradient880"
       inkscape:collect="always" />
    <linearGradient
       id="linearGradient880"
       inkscape:collect="always">
      <stop
         id="stop876"
         offset="0"
         style="stop-color:#d2e8ff;stop-opacity:1" />
      <stop
         id="stop878"
         offset="1"
         style="stop-color:#ffffff;stop-opacity:1" />
    </linearGradient>
  </defs>
  <path
     d="m 31.443359,70.62815 c -14.602482,0 -26.4433588,11.842829 -26.4433588,26.445311 V 168.1555 c 0,14.60248 11.8408758,26.44335 26.4433588,26.44335 h 19.732422 l -16.640625,39.625 a 2.750275,2.750275 0 0 0 4.341797,3.13672 L 87.933594,194.59885 H 220.99805 c 14.60248,0 26.44336,-11.84087 26.44336,-26.44335 V 97.073461 c 0,-14.602482 -11.84088,-26.445311 -26.44336,-26.445311 z"
     style="color:#000000;font-style:normal;font-variant:normal;font-weight:normal;font-stretch:normal;font-size:medium;line-height:normal;font-family:sans-serif;font-variant-ligatures:normal;font-variant-position:normal;font-variant-caps:normal;font-variant-numeric:normal;font-variant-alternates:normal;font-variant-east-asian:normal;font-feature-settings:normal;font-variation-settings:normal;text-indent:0;text-align:start;text-decoration:none;text-decoration-line:none;text-decoration-style:solid;text-decoration-color:#000000;letter-spacing:normal;word-spacing:normal;text-transform:none;writing-mode:lr-tb;direction:ltr;text-orientation:mixed;dominant-baseline:auto;baseline-shift:baseline;text-anchor:start;white-space:normal;shape-padding:0;shape-margin:0;inline-size:0;clip-rule:nonzero;display:inline;overflow:visible;visibility:visible;isolation:auto;mix-blend-mode:normal;color-interpolation:sRGB;color-interpolation-filters:linearRGB;solid-color:#000000;solid-opacity:1;vector-effect:none;fill:#212121;fill-opacity:1;fill-rule:evenodd;stroke:none;stroke-width:5.5;stroke-linecap:round;stroke-linejoin:round;stroke-miterlimit:4;stroke-dasharray:none;stroke-dashoffset:0;stroke-opacity:1;filter:url(#filter1174);color-rendering:auto;image-rendering:auto;shape-rendering:auto;text-rendering:auto;enable-background:accumulate;stop-color:#000000"
     id="path1153" />
  <g
     style="stroke-width:0.696375;stroke-miterlimit:4;stroke-dasharray:none"
     transform="matrix(7.8980445,0,0,7.8980445,-514.57191,-13.55092)"
     id="g967">
    <path
       id="rect874"
       style="fill:url(#linearGradient882);fill-opacity:1;fill-rule:evenodd;stroke:#636394;stroke-width:0.696375;stroke-linecap:round;stroke-linejoin:round;stroke-miterlimit:4;stroke-dasharray:none;stroke-opacity:1;stop-color:#000000"
       d="m 68.5,10.5 h 24 c 1.662,0 3,1.338 3,3 v 9 c 0,1.662 -1.338,3 -3,3 H 75.521987 L 69.212416,31 71.521987,25.5 H 68.5 c -1.662,0 -3,-1.338 -3,-3 v -9 c 0,-1.662 1.338,-3 3,-3 z"
       sodipodi:nodetypes="ssssscccssss" />
    <rect
       style="fill:#ffffff;fill-opacity:1;fill-rule:evenodd;stroke:#636394;stroke-width:0.696375;stroke-linecap:round;stroke-linejoin:round;stroke-miterlimit:4;stroke-dasharray:none;stroke-opacity:1;stop-color:#000000"
       id="rect884"
       width="7"
       height="7"
       x="69"
       y="14" />
    <path
       style="fill:none;stroke:#636394;stroke-width:0.696375;stroke-linecap:butt;stroke-linejoin:miter;stroke-miterlimit:4;stroke-dasharray:none;stroke-opacity:1"
       d="M 78,15 H 92"
       id="path886" />
    <path
       id="path886-3"
       d="M 78,17.5 H 92"
       style="fill:none;stroke:#636394;stroke-width:0.696375;stroke-linecap:butt;stroke-linejoin:miter;stroke-miterlimit:4;stroke-dasharray:none;stroke-opacity:1" />
    <path
       id="path886-6"
       d="M 78,20 H 92"
       style="fill:none;stroke:#636394;stroke-width:0.696375;stroke-linecap:butt;stroke-linejoin:miter;stroke-miterlimit:4;stroke-dasharray:none;stroke-opacity:1" />
  </g>
  <path
     id="rect1050"
     style="fill:#212121;fill-opacity:1;stroke:none;stroke-width:5.27863;stroke-linecap:round;stroke-linejoin:round;stroke-miterlimit:4;stroke-dasharray:none;stroke-opacity:1;filter:url(#filter1082)"
     d="m 188.64353,4 c -5.06514,0 -9.14258,4.0774355 -9.14258,9.142578 V 42.140625 A 27.42857,27.42857 0 0 0 176.82321,43.25 L 158.4736,24.900391 c -3.58159,-3.581595 -9.34809,-3.581597 -12.92968,0 -3.5816,3.581597 -3.5816,9.348092 0,12.929687 l 18.34961,18.34961 a 27.42857,27.42857 0 0 0 -1.10938,2.677734 H 133.7861 c -5.06514,0 -9.14257,4.077436 -9.14257,9.142578 0,5.065143 4.07743,9.142578 9.14257,9.142578 h 28.99805 a 27.42857,27.42857 0 0 0 1.10938,2.677734 l -18.34961,18.34961 c -3.5816,3.581598 -3.5816,9.348088 0,12.929688 3.58159,3.58159 9.34809,3.5816 12.92968,0 L 176.82321,92.75 a 27.42857,27.42857 0 0 0 2.67774,1.109375 v 28.998045 c 0,5.06515 4.07744,9.14258 9.14258,9.14258 5.06514,0 9.14257,-4.07743 9.14257,-9.14258 V 93.859375 A 27.42857,27.42857 0 0 0 200.46384,92.75 l 18.34961,18.34961 c 3.58159,3.58159 9.34809,3.5816 12.92969,0 3.58159,-3.5816 3.58159,-9.34809 0,-12.929688 l -18.34961,-18.34961 a 27.42857,27.42857 0 0 0 1.10937,-2.677734 h 28.99805 c 5.06514,0 9.14258,-4.077435 9.14258,-9.142578 0,-5.065142 -4.07744,-9.142578 -9.14258,-9.142578 H 214.5029 a 27.42857,27.42857 0 0 0 -1.10937,-2.677734 l 18.34961,-18.34961 c 3.58159,-3.581595 3.58159,-9.348093 0,-12.929687 -3.5816,-3.581595 -9.3481,-3.581595 -12.92969,0 L 200.46384,43.25 A 27.42857,27.42857 0 0 0 197.7861,42.140625 V 13.142578 C 197.7861,8.0774355 193.70867,4 188.64353,4 Z" />
  <g
     transform="matrix(23.03712,0,0,23.03712,198.88196,-60.952384)"
     id="g4993">
    <rect
       ry="0.39687499"
       rx="0.39687499"
       y="0.26458335"
       x="2.6458335"
       height="0.79374999"
       width="5.5562501"
       id="rect4900-2"
       style="fill:#ff3300;fill-opacity:1;stroke:none;stroke-width:0.229136;stroke-linecap:round;stroke-linejoin:round;stroke-miterlimit:4;stroke-dasharray:none;stroke-opacity:1"
       transform="rotate(90)" />
    <rect
       ry="0.39687499"
       rx="0.39687499"
       y="3.9061642"
       x="0.72176301"
       height="0.79374999"
       width="5.2916665"
       id="rect4900-0"
       style="fill:#ff3300;fill-opacity:1;stroke:none;stroke-width:0.229136;stroke-linecap:round;stroke-linejoin:round;stroke-miterlimit:4;stroke-dasharray:none;stroke-opacity:1"
       transform="rotate(45)" />
    <rect
       style="fill:#ff3300;fill-opacity:1;stroke:none;stroke-width:0.229136;stroke-linecap:round;stroke-linejoin:round;stroke-miterlimit:4;stroke-dasharray:none;stroke-opacity:1"
       id="rect4900"
       width="5.5562501"
       height="0.79374999"
       x="-3.4395831"
       y="5.0270834"
       rx="0.39687499"
       ry="0.39687499" />
    <rect
       transform="matrix(-0.70710678,0.70710678,0.70710678,0.70710678,0,0)"
       style="fill:#ff3300;fill-opacity:1;stroke:none;stroke-width:0.229136;stroke-linecap:round;stroke-linejoin:round;stroke-miterlimit:4;stroke-dasharray:none;stroke-opacity:1"
       id="rect4900-0-1"
       width="5.2916665"
       height="0.79374999"
       x="1.6572058"
       y="2.9707212"
       rx="0.39687499"
       ry="0.39687499" />
    <g
       id="g4898"
       transform="translate(-1.1906254)">
      <circle
         r="1.190625"
         cy="5.4239583"
         cx="0.52916735"
         id="path4879"
         style="fill:#ffcc00;fill-opacity:1;stroke:none;stroke-width:0.264583;stroke-linecap:round;stroke-linejoin:round;stroke-miterlimit:4;stroke-dasharray:none;stroke-opacity:1" />
      <circle
         style="fill:#ffff99;fill-opacity:1;stroke:none;stroke-width:0.264583;stroke-linecap:round;stroke-linejoin:round;stroke-miterlimit:4;stroke-dasharray:none;stroke-opacity:1"
         id="path4879-9"
         cx="0.52916735"
         cy="5.4239583"
         r="0.39687493" />
    </g>
  </g>
</svg>
