<?xml version="1.0" encoding="UTF-8"?>
<!-- Created with Inkscape (http://www.inkscape.org/) -->
<svg width="48" height="48" version="1.0" xmlns="http://www.w3.org/2000/svg" xmlns:cc="http://creativecommons.org/ns#" xmlns:dc="http://purl.org/dc/elements/1.1/" xmlns:rdf="http://www.w3.org/1999/02/22-rdf-syntax-ns#">
 <metadata>
  <rdf:RDF>
   <cc:Work rdf:about="">
    <dc:format>image/svg+xml</dc:format>
    <dc:type rdf:resource="http://purl.org/dc/dcmitype/StillImage"/>
    <cc:license rdf:resource="GPL v2 or later"/>
    <dc:rights>
     <cc:Agent>
      <dc:title>Audacity development team</dc:title>
     </cc:Agent>
    </dc:rights>
    <dc:creator>
     <cc:Agent>
      <dc:title>Aaron Spike</dc:title>
     </cc:Agent>
    </dc:creator>
    <dc:date>2009-06-14</dc:date>
   </cc:Work>
  </rdf:RDF>
 </metadata>
 <defs>
  <clipPath id="clipPath3126">
   <path d="m30 94 2 2 3 10 1-12 3 15v-19l2 5 3 14v-19l2 2 3 17 3-23 6.6157 25.92 0.38432-15.92 2-6 2 25 6-25 2 21 5-22 5 24 1-18 3-6 1 23 5-22 3 10 1-9 3 6v-19l-3 8-1-17-2 13-2-4-1-14-5 19-1-4-3-30-3 26-2 8-4-27-4 23-2 6-1-41.305-6 46.305-6-42-3 36-2-4-2-24-1 24-3 7-2-24-2 19-3-5v14l-4-15z" fill="none" stroke="#000" stroke-width="1px"/>
  </clipPath>
  <filter id="filter3242" x="-.094016" y="-.085932" width="1.188" height="1.1719" color-interpolation-filters="sRGB">
   <feGaussianBlur stdDeviation="2.92"/>
  </filter>
  <filter id="filter3282" x="-.046522" y="-.084474" width="1.093" height="1.1689" color-interpolation-filters="sRGB">
   <feGaussianBlur stdDeviation="1.3375"/>
  </filter>
  <filter id="filter3326" x=".016002" y="-.0020892" width=".968" height="1" color-interpolation-filters="sRGB">
   <feGaussianBlur stdDeviation="0.35326172"/>
  </filter>
  <filter id="filter2788" x="-.065253" y="-.081934" width="1.1305" height="1.1639" color-interpolation-filters="sRGB">
   <feGaussianBlur stdDeviation="3.588898"/>
  </filter>
  <clipPath id="clipPath2798">
   <path d="m64 6.875c-13.263-5e-7 -25.359 4.1408-34.281 11.094s-14.719 16.901-14.719 27.969v4c-8.8588 4.4885-15 16.263-15 30.062 3.5e-7 17.664 10.049 32 23 32v-66.062c1e-6 -8.2881 4.2898-15.916 11.656-21.656s17.768-9.4062 29.344-9.4062c11.575 0 21.977 3.666 29.344 9.4062 7.3664 5.7403 11.656 13.368 11.656 21.656v66.062c12.951 0 23-14.336 23-32 0-13.8-6.1412-25.574-15-30.062v-4c0-11.067-5.7962-21.016-14.719-27.969-8.9226-6.953-21.018-11.094-34.281-11.094zm-38 42.125v63c2 0 4-1 5-3v-58c-1-1-3-2-5-2zm76 0c-2 0-4 1-5 2v58c1 2 3 3 5 3z"/>
  </clipPath>
  <filter id="filter3200" x="-.017918" y="-.032626" width="1.0358" height="1.0653" color-interpolation-filters="sRGB">
   <feGaussianBlur stdDeviation="0.79830634"/>
  </filter>
 </defs>
 <g transform="matrix(.35938 0 0 .35938 0 -.2842)">
  <g transform="translate(0 .27187)">
   <path d="m61.156 42.25c-2.2944 5.7422-4.5044 15.245-7.1734 4.3129-2.0016-7.7646-6.2787 4.8657-9.3891 7.0308-6.2732 4.7687-9.7451 11.488-12.531 18.688-7.3778-6.2734-4.6104 3.7949-5.0625 8.7188 0.40218 7.3809-0.80051 15.452 0.59375 22.406 5.8547 5.1016 10.09 13.154 18.802 13.05 5.9594 2.0714 5.2131-6.9401 10.617 0.53774 4.9729 6.816 8.044 2.8308 11.29-0.52223 4.7433 7.2606 6.196-8.6873 10.197-1.534 6.1842 2.4062 11.729 3.5517 12.744-4.6104 1.27-6.4463 12.353-6.577 9.7563-14.327-0.36218-8.041 0.71936-16.656-0.53125-24.344-4.1975-3.2761-7.4361-10.841-12.219-11.5-5.9175 2.8717-3.6375-9.7897-6.0726-13.516-0.7962-9.7859-2.8923-5.3611-5.1711 1.3498-1.2609 9.6612-6.5614 5.0557-9.2689-1.2674-2.4085-2.0249-5.153-12.724-6.5812-4.4722z" fill="#f3e517" fill-rule="evenodd" filter="url(#filter3242)"/>
   <g filter="url(#filter3326)">
    <g clip-path="url(#clipPath3126)" fill-rule="evenodd">
     <path d="m28 116v-73h72v73z" fill="#ff7901"/>
     <path d="m29 80 8 5 3-9 5 6 6-10 2 12 2-8 3 6 1-6s3 8 3 7 4-15 4-15l4 13 6-12 3 13 5-9 3 9 5-5 6 6v8l-4 3-6-2-4-2-1 10-2-10-4 9-6-9-2 9-4-6-5 13-3-15-6 3-4-6-2 10-4-5-4 5-2-3-6 1z" fill="#ff0101" filter="url(#filter3282)"/>
    </g>
   </g>
   <g clip-path="url(#clipPath2798)">
    <path d="m64 6.875c-13.263-5e-7 -25.359 4.1408-34.281 11.094s-14.719 16.901-14.719 27.969v4c-8.8588 4.4885-15 16.263-15 30.062 3.5e-7 17.664 10.049 32 23 32v-66.062c1e-6 -8.2881 4.2898-15.916 11.656-21.656s17.768-9.4062 29.344-9.4062c11.575 0 21.977 3.666 29.344 9.4062 7.3664 5.7403 11.656 13.368 11.656 21.656v66.062c12.951 0 23-14.336 23-32 0-13.8-6.1412-25.574-15-30.062v-4c0-11.067-5.7962-21.016-14.719-27.969-8.9226-6.953-21.018-11.094-34.281-11.094zm-38 42.125v63c2 0 4-1 5-3v-58c-1-1-3-2-5-2zm76 0c-2 0-4 1-5 2v58c1 2 3 3 5 3z"/>
    <path d="m60 4.875c-13.263-5e-7 -25.359 4.1408-34.281 11.094s-16.719 16.901-16.719 27.969v2c-8.8588 4.4885-18 16.263-18 30.062 4e-7 17.664 12.049 28 25 28v-48c18.213-76.721 3-2.5384 3-4 0-12 7.6109-26.021 14-31 7.3664-5.7403 15.425-9 27-9 11.575 0 21.977 2.541 29.344 8.2812 7.3664 5.7403 11.656 13.368 11.656 21.656v68.062c1.1221 0 1.9398-2.7782 3-3 11.176-2.3381 19-14.866 19-31 0-13.8-4.1412-21.512-13-26l-1-8.0625c0-11.067-5.7962-21.016-14.719-27.969-8.9226-6.953-21.018-9.0937-34.281-9.0938zm-35 40.125-2 62c2 0 7-1 8-3v-57c-1-1-4-2-6-2zm74 0c-2 0-4 1-5 2v58c1 2 3 4 5 4z" fill="#00c" filter="url(#filter2788)"/>
   </g>
   <path d="m16 56c-6.7664 2.1982-9.7702 11.404-9.7702 19.404 0-8 8.5447-15.404 9.7702-19.404zm21.77-39.319c-12.447 6.7973-15.007 12.944-17.77 19.319 4.9815-7.0676 9.6342-14.355 17.77-19.319zm-9.9911 33.02 0.27234 2.5873-1.9064-2.0426 0.27234-1.3617zm81.295 0.81703 4.0852 6.4001-1.4979 1.3617z" fill="#fff" fill-rule="evenodd" filter="url(#filter3200)"/>
   <path d="m61.156 42.25c-2.2944 5.7422-4.5044 15.245-7.1734 4.3129-2.0016-7.7646-6.2787 4.8657-9.3891 7.0308-6.2732 4.7687-9.7451 11.488-12.531 18.688-7.3778-6.2734-4.6104 3.7949-5.0625 8.7188 0.40218 7.3809-0.80051 15.452 0.59375 22.406 5.8547 5.1016 10.09 13.154 18.802 13.05 5.9594 2.0714 5.2131-6.9401 10.617 0.53774 4.9729 6.816 8.044 2.8308 11.29-0.52223 4.7433 7.2606 6.196-8.6873 10.197-1.534 6.1842 2.4062 11.729 3.5517 12.744-4.6104 1.27-6.4463 12.353-6.577 9.7563-14.327-0.36218-8.041 0.71936-16.656-0.53125-24.344-4.1975-3.2761-7.4361-10.841-12.219-11.5-5.9175 2.8717-3.6375-9.7897-6.0726-13.516-0.7962-9.7859-2.8923-5.3611-5.1711 1.3498-1.2609 9.6612-6.5614 5.0557-9.2689-1.2674-2.4085-2.0249-5.153-12.724-6.5812-4.4722z" fill="#f3e517" fill-rule="evenodd" filter="url(#filter3242)"/>
   <g filter="url(#filter3326)">
    <g clip-path="url(#clipPath3126)" fill-rule="evenodd">
     <path d="m28 116v-73h72v73z" fill="#ff7901"/>
     <path d="m29 80 8 5 3-9 5 6 6-10 2 12 2-8 3 6 1-6s3 8 3 7 4-15 4-15l4 13 6-12 3 13 5-9 3 9 5-5 6 6v8l-4 3-6-2-4-2-1 10-2-10-4 9-6-9-2 9-4-6-5 13-3-15-6 3-4-6-2 10-4-5-4 5-2-3-6 1z" fill="#ff0101" filter="url(#filter3282)"/>
    </g>
   </g>
   <g clip-path="url(#clipPath2798)">
    <path d="m64 6.875c-13.263-5e-7 -25.359 4.1408-34.281 11.094s-14.719 16.901-14.719 27.969v4c-8.8588 4.4885-15 16.263-15 30.062 3.5e-7 17.664 10.049 32 23 32v-66.062c1e-6 -8.2881 4.2898-15.916 11.656-21.656s17.768-9.4062 29.344-9.4062c11.575 0 21.977 3.666 29.344 9.4062 7.3664 5.7403 11.656 13.368 11.656 21.656v66.062c12.951 0 23-14.336 23-32 0-13.8-6.1412-25.574-15-30.062v-4c0-11.067-5.7962-21.016-14.719-27.969-8.9226-6.953-21.018-11.094-34.281-11.094zm-38 42.125v63c2 0 4-1 5-3v-58c-1-1-3-2-5-2zm76 0c-2 0-4 1-5 2v58c1 2 3 3 5 3z"/>
    <path d="m60 4.875c-13.263-5e-7 -25.359 4.1408-34.281 11.094s-16.719 16.901-16.719 27.969v2c-8.8588 4.4885-18 16.263-18 30.062 4e-7 17.664 12.049 28 25 28v-48c18.213-76.721 3-2.5384 3-4 0-12 7.6109-26.021 14-31 7.3664-5.7403 15.425-9 27-9 11.575 0 21.977 2.541 29.344 8.2812 7.3664 5.7403 11.656 13.368 11.656 21.656v68.062c1.1221 0 1.9398-2.7782 3-3 11.176-2.3381 19-14.866 19-31 0-13.8-4.1412-21.512-13-26l-1-8.0625c0-11.067-5.7962-21.016-14.719-27.969-8.9226-6.953-21.018-9.0937-34.281-9.0938zm-35 40.125-2 62c2 0 7-1 8-3v-57c-1-1-4-2-6-2zm74 0c-2 0-4 1-5 2v58c1 2 3 4 5 4z" fill="#00c" filter="url(#filter2788)"/>
   </g>
   <path d="m16 56c-6.7664 2.1982-9.7702 11.404-9.7702 19.404 0-8 8.5447-15.404 9.7702-19.404zm21.77-39.319c-12.447 6.7973-15.007 12.944-17.77 19.319 4.9815-7.0676 9.6342-14.355 17.77-19.319zm-9.9911 33.02 0.27234 2.5873-1.9064-2.0426 0.27234-1.3617zm81.295 0.81703 4.0852 6.4001-1.4979 1.3617z" fill="#fff" fill-rule="evenodd" filter="url(#filter3200)"/>
  </g>
 </g>
</svg>
