<?xml version="1.0" encoding="UTF-8" standalone="no"?>
<svg
   viewBox="0 0 256 256"
   width="256"
   height="256"
   version="1.1"
   id="svg14"
   sodipodi:docname="call-start.svg.2022_04_25_23_57_49.0.svg"
   inkscape:version="1.1.1 (3bf5ae0d25, 2021-09-20)"
   inkscape:export-filename="/media/klapeto/Αρχεία/WindowsXP Theme/Vectors/RASTER/call-start.png"
   inkscape:export-xdpi="96"
   inkscape:export-ydpi="96"
   xmlns:inkscape="http://www.inkscape.org/namespaces/inkscape"
   xmlns:sodipodi="http://sodipodi.sourceforge.net/DTD/sodipodi-0.dtd"
   xmlns:xlink="http://www.w3.org/1999/xlink"
   xmlns="http://www.w3.org/2000/svg"
   xmlns:svg="http://www.w3.org/2000/svg">
  <sodipodi:namedview
     id="namedview16"
     pagecolor="#ffffff"
     bordercolor="#666666"
     borderopacity="1.0"
     inkscape:pageshadow="2"
     inkscape:pageopacity="0.0"
     inkscape:pagecheckerboard="0"
     showgrid="false"
     inkscape:zoom="4.0000002"
     inkscape:cx="-74.249997"
     inkscape:cy="-8.9999996"
     inkscape:window-width="3840"
     inkscape:window-height="2043"
     inkscape:window-x="3840"
     inkscape:window-y="0"
     inkscape:window-maximized="1"
     inkscape:current-layer="svg14"
     inkscape:snap-bbox="true"
     inkscape:snap-smooth-nodes="true"
     inkscape:snap-global="true">
    <inkscape:grid
       type="xygrid"
       id="grid918" />
  </sodipodi:namedview>
  <defs
     id="defs3051">
    <linearGradient
       inkscape:collect="always"
       id="linearGradient165625">
      <stop
         style="stop-color:#d69b2d;stop-opacity:1"
         offset="0"
         id="stop165619" />
      <stop
         style="stop-color:#febb22;stop-opacity:1"
         offset="0.34563887"
         id="stop165621" />
      <stop
         style="stop-color:#ca912f;stop-opacity:1"
         offset="1"
         id="stop165623" />
    </linearGradient>
    <linearGradient
       inkscape:collect="always"
       id="linearGradient165297">
      <stop
         style="stop-color:#d69b2d;stop-opacity:1"
         offset="0"
         id="stop165291" />
      <stop
         style="stop-color:#febb22;stop-opacity:1"
         offset="0.40439263"
         id="stop165293" />
      <stop
         style="stop-color:#ca912f;stop-opacity:1"
         offset="1"
         id="stop165295" />
    </linearGradient>
    <linearGradient
       inkscape:collect="always"
       id="linearGradient165175">
      <stop
         style="stop-color:#d69b2d;stop-opacity:1"
         offset="0"
         id="stop165169" />
      <stop
         style="stop-color:#febb22;stop-opacity:1"
         offset="0.35768467"
         id="stop165171" />
      <stop
         style="stop-color:#ca912f;stop-opacity:1"
         offset="1"
         id="stop165173" />
    </linearGradient>
    <linearGradient
       inkscape:collect="always"
       id="linearGradient164939">
      <stop
         style="stop-color:#d69b2d;stop-opacity:1"
         offset="0"
         id="stop164933" />
      <stop
         style="stop-color:#febb22;stop-opacity:1"
         offset="0.38318077"
         id="stop164935" />
      <stop
         style="stop-color:#ca912f;stop-opacity:1"
         offset="1"
         id="stop164937" />
    </linearGradient>
    <linearGradient
       inkscape:collect="always"
       id="linearGradient156458">
      <stop
         style="stop-color:#d69b2d;stop-opacity:1"
         offset="0"
         id="stop156452" />
      <stop
         style="stop-color:#febb22;stop-opacity:1"
         offset="0.5"
         id="stop156454" />
      <stop
         style="stop-color:#ca912f;stop-opacity:1"
         offset="1"
         id="stop156456" />
    </linearGradient>
    <linearGradient
       inkscape:collect="always"
       id="linearGradient14257">
      <stop
         style="stop-color:#f3711f;stop-opacity:1"
         offset="0"
         id="stop14253" />
      <stop
         style="stop-color:#fec602;stop-opacity:1"
         offset="0.5"
         id="stop27563" />
      <stop
         style="stop-color:#ffe03c;stop-opacity:1"
         offset="0.86599267"
         id="stop46537" />
      <stop
         style="stop-color:#fffde9;stop-opacity:1"
         offset="1"
         id="stop14255" />
    </linearGradient>
    <style
       type="text/css"
       id="current-color-scheme">
      .ColorScheme-Text {
        color:#232629;
      }
      </style>
    <linearGradient
       inkscape:collect="always"
       xlink:href="#linearGradient14257"
       id="linearGradient14259"
       x1="-70.111496"
       y1="14.934465"
       x2="-75.980957"
       y2="7.8442326"
       gradientUnits="userSpaceOnUse" />
    <linearGradient
       inkscape:collect="always"
       xlink:href="#linearGradient156458"
       id="linearGradient132715"
       x1="-36.885201"
       y1="41.466537"
       x2="-36.595001"
       y2="45.343376"
       gradientUnits="userSpaceOnUse" />
    <linearGradient
       inkscape:collect="always"
       xlink:href="#linearGradient156458"
       id="linearGradient152658"
       x1="-36.382961"
       y1="40.475834"
       x2="-34.327175"
       y2="43.909054"
       gradientUnits="userSpaceOnUse" />
    <linearGradient
       inkscape:collect="always"
       xlink:href="#linearGradient156458"
       id="linearGradient152704"
       x1="-35.086887"
       y1="39.368652"
       x2="-31.915144"
       y2="41.931694"
       gradientUnits="userSpaceOnUse" />
    <linearGradient
       inkscape:collect="always"
       xlink:href="#linearGradient156458"
       id="linearGradient152826"
       x1="-34.183731"
       y1="37.205933"
       x2="-30.787045"
       y2="39.907169"
       gradientUnits="userSpaceOnUse" />
    <linearGradient
       inkscape:collect="always"
       xlink:href="#linearGradient156458"
       id="linearGradient162669"
       x1="-32.229794"
       y1="35.521107"
       x2="-29.569454"
       y2="38.272385"
       gradientUnits="userSpaceOnUse" />
    <linearGradient
       inkscape:collect="always"
       xlink:href="#linearGradient156458"
       id="linearGradient162715"
       x1="-30.834911"
       y1="33.302097"
       x2="-28.485361"
       y2="37.014534"
       gradientUnits="userSpaceOnUse" />
    <linearGradient
       inkscape:collect="always"
       xlink:href="#linearGradient165297"
       id="linearGradient163543"
       gradientUnits="userSpaceOnUse"
       x1="-36.577747"
       y1="41.553524"
       x2="-37.467236"
       y2="45.552788"
       gradientTransform="translate(-2.1880491,0.37994494)" />
    <linearGradient
       inkscape:collect="always"
       xlink:href="#linearGradient165175"
       id="linearGradient164015"
       gradientUnits="userSpaceOnUse"
       gradientTransform="translate(-3.9822812,0.43668451)"
       x1="-36.01096"
       y1="41.625553"
       x2="-38.217911"
       y2="45.054085" />
    <linearGradient
       inkscape:collect="always"
       xlink:href="#linearGradient164939"
       id="linearGradient164565"
       gradientUnits="userSpaceOnUse"
       gradientTransform="translate(-7.1261334,1.4606897)"
       x1="-33.489777"
       y1="41.054287"
       x2="-38.46957"
       y2="41.392113" />
    <linearGradient
       inkscape:collect="always"
       xlink:href="#linearGradient165625"
       id="linearGradient165521"
       gradientUnits="userSpaceOnUse"
       gradientTransform="translate(-7.453476,-0.53641967)"
       x1="-33.489777"
       y1="41.054287"
       x2="-38.46957"
       y2="41.392113" />
    <linearGradient
       inkscape:collect="always"
       xlink:href="#linearGradient165625"
       id="linearGradient165871"
       gradientUnits="userSpaceOnUse"
       gradientTransform="translate(-7.2756679,-2.5767214)"
       x1="-33.489777"
       y1="41.054287"
       x2="-38.200241"
       y2="40.927975" />
    <linearGradient
       inkscape:collect="always"
       xlink:href="#linearGradient165625"
       id="linearGradient166291"
       gradientUnits="userSpaceOnUse"
       gradientTransform="translate(-6.574424,-4.5960966)"
       x1="-33.489777"
       y1="41.054287"
       x2="-37.9347"
       y2="40.735508" />
    <linearGradient
       inkscape:collect="always"
       xlink:href="#linearGradient165625"
       id="linearGradient166637"
       gradientUnits="userSpaceOnUse"
       gradientTransform="translate(-6.2490865,-7.2435025)"
       x1="-33.489777"
       y1="41.054287"
       x2="-37.9347"
       y2="40.735508" />
    <linearGradient
       inkscape:collect="always"
       xlink:href="#linearGradient165625"
       id="linearGradient166985"
       gradientUnits="userSpaceOnUse"
       gradientTransform="translate(-6.5604541,-9.3524562)"
       x1="-33.489777"
       y1="41.054287"
       x2="-37.9347"
       y2="40.735508" />
    <linearGradient
       inkscape:collect="always"
       xlink:href="#linearGradient165625"
       id="linearGradient167343"
       gradientUnits="userSpaceOnUse"
       gradientTransform="translate(-7.5443998,-11.763153)"
       x1="-33.489777"
       y1="41.054287"
       x2="-37.9347"
       y2="40.735508" />
    <linearGradient
       inkscape:collect="always"
       xlink:href="#linearGradient165625"
       id="linearGradient167701"
       gradientUnits="userSpaceOnUse"
       gradientTransform="translate(-8.6042657,-14.314156)"
       x1="-33.489777"
       y1="41.054287"
       x2="-37.9347"
       y2="40.735508" />
    <linearGradient
       inkscape:collect="always"
       xlink:href="#linearGradient165625"
       id="linearGradient167907"
       gradientUnits="userSpaceOnUse"
       gradientTransform="translate(-10.085599,-16.255769)"
       x1="-33.489777"
       y1="41.054287"
       x2="-37.452152"
       y2="40.137848" />
    <linearGradient
       inkscape:collect="always"
       id="linearGradient1620">
      <stop
         style="stop-color:#ffffff;stop-opacity:1;"
         offset="0"
         id="stop1616" />
      <stop
         style="stop-color:#ffffff;stop-opacity:0;"
         offset="1"
         id="stop1618" />
    </linearGradient>
    <radialGradient
       spreadMethod="pad"
       r="819.20001"
       id="gradient2-62"
       gradientUnits="userSpaceOnUse"
       gradientTransform="matrix(0.03321492,0.02554013,-0.0225253,0.02929414,177.21918,-98.257282)"
       cy="5091.1753"
       cx="-1495.2026"
       fx="-1495.2026"
       fy="5091.1753">
      <stop
         id="stop4113"
         stop-color="#00bf00"
         offset="0.0" />
      <stop
         id="stop4115"
         stop-color="#006600"
         offset="0.9294117647058824" />
    </radialGradient>
    <radialGradient
       spreadMethod="pad"
       r="819.20001"
       id="gradient1-6"
       gradientUnits="userSpaceOnUse"
       gradientTransform="matrix(0.15259312,0,0,0.15259312,-147.36205,-19.475779)"
       cy="0"
       cx="0">
      <stop
         id="stop4100"
         stop-color="#ffffff"
         offset="0.0" />
      <stop
         id="stop4102"
         stop-color="#ccffff"
         offset="0.0784313725490196" />
      <stop
         id="stop4104"
         stop-color="#0099ff"
         offset="0.2980392156862745" />
      <stop
         id="stop4106"
         stop-color="#0066cc"
         offset="0.5372549019607843" />
      <stop
         id="stop4108"
         stop-color="#003399"
         offset="0.7529411764705882" />
      <stop
         id="stop4110"
         stop-color="#9999ff"
         offset="1.0" />
    </radialGradient>
    <linearGradient
       x2="819.20001"
       x1="-819.20001"
       spreadMethod="pad"
       id="gradient0-1"
       gradientUnits="userSpaceOnUse"
       gradientTransform="matrix(-0.06871152,-0.06871152,-0.06871152,0.06871152,-137.76921,19.341771)">
      <stop
         id="stop4093"
         stop-color="#003399"
         offset="0.0" />
      <stop
         id="stop4095"
         stop-color="#0099ff"
         offset="0.47058823529411764" />
      <stop
         id="stop4097"
         stop-color="#ccffff"
         offset="1.0" />
    </linearGradient>
    <radialGradient
       inkscape:collect="always"
       xlink:href="#linearGradient1620"
       id="radialGradient1624"
       cx="-154.3782"
       cy="-18.647072"
       fx="-154.72092"
       fy="-18.647072"
       r="75.181114"
       gradientTransform="matrix(0.65631144,0,0,0.65430257,-49.101672,-7.0885197)"
       gradientUnits="userSpaceOnUse" />
    <filter
       inkscape:collect="always"
       style="color-interpolation-filters:sRGB"
       id="filter2131"
       x="-0.048552515"
       y="-0.047459915"
       width="1.097105"
       height="1.0949198">
      <feGaussianBlur
         inkscape:collect="always"
         stdDeviation="4.7855551"
         id="feGaussianBlur2133" />
    </filter>
  </defs>
  <path
     id="path1475"
     style="fill:#212121;fill-opacity:1;fill-rule:evenodd;stroke:none;stroke-width:1.06204;filter:url(#filter2131)"
     d="M 120.54503,4.0042772 C 110.45444,3.8413428 98.548568,8.3459102 86.089953,15.392949 73.631338,22.439988 60.658713,32.11185 48.845812,42.66834 37.032912,53.22483 26.389213,64.655239 18.632922,75.283574 10.87663,85.911909 5.8362763,95.592514 5.847765,103.63904 c 0.0092,6.34368 3.757648,13.37175 8.0625,19.73438 0.623487,0.92152 1.270016,1.77123 1.910157,2.64843 -0.681928,0.1709 -1.568261,0.32627 -2.517579,0.45508 -1.482519,0.20117 -3.091566,0.34186 -4.7031249,0.9375 -0.8057796,0.29782 -1.6607703,0.73143 -2.3886718,1.53125 -0.6704044,0.73664 -1.1130442,1.81399 -1.1835938,2.8711 -0.1596666,1.24412 0.3969908,2.6984 1.1542969,3.42187 0.8549066,0.81671 1.7392903,1.16561 2.6601562,1.47852 1.8417314,0.62581 3.9737014,0.95251 6.0742184,1.3125 2.100519,0.35998 4.159106,0.74856 5.38672,1.18554 0.116648,0.0415 0.21555,0.0849 0.314453,0.12696 -0.642042,0.16964 -1.86063,0.28273 -3.197266,0.32226 -1.481007,0.0438 -3.076639,0.007 -4.734375,0.44336 -0.828869,0.21805 -1.74036,0.57255 -2.53711,1.36328 -0.7967498,0.79074 -1.2860606,2.04226 -1.2910154,3.1836 a 2.6010001,2.6010001 0 0 0 0,0.008 2.6010001,2.6010001 0 0 0 0.00781,0.0742 2.6010001,2.6010001 0 0 0 0.076172,0.55859 2.6010001,2.6010001 0 0 0 0.00586,0.0488 c 0.391563,1.44878 1.4917514,2.30017 2.4472654,2.78906 0.955514,0.48889 1.946068,0.75113 3.015625,0.95899 2.139115,0.41571 4.60636,0.55603 7.019532,0.64843 1.225441,0.0469 2.434211,0.08 3.544922,0.11524 -0.513862,0.14354 -1.055547,0.28353 -1.613282,0.41992 -1.723905,0.42156 -3.551748,0.8084 -5.242187,1.56445 -0.84522,0.37803 -1.687216,0.85432 -2.423828,1.64844 -0.736613,0.79412 -1.291544,2.00836 -1.296875,3.23633 a 2.6010001,2.6010001 0 0 0 0.02148,0.16016 2.6010001,2.6010001 0 0 0 0.04492,0.35351 2.6010001,2.6010001 0 0 0 0.08008,0.3086 2.6010001,2.6010001 0 0 0 0.04492,0.17187 c 1.03604,2.53786 3.507565,3.36663 5.734375,3.78711 2.22681,0.42048 4.675538,0.44813 7.015625,0.4043 0.66919,-0.0125 1.321528,-0.031 1.958984,-0.0527 -0.489927,0.15263 -0.99527,0.3028 -1.513672,0.45117 -1.8683,0.53474 -3.826719,1.04042 -5.583984,1.87305 -0.878632,0.41631 -1.732998,0.91462 -2.484375,1.70898 -0.751377,0.79438 -1.357722,2.01458 -1.363281,3.29493 a 2.6010001,2.6010001 0 0 0 0.02734,0.21679 2.6010001,2.6010001 0 0 0 0.0098,0.23633 c 0.296097,1.71903 1.743178,2.54915 2.722657,2.88672 0.979479,0.33758 1.942731,0.44703 3.011718,0.51367 2.137975,0.13329 4.665078,0.004 7.167969,-0.15625 0.982516,-0.0629 1.930256,-0.1302 2.861328,-0.19336 -0.84703,0.30215 -1.746581,0.60229 -2.673828,0.89649 -2.190039,0.69485 -4.451813,1.36561 -6.396484,2.29492 -0.972336,0.46465 -1.884189,0.98473 -2.69336,1.77539 -0.809171,0.79066 -1.538852,2.02574 -1.544922,3.42383 a 2.6010001,2.6010001 0 0 0 0.0078,0.0586 2.6010001,2.6010001 0 0 0 -0.0059,0.0625 c 0.0072,0.16978 0.03798,0.33851 0.07813,0.50586 a 2.6010001,2.6010001 0 0 0 0.01953,0.0801 c 0.198567,0.7378 0.672334,1.41562 1.136719,1.7793 0.585902,0.45883 1.110011,0.62637 1.591796,0.75 0.963572,0.24726 1.869716,0.2738 2.898438,0.26562 2.057444,-0.0164 4.526744,-0.28296 6.96875,-0.55664 0.598362,-0.0671 1.154593,-0.12624 1.738281,-0.19141 -1.203173,0.44563 -2.524887,0.88669 -3.857422,1.32227 -2.585815,0.84525 -5.199288,1.662 -7.347656,2.69922 -1.074184,0.51861 -2.050642,1.07203 -2.90625,1.93555 -0.855608,0.86351 -1.619151,2.36667 -1.353516,3.89843 a 2.6010001,2.6010001 0 0 0 0.0293,0.0957 c 0.147891,0.71717 0.540779,1.42585 0.97461,1.8125 0.594202,0.52957 1.125085,0.70036 1.59375,0.83203 0.937328,0.26332 1.784507,0.29699 2.761718,0.31054 1.954424,0.0271 4.321871,-0.15543 6.664063,-0.30078 1.149697,-0.0713 2.291985,-0.13236 3.335937,-0.16211 -1.706388,0.53857 -3.810298,1.07262 -5.941406,1.60157 -2.893944,0.71827 -5.830502,1.42722 -8.220703,2.36132 -1.195101,0.46706 -2.265051,0.96282 -3.226563,1.77344 -0.961513,0.81063 -1.928964,2.37593 -1.642578,4.02735 a 2.6010001,2.6010001 0 0 0 0.02344,0.0703 c 0.162074,0.77398 0.635174,1.53341 1.115234,1.91406 0.610961,0.48444 1.134998,0.62815 1.603516,0.73828 0.937036,0.22027 1.788935,0.22414 2.771484,0.19922 1.906528,-0.0483 4.202306,-0.31748 6.496094,-0.5957 -0.615837,0.20448 -1.242489,0.40845 -1.873047,0.61133 -2.682733,0.86313 -5.388087,1.70028 -7.546875,2.68359 -1.079394,0.49165 -2.030505,0.98035 -2.898437,1.80664 -0.433967,0.41314 -0.872954,0.93956 -1.142579,1.69922 -0.257167,0.72456 -0.25724,1.66615 0.01172,2.42773 0.0083,0.0247 0.01454,0.0497 0.02344,0.0742 0.0047,0.0122 0.0089,0.025 0.01367,0.0371 a 2.6010001,2.6010001 0 0 0 0.0098,0.0195 c 0.248483,0.64836 0.703965,1.24336 1.16211,1.56446 0.638578,0.44754 1.196782,0.57193 1.691406,0.65429 0.989247,0.16473 1.868481,0.10004 2.867187,-0.006 1.997413,-0.21145 4.367058,-0.70157 6.701172,-1.16015 1.183445,-0.23252 2.359227,-0.45723 3.423828,-0.63477 -1.291284,0.7893 -2.81656,1.65423 -4.380859,2.53516 -2.360801,1.32948 -4.751131,2.67171 -6.605469,4.07422 -0.927169,0.70125 -1.737735,1.3864 -2.392578,2.37695 -0.631574,0.95535 -1.046258,2.75091 -0.294922,4.13086 0.233476,0.52232 0.585656,1.02105 1.027344,1.3125 0.825316,0.54459 1.495505,0.54332 1.998047,0.53125 1.005084,-0.0241 1.727772,-0.26731 2.595703,-0.55274 1.735862,-0.57085 3.816788,-1.46011 5.962891,-2.28906 2.146102,-0.82895 4.350625,-1.58282 5.947265,-1.86719 0.153464,-0.0273 0.295165,-0.0463 0.435547,-0.0644 -0.833089,1.04785 -1.991818,2.37279 -3.115234,3.73047 -1.368865,1.65431 -2.701836,3.26714 -3.466797,5.16602 -0.38248,0.94943 -0.720842,2.14738 -0.191406,3.5371 0.480051,1.26011 1.703362,2.09507 2.853515,2.44141 1.134748,0.47477 2.557748,0.39304 3.511719,-0.0606 1.076328,-0.51175 1.777411,-1.24653 2.421875,-2.03515 1.288927,-1.57724 2.32374,-3.5442 3.328125,-5.50586 0.513145,-1.00223 1.0108,-1.99814 1.476563,-2.9043 -0.03417,0.7995 -0.07596,1.63374 -0.121094,2.48633 -0.119413,2.25595 -0.250793,4.50949 -0.01758,6.45508 0.116608,0.97279 0.207634,1.90693 1.037109,2.99414 0.414738,0.5436 1.157877,1.11846 2.03125,1.29687 0.665111,0.13588 1.292336,0.0489 1.818359,-0.12304 1.190868,-0.22447 2.147344,-1.03817 2.675782,-1.7793 0.617504,-0.86605 0.950731,-1.76247 1.240234,-2.72461 0.579006,-1.92428 0.899006,-4.15699 1.185547,-6.3457 0.186148,-1.42188 0.352966,-2.80292 0.521484,-4 0.462833,0.98537 0.961599,2.12937 1.476563,3.3125 0.854036,1.96214 1.726843,3.96915 2.871094,5.62695 0.572125,0.8289 1.200993,1.61235 2.21289,2.21484 1.011897,0.6025 2.662602,0.81368 3.910156,0.23243 a 2.6010001,2.6010001 0 0 0 0.03125,-0.0156 c 0.06211,-0.0293 0.121872,-0.0624 0.181641,-0.0957 a 2.6010001,2.6010001 0 0 0 0.0059,-0.004 c 0.576043,-0.32285 1.039836,-0.81634 1.298828,-1.27148 0.321999,-0.56587 0.430789,-1.06843 0.494141,-1.52344 0.126705,-0.91002 0.0533,-1.70951 -0.0625,-2.58008 -0.231593,-1.74114 -0.71991,-3.71178 -1.195312,-5.66992 -0.207765,-0.85576 -0.408176,-1.69998 -0.589844,-2.50195 0.305873,0.40624 0.618607,0.82477 0.9375,1.25 1.165672,1.55436 2.362898,3.15221 3.810547,4.39062 0.723824,0.61921 1.524101,1.19569 2.658203,1.47461 1.134102,0.27892 2.690947,-0.0124 3.689453,-0.83984 a 2.6010001,2.6010001 0 0 0 0.220703,-0.20899 c 0.440787,-0.43561 0.779507,-0.99569 0.904297,-1.48633 0.188348,-0.74051 0.105988,-1.29126 0.0078,-1.7539 -0.196325,-0.92529 -0.55062,-1.62865 -0.96875,-2.41016 -0.836258,-1.56301 -2.013442,-3.29759 -3.160156,-5.00976 -0.633879,-0.94646 -1.248079,-1.876 -1.779297,-2.7168 1.159768,0.55265 2.526284,1.27837 3.929688,2.02734 1.991378,1.06277 4.035854,2.15606 5.994141,2.85352 0.979144,0.34873 1.934689,0.62109 3.023437,0.64258 1.088748,0.0215 2.541085,-0.34086 3.480469,-1.45313 a 2.6010001,2.6010001 0 0 0 0.04492,-0.0586 2.6010001,2.6010001 0 0 0 0.01367,-0.0137 c 0.0098,-0.0125 0.01781,-0.0264 0.02734,-0.0391 a 2.6010001,2.6010001 0 0 0 0.136719,-0.20117 c 0.01121,-0.0182 0.0224,-0.0362 0.0332,-0.0547 a 2.6010001,2.6010001 0 0 0 0.128906,-0.24804 c 0.289306,-0.62188 0.379924,-1.34227 0.300782,-1.875 -0.103686,-0.69795 -0.353815,-1.1604 -0.59961,-1.55274 -0.491589,-0.78468 -1.061969,-1.34361 -1.71875,-1.94726 -1.313561,-1.2073 -2.999688,-2.46165 -4.662109,-3.70899 -0.334524,-0.25099 -0.664543,-0.50035 -0.992188,-0.74804 0.442576,0.1408 0.89319,0.28618 1.34961,0.43164 1.965748,0.62648 3.991951,1.26595 5.986328,1.47461 0.997188,0.10433 2.009129,0.11856 3.089844,-0.20508 1.080714,-0.32364 2.25714,-1.15733 2.851562,-2.33594 0.28357,-0.51804 0.453569,-1.12461 0.4375,-1.63281 -0.02484,-0.78563 -0.281562,-1.30937 -0.519531,-1.7207 -0.475938,-0.82268 -1.019673,-1.33882 -1.638672,-1.90625 -1.237998,-1.13487 -2.824544,-2.29302 -4.382813,-3.44922 -0.09171,-0.068 -0.180106,-0.13516 -0.271484,-0.20313 0.37893,0.11524 0.762418,0.23276 1.152344,0.35156 0.701309,0.21369 1.413982,0.4291 2.132812,0.62696 2.640673,3.60651 5.596323,7.08601 8.902344,10.42383 16.585103,16.42713 36.566283,24.64062 59.943363,24.64062 23.21914,0 43.12195,-8.21349 59.70703,-24.64062 16.42715,-16.5851 24.64062,-36.48791 24.64062,-59.70704 0,-23.37708 -8.21347,-43.27989 -24.64062,-59.707026 -16.58508,-16.427141 -36.48789,-24.640625 -59.70703,-24.640625 -23.37708,0 -43.35826,8.213484 -59.943363,24.640625 -16.427138,16.427136 -24.640625,36.329946 -24.640625,59.707026 0,15.70108 3.76971,29.8793 11.28125,42.54688 -0.521751,-0.13567 -1.040904,-0.25799 -1.552734,-0.35742 -0.88188,-0.17133 -1.818526,-0.35988 -2.769531,-0.30274 -0.951005,0.0572 -1.916804,0.36083 -2.851563,1.16992 a 2.6010001,2.6010001 0 0 0 -0.07813,0.0879 2.6010001,2.6010001 0 0 0 -0.0957,0.0762 c -0.0915,0.0953 -0.174817,0.2031 -0.253906,0.3164 a 2.6010001,2.6010001 0 0 0 -0.04102,0.0645 c -0.383458,0.5803 -0.605216,1.33688 -0.578125,1.94531 0.0335,0.75245 0.276395,1.27324 0.511719,1.68945 0.470646,0.83243 1.020402,1.37162 1.644531,1.95313 1.248259,1.16301 2.845085,2.33629 4.408203,3.49609 0.728867,0.5408 1.444021,1.07484 2.095703,1.57617 -0.973185,-0.23604 -2.096192,-0.56899 -3.240234,-0.93359 -1.907445,-0.6079 -3.870401,-1.28756 -5.722656,-1.6543 -0.926128,-0.18336 -1.825718,-0.30946 -2.835938,-0.19531 -0.99639,0.11259 -2.31333,0.6084 -3.085937,1.75781 a 2.6010001,2.6010001 0 0 0 -0.0039,0.004 c -0.0016,0.002 -0.0023,0.005 -0.0039,0.008 -0.0081,0.0121 -0.01746,0.0229 -0.02539,0.0352 a 2.6010001,2.6010001 0 0 0 -0.01563,0.0332 c -0.465272,0.74066 -0.550603,1.69457 -0.421874,2.33399 0.133082,0.66104 0.385217,1.09901 0.634765,1.47851 0.499095,0.759 1.074648,1.31927 1.738281,1.92188 0.457655,0.41556 0.96955,0.83818 1.498047,1.26367 -1.113616,-0.57575 -2.214081,-1.11214 -3.269531,-1.52539 -0.929168,-0.36381 -1.814006,-0.65861 -2.859375,-0.72657 -0.958365,-0.0622 -2.358869,0.20955 -3.287109,1.20508 -0.411303,0.37367 -0.75345,0.84456 -0.908204,1.29883 -0.262794,0.77143 -0.19615,1.3674 -0.109374,1.84766 0.116883,0.64688 0.317791,1.17166 0.558593,1.68359 -0.241636,-0.16475 -0.504785,-0.31937 -0.804687,-0.45898 -0.47866,-0.22284 -1.165946,-0.34681 -1.871094,-0.30469 -0.632364,0.0377 -1.277888,0.2114 -1.802734,0.56445 -1.316278,0.86746 -1.532984,2.13318 -1.613282,3.01172 -0.08129,0.88937 -6.01e-4,1.71672 0.126954,2.60938 0.216621,1.51595 0.609651,3.1912 1.013671,4.85937 -0.735785,-1.70548 -1.470658,-3.42914 -2.326171,-4.88477 -0.484023,-0.82354 -0.975689,-1.58175 -1.8125,-2.26562 -0.418405,-0.34194 -1.052017,-0.64864 -1.751954,-0.79688 -0.573135,-0.12136 -1.189929,-0.13465 -1.767578,0.0254 -0.648723,0.15412 -1.225423,0.50216 -1.5625,0.83789 -0.481105,0.47917 -0.69506,0.915 -0.873047,1.32031 -0.355973,0.81062 -0.526295,1.58862 -0.695312,2.47656 -0.100929,0.53023 -0.191492,1.10098 -0.277344,1.6875 -0.007,-0.30192 -0.01658,-0.59941 -0.03516,-0.88672 -0.0621,-0.96014 -0.107835,-1.81243 -0.652344,-2.87695 -0.272255,-0.53226 -0.760314,-1.20304 -1.623047,-1.5957 -0.431366,-0.19634 -0.904585,-0.27262 -1.353515,-0.26758 -0.140121,0.002 -0.27672,0.013 -0.410157,0.0293 -0.533396,-0.003 -1.043075,0.11465 -1.43164,0.28516 -0.397503,0.17443 -0.701357,0.38288 -0.962891,0.59961 -0.07004,-0.0939 -0.143309,-0.18355 -0.220703,-0.26953 -0.877323,-1.08778 -2.169834,-1.62357 -3.308594,-1.79688 -1.168876,-0.17788 -2.288629,-0.074 -3.427734,0.12891 -0.766275,0.13647 -1.545048,0.32834 -2.326172,0.55078 1.501503,-0.85837 2.945269,-1.71771 4.160156,-2.58203 0.934143,-0.66459 1.746427,-1.29817 2.433594,-2.19531 0.343584,-0.44857 0.678551,-0.98471 0.847656,-1.73633 0.130666,-0.58077 0.09266,-1.31208 -0.130859,-1.96289 -0.157341,-0.61217 -0.482025,-1.22189 -0.898438,-1.625 -0.587682,-0.56891 -1.200055,-0.79974 -1.726562,-0.94141 -1.053014,-0.28334 -1.960494,-0.25069 -2.974609,-0.17968 -0.489846,0.0343 -1.000486,0.0888 -1.525391,0.15625 1.490792,-0.51859 2.928359,-1.0654 4.197265,-1.67774 1.127404,-0.54405 2.137927,-1.11514 3.021485,-1.9707 0.883558,-0.85557 1.74097,-2.35911 1.441406,-3.97656 a 2.6010001,2.6010001 0 0 0 -0.02148,-0.0645 c -0.0363,-0.15718 -0.08643,-0.31055 -0.148438,-0.45898 a 2.6010001,2.6010001 0 0 0 -0.0957,-0.20899 c -0.312944,-0.62263 -0.805214,-1.12754 -1.199219,-1.35742 -0.620756,-0.36217 -1.082647,-0.43879 -1.521484,-0.50586 -0.877673,-0.13413 -1.710605,-0.1117 -2.679687,-0.0586 -1.00586,0.0551 -2.130787,0.16498 -3.306641,0.29687 2.700862,-0.67036 5.415507,-1.35505 7.662109,-2.24218 1.207069,-0.47665 2.290185,-0.98521 3.257813,-1.79883 0.94695,-0.79624 1.893755,-2.24944 1.732422,-3.86328 -0.05809,-0.74262 -0.385994,-1.51899 -0.832032,-2.03516 -0.494019,-0.5717 -1.042752,-0.8805 -1.544921,-1.0957 -1.004338,-0.43041 -1.94504,-0.54486 -2.978516,-0.62305 -2.066953,-0.15637 -4.48605,-0.019 -6.869141,0.12891 -0.797528,0.0495 -1.548629,0.095 -2.308593,0.14062 1.177699,-0.41897 2.491564,-0.85089 3.832031,-1.28906 2.606366,-0.85197 5.310627,-1.73483 7.585937,-2.89258 1.137655,-0.57887 2.182585,-1.21858 3.078125,-2.10547 0.870676,-0.86225 1.639209,-2.09357 1.732422,-3.55078 a 2.6010001,2.6010001 0 0 0 0.002,-0.0137 c 0.0012,-0.0148 0.0011,-0.0301 0.002,-0.0449 0.0011,-0.0222 0.0031,-0.0441 0.0039,-0.0664 a 2.6010001,2.6010001 0 0 0 0,-0.0625 c -1.24e-4,-0.0215 -0.0012,-0.043 -0.002,-0.0644 a 2.6010001,2.6010001 0 0 0 -0.535156,-1.55274 c -0.266812,-0.41953 -0.590395,-0.76502 -0.876953,-0.94336 -0.647237,-0.4028 -1.116324,-0.47494 -1.558594,-0.54492 -0.884539,-0.13995 -1.719619,-0.11812 -2.701171,-0.0684 -1.963105,0.0996 -4.392951,0.39551 -6.806641,0.66602 -0.450622,0.0505 -0.896952,0.0993 -1.341797,0.14648 0.469911,-0.15092 0.946521,-0.30311 1.431641,-0.45703 2.226022,-0.70627 4.54247,-1.44247 6.544921,-2.52148 1.001228,-0.53951 1.94289,-1.16718 2.740235,-2.05469 0.748095,-0.83269 1.350727,-1.98528 1.464844,-3.26172 a 2.6010001,2.6010001 0 0 0 0.02148,-0.25195 2.6010001,2.6010001 0 0 0 0,-0.004 2.6010001,2.6010001 0 0 0 -0.002,-0.23633 2.6010001,2.6010001 0 0 0 0,-0.004 2.6010001,2.6010001 0 0 0 -0.02539,-0.23438 2.6010001,2.6010001 0 0 0 0,-0.004 2.6010001,2.6010001 0 0 0 -0.04687,-0.23243 2.6010001,2.6010001 0 0 0 0,-0.004 c -0.309728,-1.25311 -1.265759,-1.81098 -1.804687,-2.03906 -0.538928,-0.22809 -0.947369,-0.29048 -1.365235,-0.34375 -0.83573,-0.10655 -1.700516,-0.10564 -2.701172,-0.0781 -2.001308,0.055 -4.474426,0.25956 -6.917968,0.41602 -1.259767,0.0807 -2.512623,0.14649 -3.658203,0.17773 0.612719,-0.18426 1.249711,-0.3704 1.914062,-0.56055 1.911729,-0.54716 3.936601,-1.12003 5.751953,-2.10937 1.809235,-0.98601 3.710339,-2.79081 3.816406,-5.33789 3.29e-4,-0.008 0.0017,-0.0155 0.002,-0.0234 a 2.6010001,2.6010001 0 0 0 -0.01367,-0.34961 c -0.0031,-0.0294 -0.0056,-0.0587 -0.0098,-0.0879 a 2.6010001,2.6010001 0 0 0 -0.443359,-1.14844 c -0.295765,-0.46925 -0.677404,-0.83914 -0.990235,-1.02929 -0.578655,-0.35174 -1.014,-0.441 -1.423828,-0.51954 -0.819655,-0.15706 -1.588612,-0.17052 -2.482422,-0.16992 -1.787619,0.001 -3.979322,0.13453 -6.18164,0.17578 -2.202318,0.0413 -4.413296,-0.0237 -5.953125,-0.31445 -0.125214,-0.0236 -0.231236,-0.0502 -0.341797,-0.0762 0.949591,-0.32371 2.262057,-0.64879 3.65039,-0.98828 1.772771,-0.43351 3.671561,-0.88654 5.421876,-1.80469 1.704498,-0.89412 3.485658,-2.67044 3.662109,-5.04883 a 2.6010001,2.6010001 0 0 0 0.0098,-0.11718 c 0.0013,-0.025 0.0049,-0.0491 0.0059,-0.0742 a 2.6010001,2.6010001 0 0 0 0,-0.043 2.6010001,2.6010001 0 0 0 -0.002,-0.13281 2.6010001,2.6010001 0 0 0 -0.002,-0.082 2.6010001,2.6010001 0 0 0 -0.01563,-0.16211 2.6010001,2.6010001 0 0 0 -0.0098,-0.0664 2.6010001,2.6010001 0 0 0 -0.01172,-0.082 c -0.0068,-0.0368 -0.01545,-0.0717 -0.02344,-0.10742 a 2.6010001,2.6010001 0 0 0 -0.002,-0.008 c -0.245132,-1.08387 -1.017505,-1.69401 -1.509766,-1.97461 -0.509656,-0.29051 -0.914729,-0.3975 -1.320312,-0.49414 -0.811165,-0.19328 -1.638566,-0.27335 -2.591797,-0.33984 -1.906464,-0.13298 -4.252539,-0.16087 -6.580079,-0.25 -0.09774,-0.004 -0.193372,-0.01 -0.291015,-0.0137 0.402238,-0.0868 0.808034,-0.19829 1.216797,-0.34375 0.870604,-0.30984 1.79746,-0.8152 2.527344,-1.68164 0.696639,-0.82698 1.1079,-1.9493 1.18164,-3.06641 a 2.6010001,2.6010001 0 0 0 0.002,-0.01 c 0.0047,-0.05 0.0072,-0.10039 0.0098,-0.15039 a 2.6010001,2.6010001 0 0 0 0,-0.0137 c 0.03372,-0.71801 -0.154184,-1.43374 -0.462891,-2.05859 0.237389,0.19325 0.484688,0.4066 0.710938,0.57617 1.94017,1.45408 4.280932,1.30558 6.496094,0.73437 2.215163,-0.5712 4.577622,-1.67099 7.11914,-3.13085 5.083036,-2.91974 10.836304,-7.32199 16.185547,-12.14258 5.349243,-4.8206 10.263534,-10.03064 13.585937,-14.67774 1.661204,-2.32355 2.937946,-4.48887 3.65625,-6.58593 0.718312,-2.096504 0.960205,-4.529782 -0.570306,-6.44085 -3.635709,-4.539712 -8.004282,-6.975726 -11.119141,-8.816406 -1.557429,-0.92034 -2.792935,-1.715473 -3.455078,-2.345703 -0.579202,-0.551287 -0.633722,-0.797176 -0.660156,-1.197266 0.114431,-0.197268 0.364637,-0.906428 0.939453,-1.695312 0.87262,-1.197594 2.227715,-2.77496 3.90625,-4.529297 3.35707,-3.508674 8.019145,-7.757556 12.990234,-11.732422 4.971091,-3.974866 10.270494,-7.68508 14.835938,-10.142578 4.452549,-2.396729 8.284889,-3.239373 9.525391,-2.966797 -0.0034,0.0416 0.231566,0.280627 0.541016,1.080078 0.42523,1.098591 0.85736,2.825774 1.43555,4.726563 1.15637,3.801577 3.08966,8.693954 8.14452,10.896484 2.01407,0.877576 3.93027,0.427466 5.91407,-0.259765 1.98379,-0.687231 4.12464,-1.792026 6.4375,-3.191407 4.6257,-2.798762 9.90103,-6.796163 14.94531,-11.058593 5.04427,-4.262429 9.83727,-8.777382 13.42578,-12.621094 1.79426,-1.921856 3.28406,-3.6678 4.38672,-5.197266 1.10266,-1.529466 2.05654,-2.488538 2.04687,-4.646484 -0.0264,-5.910224 -4.49154,-12.27773 -11.08593,-17.773438 C 139.55611,8.5710699 130.53472,4.1655824 120.54503,4.0042772 Z M 19.166125,130.32654 c 1.37706,1.6571 2.723212,3.1697 4,4.44336 -0.365237,-0.17283 -0.737372,-0.31987 -1.117188,-0.45508 -1.931235,-0.68745 -4.136934,-1.0493 -6.253906,-1.41211 -1.651855,-0.28309 -3.249123,-0.56813 -4.408203,-0.86132 0.711066,-0.14188 1.634162,-0.27704 2.615234,-0.41016 1.543857,-0.2095 3.245744,-0.41118 4.923829,-1.18359 0.08016,-0.0369 0.159982,-0.0791 0.240234,-0.1211 z m 21.085937,50.79883 a 2.6010001,2.6010001 0 0 0 0.0039,0.0371 2.6010001,2.6010001 0 0 0 0,0.004 c -5.44e-4,7.9e-4 -0.0033,0.005 -0.0039,0.006 7.09e-4,-0.0155 -0.0012,-0.0314 0,-0.0469 z m -1.671875,14.07812 a 2.6010001,2.6010001 0 0 0 -0.0039,0.13086 c -0.0026,-0.0144 -0.0057,-0.0288 -0.0078,-0.043 0.0015,-0.0304 0.0075,-0.0587 0.01172,-0.0879 z m -3.646484,10.65626 a 2.6010001,2.6010001 0 0 0 0.0059,0.0957 c -0.0032,-0.0157 -0.007,-0.031 -0.0098,-0.0469 1.23e-4,-0.017 0.003,-0.0322 0.0039,-0.0488 z m -1.505859,10.25 a 2.6010001,2.6010001 0 0 0 0.0039,0.0254 c 0,0 -0.002,0.002 -0.002,0.002 -2.63e-4,-0.009 -0.0019,-0.0188 -0.002,-0.0273 z m 3.390625,12.63476 a 2.6010001,2.6010001 0 0 0 0.04883,0.0273 2.6010001,2.6010001 0 0 0 0.140625,0.10547 c -0.06168,-0.0346 -0.12581,-0.0806 -0.189453,-0.13281 z m 7.144531,0.62891 c -0.06601,0.0254 -0.165516,0.0506 -0.283203,0.0684 a 2.6010001,2.6010001 0 0 0 0.283203,-0.0684 z m 0.962891,11.47656 a 2.6010001,2.6010001 0 0 0 -0.123047,0.0508 2.6010001,2.6010001 0 0 0 -0.08008,0.0117 c 0.03196,-0.0149 0.108415,-0.039 0.203126,-0.0625 z" />
  <g
     id="g193787"
     transform="matrix(5.2020048,0,0,5.2020048,-57.91198,-14.863922)">
    <g
       transform="matrix(0.13147943,0,0,0.13147943,22.480397,16.082936)"
       id="g1127"
       style="opacity:1">
      <g
         transform="matrix(1.5527891,0,0,1.5527891,350.16286,93.28853)"
         id="g1296">
        <path
           d="m -217.41211,19.341771 q 0,32.794126 23.20129,56.218516 23.42439,23.20129 56.44161,23.20129 32.79415,0 56.218518,-23.20129 23.20131,-23.42439 23.20131,-56.218516 0,-33.017226 -23.20131,-56.218521 -23.424368,-23.201293 -56.218518,-23.201293 -33.01722,0 -56.44161,23.201293 -23.20129,23.201295 -23.20129,56.218521"
           id="path3998"
           style="fill:url(#gradient0-1);fill-rule:evenodd;stroke:none"
           inkscape:connector-curvature="0" />
        <path
           d="m -212.95032,19.341771 q 0,31.009416 21.86275,53.095266 22.08585,22.08585 53.31836,22.08585 31.00943,0 53.318368,-22.08585 21.86275,-22.08585 21.86275,-53.095266 0,-31.232512 -21.86275,-53.318359 -22.308938,-22.085846 -53.318368,-22.085846 -31.23251,0 -53.31836,22.085846 -21.86275,22.085847 -21.86275,53.318359"
           id="path4000"
           style="fill:url(#gradient1-6);fill-rule:evenodd;stroke:none"
           inkscape:connector-curvature="0" />
        <path
           transform="matrix(3.7818957,0,0,3.7818957,-225.48149,-69.053591)"
           d="M 20.951172,3.671875 V 3.7890625 H 20.833984 V 3.90625 h -0.472656 v 0.1191406 h -0.472656 v 0.1757813 h -0.117188 v 0.4726562 h 0.236328 v 0.1171875 h 1.060547 V 4.9101562 H 20.478516 V 5.1464844 H 20.361328 V 5.0273438 h -0.472656 v 0.2363281 h 0.11914 v 0.3535156 h -0.11914 v 0.2363281 h -0.234375 v 0.1171875 h -0.119141 v 0.1191407 h -0.117187 v 0.1171874 h -0.119141 v 0.2949219 h -0.175781 v 0.1191407 h -0.119141 v 0.234375 h 0.119141 v 0.1191406 h 0.294922 v 0.1171875 h 0.470703 v 0.1191406 h 0.472656 V 7.0917969 h 0.236328 V 6.7382812 h 0.117188 V 6.6210938 h 0.236328 V 6.5019531 h 0.117187 V 6.3847656 H 21.1875 V 6.2070312 h 0.117188 V 5.9707031 h 0.177734 V 5.8535156 h 0.470703 V 5.7363281 h 0.119141 v 0.234375 h -0.119141 v 0.2363281 h 0.355469 v 0.2949219 h 0.117187 V 6.6210938 H 22.308594 V 6.7382812 H 21.835938 V 6.8554688 H 21.71875 V 6.9746094 H 21.068359 V 7.0917969 H 20.951172 V 7.2109375 H 20.833984 V 7.328125 h 0.117188 V 7.4472656 H 21.1875 v 0.1171875 h 0.294922 v 0.1171875 h 0.117187 v 0.1191406 h -0.53125 V 8.1542969 H 21.1875 V 8.390625 h 0.765625 v 0.2949219 h 0.236328 V 8.5078125 h 0.353516 V 8.390625 h 0.945312 v 0.1171875 h 0.175781 v 0.1777344 h 0.119141 v 0.3535156 h 0.117188 V 9.15625 h 0.117187 v 0.945312 h -0.117187 v 0.117188 h -0.117188 v 0.117188 h 0.470703 v 0.11914 h -0.117187 v 0.117188 h 0.117187 v 0.11914 h 0.355469 v 0.175782 h 0.117187 v 0.11914 h -0.117187 v 0.117188 h -0.236328 v 0.236328 h -0.119141 v 0.117187 h -0.117187 v 0.119141 h 0.117187 v 0.470703 h 0.119141 v 0.236328 h 0.117187 v 0.236328 h 0.119141 v 0.236328 h 0.117187 v 0.117188 h 0.117188 v 0.294922 h 0.119141 v 0.11914 h 0.117187 v 0.117188 h 0.589844 v 0.117187 h 0.53125 v -0.353515 h 0.117187 v -0.41211 h 0.294922 v -0.353515 h 0.119141 v -0.236328 h 0.353516 v -0.119141 h 0.353515 v -0.117187 h 0.119141 v -0.119141 h 0.117187 v -0.117188 h 0.117188 v -0.236328 h 0.472656 v -0.117187 h 0.117187 v -0.119141 h 0.119141 v 0.119141 h 0.236328 v -0.119141 h 0.41211 v -0.117187 h 0.117187 v -0.117188 h 0.355469 v -0.11914 h 0.117187 v -0.294922 h 0.119141 V 10.101562 H 29.740234 V 9.9824219 H 29.623047 V 9.5117188 h 0.353515 V 9.3925781 H 30.09375 V 9.2753906 h 0.119141 V 9.15625 h 0.117187 V 9.0390625 h 0.119141 V 8.6855469 H 30.330078 V 8.5078125 H 30.212891 V 8.390625 h 0.589843 V 8.1542969 h -0.11914 V 8.0371094 H 30.566406 V 7.8007812 H 30.449219 V 7.5644531 H 30.09375 V 7.4472656 H 29.740234 V 7.9179688 H 29.623047 V 8.1542969 H 29.503906 V 7.6816406 H 29.386719 V 7.5644531 h 0.117187 V 7.2109375 h 0.236328 V 7.328125 h 0.236328 V 6.9746094 h 0.472657 V 6.7382812 H 30.330078 V 6.6210938 h -0.470703 v 0.234375 H 29.623047 V 6.9746094 H 29.503906 V 6.6210938 h 0.119141 V 6.5019531 h 0.943359 V 6.3847656 h 0.117188 V 6.2070312 H 30.09375 V 6.0898438 h 0.119141 V 5.8535156 h 0.117187 V 5.7363281 h 0.236328 V 5.6171875 h 0.117188 V 5.2636719 h 0.11914 V 5.0273438 H 30.566406 V 4.9101562 H 29.976562 V 5.2636719 H 29.859375 V 5.3808594 H 29.740234 V 5.5 H 29.503906 V 5.3808594 h 0.119141 V 5.2636719 h 0.117187 V 5.1464844 h 0.119141 V 4.7910156 H 29.150391 V 4.6738281 h 0.117187 V 4.4375 H 29.150391 V 4.3203125 h -0.53125 V 4.2011719 H 28.148438 V 4.0253906 H 27.675781 V 3.90625 H 26.318359 V 4.0253906 H 26.083984 V 4.2011719 H 25.669922 V 4.3203125 H 25.552734 V 4.4375 H 25.199219 V 4.5566406 H 25.080078 V 4.6738281 H 24.490234 V 4.7910156 H 23.900391 V 4.9101562 H 23.251953 V 5.0273438 H 22.898438 V 4.9101562 h 0.234374 V 4.7910156 h 0.236329 V 4.6738281 H 23.251953 V 4.5566406 h -0.119141 v -0.53125 H 23.015625 V 3.90625 H 22.898438 V 3.7890625 H 22.779297 V 3.671875 H 21.953125 V 3.7890625 H 21.599609 V 3.671875 Z M 18.177734,4.2011719 V 4.4375 H 18.060547 V 4.7910156 H 17.943359 V 4.6738281 H 17.707031 V 4.4375 h -0.472656 v 0.1191406 h -0.412109 v 0.1171875 h 0.294922 v 0.1171875 h 0.117187 v 0.1191406 h 0.236328 v 0.1171876 h 0.353516 V 4.9101562 h 0.11914 v 0.2363282 h 0.117188 v 0.1171875 h -0.117188 v 0.1171875 h 0.234375 v 0.2363281 h -0.117187 v 0.1191406 h 0.117187 v 0.3535157 h 0.826172 V 5.8535156 h 0.119141 V 5.7363281 h 0.175781 V 5.5 h 0.119141 V 5.1464844 H 19.123047 V 4.6738281 H 19.003906 V 4.5566406 H 18.886719 V 4.4375 H 18.533203 V 4.2011719 Z M 16.46875,4.6738281 v 0.1171875 h 0.117188 V 4.6738281 Z M 15.642578,5.0273438 V 5.1464844 H 15.289062 V 5.2636719 H 15.052734 V 5.5 h 0.470704 v 0.4707031 h 0.355468 v 0.1191407 h 0.117188 V 5.9707031 h 0.117187 v 0.1191407 h 0.119141 V 7.0917969 H 15.996094 V 7.328125 h -0.117188 v 0.1191406 h -0.11914 v 0.234375 h 0.11914 v 0.8261719 h 0.353516 V 8.1542969 h 0.117187 V 8.0371094 h 0.236329 V 7.9179688 h 0.117187 V 7.8007812 h 0.119141 V 7.4472656 h 0.117187 V 7.328125 h 0.884766 V 7.2109375 h 0.236328 V 7.328125 h 0.353515 v 0.4726562 h 1.240235 V 7.4472656 H 19.535156 V 7.2109375 H 18.767578 V 6.3847656 H 18.533203 V 6.2070312 H 18.060547 V 6.0898438 H 17.587891 V 6.2070312 H 17.117188 V 6.0898438 H 16.939453 V 5.9707031 H 16.703125 V 5.7363281 H 16.585938 V 5.5 H 16.113281 V 5.3808594 H 15.996094 V 5.2636719 H 15.759766 V 5.0273438 Z M 14.521484,5.5 V 5.6171875 H 14.285156 V 5.7363281 H 14.048828 V 5.8535156 H 13.8125 v 0.1171875 h 0.119141 v 0.1191407 h 0.236328 v 0.1171874 h 0.117187 v 0.2949219 h 0.119141 v 0.1191407 h 0.412109 v 0.1171874 h 0.707032 V 6.6210938 h 0.236328 v -0.53125 H 14.933594 V 6.3847656 H 14.816406 V 5.7363281 h 0.117188 V 5.5 Z m -1.533203,0.8847656 v 0.1171875 h -0.236328 v 0.1191407 h -0.119141 v 0.1171874 h -0.294921 v 0.1171876 h -0.117188 v 0.1191406 h -0.236328 v 0.1171875 h 0.236328 V 7.328125 h 0.648438 V 7.2109375 h 0.472656 V 7.0917969 h 0.236328 V 6.8554688 h 0.117187 V 6.6210938 H 13.578125 V 6.5019531 H 13.222656 V 6.3847656 Z m 1.179688,0.5898438 V 7.0917969 H 14.048828 V 7.5644531 H 13.695312 V 7.9179688 H 13.8125 v 0.1191406 h 0.119141 v 0.1171875 h 0.117187 V 8.390625 h 0.236328 v 0.1171875 h 0.648438 V 8.390625 h 0.11914 v 0.2949219 h -0.11914 V 8.8027344 H 14.816406 V 9.0390625 H 14.521484 V 9.2753906 H 14.285156 V 8.921875 H 13.931641 V 8.8027344 H 13.578125 V 8.5078125 H 13.458984 V 7.8007812 H 13.341797 V 7.6816406 h -0.353516 v 0.1191406 h -0.11914 V 7.6816406 h -0.53125 V 7.5644531 H 11.984375 V 7.8007812 H 11.867188 V 7.4472656 H 11.630859 V 7.328125 h -0.117187 v 0.1191406 h -0.119141 v 0.234375 H 11.277344 V 7.5644531 h -0.119141 v 0.1171875 h -0.117187 v 0.1191406 h -0.117188 v 0.1171876 h -0.11914 V 8.0371094 H 10.568359 V 8.1542969 H 10.451172 V 8.2714844 H 10.6875 V 8.1542969 h 0.117188 V 8.390625 h 0.11914 v 0.4121094 h 0.234375 V 8.921875 h 0.472656 V 8.8027344 h 0.236329 V 8.921875 h 0.236328 v 0.1171875 h -0.945313 v 0.3535156 h 0.119141 v 0.1191407 h 0.353515 v 0.1171874 h 0.117188 v 0.1171876 h 0.589844 V 9.6289062 h 0.65039 V 9.5117188 h 0.353516 v 0.1171874 h 0.589844 V 9.5117188 h 0.117187 V 9.2753906 h 0.119141 v 0.3535156 h 0.236328 v 0.1171876 h 0.234375 V 9.6289062 h 0.294922 v 0.1171876 h 0.11914 v 0.2363281 h 0.117188 v 0.1191401 h 0.11914 v 0.234376 h -0.11914 v 0.11914 h -0.353516 v -0.11914 h 0.117188 v -0.234376 h -0.765625 v 0.353516 h -0.472657 v 0.117188 h -0.117187 v -0.117188 h -0.119141 v -0.11914 H 13.341797 V 10.21875 H 12.988281 V 9.9824219 h -0.11914 V 9.8652344 h -0.117188 v 0.1171875 h -0.53125 v 0.1191401 h -0.117187 v 0.353516 h 0.117187 v 0.117188 h -0.117187 v 0.11914 h -0.119141 v -0.236328 h -0.117187 v -0.11914 h -0.236329 v 0.11914 h -0.589843 v -0.11914 h 0.117187 V 9.9824219 H 11.041016 V 9.8652344 H 10.923828 V 9.7460938 H 10.6875 V 9.9824219 H 10.568359 V 9.8652344 H 10.451172 V 9.7460938 H 10.273438 V 9.6289062 H 10.039062 V 9.5117188 H 9.8027344 V 9.3925781 L 8.9785156,9.390625 c -0.1868005,0.1739836 -0.865643,0.868616 -1.8261718,2.125 -0.6581834,0.860909 -1.2548088,1.80467 -1.515625,2.355469 l 0.1542968,0.0059 v 0.234375 h 0.1171875 v 0.119141 h 0.1191407 v 0.117187 h 0.53125 v 0.119141 h 0.3535156 v 0.117187 h 0.1171875 v 0.117188 H 7.1484375 V 14.9375 h 0.234375 v 0.414062 h 0.1191406 v 0.117188 h 0.2363281 v 0.117188 H 7.6191406 v 0.355468 h 0.1191406 v 0.41211 h 0.1171876 v 0.117187 h 0.1171874 v 0.119141 h 0.1191407 v 0.236328 h 0.1757812 v 0.117187 h 0.2363281 v 0.117188 h 0.1191407 v 0.119141 H 8.859375 v 0.117187 h 0.1171875 v 0.119141 H 9.09375 v 0.884765 H 8.9765625 v 0.589844 H 8.859375 v 1.179687 h 0.1171875 v 0.236329 H 9.09375 v 0.294921 h 0.1191406 v 0.117188 h 0.1171875 v 0.236328 h 0.2363281 v 0.236328 h 0.1171876 v 0.117188 h 0.1191406 v 0.117187 H 10.15625 v 0.119141 h 0.117188 v 0.353516 h 0.177734 v 0.117187 h 0.117187 v 0.236328 H 10.6875 v 0.119141 h 0.117188 v 0.294922 h 0.11914 v 0.236328 h 0.234375 v 0.117187 h 0.119141 v 0.117188 h 0.117187 v 0.236328 h 0.119141 v 0.119141 h 0.117187 v 0.234374 h 0.236329 v 0.119141 h 0.353515 v -0.236328 h -0.117187 v -0.117187 h -0.119141 v -0.236329 h -0.117187 v -0.11914 h -0.119141 v -0.234375 h 0.236328 v 0.234375 h 0.119141 v 0.11914 h 0.234375 v 0.236329 h 0.294921 v 0.117187 h 0.119141 v 0.117187 h 0.117188 v 0.472657 h 0.11914 v 0.353515 h 0.234375 v 0.119141 h 0.472656 v 0.175781 h 0.236329 v 0.119141 h 0.589843 v 0.234375 h 1.357422 v 0.11914 h 0.117188 V 25.4375 h 0.117187 v 0.119141 h 0.119141 v 0.117187 h 0.353516 v 0.117188 h 0.236328 v 0.11914 h 0.117187 v 0.236328 h 0.177735 V 26.5 h 0.236328 v 0.117188 h 0.824218 v 0.11914 h 0.472657 v 0.117188 h 0.117187 v 0.53125 h -0.117187 v 0.236328 h -0.117188 v 0.234375 h -0.119141 v 0.355469 h -0.117187 v 0.236328 h -0.236328 v 0.117187 h -0.117188 v 0.472656 h -0.11914 v 0.294922 h 0.11914 v 0.353516 h 0.117188 v 0.117187 h 0.117187 v 0.119141 h 0.119141 v 0.234375 h 0.117187 v 0.236328 h 0.119141 v 0.589844 h 0.117188 v 0.11914 h 0.117187 v 0.117188 h 0.119141 v 0.117188 h 0.117187 v 0.177734 h 0.294922 v 0.117187 h 0.236328 V 31.75 h 0.119141 v 0.117188 h 0.117187 v 0.11914 h 0.117188 v 1.945313 h -0.117188 v 0.355468 h -0.117187 v 0.824219 h -0.119141 v 0.650391 h -0.117187 v 0.353515 H 19.298828 V 37 h 0.119141 v 0.117188 h -0.119141 v 0.236328 h -0.175781 v 0.236328 h 0.175781 v 0.943359 h -0.175781 v 0.119141 h -0.119141 v 0.529297 h -0.117187 v 1.416015 h 0.117187 v 0.119141 h 0.119141 v 0.117187 h 0.175781 v 0.117188 h 0.236328 v -0.117188 h 0.236328 v 0.117188 h 0.117188 v 0.294922 h -0.234375 v 0.355468 h 0.234375 v 0.234376 h 0.472656 v 0.11914 h 0.236328 v -0.11914 h 0.236328 v 0.11914 h 0.234375 V 41.71875 H 21.1875 v -0.353516 h -0.119141 v -0.11914 h -0.117187 v -0.117188 h -0.353516 v -0.177734 h -0.11914 v -0.117188 h -0.117188 v -0.472656 h -0.117187 v -0.234375 h 0.117187 v -0.119141 h 0.117188 v -0.236328 h 0.11914 v -0.117187 h 0.117188 v -0.117188 h 0.11914 v -0.589843 h -0.236328 v -0.414063 h 0.236328 v -0.117187 h 0.117188 v -0.355469 h 0.117187 V 37.826172 H 21.1875 v -0.355469 h -0.119141 v -0.117187 h 0.414063 v -0.236328 h 0.117187 v -0.353516 h 0.353516 v 0.117187 h 0.236328 v -0.117187 h 0.236328 v -0.117188 h 0.117188 v -0.767578 h -0.117188 v -0.117187 h 0.707031 v -0.177735 h 0.119141 v -0.236328 h 0.117188 v -0.236328 h 0.11914 v -0.234375 h 0.175781 v -0.355469 h 0.119141 v -0.117187 h 0.117188 v -0.236328 h 0.117187 v -0.236328 h 0.119141 v -0.41211 h 0.117187 v -0.117187 h 0.119141 v -0.119141 h 0.236328 v -0.236328 h 0.470703 v -0.117187 h 0.236328 v -0.119141 h 0.117188 v -0.117188 h 0.11914 v -0.117187 h 0.117188 v -0.119141 h 0.11914 v -0.236328 h 0.175782 v -0.589844 h 0.11914 v -0.529297 h 0.117188 v -0.236328 h 0.117187 V 30.628906 H 26.4375 v -0.117187 h 0.175781 v -0.236328 h 0.119141 V 30.15625 h 0.117187 v -1.001953 h -0.236328 v -0.117188 h -0.294922 v -0.11914 h -0.117187 v -0.117188 h -0.41211 v -0.11914 h -0.472656 v -0.117188 h -0.353515 v -0.353515 h -1.0625 v -0.589844 h -0.117188 v -0.119141 h -0.119141 v -0.117187 h -0.175781 v -0.119141 h -0.236328 v -0.117187 h -0.119141 v -0.177735 h -0.470703 v -0.117187 h -0.236328 v -0.117188 h -0.117187 v -0.11914 H 22.189453 V 26.5 h -0.117187 v -0.119141 h -0.119141 v -0.117187 h -0.117187 v -0.117188 h -0.236329 v -0.11914 h -0.765625 v 0.11914 h -0.11914 v -0.11914 h -0.117188 v -0.117188 h -0.236328 v -0.236328 h -0.589844 v 0.117188 h -0.236328 v 0.11914 h -0.412109 v 0.117188 h -0.119141 v 0.236328 h -0.117187 v 0.117187 h -0.119141 v -0.117187 h -0.470703 v 0.117187 h -0.236328 v -0.117187 h -0.236328 v -0.117188 h -0.117188 v -0.236328 h -0.11914 v -0.11914 h 0.11914 v -0.824219 h -0.767578 v -0.767578 h 0.177735 V 23.845703 H 16.46875 v 0.117188 h -0.355469 v 0.236328 h -0.117187 v 0.117187 h -0.236328 v 0.119141 H 15.40625 v -0.119141 h -0.353516 v -0.117187 h -0.11914 v -0.353516 h -0.117188 v -0.236328 h -0.177734 v -0.353516 h -0.117188 v -0.472656 h 0.117188 v -0.117187 h 0.177734 v -0.177735 h 0.236328 v -0.117187 h 1.060547 v -0.119141 h 1.121094 v 0.119141 h 0.119141 v 0.412109 h 0.117187 v 0.236328 h 0.117188 v 0.117188 h 0.11914 v 0.11914 h 0.117188 v 0.117188 h 0.353515 v -0.117188 h 0.119141 v -0.353515 h -0.119141 v -0.236328 h -0.117187 v -0.294922 h -0.117188 v -0.472656 h 0.117188 v -0.236329 h 0.236328 v -0.117187 h 0.117187 v -0.119141 h 0.119141 v -0.234375 h 0.234375 v -0.11914 h 0.119141 v -0.117188 h 0.117187 V 20.71875 h -0.117187 v -0.117188 h 0.236328 v -0.294921 h 0.294922 v -0.708985 h 0.826172 v -0.117187 h 0.117187 V 19.361328 H 20.244141 V 19.244141 H 20.125 v -0.117188 h 0.119141 v -0.119141 h 0.117187 v -0.117187 h 0.236328 v 0.117187 h 0.470703 v -0.117187 h 0.236329 v -0.119141 h 0.294921 v -0.234375 h -0.117187 v -0.11914 h -0.177734 v -0.117188 h -0.236329 v -0.177734 h -0.117187 v -0.353516 h 0.117187 v -0.472656 h -0.353515 v 0.119141 h -0.117188 v -0.119141 h 0.117188 v -0.117187 h 0.884765 v -0.119141 h 0.353516 v 0.119141 h 0.236328 v -0.119141 h 0.119141 v -0.117188 h 0.117187 v -0.117187 h 0.117188 v -0.119141 h 0.236328 v -0.117187 h 0.119141 v -0.472656 h -0.119141 v -0.294922 h -0.117188 v -0.117188 h -0.11914 v -0.11914 H 22.072266 V 15.46875 H 21.953125 V 15.056641 H 21.835938 V 14.9375 H 21.71875 V 14.701172 H 21.599609 V 14.347656 H 21.482422 V 14.111328 H 21.304688 V 13.876953 H 21.1875 v -0.236328 h -0.236328 v 0.117187 h -0.117188 v 0.353516 h -0.236328 v 0.119141 H 20.244141 V 14.111328 H 20.125 v -0.824219 h -0.236328 v -0.11914 h -0.117188 v -0.117188 h -0.117187 v -0.177734 h -0.767578 v -0.117188 h -0.119141 v -0.11914 h 0.355469 v -0.470703 h -0.236328 v 0.117187 h -0.119141 v 0.119141 h -0.234375 v -0.119141 h -0.119141 v -0.117187 h -0.117187 v -0.236328 h -0.236328 v -0.119141 h -0.117188 v -0.117188 h -0.236328 v -0.236328 h -0.11914 v 0.119141 h -0.117188 v 0.117187 h -0.236328 v 0.236329 h -0.117187 v 0.353515 h 0.236328 v 0.236328 h 0.353515 v -0.117187 h 0.117188 v -0.119141 h 0.236328 v 0.119141 h 0.236328 v 0.648437 h -0.119141 v 0.470703 h 0.119141 v 0.355469 h -0.119141 v 0.707031 h 0.119141 v 0.472657 h 0.117187 v 0.175781 h -0.117187 v 0.11914 h -0.119141 v 0.117188 h -0.117187 v 0.117188 h -0.117188 v 0.884765 h 0.117188 v 0.236328 h -0.117188 v 0.119141 h -0.11914 v -0.119141 h -0.117188 v -0.236328 h -0.11914 v -0.117187 h -0.117188 v -0.41211 H 17.353516 V 15.585938 H 17.234375 V 15.46875 h -1.121094 v -0.117188 h -0.117187 v -0.11914 h -0.117188 v -0.41211 h -0.11914 V 14.583984 H 15.523438 V 14.466797 H 15.40625 v -0.236328 h -0.117188 v 0.117187 h -0.11914 v -0.117187 h -0.117188 v -0.119141 h -0.11914 v -0.234375 h 0.11914 v -0.355469 h 0.117188 v -0.117187 h 0.11914 v -0.117188 h 0.117188 v -0.11914 h 0.117188 v -0.294922 h 0.236328 v -0.117188 h 0.589843 v -0.589843 h 0.119141 v -0.236328 h 0.117188 v -0.119141 h 0.117187 V 11.457031 H 16.46875 v -0.117187 h 0.353516 v 0.117187 h 0.294922 v -0.117187 h 0.470703 v -0.236328 h 0.11914 v -0.117188 h 0.117188 v -0.65039 H 17.587891 V 10.21875 h 0.11914 v -0.117188 h 0.117188 V 9.7460938 H 17.587891 V 9.3925781 h -0.648438 v 0.3535157 h 0.177735 V 9.8652344 H 16.939453 V 9.9824219 H 16.822266 V 10.335938 H 16.703125 V 10.21875 H 16.585938 V 9.7460938 H 16.349609 V 9.8652344 H 16.232422 V 9.7460938 H 15.878906 V 9.15625 h -0.11914 V 8.6855469 h -0.117188 v -0.53125 h -0.589844 v -1.0625 h -0.11914 V 6.9746094 Z m 3.539062,5.5449216 v 0.236328 h 0.470703 V 12.519531 Z M 18.177734,8.1542969 V 8.5078125 H 18.060547 V 8.921875 H 17.943359 V 9.15625 h 0.117188 v 0.1191406 h 0.117187 v 0.2363282 h 0.119141 v 0.3535156 h 0.236328 v 0.1171875 h 0.234375 v 0.4726561 h 0.236328 v 0.117188 h 0.119141 v -0.117188 h 0.175781 V 9.9824219 h 0.236328 v 0.1191401 h 0.353516 v 0.117188 h 0.11914 v 0.117188 H 20.125 v 0.11914 h 0.119141 v 0.648438 H 20.125 v 0.353515 h -0.117188 v 0.119141 h -0.11914 v -0.119141 h -0.234375 v 0.236328 h -0.119141 v 0.236329 h 0.119141 v 0.117187 h 0.589844 v 0.119141 h 0.234375 v 0.236328 h 0.11914 v 0.117187 h 0.236328 v 0.117188 h 0.117188 v 0.11914 h 0.353516 v -0.236328 h 0.177734 v 0.117188 h 0.236328 v -0.470703 h -0.119141 v -0.236328 h -0.117187 v -0.119141 h 0.117187 v -0.117188 h 0.353516 v -0.117187 h 0.236328 V 11.339844 H 22.072266 V 10.986328 H 21.71875 v -0.294922 h -0.119141 v -0.11914 h -0.294921 v -0.117188 h -0.236329 v -0.11914 h 0.236329 V 9.7460938 H 21.068359 V 9.5117188 H 20.951172 V 9.3925781 H 20.714844 V 9.15625 H 20.361328 V 8.921875 H 20.244141 V 8.8027344 H 19.535156 V 8.6855469 H 19.298828 V 8.5078125 h 0.119141 V 8.390625 H 19.298828 V 8.1542969 Z m 19.884766,1.9453121 -0.181641,0.002 v 0.117188 h -0.117187 v 0.236328 h -0.177734 v 0.41211 H 37.46875 v 0.236328 h -0.119141 v 0.236328 h -0.117187 v 0.353515 h -0.236328 v 0.236329 h -0.117188 v 0.236328 h -0.11914 v 0.236328 h -0.117188 v 0.117187 h -0.11914 v 0.117188 H 36.40625 v 0.11914 h -0.117188 v 0.117188 h -0.11914 v 0.177734 h -0.117188 v 0.117188 h -0.236328 v 0.11914 h -0.117187 v 0.117188 h -0.119141 v 0.117187 h -0.294922 v 0.119141 h 0.177735 v 0.117187 h -0.177735 v 0.353516 h 0.177735 v 0.472656 h -0.177735 v 0.236328 h 0.177735 v 0.41211 h 0.117187 v 0.11914 h 0.589844 v -0.11914 h 0.11914 v -0.175781 h 0.117188 v -0.236329 h 0.117188 v -0.11914 h 0.11914 v -0.117188 h 0.117188 v 0.472657 h -0.117188 v 0.294921 h 0.117188 v 0.353516 h 0.11914 v 0.236328 h 0.117188 v 0.175782 h 0.472656 v -0.175782 h 0.294922 v -0.236328 h 0.117187 v -0.353516 h 0.117188 v -0.294921 h 0.119141 v -0.236329 h 0.117187 v -0.11914 h 0.119141 v -0.470703 h -0.236328 v -0.708985 h 0.117187 v -0.117187 h 0.119141 v -0.117188 h 0.234375 v -0.11914 h 0.11914 v 1.179687 h 0.117188 v 0.119141 h 0.236328 v 0.117187 h 0.117187 v 0.117188 h -0.117187 v 0.53125 h 0.117187 v 0.236328 h -0.117187 v -0.117188 h -0.117188 v -0.11914 h -0.11914 v 0.11914 h -0.117188 v 0.117188 h -0.11914 v 0.117188 h -0.117188 v 0.355468 h -0.117187 v 0.294922 h -0.236328 v 0.117188 h -0.119141 v -0.117188 h -0.234375 v 0.117188 h -0.177734 v 0.117187 h -0.472657 v -0.117187 h -0.589843 v -0.53125 h 0.11914 v -0.236328 h -0.11914 V 15.232422 H 36.40625 v 0.11914 h -0.236328 v 0.117188 h -0.117188 v 0.117188 h -0.11914 v 0.53125 h 0.11914 v 0.472656 h -0.236328 v 0.117187 h -0.53125 v 0.236328 h -0.117187 v 0.236329 h -0.119141 v 0.117187 h -0.117187 v 0.119141 H 34.8125 v -0.472657 h -0.117188 v -0.117187 h -0.117187 v -0.119141 h -0.119141 v -0.236328 h -0.117187 v -0.117187 h -0.119141 v -1.001954 h -0.353515 v -0.11914 h -0.117188 v -0.175781 h 0.117188 V 14.820312 H 33.398438 V 14.9375 h -0.119141 v 0.414062 h -0.175781 v 0.470704 h 0.175781 v 0.294922 h -0.765625 v 0.353515 h -0.119141 v -0.117187 h -0.236328 v 0.117187 h -0.117187 v 0.236328 h 0.236328 v 0.708985 h 0.470703 v -0.119141 h 0.355469 v -0.117187 h 0.175781 v 0.117187 h 0.236328 v 0.119141 h -0.236328 v 0.117187 h -0.175781 v 0.119141 h -0.119141 v 0.234375 h 0.53125 v -0.117188 h 0.472656 v 0.117188 h -0.355469 v 0.11914 h -0.234374 v 0.41211 h 0.234374 v 0.11914 h 0.119141 v 0.117188 h 0.117188 v 0.117187 h 0.11914 v 0.708985 h -1.121093 v -0.119141 h -0.236329 v 0.119141 h -0.236328 v 1.710937 h 0.236328 v 0.234375 h 0.117188 v 0.119141 h -0.117188 v 0.353516 h -0.117187 v 0.117187 h -0.119141 v 0.119141 h -0.117187 v 0.236328 h -0.119141 v 0.294922 h -0.117187 v 0.117187 h -0.117188 v 0.119141 h -0.11914 v 0.117187 h -0.236329 v 0.117188 h -0.117187 v 0.11914 h -0.117188 v 0.236329 h -0.414062 v 0.589843 h -0.236328 v 0.117188 h -0.117188 v 0.236328 h -0.117187 v 0.117187 h 0.117187 v 0.53125 h 0.117188 v 0.236328 H 30.566406 V 25.4375 h -0.117187 v 0.708984 h 0.117187 v 0.117188 h 0.117188 v 0.117187 h 0.11914 V 26.5 h 0.117188 v 0.117188 h 0.294922 v 0.11914 h 0.11914 v 0.117188 h 0.117188 v 0.294922 h 0.117187 v 0.236328 h 0.236329 v 0.117187 h 0.11914 v 0.119141 h 0.117188 v 0.117187 h 0.117187 v 0.117188 h 0.708985 v -0.117188 h 0.884765 v 0.117188 h 0.117188 v -0.117188 h 0.472656 v -0.117187 h 0.589844 v 0.117187 h 0.236328 v 0.117188 h 0.765625 v 0.11914 h 0.11914 v 0.353516 h -0.11914 v 0.236328 h -0.117188 v 0.472656 h 0.117188 v 0.117188 h 0.236328 v 0.412109 h 0.11914 v 0.119141 h 0.117188 v 0.470703 h 0.117188 v 0.119141 h 0.11914 v 0.236328 h 0.117188 v 0.353515 h -0.117188 v 0.117188 h -0.11914 v 0.11914 h 0.11914 v 0.234376 H 36.40625 v 0.53125 h -0.117188 v 0.353515 h 0.117188 v 0.236328 h 0.117188 v 0.236328 h 0.11914 v 0.353516 h 0.117188 v 0.355469 h 0.11914 v 0.412109 h 0.117188 v 0.236328 h 0.117187 v 0.470703 h 0.119141 v 0.119141 h 0.117187 v 0.117187 h 0.119141 v 0.236329 h 0.117188 v 0.589843 h 0.294921 v 0.177735 h 0.589844 v -0.177735 l 0.451172,0.0039 c 1.282242,-1.728743 4.152344,-5.310135 4.152344,-12.242188 0,-6.932053 -3.003538,-10.928835 -5.011719,-13.246094 z m -19.175781,0.002 h 0.117187 v 0.234376 h -0.117187 z m 10.146484,0.353516 h 0.117188 v 0.117188 h -0.117188 z m -7.964844,0.884766 H 21.1875 v 0.236328 h -0.119141 z m 8.435547,0.117187 v 0.119141 h -0.117187 v 0.234375 h -0.119141 v 0.236328 h 0.236328 v 0.119141 h -0.117187 v 0.117187 h -0.119141 v 0.236328 h 0.355469 v 0.117188 h 0.236328 v 0.11914 h 0.117187 v 0.117188 h 0.353516 v 0.177734 h 0.589844 V 12.873047 H 31.6875 v -0.117188 h 0.236328 v -0.11914 h 0.234375 v -0.117188 h 0.119141 v -0.117187 h 0.117187 v -0.355469 h -0.117187 v -0.117187 h -0.119141 v -0.119141 h -0.117187 v -0.117188 h -0.117188 v -0.117187 h -0.472656 v 0.117187 h -0.648438 v -0.117187 h -0.472656 v 0.117187 h -0.117187 v 0.117188 H 30.09375 v -0.117188 h -0.117188 v -0.117187 h -0.117187 v -0.119141 z m 9.556641,0.826172 h 0.353515 v 0.236328 h -0.117187 v 0.117188 h -0.119141 v 0.11914 h -0.117187 v 0.117188 h -0.117188 v 0.177734 h -0.11914 v -0.53125 h 0.11914 v -0.117187 h 0.117188 z m 0.707031,2.064453 H 40.0625 v 0.119141 h -0.117188 v 0.117187 h -0.53125 v -0.117187 h 0.353516 z m -6.36914,2.123047 h 0.234374 v 0.236328 h -0.353515 v -0.117187 h 0.119141 z m -13.03711,0.945313 h 0.117188 V 17.53325 H 20.361328 Z M 20.125,17.533203 h 0.119141 v 0.119141 H 20.125 Z m -4.011719,0.119141 h 0.355469 v 0.117187 h 0.117188 v 0.117188 h 0.236328 v 0.11914 H 16.46875 v -0.11914 h -0.119141 v 0.11914 h -0.470703 v -0.11914 h 0.117188 v -0.117188 h 0.117187 z m 18.699219,0 h 0.236328 v 0.234375 h 0.119141 v 0.11914 h -0.826172 v -0.11914 h 0.236328 V 17.769531 H 34.8125 Z m -1.060547,0.470703 h 0.236328 v 0.414062 h -0.11914 v -0.11914 h -0.117188 z m -16.517578,0.177734 h 0.472656 v 0.117188 h 0.117188 v 0.11914 h -0.117188 v -0.11914 h -0.11914 v 0.353515 h -0.117188 v -0.353515 h -0.236328 z m 0.708984,0.117188 h 0.117188 v 0.11914 h -0.117188 z m -1.240234,0.236328 h 0.119141 v 0.236328 h -0.119141 v 0.353516 H 16.46875 v -0.117188 h 0.117188 v -0.355469 h 0.117187 z m 1.59375,0 h 0.236328 v 0.117187 h -0.119141 v 0.236328 h -0.117187 v 0.119141 h -0.119141 v 0.117188 h -0.470703 v -0.117188 h 0.117188 v -0.119141 h 0.472656 z m 0.470703,0 h 0.119141 v 0.117187 h -0.119141 z m 18.582031,0.943359 h 0.236329 v 0.119141 h 0.177734 v 0.117187 h 0.117187 v 0.117188 h 0.236329 v 0.11914 h 0.117187 v 0.41211 h 0.119141 v 0.472656 h 0.117187 v 0.236328 h 0.117188 v 0.117188 h 0.11914 v 0.117187 h 0.353516 v -0.234375 h 0.117187 v -0.11914 h 0.119141 v -0.470704 h 0.117187 v -0.11914 h 0.119141 v 0.472656 h 0.117188 v 0.117188 h 0.117187 v 0.236328 h 0.177734 v 0.117187 h 0.236329 v 0.119141 h 0.472656 v -0.119141 h 0.117187 v 0.119141 h 0.589844 v 0.117187 h 0.117188 v 0.236329 h -0.117188 v 0.117187 h -0.117187 v 0.236328 H 41.125 v 0.119141 h -0.117188 v 0.117187 h -1.357421 v -0.117187 h -0.589844 v -0.119141 h -0.826172 v 0.119141 h -0.117187 v 0.294922 h 0.117187 v 0.117187 H 37.880859 V 22.666016 H 37.585938 V 22.488281 H 37.46875 v -0.236328 h -0.119141 v -0.117187 h -0.353515 v -0.119141 h -0.353516 v -0.117187 h -0.11914 V 21.191406 H 36.40625 v -0.11914 h -1.121094 v 0.11914 h -0.826172 v 0.117188 h -0.236328 v -0.472656 h 0.119141 V 20.71875 h 0.117187 v -0.412109 h 0.236328 V 20.1875 h 0.353516 v -0.117188 h 0.119141 v -0.353515 h 0.117187 v 0.117187 h 0.53125 v -0.117187 h 0.236328 v 0.353515 h -0.11914 v 0.765626 h 0.355468 V 20.71875 h 0.117188 v -0.884766 h 0.117188 v 0.117188 h 0.236328 V 20.1875 h 0.11914 v 0.119141 h 0.234375 v 0.529297 h -0.353515 v 0.236328 h 0.11914 v 0.11914 h 0.470703 v 0.117188 h 0.119141 v -0.236328 h 0.294922 v -0.117188 h 0.234375 v -0.11914 h 0.119141 v -0.529297 h -0.119141 v -0.236329 h -0.234375 v -0.11914 h -0.177734 v -0.117188 h -0.236329 z m -2.654297,0.884766 v 0.236328 h 0.353516 v -0.236328 z m -1.179687,0.708984 h 0.472656 v 0.234375 h -0.236328 v 0.119141 h -0.472656 v -0.119141 h -0.294922 v -0.117187 h 0.53125 z m -22.357422,1.060547 h 0.119141 v 0.119141 h -0.119141 z m 26.074219,0.119141 h 0.117187 v 0.117187 h -0.117187 z m -18.699219,0.412109 v 0.119141 h 0.470703 v -0.119141 z m 0.589844,0 v 0.472656 h 0.175781 v -0.11914 h 0.119141 V 22.783203 Z M 40.0625,22.902344 h 0.119141 v 0.117187 h 0.117187 v 0.117188 h 0.119141 v 0.11914 h 0.117187 v 0.236329 H 40.298828 V 23.373047 H 40.0625 Z m -21.175781,0.470703 v 0.236328 h 0.117187 v 0.236328 h 0.294922 v -0.472656 z m 0.117187,0.472656 h -0.236328 v -0.119141 h -0.353516 v -0.117187 h -0.353515 v -0.117187 h -0.472656 v 0.117187 h -0.234375 v 0.353516 h 0.353515 v -0.117188 h 0.117188 v 0.117188 h 0.353515 v 0.11914 h 0.119141 v 0.117188 h 0.236328 v 0.117187 h 0.353516 v 0.53125 h 0.236328 v -0.294922 h -0.119141 v -0.117187 h 0.294922 v 0.236328 h 0.355469 v 0.175781 H 20.125 v -0.175781 h 0.353516 v -0.355469 h -0.234375 v -0.117187 h -0.236329 v -0.236328 h -0.472656 v 0.11914 h -0.236328 v -0.11914 h -0.294922 z m 0.414063,-0.472656 v 0.236328 h 0.470703 v -0.236328 z m 21.707031,0 h 0.236328 v 0.119141 h 0.117188 v 0.117187 h 0.11914 v 0.236328 h 0.117188 v 0.117188 h 0.11914 v 0.236328 h 0.117188 v 0.236328 h 0.177734 v 0.236328 h 0.117188 v 0.175781 h 0.117187 v 0.119141 h 0.119141 v 0.353515 h 0.117187 V 25.4375 h 0.119141 v 0.353516 h 0.117188 v 0.236328 H 42.71875 v -0.117188 h -0.236328 v -0.11914 H 42.363281 V 25.673828 H 42.246094 V 25.4375 h -0.294922 v -0.470703 h -0.117188 v -0.294922 h -0.11914 v -0.236328 h -0.117188 v -0.236328 h -0.11914 V 23.962891 H 41.361328 V 23.726562 H 41.244141 V 23.492188 H 41.125 Z m -12.091797,0.826172 v 0.236328 h -0.119141 v 0.412109 h 0.236329 v -0.175781 h 0.117187 v -0.236328 h 0.119141 v -0.236328 z m -8.435547,0.236328 v 0.412109 h 0.470703 v -0.175781 h 0.414063 v -0.236328 z m 1.001953,0.117187 v 0.119141 h 0.119141 v -0.119141 z m 0.236329,0 v 0.119141 h 0.117187 v -0.119141 z m 0,0.294922 v 0.119141 H 21.71875 v 0.589844 h 0.117188 v 0.117187 h 0.236328 v -0.826172 z m 1.828124,3.363282 h 0.119141 v 0.117187 h -0.119141 v 0.119141 h -0.175781 v -0.119141 h 0.175781 z"
           style="fill:url(#gradient2-62);fill-rule:evenodd;stroke:none;stroke-width:0.264418"
           id="path4002" />
        <path
           inkscape:connector-curvature="0"
           style="fill:url(#radialGradient1624);fill-opacity:1;fill-rule:evenodd;stroke:none"
           id="path1614"
           d="m -212.95032,19.341771 q 0,31.009416 21.86275,53.095266 22.08585,22.08585 53.31836,22.08585 31.00943,0 53.318368,-22.08585 21.86275,-22.08585 21.86275,-53.095266 0,-31.232512 -21.86275,-53.318359 -22.308938,-22.085846 -53.318368,-22.085846 -31.23251,0 -53.31836,22.085846 -21.86275,22.085847 -21.86275,53.318359" />
      </g>
    </g>
    <path
       style="fill:#000000;fill-opacity:1;stroke:none;stroke-width:1px;stroke-linecap:butt;stroke-linejoin:miter;stroke-opacity:1"
       d="m 27.582252,35.022283 c 0.184589,0.960062 0.540096,1.439022 0.743119,1.897406 0.805186,0.214365 1.317211,0.15822 1.718612,0 -0.344329,-0.53147 -0.608526,-1.326771 -0.683059,-1.858242 -0.543656,0.07182 -1.144741,0.154906 -1.778672,-0.03916 z"
       id="path192987"
       sodipodi:nodetypes="ccccc" />
    <g
       id="g184146"
       transform="translate(58.516669,3.2507154)">
      <path
         style="fill:none;stroke:#bd7c17;stroke-width:1px;stroke-linecap:round;stroke-linejoin:miter;stroke-opacity:1"
         d="m -28.474841,36.60585 c -0.516456,0.745154 -2.862365,-1.308577 -3.499259,-0.872554"
         id="path116615"
         sodipodi:nodetypes="cc" />
      <path
         style="fill:none;stroke:#bd7c17;stroke-width:1px;stroke-linecap:round;stroke-linejoin:miter;stroke-opacity:1"
         d="m -34.474943,43.620127 c -0.664043,0.550297 -1.844411,-2.27497 -2.344665,-1.875181"
         id="path116615-7"
         sodipodi:nodetypes="cc" />
      <path
         style="fill:none;stroke:#bd7c17;stroke-width:1px;stroke-linecap:round;stroke-linejoin:miter;stroke-opacity:1"
         d="m -36.531623,44.971971 c -0.781134,0.363943 -1.375886,-2.937897 -2.002913,-2.666269"
         id="path116615-7-8"
         sodipodi:nodetypes="cc" />
      <path
         style="fill:none;stroke:#bd7c17;stroke-width:1px;stroke-linecap:round;stroke-linejoin:miter;stroke-opacity:1"
         d="m -39.536251,45.602451 c -0.781134,0.363943 0.120471,-3.391178 -0.536731,-3.138098"
         id="path116615-7-8-4"
         sodipodi:nodetypes="cc" />
      <path
         style="fill:none;stroke:#bd7c17;stroke-width:1px;stroke-linecap:round;stroke-linejoin:miter;stroke-opacity:1"
         d="m -42.217538,45.119841 c -1.139666,-0.247421 1.705068,-2.454338 1.232091,-2.720051"
         id="path116615-7-8-4-5"
         sodipodi:nodetypes="cc" />
      <path
         style="fill:none;stroke:#bd7c17;stroke-width:1px;stroke-linecap:round;stroke-linejoin:miter;stroke-opacity:1"
         d="m -44.65077,43.059029 c -0.419499,-0.673885 3.584565,-2.069485 3.232357,-2.679577"
         id="path116615-7-8-4-5-0"
         sodipodi:nodetypes="cc" />
      <path
         style="fill:none;stroke:#bd7c17;stroke-width:1px;stroke-linecap:round;stroke-linejoin:miter;stroke-opacity:1"
         d="m -45.046304,40.503534 c -0.293536,-0.738196 4.074374,-1.260779 3.911322,-2.141155"
         id="path116615-7-8-4-5-0-3"
         sodipodi:nodetypes="cc" />
      <path
         style="fill:none;stroke:#bd7c17;stroke-width:1px;stroke-linecap:round;stroke-linejoin:miter;stroke-opacity:1"
         d="m -44.748803,38.360279 c -0.155794,-0.898372 4.435222,-1.091572 4.315065,-2.017275"
         id="path116615-7-8-4-5-0-3-6"
         sodipodi:nodetypes="cc" />
      <path
         style="fill:none;stroke:#bd7c17;stroke-width:1px;stroke-linecap:round;stroke-linejoin:miter;stroke-opacity:1"
         d="m -44.042682,35.986028 c -0.155794,-0.898372 3.894825,-1.218035 3.934282,-2.29043"
         id="path116615-7-8-4-5-0-3-6-1"
         sodipodi:nodetypes="cc" />
      <path
         style="fill:none;stroke:#bd7c17;stroke-width:1px;stroke-linecap:round;stroke-linejoin:miter;stroke-opacity:1"
         d="m -43.837111,33.649398 c 0.0039,-0.898372 3.377886,-0.990359 3.417343,-2.062754"
         id="path116615-7-8-4-5-0-3-6-1-6"
         sodipodi:nodetypes="cc" />
      <path
         style="fill:none;stroke:#bd7c17;stroke-width:1px;stroke-linecap:round;stroke-linejoin:miter;stroke-opacity:1"
         d="m -44.316365,31.362886 c 0.0039,-0.898372 2.888819,-0.744902 2.928276,-1.817297"
         id="path116615-7-8-4-5-0-3-6-1-6-3"
         sodipodi:nodetypes="cc" />
      <path
         style="fill:none;stroke:#bd7c17;stroke-width:1px;stroke-linecap:round;stroke-linejoin:miter;stroke-opacity:1"
         d="m -45.076738,28.967693 c 0.0039,-0.898372 2.670938,-0.570474 2.710395,-1.642869"
         id="path116615-7-8-4-5-0-3-6-1-6-3-2"
         sodipodi:nodetypes="cc" />
      <path
         style="fill:none;stroke:#bd7c17;stroke-width:1px;stroke-linecap:round;stroke-linejoin:miter;stroke-opacity:1"
         d="m -46.141876,26.647368 c 0.0039,-0.898372 2.309308,0.01818 2.348765,-1.054213"
         id="path116615-7-8-4-5-0-3-6-1-6-3-2-0"
         sodipodi:nodetypes="cc" />
      <path
         style="fill:none;stroke:#bd7c17;stroke-width:1px;stroke-linecap:round;stroke-linejoin:miter;stroke-opacity:1"
         d="m -46.881071,24.231527 c 0.0039,-0.898372 2.309308,-0.228765 2.348765,-1.30116"
         id="path116615-7-8-4-5-0-3-6-1-6-3-2-0-6"
         sodipodi:nodetypes="cc" />
      <path
         style="fill:none;stroke:url(#linearGradient162715);stroke-width:1px;stroke-linecap:round;stroke-linejoin:miter;stroke-opacity:1"
         d="m -30.394321,33.21059 c -0.603413,1.329258 2.318927,3.139051 1.91948,3.39526"
         id="path116515"
         sodipodi:nodetypes="cc" />
      <path
         style="fill:none;stroke:#bd7c17;stroke-width:1px;stroke-linecap:round;stroke-linejoin:miter;stroke-opacity:1"
         d="m -29.915417,38.02219 c -0.603016,0.609298 -2.83231,-0.770238 -3.351487,-0.320851"
         id="path116617"
         sodipodi:nodetypes="cc" />
      <path
         style="fill:none;stroke:url(#linearGradient162669);stroke-width:1px;stroke-linecap:round;stroke-linejoin:miter;stroke-opacity:1"
         d="m -31.9741,35.733296 c -0.277139,0.492345 2.468867,1.91254 2.058683,2.288894"
         id="path116607"
         sodipodi:nodetypes="cc" />
      <path
         style="fill:none;stroke:#bd7c17;stroke-width:1px;stroke-linecap:round;stroke-linejoin:miter;stroke-opacity:1"
         d="m -31.210758,39.820364 c -0.404159,0.801359 -2.992571,-0.837955 -3.368055,-0.259011"
         id="path116619"
         sodipodi:nodetypes="cc" />
      <path
         style="fill:none;stroke:url(#linearGradient152826);stroke-width:1px;stroke-linecap:round;stroke-linejoin:miter;stroke-opacity:1"
         d="m -33.266904,37.701339 c -0.339941,0.354145 2.404201,1.796822 2.056146,2.119025"
         id="path116609"
         sodipodi:nodetypes="cc" />
      <path
         style="fill:none;stroke:#bd7c17;stroke-width:1px;stroke-linecap:round;stroke-linejoin:miter;stroke-opacity:1"
         d="m -32.298043,41.853362 c -0.4985,0.590246 -3.097013,-1.600388 -3.494939,-1.061332"
         id="path116621"
         sodipodi:nodetypes="cc" />
      <path
         style="fill:none;stroke:url(#linearGradient152704);stroke-width:1px;stroke-linecap:round;stroke-linejoin:miter;stroke-opacity:1"
         d="m -34.578813,39.561353 c -0.257581,0.38029 2.570996,1.921874 2.28077,2.292009"
         id="path116611"
         sodipodi:nodetypes="cc" />
      <path
         style="fill:none;stroke:url(#linearGradient132715);stroke-width:1px;stroke-linecap:round;stroke-linejoin:miter;stroke-opacity:1"
         d="m -36.819608,41.744946 c -0.423622,0.270357 0.749379,3.061015 0.287985,3.227025"
         id="path116613-3"
         sodipodi:nodetypes="cc" />
      <path
         style="fill:none;stroke:url(#linearGradient152658);stroke-width:1px;stroke-linecap:round;stroke-linejoin:miter;stroke-opacity:1"
         d="m -35.792982,40.79203 c -0.464356,0.176603 1.747158,2.618534 1.318039,2.828097"
         id="path116613"
         sodipodi:nodetypes="cc" />
      <path
         style="fill:none;stroke:url(#linearGradient163543);stroke-width:1px;stroke-linecap:round;stroke-linejoin:miter;stroke-opacity:1"
         d="m -38.534536,42.305702 c -0.426778,-0.03317 -0.292104,3.292894 -1.001715,3.296749"
         id="path116613-3-3"
         sodipodi:nodetypes="cc" />
      <path
         style="fill:none;stroke:url(#linearGradient164015);stroke-width:1px;stroke-linecap:round;stroke-linejoin:miter;stroke-opacity:1"
         d="m -40.072982,42.464353 c -0.512105,-0.154222 -1.393608,3.10049 -2.144556,2.655488"
         id="path116613-3-3-9"
         sodipodi:nodetypes="cc" />
      <path
         style="fill:none;stroke:url(#linearGradient164565);stroke-width:1px;stroke-linecap:round;stroke-linejoin:miter;stroke-opacity:1"
         d="m -40.985447,42.39979 c -0.589735,-0.770687 -3.680308,1.179605 -3.665323,0.659239"
         id="path116613-3-3-9-0"
         sodipodi:nodetypes="cc" />
      <path
         style="fill:none;stroke:url(#linearGradient165521);stroke-width:1px;stroke-linecap:round;stroke-linejoin:miter;stroke-opacity:1"
         d="m -41.418413,40.379452 c -0.0021,-0.634782 -3.585828,0.658007 -3.627891,0.124082"
         id="path116613-3-3-9-0-0"
         sodipodi:nodetypes="cc" />
      <path
         style="fill:none;stroke:url(#linearGradient165871);stroke-width:1px;stroke-linecap:round;stroke-linejoin:miter;stroke-opacity:1"
         d="m -41.134982,38.362379 c -0.0066,-0.401514 -3.635203,0.480398 -3.613821,-0.0021"
         id="path116613-3-3-9-0-0-1"
         sodipodi:nodetypes="cc" />
      <path
         style="fill:none;stroke:url(#linearGradient166291);stroke-width:1px;stroke-linecap:round;stroke-linejoin:miter;stroke-opacity:1"
         d="m -40.433738,36.343004 c 0.0021,-0.667254 -3.655828,0.140668 -3.608944,-0.356976"
         id="path116613-3-3-9-0-0-1-2"
         sodipodi:nodetypes="cc" />
      <path
         style="fill:none;stroke:url(#linearGradient166637);stroke-width:1px;stroke-linecap:round;stroke-linejoin:miter;stroke-opacity:1"
         d="m -40.1084,33.695598 c 0.03234,-0.405587 -3.706379,0.477508 -3.728711,-0.0462"
         id="path116613-3-3-9-0-0-1-2-7"
         sodipodi:nodetypes="cc" />
      <path
         style="fill:none;stroke:url(#linearGradient166985);stroke-width:1px;stroke-linecap:round;stroke-linejoin:miter;stroke-opacity:1"
         d="m -40.419768,31.586644 c -0.08328,-0.336938 -3.793655,0.373886 -3.896597,-0.223758"
         id="path116613-3-3-9-0-0-1-2-7-2"
         sodipodi:nodetypes="cc" />
      <path
         style="fill:none;stroke:url(#linearGradient167343);stroke-width:1px;stroke-linecap:round;stroke-linejoin:miter;stroke-opacity:1"
         d="m -41.388089,29.545589 c -0.01706,-0.369018 -3.314041,0.339737 -3.688649,-0.577896"
         id="path116613-3-3-9-0-0-1-2-7-2-3"
         sodipodi:nodetypes="cc" />
      <path
         style="fill:none;stroke:url(#linearGradient167701);stroke-width:1px;stroke-linecap:round;stroke-linejoin:miter;stroke-opacity:1"
         d="m -42.366343,27.324824 c -0.06567,-0.354978 -3.580734,0.0433 -3.775533,-0.677456"
         id="path116613-3-3-9-0-0-1-2-7-2-3-9"
         sodipodi:nodetypes="cc" />
      <path
         style="fill:none;stroke:url(#linearGradient167907);stroke-width:1px;stroke-linecap:round;stroke-linejoin:miter;stroke-opacity:1"
         d="m -43.793111,25.593155 c 0.08079,-0.850706 -3.317202,-0.600642 -3.08796,-1.361628"
         id="path116613-3-3-9-0-0-1-2-7-2-3-9-4"
         sodipodi:nodetypes="cc" />
    </g>
    <g
       id="g185513"
       transform="translate(97.679034,3.0407339)">
      <path
         style="opacity:1;fill:url(#linearGradient14259);fill-opacity:1;stroke:none;stroke-width:1px;stroke-linecap:butt;stroke-linejoin:miter;stroke-opacity:1"
         d="m -73.864728,17.725635 c -1.262734,-1.576707 -3.056224,-1.721287 -3.056224,-2.721287 0,-1 6.760553,-7.0207052 8.79306,-6.4159107 0.739804,0.2201366 0.453026,2.5632687 1.981847,3.2294137 1.44187,0.628257 8.369872,-5.6473623 8.365394,-6.6473523 -0.0075,-1.6793985 -3.00861,-4.79575952 -6.561611,-4.85313043 -7.116292,-0.11490796 -21.547987,13.37868873 -21.540457,18.65258673 0.0029,1.99973 2.642618,5.315785 3.774281,6.163924 1.477989,1.107697 9.359193,-6.0154 8.24371,-7.408244 z"
         id="path14398"
         sodipodi:nodetypes="sssssssss" />
      <path
         style="opacity:1;fill:none;fill-opacity:1;stroke:#9b6a07;stroke-width:1px;stroke-linecap:round;stroke-linejoin:round;stroke-opacity:1"
         d="m -73.864728,17.725635 c -1.262734,-1.576707 -3.056224,-1.721287 -3.056224,-2.721287 0,-1 6.760553,-7.0207052 8.79306,-6.4159107 0.739804,0.2201366 0.453026,2.5632687 1.981847,3.2294137 1.44187,0.628257 8.369872,-5.6473623 8.365394,-6.6473523 -0.0075,-1.6793985 -3.00861,-4.79575952 -6.561611,-4.85313043 -7.116292,-0.11490796 -21.547987,13.37868873 -21.540457,18.65258673 0.0029,1.99973 2.642618,5.315785 3.774281,6.163924 1.477989,1.107697 9.359193,-6.0154 8.24371,-7.408244 z"
         id="path953"
         sodipodi:nodetypes="sssssssss" />
      <path
         style="opacity:1;fill:none;stroke:#9b6a07;stroke-width:1px;stroke-linecap:butt;stroke-linejoin:miter;stroke-opacity:1"
         d="m -75.753999,16.138959 c -2.342742,2.575246 -5.359146,5.348264 -8.095855,7.130385"
         id="path5229"
         sodipodi:nodetypes="cc" />
      <path
         style="opacity:1;fill:none;stroke:#9b6a07;stroke-width:1px;stroke-linecap:butt;stroke-linejoin:miter;stroke-opacity:1"
         d="m -67.540206,9.7638174 c 2.937239,-1.6935362 6.350157,-4.9380287 8.2182,-7.1773938"
         id="path5815"
         sodipodi:nodetypes="cc" />
    </g>
  </g>
</svg>
