<?xml version="1.0" encoding="UTF-8" standalone="no"?>
<svg
   width="16"
   height="16"
   viewBox="0 0 16 16"
   version="1.1"
   id="svg8"
   inkscape:version="1.3.2 (1:1.3.2+202311252150+091e20ef0f)"
   sodipodi:docname="dotnet.16.svg"
   inkscape:export-filename="window.png"
   inkscape:export-xdpi="96"
   inkscape:export-ydpi="96"
   xml:space="preserve"
   xmlns:inkscape="http://www.inkscape.org/namespaces/inkscape"
   xmlns:sodipodi="http://sodipodi.sourceforge.net/DTD/sodipodi-0.dtd"
   xmlns:xlink="http://www.w3.org/1999/xlink"
   xmlns="http://www.w3.org/2000/svg"
   xmlns:svg="http://www.w3.org/2000/svg"
   xmlns:rdf="http://www.w3.org/1999/02/22-rdf-syntax-ns#"
   xmlns:cc="http://creativecommons.org/ns#"
   xmlns:dc="http://purl.org/dc/elements/1.1/"><defs
     id="defs2"><linearGradient
       inkscape:collect="always"
       xlink:href="#linearGradient3813"
       id="linearGradient1119"
       gradientUnits="userSpaceOnUse"
       x1="-94.14949"
       y1="7.382513"
       x2="-94.14949"
       y2="1.2452079"
       gradientTransform="matrix(0.32587593,0,0,0.32587593,50.248761,1.5942167)" /><linearGradient
       inkscape:collect="always"
       id="linearGradient3813"><stop
         style="stop-color:#003399;stop-opacity:1"
         offset="0"
         id="stop3809" /><stop
         style="stop-color:#0099ff;stop-opacity:1"
         offset="0.625"
         id="stop2" /><stop
         style="stop-color:#99ccff;stop-opacity:1"
         offset="1"
         id="stop1" /></linearGradient><linearGradient
       id="linearGradient4372"
       x1="231.10001"
       x2="231.10001"
       y1="58.146"
       y2="92.611"
       gradientUnits="userSpaceOnUse"
       gradientTransform="matrix(0.68635613,0,0,0.68635613,30.994385,84.771112)"><stop
         stop-color="#f15e3c"
         offset="0"
         id="stop1520" /><stop
         stop-color="#f15e3c"
         stop-opacity="0"
         offset="1"
         id="stop1522" /></linearGradient><linearGradient
       id="linearGradient3639"
       x1="154.98"
       x2="210.87"
       y1="116.49"
       y2="116.49"
       gradientUnits="userSpaceOnUse"
       gradientTransform="matrix(0.68635613,0,0,0.68635613,30.994385,84.771112)"><stop
         stop-color="#fed142"
         offset="0"
         id="stop1515" /><stop
         stop-color="#fed142"
         stop-opacity="0"
         offset="1"
         id="stop1517" /></linearGradient><linearGradient
       id="linearGradient2714"
       x1="133.52"
       x2="133.52"
       y1="139.16"
       y2="117.33"
       gradientUnits="userSpaceOnUse"
       gradientTransform="matrix(0.68635613,0,0,0.68635613,30.994385,84.771112)"><stop
         stop-color="#95ca66"
         offset="0"
         id="stop1510" /><stop
         stop-color="#95ca66"
         stop-opacity="0"
         offset="1"
         id="stop1512" /></linearGradient><linearGradient
       id="linearGradient1813"
       x1="84.403"
       x2="84.403"
       y1="58.334"
       y2="119.73"
       gradientUnits="userSpaceOnUse"
       gradientTransform="matrix(0.68635613,0,0,0.68635613,30.994385,84.771112)"><stop
         stop-color="#00b1e5"
         offset="0"
         id="stop1505" /><stop
         stop-color="#00b1e5"
         stop-opacity="0"
         offset="1"
         id="stop1507" /></linearGradient></defs><sodipodi:namedview
     inkscape:guide-bbox="true"
     id="base"
     pagecolor="#ffffff"
     bordercolor="#666666"
     borderopacity="1.0"
     inkscape:pageopacity="0.0"
     inkscape:pageshadow="2"
     inkscape:zoom="103.60889"
     inkscape:cx="4.637633"
     inkscape:cy="5.8247898"
     inkscape:document-units="px"
     inkscape:current-layer="layer1"
     inkscape:document-rotation="0"
     showgrid="true"
     units="px"
     inkscape:window-width="3840"
     inkscape:window-height="2058"
     inkscape:window-x="0"
     inkscape:window-y="0"
     inkscape:window-maximized="1"
     inkscape:snap-bbox="true"
     inkscape:bbox-nodes="true"
     fit-margin-top="0"
     fit-margin-left="0"
     fit-margin-right="0"
     fit-margin-bottom="0"
     inkscape:bbox-paths="false"
     inkscape:snap-global="true"
     showguides="true"
     inkscape:pagecheckerboard="0"
     inkscape:showpageshadow="2"
     inkscape:deskcolor="#d1d1d1"><inkscape:grid
       type="xygrid"
       id="grid1504"
       originx="0"
       originy="0"
       spacingy="1"
       spacingx="1"
       units="px"
       visible="true" /><inkscape:grid
       type="xygrid"
       id="grid1507"
       spacingx="0.5"
       spacingy="0.5"
       originx="0"
       originy="0"
       units="px"
       visible="true" /></sodipodi:namedview><metadata
     id="metadata5"><rdf:RDF><cc:Work
         rdf:about=""><dc:format>image/svg+xml</dc:format><dc:type
           rdf:resource="http://purl.org/dc/dcmitype/StillImage" /></cc:Work></rdf:RDF></metadata><g
     inkscape:label="Layer 1"
     inkscape:groupmode="layer"
     id="layer1"
     transform="translate(-12.567709)"><path
       style="fill:#efead8;fill-opacity:1;stroke:none;stroke-width:0.428294;stroke-linecap:butt;stroke-linejoin:miter;stroke-miterlimit:4;stroke-dasharray:none;stroke-opacity:1"
       d="M 13.067709,3.7283233 V 13.5 h 14 V 3.8244982 Z"
       id="path3642-2"
       sodipodi:nodetypes="ccccc" /><path
       style="fill:url(#linearGradient1119);fill-opacity:1;stroke:none;stroke-width:0.428294;stroke-linecap:butt;stroke-linejoin:miter;stroke-miterlimit:4;stroke-dasharray:none;stroke-opacity:1"
       d="m 13.067709,4 0.13205,-1.7571548 0.7359,-0.4856904 12.718278,0.1158807 0.401992,0.5412967 L 27.067709,4"
       id="path3338-0"
       sodipodi:nodetypes="cccccc" /><path
       style="fill:none;stroke:#0066cc;stroke-width:1;stroke-linecap:butt;stroke-linejoin:miter;stroke-miterlimit:4;stroke-dasharray:none;stroke-opacity:1"
       d="m 27.067709,3 c 0,-1 -0.5,-1.5 -1.5,-1.5 h -11 c -1,0 -1.5,0.5 -1.5,1.5 v 10.5 h 14 z"
       id="path116814-6"
       sodipodi:nodetypes="ccccccc" /><path
       id="rect162598-0"
       style="fill:#ff794b;fill-rule:evenodd;stroke-width:0.428294;stroke-linecap:round;stroke-linejoin:round;stroke-miterlimit:4;stroke-dasharray:none;stop-color:#000000"
       d="m 24.568183,2.4995076 h 1 l -9.48e-4,1.0009848 -0.999052,-9.848e-4 z"
       sodipodi:nodetypes="ccccc" /><path
       id="rect162598-0-5"
       style="fill:#99ccff;fill-rule:evenodd;stroke-width:0.428294;stroke-linecap:round;stroke-linejoin:round;stroke-miterlimit:4;stroke-dasharray:none;stop-color:#000000"
       d="m 22.568183,2.4995076 h 1 l -9.5e-4,1.0009847 -0.99905,-9.847e-4 z"
       sodipodi:nodetypes="ccccc" /><path
       id="rect162598-0-5-3"
       style="fill:#99ccff;fill-rule:evenodd;stroke-width:0.428294;stroke-linecap:round;stroke-linejoin:round;stroke-miterlimit:4;stroke-dasharray:none;stop-color:#000000"
       d="m 20.567709,2.5 h 1 L 21.566759,3.5009847 20.567709,3.5 Z"
       sodipodi:nodetypes="ccccc" /><g
       id="g2512"
       transform="matrix(0.06002429,0,0,0.06002429,11.686694,-0.4497929)"><path
         d="m 177.6481,148.90011 h 23.98197 V 124.367 H 177.6481 Z"
         fill="url(#linearGradient4372)"
         id="path1527"
         style="fill:url(#linearGradient4372);stroke-width:0.686356" /><path
         d="m 175.7263,180.70997 v -31.97733 h -38.35838 v 31.97733 z"
         fill="url(#linearGradient3639)"
         id="path1531"
         style="fill:url(#linearGradient3639);stroke-width:0.686356" /><path
         d="m 134.05076,165.05419 h -25.64227 v 15.74707 h 34.52028"
         fill="url(#linearGradient2714)"
         id="path1533"
         style="fill:url(#linearGradient2714);stroke-width:0.686356" /><path
         d="m 107.5025,124.11305 -27.555823,-0.0996 -9.48956,9.64742 -3.289087,-9.5479 v 43.38114 h 40.3344 c -1.60936,-1.82255 0,-41.81693 0,-43.38114 z"
         fill="url(#linearGradient1813)"
         id="path1535"
         style="fill:url(#linearGradient1813);stroke-width:0.686356" /><path
         d="m 31.337563,180.47232 c 0,-4.9192 3.986528,-8.90719 8.905471,-8.90719 4.918943,0 8.905471,3.98808 8.905471,8.90719 0,4.91766 -3.986528,8.90376 -8.905471,8.90376 -4.918943,0 -8.905471,-3.98653 -8.905471,-8.90376"
         id="path1557"
         style="fill:#231f20;stroke-width:0.857945" /><path
         d="m 115.33897,188.92308 h -10.11431 v -47.2539 c 0,-11.23565 -5.05544,-17.2773 -14.32597,-17.2773 -11.237366,0 -19.384413,10.1126 -19.384413,23.73762 v 40.79358 H 60.698162 v -72.74174 h 9.972755 v 13.54781 c 7.164528,-10.95596 12.64268,-14.60737 22.193325,-14.60737 8.849708,0 16.574638,4.77532 20.226058,12.50198 1.54585,3.51114 2.24842,8.70728 2.24842,18.54105 v 34.61894 h 21.07885 c -6.54827,-6.35145 -10.36054,-16.02813 -10.36054,-27.84203 0,-21.77208 13.20291,-36.8007 32.16608,-36.8007 0.539,0 1.07346,0.0151 1.60341,0.0379 h 41.36668 l -8.6e-4,-16.05644 10.54072,-0.416372 v 16.472552 h 17.21038 v 8.19861 h -17.21038 v 45.42047 c 0,7.16298 3.79117,10.81526 11.23565,10.81526 2.52845,0 4.4952,-0.1393 8.28792,-0.84182 v 8.56804 c -4.77532,0.70253 -7.02374,0.84334 -10.2533,0.84334 -13.06307,0 -19.80567,-7.16453 -19.80567,-21.06942 v -43.73547 h -22.33574 c 2.34228,2.37256 4.29239,5.21742 5.77011,8.47718 2.66924,5.90026 3.65193,11.51877 3.79272,20.64903 h -50.42744 c 0,8.14713 0.70252,11.79932 2.81011,16.15339 3.09015,6.32117 10.2533,10.53471 17.69769,10.53471 8.84971,0 14.60909,-4.21363 18.68176,-13.62503 l 9.97275,2.10754 c -4.4952,12.78167 -15.31003,20.36676 -29.35631,20.36676 -1.00688,0 -1.99403,-0.0409 -2.96454,-0.12112 h -39.49894 z m 23.21943,-43.42661 h 38.06531 c -0.2801,-13.06136 -7.16298,-21.0677 -18.25964,-21.0677 -6.04114,0 -11.09667,2.52699 -14.88964,7.16453 -3.09015,3.93205 -4.21517,7.30386 -4.91611,13.90386"
         id="path1559"
         style="fill:#231f20;stroke-width:0.857945" /></g></g></svg>
