<?xml version="1.0" encoding="UTF-8" standalone="no"?>
<svg xmlns:dc="http://purl.org/dc/elements/1.1/" xmlns:cc="http://creativecommons.org/ns#" xmlns:rdf="http://www.w3.org/1999/02/22-rdf-syntax-ns#" xmlns:svg="http://www.w3.org/2000/svg" xmlns="http://www.w3.org/2000/svg" xmlns:xlink="http://www.w3.org/1999/xlink" xmlns:sodipodi="http://sodipodi.sourceforge.net/DTD/sodipodi-0.dtd" xmlns:inkscape="http://www.inkscape.org/namespaces/inkscape" version="1.1" id="svg10" xml:space="preserve" width="607.47882" height="578.23053" viewBox="0 0 607.4788 578.23053" sodipodi:docname="Firefox 2004.svg" inkscape:version="1.0.2 (e86c870879, 2021-01-15, custom)"><metadata id="metadata16"><rdf:RDF><cc:Work rdf:about=""><dc:format>image/svg+xml</dc:format><dc:type rdf:resource="http://purl.org/dc/dcmitype/StillImage"/><dc:title/></cc:Work></rdf:RDF></metadata><defs id="defs14"><linearGradient inkscape:collect="always" id="linearGradient1117"><stop style="stop-color:#f87d24;stop-opacity:1" offset="0" id="stop1113"/><stop style="stop-color:#f3812d;stop-opacity:1" offset="1" id="stop1115"/></linearGradient><radialGradient fx="8.37988" fy="-25.759769" cx="8.37988" cy="-25.759769" r="4.2149401" gradientUnits="userSpaceOnUse" gradientTransform="matrix(22.803614,0.33762787,0.32697889,-22.084377,15.31,-60.750822)" spreadMethod="pad" id="radialGradient24"><stop style="stop-opacity:1;stop-color:#10a6e0" offset="0" id="stop20"/><stop style="stop-opacity:1;stop-color:#08508a" offset="1" id="stop22"/></radialGradient><radialGradient fx="7.7228875" fy="-25.623901" cx="7.7228875" cy="-25.623901" r="5.61165" gradientUnits="userSpaceOnUse" gradientTransform="matrix(23.221438,-0.7835016,-0.76931059,-22.800845,-2.8185435,-71.646895)" spreadMethod="pad" id="radialGradient32"><stop style="stop-opacity:1;stop-color:#11a6e0" offset="0" id="stop28"/><stop style="stop-opacity:1;stop-color:#001e4c" offset="1" id="stop30"/></radialGradient><linearGradient x1="1.09326" y1="-16.45801" x2="-4.8798099" y2="-25.798519" gradientUnits="userSpaceOnUse" gradientTransform="matrix(15.28743,0,0,-16.0154,136.25641,14.19536)" spreadMethod="pad" id="linearGradient42"><stop style="stop-opacity:1;stop-color:#ef571b" offset="0" id="stop38"/><stop style="stop-opacity:1;stop-color:#ab2421" offset="1" id="stop40"/></linearGradient><linearGradient x1="24.586033" y1="-26.168636" x2="24.26726" y2="-29.336809" gradientUnits="userSpaceOnUse" gradientTransform="matrix(2.3698,0,0,-10.39659,300.96265,155.11229)" spreadMethod="pad" id="linearGradient52"><stop style="stop-opacity:1;stop-color:#e85d0c" offset="0" id="stop48"/><stop style="stop-opacity:1;stop-color:#f8ea15" offset="1" id="stop50"/></linearGradient><linearGradient x1="12.64209" y1="-22.338869" x2="4.2685399" y2="-22.37674" gradientUnits="userSpaceOnUse" gradientTransform="matrix(54.7749,0,0,-39.16513,-268.64502,-531.39844)" spreadMethod="pad" id="linearGradient64"><stop style="stop-opacity:1;stop-color:#e85d0c" offset="0" id="stop56"/><stop style="stop-opacity:1;stop-color:#f4702a" offset="0.32671" id="stop58"/><stop style="stop-opacity:1;stop-color:#b41d23" offset="0.75" id="stop60"/><stop style="stop-opacity:1;stop-color:#b40502" offset="1" id="stop62"/></linearGradient><linearGradient x1="17.522638" y1="-19.977179" x2="20.53043" y2="-23.61578" gradientUnits="userSpaceOnUse" gradientTransform="matrix(7.9183,0,0,-18.31259,245.97043,-40.71307)" spreadMethod="pad" id="linearGradient72"><stop style="stop-opacity:1;stop-color:#f4702a" offset="0" id="stop68"/><stop style="stop-opacity:1;stop-color:#f8ea15" offset="1" id="stop70"/></linearGradient><linearGradient x1="6.1982398" y1="-15.8623" x2="13.67409" y2="-20.26753" gradientUnits="userSpaceOnUse" gradientTransform="matrix(23.09306,0,0,-19.03925,73.38033,-66.6691)" spreadMethod="pad" id="linearGradient82"><stop style="stop-opacity:1;stop-color:#db4f27" offset="0" id="stop76"/><stop style="stop-opacity:1;stop-color:#fbc21f" offset="0.5" id="stop78"/><stop style="stop-opacity:1;stop-color:#faf9a6" offset="1" id="stop80"/></linearGradient><linearGradient x1="14.567595" y1="-18.101671" x2="14.48489" y2="-22.71619" gradientUnits="userSpaceOnUse" gradientTransform="matrix(3.17247,0,0,-9.89137,289.81943,157.09485)" spreadMethod="pad" id="linearGradient90"><stop style="stop-opacity:1;stop-color:#e85d0c" offset="0" id="stop86"/><stop style="stop-opacity:1;stop-color:#f8ea15" offset="1" id="stop88"/></linearGradient><linearGradient x1="-11.96777" y1="-38.751949" x2="-9.3002501" y2="-43.653702" gradientUnits="userSpaceOnUse" gradientTransform="matrix(8.49863,0,0,-7.10045,208.43312,245.50237)" spreadMethod="pad" id="linearGradient98"><stop style="stop-opacity:1;stop-color:#ea671b" offset="0" id="stop94"/><stop style="stop-opacity:1;stop-color:#f6d4a0" offset="1" id="stop96"/></linearGradient><linearGradient x1="-14.14014" y1="-32.173828" x2="-17.72328" y2="-39.770031" gradientUnits="userSpaceOnUse" gradientTransform="matrix(6.01892,0,0,-6.78339,237.32146,247.01984)" spreadMethod="pad" id="linearGradient106"><stop style="stop-opacity:1;stop-color:#de461f" offset="0" id="stop102"/><stop style="stop-opacity:1;stop-color:#91191e" offset="1" id="stop104"/></linearGradient><linearGradient x1="-18.536619" y1="-39.275391" x2="-10.22168" y2="-39.275391" gradientUnits="userSpaceOnUse" gradientTransform="matrix(5.93228,0,0,-3.92044,239.12523,311.4967)" spreadMethod="pad" id="linearGradient114"><stop style="stop-opacity:1;stop-color:#f5c79f" offset="0" id="stop110"/><stop style="stop-opacity:1;stop-color:#fbfac6" offset="1" id="stop112"/></linearGradient><linearGradient x1="-58.724609" y1="-18.112301" x2="-60.08807" y2="-27.682711" gradientUnits="userSpaceOnUse" gradientTransform="matrix(2.91757,0,0,-10.61356,263.12952,143.46811)" spreadMethod="pad" id="linearGradient124"><stop style="stop-opacity:1;stop-color:#ef571b" offset="0" id="stop120"/><stop style="stop-opacity:1;stop-color:#ab2421" offset="1" id="stop122"/></linearGradient><linearGradient x1="-3.8867199" y1="-13.42773" x2="1.13449" y2="-13.24753" gradientUnits="userSpaceOnUse" gradientTransform="matrix(8.54524,0,0,-2.56531,217.37624,331.27255)" spreadMethod="pad" id="linearGradient134"><stop style="stop-opacity:1;stop-color:#ee531b" offset="0" id="stop130"/><stop style="stop-opacity:1;stop-color:#f6d4a0" offset="1" id="stop132"/></linearGradient><linearGradient x1="-17.562916" y1="-34.315994" x2="-19.743389" y2="-28.45645" gradientUnits="userSpaceOnUse" gradientTransform="matrix(9.94395,0,0,-7.99263,179.67209,216.81993)" spreadMethod="pad" id="linearGradient144"><stop style="stop-opacity:1;stop-color:#e85d0c" offset="0" id="stop138"/><stop style="stop-opacity:1;stop-color:#f1a21a" offset="1" id="stop142"/></linearGradient><linearGradient x1="-33.120026" y1="-34.820187" x2="-34.153858" y2="-40.027344" gradientUnits="userSpaceOnUse" gradientTransform="matrix(5.96114,0,0,-10.38142,222.61082,168.7533)" spreadMethod="pad" id="linearGradient152"><stop style="stop-opacity:1;stop-color:#c1330b" offset="0" id="stop148"/><stop style="stop-opacity:1;stop-color:#e85c06" offset="1" id="stop150"/></linearGradient><linearGradient x1="-30.002377" y1="-25.67959" x2="-28.662411" y2="-20.27902" gradientUnits="userSpaceOnUse" gradientTransform="matrix(6.61578,0,0,-17.06166,213.87437,-6.31587)" spreadMethod="pad" id="linearGradient160"><stop style="stop-opacity:1;stop-color:#e85d0c" offset="0" id="stop156"/><stop style="stop-opacity:1;stop-color:#f8ea15" offset="1" id="stop158"/></linearGradient><linearGradient x1="-34.925579" y1="-27.970161" x2="-37.865452" y2="-24.209431" gradientUnits="userSpaceOnUse" gradientTransform="matrix(5.67361,0,0,-10.04199,228.0296,164.92323)" spreadMethod="pad" id="linearGradient168"><stop style="stop-opacity:1;stop-color:#e85d0c" offset="0" id="stop164"/><stop style="stop-opacity:1;stop-color:#f8ea15" offset="1" id="stop166"/></linearGradient><linearGradient x1="-47.772507" y1="-36.605705" x2="-51.383011" y2="-31.54538" gradientUnits="userSpaceOnUse" gradientTransform="matrix(4.53276,0,0,-5.74251,238.18839,269.1824)" spreadMethod="pad" id="linearGradient176"><stop style="stop-opacity:1;stop-color:#e85d0c" offset="0" id="stop172"/><stop style="stop-opacity:1;stop-color:#f8ea15" offset="1" id="stop174"/></linearGradient><linearGradient x1="-44.657864" y1="-18.681837" x2="-37.04245" y2="-19.249063" gradientUnits="userSpaceOnUse" gradientTransform="matrix(6.8446665,0,0,15.131533,350.12719,660.04029)" spreadMethod="pad" id="linearGradient184"><stop style="stop-opacity:1;stop-color:#e85d0c" offset="0" id="stop180"/><stop style="stop-opacity:1;stop-color:#f8ea15" offset="1" id="stop182"/></linearGradient><linearGradient x1="-37.533768" y1="-12.807532" x2="-33.359436" y2="-9.1463871" gradientUnits="userSpaceOnUse" gradientTransform="matrix(4.83058,0,0,-8.82098,239.15665,175.57478)" spreadMethod="pad" id="linearGradient194"><stop style="stop-opacity:1;stop-color:#e85d0c" offset="0" id="stop188"/><stop style="stop-opacity:1;stop-color:#f25a1c" offset="0.19666" id="stop190"/><stop style="stop-opacity:1;stop-color:#f8ea15" offset="1" id="stop192"/></linearGradient><linearGradient x1="-28.600056" y1="-6.1054645" x2="-32.167904" y2="-8.7996845" gradientUnits="userSpaceOnUse" gradientTransform="matrix(5.57091,0,0,-7.58522,230.15207,203.18773)" spreadMethod="pad" id="linearGradient202"><stop style="stop-opacity:1;stop-color:#f8ea15" offset="0" id="stop198"/><stop style="stop-opacity:1;stop-color:#e85d0c" offset="1" id="stop200"/></linearGradient><linearGradient x1="-76.599472" y1="-6.7148075" x2="-70.308815" y2="-1.8062131" gradientUnits="userSpaceOnUse" gradientTransform="matrix(2.66957,0,0,-4.93924,263.02097,267.06696)" spreadMethod="pad" id="linearGradient212"><stop style="stop-opacity:1;stop-color:#e85d0c" offset="0" id="stop206"/><stop style="stop-opacity:1;stop-color:#e85d0c" offset="0.66066551" id="stop208"/><stop style="stop-opacity:1;stop-color:#f8ea15" offset="1" id="stop210"/></linearGradient><linearGradient x1="4.2080102" y1="-10.90137" x2="-3.8822" y2="-12.058" gradientUnits="userSpaceOnUse" gradientTransform="matrix(13.32184,0,0,-4.20461,162.8423,289.41464)" spreadMethod="pad" id="linearGradient220"><stop style="stop-opacity:1;stop-color:#de461f" offset="0" id="stop216"/><stop style="stop-opacity:1;stop-color:#91191e" offset="1" id="stop218"/></linearGradient><linearGradient x1="-12.71143" y1="-1.56836" x2="-21.30493" y2="-2.5172701" gradientUnits="userSpaceOnUse" gradientTransform="matrix(7.4025,0,0,-5.48088,216.54295,250.24515)" spreadMethod="pad" id="linearGradient232"><stop style="stop-opacity:1;stop-color:#f4702a" offset="0" id="stop224"/><stop style="stop-opacity:1;stop-color:#f4702a" offset="0.32671" id="stop226"/><stop style="stop-opacity:1;stop-color:#b41d23" offset="0.75" id="stop228"/><stop style="stop-opacity:1;stop-color:#b41d23" offset="1" id="stop230"/></linearGradient><linearGradient x1="-0.50477946" y1="13.852677" x2="9.3490133" y2="13.114965" gradientUnits="userSpaceOnUse" gradientTransform="matrix(12.17407,0,0,-3.08809,177.63647,306.96375)" spreadMethod="pad" id="linearGradient240"><stop style="stop-opacity:1;stop-color:#e85d0c" offset="0" id="stop236"/><stop style="stop-opacity:1;stop-color:#f8ea15" offset="1" id="stop238"/></linearGradient><linearGradient x1="-17.43331" y1="-60.724625" x2="-16.344431" y2="-66.357399" gradientUnits="userSpaceOnUse" gradientTransform="matrix(8.12469,0,0,-3.02483,205.20522,340.08795)" spreadMethod="pad" id="linearGradient248"><stop style="stop-opacity:1;stop-color:#e85d0c" offset="0" id="stop244"/><stop style="stop-opacity:1;stop-color:#f6d4a0" offset="1" id="stop246"/></linearGradient><linearGradient x1="13.721946" y1="-28.144354" x2="9.7089834" y2="-33.128304" gradientUnits="userSpaceOnUse" gradientTransform="matrix(19.0999,0,0,-17.12614,121.49928,7.56142)" spreadMethod="pad" id="linearGradient256"><stop style="stop-opacity:1;stop-color:#e85d0c" offset="0" id="stop252"/><stop style="stop-color:#f47929;stop-opacity:1" offset="0.5" id="stop1121"/><stop style="stop-opacity:1;stop-color:#f8ea15" offset="1" id="stop254"/></linearGradient><linearGradient x1="19.175686" y1="-23.579704" x2="19.232899" y2="-27.950617" gradientUnits="userSpaceOnUse" gradientTransform="matrix(5.6841,0,0,-19.22408,267.77887,-55.83174)" spreadMethod="pad" id="linearGradient264"><stop style="stop-opacity:1;stop-color:#e85d0c" offset="0" id="stop260"/><stop style="stop-opacity:1;stop-color:#f8ea15" offset="1" id="stop262"/></linearGradient><linearGradient x1="-39.66877" y1="-20.043823" x2="-35.833858" y2="-15.49803" gradientUnits="userSpaceOnUse" gradientTransform="matrix(5.42935,0,0,-13.78607,228.09827,65.174)" spreadMethod="pad" id="linearGradient272"><stop style="stop-opacity:1;stop-color:#f2521e" offset="0" id="stop268"/><stop style="stop-opacity:1;stop-color:#f8ea15" offset="1" id="stop270"/></linearGradient><linearGradient inkscape:collect="always" xlink:href="#linearGradient1117" id="linearGradient1119" x1="312.54297" y1="580.4375" x2="385.13965" y2="500.54346" gradientUnits="userSpaceOnUse"/></defs><sodipodi:namedview pagecolor="#ffffff" bordercolor="#666666" borderopacity="1" objecttolerance="10" gridtolerance="10" guidetolerance="10" inkscape:pageopacity="0" inkscape:pageshadow="2" inkscape:window-width="1920" inkscape:window-height="1001" id="namedview12" showgrid="false" inkscape:snap-bbox="true" inkscape:bbox-paths="true" inkscape:bbox-nodes="true" inkscape:snap-bbox-edge-midpoints="true" inkscape:snap-bbox-midpoints="true" inkscape:object-paths="true" inkscape:snap-intersection-paths="true" inkscape:snap-smooth-nodes="true" inkscape:snap-midpoints="true" inkscape:snap-object-midpoints="true" inkscape:snap-center="true" inkscape:snap-text-baseline="true" inkscape:snap-page="true" inkscape:snap-global="true" inkscape:zoom="0.70710678" inkscape:cx="854.72358" inkscape:cy="223.61917" inkscape:window-x="-9" inkscape:window-y="-9" inkscape:window-maximized="1" inkscape:current-layer="g18"/><g id="g18" inkscape:groupmode="layer" inkscape:label="Firefox" transform="matrix(1.3333333,0,0,-1.3333333,42.186852,819.40167)"><path d="m 366.44662,408.61614 c 0,116.65918 -53.95346,205.93513 -171.34652,205.93513 -117.38574,0 -212.54932,-94.56689 -212.54932,-211.22607 0,-116.6504 91.759811,-163.35024 209.14555,-163.35024 117.39306,0 174.75029,51.99078 174.75029,168.64118 z" style="fill:url(#radialGradient24);fill-opacity:1;fill-rule:nonzero;stroke:none;stroke-width:0.99975;stroke-miterlimit:4;stroke-dasharray:none;stroke-opacity:1" id="path26" sodipodi:nodetypes="sssss"/><path d="m 179.34619,614.23047 c -9.24951,0 -8.21777,-1.00293 -16.43994,-2.04248 -27.74414,-3.11377 -54.43555,-11.4419 -78.06982,-25.97705 -21.58106,-13.50049 -35.12207,-28.42627 -52.58838,-46.07959 29.94384,-31.9751 91.59912,-4.7876 91.59912,-4.7876 7.19433,-1.03955 8.23779,-4.17773 17.4873,-4.17773 11.30323,0 6.17969,2.09961 17.4834,4.17773 l 8.22217,12.44482 3.08496,6.22071 4.08936,5.17627 -3.08594,14.58056 c -0.004,0 3.08594,0 3.08594,0 -1.02735,6.23243 -8.22998,11.41358 -14.39844,13.48828 v 2.09034 c 3.08642,1.03564 8.22607,4.13379 11.3125,4.13379 3.08203,0 5.13574,-2.09082 8.21777,-2.09082 5.14014,1.03906 6.1919,6.26123 15.44092,5.22168 6.16309,-1.03565 6.13867,-4.15821 9.2168,-8.31153 6.17187,-6.22851 6.17187,-1.06347 11.3125,-12.48926 -11.30469,-1.03906 -2.07129,-10.39062 -1.04786,-16.62304 1.03125,-3.11426 -1.00683,-5.14795 1.04786,-8.2666 1.03125,-2.07471 6.16308,-4.18213 8.22558,-5.22168 -3.08594,-4.15284 -4.13379,-4.13672 -9.27344,-5.17627 1.03125,-3.11475 2.09571,-7.27979 5.18067,-9.35498 3.08594,-1.03907 15.37988,1.05175 17.44336,2.0874 4.1084,2.07812 7.20996,6.22412 12.35156,6.22412 l 22.56641,-7.26758 c -3.07813,-6.229 -6.15625,-6.24121 -5.13282,-9.35547 0,-3.11767 4.14161,-6.23633 7.22754,-8.31152 12.32715,-7.27149 6.17188,-5.2002 11.30371,-9.35449 l 6.13868,-4.13379 c 2.04687,-2.07813 4.13379,-6.22803 7.21191,-7.26758 6.1709,-2.07471 5.11523,8.2832 4.09277,11.40137 8.21778,1.03564 14.40528,-4.11719 20.57618,-0.99903 5.13281,2.0752 5.11621,11.42578 12.31152,8.31201 6.15527,-2.0791 -0.0166,-9.38769 2.03809,-14.58056 1.03125,-3.11426 4.11718,-5.18945 6.17968,-7.26807 l 4.12598,-9.31054 c 3.08496,-3.11329 5.7168,-5.70459 9.82519,-11.93262 7.19434,16.61426 -12.9121,43.05957 -24.21582,53.44482 -5.13964,4.15381 -21.99023,54.95557 -24.05273,57.03467 -3.08594,4.15381 -20.12207,12.5542 -24.23145,14.63281 -14.38085,7.26758 -31.86523,12.46143 -47.27734,15.57569 -6.16309,1.03857 -23.63086,4.13281 -29.78516,4.13281 h -28.80029 m 23.93506,-64.53711 c -3.05762,1.02246 -7.1377,-4.06494 -9.17627,-5.08398 -6.11475,-5.09571 -8.13184,-2.0752 -10.17041,-5.13184 -3.05762,-2.03858 -6.12305,-9.15625 -2.04248,-10.17578 l 8.17334,0.99902 c 3.05762,0 4.07178,0.0244 7.12988,1.04785 -1.01953,-2.03857 -3.06201,-6.13916 -2.04297,-8.17773 2.03907,-3.05664 12.2461,3.07031 13.26075,4.08935 2.03808,4.07618 -2.06153,5.08741 -1.04786,14.25977 -4.07617,5.09521 -1.02148,7.1582 -4.08398,8.17334 m 51.18359,-65.44385 c -0.98339,0.14649 -2.0791,0.16699 -3.36132,-0.0889 -10.29688,-2.06298 -0.0166,-11.32373 2.04492,-18.53125 1.02344,-2.0581 1.05664,-5.14794 -0.99805,-6.17529 -2.0625,-2.05908 -5.17285,2.0586 -8.2666,3.08594 l -6.17969,1.00293 c -4.11719,2.0581 -8.23437,9.29394 -18.53125,5.17627 -9.26465,-4.12061 -1.03906,-11.34033 -1.03906,-16.48828 0,-3.08594 -3.06934,-5.16016 -5.13184,-7.21924 2.0625,-6.1792 4.10938,-4.08887 9.26465,-7.17822 4.11817,-2.0586 5.15723,-6.18848 7.21973,-7.21973 l 12.35937,-3.08936 c -4.12597,-9.26562 -8.25879,-11.33642 -7.22656,-22.66064 0,-2.06201 1.05566,-4.10449 2.09375,-5.13184 2.05469,-3.09033 9.24121,1.01514 11.30371,-4.13379 1.02344,-3.08935 -2.0625,-5.11181 -3.08496,-7.17431 -1.03125,-3.08594 -1.03125,-4.13281 0,-7.22656 2.05371,1.03906 7.20313,3.09375 9.25684,0 0,-1.02344 0,-2.05469 0,-3.08594 -1.02246,-1.02344 -4.1084,-2.0625 -6.17188,-3.08594 -7.20996,-4.12598 -4.1084,-7.22754 -15.44433,-7.22754 2.0625,-3.08594 5.13183,-8.2334 5.13183,-12.34277 -2.0625,-7.21094 -10.76758,-0.73145 -15.91601,-1.75488 -3.09375,-1.03907 -6.74024,-6.4961 -9.83399,-8.5586 l -27.15137,-13.78808 c -19.56543,-9.26563 -35.38085,-8.54297 -57.00537,-8.54297 7.20703,-9.25782 32.69678,-29.13672 45.05664,-30.17578 0,6.18847 0.0122,10.3291 4.12891,14.44628 1.03125,1.03125 2.03027,2.03907 4.08887,2.03907 1.03174,0 12.37109,0.0156 7.22314,7.22656 0,1.02344 -1.01513,1.01562 -2.04638,2.04687 l 8.22167,8.2168 7.21924,7.21973 -4.1289,-21.61719 9.26172,3.09473 13.39843,-3.09473 9.26563,-1.04687 c -2.0625,-7.20313 2.0625,-7.20313 6.17187,-12.35157 3.09375,-4.11718 3.10938,-6.14648 4.14063,-10.26465 14.06445,1.6084 26.13183,8.42188 33.96875,19.53028 1.03125,2.0625 1.01465,10.3291 2.03808,14.43847 1.03907,4.125 2.0625,14.4209 9.27344,12.35938 1.02344,0 2.05469,-1.05566 3.08496,-2.09473 10.29785,3.09278 3.11914,10.29688 -0.99804,15.44434 3.09375,1.03125 9.26562,1.03125 12.35156,3.08594 4.125,3.09375 2.0625,7.24316 3.08594,11.35254 0,4.125 2.04589,6.17187 2.04589,11.32031 0,5.13965 -4.10058,8.23437 -2.04589,12.34375 2.0625,5.14746 6.16308,0 11.31054,3.08398 3.09473,3.09473 0.009,5.18555 7.22071,11.36133 -2.05469,11.32422 3.08496,8.21777 3.08496,20.57275 -4.1084,2.0586 -4.1084,2.0586 -6.17188,6.17627 -3.08594,0 -7.21875,0 -10.3125,0 -3.08594,-1.02734 -5.14062,-3.07373 -9.25781,-2.04248 -5.14746,2.0586 -5.16406,7.17432 -7.22656,10.26465 -1.02344,1.03125 -4.11719,3.11817 -3.08692,5.17627 0,2.0586 7.22852,9.26563 1.04004,12.35547 -2.05371,1.02734 -4.125,-1.04736 -10.30469,-1.04736 1.03125,3.09033 6.21192,8.22217 5.17286,11.31201 0,3.08545 -3.10254,5.16016 -4.12598,7.21924 -7.21094,9.26513 -4.14063,10.32519 -17.53223,11.35156 -3.09277,0 -5.00976,1.70166 -7.94922,2.13574 z" style="fill:url(#radialGradient32);fill-opacity:1;fill-rule:nonzero;stroke:none" id="path34"/><path d="m 353.50195,551.47998 -15.12011,4.82715 c 21.66601,-15.76611 37.32227,-34.63867 46.75781,-55.76367 -4.71093,39.78564 -29.06348,66.70215 -72.59668,79.89404 22.29883,-10.93848 35.9248,-20.48437 40.95898,-28.95752 z" style="fill:url(#linearGradient1119);fill-opacity:1;fill-rule:nonzero;stroke:none" id="path36" sodipodi:nodetypes="ccccc"/><path d="M 77.97803,423.39063 C 61.99707,416.63867 52.43115,399.0498 51.68018,379.75195 c 0.75097,-25.62793 13.39013,-46.06054 37.1958,-59.68652 18.87597,-11.68457 39.5957,-20.90918 60.72119,-26.69922 10.29687,-3.42773 20.19482,-3.31348 29.20556,-2.99707 -17.58984,5.89551 -33.53369,15.97363 -47.68798,30.33789 -8.90039,9.54199 -16.22461,21.00781 -21.79981,34.19629 -5.46875,18.98535 -7.2876,34.44629 -5.67627,46.46094 v 0.0933 c 0.42627,10.50781 4.80371,16.28955 13.16748,17.57666 -6.00537,0.53662 -10.1626,0.88965 -12.30615,0.99902 -1.9292,0.10547 -3.88184,0.21143 -5.81494,0.3169 -11.4458,0.59619 -9.41943,2.89062 -20.70703,3.04053 z" style="fill:url(#linearGradient42);fill-opacity:1;fill-rule:nonzero;stroke:none" id="path44"/><path d="m 297.95801,561.3457 c -11.05176,2.03858 -21.02344,1.2876 -29.81836,-2.14355 63.05566,-24.87695 92.97949,-54.47608 89.54492,-88.68408 -4.6123,7.18261 -10.72754,11.90429 -18.55566,14.25976 9.65527,-37.53271 10.62207,-68.52099 2.79394,-92.9751 -5.35937,16.30176 -10.29687,26.0625 -14.69824,29.49268 6.12305,-50.29736 -2.14356,-87.50537 -24.76758,-111.73779 4.28711,14.7959 6.00879,26.91113 5.03418,36.46191 -26.58594,-39.79101 -56.82617,-60.37598 -90.72168,-61.66797 -13.39844,0.11426 -26.05469,2.14356 -37.95459,6.00977 -9.01074,-0.3252 -18.66162,1.17676 -28.95801,4.6123 -21.12597,5.79004 -41.06933,14.46973 -59.9458,26.16407 -23.80517,13.61816 -36.13574,33.24511 -36.88672,58.87402 0.75098,19.30224 9.11475,32.27441 25.0918,39.03076 1.07227,0.43018 2.25342,0.86035 3.43067,1.28711 5.79443,0.10937 11.47509,0.10937 17.15869,0 v 0 c 1.9331,-0.10596 3.86132,-0.21533 5.79052,-0.3208 2.14746,-0.10596 6.32911,-0.43018 12.33448,-0.96631 9.43652,-0.85644 20.26904,-3.00049 32.49023,-6.54102 2.03858,11.68897 -0.6416,23.91504 -8.03906,36.46094 v 0.21485 c -1.93311,4.28759 -5.8999,8.14892 -12.11963,11.47412 -7.50781,19.08789 -9.5459,37.74853 -6.32617,55.979 l 0.10498,0.53613 -0.75098,0.75147 -34.84863,-1.18213 -57.91113,9.65088 C 15.70605,518.77393 4.01709,509.33838 -5.74414,497.96973 c -1.39307,-1.92823 -3.21582,-4.6084 -5.35986,-8.04395 0,0 -0.01557,-0.0628 0,-0.10547 6.51269,-13.1875 -20.21924,-74.61523 -12.76075,-106.56836 31.74268,-72.13476 79.88916,-96.48047 95.11963,-98.78613 47.02491,-55.56055 213.35254,-66.59668 257.48047,22.83398 l 23.85742,24.86524 c 19.11524,22.05566 22.5752,74.33105 24.18262,129.23828 v 1.17725 c -13.62598,46.00683 -52.65332,86.75537 -31.74219,67.5625 -14.21972,28.78662 -46.32812,44.93066 -70.46191,51.25634 11.9043,-5.25341 19.7334,-12.00976 23.38672,-20.05371 z" style="fill:#e85d0c;fill-opacity:1;fill-rule:nonzero;stroke:none" id="path46" sodipodi:nodetypes="cccccccccccccccssccccccccccccccccccccccc"/><path d="m 347.13574,390.9082 c 4.2793,-4.49804 9.90723,-4.61132 16.89063,-0.34082 6.52929,34.6875 1.68847,62.49951 -14.41407,83.3291 5.62793,-26.34716 4.73536,-53.93603 -2.47656,-82.98828 z" style="fill:url(#linearGradient52);fill-opacity:1;fill-rule:nonzero;stroke:none" id="path54"/><path d="m 398.79004,459.47803 c -3.64551,14.36914 -9.88281,23.96777 -17.60547,32.97412 1.60938,-5.2544 5.02637,-22.14942 3.8418,-30.94336 10.62207,-30.45606 10.02401,-73.7077 0.90389,-112.31708 11.90528,19.94434 23.22892,51.08466 31.16447,76.07147 -0.31739,-53.19384 -138.9834,-216.30127 -210.61426,-228.51416 l -27.23975,42.35547 c 40.53369,1.71289 77.85596,14.04883 111.96143,36.88379 0,0.11328 0.63379,0.42969 1.92383,1.07129 -4.6045,5.79785 -8.36328,10.19141 -11.14942,12.97656 -2.79297,2.89063 -8.89941,1.07227 -18.125,-5.57031 -12.8623,-7.73047 -23.59765,-12.87109 -32.27832,-15.12109 -18.66113,-15.5586 -41.07373,-20.38184 -67.34326,-14.69727 -13.29687,-0.10547 -26.91992,1.82617 -41.17871,5.89551 1.98926,-4.35254 4.66113,-5.87207 8.91943,-9.72949 -21.57959,5.45019 -44.47119,19.49023 -60.71582,33.65234 -8.05224,2.46875 -12.64843,3.3291 -27.56103,12.75684 l -0.21533,-0.10547 c -4.49512,0.74707 -57.15625,74.41601 -54.15625,117.10205 -3.32081,-4.29151 -6.9668,-17.90967 -11.04297,-40.63916 -1.18213,4.82324 -1.93311,10.07715 -2.25391,15.86719 0,0.21093 0,0.32421 0.10986,0.53613 -3.21972,31.20703 8.14844,58.01269 34.10205,80.42529 2.14356,6.75635 6.05762,15.39258 8.95264,21.07276 l -0.3208,0.75097 c -18.01514,-6.86133 -35.7666,-24.93017 -50.35107,-49.05957 -0.10547,-2.57471 0.10986,-5.03857 0.75097,-7.29297 l 13.29785,10.82959 c -4.82421,-12.11621 -8.04394,-24.98291 -9.65136,-38.60498 -4.93311,-44.71582 7.6167,-88.89941 37.85693,-132.53906 45.36133,-58.66211 102.41211,-90.08789 171.04248,-94.2627 68.63819,-4.07714 127.18701,21.22754 175.55225,75.70801 32.70215,40.10645 52.75195,82.04102 60.26172,125.8916 7.51269,30.13477 8.36523,56.19336 2.46972,78.06983 -2.03808,-15.65576 -4.2959,-23.69922 -6.54492,-24.23487 -0.6416,26.05811 -4.50781,49.33204 -11.68652,69.81153 4.18261,-22.19727 1.3164,-29.91211 -3.07715,-47.0708 z" style="fill:url(#linearGradient64);fill-opacity:1;fill-rule:nonzero;stroke:none" id="path66" sodipodi:nodetypes="ccccccccccccccccccccccccccccccccccccc"/><path d="m 381.01681,334.82539 7.40625,-19.40918 c 30.40857,56.14197 23.15424,59.68431 28.67167,109.84697 -13.5517,-33.76949 -21.93536,-60.27506 -36.07792,-90.43779 z" style="fill:url(#linearGradient72);fill-opacity:1;fill-rule:nonzero;stroke:none" id="path74" sodipodi:nodetypes="cccc"/><path d="m 352.33301,293.16309 c 4.56347,9.67089 10.59886,18.14384 13.64378,29.13114 2.86239,9.47699 7.61761,29.24313 8.6602,40.046 -10.97499,-9.50336 -20.48253,-25.95697 -26.43777,-34.05703 -6.30859,-7.17773 -12.61035,-13.80371 -18.70117,-20.00879 -12.50586,-12.39062 -24.57227,-22.7207 -36.10352,-30.66308 -1.2998,-0.64844 -1.95703,-0.97363 -1.95703,-1.08789 -34.57715,-23.15918 -72.41895,-35.66406 -113.52051,-37.40235 l 27.62207,-42.95703 c 72.63672,12.40723 121.56348,44.69532 146.79395,96.99903 z" style="fill:url(#linearGradient82);fill-opacity:1;fill-rule:nonzero;stroke:none" id="path84" sodipodi:nodetypes="cccccccccc"/><path d="m 347.17676,327.0332 c 0.43066,5.89551 0.53613,11.69336 0.3164,17.15918 -0.53613,16.08594 -4.28808,31.09278 -11.36816,45.36035 0.97363,-28.94921 -3.96289,-53.94433 -14.90137,-75.06543 l 7.51172,-7.1875 c 6.00098,6.11524 12.2207,12.65235 18.44141,19.7334 z" style="fill:url(#linearGradient90);fill-opacity:1;fill-rule:nonzero;stroke:none" id="path92"/><path d="m 96.99268,537.43066 c -4.39795,-5.14404 -8.402137,-10.92197 -10.330357,-17.24814 -0.10547,-1.28662 0.54053,-3.646 0.54053,-4.82813 34.164817,-0.0481 35.633087,1.27598 35.633087,1.27598 0.43018,0.21045 0.10498,1.82276 0.42627,2.03418 1.82275,9.76074 4.82763,18.12549 9.11523,25.31201 l 0.96582,0.85645 c 4.29199,7.07715 12.54639,14.68994 24.66602,22.83887 -22.52198,-2.78565 -42.89649,-12.86719 -61.0166,-30.24122 z" style="fill:url(#linearGradient98);fill-opacity:1;fill-rule:nonzero;stroke:none" id="path100" sodipodi:nodetypes="ccccccccc"/><path d="m 122.94092,516.63037 h -0.10498 c -3.21973,-18.23047 -1.18164,-36.89111 6.32617,-55.979 11.68848,6.97168 25.73779,13.19189 42.25049,18.44629 -3.00098,4.9331 -9.22071,9.32617 -18.65674,13.1875 -3.32568,0.96679 -7.50732,3.86132 -12.65625,8.79492 l -13.1919,12.8667 -3.96679,3.10986 c 0,-0.10547 0,-0.21094 0,-0.42627 z" style="fill:url(#linearGradient106);fill-opacity:1;fill-rule:nonzero;stroke:none" id="path108"/><path d="m 129.16211,460.65137 c 6.21973,-3.3252 10.18652,-7.18653 12.11963,-11.47412 11.47412,10.61767 21.66113,18.33642 30.3457,23.26904 3.86133,2.03857 6.11133,5.14892 6.86231,9.33105 -1.39258,-1.28711 -3.75196,-2.14355 -7.07715,-2.67968 -16.5127,-5.2544 -30.56201,-11.47461 -42.25049,-18.44629 z" style="fill:url(#linearGradient114);fill-opacity:1;fill-rule:nonzero;stroke:none" id="path116"/><path d="m 152.86133,492.60986 -0.10547,-0.3247 c 9.43603,-3.86133 15.65576,-8.2544 18.65674,-13.1875 3.32519,0.53613 5.68457,1.39257 7.07715,2.67968 0.10937,0.10547 0.21484,0.21485 0.32519,0.21485 l 0.10498,0.10547 c 0.10547,0.11035 0.3208,0.3247 0.43018,0.43115 2.24951,3.32471 1.49804,6.00537 -2.35938,8.36377 -8.04248,-0.43018 -16.08642,0.10498 -24.12939,1.71728 z" style="fill:#100f0d;fill-opacity:1;fill-rule:nonzero;stroke:none" id="path118"/><path d="m 98.70557,420.32959 v 0 c -8.36377,-9.00537 -13.08203,-12.97266 -14.15381,-12.01025 -2.46875,0.10937 -4.61231,3.64599 -6.43555,10.72314 -0.53613,-43.10791 7.50733,-72.06494 24.23584,-86.96631 -16.08642,29.06348 -17.26465,58.44336 -3.64648,88.25342 z" style="fill:url(#linearGradient124);fill-opacity:1;fill-rule:nonzero;stroke:none" id="path126"/><path d="m 103.63867,401.34814 v 0 c -1.60742,-12.01416 0.21582,-27.45166 5.68457,-46.42919 21.98242,-13.72364 46.54248,-18.01954 73.88428,-12.8711 7.93799,2.03809 15.12451,4.92969 21.66553,9.00586 5.8955,3.9707 11.04297,3.6543 15.12011,-0.86133 3.75196,1.39649 7.292,1.292 10.72754,-0.31543 7.07325,0.96485 9.53321,4.71778 7.17871,11.04297 -3.42773,4.71875 -8.57519,9.00586 -15.22656,12.75684 -14.47851,7.51172 -29.59912,6.33496 -45.36084,-3.6377 -15.01513,-8.47754 -29.48926,-8.15332 -43.5376,0.86035 -9.22509,6.31836 -18.125,14.7959 -26.70459,25.41016 z" style="fill:#ee531b;fill-opacity:1;fill-rule:nonzero;stroke:none" id="path128"/><path d="m 202.83496,364.67969 c 0.10547,0 0.20996,0 0.20996,0 0.86133,0 1.60938,0 2.14453,0.0976 5.47364,-0.0976 9.76172,-1.38867 12.65235,-3.96289 3.65429,-5.35937 8.37207,-7.29199 14.26758,-5.8955 5.36718,1.17773 6,3.96289 1.93261,8.25097 -7.61719,6.33301 -15.66504,10.50684 -24.24023,12.55371 -9.00488,0.85254 -23.69531,-4.40136 -44.17871,-15.76953 18.98144,3.65332 31.31201,5.26074 37.21191,4.72559 z" style="fill:url(#linearGradient134);fill-opacity:1;fill-rule:nonzero;stroke:none" id="path136"/><path d="m 46.14551,495.93945 c -4.21778,2.50879 -9.57764,5.01807 -16.1919,7.6416 -3.30517,1.14063 -6.84131,2.39502 -10.71923,3.64991 -27.9180943,-11.4091 -29.726285,-13.56132 -41.73145,-35.46192 -6.84131,-12.20166 -8.80176,-22.33593 -9.14307,-31 15.50586,25.65284 31.14991,42.05957 50.30664,49.35596 0,0.11377 0.11329,0.11377 0.22705,0.11377 0.22754,0.11426 0.45411,0.22754 0.79932,0.22754 -0.11719,0 -0.11719,0 -0.11719,-0.11328 9.00928,2.39502 17.10596,3.30859 24.17481,2.96777 l 7.2959,-0.7998 c -1.36817,1.14062 -2.96387,2.27734 -4.90088,3.41845 z" style="fill:url(#linearGradient144);fill-opacity:1;fill-rule:nonzero;stroke:none" id="path146" sodipodi:nodetypes="cccccccccccc"/><path d="m 43.69385,533.89404 0.10547,0.10645 C 30.93213,539.89941 22.24756,556.7373 18.06543,584.29395 1.65771,568.21143 -6.27979,539.46924 -5.74414,497.96973 Z" style="fill:url(#linearGradient152);fill-opacity:1;fill-rule:nonzero;stroke:none" id="path154"/><path d="m -23.86475,389.9834 c -0.10986,-0.21192 -0.10986,-0.3252 -0.10986,-0.53613 0.3208,-5.79004 1.07178,-11.04395 2.25391,-15.86719 4.07617,22.72949 7.72216,36.34765 11.04297,40.63916 -3,-42.68604 -0.31983,-74.20947 8.04394,-94.36377 l -0.9668,6.9668 h -0.10498 c -0.10547,0.53613 -0.21582,1.07128 -0.21582,1.60839 -0.10547,0.42188 -0.10547,0.74707 -0.10547,1.07129 l -0.43017,2.25782 h 0.10937 c -1.39648,12.74902 -1.07568,24.7666 0.74707,36.13574 l 0.11036,0.3164 c 2.14355,14.26856 4.71777,24.98731 7.71826,32.2793 2.14746,-14.25976 6.75586,-27.77148 13.8374,-40.64258 2.14355,-3.97168 4.6084,-7.93457 7.29199,-11.7998 -12.76123,29.07129 -14.69433,56.83935 -5.89941,83.11328 0.21484,1.17725 0.53564,2.25342 0.75097,3.32519 2.57422,9.542 6.11084,18.65674 10.82862,27.23682 -34.31299,-22.4126 -51.58106,-47.39941 -54.90235,-71.74072 z" style="fill:url(#linearGradient160);fill-opacity:1;fill-rule:nonzero;stroke:none" id="path162"/><path d="m 62.56543,474.3916 -16.05859,10.30127 c -6.20362,-7.42236 -11.40918,-15.06348 -15.7295,-23.03857 -4.87158,-8.85889 -8.52588,-18.271 -11.18164,-28.12891 -0.22265,-1.10791 -0.55566,-2.21338 -0.77539,-3.43115 -2.10742,-9.19238 -3.21142,-18.82764 -3.43506,-28.90479 11.85254,35.32813 27.57764,59.80371 47.18018,73.20215 z" style="fill:url(#linearGradient168);fill-opacity:1;fill-rule:nonzero;stroke:none" id="path170"/><path d="m 18.08154,489.50781 c -3.06591,-6.01758 -5.67627,-12.60302 -7.9458,-19.75293 -2.49707,-7.49511 -4.20263,-15.55517 -5.1084,-23.95556 12.48536,20.20752 25.08887,35.99023 37.6919,47.6831 -7.04102,0.3374 -15.1001,-0.56787 -24.06983,-2.95556 -0.11328,-0.11329 -0.11328,-0.22754 -0.22656,-0.33692 -0.11377,-0.22705 -0.22803,-0.45459 -0.34131,-0.68213 z" style="fill:url(#linearGradient176);fill-opacity:1;fill-rule:nonzero;stroke:none" id="path178"/><path id="path186" style="fill:url(#linearGradient184);fill-opacity:1;fill-rule:nonzero;stroke:none;stroke-width:1.33333" d="m 47.824219,282.83594 c -4.000653,9.72396 -11.253901,34.32291 -11.433594,46.03906 0.152731,1.18063 0.32214,2.34475 0.494141,3.50781 -1.959337,14.12064 -2.213494,28.97523 -0.494141,44.67188 h 0.140625 c 0.427733,1.4401 0.854161,2.8711 1.427734,4.30078 12.727867,38.17709 30.885421,62.62434 54.191407,73.35351 -17.729813,-19.59636 -29.742187,-40.75325 -36.314453,-63.77148 7.145839,13.4362 16.013675,24.87955 26.732421,34.31055 4.4336,3.86588 9.008466,7.28776 14.015625,10.4375 -13.728519,-15.4388 -22.591147,-30.45638 -26.310546,-45.0293 l 0.427734,1.70898 c -0.2806,-0.43229 -0.426433,-1.14649 -0.566406,-1.58007 -5.29492,-15.58074 -6.579422,-32.5905 -3.861328,-51.18164 -9.442054,-17.16147 -15.585939,-37.7539 -18.449219,-56.76758 z" transform="matrix(0.75000002,0,0,-0.75000002,-31.64014,614.55127)"/><path d="m 56.56055,316.52539 c 0,3.96289 0.32422,7.72266 1.07226,11.36816 -2.78564,-3.6455 -5.79052,-6.00878 -8.68554,-6.86914 -3.21582,-0.95898 -6.75635,1.82715 -11.04395,8.58301 -0.43018,-11.36035 1.39258,-22.19336 5.79053,-32.38476 6.32519,-14.80371 17.69433,-28.52735 34.31738,-40.96778 -1.39697,2.14453 -2.57519,4.19043 -3.75635,6.22071 -4.39697,7.40625 -7.82812,14.58398 -10.61767,21.4541 -0.10547,0.21094 -0.21094,0.42187 -0.21094,0.63379 -4.39746,11.15722 -6.65088,21.55957 -6.86572,31.10156 0,0.32422 0,0.53516 0,0.86035 z" style="fill:url(#linearGradient194);fill-opacity:1;fill-rule:nonzero;stroke:none" id="path196"/><path d="m 28.99902,295.18457 c 5.2583,-12.65137 23.48877,-33.78125 41.82471,-45.68555 l -5.89941,6.97461 c -10.39795,12.75782 -17.321439,26.25433 -21.178369,40.62738 -8.526738,8.11597 -19.273538,27.44617 -25.469607,34.73573 2.78955,-10.94532 8.043476,-28.70979 10.722676,-36.65217 z" style="fill:url(#linearGradient202);fill-opacity:1;fill-rule:nonzero;stroke:none" id="path204" sodipodi:nodetypes="cccccc"/><path d="m 63.42627,284.56348 c 0,-0.21192 0.10547,-0.42285 0.21094,-0.63379 3.32568,-3.21582 7.18652,-5.79785 11.68945,-7.94141 1.07617,-0.42285 2.25342,-0.95898 3.43555,-1.39746 -2.68408,3.00488 -5.2583,6.33496 -7.50733,9.875 -6.00537,8.78613 -10.83349,19.19629 -14.69433,31.19922 0.21484,-9.54199 2.46826,-19.94434 6.86572,-31.10156 z" style="fill:url(#linearGradient212);fill-opacity:1;fill-rule:nonzero;stroke:none" id="path214"/><path d="m 220.09863,350.0957 -0.10547,0.0967 c -4.07714,4.51563 -9.49316,6.15625 -15.12011,0.86133 -6.54102,-4.07617 -14.51953,-6.1709 -22.45703,-8.21777 -27.3462,-5.14063 -51.11036,-1.64063 -73.09278,12.08301 5.5752,-13.1875 12.69678,-24.92969 21.59668,-34.4795 22.19727,-1.93261 42.42529,1.875 60.22559,10.88184 l 28.95312,18.77441 z" style="fill:url(#linearGradient220);fill-opacity:1;fill-rule:nonzero;stroke:none" id="path222"/><path d="m 125.19531,238.34961 c -19.62353,11.05176 -36.24658,23.48437 -49.86865,37.63867 -4.50293,2.14356 -8.36377,4.72559 -11.68945,7.94141 2.78955,-6.87012 6.2207,-14.04785 10.61767,-21.4541 12.8711,-10.29688 29.81397,-18.33594 50.94043,-24.12598 z" style="fill:url(#linearGradient232);fill-opacity:1;fill-rule:nonzero;stroke:none" id="path234"/><path d="m 231.57324,269.34473 c 2.24903,1.81933 4.39258,3.85742 6.53614,6.00195 -29.37891,-12.66016 -57.47168,-11.7998 -84.39161,2.67969 6.54151,-5.46582 8.2583,-9.43653 5.14893,-11.68555 -3.00098,-2.57422 -10.40234,-3.3291 -21.98291,-2.46875 9.54199,-4.18262 18.65674,-7.29199 27.34619,-9.22461 26.26953,-5.68457 48.68213,-0.86133 67.34326,14.69727 z" style="fill:url(#linearGradient240);fill-opacity:1;fill-rule:nonzero;stroke:none" id="path242"/><path d="m 87.44678,520.27637 c 1.92822,6.32617 5.14795,12.01025 9.5459,17.15429 -15.01465,5.47413 -32.81495,4.292 -53.29883,-3.53662 -3.904721,-2.42415 -7.430118,-5.26351 -11.064946,-8.04039 14.04834,-9.43555 30.046386,-12.1183 54.712406,-9.11781 0,1.18213 0,2.25391 0.10547,3.54053 z" style="fill:url(#linearGradient248);fill-opacity:1;fill-rule:nonzero;stroke:none" id="path250" sodipodi:nodetypes="cccccc"/><path d="m 338.38184,556.30713 15.12011,-4.82715 c -5.03418,8.47315 -18.66015,18.01904 -40.95898,28.95752 -18.66211,5.57422 -40.86328,8.79004 -66.49024,9.54102 11.25391,-2.24903 20.80372,-5.03858 28.51856,-8.57911 24.13379,-6.32568 47.61914,-23.375 70.46191,-51.25634 -20.91113,19.19287 -41.29297,28.52343 -61.02539,27.88134 48.1543,-17.58837 79.1416,-51.41064 92.76758,-97.41357 0.10645,5.68457 6.00195,7.3335 8.25098,0.89795 1.18457,8.79394 1.07129,15.76562 -0.53614,21.02002 7.73047,-9.00977 13.30176,-20.58985 16.94825,-34.95899 4.39257,17.1587 4.61132,36.78174 0.42871,58.97901 0,0.10547 -0.11328,0.3208 -0.20996,0.53564 -5.58789,15.98145 -13.19532,30.24121 -22.73828,42.89649 5.8955,-23.16309 7.93359,-39.5708 6.2207,-49.4375 -0.11328,0.21582 -0.20996,0.3208 -0.20996,0.53662 -9.44531,21.12549 -24.88184,39.46094 -46.54785,55.22705 z" style="fill:url(#linearGradient256);fill-opacity:1;fill-rule:nonzero;stroke:none" id="path258"/><path d="m 376.88184,463.60791 v -1.19824 c -1.63282,-55.82813 -5.50949,-85.24132 -23.72336,-108.9044 0.21972,-5.55469 0.10644,-11.4502 -0.33301,-17.44336 7.20313,8.17773 14.39844,16.89941 21.81152,26.27832 -1.41308,-10.68653 -3.49121,-20.8291 -6.10644,-30.41895 9.16015,10.79199 17.55762,22.56641 25.18945,35.4375 9.27344,39.25049 2.34934,64.19298 -8.44266,95.16075 -2.28906,6.54102 -5.01757,12.75684 -8.17675,18.97363 0,-6.21679 -0.11329,-12.10351 -0.21875,-17.88525 z" style="fill:url(#linearGradient264);fill-opacity:1;fill-rule:nonzero;stroke:none" id="path266" sodipodi:nodetypes="cccccccccc"/><path style="fill:#016096;fill-opacity:1;stroke:none;stroke-width:0.765256px;stroke-linecap:butt;stroke-linejoin:miter;stroke-opacity:1" d="m 207.36523,542.30968 c 0,0 -2.83255,3.52293 -2.74708,7.52004 0.0855,3.9971 -11.49717,-5.53071 -13.42602,-6.4248 -1.92885,-0.8941 -3.52987,-0.0197 -5.5635,-1.74921 -2.03362,-1.72956 -8.82931,-10.3416 -3.73654,-12.06643 5.09278,-1.72483 15.30322,2.13099 15.30322,2.13099 0,0 -5.44362,-10.19314 0.51672,-9.36695 5.96034,0.82619 10.9226,5.15499 11.09508,6.13221 0.17247,0.97724 -0.62814,4.35238 -0.9648,5.84523 -0.33665,1.49284 -1.09671,4.27002 -0.47708,7.97892 z" id="path1129"/></g></svg>