<?xml version="1.0" encoding="UTF-8" standalone="no"?>
<svg
   version="1.0"
   width="256"
   height="256"
   id="svg2"
   sodipodi:version="0.32"
   inkscape:version="1.1.2 (0a00cf5339, 2022-02-04)"
   sodipodi:docname="Inkscape_logo_2.svg"
   inkscape:output_extension="org.inkscape.output.svg.inkscape"
   inkscape:export-filename="inkscape.png"
   inkscape:export-xdpi="96"
   inkscape:export-ydpi="96"
   xmlns:inkscape="http://www.inkscape.org/namespaces/inkscape"
   xmlns:sodipodi="http://sodipodi.sourceforge.net/DTD/sodipodi-0.dtd"
   xmlns:xlink="http://www.w3.org/1999/xlink"
   xmlns="http://www.w3.org/2000/svg"
   xmlns:svg="http://www.w3.org/2000/svg"
   xmlns:rdf="http://www.w3.org/1999/02/22-rdf-syntax-ns#"
   xmlns:cc="http://creativecommons.org/ns#"
   xmlns:dc="http://purl.org/dc/elements/1.1/">
  <sodipodi:namedview
     bordercohor="#666666"
     inkscape:window-height="2050"
     inkscape:window-width="3840"
     inkscape:pageshadow="2"
     inkscape:pageopacity="0.0"
     guidetolerance="10.0"
     gridtolerance="10.0"
     objecttolerance="10.0"
     borderopacity="1.0"
     bordercolor="#666666"
     pagecolor="#ffffff"
     id="base"
     inkscape:zoom="2.8284271"
     inkscape:cx="-5.3033009"
     inkscape:cy="221.85475"
     inkscape:window-x="3840"
     inkscape:window-y="0"
     inkscape:current-layer="svg2"
     inkscape:pagecheckerboard="0"
     showgrid="false"
     inkscape:window-maximized="1" />
  <defs
     id="defs4">
    <linearGradient
       id="WhiteTransparent"
       gradientUnits="userSpaceOnUse">
      <stop
         style="stop-color:white;stop-opacity:1"
         offset="0"
         id="stop7" />
      <stop
         style="stop-color:white;stop-opacity:0"
         offset="1"
         id="stop9" />
    </linearGradient>
    <linearGradient
       id="BlackTransparent"
       gradientUnits="userSpaceOnUse">
      <stop
         style="stop-color:black;stop-opacity:1"
         offset="0"
         id="stop12" />
      <stop
         style="stop-color:black;stop-opacity:0"
         offset="1"
         id="stop14" />
    </linearGradient>
    <linearGradient
       id="liquidShade"
       xlink:href="#BlackTransparent"
       x1="0"
       y1="128"
       x2="0"
       y2="64"
       gradientUnits="userSpaceOnUse"
       gradientTransform="scale(1.9999961)" />
    <linearGradient
       id="liquidSpecular"
       xlink:href="#WhiteTransparent"
       x1="0"
       y1="128"
       x2="0"
       y2="76"
       gradientUnits="userSpaceOnUse" />
    <linearGradient
       id="sideSpecular"
       xlink:href="#WhiteTransparent"
       x1="80"
       y1="20"
       x2="60"
       y2="40"
       gradientUnits="userSpaceOnUse" />
    <linearGradient
       id="IcecapTip"
       xlink:href="#WhiteTransparent"
       x1="60"
       y1="20"
       x2="90"
       y2="50"
       gradientUnits="userSpaceOnUse"
       gradientTransform="scale(1.9999961)" />
    <linearGradient
       id="shinySpecular"
       xlink:href="#WhiteTransparent"
       x1="33"
       y1="35"
       x2="58"
       y2="60"
       gradientUnits="userSpaceOnUse"
       gradientTransform="scale(1.9999961)" />
    <clipPath
       clipPathUnits="userSpaceOnUse"
       id="clipoutline1">
      <path
         id="outline1"
         d="M 54.1,12.5 12.9,54.7 C -2.7,70.3 23,69 32.3,74.9 36.6,77.7 18.5,81.3 22.2,85 c 3.6,3.7 21.7,7.1 25.3,10.7 3.6,3.7 -7.3,7.6 -3.7,11.3 3.5,3.7 11.9,0.2 13.4,8.6 1.1,6.2 15.4,3.1 21.8,-2.2 4,-3.4 -6.9,-3.4 -3.3,-7.1 9,-9.1 17,-4.1 20.3,-12.5 1.8,-4.5 -13.6,-7.7 -9.5,-10.6 9.8,-6.9 45.8,-10.4 29.2,-27 L 73,12.5 c -5.3,-5 -14,-5 -18.9,0 z m -9.9,64.7 c 0.9,0 30.8,4 19.3,7.1 -4.4,1.2 -24.6,-7.1 -19.3,-7.1 z m 57.2,16.6 c 0,2.1 16.3,3.3 15.4,-0.5 -1.3,-6.4 -13.6,-5.9 -15.4,0.5 z m -69.5,11.1 c 3.7,3.2 9.3,-0.7 11.1,-5.2 -3.6,-4.7 -16.9,0.3 -11.1,5.2 z m 67.5,-6.7 c -4.6,4.2 0.8,8.6 5.3,5.7 1.2,-0.8 -0.1,-4.7 -5.3,-5.7 z" />
    </clipPath>
    <filter
       id="ShadowBlur"
       filterUnits="userSpaceOnUse"
       x="0"
       y="0">
      <feGaussianBlur
         in="SourceAlpha"
         stdDeviation="3"
         result="blur"
         id="feGaussianBlur24" />
    </filter>
    <filter
       inkscape:collect="always"
       style="color-interpolation-filters:sRGB"
       id="filter1283"
       x="-0.047626156"
       y="-0.04837976"
       width="1.0952523"
       height="1.0967595">
      <feGaussianBlur
         inkscape:collect="always"
         stdDeviation="2.2230833"
         id="feGaussianBlur1285" />
    </filter>
  </defs>
  <style
     type="text/css"
     id="style26">
	.specularity {opacity:0.5;}
	.low-specularity {opacity:0.25;}
	.full-specularity {opacity:1;}
	.black {fill:#000000;}
	.white {fill:#ffffff;}
	.outline-big {stroke-width:16;stroke:none;opacity:0.1;fill:none;}
	.outline-small {stroke-width:8;stroke:none;opacity:0.2;fill:none;}
	.stroke-highlight {fill:none;stroke:none;opacity:0.2;}
       	.base-shadow 	{fill:black;opacity:75;}
	</style>
  <use
     style="opacity:1;fill:#000000;fill-opacity:1;filter:url(#filter1283)"
     class="low-specularity"
     xlink:href="#outline1"
     id="use1046"
     x="0"
     y="0"
     width="100%"
     height="100%"
     transform="matrix(1.9999961,0,0,1.9999961,4.9998506,4.0000341)" />
  <path
     filter="url(#ShadowBlur)"
     class="base-shadow"
     d="m 8,62.9 c -2.5,9.4 15.4,11.1 24.3,14.7 2.2,1 1.2,-3.2 0.1,-4.2 C 25.2,69.8 10.2,69 8,62.9 Z m 111.6,1 c -2.7,8.9 -25,13.1 -33,17.8 -2.1,1.2 -3.2,6.3 0.4,4.3 9.6,-5.3 35.8,-10.7 32.6,-22.1 z M 44.3,75.7 C 41,75.7 39,77.3 44.9,79.4 52.6,80 63.7,83 66,84 69.8,77.5 45,75.7 44.3,75.7 Z m -21.1,8.5 c -1.4,-1.2 -2.9,1 -0.9,2.8 3.5,3.8 22.6,7.9 26.3,11.5 1.8,0.9 1.2,-2.5 0.1,-3.6 C 45.3,91.5 28.2,87.6 23.2,84.2 Z m 78.5,9.7 c 0.2,3.5 15.8,7.6 15.2,0.1 -0.2,-2.6 -15.4,-2.7 -15.2,-0.1 z m -6.1,-0.2 c -3.4,7.1 -11.3,2.5 -19.8,11.1 -2.3,1.7 -1.3,6.2 1,3.8 8.7,-8.2 16.4,-3.7 19.4,-12.6 0.2,-1 0,-1.6 -0.6,-2.3 z M 31.5,106 c 4.5,5 9.8,1.8 11.5,-5.7 -0.4,-1.7 -16.8,0.1 -11.5,5.7 z m 67.2,-5.8 c -5.4,4.4 3.3,9.4 6,5.8 3.6,-4.7 -3.4,-3.4 -6,-5.8 z M 43.5,105 c -0.9,1.2 -0.8,3 0.3,4.2 3.6,3.6 12,0.1 13.5,8.6 1.1,6.1 15.2,3.5 22,-1.4 1.5,-1.6 1.6,-5.4 -0.3,-4.4 -29.8,13.4 -10.8,-3.8 -35.5,-7 z"
     id="path30"
     transform="scale(1.9999961)" />
  <use
     class="outline-big"
     xlink:href="#outline1"
     id="use32"
     x="0"
     y="0"
     width="100%"
     height="100%"
     transform="scale(1.9999961)" />
  <use
     class="outline-small"
     xlink:href="#outline1"
     id="use34"
     x="0"
     y="0"
     width="100%"
     height="100%"
     transform="scale(1.9999961)" />
  <use
     class="black;"
     xlink:href="#outline1"
     id="use36"
     x="0"
     y="0"
     width="100%"
     height="100%"
     transform="scale(1.9999961)" />
  <use
     clip-path="url(#clipoutline1)"
     xlink:href="#outline1"
     class="stroke-highlight"
     id="use38"
     x="0"
     y="0"
     width="100%"
     height="100%"
     transform="scale(1.9999961)" />
  <use
     style="fill:url(#liquidSpecular)"
     class="specularity"
     xlink:href="#outline1"
     id="use40"
     x="0"
     y="0"
     width="100%"
     height="100%"
     transform="scale(1.9999961)" />
  <use
     style="fill:url(#sideSpecular)"
     class="low-specularity"
     xlink:href="#outline1"
     id="use42"
     x="0"
     y="0"
     width="100%"
     height="100%"
     transform="scale(1.9999961)" />
  <path
     class="specularity"
     style="fill:url(#shinySpecular);stroke-width:2"
     d="m 33.599934,113.79978 c -22.199956,21.99996 16.799968,15.79997 46.799909,27.59994 L 142.39972,32.399937 c -9.39998,-9.599981 -21.39996,-8.799983 -29.99994,0 z"
     id="path44" />
  <path
     style="fill:url(#liquidShade);stroke-width:2"
     class="shade"
     d="m 17.799965,123.39976 c -5.19999,18.79996 26.799948,18.39996 44.599913,25.39995 2.999994,-1.8 4.599991,-3.99999 2.399996,-5.99999 -14.399972,-7.19998 -42.799917,-7.19998 -46.999909,-19.39996 z m 222.199565,2 c -5.39999,17.79996 -50.9999,24.59995 -66.79987,33.99993 -2.19999,2.19999 -0.8,4.19999 1.8,6.19999 19.59996,-9.79998 71.39986,-17.39997 64.99987,-40.19992 z M 88.599827,147.39971 c -6.399987,0 -10.399979,3.2 1.199998,7.39999 15.399965,1.2 37.599925,7.39998 42.399915,9.39998 7.39999,-13.19997 -41.999916,-16.79997 -43.599913,-16.79997 z M 46.39991,164.39968 c -2.599995,1.8 -3.999993,3.79999 -1.799997,5.79999 6.999986,7.39998 42.999916,14.19997 50.399902,21.39996 1.799996,-2.4 2.399995,-4.79999 0.199999,-7.19999 C 88.399828,177.59965 56.39989,171.19967 46.39991,164.39968 Z m 159.59969,18.19996 c -1.4,1.6 -2.6,3.4 -3,5.39999 0,4.2 30.79994,6.79999 30.79994,-1.19999 -0.59999,-1.4 -1.19999,-2.8 -2.39999,-4.2 -5.59999,3.2 -19.39996,2.4 -25.39995,0 z m -14.79997,0.8 c -6.79999,14.19997 -22.59996,4.99999 -39.59993,22.19996 -2.79999,2.99999 -1.19999,4.59999 1.4,5.99999 17.39997,-16.39997 33.39994,-5.79999 39.39992,-23.59996 0.4,-1.79999 0,-3.19999 -1.19999,-4.59999 z M 83.199838,197.39962 c -4.799991,6.39998 -13.199975,10.59997 -19.199963,5.39998 -0.599999,-0.39999 -0.999998,-0.99999 -1.399997,-1.59999 -2.199996,2.79999 -2.199996,5.79999 1.399997,8.99998 7.199986,6.19999 18.599964,-1.6 21.999957,-10.39998 -0.599999,-1 -1.799996,-1.8 -2.799994,-2.39999 z m 113.399782,1.99999 c -4.59999,7.39999 4.59999,13.39998 12.79997,8.79998 1.2,-1.39999 1,-4.19999 -1.2,-6.99998 -4.79999,2.39999 -9.39998,1 -11.59997,-1.8 z M 87.799829,207.1996 c -1.799997,2.19999 -2.399996,4.79999 -0.2,7.19998 7.199986,7.19999 23.999951,0.2 26.999951,17.19997 2.19999,12.19997 29.39994,5.79999 42.99991,-3.99999 3,-3.28 1.6,-5.39999 -1,-6.99999 -14.19997,9.59998 -39.99992,15.39997 -41.99991,3.79999 -3,-16.99996 -19.599965,-10.19998 -26.799951,-17.19996 z"
     id="path46" />
  <path
     id="icecap"
     class="full-specularity"
     style="fill:url(#IcecapTip);stroke-width:2"
     d="m 140.99973,30.99994 32.59993,33.199935 c 3,2.999994 3,9.199982 1.2,10.999978 l -16.19997,-13.199974 -3.19999,19.399962 -13.39998,-7.199986 -21.79995,13.799973 -7.19999,-28.999943 -11.59998,25.199951 -28.999941,-0.2 c -5.599989,0 -4.799991,-5.799988 0.999998,-11.599977 11.399978,-12.599976 33.599933,-33.999934 40.599923,-41.399919 7.19998,-7.399986 19.79996,-7.199986 26.99995,0 z" />
  <!-- Copyright License -->
  <metadata
     id="metadata49">
    <rdf:RDF>
      <cc:Work
         rdf:about="etiquette-icon">
        <dc:format>image/svg+xml</dc:format>
        <dc:type
           rdf:resource="http://purl.org/dc/dcmitype/StillImage" />
        <dc:creator>
          <cc:Agent>
            <dc:title>Andy Fitzsimon</dc:title>
          </cc:Agent>
        </dc:creator>
        <dc:rights>
          <cc:Agent>
            <dc:title>Andrew Michael Fitzsimon</dc:title>
          </cc:Agent>
        </dc:rights>
        <dc:publisher>
          <cc:Agent>
            <dc:title>Fitzsimon IT Consulting Pty Ltd</dc:title>
          </cc:Agent>
        </dc:publisher>
        <dc:identifier>http://andy.fitzsimon.com.au</dc:identifier>
        <dc:date>2006</dc:date>
        <cc:license
           rdf:resource="http://creativecommons.org/licenses/by-sa/2/" />
      </cc:Work>
      <cc:License
         rdf:about="http://creativecommons.org/licenses/by-sa/2/">
        <cc:permits
           rdf:resource="http://web.resource.org/cc/Reproduction" />
        <cc:permits
           rdf:resource="http://web.resource.org/cc/Distribution" />
        <cc:requires
           rdf:resource="http://web.resource.org/cc/Notice" />
        <cc:requires
           rdf:resource="http://web.resource.org/cc/Attribution" />
        <cc:permits
           rdf:resource="http://web.resource.org/cc/DerivativeWorks" />
        <cc:requires
           rdf:resource="http://web.resource.org/cc/ShareAlike" />
      </cc:License>
    </rdf:RDF>
  </metadata>
</svg>
