<?xml version="1.0" encoding="UTF-8" standalone="no"?>
<svg
   width="48"
   height="48"
   viewBox="0 0 48 48"
   version="1.1"
   id="svg8"
   inkscape:version="1.3.2 (1:1.3.2+202311252150+091e20ef0f)"
   sodipodi:docname="partition-manager.svg"
   inkscape:export-filename="/media/klapeto/Αρχεία/WindowsXP Theme/Vectors/RASTER/partition-manager.png"
   inkscape:export-xdpi="96"
   inkscape:export-ydpi="96"
   xml:space="preserve"
   xmlns:inkscape="http://www.inkscape.org/namespaces/inkscape"
   xmlns:sodipodi="http://sodipodi.sourceforge.net/DTD/sodipodi-0.dtd"
   xmlns:xlink="http://www.w3.org/1999/xlink"
   xmlns="http://www.w3.org/2000/svg"
   xmlns:svg="http://www.w3.org/2000/svg"
   xmlns:rdf="http://www.w3.org/1999/02/22-rdf-syntax-ns#"
   xmlns:cc="http://creativecommons.org/ns#"
   xmlns:dc="http://purl.org/dc/elements/1.1/"><defs
     id="defs2"><linearGradient
       inkscape:collect="always"
       id="linearGradient1126"><stop
         style="stop-color:#ffffff;stop-opacity:1;"
         offset="0"
         id="stop1122" /><stop
         style="stop-color:#4f4f51;stop-opacity:1"
         offset="1"
         id="stop1124" /></linearGradient><linearGradient
       inkscape:collect="always"
       xlink:href="#linearGradient1041-6"
       id="linearGradient1043-3"
       x1="-461.38626"
       y1="115.66495"
       x2="-465.74591"
       y2="133.73666"
       gradientUnits="userSpaceOnUse"
       gradientTransform="matrix(0.1877148,0,0,0.1877148,110.58963,-0.52167826)" /><linearGradient
       inkscape:collect="always"
       id="linearGradient1041-6"><stop
         style="stop-color:#a3a3a3;stop-opacity:1"
         offset="0"
         id="stop1037-7" /><stop
         style="stop-color:#bfbfbf;stop-opacity:1"
         offset="1"
         id="stop1039-5" /></linearGradient><linearGradient
       y2="116.94683"
       x2="-336.18729"
       y1="151.75548"
       x1="-319.91779"
       gradientTransform="matrix(0.1877148,0,0,0.1877148,110.40192,-0.24010604)"
       gradientUnits="userSpaceOnUse"
       id="linearGradient1378-3"
       xlink:href="#linearGradient1002-5"
       inkscape:collect="always" /><linearGradient
       id="linearGradient1002-5"
       inkscape:collect="always"><stop
         id="stop998-6"
         offset="0"
         style="stop-color:#c7c7f7;stop-opacity:1" /><stop
         id="stop1000-2"
         offset="1"
         style="stop-color:#69696a;stop-opacity:1" /></linearGradient><linearGradient
       y2="117.77962"
       x2="-111.99686"
       y1="117.93747"
       x1="-163.00368"
       gradientTransform="matrix(0.1877148,0,0,0.1877148,68.886536,4.1827432)"
       gradientUnits="userSpaceOnUse"
       id="linearGradient1380-9"
       xlink:href="#linearGradient1014-1"
       inkscape:collect="always" /><linearGradient
       id="linearGradient1014-1"
       inkscape:collect="always"><stop
         id="stop1010-2"
         offset="0"
         style="stop-color:#333333;stop-opacity:1" /><stop
         style="stop-color:#6e6d6d;stop-opacity:1"
         offset="0.5"
         id="stop1018-7" /><stop
         id="stop1012-0"
         offset="1"
         style="stop-color:#979696;stop-opacity:1" /></linearGradient><linearGradient
       y2="11.5"
       x2="-484.28946"
       y1="11.5"
       x1="-690.58301"
       gradientTransform="matrix(0.1877148,0,0,0.1877148,147.51589,16.316292)"
       gradientUnits="userSpaceOnUse"
       id="linearGradient1382-9"
       xlink:href="#linearGradient1037-3"
       inkscape:collect="always" /><linearGradient
       id="linearGradient1037-3"
       inkscape:collect="always"><stop
         id="stop1033-6"
         offset="0"
         style="stop-color:#f1f1f1;stop-opacity:1" /><stop
         style="stop-color:#d9d9d9;stop-opacity:1"
         offset="0.5"
         id="stop1041-0" /><stop
         id="stop1035-6"
         offset="1"
         style="stop-color:#d3d3d3;stop-opacity:1" /></linearGradient><linearGradient
       y2="-85.840675"
       x2="87.091187"
       y1="-85.840675"
       x1="-94.614113"
       gradientTransform="matrix(0.1877148,0,0,0.1877148,35.955801,32.528526)"
       gradientUnits="userSpaceOnUse"
       id="linearGradient1384-2"
       xlink:href="#linearGradient1036-6"
       inkscape:collect="always" /><linearGradient
       inkscape:collect="always"
       id="linearGradient1036-6"><stop
         style="stop-color:#d1d1d1;stop-opacity:1"
         offset="0"
         id="stop1031-1" /><stop
         id="stop1040-8"
         offset="0.32481501"
         style="stop-color:#d1d1d1;stop-opacity:1" /><stop
         style="stop-color:#acacac;stop-opacity:1"
         offset="0.57871664"
         id="stop1042-7" /><stop
         style="stop-color:#ccccff;stop-opacity:1"
         offset="1"
         id="stop1034-9" /></linearGradient><linearGradient
       y2="-5.718029"
       x2="-92.530884"
       y1="-5.718029"
       x1="-271.53964"
       gradientTransform="matrix(0.1877148,0,0,0.1877148,68.999955,16.316292)"
       gradientUnits="userSpaceOnUse"
       id="linearGradient1386-2"
       xlink:href="#linearGradient1063-0"
       inkscape:collect="always" /><linearGradient
       id="linearGradient1063-0"
       inkscape:collect="always"><stop
         id="stop1059-2"
         offset="0"
         style="stop-color:#ffffff;stop-opacity:1;" /><stop
         style="stop-color:#dddddd;stop-opacity:1"
         offset="0.29411766"
         id="stop1073-3" /><stop
         style="stop-color:#ffffff;stop-opacity:1;"
         offset="0.52941179"
         id="stop1067-7" /><stop
         id="stop1069-5"
         offset="0.70588237"
         style="stop-color:#dddddd;stop-opacity:1" /><stop
         style="stop-color:#ffffff;stop-opacity:1;"
         offset="0.85294116"
         id="stop1071-9" /><stop
         id="stop1061-2"
         offset="1"
         style="stop-color:#e5e5e6;stop-opacity:1" /></linearGradient><linearGradient
       y2="121.34988"
       x2="-373.53955"
       y1="121.34988"
       x1="-397.93228"
       gradientUnits="userSpaceOnUse"
       id="linearGradient1388-2"
       xlink:href="#linearGradient1126"
       inkscape:collect="always"
       gradientTransform="matrix(0.1877148,0,0,0.1877148,110.58963,-0.52167826)" /><linearGradient
       inkscape:collect="always"
       xlink:href="#linearGradient1295"
       id="linearGradient1297"
       x1="-53.146767"
       y1="67.819397"
       x2="-35.618752"
       y2="66.492065"
       gradientUnits="userSpaceOnUse" /><linearGradient
       inkscape:collect="always"
       id="linearGradient1295"><stop
         style="stop-color:#99ccff;stop-opacity:1"
         offset="0"
         id="stop1291" /><stop
         id="stop1299"
         offset="0.62956059"
         style="stop-color:#0066cc;stop-opacity:1" /><stop
         style="stop-color:#3e9ade;stop-opacity:1"
         offset="1"
         id="stop1293" /></linearGradient><linearGradient
       inkscape:collect="always"
       xlink:href="#linearGradient1315"
       id="linearGradient1307"
       x1="-39.851059"
       y1="46.393936"
       x2="-48.857594"
       y2="46.393936"
       gradientUnits="userSpaceOnUse" /><linearGradient
       id="linearGradient1315"
       inkscape:collect="always"><stop
         id="stop1309"
         offset="0"
         style="stop-color:#d2d2d2;stop-opacity:1" /><stop
         style="stop-color:#999999;stop-opacity:1"
         offset="0.59999996"
         id="stop1311" /><stop
         id="stop1313"
         offset="1"
         style="stop-color:#fefefe;stop-opacity:1" /></linearGradient><linearGradient
       inkscape:collect="always"
       xlink:href="#linearGradient1306"
       id="linearGradient1404"
       x1="-15.815089"
       y1="88.886772"
       x2="0.60014915"
       y2="88.886772"
       gradientUnits="userSpaceOnUse" /><linearGradient
       inkscape:collect="always"
       id="linearGradient1306"><stop
         style="stop-color:#ff3300;stop-opacity:1"
         offset="0"
         id="stop1300" /><stop
         id="stop1302"
         offset="0.5"
         style="stop-color:#ffcc66;stop-opacity:1" /><stop
         style="stop-color:#ff3300;stop-opacity:1"
         offset="1"
         id="stop1304" /></linearGradient><linearGradient
       inkscape:collect="always"
       xlink:href="#linearGradient1394"
       id="linearGradient1396"
       x1="-14.374113"
       y1="61.198036"
       x2="-0.71643549"
       y2="60.966106"
       gradientUnits="userSpaceOnUse" /><linearGradient
       inkscape:collect="always"
       id="linearGradient1394"><stop
         style="stop-color:#adadad;stop-opacity:1"
         offset="0"
         id="stop1390" /><stop
         style="stop-color:#434343;stop-opacity:1"
         offset="1"
         id="stop1392" /></linearGradient><linearGradient
       inkscape:collect="always"
       xlink:href="#linearGradient1362"
       id="linearGradient1364"
       x1="-21.454618"
       y1="30.997231"
       x2="5.2030787"
       y2="45.299953"
       gradientUnits="userSpaceOnUse" /><linearGradient
       inkscape:collect="always"
       id="linearGradient1362"><stop
         style="stop-color:#babbba;stop-opacity:1"
         offset="0"
         id="stop1358" /><stop
         id="stop1366"
         offset="0.26183423"
         style="stop-color:#ffffff;stop-opacity:1" /><stop
         style="stop-color:#a1a1a1;stop-opacity:1"
         offset="0.60685694"
         id="stop1368" /><stop
         style="stop-color:#fefefe;stop-opacity:1"
         offset="1"
         id="stop1360" /></linearGradient><linearGradient
       inkscape:collect="always"
       xlink:href="#linearGradient1323"
       id="linearGradient1325"
       x1="-47.533791"
       y1="26.285709"
       x2="-8.2330503"
       y2="34.136139"
       gradientUnits="userSpaceOnUse" /><linearGradient
       inkscape:collect="always"
       id="linearGradient1323"><stop
         style="stop-color:#9c9c9d;stop-opacity:1"
         offset="0"
         id="stop1319" /><stop
         style="stop-color:#efefef;stop-opacity:1"
         offset="1"
         id="stop1321" /></linearGradient><linearGradient
       inkscape:collect="always"
       xlink:href="#linearGradient1333"
       id="linearGradient1335"
       x1="-49.587044"
       y1="43.51527"
       x2="-52.184212"
       y2="24.325241"
       gradientUnits="userSpaceOnUse" /><linearGradient
       inkscape:collect="always"
       id="linearGradient1333"><stop
         style="stop-color:#999999;stop-opacity:1"
         offset="0"
         id="stop1329" /><stop
         style="stop-color:#ffffff;stop-opacity:1"
         offset="1"
         id="stop1331" /></linearGradient><linearGradient
       inkscape:collect="always"
       xlink:href="#linearGradient1356"
       id="linearGradient1348"
       gradientUnits="userSpaceOnUse"
       x1="-22.7125"
       y1="24.086357"
       x2="-51.827377"
       y2="24.178425" /><linearGradient
       inkscape:collect="always"
       id="linearGradient1356"><stop
         style="stop-color:#d2d2d2;stop-opacity:1"
         offset="0"
         id="stop1350" /><stop
         id="stop1352"
         offset="0.32343572"
         style="stop-color:#999999;stop-opacity:1" /><stop
         style="stop-color:#fefefe;stop-opacity:1"
         offset="1"
         id="stop1354" /></linearGradient><linearGradient
       inkscape:collect="always"
       xlink:href="#linearGradient1260"
       id="linearGradient1289"
       x1="-54.693245"
       y1="26.506424"
       x2="-54.693245"
       y2="41.963181"
       gradientUnits="userSpaceOnUse" /><linearGradient
       inkscape:collect="always"
       id="linearGradient1260"><stop
         style="stop-color:#dddddd;stop-opacity:1"
         offset="0"
         id="stop1256" /><stop
         id="stop1264"
         offset="0.29126313"
         style="stop-color:#ffffff;stop-opacity:1" /><stop
         style="stop-color:#999999;stop-opacity:1"
         offset="0.71650523"
         id="stop1266" /><stop
         style="stop-color:#9999c1;stop-opacity:1"
         offset="1"
         id="stop1258" /></linearGradient><linearGradient
       inkscape:collect="always"
       xlink:href="#linearGradient1260"
       id="linearGradient1262"
       x1="-60.783108"
       y1="22.458853"
       x2="-60.783108"
       y2="44.747265"
       gradientUnits="userSpaceOnUse" /><linearGradient
       inkscape:collect="always"
       xlink:href="#linearGradient1242"
       id="linearGradient1244"
       x1="-69.865219"
       y1="26.488424"
       x2="-71.27977"
       y2="45.987495"
       gradientUnits="userSpaceOnUse"
       gradientTransform="matrix(0.99984772,0,0,0.97063381,-2.7071168,-4.8960761)" /><linearGradient
       inkscape:collect="always"
       id="linearGradient1242"><stop
         style="stop-color:#d2d2d2;stop-opacity:1"
         offset="0"
         id="stop1238" /><stop
         id="stop1246"
         offset="0.2"
         style="stop-color:#999999;stop-opacity:1" /><stop
         style="stop-color:#fefefe;stop-opacity:1"
         offset="1"
         id="stop1240" /></linearGradient><filter
       inkscape:collect="always"
       style="color-interpolation-filters:sRGB"
       id="filter44"
       x="-0.067073879"
       y="-0.060251664"
       width="1.1341478"
       height="1.1205033"><feGaussianBlur
         inkscape:collect="always"
         stdDeviation="0.80335544"
         id="feGaussianBlur44" /></filter><clipPath
       clipPathUnits="userSpaceOnUse"
       id="clipPath27"><path
         id="path27"
         style="fill:#d1d1d1;fill-opacity:1;stroke:none;stroke-width:1.00257;stroke-linecap:butt;stroke-linejoin:miter;stroke-dasharray:none;stroke-opacity:1"
         d="m 35.589193,15.322266 c -0.305618,-0.0099 -0.615584,0.01812 -0.910156,0.08398 a 0.25066805,0.25066805 0 0 0 -0.01758,-0.01172 v 0.01172 c -0.03065,0.0071 -0.06344,-0.01195 -0.09375,-0.0039 l -20.564453,5.458984 a 0.25066805,0.25066805 0 0 0 -0.185547,0.242188 l 0.0039,8.205078 a 0.25066805,0.25066805 0 0 0 0.154297,0.230468 l 22.294922,9.332032 a 0.25066805,0.25066805 0 0 0 0.189453,0.002 l 21.833985,-8.689453 a 0.25066805,0.25066805 0 0 0 0.158203,-0.232422 v -7.519531 a 0.25066805,0.25066805 0 0 0 0,-0.0059 0.25064299,0.25064299 0 0 0 -0.0078,-0.04102 0.25066805,0.25066805 0 0 0 -0.125,-0.171875 0.25064299,0.25064299 0 0 0 -0.01367,-0.0059 0.25066805,0.25066805 0 0 0 -0.03125,-0.01563 L 36.477865,15.466797 c -0.281783,-0.08694 -0.583054,-0.134664 -0.888672,-0.144531 z" /></clipPath></defs><sodipodi:namedview
     inkscape:guide-bbox="true"
     id="base"
     pagecolor="#ffffff"
     bordercolor="#666666"
     borderopacity="1.0"
     inkscape:pageopacity="0.0"
     inkscape:pageshadow="2"
     inkscape:zoom="32"
     inkscape:cx="4.890625"
     inkscape:cy="13.265625"
     inkscape:document-units="px"
     inkscape:current-layer="layer1"
     inkscape:document-rotation="0"
     showgrid="false"
     units="px"
     inkscape:window-width="3840"
     inkscape:window-height="2058"
     inkscape:window-x="0"
     inkscape:window-y="0"
     inkscape:window-maximized="1"
     inkscape:snap-bbox="true"
     inkscape:bbox-nodes="true"
     fit-margin-top="0"
     fit-margin-left="0"
     fit-margin-right="0"
     fit-margin-bottom="0"
     inkscape:bbox-paths="false"
     inkscape:snap-global="true"
     showguides="true"
     inkscape:pagecheckerboard="0"
     inkscape:showpageshadow="2"
     inkscape:deskcolor="#d1d1d1"><inkscape:grid
       type="xygrid"
       id="grid1504"
       originx="0"
       originy="0"
       spacingy="1"
       spacingx="1"
       units="px"
       visible="false" /><inkscape:grid
       type="xygrid"
       id="grid1507"
       spacingx="0.5"
       spacingy="0.5"
       originx="0"
       originy="0"
       units="px"
       visible="false" /></sodipodi:namedview><metadata
     id="metadata5"><rdf:RDF><cc:Work
         rdf:about=""><dc:format>image/svg+xml</dc:format><dc:type
           rdf:resource="http://purl.org/dc/dcmitype/StillImage" /></cc:Work></rdf:RDF></metadata><g
     inkscape:label="Layer 1"
     inkscape:groupmode="layer"
     id="layer1"
     transform="translate(-12.567709)"><g
       id="g5"
       transform="matrix(1.0144292,0,0,1.0144292,-0.20943453,4.1366855)"><path
         id="path994-2-4-7"
         d="M 36.215892,34.079582 37.410744,24.445392 14.0747,17.254867 v 7.450314 z"
         style="fill:#d1d1d1;fill-opacity:1;stroke:none;stroke-width:0.988311;stroke-linecap:butt;stroke-linejoin:miter;stroke-dasharray:none;stroke-opacity:1"
         sodipodi:nodetypes="ccccc" /><path
         style="fill:url(#linearGradient1043-3);fill-opacity:1;stroke:none;stroke-width:0.988311;stroke-linecap:butt;stroke-linejoin:miter;stroke-dasharray:none;stroke-opacity:1"
         d="m 14.0747,21.164508 v -4.439114 l 22.400631,8.977953 0.505716,4.779402 z"
         id="path1153-3-4-3"
         sodipodi:nodetypes="ccccc" /><path
         sodipodi:nodetypes="cccccc"
         id="path996-5-0-6"
         d="M 35.994794,24.923048 57.61006,17.924199 57.580539,25.44703 36.05835,34.012361 35.813598,29.264942 Z"
         style="fill:url(#linearGradient1378-3);fill-opacity:1;stroke:none;stroke-width:0.988311;stroke-linecap:butt;stroke-linejoin:miter;stroke-dasharray:none;stroke-opacity:1" /><path
         style="fill:#333333;fill-opacity:1;stroke:none;stroke-width:0.494156;stroke-linecap:butt;stroke-linejoin:miter;stroke-dasharray:none;stroke-opacity:1"
         d="m 37.440155,31.991567 0.03372,-6.06407 15.381047,-5.297292 -0.04619,5.481058 z"
         id="path1020-9-7-1"
         sodipodi:nodetypes="ccccc" /><path
         sodipodi:nodetypes="cccc"
         id="path1008-2-8-2"
         d="M 52.808734,26.111263 C 50.862093,27.606887 40.32792,29.855414 37.30002,28.283067 v -2.295693 l 15.554907,-5.357169"
         style="fill:url(#linearGradient1380-9);fill-opacity:1;stroke:none;stroke-width:0.988311;stroke-linecap:butt;stroke-linejoin:miter;stroke-dasharray:none;stroke-opacity:1" /><path
         id="path1031-8-8-9"
         d="M 14.0747,17.022577 35.853469,25.236051 57.580237,17.868712 35.25992,11.101423 Z"
         style="fill:url(#linearGradient1382-9);fill-opacity:1;stroke:none;stroke-width:0.988311;stroke-linecap:butt;stroke-linejoin:miter;stroke-dasharray:none;stroke-opacity:1"
         sodipodi:nodetypes="ccccc" /><path
         sodipodi:nodetypes="csccc"
         id="path1043-9-8-3"
         d="m 20.594746,14.961025 c 3.179176,3.659467 11.277617,6.331227 17.936217,6.537656 9.367798,0.290419 14.552853,-1.913824 13.467588,-5.186262 L 35.25992,11.101423 Z"
         style="fill:url(#linearGradient1384-2);fill-opacity:1;stroke:none;stroke-width:0.988311;stroke-linecap:butt;stroke-linejoin:miter;stroke-dasharray:none;stroke-opacity:1" /><path
         style="fill:url(#linearGradient1386-2);fill-opacity:1;stroke:none;stroke-width:0.988311;stroke-linecap:butt;stroke-linejoin:miter;stroke-dasharray:none;stroke-opacity:1"
         d="m 21.347858,14.958869 c 4.121182,3.078908 10.350342,5.073324 16.373935,5.463342 5.201438,0.336785 14.278936,-0.759241 12.486665,-4.667076 0,0 -9.867194,-3.086063 -14.948538,-4.653712 z"
         id="path1043-3-7-4-1"
         sodipodi:nodetypes="csccc" /><path
         style="fill:#333333;fill-opacity:1;stroke:none;stroke-width:0.988311;stroke-linecap:butt;stroke-linejoin:miter;stroke-dasharray:none;stroke-opacity:1"
         d="m 20.502253,16.582023 1.970385,0.791416 7.191603,-2.126751 -2.136543,-0.619828 z"
         id="path1044-3-3-9"
         sodipodi:nodetypes="ccccc" /><ellipse
         style="fill:#333333;fill-opacity:1;fill-rule:evenodd;stroke:none;stroke-width:1.14549;stroke-linecap:butt;stroke-linejoin:round;stroke-miterlimit:4;stroke-dasharray:none;stroke-opacity:1"
         id="path1084-6-1-4"
         cx="40.691895"
         cy="12.714824"
         rx="0.82147098"
         ry="0.55486339"
         transform="rotate(16.326934)" /><ellipse
         transform="rotate(16.326934)"
         ry="0.51545078"
         rx="0.84186798"
         cy="2.0510323"
         cx="56.539986"
         id="path1084-7-1-4-7"
         style="fill:#333333;fill-opacity:1;fill-rule:evenodd;stroke:none;stroke-width:1.21934;stroke-linecap:butt;stroke-linejoin:round;stroke-miterlimit:4;stroke-dasharray:none;stroke-opacity:1" /><path
         style="fill:none;fill-opacity:1;stroke:url(#linearGradient1388-2);stroke-width:0.494156;stroke-linecap:round;stroke-linejoin:round;stroke-miterlimit:4;stroke-dasharray:none;stroke-opacity:1"
         d="M 35.853469,25.236051 14.60913,16.873207 31.322347,12.352334"
         id="path4"
         sodipodi:nodetypes="ccc" /><path
         style="fill:none;stroke:#333333;stroke-width:0.741304;stroke-linecap:butt;stroke-linejoin:miter;stroke-miterlimit:4;stroke-dasharray:none;stroke-opacity:1"
         d="m 14.154401,21.297815 21.637734,8.475149"
         id="path1065-7-3-8"
         sodipodi:nodetypes="cc" /><path
         style="fill:none;fill-opacity:1;stroke:#333333;stroke-width:0.494156;stroke-linecap:round;stroke-linejoin:round;stroke-miterlimit:4;stroke-dasharray:none;stroke-opacity:1"
         d="M 57.580544,18.034693 35.853469,25.236051"
         id="path1063-2-9-4"
         sodipodi:nodetypes="cc" /><path
         sodipodi:nodetypes="scccccsss"
         id="path1029-3-0-5"
         d="m 34.347122,11.34374 -20.272422,5.381654 0.0049,8.087469 21.978709,9.199498 21.522194,-8.565331 v -7.412337 l -21.48773,-6.629849 c -0.547775,-0.169012 -1.193751,-0.207626 -1.745692,-0.06111 z"
         style="fill:none;stroke:#333333;stroke-width:0.494156;stroke-linecap:round;stroke-linejoin:round;stroke-miterlimit:4;stroke-dasharray:none;stroke-opacity:1" /><circle
         style="fill:#333333;fill-opacity:1;fill-rule:evenodd;stroke:none;stroke-width:0.988312;stroke-linejoin:round"
         id="path1"
         cx="31.079235"
         cy="30.121738"
         r="0.71398401" /><circle
         style="fill:#333333;fill-opacity:1;fill-rule:evenodd;stroke:none;stroke-width:0.988312;stroke-linejoin:round"
         id="path1-3"
         cx="15.845286"
         cy="23.903732"
         r="0.61639196" /><path
         style="fill:#333333;fill-opacity:1;stroke:none;stroke-width:0.988312px;stroke-linecap:butt;stroke-linejoin:miter;stroke-opacity:1"
         d="m 52.849292,21.148195 -4.703306,1.620336 v 4.543508 l 4.801089,-1.843852 z"
         id="path3"
         sodipodi:nodetypes="ccccc" /><path
         style="fill:none;stroke:#333333;stroke-width:0.494156;stroke-linecap:butt;stroke-linejoin:miter;stroke-dasharray:none;stroke-opacity:1"
         d="m 35.853469,25.236051 c -0.247824,3.448171 -0.180432,7.156303 0.204881,8.77631"
         id="path2"
         sodipodi:nodetypes="cc" /><path
         style="fill:none;fill-opacity:1;stroke:#333333;stroke-width:0.494156;stroke-linecap:butt;stroke-linejoin:miter;stroke-dasharray:none;stroke-opacity:1"
         d="m 37.440155,31.991567 0.03372,-6.06407 15.381047,-5.297292 -0.04619,5.481058 z"
         id="path5"
         sodipodi:nodetypes="ccccc" /></g><path
       id="path43"
       style="color:#000000;mix-blend-mode:normal;fill:#0d1a33;fill-opacity:1;-inkscape-stroke:none;filter:url(#filter44)"
       d="m 38.127729,10.374885 v 5.384766 c -0.0024,0.003 -0.0056,0.0085 -0.02539,0.02539 -0.04864,0.04169 -0.145931,0.101364 -0.273437,0.15625 -0.255011,0.109773 -0.62535,0.205054 -0.986328,0.242188 -0.360979,0.03713 -0.717057,0.01142 -0.9375,-0.06836 -0.110222,-0.03989 -0.182578,-0.08941 -0.222657,-0.136718 -0.04008,-0.04731 -0.06055,-0.09029 -0.06055,-0.181641 v -0.292969 c 0.08788,0.06763 0.175452,0.139415 0.265625,0.216797 0.14243,0.122228 0.300432,0.163773 0.460937,0.175781 0.160506,0.01201 0.332894,-0.0052 0.496094,-0.11914 0.1632,-0.113944 0.262667,-0.379209 0.205078,-0.597656 -0.05759,-0.218449 -0.200946,-0.410694 -0.4375,-0.638672 -0.318474,-0.30693 -0.649942,-0.591234 -0.990234,-0.857422 v -2.935547 l -0.347657,0.03906 c -0.699214,0.07769 -1.52225,0.567235 -2.296875,1.267579 -1.711645,-0.81616 -3.382893,-1.215796 -4.544922,-1.269532 -2.202998,-0.101878 -7.251953,0.470703 -7.251953,0.470703 l -0.279297,0.03125 v 0.470703 c -0.408348,-0.374422 -0.908213,-0.599708 -1.4707,-0.548828 l -3.023437,0.273438 c -0.958668,0.08672 -1.626155,0.729236 -1.972656,1.552734 -0.346503,0.823499 -0.420518,1.83816 -0.296875,2.824219 0.123642,0.986059 0.445248,1.94431 0.951171,2.654297 0.505923,0.709987 1.25097,1.186058 2.107422,1.037109 l 3.601563,-0.626953 c 0.48224,-0.08387 0.844702,-0.391016 1.097656,-0.80664 0.06552,-0.0129 0.130594,-0.0283 0.193359,-0.04883 l 1.16211,0.601563 v 0.857422 a 3.1315551,1.4241335 0 0 0 -1.25,1.123047 h -0.0039 l 0.238281,19.871093 c 0.0079,0.657609 0.479592,1.148591 1.072265,1.435547 0.592674,0.286958 1.335312,0.417738 2.078125,0.417969 0.742814,2.31e-4 1.484744,-0.130779 2.072266,-0.417969 0.587523,-0.287189 1.050842,-0.782476 1.042969,-1.439453 L 28.262495,20.626838 h -0.002 a 3.1315551,1.4241335 0 0 0 -1.251953,-1.099609 v -0.841797 l 1.31836,-0.08398 0.07226,-0.189453 c 0,0 0.379295,-0.998904 1.113282,-1.986328 0.383473,-0.515883 0.855211,-1.014113 1.408203,-1.36914 -0.102302,0.348578 -0.159436,0.703189 -0.152344,1.058593 0.02709,1.357535 0.443713,2.429491 1.191406,3.150391 0.6786,0.654282 1.634227,0.964397 2.722656,1.023437 v 2.634766 a 3.1324542,1.1745431 0 0 0 -1.246093,0.908203 h -0.0059 v 0.02734 a 3.1324542,1.1745431 0 0 1 0,0.002 3.1324542,1.1745431 0 0 0 0,0.0039 l 0.25586,14.087891 c 0.01505,0.82747 0.44634,1.47882 1.044922,1.892578 0.598581,0.413759 1.359077,0.617728 2.113281,0.644531 0.754204,0.0268 1.50668,-0.123472 2.097656,-0.470703 0.590977,-0.347229 1.020972,-0.93417 1.007813,-1.677734 l -0.25586,-14.511719 h -0.002 a 3.1324542,1.1745431 0 0 0 -0.9375,-0.80664 v -3.113282 c 0.971821,-0.128505 1.943766,-0.439703 2.683594,-1.046875 0.820033,-0.672995 1.388672,-1.628729 1.388672,-2.753906 0,-1.430113 -0.722194,-2.730338 -1.603516,-3.722656 -0.88118,-0.99236 -1.907713,-1.688202 -2.699081,-1.904339 z m -15.501953,7.625 0.935547,0.458984 h -0.310547 v 0.06836 z m 15.816406,4.873047 0.03125,0.05859 a 3.1324542,1.1745431 0 0 0 -0.03125,-0.0078 z"
       clip-path="url(#clipPath27)" /><g
       id="g1429"
       transform="matrix(0.31321151,0,0,0.31321151,38.297632,3.7706511)"><path
         sodipodi:nodetypes="cssc"
         id="path1214"
         d="m -35.432291,51.432181 0.760968,63.505449 c 0.07863,6.5619 -17.921156,6.56189 -18,-0.0113 l -0.760968,-63.441973"
         style="fill:url(#linearGradient1297);fill-opacity:1;stroke:#333434;stroke-width:2;stroke-linecap:butt;stroke-linejoin:miter;stroke-miterlimit:4;stroke-dasharray:none;stroke-opacity:1" /><ellipse
         cy="51.546875"
         cx="-44.432289"
         id="path1226"
         style="opacity:1;fill:#333434;fill-opacity:1;fill-rule:evenodd;stroke:none;stroke-width:5.25748;stroke-linecap:round;stroke-linejoin:round"
         ry="4.546875"
         rx="9.9982119" /><path
         sodipodi:nodetypes="cssc"
         id="path1224"
         d="m -49.432291,44.5 v 7.208336 c 0,4.824871 10,3.610925 10,0 V 44.5"
         style="fill:url(#linearGradient1307);fill-opacity:1;stroke:#333434;stroke-width:2;stroke-linecap:butt;stroke-linejoin:miter;stroke-miterlimit:4;stroke-dasharray:none;stroke-opacity:1" /><path
         sodipodi:nodetypes="cssc"
         id="path1230"
         d="m -16.932291,61.638074 0.820009,45.083806 C -15.943554,115.99847 2.0292849,115.99875 1.8877181,108 L 1.067709,61.668186"
         style="fill:url(#linearGradient1404);fill-opacity:1;stroke:#990000;stroke-width:2;stroke-linecap:butt;stroke-linejoin:miter;stroke-miterlimit:4;stroke-dasharray:none;stroke-opacity:1" /><ellipse
         cy="61.75"
         cx="-7.932291"
         id="path1232"
         style="opacity:1;fill:#990000;fill-opacity:1;fill-rule:evenodd;stroke:none;stroke-width:5.33;stroke-linecap:round;stroke-linejoin:round"
         ry="3.75"
         rx="10.001082" /><path
         sodipodi:nodetypes="cccc"
         id="path1234"
         d="m -12.932291,60 c -1.186134,0.571364 -1.464066,1.174437 -1.666871,1.926205 C -10.187483,63.30377 -5.3062691,63.5 -0.30626909,61.5 -0.64498733,60.581474 -1.0683146,60.015136 -1.932291,59.5"
         style="fill:url(#linearGradient1396);fill-opacity:1;stroke:none;stroke-width:1px;stroke-linecap:butt;stroke-linejoin:miter;stroke-opacity:1" /><path
         sodipodi:nodetypes="ccscsscsccc"
         id="path1228"
         d="m -1.932291,59.5 v -11 c 6.4913646,-0.470194 13,-4.980798 13,-11.5 0,-8.451044 -8.6315095,-15.806887 -13,-17 v 16 c 0,1.942589 -10,4 -10,0 V 21 c -4.5,0.5 -13.644357,8.765342 -13.5,16 0.165345,8.286535 5,12.5 12.5,12.5 V 60 Z"
         style="fill:url(#linearGradient1364);fill-opacity:1;stroke:#333434;stroke-width:2;stroke-linecap:butt;stroke-linejoin:miter;stroke-miterlimit:4;stroke-dasharray:none;stroke-opacity:1" /><path
         sodipodi:nodetypes="cscsc"
         id="path1378"
         d="m -12.932425,22.352432 c -8.940232,3.681019 -11.560786,9.315494 -11.504004,14.899231 0.05666,5.572312 2.954972,9.911583 7.847525,10.845567 -5.993302,-3.501499 -6.933586,-8.089768 -6.299703,-12.807475 0.816452,-6.076487 6.891353,-11.773728 9.956182,-12.937323 z"
         style="color:#000000;font-style:normal;font-variant:normal;font-weight:normal;font-stretch:normal;font-size:medium;line-height:normal;font-family:sans-serif;font-variant-ligatures:normal;font-variant-position:normal;font-variant-caps:normal;font-variant-numeric:normal;font-variant-alternates:normal;font-variant-east-asian:normal;font-feature-settings:normal;font-variation-settings:normal;text-indent:0;text-align:start;text-decoration:none;text-decoration-line:none;text-decoration-style:solid;text-decoration-color:#000000;letter-spacing:normal;word-spacing:normal;text-transform:none;writing-mode:lr-tb;direction:ltr;text-orientation:mixed;dominant-baseline:auto;baseline-shift:baseline;text-anchor:start;white-space:normal;shape-padding:0;shape-margin:0;inline-size:0;clip-rule:nonzero;display:inline;overflow:visible;visibility:visible;opacity:1;isolation:auto;mix-blend-mode:normal;color-interpolation:sRGB;color-interpolation-filters:linearRGB;solid-color:#000000;solid-opacity:1;vector-effect:none;fill:#ffffff;fill-opacity:1;fill-rule:nonzero;stroke:none;stroke-width:2;stroke-linecap:butt;stroke-linejoin:miter;stroke-miterlimit:4;stroke-dasharray:none;stroke-dashoffset:0;stroke-opacity:1;color-rendering:auto;image-rendering:auto;shape-rendering:auto;text-rendering:auto;enable-background:accumulate;stop-color:#000000;stop-opacity:1" /><path
         sodipodi:nodetypes="ccccccccccccccccccc"
         id="path1317"
         d="M -48.432291,45 V 25.5 l 11.321548,-1.192398 5.308344,-0.0793 5.599156,0.286601 6.335767,0.883852 3.595574,1.314989 6.24644,4.800618 2.750084,2.235679 -0.195799,1.220932 -1.506184,0.195335 -3.531174,-2.322728 -4.874599,-1.454593 -4.071485,-0.391757 -4.755589,1.561198 -3.358487,2.93744 -4.172109,5.430688 L -34.932291,44 Z"
         style="fill:url(#linearGradient1325);fill-opacity:1;stroke:none;stroke-width:1px;stroke-linecap:butt;stroke-linejoin:miter;stroke-opacity:1" /><path
         id="path1327"
         d="M -48.432291,45 -55.421014,41.56253 -56.932291,22.5 l 8.5,3 z"
         style="fill:url(#linearGradient1335);fill-opacity:1;stroke:none;stroke-width:1px;stroke-linecap:butt;stroke-linejoin:miter;stroke-opacity:1" /><path
         id="path1337"
         d="m -48.432291,25.5 -8.5,-3 17.724136,-1.636608 7.322449,0.261105 6.581986,1.535078 7.730573,3.465508 -4.747671,-1.117277 -8.915689,-0.955418 -12.579156,0.681333 z"
         style="fill:url(#linearGradient1348);fill-opacity:1;stroke:none;stroke-width:1px;stroke-linecap:butt;stroke-linejoin:miter;stroke-opacity:1" /><path
         sodipodi:nodetypes="ccc"
         id="path1222"
         d="M -48.432291,45 V 25.5 c 0,0 17.470701,-3.516961 30.859144,0.625083"
         style="fill:none;stroke:#333434;stroke-width:1;stroke-linecap:butt;stroke-linejoin:miter;stroke-miterlimit:4;stroke-dasharray:none;stroke-opacity:1" /><path
         sodipodi:nodetypes="ccssssccc"
         id="path1220"
         d="M -48.836252,44.873089 -34.932291,44 c 0,0 5.00296,-13.237146 14.5,-13 3.878774,0.09686 7.218018,0.754475 11,4 0.8484504,0.728102 3.7013265,0.35005 0.9647369,-2.287342 C -16.668453,24.809031 -27.840648,21.281696 -33.932291,21 c -6.782412,-0.31364 -23,1.5 -23,1.5 v 18.179709 z"
         style="fill:none;stroke:#333434;stroke-width:2;stroke-linecap:butt;stroke-linejoin:miter;stroke-miterlimit:4;stroke-dasharray:none;stroke-opacity:1" /><path
         sodipodi:nodetypes="cc"
         id="path1218"
         d="M -56.70735,25.632271 C -45.714374,26.056474 -48.932291,42 -55.432291,42.5"
         style="fill:url(#linearGradient1289);fill-opacity:1;stroke:#333434;stroke-width:2;stroke-linecap:butt;stroke-linejoin:miter;stroke-miterlimit:4;stroke-dasharray:none;stroke-opacity:1" /><path
         sodipodi:nodetypes="sssss"
         id="path1216"
         d="M -62.537546,22.350599 C -54.10642,21.587944 -50.953355,43.699316 -58.432291,45 l -11.5,2 c -9.201053,1.600183 -12.982921,-22.806096 -2.25975,-23.776083 z"
         style="fill:url(#linearGradient1262);fill-opacity:1;stroke:#333434;stroke-width:2;stroke-linecap:butt;stroke-linejoin:miter;stroke-miterlimit:4;stroke-dasharray:none;stroke-opacity:1" /><ellipse
         inkscape:transform-center-y="-0.41052362"
         inkscape:transform-center-x="-2.2274503"
         transform="matrix(0.99753089,-0.0702291,0.07454359,0.99721776,0,0)"
         rx="6.7359619"
         ry="10.91963"
         cy="30.289398"
         cx="-73.878563"
         id="path1236"
         style="opacity:1;fill:url(#linearGradient1244);fill-opacity:1;fill-rule:evenodd;stroke:none;stroke-width:0.985132;stroke-linecap:round;stroke-linejoin:round;stroke-miterlimit:4;stroke-dasharray:none" /><path
         sodipodi:nodetypes="scscs"
         id="path1281"
         d="m -72.017739,24.341771 c -3.950013,0 -6.070831,5.314967 -6.103344,9.025261 0.804393,-3.150965 2.190175,-7.470277 6.137029,-7.64169 4.198836,-0.182357 5.994577,3.960858 7.216268,7.261848 -0.58078,-3.980522 -3.081233,-8.645419 -7.249953,-8.645419 z"
         style="color:#000000;font-style:normal;font-variant:normal;font-weight:normal;font-stretch:normal;font-size:medium;line-height:normal;font-family:sans-serif;font-variant-ligatures:normal;font-variant-position:normal;font-variant-caps:normal;font-variant-numeric:normal;font-variant-alternates:normal;font-variant-east-asian:normal;font-feature-settings:normal;font-variation-settings:normal;text-indent:0;text-align:start;text-decoration:none;text-decoration-line:none;text-decoration-style:solid;text-decoration-color:#000000;letter-spacing:normal;word-spacing:normal;text-transform:none;writing-mode:lr-tb;direction:ltr;text-orientation:mixed;dominant-baseline:auto;baseline-shift:baseline;text-anchor:start;white-space:normal;shape-padding:0;shape-margin:0;inline-size:0;clip-rule:nonzero;display:inline;overflow:visible;visibility:visible;opacity:1;isolation:auto;mix-blend-mode:normal;color-interpolation:sRGB;color-interpolation-filters:linearRGB;solid-color:#000000;solid-opacity:1;vector-effect:none;fill:#ffffff;fill-opacity:1;fill-rule:evenodd;stroke:none;stroke-width:1;stroke-linecap:round;stroke-linejoin:round;stroke-miterlimit:4;stroke-dasharray:none;stroke-dashoffset:0;stroke-opacity:1;color-rendering:auto;image-rendering:auto;shape-rendering:auto;text-rendering:auto;enable-background:accumulate;stop-color:#000000;stop-opacity:1" /><path
         sodipodi:nodetypes="ccsscsssccc"
         id="path1382"
         d="m -0.96131954,21.422821 -0.021422,14.914014 c -0.055504,0.358436 -0.33457246,0.846246 -0.89872056,1.279496 -0.5794135,0.444973 -1.6237032,0.956879 -2.6137104,1.193449 -1.6415284,0.392257 -3.9037706,0.646795 -5.5360475,0.283285 -2.555673,-0.917999 -0.822193,1.289015 2.3745882,1.413389 1.0658388,0.04147 2.2972584,-0.03059 3.5019531,-0.238282 1.2046948,-0.207688 2.3791948,-0.589001 3.34570316,-1.160951 0.96545981,-0.571329 1.80092006,-1.520595 1.80273432,-2.746093 0,0 0.0330657,-9.16229 0.0449217,-13.804193 z"
         style="color:#000000;font-style:normal;font-variant:normal;font-weight:normal;font-stretch:normal;font-size:medium;line-height:normal;font-family:sans-serif;font-variant-ligatures:normal;font-variant-position:normal;font-variant-caps:normal;font-variant-numeric:normal;font-variant-alternates:normal;font-variant-east-asian:normal;font-feature-settings:normal;font-variation-settings:normal;text-indent:0;text-align:start;text-decoration:none;text-decoration-line:none;text-decoration-style:solid;text-decoration-color:#000000;letter-spacing:normal;word-spacing:normal;text-transform:none;writing-mode:lr-tb;direction:ltr;text-orientation:mixed;dominant-baseline:auto;baseline-shift:baseline;text-anchor:start;white-space:normal;shape-padding:0;shape-margin:0;inline-size:0;clip-rule:nonzero;display:inline;overflow:visible;visibility:visible;opacity:1;isolation:auto;mix-blend-mode:normal;color-interpolation:sRGB;color-interpolation-filters:linearRGB;solid-color:#000000;solid-opacity:1;vector-effect:none;fill:#ffffff;fill-opacity:1;fill-rule:nonzero;stroke:none;stroke-width:2;stroke-linecap:butt;stroke-linejoin:miter;stroke-miterlimit:4;stroke-dasharray:none;stroke-dashoffset:0;stroke-opacity:1;color-rendering:auto;image-rendering:auto;shape-rendering:auto;text-rendering:auto;enable-background:accumulate;stop-color:#000000;stop-opacity:1" /><g
         style="opacity:1"
         id="g1384"><path
           id="path1386"
           d="M -11.434458,59.399033 V 49.407471"
           style="color:#000000;font-style:normal;font-variant:normal;font-weight:normal;font-stretch:normal;font-size:medium;line-height:normal;font-family:sans-serif;font-variant-ligatures:normal;font-variant-position:normal;font-variant-caps:normal;font-variant-numeric:normal;font-variant-alternates:normal;font-variant-east-asian:normal;font-feature-settings:normal;font-variation-settings:normal;text-indent:0;text-align:start;text-decoration:none;text-decoration-line:none;text-decoration-style:solid;text-decoration-color:#000000;letter-spacing:normal;word-spacing:normal;text-transform:none;writing-mode:lr-tb;direction:ltr;text-orientation:mixed;dominant-baseline:auto;baseline-shift:baseline;text-anchor:start;white-space:normal;shape-padding:0;shape-margin:0;inline-size:0;clip-rule:nonzero;display:inline;overflow:visible;visibility:visible;isolation:auto;mix-blend-mode:normal;color-interpolation:sRGB;color-interpolation-filters:linearRGB;solid-color:#000000;solid-opacity:1;vector-effect:none;fill:#ffffff;fill-opacity:1;fill-rule:nonzero;stroke:none;stroke-width:2;stroke-linecap:butt;stroke-linejoin:miter;stroke-miterlimit:4;stroke-dasharray:none;stroke-dashoffset:0;stroke-opacity:1;color-rendering:auto;image-rendering:auto;shape-rendering:auto;text-rendering:auto;enable-background:accumulate;stop-color:#000000;stop-opacity:1" /><path
           sodipodi:nodetypes="ccccc"
           id="path1388"
           d="m -11.960526,48.510075 0.0071,10.458457 1.9928552,-0.07608 V 48.510076 Z"
           style="color:#000000;font-style:normal;font-variant:normal;font-weight:normal;font-stretch:normal;font-size:medium;line-height:normal;font-family:sans-serif;font-variant-ligatures:normal;font-variant-position:normal;font-variant-caps:normal;font-variant-numeric:normal;font-variant-alternates:normal;font-variant-east-asian:normal;font-feature-settings:normal;font-variation-settings:normal;text-indent:0;text-align:start;text-decoration:none;text-decoration-line:none;text-decoration-style:solid;text-decoration-color:#000000;letter-spacing:normal;word-spacing:normal;text-transform:none;writing-mode:lr-tb;direction:ltr;text-orientation:mixed;dominant-baseline:auto;baseline-shift:baseline;text-anchor:start;white-space:normal;shape-padding:0;shape-margin:0;inline-size:0;clip-rule:nonzero;display:inline;overflow:visible;visibility:visible;isolation:auto;mix-blend-mode:normal;color-interpolation:sRGB;color-interpolation-filters:linearRGB;solid-color:#000000;solid-opacity:1;vector-effect:none;fill:#ffffff;fill-opacity:1;fill-rule:nonzero;stroke:none;stroke-width:2;stroke-linecap:butt;stroke-linejoin:miter;stroke-miterlimit:4;stroke-dasharray:none;stroke-dashoffset:0;stroke-opacity:1;color-rendering:auto;image-rendering:auto;shape-rendering:auto;text-rendering:auto;enable-background:accumulate;stop-color:#000000;stop-opacity:1" /></g></g></g></svg>
