<?xml version="1.0" encoding="UTF-8" standalone="no"?>
<svg
   inkscape:export-ydpi="96"
   inkscape:export-xdpi="96"
   inkscape:export-filename="services.png"
   width="48"
   height="48"
   viewBox="0 0 48 48"
   version="1.1"
   id="svg8"
   inkscape:version="1.3.2 (1:1.3.2+202311252150+091e20ef0f)"
   sodipodi:docname="services.svg"
   xmlns:inkscape="http://www.inkscape.org/namespaces/inkscape"
   xmlns:sodipodi="http://sodipodi.sourceforge.net/DTD/sodipodi-0.dtd"
   xmlns:xlink="http://www.w3.org/1999/xlink"
   xmlns="http://www.w3.org/2000/svg"
   xmlns:svg="http://www.w3.org/2000/svg"
   xmlns:rdf="http://www.w3.org/1999/02/22-rdf-syntax-ns#"
   xmlns:cc="http://creativecommons.org/ns#"
   xmlns:dc="http://purl.org/dc/elements/1.1/">
  <defs
     id="defs2">
    <linearGradient
       id="linearGradient1349"
       inkscape:collect="always">
      <stop
         id="stop1345"
         offset="0"
         style="stop-color:#287c24;stop-opacity:1" />
      <stop
         id="stop1347"
         offset="1"
         style="stop-color:#0ba007;stop-opacity:1" />
    </linearGradient>
    <linearGradient
       inkscape:collect="always"
       id="linearGradient1330">
      <stop
         style="stop-color:#8f520c;stop-opacity:1"
         offset="0"
         id="stop1326" />
      <stop
         style="stop-color:#8f520c;stop-opacity:0"
         offset="1"
         id="stop1328" />
    </linearGradient>
    <linearGradient
       inkscape:collect="always"
       id="linearGradient1047">
      <stop
         style="stop-color:#ececec;stop-opacity:1"
         offset="0"
         id="stop1043" />
      <stop
         style="stop-color:#29292d;stop-opacity:1"
         offset="1"
         id="stop1045" />
    </linearGradient>
    <linearGradient
       gradientUnits="userSpaceOnUse"
       y2="-86.140625"
       x2="-482.89648"
       y1="-86.140625"
       x1="-610.89648"
       id="linearGradient1299-3-9-8-3"
       xlink:href="#linearGradient1343-6"
       inkscape:collect="always" />
    <linearGradient
       id="linearGradient1343-6"
       inkscape:collect="always">
      <stop
         id="stop1337-7"
         offset="0"
         style="stop-color:#99ff66;stop-opacity:1" />
      <stop
         id="stop1341-5"
         offset="1"
         style="stop-color:#009900;stop-opacity:1" />
    </linearGradient>
    <linearGradient
       y2="270.01913"
       x2="-151.74518"
       y1="270.01913"
       x1="-183.65593"
       gradientTransform="matrix(0.13791328,0,0,0.13791328,57.756835,-20.802729)"
       gradientUnits="userSpaceOnUse"
       id="linearGradient1331-3"
       xlink:href="#linearGradient1349"
       inkscape:collect="always" />
    <linearGradient
       y2="83.663925"
       x2="-351.65329"
       y1="83.663925"
       x1="-383.65329"
       gradientTransform="matrix(0.13791328,0,0,0.13791328,81.480343,2.1186854)"
       gradientUnits="userSpaceOnUse"
       id="linearGradient1333-2"
       xlink:href="#linearGradient1047"
       inkscape:collect="always" />
    <linearGradient
       y2="60.823318"
       x2="-352.63574"
       y1="51.977211"
       x1="-381.32599"
       gradientTransform="matrix(0.13791328,0,0,0.13791328,81.480343,2.1186854)"
       gradientUnits="userSpaceOnUse"
       id="linearGradient1335-2"
       xlink:href="#linearGradient3"
       inkscape:collect="always" />
    <linearGradient
       id="linearGradient3"
       inkscape:collect="always">
      <stop
         id="stop1"
         offset="0"
         style="stop-color:#99ccff;stop-opacity:1" />
      <stop
         style="stop-color:#5e6b77;stop-opacity:1"
         offset="0.51075882"
         id="stop2" />
      <stop
         id="stop3"
         offset="1"
         style="stop-color:#4c4c4c;stop-opacity:1" />
    </linearGradient>
    <linearGradient
       inkscape:collect="always"
       xlink:href="#linearGradient1297-0"
       id="linearGradient1299-3-9-7"
       x1="-610.89648"
       y1="-86.140625"
       x2="-482.89648"
       y2="-86.140625"
       gradientUnits="userSpaceOnUse" />
    <linearGradient
       inkscape:collect="always"
       id="linearGradient1297-0">
      <stop
         style="stop-color:#ffcc66;stop-opacity:1"
         offset="0"
         id="stop1293-9" />
      <stop
         style="stop-color:#cc9900;stop-opacity:1"
         offset="1"
         id="stop1295-3" />
    </linearGradient>
    <linearGradient
       inkscape:collect="always"
       xlink:href="#linearGradient1330"
       id="linearGradient1195-3-3-6"
       gradientUnits="userSpaceOnUse"
       gradientTransform="matrix(0.14876762,0,0,0.14876762,68.328459,-12.738233)"
       x1="-183.65593"
       y1="270.01913"
       x2="-151.74518"
       y2="270.01913" />
    <linearGradient
       inkscape:collect="always"
       xlink:href="#linearGradient1047"
       id="linearGradient1097-9-2"
       gradientUnits="userSpaceOnUse"
       gradientTransform="matrix(0.14876762,0,0,0.14876762,93.919103,11.98719)"
       x1="-383.65329"
       y1="83.663925"
       x2="-351.65329"
       y2="83.663925" />
    <linearGradient
       inkscape:collect="always"
       xlink:href="#linearGradient3"
       id="linearGradient1099-8-6"
       gradientUnits="userSpaceOnUse"
       gradientTransform="matrix(0.14876762,0,0,0.14876762,93.919103,11.98719)"
       x1="-381.32599"
       y1="51.977211"
       x2="-352.63574"
       y2="60.823318" />
  </defs>
  <sodipodi:namedview
     inkscape:guide-bbox="true"
     showguides="false"
     id="base"
     pagecolor="#ffffff"
     bordercolor="#666666"
     borderopacity="1.0"
     inkscape:pageopacity="0.0"
     inkscape:pageshadow="2"
     inkscape:zoom="13.240401"
     inkscape:cx="10.082776"
     inkscape:cy="46.713086"
     inkscape:document-units="px"
     inkscape:current-layer="layer1"
     inkscape:document-rotation="0"
     showgrid="false"
     units="px"
     inkscape:window-width="3840"
     inkscape:window-height="2058"
     inkscape:window-x="0"
     inkscape:window-y="0"
     inkscape:window-maximized="1"
     inkscape:snap-bbox="true"
     inkscape:bbox-nodes="true"
     fit-margin-top="0"
     fit-margin-left="0"
     fit-margin-right="0"
     fit-margin-bottom="0"
     inkscape:bbox-paths="false"
     inkscape:pagecheckerboard="0"
     inkscape:showpageshadow="2"
     inkscape:deskcolor="#d1d1d1">
    <inkscape:grid
       type="xygrid"
       id="grid1504"
       originx="0"
       originy="0"
       spacingy="1"
       spacingx="1"
       units="px"
       visible="false" />
    <inkscape:grid
       type="xygrid"
       id="grid942"
       spacingx="0.5"
       spacingy="0.5"
       originx="0"
       originy="0"
       units="px"
       visible="false" />
  </sodipodi:namedview>
  <metadata
     id="metadata5">
    <rdf:RDF>
      <cc:Work
         rdf:about="">
        <dc:format>image/svg+xml</dc:format>
        <dc:type
           rdf:resource="http://purl.org/dc/dcmitype/StillImage" />
      </cc:Work>
    </rdf:RDF>
  </metadata>
  <g
     inkscape:label="Layer 1"
     inkscape:groupmode="layer"
     id="layer1"
     transform="translate(-12.567709)">
    <g
       id="g1"
       transform="matrix(1.594114,0,0,1.594114,-20.405967,-13.468136)">
      <g
         style="fill:#893500;fill-opacity:1"
         transform="matrix(0.13791329,0,0,0.11239461,124.69894,-4.9949388)"
         id="g1245-9-2-5-2">
        <path
           sodipodi:nodetypes="scccccccccscccccsccccsccccscccccscccccccccs"
           transform="matrix(1,0,0,1.2270454,-134.20708,293.9699)"
           d="m -546.89648,-126.34375 c -5.263,0 -8.87813,1.90411 -9.5,4.07422 l -3.30274,11.52734 c -3.59629,0.7696 -7.05494,1.86084 -10.30078,3.25 l -11.89844,-6.16797 c -2.24319,-1.163 -14.31566,-2.97869 -14.31566,-2.97869 0,0 -1.07857,12.33165 0.88012,13.92791 l 7.57226,8.822268 c -2.35934,3.26057 -4.00389,6.782428 -4.87109,10.431641 l -18.26367,-2.683595 V -74.1875 c 0,4.289165 2.23,7.742188 5,7.742188 l 15.70703,1.628906 c 1.05474,2.025193 2.36192,3.971898 3.90429,5.814453 l -9.92894,3.359552 0.30186,9.869399 c 0.16643,2.234521 0.0384,5.435417 3.7599,8.468314 3.7215,3.032898 8.06925,3.861367 10.2539,2.591797 l 20.49336,-10.416015 c 1.24105,0.365927 1.5471,0.665963 2.82571,0.950775 l 2.35365,17.625755 c 0.46475,2.261297 4.06624,4.523079 9.32924,4.523079 5.263,0 8.71658,-2.084329 9.24117,-4.279986 l 2.66731,-18.104079 c 1.07842,-0.250842 1.2219,-0.394958 2.27298,-0.703826 l 20.82049,10.404297 c 2.18649,1.266401 6.53045,0.441101 10.25195,-2.591797 3.7215,-3.032897 3.53872,-5.087231 3.86524,-8.345703 l 0.19726,-9.992187 -7.41211,-6.779297 c 0.50305,-0.786171 0.96627,-1.586218 1.38867,-2.398437 l 15.70704,-1.625 c 2.7553,-0.284986 5,-3.453023 5,-7.742188 v -11.953126 l -18.26954,2.654298 c -0.89322,-3.736703 -2.60147,-7.338601 -5.05664,-10.66211 l 7.76172,-8.562502 c 1.95869,-1.59626 0.88012,-13.92791 0.88012,-13.92791 0,0 -12.01483,1.93005 -14.31371,2.97869 l -12.74609,5.81446 c -2.83106,-1.15346 -5.81525,-2.08361 -8.9043,-2.77539 l -3.85156,-11.64844 c 0,-2.25746 -4.237,-4.07422 -9.5,-4.07422 z"
           style="opacity:1;fill:#006600;fill-opacity:1;fill-rule:evenodd;stroke:none;stroke-width:1.12844;stroke-linecap:round;stroke-linejoin:round"
           id="path1237-3-9-5-0" />
      </g>
      <g
         id="g1401-4-1-8-0-3-4-2"
         transform="matrix(0.13791329,0,0,0.11239461,124.69894,-6.6435361)">
        <path
           sodipodi:nodetypes="sccccsccccsccccsccccscccssccccsccccsccccs"
           transform="matrix(1,0,0,1.2270454,-134.20708,308.63784)"
           d="m -546.89648,-138.29883 c -5.263,0 -8.87813,1.90607 -9.5,4.07617 l -3.30274,11.52735 c -3.59629,0.7696 -7.05494,1.86084 -10.30078,3.25 l -11.89844,-6.16992 c -2.24319,-1.16301 -6.5324,-0.43915 -10.2539,2.59375 -3.72151,3.03289 -5.14033,6.7592 -3.18164,8.35546 l 7.57226,8.82422 c -2.35908,3.25996 -4.00362,6.781149 -4.87109,10.429691 l -13.26367,1.529297 c -2.75179,0.317135 -5,3.453022 -5,7.742187 0,4.289165 2.23,7.742187 5,7.742187 l 15.70898,1.628907 c 1.05412,2.025139 2.36064,3.971843 3.90234,5.814453 l -9.04882,13.339844 c -1.95869,1.596261 -0.53987,5.322571 3.18164,8.355468 3.7215,3.032898 8.06925,3.86332 10.2539,2.59375 l 17.92578,-10.417968 c 1.24101,0.366587 2.5026,0.693061 3.78125,0.978515 l 2.38508,17.975383 c 0,2.257456 5.64685,4.147664 10.90985,4.147664 5.263,0 10.52778,-2.025354 11.05237,-4.221011 l 2.78942,-18.027036 c 1.0778,-0.251518 2.14296,-0.532304 3.19336,-0.841797 l 17.9668,10.40625 c 2.18649,1.266401 6.53045,0.439148 10.25195,-2.59375 3.7215,-3.032897 5.14033,-6.759207 3.18164,-8.355468 l -10.01953,-12.230469 c 1.97034,-2.164459 3.6064,-4.48849 4.87695,-6.927735 l 15.70704,-1.625 c 2.7553,-0.284985 5,-3.453022 5,-7.742187 0,-4.289165 -2.23,-7.742188 -5,-7.742187 l -13.26954,-1.556641 c -0.89322,-3.736702 -2.60147,-7.338597 -5.05664,-10.662107 l 7.76172,-8.56446 c 1.95869,-1.59626 0.53986,-5.32257 -3.18164,-8.35546 -3.7215,-3.0329 -7.95307,-3.64239 -10.25195,-2.59375 l -12.74805,5.81445 c -2.83054,-1.1527 -5.81407,-2.08219 -8.90234,-2.77344 l -3.85156,-11.64844 c 0,-2.25745 -4.237,-4.07617 -9.5,-4.07617 z"
           style="opacity:1;fill:url(#linearGradient1299-3-9-8-3);fill-opacity:1;fill-rule:evenodd;stroke:none;stroke-width:1.12844;stroke-linecap:round;stroke-linejoin:round"
           id="rect1061-6-20-7-7-9-6-1-7-3" />
      </g>
      <path
         style="fill:url(#linearGradient1331-3);fill-opacity:1;stroke:none;stroke-width:0.137913px;stroke-linecap:butt;stroke-linejoin:miter;stroke-opacity:1"
         d="m 30.693062,17.814442 c 1.206811,0 1.506076,-0.04132 2.181256,-0.5407 l 3.808836,-0.0098 c 0.750875,-0.0077 -0.323579,-2.205367 -0.900694,-2.205367 h -2.897601 z"
         id="path1324-7-2-2-9-6-7"
         sodipodi:nodetypes="cccccc" />
      <path
         style="fill:url(#linearGradient1333-2);fill-opacity:1;stroke:none;stroke-width:0.137913px;stroke-linecap:butt;stroke-linejoin:miter;stroke-opacity:1"
         d="m 28.569457,9.9657115 v 5.8838095 c 0,2.595326 4.413225,2.64563 4.413225,-0.0033 V 9.9657202"
         id="path932-9-2-6-3-1-4-5-5"
         sodipodi:nodetypes="cccc" />
      <ellipse
         style="fill:url(#linearGradient1335-2);fill-opacity:1;fill-rule:evenodd;stroke:none;stroke-width:0.181971;stroke-linecap:round;stroke-linejoin:round"
         id="path930-1-9-8-1-8-7-6-9"
         cx="30.77607"
         cy="9.9657116"
         ry="1.5170462"
         rx="2.2066131" />
      <g
         id="g1245-9-2-2"
         transform="matrix(0.14876762,0,0,0.12124052,140.53918,4.3136944)"
         style="fill:#893500;fill-opacity:1">
        <path
           id="path1237-3-9-2"
           style="opacity:1;fill:#990000;fill-opacity:1;fill-rule:evenodd;stroke:none;stroke-width:1.12844;stroke-linecap:round;stroke-linejoin:round"
           d="m -546.89648,-126.34375 c -5.263,0 -8.87813,1.90411 -9.5,4.07422 l -3.30274,11.52734 c -3.59629,0.7696 -7.05494,1.86084 -10.30078,3.25 l -11.89844,-6.16797 c -2.24319,-1.163 -14.31566,-2.97869 -14.31566,-2.97869 0,0 -1.07857,12.33165 0.88012,13.92791 l 7.57226,8.822268 c -2.35934,3.26057 -4.00389,6.782428 -4.87109,10.431641 l -18.26367,-2.683595 V -74.1875 c 0,4.289165 2.23,7.742188 5,7.742188 l 15.70703,1.628906 c 1.05474,2.025193 2.36192,3.971898 3.90429,5.814453 l -9.92894,3.359552 0.30186,9.869399 c 0.16643,2.234521 0.0384,5.435417 3.7599,8.468314 3.7215,3.032898 8.06925,3.861367 10.2539,2.591797 l 20.49336,-10.416015 c 1.24105,0.365927 1.5471,0.665963 2.82571,0.950775 l 2.35365,17.625755 c 0.46475,2.261297 4.06624,4.523079 9.32924,4.523079 5.263,0 8.71658,-2.084329 9.24117,-4.279986 l 2.66731,-18.104079 c 1.07842,-0.250842 1.2219,-0.394958 2.27298,-0.703826 l 20.82049,10.404297 c 2.18649,1.266401 6.53045,0.441101 10.25195,-2.591797 3.7215,-3.032897 3.53872,-5.087231 3.86524,-8.345703 l 0.19726,-9.992187 -7.41211,-6.779297 c 0.50305,-0.786171 0.96627,-1.586218 1.38867,-2.398437 l 15.70704,-1.625 c 2.7553,-0.284986 5,-3.453023 5,-7.742188 v -11.953126 l -18.26954,2.654298 c -0.89322,-3.736703 -2.60147,-7.338601 -5.05664,-10.66211 l 7.76172,-8.562502 c 1.95869,-1.59626 0.88012,-13.92791 0.88012,-13.92791 0,0 -12.01483,1.93005 -14.31371,2.97869 l -12.74609,5.81446 c -2.83106,-1.15346 -5.81525,-2.08361 -8.9043,-2.77539 l -3.85156,-11.64844 c 0,-2.25746 -4.237,-4.07422 -9.5,-4.07422 z"
           transform="matrix(1,0,0,1.2270454,-134.20708,293.9699)"
           sodipodi:nodetypes="scccccccccscccccsccccsccccscccccscccccccccs" />
      </g>
      <g
         transform="matrix(0.14876762,0,0,0.12124052,140.53918,2.5353458)"
         id="g1401-4-1-8-0-3-8">
        <path
           id="rect1061-6-20-7-7-9-6-1-9"
           style="opacity:1;fill:url(#linearGradient1299-3-9-7);fill-opacity:1;fill-rule:evenodd;stroke:none;stroke-width:1.12844;stroke-linecap:round;stroke-linejoin:round"
           d="m -546.89648,-138.29883 c -5.263,0 -8.87813,1.90607 -9.5,4.07617 l -3.30274,11.52735 c -3.59629,0.7696 -7.05494,1.86084 -10.30078,3.25 l -11.89844,-6.16992 c -2.24319,-1.16301 -6.5324,-0.43915 -10.2539,2.59375 -3.72151,3.03289 -5.14033,6.7592 -3.18164,8.35546 l 7.57226,8.82422 c -2.35908,3.25996 -4.00362,6.781149 -4.87109,10.429691 l -13.26367,1.529297 c -2.75179,0.317135 -5,3.453022 -5,7.742187 0,4.289165 2.23,7.742187 5,7.742187 l 15.70898,1.628907 c 1.05412,2.025139 2.36064,3.971843 3.90234,5.814453 l -9.04882,13.339844 c -1.95869,1.596261 -0.53987,5.322571 3.18164,8.355468 3.7215,3.032898 8.06925,3.86332 10.2539,2.59375 l 17.92578,-10.417968 c 1.24101,0.366587 2.5026,0.693061 3.78125,0.978515 l 2.38508,17.975383 c 0,2.257456 5.64685,4.147664 10.90985,4.147664 5.263,0 10.52778,-2.025354 11.05237,-4.221011 l 2.78942,-18.027036 c 1.0778,-0.251518 2.14296,-0.532304 3.19336,-0.841797 l 17.9668,10.40625 c 2.18649,1.266401 6.53045,0.439148 10.25195,-2.59375 3.7215,-3.032897 5.14033,-6.759207 3.18164,-8.355468 l -10.01953,-12.230469 c 1.97034,-2.164459 3.6064,-4.48849 4.87695,-6.927735 l 15.70704,-1.625 c 2.7553,-0.284985 5,-3.453022 5,-7.742187 0,-4.289165 -2.23,-7.742188 -5,-7.742187 l -13.26954,-1.556641 c -0.89322,-3.736702 -2.60147,-7.338597 -5.05664,-10.662107 l 7.76172,-8.56446 c 1.95869,-1.59626 0.53986,-5.32257 -3.18164,-8.35546 -3.7215,-3.0329 -7.95307,-3.64239 -10.25195,-2.59375 l -12.74805,5.81445 c -2.83054,-1.1527 -5.81407,-2.08219 -8.90234,-2.77344 l -3.85156,-11.64844 c 0,-2.25745 -4.237,-4.07617 -9.5,-4.07617 z"
           transform="matrix(1,0,0,1.2270454,-134.20708,308.63784)"
           sodipodi:nodetypes="sccccsccccsccccsccccscccssccccsccccsccccs" />
      </g>
      <path
         sodipodi:nodetypes="cccccc"
         id="path1324-7-2-2-9-7"
         d="m 39.134657,28.918266 c 1.301792,0 1.62461,-0.04457 2.352929,-0.583255 l 4.108608,-0.01056 c 0.809971,-0.0083 -0.349046,-2.378938 -0.971584,-2.378938 h -3.125653 z"
         style="fill:url(#linearGradient1195-3-3-6);fill-opacity:1;stroke:none;stroke-width:0.148768px;stroke-linecap:butt;stroke-linejoin:miter;stroke-opacity:1" />
      <path
         sodipodi:nodetypes="cccc"
         id="path932-9-2-6-3-1-4-3"
         d="m 36.843915,20.451809 v 6.346889 c 0,2.799589 4.760564,2.853852 4.760564,-0.0036 V 20.45182"
         style="fill:url(#linearGradient1097-9-2);fill-opacity:1;stroke:none;stroke-width:0.148768px;stroke-linecap:butt;stroke-linejoin:miter;stroke-opacity:1" />
      <ellipse
         rx="2.3802824"
         ry="1.636444"
         cy="20.451809"
         cx="39.224197"
         id="path930-1-9-8-1-8-7-61"
         style="fill:url(#linearGradient1099-8-6);fill-opacity:1;fill-rule:evenodd;stroke:none;stroke-width:0.196293;stroke-linecap:round;stroke-linejoin:round" />
    </g>
  </g>
</svg>
