<?xml version="1.0" encoding="UTF-8" standalone="no"?>
<svg
   width="256"
   height="256"
   viewBox="0 0 256 256"
   version="1.1"
   id="svg8"
   inkscape:version="1.1.2 (0a00cf5339, 2022-02-04)"
   sodipodi:docname="system-info.svg"
   inkscape:export-filename="system-info.png"
   inkscape:export-xdpi="96"
   inkscape:export-ydpi="96"
   xmlns:inkscape="http://www.inkscape.org/namespaces/inkscape"
   xmlns:sodipodi="http://sodipodi.sourceforge.net/DTD/sodipodi-0.dtd"
   xmlns:xlink="http://www.w3.org/1999/xlink"
   xmlns="http://www.w3.org/2000/svg"
   xmlns:svg="http://www.w3.org/2000/svg"
   xmlns:rdf="http://www.w3.org/1999/02/22-rdf-syntax-ns#"
   xmlns:cc="http://creativecommons.org/ns#"
   xmlns:dc="http://purl.org/dc/elements/1.1/">
  <defs
     id="defs2">
    <linearGradient
       gradientTransform="matrix(0,0.0092,0.0167,0,14.468627,35.412821)"
       gradientUnits="userSpaceOnUse"
       id="gradient18-0"
       spreadMethod="pad"
       x1="-819.20001"
       x2="819.20001">
      <stop
         offset="0.0"
         stop-color="#9999cc"
         id="stop175-7" />
      <stop
         offset="1.0"
         stop-color="#666699"
         id="stop177-8" />
    </linearGradient>
    <radialGradient
       cx="0"
       cy="0"
       gradientTransform="matrix(0.0255,0,0,0.0255,7.0686275,33.362821)"
       gradientUnits="userSpaceOnUse"
       id="gradient19-6"
       r="819.20001"
       spreadMethod="pad">
      <stop
         offset="0.0"
         stop-color="#ffffff"
         id="stop180-8" />
      <stop
         offset="0.2823529411764706"
         stop-color="#dddddd"
         id="stop182-8" />
      <stop
         offset="1.0"
         stop-color="#9999cc"
         id="stop184-4" />
    </radialGradient>
    <linearGradient
       gradientTransform="matrix(-0.0141,-0.0141,-0.0156,0.0156,15.868627,17.112821)"
       gradientUnits="userSpaceOnUse"
       id="gradient20-3"
       spreadMethod="pad"
       x1="-819.20001"
       x2="819.20001">
      <stop
         offset="0.0"
         stop-color="#6666cc"
         id="stop187-1" />
      <stop
         offset="1.0"
         stop-color="#999999"
         id="stop189-4" />
    </linearGradient>
    <linearGradient
       gradientTransform="matrix(-0.0098,-0.0098,-0.0151,0.0151,17.718627,18.012821)"
       gradientUnits="userSpaceOnUse"
       id="gradient21-9"
       spreadMethod="pad"
       x1="-819.20001"
       x2="819.20001">
      <stop
         offset="0.0"
         stop-color="#9999cc"
         id="stop192-2" />
      <stop
         offset="1.0"
         stop-color="#ffffff"
         id="stop194-0" />
    </linearGradient>
    <radialGradient
       cx="0"
       cy="0"
       gradientTransform="matrix(0.0321,0,0,0.0321,15.718627,4.4128205)"
       gradientUnits="userSpaceOnUse"
       id="gradient22-6"
       r="819.20001"
       spreadMethod="pad">
      <stop
         offset="0.0"
         stop-color="#ccffff"
         id="stop197-8" />
      <stop
         offset="0.09411764705882353"
         stop-color="#ccffff"
         id="stop199-9" />
      <stop
         offset="1.0"
         stop-color="#0099ff"
         id="stop201-2" />
    </radialGradient>
    <linearGradient
       gradientTransform="matrix(-0.0115,0.0061,8e-4,0.0016,17.968627,25.962821)"
       gradientUnits="userSpaceOnUse"
       id="gradient23-6"
       spreadMethod="pad"
       x1="-819.20001"
       x2="819.20001">
      <stop
         offset="0.0"
         stop-color="#6666cc"
         id="stop204-6" />
      <stop
         offset="0.0784313725490196"
         stop-color="#9999cc"
         id="stop206-4" />
      <stop
         offset="1.0"
         stop-color="#ffffff"
         id="stop208-9" />
    </linearGradient>
    <linearGradient
       gradientTransform="matrix(-0.0057,0,0,0.0089,18.668627,32.262821)"
       gradientUnits="userSpaceOnUse"
       id="gradient24-5"
       spreadMethod="pad"
       x1="-819.20001"
       x2="819.20001">
      <stop
         offset="0.0"
         stop-color="#666699"
         id="stop211-0" />
      <stop
         offset="1.0"
         stop-color="#9999cc"
         id="stop213-4" />
    </linearGradient>
    <linearGradient
       gradientTransform="matrix(0,0.009,0.006,0,18.718627,32.412821)"
       gradientUnits="userSpaceOnUse"
       id="gradient25-8"
       spreadMethod="pad"
       x1="-819.20001"
       x2="819.20001">
      <stop
         offset="0.0"
         stop-color="#333399"
         id="stop216-7" />
      <stop
         offset="0.28627450980392155"
         stop-color="#6666cc"
         id="stop218-1" />
      <stop
         offset="1.0"
         stop-color="#cccccc"
         id="stop220-7" />
    </linearGradient>
    <linearGradient
       gradientTransform="matrix(-0.0017,0.0052,0.0044,0.0014,16.318627,34.362821)"
       gradientUnits="userSpaceOnUse"
       id="gradient26-2"
       spreadMethod="pad"
       x1="-819.20001"
       x2="819.20001">
      <stop
         offset="0.0"
         stop-color="#9999cc"
         id="stop223-7" />
      <stop
         offset="1.0"
         stop-color="#eeeeee"
         id="stop225-2" />
    </linearGradient>
    <linearGradient
       id="linearGradient1167"
       inkscape:collect="always">
      <stop
         id="stop1163"
         offset="0"
         style="stop-color:#aaf3ff;stop-opacity:1;" />
      <stop
         id="stop1165"
         offset="1"
         style="stop-color:#aaf3ff;stop-opacity:0;" />
    </linearGradient>
    <linearGradient
       id="linearGradient1139"
       inkscape:collect="always">
      <stop
         id="stop1134"
         offset="0"
         style="stop-color:#0072f9;stop-opacity:1" />
      <stop
         style="stop-color:#0072f9;stop-opacity:1"
         offset="0.82758605"
         id="stop1143" />
      <stop
         id="stop1137"
         offset="1"
         style="stop-color:#005dce;stop-opacity:1" />
    </linearGradient>
    <radialGradient
       gradientTransform="matrix(0.63756024,0.81466051,-0.7931036,0.62068962,30.036713,-18.771984)"
       gradientUnits="userSpaceOnUse"
       r="14.5"
       fy="22.18968"
       fx="33.14151"
       cy="22.18968"
       cx="33.14151"
       id="radialGradient1141"
       xlink:href="#linearGradient1139"
       inkscape:collect="always" />
    <linearGradient
       gradientUnits="userSpaceOnUse"
       y2="12.825213"
       x2="31.85717"
       y1="9.3635864"
       x1="31.209026"
       id="linearGradient1169"
       xlink:href="#linearGradient1167"
       inkscape:collect="always" />
    <filter
       inkscape:collect="always"
       style="color-interpolation-filters:sRGB"
       id="filter4344"
       x="-0.047941698"
       y="-0.048058442"
       width="1.0958834"
       height="1.0961169">
      <feGaussianBlur
         inkscape:collect="always"
         stdDeviation="4.8940321"
         id="feGaussianBlur4346" />
    </filter>
  </defs>
  <sodipodi:namedview
     id="base"
     pagecolor="#ffffff"
     bordercolor="#666666"
     borderopacity="1.0"
     inkscape:pageopacity="0.0"
     inkscape:pageshadow="2"
     inkscape:zoom="4.6708646"
     inkscape:cx="93.237556"
     inkscape:cy="126.2079"
     inkscape:document-units="px"
     inkscape:current-layer="layer1"
     inkscape:document-rotation="0"
     showgrid="false"
     units="px"
     inkscape:window-width="3840"
     inkscape:window-height="2050"
     inkscape:window-x="3840"
     inkscape:window-y="0"
     inkscape:window-maximized="1"
     inkscape:snap-bbox="true"
     inkscape:bbox-nodes="true"
     fit-margin-top="0"
     fit-margin-left="0"
     fit-margin-right="0"
     fit-margin-bottom="0"
     inkscape:bbox-paths="false"
     inkscape:snap-global="true"
     inkscape:pagecheckerboard="0">
    <inkscape:grid
       type="xygrid"
       id="grid1504"
       originx="0"
       originy="0" />
    <inkscape:grid
       type="xygrid"
       id="grid1507"
       spacingx="0.5"
       spacingy="0.5"
       originx="0"
       originy="0" />
  </sodipodi:namedview>
  <metadata
     id="metadata5">
    <rdf:RDF>
      <cc:Work
         rdf:about="">
        <dc:format>image/svg+xml</dc:format>
        <dc:type
           rdf:resource="http://purl.org/dc/dcmitype/StillImage" />
      </cc:Work>
    </rdf:RDF>
  </metadata>
  <g
     inkscape:label="Layer 1"
     inkscape:groupmode="layer"
     id="layer1"
     transform="translate(-12.567709)">
    <path
       id="path4167"
       style="fill:#000000;fill-opacity:1;fill-rule:evenodd;stroke:none;stroke-width:5.68874;filter:url(#filter4344)"
       d="m 161.22896,4.0329316 c -0.51258,0.050369 -1.05222,0.1582971 -1.62109,0.3242187 L 26.490672,28.249728 c -7.584989,1.706622 -10.333919,5.783229 -8.248047,12.230469 1.327373,3.413245 11.944873,47.312306 31.855469,131.695313 l 0.0059,0.0273 -5.125,2.53126 c -15.169978,8.53311 -22.755859,18.6788 -22.755859,30.43554 0,11.94635 7.585881,22.09206 22.755859,30.43555 15.359602,8.53312 33.754052,12.79883 55.181646,12.79883 21.4276,0 39.72455,-4.26571 54.89453,-12.79883 15.16998,-8.34349 22.75586,-18.4892 22.75586,-30.43555 0,-4.18453 -0.9786,-8.16135 -2.90039,-11.9375 a 75.40136,75.40136 0 0 0 12.25586,1.09961 75.40136,75.40136 0 0 0 75.40039,-75.40234 75.40136,75.40136 0 0 0 -75.40039,-75.400395 75.40136,75.40136 0 0 0 -15.38477,1.779297 L 167.85595,11.468438 C 167.02634,6.1589464 164.81706,3.6803081 161.229,4.0328916 Z" />
    <g
       id="g3951"
       transform="matrix(5.2000939,0,0,5.2000939,-52.785558,0)">
      <g
         transform="translate(48)"
         id="g1412">
        <g
           id="g1313"
           transform="matrix(1.093969,0,0,1.093969,-35.432291,0)">
          <path
             inkscape:connector-curvature="0"
             style="fill:url(#gradient18-0);fill-rule:evenodd;stroke:none"
             id="path42"
             d="m 5.7897754,29.533043 0.4610195,1.091304 -0.5913221,-0.01048 c -2.4666667,1.333334 -2.9663292,2.922478 -2.9663292,4.855812 0,1.933333 0.7264706,2.960947 3.1931372,4.29428 2.4666667,1.366667 5.0994752,1.951847 8.6328082,1.951847 3.5,0 6.294483,-0.572419 8.76115,-1.939086 2.466666,-1.333333 2.991911,-2.580561 2.991911,-4.513894 0,-1.733333 -0.342158,-2.994618 -2.342158,-4.261284 l 0.01613,-1.122653 0.22251,0.133937 c 2.666667,1.5 4,3.283333 4,5.35 0,2.1 -1.333333,3.883333 -4,5.35 -2.666667,1.5 -5.883333,2.25 -9.65,2.25 -3.766666,0 -6.9999995,-0.75 -9.6999995,-2.25 -2.6666667,-1.466667 -4.00000005,-3.25 -4.00000005,-5.35 0,-2.066667 1.33333335,-3.85 4.00000005,-5.35 l 0.9711479,-0.479778"
             sodipodi:nodetypes="cccscscscccscscscc" />
          <path
             inkscape:connector-curvature="0"
             style="fill:url(#gradient19-6);fill-rule:evenodd;stroke:none"
             id="path44"
             d="m 5.8686275,30.162821 7.9743685,-1.567437 10.225631,2.167437 c 2,1.266667 3,2.766667 3,4.5 0,1.933333 -1.233333,3.566667 -3.7,4.9 -2.466667,1.366667 -5.45,2.05 -8.95,2.05 -3.533333,0 -6.5333328,-0.683333 -8.9999995,-2.05 -2.4666667,-1.333333 -3.7,-2.966667 -3.7,-4.9 0,-1.933333 1.2333333,-3.566667 3.7,-4.9 l 0.45,-0.2"
             sodipodi:nodetypes="cccscscscc" />
          <path
             inkscape:connector-curvature="0"
             style="fill:url(#gradient24-5);fill-rule:evenodd;stroke:none"
             id="path54-2"
             d="m 23.24475,24.993602 0.773877,4.919219 0.05,0.85 c 0.2,2.3 0.25,4.583333 0.15,6.85 -1.033333,1.3 -2.933333,2.283333 -5.7,2.95 l -1.8,-1.3 c -0.533333,-3.1 -1.663343,-6.512515 -3.296676,-10.112515"
             sodipodi:nodetypes="ccccccc" />
          <path
             inkscape:connector-curvature="0"
             style="fill:url(#gradient26-2);fill-rule:evenodd;stroke:none"
             id="path58-8"
             d="m 16.709011,29.66474 c 1.266666,3.8 1.626283,7.281414 1.859616,10.148081 l -0.85,-0.65 -0.3,-0.2 -1.4,-5.15 C 15.75196,32.779488 15.092164,31.121083 14.092164,28.921083"
             sodipodi:nodetypes="cccccc" />
          <path
             inkscape:connector-curvature="0"
             style="fill:url(#gradient20-3);fill-rule:evenodd;stroke:none"
             id="path46-9"
             d="m 5.7186275,29.562821 c -3.5,-14.833334 -5.36666672,-22.5500005 -5.60000005,-23.1500005 -0.36666667,-1.1333333 0.11666668,-1.85 1.45000005,-2.15 L 24.968627,0.06282051 c 0.8,-0.23333333 1.283333,0.18333333 1.45,1.24999999 l 2.35,20.2500005 c 0.1,0.8 -0.15,1.316667 -0.75,1.55 -6.757112,2.881512 -20.5999995,8.6 -20.5999995,8.6 -0.6333333,0.2 -1.0666667,0.08333 -1.3,-0.35 l -0.25,-1.2 -0.15,-0.6 M 27.351035,21.843691 24.881052,3.759748 3.8329125,8.3074729 8.0006053,29.487753 c 0,0.366667 0.092135,0.403846 0.4254685,0.270513 L 27.903784,22.064683"
             sodipodi:nodetypes="ccccccccccccccccc" />
          <path
             inkscape:connector-curvature="0"
             style="fill:url(#gradient21-9);fill-rule:evenodd;stroke:none"
             id="path48-7"
             d="m 2.0186275,5.4128205 c -0.3475788,0.1297833 -0.3807327,0.4122418 -0.3,0.75 l 4.85,23.0500005 0.1,0.55 0.25,1.1 c 0.1,0.366667 0.066667,0.55 -0.1,0.55 -0.2122822,0 -0.3,-0.3 -0.3,-0.3 L 0.71862745,6.0128205 c 0.0333333,-0.6666667 0.30000005,-1.0833333 0.80000005,-1.25 L 24.518627,0.51282051 c 0.733333,-0.16666667 0.933333,-0.0833333 0.6,0.25 L 2.0186275,5.4128205"
             sodipodi:nodetypes="cccccccccccc" />
          <path
             inkscape:connector-curvature="0"
             style="fill:url(#gradient25-8);fill-rule:evenodd;stroke:none"
             id="path56-3"
             d="m 14.168627,28.912821 8.4,-3.5 0.6,4.1 0.1,0.8 c 0.233333,2.266667 0.35,4.6 0.35,7 -1.2,1.133333 -2.883333,1.966667 -5.05,2.5 -0.233333,-2.866667 -0.983333,-6.2 -2.25,-10 l -2.15,-0.9 m 3.55,10.25 0.85,0.65 -0.469661,-0.359824 -0.380339,-0.290172"
             sodipodi:nodetypes="cccccccccccc" />
          <path
             inkscape:connector-curvature="0"
             style="fill:url(#gradient22-6);fill-rule:evenodd;stroke:none"
             id="path50-6"
             d="m 7.9186275,29.512821 -4.25,-21.3500005 21.3499995,-4.55 2.45,18.2500005 -19.5499995,7.65 M 20.868627,6.2628205 q -3.3,5.5500005 -6.2,18.5000005 l -0.4,-0.55 -0.45,-0.65 -0.6,-0.75 q -2.05,-2.5 -5.1499995,-5.2 3.0999995,2.7 5.1499995,5.2 l 0.6,0.75 0.45,0.65 0.4,0.55 q 2.9,-12.95 6.2,-18.5000005" />
          <path
             inkscape:connector-curvature="0"
             style="fill:url(#gradient23-6);fill-rule:evenodd;stroke:none"
             id="path52-1"
             d="m 7.9186275,29.512821 19.5499995,-7.65 0.6,0.2 -19.6499995,7.8 q -0.5,0.2 -0.5,-0.35" />
        </g>
      </g>
      <g
         transform="translate(-14.89263,-0.39845061)"
         id="g1188">
        <g
           id="g1181"
           transform="translate(26.007162)">
          <circle
             r="14.5"
             cy="22.5"
             cx="34.067711"
             id="path1132"
             style="opacity:1;fill:url(#radialGradient1141);fill-opacity:1;fill-rule:evenodd;stroke:none;stroke-width:1;stroke-linecap:round;stroke-miterlimit:11.1;stroke-dasharray:none;stroke-opacity:1;stop-color:#000000" />
          <path
             sodipodi:nodetypes="cscsc"
             id="path1161"
             d="M 47.560547,21.919918 C 47.51624,14.507746 41.490864,8.5 34.068359,8.5 c -7.449923,0 -13.5,6.050077 -13.5,13.5 0.364964,-4.757309 5.151453,-12.1938491 13.534173,-12.1938491 7.350455,0 13.219473,5.5263991 13.458015,12.1137671 z"
             style="color:#000000;font-style:normal;font-variant:normal;font-weight:normal;font-stretch:normal;font-size:medium;line-height:normal;font-family:sans-serif;font-variant-ligatures:normal;font-variant-position:normal;font-variant-caps:normal;font-variant-numeric:normal;font-variant-alternates:normal;font-variant-east-asian:normal;font-feature-settings:normal;font-variation-settings:normal;text-indent:0;text-align:start;text-decoration:none;text-decoration-line:none;text-decoration-style:solid;text-decoration-color:#000000;letter-spacing:normal;word-spacing:normal;text-transform:none;writing-mode:lr-tb;direction:ltr;text-orientation:mixed;dominant-baseline:auto;baseline-shift:baseline;text-anchor:start;white-space:normal;shape-padding:0;shape-margin:0;inline-size:0;clip-rule:nonzero;display:inline;overflow:visible;visibility:visible;opacity:1;isolation:auto;mix-blend-mode:normal;color-interpolation:sRGB;color-interpolation-filters:linearRGB;solid-color:#000000;solid-opacity:1;vector-effect:none;fill:url(#linearGradient1169);fill-opacity:1;fill-rule:evenodd;stroke:none;stroke-width:1;stroke-linecap:round;stroke-linejoin:miter;stroke-miterlimit:11.1;stroke-dasharray:none;stroke-dashoffset:0;stroke-opacity:1;color-rendering:auto;image-rendering:auto;shape-rendering:auto;text-rendering:auto;enable-background:accumulate;stop-color:#000000;stop-opacity:1" />
        </g>
        <path
           style="opacity:1;fill:#fcfcfc;fill-opacity:0.989763;stroke:none;stroke-width:0.76876px;stroke-linecap:round;stroke-linejoin:round;stroke-opacity:1"
           d="m 55.917794,20 6.666347,-0.796062 v 11.05014 l 2.460453,1.967547 H 56.088698 L 58.408305,30.254078 58.342418,21.5 Z"
           id="path1181"
           sodipodi:nodetypes="cccccccc" />
        <circle
           style="opacity:1;fill:#fcfcfc;fill-opacity:0.989763;stroke:none;stroke-width:0.883864;stroke-linecap:round;stroke-linejoin:round;stroke-opacity:1"
           id="path1195"
           cx="60.087635"
           cy="14.783187"
           r="2.2831869" />
      </g>
    </g>
  </g>
</svg>
