<?xml version="1.0" encoding="UTF-8"?>
<svg width="48" height="48" version="1.1" viewBox="0 0 48 48" xmlns="http://www.w3.org/2000/svg" xmlns:cc="http://creativecommons.org/ns#" xmlns:dc="http://purl.org/dc/elements/1.1/" xmlns:rdf="http://www.w3.org/1999/02/22-rdf-syntax-ns#" xmlns:xlink="http://www.w3.org/1999/xlink">
 <defs>
  <linearGradient id="gradient0-3" x1="-819.2" x2="819.2" gradientTransform="matrix(-.02205 0 0 .021539 40.501 19.74)" gradientUnits="userSpaceOnUse">
   <stop stop-color="#669" offset="0"/>
   <stop stop-color="#99c" offset="1"/>
  </linearGradient>
  <linearGradient id="gradient1-5" x1="-819.2" x2="819.2" gradientTransform="matrix(-.021369 0 0 .020602 40.203 19.783)" gradientUnits="userSpaceOnUse">
   <stop stop-color="#99c" offset="0"/>
   <stop stop-color="#eee" offset="1"/>
  </linearGradient>
  <linearGradient id="gradient2-6" x1="-819.2" x2="819.2" gradientTransform="matrix(0 .018048 .0062999 0 52.803 21.996)" gradientUnits="userSpaceOnUse">
   <stop stop-color="#66c" offset="0"/>
   <stop stop-color="#aaa" offset="1"/>
  </linearGradient>
  <linearGradient id="gradient3-1" x1="-819.2" x2="819.2" gradientTransform="matrix(0 .0047675 .021283 0 40.416 6.5444)" gradientUnits="userSpaceOnUse">
   <stop stop-color="#99c" offset="0"/>
   <stop stop-color="#fff" offset="1"/>
  </linearGradient>
  <linearGradient id="gradient4-0" x1="-819.2" x2="819.2" gradientTransform="matrix(-.012259 -.001277 -.00042567 .0041716 38.628 27.062)" gradientUnits="userSpaceOnUse">
   <stop stop-color="#99c" offset="0"/>
   <stop stop-color="#99c" offset="1"/>
  </linearGradient>
  <linearGradient id="gradient18-0" x1="-819.2" x2="819.2" gradientTransform="matrix(0 .0098504 .017881 0 28.064 37.92)" gradientUnits="userSpaceOnUse">
   <stop stop-color="#99c" offset="0"/>
   <stop stop-color="#669" offset="1"/>
  </linearGradient>
  <radialGradient id="gradient19-6" cx="0" cy="0" r="819.2" gradientTransform="matrix(.027303 0 0 .027303 20.141 35.725)" gradientUnits="userSpaceOnUse">
   <stop stop-color="#fff" offset="0"/>
   <stop stop-color="#ddd" offset=".28235"/>
   <stop stop-color="#99c" offset="1"/>
  </radialGradient>
  <linearGradient id="gradient20-3" x1="-819.2" x2="819.2" gradientTransform="matrix(-.015097 -.015097 -.016703 .016703 29.563 18.326)" gradientUnits="userSpaceOnUse">
   <stop stop-color="#66c" offset="0"/>
   <stop stop-color="#999" offset="1"/>
  </linearGradient>
  <linearGradient id="gradient21-9" x1="-819.2" x2="819.2" gradientTransform="matrix(-.010493 -.010493 -.016167 .016167 31.544 19.29)" gradientUnits="userSpaceOnUse">
   <stop stop-color="#99c" offset="0"/>
   <stop stop-color="#fff" offset="1"/>
  </linearGradient>
  <linearGradient id="gradient23-6" x1="-819.2" x2="819.2" gradientTransform="matrix(-.012313 .0065312 .00085655 .0017131 31.811 27.802)" gradientUnits="userSpaceOnUse">
   <stop stop-color="#66c" offset="0"/>
   <stop stop-color="#99c" offset=".078431"/>
   <stop stop-color="#fff" offset="1"/>
  </linearGradient>
  <linearGradient id="gradient24-5" x1="-819.2" x2="819.2" gradientTransform="matrix(-.006103 0 0 .0095292 32.561 34.547)" gradientUnits="userSpaceOnUse">
   <stop stop-color="#669" offset="0"/>
   <stop stop-color="#99c" offset="1"/>
  </linearGradient>
  <linearGradient id="gradient25-8" x1="-819.2" x2="819.2" gradientTransform="matrix(0 .0096362 .0064242 0 32.614 34.708)" gradientUnits="userSpaceOnUse">
   <stop stop-color="#339" offset="0"/>
   <stop stop-color="#66c" offset=".28627"/>
   <stop stop-color="#ccc" offset="1"/>
  </linearGradient>
  <linearGradient id="gradient26-2" x1="-819.2" x2="819.2" gradientTransform="matrix(-.0018202 .0055676 .004711 .001499 30.045 36.796)" gradientUnits="userSpaceOnUse">
   <stop stop-color="#99c" offset="0"/>
   <stop stop-color="#eee" offset="1"/>
  </linearGradient>
  <radialGradient id="radialGradient1" cx="0" cy="0" r="819.2" gradientTransform="matrix(.034369 0 0 .034369 29.402 4.7287)" gradientUnits="userSpaceOnUse">
   <stop stop-color="#cff" offset="0"/>
   <stop stop-color="#cff" offset=".094118"/>
   <stop stop-color="#09f" offset="1"/>
  </radialGradient>
  <radialGradient id="radialGradient27" cx="28.153" cy="8.6427" r="12.741" gradientTransform="matrix(1 0 0 1.0882 0 -1.5651)" gradientUnits="userSpaceOnUse">
   <stop stop-color="#090" offset="0"/>
   <stop stop-color="#060" offset="1"/>
  </radialGradient>
 </defs>
 <metadata>
  <rdf:RDF>
   <cc:Work rdf:about="">
    <dc:format>image/svg+xml</dc:format>
    <dc:type rdf:resource="http://purl.org/dc/dcmitype/StillImage"/>
   </cc:Work>
  </rdf:RDF>
 </metadata>
 <g transform="translate(-12.568)">
  <g fill-rule="evenodd" stroke-width=".85134">
   <path d="m26.326 26.934 22.05 10.471q5.108-2.852 10.173-5.6614v-25.029l-25.242-4.6398-10.855 2.3837 3.8736 22.475" fill="url(#gradient0-3)"/>
   <path d="m26.837 26.679 21.624 10.046 9.0667-5.3209 0.17027-24.008-24.519-4.5121-10.429 1.8304 4.0864 21.964" fill="url(#gradient1-5)"/>
   <path d="m48.461 36.724 9.4924-5.2783v-24.263l-10.344 2.7668 0.85134 26.775" fill="url(#gradient2-6)"/>
   <path d="m33.18 2.6283-10.173 2.0858 24.604 5.7465 10.259-3.2776-24.689-4.5547" fill="url(#gradient3-1)"/>
   <path d="m48.248 29.914-19.283-7.2789 0.1277 1.3196 19.198 7.5343-0.04257-1.575" fill="url(#gradient4-0)"/>
   <path d="m55.74 29.999q-0.1277 0.72364 0.3831 0.8939 0.55337 0.17027 0.7662-0.59594 0.2554-0.7662-0.3831-0.93647-0.5108-0.17027-0.7662 0.6385" fill="#9f6"/>
   <path d="m49.057 14.504 0.29797 12.685 7.5769-3.4905v-12.089l-7.8749 2.8945m6.7681-1.2344-0.04257 9.6627-5.3209 2.4689-0.34054-10.088 5.704-2.0432" fill="#669"/>
   <path d="m50.079 15.228 0.17027 10.727 5.9594-2.7243v-10.301l-6.1296 2.2986" fill="#99c"/>
  </g>
  <g fill="#669" fill-rule="evenodd" stroke-width=".85134">
   <path d="m50.547 20.294v1.0642l5.2783-2.256v-0.93647l-5.2783 2.1283"/>
   <path d="m51.058 17.697v0.93647l4.0013-1.6601v-0.85134l-4.0013 1.575"/>
   <path d="m48.291 31.489 9.7478-5.0229v-1.3621l-9.7904 4.8101"/>
  </g>
  <g fill-rule="evenodd">
   <path d="m18.772 31.625 0.49361 1.1685-0.63312-0.01122c-2.641 1.4276-3.176 3.1291-3.176 5.1991s0.77783 3.1703 3.4189 4.5979c2.641 1.4633 5.46 2.0898 9.2431 2.0898 3.7474 0 6.7395-0.61288 9.3805-2.0762 2.641-1.4276 3.2034-2.763 3.2034-4.833 0-1.8559-0.36635-3.2063-2.5077-4.5625l0.01727-1.202 0.23824 0.1434c2.8552 1.606 4.2828 3.5154 4.2828 5.7282 0 2.2485-1.4276 4.1579-4.2828 5.7282-2.8552 1.606-6.2992 2.4091-10.332 2.4091-4.0329 0-7.4949-0.80302-10.386-2.4091-2.8552-1.5704-4.2828-3.4798-4.2828-5.7282 0-2.2128 1.4276-4.1222 4.2828-5.7282l1.0398-0.5137" fill="url(#gradient18-0)"/>
   <path d="m18.856 32.299 8.5381-1.6782 10.949 2.3207c2.1414 1.3562 3.2121 2.9623 3.2121 4.8181 0 2.07-1.3205 3.8188-3.9616 5.2464-2.641 1.4633-5.8353 2.1949-9.5827 2.1949-3.7831 0-6.9952-0.73164-9.6362-2.1949-2.641-1.4276-3.9616-3.1764-3.9616-5.2464 0-2.07 1.3205-3.8188 3.9616-5.2464l0.48181-0.21414" fill="url(#gradient19-6)"/>
   <path d="m37.46 26.764 0.82858 5.267 0.05353 0.91009c0.21414 2.4626 0.26767 4.9073 0.1606 7.3342-1.1064 1.3919-3.1407 2.4447-6.103 3.1585l-1.9272-1.3919c-0.57104-3.3191-1.7809-6.9729-3.5297-10.827" fill="url(#gradient24-5)"/>
   <path d="m30.463 31.766c1.3562 4.0686 1.7412 7.7962 1.9911 10.865l-0.91009-0.69595-0.32121-0.21414-1.499-5.5141c-0.28552-1.1064-0.99196-2.882-2.0626-5.2376" fill="url(#gradient26-2)"/>
   <path d="m18.695 31.657c-3.7474-15.882-5.7461-24.144-5.9959-24.787-0.39259-1.2135 0.12491-1.9808 1.5525-2.302l25.054-4.4969c0.85655-0.24983 1.3741 0.19629 1.5525 1.3384l2.5161 21.682c0.10707 0.85656-0.1606 1.4097-0.80302 1.6596-7.2348 3.0852-22.056 9.208-22.056 9.208-0.6781 0.21414-1.1421 0.08922-1.3919-0.37474l-0.26767-1.2848-0.1606-0.64242m23.162-8.2648-2.6446-19.362-22.536 4.8692 4.4623 22.678c0 0.39259 0.09865 0.4324 0.45555 0.28964l20.855-8.2375" fill="url(#gradient20-3)"/>
   <path d="m14.734 5.7994c-0.37215 0.13896-0.40765 0.44138-0.32121 0.80302l5.1929 24.679 0.10707 0.58888 0.26767 1.1778c0.10707 0.39259 0.07138 0.58888-0.10707 0.58888-0.22729 0-0.32121-0.32121-0.32121-0.32121l-6.21-26.874c0.03569-0.7138 0.32121-1.1599 0.85656-1.3384l24.626-4.5504c0.78517-0.17845 0.99931-0.089224 0.64242 0.26767l-24.733 4.9787" fill="url(#gradient21-9)"/>
   <path d="m27.743 30.961 8.9938-3.7474 0.64242 4.3898 0.10707 0.85656c0.24983 2.4269 0.37474 4.9252 0.37474 7.4949-1.2848 1.2135-3.0872 2.1057-5.407 2.6767-0.24983-3.0693-1.0528-6.6383-2.4091-10.707l-2.302-0.96362m3.801 10.975 0.91009 0.69595-0.50286-0.38526-0.40723-0.31068" fill="url(#gradient25-8)"/>
   <path d="m21.051 31.603-4.5504-22.859 22.859-4.8717 2.6232 19.54-20.932 8.1908" fill="url(#radialGradient1)"/>
   <path d="m21.051 31.603 20.932-8.1908 0.64242 0.21414-21.039 8.3514q-0.53535 0.21414-0.53535-0.37474" fill="url(#gradient23-6)"/>
   <path d="m21.051 31.603-4.5504-22.859 22.859-4.8717 2.6232 19.54-20.932 8.1908" fill="url(#radialGradient27)"/>
  </g>
  <path d="m33.87 5.043-0.72852 0.1543 0.90625 4.7129-4.6836 1.3008-0.92578-5.0098-0.72852 0.1543 0.93359 5.0547-5.1191 1.4219-1.0938-5.3516-0.72656 0.1543 1.1055 5.3945-5.1699 1.4355 0.14453 0.73242 5.1738-1.4375 1.0254 5.0156-5.1387 1.748 0.14648 0.73633 5.1445-1.75 0.99805 4.877-5.1191 2.0195 0.14844 0.74023 5.1211-2.0215 0.91406 4.4648 0.69922-0.27539-0.91211-4.4648 4.7949-1.8926 0.83398 4.5117 0.70508-0.27539-0.83398-4.5137 4.6641-1.8418 0.86914 4.5176 0.70508-0.27734-0.86914-4.5176 4.5078-1.7793-0.10156-0.75977-4.5488 1.7949-0.82812-4.3027 4.8184-1.6387-0.09961-0.75195-4.8613 1.6543-0.83203-4.332 5.1426-1.4277-0.10156-0.74414-5.1836 1.4375-0.89648-4.668zm0.31836 5.6016 0.8418 4.373-4.668 1.5879-0.86133-4.6602 4.6875-1.3008zm-5.4082 1.5 0.86914 4.7031-4.957 1.6855-1.0176-4.9707 5.1055-1.418zm6.3926 3.6113 0.83398 4.3398-4.6602 1.8379-0.84766-4.5879 4.6738-1.5898zm-5.3867 1.832 0.85547 4.625-4.8086 1.8965-0.99023-4.8398 4.9434-1.6816z" color="#000000" fill="#090" style="-inkscape-stroke:none"/>
  <path d="m33.896 7.0703-1.6895 6.3691-2.7637 0.19531-0.74609 4.3613-6.0859-7.9473-0.23828 14-3.243-2.0955 0.05941 0.29472 0.23047 1.1641 3.9961 2.5957 0.21875-12.854 5.7051 7.4531 1.0195-5.959 2.6895-0.18945 1.3008-4.9004 3.6816 5.166 2.2461-4.0215-0.18164-1.3574-0.05242-0.40189-2.1214 3.773z" color="#000000" fill="#6c3" fill-rule="evenodd" style="-inkscape-stroke:none"/>
 </g>
</svg>
