<?xml version="1.0" encoding="UTF-8" standalone="no"?>
<svg
   width="256"
   height="256"
   viewBox="0 0 256 256"
   version="1.1"
   id="svg8"
   inkscape:version="1.1.2 (0a00cf5339, 2022-02-04)"
   sodipodi:docname="task-manager.svg"
   inkscape:export-filename="task-manager.png"
   inkscape:export-xdpi="96"
   inkscape:export-ydpi="96"
   xmlns:inkscape="http://www.inkscape.org/namespaces/inkscape"
   xmlns:sodipodi="http://sodipodi.sourceforge.net/DTD/sodipodi-0.dtd"
   xmlns:xlink="http://www.w3.org/1999/xlink"
   xmlns="http://www.w3.org/2000/svg"
   xmlns:svg="http://www.w3.org/2000/svg"
   xmlns:rdf="http://www.w3.org/1999/02/22-rdf-syntax-ns#"
   xmlns:cc="http://creativecommons.org/ns#"
   xmlns:dc="http://purl.org/dc/elements/1.1/">
  <defs
     id="defs2">
    <linearGradient
       inkscape:collect="always"
       id="linearGradient4631">
      <stop
         style="stop-color:#2a39ec;stop-opacity:1"
         offset="0"
         id="stop4627" />
      <stop
         style="stop-color:#2d2aec;stop-opacity:0;"
         offset="1"
         id="stop4629" />
    </linearGradient>
    <linearGradient
       x2="819.20001"
       x1="-819.20001"
       spreadMethod="pad"
       id="gradient0-3"
       gradientUnits="userSpaceOnUse"
       gradientTransform="matrix(-0.11743638,0,0,0.11471583,161.32018,105.11922)">
      <stop
         id="stop44-6"
         stop-color="#666699"
         offset="0.0" />
      <stop
         id="stop46-7"
         stop-color="#9999cc"
         offset="1.0" />
    </linearGradient>
    <linearGradient
       x2="819.20001"
       x1="-819.20001"
       spreadMethod="pad"
       id="gradient1-5"
       gradientUnits="userSpaceOnUse"
       gradientTransform="matrix(-0.11380897,0,0,0.10972817,159.7332,105.34593)">
      <stop
         id="stop49-3"
         stop-color="#9999cc"
         offset="0.0" />
      <stop
         id="stop51-5"
         stop-color="#eeeeee"
         offset="1.0" />
    </linearGradient>
    <linearGradient
       x2="819.20001"
       x1="-819.20001"
       spreadMethod="pad"
       id="gradient2-6"
       gradientUnits="userSpaceOnUse"
       gradientTransform="matrix(0,0.09612552,0.03355326,0,226.8397,117.13491)">
      <stop
         id="stop54-2"
         stop-color="#6666cc"
         offset="0.0" />
      <stop
         id="stop56-9"
         stop-color="#aaaaaa"
         offset="1.0" />
    </linearGradient>
    <linearGradient
       x2="819.20001"
       x1="-819.20001"
       spreadMethod="pad"
       id="gradient3-1"
       gradientUnits="userSpaceOnUse"
       gradientTransform="matrix(0,0.02539166,0.11335558,0,160.86676,34.838764)">
      <stop
         id="stop59-2"
         stop-color="#9999cc"
         offset="0.0" />
      <stop
         id="stop61-7"
         stop-color="#ffffff"
         offset="1.0" />
    </linearGradient>
    <linearGradient
       x2="819.20001"
       x1="-819.20001"
       spreadMethod="pad"
       id="gradient4-0"
       gradientUnits="userSpaceOnUse"
       gradientTransform="matrix(-0.06529281,-0.00680135,-0.00226711,0.02221771,151.34489,144.11354)">
      <stop
         id="stop64-9"
         stop-color="#9999cc"
         offset="0.0" />
      <stop
         id="stop66-3"
         stop-color="#9999cc"
         offset="1.0" />
    </linearGradient>
    <linearGradient
       gradientTransform="matrix(0,0.0092,0.0167,0,14.468627,35.412821)"
       gradientUnits="userSpaceOnUse"
       id="gradient18-0"
       spreadMethod="pad"
       x1="-819.20001"
       x2="819.20001">
      <stop
         offset="0.0"
         stop-color="#9999cc"
         id="stop175-7" />
      <stop
         offset="1.0"
         stop-color="#666699"
         id="stop177-8" />
    </linearGradient>
    <radialGradient
       cx="0"
       cy="0"
       gradientTransform="matrix(0.0255,0,0,0.0255,7.0686275,33.362821)"
       gradientUnits="userSpaceOnUse"
       id="gradient19-6"
       r="819.20001"
       spreadMethod="pad">
      <stop
         offset="0.0"
         stop-color="#ffffff"
         id="stop180-8" />
      <stop
         offset="0.2823529411764706"
         stop-color="#dddddd"
         id="stop182-8" />
      <stop
         offset="1.0"
         stop-color="#9999cc"
         id="stop184-4" />
    </radialGradient>
    <linearGradient
       gradientTransform="matrix(-0.0141,-0.0141,-0.0156,0.0156,15.868627,17.112821)"
       gradientUnits="userSpaceOnUse"
       id="gradient20-3"
       spreadMethod="pad"
       x1="-819.20001"
       x2="819.20001">
      <stop
         offset="0.0"
         stop-color="#6666cc"
         id="stop187-1" />
      <stop
         offset="1.0"
         stop-color="#999999"
         id="stop189-4" />
    </linearGradient>
    <linearGradient
       gradientTransform="matrix(-0.0098,-0.0098,-0.0151,0.0151,17.718627,18.012821)"
       gradientUnits="userSpaceOnUse"
       id="gradient21-9"
       spreadMethod="pad"
       x1="-819.20001"
       x2="819.20001">
      <stop
         offset="0.0"
         stop-color="#9999cc"
         id="stop192-2" />
      <stop
         offset="1.0"
         stop-color="#ffffff"
         id="stop194-0" />
    </linearGradient>
    <radialGradient
       cx="0"
       cy="0"
       gradientTransform="matrix(0.0321,0,0,0.0321,15.718627,4.4128205)"
       gradientUnits="userSpaceOnUse"
       id="gradient22-6"
       r="819.20001"
       spreadMethod="pad">
      <stop
         offset="0.0"
         stop-color="#ccffff"
         id="stop197-8" />
      <stop
         offset="0.09411764705882353"
         stop-color="#ccffff"
         id="stop199-9" />
      <stop
         offset="1.0"
         stop-color="#0099ff"
         id="stop201-2" />
    </radialGradient>
    <linearGradient
       gradientTransform="matrix(-0.0115,0.0061,8e-4,0.0016,17.968627,25.962821)"
       gradientUnits="userSpaceOnUse"
       id="gradient23-6"
       spreadMethod="pad"
       x1="-819.20001"
       x2="819.20001">
      <stop
         offset="0.0"
         stop-color="#6666cc"
         id="stop204-6" />
      <stop
         offset="0.0784313725490196"
         stop-color="#9999cc"
         id="stop206-4" />
      <stop
         offset="1.0"
         stop-color="#ffffff"
         id="stop208-9" />
    </linearGradient>
    <linearGradient
       gradientTransform="matrix(-0.0057,0,0,0.0089,18.668627,32.262821)"
       gradientUnits="userSpaceOnUse"
       id="gradient24-5"
       spreadMethod="pad"
       x1="-819.20001"
       x2="819.20001">
      <stop
         offset="0.0"
         stop-color="#666699"
         id="stop211-0" />
      <stop
         offset="1.0"
         stop-color="#9999cc"
         id="stop213-4" />
    </linearGradient>
    <linearGradient
       gradientTransform="matrix(0,0.009,0.006,0,18.718627,32.412821)"
       gradientUnits="userSpaceOnUse"
       id="gradient25-8"
       spreadMethod="pad"
       x1="-819.20001"
       x2="819.20001">
      <stop
         offset="0.0"
         stop-color="#333399"
         id="stop216-7" />
      <stop
         offset="0.28627450980392155"
         stop-color="#6666cc"
         id="stop218-1" />
      <stop
         offset="1.0"
         stop-color="#cccccc"
         id="stop220-7" />
    </linearGradient>
    <linearGradient
       gradientTransform="matrix(-0.0017,0.0052,0.0044,0.0014,16.318627,34.362821)"
       gradientUnits="userSpaceOnUse"
       id="gradient26-2"
       spreadMethod="pad"
       x1="-819.20001"
       x2="819.20001">
      <stop
         offset="0.0"
         stop-color="#9999cc"
         id="stop223-7" />
      <stop
         offset="1.0"
         stop-color="#eeeeee"
         id="stop225-2" />
    </linearGradient>
    <filter
       inkscape:collect="always"
       style="color-interpolation-filters:sRGB"
       id="filter1254"
       x="-0.048011876"
       y="-0.047988126"
       width="1.0960238"
       height="1.0959763">
      <feGaussianBlur
         inkscape:collect="always"
         stdDeviation="4.8987605"
         id="feGaussianBlur1256" />
    </filter>
    <linearGradient
       inkscape:collect="always"
       xlink:href="#linearGradient4631"
       id="linearGradient4633"
       x1="83.628815"
       y1="57.293259"
       x2="105.09013"
       y2="144.33606"
       gradientUnits="userSpaceOnUse" />
  </defs>
  <sodipodi:namedview
     id="base"
     pagecolor="#ffffff"
     bordercolor="#666666"
     borderopacity="1.0"
     inkscape:pageopacity="0.0"
     inkscape:pageshadow="2"
     inkscape:zoom="6.6512232"
     inkscape:cx="85.548174"
     inkscape:cy="141.55291"
     inkscape:document-units="px"
     inkscape:current-layer="layer1"
     inkscape:document-rotation="0"
     showgrid="false"
     units="px"
     inkscape:window-width="3840"
     inkscape:window-height="2050"
     inkscape:window-x="3840"
     inkscape:window-y="0"
     inkscape:window-maximized="1"
     inkscape:snap-bbox="true"
     inkscape:bbox-nodes="true"
     fit-margin-top="0"
     fit-margin-left="0"
     fit-margin-right="0"
     fit-margin-bottom="0"
     inkscape:bbox-paths="false"
     inkscape:snap-global="true"
     inkscape:pagecheckerboard="0">
    <inkscape:grid
       type="xygrid"
       id="grid1504"
       originx="0"
       originy="0" />
    <inkscape:grid
       type="xygrid"
       id="grid1507"
       spacingx="0.5"
       spacingy="0.5"
       originx="0"
       originy="0" />
  </sodipodi:namedview>
  <metadata
     id="metadata5">
    <rdf:RDF>
      <cc:Work
         rdf:about="">
        <dc:format>image/svg+xml</dc:format>
        <dc:type
           rdf:resource="http://purl.org/dc/dcmitype/StillImage" />
      </cc:Work>
    </rdf:RDF>
  </metadata>
  <g
     inkscape:label="Layer 1"
     inkscape:groupmode="layer"
     id="layer1"
     transform="translate(-12.567709)">
    <path
       id="path1645"
       style="fill:#000000;fill-opacity:1;stroke-width:4.53422;filter:url(#filter1254)"
       d="m 161.58176,4.0330229 c -0.51381,0.05049 -1.05871,0.1594695 -1.62896,0.3257927 L 26.520334,28.314759 c -7.603354,1.710754 -10.368089,5.795101 -8.277167,12.257949 1.330585,3.421508 11.979069,47.419836 31.937864,132.007122 l 0.0099,0.0308 -5.141415,2.54525 c -15.206705,8.55378 -22.805488,18.71715 -22.805488,30.50235 0,11.97527 7.598783,22.14882 22.805488,30.51251 15.397061,8.55356 33.834299,12.82788 55.313754,12.82788 21.47948,0 39.82171,-4.2743 55.02843,-12.82809 15.20671,-8.36369 22.81567,-18.53724 22.81567,-30.51252 0,-8.01457 -3.61665,-15.25708 -10.64935,-21.77721 l 40.70372,19.32359 c 18.1369,-10.12643 36.19765,-20.1809 54.1834,-30.15619 V 39.748046 L 169.51278,22.664292 168.21979,11.48553 C 167.38817,6.1631847 165.1785,3.6795858 161.58176,4.0330229 Z M 94.254671,170.58435 c 0.0063,0.0141 0.01407,0.0266 0.02033,0.0407 l -34.401669,14.22288 c 0,0 17.572293,-7.28974 34.381308,-14.26361 z" />
    <path
       style="fill:url(#gradient0-3);stroke-width:4.53422"
       id="path2"
       stroke="none"
       fill-rule="evenodd"
       fill="url(#gradient0)"
       d="m 85.825365,143.4334 117.436375,55.77094 q 27.20534,-15.18964 54.18397,-30.15258 V 35.745609 L 123.00599,11.034093 65.19465,23.729917 85.825365,143.4334" />
    <path
       sodipodi:nodetypes="ccccccc"
       style="fill:url(#gradient1-5);stroke-width:4.53422"
       id="path4"
       stroke="none"
       fill-rule="evenodd"
       fill="url(#gradient1)"
       d="M 88.545901,142.07314 203.71517,195.57697 252.00464,167.23807 252.91148,39.372987 122.32586,15.341605 66.781631,25.090184 88.545901,142.07314" />
    <path
       style="fill:url(#gradient2-6);stroke-width:4.53422"
       id="path6"
       stroke="none"
       fill-rule="evenodd"
       fill="url(#gradient2)"
       d="m 203.71517,195.57697 50.55658,-28.11218 V 38.239431 l -55.09081,14.736225 4.53423,142.601314" />
    <path
       style="fill:url(#gradient3-1);stroke-width:4.53422"
       id="path8"
       stroke="none"
       fill-rule="evenodd"
       fill="url(#gradient3)"
       d="M 122.32586,13.981338 68.141896,25.090184 199.18094,55.696187 253.81833,38.239431 122.32586,13.981338" />
    <path
       style="fill:url(#gradient4-0);stroke-width:4.53422"
       id="path10"
       stroke="none"
       fill-rule="evenodd"
       fill="url(#gradient4)"
       d="m 202.58161,159.30319 -102.700152,-38.76761 0.680132,7.02804 102.24673,40.12788 -0.2267,-8.38831" />
    <path
       id="path12"
       stroke="none"
       fill-rule="evenodd"
       fill="#99ff66"
       d="m 242.48277,159.75661 q -0.68013,3.85409 2.0404,4.76093 2.94725,0.90685 4.0808,-3.17395 1.36027,-4.0808 -2.0404,-4.98765 -2.72053,-0.90685 -4.0808,3.40067"
       style="stroke-width:4.53422" />
    <path
       id="path14"
       stroke="none"
       fill-rule="evenodd"
       fill="#666699"
       d="m 206.88912,77.233747 1.58698,67.559923 40.35458,-18.59031 V 61.817388 l -41.94156,15.416359 m 36.04707,-6.574622 -0.2267,51.463435 -28.33889,13.14925 -1.81369,-53.730552 30.37929,-10.882133"
       style="stroke-width:4.53422" />
    <path
       id="path16"
       stroke="none"
       fill-rule="evenodd"
       fill="#9999cc"
       d="m 212.33019,81.087838 0.90684,57.131212 31.73956,-14.50952 V 68.845435 l -32.6464,12.242403"
       style="stroke-width:4.53422" />
    <path
       id="path18"
       stroke="none"
       fill-rule="evenodd"
       fill="#666699"
       d="m 214.82401,108.06646 v 5.66779 l 28.11218,-12.0157 v -4.987644 l -28.11218,11.335554"
       style="stroke-width:4.53422" />
    <path
       id="path20"
       stroke="none"
       fill-rule="evenodd"
       fill="#666699"
       d="m 217.54455,94.237086 v 4.987646 l 21.31084,-8.841737 v -4.534221 l -21.31084,8.388312"
       style="stroke-width:4.53422" />
    <path
       sodipodi:nodetypes="cccc"
       id="path22"
       stroke="none"
       fill-rule="evenodd"
       fill="#666699"
       d="m 202.80832,167.6915 51.91684,-26.75192 v -7.25476 l -52.14354,25.61837"
       style="stroke-width:4.53422" />
    <g
       transform="matrix(5.2126829,0,0,5.2126829,197.26977,0.00390368)"
       id="g1412">
      <g
         id="g1313"
         transform="matrix(1.093969,0,0,1.093969,-35.432291,0)">
        <path
           inkscape:connector-curvature="0"
           style="fill:url(#gradient18-0);fill-rule:evenodd;stroke:none"
           id="path42"
           d="m 5.7897754,29.533043 0.4610195,1.091304 -0.5913221,-0.01048 c -2.4666667,1.333334 -2.9663292,2.922478 -2.9663292,4.855812 0,1.933333 0.7264706,2.960947 3.1931372,4.29428 2.4666667,1.366667 5.0994752,1.951847 8.6328082,1.951847 3.5,0 6.294483,-0.572419 8.76115,-1.939086 2.466666,-1.333333 2.991911,-2.580561 2.991911,-4.513894 0,-1.733333 -0.342158,-2.994618 -2.342158,-4.261284 l 0.01613,-1.122653 0.22251,0.133937 c 2.666667,1.5 4,3.283333 4,5.35 0,2.1 -1.333333,3.883333 -4,5.35 -2.666667,1.5 -5.883333,2.25 -9.65,2.25 -3.766666,0 -6.9999995,-0.75 -9.6999995,-2.25 -2.6666667,-1.466667 -4.00000005,-3.25 -4.00000005,-5.35 0,-2.066667 1.33333335,-3.85 4.00000005,-5.35 l 0.9711479,-0.479778"
           sodipodi:nodetypes="cccscscscccscscscc" />
        <path
           inkscape:connector-curvature="0"
           style="fill:url(#gradient19-6);fill-rule:evenodd;stroke:none"
           id="path44"
           d="m 5.8686275,30.162821 7.9743685,-1.567437 10.225631,2.167437 c 2,1.266667 3,2.766667 3,4.5 0,1.933333 -1.233333,3.566667 -3.7,4.9 -2.466667,1.366667 -5.45,2.05 -8.95,2.05 -3.533333,0 -6.5333328,-0.683333 -8.9999995,-2.05 -2.4666667,-1.333333 -3.7,-2.966667 -3.7,-4.9 0,-1.933333 1.2333333,-3.566667 3.7,-4.9 l 0.45,-0.2"
           sodipodi:nodetypes="cccscscscc" />
        <path
           inkscape:connector-curvature="0"
           style="fill:url(#gradient24-5);fill-rule:evenodd;stroke:none"
           id="path54-2"
           d="m 23.24475,24.993602 0.773877,4.919219 0.05,0.85 c 0.2,2.3 0.25,4.583333 0.15,6.85 -1.033333,1.3 -2.933333,2.283333 -5.7,2.95 l -1.8,-1.3 c -0.533333,-3.1 -1.663343,-6.512515 -3.296676,-10.112515"
           sodipodi:nodetypes="ccccccc" />
        <path
           inkscape:connector-curvature="0"
           style="fill:url(#gradient26-2);fill-rule:evenodd;stroke:none"
           id="path58-8"
           d="m 16.709011,29.66474 c 1.266666,3.8 1.626283,7.281414 1.859616,10.148081 l -0.85,-0.65 -0.3,-0.2 -1.4,-5.15 C 15.75196,32.779488 15.092164,31.121083 14.092164,28.921083"
           sodipodi:nodetypes="cccccc" />
        <path
           inkscape:connector-curvature="0"
           style="fill:url(#gradient20-3);fill-rule:evenodd;stroke:none"
           id="path46-9"
           d="m 5.7186275,29.562821 c -3.5,-14.833334 -5.36666672,-22.5500005 -5.60000005,-23.1500005 -0.36666667,-1.1333333 0.11666668,-1.85 1.45000005,-2.15 L 24.968627,0.06282051 c 0.8,-0.23333333 1.283333,0.18333333 1.45,1.24999999 l 2.35,20.2500005 c 0.1,0.8 -0.15,1.316667 -0.75,1.55 -6.757112,2.881512 -20.5999995,8.6 -20.5999995,8.6 -0.6333333,0.2 -1.0666667,0.08333 -1.3,-0.35 l -0.25,-1.2 -0.15,-0.6 M 27.351035,21.843691 24.881052,3.759748 3.8329125,8.3074729 8.0006053,29.487753 c 0,0.366667 0.092135,0.403846 0.4254685,0.270513 L 27.903784,22.064683"
           sodipodi:nodetypes="ccccccccccccccccc" />
        <path
           inkscape:connector-curvature="0"
           style="fill:url(#gradient21-9);fill-rule:evenodd;stroke:none"
           id="path48-7"
           d="m 2.0186275,5.4128205 c -0.3475788,0.1297833 -0.3807327,0.4122418 -0.3,0.75 l 4.85,23.0500005 0.1,0.55 0.25,1.1 c 0.1,0.366667 0.066667,0.55 -0.1,0.55 -0.2122822,0 -0.3,-0.3 -0.3,-0.3 L 0.71862745,6.0128205 c 0.0333333,-0.6666667 0.30000005,-1.0833333 0.80000005,-1.25 L 24.518627,0.51282051 c 0.733333,-0.16666667 0.933333,-0.0833333 0.6,0.25 L 2.0186275,5.4128205"
           sodipodi:nodetypes="cccccccccccc" />
        <path
           inkscape:connector-curvature="0"
           style="fill:url(#gradient25-8);fill-rule:evenodd;stroke:none"
           id="path56-3"
           d="m 14.168627,28.912821 8.4,-3.5 0.6,4.1 0.1,0.8 c 0.233333,2.266667 0.35,4.6 0.35,7 -1.2,1.133333 -2.883333,1.966667 -5.05,2.5 -0.233333,-2.866667 -0.983333,-6.2 -2.25,-10 l -2.15,-0.9 m 3.55,10.25 0.85,0.65 -0.469661,-0.359824 -0.380339,-0.290172"
           sodipodi:nodetypes="cccccccccccc" />
        <path
           inkscape:connector-curvature="0"
           style="fill:url(#gradient22-6);fill-rule:evenodd;stroke:none"
           id="path50-6"
           d="m 7.9186275,29.512821 -4.25,-21.3500005 21.3499995,-4.55 2.45,18.2500005 -19.5499995,7.65"
           sodipodi:nodetypes="ccccc" />
        <path
           inkscape:connector-curvature="0"
           style="fill:url(#gradient23-6);fill-rule:evenodd;stroke:none"
           id="path52-1"
           d="m 7.9186275,29.512821 19.5499995,-7.65 0.6,0.2 -19.6499995,7.8 q -0.5,0.2 -0.5,-0.35" />
        <path
           inkscape:connector-curvature="0"
           style="fill:url(#gradient22-6);fill-rule:evenodd;stroke:none"
           id="path3097"
           d="m 7.9186275,29.512821 -4.25,-21.3500005 21.3499995,-4.55 2.45,18.2500005 -19.5499995,7.65"
           sodipodi:nodetypes="ccccc" />
        <path
           id="path24632"
           style="fill:#839deb;fill-rule:evenodd;stroke:none;stroke-width:5.70251;fill-opacity:1"
           d="M 113.38867 26.847656 L 109.47852 27.679688 L 113.45508 49.814453 L 114.85156 44.546875 L 117.14844 47.769531 L 113.38867 26.847656 z M 84.556641 32.992188 L 80.644531 33.826172 L 85.675781 60.886719 L 60.667969 67.785156 L 63.144531 71.248047 L 86.408203 64.830078 L 91.058594 89.84375 L 79.302734 93.835938 L 81.734375 97.234375 L 91.798828 93.818359 L 93.318359 101.99023 L 97.5625 102.91602 L 95.628906 92.517578 L 103.63867 89.798828 L 104.61523 85.242188 L 94.890625 88.542969 L 90.28125 63.761719 L 111.29492 57.964844 L 112.48047 53.492188 L 89.546875 59.818359 L 84.556641 32.992188 z M 52.761719 39.767578 L 48.841797 40.603516 L 54.576172 69.466797 L 27.001953 77.074219 L 27.783203 81.003906 L 55.355469 73.396484 L 56.246094 77.882812 L 56.515625 61.980469 L 57.427734 63.255859 L 52.761719 39.767578 z M 145.85352 44.285156 L 119.79102 51.474609 L 122.25977 54.939453 L 146.38867 48.283203 L 145.85352 44.285156 z M 149.3125 70.064453 L 138.42383 73.761719 L 146.67383 75.185547 L 149.85547 74.105469 L 149.3125 70.064453 z M 55.841797 101.80078 L 33.566406 109.36523 L 36.509766 112.58984 L 55.769531 106.05078 L 55.841797 101.80078 z "
           transform="matrix(0.17536127,0,0,0.17536127,-8.3535032e-4,-6.8455428e-4)" />
        <path
           id="path3202"
           style="fill:url(#linearGradient4633);fill-opacity:1;fill-rule:evenodd;stroke:none;stroke-width:5.70251"
           d="m 56.515625,61.980469 -1.20515,71.213121 -21.91985,-24.02171 11.769531,59.1289 111.484374,-43.62305 -6.56445,-48.904292 -14.78865,-2.55256 -20.44041,-28.673279 -7.92133,29.887948 -6.2452,29.160613 -17.059912,-3.718558 z"
           transform="matrix(0.17536127,0,0,0.17536127,-8.3535032e-4,-6.8455428e-4)"
           sodipodi:nodetypes="cccccccccccc" />
      </g>
    </g>
  </g>
</svg>
