<?xml version="1.0" encoding="UTF-8"?>
<svg width="48" height="48" version="1.1" viewBox="0 0 48 48" xml:space="preserve" xmlns="http://www.w3.org/2000/svg" xmlns:cc="http://creativecommons.org/ns#" xmlns:dc="http://purl.org/dc/elements/1.1/" xmlns:rdf="http://www.w3.org/1999/02/22-rdf-syntax-ns#" xmlns:xlink="http://www.w3.org/1999/xlink"><defs><filter id="filter16938" x="-.068798" y="-.082426" width="1.1376" height="1.1649" color-interpolation-filters="sRGB"><feGaussianBlur stdDeviation="4.9624816"/></filter><clipPath id="clipPath7"><path d="m157.85 52.355c-26.884 0-49.863 9.445-68.936 28.336-18.891 18.891-28.336 41.781-28.336 68.665 0 26.702 9.445 49.592 28.336 68.665 19.073 18.891 42.052 28.336 68.936 28.336 26.702 0 49.582-9.445 68.655-28.336 18.891-19.073 28.347-41.963 28.347-68.665 0-26.884-9.4554-49.774-28.347-68.665-19.073-18.891-41.953-28.336-68.655-28.336z" fill="url(#linearGradient7)" fill-rule="evenodd"/></clipPath><linearGradient id="linearGradient7" x1="-819.2" x2="819.2" gradientTransform="matrix(-.083922 -.083922 -.083922 .083922 157.84 149.36)" gradientUnits="userSpaceOnUse"><stop stop-color="#039" offset="0"/><stop stop-color="#09f" offset=".47059"/><stop stop-color="#cff" offset="1"/></linearGradient><linearGradient id="linearGradient4962-0" x1="159.87" x2="100.46" y1="57.84" y2="40.804" gradientTransform="matrix(1 0 0 .95766 13.927 .77576)" gradientUnits="userSpaceOnUse"><stop stop-color="#7ec400" offset="0"/><stop stop-color="#a6fe0a" offset=".333"/><stop stop-color="#6eaa00" offset=".667"/><stop stop-color="#4b6700" offset="1"/></linearGradient><linearGradient id="linearGradient4970-2" x1="70.161" x2="10.682" y1="110.96" y2="93.901" gradientTransform="matrix(1 0 0 .95766 13.927 .77576)" gradientUnits="userSpaceOnUse"><stop stop-color="#141fb8" offset="0"/><stop stop-color="#6585fe" offset=".4"/><stop stop-color="#a1b6ff" offset=".65817"/><stop stop-color="#3b66ff" offset="1"/></linearGradient><linearGradient id="linearGradient18448-9" x1="102.03" x2="165.13" y1="85.904" y2="85.904" gradientUnits="userSpaceOnUse" xlink:href="#linearGradient11674"/><linearGradient id="gradient0-1-63" x1="-819.2" x2="819.2" gradientTransform="matrix(-.084862 -.084862 -.084862 .084862 184.24 133.99)" gradientUnits="userSpaceOnUse"><stop stop-color="#039" offset="0"/><stop stop-color="#09f" offset=".47059"/><stop stop-color="#cff" offset="1"/></linearGradient><radialGradient id="gradient1-6-28" cx="0" cy="0" r="819.2" gradientTransform="matrix(.18846 0 0 .18846 172.4 86.046)" gradientUnits="userSpaceOnUse"><stop stop-color="#fff" offset="0"/><stop stop-color="#cff" offset=".078431"/><stop stop-color="#09f" offset=".29804"/><stop stop-color="#06c" offset=".53725"/><stop stop-color="#039" offset=".75294"/><stop stop-color="#99f" offset="1"/></radialGradient><radialGradient id="gradient2-62-2" cx="-1495.2" cy="5091.2" r="819.2" gradientTransform="matrix(.15514 .11929 -.10521 .13683 903.68 -434.13)" gradientUnits="userSpaceOnUse"><stop stop-color="#00bf00" offset="0"/><stop stop-color="#060" offset=".92941"/></radialGradient><radialGradient id="radialGradient1624" cx="-154.38" cy="-18.647" r="75.181" fx="-154.72" gradientTransform="matrix(.81058 0 0 .8081 293.75 101.34)" gradientUnits="userSpaceOnUse"><stop stop-color="#fff" offset="0"/><stop stop-color="#fff" stop-opacity="0" offset="1"/></radialGradient><clipPath id="XMLID_56_-9-6"><path d="m35.432 7.781-0.182-0.052c0.07-0.238 0.234-0.323 0.298-0.35l0.027-8e-3c1e-3 1e-3 -0.06 0.126-0.143 0.41z"/></clipPath><clipPath id="XMLID_70_-70-7"><path d="m88.131 83.682c14.313 9.633 29.822 16.309 62.76 4.969l-15.703 54.578c-28.98 12.742-48.541 5.09-63.201-3.77z"/></clipPath><linearGradient id="linearGradient7243" x1=".187" x2="63.144" y1="129.19" y2="129.19" gradientTransform="matrix(.26555 0 0 .2543 42.454 -129.01)" gradientUnits="userSpaceOnUse" xlink:href="#XMLID_52_-7"/><linearGradient id="linearGradient18472" x1="93.274" x2="30.159" y1="72.666" y2="75.396" gradientTransform="matrix(.26555 0 0 .26555 -3.6981 4.0733)" gradientUnits="userSpaceOnUse" xlink:href="#linearGradient4970-2"/><linearGradient id="linearGradient3574" x1="70.161" x2="10.682" y1="110.96" y2="93.901" gradientTransform="matrix(.26555 0 0 .2543 .00019767 4.2793)" gradientUnits="userSpaceOnUse" xlink:href="#linearGradient4970-2"/><linearGradient id="linearGradient3046-4" x1="16.247" x2="16.247" y1="74.212" y2="74.621" gradientTransform="matrix(.26555 0 0 .2543 .00019767 4.2793)" gradientUnits="userSpaceOnUse"><stop stop-color="#76a5d8" offset="0"/><stop stop-color="#2e499e" offset="1"/></linearGradient><linearGradient id="linearGradient17" x1="159.87" x2="100.46" y1="57.84" y2="40.804" gradientTransform="matrix(1.3402,0,0,1.2835,22.492,26.082)" gradientUnits="userSpaceOnUse" xlink:href="#linearGradient4962-0"/><linearGradient id="linearGradient18" x1="182.9" x2="122.36" y1="26.357" y2="17.877" gradientTransform="matrix(1.3402,0,0,1.3402,3.8272,25.042)" gradientUnits="userSpaceOnUse" xlink:href="#linearGradient4962-0"/><linearGradient id="linearGradient19" x1="170.77" x2="171.41" y1="20.577" y2="21.652" gradientTransform="matrix(1.3402,0,0,1.2835,22.492,26.082)" gradientUnits="userSpaceOnUse"><stop stop-color="#83b641" offset="0"/><stop stop-color="#595e48" offset="1"/></linearGradient><linearGradient id="linearGradient20" x1="172.43" x2="172.03" y1="21.409" y2="21.895" gradientTransform="matrix(1.3402,0,0,1.2835,22.492,26.082)" gradientUnits="userSpaceOnUse"><stop stop-color="#8aa742" offset="0"/><stop stop-color="#595e48" offset="1"/></linearGradient><linearGradient id="linearGradient21" x1="173.04" x2="173.04" y1="21.805" y2="22.834" gradientTransform="matrix(1.3402,0,0,1.2835,22.492,26.082)" gradientUnits="userSpaceOnUse"><stop stop-color="#8aa742" offset="0"/><stop stop-color="#767e47" offset="1"/></linearGradient><linearGradient id="linearGradient22" x1="155.32" x2="153.91" y1="77.938" y2="77.839" gradientTransform="matrix(1.3402,0,0,1.2835,22.492,26.082)" gradientUnits="userSpaceOnUse"><stop stop-color="#767e47" offset="0"/><stop stop-color="#8aa742" offset="1"/></linearGradient><linearGradient id="linearGradient23" x1="155.98" x2="155.07" y1="78.063" y2="79.075" gradientTransform="matrix(1.3402,0,0,1.2835,22.492,26.082)" gradientUnits="userSpaceOnUse"><stop stop-color="#767e47" offset="0"/><stop stop-color="#595e48" offset="1"/></linearGradient><linearGradient id="linearGradient24" x1="163.59" x2="162.09" y1="49.529" y2="49.1" gradientTransform="matrix(1.3402,0,0,1.2835,22.492,26.082)" gradientUnits="userSpaceOnUse"><stop stop-color="#595e48" offset="0"/><stop stop-color="#83b641" offset="1"/></linearGradient><linearGradient id="linearGradient25" x1="104.45" x2="44.978" y1="38.419" y2="23.168" gradientTransform="matrix(1.3402,0,0,1.3402,3.8272,25.042)" gradientUnits="userSpaceOnUse"><stop stop-color="#922204" offset="0"/><stop stop-color="#fe6a0b" offset=".4"/><stop stop-color="#fea960" offset=".66487"/><stop stop-color="#f66911" offset="1"/></linearGradient><linearGradient id="linearGradient26" x1="140.97" x2="81.423" y1="123.62" y2="106.55" gradientUnits="userSpaceOnUse"><stop stop-color="#ffc907" offset="0"/><stop stop-color="#fecc00" offset=".167"/><stop stop-color="#ffd952" offset=".333"/><stop stop-color="#caa200" offset=".625"/><stop stop-color="#987f00" offset="1"/></linearGradient><linearGradient id="linearGradient27" x1="151.23" x2="151.88" y1="88.142" y2="89.226" gradientTransform="matrix(1 0 0 .95766 13.927 .77576)" gradientUnits="userSpaceOnUse"><stop stop-color="#ffcd02" offset=".006"/><stop stop-color="#a87c3c" offset="1"/></linearGradient><linearGradient id="linearGradient28" x1="144.3" x2="142.9" y1="116.28" y2="115.88" gradientTransform="matrix(1 0 0 .95766 13.927 .77576)" gradientUnits="userSpaceOnUse"><stop stop-color="#a87c3c" offset="0"/><stop stop-color="#ffd200" offset="1"/></linearGradient></defs><metadata><rdf:RDF><cc:Work rdf:about=""><dc:format>image/svg+xml</dc:format><dc:type rdf:resource="http://purl.org/dc/dcmitype/StillImage"/></cc:Work></rdf:RDF></metadata><g transform="translate(-12.568)"><g transform="matrix(.18554 0 0 .18554 5.3865 2.6181)" fill-rule="evenodd"><path d="m85.882 133.99q0 40.502 28.655 69.433 28.93 28.655 69.708 28.655 40.503 0 69.433-28.655 28.655-28.93 28.655-69.433 0-40.778-28.655-69.433-28.93-28.655-69.433-28.655-40.778 0-69.708 28.655-28.655 28.655-28.655 69.433" fill="url(#gradient0-1-63)"/><path d="m91.392 133.99q0 38.298 27.002 65.575 27.277 27.277 65.851 27.277 38.298 0 65.851-27.277 27.002-27.277 27.002-65.575 0-38.574-27.002-65.851-27.553-27.277-65.851-27.277-38.574 0-65.851 27.277-27.002 27.277-27.002 65.851" fill="url(#gradient1-6-28)"/><path d="m173.78 41.965v0.54736h-0.54737v0.54736h-2.2077v0.55649h-2.2077v0.82105h-0.54737v2.2077h1.1038v0.54736h4.9536v0.55649h-2.7551v1.1039h-0.54736v-0.55649h-2.2077v1.1039h0.55648v1.6512h-0.55648v1.1039h-1.0947v0.54736h-0.55648v0.55649h-0.54736v0.54736h-0.55649v1.3775h-0.82105v0.55649h-0.55649v1.0947h0.55649v0.55649h1.3775v0.54736h2.1986v0.55649h2.2077v-0.55649h1.1038v-1.6512h0.54737v-0.54736h1.1038v-0.55649h0.54735v-0.54736h0.5565v-0.83017h0.54737v-1.1039h0.83016v-0.54736h2.1986v-0.54736h0.55649v1.0947h-0.55649v1.1039h1.6603v1.3775h0.54736v0.55649h-0.54736v0.54736h-2.2077v0.54736h-0.54736v0.55649h-3.0379v0.54736h-0.54735v0.55649h-0.54737v0.54736h0.54737v0.55649h1.1038v0.54736h1.3775v0.54736h0.54736v0.55649h-2.4814v1.6512h0.5565v1.1039h3.5761v1.3775h1.1039v-0.83017h1.6512v-0.54736h4.4154v0.54736h0.82105v0.83017h0.55649v1.6512h0.54737v0.54736h0.54735v4.4154h-0.54735v0.54737h-0.54737v0.54737h2.1986v0.55648h-0.54737v0.54737h0.54737v0.55648h1.6603v0.82105h0.54737v0.55648h-0.54737v0.54737h-1.1038v1.1039h-0.55649v0.54736h-0.54737v0.55649h0.54737v2.1986h0.55649v1.1039h0.54736v1.1039h0.55648v1.1039h0.54737v0.54737h0.54737v1.3775h0.55649v0.55649h0.54735v0.54736h2.7551v0.54736h2.4814v-1.6512h0.54735v-1.9249h1.3775v-1.6512h0.55649v-1.1039h1.6512v-0.55649h1.6512v-0.54736h0.55648v-0.55649h0.54737v-0.54737h0.54737v-1.1039h2.2077v-0.54736h0.54736v-0.55649h0.55649v0.55649h1.1038v-0.55649h1.9249v-0.54736h0.54735v-0.54737h1.6604v-0.55648h0.54736v-1.3775h0.55649v-2.1986h-0.55649v-0.55648h-0.54736v-2.1986h1.6512v-0.55649h0.54738v-0.54736h0.55649v-0.55649h0.54735v-0.54736h0.55649v-1.6512h-0.55649v-0.83017h-0.54735v-0.54736h2.7551v-1.1039h-0.55649v-0.54736h-0.54736v-1.1039h-0.54737v-1.1039h-1.6603v-0.54736h-1.6512v2.1986h-0.54736v1.1039h-0.5565v-2.2077h-0.54736v-0.54736h0.54736v-1.6512h1.1039v0.54736h1.1038v-1.6512h2.2077v-1.1039h-0.55649v-0.54736h-2.1986v1.0947h-1.1038v0.55649h-0.55649v-1.6512h0.55649v-0.55649h4.4063v-0.54736h0.54736v-0.83017h-2.7551v-0.54736h0.55649v-1.1039h0.54735v-0.54736h1.1039v-0.55649h0.54736v-1.6512h0.55649v-1.1039h-1.1038v-0.54736h-2.7551v1.6512h-0.54735v0.54736h-0.55649v0.55649h-1.1038v-0.55649h0.55649v-0.54736h0.54736v-0.54736h0.55649v-1.6603h-3.3116v-0.54736h0.54735v-1.1039h-0.54735v-0.54736h-2.4814v-0.55649h-2.1986v-0.82105h-2.2077v-0.55649h-6.3403v0.55649h-1.0947v0.82105h-1.934v0.55649h-0.54737v0.54736h-1.6512v0.55649h-0.5565v0.54736h-2.7551v0.54736h-2.7551v0.55649h-3.0288v0.54736h-1.6512v-0.54736h1.0947v-0.55649h1.1038v-0.54736h-0.54736v-0.54736h-0.55649v-2.4814h-0.54737v-0.55649h-0.54736v-0.54736h-0.55649v-0.54736h-3.8589v0.54736h-1.6512v-0.54736zm-12.954 2.4723v1.1039h-0.54737v1.6512h-0.54737v-0.54736h-1.1038v-1.1039h-2.2077v0.55649h-1.9249v0.54736h1.3775v0.54736h0.54736v0.55649h1.1038v0.54736h1.6512v-0.54736h0.55648v1.1039h0.54737v0.54736h-0.54737v0.54736h1.0947v1.1039h-0.54737v0.55649h0.54737v1.6512h3.8589v-1.1039h0.55649v-0.54736h0.82105v-1.1039h0.55649v-1.6512h-1.3775v-2.2077h-0.55649v-0.54736h-0.54736v-0.55649h-1.6512v-1.1039zm-7.9824 2.2077v0.54736h0.54736v-0.54736zm-3.8589 1.6512v0.55649h-1.6512v0.54736h-1.1038v1.1039h2.1986v2.1986h1.6603v0.55649h0.54736v-0.55649h0.54736v0.55649h0.55649v4.68h-1.1038v1.1039h-0.54736v0.55649h-0.55648v1.0947h0.55648v3.8589h1.6512v-1.6512h0.54737v-0.54736h1.1038v-0.55649h0.54737v-0.54736h0.55649v-1.6512h0.54736v-0.55649h4.1326v-0.54736h1.1038v0.54736h1.6512v2.2077h5.7929v-1.6512h-0.55648v-1.1039h-3.5852v-3.8589h-1.0947v-0.83017h-2.2077v-0.54736h-2.2077v0.54736h-2.1986v-0.54736h-0.83017v-0.55649h-1.1038v-1.0947h-0.54737v-1.1039h-2.2077v-0.55649h-0.54736v-0.54736h-1.1038v-1.1039zm-5.2364 2.2077v0.54736h-1.1038v0.55649h-1.1038v0.54736h-1.1038v0.54736h0.55649v0.55649h1.1038v0.54736h0.54736v1.3775h0.55649v0.55649h1.9249v0.54736h3.3024v-0.54736h1.1039v-2.4814h-3.8589v1.3775h-0.54736v-3.0288h0.54736v-1.1039zm-7.1614 4.1326v0.54736h-1.1038v0.55649h-0.55649v0.54736h-1.3775v0.54736h-0.54737v0.55649h-1.1038v0.54736h1.1038v1.1039h3.0288v-0.54736h2.2077v-0.55649h1.1038v-1.1039h0.54736v-1.0947h-0.54736v-0.55649h-1.6603v-0.54736zm5.5101 2.7551v0.54736h-0.55649v2.2077h-1.6512v1.6512h0.54737v0.55649h0.55649v0.54736h0.54736v1.1039h1.1038v0.54736h3.0288v-0.54736h0.55649v1.3775h-0.55649v0.54736h-0.54736v1.1039h-1.3775v1.1039h-1.1038v-1.6512h-1.6512v-0.55649h-1.6512v-1.3775h-0.55649v-3.3024h-0.54736v-0.55649h-1.6512v0.55649h-0.55648v-0.55649h-2.4814v-0.54736h-1.6512v1.1039h-0.54735v-1.6512h-1.1039v-0.55649h-0.54736v0.55649h-0.55648v1.0947h-0.54737v-0.54736h-0.55649v0.54736h-0.54736v0.55649h-0.54736v0.54736h-0.55649v0.55649h-1.1039v0.54736h-0.54736v0.54736h1.1038v-0.54736h0.54737v1.1039h0.55649v1.9249h1.0947v0.55649h2.2077v-0.55649h1.1039v0.55649h1.1038v0.54736h-4.4154v1.6512h0.55649v0.55649h1.6512v0.54736h0.54737v0.54736h2.7551v-0.54736h3.0379v-0.54736h1.6512v0.54736h2.7551v-0.54736h0.54736v-1.1039h0.55649v1.6512h1.1038v0.54736h1.0947v-0.54736h1.3775v0.54736h0.55649v1.1039h0.54736v0.55648h0.55649v1.0947h-0.55649v0.55648h-1.6512v-0.55648h0.54736v-1.0947h-3.5761v1.6512h-2.2077v0.54737h-0.54736v-0.54737h-0.55649v-0.55648h-0.54736v-0.54737h-1.6512v-1.1039h-0.55648v-0.54736h-0.54737v0.54736h-2.4814v0.55648h-0.54736v1.6512h0.54736v0.54737h-0.54736v0.55648h-0.55649v-1.1039h-0.54735v-0.55648h-1.1039v0.55648h-2.7551v-0.55648h0.54736v-1.6512h-0.54736v-0.54736h-0.54736v-0.55649h-1.1039v1.1039h-0.55649v-0.54736h-0.54736v-0.55649h-0.83017v-0.54736h-1.0947v-0.54736h-1.1038v-0.55649l-3.8498-0.0091c-0.87252 0.81265-4.0433 4.0572-8.5298 9.9255-3.0743 4.0212-5.861 8.4293-7.0792 11.002l0.72069 0.0276v1.0947h0.54737v0.55649h0.55649v0.54736h2.4814v0.55649h1.6512v0.54736h0.54736v0.54737h0.55649v1.1037h1.0947v1.934h0.55649v0.54736h1.1038v0.54737h-0.55648v1.6603h0.55648v1.9249h0.54737v0.54737h0.54736v0.55649h0.55649v1.1038h0.82104v0.54736h1.1039v0.54737h0.55649v0.55649h1.1038v0.54736h0.54737v0.55649h0.54737v4.1326h-0.54737v2.7551h-0.54737v5.5101h0.54737v1.1038h0.54737v1.3775h0.55648v0.54737h0.54737v1.1038h1.1038v1.1038h0.54736v0.54737h0.55649v0.54736h1.6512v0.55649h0.54736v1.6512h0.83017v0.54736h0.54736v1.1038h0.55649v0.55649h0.54737v1.3775h0.55649v1.1039h1.0947v0.54736h0.55649v0.54737h0.54737v1.1038h0.55648v0.55649h0.54736v1.0947h1.1039v0.55649h1.6512v-1.1038h-0.54736v-0.54736h-0.55649v-1.1039h-0.54735v-0.55648h-0.5565v-1.0947h1.1038v1.0947h0.55649v0.55648h1.0947v1.1039h1.3775v0.54736h0.55649v0.54736h0.54737v2.2077h0.55648v1.6512h1.0947v0.55649h2.2077v0.82105h1.1039v0.55649h2.7551v1.0947h6.3403v0.55648h0.54736v0.54737h0.54736v0.55649h0.55649v0.54736h1.6512v0.54737h1.1039v0.55648h0.54736v1.1038h0.83017v1.6512h1.1038v0.54737h3.8498v0.55648h2.2077v0.54737h0.54737v2.4814h-0.54737v1.1038h-0.54736v1.0947h-0.55649v1.6603h-0.54736v1.1038h-1.1038v0.54737h-0.54737v2.2077h-0.55648v1.3775h0.55648v1.6512h0.54737v0.54736h0.54737v0.55649h0.55648v1.0947h0.54736v1.1038h0.55649v2.7551h0.54736v0.55648h0.54737v0.54737h0.55649v0.54737h0.54736v0.83017h1.3775v0.54736h1.1038v0.55649h0.55648v0.54736h0.54737v0.55649h0.54737v9.0862h-0.54737v1.6603h-0.54737v3.8498h-0.55648v3.0379h-0.54736v1.6512h-0.55649v4.1326h0.55649v0.54737h-0.55649v1.1038h-0.82105v1.1038h0.82105v4.4063h-0.82105v0.55649h-0.55649v2.4723h-0.54736v6.614h0.54736v0.55649h0.55649v0.54736h0.82105v0.54737h1.1038v-0.54737h1.1038v0.54737h0.54737v1.3775h-1.0947v1.6603h1.0947v1.0947h2.2077v0.55649h1.1038v-0.55649h1.1038v0.55649h1.0947v-1.1039h0.5565v-1.6512h-0.5565v-0.55649h-0.54735v-0.54736h-1.6512v-0.83017h-0.55649v-0.54737h-0.54736v-2.2077h-0.54736v-1.0947h0.54736v-0.55649h0.54736v-1.1038h0.55649v-0.54736h0.54737v-0.54737h0.55648v-2.7551h-1.1038v-1.934h1.1038v-0.54736h0.54737v-1.6603h0.54735v-1.0947h0.5565v-1.6603h-0.5565v-0.54736h1.934v-1.1038h0.54736v-1.6512h1.6512v0.54736h1.1039v-0.54736h1.1038v-0.54737h0.54737v-3.5852h-0.54737v-0.54743h3.3024v-0.83018h0.55649v-1.1038h0.54736v-1.1038h0.55648v-1.0947h0.82105v-1.6603h0.55649v-0.54736h0.54737v-1.1038h0.54735v-1.1038h0.55649v-1.9249h0.54737v-0.54736h0.55649v-0.55649h1.1038v-1.1038h2.1986v-0.54737h1.1039v-0.55649h0.54736v-0.54736h0.55649v-0.54736h0.54737v-0.55649h0.55648v-1.1038h0.82105v-2.7551h0.55648v-2.4723h0.54738v-1.1038h0.54735v-1.1038h0.55649v-0.54736h0.82105v-1.1038h0.55649v-0.55649h0.54736v-4.68h-1.1038v-0.54736h-1.3775v-0.55649h-0.54735v-0.54736h-1.9249v-0.55649h-2.2077v-0.54736h-1.6512v-1.6512h-4.9628v-2.7551h-0.54737v-0.55649h-0.55649v-0.54736h-0.82105v-0.55649h-1.1038v-0.54736h-0.55649v-0.83017h-2.1986v-0.54736h-1.1038v-0.54737h-0.54736v-0.55648h-0.55648v-0.54737h-0.54737v-0.55649h-0.55649v-0.54736h-0.54736v-0.54737h-1.1039v-0.55648h-3.5761v0.55648h-0.55648v-0.55648h-0.54737v-0.54737h-1.1038v-1.1038h-2.7551v0.54737h-1.1038v0.55648h-1.9249v0.54737h-0.55649v1.1038h-0.54736v0.54736h-0.55649v-0.54736h-2.1986v0.54736h-1.1038v-0.54736h-1.1038v-0.54737h-0.54737v-1.1038h-0.55649v-0.55648h0.55649v-3.8498h-3.5852v-3.5852h0.83017v-1.6512h-3.0288v0.54737h-1.6604v1.1038h-0.54736v0.54736h-1.1038v0.55649h-1.6512v-0.55649h-1.6512v-0.54736h-0.55649v-1.6512h-0.54736v-1.1038h-0.83018v-1.6512h-0.54736v-2.2077h0.54736v-0.54736h0.83018v-0.83017h1.1038v-0.54736h4.9536v-0.55649h5.2365v0.55649h0.55649v1.9249h0.54736v1.1038h0.54736v0.54737h0.55649v0.55648h0.54737v0.54737h1.6512v-0.54737h0.55648v-1.6512h-0.55648v-1.1038h-0.54737v-1.3775h-0.54737v-2.2077h0.54737v-1.1038h1.1038v-0.54736h0.54736v-0.55649h0.55649v-1.0947h1.0947v-0.55649h0.55649v-0.54736h0.54736v-1.1038h-0.54736v-0.54737h1.1038v-1.3775h1.3775v-3.3116h3.8589v-0.54736h0.54736v-0.55649h-0.54736v-0.54736h-0.5565v-0.54737h0.5565v-0.55649h0.54736v-0.54736h1.1038v0.54736h2.1986v-0.54736h1.1039v-0.55649h1.3775v-1.0947h-0.54736v-0.55648h-0.83016v-0.54737h-1.1039v-0.83017h-0.54735v-1.6512h0.54735v-2.2077h-1.6512v0.55649h-0.54737v-0.55649h0.54737v-0.54736h4.1326v-0.55649h1.6512v0.55649h1.1039v-0.55649h0.55648v-0.54736h0.54736v-0.54737h0.54737v-0.55648h1.1038v-0.54737h0.55649v-2.2077h-0.55649v-1.3775h-0.54737v-0.54737h-0.55648v-0.55648h-2.1986v-0.54737h-0.55649v-1.9249h-0.54736v-0.55649h-0.54736v-1.1038h-0.5565v-1.6512h-0.54736v-1.1038h-0.83016v-1.0947h-0.54737v-1.1038h-1.1038v0.54737h-0.54737v1.6512h-1.1038v0.55649h-1.6512v-0.55649h-0.5565v-3.8498h-1.1038v-0.55649h-0.54737v-0.54737h-0.54737v-0.83017h-3.5852v-0.54737h-0.55649v-0.55648h1.6603v-2.1986h-1.1038v0.54736h-0.55649v0.55649h-1.0947v-0.55649h-0.55649v-0.54736h-0.54736v-1.1039h-1.1038v-0.55649h-0.54737v-0.54737h-1.1038v-1.1039h-0.55649v0.55649h-0.54736v0.54736h-1.1038v1.1039h-0.54736v1.6512h1.1038v1.1039h1.6512v-0.54736h0.54737v-0.55649h1.1038v0.55649h1.1038v3.0287h-0.55648v2.1986h0.55648v1.6603h-0.55648v3.3024h0.55648v2.2077h0.54736v0.82105h-0.54736v0.55648h-0.55648v0.54737h-0.54737v0.54737h-0.54737v4.1326h0.54737v1.1039h-0.54737v0.55648h-0.55648v-0.55648h-0.54737v-1.1039h-0.55649v-0.54736h-0.54736v-1.9249h-0.54736v-1.6603h-0.55649v-0.54737h-5.2365v-0.54737h-0.54736v-0.55648h-0.54736v-1.9249h-0.55648v-1.1038h-1.1039v-0.54737h-0.54736v-1.1038h-0.54737v0.54736h-0.55649v-0.54736h-0.54736v-0.55649h-0.55649v-1.0947h0.55649v-1.6603h0.54736v-0.54736h0.55649v-0.54736h0.54737v-0.55649h0.54736v-1.3775h1.1039v-0.54737h2.7551v-2.7551h0.55649v-1.1039h0.54736v-0.55649h0.54737v-1.6512h-1.0947v-0.54736h1.6512v0.54736h1.3775v-0.54736h2.1986v-1.1039h0.55649v-0.54737h0.54737v-3.0379h-1.1039v-0.54737h0.55649v-0.54737h0.54737v-1.6603h-1.1039v-1.6512h-3.0287v1.6512h0.83017v0.55649h-0.83017v0.54736h-0.54736v1.6512h-0.55649v-0.54737h-0.54737v-2.2077h-1.1038v0.55649h-0.54737v-0.55649h-1.6512v-2.7551h-0.55648v-2.1986h-0.54738v-2.4814h-2.7551v-4.9628h-0.55649v-0.54736zm16.53 25.899v1.1039h2.1986v-1.1039zm2.1986-20.389v1.6512h-0.54737v1.934h-0.54737v1.0947h0.54737v0.55649h0.54737v1.1039h0.55648v1.6512h1.1038v0.54736h1.0947v2.2077h1.1038v0.54737h0.55649v-0.54737h0.82105v-2.2077h1.1038v0.55648h1.6512v0.54737h0.55648v0.54737h0.54736v0.55648h0.5565v3.0288h-0.5565v1.6512h-0.54736v0.55649h-0.55648v-0.55649h-1.0947v1.1039h-0.55648v1.1039h0.55648v0.54736h2.7551v0.55649h1.0947v1.1039h0.55649v0.54736h1.1038v0.54737h0.54737v0.55648h1.6512v-1.1039h0.83016v0.54737h1.1039v-2.1986h-0.5565v-1.1039h-0.54736v-0.55649h0.54736v-0.54737h1.6512v-0.54736h1.1039v-1.1039h-0.54737v-1.6512h-1.6512v-1.3775h-0.5565v-0.55648h-1.3775v-0.54737h-1.1039v-0.55648h1.1039v-2.7551h-1.1039v-1.0947h-0.54735v-0.55649h-1.1038v-1.1039h-1.6512v-1.0947h-0.54736v-0.55649h-3.3116v-0.54736h-1.1038v-0.83017h0.55649v-0.54736h-0.55649v-1.1039zm92.879 9.0862-0.84841 0.0093v0.54737h-0.54736v1.1039h-0.83017v1.9249h-0.54736v1.1038h-0.5565v1.1039h-0.54736v1.6512h-1.1038v1.1039h-0.54738v1.1039h-0.55648v1.1039h-0.54736v0.54736h-0.55649v0.54737h-0.54737v0.55648h-0.54737v0.54737h-0.55648v0.83017h-0.54736v0.54737h-1.1039v0.55648h-0.54736v0.54737h-0.55648v0.54736h-1.3775v0.55649h0.83017v0.54736h-0.83017v1.6512h0.83017v2.2077h-0.83017v1.1038h0.83017v1.9249h0.54737v0.55648h2.7551v-0.55648h0.55648v-0.82104h0.54737v-1.1039h0.54737v-0.55648h0.55649v-0.54737h0.54736v2.2077h-0.54736v1.3775h0.54736v1.6512h0.55648v1.1038h0.54738v0.82105h2.2077v-0.82105h1.3775v-1.1038h0.54736v-1.6512h0.54737v-1.3775h0.55649v-1.1039h0.54736v-0.55648h0.55648v-2.1986h-1.1038v-3.3116h0.54736v-0.54736h0.55648v-0.54737h1.0947v-0.55648h0.55648v5.5101h0.54736v0.55649h1.1039v0.54737h0.54736v0.54736h-0.54736v2.4814h0.54736v1.1038h-0.54736v-0.54737h-0.54736v-0.55648h-0.5565v0.55648h-0.54736v0.54737h-0.55648v0.54737h-0.54737v1.6603h-0.54737v1.3775h-1.1038v0.54736h-0.55649v-0.54736h-1.0947v0.54736h-0.83017v0.54736h-2.2077v-0.54736h-2.7551v-2.4814h0.55649v-1.1038h-0.55649v-1.6514h-0.54737v0.55648h-1.1038v0.54737h-0.54736v0.54737h-0.55649v2.4814h0.55649v2.2077h-1.1039v0.54737h-2.4814v1.1038h-0.54736v1.1038h-0.55649v0.54736h-0.54737v0.55649h-0.55649v-2.2077h-0.54736v-0.54737h-0.54736v-0.55648h-0.55649v-1.1039h-0.54737v-0.54736h-0.55648v-4.68h-1.6512v-0.55648h-0.54736v-0.82105h0.54736v-1.1038h-2.1986v0.54736h-0.55649v1.934h-0.82104v2.1986h0.82104v1.3775h-3.5761v1.6512h-0.55649v-0.54736h-1.1038v0.54736h-0.54736v1.1039h1.1038v3.3116h2.1986v-0.55649h1.6603v-0.54736h0.82104v0.54736h1.1039v0.55649h-1.1039v0.54737h-0.82104v0.55648h-0.55648v1.0947h2.4814v-0.54736h2.2077v0.54736h-1.6603v0.55649h-1.0947v1.9249h1.0947v0.55648h0.55649v0.54737h0.54736v0.54736h0.55649v3.3116h-5.2364v-0.55649h-1.1038v0.55649h-1.1039v7.9915h1.1039v1.0947h0.54736v0.55649h-0.54736v1.6512h-0.54737v0.54737h-0.55649v0.55648h-0.54736v1.1039h-0.55649v1.3775h-0.54736v0.54736h-0.54737v0.55649h-0.55648v0.54736h-1.1038v0.54737h-0.54737v0.55648h-0.54737v1.1039h-1.934v2.7551h-1.1038v0.54737h-0.54736v1.1038h-0.54737v0.54736h0.54737v2.4814h0.54736v1.1038h-0.54736v0.54737h-0.54737v3.3116h0.54737v0.54737h0.54736v0.54736h0.55649v0.55649h0.54736v0.54737h1.3775v0.55648h0.55648v0.54737h0.54737v1.3775h0.54737v1.1038h1.1038v0.54736h0.55648v0.55649h0.54737v0.54736h0.54736v0.54737h3.3116v-0.54737h4.1326v0.54737h0.54736v-0.54737h2.2077v-0.54736h2.7551v0.54736h1.1039v0.54737h3.5761v0.55649h0.55648v1.6512h-0.55648v1.1039h-0.54738v2.2077h0.54738v0.54736h1.1038v1.9249h0.55648v0.55649h0.54737v2.1986h0.54737v0.55649h0.55649v1.1038h0.54736v1.6512h-0.54736v0.54737h-0.55649v0.55648h0.55649v1.0947h-1.1039v2.4814h-0.54737v1.6512h0.54737v1.1038h0.54737v1.1038h0.55649v1.6512h0.54736v1.6603h0.55648v1.9249h0.54738v1.1038h0.54735v2.1986h0.55649v0.55649h0.54736v0.54736h0.5565v1.1039h0.54736v2.7551h1.3775v0.83018h2.7551v-0.83018l2.1074 0.0182c5.9891-8.0747 19.395-24.803 19.395-57.181 0-32.379-14.029-51.047-23.409-61.87zm-89.567 0.0093h0.54736v1.0947h-0.54736zm47.393 1.6512h0.54738v0.54737h-0.54738zm-37.203 4.1326h0.5565v1.1039h-0.5565zm39.401 0.54736v0.55649h-0.54737v1.0947h-0.55649v1.1039h1.1039v0.55649h-0.54737v0.54736h-0.55649v1.1039h1.6604v0.54737h1.1038v0.55648h0.54735v0.54737h1.6512v0.83017h2.7551v-0.83039h3.5852v-0.54737h1.1038v-0.55648h1.0947v-0.54737h0.55649v-0.54736h0.54736v-1.6603h-0.54736v-0.54736h-0.55649v-0.55649h-0.54736v-0.54737h-0.54737v-0.54736h-2.2077v0.54736h-3.0288v-0.54736h-2.2077v0.54736h-0.54735v0.54737h-0.55649v-0.54737h-0.54738v-0.54736h-0.54735v-0.55649zm44.638 3.8589h1.6512v1.1039h-0.54737v0.54737h-0.55649v0.55648h-0.54736v0.54737h-0.54736v0.83017h-0.5565v-2.4814h0.5565v-0.54732h0.54736zm3.3024 9.6427h1.3775v0.55649h-0.54736v0.54736h-2.4814v-0.54736h1.6512zm-29.749 9.9164h1.0947v1.1038h-1.6512v-0.54736h0.55649zm-60.894 4.4154h0.54736v0.54736h-0.54736zm-1.1039 0.54714h0.5565v0.55649h-0.5565zm-18.738 0.55649h1.6604v0.54736h0.54736v0.54737h1.1039v0.55648h-1.6512v-0.55648h-0.55649v0.55648h-2.1986v-0.55648h0.54736v-0.54737h0.54736zm87.341 0h1.1039v1.0947h0.55649v0.55648h-3.8589v-0.55648h1.1039v-0.54737h1.0947zm-4.9536 2.1986h1.1038v1.934h-0.55649v-0.55649h-0.54736zm-77.151 0.83017h2.2077v0.54736h0.54737v0.55649h-0.54737v-0.55649h-0.55649v1.6512h-0.54736v-1.6512h-1.1038zm3.3116 0.54736h0.54737v0.55649h-0.54737zm-5.7929 1.1038h0.55649v1.1038h-0.55649v1.6512h-1.0947v-0.54736h0.54736v-1.6603h0.54737zm7.4442 0h1.1038v0.54737h-0.55649v1.1038h-0.54736v0.55649h-0.55648v0.54736h-2.1986v-0.54736h0.54737v-0.55649h2.2077zm2.1986 0h0.55649v0.54737h-0.55649zm86.794 4.4063h1.1039v0.55648h0.83017v0.54737h0.54736v0.54736h1.1039v0.55649h0.54736v1.9249h0.55648v2.2077h0.54737v1.1038h0.54737v0.54737h0.55648v0.54736h1.6512v-1.0947h0.54736v-0.55648h0.55649v-2.1986h0.54737v-0.55648h0.55648v2.2077h0.54737v0.54737h0.54736v1.1038h0.83017v0.54736h1.1038v0.55649h2.2077v-0.55649h0.54735v0.55649h2.7551v0.54736h0.54736v1.1039h-0.54736v0.54736h-0.54737v1.1038h-0.55649v0.55649h-0.54736v0.54736h-6.3403v-0.54736h-2.7551v-0.55644h-3.8589v0.55649h-0.54736v1.3775h0.54736v0.54736h-1.6512v-0.54736h-1.3775v-0.83017h-0.54736v-1.1038h-0.5565v-0.54737h-1.6512v-0.55648h-1.6512v-0.54737h-0.55649v-3.3024h-0.54737v-0.55649h-5.2364v0.55649h-3.8589v0.54736h-1.1038v-2.2077h0.55648v-0.54736h0.54737v-1.9249h1.1038v-0.55649h1.6512v-0.54737h0.55649v-1.6512h0.54736v0.54736h2.4814v-0.54736h1.1039v1.6512h-0.55649v3.5761h1.6603v-0.54736h0.54737v-4.1326h0.54737v0.54737h1.1038v1.1038h0.55648v0.55649h1.0947v2.4723h-1.6512v1.1038h0.55648v0.55649h2.1986v0.54736h0.5565v-1.1038h1.3775v-0.54736h1.0947v-0.55649h0.55649v-2.4723h-0.55649v-1.1039h-1.0947v-0.55648h-0.83017v-0.54737h-1.1039zm-12.398 4.1326v1.1038h1.6512v-1.1038zm-5.5101 3.3116h2.2077v1.0947h-1.1038v0.55649h-2.2077v-0.55649h-1.3775v-0.54737h2.4814zm-104.43 4.9537h0.55649v0.55649h-0.55649zm121.79 0.55649h0.54736v0.54736h-0.54736zm-87.341 1.9249v0.55649h2.1986v-0.5565zm2.7551 0v2.2077h0.82105v-0.55649h0.55649v-1.6512zm97.805 0.55649h0.55649v0.54736h0.54736v0.54736h0.55649v0.55649h0.54737v1.1038h-1.1039v-0.55649h-1.1038zm-98.909 2.1986v1.1039h0.54736v1.1038h1.3775v-2.2077zm0.54736 2.2077h-1.1038v-0.5565h-1.6512v-0.54736h-1.6512v-0.54736h-2.2077v0.54736h-1.0947v1.6512h1.6512v-0.54737h0.54737v0.54737h1.6512v0.55648h0.55648v0.54737h1.1038v0.54736h1.6512v2.4814h1.1038v-1.3775h-0.55649v-0.54736h1.3775v1.1038h1.6603v0.82105h2.1986v-0.82105h1.6512v-1.6603h-1.0947v-0.54736h-1.1039v-1.1038h-2.2077v0.55648h-1.1038v-0.55648h-1.3775zm1.934-2.2077v1.1039h2.1986v-1.1039zm101.39 0h1.1039v0.55649h0.54736v0.54737h0.55649v1.1038h0.54736v0.54736h0.55648v1.1038h0.54738v1.1039h0.83016v1.1038h0.54737v0.82104h0.54736v0.55649h0.55649v1.6512h0.54736v0.54737h0.55649v1.6512h0.54737v1.1038h-0.54737v-0.54737h-1.1038v-0.55648h-0.55649v-0.54737h-0.54736v-1.1038h-1.3775v-2.1986h-0.54738v-1.3775h-0.55648v-1.1038h-0.54736v-1.1039h-0.55649v-1.1038h-0.54736v-1.1039h-0.54737v-1.0947h-0.55649zm-56.479 3.8589v1.1039h-0.55649v1.9249h1.1039v-0.82104h0.54735v-1.1038h0.55649v-1.1039zm-39.401 1.1039v1.9249h2.1986v-0.82104h1.934v-1.1038zm4.68 0.54736v0.55649h0.5565v-0.55649zm1.1039 0v0.55649h0.54736v-0.55649zm0 1.3775v0.55649h-0.54736v2.7551h0.54736v0.54736h1.1038v-3.8589zm8.5389 15.709h0.55649v0.54735h-0.55649v0.55649h-0.82105v-0.55649h0.82105z" fill="url(#gradient2-62-2)"/><path d="m91.392 133.99q0 38.298 27.002 65.575 27.277 27.277 65.851 27.277 38.298 0 65.851-27.277 27.002-27.277 27.002-65.575 0-38.574-27.002-65.851-27.553-27.277-65.851-27.277-38.574 0-65.851 27.277-27.002 27.277-27.002 65.851" fill="url(#radialGradient1624)"/></g><path transform="matrix(.18762 0 0 .18762 9.955 -.52067)" d="m85.318 10.808c-8.3795 0.12611-18.351 2.1545-30.741 7.0581h-0.32271v0.35394l-16.292 53.966c-0.08 0.2758 0.07502 0.72734 0.22902 0.84322 0.01283 8e-3 0.01887 0.0038 0.03123 0.01041l0.04164 0.03123 1.0618 0.80158c0.041 0.0173 0.09192 0.06037 0.12492 0.07287 0.249 0.1063 0.26336 0.07576 0.36436 0.06246 0.132-0.023 0.47887-0.16656 0.47887-0.16656 14.893-5.6607 25.94-7.217 35.426-6.1004 1.1167 0.13119 2.2114 0.29654 3.2792 0.49969 0.08004 0.0161 0.15952 0.03555 0.23943 0.05205 0.30367 0.0594 0.60574 0.12252 0.90568 0.18738 0.64712 0.14428 1.2848 0.29522 1.9155 0.45805 0.01308 3e-3 0.02857 0.0067 0.04164 0.01041 0.51508 0.13337 1.0104 0.27333 1.5095 0.41641 5.8302 1.7259 10.99 4.4295 15.886 7.4016 0.044 0.0287 0.06452 0.02905 0.11451 0.05205 0.02135 0.011 0.04993 0.0083 0.08328 0.02082 0.08246 0.038 0.32803 0.14885 0.56216 0.08328l1.0098-0.43723h0.0208v-0.01041h0.0104c0.13944-0.10065 0.35724-0.24343 0.42682-0.49969l16.281-53.841c0.058-0.25571-0.0281-0.51793-0.22903-0.65584-8.9447-5.8052-18.487-10.881-32.459-10.67zm40.339 16.021c-0.17932 0.01-0.36196 0.08561-0.59338 0.21861v-0.01041s-0.0235 0.0095-0.0729 0.04164c-0.26254 0.17519-1.0583 0.72391-1.2284 1.0931l-0.0312 0.02082-16.177 53.623v0.01041c-0.26662 0.74817 0.31141 1.1368 0.44764 1.218 1.4179 0.91461 2.9352 1.814 4.5388 2.6754 10.835 6.3479 24.548 10.733 43.067 7.1726 6.2285-0.98391 12.797-2.8372 19.654-5.8193 0.096-0.0479 0.38773-0.21144 0.55173-0.49969l16.396-53.904v-0.02082c0.1218-0.59186-0.26527-0.94165-0.27067-0.94732l-1.3117-0.99938c-0.113-0.10435-0.36427-0.24316-0.89527-0.16656-32.957 13.05-49.144 5.6635-63.429-3.5395l-0.0104-0.01041c-0.0115-5e-3 -0.02-0.0057-0.0312-0.01041h-0.0104c-0.22394-0.0983-0.4099-0.1559-0.59338-0.14574zm-57.329 43.858c-0.19903 0.0145-0.42635-5e-3 -0.62461 0.01041-0.51861-7e-3 -0.98873 0.02333-1.5199 0.03123-7.6998 0.11537-16.786 2.0031-27.806 6.1004-0.98658 0.34848-1.9691 0.69462-2.9148 1.0618-0.0641 0.0264-0.2614 0.10216-0.33312 0.32272h-0.01041l-15.98 53.727c-0.0777 0.26563 0.05535 0.54366 0.24984 0.7183l0.02082 0.0208 1.0722 0.78076 0.01041 0.0104h0.01041c0.26749 0.18405 0.48264 0.18697 0.59338 0.17698 2e-3 9.7e-4 0.03123 0.0208 0.03123 0.0208 0.0201-7e-3 0.03195-0.0133 0.05205-0.0208 8.9e-4 -1.8e-4 0.02082 0 0.02082 0l-0.01041-0.0104c12.027-4.4597 21.625-6.4992 29.763-6.4543 7.487 0.0441 13.689 1.7494 19.363 4.2161 0.68843 0.30394 1.3785 0.60924 2.0508 0.93692 6e-3 3e-3 0.01502 7e-3 0.02082 0.0104 0.0126 6e-3 0.01863 0.0148 0.03123 0.0208 0.91921 0.44909 1.8216 0.91804 2.7171 1.4054 1.7968 0.97785 3.5333 2.0022 5.2779 3.0918l-0.01041 0.0104s0.02843 9e-3 0.03123 0.0104c0.0104 7e-3 0.02083 0.0143 0.03123 0.0208l0.01041-0.0104c0.0803 0.0453 0.30733 0.16547 0.57256 0.052l0.96814-0.54133 0.01041-0.0208h0.01041c0.13619-0.0998 0.34585-0.23997 0.41641-0.48928v-0.0104l16.511-54.174c0.058-0.25761-0.025-0.52738-0.22902-0.66625l-0.02082-0.01041-0.01041 0.01041c-8.4912-5.5091-17.49-10.197-30.377-10.358zm-33.177 7.5265c0.04-1e-3 0.08493 1e-3 0.12492 0l-0.02082 0.03123zm71.372 10.025c-0.17707 0.0114-0.36314 0.09665-0.60379 0.23943-0.0157 6e-3 -0.0359 0.01193-0.0625 0.03123-0.26708 0.17812-1.0856 0.74482-1.2284 1.0931l-0.0208 0.02082-16.084 53.362c-0.23956 0.65558 0.22472 1.0711 0.44764 1.2284 14.313 9.229 35.093 17.384 67.489 4.1224 0.096-0.0479 0.38133-0.21526 0.54133-0.49968l15.699-52.478c-2e-3 -4e-3 -8e-3 -0.01612-0.0104-0.02082 0.11845-0.58668-0.26631-0.93299-0.27067-0.93691l-1.3013-0.99938c-0.113-0.10439-0.37268-0.24506-0.90568-0.16656-0.0278 9e-3 -0.0556 0.02223-0.0833 0.03123-2.8674 0.88025-15.913 4.0503-18.239 4.5284-21.059 3.392-33.385-2.0706-44.743-9.39v-0.01041c-0.2485-0.11395-0.43548-0.16836-0.62461-0.15615z" clip-path="url(#clipPath7)" fill="#212121" filter="url(#filter16938)" stroke-width=".9786"/><g transform="matrix(.70653 0 0 .70653 12.568 -3.4055)"><g transform="matrix(.19814 0 0 .19814 -4.4564 -.35754)" stroke-width="1.3115"><path d="m165.46 48.156c0.26215-0.03611-0.53415 0.11942-0.88997 0.33505-0.35207 0.23492-1.4273 0.46163-1.6543 0.95638l-0.0366 0.02617-21.617 71.723c-0.36815 1.0119 0.41318 1.5388 0.59419 1.6464 1.9027 1.2273 3.8988 2.4191 6.0509 3.5749 14.521 8.5058 32.826 14.372 57.644 9.5994 8.345-1.319 17.104-3.785 26.292-7.7803 0.12866-0.0642 0.51313-0.28639 0.73292-0.67271l21.96-72.115 3e-3 0.0027c9e-4 -0.0039-8.7e-4 -0.0066 0-0.01045l5e-3 -0.01571c-6.3e-4 -0.0015-1e-3 -0.0038-3e-3 -0.0052 0.1643-0.79863-0.36383-1.2656-0.36383-1.2669l-1.7485-0.82812c-0.15144-0.1399-0.49766-0.31993-1.2093-0.21726-44.167 17.488-65.757 7.6081-84.902-4.7251-1e-3 -0.0042-1e-3 -9e-3 -3e-3 -0.01313-0.0182-0.0083-0.0319-0.01045-0.0497-0.01832-5e-3 -0.0034-0.0107-0.0071-0.0157-0.01045 6.7e-4 0.0016-6.7e-4 0.0036 0 0.0052-0.299-0.1311-1.0338-0.15757-0.79051-0.19108z" fill="#767e47"/><path d="m250.95 53.105c-44.221 17.509-65.662 7.5902-84.825-4.7605l-22.042 72.495c19.145 12.421 42.583 22.726 85.009 4.537z" fill="url(#linearGradient17)"/><path d="m250.87 53.23c-44.221 17.511-65.525 7.7439-84.685-4.6068 0.0442-0.16172 0.15681-0.57863 0.0281-0.87896 19.161 12.353 40.857 22.295 85.075 4.786-0.2935 0.25797-0.2935 0.44564-0.41813 0.69976z" fill="url(#linearGradient18)"/></g><g transform="matrix(.19814 0 0 .19814 -4.4564 -.35754)" fill="#767e47"><polygon transform="matrix(1.3402,0,0,1.2835,22.492,26.082)" points="104.72 18.161 105.9 17.319 89.786 73.298 88.544 74.281 88.545 74.152" fill-rule="evenodd"/><g stroke-width="1.3115"><path d="m144.45 120.96c-0.67277-0.36064-1.1579-1.0871-1.7556-0.86248l21.651-71.754c0.33236-0.14246 1.17-0.41712 1.9607 0.17968z"/><path d="m164.62 47.844-0.21564 0.61858-1.5856 0.98702c0.13402-0.49028 1.3375-1.3078 1.7087-1.5555 0.0697-0.04621 0.0925-0.05006 0.0925-0.05006z" fill-rule="evenodd"/><path d="m166.28 48.541c-0.81886-0.48386-1.6046-0.31977-1.9397-0.18116 0.0523-0.15273 0.19432-0.4659 0.19432-0.4659 0.71165-0.43124 1.0804-0.42623 1.7451-0.12205 0.0858 0.23744 0.11016 0.51113 2.7e-4 0.76911z"/></g></g><g transform="matrix(.19814 0 0 .19814 -4.4564 -.35754)" fill-rule="evenodd"><path d="m252.51 53.704s-0.49453-0.65328-1.6779-0.44408c0.10454-0.26824 0.10454-0.5198 0.45567-0.73157 0.71164-0.10267 1.0574 0.07701 1.2088 0.2169 0.0844 0.07957 0.1099 0.14503 0.1099 0.14503 0.0952 0.40044-0.0965 0.81371-0.0965 0.81371z" fill="url(#linearGradient19)" stroke-width="1.3115"/><path d="m252.5 52.746 1.749 1.3438c0.10453 0.44921-0.12062 0.90483-0.12062 0.90483l-1.7543-1.3489s0.21979-0.50055 0.12598-0.8997z" fill="url(#linearGradient20)" stroke-width="1.3115"/><polygon transform="matrix(1.3402,0,0,1.2835,22.492,26.082)" points="155.24 77.619 171.56 21.402 172.89 22.461 156.48 78.712" fill="#595e48"/><g stroke-width="1.3115"><path d="m232.63 127.63c0.0469-0.41199-0.41144-0.7521-0.41144-0.7521l21.947-72.031s0.34845 0.30033 0.44226 0.51723z" fill="#767e47"/><path d="m254.61 55.388s-0.0791-0.20664-0.45298-0.50825c0.1702-0.67766 0.0576-0.81371 0.0576-0.81371l0.0335 0.02182c0 0.0013 0.54948 0.48001 0.36185 1.3001z" fill="url(#linearGradient21)"/><path d="m231.9 128.3c-11.818 5.139-23.003 7.7906-33.39 8.6582-17.936 1.9508-32.439-1.7853-44.289-7.3593-4.6076-2.0253-8.7796-4.3175-12.47-6.6983l0.19969-0.16557c3.7418 2.4116 7.82 4.768 12.269 6.8639 12.04 5.2942 27.065 8.7891 44.289 7.3593 9.8102-1.0627 20.575-3.99 32.568-9.084 0.33773 0.26054 0.82298 0.42581 0.82298 0.42581z" fill="#595e48"/></g></g><g transform="matrix(.19814 0 0 .19814 -4.4564 -.35754)" stroke-width="1.3115"><path d="m229.51 126.96s-0.84567-0.72643-0.69154-1.7904c1.1365-0.27851 1.8642 0.4107 1.8642 0.4107s-0.20907 0.97928-1.1727 1.3797z" fill="url(#linearGradient22)"/><path d="m230.69 125.58 1.5895 1.3284s-0.24392 0.83296-1.2088 1.2385l-1.6149-1.3245c0.96761-0.40557 1.2343-1.2424 1.2343-1.2424z" fill="url(#linearGradient23)" fill-rule="evenodd"/><g fill="#767e47"><path d="m229.09 125.15c-0.15412 1.0653 0.66474 1.843 0.66474 1.843-44.229 17.513-67.015 7.2002-86.158-5.2185 0.33639-0.23616 0.38866-0.23359 0.60711-0.98056 19.141 12.421 48.073 21.124 84.886 4.356z"/><g fill-rule="evenodd"><path d="m141.96 122.81 1.6444-1.0524c19.151 11.808 41.772 22.02 85.954 5.0183l1.5988 1.3296c-42.421 17.922-69.56 7.9407-89.198-5.2955z"/><path d="m232.63 127.63c-0.21979 0.38632-0.60443 0.60707-0.73308 0.67125-0.0268 0.0154-0.0442 0.0154-0.0442 0.0154s-0.30154 0.0398-0.7036-0.21049c0.86442-0.45178 1.115-1.354 1.115-1.354s0.50257 0.40173 0.36587 0.87789z"/><path d="m142.02 122.79-0.19701 0.1553s-1.0775-0.55702-0.66474-1.6916c0.0965 1.1153 0.86175 1.5363 0.86175 1.5363z"/></g><path d="m141.16 121.25 1.5868-1.2013c-0.0925 1.1577 0.95287 1.639 0.95287 1.639l-1.6136 1.1885s-1.0172-0.46589-0.92607-1.6261z"/><path d="m142.71 120.05c0.54278-0.15786 1.0333 0.38119 1.698 0.87532-0.21577 0.74954-0.40608 0.62119-0.74247 0.85991-0.39402-0.22589-1.0561-0.7829-0.95556-1.7352z"/></g><path d="m228.88 125.31 21.888-72.116c1.1834-0.2092 1.749 0.43252 1.749 0.43252l-21.825 71.954c-1e-3 0-0.87514-0.64172-1.8119-0.2708z" fill="url(#linearGradient24)"/><path d="m154.69 40.917c-19.175-12.443-40.659-22.051-84.768-4.8104 0.11258-0.36193 0.21175-0.55445 0.21175-0.55445 44.305-17.541 65.519-7.4676 84.698 4.9807z" fill="#f89c3e" fill-rule="evenodd"/><path d="m111.32 26.193c-11.23 0.16901-24.564 2.824-41.168 9.3958-0.35115 0.07897-0.31875 0.36807-0.39148 0.43969v0.0052l-21.782 72.211h-0.0027c-0.10722 0.36963 0.17922 0.72475 0.3856 0.88005 0.01702 0.0107 0.0307 0.0119 0.04712 0.0209l0.05235 0.0419 1.4266 1.0732c0.05495 0.0231 0.12068 0.0749 0.16491 0.0916 0.33371 0.14247 0.34889 0.10959 0.48425 0.0916v-3e-3c0.1769-0.0308 0.64392-0.21988 0.64392-0.21988 19.959-7.5865 34.907-10.226 47.62-8.7297 1.4939 0.17551 2.9531 0.4037 4.3818 0.67533 0.11223 0.0226 0.22562 0.0397 0.33766 0.0628 0.40357 0.079 0.80019 0.17032 1.1988 0.25652 1.6522 0.36831 3.2645 0.7864 4.8189 1.2355 7.7481 2.3149 14.205 6.3598 20.721 10.316 0.059 0.0385 0.0874 0.0425 0.15443 0.0733 0.0312 0.0161 0.0741 0.019 0.12303 0.0366 0.11732 0.0534 0.43473 0.18592 0.74339 0.0995l1.3559-0.57848c3e-3 -6.8e-4 5e-3 7.3e-4 8e-3 0 3e-3 -2e-3 8e-3 -6e-3 0.0104-8e-3l0.0183-8e-3c-3e-3 5.8e-4 -5e-3 -5.5e-4 -8e-3 0 0.18642-0.13532 0.54029 0.039 0.63481-0.30907 7.9e-4 2e-3 2e-3 3e-3 3e-3 5e-3l21.779-72.026 3e-3 0.0027 0.0134-0.04449c0.0777-0.34268-0.0802-0.80056-0.34958-0.98538-11.988-7.78-24.702-14.386-43.427-14.104z" fill="url(#linearGradient25)" fill-rule="evenodd"/><g fill="#922204"><g fill-rule="evenodd"><path d="m132.53 113.9c-20.636-13.715-46.451-22.252-84.015-4.3749l1.6718 1.1089c9.6067-3.76 18.176-5.9388 26.895-7.5803 7.2049-1.3564 14.252-1.5884 20.471-0.86947 8.4262 0.97422 17.389 3.9396 22.053 6.3099 5.7112 2.9022 9.2926 4.8639 11.065 6.0692z"/><path d="m132.88 112.93 21.805-72.097c0.23587 0.15402 0.35113 0.3029 0.47577 0.43638l-21.814 72.158c-0.12464-0.30289-0.46638-0.49798-0.46638-0.49798z"/><path d="m50.211 110.56c6.9851-2.744 13.454-4.7809 19.457-6.1785 1.4554-0.33755 2.7487-0.64301 4.2846-0.92666 1.4139-0.26952 2.8104-0.53263 4.176-0.72515 2.1403-0.31316 4.2162-0.57113 6.2372-0.72001 1.7288-0.13091 3.4108-0.22718 5.0579-0.24129 1.5921-0.018 3.1481 2e-3 4.6679 0.086 1.3536 0.0744 2.6777 0.16813 3.9817 0.31572 1.1016 0.12322 2.1792 0.25284 3.2446 0.42868 2.2502 0.36963 4.424 0.82398 6.5254 1.3951 8.4861 2.2987 16.327 6.1263 23.257 10.551-0.0456 0.0205-0.51573 0.0445-0.5881 7e-3 -0.067-0.0308-0.0978-0.0334-0.1568-0.0719-9.3693-5.6883-19.435-10.635-31.856-12.094-12.713-1.4965-27.528 0.59938-47.487 8.1859 0 0-0.46505 0.18866-0.64195 0.21947-0.15948 0.0244-0.21584-0.0778-0.24532-0.21775z"/></g><path d="m132.19 113.7s0.25251 0.46499 0.58755 0.39183l-1.3942 0.59443c-0.37123 0.10395-0.83703-0.13596-0.83703-0.13596z"/></g><path d="m50.229 110.57s0.08443 0.13476 0.14072 0.22203c-0.13536 0.018-0.15144 0.0513-0.48515-0.0911-0.04423-0.0167-0.11124-0.0693-0.16618-0.0924l-1.4246-1.073-0.12866-0.10139c0.19433-0.0129 0.34309 0.077 0.44092 0.059z" fill="#ab4533"/><path d="m132.9 112.93c0.15278 0.0975 0.33505 0.1553 0.46236 0.45819-0.0844 0.38376-0.42484 0.57627-0.61514 0.71745-0.33773 0.0911-0.67144-0.15786-0.67144-0.15786 0.21309-0.163 0.60443-0.39402 0.82422-1.0178z" fill="#922204"/></g><g transform="matrix(.19814 0 0 .19814 -4.4564 -.35754)" fill-rule="evenodd"><path d="m154.83 40.366 0.0268 0.0154c0.26937 0.18482 0.38195 0.54675 0.30422 0.88943l-0.0134 0.04621c-0.12598-0.13476-0.20639-0.26824-0.45299-0.44664z" fill="#922204" stroke-width="1.3115"/><path d="m48.195 109.47c-0.20639-0.1553-0.41412-0.76237-0.3069-1.132l0.28948-0.0963c-0.10722 0.5352 0.23855 1.1448 0.53876 1.3104 0.0013 0-0.21041 0.11422-0.52133-0.0821z" fill="#d75329" stroke-width="1.3115"/><rect transform="matrix(1.3402,0,0,1.2835,22.492,26.082)" x="35.25" y="7.372" width=".325" height=".024" clip-path="url(#XMLID_56_-9-6)" fill="#faaa4f"/><rect transform="matrix(1.3402,0,0,1.2835,22.492,26.082)" x="35.25" y="7.396" width=".325" height=".027" clip-path="url(#XMLID_56_-9-6)" fill="#f6a34c"/><rect transform="matrix(1.3402,0,0,1.2835,22.492,26.082)" x="35.25" y="7.423" width=".325" height=".024" clip-path="url(#XMLID_56_-9-6)" fill="#f39d48"/><rect transform="matrix(1.3402,0,0,1.2835,22.492,26.082)" x="35.25" y="7.448" width=".325" height=".027" clip-path="url(#XMLID_56_-9-6)" fill="#f09745"/><rect transform="matrix(1.3402,0,0,1.2835,22.492,26.082)" x="35.25" y="7.475" width=".325" height=".025" clip-path="url(#XMLID_56_-9-6)" fill="#ed9142"/><rect transform="matrix(1.3402,0,0,1.2835,22.492,26.082)" x="35.25" y="7.5" width=".325" height=".024" clip-path="url(#XMLID_56_-9-6)" fill="#eb8c3f"/><rect transform="matrix(1.3402,0,0,1.2835,22.492,26.082)" x="35.25" y="7.525" width=".325" height=".025" clip-path="url(#XMLID_56_-9-6)" fill="#e8863c"/><rect transform="matrix(1.3402,0,0,1.2835,22.492,26.082)" x="35.25" y="7.55" width=".325" height=".024" clip-path="url(#XMLID_56_-9-6)" fill="#e68139"/><rect transform="matrix(1.3402,0,0,1.2835,22.492,26.082)" x="35.25" y="7.575" width=".325" height=".025" clip-path="url(#XMLID_56_-9-6)" fill="#e57b37"/><rect transform="matrix(1.3402,0,0,1.2835,22.492,26.082)" x="35.25" y="7.6" width=".325" height=".025" clip-path="url(#XMLID_56_-9-6)" fill="#e27634"/><rect transform="matrix(1.3402,0,0,1.2835,22.492,26.082)" x="35.25" y="7.625" width=".325" height=".026" clip-path="url(#XMLID_56_-9-6)" fill="#e07132"/><rect transform="matrix(1.3402,0,0,1.2835,22.492,26.082)" x="35.25" y="7.652" width=".325" height=".025" clip-path="url(#XMLID_56_-9-6)" fill="#df6b30"/><rect transform="matrix(1.3402,0,0,1.2835,22.492,26.082)" x="35.25" y="7.677" width=".325" height=".024" clip-path="url(#XMLID_56_-9-6)" fill="#dc662e"/><rect transform="matrix(1.3402,0,0,1.2835,22.492,26.082)" x="35.25" y="7.702" width=".325" height=".027" clip-path="url(#XMLID_56_-9-6)" fill="#db602c"/><rect transform="matrix(1.3402,0,0,1.2835,22.492,26.082)" x="35.25" y="7.729" width=".325" height=".024" clip-path="url(#XMLID_56_-9-6)" fill="#d95a2a"/><rect transform="matrix(1.3402,0,0,1.2835,22.492,26.082)" x="35.25" y="7.753" width=".325" height=".027" clip-path="url(#XMLID_56_-9-6)" fill="#d75329"/></g><g transform="matrix(.19814 0 0 .19814 -4.4564 -.35754)" stroke-width="1.3115"><path d="m132.12 113.99c-11.812-7.3953-22.87-13.517-40.38-14-12.804 0.24257-22.62 1.8045-43.038 9.5707-0.30154-0.16428-0.6835-0.57371-0.57762-1.1115 17.678-7.2092 31.713-10.319 43.361-10.21 17.637 0.16813 29.863 7.2348 41.424 14.683-0.19567 0.652-0.57628 0.90227-0.78937 1.0678z" fill="#922204"/><path d="m69.74 35.989 0.20237 0.06161-21.771 72.371c-0.04959-0.0205-0.28144-0.0796-0.28144-0.0796z" fill="#d75329" fill-rule="evenodd"/><path d="m139.79 129.9c-0.22906 0.0148-0.47138 0.12007-0.77742 0.2984-9e-3 5e-3 -0.0168 8e-3 -0.0262 0.0131-0.0194 7e-3 -0.0484 0.0143-0.0864 0.0419-0.35799 0.23875-1.4553 1.0096-1.6464 1.4763l-0.0262 0.0183-0.0131 0.0419c-9.6e-4 4e-3 -7e-3 9e-3 -8e-3 0.0131l5e-3 -3e-3 -21.479 71.387c-0.32176 0.88054 0.29622 1.4394 0.59418 1.6491 19.182 12.369 46.857 23.225 90.274 5.4522 0.12866-0.0642 0.51587-0.29153 0.7303-0.67271l21.016-70.138c-1e-3 -4e-3 -8e-3 -9e-3 -0.0107-0.0131 0.16104-0.78957-0.35726-1.2633-0.36123-1.2669l-0.0107-5e-3 -1.7407-1.3376c-0.15144-0.1399-0.49499-0.31988-1.2093-0.21464-0.0371 0.0121-0.0728 0.022-0.1099 0.034l-0.80565 0.31942c-9.2512 3.662-16.086 4.2719-23.522 5.7696-3e-3 5.3e-4 -5e-3 2e-3 -8e-3 3e-3 -28.214 4.5405-44.726-2.8421-59.944-12.65-7.9e-4 -2e-3 8e-4 -3e-3 0-5e-3 -4e-3 -2e-3 -7e-3 -9.2e-4 -0.0105-3e-3 -0.32741-0.14932-0.57391-0.22558-0.82453-0.2094z" fill="#c19236" fill-rule="evenodd"/></g><g transform="matrix(.26555 0 0 .26555 -3.6981 4.0733)"><path transform="matrix(1 0 0 .95766 13.927 .77576)" d="m88.064 83.286c14.313 9.637 30.374 17.361 63.405 3.7077l-15.915 56.389c-33.037 13.664-49.676 5.7961-63.974-3.8999z" clip-path="url(#XMLID_70_-70-7)" fill="url(#linearGradient26)"/><g fill="#a87c3c" fill-rule="evenodd" stroke-width=".9786"><path d="m151.92 139.81c-0.16 0.28442-0.449 0.45297-0.545 0.50085-0.021 0.0115-0.035 0.0115-0.035 0.0115s-0.275 0.0335-0.525-0.15706c0.645-0.3371 0.836-1.0142 0.836-1.0142s0.372 0.30358 0.269 0.65888z"/><path d="m151.92 139.81c0.039-0.30646-0.3977-0.62086-0.3977-0.62086l15.643-52.331s0.37975 0.30602 0.45175 0.47074z"/><path d="m167.61 87.349s-0.051-0.1494-0.332-0.37445c0.129-0.50852 0.039-0.61769 0.039-0.61769l0.025 0.01532c1e-3 9.58e-4 0.413 0.36391 0.268 0.97682z"/></g><path d="m166.04 86.088s-0.434-0.50469-1.316-0.34763c0.047-0.19058 0.121-0.42233 0.402-0.5315 0.533-0.07853 0.789 0.0565 0.902 0.16089 0.064 0.06321 0.082 0.10822 0.082 0.10822 0.07 0.29975-0.07 0.61003-0.07 0.61003z" fill="url(#linearGradient27)" fill-rule="evenodd" stroke-width=".9786"/><g fill="#a87c3c"><path d="m166.03 85.37 1.307 1.0027c0.076 0.33997-0.064 0.67707-0.064 0.67707l-1.301-0.99884c-1e-3 0 0.128-0.38211 0.058-0.6809z" fill-rule="evenodd" stroke-width=".9786"/><polygon transform="matrix(1 0 0 .95766 13.927 .77576)" points="153.37 90.025 137.72 144.62 137.66 144.77 136.29 143.58 152.04 88.963" fill-rule="evenodd"/><path d="m149.44 139.22s-0.53104-0.44913-0.41804-1.2459c0.848-0.2059 1.297 0.21641 1.297 0.21641s-0.156 0.72687-0.879 1.0295z" stroke-width=".9786"/></g><path d="m164.78 85.792c-33.176 10.823-48.441 4.3545-62.754-4.8707 0.034-0.12354 0.122-0.32561 0.025-0.55353 14.313 9.2252 30.143 15.525 63.076 4.841-0.249 0.16472-0.281 0.38881-0.347 0.58322z" fill="url(#linearGradient18448-9)" stroke-width=".9786"/><polygon transform="matrix(1 0 0 .95766 13.927 .77576)" points="70.757 139.26 69.513 140.24 69.516 140.11 85.601 84.389 86.778 83.533" fill="#c19236" fill-rule="evenodd"/><path d="m86.047 134.39c-0.467-0.26528-1.011-0.46734-1.457-0.29592l16.063-53.304c0.25-0.10056 0.844-0.25857 1.453 0.1494z" fill="#c19236" stroke-width=".9786"/><g stroke-width=".9786"><path d="m148.97 137.99 15.758-52.271c0.029-0.0077 0.068-0.04501 0.094-0.04884 0.838-0.08236 1.227 0.3438 1.227 0.3438l-15.715 52.189c-1e-3 9.6e-4 -0.665-0.49319-1.364-0.2126z" fill="url(#linearGradient28)"/><g fill="#a87c3c"><path d="m151.37 140.31c-32.396 13.262-53.176 5.1063-67.489-4.1227l0.15-0.11971c14.313 9.2252 36.339 16.909 66.778 4.0404 0.252 0.19057 0.561 0.20206 0.561 0.20206z" fill-rule="evenodd"/><path d="m150.32 138.2 1.334 1.0735s-0.18 0.62057-0.902 0.92415l-1.355-1.0774c0.722-0.30263 0.923-0.92032 0.923-0.92032z" fill-rule="evenodd"/><path d="m149.12 137.87c-0.113 0.79678 0.498 1.3733 0.498 1.3733-33.037 13.086-49.957 5.2413-64.257-4.0404 0.252-0.17621 0.375-0.32944 0.536-0.88297 0.021 0.0115 0.221-0.0191 0.241-8e-3 14.761 8.7052 33.654 15.585 62.982 3.5577z"/><path d="m84.042 136.12 1.4735-1.1c13.117 7.8337 31.188 16.406 63.801 3.8744l1.5091 1.2699c-30.313 12.858-52.471 5.1848-66.784-4.0442z" fill-rule="evenodd"/></g><g fill="#c19236"><path d="m84.154 136.16-0.15 0.10056s-0.87-0.45968-0.561-1.3053c0.071 0.83413 0.711 1.2047 0.711 1.2047z" fill-rule="evenodd"/><path d="m83.443 134.96 1.242-0.97299c-0.068 0.87148 0.813 1.1932 0.813 1.1932l-1.364 0.99885c1e-3 9.5e-4 -0.76-0.35051-0.691-1.2191z"/><path d="m84.593 134.02c0.445-0.17238 0.862 0.0297 1.331 0.29209-0.163 0.55736-0.261 0.75176-0.513 0.92797-0.294-0.16855-0.893-0.51331-0.818-1.2201z"/></g></g><path transform="matrix(1 0 0 .95766 13.927 .77576)" d="m88.226 83.334c14.313 9.637 30.212 17.313 63.243 3.66l-16.281 56.234c-33.037 13.664-48.903 5.926-63.201-3.77z" clip-path="url(#XMLID_70_-70-7)" fill="none"/><path d="m100.86 80.436-0.17 0.38115-1.178 0.81593c0.076-0.33997 0.984-0.96916 1.264-1.1559 0.037-0.02681 0.084-0.04118 0.084-0.04118z" fill="#c19236" fill-rule="evenodd" stroke-width=".9786"/><path d="m102.06 80.919c-0.657-0.36679-1.193-0.14556-1.443-0.04118 0.039-0.11588 0.174-0.40796 0.174-0.40796 0.532-0.32561 0.774-0.32561 1.271-0.09768 0.096 0.22505 0.033 0.40414-2e-3 0.54683z" fill="#c19236" stroke-width=".9786"/></g><path d="m13.097 21.244c-0.05285 0.0038-0.1147-3e-3 -0.16735 9.9e-4 -0.13772-0.0018-0.26264 0.0077-0.40367 0.0098-2.0446 0.03064-4.4566 0.5307-7.3829 1.6187-0.26198 0.09254-0.52216 0.18618-0.7733 0.2837-0.017022 7e-3 -0.070679 0.02493-0.089726 0.0835h-5.349e-4l-5.35e-4 0.0021-4.243 14.265c-0.020632 0.07054 0.013701 0.145 0.065349 0.19138h5.3498e-4l0.005708 0.0062 0.28421 0.20745c2.5758e-4 1.98e-4 7.9256e-4 1.98e-4 0.00107 5.94e-4l0.003107 0.0027c2.5758e-4 4e-5 7.9256e-4 -3.6e-5 0.00107 0 0.071031 0.04887 0.12774 0.04829 0.15715 0.04564 5.3498e-4 1.98e-4 0.007781 0.0047 0.007781 0.0047 0.005338-0.0018 0.010224-0.0037 0.01556-0.0057 2.3777e-4 -4.7e-5 0.004143 0 0.004143 0l-0.001585-9.9e-4c3.1938-1.1843 5.7425-1.7254 7.9036-1.7134 1.9881 0.01171 3.6337 0.46474 5.1403 1.1198 0.18281 0.08071 0.36604 0.1609 0.54457 0.24791 0.0016 7.93e-4 0.0031 0.0014 0.0047 0.0021 0.0033 0.0016 0.0065 0.0036 0.0099 0.0052 0.24409 0.11925 0.48469 0.24401 0.72248 0.37341 0.47712 0.25966 0.93625 0.53292 1.3995 0.82226-1.99e-4 1.71e-4 -7.93e-4 1.99e-4 -9.91e-4 5.95e-4 0 0 0.0065 0.0027 0.0073 0.0031 0.0028 0.0018 0.0055 0.0034 0.0083 0.0052l0.0016-5.94e-4c0.02132 0.01203 0.08257 0.04308 0.153 0.01296l0.25622-0.14522h5.94e-4l0.0057-0.0036c-1.99e-4 9.6e-5 -7.93e-4 -9.3e-5 -9.91e-4 0 0.03659-0.02692 0.09376-0.064 0.11203-0.13277 1.98e-4 5.94e-4 7.93e-4 9.91e-4 9.91e-4 0.0016l4.3838-14.387c0.0154-0.06841-0.0065-0.13998-0.06068-0.17686l-0.0073-0.0041-9.91e-4 0.0031c-2.2549-1.463-4.6447-2.7063-8.0666-2.7489zm-8.7786 1.9973-0.00364 0.0088-0.028524-0.0078c0.010622-1.98e-4 0.021536-7.92e-4 0.032154-9.9e-4z" fill="#a0b4ff" fill-rule="evenodd" stroke-width=".25986"/><g fill="#141fb8" stroke-width=".25986"><path d="m0.36134 37.936c0.028679 0.0041 0.081523-0.01984 0.081523-0.01984 0.06081 0.03967 0.10914 0.06764 0.10914 0.06764s-0.095066 0.02161-0.19066-0.04781z" fill-rule="evenodd"/><path d="m16.633 38.645s0.0499 0.07261 0.11682 0.05481l-0.27158 0.15577c-0.08391 0.03586-0.17022-0.02085-0.17022-0.02085z"/><path d="m0.44632 37.917s-0.051251 0.02491-0.080195 0.02085l-0.28812-0.21057-0.0066387-0.0058c0.041691 0.01399 0.089755 0.0069 0.10914 0.0031z"/><path d="m16.763 38.464c0.03001 0.02085 0.06161 0.04374 0.09135 0.10121-0.01673 0.07553-0.08259 0.11418-0.11976 0.14216-0.05364 0.01195-0.12879-0.03688-0.12879-0.03688 0.04196-0.03382 0.11365-0.08239 0.1572-0.2065z"/></g><g fill-rule="evenodd"><rect x="4.2713" y="23.251" width=".086037" height=".0045775" fill="#2e499e" stroke-width=".25986"/><polygon transform="matrix(.26555 0 0 .2543 .00019767 4.2793)" points="0.207 130.8 0.023 130.75 16.086 74.56 16.267 74.611" fill="#141fb8"/><path d="m0.078003 37.729c-0.055234-0.04577-0.093473-0.1241-0.071963-0.19759l0.051251-0.01883c-0.021509 0.1063 0.060014 0.18285 0.1195 0.21565 5.3109e-4 -2.55e-4 -0.043019 0.02061-0.098784 7.96e-4z" fill="#141fb8" stroke-width=".25986"/></g><path d="m16.613 38.679c-3.8058-2.4528-7.75-4.3263-16.43-0.94856-0.059748-0.033822-0.15057-0.1152-0.12932-0.22252 8.814-3.5931 12.909-1.494 16.715 0.9595-0.03877 0.1302-0.11312 0.17877-0.15508 0.21158z" fill="url(#linearGradient7243)" stroke-width=".25986"/><g transform="matrix(.26555 0 0 .26555 -3.6981 4.0733)" fill="#141fb8" fill-rule="evenodd" stroke-width=".9786"><path d="m15.542 127.41c31.464-11.78 45.567-5.3648 59.892 3.4677-8.58-5.2892-17.41-9.524-29.594-9.5958-8.154-0.045-17.791 1.9374-29.851 6.4154 0 9.6e-4 -0.249-0.0891-0.447-0.2873z"/><path d="m76.693 130.32-1.3488 0.57939c-14.325-8.8325-28.801-14.854-59.715-3.3661l-1.2086-0.91778c32.689-12.722 47.942-5.5351 62.273 3.7044z"/><path d="m76.926 129.4 16.47-54.213c0.177 0.11779 0.44359 0.39388 0.53559 0.49443l-16.542 54.239c-0.093-0.22793-0.57675-0.42618-0.57675-0.42618z"/></g><g stroke-width=".25986"><path d="m21.141 24.205c-3.8021-2.4678-8.0849-4.3643-16.831-0.94569 0.021775-0.07146 0.039567-0.10528 0.039567-0.10528 8.7846-3.4784 13.027-1.6316 16.829 0.83642z" fill="url(#linearGradient18472)" fill-rule="evenodd"/><path d="m16.767 38.507c-3.8056-2.4528-7.9425-4.4702-16.725-0.9923l4.2857-14.348c8.7846-3.4784 13.02-1.5473 16.821 0.92044z" fill="url(#linearGradient3574)"/><path d="m16.767 38.507c-3.8056-2.4528-7.9425-4.4702-16.725-0.9923l4.3005-14.385c8.7846-3.4784 13.005-1.5101 16.806 0.95772z" fill="none"/><path d="m21.177 23.989 0.0072 0.0041c0.05417 0.03687 0.07621 0.10833 0.06081 0.17674l-0.0032 0.0089c-0.02416-0.02645-0.04939-0.05162-0.09613-0.0829z" fill="#313c7e" fill-rule="evenodd"/><path d="m4.3193 23.256-0.048064-0.01348c0.018323-0.06052 0.061607-0.08138 0.078868-0.0885l0.00717-2e-3c2.656e-4 0-0.015933 0.03179-0.037973 0.10401z" fill="url(#linearGradient3046-4)" fill-rule="evenodd"/></g><path d="m16.616 38.687c-3.8119-2.3875-7.9061-4.3141-16.438-0.95135-0.056296-0.015668-0.15764-0.10934-0.1364-0.2214 8.2179-3.4492 12.921-1.6194 16.726 0.94405-0.03877 0.13596-0.10958 0.19446-0.15154 0.22871z" fill="#141fb8" stroke-width=".26555"/></g></g></svg>
