<?xml version="1.0" encoding="UTF-8" standalone="no"?>
<svg
   inkscape:export-ydpi="96"
   inkscape:export-xdpi="96"
   inkscape:export-filename="/media/klapeto/Αρχεία/WindowsXP Theme/Vectors/RASTER/battery.png"
   sodipodi:docname="battery-0.svg"
   inkscape:version="1.1.1 (3bf5ae0d25, 2021-09-20)"
   id="svg8"
   version="1.1"
   viewBox="0 0 256 256"
   height="256"
   width="256"
   xmlns:inkscape="http://www.inkscape.org/namespaces/inkscape"
   xmlns:sodipodi="http://sodipodi.sourceforge.net/DTD/sodipodi-0.dtd"
   xmlns:xlink="http://www.w3.org/1999/xlink"
   xmlns="http://www.w3.org/2000/svg"
   xmlns:svg="http://www.w3.org/2000/svg"
   xmlns:rdf="http://www.w3.org/1999/02/22-rdf-syntax-ns#"
   xmlns:cc="http://creativecommons.org/ns#"
   xmlns:dc="http://purl.org/dc/elements/1.1/">
  <defs
     id="defs2">
    <linearGradient
       inkscape:collect="always"
       id="linearGradient17468">
      <stop
         style="stop-color:#b9b9f3;stop-opacity:1"
         offset="0"
         id="stop17464" />
      <stop
         style="stop-color:#6b6bce;stop-opacity:1"
         offset="1"
         id="stop17466" />
    </linearGradient>
    <linearGradient
       inkscape:collect="always"
       id="linearGradient144595">
      <stop
         style="stop-color:#fbfbfb;stop-opacity:1"
         offset="0"
         id="stop144591" />
      <stop
         style="stop-color:#dcdcdc;stop-opacity:1"
         offset="1"
         id="stop144593" />
    </linearGradient>
    <linearGradient
       inkscape:collect="always"
       id="linearGradient117107">
      <stop
         style="stop-color:#ffde9a;stop-opacity:1"
         offset="0"
         id="stop117103" />
      <stop
         style="stop-color:#ffffff;stop-opacity:1"
         offset="0.25"
         id="stop133283" />
      <stop
         style="stop-color:#fc9c40;stop-opacity:1"
         offset="0.63636345"
         id="stop123827" />
      <stop
         style="stop-color:#e2b5a6;stop-opacity:1"
         offset="1"
         id="stop117105" />
    </linearGradient>
    <linearGradient
       inkscape:collect="always"
       id="linearGradient65530">
      <stop
         style="stop-color:#c0c0f0;stop-opacity:1"
         offset="0"
         id="stop65526" />
      <stop
         style="stop-color:#f9fcff;stop-opacity:1"
         offset="0.18750001"
         id="stop93562" />
      <stop
         style="stop-color:#9ac5fb;stop-opacity:1"
         offset="0.6875"
         id="stop78777" />
      <stop
         style="stop-color:#bfbfff;stop-opacity:1"
         offset="1"
         id="stop65528" />
    </linearGradient>
    <linearGradient
       inkscape:collect="always"
       xlink:href="#linearGradient117107"
       id="linearGradient117109"
       x1="-100.43229"
       y1="3.5"
       x2="-89.432289"
       y2="3.5"
       gradientUnits="userSpaceOnUse"
       gradientTransform="translate(4.000464,2.0322261)" />
    <linearGradient
       inkscape:collect="always"
       xlink:href="#linearGradient144595"
       id="linearGradient144597"
       x1="-97.932289"
       y1="1.5"
       x2="-93.97493"
       y2="1.5"
       gradientUnits="userSpaceOnUse"
       gradientTransform="translate(3.540133,2.4992293)" />
    <linearGradient
       inkscape:collect="always"
       xlink:href="#linearGradient17468"
       id="linearGradient17470"
       x1="-94.932289"
       y1="6"
       x2="-83.572739"
       y2="5.9997034"
       gradientUnits="userSpaceOnUse" />
    <filter
       inkscape:collect="always"
       style="color-interpolation-filters:sRGB"
       id="filter1348"
       x="-0.064151987"
       y="-0.038345493"
       width="1.128304"
       height="1.076691">
      <feGaussianBlur
         inkscape:collect="always"
         stdDeviation="3.8665041"
         id="feGaussianBlur1350" />
    </filter>
    <linearGradient
       inkscape:collect="always"
       xlink:href="#linearGradient65530"
       id="linearGradient3194"
       x1="-98.930374"
       y1="19.860739"
       x2="-82.431831"
       y2="19.860739"
       gradientUnits="userSpaceOnUse"
       gradientTransform="matrix(7.6131489,0,0,7.6131489,820.28107,-14.899513)" />
  </defs>
  <sodipodi:namedview
     inkscape:guide-bbox="true"
     inkscape:snap-object-midpoints="true"
     showguides="false"
     inkscape:snap-global="true"
     inkscape:bbox-paths="false"
     fit-margin-bottom="0"
     fit-margin-right="0"
     fit-margin-left="0"
     fit-margin-top="0"
     inkscape:bbox-nodes="true"
     inkscape:snap-bbox="true"
     inkscape:window-maximized="1"
     inkscape:window-y="0"
     inkscape:window-x="3840"
     inkscape:window-height="2045"
     inkscape:window-width="3840"
     units="px"
     showgrid="false"
     inkscape:document-rotation="0"
     inkscape:current-layer="g35610"
     inkscape:document-units="px"
     inkscape:cy="98.287838"
     inkscape:cx="132.58251"
     inkscape:zoom="2.8284273"
     inkscape:pageshadow="2"
     inkscape:pageopacity="0.0"
     borderopacity="1.0"
     bordercolor="#666666"
     pagecolor="#ffffff"
     id="base"
     inkscape:snap-others="true"
     inkscape:snap-grids="true"
     inkscape:object-paths="true"
     inkscape:snap-intersection-paths="true"
     inkscape:snap-smooth-nodes="true"
     inkscape:pagecheckerboard="0"
     inkscape:snap-nodes="true">
    <inkscape:grid
       originy="0"
       originx="0"
       id="grid1504"
       type="xygrid" />
    <inkscape:grid
       type="xygrid"
       id="grid879"
       spacingx="0.5"
       spacingy="0.5" />
  </sodipodi:namedview>
  <metadata
     id="metadata5">
    <rdf:RDF>
      <cc:Work
         rdf:about="">
        <dc:format>image/svg+xml</dc:format>
        <dc:type
           rdf:resource="http://purl.org/dc/dcmitype/StillImage" />
      </cc:Work>
    </rdf:RDF>
  </metadata>
  <g
     transform="translate(-12.567709)"
     id="layer1"
     inkscape:groupmode="layer"
     inkscape:label="Layer 1">
    <path
       id="path1188"
       style="color:#000000;fill:#212121;fill-opacity:1;stroke-linecap:round;stroke-linejoin:round;-inkscape-stroke:none;filter:url(#filter1348)"
       d="m 164.33155,4.0000157 -35.79101,0.074219 a 7.6139114,7.6139114 0 0 0 -3.94532,1.1113282 l -15.85351,9.6582031 -2.73242,1.650391 C 97.53696,18.642081 90.188238,21.38835 84.456553,25.125016 78.386375,29.082357 73.24171,34.788519 73.241709,42.347672 V 66.109391 86.8965 99.447282 215.5469 c 0,6.5029 3.706543,12.13606 8.394531,15.91796 4.687988,3.78191 10.519078,6.39248 17.16211,8.47657 13.28606,4.16817 29.9945,6.05859 46.76953,6.05859 16.77503,0 33.48151,-1.89042 46.76758,-6.05859 6.64303,-2.08409 12.47412,-4.69466 17.16211,-8.47657 4.68799,-3.7819 8.39453,-9.41507 8.39453,-15.91796 V 99.447282 69.783219 66.109391 42.347672 c 0,-7.73561 -5.35127,-13.498686 -11.64063,-17.488281 -5.91615,-3.752856 -13.51184,-6.500072 -22.24804,-8.625 L 182.92335,15.533219 168.77491,5.4199376 a 7.6139114,7.6139114 0 0 0 -4.44336,-1.4199219 z" />
    <g
       id="g35610"
       transform="matrix(7.6131489,0,0,7.6131489,832.84878,-14.899513)">
      <path
         id="path186741"
         style="opacity:1;fill:none;fill-opacity:1;stroke:#a4a4a4;stroke-width:2;stroke-linecap:round;stroke-linejoin:round;stroke-miterlimit:4;stroke-dasharray:none;stroke-opacity:1"
         d="m -88.465491,2.9570762 -4.70118,0.00977 -2.08398,1.2695313 -0.45899,0.2773437 c -2.24608,0.53992 -3.72265,1.448991 -3.72265,2.4804644 v 3.1210944 2.730468 1.648438 15.25 c 0,4 17,4 17,0 v -15.25 -3.896484 -0.482422 -3.1210944 c 0,-1.0548894 -1.54639,-1.9807533 -3.87891,-2.515625 l -0.27734,-0.1796875 z" />
      <path
         id="path2000"
         style="fill:url(#linearGradient3194);fill-opacity:1;stroke:none;stroke-width:7.61315px;stroke-linecap:butt;stroke-linejoin:miter;stroke-opacity:1"
         d="M 128.00391 15.509766 C 92.386617 15.509769 63.489883 25.664288 63.292969 38.21875 L 63.291016 38.21875 L 63.291016 38.347656 L 63.291016 211.54688 C 63.291016 241.99947 192.71484 241.99947 192.71484 211.54688 L 192.71484 38.347656 L 192.71484 38.21875 L 192.71289 38.21875 C 192.51595 25.664295 163.62118 15.509769 128.00391 15.509766 z "
         transform="matrix(0.13135169,0,0,0.13135169,-107.74531,1.9570763)" />
      <path
         style="opacity:1;fill:url(#linearGradient17470);fill-opacity:1;stroke:none;stroke-width:1px;stroke-linecap:butt;stroke-linejoin:miter;stroke-opacity:1"
         d="m -95.498003,6.6439178 c 3.167067,2.9012202 11.368247,0.7271734 12.793195,-0.4068142 -0.887747,-1.1527623 -2.940965,-1.6114423 -3.606393,-1.758543 z"
         id="path16668"
         sodipodi:nodetypes="cccc" />
      <path
         style="fill:url(#linearGradient117109);fill-opacity:1;stroke:none;stroke-width:1px;stroke-linecap:butt;stroke-linejoin:miter;stroke-opacity:1"
         d="m -97.32249,5.4832345 3.14066,-1.8885084 h 6.5 l 3.04532,1.9618507 c -1.5,2.5 -11.18598,2.4266577 -12.68598,-0.073342 z"
         id="path116409"
         sodipodi:nodetypes="ccccc" />
      <path
         style="fill:url(#linearGradient144597);fill-opacity:1;stroke:none;stroke-width:1px;stroke-linecap:butt;stroke-linejoin:miter;stroke-opacity:1"
         d="m -95.2505,4.2373297 c 1.5,1 7.16182,1.0616218 8.66182,0.061622 l -1.87647,-1.3428329 -4.70096,0.010405 z"
         id="path144021"
         sodipodi:nodetypes="ccccc" />
    </g>
  </g>
</svg>
