<?xml version="1.0" encoding="UTF-8" standalone="no"?>
<svg
   width="16"
   height="16"
   viewBox="0 0 16 16"
   version="1.1"
   id="svg8"
   inkscape:version="1.3.2 (1:1.3.2+202311252150+091e20ef0f)"
   sodipodi:docname="checkmark.16.svg"
   inkscape:export-filename="/media/klapeto/Αρχεία/WindowsXP Theme/Vectors/RASTER/checkmark.png"
   inkscape:export-xdpi="96"
   inkscape:export-ydpi="96"
   xml:space="preserve"
   xmlns:inkscape="http://www.inkscape.org/namespaces/inkscape"
   xmlns:sodipodi="http://sodipodi.sourceforge.net/DTD/sodipodi-0.dtd"
   xmlns:xlink="http://www.w3.org/1999/xlink"
   xmlns="http://www.w3.org/2000/svg"
   xmlns:svg="http://www.w3.org/2000/svg"
   xmlns:rdf="http://www.w3.org/1999/02/22-rdf-syntax-ns#"
   xmlns:cc="http://creativecommons.org/ns#"
   xmlns:dc="http://purl.org/dc/elements/1.1/"><defs
     id="defs2"><linearGradient
       id="linearGradient1"
       inkscape:collect="always"><stop
         style="stop-color:#009900;stop-opacity:1"
         offset="0"
         id="stop1" /><stop
         style="stop-color:#006600;stop-opacity:1"
         offset="1"
         id="stop2" /></linearGradient><linearGradient
       inkscape:collect="always"
       xlink:href="#linearGradient1478"
       id="linearGradient1492"
       x1="-0.79375196"
       y1="7.9375"
       x2="-4.233335"
       y2="3.8364582"
       gradientUnits="userSpaceOnUse"
       gradientTransform="matrix(7.665711,0,0,7.665711,54.842832,-22.627876)" /><linearGradient
       inkscape:collect="always"
       id="linearGradient1478"><stop
         style="stop-color:#009900;stop-opacity:1"
         offset="0"
         id="stop1474" /><stop
         id="stop1496"
         offset="0.78260881"
         style="stop-color:#66cc33;stop-opacity:1" /><stop
         style="stop-color:#ccf4cc;stop-opacity:1"
         offset="1"
         id="stop1476" /></linearGradient><linearGradient
       inkscape:collect="always"
       xlink:href="#linearGradient1"
       id="linearGradient2"
       x1="23.637651"
       y1="3.9328227"
       x2="51.415421"
       y2="36.92701"
       gradientUnits="userSpaceOnUse" /></defs><sodipodi:namedview
     showguides="false"
     id="base"
     pagecolor="#ffffff"
     bordercolor="#666666"
     borderopacity="1.0"
     inkscape:pageopacity="0.0"
     inkscape:pageshadow="2"
     inkscape:zoom="12.078102"
     inkscape:cx="0.45536956"
     inkscape:cy="9.6455552"
     inkscape:document-units="px"
     inkscape:current-layer="layer1"
     inkscape:document-rotation="0"
     showgrid="false"
     units="px"
     inkscape:window-width="3840"
     inkscape:window-height="2058"
     inkscape:window-x="0"
     inkscape:window-y="0"
     inkscape:window-maximized="1"
     inkscape:snap-bbox="true"
     inkscape:bbox-nodes="true"
     fit-margin-top="0"
     fit-margin-left="0"
     fit-margin-right="0"
     fit-margin-bottom="0"
     inkscape:bbox-paths="false"
     inkscape:snap-global="true"
     inkscape:pagecheckerboard="0"
     inkscape:showpageshadow="2"
     inkscape:deskcolor="#d1d1d1"><inkscape:grid
       type="xygrid"
       id="grid1504"
       originx="0"
       originy="0"
       spacingy="1"
       spacingx="1"
       units="px"
       visible="false" /><inkscape:grid
       type="xygrid"
       id="grid844"
       spacingx="0.5"
       spacingy="0.5"
       originx="0"
       originy="0"
       units="px"
       visible="false" /></sodipodi:namedview><metadata
     id="metadata5"><rdf:RDF><cc:Work
         rdf:about=""><dc:format>image/svg+xml</dc:format><dc:type
           rdf:resource="http://purl.org/dc/dcmitype/StillImage" /></cc:Work></rdf:RDF></metadata><g
     inkscape:label="Layer 1"
     inkscape:groupmode="layer"
     id="layer1"
     transform="translate(-12.567709)"><g
       id="g3"
       transform="matrix(0.32280694,0,0,0.32280693,8.7858844,0.27511793)"><circle
         r="21.803354"
         cy="22.5"
         cx="35.067707"
         id="circle2"
         style="fill:#ffffff;fill-opacity:1;stroke:none;stroke-width:1.39329;stroke-linecap:round;stroke-linejoin:round;stroke-miterlimit:4;stroke-dasharray:none;stroke-opacity:1" /><path
         id="circle3"
         style="fill:url(#linearGradient1492);fill-opacity:1;stroke:none;stroke-width:1.39329;stroke-linecap:round;stroke-linejoin:round;stroke-miterlimit:4;stroke-dasharray:none;stroke-opacity:1"
         d="M 35.067709,0.69726562 A 21.803354,21.803354 0 0 0 13.264975,22.5 21.803354,21.803354 0 0 0 35.067709,44.302734 21.803354,21.803354 0 0 0 56.645834,25.625 a 21.997872,21.997872 0 0 0 0.0059,-0.06055 21.803354,21.803354 0 0 0 0.21875,-3.064453 21.997872,21.997872 0 0 0 -0.02539,-1.070312 21.803354,21.803354 0 0 0 0,-0.0098 21.997872,21.997872 0 0 0 -0.07813,-1.056641 21.803354,21.803354 0 0 0 -0.002,-0.01953 A 21.803354,21.803354 0 0 0 35.067709,0.69726562 Z M 41.513022,8.75 a 2.2192391,2.2192391 0 0 1 1.105468,0.3105469 2.2192391,2.2192391 0 0 1 0.773438,3.0410151 c -2.354542,3.959913 -4.801612,11.105018 -7.058594,21.183594 a 2.2194611,2.2194611 0 0 1 -3.960937,0.820313 l -0.470704,-0.650391 a 2.2194611,2.2194611 0 0 1 -0.03125,-0.04102 L 31.384115,32.70898 30.737631,31.900387 c -1.512905,-1.844478 -3.4523,-3.806177 -5.816406,-5.865235 A 2.2192391,2.2192391 0 0 1 24.706381,22.904297 2.2192391,2.2192391 0 0 1 27.83724,22.6875 c 2.002844,1.74441 3.740046,3.448835 5.234375,5.126953 1.991243,-7.97965 4.102093,-13.937768 6.50586,-17.9804686 A 2.2192391,2.2192391 0 0 1 41.513022,8.75 Z" /><circle
         r="21.803354"
         cy="22.5"
         cx="35.067707"
         id="path1464"
         style="fill:none;fill-opacity:1;stroke:url(#linearGradient2);stroke-width:3.09783;stroke-linecap:round;stroke-linejoin:round;stroke-miterlimit:4;stroke-dasharray:none;stroke-opacity:1" /></g></g></svg>
