<?xml version="1.0" encoding="UTF-8" standalone="no"?>
<svg
   inkscape:export-ydpi="96"
   inkscape:export-xdpi="96"
   inkscape:export-filename="/media/klapeto/Αρχεία/WindowsXP Theme/Vectors/RASTER/chronometer-start.png"
   sodipodi:docname="chronometer-reset.svg"
   inkscape:version="1.3.2 (1:1.3.2+202311252150+091e20ef0f)"
   id="svg8"
   version="1.1"
   viewBox="0 0 48 48"
   height="48"
   width="48"
   xmlns:inkscape="http://www.inkscape.org/namespaces/inkscape"
   xmlns:sodipodi="http://sodipodi.sourceforge.net/DTD/sodipodi-0.dtd"
   xmlns:xlink="http://www.w3.org/1999/xlink"
   xmlns="http://www.w3.org/2000/svg"
   xmlns:svg="http://www.w3.org/2000/svg"
   xmlns:rdf="http://www.w3.org/1999/02/22-rdf-syntax-ns#"
   xmlns:cc="http://creativecommons.org/ns#"
   xmlns:dc="http://purl.org/dc/elements/1.1/">
  <defs
     id="defs2">
    <linearGradient
       inkscape:collect="always"
       xlink:href="#linearGradient3"
       id="linearGradient25671"
       x1="145.0677"
       y1="20"
       x2="132.5677"
       y2="20"
       gradientUnits="userSpaceOnUse"
       gradientTransform="matrix(0.19888106,0,0,0.19888106,9.0342783,-0.09073235)" />
    <linearGradient
       id="linearGradient3"
       inkscape:collect="always">
      <stop
         id="stop1"
         offset="0"
         style="stop-color:#ccccff;stop-opacity:1" />
      <stop
         style="stop-color:#adadad;stop-opacity:1"
         offset="0.5"
         id="stop2" />
      <stop
         id="stop3"
         offset="1"
         style="stop-color:#fdfdfd;stop-opacity:1" />
    </linearGradient>
    <linearGradient
       inkscape:collect="always"
       xlink:href="#linearGradient25766"
       id="linearGradient25695"
       x1="148.23141"
       y1="15.594893"
       x2="128.46458"
       y2="15.594893"
       gradientUnits="userSpaceOnUse"
       gradientTransform="matrix(0.19888106,0,0,0.19888106,9.0342783,-0.09073235)" />
    <linearGradient
       id="linearGradient25766"
       inkscape:collect="always">
      <stop
         id="stop25762"
         offset="0"
         style="stop-color:#656a6f;stop-opacity:1" />
      <stop
         id="stop25764"
         offset="1"
         style="stop-color:#9fa5ab;stop-opacity:1" />
    </linearGradient>
    <linearGradient
       inkscape:collect="always"
       xlink:href="#linearGradient3"
       id="linearGradient25679"
       x1="200.69783"
       y1="-110.24134"
       x2="183.34142"
       y2="-110.31177"
       gradientUnits="userSpaceOnUse"
       gradientTransform="matrix(0.19888106,0,0,0.19888106,6.6773581,-5.10229)" />
    <linearGradient
       inkscape:collect="always"
       xlink:href="#linearGradient888"
       id="linearGradient25687"
       x1="204.43947"
       y1="-112.92802"
       x2="180.29501"
       y2="-114.01456"
       gradientUnits="userSpaceOnUse"
       gradientTransform="matrix(0.19888106,0,0,0.19888106,6.6773581,-5.10229)" />
    <linearGradient
       id="linearGradient888"
       inkscape:collect="always">
      <stop
         id="stop884"
         offset="0"
         style="stop-color:#4e5256;stop-opacity:1" />
      <stop
         id="stop886"
         offset="1"
         style="stop-color:#9fa5ab;stop-opacity:1" />
    </linearGradient>
    <linearGradient
       gradientTransform="matrix(6.4053817,0,0,6.4053817,323.50291,14.494701)"
       inkscape:collect="always"
       xlink:href="#linearGradient3"
       id="linearGradient1500-3"
       gradientUnits="userSpaceOnUse"
       x1="-48.914181"
       y1="4.4842973"
       x2="-53.541794"
       y2="-0.22511943" />
    <linearGradient
       gradientTransform="matrix(6.4053817,0,0,6.4053817,323.50291,14.494701)"
       inkscape:collect="always"
       xlink:href="#linearGradient894"
       id="linearGradient1502-5"
       gradientUnits="userSpaceOnUse"
       x1="-49.344791"
       y1="4.8947916"
       x2="-53.313541"
       y2="-0.39687502" />
    <linearGradient
       id="linearGradient894"
       inkscape:collect="always">
      <stop
         id="stop890"
         offset="0"
         style="stop-color:#353535;stop-opacity:1" />
      <stop
         id="stop892"
         offset="1"
         style="stop-color:#a5a5a5;stop-opacity:1" />
    </linearGradient>
    <radialGradient
       inkscape:collect="always"
       xlink:href="#linearGradient934-1"
       id="radialGradient936-9"
       cx="-52.313507"
       cy="1.4548606"
       fx="-52.313507"
       fy="1.4548606"
       r="2.9104166"
       gradientUnits="userSpaceOnUse"
       gradientTransform="matrix(4.5169882,4.9543467,-4.8399957,4.4127318,232.29819,277.05276)" />
    <linearGradient
       inkscape:collect="always"
       id="linearGradient934-1">
      <stop
         style="stop-color:#deffff;stop-opacity:1"
         offset="0"
         id="stop930-2" />
      <stop
         id="stop1358-7"
         offset="0.64871162"
         style="stop-color:#b4e2ff;stop-opacity:1" />
      <stop
         style="stop-color:#99ccff;stop-opacity:1"
         offset="1"
         id="stop932-0" />
    </linearGradient>
    <linearGradient
       gradientTransform="matrix(6.4053817,0,0,6.4053817,323.50291,14.494701)"
       inkscape:collect="always"
       xlink:href="#linearGradient888"
       id="linearGradient928-9"
       x1="-49.741669"
       y1="4.3656249"
       x2="-52.916668"
       y2="0.26458332"
       gradientUnits="userSpaceOnUse"
       spreadMethod="reflect" />
    <linearGradient
       gradientTransform="matrix(5.4989176,0,0,5.4989176,318.82256,13.31731)"
       inkscape:collect="always"
       xlink:href="#linearGradient888"
       id="linearGradient928"
       x1="-49.741669"
       y1="4.3656249"
       x2="-52.916668"
       y2="0.26458332"
       gradientUnits="userSpaceOnUse"
       spreadMethod="reflect" />
    <linearGradient
       inkscape:collect="always"
       xlink:href="#linearGradient3"
       id="linearGradient25539"
       x1="162.5677"
       y1="7"
       x2="114.56771"
       y2="7"
       gradientUnits="userSpaceOnUse"
       gradientTransform="matrix(0.19888106,0,0,0.19888106,9.0342783,-0.09073235)" />
    <linearGradient
       inkscape:collect="always"
       xlink:href="#linearGradient25766"
       id="linearGradient25703"
       x1="165.9955"
       y1="4.2869968"
       x2="112.49364"
       y2="4.2869968"
       gradientUnits="userSpaceOnUse"
       gradientTransform="matrix(0.19888106,0,0,0.19888106,9.0342783,-0.09073235)" />
    <clipPath
       clipPathUnits="userSpaceOnUse"
       id="clipPath43">
      <path
         id="path43"
         style="color:#000000;fill:url(#linearGradient43);fill-rule:evenodd;stroke-linecap:round;stroke-linejoin:round;-inkscape-stroke:none"
         d="M 26.5931,0 A 0.49846585,0.49846585 0 0 0 26.095053,0.49804688 V 3.2363281 A 0.49846585,0.49846585 0 0 0 26.5931,3.734375 h 3.050781 V 6.4824219 C 20.035933,7.5991421 12.567709,15.768011 12.567709,25.673828 12.567709,36.341326 21.226384,45 31.893881,45 42.561379,45 51.2181,36.341326 51.2181,25.673828 c 0,-4.665062 -1.654883,-8.946561 -4.410157,-12.287109 l 3.058594,-3.4863284 a 0.49846585,0.49846585 0 0 0 -0.04492,-0.703125 L 46.458334,6.2460938 a 0.49846585,0.49846585 0 0 0 -0.703125,0.046875 l -2.990234,3.40625 C 40.268065,7.9958204 37.352315,6.8658929 34.204428,6.4902344 V 3.734375 h 3.052734 A 0.49846585,0.49846585 0 0 0 37.755209,3.2363281 V 0.49804688 A 0.49846585,0.49846585 0 0 0 37.257162,0 Z" />
    </clipPath>
    <linearGradient
       inkscape:collect="always"
       xlink:href="#linearGradient3"
       id="linearGradient43"
       gradientUnits="userSpaceOnUse"
       gradientTransform="matrix(0.19825097,0,0,0.19825097,4.4474486,0.00737934)"
       x1="145.0677"
       y1="20"
       x2="132.5677"
       y2="20" />
    <linearGradient
       inkscape:collect="always"
       xlink:href="#linearGradient893"
       id="linearGradient895-5"
       x1="105.44596"
       y1="94.201279"
       x2="102.40325"
       y2="89.703362"
       gradientUnits="userSpaceOnUse"
       gradientTransform="matrix(3.6560593,0,0,3.6561015,-337.91696,-305.56362)" />
    <linearGradient
       id="linearGradient893"
       inkscape:collect="always">
      <stop
         id="stop889"
         offset="0"
         style="stop-color:#0066cc;stop-opacity:1" />
      <stop
         style="stop-color:#0066cc;stop-opacity:1"
         offset="0.5"
         id="stop899" />
      <stop
         id="stop891"
         offset="1"
         style="stop-color:#0099ff;stop-opacity:1" />
    </linearGradient>
    <clipPath
       clipPathUnits="userSpaceOnUse"
       id="clipPath83">
      <path
         id="path83"
         style="color:#000000;fill:url(#linearGradient83);fill-rule:evenodd;stroke-linecap:round;stroke-linejoin:round;-inkscape-stroke:none"
         d="M 26.5931,0 A 0.49846585,0.49846585 0 0 0 26.095053,0.49804688 V 3.2363281 A 0.49846585,0.49846585 0 0 0 26.5931,3.734375 h 3.050781 V 6.4824219 C 20.035933,7.5991421 12.567709,15.768011 12.567709,25.673828 12.567709,36.341326 21.226384,45 31.893881,45 42.561379,45 51.2181,36.341326 51.2181,25.673828 c 0,-4.665062 -1.654883,-8.946561 -4.410157,-12.287109 l 3.058594,-3.4863284 a 0.49846585,0.49846585 0 0 0 -0.04492,-0.703125 L 46.458334,6.2460938 a 0.49846585,0.49846585 0 0 0 -0.703125,0.046875 l -2.990234,3.40625 C 40.268065,7.9958204 37.352315,6.8658929 34.204428,6.4902344 V 3.734375 h 3.052734 A 0.49846585,0.49846585 0 0 0 37.755209,3.2363281 V 0.49804688 A 0.49846585,0.49846585 0 0 0 37.257162,0 Z" />
    </clipPath>
    <linearGradient
       inkscape:collect="always"
       xlink:href="#linearGradient3"
       id="linearGradient83"
       gradientUnits="userSpaceOnUse"
       gradientTransform="matrix(0.19825097,0,0,0.19825097,4.4474486,0.00737934)"
       x1="145.0677"
       y1="20"
       x2="132.5677"
       y2="20" />
  </defs>
  <sodipodi:namedview
     inkscape:snap-global="true"
     inkscape:bbox-paths="false"
     fit-margin-bottom="0"
     fit-margin-right="0"
     fit-margin-left="0"
     fit-margin-top="0"
     inkscape:bbox-nodes="true"
     inkscape:snap-bbox="true"
     inkscape:window-maximized="1"
     inkscape:window-y="0"
     inkscape:window-x="0"
     inkscape:window-height="2058"
     inkscape:window-width="3840"
     units="px"
     showgrid="false"
     inkscape:document-rotation="0"
     inkscape:current-layer="layer1"
     inkscape:document-units="px"
     inkscape:cy="28.262173"
     inkscape:cx="15.048116"
     inkscape:zoom="22.627418"
     inkscape:pageshadow="2"
     inkscape:pageopacity="0.0"
     borderopacity="1.0"
     bordercolor="#666666"
     pagecolor="#ffffff"
     id="base"
     showguides="false"
     inkscape:snap-bbox-midpoints="false"
     inkscape:snap-object-midpoints="false"
     inkscape:pagecheckerboard="0"
     inkscape:showpageshadow="2"
     inkscape:deskcolor="#d1d1d1">
    <inkscape:grid
       originy="0"
       originx="0"
       id="grid1504"
       type="xygrid"
       spacingy="1"
       spacingx="1"
       units="px"
       visible="false" />
    <inkscape:grid
       originy="0"
       originx="0"
       spacingy="0.5"
       spacingx="0.5"
       id="grid1507"
       type="xygrid"
       units="px"
       visible="false" />
  </sodipodi:namedview>
  <metadata
     id="metadata5">
    <rdf:RDF>
      <cc:Work
         rdf:about="">
        <dc:format>image/svg+xml</dc:format>
        <dc:type
           rdf:resource="http://purl.org/dc/dcmitype/StillImage" />
      </cc:Work>
    </rdf:RDF>
  </metadata>
  <g
     transform="translate(-12.567709)"
     id="layer1"
     inkscape:groupmode="layer"
     inkscape:label="Layer 1">
    <g
       id="g2"
       transform="matrix(0.99683183,0,0,0.99683183,-4.5582076,0.09782423)">
      <rect
         style="fill:url(#linearGradient25671);fill-opacity:1;fill-rule:evenodd;stroke:url(#linearGradient25695);stroke-width:1;stroke-linecap:round;stroke-linejoin:round;stroke-miterlimit:4;stroke-dasharray:none;stroke-opacity:1;stop-color:#000000"
         id="rect9554"
         width="3.575032"
         height="6.3468714"
         x="34.812298"
         y="1.1880598" />
      <rect
         style="fill:url(#linearGradient25679);fill-opacity:1;fill-rule:evenodd;stroke:url(#linearGradient25687);stroke-width:1;stroke-linecap:round;stroke-linejoin:round;stroke-miterlimit:4;stroke-dasharray:none;stroke-opacity:1;stop-color:#000000"
         id="rect9554-2"
         width="4.4878268"
         height="5.6250029"
         x="42.538494"
         y="-28.618162"
         transform="rotate(41.263981)" />
      <g
         id="g1"
         transform="matrix(0.85727557,0,0,0.85727557,41.094114,0.88214186)">
        <circle
           inkscape:export-ydpi="111.48387"
           inkscape:export-xdpi="111.48387"
           r="22.031845"
           cy="28.900137"
           cx="-5.2799859"
           id="path878-0"
           style="fill:url(#linearGradient1500-3);fill-opacity:1;stroke:url(#linearGradient1502-5);stroke-width:1.16649;stroke-linecap:round;stroke-linejoin:round;stroke-miterlimit:4;stroke-dasharray:none" />
        <circle
           inkscape:export-ydpi="111.48387"
           inkscape:export-xdpi="111.48387"
           r="17.79495"
           cy="28.900137"
           cx="-5.2799859"
           id="circle1360-6"
           style="fill:url(#radialGradient936-9);fill-opacity:1;stroke:none;stroke-width:1.69476;stroke-linecap:round;stroke-linejoin:round" />
        <path
           inkscape:export-ydpi="111.48387"
           inkscape:export-xdpi="111.48387"
           sodipodi:nodetypes="ccsc"
           id="path1362-2"
           d="m -15.698421,30.117889 c -0.0094,-9.194536 4.774753,-12.980165 14.3032465,-13.719351 2.4468444,-5.180045 -10.0435245,-7.1370706 -15.5084875,-1.252882 -11.446204,12.324261 -4.525424,19.080316 1.205241,14.972233 z"
           style="fill:#ffffff;fill-opacity:1;stroke:none;stroke-width:1.69476px;stroke-linecap:butt;stroke-linejoin:miter;stroke-opacity:1" />
        <circle
           inkscape:export-ydpi="111.48387"
           inkscape:export-xdpi="111.48387"
           style="fill:none;fill-opacity:1;stroke:url(#linearGradient928-9);stroke-width:0.999999;stroke-linecap:round;stroke-linejoin:round;stroke-miterlimit:4;stroke-dasharray:none"
           id="circle912-6"
           cx="-5.2799859"
           cy="28.900137"
           r="17.79495" />
        <path
           inkscape:export-ydpi="111.48387"
           inkscape:export-xdpi="111.48387"
           style="fill:#ffffff;fill-opacity:1;stroke:none;stroke-width:1.69476px;stroke-linecap:butt;stroke-linejoin:miter;stroke-opacity:1"
           d="M 7.6218906,20.705314 C 10.497445,26.906278 9.446658,32.632863 3.2244826,38.200152 -2.9977,43.76744 -12.246699,43.650875 -15.38531,40.141595 c 4.274638,5.162796 13.5309873,6.561637 20.6082475,-0.02155 7.0772605,-6.583183 5.7919235,-13.517542 2.3989531,-19.414774 z"
           id="path1362-6-1"
           sodipodi:nodetypes="czczcc" />
      </g>
      <circle
         inkscape:export-ydpi="111.48387"
         inkscape:export-xdpi="111.48387"
         style="fill:none;fill-opacity:1;stroke:url(#linearGradient928);stroke-width:1;stroke-linecap:round;stroke-linejoin:round;stroke-miterlimit:4;stroke-dasharray:none"
         id="circle912"
         cx="36.567711"
         cy="25.684147"
         r="15.27668" />
      <path
         inkscape:export-ydpi="111.48387"
         inkscape:export-xdpi="111.48387"
         sodipodi:nodetypes="cc"
         id="path1463"
         d="m 27.702525,19.185565 6.994611,6.861892"
         style="fill:none;stroke:#9fd2ff;stroke-width:1.63678;stroke-linecap:round;stroke-linejoin:miter;stroke-miterlimit:4;stroke-dasharray:none;stroke-opacity:1" />
      <circle
         inkscape:export-ydpi="111.48387"
         inkscape:export-xdpi="111.48387"
         r="2.6028266"
         style="fill:#9fd2ff;fill-opacity:1;stroke:none;stroke-width:1.45492;stroke-linecap:round;stroke-linejoin:round;stroke-opacity:1"
         id="circle1461"
         cx="37.295162"
         cy="26.411604" />
      <path
         inkscape:export-ydpi="111.48387"
         inkscape:export-xdpi="111.48387"
         id="path1405-6"
         d="M 36.476776,25.593214 28.292839,17.409278"
         style="fill:none;stroke:#333333;stroke-width:2.46654;stroke-linecap:round;stroke-linejoin:miter;stroke-miterlimit:4;stroke-dasharray:none;stroke-opacity:1"
         sodipodi:nodetypes="cc" />
      <circle
         inkscape:export-ydpi="111.48387"
         inkscape:export-xdpi="111.48387"
         r="1.7277199"
         cy="25.593212"
         cx="36.476776"
         id="path1385"
         style="fill:#b2b2b2;fill-opacity:1;stroke:#333333;stroke-width:1.63678;stroke-linecap:round;stroke-linejoin:round;stroke-miterlimit:4;stroke-dasharray:none;stroke-opacity:1" />
      <g
         id="g2134"
         transform="matrix(0.16076191,0,0,0.16076191,14.749213,6.5245432)">
        <circle
           inkscape:export-ydpi="111.48387"
           inkscape:export-xdpi="111.48387"
           r="9.0501652"
           cy="119.17999"
           cx="210.7193"
           id="path912-3-6-7-3-3"
           style="fill:#ff3300;fill-opacity:1;stroke:none;stroke-width:9.05016;stroke-linecap:round;stroke-miterlimit:4;stroke-dasharray:none" />
        <circle
           inkscape:export-ydpi="111.48387"
           inkscape:export-xdpi="111.48387"
           r="9.0501652"
           cy="-252.1264"
           cx="35.353237"
           id="path912-3-6-7-6-5"
           style="fill:#ff3300;fill-opacity:1;stroke:none;stroke-width:9.05016;stroke-linecap:round;stroke-miterlimit:4;stroke-dasharray:none"
           transform="rotate(120)" />
        <circle
           inkscape:export-ydpi="111.48387"
           inkscape:export-xdpi="111.48387"
           r="9.0501652"
           cy="57.946419"
           cx="-246.07256"
           id="path912-3-6-7-62"
           style="fill:#ff3300;fill-opacity:1;stroke:none;stroke-width:9.05016;stroke-linecap:round;stroke-miterlimit:4;stroke-dasharray:none"
           transform="rotate(-119.99999)" />
        <circle
           inkscape:export-ydpi="111.48387"
           inkscape:export-xdpi="111.48387"
           r="9.0501652"
           cy="194.17999"
           cx="135.71933"
           id="path912-3-6-7-7-9"
           style="fill:#ff3300;fill-opacity:1;stroke:none;stroke-width:9.05016;stroke-linecap:round;stroke-miterlimit:4;stroke-dasharray:none" />
        <circle
           inkscape:export-ydpi="111.48387"
           inkscape:export-xdpi="111.48387"
           r="9.0501652"
           cy="-177.1264"
           cx="110.35325"
           id="path912-3-6-7-5-1"
           style="fill:#ff3300;fill-opacity:1;stroke:none;stroke-width:9.05016;stroke-linecap:round;stroke-miterlimit:4;stroke-dasharray:none"
           transform="rotate(120)" />
        <circle
           inkscape:export-ydpi="111.48387"
           inkscape:export-xdpi="111.48387"
           r="9.0501652"
           cy="-17.053631"
           cx="171.07257"
           id="path912-3-6-7-3-3-2"
           style="fill:#ff9933;fill-opacity:1;stroke:none;stroke-width:9.05016;stroke-linecap:round;stroke-miterlimit:4;stroke-dasharray:none"
           transform="matrix(0.50000005,0.86602537,0.86602537,-0.50000005,0,0)" />
        <circle
           inkscape:export-ydpi="111.48387"
           inkscape:export-xdpi="111.48387"
           r="9.0501652"
           cy="119.17999"
           cx="-60.719326"
           id="path912-3-6-7-6-5-7"
           style="fill:#ff9933;fill-opacity:1;stroke:none;stroke-width:9.05016;stroke-linecap:round;stroke-miterlimit:4;stroke-dasharray:none"
           transform="scale(-1,1)" />
        <circle
           inkscape:export-ydpi="111.48387"
           inkscape:export-xdpi="111.48387"
           r="9.0501652"
           cy="-102.12637"
           cx="-35.353249"
           id="path912-3-6-7-62-0"
           style="fill:#ff9933;fill-opacity:1;stroke:none;stroke-width:9.05016;stroke-linecap:round;stroke-miterlimit:4;stroke-dasharray:none"
           transform="matrix(0.49999997,-0.86602542,-0.86602542,-0.49999997,0,0)" />
        <circle
           inkscape:export-ydpi="111.48387"
           inkscape:export-xdpi="111.48387"
           r="9.0501652"
           cy="57.94643"
           cx="96.072525"
           id="path912-3-6-7-7-9-9"
           style="fill:#ff9933;fill-opacity:1;stroke:none;stroke-width:9.05016;stroke-linecap:round;stroke-miterlimit:4;stroke-dasharray:none"
           transform="matrix(0.49999959,0.86602564,0.86602564,-0.49999959,0,0)" />
        <circle
           inkscape:export-ydpi="111.48387"
           inkscape:export-xdpi="111.48387"
           r="9.0501652"
           cy="44.179993"
           cx="-135.71933"
           id="path912-3-6-7-5-1-3"
           style="fill:#ff9933;fill-opacity:1;stroke:none;stroke-width:9.05016;stroke-linecap:round;stroke-miterlimit:4;stroke-dasharray:none"
           transform="scale(-1,1)" />
        <circle
           inkscape:export-ydpi="111.48387"
           inkscape:export-xdpi="111.48387"
           r="9.0501652"
           cy="-177.1264"
           cx="39.646675"
           id="path912-3-6-7-5-1-3-6"
           style="fill:#ff3300;fill-opacity:1;stroke:none;stroke-width:9.05016;stroke-linecap:round;stroke-miterlimit:4;stroke-dasharray:none"
           transform="matrix(0.49999959,-0.86602564,-0.86602564,-0.49999959,0,0)" />
        <circle
           inkscape:export-ydpi="111.48387"
           inkscape:export-xdpi="111.48387"
           r="9.0501652"
           cy="132.94643"
           cx="171.07254"
           id="path912-3-6-7-5-1-3-0"
           style="fill:#ff3300;fill-opacity:1;stroke:none;stroke-width:9.05016;stroke-linecap:round;stroke-miterlimit:4;stroke-dasharray:none"
           transform="matrix(0.49999977,0.86602554,0.86602554,-0.49999977,0,0)" />
      </g>
      <rect
         style="fill:url(#linearGradient25539);fill-opacity:1;fill-rule:evenodd;stroke:url(#linearGradient25703);stroke-width:1;stroke-linecap:round;stroke-linejoin:round;stroke-miterlimit:4;stroke-dasharray:none;stroke-opacity:1;stop-color:#000000"
         id="rect25004"
         width="10.696944"
         height="2.7459729"
         x="31.251339"
         y="0.40186486" />
    </g>
    <path
       id="path45"
       style="color:#000000;mix-blend-mode:soft-light;fill:#000000;fill-opacity:1;-inkscape-stroke:none"
       d="m 35.663412,20.000729 c -1.185091,0 -2.095703,1.076755 -2.095703,2.337891 v 7.980468 c 0,1.185116 1.076777,2.097657 2.337891,2.097657 h 7.738281 c 1.261128,0 2.337891,-0.912534 2.337891,-2.097657 0,-1.185108 -1.076763,-2.095703 -2.337891,-2.095703 h -1.960938 c 1.481697,-1.614774 3.490876,-3.546875 5.830079,-3.546875 0.788501,0 1.926652,0.568898 2.835937,1.664063 0.909285,1.095165 1.601563,2.691186 1.601563,4.6875 0,1.863652 -0.253219,3.898318 -1.113282,5.435547 -0.860063,1.537227 -2.275324,2.615875 -4.839843,2.683593 -1.595036,0.04212 -3.072873,-0.355004 -4.125,-0.927734 -1.052128,-0.57273 -1.615234,-1.315843 -1.615235,-1.828125 0,-0.726646 -0.304926,-1.328324 -0.757812,-1.71875 -0.452887,-0.390426 -1.038183,-0.583042 -1.621094,-0.585937 -0.582911,-0.0029 -1.175529,0.185904 -1.630859,0.59375 -0.455332,0.407846 -0.751954,1.039187 -0.751954,1.820312 0,1.965143 1.328916,3.833578 3.283204,5.212891 1.954287,1.379311 4.565026,2.287109 7.279296,2.287109 3.710288,0 6.397206,-1.810435 8.101563,-4.328125 1.704357,-2.51769 2.464844,-5.729112 2.464844,-8.644531 0,-2.735851 -0.868656,-5.453932 -2.441407,-7.517578 -1.57275,-2.063647 -3.872673,-3.472071 -6.664062,-3.509766 -4.349198,-0.05874 -7.754038,3.447228 -9.759766,5.689453 V 22.33862 c 0,-1.261125 -0.910583,-2.337891 -2.095703,-2.337891 z"
       clip-path="url(#clipPath83)" />
    <path
       id="path887-2"
       style="fill:url(#linearGradient895-5);fill-opacity:1;stroke:#003399;stroke-width:0.80628;stroke-linecap:butt;stroke-linejoin:miter;stroke-miterlimit:4;stroke-dasharray:none;stroke-opacity:1"
       d="m 48.513475,21.403813 c 5.319852,0.07184 8.709348,5.323612 8.709348,10.623437 0,5.68902 -3.002232,12.56961 -10.164636,12.56961 -5.247336,0 -10.158264,-3.53808 -10.158264,-7.097574 0,-2.736042 3.954684,-2.587176 3.954684,-0.109572 0,1.522284 2.819118,3.24747 6.154074,3.159408 5.357424,-0.141468 6.34479,-4.724676 6.34479,-8.521872 0,-4.179463 -2.905332,-6.754061 -4.839996,-6.754061 -2.91147,0 -5.339718,2.664796 -6.822324,4.353058 h 2.953002 c 1.07181,0 1.934676,0.755005 1.934676,1.692841 0,0.937854 -0.862866,1.692858 -1.934676,1.692858 h -7.738668 c -1.071793,0 -1.934636,-0.755004 -1.934636,-1.692858 v -7.980587 c 0,-1.071817 0.755014,-1.934688 1.692824,-1.934688 0.937848,0 1.692816,0.862871 1.692816,1.934688 v 4.30015 c 1.854756,-2.118804 5.654796,-6.29564 10.156986,-6.234838 z"
       sodipodi:nodetypes="sssssssscsssssssscs" />
  </g>
</svg>
