<?xml version="1.0" encoding="UTF-8" standalone="no"?>
<!-- Created with Inkscape (http://www.inkscape.org/) -->

<svg
   width="16"
   height="16"
   viewBox="0 0 16 16"
   version="1.1"
   id="svg1"
   xml:space="preserve"
   inkscape:version="1.3.2 (1:1.3.2+202311252150+091e20ef0f)"
   sodipodi:docname="auth-sim-locked.16.svg"
   xmlns:inkscape="http://www.inkscape.org/namespaces/inkscape"
   xmlns:sodipodi="http://sodipodi.sourceforge.net/DTD/sodipodi-0.dtd"
   xmlns:xlink="http://www.w3.org/1999/xlink"
   xmlns="http://www.w3.org/2000/svg"
   xmlns:svg="http://www.w3.org/2000/svg"><sodipodi:namedview
     id="namedview1"
     pagecolor="#ffffff"
     bordercolor="#000000"
     borderopacity="0.25"
     inkscape:showpageshadow="2"
     inkscape:pageopacity="0.0"
     inkscape:pagecheckerboard="0"
     inkscape:deskcolor="#d1d1d1"
     inkscape:document-units="px"
     inkscape:zoom="74.916666"
     inkscape:cx="13.181313"
     inkscape:cy="10.144605"
     inkscape:window-width="3840"
     inkscape:window-height="2057"
     inkscape:window-x="0"
     inkscape:window-y="0"
     inkscape:window-maximized="1"
     inkscape:current-layer="layer1"
     showgrid="true"><inkscape:grid
       id="grid1"
       units="px"
       originx="0"
       originy="0"
       spacingx="1"
       spacingy="1"
       empcolor="#0099e5"
       empopacity="0.30196078"
       color="#0099e5"
       opacity="0.14901961"
       empspacing="5"
       dotted="false"
       gridanglex="30"
       gridanglez="30"
       visible="true" /><inkscape:grid
       id="grid2"
       units="px"
       originx="0"
       originy="0"
       spacingx="0.5"
       spacingy="0.5"
       empcolor="#0099e5"
       empopacity="0.30196078"
       color="#0099e5"
       opacity="0.14901961"
       empspacing="5"
       dotted="false"
       gridanglex="30"
       gridanglez="30"
       visible="true" /></sodipodi:namedview><defs
     id="defs1"><linearGradient
       id="linearGradient28"
       inkscape:collect="always"><stop
         style="stop-color:#6666cc;stop-opacity:1"
         offset="0"
         id="stop28" /><stop
         style="stop-color:#ccccff;stop-opacity:1"
         offset="1"
         id="stop29" /></linearGradient><linearGradient
       id="linearGradient13"
       inkscape:collect="always"><stop
         style="stop-color:#ffcc66;stop-opacity:1"
         offset="0"
         id="stop13" /><stop
         style="stop-color:#ffff99;stop-opacity:1"
         offset="1"
         id="stop14" /></linearGradient><linearGradient
       id="linearGradient11"
       inkscape:collect="always"><stop
         style="stop-color:#9999ff;stop-opacity:1"
         offset="0"
         id="stop11" /><stop
         style="stop-color:#ccccff;stop-opacity:1"
         offset="1"
         id="stop12" /></linearGradient><linearGradient
       inkscape:collect="always"
       xlink:href="#linearGradient11"
       id="linearGradient12"
       x1="11.5"
       y1="5.5"
       x2="37.5"
       y2="36"
       gradientUnits="userSpaceOnUse" /><linearGradient
       inkscape:collect="always"
       xlink:href="#linearGradient13"
       id="linearGradient14"
       x1="15"
       y1="7.5"
       x2="33.475052"
       y2="24.943363"
       gradientUnits="userSpaceOnUse"
       gradientTransform="translate(-1.0000004,9.9999999)" /><linearGradient
       inkscape:collect="always"
       xlink:href="#linearGradient28"
       id="linearGradient29"
       x1="10"
       y1="44"
       x2="10"
       y2="4"
       gradientUnits="userSpaceOnUse" /><clipPath
       clipPathUnits="userSpaceOnUse"
       id="clipPath36"><path
         id="path36"
         style="color:#000000;fill:#b1b1b1;fill-rule:evenodd;-inkscape-stroke:none"
         d="m 31.578125,0 0.732422,1.2050781 -0.863281,-0.4316406 -0.125,0.015625 z m 0,0 L 31.349609,0.02929688 8,3.0761719 V 44.503906 L 9.5175781,46.021484 38.611328,37.853516 V 4.3183594 L 33.796875,1.109375 Z" /></clipPath><linearGradient
       id="linearGradient4"
       inkscape:collect="always"><stop
         id="stop3"
         offset="0"
         style="stop-color:#ffcc00;stop-opacity:1" /><stop
         id="stop4"
         offset="1"
         style="stop-color:#cc9900;stop-opacity:1" /></linearGradient><linearGradient
       id="linearGradient2"
       inkscape:collect="always"><stop
         id="stop1"
         offset="0"
         style="stop-color:#e4bc4d;stop-opacity:1" /><stop
         id="stop2"
         offset="1"
         style="stop-color:#cc9900;stop-opacity:1" /></linearGradient><linearGradient
       inkscape:collect="always"
       id="linearGradient1365"><stop
         style="stop-color:#cc9900;stop-opacity:1"
         offset="0"
         id="stop1361" /><stop
         style="stop-color:#817a69;stop-opacity:1"
         offset="1"
         id="stop1363" /></linearGradient><linearGradient
       inkscape:collect="always"
       id="linearGradient1339"><stop
         style="stop-color:#fffff0;stop-opacity:1"
         offset="0"
         id="stop1335" /><stop
         id="stop1343"
         offset="0.5"
         style="stop-color:#ffff99;stop-opacity:1" /><stop
         style="stop-color:#fefbec;stop-opacity:1"
         offset="1"
         id="stop1337" /></linearGradient><linearGradient
       inkscape:collect="always"
       id="linearGradient1325"><stop
         style="stop-color:#d8a518;stop-opacity:1"
         offset="0"
         id="stop1321" /><stop
         style="stop-color:#ffec86;stop-opacity:1"
         offset="1"
         id="stop1323" /></linearGradient><linearGradient
       id="linearGradient1308"
       inkscape:collect="always"><stop
         style="stop-color:#ffff99;stop-opacity:1"
         offset="0"
         id="stop1306" /><stop
         id="stop1304"
         offset="0.5"
         style="stop-color:#ffcd67;stop-opacity:1" /><stop
         style="stop-color:#d3a00f;stop-opacity:1"
         offset="1"
         id="stop1302" /></linearGradient><linearGradient
       inkscape:collect="always"
       id="linearGradient1280"><stop
         style="stop-color:#d3a00f;stop-opacity:1"
         offset="0"
         id="stop1276" /><stop
         id="stop1284"
         offset="0.5"
         style="stop-color:#ffcc66;stop-opacity:1" /><stop
         style="stop-color:#ffff99;stop-opacity:1"
         offset="1"
         id="stop1278" /></linearGradient><linearGradient
       gradientTransform="matrix(0.34240342,0,0,0.34240342,-3.2525125,-0.41773589)"
       inkscape:collect="always"
       xlink:href="#linearGradient1280"
       id="linearGradient1282"
       x1="70.567711"
       y1="21"
       x2="70.567711"
       y2="3"
       gradientUnits="userSpaceOnUse" /><linearGradient
       gradientTransform="matrix(0.34240342,0,0,0.34240342,-3.2525125,-0.41773589)"
       inkscape:collect="always"
       xlink:href="#linearGradient1308"
       id="linearGradient1300"
       x1="57.544079"
       y1="18.976562"
       x2="82.567711"
       y2="18.976562"
       gradientUnits="userSpaceOnUse" /><linearGradient
       gradientTransform="matrix(0.34240342,0,0,0.34240342,-3.2525125,-0.41773589)"
       inkscape:collect="always"
       xlink:href="#linearGradient13"
       id="linearGradient1319"
       x1="62.567711"
       y1="43.5"
       x2="62.567711"
       y2="22.5"
       gradientUnits="userSpaceOnUse" /><linearGradient
       gradientTransform="matrix(0.34240342,0,0,0.34240342,-3.2525125,-0.41773589)"
       inkscape:collect="always"
       xlink:href="#linearGradient1325"
       id="linearGradient1327"
       x1="57.067711"
       y1="41"
       x2="57.067711"
       y2="24"
       gradientUnits="userSpaceOnUse" /><linearGradient
       gradientTransform="matrix(0.34240342,0,0,0.34240342,-3.0949155,-0.16773589)"
       inkscape:collect="always"
       xlink:href="#linearGradient1339"
       id="linearGradient1341"
       x1="60.817451"
       y1="43.861931"
       x2="60.817451"
       y2="25.458643"
       gradientUnits="userSpaceOnUse" /><linearGradient
       inkscape:collect="always"
       xlink:href="#linearGradient1365"
       id="linearGradient1367"
       x1="53.067711"
       y1="74.257309"
       x2="53.067711"
       y2="64.257309"
       gradientUnits="userSpaceOnUse"
       gradientTransform="matrix(0.34240342,0,0,0.34240342,3.4601474,-13.003564)" /><linearGradient
       gradientUnits="userSpaceOnUse"
       y2="31.061457"
       x2="96.567711"
       y1="31.061457"
       x1="71.567711"
       id="linearGradient1208"
       xlink:href="#linearGradient2"
       inkscape:collect="always"
       gradientTransform="matrix(0.34240342,0,0,0.34240342,-7.5325552,-0.41773589)" /><linearGradient
       gradientUnits="userSpaceOnUse"
       y2="18.976562"
       x2="96.325989"
       y1="18.976562"
       x1="67.567711"
       id="linearGradient1216"
       xlink:href="#linearGradient4"
       inkscape:collect="always"
       gradientTransform="matrix(0.34240342,0,0,0.34240342,-7.5325552,-0.41773589)" /><linearGradient
       gradientUnits="userSpaceOnUse"
       y2="21"
       x2="78.567711"
       y1="2"
       x1="78.567711"
       id="linearGradient1224"
       xlink:href="#linearGradient2"
       inkscape:collect="always"
       gradientTransform="matrix(0.34240342,0,0,0.34240342,-7.5325552,-0.41773589)" /></defs><g
     inkscape:label="Στρώση 1"
     inkscape:groupmode="layer"
     id="layer1"><g
       id="g39"
       transform="matrix(0.32164255,0,0,0.32164255,-0.09367228,0.09124225)"><path
         id="path15"
         style="fill:#b1b1b1;fill-opacity:1;fill-rule:evenodd;stroke:#7b7b7b;stroke-width:1.52002;stroke-dasharray:none;stroke-opacity:1"
         d="m 32,0.5 -23,3 v 41 l 1,1 28.5,-8 V 4.5 L 34,1.5 Z"
         sodipodi:nodetypes="cccccccc" /><path
         style="fill:url(#linearGradient29);fill-rule:evenodd;stroke:none;stroke-width:0.5"
         d="m 34,1.5 -2,-1 -23,3 v 41 l 1,1 28.5,-41 z"
         id="path3"
         sodipodi:nodetypes="ccccccc" /><path
         style="fill:url(#linearGradient12);fill-rule:evenodd;stroke:none;stroke-width:0.5;stroke-opacity:1"
         d="m 10,4.5 v 41 l 28.5,-8 v -33 l -5,-3 z"
         id="path2"
         sodipodi:nodetypes="cccccc" /><path
         style="fill:url(#linearGradient14);fill-rule:evenodd;stroke:#ff9933;stroke-width:1.01335;stroke-dasharray:none;stroke-opacity:1"
         d="M 13,41.220037 33.5,36 V 17.597379 L 29.748162,13.329012 13,16.5 Z"
         id="path4"
         sodipodi:nodetypes="cccccc" /><path
         id="path32"
         style="color:#000000;fill:#ff9933;fill-rule:evenodd;-inkscape-stroke:none"
         d="m 28.25,13.611328 -1.5,0.285156 v 6.517578 l -6.75,1.6875 v -6.927734 l -1.5,0.285156 v 7.017578 L 17.160156,22.8125 13,26.138672 v 1.921875 L 17.839844,24.1875 29.394531,21.298828 33.5,23.580078 V 21.865234 L 29.605469,19.701172 28.25,20.039062 Z M 33.5,25.554688 29.832031,29.636719 18.185547,32.476562 13,30.146484 v 1.644532 l 5.041016,2.263672 1.451172,-0.353516 L 19.5,39.5 h 0.255859 L 21,39.183594 20.992188,33.335938 27.25,31.810547 v 5.78125 l 1.5,-0.382813 V 31.444507 L 30.636719,30.984375 33.5,27.798828 Z"
         sodipodi:nodetypes="ccccccccccccccccccccccccccccccccccc" /></g><path
       id="path1"
       style="mix-blend-mode:soft-light;fill:#000000;fill-opacity:1;stroke:none;stroke-width:0.547845px;stroke-linecap:butt;stroke-linejoin:miter;stroke-opacity:1"
       d="m 37.304214,20.789532 c -0.07136,0.0023 -0.143033,0.0063 -0.214844,0.01367 -2.868682,0.29621 -5.996094,2.69996 -5.996094,6.671875 v 1.81836 c -0.185201,0.08175 -0.366921,0.165282 -0.539062,0.25 -0.996387,0.490359 -1.765597,1.017571 -2.158204,1.625 A 0.26117463,0.26117463 0 0 0 28.3589,31.309062 H 28.353 V 41.71922 c 0,0.555965 0.375892,1.226677 0.841796,1.835938 0.232953,0.30463 0.491863,0.58342 0.759766,0.794921 0.25637,0.202398 0.52313,0.354384 0.814453,0.367188 2.011386,0.287341 5.164355,-0.346657 7.927735,-1.279297 1.381688,-0.466321 2.660499,-1.008757 3.640625,-1.564453 0.980125,-0.555697 1.684653,-1.087694 1.867187,-1.726563 a 0.26117463,0.26117463 0 0 0 0.0098,-0.07227 v -10.39062 a 0.26117463,0.26117463 0 0 0 0,-0.01758 c 0,-0.229171 -0.09252,-0.44563 -0.228516,-0.691407 -0.135995,-0.245776 -0.322926,-0.508387 -0.544922,-0.757812 -0.44399,-0.498851 -1.019163,-0.961171 -1.660156,-1.003906 -0.09926,-0.0066 -0.201781,-0.01153 -0.304688,-0.01563 v -1.914063 c 0,-1.17517 -0.528869,-2.339615 -1.333984,-3.193359 -0.754794,-0.800385 -1.76751,-1.334766 -2.83789,-1.300782 z m -0.123047,2.535157 c 0.695561,-0.0084 1.17031,0.323736 1.523437,0.839843 0.403574,0.589839 0.605469,1.436603 0.605469,2.214844 v 0.886719 c -1.663162,0.148391 -3.510579,0.498631 -5.21875,0.976563 -0.2827,0.0791 -0.56064,0.162212 -0.833985,0.248046 v -0.742187 c 0,-1.299972 0.517183,-2.337551 1.230469,-3.087891 0.713287,-0.75034 1.629468,-1.203205 2.38086,-1.310547 0.108638,-0.01552 0.213134,-0.0242 0.3125,-0.02539 z"
       clip-path="url(#clipPath36)"
       transform="matrix(0.32593633,0,0,0.32593633,-0.05083148,0)" /><g
       id="g4"
       transform="matrix(0.52721121,0,0,0.52721121,1.3294384,6.9619846)"><path
         style="fill:url(#linearGradient1327);fill-opacity:1;stroke:none;stroke-width:0.5;stroke-linecap:butt;stroke-linejoin:miter;stroke-dasharray:none;stroke-opacity:1"
         d="m 15.774061,6.6015342 v 6.5056648 c 0,0.513605 0.856009,1.712017 1.369614,1.712017 V 7.9711479 C 16.756432,7.8647043 15.960284,6.9102849 15.774061,6.6015342 Z"
         id="path1329"
         sodipodi:nodetypes="ccccc" /><path
         style="fill:url(#linearGradient1319);fill-opacity:1;stroke:none;stroke-width:0.5;stroke-linecap:butt;stroke-linejoin:miter;stroke-dasharray:none;stroke-opacity:1"
         d="m 17.143675,7.9711479 v 6.8480681 c 2.396824,0.342404 7.875278,-1.540815 8.217682,-2.739227 V 5.574324"
         id="path1333"
         sodipodi:nodetypes="cccc" /><path
         sodipodi:nodetypes="ccc"
         id="path1331"
         d="M 25.167665,6.3392164 C 24.43722,6.8963475 19.869297,8.5635513 17.643675,8.5635513 V 15.069216"
         style="fill:none;stroke:url(#linearGradient1341);stroke-width:1;stroke-linecap:butt;stroke-linejoin:miter;stroke-miterlimit:4;stroke-dasharray:none;stroke-opacity:1" /><path
         sodipodi:nodetypes="ccc"
         id="path1266"
         d="m 15.774061,6.6015342 v 6.5056648 c 0,0.513605 0.856009,1.712017 1.369614,1.712017"
         style="fill:none;fill-opacity:1;stroke:#cc9900;stroke-width:0.5;stroke-linecap:butt;stroke-linejoin:miter;stroke-dasharray:none;stroke-opacity:1" /><path
         sodipodi:nodetypes="cccc"
         id="path1264"
         d="m 17.143675,7.9711479 v 6.8480681 c 2.396824,0.342404 7.875278,-1.540815 8.217682,-2.739227 V 5.574324"
         style="fill:none;fill-opacity:1;stroke:url(#linearGradient1208);stroke-width:0.5;stroke-linecap:round;stroke-linejoin:round;stroke-dasharray:none;stroke-opacity:1" /><path
         sodipodi:nodetypes="scscs"
         id="path1260"
         d="m 17.143675,7.9711479 c -0.342404,0 -1.198412,-0.8560086 -1.369614,-1.3696137 0.856009,-1.324389 5.649657,-2.5680256 8.217682,-2.3968239 0.644212,0.042947 1.369614,1.0272102 1.369614,1.3696137 -0.395373,0.6848071 -5.36432,2.3968239 -8.217682,2.3968239 z"
         style="fill:url(#linearGradient1300);fill-opacity:1;stroke:url(#linearGradient1216);stroke-width:0.5;stroke-linecap:round;stroke-linejoin:round;stroke-dasharray:none;stroke-opacity:1" /><ellipse
         rx="1.0320587"
         ry="0.62111574"
         style="fill:#996600;fill-opacity:1;fill-rule:evenodd;stroke-width:0.5;stroke-linecap:round;stroke-linejoin:round;stroke-dasharray:none"
         id="path1129"
         cx="16.602846"
         cy="9.8024263"
         transform="rotate(-9.5940686)" /><ellipse
         rx="1.070702"
         ry="0.62111574"
         transform="rotate(-9.5940686)"
         cy="9.5574827"
         cx="21.808987"
         id="path1129-3"
         style="fill:#996600;fill-opacity:1;fill-rule:evenodd;stroke-width:0.5;stroke-linecap:round;stroke-linejoin:round;stroke-dasharray:none" /><path
         sodipodi:nodetypes="sssssssssss"
         id="path1262"
         d="M 18.513289,6.7727359 V 4.375912 c 0,-1.7120171 1.369613,-2.7636848 2.396823,-2.9104291 1.198412,-0.1712017 1.712018,1.0272103 1.712018,2.0544205 v 2.396824 c 0,0.3424034 1.02721,0 1.02721,-0.3424034 V 2.8350966 c 0,-1.3696137 -1.250545,-2.77365534 -2.561532,-2.63828789 -1.715575,0.1771436 -3.60173,1.61107759 -3.60173,4.00790159 v 2.7392273 c 0,0.3424035 1.027211,0.1242487 1.027211,-0.1712017 z"
         style="fill:url(#linearGradient1282);fill-opacity:1;stroke:url(#linearGradient1224);stroke-width:0.5;stroke-linecap:round;stroke-linejoin:round;stroke-dasharray:none;stroke-opacity:1" /><path
         d="M 22.108524,8.732599 21.252516,8.9983582 V 10.19677 c -0.36353,0.163399 -0.571543,0.454025 -0.516949,0.722257 0.04236,0.207265 0.235992,0.369589 0.516949,0.433355 v 1.241212 l 0.856008,-0.252218 v -1.089308 c 0.354534,-0.165102 0.555035,-0.451531 0.500899,-0.715569 -0.0416,-0.202958 -0.228382,-0.363055 -0.500899,-0.429342 v -0.07089 z"
         style="fill:url(#linearGradient1367);fill-opacity:1;stroke:none;stroke-width:0.5;stroke-linecap:butt;stroke-linejoin:miter;stroke-dasharray:none;stroke-opacity:1"
         id="path1345"
         sodipodi:nodetypes="cccccccccccc" /></g></g></svg>
