<?xml version="1.0" encoding="UTF-8" standalone="no"?>
<svg
   width="48"
   height="48"
   viewBox="0 0 48 48"
   version="1.1"
   id="svg8"
   inkscape:version="1.3.2 (1:1.3.2+202311252150+091e20ef0f)"
   sodipodi:docname="disk-quota-critical.svg"
   inkscape:export-filename="hard-disk.png"
   inkscape:export-xdpi="18"
   inkscape:export-ydpi="18"
   xml:space="preserve"
   xmlns:inkscape="http://www.inkscape.org/namespaces/inkscape"
   xmlns:sodipodi="http://sodipodi.sourceforge.net/DTD/sodipodi-0.dtd"
   xmlns:xlink="http://www.w3.org/1999/xlink"
   xmlns="http://www.w3.org/2000/svg"
   xmlns:svg="http://www.w3.org/2000/svg"
   xmlns:rdf="http://www.w3.org/1999/02/22-rdf-syntax-ns#"
   xmlns:cc="http://creativecommons.org/ns#"
   xmlns:dc="http://purl.org/dc/elements/1.1/"><defs
     id="defs2"><linearGradient
       id="linearGradient6"
       inkscape:collect="always"><stop
         style="stop-color:#ffff99;stop-opacity:1"
         offset="0"
         id="stop7" /><stop
         style="stop-color:#cc9900;stop-opacity:1"
         offset="1"
         id="stop8" /></linearGradient><linearGradient
       id="linearGradient3"
       inkscape:collect="always"><stop
         style="stop-color:#cc9900;stop-opacity:1"
         offset="0"
         id="stop3" /><stop
         style="stop-color:#ffff99;stop-opacity:1"
         offset="0.25999999"
         id="stop5" /><stop
         style="stop-color:#ffcc00;stop-opacity:1"
         offset="0.51999998"
         id="stop6" /><stop
         style="stop-color:#996600;stop-opacity:1"
         offset="1"
         id="stop4" /></linearGradient><linearGradient
       inkscape:collect="always"
       xlink:href="#linearGradient3"
       id="linearGradient4"
       x1="23.567709"
       y1="25.3125"
       x2="48.567709"
       y2="25.3125"
       gradientUnits="userSpaceOnUse" /><linearGradient
       inkscape:collect="always"
       xlink:href="#linearGradient6"
       id="linearGradient8"
       x1="30.198246"
       y1="15.241911"
       x2="49.567713"
       y2="15.241911"
       gradientUnits="userSpaceOnUse" /><linearGradient
       inkscape:collect="always"
       xlink:href="#linearGradient6"
       id="linearGradient16"
       gradientUnits="userSpaceOnUse"
       x1="30.198246"
       y1="15.241911"
       x2="49.567713"
       y2="15.241911"
       gradientTransform="translate(0,11.896537)" /><linearGradient
       inkscape:collect="always"
       xlink:href="#linearGradient3"
       id="linearGradient27"
       gradientUnits="userSpaceOnUse"
       x1="23.567709"
       y1="25.3125"
       x2="48.567709"
       y2="25.3125"
       gradientTransform="translate(0.02119777,-0.515625)" /><linearGradient
       id="linearGradient1167"
       inkscape:collect="always"><stop
         id="stop1163"
         offset="0"
         style="stop-color:#ff794b;stop-opacity:1" /><stop
         id="stop1165"
         offset="1"
         style="stop-color:#ff794b;stop-opacity:0;" /></linearGradient><linearGradient
       id="linearGradient1139"
       inkscape:collect="always"><stop
         id="stop1134"
         offset="0"
         style="stop-color:#ff3300;stop-opacity:1" /><stop
         style="stop-color:#ff3300;stop-opacity:1"
         offset="0.82758605"
         id="stop1143" /><stop
         id="stop1137"
         offset="1"
         style="stop-color:#990000;stop-opacity:1" /></linearGradient><radialGradient
       gradientTransform="matrix(0.63756024,0.81466051,-0.7931036,0.62068962,30.036713,-18.771984)"
       gradientUnits="userSpaceOnUse"
       r="14.5"
       fy="22.18968"
       fx="33.14151"
       cy="22.18968"
       cx="33.14151"
       id="radialGradient1141"
       xlink:href="#linearGradient1139"
       inkscape:collect="always" /><linearGradient
       gradientUnits="userSpaceOnUse"
       y2="12.825213"
       x2="31.85717"
       y1="9.3635864"
       x1="31.209026"
       id="linearGradient1169"
       xlink:href="#linearGradient1167"
       inkscape:collect="always" /><filter
       inkscape:collect="always"
       style="color-interpolation-filters:sRGB"
       id="filter12"
       x="-0.05108007"
       y="-0.045270253"
       width="1.1021601"
       height="1.0905405"><feGaussianBlur
         inkscape:collect="always"
         stdDeviation="0.50326623"
         id="feGaussianBlur12" /></filter><clipPath
       clipPathUnits="userSpaceOnUse"
       id="clipPath67"><path
         id="path67"
         style="fill:#d1d1d1;fill-opacity:1;stroke:none;stroke-width:1.00257;stroke-linecap:butt;stroke-linejoin:miter;stroke-dasharray:none;stroke-opacity:1"
         d="m 35.335287,16.539062 c -0.30701,-0.01053 -0.618469,0.01705 -0.914062,0.08398 a 0.25066805,0.25066805 0 0 0 -0.01563,-0.0098 v 0.0098 c -0.02872,0.0067 -0.05948,-0.01146 -0.08789,-0.0039 l -20.564449,5.460936 a 0.25066805,0.25066805 0 0 0 -0.185547,0.242188 l 0.0039,8.203125 a 0.25066805,0.25066805 0 0 0 0.154297,0.232421 l 22.294922,9.332032 a 0.25066805,0.25066805 0 0 0 0.189453,0.002 l 21.833985,-8.689453 a 0.25066805,0.25066805 0 0 0 0.158203,-0.232422 v -7.519531 a 0.25066805,0.25066805 0 0 0 0,-0.0039 0.25064299,0.25064299 0 0 0 -0.0078,-0.04883 0.25066805,0.25066805 0 0 0 -0.0059,-0.02734 0.25066805,0.25066805 0 0 0 -0.119141,-0.138671 0.25064299,0.25064299 0 0 0 -0.01367,-0.0059 0.25066805,0.25066805 0 0 0 -0.03125,-0.01563 l -21.796853,-6.72462 c -0.283006,-0.08732 -0.585568,-0.135955 -0.892578,-0.146485 z" /></clipPath><linearGradient
       inkscape:collect="always"
       xlink:href="#linearGradient1041"
       id="linearGradient1043"
       x1="-461.38626"
       y1="115.66495"
       x2="-465.74591"
       y2="133.73666"
       gradientUnits="userSpaceOnUse"
       gradientTransform="matrix(0.1877148,0,0,0.1877148,110.58963,-0.52167826)" /><linearGradient
       inkscape:collect="always"
       id="linearGradient1041"><stop
         style="stop-color:#a3a3a3;stop-opacity:1"
         offset="0"
         id="stop1037" /><stop
         style="stop-color:#bfbfbf;stop-opacity:1"
         offset="1"
         id="stop1039" /></linearGradient><linearGradient
       y2="116.94683"
       x2="-336.18729"
       y1="151.75548"
       x1="-319.91779"
       gradientTransform="matrix(0.1877148,0,0,0.1877148,110.40192,-0.24010604)"
       gradientUnits="userSpaceOnUse"
       id="linearGradient1378"
       xlink:href="#linearGradient1002"
       inkscape:collect="always" /><linearGradient
       id="linearGradient1002"
       inkscape:collect="always"><stop
         id="stop998"
         offset="0"
         style="stop-color:#c7c7f7;stop-opacity:1" /><stop
         id="stop1000"
         offset="1"
         style="stop-color:#69696a;stop-opacity:1" /></linearGradient><linearGradient
       y2="117.77962"
       x2="-111.99686"
       y1="117.93747"
       x1="-163.00368"
       gradientTransform="matrix(0.1877148,0,0,0.1877148,68.886536,4.1827432)"
       gradientUnits="userSpaceOnUse"
       id="linearGradient1380"
       xlink:href="#linearGradient1014"
       inkscape:collect="always" /><linearGradient
       id="linearGradient1014"
       inkscape:collect="always"><stop
         id="stop1010"
         offset="0"
         style="stop-color:#333333;stop-opacity:1" /><stop
         style="stop-color:#6e6d6d;stop-opacity:1"
         offset="0.5"
         id="stop1018" /><stop
         id="stop1012"
         offset="1"
         style="stop-color:#979696;stop-opacity:1" /></linearGradient><linearGradient
       y2="11.5"
       x2="-484.28946"
       y1="11.5"
       x1="-690.58301"
       gradientTransform="matrix(0.1877148,0,0,0.1877148,147.51589,16.316292)"
       gradientUnits="userSpaceOnUse"
       id="linearGradient1382"
       xlink:href="#linearGradient1037"
       inkscape:collect="always" /><linearGradient
       id="linearGradient1037"
       inkscape:collect="always"><stop
         id="stop1033"
         offset="0"
         style="stop-color:#f1f1f1;stop-opacity:1" /><stop
         style="stop-color:#d9d9d9;stop-opacity:1"
         offset="0.5"
         id="stop1041" /><stop
         id="stop1035"
         offset="1"
         style="stop-color:#d3d3d3;stop-opacity:1" /></linearGradient><linearGradient
       y2="-85.840675"
       x2="87.091187"
       y1="-85.840675"
       x1="-94.614113"
       gradientTransform="matrix(0.1877148,0,0,0.1877148,35.955801,32.528526)"
       gradientUnits="userSpaceOnUse"
       id="linearGradient1384"
       xlink:href="#linearGradient1036"
       inkscape:collect="always" /><linearGradient
       inkscape:collect="always"
       id="linearGradient1036"><stop
         style="stop-color:#d1d1d1;stop-opacity:1"
         offset="0"
         id="stop1031" /><stop
         id="stop1040"
         offset="0.32481501"
         style="stop-color:#d1d1d1;stop-opacity:1" /><stop
         style="stop-color:#acacac;stop-opacity:1"
         offset="0.57871664"
         id="stop1042" /><stop
         style="stop-color:#ccccff;stop-opacity:1"
         offset="1"
         id="stop1034" /></linearGradient><linearGradient
       y2="-5.718029"
       x2="-92.530884"
       y1="-5.718029"
       x1="-271.53964"
       gradientTransform="matrix(0.1877148,0,0,0.1877148,68.999955,16.316292)"
       gradientUnits="userSpaceOnUse"
       id="linearGradient1386"
       xlink:href="#linearGradient1063"
       inkscape:collect="always" /><linearGradient
       id="linearGradient1063"
       inkscape:collect="always"><stop
         id="stop1059"
         offset="0"
         style="stop-color:#ffffff;stop-opacity:1;" /><stop
         style="stop-color:#dddddd;stop-opacity:1"
         offset="0.29411766"
         id="stop1073" /><stop
         style="stop-color:#ffffff;stop-opacity:1;"
         offset="0.52941179"
         id="stop1067" /><stop
         id="stop1069"
         offset="0.70588237"
         style="stop-color:#dddddd;stop-opacity:1" /><stop
         style="stop-color:#ffffff;stop-opacity:1;"
         offset="0.85294116"
         id="stop1071" /><stop
         id="stop1061"
         offset="1"
         style="stop-color:#e5e5e6;stop-opacity:1" /></linearGradient><linearGradient
       y2="121.34988"
       x2="-373.53955"
       y1="121.34988"
       x1="-397.93228"
       gradientUnits="userSpaceOnUse"
       id="linearGradient1388"
       xlink:href="#linearGradient1126"
       inkscape:collect="always"
       gradientTransform="matrix(0.1877148,0,0,0.1877148,110.58963,-0.52167826)" /><linearGradient
       inkscape:collect="always"
       id="linearGradient1126"><stop
         style="stop-color:#ffffff;stop-opacity:1;"
         offset="0"
         id="stop1122" /><stop
         style="stop-color:#4f4f51;stop-opacity:1"
         offset="1"
         id="stop1124" /></linearGradient></defs><sodipodi:namedview
     inkscape:guide-bbox="true"
     id="base"
     pagecolor="#ffffff"
     bordercolor="#666666"
     borderopacity="1.0"
     inkscape:pageopacity="0.0"
     inkscape:pageshadow="2"
     inkscape:zoom="27.241264"
     inkscape:cx="9.7095348"
     inkscape:cy="32.560897"
     inkscape:document-units="px"
     inkscape:current-layer="layer1"
     inkscape:document-rotation="0"
     showgrid="true"
     units="px"
     inkscape:window-width="3840"
     inkscape:window-height="2057"
     inkscape:window-x="0"
     inkscape:window-y="0"
     inkscape:window-maximized="1"
     inkscape:snap-bbox="true"
     inkscape:bbox-nodes="true"
     fit-margin-top="0"
     fit-margin-left="0"
     fit-margin-right="0"
     fit-margin-bottom="0"
     inkscape:bbox-paths="false"
     inkscape:snap-global="true"
     showguides="true"
     inkscape:pagecheckerboard="0"
     inkscape:showpageshadow="2"
     inkscape:deskcolor="#d1d1d1"><inkscape:grid
       type="xygrid"
       id="grid1504"
       originx="0"
       originy="0"
       spacingy="1"
       spacingx="1"
       units="px"
       visible="true" /><inkscape:grid
       type="xygrid"
       id="grid1507"
       spacingx="0.5"
       spacingy="0.5"
       originx="0"
       originy="0"
       units="px"
       visible="true" /></sodipodi:namedview><metadata
     id="metadata5"><rdf:RDF><cc:Work
         rdf:about=""><dc:format>image/svg+xml</dc:format><dc:type
           rdf:resource="http://purl.org/dc/dcmitype/StillImage" /></cc:Work></rdf:RDF></metadata><g
     inkscape:label="Layer 1"
     inkscape:groupmode="layer"
     id="layer1"
     transform="translate(-12.567709)"><g
       id="g5"
       transform="matrix(1.0144292,0,0,1.0144292,-0.45943453,5.3548833)"><path
         id="path994-2-4"
         d="M 36.215892,34.079582 37.410744,24.445392 14.0747,17.254867 v 7.450314 z"
         style="fill:#d1d1d1;fill-opacity:1;stroke:none;stroke-width:0.988311;stroke-linecap:butt;stroke-linejoin:miter;stroke-dasharray:none;stroke-opacity:1"
         sodipodi:nodetypes="ccccc" /><path
         style="fill:url(#linearGradient1043);fill-opacity:1;stroke:none;stroke-width:0.988311;stroke-linecap:butt;stroke-linejoin:miter;stroke-dasharray:none;stroke-opacity:1"
         d="m 14.0747,21.164508 v -4.439114 l 22.400631,8.977953 0.505716,4.779402 z"
         id="path1153-3-4"
         sodipodi:nodetypes="ccccc" /><path
         sodipodi:nodetypes="cccccc"
         id="path996-5-0"
         d="M 35.994794,24.923048 57.61006,17.924199 57.580539,25.44703 36.05835,34.012361 35.813598,29.264942 Z"
         style="fill:url(#linearGradient1378);fill-opacity:1;stroke:none;stroke-width:0.988311;stroke-linecap:butt;stroke-linejoin:miter;stroke-dasharray:none;stroke-opacity:1" /><path
         style="fill:#333333;fill-opacity:1;stroke:none;stroke-width:0.494156;stroke-linecap:butt;stroke-linejoin:miter;stroke-dasharray:none;stroke-opacity:1"
         d="m 37.440155,31.991567 0.03372,-6.06407 15.381047,-5.297292 -0.04619,5.481058 z"
         id="path1020-9-7"
         sodipodi:nodetypes="ccccc" /><path
         sodipodi:nodetypes="cccc"
         id="path1008-2-8"
         d="M 52.808734,26.111263 C 50.862093,27.606887 40.32792,29.855414 37.30002,28.283067 v -2.295693 l 15.554907,-5.357169"
         style="fill:url(#linearGradient1380);fill-opacity:1;stroke:none;stroke-width:0.988311;stroke-linecap:butt;stroke-linejoin:miter;stroke-dasharray:none;stroke-opacity:1" /><path
         id="path1031-8-8"
         d="M 14.0747,17.022577 35.853469,25.236051 57.580237,17.868712 35.25992,11.101423 Z"
         style="fill:url(#linearGradient1382);fill-opacity:1;stroke:none;stroke-width:0.988311;stroke-linecap:butt;stroke-linejoin:miter;stroke-dasharray:none;stroke-opacity:1"
         sodipodi:nodetypes="ccccc" /><path
         sodipodi:nodetypes="csccc"
         id="path1043-9-8"
         d="m 20.594746,14.961025 c 3.179176,3.659467 11.277617,6.331227 17.936217,6.537656 9.367798,0.290419 14.552853,-1.913824 13.467588,-5.186262 L 35.25992,11.101423 Z"
         style="fill:url(#linearGradient1384);fill-opacity:1;stroke:none;stroke-width:0.988311;stroke-linecap:butt;stroke-linejoin:miter;stroke-dasharray:none;stroke-opacity:1" /><path
         style="fill:url(#linearGradient1386);fill-opacity:1;stroke:none;stroke-width:0.988311;stroke-linecap:butt;stroke-linejoin:miter;stroke-dasharray:none;stroke-opacity:1"
         d="m 21.347858,14.958869 c 4.121182,3.078908 10.350342,5.073324 16.373935,5.463342 5.201438,0.336785 14.278936,-0.759241 12.486665,-4.667076 0,0 -9.867194,-3.086063 -14.948538,-4.653712 z"
         id="path1043-3-7-4"
         sodipodi:nodetypes="csccc" /><path
         style="fill:#333333;fill-opacity:1;stroke:none;stroke-width:0.988311;stroke-linecap:butt;stroke-linejoin:miter;stroke-dasharray:none;stroke-opacity:1"
         d="m 20.502253,16.582023 1.970385,0.791416 7.191603,-2.126751 -2.136543,-0.619828 z"
         id="path1044-3-3"
         sodipodi:nodetypes="ccccc" /><ellipse
         style="fill:#333333;fill-opacity:1;fill-rule:evenodd;stroke:none;stroke-width:1.14549;stroke-linecap:butt;stroke-linejoin:round;stroke-miterlimit:4;stroke-dasharray:none;stroke-opacity:1"
         id="path1084-6-1"
         cx="40.691895"
         cy="12.714824"
         rx="0.82147098"
         ry="0.55486339"
         transform="rotate(16.326934)" /><ellipse
         transform="rotate(16.326934)"
         ry="0.51545078"
         rx="0.84186798"
         cy="2.0510323"
         cx="56.539986"
         id="path1084-7-1-4"
         style="fill:#333333;fill-opacity:1;fill-rule:evenodd;stroke:none;stroke-width:1.21934;stroke-linecap:butt;stroke-linejoin:round;stroke-miterlimit:4;stroke-dasharray:none;stroke-opacity:1" /><path
         style="fill:none;fill-opacity:1;stroke:url(#linearGradient1388);stroke-width:0.494156;stroke-linecap:round;stroke-linejoin:round;stroke-miterlimit:4;stroke-dasharray:none;stroke-opacity:1"
         d="M 35.853469,25.236051 14.60913,16.873207 31.322347,12.352334"
         id="path4"
         sodipodi:nodetypes="ccc" /><path
         style="fill:none;stroke:#333333;stroke-width:0.741304;stroke-linecap:butt;stroke-linejoin:miter;stroke-miterlimit:4;stroke-dasharray:none;stroke-opacity:1"
         d="m 14.154401,21.297815 21.637734,8.475149"
         id="path1065-7-3"
         sodipodi:nodetypes="cc" /><path
         style="fill:none;fill-opacity:1;stroke:#333333;stroke-width:0.494156;stroke-linecap:round;stroke-linejoin:round;stroke-miterlimit:4;stroke-dasharray:none;stroke-opacity:1"
         d="M 57.580544,18.034693 35.853469,25.236051"
         id="path1063-2-9"
         sodipodi:nodetypes="cc" /><path
         sodipodi:nodetypes="scccccsss"
         id="path1029-3-0"
         d="m 34.347122,11.34374 -20.272422,5.381654 0.0049,8.087469 21.978709,9.199498 21.522194,-8.565331 v -7.412337 l -21.48773,-6.629849 c -0.547775,-0.169012 -1.193751,-0.207626 -1.745692,-0.06111 z"
         style="fill:none;stroke:#333333;stroke-width:0.494156;stroke-linecap:round;stroke-linejoin:round;stroke-miterlimit:4;stroke-dasharray:none;stroke-opacity:1" /><circle
         style="fill:#333333;fill-opacity:1;fill-rule:evenodd;stroke:none;stroke-width:0.988312;stroke-linejoin:round"
         id="path1"
         cx="31.079235"
         cy="30.121738"
         r="0.71398401" /><circle
         style="fill:#333333;fill-opacity:1;fill-rule:evenodd;stroke:none;stroke-width:0.988312;stroke-linejoin:round"
         id="path1-3"
         cx="15.845286"
         cy="23.903732"
         r="0.61639196" /><path
         style="fill:#333333;fill-opacity:1;stroke:none;stroke-width:0.988312px;stroke-linecap:butt;stroke-linejoin:miter;stroke-opacity:1"
         d="m 52.849292,21.148195 -4.703306,1.620336 v 4.543508 l 4.801089,-1.843852 z"
         id="path3"
         sodipodi:nodetypes="ccccc" /><path
         style="fill:none;stroke:#333333;stroke-width:0.494156;stroke-linecap:butt;stroke-linejoin:miter;stroke-dasharray:none;stroke-opacity:1"
         d="m 35.853469,25.236051 c -0.247824,3.448171 -0.180432,7.156303 0.204881,8.77631"
         id="path2"
         sodipodi:nodetypes="cc" /><path
         style="fill:none;fill-opacity:1;stroke:#333333;stroke-width:0.494156;stroke-linecap:butt;stroke-linejoin:miter;stroke-dasharray:none;stroke-opacity:1"
         d="m 37.440155,31.991567 0.03372,-6.06407 15.381047,-5.297292 -0.04619,5.481058 z"
         id="path5"
         sodipodi:nodetypes="ccccc" /></g><path
       id="path45"
       style="color:#000000;mix-blend-mode:soft-light;fill:#000000;fill-opacity:1;fill-rule:evenodd;stroke-linecap:round;stroke-linejoin:round;-inkscape-stroke:none"
       d="M 49.31747,1.438 C 47.569873,1.4389666 45.972191,1.637497 44.745204,1.9809688 44.13171,2.1527047 43.609109,2.3590054 43.194423,2.6157344 42.779739,2.8724632 42.437901,3.19154 42.331142,3.6547969 l 0.03906,-0.03125 a 0.52055205,0.52055205 0 0 1 0.326172,-0.2597657 l -0.326172,0.2597657 a 0.52055205,0.52055205 0 0 0 -0.08008,0.1484375 v 0.1328125 4.1777343 c -0.230327,0.2772361 -0.461447,0.5631629 -0.484371,0.9453126 a 0.52055205,0.52055205 0 0 0 -0.04102,0.037109 c -5.6e-4,0.00708 0.0102,0.018243 0.0098,0.025391 -4.6e-5,0.00479 -0.0059,0.00692 -0.0059,0.011719 0,0.00141 -4e-6,0.0025 0,0.00391 h -0.0059 c 0,0.073391 0.02091,0.1407431 0.0332,0.2109374 0.0078,0.04927 0.0086,0.1058277 0.01953,0.1503907 l 0.0039,-0.00195 c 0.0033,0.011212 0.0023,0.024079 0.0059,0.035156 a 0.52055205,0.52055205 0 0 0 0.15039,0.1386719 c 0.0525,0.281457 0.122203,0.5575142 0.314453,0.8632812 v 3.773438 c -0.23033,0.277235 -0.461451,0.563163 -0.484375,0.945312 a 0.52055205,0.52055205 0 0 0 -0.04102,0.03711 c -5.6e-4,0.0071 0.0102,0.01824 0.0098,0.02539 -4.6e-5,0.0048 -0.0059,0.0069 -0.0059,0.01172 0,0.0014 -4e-6,0.0025 0,0.0039 h -0.0059 c 0,0.07375 0.02079,0.140421 0.0332,0.210938 0.0077,0.04886 0.0087,0.10421 0.01953,0.148437 l 0.0039,-0.002 c 0.0033,0.01127 0.0023,0.02402 0.0059,0.03516 a 0.52055205,0.52055205 0 0 0 0.148437,0.138672 c 0.05234,0.281837 0.123889,0.556994 0.316406,0.863281 v 4.513672 c 0,1.464478 0.994441,2.575309 2.31836,3.246094 1.323918,0.670785 3.016491,0.984375 4.708984,0.984375 1.692494,0 3.383112,-0.31359 4.707031,-0.984375 1.323919,-0.670785 2.31836,-1.781616 2.31836,-3.246094 v -4.466797 c 0.21239,-0.339218 0.348047,-0.681741 0.40625,-1.015625 a 0.52055205,0.52055205 0 0 0 0.05859,-0.03125 c 0.0033,-0.01035 0.0047,-0.02266 0.0078,-0.0332 h 0.002 c 0.0017,-0.007 0.0022,-0.01631 0.0039,-0.02344 0.01494,-0.0539 0.02897,-0.108092 0.03711,-0.167969 h -0.0078 c 8.28e-4,-0.0092 0.01098,-0.02012 0.01172,-0.0293 a 0.52055205,0.52055205 0 0 0 -0.01367,-0.02734 c 0.0037,-0.04061 0.01563,-0.07419 0.01563,-0.117187 0,-0.419714 -0.273107,-0.720581 -0.521484,-1.019531 v -3.728516 c 0.212469,-0.339587 0.348156,-0.6814513 0.40625,-1.0156251 a 0.52055205,0.52055205 0 0 0 0.05859,-0.03125 c 0.0033,-0.01044 0.0047,-0.022568 0.0078,-0.033203 h 0.002 c 0.0016,-0.00636 3.89e-4,-0.015025 0.002,-0.021484 0.01517,-0.05443 0.03083,-0.1074453 0.03906,-0.1679687 h -0.0078 c 8.29e-4,-0.00924 0.01098,-0.02011 0.01172,-0.029297 a 0.52055205,0.52055205 0 0 0 -0.01367,-0.027344 c 0.0038,-0.041234 0.01563,-0.075444 0.01563,-0.1191406 0,-0.4197135 -0.273107,-0.72058 -0.521484,-1.0195313 V 3.9047969 3.7719844 A 0.52055205,0.52055205 0 0 0 56.270595,3.6196406 L 55.891689,3.3188594 a 0.52055205,0.52055205 0 0 1 0.378906,0.3007812 l 0.04297,0.035156 C 56.206584,3.1910248 55.861735,2.8706573 55.446376,2.6137812 55.031017,2.3569053 54.510094,2.1527164 53.895595,1.9809688 52.666596,1.6374737 51.067072,1.4381481 49.31747,1.438 Z"
       clip-path="url(#clipPath67)" /><g
       inkscape:label="Layer 1"
       id="layer1-6"
       transform="matrix(0.52050161,0,0,0.52050161,31.283375,0.68668639)"><path
         id="path23"
         style="fill:url(#linearGradient27);fill-rule:evenodd;stroke:#996600;stroke-width:2;stroke-linecap:round;stroke-linejoin:round;stroke-dasharray:none;stroke-opacity:1"
         d="M 36.088907,1 A 12.5,3.7419114 0 0 0 23.641641,4.484375 h -0.05273 v 0.2578125 8.1113285 c -0.605321,0.529246 -1,1.161058 -1,1.873047 0,0.158771 0.02357,0.312295 0.06055,0.46289 -0.04861,-0.153221 -0.07422,-0.305308 -0.07422,-0.455078 -0.04808,0.608151 0.17559,1.692255 1.013672,2.677734 V 24.75 c -0.605321,0.529246 -1,1.161059 -1,1.873047 0,0.158771 0.02357,0.312295 0.06055,0.46289 -0.04861,-0.153221 -0.07422,-0.305307 -0.07422,-0.455078 -0.04808,0.608152 0.17559,1.692256 1.013672,2.677735 v 8.675781 c 0,9.49999 25,9.49999 25,0 v -8.646484 c 0.661621,-0.801448 0.936118,-1.717891 1,-2.513672 -0.0117,0.0862 -0.03271,0.174388 -0.06055,0.261718 0.0371,-0.150595 0.06055,-0.304119 0.06055,-0.46289 0,-0.711913 -0.394462,-1.343835 -1,-1.873047 v -7.308594 c 0.661621,-0.801447 0.936118,-1.71789 1,-2.513672 -0.0117,0.0862 -0.03271,0.174388 -0.06055,0.261719 0.0371,-0.150595 0.06055,-0.304119 0.06055,-0.46289 0,-0.711914 -0.394462,-1.343835 -1,-1.873047 V 4.7421875 4.484375 h -0.0332 A 12.5,3.7419114 0 0 0 36.088907,1 Z" /><g
         id="g23"
         transform="translate(0.02119777,-0.515625)"><path
           style="fill:url(#linearGradient4);fill-rule:evenodd;stroke:none;stroke-width:1;stroke-linecap:round;stroke-linejoin:round;stroke-dasharray:none"
           d="m 23.567709,5 v 33.5 c 0,9.5 25,9.5 25,0 V 5 h -25"
           id="path2-2"
           sodipodi:nodetypes="ccccc" /><ellipse
           style="fill:#ffff99;fill-opacity:1;fill-rule:evenodd;stroke:none;stroke-width:1;stroke-linecap:round;stroke-linejoin:round;stroke-dasharray:none"
           id="path3-9"
           cx="36.067711"
           cy="5.2580886"
           rx="12.5"
           ry="3.7419114" /><path
           id="path3-6-5"
           style="color:#000000;fill:#996600;fill-rule:evenodd;stroke-linecap:round;stroke-linejoin:round;-inkscape-stroke:none"
           d="m 25.901693,19.503906 c 2.79554,1.04152 6.21657,1.574219 10.166016,1.574219 3.949446,0 7.603585,-0.692163 10.166016,-1.574219 2.562431,-0.882056 3.289845,-2.813921 3.347656,-4.25391 0,0.515251 -0.277421,1.050315 -0.912109,1.609375 -0.63469,0.55906 -1.609884,1.102306 -2.839844,1.560547 -2.45992,0.91648 -5.928658,1.501953 -9.761719,1.501953 -3.83306,0 -7.303751,-0.585473 -9.763672,-1.501953 -1.22996,-0.458241 -2.205155,-1.001487 -2.839844,-1.560547 -0.634689,-0.559056 -0.910156,-1.09412 -0.910156,-1.609371 -0.07774,0.983361 0.552116,3.212386 3.347656,4.253906 z"
           sodipodi:nodetypes="zszcssssscz" /><path
           id="path3-6"
           style="color:#000000;fill:url(#linearGradient8);fill-rule:evenodd;stroke-linecap:round;stroke-linejoin:round;-inkscape-stroke:none"
           d="m 23.567709,13.369141 c -0.605322,0.529247 -1,1.161058 -1,1.873047 0,0.794163 0.48729,1.489313 1.214844,2.052734 0.727553,0.56342 1.723533,1.036604 2.935547,1.433594 C 29.142126,19.522494 32.433611,20 36.067709,20 c 3.634099,0 6.923629,-0.477506 9.347656,-1.271484 1.212013,-0.39699 2.207994,-0.870174 2.935547,-1.433594 0.727554,-0.563421 1.216797,-1.258571 1.216797,-2.052734 0,-0.711914 -0.394461,-1.343834 -1,-1.873047 v 1.873047 0.142578 h -0.01172 c -0.05334,0.343725 -0.300817,0.719867 -0.816406,1.11914 -0.588115,0.45544 -1.4962,0.899866 -2.636719,1.273438 C 42.821826,18.524487 39.613299,19 36.067709,19 32.52212,19 29.311638,18.524487 27.0306,17.777344 25.89008,17.403772 24.981997,16.959346 24.393881,16.503906 23.878293,16.104633 23.632395,15.728491 23.579428,15.384766 h -0.01172 v -0.142578 z" /><path
           id="path15"
           style="color:#000000;fill:#996600;fill-rule:evenodd;stroke-linecap:round;stroke-linejoin:round;-inkscape-stroke:none"
           d="m 25.901693,31.400443 c 2.79554,1.04152 6.21657,1.574219 10.166016,1.574219 3.949446,0 7.603585,-0.692163 10.166016,-1.574219 2.562431,-0.882056 3.289845,-2.813921 3.347656,-4.25391 0,0.515251 -0.277421,1.050315 -0.912109,1.609375 -0.63469,0.55906 -1.609884,1.102306 -2.839844,1.560547 -2.45992,0.91648 -5.928658,1.501953 -9.761719,1.501953 -3.83306,0 -7.303751,-0.585473 -9.763672,-1.501953 -1.22996,-0.458241 -2.205155,-1.001487 -2.839844,-1.560547 -0.634689,-0.559056 -0.910156,-1.09412 -0.910156,-1.609371 -0.07774,0.983361 0.552116,3.212386 3.347656,4.253906 z"
           sodipodi:nodetypes="zszcssssscz" /><path
           id="path16"
           style="color:#000000;fill:url(#linearGradient16);fill-rule:evenodd;stroke-linecap:round;stroke-linejoin:round;-inkscape-stroke:none"
           d="m 23.567709,25.265678 c -0.605322,0.529247 -1,1.161058 -1,1.873047 0,0.794163 0.48729,1.489313 1.214844,2.052734 0.727553,0.56342 1.723533,1.036604 2.935547,1.433594 2.424026,0.793978 5.715511,1.271484 9.349609,1.271484 3.634099,0 6.923629,-0.477506 9.347656,-1.271484 1.212013,-0.39699 2.207994,-0.870174 2.935547,-1.433594 0.727554,-0.563421 1.216797,-1.258571 1.216797,-2.052734 0,-0.711914 -0.394461,-1.343834 -1,-1.873047 v 1.873047 0.142578 h -0.01172 c -0.05334,0.343725 -0.300817,0.719867 -0.816406,1.11914 -0.588115,0.45544 -1.4962,0.899866 -2.636719,1.273438 -2.281039,0.747143 -5.489566,1.222656 -9.035156,1.222656 -3.545589,0 -6.756071,-0.475513 -9.037109,-1.222656 -1.14052,-0.373572 -2.048603,-0.817998 -2.636719,-1.273438 -0.515588,-0.399273 -0.761486,-0.775415 -0.814453,-1.11914 h -0.01172 v -0.142578 z" /></g></g><path
       id="ellipse1"
       style="mix-blend-mode:soft-light;fill:#000000;fill-opacity:1;fill-rule:evenodd;stroke:none;stroke-width:0.348841;stroke-linecap:round;stroke-linejoin:round"
       d="M 23.782553,23.297 A 10.465245,10.465245 0 0 0 13.317709,33.761844 10.465245,10.465245 0 0 0 23.782553,44.226687 10.465245,10.465245 0 0 0 34.247397,33.761844 10.465245,10.465245 0 0 0 23.782553,23.297 Z" /><g
       inkscape:label="Layer 1"
       id="layer1-60"
       transform="matrix(0.465122,0,0,0.465122,6.7221911,24.045941)"><ellipse
         style="opacity:1;fill:#ffffff;fill-opacity:1;fill-rule:evenodd;stroke:none;stroke-width:0.75;stroke-linecap:round;stroke-linejoin:round"
         id="path8"
         cx="35.315498"
         cy="21.590178"
         rx="13.414618"
         ry="18.786867" /><g
         transform="matrix(1.5517241,0,0,1.5517241,-57.152323,-11.414193)"
         id="g11"
         style="stroke-width:1.00018;stroke-dasharray:none"><g
           id="g10"
           transform="translate(26.007162)"
           style="fill:#000000;fill-opacity:1;stroke-width:1.00018;stroke-dasharray:none"><path
             id="path9"
             style="opacity:1;fill:#000000;fill-opacity:1;fill-rule:evenodd;stroke:none;stroke-width:1.00018;stroke-linecap:round;stroke-miterlimit:11.1;stroke-dasharray:none;stroke-opacity:1;filter:url(#filter12);stop-color:#000000"
             d="m 34.068359,8.5 c -2.838174,2e-7 -11.593569,9.433141 -11.593569,13.484411 -10e-7,3.656385 7.401384,13.19622 11.753978,13.19622 3.206275,1e-6 11.892014,-8.919782 11.892014,-12.798968 0,-2.519838 -7.051704,-13.8816633 -12.052423,-13.881663 z m 0.14662,3.097309 c 1.283148,0 2.565191,1.09932 2.565191,3.299002 0,2.932909 -2.565191,11.732162 -2.565191,11.732162 0,0 -2.56645,-8.799253 -2.56645,-11.732162 0,-2.199682 1.283302,-3.299002 2.56645,-3.299002 z m -0.0038,16.053212 c 1.415622,-2.23e-4 2.563461,1.147052 2.563932,2.562674 2.23e-4,1.416113 -1.147819,2.564155 -2.563932,2.563932 -1.415622,-4.71e-4 -2.562897,-1.14831 -2.562674,-2.563932 4.71e-4,-1.415131 1.147543,-2.562203 2.562674,-2.562674 z"
             sodipodi:nodetypes="ssssssscssccccc" /><path
             sodipodi:nodetypes="cscsc"
             id="path10"
             d="M 47.560547,21.919918 C 47.51624,14.507746 41.490864,8.5 34.068359,8.5 c -7.449923,0 -13.5,6.050077 -13.5,13.5 0.364964,-4.757309 5.151453,-12.1938491 13.534173,-12.1938491 7.350455,0 13.219473,5.5263991 13.458015,12.1137671 z"
             style="color:#000000;font-style:normal;font-variant:normal;font-weight:normal;font-stretch:normal;font-size:medium;line-height:normal;font-family:sans-serif;font-variant-ligatures:normal;font-variant-position:normal;font-variant-caps:normal;font-variant-numeric:normal;font-variant-alternates:normal;font-variant-east-asian:normal;font-feature-settings:normal;font-variation-settings:normal;text-indent:0;text-align:start;text-decoration:none;text-decoration-line:none;text-decoration-style:solid;text-decoration-color:#000000;letter-spacing:normal;word-spacing:normal;text-transform:none;writing-mode:lr-tb;direction:ltr;text-orientation:mixed;dominant-baseline:auto;baseline-shift:baseline;text-anchor:start;white-space:normal;shape-padding:0;shape-margin:0;inline-size:0;clip-rule:nonzero;display:inline;overflow:visible;visibility:visible;opacity:1;isolation:auto;mix-blend-mode:normal;color-interpolation:sRGB;color-interpolation-filters:linearRGB;solid-color:#000000;solid-opacity:1;fill:#000000;fill-opacity:1;fill-rule:evenodd;stroke:none;stroke-width:1.00018;stroke-linecap:round;stroke-linejoin:miter;stroke-miterlimit:11.1;stroke-dasharray:none;stroke-dashoffset:0;stroke-opacity:1;color-rendering:auto;image-rendering:auto;shape-rendering:auto;text-rendering:auto;enable-background:accumulate;stop-color:#000000;stop-opacity:1" /></g></g><g
         transform="matrix(1.5517241,0,0,1.5517241,-58.151923,-12.413793)"
         id="g1188"><g
           id="g1181"
           transform="translate(26.007162)"><path
             id="path1132"
             style="opacity:1;fill:url(#radialGradient1141);fill-opacity:1;fill-rule:evenodd;stroke:none;stroke-width:1;stroke-linecap:round;stroke-miterlimit:11.1;stroke-dasharray:none;stroke-opacity:1;stop-color:#000000"
             d="m 34.067713,8.0000001 a 14.5,14.5 0 0 0 -14.5,14.4999999 14.5,14.5 0 0 0 14.5,14.500001 A 14.5,14.5 0 0 0 48.567714,22.5 14.5,14.5 0 0 0 34.067713,8.0000001 Z m 0.147266,3.5973089 c 1.283148,0 2.565191,1.09932 2.565191,3.299002 0,2.932909 -2.565191,11.732162 -2.565191,11.732162 0,0 -2.56645,-8.799253 -2.56645,-11.732162 0,-2.199682 1.283302,-3.299002 2.56645,-3.299002 z m -0.0038,16.053212 a 2.5635276,2.5635276 0 0 1 2.563932,2.562674 2.5635276,2.5635276 0 0 1 -2.563932,2.563932 2.5635276,2.5635276 0 0 1 -2.562674,-2.563932 2.5635276,2.5635276 0 0 1 2.562674,-2.562674 z" /><path
             sodipodi:nodetypes="cscsc"
             id="path1161"
             d="M 47.560547,21.919918 C 47.51624,14.507746 41.490864,8.5 34.068359,8.5 c -7.449923,0 -13.5,6.050077 -13.5,13.5 0.364964,-4.757309 5.151453,-12.1938491 13.534173,-12.1938491 7.350455,0 13.219473,5.5263991 13.458015,12.1137671 z"
             style="color:#000000;font-style:normal;font-variant:normal;font-weight:normal;font-stretch:normal;font-size:medium;line-height:normal;font-family:sans-serif;font-variant-ligatures:normal;font-variant-position:normal;font-variant-caps:normal;font-variant-numeric:normal;font-variant-alternates:normal;font-variant-east-asian:normal;font-feature-settings:normal;font-variation-settings:normal;text-indent:0;text-align:start;text-decoration:none;text-decoration-line:none;text-decoration-style:solid;text-decoration-color:#000000;letter-spacing:normal;word-spacing:normal;text-transform:none;writing-mode:lr-tb;direction:ltr;text-orientation:mixed;dominant-baseline:auto;baseline-shift:baseline;text-anchor:start;white-space:normal;shape-padding:0;shape-margin:0;inline-size:0;clip-rule:nonzero;display:inline;overflow:visible;visibility:visible;opacity:1;isolation:auto;mix-blend-mode:normal;color-interpolation:sRGB;color-interpolation-filters:linearRGB;solid-color:#000000;solid-opacity:1;vector-effect:none;fill:url(#linearGradient1169);fill-opacity:1;fill-rule:evenodd;stroke:none;stroke-width:1;stroke-linecap:round;stroke-linejoin:miter;stroke-miterlimit:11.1;stroke-dasharray:none;stroke-dashoffset:0;stroke-opacity:1;color-rendering:auto;image-rendering:auto;shape-rendering:auto;text-rendering:auto;enable-background:accumulate;stop-color:#000000;stop-opacity:1" /></g></g></g></g></svg>
