<?xml version="1.0" encoding="UTF-8"?>
<svg width="16" height="16" version="1.1" viewBox="0 0 16 16" xmlns="http://www.w3.org/2000/svg" xmlns:cc="http://creativecommons.org/ns#" xmlns:dc="http://purl.org/dc/elements/1.1/" xmlns:rdf="http://www.w3.org/1999/02/22-rdf-syntax-ns#" xmlns:xlink="http://www.w3.org/1999/xlink"><defs><linearGradient id="linearGradient1516" x1="-8.4964" x2="-8.4964" y1="3.4493" y2="5.4196" gradientTransform="matrix(.32267 0 0 .32267 25.309 1.5667)" gradientUnits="userSpaceOnUse"><stop stop-color="#0069cf" offset="0"/><stop stop-color="#0086ec" offset="1"/></linearGradient><linearGradient id="linearGradient9148" x1="-50.932" x2="-50.932" y1="28" y2="16" gradientTransform="matrix(.32267 0 0 .32267 39.023 -1.3374)" gradientUnits="userSpaceOnUse"><stop stop-color="#80ccff" offset="0"/><stop stop-color="#80ccff" offset="1"/></linearGradient><linearGradient id="linearGradient18731" x1="-39.932" x2="-63.932" y1="29" y2="20.5" gradientTransform="matrix(.32267 0 0 .32267 39.023 -1.3374)" gradientUnits="userSpaceOnUse"><stop stop-color="#33a6f2" offset="0"/><stop stop-color="#58ade9" offset="1"/></linearGradient><linearGradient id="gradient5-6-2" x1="-819.2" x2="819.2" gradientTransform="matrix(0 .01009 .017745 0 -65.603 159.54)" gradientUnits="userSpaceOnUse"><stop stop-color="#99c" offset="0"/><stop stop-color="#669" offset="1"/></linearGradient><radialGradient id="gradient6-2-5" cx="0" cy="0" r="819.2" gradientTransform="matrix(.027052 0 0 .027052 -73.518 157.36)" gradientUnits="userSpaceOnUse"><stop stop-color="#fff" offset="0"/><stop stop-color="#ddd" offset=".28235"/><stop stop-color="#99c" offset="1"/></radialGradient><linearGradient id="gradient7-7-8" x1="-819.2" x2="819.2" gradientTransform="matrix(-.0051321 -.0049581 -.0060889 .0062629 -61.166 157.36)" gradientUnits="userSpaceOnUse"><stop stop-color="#669" offset="0"/><stop stop-color="#99c" offset="1"/></linearGradient><linearGradient id="gradient8-0-3" x1="-819.2" x2="819.2" gradientTransform="matrix(-.0023486 .0093943 .0070457 .0017397 -61.775 155.71)" gradientUnits="userSpaceOnUse"><stop stop-color="#339" offset="0"/><stop stop-color="#66c" offset=".27451"/><stop stop-color="#999" offset="1"/></linearGradient><linearGradient id="gradient13-9-9" x1="-819.2" x2="819.2" gradientTransform="matrix(-.0018267 .0052191 .0044362 .0014787 -63.906 157.88)" gradientUnits="userSpaceOnUse"><stop stop-color="#99c" offset="0"/><stop stop-color="#eee" offset="1"/></linearGradient><linearGradient id="gradient9-5-9" x1="-819.2" x2="819.2" gradientTransform="matrix(-.015396 -.014874 -.016614 .017136 -63.819 139.36)" gradientUnits="userSpaceOnUse"><stop stop-color="#66c" offset="0"/><stop stop-color="#999" offset="1"/></linearGradient><radialGradient id="gradient10-2-8" cx="0" cy="0" r="819.2" gradientTransform="matrix(.035142 0 0 .035142 -64.037 125.66)" gradientUnits="userSpaceOnUse"><stop stop-color="#cff" offset="0"/><stop stop-color="#cff" offset=".094118"/><stop stop-color="#09f" offset="1"/></radialGradient><linearGradient id="gradient11-3-3" x1="-819.2" x2="819.2" gradientTransform="matrix(-.010525 -.010177 -.015831 .01644 -61.862 140.27)" gradientUnits="userSpaceOnUse"><stop stop-color="#99c" offset="0"/><stop stop-color="#fff" offset="1"/></linearGradient><linearGradient id="gradient12-2-0" x1="-819.2" x2="819.2" gradientTransform="matrix(-.012265 .0065238 .00078286 .0015657 -61.906 149.23)" gradientUnits="userSpaceOnUse"><stop stop-color="#66c" offset="0"/><stop stop-color="#99c" offset=".078431"/><stop stop-color="#fff" offset="1"/></linearGradient><clipPath id="clipPath35"><path d="m44.025 0.0078125c-0.09577 0.010198-0.19632 0.030575-0.30273 0.0625l-23.881 4.2148c-1.3905 0.28378-1.8856 1.0356-1.4883 2.2559 0.24462 0.67952 2.0812 9.2054 5.4238 25.141-0.3104 0.15277-0.61554 0.31316-0.91211 0.48438-2.781 1.5608-4.1719 3.4613-4.1719 5.7031 0 2.2419 1.3908 4.1589 4.1719 5.748 2.7527 1.5892 6.1004 2.3828 10.045 2.3828 3.9161 0 7.2658-0.79365 10.047-2.3828 2.7527-1.5892 4.1289-3.5062 4.1289-5.748 0-2.2418-1.3763-4.1423-4.1289-5.7031-0.41072-0.2347-0.83601-0.45036-1.2715-0.65039-0.12404-1.5054-0.28831-2.9373-0.49219-4.2949l5.7227-2.4609c0.62431-0.28378 0.89373-0.8372 0.80859-1.6602l-2.4688-21.709c-0.14898-0.99323-0.56004-1.4542-1.2305-1.3828z" fill="url(#linearGradient35)" stroke-width=".85134"/></clipPath><linearGradient id="linearGradient35" x1="-819.2" x2="819.2" gradientTransform="matrix(0 .0098755 .017367 0 32.867 37.913)" gradientUnits="userSpaceOnUse" xlink:href="#gradient5-6-2"/><linearGradient id="linearGradient36" x1="-819.2" x2="819.2" gradientTransform="matrix(0 .01009 .017745 0 -65.603 159.54)" gradientUnits="userSpaceOnUse" xlink:href="#gradient5-6-2"/></defs><metadata><rdf:RDF><cc:Work rdf:about=""><dc:format>image/svg+xml</dc:format><dc:type rdf:resource="http://purl.org/dc/dcmitype/StillImage"/></cc:Work></rdf:RDF></metadata><g transform="translate(-12.568)"><g transform="matrix(.31915 0 0 .31915 40.192 -38.553)" fill-rule="evenodd" stroke-width=".86984"><path d="m-80.085 159.49q0 3.4359 4.2622 5.8714 4.2187 2.4356 10.264 2.4356 6.0019 0 10.264-2.4356 4.2187-2.4356 4.2187-5.8714 0-3.4359-4.2187-5.828-4.2622-2.4356-10.264-2.4356-6.0454 0-10.264 2.4356-4.2622 2.3921-4.2622 5.828" fill="url(#linearGradient36)"/><path d="m-79.129 159.36q0 3.1749 3.9143 5.393 3.9578 2.2616 9.5248 2.2616 5.567 0 9.5248-2.2616 3.9578-2.2181 3.9578-5.393 0-3.1314-3.9578-5.393-3.9578-2.2181-9.5248-2.2181-5.567 0-9.5248 2.2181-3.9143 2.2616-3.9143 5.393" fill="url(#gradient6-2-5)"/><path d="m-57.382 148.1-10.308 3.3924c0.95683 1.8847 1.7252 3.7548 2.3051 5.6105l1.5222 6.1759 2.1311 1.3048c2.7545-0.84085 4.5667-1.7252 5.4365-2.653 0.02007-0.38136 0.01235-0.7438 0-1.2178" fill="url(#gradient7-7-8)"/><path d="m-57.165 148.14-9.1334 3.5664c1.8267 3.3634 3.0879 7.0022 3.7838 10.917l0.78286 0.69588c2.6095-0.92783 4.4797-1.7397 5.4365-2.6095 0-4.7262-0.28995-8.9159-0.86984-12.569" fill="url(#gradient8-0-3)"/><path d="m-64.167 157.41 1.1743 5.1321 1.2613 0.78286q-0.39143-4.6972-1.9137-9.8727-1.1743-0.5654-2.3921-1.0873 1.4352 3.3924 1.8702 5.0451" fill="url(#gradient13-9-9)"/><path d="m-73.083 155.49 21.833-9.3943q0.95683-0.43492 0.82635-1.6962l-2.5225-22.181q-0.26095-1.7397-1.5657-1.3483l-24.399 4.3057q-2.1311 0.43493-1.5222 2.3051 0.39143 1.0873 5.9584 27.661 0.39143 0.69588 1.3918 0.34794" fill="url(#gradient9-5-9)"/><path d="m-72.561 153.1 20.746-8.307-2.6095-20.006-22.138 4.6102 4.0013 23.703" fill="url(#gradient10-2-8)"/><path d="m-73.431 154.41-4.9146-26.661q0.26095-0.86984 0.60889-1.0003l23.094-4.2622q0.69588-1.0438-0.47841-0.78286l-23.486 4.3492q-0.78286 0.26095-0.86984 1.4352l5.4365 27.357q0.04349 0.34793 0.43492 0.21746 0.34794-0.087 0.17397-0.65239" fill="url(#gradient11-3-3)"/><path d="m-72.561 153.1q0 0.5654 0.5654 0.34794l20.833-8.5245-0.65238-0.17397-20.746 8.3505" fill="url(#gradient12-2-0)"/></g><path transform="matrix(.32609 0 0 .32609 9.0372 .00022395)" d="m29.302 9.096c-0.98953 0-1.4844 0.98898-1.4844 1.9785v13.5a0.50005 0.50005 0 0 0 0.5 0.5h26a0.50005 0.50005 0 0 0 0.5-0.5v-13.5c0-0.98953-0.49484-1.9785-1.4844-1.9785z" clip-path="url(#clipPath35)" color="#000000" fill-rule="evenodd" stroke-linejoin="round" style="-inkscape-stroke:none;mix-blend-mode:soft-light"/><path d="m27.068 3.5v4.5h-8.5v-4.5" fill="url(#linearGradient9148)" fill-rule="evenodd" stop-color="#000000" stroke="url(#linearGradient18731)" stroke-linejoin="round" stroke-width=".32609"/><path d="m18.405 3.5h8.8143c0-0.32267-0.16134-1-0.48401-1h-7.8463c-0.32267 0-0.48401 0.67733-0.48401 1z" fill="url(#linearGradient1516)"/><g fill="#fffffd" fill-rule="evenodd"><rect x="19.568" y="4" width="1" height="1" stop-color="#000000"/><rect x="21.568" y="4" width="1" height="1" stop-color="#000000"/><rect x="23.568" y="4" width="1" height="1" stop-color="#000000"/><rect x="25.568" y="4" width="1" height="1" stop-color="#000000"/><rect x="19.568" y="6" width="1" height="1" stop-color="#000000"/><rect x="21.568" y="6" width="1" height="1" stop-color="#000000"/><rect x="23.568" y="6" width="1" height="1" stop-color="#000000"/><rect x="25.568" y="6" width="1" height="1" stop-color="#000000"/></g></g></svg>
