<?xml version="1.0" encoding="UTF-8" standalone="no"?>
<svg
   width="48"
   height="48"
   viewBox="0 0 48 48"
   version="1.1"
   id="svg8"
   inkscape:version="1.3.2 (1:1.3.2+202311252150+091e20ef0f)"
   sodipodi:docname="input-caps-on.svg"
   inkscape:export-filename="input-caps-on.png"
   inkscape:export-xdpi="96"
   inkscape:export-ydpi="96"
   xml:space="preserve"
   xmlns:inkscape="http://www.inkscape.org/namespaces/inkscape"
   xmlns:sodipodi="http://sodipodi.sourceforge.net/DTD/sodipodi-0.dtd"
   xmlns:xlink="http://www.w3.org/1999/xlink"
   xmlns="http://www.w3.org/2000/svg"
   xmlns:svg="http://www.w3.org/2000/svg"
   xmlns:rdf="http://www.w3.org/1999/02/22-rdf-syntax-ns#"
   xmlns:cc="http://creativecommons.org/ns#"
   xmlns:dc="http://purl.org/dc/elements/1.1/"><defs
     id="defs2"><linearGradient
       inkscape:collect="always"
       id="linearGradient31452"><stop
         style="stop-color:#99ccff;stop-opacity:1"
         offset="0"
         id="stop31448" /><stop
         style="stop-color:#ffffff;stop-opacity:1"
         offset="1"
         id="stop31450" /></linearGradient><linearGradient
       gradientTransform="matrix(5.0438815e-5,-0.00757308,-0.01201372,7.5053475e-4,-56.750393,33.699243)"
       gradientUnits="userSpaceOnUse"
       id="gradient4-5-3"
       spreadMethod="pad"
       x1="-819.20001"
       x2="819.20001"><stop
         offset="0.0"
         stop-color="#9999ff"
         id="stop210830-3-6" /><stop
         offset="1.0"
         stop-color="#666699"
         id="stop210832-5-7" /></linearGradient><linearGradient
       gradientTransform="matrix(0.03606497,0.00208368,-0.00132339,-0.01034345,-47.801142,3.4214828)"
       gradientUnits="userSpaceOnUse"
       id="gradient0-3-5"
       spreadMethod="pad"
       x1="-819.20001"
       x2="819.20001"><stop
         offset="0.0"
         stop-color="#cccccc"
         id="stop210806-6-3" /><stop
         offset="1.0"
         stop-color="#ffffff"
         id="stop210808-7-5" /></linearGradient><linearGradient
       gradientTransform="matrix(0.00735177,0.00756672,0.00517651,-0.00586927,-54.562869,28.259585)"
       gradientUnits="userSpaceOnUse"
       id="gradient1-6-6"
       spreadMethod="pad"
       x1="-819.20001"
       x2="819.20001"><stop
         offset="0.0"
         stop-color="#ffffff"
         id="stop210811-2-2" /><stop
         offset="0.4235294117647059"
         stop-color="#ccccff"
         id="stop210813-9-9" /><stop
         offset="1.0"
         stop-color="#9999cc"
         id="stop210815-1-1" /></linearGradient><linearGradient
       gradientTransform="matrix(0.00540906,-2.8934404e-4,-5.8748674e-5,-0.00210673,-54.536428,25.896548)"
       gradientUnits="userSpaceOnUse"
       id="gradient2-2-2"
       spreadMethod="pad"
       x1="-819.20001"
       x2="819.20001"><stop
         offset="0.0"
         stop-color="#ffffff"
         id="stop210818-7-7" /><stop
         offset="1.0"
         stop-color="#ccccff"
         id="stop210820-0-0" /></linearGradient><linearGradient
       gradientTransform="matrix(4.5239205e-4,-0.00364456,-0.00130967,-5.5815783e-5,-51.880136,35.887255)"
       gradientUnits="userSpaceOnUse"
       id="gradient3-9-9"
       spreadMethod="pad"
       x1="-819.20001"
       x2="819.20001"><stop
         offset="0.0"
         stop-color="#ffcc66"
         id="stop210823-3-3" /><stop
         offset="0.7490196078431373"
         stop-color="#ffff99"
         id="stop210825-6-6" /><stop
         offset="1.0"
         stop-color="#9999ff"
         id="stop210827-0-0" /></linearGradient><linearGradient
       gradientTransform="matrix(0.00450232,0.00472216,0.00273049,-0.00307711,-55.559198,28.40279)"
       gradientUnits="userSpaceOnUse"
       id="gradient5-6-6"
       spreadMethod="pad"
       x1="-819.20001"
       x2="819.20001"><stop
         offset="0.0"
         stop-color="#9999cc"
         id="stop210835-2-2" /><stop
         offset="0.23529411764705882"
         stop-color="#9999cc"
         id="stop210837-6-6" /><stop
         offset="1.0"
         stop-color="#6666cc"
         id="stop210839-1-1" /></linearGradient><linearGradient
       gradientTransform="matrix(0.00677552,-4.0439731e-4,5.4838153e-5,-0.00244847,-55.445856,27.776352)"
       gradientUnits="userSpaceOnUse"
       id="gradient6-8-8"
       spreadMethod="pad"
       x1="-819.20001"
       x2="819.20001"><stop
         offset="0.0"
         stop-color="#ffffff"
         id="stop210842-7-7" /><stop
         offset="1.0"
         stop-color="#ccccff"
         id="stop210844-9-9" /></linearGradient><linearGradient
       gradientTransform="matrix(0.00170576,-0.00284847,-0.00170918,-0.00113734,-53.071576,40.899007)"
       gradientUnits="userSpaceOnUse"
       id="gradient7-2-2"
       spreadMethod="pad"
       x1="-819.20001"
       x2="819.20001"><stop
         offset="0.0"
         stop-color="#ffff99"
         id="stop210847-0-0" /><stop
         offset="0.4470588235294118"
         stop-color="#ffcc66"
         id="stop210849-2-2" /><stop
         offset="1.0"
         stop-color="#996600"
         id="stop210851-3-3" /></linearGradient><linearGradient
       gradientTransform="matrix(0.00364749,0.00386879,0.00216157,-0.00250722,-54.820883,26.181493)"
       gradientUnits="userSpaceOnUse"
       id="gradient8-7-7"
       spreadMethod="pad"
       x1="-819.20001"
       x2="819.20001"><stop
         offset="0.0"
         stop-color="#9999cc"
         id="stop210854-5-5" /><stop
         offset="0.23529411764705882"
         stop-color="#9999cc"
         id="stop210856-9-9" /><stop
         offset="1.0"
         stop-color="#6666cc"
         id="stop210858-2-2" /></linearGradient><linearGradient
       gradientTransform="matrix(3.9559864e-4,-0.00347369,-0.00204994,-1.1212038e-4,-62.473285,33.220164)"
       gradientUnits="userSpaceOnUse"
       id="gradient9-2-2"
       spreadMethod="pad"
       x1="-819.20001"
       x2="819.20001"><stop
         offset="0.0"
         stop-color="#ffcc66"
         id="stop210861-8-8" /><stop
         offset="0.7490196078431373"
         stop-color="#ffff99"
         id="stop210863-9-9" /><stop
         offset="1.0"
         stop-color="#9999ff"
         id="stop210865-7-7" /></linearGradient><linearGradient
       gradientTransform="matrix(-5.9726305e-5,-0.00324554,-0.00193586,1.1554209e-4,-63.921028,38.146727)"
       gradientUnits="userSpaceOnUse"
       id="gradient10-3-3"
       spreadMethod="pad"
       x1="-819.20001"
       x2="819.20001"><stop
         offset="0.0"
         stop-color="#ffff99"
         id="stop210868-6-6" /><stop
         offset="0.4470588235294118"
         stop-color="#ffcc66"
         id="stop210870-1-1" /><stop
         offset="1.0"
         stop-color="#996600"
         id="stop210872-2-2" /></linearGradient><linearGradient
       inkscape:collect="always"
       xlink:href="#linearGradient31452"
       id="linearGradient31454"
       x1="254.9259"
       y1="120.71114"
       x2="125.27048"
       y2="68.308014"
       gradientUnits="userSpaceOnUse"
       gradientTransform="matrix(0.31279256,0,0,0.31279256,-23.671219,-18.257548)" /><linearGradient
       id="linearGradient17"
       inkscape:collect="always"><stop
         style="stop-color:#9999cc;stop-opacity:1"
         offset="0"
         id="stop16" /><stop
         style="stop-color:#ffffff;stop-opacity:1;"
         offset="1"
         id="stop17" /></linearGradient><linearGradient
       id="linearGradient12"
       inkscape:collect="always"><stop
         style="stop-color:#ffffff;stop-opacity:1;"
         offset="0"
         id="stop12" /><stop
         style="stop-color:#9999ff;stop-opacity:1"
         offset="1"
         id="stop13" /></linearGradient><linearGradient
       inkscape:collect="always"
       xlink:href="#linearGradient12"
       id="linearGradient13"
       x1="26.592098"
       y1="21.303751"
       x2="32.431908"
       y2="33.116798"
       gradientUnits="userSpaceOnUse" /><linearGradient
       inkscape:collect="always"
       xlink:href="#linearGradient17"
       id="linearGradient22"
       x1="13.09387"
       y1="30.124086"
       x2="26.704996"
       y2="30.124086"
       gradientUnits="userSpaceOnUse"
       gradientTransform="translate(-0.21341324,0.26604462)" /></defs><sodipodi:namedview
     inkscape:snap-object-midpoints="false"
     inkscape:snap-bbox-midpoints="false"
     showguides="false"
     id="base"
     pagecolor="#ffffff"
     bordercolor="#666666"
     borderopacity="1.0"
     inkscape:pageopacity="0.0"
     inkscape:pageshadow="2"
     inkscape:zoom="20.236921"
     inkscape:cx="1.2106585"
     inkscape:cy="39.58112"
     inkscape:document-units="px"
     inkscape:current-layer="layer1"
     inkscape:document-rotation="0"
     showgrid="true"
     units="px"
     inkscape:window-width="3840"
     inkscape:window-height="2057"
     inkscape:window-x="0"
     inkscape:window-y="0"
     inkscape:window-maximized="1"
     inkscape:snap-bbox="true"
     inkscape:bbox-nodes="true"
     fit-margin-top="0"
     fit-margin-left="0"
     fit-margin-right="0"
     fit-margin-bottom="0"
     inkscape:bbox-paths="false"
     inkscape:snap-global="true"
     inkscape:pagecheckerboard="0"
     inkscape:showpageshadow="2"
     inkscape:deskcolor="#d1d1d1"><inkscape:grid
       type="xygrid"
       id="grid1504"
       originx="0"
       originy="0"
       spacingy="1"
       spacingx="1"
       units="px"
       visible="true" /><inkscape:grid
       type="xygrid"
       id="grid1507"
       spacingx="0.5"
       spacingy="0.5"
       originx="0"
       originy="0"
       units="px"
       visible="true" /></sodipodi:namedview><metadata
     id="metadata5"><rdf:RDF><cc:Work
         rdf:about=""><dc:format>image/svg+xml</dc:format><dc:type
           rdf:resource="http://purl.org/dc/dcmitype/StillImage" /></cc:Work></rdf:RDF></metadata><g
     inkscape:label="Layer 1"
     inkscape:groupmode="layer"
     id="layer1"
     transform="translate(-12.567709)"><g
       id="g22"
       transform="translate(0,8.525141)"><path
         sodipodi:nodetypes="ccccsssscc"
         id="path17"
         d="M 12.754701,25.604564 C 20.971918,19.65084 43.009068,19.656649 50.067709,19 c 2.093435,0.445283 7.471545,3.425702 8.313008,5.295621 v 3.178862 L 55.567709,27.5 c -2.612716,0.0237 -5.130128,1.039706 -6.699343,2.510275 C 46.116095,32.589528 44.067709,34 38.7273,35.04736 32.963628,36.17773 25.061143,36.085627 20.567709,34.5 18.281608,33.693289 13.970148,29.905376 12.754701,28.783425 Z"
         style="opacity:1;fill:url(#linearGradient13);fill-opacity:1;stroke:none;stroke-width:0.373984;stroke-linecap:butt;stroke-linejoin:round;stroke-miterlimit:4;stroke-dasharray:none;stroke-opacity:1" /><path
         style="opacity:1;fill:url(#linearGradient22);fill-opacity:1;stroke:none;stroke-width:1px;stroke-linecap:butt;stroke-linejoin:miter;stroke-opacity:1"
         d="m 12.880457,25.734491 c 1.685294,1.685294 5.733396,5.174725 9.454425,6.878331 2.480412,1.135611 11.162545,1.890867 17.626342,0.158898 3.737345,-1.001419 6.554098,-2.600798 8.673623,-4.603465 -1.705877,2.457923 -4.295661,4.350107 -7.963472,5.721967 -4.275105,1.599005 -12.642354,1.788321 -18.172494,0.481269 -3.477789,-0.821978 -7.080842,-3.962121 -9.652748,-6.14465 z"
         id="path2-5"
         sodipodi:nodetypes="csscsscc" /><path
         style="opacity:1;fill:#7e7e7e;fill-opacity:1;stroke:none;stroke-width:0.186992px;stroke-linecap:butt;stroke-linejoin:miter;stroke-opacity:1"
         d="m 13.30768,18.514357 c 0,2.046709 1.597427,2.789394 3.467346,2.789394 0.747968,0 7.130133,-0.362461 7.438873,-0.343336 0.503276,0.03118 1.101148,0.283084 1.101148,0.283084 l 1.796018,-0.301002 -3.043356,-1.134681 -3.365854,0.186992 -4.487805,0.373984 z"
         id="path1160"
         sodipodi:nodetypes="csscccccc" /><path
         style="opacity:1;fill:#7e7e7e;fill-opacity:1;stroke:none;stroke-width:0.186992px;stroke-linecap:butt;stroke-linejoin:miter;stroke-opacity:1"
         d="m 15.653075,19.620824 c -0.33979,-0.9368 0.05279,-1.856004 1.652745,-2.171657 3.098217,-0.611243 6.285354,0.0064 8.272587,-0.329336 1.475028,-0.249225 2.883611,-0.86486 2.883611,-2.454291 l -1.215447,0.280487 -1.495935,1.028456 -4.113821,0.0935 h -4.861789 l -2.617886,1.495935 0.373984,1.682926 z"
         id="path1158"
         sodipodi:nodetypes="csscccccccc" /><path
         style="opacity:1;fill:#7e7e7e;fill-opacity:1;stroke:none;stroke-width:0.186992px;stroke-linecap:butt;stroke-linejoin:miter;stroke-opacity:1"
         d="m 20.985456,11.784472 c 0,0.617529 0.687352,1.916312 1.476824,2.307263 0.949447,0.470172 1.601926,0.121582 2.896265,-0.103566 0.505192,-0.08788 1.491598,0.386224 1.26443,1.054923 l 0.973912,-0.01564 -0.636259,-1.866879 -2.482,-0.146738 -1.601323,0.323416 z"
         id="path1219"
         sodipodi:nodetypes="csscccccc" /><path
         style="opacity:1;fill:#b8b8b8;fill-opacity:1;stroke:none;stroke-width:0.186992px;stroke-linecap:butt;stroke-linejoin:miter;stroke-opacity:1"
         d="m 25.989712,21.184794 c -0.280488,-1.308943 -5.848781,-0.720952 -9.047195,-0.616095 -5.309767,0.174076 -4.468304,-4.500721 0.299989,-4.874704 1.308943,-0.102662 4.394309,0.280488 7.739539,-0.05611 2.825501,-0.284301 2.012713,-2.701444 0.23747,-2.212483 -2.539941,0.699585 -3.272197,0.02102 -3.912983,-0.966777 -0.547228,-0.843572 -0.50604,-1.077083 0.792157,0.07153 0.690976,0.611359 1.409591,0.459963 3.256843,0.145949 1.608171,-0.273372 3.087888,0.855906 3.101245,1.891995 0.01023,0.793274 -0.876385,1.637445 -3.675734,1.813478 -3.076674,0.193473 -9.788786,-0.404757 -9.915064,1.741969 -0.104574,1.777761 2.563519,1.777761 6.957828,1.310281 3.358568,-0.357294 5.95189,0.385698 7.16862,1.1757"
         id="path1156"
         sodipodi:nodetypes="csssssssssssc" /><path
         sodipodi:nodetypes="ccccsssscc"
         id="path1181"
         d="M 12.754701,25.604564 C 20.971918,19.65084 43.009068,19.656649 50.067709,19 c 2.093435,0.445283 7.471545,3.425702 8.313008,5.295621 v 3.178862 L 55.567709,27.5 c -2.612716,0.0237 -5.130128,1.039706 -6.699343,2.510275 C 46.116095,32.589528 44.067709,34 38.7273,35.04736 32.963628,36.17773 25.061143,36.085627 20.567709,34.5 18.281608,33.693289 13.970148,29.905376 12.754701,28.783425 Z"
         style="opacity:1;fill:none;fill-opacity:1;stroke:#212121;stroke-width:0.373984;stroke-linecap:butt;stroke-linejoin:round;stroke-miterlimit:4;stroke-dasharray:none;stroke-opacity:1" /><path
         style="opacity:1;fill:#ffffff;fill-opacity:1;stroke:none;stroke-width:1px;stroke-linecap:butt;stroke-linejoin:miter;stroke-opacity:1"
         d="m 33.872586,28.825895 c -0.999206,2.320218 3.864338,3.49079 5.782416,3.253234 -3.153359,1.152283 -12.077309,1.784119 -15.01888,-0.753304 z"
         id="path4"
         sodipodi:nodetypes="cccc" /><path
         style="opacity:1;fill:#666699;fill-opacity:1;stroke:none;stroke-width:1px;stroke-linecap:butt;stroke-linejoin:miter;stroke-opacity:1"
         d="m 22.71853,31.942409 c 3.205603,-1.27397 14.879455,-3.54278 23.349179,-4.442409 2.260489,-0.240103 2.340313,-1.931748 1.736987,-2.506589 L 43.463197,20.85688 c -5.101513,-0.419517 -21.637949,2.198996 -26.391571,4.345052 -0.635994,0.287124 -0.674047,1.328126 -0.224333,1.713197 z"
         id="path1"
         sodipodi:nodetypes="csscssc" /><path
         style="fill:#ffffff;fill-opacity:1;stroke:none;stroke-width:1px;stroke-linecap:butt;stroke-linejoin:miter;stroke-opacity:1"
         d="m 48.84826,28.094113 c 1.918812,-2.338968 6.70877,-3.101864 8.914378,-3.101864 v 1.537188 C 54.198473,26.311312 51.20604,26.97816 48.84826,28.094113 Z"
         id="path3"
         sodipodi:nodetypes="cccc" /><path
         id="path8"
         style="opacity:1;fill:#ffffff;fill-opacity:1;stroke:none;stroke-width:1px;stroke-linecap:butt;stroke-linejoin:miter;stroke-opacity:1"
         d="m 38.441165,21.750784 c -0.876035,0.08906 -1.828211,0.190421 -2.831043,0.31843 0.301525,0.283771 0.791936,0.780817 1.092353,1.09485 1.015941,-0.136749 1.995422,-0.256595 2.9375,-0.363281 -0.347467,-0.299936 -0.864336,-0.779313 -1.19881,-1.049999 z m -4.102482,0.520353 c -1.059541,0.145162 -2.297602,0.377885 -3.404186,0.553308 0.317249,0.310923 0.787916,0.779273 1.080589,1.08824 1.110344,-0.182384 2.360098,-0.421301 3.449107,-0.576745 -0.317006,-0.309334 -0.805688,-0.775284 -1.12551,-1.064803 z m 10.475666,1.07984 c -0.807013,0.03893 -1.820228,0.118761 -2.861874,0.215431 0.261119,0.256776 0.681842,0.718727 0.939596,0.992247 1.013438,-0.117678 2.030144,-0.219831 2.883359,-0.28379 z m -4.174374,0.344337 c -0.987536,0.10449 -2.037809,0.229433 -3.128907,0.371094 0.241228,0.289491 0.637416,0.79228 0.867331,1.115294 1.129074,-0.176211 2.224969,-0.333984 3.271485,-0.46875 -0.281345,-0.283071 -0.726491,-0.753537 -1.009909,-1.017638 z m -4.314453,0.53125 c -1.107839,0.15263 -2.237227,0.319712 -3.376954,0.501954 0.266388,0.31433 0.672756,0.773667 0.949758,1.14516 1.117637,-0.210702 2.262767,-0.334762 3.366792,-0.516195 -0.252792,-0.329155 -0.673284,-0.836238 -0.939596,-1.130919 z m -4.539063,0.69336 c -0.148239,0.02488 -0.297325,0.04697 -0.445312,0.07227 -1.016492,0.173783 -2.019392,0.361786 -3.00586,0.554687 0.347091,0.35385 0.777544,0.784678 1.127492,1.166645 1.064984,-0.2392 2.170425,-0.419148 3.28711,-0.638672 -0.296627,-0.379657 -0.670911,-0.830852 -0.96343,-1.15493 z m 14.785156,0.10742 c -0.872845,0.04516 -1.88776,0.132577 -3.013672,0.253906 0.393244,0.458515 0.77541,0.938752 1.140625,1.439453 0.417488,-0.06837 0.884177,-0.149104 1.289063,-0.214844 0.5183,-0.08416 0.849265,-0.211286 1.029297,-0.324218 0.18003,-0.112932 0.20624,-0.184605 0.21875,-0.240235 0.02501,-0.111259 -0.104648,-0.405433 -0.335938,-0.615234 z m -4.224609,0.390625 c -4.161,0.57897 -8.345028,1.132464 -12.34775,1.886533 0.433198,0.495126 0.864283,1.006425 1.289063,1.529296 C 36.035902,27.92465 40.141245,27.339785 43.589198,26.9062 43.191403,26.387609 42.77556,25.890318 42.347011,25.417919 Z M 27.151693,25.78125 c -1.07209,0.221554 -2.103157,0.452009 -3.068359,0.6875 0.391183,0.385242 0.737972,0.72495 1.132858,1.148359 0.936921,-0.263151 1.937068,-0.521743 2.992187,-0.771485 -0.371315,-0.394908 -0.693347,-0.706376 -1.056686,-1.064374 z m -4.210937,0.980469 c -1.387185,0.366089 -2.603562,0.739771 -3.53125,1.109375 l 1.320214,1.130721 c 0.868978,-0.407726 1.992637,-0.813918 3.296875,-1.210937 -0.416735,-0.434866 -0.679327,-0.643148 -1.085839,-1.029159 z m 5.945214,0.796737 c -1.058306,0.245814 -2.072548,0.497461 -3.015625,0.753906 0.39603,0.446435 0.788868,0.908188 1.177734,1.38086 0.848916,-0.23936 1.944228,-0.538667 3.066061,-0.758858 -0.424791,-0.512091 -0.797552,-0.895096 -1.22817,-1.375908 z m -4.089844,1.05664 c -1.284683,0.375349 -2.401732,0.75332 -3.257812,1.119141 l 1.203125,1.091797 c 0.718882,-0.269256 1.836445,-0.5696 3.210937,-0.888672 -0.382021,-0.453975 -0.769082,-0.896318 -1.15625,-1.322266 z"
         sodipodi:nodetypes="cccccccccccccccccccccccccccccccccccsssccccccccccccccccccccccccccc" /><path
         style="opacity:1;fill:#ffffff;fill-opacity:1;stroke:#666699;stroke-width:0.6;stroke-linecap:butt;stroke-linejoin:miter;stroke-dasharray:none;stroke-opacity:1"
         d="m 45.832429,21 c 1.438209,1.372518 3.125264,2.907642 4.134748,4 1.53558,-0.574197 3.303231,-0.747404 5.058686,-0.942067 C 54.128128,23.270308 52.056277,21.190769 50.933178,20.591232 49.102287,20.606413 46.760801,20.862405 45.832429,21 Z"
         id="path9"
         sodipodi:nodetypes="ccccc" /><path
         style="fill:#000000;stroke:#666699;stroke-width:0.6;stroke-dasharray:none;stroke-opacity:1"
         d="m 48.569965,20.705508 c 1.382236,1.206795 2.779011,2.659605 3.714327,3.592383"
         id="path7"
         sodipodi:nodetypes="cc" /><path
         style="fill:#000000;stroke:#666699;stroke-width:0.6;stroke-dasharray:none;stroke-opacity:1"
         d="m 47.201258,22.293193 c 0.860358,-0.266824 4.219222,-0.608295 5.178486,-0.573286"
         id="path10"
         sodipodi:nodetypes="cc" /><path
         style="fill:#000000;stroke:#666699;stroke-width:0.6;stroke-dasharray:none;stroke-opacity:1"
         d="m 48.656468,23.676109 c 0.60324,-0.398183 3.684066,-0.868392 5.089171,-0.774909"
         id="path10-3"
         sodipodi:nodetypes="cc" /><path
         id="path18"
         style="opacity:1;fill:#ff794b;fill-opacity:1;stroke:none;stroke-width:1px;stroke-linecap:butt;stroke-linejoin:miter;stroke-opacity:1"
         d="m 25.23239,23.987687 c -1.100329,0.222029 -2.176188,0.469206 -3.129525,0.693956 0.362756,0.296414 0.872533,0.703228 1.249857,1.048929 0.957766,-0.243082 1.981936,-0.478694 3.052735,-0.705078 -0.370134,-0.338952 -0.826009,-0.755304 -1.173067,-1.037807 z m -4.365853,0.996687 c -1.335784,0.343654 -2.428728,0.676411 -3.095703,0.972656 -0.189152,0.08401 -0.16352,0.107854 -0.164062,0.152344 -5.44e-4,0.04449 0.04126,0.172139 0.177734,0.287109 l 0.943216,0.816508 c 0.918594,-0.405785 2.098569,-0.79936 3.460938,-1.177734 -0.409024,-0.357749 -0.94393,-0.765941 -1.322123,-1.050883 z"
         sodipodi:nodetypes="ccccccsccccc" /><path
         id="path19"
         style="opacity:1;fill:#0099ff;fill-opacity:1;stroke:none;stroke-width:1px;stroke-linecap:butt;stroke-linejoin:miter;stroke-opacity:1"
         d="m 29.868773,23.00029 c -1.202915,0.200517 -2.532638,0.479599 -3.692367,0.70175 0.334088,0.291061 0.93212,0.840365 1.277636,1.170547 1.133751,-0.226059 2.454994,-0.537511 3.638915,-0.741624 -0.295069,-0.296362 -0.887408,-0.805629 -1.224184,-1.130673 z m -10.459267,4.870804 1.320214,1.130721 z m 2.128808,1.863143 1.203125,1.091797 z"
         sodipodi:nodetypes="ccccccccccc" /><path
         id="path20"
         style="opacity:1;fill:#66cc33;fill-opacity:1;stroke:none;stroke-width:1px;stroke-linecap:butt;stroke-linejoin:miter;stroke-opacity:1"
         d="m 39.812353,21.682084 c 0.315978,0.267676 0.767002,0.735141 1.089993,1.028005 0.979087,-0.09941 2.046063,-0.185286 2.865573,-0.241076 L 42.865117,21.62622 c -0.987242,-0.04319 -2.072025,-0.03796 -3.052764,0.05586 z"
         sodipodi:nodetypes="cccccc" /></g><rect
       style="fill:url(#linearGradient31454);fill-opacity:1;fill-rule:evenodd;stroke:#666699;stroke-width:1.5;stroke-linecap:round;stroke-linejoin:round;stroke-miterlimit:4;stroke-dasharray:none;stroke-opacity:1;stop-color:#000000"
       id="rect31314"
       width="44"
       height="20"
       x="13.567708"
       y="1" /><g
       aria-label="CAPS"
       id="text33149"
       style="font-weight:bold;font-size:51.2213px;line-height:1.25;font-family:'Microsoft Sans Serif';-inkscape-font-specification:'Microsoft Sans Serif Bold';text-align:center;letter-spacing:0px;word-spacing:0px;text-anchor:middle;stroke-width:3.20133"
       transform="matrix(0.26779561,0,0,0.26779561,-10.854408,-7.232738)"><path
         d="m 123.1907,87.042412 q -7.77824,0 -12.43017,-5.102121 -4.62692,-5.127132 -4.62692,-13.855761 0,-8.72863 4.62692,-13.830751 4.65193,-5.127132 12.43017,-5.127132 5.97748,0 10.17923,3.226341 4.20175,3.226342 4.72697,8.503536 h -5.00208 q -0.30013,-3.476445 -3.02626,-5.527298 -2.70113,-2.050853 -6.82784,-2.050853 -5.57732,0 -8.82867,3.851602 -3.25135,3.826591 -3.25135,10.954555 0,7.102953 3.22634,10.954555 3.22634,3.851601 8.75364,3.851601 4.30179,0 6.95289,-2.100873 2.6511,-2.100874 3.00125,-6.002496 h 5.00208 q -0.52522,5.852433 -4.60192,9.053764 -4.07669,3.201331 -10.30428,3.201331 z"
         style="font-weight:normal;-inkscape-font-specification:'Microsoft Sans Serif'"
         id="path1009" /><path
         d="m 163.78257,71.410913 -6.45268,-17.007072 -6.15256,17.007072 z m 11.15464,15.006239 h -5.47727 l -4.25177,-11.154638 h -15.35639 l -4.05168,11.154638 h -5.12713 l 14.08085,-36.665245 h 5.22717 z"
         style="font-weight:normal;-inkscape-font-specification:'Microsoft Sans Serif'"
         id="path1011" /><path
         d="m 178.9889,49.751907 h 13.68069 q 4.50187,0 7.52813,0.850353 3.05127,0.825343 4.827,3.626508 1.77574,2.776155 1.77574,6.22759 0,5.552308 -3.52646,8.428504 -3.52647,2.876196 -10.20425,2.876196 h -9.22883 v 14.656094 h -4.85202 z m 4.85202,17.657342 h 9.27885 q 4.67695,0 6.65277,-1.750728 2.00083,-1.750728 2.00083,-5.052101 0,-2.200915 -1.10045,-3.901622 -1.10046,-1.700707 -2.80117,-2.150895 -1.6757,-0.450187 -4.85202,-0.450187 h -9.17881 z"
         style="font-weight:normal;-inkscape-font-specification:'Microsoft Sans Serif'"
         id="path1013" /><path
         d="m 226.98386,87.042412 q -7.75323,0 -11.60483,-3.476445 -3.82659,-3.476446 -4.02667,-8.928713 h 4.67694 q 0.37516,4.101706 3.40142,6.077527 3.05127,1.950811 7.35305,1.950811 4.0767,0 6.55273,-1.675696 2.50104,-1.675697 2.50104,-4.551893 0,-3.026258 -2.57607,-4.40183 -2.57607,-1.375572 -8.87869,-2.701123 -6.27761,-1.350562 -9.02876,-3.72655 -2.72613,-2.375988 -2.72613,-6.327631 0,-4.451851 3.55147,-7.303037 3.57649,-2.851185 9.47895,-2.851185 6.20258,0 10.00416,2.876196 3.80158,2.876196 4.02667,8.12838 h -4.72697 q -0.7253,-6.652767 -9.10378,-6.652767 -4.05169,0 -6.27761,1.525635 -2.22593,1.525634 -2.22593,4.051684 0,2.300957 1.77574,3.451435 1.80075,1.150479 6.67778,2.225926 4.90204,1.075447 7.77823,2.125884 2.8762,1.050437 4.92705,3.276362 2.05085,2.200915 2.05085,5.927465 0,4.726966 -3.77657,7.853265 -3.75156,3.1263 -9.80407,3.1263 z"
         style="font-weight:normal;-inkscape-font-specification:'Microsoft Sans Serif'"
         id="path1015" /></g></g></svg>
