<?xml version="1.0" encoding="UTF-8" standalone="no"?>
<svg
   height="256"
   width="256"
   id="svg2"
   version="1.1"
   inkscape:version="1.1.1 (3bf5ae0d25, 2021-09-20)"
   sodipodi:docname="laptoptrusted.svg"
   inkscape:export-filename="/media/klapeto/Αρχεία/WindowsXP Theme/Vectors/RASTER/laptoptrusted.png"
   inkscape:export-xdpi="96"
   inkscape:export-ydpi="96"
   xmlns:inkscape="http://www.inkscape.org/namespaces/inkscape"
   xmlns:sodipodi="http://sodipodi.sourceforge.net/DTD/sodipodi-0.dtd"
   xmlns:xlink="http://www.w3.org/1999/xlink"
   xmlns="http://www.w3.org/2000/svg"
   xmlns:svg="http://www.w3.org/2000/svg"
   xmlns:rdf="http://www.w3.org/1999/02/22-rdf-syntax-ns#"
   xmlns:cc="http://creativecommons.org/ns#"
   xmlns:dc="http://purl.org/dc/elements/1.1/">
  <metadata
     id="metadata341">
    <rdf:RDF>
      <cc:Work
         rdf:about="">
        <dc:format>image/svg+xml</dc:format>
        <dc:type
           rdf:resource="http://purl.org/dc/dcmitype/StillImage" />
      </cc:Work>
    </rdf:RDF>
  </metadata>
  <sodipodi:namedview
     pagecolor="#ffffff"
     bordercolor="#666666"
     borderopacity="1"
     objecttolerance="10"
     gridtolerance="10"
     guidetolerance="10"
     inkscape:pageopacity="0"
     inkscape:pageshadow="2"
     inkscape:window-width="3840"
     inkscape:window-height="2043"
     id="namedview339"
     showgrid="false"
     inkscape:zoom="3.6603773"
     inkscape:cx="-1.0927835"
     inkscape:cy="110.37114"
     inkscape:window-x="3840"
     inkscape:window-y="0"
     inkscape:window-maximized="1"
     inkscape:current-layer="svg2"
     fit-margin-top="0"
     fit-margin-left="0"
     fit-margin-right="0"
     fit-margin-bottom="0"
     inkscape:pagecheckerboard="0"
     height="256px">
    <inkscape:grid
       type="xygrid"
       id="grid982" />
    <inkscape:grid
       type="xygrid"
       id="grid984"
       spacingx="0.5"
       spacingy="0.5" />
  </sodipodi:namedview>
  <defs
     id="defs98">
    <linearGradient
       gradientTransform="matrix(-0.01501331,-6.4557372e-5,-1.8290428e-4,0.02610517,105.71248,21.273825)"
       gradientUnits="userSpaceOnUse"
       id="gradient29"
       spreadMethod="pad"
       x1="-819.20001"
       x2="819.20001">
      <stop
         offset="0.0"
         stop-color="#6666cc"
         id="stop264" />
      <stop
         offset="0.4823529411764706"
         stop-color="#000000"
         id="stop266" />
      <stop
         offset="1.0"
         stop-color="#666666"
         id="stop268" />
    </linearGradient>
    <linearGradient
       gradientTransform="matrix(0.03121272,0.03236926,0.03469573,-0.0341524,139.63357,117.98351)"
       gradientUnits="userSpaceOnUse"
       id="gradient30"
       spreadMethod="pad"
       x1="-819.20001"
       x2="819.20001">
      <stop
         offset="0.0"
         stop-color="#333333"
         id="stop271" />
      <stop
         offset="0.5882352941176471"
         stop-color="#333333"
         id="stop273" />
      <stop
         offset="1.0"
         stop-color="#333333"
         id="stop275" />
    </linearGradient>
    <linearGradient
       gradientTransform="matrix(0.02942144,0.02995942,0.03256561,-0.03168874,138.31836,115.76997)"
       gradientUnits="userSpaceOnUse"
       id="gradient31"
       spreadMethod="pad"
       x1="-819.20001"
       x2="819.20001">
      <stop
         offset="0.0"
         stop-color="#009900"
         id="stop278" />
      <stop
         offset="0.5882352941176471"
         stop-color="#66cc33"
         id="stop280" />
      <stop
         offset="1.0"
         stop-color="#99ff66"
         id="stop282" />
    </linearGradient>
    <linearGradient
       gradientTransform="matrix(0.01337283,0.01373635,0.01448742,-0.01414478,10.249151,28.26042)"
       gradientUnits="userSpaceOnUse"
       id="gradient32"
       spreadMethod="pad"
       x1="-819.20001"
       x2="819.20001">
      <stop
         offset="0.0"
         stop-color="#666666"
         id="stop285" />
      <stop
         offset="0.5882352941176471"
         stop-color="#dddddd"
         id="stop287" />
      <stop
         offset="1.0"
         stop-color="#ccccff"
         id="stop289" />
    </linearGradient>
    <linearGradient
       gradientTransform="matrix(-0.0226598,-4.330351e-4,1.3716686e-4,0.00506988,105.15168,46.944636)"
       gradientUnits="userSpaceOnUse"
       id="gradient33"
       spreadMethod="pad"
       x1="-819.20001"
       x2="819.20001">
      <stop
         offset="0.0"
         stop-color="#333333"
         id="stop292" />
      <stop
         offset="0.3686274509803922"
         stop-color="#333333"
         id="stop294" />
      <stop
         offset="1.0"
         stop-color="#999999"
         id="stop296" />
    </linearGradient>
    <linearGradient
       gradientTransform="matrix(-0.06309781,-0.06445879,-0.06078751,0.05959863,96.017786,150.12815)"
       gradientUnits="userSpaceOnUse"
       id="gradient34"
       spreadMethod="pad"
       x1="-819.20001"
       x2="819.20001">
      <stop
         offset="0.0"
         stop-color="#999999"
         id="stop299" />
      <stop
         offset="1.0"
         stop-color="#dddddd"
         id="stop301" />
    </linearGradient>
    <linearGradient
       gradientTransform="matrix(0.00229691,-1.6675366e-4,-1.6675366e-4,-0.00229691,151.89404,205.7597)"
       gradientUnits="userSpaceOnUse"
       id="gradient35"
       spreadMethod="pad"
       x1="-819.20001"
       x2="819.20001">
      <stop
         offset="0.0"
         stop-color="#dddddd"
         id="stop304" />
      <stop
         offset="1.0"
         stop-color="#999999"
         id="stop306" />
    </linearGradient>
    <linearGradient
       gradientTransform="matrix(-5.3790032e-5,-0.00392143,-0.01033606,7.5039113e-4,150.9877,75.596883)"
       gradientUnits="userSpaceOnUse"
       id="gradient36"
       spreadMethod="pad"
       x1="-819.20001"
       x2="819.20001">
      <stop
         offset="0.0"
         stop-color="#333333"
         id="stop309" />
      <stop
         offset="0.6235294117647059"
         stop-color="#999999"
         id="stop311" />
      <stop
         offset="1.0"
         stop-color="#333333"
         id="stop313" />
    </linearGradient>
    <linearGradient
       gradientTransform="matrix(-0.00198761,-0.00193382,-0.00193382,0.00198761,145.04909,76.489829)"
       gradientUnits="userSpaceOnUse"
       id="gradient37"
       spreadMethod="pad"
       x1="-819.20001"
       x2="819.20001">
      <stop
         offset="0.0"
         stop-color="#999999"
         id="stop316" />
      <stop
         offset="1.0"
         stop-color="#cccccc"
         id="stop318" />
    </linearGradient>
    <linearGradient
       gradientTransform="matrix(-5.2984779e-4,-0.00411777,-0.01033606,7.5039113e-4,125.77816,76.618918)"
       gradientUnits="userSpaceOnUse"
       id="gradient38"
       spreadMethod="pad"
       x1="-819.20001"
       x2="819.20001">
      <stop
         offset="0.0"
         stop-color="#333333"
         id="stop321" />
      <stop
         offset="0.6235294117647059"
         stop-color="#999999"
         id="stop323" />
      <stop
         offset="1.0"
         stop-color="#333333"
         id="stop325" />
    </linearGradient>
    <linearGradient
       gradientTransform="matrix(-0.00198761,-0.00193382,-0.00193382,0.00198761,119.97939,77.848058)"
       gradientUnits="userSpaceOnUse"
       id="gradient39"
       spreadMethod="pad"
       x1="-819.20001"
       x2="819.20001">
      <stop
         offset="0.0"
         stop-color="#999999"
         id="stop328" />
      <stop
         offset="1.0"
         stop-color="#cccccc"
         id="stop330" />
    </linearGradient>
    <linearGradient
       gradientTransform="matrix(0.01920367,0.0196179,0.0254193,-0.02516651,127.80071,115.60994)"
       gradientUnits="userSpaceOnUse"
       id="gradient40"
       spreadMethod="pad"
       x1="-819.20001"
       x2="819.20001">
      <stop
         offset="0.0"
         stop-color="#ccffcc"
         id="stop333" />
      <stop
         offset="0.23529411764705882"
         stop-color="#99ff66"
         id="stop335" />
      <stop
         offset="1.0"
         stop-color="#66cc33"
         id="stop337" />
    </linearGradient>
    <linearGradient
       gradientTransform="matrix(0.0688643,0.07073627,0.07460396,-0.07283951,135.51444,145.52896)"
       gradientUnits="userSpaceOnUse"
       id="gradient32-3"
       spreadMethod="pad"
       x1="-819.20001"
       x2="819.20001">
      <stop
         offset="0.0"
         stop-color="#666666"
         id="stop285-6" />
      <stop
         offset="0.5882352941176471"
         stop-color="#dddddd"
         id="stop287-7" />
      <stop
         offset="1.0"
         stop-color="#ccccff"
         id="stop289-5" />
    </linearGradient>
    <radialGradient
       inkscape:collect="always"
       xlink:href="#linearGradient21660"
       id="radialGradient22114"
       gradientUnits="userSpaceOnUse"
       gradientTransform="matrix(1.4584701,0,0,1.4584701,376.95715,-76.120893)"
       cx="-214.56883"
       cy="102.78445"
       fx="-214.56883"
       fy="102.78445"
       r="112.01711" />
    <linearGradient
       inkscape:collect="always"
       id="linearGradient21660">
      <stop
         style="stop-color:#10e800;stop-opacity:1"
         offset="0"
         id="stop21656" />
      <stop
         style="stop-color:#0db300;stop-opacity:1"
         offset="1"
         id="stop21658" />
    </linearGradient>
    <linearGradient
       inkscape:collect="always"
       xlink:href="#linearGradient21904"
       id="linearGradient21906"
       x1="212.99319"
       y1="199.77892"
       x2="59.596699"
       y2="48.182297"
       gradientUnits="userSpaceOnUse"
       gradientTransform="matrix(1.0712649,0,0,1.0712649,-22.010821,0.76596246)" />
    <linearGradient
       inkscape:collect="always"
       id="linearGradient21904">
      <stop
         style="stop-color:#008a19;stop-opacity:1"
         offset="0"
         id="stop21900" />
      <stop
         style="stop-color:#00ba24;stop-opacity:1"
         offset="1"
         id="stop21902" />
    </linearGradient>
    <linearGradient
       gradientTransform="matrix(8e-4,0.0078,0.0245,-0.0026,-106.66241,35.512229)"
       gradientUnits="userSpaceOnUse"
       id="gradient24"
       spreadMethod="pad"
       x1="-819.20001"
       x2="819.20001">
      <stop
         offset="0.0"
         stop-color="#7d7dc5"
         id="stop231" />
      <stop
         offset="0.43529411764705883"
         stop-color="#7d7dc5"
         id="stop233" />
      <stop
         offset="1.0"
         stop-color="#ffffff"
         id="stop235" />
    </linearGradient>
    <linearGradient
       gradientTransform="matrix(-6e-4,0.0066,0.0252,0.0022,-105.71241,38.862229)"
       gradientUnits="userSpaceOnUse"
       id="gradient25"
       spreadMethod="pad"
       x1="-819.20001"
       x2="819.20001">
      <stop
         offset="0.0"
         stop-color="#335cae"
         id="stop238" />
      <stop
         offset="0.7098039215686275"
         stop-color="#7d7dc5"
         id="stop240" />
      <stop
         offset="1.0"
         stop-color="#a7a7d3"
         id="stop242" />
    </linearGradient>
    <linearGradient
       gradientTransform="matrix(-0.0148,-0.0138,-0.0125,0.0134,-116.51241,20.262229)"
       gradientUnits="userSpaceOnUse"
       id="gradient26"
       spreadMethod="pad"
       x1="-819.20001"
       x2="819.20001">
      <stop
         offset="0.0"
         stop-color="#5858b5"
         id="stop245" />
      <stop
         offset="0.5647058823529412"
         stop-color="#a7a7d3"
         id="stop247" />
      <stop
         offset="1.0"
         stop-color="#a5adbb"
         id="stop249" />
    </linearGradient>
    <radialGradient
       cx="0"
       cy="0"
       gradientTransform="matrix(0.025,0,0,0.025,-121.11241,14.112229)"
       gradientUnits="userSpaceOnUse"
       id="gradient27"
       r="819.20001"
       spreadMethod="pad">
      <stop
         offset="0.0"
         stop-color="#ccffff"
         id="stop252" />
      <stop
         offset="1.0"
         stop-color="#0099ff"
         id="stop254" />
    </radialGradient>
    <linearGradient
       gradientTransform="matrix(0,0.0022,0.0072,0,-102.61241,38.212229)"
       gradientUnits="userSpaceOnUse"
       id="gradient28"
       spreadMethod="pad"
       x1="-819.20001"
       x2="819.20001">
      <stop
         offset="0.0"
         stop-color="#7d7dc5"
         id="stop257" />
      <stop
         offset="0.24705882352941178"
         stop-color="#7d7dc5"
         id="stop259" />
      <stop
         offset="1.0"
         stop-color="#a7a7d3"
         id="stop261" />
    </linearGradient>
    <filter
       inkscape:collect="always"
       style="color-interpolation-filters:sRGB"
       id="filter1715"
       x="-0.047505223"
       y="-0.04850519"
       width="1.0950104"
       height="1.0970104">
      <feGaussianBlur
         inkscape:collect="always"
         stdDeviation="4.7900811"
         id="feGaussianBlur1717" />
    </filter>
  </defs>
  <path
     id="path1511"
     style="fill:#212121;fill-opacity:1;fill-rule:evenodd;stroke:none;stroke-width:5.22628;filter:url(#filter1715)"
     d="m 182.52884,7.7031494 c -31.60335,0 -57.85943,23.0639086 -62.86914,53.2578116 l -41.207034,-1.365234 -65.109375,8.947265 0.04102,-0.0625 c -0.329977,0.191039 -0.642627,0.391458 -0.953125,0.59375 -0.771037,0.467818 -1.435684,0.968359 -2,1.5 -4.4425838,3.823939 -6.1642096,9.218482 -5.1464848,16.197266 L 28.802275,179.79885 c 0.461847,1.8272 2.352038,2.17851 3.919922,1.83008 -3.658396,3.8326 -1.300596,6.36267 3.658203,10.45312 l 56.705079,46.77539 c 7.497931,6.18494 18.555141,6.94614 28.744141,4.70313 l 111.58203,-24.56446 c 7.0373,-1.54919 13.58789,-8.10144 13.58789,-16.20117 -0.002,0.005 -0.004,0.009 -0.006,0.0137 -2.37477,-5.01845 -5.7568,-7.44007 -11.49219,-9.94336 l -71.35547,-31.09374 0.0176,-0.002 -7.28125,-31.97656 c 7.85151,3.46076 16.52276,5.39648 25.64649,5.39648 35.17553,0 63.74414,-28.56861 63.74414,-63.744134 C 246.27298,36.269808 217.70437,7.7031494 182.52884,7.7031494 Z M 9.2046187,86.250024 32.956572,180.99611 h -0.0059 z" />
  <g
     id="g9516"
     transform="matrix(5.2262803,0,0,5.2262803,692.30891,7.7105053)">
    <path
       inkscape:connector-curvature="0"
       style="fill:url(#gradient24);fill-rule:evenodd;stroke:none"
       id="path54"
       d="m -102.09361,28.678775 13.7312,5.983454 c 1.097713,0.479112 1.744991,0.942595 2.199401,1.903363 -0.104861,0.551265 -0.638978,0.991704 -1.427058,1.16179 l -23.021593,4.798616 c -1.69378,0.357166 -3.22662,-0.01777 -4.58166,-1.003253 l -11.99245,-9.121373 m 22.62336,-2.339143 -2.75,0.4 -2.75,0.45 -2.65,0.4 -2.75,0.4 -2.7,0.4 -2.7,0.4 -2.9,0.45 1.65,1.2 1.7,1.25 1.8,1.35 1.95,1.4 3.2,-0.55 3.05,-0.55 2.9,-0.55 2.95,-0.55 2.95,-0.5 2.95,-0.55 2.9,-0.55 2.8,-0.5 -2.55,-1.15 -2.25,-1.05 -2.2,-1 -2.15,-1 -2.45,0.4"
       sodipodi:nodetypes="cccccccccccccccccccccccccccccccc" />
    <path
       inkscape:connector-curvature="0"
       style="fill:url(#gradient25);fill-rule:evenodd;stroke:none"
       id="path56"
       d="m -86.16241,36.562229 c 0,1.549807 -1.253477,2.803576 -2.6,3.1 l -21.35,4.7 c -1.94957,0.42918 -4.06534,0.283431 -5.5,-0.9 l -10.85,-8.95 c -0.94882,-0.78267 -1.4,-1.266667 -0.7,-2 l 0.05,-0.1 12,9.05 c 1.46338,1.064278 2.81353,1.305625 4.5,0.95 l 23,-4.85 c 0.596278,-0.125737 1.189256,-0.311167 1.45,-1 z"
       sodipodi:nodetypes="ccccccccccc" />
    <path
       inkscape:connector-curvature="0"
       style="fill:url(#gradient26);fill-rule:evenodd;stroke:none"
       id="path58"
       d="m -130.87035,10.874171 12.45794,-1.711945 10.55,0.35 c 1.12564,0.099744 1.7787,1.3026 2.0678,2.586432 l 3.7822,16.613571 -25.1,3.7 -4.55,-18.15 c -0.36017,-1.190294 -0.7466,-2.597206 0.79206,-3.388058 z"
       sodipodi:nodetypes="cccccccc" />
    <path
       style="fill:#335cae;fill-rule:evenodd;stroke:none"
       inkscape:connector-curvature="0"
       id="path60"
       d="m -127.16241,32.512229 c -0.3,0.06667 -0.66163,-4.42e-4 -0.75,-0.35 l -4.5,-17.8 c -0.23333,-1.6 0.28333,-2.766668 1.55,-3.500003 l -0.1,0.15 c -0.56667,0.666669 -0.8,1.750003 -0.7,3.250003 l 4.55615,18.178156"
       sodipodi:nodetypes="ccccccc" />
    <path
       inkscape:connector-curvature="0"
       style="fill:url(#gradient27);fill-rule:evenodd;stroke:none"
       id="path62"
       d="m -105.76241,27.212229 -18,2.5 c -1.38534,0.192409 -1.65107,-0.293771 -1.9,-1.3 l -3.55,-14.35 c -0.16667,-0.8 0.26667,-1.2 1.3,-1.2 l 18.05,-1.250003 c 0.69218,-0.04147 0.97271,0.101903 1.25104,0.522682 l 3.40193,14.521011 c -0.0149,0.177604 -0.13225,0.497877 -0.55297,0.55631 z"
       sodipodi:nodetypes="ccccccccc" />
    <path
       id="path64"
       style="fill:#e6e6e6;fill-rule:evenodd;stroke:none"
       d="m -121.85547,11.630859 c 0.1451,0.08393 0.53248,0.368258 0.65791,0.918207 l 3.21709,14.113043 c 0.0333,0.233333 -0.10419,0.40725 -0.15039,0.5 0.21305,-0.09158 0.4716,-0.265958 0.4082,-0.558593 l -3.19922,-14.121094 c -0.0975,-0.427514 -0.41294,-0.769113 -0.93359,-0.851563 z m 7.17578,18.03125 -2.45117,0.400391 -2.75,0.400391 -2.75,0.449218 -2.64844,0.400391 -2.75,0.400391 -2.70117,0.398437 -2.69922,0.400391 -2.90039,0.451172 1.65039,1.199218 1.69922,1.25 1.80078,1.34961 1.94922,1.40039 3.20117,-0.550781 3.04883,-0.548828 2.90039,-0.550781 2.94922,-0.548828 2.95117,-0.5 2.94922,-0.550782 2.90039,-0.550781 2.80078,-0.5 -2.55078,-1.148437 -2.25,-1.050782 -2.19922,-1 z"
       transform="translate(12.567709)"
       sodipodi:nodetypes="cccccccccccccccccccccccccccccccc" />
    <path
       inkscape:connector-curvature="0"
       style="fill:url(#gradient28);fill-rule:evenodd;stroke:none"
       id="path66"
       d="m -105.01241,40.062229 -3.45,-2.25 8.05,-1.45 3.7,2 -8.3,1.7" />
    <path
       style="fill:none;stroke:#7d7dc5;stroke-width:1;stroke-linecap:round;stroke-linejoin:round"
       inkscape:connector-curvature="0"
       id="path96"
       d="m -104.56241,30.062229 -2.75,0.4 1.95,1.05 2.85,-0.45 -2.05,-1 2.45,-0.4 2.15,1 2.2,1 2.25,1.05 2.55,1.15 -2.8,0.5 -2.9,0.55 -2.95,0.55 -2.95,0.5 -2.95,0.55 -2.9,0.55 -3.05,0.55 -3.2,0.55 -1.95,-1.4 -1.8,-1.35 -1.7,-1.25 -1.65,-1.2 2.9,-0.45 2.7,-0.4 2.7,-0.4 2.75,-0.4 2.65,-0.4 2.75,-0.45 m -4.4,3.5 -2.8,0.45 2,1.25 2.85,-0.5 -2.05,-1.2 -1.9,-1.15 -2.7,0.45 1.8,1.15 -2.9,0.45 1.9,1.35 3,-0.55 2.1,1.4 m -1.3,-3.1 2.8,-0.45 -1.9,-1.15 -2.8,0.45 -1.85,-1.1 m 2.75,-0.4 1.9,1.05 2.7,-0.4 -1.95,-1.05 m 6.85,1.65 -2.15,-1.05 -2.75,0.45 2.05,1.1 2.85,-0.5 2.85,-0.45 -2.15,-1.05 2.55,-0.4 m -1.65,4.8 -2.35,-1.3 -2.85,0.5 2.25,1.3 m 0.6,-1.8 -2.1,-1.1 -2.85,0.45 2.1,1.15 -2.85,0.5 2.15,1.35 m 11.75,-2.15 -2.4,-1.2 -2.9,0.5 2.4,1.25 m 0.9,-3.25 -2.6,0.45 2.2,1.05 2.65,-0.45 m -7.7,-0.15 2.15,1.1 -2.9,0.5 m -16.9,-1.65 1.75,1.2 2.8,-0.45 -1.85,-1.15 m -3.95,2.05 3,-0.45 1.7,1.15 -3,0.55 m 6.95,2.2 -2.05,-1.4 -3.1,0.55" />
  </g>
  <g
     id="g23478"
     transform="matrix(0.52244787,0,0,0.52244787,110.65567,0.57239677)"
     style="stroke-width:9.37499;stroke-miterlimit:4;stroke-dasharray:none">
    <circle
       style="fill:#f8f8f8;fill-opacity:1;fill-rule:evenodd;stroke:none;stroke-width:9.37499;stroke-linecap:round;stroke-linejoin:round;stroke-miterlimit:4;stroke-dasharray:none;stop-color:#000000"
       id="circle22033"
       cx="128"
       cy="128"
       r="117.32184" />
    <path
       id="circle22053"
       style="fill:url(#radialGradient22114);fill-opacity:1;fill-rule:evenodd;stroke:none;stroke-width:9.37499;stroke-linecap:round;stroke-linejoin:round;stroke-miterlimit:4;stroke-dasharray:none;stop-color:#000000"
       d="M 128,10.677661 A 117.32183,117.32183 0 0 0 10.67766,128 117.32183,117.32183 0 0 0 128,245.32234 117.32183,117.32183 0 0 0 245.32234,128 117.32183,117.32183 0 0 0 128,10.677661 Z m 35.41033,43.98463 a 11.835926,11.835926 0 0 1 5.89823,1.661297 11.835926,11.835926 0 0 1 4.12396,16.221712 c -12.55755,21.119525 -25.60561,59.21793 -37.64284,112.97032 a 11.83711,11.83711 0 0 1 -21.1219,4.37504 l -2.51706,-3.46278 a 11.83711,11.83711 0 0 1 -0.16111,-0.22388 l -2.59865,-3.75361 -3.44604,-4.31017 C 97.876099,168.30301 87.537006,157.83548 74.928443,146.85384 a 11.835926,11.835926 0 0 1 -1.152863,-16.69667 11.835926,11.835926 0 0 1 16.698759,-1.15286 c 10.681831,9.30352 19.945911,18.39449 27.915661,27.34445 10.61996,-42.55812 21.87677,-74.340154 34.69685,-95.90122 a 11.835926,11.835926 0 0 1 10.32348,-5.785249 z" />
    <circle
       style="fill:none;fill-opacity:1;fill-rule:evenodd;stroke:url(#linearGradient21906);stroke-width:9.37499;stroke-linecap:round;stroke-linejoin:round;stroke-miterlimit:4;stroke-dasharray:none;stop-color:#000000"
       id="path17507"
       cx="128"
       cy="128"
       r="117.32184" />
  </g>
</svg>
