<?xml version="1.0" encoding="UTF-8" standalone="no"?>
<svg
   inkscape:export-ydpi="96"
   inkscape:export-xdpi="96"
   inkscape:export-filename="microphone-sensitivity-muted.png"
   sodipodi:docname="microphone-muted.svg"
   inkscape:version="1.1.2 (0a00cf5339, 2022-02-04)"
   id="svg8"
   version="1.1"
   viewBox="0 0 256 256"
   height="256"
   width="256"
   xmlns:inkscape="http://www.inkscape.org/namespaces/inkscape"
   xmlns:sodipodi="http://sodipodi.sourceforge.net/DTD/sodipodi-0.dtd"
   xmlns:xlink="http://www.w3.org/1999/xlink"
   xmlns="http://www.w3.org/2000/svg"
   xmlns:svg="http://www.w3.org/2000/svg"
   xmlns:rdf="http://www.w3.org/1999/02/22-rdf-syntax-ns#"
   xmlns:cc="http://creativecommons.org/ns#"
   xmlns:dc="http://purl.org/dc/elements/1.1/">
  <defs
     id="defs2">
    <linearGradient
       inkscape:collect="always"
       id="linearGradient1523">
      <stop
         style="stop-color:#373737;stop-opacity:1;"
         offset="0"
         id="stop1519" />
      <stop
         style="stop-color:#747474;stop-opacity:1"
         offset="1"
         id="stop1521" />
    </linearGradient>
    <linearGradient
       inkscape:collect="always"
       id="linearGradient1154">
      <stop
         style="stop-color:#373737;stop-opacity:1;"
         offset="0"
         id="stop1150" />
      <stop
         style="stop-color:#ffffff;stop-opacity:0.97163671"
         offset="1"
         id="stop1152" />
    </linearGradient>
    <linearGradient
       inkscape:collect="always"
       id="linearGradient7022">
      <stop
         style="stop-color:#a9bfff;stop-opacity:1"
         offset="0"
         id="stop7018" />
      <stop
         style="stop-color:#7488c7;stop-opacity:1"
         offset="1"
         id="stop7020" />
    </linearGradient>
    <linearGradient
       gradientTransform="matrix(5.0438815e-5,-0.00757308,-0.01201372,7.5053475e-4,-56.750393,33.699243)"
       gradientUnits="userSpaceOnUse"
       id="gradient4-5-3"
       spreadMethod="pad"
       x1="-819.20001"
       x2="819.20001">
      <stop
         offset="0.0"
         stop-color="#9999ff"
         id="stop210830-3-6" />
      <stop
         offset="1.0"
         stop-color="#666699"
         id="stop210832-5-7" />
    </linearGradient>
    <linearGradient
       gradientTransform="matrix(0.03606497,0.00208368,-0.00132339,-0.01034345,-47.801142,3.4214828)"
       gradientUnits="userSpaceOnUse"
       id="gradient0-3-5"
       spreadMethod="pad"
       x1="-819.20001"
       x2="819.20001">
      <stop
         offset="0.0"
         stop-color="#cccccc"
         id="stop210806-6-3" />
      <stop
         offset="1.0"
         stop-color="#ffffff"
         id="stop210808-7-5" />
    </linearGradient>
    <linearGradient
       gradientTransform="matrix(0.00735177,0.00756672,0.00517651,-0.00586927,-54.562869,28.259585)"
       gradientUnits="userSpaceOnUse"
       id="gradient1-6-6"
       spreadMethod="pad"
       x1="-819.20001"
       x2="819.20001">
      <stop
         offset="0.0"
         stop-color="#ffffff"
         id="stop210811-2-2" />
      <stop
         offset="0.4235294117647059"
         stop-color="#ccccff"
         id="stop210813-9-9" />
      <stop
         offset="1.0"
         stop-color="#9999cc"
         id="stop210815-1-1" />
    </linearGradient>
    <linearGradient
       gradientTransform="matrix(0.00540906,-2.8934404e-4,-5.8748674e-5,-0.00210673,-54.536428,25.896548)"
       gradientUnits="userSpaceOnUse"
       id="gradient2-2-2"
       spreadMethod="pad"
       x1="-819.20001"
       x2="819.20001">
      <stop
         offset="0.0"
         stop-color="#ffffff"
         id="stop210818-7-7" />
      <stop
         offset="1.0"
         stop-color="#ccccff"
         id="stop210820-0-0" />
    </linearGradient>
    <linearGradient
       gradientTransform="matrix(4.5239205e-4,-0.00364456,-0.00130967,-5.5815783e-5,-51.880136,35.887255)"
       gradientUnits="userSpaceOnUse"
       id="gradient3-9-9"
       spreadMethod="pad"
       x1="-819.20001"
       x2="819.20001">
      <stop
         offset="0.0"
         stop-color="#ffcc66"
         id="stop210823-3-3" />
      <stop
         offset="0.7490196078431373"
         stop-color="#ffff99"
         id="stop210825-6-6" />
      <stop
         offset="1.0"
         stop-color="#9999ff"
         id="stop210827-0-0" />
    </linearGradient>
    <linearGradient
       gradientTransform="matrix(0.00450232,0.00472216,0.00273049,-0.00307711,-55.559198,28.40279)"
       gradientUnits="userSpaceOnUse"
       id="gradient5-6-6"
       spreadMethod="pad"
       x1="-819.20001"
       x2="819.20001">
      <stop
         offset="0.0"
         stop-color="#9999cc"
         id="stop210835-2-2" />
      <stop
         offset="0.23529411764705882"
         stop-color="#9999cc"
         id="stop210837-6-6" />
      <stop
         offset="1.0"
         stop-color="#6666cc"
         id="stop210839-1-1" />
    </linearGradient>
    <linearGradient
       gradientTransform="matrix(0.00677552,-4.0439731e-4,5.4838153e-5,-0.00244847,-55.445856,27.776352)"
       gradientUnits="userSpaceOnUse"
       id="gradient6-8-8"
       spreadMethod="pad"
       x1="-819.20001"
       x2="819.20001">
      <stop
         offset="0.0"
         stop-color="#ffffff"
         id="stop210842-7-7" />
      <stop
         offset="1.0"
         stop-color="#ccccff"
         id="stop210844-9-9" />
    </linearGradient>
    <linearGradient
       gradientTransform="matrix(0.00170576,-0.00284847,-0.00170918,-0.00113734,-53.071576,40.899007)"
       gradientUnits="userSpaceOnUse"
       id="gradient7-2-2"
       spreadMethod="pad"
       x1="-819.20001"
       x2="819.20001">
      <stop
         offset="0.0"
         stop-color="#ffff99"
         id="stop210847-0-0" />
      <stop
         offset="0.4470588235294118"
         stop-color="#ffcc66"
         id="stop210849-2-2" />
      <stop
         offset="1.0"
         stop-color="#996600"
         id="stop210851-3-3" />
    </linearGradient>
    <linearGradient
       gradientTransform="matrix(0.00364749,0.00386879,0.00216157,-0.00250722,-54.820883,26.181493)"
       gradientUnits="userSpaceOnUse"
       id="gradient8-7-7"
       spreadMethod="pad"
       x1="-819.20001"
       x2="819.20001">
      <stop
         offset="0.0"
         stop-color="#9999cc"
         id="stop210854-5-5" />
      <stop
         offset="0.23529411764705882"
         stop-color="#9999cc"
         id="stop210856-9-9" />
      <stop
         offset="1.0"
         stop-color="#6666cc"
         id="stop210858-2-2" />
    </linearGradient>
    <linearGradient
       gradientTransform="matrix(3.9559864e-4,-0.00347369,-0.00204994,-1.1212038e-4,-62.473285,33.220164)"
       gradientUnits="userSpaceOnUse"
       id="gradient9-2-2"
       spreadMethod="pad"
       x1="-819.20001"
       x2="819.20001">
      <stop
         offset="0.0"
         stop-color="#ffcc66"
         id="stop210861-8-8" />
      <stop
         offset="0.7490196078431373"
         stop-color="#ffff99"
         id="stop210863-9-9" />
      <stop
         offset="1.0"
         stop-color="#9999ff"
         id="stop210865-7-7" />
    </linearGradient>
    <linearGradient
       gradientTransform="matrix(-5.9726305e-5,-0.00324554,-0.00193586,1.1554209e-4,-63.921028,38.146727)"
       gradientUnits="userSpaceOnUse"
       id="gradient10-3-3"
       spreadMethod="pad"
       x1="-819.20001"
       x2="819.20001">
      <stop
         offset="0.0"
         stop-color="#ffff99"
         id="stop210868-6-6" />
      <stop
         offset="0.4470588235294118"
         stop-color="#ffcc66"
         id="stop210870-1-1" />
      <stop
         offset="1.0"
         stop-color="#996600"
         id="stop210872-2-2" />
    </linearGradient>
    <radialGradient
       inkscape:collect="always"
       xlink:href="#linearGradient7022"
       id="radialGradient7024"
       cx="20.067709"
       cy="3.5"
       fx="20.067709"
       fy="3.5"
       r="4.5"
       gradientUnits="userSpaceOnUse"
       gradientTransform="matrix(1.039759,0,0,1.039759,-0.83763186,-0.17891567)" />
    <linearGradient
       inkscape:collect="always"
       xlink:href="#linearGradient1154"
       id="linearGradient1156"
       x1="16.413157"
       y1="10.118031"
       x2="15.36469"
       y2="8.8982849"
       gradientUnits="userSpaceOnUse" />
    <linearGradient
       inkscape:collect="always"
       xlink:href="#linearGradient1523"
       id="linearGradient1525"
       x1="15.087146"
       y1="11.711731"
       x2="13.878635"
       y2="10.292105"
       gradientUnits="userSpaceOnUse" />
    <filter
       inkscape:collect="always"
       style="color-interpolation-filters:sRGB"
       id="filter1268"
       x="-0.064170729"
       y="-0.062142385"
       width="1.1283415"
       height="1.1242848">
      <feGaussianBlur
         inkscape:collect="always"
         stdDeviation="4.8696965"
         id="feGaussianBlur1270" />
    </filter>
    <filter
       inkscape:collect="always"
       style="color-interpolation-filters:sRGB"
       id="filter1540"
       x="-0.048335746"
       y="-0.047668886"
       width="1.0966715"
       height="1.0953378">
      <feGaussianBlur
         inkscape:collect="always"
         stdDeviation="2.3703711"
         id="feGaussianBlur1542" />
    </filter>
  </defs>
  <sodipodi:namedview
     inkscape:guide-bbox="true"
     inkscape:snap-object-midpoints="true"
     showguides="false"
     inkscape:snap-global="false"
     inkscape:bbox-paths="false"
     fit-margin-bottom="0"
     fit-margin-right="0"
     fit-margin-left="0"
     fit-margin-top="0"
     inkscape:bbox-nodes="true"
     inkscape:snap-bbox="true"
     inkscape:window-maximized="1"
     inkscape:window-y="0"
     inkscape:window-x="3840"
     inkscape:window-height="2043"
     inkscape:window-width="3840"
     units="px"
     showgrid="false"
     inkscape:document-rotation="0"
     inkscape:current-layer="layer1"
     inkscape:document-units="px"
     inkscape:cy="31.287252"
     inkscape:cx="218.05299"
     inkscape:zoom="1.5661331"
     inkscape:pageshadow="2"
     inkscape:pageopacity="0.0"
     borderopacity="1.0"
     bordercolor="#666666"
     pagecolor="#ffffff"
     id="base"
     inkscape:snap-others="true"
     inkscape:snap-grids="true"
     inkscape:object-paths="true"
     inkscape:snap-intersection-paths="true"
     inkscape:snap-smooth-nodes="true"
     inkscape:pagecheckerboard="0"
     inkscape:snap-nodes="true">
    <inkscape:grid
       originy="0"
       originx="0"
       id="grid1504"
       type="xygrid" />
    <inkscape:grid
       type="xygrid"
       id="grid879"
       spacingx="0.5"
       spacingy="0.5" />
  </sodipodi:namedview>
  <metadata
     id="metadata5">
    <rdf:RDF>
      <cc:Work
         rdf:about="">
        <dc:format>image/svg+xml</dc:format>
        <dc:type
           rdf:resource="http://purl.org/dc/dcmitype/StillImage" />
      </cc:Work>
    </rdf:RDF>
  </metadata>
  <g
     transform="translate(-12.567709)"
     id="layer1"
     inkscape:groupmode="layer"
     inkscape:label="Layer 1">
    <path
       id="path1257"
       style="color:#000000;fill:#212121;fill-opacity:1;stroke-width:12.4367px;stroke-linejoin:round;-inkscape-stroke:none;filter:url(#filter1268)"
       d="m 144.04509,59.652361 c -30.68789,0 -55.648438,24.962501 -55.648438,55.650389 0,6.87399 1.262177,13.45598 3.550781,19.53907 l -62.880859,77.48047 c -0.9105,1.19049 -1.063582,2.79557 -0.394531,4.13671 -1.29708,0.79949 -2.580949,1.66551 -3.798829,2.62305 -2.295166,1.80454 -4.619605,3.7482 -5.791015,7.46485 -2.290305,7.26663 -1.302734,15.39843 -1.302734,15.39843 0.242532,3.42598 3.216626,6.00656 6.642578,5.76367 3.425974,-0.24253 6.006553,-3.21662 5.763672,-6.64257 0,0 -0.121861,-7.55264 0.732421,-10.55079 0.114164,-0.073 0.631338,-0.86117 1.642579,-1.65624 1.268164,-0.99707 3.080806,-2.12076 4.933593,-3.13477 l 4.28125,4.2832 c 1.424365,1.42381 3.695202,1.53858 5.25586,0.26563 l 39.988281,-32.61719 7.279297,7.2793 v 34.73437 c 0.0012,3.43371 2.785044,6.21668 6.218754,6.2168 h 24.87305 c 3.43371,-1.2e-4 6.21755,-2.78309 6.21875,-6.2168 V 189.9219 c -1.2e-4,-3.43447 -2.78428,-6.21864 -6.21875,-6.21876 h -18.65626 -2.60937 l 20.11524,-16.40624 c 6.15722,2.35291 12.82995,3.65429 19.80468,3.65429 30.68789,0 55.65039,-24.96054 55.65039,-55.64844 0,-30.687888 -24.9625,-55.650389 -55.65039,-55.650389 z"
       sodipodi:nodetypes="sscccssccccsccccccccccccccsss" />
    <g
       id="g1178">
      <g
         id="g49985"
         transform="matrix(12.436737,0,0,12.436737,-122.96822,55.336464)">
        <path
           style="fill:#373737;fill-opacity:1;stroke:#373737;stroke-width:1px;stroke-linecap:butt;stroke-linejoin:round;stroke-opacity:1"
           d="m 17.067709,10.5 h 1 1.5 v 4 h -2 v -3 l -1,-1"
           id="path1246" />
        <path
           style="fill:none;stroke:#000000;stroke-width:1px;stroke-linecap:round;stroke-linejoin:miter;stroke-opacity:1"
           d="m 12.996672,12.595217 c 0,0 -1.349699,0.523125 -1.5,1 -0.128542,0.407835 -0.08286,1.052435 -0.08286,1.052435"
           id="path1248"
           sodipodi:nodetypes="csc" />
        <path
           style="fill:url(#linearGradient1156);fill-opacity:1;stroke:url(#linearGradient1525);stroke-width:0.631152;stroke-linecap:round;stroke-linejoin:round;stroke-miterlimit:4;stroke-dasharray:none;stroke-opacity:1"
           d="M 17.627159,5.6496581 12.067709,12.5 l 1,1 6.55945,-5.3503419"
           id="path1178"
           sodipodi:nodetypes="cccc" />
        <circle
           style="opacity:1;fill:url(#radialGradient7024);fill-opacity:1;fill-rule:evenodd;stroke:#747474;stroke-width:0.631152;stroke-linecap:round;stroke-linejoin:round;stroke-miterlimit:4;stroke-dasharray:none;stroke-opacity:1;stop-color:#000000"
           id="path1022"
           cx="21.067709"
           cy="4.5"
           r="4.1590362" />
      </g>
      <g
         id="g878"
         transform="rotate(-60.666036,120.16464,104.39902)" />
    </g>
    <path
       id="circle1135"
       style="fill:#212121;fill-opacity:1;fill-rule:evenodd;stroke:none;stroke-width:31.1562;stroke-linecap:round;stroke-linejoin:round;stroke-miterlimit:4;stroke-dasharray:none;filter:url(#filter1540)"
       d="m 205.60665,4.204559 a 57.32625,57.32625 0 0 0 -57.32617,57.326172 57.32625,57.32625 0 0 0 10.875,33.359375 57.32625,57.32625 0 0 0 49.49414,28.656254 A 57.32625,57.32625 0 0 0 265.97579,66.220184 57.32625,57.32625 0 0 0 255.15352,32.72409 57.32625,57.32625 0 0 0 205.60665,4.204559 Z" />
    <g
       transform="matrix(2.6663372,0,0,2.6663372,381.47135,-2.4621815)"
       id="g940">
      <circle
         style="opacity:1;fill:#ffffff;fill-opacity:1;fill-rule:evenodd;stroke:none;stroke-width:11.685;stroke-linecap:round;stroke-linejoin:round;stroke-miterlimit:4;stroke-dasharray:none"
         id="path919"
         cx="-67.310364"
         cy="22.756973"
         r="18.249216" />
      <path
         d="m -66.691769,2.7592809 a 21.5,21.5 0 0 0 -21.5,21.5000001 21.5,21.5 0 0 0 21.5,21.5 21.5,21.5 0 0 0 21.5,-21.5 21.5,21.5 0 0 0 -21.5,-21.5000001 z m 0,5.5 a 16,16 0 0 1 16,16.0000001 16,16 0 0 1 -2.099609,7.921875 L -74.8988,10.524906 a 16,16 0 0 1 8.207031,-2.2656251 z M -79.40466,14.54639 -56.978878,36.972172 a 16,16 0 0 1 -9.712891,3.287109 16,16 0 0 1 -16,-16 16,16 0 0 1 3.287109,-9.712891 z"
         style="opacity:1;fill:#a21907;fill-opacity:1;fill-rule:evenodd;stroke:none;stroke-width:11.685;stroke-linecap:round;stroke-linejoin:round;stroke-miterlimit:4;stroke-dasharray:none"
         id="path917" />
      <path
         id="path889"
         style="opacity:1;fill:#f52e14;fill-opacity:1;fill-rule:evenodd;stroke:none;stroke-width:11.685;stroke-linecap:round;stroke-linejoin:round;stroke-miterlimit:4;stroke-dasharray:none"
         d="m -67.832682,1 a 21.5,21.5 0 0 0 -21.5,21.5 21.5,21.5 0 0 0 21.5,21.5 21.5,21.5 0 0 0 21.5,-21.5 21.5,21.5 0 0 0 -21.5,-21.5 z m 0,5.5 a 16,16 0 0 1 16,16 16,16 0 0 1 -2.099609,7.921875 L -76.039713,8.765625 A 16,16 0 0 1 -67.832682,6.5 Z m -12.712891,6.287109 22.425782,22.425782 A 16,16 0 0 1 -67.832682,38.5 a 16,16 0 0 1 -16,-16 16,16 0 0 1 3.287109,-9.712891 z" />
    </g>
  </g>
</svg>
