<?xml version="1.0" encoding="UTF-8" standalone="no"?>
<!-- Created with Inkscape (http://www.inkscape.org/) -->

<svg
   width="48"
   height="48"
   viewBox="0 0 48 48"
   version="1.1"
   id="svg1"
   inkscape:version="1.3.2 (1:1.3.2+202311252150+091e20ef0f)"
   sodipodi:docname="network-flightmode-on.svg"
   xml:space="preserve"
   xmlns:inkscape="http://www.inkscape.org/namespaces/inkscape"
   xmlns:sodipodi="http://sodipodi.sourceforge.net/DTD/sodipodi-0.dtd"
   xmlns:xlink="http://www.w3.org/1999/xlink"
   xmlns="http://www.w3.org/2000/svg"
   xmlns:svg="http://www.w3.org/2000/svg"><sodipodi:namedview
     id="namedview1"
     pagecolor="#ffffff"
     bordercolor="#000000"
     borderopacity="0.25"
     inkscape:showpageshadow="2"
     inkscape:pageopacity="0.0"
     inkscape:pagecheckerboard="0"
     inkscape:deskcolor="#d1d1d1"
     inkscape:document-units="px"
     showgrid="false"
     inkscape:zoom="22.627417"
     inkscape:cx="26.980543"
     inkscape:cy="14.71666"
     inkscape:window-width="3840"
     inkscape:window-height="2057"
     inkscape:window-x="0"
     inkscape:window-y="0"
     inkscape:window-maximized="1"
     inkscape:current-layer="layer1"><inkscape:grid
       id="grid1"
       units="px"
       originx="0"
       originy="0"
       spacingx="1"
       spacingy="1"
       empcolor="#0099e5"
       empopacity="0.30196078"
       color="#0099e5"
       opacity="0.14901961"
       empspacing="5"
       dotted="false"
       gridanglex="30"
       gridanglez="30"
       visible="false" /><inkscape:grid
       id="grid2"
       units="px"
       originx="0"
       originy="0"
       spacingx="0.5"
       spacingy="0.5"
       empcolor="#0099e5"
       empopacity="0.30196078"
       color="#0099e5"
       opacity="0.14901961"
       empspacing="5"
       dotted="false"
       gridanglex="30"
       gridanglez="30"
       visible="false" /></sodipodi:namedview><defs
     id="defs1"><linearGradient
       id="linearGradient25"
       inkscape:collect="always"><stop
         style="stop-color:#003399;stop-opacity:1"
         offset="0"
         id="stop25" /><stop
         style="stop-color:#0099ff;stop-opacity:1"
         offset="1"
         id="stop26" /></linearGradient><linearGradient
       id="linearGradient12"
       inkscape:collect="always"><stop
         style="stop-color:#99ccff;stop-opacity:1"
         offset="0"
         id="stop11" /><stop
         style="stop-color:#ffffff;stop-opacity:1;"
         offset="1"
         id="stop12" /></linearGradient><linearGradient
       inkscape:collect="always"
       xlink:href="#linearGradient12"
       id="linearGradient80"
       gradientUnits="userSpaceOnUse"
       gradientTransform="matrix(0.89562912,0,0,0.89562912,23.075725,-3.2570731)"
       x1="17.788628"
       y1="31.329409"
       x2="17.06307"
       y2="34.037224" /><radialGradient
       inkscape:collect="always"
       xlink:href="#linearGradient25"
       id="radialGradient80"
       gradientUnits="userSpaceOnUse"
       gradientTransform="matrix(0.89562911,0,0,1.2656409,28.212008,-26.3477)"
       cx="21.203983"
       cy="33.455738"
       fx="21.203983"
       fy="33.455738"
       r="2.1010673" /><linearGradient
       inkscape:collect="always"
       xlink:href="#linearGradient12"
       id="linearGradient81"
       gradientUnits="userSpaceOnUse"
       gradientTransform="matrix(1.0981434,0,0,1.0981434,0.28086435,-0.25680249)"
       x1="24.651207"
       y1="21.034431"
       x2="31.765924"
       y2="21.349846" /><linearGradient
       inkscape:collect="always"
       xlink:href="#linearGradient12"
       id="linearGradient82"
       gradientUnits="userSpaceOnUse"
       gradientTransform="matrix(1.0981434,0,0,1.0981434,0.92060031,-1.0405455)"
       x1="11.283416"
       y1="15.121873"
       x2="15.951952"
       y2="15.121873" /><linearGradient
       inkscape:collect="always"
       xlink:href="#linearGradient12"
       id="linearGradient83"
       gradientUnits="userSpaceOnUse"
       gradientTransform="matrix(1.0981434,0,0,1.0981434,0.92060031,-1.0405455)"
       x1="16.192795"
       y1="25.675875"
       x2="17.747545"
       y2="23.014423" /><linearGradient
       inkscape:collect="always"
       xlink:href="#linearGradient12"
       id="linearGradient84"
       gradientUnits="userSpaceOnUse"
       gradientTransform="translate(-0.90761729,3.0931621)"
       x1="17.788628"
       y1="31.329409"
       x2="17.06307"
       y2="34.037224" /><linearGradient
       inkscape:collect="always"
       xlink:href="#linearGradient12"
       id="linearGradient85"
       gradientUnits="userSpaceOnUse"
       gradientTransform="matrix(1.0981434,0,0,1.0981434,-0.43434909,-0.46382682)"
       x1="3.5085852"
       y1="31.119009"
       x2="11.566827"
       y2="29.984861" /><linearGradient
       inkscape:collect="always"
       xlink:href="#linearGradient12"
       id="linearGradient86"
       gradientUnits="userSpaceOnUse"
       gradientTransform="matrix(1.0981434,0,0,1.0981434,1.1733438,-0.71302091)"
       x1="5.9733419"
       y1="14.998633"
       x2="10.440839"
       y2="14.998633" /><linearGradient
       inkscape:collect="always"
       xlink:href="#linearGradient12"
       id="linearGradient87"
       gradientUnits="userSpaceOnUse"
       gradientTransform="matrix(1.0981434,0,0,1.0981434,0.92060031,-1.0405455)"
       x1="7.2932839"
       y1="17.406372"
       x2="6.1179862"
       y2="21.419655" /><radialGradient
       inkscape:collect="always"
       xlink:href="#linearGradient25"
       id="radialGradient87"
       gradientUnits="userSpaceOnUse"
       gradientTransform="matrix(1,0,0,1.4131306,7.0901774,-16.733983)"
       cx="21.203983"
       cy="33.455738"
       fx="21.203983"
       fy="33.455738"
       r="2.1010674" /></defs><g
     inkscape:label="Στρώση 1"
     inkscape:groupmode="layer"
     id="layer1"><path
       style="fill:url(#linearGradient80);fill-rule:evenodd;stroke:#003399;stroke-width:0.671722;stroke-linecap:round;stroke-linejoin:round;stroke-opacity:1"
       d="m 34.957271,25.425606 c 0.452706,0.807555 4.86642,4.340171 7.147515,4.350354 l 0.982764,-4.548389 c -0.730041,-0.837852 -4.765218,-2.07165 -6.735675,-1.779911"
       id="path64"
       sodipodi:nodetypes="cccc" /><ellipse
       style="fill:url(#radialGradient80);fill-rule:evenodd;stroke:#003399;stroke-width:0.671722;stroke-linecap:round;stroke-linejoin:round;stroke-opacity:1"
       id="ellipse64"
       cx="47.580448"
       cy="16.989868"
       rx="1.5459162"
       ry="2.3233359"
       transform="rotate(13.29725)" /><path
       style="fill:url(#linearGradient81);fill-rule:evenodd;stroke:#003399;stroke-width:1;stroke-linecap:round;stroke-linejoin:round;stroke-opacity:1;stroke-dasharray:none"
       d="m 27.904296,24.129351 15.034886,-5.135739 2.515692,1.058067 -8.935276,7.145104"
       id="path65"
       sodipodi:nodetypes="cccc" /><path
       style="fill:url(#linearGradient82);fill-rule:evenodd;stroke:#003399;stroke-width:1;stroke-linecap:round;stroke-linejoin:round;stroke-dasharray:none;stroke-opacity:1"
       d="m 12.911517,18.362452 5.702919,-2.026967 2.196287,0.549071 -3.098796,3.663817"
       id="path66"
       sodipodi:nodetypes="cccc" /><path
       style="fill:url(#linearGradient83);fill-rule:evenodd;stroke:#003399;stroke-width:1;stroke-linecap:round;stroke-linejoin:round;stroke-dasharray:none;stroke-opacity:1"
       d="m 34.15751,37.394474 c 3.858871,2.229886 9.350121,5.537081 10.644295,1.654558 0.549072,-1.647216 -0.08986,-4.534137 -2.987385,-6.346368 0,0 -0.07927,-4.223149 -1.909728,-5.191481 L 9.5960945,17.114753 C 7.3998077,16.565682 7.4671656,20.857717 9.1143807,21.95586 Z"
       id="path67"
       sodipodi:nodetypes="csccccc" /><path
       style="fill:url(#linearGradient86);fill-rule:evenodd;stroke:#003399;stroke-width:1;stroke-linecap:round;stroke-linejoin:round;stroke-opacity:1;stroke-dasharray:none"
       d="M 16.69602,19.575697 12.827391,7.8778618 9.53296,7.3287901 9.58644,17.081905"
       id="path70"
       sodipodi:nodetypes="cccc" /><path
       style="fill:url(#linearGradient84);fill-rule:evenodd;stroke:#003399;stroke-width:0.75;stroke-linecap:round;stroke-linejoin:round;stroke-opacity:1"
       d="m 12.124834,34.581645 c 0.505461,0.901662 5.667216,5.382639 8.214135,5.394009 l 1.097289,-5.078429 c -0.815115,-0.93549 -5.320526,-2.313067 -7.520608,-1.987331"
       id="path68"
       sodipodi:nodetypes="cccc" /><path
       style="fill:url(#linearGradient85);fill-rule:evenodd;stroke:#003399;stroke-width:1;stroke-linecap:round;stroke-linejoin:round;stroke-opacity:1;stroke-dasharray:none"
       d="M 4.991534,36.206343 0.59896037,34.559128 20.430376,27.236644 l 9.334219,4.69476 z"
       id="path69"
       sodipodi:nodetypes="ccccc" /><path
       style="fill:url(#linearGradient87);fill-rule:evenodd;stroke:#003399;stroke-width:1;stroke-linecap:round;stroke-linejoin:round;stroke-dasharray:none;stroke-opacity:1"
       d="M 15.383866,22.207128 3.8407828,22.879154 1.0441416,21.27713 9.8129141,19.315527 Z"
       id="path71"
       sodipodi:nodetypes="ccccc" /><path
       style="fill:#0099ff;fill-opacity:1;fill-rule:evenodd;stroke:none;stroke-width:1;stroke-linecap:round;stroke-linejoin:round;stroke-dasharray:none;stroke-opacity:1"
       d="m 40.832129,29.742663 -0.573996,0.647355 0.451429,2.231927 0.579782,-0.522733 c -0.06723,-0.734619 -0.151055,-1.423042 -0.457215,-2.356549 z"
       id="path72"
       sodipodi:nodetypes="ccccc" /><path
       style="fill:#0099ff;fill-rule:evenodd;stroke:none;stroke-width:1;stroke-linecap:round;stroke-linejoin:round;stroke-opacity:1;stroke-dasharray:none"
       d="m 40.249599,32.756556 -0.300723,-2.32441 -1.415678,0.296796 -0.490618,2.292563 z"
       id="path73"
       sodipodi:nodetypes="ccccc" /><path
       style="fill:#0099ff;fill-rule:evenodd;stroke:none;stroke-width:1;stroke-linecap:round;stroke-linejoin:round;stroke-opacity:1;stroke-dasharray:none"
       d="m 38.041602,30.760432 -0.566481,2.247286 -2.02626,-0.174324 0.850791,-2.257699 z"
       id="path74"
       sodipodi:nodetypes="ccccc" /><rect
       style="fill:#0099ff;fill-rule:evenodd;stroke:none;stroke-width:1.01890984;stroke-linecap:round;stroke-linejoin:round;stroke-opacity:1;stroke-dasharray:none"
       id="rect74"
       width="1.7101012"
       height="2.1962869"
       x="30.944208"
       y="19.290989"
       rx="0.57003373"
       ry="0.54907173"
       transform="matrix(0.96322664,0.26869022,0,1,0,0)" /><rect
       style="fill:#0099ff;fill-rule:evenodd;stroke:none;stroke-width:1.01890984;stroke-linecap:round;stroke-linejoin:round;stroke-opacity:1;stroke-dasharray:none"
       id="rect75"
       width="1.7101012"
       height="2.1962869"
       x="26.961401"
       y="18.736147"
       rx="0.57003373"
       ry="0.54907173"
       transform="matrix(0.96322664,0.26869022,0,1,0,0)" /><rect
       style="fill:#0099ff;fill-rule:evenodd;stroke:none;stroke-width:1.01890984;stroke-linecap:round;stroke-linejoin:round;stroke-opacity:1;stroke-dasharray:none"
       id="rect76"
       width="1.5435739"
       height="1.9824154"
       x="23.416521"
       y="18.147728"
       rx="0.51452464"
       ry="0.49560386"
       transform="matrix(0.96322664,0.26869022,0,1,0,0)" /><rect
       style="fill:#0099ff;fill-rule:evenodd;stroke:none;stroke-width:1.01890984;stroke-linecap:round;stroke-linejoin:round;stroke-opacity:1;stroke-dasharray:none"
       id="rect77"
       width="1.3986034"
       height="1.7962296"
       x="20.024624"
       y="17.782106"
       rx="0.46620116"
       ry="0.4490574"
       transform="matrix(0.96322664,0.26869022,0,1,0,0)" /><rect
       style="fill:#0099ff;fill-rule:evenodd;stroke:none;stroke-width:1.01890984;stroke-linecap:round;stroke-linejoin:round;stroke-opacity:1;stroke-dasharray:none"
       id="rect78"
       width="1.2898812"
       height="1.6565974"
       x="16.888994"
       y="17.328003"
       rx="0.42996043"
       ry="0.41414934"
       transform="matrix(0.96322664,0.26869022,0,1,0,0)" /><ellipse
       style="fill:url(#radialGradient87);fill-rule:evenodd;stroke:#003399;stroke-width:0.75;stroke-linecap:round;stroke-linejoin:round;stroke-opacity:1"
       id="ellipse80"
       cx="28.715691"
       cy="31.653866"
       rx="1.7260674"
       ry="2.5940826"
       transform="rotate(13.29725)" /><g
       id="g2"
       transform="rotate(-37.890353,35.632968,10.383294)"><path
         style="color:#000000;fill:#006600;fill-rule:evenodd;stroke-linecap:round;stroke-linejoin:round;-inkscape-stroke:none"
         d="m 33.817352,4.7138463 c -0.250786,-0.116133 -0.485661,0.6347561 -0.55954,0.9280493 -0.06742,0.2676394 0.02573,0.4928311 0.242188,0.6640625 0.155899,0.123326 0.453257,0.2254052 1.013672,0.8776356 0.560415,0.6522305 1.128906,1.6854555 1.128906,3.3164063 0,1.630951 -0.569544,2.671486 -1.130859,3.330078 -0.561315,0.658592 -0.845648,0.787373 -1.025964,0.923141 -0.220712,0.166185 -0.322555,0.402902 -0.238281,0.666015 0.08189,0.255659 0.129802,0.453704 0.343906,0.824542 0,0 0.993374,-0.957227 1.682057,-1.76526 0.688684,-0.808034 1.369141,-2.10947 1.369141,-3.978516 0,-1.8690457 -0.68151,-3.1661892 -1.371094,-3.96875 C 34.581901,5.7286892 33.817352,4.7138463 33.817352,4.7138463 Z"
         id="path1-2"
         sodipodi:nodetypes="cssssssscsssc" /><path
         style="fill:none;fill-rule:evenodd;stroke:#99ff66;stroke-width:1;stroke-linecap:round;stroke-linejoin:round;stroke-dasharray:none;stroke-opacity:1"
         d="m 34,5 c 0,0 3,1.3367228 3,5.5 0,4.163277 -3,5.5 -3,5.5"
         id="path1"
         sodipodi:nodetypes="czc" /><path
         style="color:#000000;fill:#006600;fill-rule:evenodd;stroke-linecap:round;stroke-linejoin:round;-inkscape-stroke:none"
         d="m 28.865397,6.6156206 c -0.250819,-0.1130069 -0.371225,0.4956387 -0.440836,0.8168232 -0.05857,0.270216 0.09335,0.4408138 0.301373,0.6229935 0.139468,0.1221406 0.221195,0.1969308 0.512939,0.5538843 0.291744,0.3569535 0.550445,0.9805569 0.550189,1.9746624 -2.51e-4,0.980807 -0.338877,1.536231 -0.666015,1.882813 -0.327138,0.346582 -0.411418,0.385185 -0.574854,0.476859 -0.241658,0.13555 -0.349052,0.38189 -0.294922,0.644531 0.05584,0.270938 0.453696,0.860707 0.453696,0.860707 0,0 0.66746,-0.791171 1.142642,-1.294597 0.475183,-0.503426 0.939139,-1.346909 0.939453,-2.570313 C 30.789374,9.3738787 30.385087,8.5321887 29.962891,8.015625 29.540695,7.4990613 28.865397,6.6156206 28.865397,6.6156206 Z"
         id="path1-2-7"
         sodipodi:nodetypes="cssssssscsssc" /><path
         style="fill:none;fill-rule:evenodd;stroke:#99ff66;stroke-width:1;stroke-linecap:round;stroke-linejoin:round;stroke-dasharray:none;stroke-opacity:1"
         d="m 29.093995,6.8333333 c 0,0 2,0.8911487 2,3.6666667 0,2.775518 -2,3.666667 -2,3.666667"
         id="path1-9"
         sodipodi:nodetypes="czc" /><path
         style="color:#000000;fill:#006600;fill-rule:evenodd;stroke-linecap:round;stroke-linejoin:round;-inkscape-stroke:none"
         d="m 38.289001,3 c -0.12677,0.040408 -0.230156,0.6785462 -0.254592,0.7969476 -0.05562,0.2695155 -0.0021,0.683076 0.242214,0.8097481 0.233586,0.1211127 2.828846,1.4816193 2.828846,5.7761173 0,4.290392 -2.725458,5.782166 -2.934391,5.890942 -0.244715,0.127407 -0.25946,0.401892 -0.21289,0.673828 0.04181,0.244147 0.302142,0.824726 0.302142,0.824726 0,0 3.845139,-2.626022 3.845139,-7.389496 0,-4.7593698 -3.435609,-7.3496099 -3.435609,-7.3496099 C 38.552318,2.9721216 38.41534,2.9601799 38.289001,3 Z"
         id="path1-2-3"
         sodipodi:nodetypes="cssssscscc" /><path
         style="fill:none;fill-rule:evenodd;stroke:#99ff66;stroke-width:1;stroke-linecap:round;stroke-linejoin:round;stroke-dasharray:none;stroke-opacity:1"
         d="m 38.646169,3.2695342 c 0,0 3.880233,1.7289321 3.880233,7.1137608 0,5.384828 -3.880233,7.113759 -3.880233,7.113759"
         id="path1-6"
         sodipodi:nodetypes="czc" /></g></g></svg>
