<?xml version="1.0" encoding="UTF-8" standalone="no"?>
<svg
   width="256"
   height="256"
   viewBox="0 0 256 256"
   version="1.1"
   id="svg8"
   inkscape:version="1.1.2 (0a00cf5339, 2022-02-04)"
   sodipodi:docname="security-low.svg"
   inkscape:export-filename="security-low.png"
   inkscape:export-xdpi="96"
   inkscape:export-ydpi="96"
   xmlns:inkscape="http://www.inkscape.org/namespaces/inkscape"
   xmlns:sodipodi="http://sodipodi.sourceforge.net/DTD/sodipodi-0.dtd"
   xmlns:xlink="http://www.w3.org/1999/xlink"
   xmlns="http://www.w3.org/2000/svg"
   xmlns:svg="http://www.w3.org/2000/svg"
   xmlns:rdf="http://www.w3.org/1999/02/22-rdf-syntax-ns#"
   xmlns:cc="http://creativecommons.org/ns#"
   xmlns:dc="http://purl.org/dc/elements/1.1/">
  <defs
     id="defs2">
    <linearGradient
       inkscape:collect="always"
       id="linearGradient15452">
      <stop
         style="stop-color:#848ace;stop-opacity:1"
         offset="0"
         id="stop15448" />
      <stop
         style="stop-color:#4a51ad;stop-opacity:1"
         offset="1"
         id="stop15450" />
    </linearGradient>
    <linearGradient
       inkscape:collect="always"
       id="linearGradient43875">
      <stop
         style="stop-color:#ffffff;stop-opacity:0.99792176"
         offset="0"
         id="stop43871" />
      <stop
         style="stop-color:#ffffff;stop-opacity:0"
         offset="0.41335297"
         id="stop46208" />
      <stop
         style="stop-color:#ffffff;stop-opacity:0"
         offset="0.69808322"
         id="stop44412" />
      <stop
         style="stop-color:#ffffff;stop-opacity:0.40000001"
         offset="0.89826292"
         id="stop45374" />
      <stop
         style="stop-color:#ffffff;stop-opacity:0.40000001"
         offset="1"
         id="stop43873" />
    </linearGradient>
    <linearGradient
       inkscape:collect="always"
       id="linearGradient2056">
      <stop
         style="stop-color:#ffffff;stop-opacity:1"
         offset="0"
         id="stop2052" />
      <stop
         style="stop-color:#94a6e7;stop-opacity:1"
         offset="0.2"
         id="stop2109" />
      <stop
         style="stop-color:#efefff;stop-opacity:1"
         offset="1"
         id="stop2054" />
    </linearGradient>
    <linearGradient
       inkscape:collect="always"
       xlink:href="#linearGradient2056"
       id="linearGradient2058"
       x1="-62.210537"
       y1="41.485077"
       x2="-62.210537"
       y2="80.711922"
       gradientUnits="userSpaceOnUse"
       gradientTransform="translate(-7.961146,-3.556096)" />
    <radialGradient
       inkscape:collect="always"
       xlink:href="#linearGradient43875"
       id="radialGradient43879"
       cx="-27.432291"
       cy="47.161766"
       fx="-27.432291"
       fy="47.161766"
       r="15"
       gradientTransform="matrix(0.57115348,1.9878573,-1.6453032,0.47273048,15.827257,77.200964)"
       gradientUnits="userSpaceOnUse" />
    <linearGradient
       inkscape:collect="always"
       xlink:href="#linearGradient15452"
       id="linearGradient15454"
       x1="-65.111061"
       y1="46.475666"
       x2="-65.111061"
       y2="38.752747"
       gradientUnits="userSpaceOnUse" />
    <linearGradient
       inkscape:collect="always"
       xlink:href="#linearGradient15452"
       id="linearGradient48845"
       gradientUnits="userSpaceOnUse"
       x1="-65.111061"
       y1="46.475666"
       x2="-65.111061"
       y2="38.752747"
       gradientTransform="matrix(-1,0,0,1,-122.87242,0.0274736)" />
    <filter
       inkscape:collect="always"
       style="color-interpolation-filters:sRGB"
       id="filter51190"
       x="-0.053059867"
       y="-0.043821154"
       width="1.1061197"
       height="1.0876423">
      <feGaussianBlur
         inkscape:collect="always"
         stdDeviation="4.4186328"
         id="feGaussianBlur51192" />
    </filter>
    <linearGradient
       inkscape:collect="always"
       id="linearGradient1053">
      <stop
         style="stop-color:#fc4c4c;stop-opacity:1"
         offset="0"
         id="stop1047" />
      <stop
         id="stop1049"
         offset="0.53080672"
         style="stop-color:#ce0000;stop-opacity:1" />
      <stop
         style="stop-color:#9e0000;stop-opacity:1"
         offset="0.83750206"
         id="stop1055" />
      <stop
         style="stop-color:#770101;stop-opacity:1"
         offset="1"
         id="stop1051" />
    </linearGradient>
    <linearGradient
       id="linearGradient1045"
       inkscape:collect="always">
      <stop
         id="stop1037"
         offset="0"
         style="stop-color:#d10100;stop-opacity:0" />
      <stop
         style="stop-color:#d10100;stop-opacity:0"
         offset="0.22104843"
         id="stop1039" />
      <stop
         id="stop1041"
         offset="0.73682809"
         style="stop-color:#ff2121;stop-opacity:0.51653874" />
      <stop
         id="stop1043"
         offset="1"
         style="stop-color:#ffa0a0;stop-opacity:1" />
    </linearGradient>
    <radialGradient
       inkscape:collect="always"
       xlink:href="#linearGradient1053"
       id="radialGradient892-1"
       cx="-73.449471"
       cy="6.6143513"
       fx="-73.449471"
       fy="6.6143513"
       r="22.5"
       gradientUnits="userSpaceOnUse"
       gradientTransform="matrix(3.8635202,9.282772,-7.848616,3.26662,431.96578,673.89845)" />
    <radialGradient
       inkscape:collect="always"
       xlink:href="#linearGradient1045"
       id="radialGradient908-6"
       gradientUnits="userSpaceOnUse"
       gradientTransform="matrix(2.1491218,-0.58449829,0.25031403,0.92037085,-118.37948,168.04356)"
       cx="-47.658783"
       cy="15.382224"
       fx="-47.658783"
       fy="15.382224"
       r="22.5" />
    <filter
       inkscape:collect="always"
       style="color-interpolation-filters:sRGB"
       id="filter916-5"
       x="-0.048000657"
       width="1.0960013"
       y="-0.07938596"
       height="1.1587719">
      <feGaussianBlur
         inkscape:collect="always"
         stdDeviation="0.81563614"
         id="feGaussianBlur918-7" />
    </filter>
    <filter
       height="1.096"
       y="-0.048000001"
       width="1.096"
       x="-0.048000001"
       id="filter1071"
       style="color-interpolation-filters:sRGB"
       inkscape:collect="always">
      <feGaussianBlur
         id="feGaussianBlur1073"
         stdDeviation="4.9"
         inkscape:collect="always" />
    </filter>
  </defs>
  <sodipodi:namedview
     inkscape:snap-object-midpoints="false"
     inkscape:snap-bbox-midpoints="false"
     showguides="false"
     id="base"
     pagecolor="#ffffff"
     bordercolor="#666666"
     borderopacity="1.0"
     inkscape:pageopacity="0.0"
     inkscape:pageshadow="2"
     inkscape:zoom="3.4628906"
     inkscape:cx="59.77665"
     inkscape:cy="178.89679"
     inkscape:document-units="px"
     inkscape:current-layer="layer1"
     inkscape:document-rotation="0"
     showgrid="false"
     units="px"
     inkscape:window-width="3840"
     inkscape:window-height="2043"
     inkscape:window-x="0"
     inkscape:window-y="0"
     inkscape:window-maximized="1"
     inkscape:snap-bbox="true"
     inkscape:bbox-nodes="true"
     fit-margin-top="0"
     fit-margin-left="0"
     fit-margin-right="0"
     fit-margin-bottom="0"
     inkscape:bbox-paths="false"
     inkscape:snap-global="true"
     inkscape:pagecheckerboard="0">
    <inkscape:grid
       type="xygrid"
       id="grid1504"
       originx="0"
       originy="0" />
    <inkscape:grid
       type="xygrid"
       id="grid1507"
       spacingx="0.5"
       spacingy="0.5"
       originx="0"
       originy="0" />
  </sodipodi:namedview>
  <metadata
     id="metadata5">
    <rdf:RDF>
      <cc:Work
         rdf:about="">
        <dc:format>image/svg+xml</dc:format>
        <dc:type
           rdf:resource="http://purl.org/dc/dcmitype/StillImage" />
      </cc:Work>
    </rdf:RDF>
  </metadata>
  <g
     inkscape:label="Layer 1"
     inkscape:groupmode="layer"
     id="layer1"
     transform="translate(-12.567709)">
    <path
       id="path51003"
       style="color:#000000;fill:#212121;fill-opacity:1;fill-rule:evenodd;stroke-linecap:round;stroke-linejoin:round;-inkscape-stroke:none;filter:url(#filter51190)"
       d="m 137.35251,4 a 4.1071807,4.1071807 0 0 0 -2.25,0.671875 C 126.83673,10.088179 112.58484,22.451354 96.487272,33.615234 80.389704,44.779115 62.530373,54.299858 49.725553,54.351562 a 4.1071807,4.1071807 0 0 0 -4.089844,4.105469 c 0,77.441879 22.222226,124.411729 45.824219,151.888669 11.800992,13.73848 23.906622,22.59429 33.669922,28.03321 4.88165,2.71945 9.17421,4.58608 12.59375,5.79297 3.41954,1.20689 5.56221,1.82812 7.84375,1.82812 2.16746,0 4.34624,-0.55732 7.76562,-1.68945 3.41939,-1.13214 7.71891,-2.90005 12.60743,-5.51172 9.77702,-5.22334 21.90274,-13.82891 33.71679,-27.40625 23.6281,-27.15468 45.8418,-74.13847 45.8418,-152.935549 a 4.1071807,4.1071807 0 0 0 -4.10742,-4.105469 c -13.23778,0 -31.13495,-9.696297 -47.16406,-20.96875 C 178.19839,22.110362 164.25279,9.7466772 155.93844,4.6132812 A 4.1071807,4.1071807 0 0 0 153.78024,4 Z" />
    <g
       id="g51001"
       transform="matrix(5.4756939,0,0,5.4756939,476.95213,-190.77232)">
      <path
         id="path50814"
         style="fill:none;fill-opacity:1;fill-rule:evenodd;stroke:#484848;stroke-width:1.5;stroke-linecap:round;stroke-linejoin:round;stroke-miterlimit:4;stroke-dasharray:none;stroke-opacity:1;stop-color:#000000"
         d="m -75.5,35.589844 c -2.788086,1.826944 -10.640598,9.173671 -16,9.195312 0,28 16,33.5 17.5,33.5 1.5,0 17.5,-5 17.5,-33.5 -5.515873,0 -13.27037,-7.51 -16,-9.195312 z"
         transform="translate(12.567709)" />
      <g
         id="g50752">
        <g
           id="g4213"
           transform="translate(8.5,-0.214844)"
           style="opacity:1">
          <path
             id="rect20883"
             style="opacity:1;fill:#f62c01;fill-opacity:1;fill-rule:evenodd;stroke:none;stroke-width:15;stroke-linecap:round;stroke-linejoin:round;stop-color:#000000"
             d="m -71.221353,38.5 c -1.717647,1.288235 -6.052114,4.994117 -14.210938,8 0,4.836061 0.601545,9.608248 1.5,13 h 14.5 v -21 z"
             sodipodi:nodetypes="cccccc" />
          <path
             id="rect20883-5"
             style="opacity:1;fill:#ffe700;fill-opacity:1;fill-rule:evenodd;stroke:none;stroke-width:15;stroke-linecap:round;stroke-linejoin:round;stop-color:#000000"
             d="m -69.936197,58.5 -0.01609,18.035835 c 1.033318,0 11.4767,-4.310609 15.016092,-18.035835 z"
             sodipodi:nodetypes="cccc" />
          <path
             id="rect20883-3"
             style="opacity:1;fill:#84c700;fill-opacity:1;fill-rule:evenodd;stroke:none;stroke-width:15;stroke-linecap:round;stroke-linejoin:round;stop-color:#000000"
             d="m -69.932291,38.5 -5.58e-4,20.5 h 13.996652 c 0.873159,-3.385978 1.5,-8.156578 1.5,-13 -4.72353,-0.858824 -12.489385,-6.211765 -14.207032,-7.5 z"
             sodipodi:nodetypes="cccccc" />
          <path
             id="rect20883-5-2"
             style="opacity:1;fill:#2b7afd;fill-opacity:1;fill-rule:evenodd;stroke:none;stroke-width:15;stroke-linecap:round;stroke-linejoin:round;stop-color:#000000"
             d="m -83.932291,59 c 3.569064,13.473554 12.97084,17 14,17 l -5.58e-4,-17 z"
             sodipodi:nodetypes="cccc" />
          <path
             style="opacity:1;mix-blend-mode:normal;fill:url(#radialGradient43879);fill-opacity:1;stroke:none;stroke-width:0.857143px;stroke-linecap:butt;stroke-linejoin:miter;stroke-opacity:1"
             d="m -85.936197,46.5 c 8.142857,-3 12.875519,-7.284498 14.589805,-8.570213 h 2.571428 c 1.714286,1.285715 10.061661,7.39692 14.775947,8.254063 0,24.428571 -14.620216,29.979936 -15.90593,29.979936 -1.285714,0 -16.03125,-5.663786 -16.03125,-29.663786 z"
             id="path1054-7"
             sodipodi:nodetypes="cccczc" />
          <path
             id="path1054"
             style="opacity:1;fill:url(#linearGradient2058);fill-opacity:1;stroke:none;stroke-width:1px;stroke-linecap:butt;stroke-linejoin:miter;stroke-opacity:1"
             d="m -71.432291,35.805573 c -2.788086,1.826944 -10.640598,9.172786 -16,9.194427 0,28 16,33.5 17.5,33.5 1.5,0 17.5,-5 17.5,-33.5 -5.515873,0 -13.27037,-7.509115 -16,-9.194427 z m -0.503906,3.409271 c 0,0 0.722968,8.678813 1.983346,8.678813 1.260378,0 2.016654,-8.678813 2.016654,-8.678813 1.714286,1.285715 9.061788,7.358633 13,7.5 0,24.428571 -13.714286,28.71289 -15,28.71289 -1.285714,0 -15,-4.71289 -15,-28.71289 3.644967,0.09142 11.285714,-6.214285 13,-7.5 z"
             sodipodi:nodetypes="ccscccczccscc" />
        </g>
        <path
           style="opacity:1;fill:url(#linearGradient15454);fill-opacity:1;stroke:none;stroke-width:1px;stroke-linecap:butt;stroke-linejoin:miter;stroke-opacity:1"
           d="m -76.440597,47.426328 c 3.972021,0 11.250799,-6.515003 12.704363,-7.282185 0.299249,1.978468 0.578871,5.288781 1.88577,7.115378 -1,-1.5 -1.07001,-8.902184 -1.07001,-8.902184 -4.5,2.5 -10.000155,8.115189 -13.515749,8.115189 z"
           id="path878"
           sodipodi:nodetypes="cccccc" />
        <path
           style="fill:url(#linearGradient48845);fill-opacity:1;stroke:none;stroke-width:1px;stroke-linecap:butt;stroke-linejoin:miter;stroke-opacity:1"
           d="m -46.431823,47.349371 c -4.120195,0 -11.250799,-6.410572 -12.704363,-7.177754 -0.299249,1.978468 -0.578871,5.288781 -1.88577,7.115378 1,-1.5 1.07001,-8.902184 1.07001,-8.902184 4.5,2.5 9.403657,7.746663 13.515749,8.115189 z"
           id="path878-2"
           sodipodi:nodetypes="cccccc" />
      </g>
    </g>
    <g
       inkscape:label="Layer 1"
       id="layer1-9"
       transform="matrix(0.51427432,0,0,0.51427432,128.70864,123.29771)">
      <circle
         style="opacity:1;fill:#ffffff;fill-opacity:1;fill-rule:evenodd;stroke-width:25.196;stroke-linecap:round;stop-color:#000000"
         id="path855"
         cx="135.4584"
         cy="119.19077"
         r="100.98163" />
      <path
         transform="matrix(0.9877551,0,0,0.9877551,378.93181,-109.21165)"
         d="m -243.34382,114.6151 a 122.5,122.5 0 0 0 -122.5,122.5 122.5,122.5 0 0 0 122.5,122.5 122.5,122.5 0 0 0 122.5,-122.5 122.5,122.5 0 0 0 -122.5,-122.5 z m -47.79841,52.93448 47.03276,47.03276 47.03275,-47.03276 24.5,24.5 -47.03276,47.03276 47.03276,47.03276 -24.5,24.5 -47.03275,-47.03276 -47.03276,47.03276 -24.5,-24.5 47.03276,-47.03276 -47.03276,-47.03276 z"
         style="fill:#212121;fill-opacity:1;fill-rule:evenodd;stroke:none;stroke-width:192.907;stroke-linecap:round;filter:url(#filter1071);stop-color:#000000"
         id="path1069" />
      <path
         id="path884-4"
         style="fill:url(#radialGradient892-1);fill-opacity:1;fill-rule:evenodd;stroke:none;stroke-width:190.545;stroke-linecap:round;stop-color:#000000"
         d="M 133.5677,-3.613399e-6 A 121,121 0 0 0 12.567705,121 121,121 0 0 0 133.5677,242 a 121,121 0 0 0 121,-121 121,121 0 0 0 -121,-121.000003613399 z M 86.354581,52.286299 l 46.456849,46.456849 46.45684,-46.456849 24.2,24.2 -46.45685,46.456851 46.45685,46.45685 -24.2,24.2 -46.45684,-46.45685 -46.456849,46.45685 -24.2,-24.2 46.456849,-46.45685 -46.456849,-46.456851 z" />
      <path
         sodipodi:nodetypes="sscccccccccss"
         transform="matrix(5.3777777,0,0,5.3777777,1299.9455,-989.37764)"
         id="circle906-1"
         style="fill:url(#radialGradient908-6);fill-opacity:1;fill-rule:evenodd;stroke:none;stroke-width:32.1106;stroke-linecap:round;filter:url(#filter916-5);stop-color:#000000"
         d="m -216.88844,186.08456 c -11.26159,0 -20.39063,9.12904 -20.39063,20.39062 0,3.60563 2.91975,4.26773 6.71433,4.26773 l 9.03567,-3.9064 -8.63867,-8.63867 4.5,-4.5 8.63867,8.63867 8.63867,-8.63867 4.5,4.5 -8.63867,8.63867 11.54569,1.79035 c 2.88679,0 4.48556,-0.47198 4.48556,-2.15168 0,-11.26158 -9.12904,-20.39062 -20.39062,-20.39062 z" />
    </g>
  </g>
</svg>
