<?xml version="1.0" encoding="UTF-8" standalone="no"?>
<svg
   width="256"
   height="256"
   viewBox="0 0 256 256"
   version="1.1"
   id="svg8"
   inkscape:version="1.1.2 (0a00cf5339, 2022-02-04)"
   sodipodi:docname="security-high.svg"
   inkscape:export-filename="security-high.png"
   inkscape:export-xdpi="96"
   inkscape:export-ydpi="96"
   xmlns:inkscape="http://www.inkscape.org/namespaces/inkscape"
   xmlns:sodipodi="http://sodipodi.sourceforge.net/DTD/sodipodi-0.dtd"
   xmlns:xlink="http://www.w3.org/1999/xlink"
   xmlns="http://www.w3.org/2000/svg"
   xmlns:svg="http://www.w3.org/2000/svg"
   xmlns:rdf="http://www.w3.org/1999/02/22-rdf-syntax-ns#"
   xmlns:cc="http://creativecommons.org/ns#"
   xmlns:dc="http://purl.org/dc/elements/1.1/">
  <defs
     id="defs2">
    <linearGradient
       inkscape:collect="always"
       id="linearGradient15452">
      <stop
         style="stop-color:#848ace;stop-opacity:1"
         offset="0"
         id="stop15448" />
      <stop
         style="stop-color:#4a51ad;stop-opacity:1"
         offset="1"
         id="stop15450" />
    </linearGradient>
    <linearGradient
       inkscape:collect="always"
       id="linearGradient43875">
      <stop
         style="stop-color:#ffffff;stop-opacity:0.99792176"
         offset="0"
         id="stop43871" />
      <stop
         style="stop-color:#ffffff;stop-opacity:0"
         offset="0.41335297"
         id="stop46208" />
      <stop
         style="stop-color:#ffffff;stop-opacity:0"
         offset="0.69808322"
         id="stop44412" />
      <stop
         style="stop-color:#ffffff;stop-opacity:0.40000001"
         offset="0.89826292"
         id="stop45374" />
      <stop
         style="stop-color:#ffffff;stop-opacity:0.40000001"
         offset="1"
         id="stop43873" />
    </linearGradient>
    <linearGradient
       inkscape:collect="always"
       id="linearGradient2056">
      <stop
         style="stop-color:#ffffff;stop-opacity:1"
         offset="0"
         id="stop2052" />
      <stop
         style="stop-color:#94a6e7;stop-opacity:1"
         offset="0.2"
         id="stop2109" />
      <stop
         style="stop-color:#efefff;stop-opacity:1"
         offset="1"
         id="stop2054" />
    </linearGradient>
    <linearGradient
       inkscape:collect="always"
       xlink:href="#linearGradient2056"
       id="linearGradient2058"
       x1="-62.210537"
       y1="41.485077"
       x2="-62.210537"
       y2="80.711922"
       gradientUnits="userSpaceOnUse"
       gradientTransform="translate(-7.961146,-3.556096)" />
    <radialGradient
       inkscape:collect="always"
       xlink:href="#linearGradient43875"
       id="radialGradient43879"
       cx="-27.432291"
       cy="47.161766"
       fx="-27.432291"
       fy="47.161766"
       r="15"
       gradientTransform="matrix(0.57115348,1.9878573,-1.6453032,0.47273048,15.827257,77.200964)"
       gradientUnits="userSpaceOnUse" />
    <linearGradient
       inkscape:collect="always"
       xlink:href="#linearGradient15452"
       id="linearGradient15454"
       x1="-65.111061"
       y1="46.475666"
       x2="-65.111061"
       y2="38.752747"
       gradientUnits="userSpaceOnUse" />
    <linearGradient
       inkscape:collect="always"
       xlink:href="#linearGradient15452"
       id="linearGradient48845"
       gradientUnits="userSpaceOnUse"
       x1="-65.111061"
       y1="46.475666"
       x2="-65.111061"
       y2="38.752747"
       gradientTransform="matrix(-1,0,0,1,-122.87242,0.0274736)" />
    <filter
       inkscape:collect="always"
       style="color-interpolation-filters:sRGB"
       id="filter51190"
       x="-0.053059867"
       y="-0.043821154"
       width="1.1061197"
       height="1.0876423">
      <feGaussianBlur
         inkscape:collect="always"
         stdDeviation="4.4186328"
         id="feGaussianBlur51192" />
    </filter>
    <filter
       height="1.096"
       y="-0.048000001"
       width="1.096"
       x="-0.048000001"
       id="filter1071"
       style="color-interpolation-filters:sRGB"
       inkscape:collect="always">
      <feGaussianBlur
         id="feGaussianBlur1073"
         stdDeviation="4.9"
         inkscape:collect="always" />
    </filter>
    <radialGradient
       inkscape:collect="always"
       xlink:href="#linearGradient21660"
       id="radialGradient22114"
       gradientUnits="userSpaceOnUse"
       gradientTransform="matrix(1.4584701,0,0,1.4584701,376.95715,-76.120893)"
       cx="-214.56883"
       cy="102.78445"
       fx="-214.56883"
       fy="102.78445"
       r="112.01711" />
    <linearGradient
       inkscape:collect="always"
       id="linearGradient21660">
      <stop
         style="stop-color:#10e800;stop-opacity:1"
         offset="0"
         id="stop21656" />
      <stop
         style="stop-color:#0db300;stop-opacity:1"
         offset="1"
         id="stop21658" />
    </linearGradient>
    <linearGradient
       inkscape:collect="always"
       xlink:href="#linearGradient21904"
       id="linearGradient21906"
       x1="212.99319"
       y1="199.77892"
       x2="59.596699"
       y2="48.182297"
       gradientUnits="userSpaceOnUse"
       gradientTransform="matrix(1.0712649,0,0,1.0712649,-22.010821,0.76596246)" />
    <linearGradient
       inkscape:collect="always"
       id="linearGradient21904">
      <stop
         style="stop-color:#008a19;stop-opacity:1"
         offset="0"
         id="stop21900" />
      <stop
         style="stop-color:#00ba24;stop-opacity:1"
         offset="1"
         id="stop21902" />
    </linearGradient>
  </defs>
  <sodipodi:namedview
     inkscape:snap-object-midpoints="false"
     inkscape:snap-bbox-midpoints="false"
     showguides="false"
     id="base"
     pagecolor="#ffffff"
     bordercolor="#666666"
     borderopacity="1.0"
     inkscape:pageopacity="0.0"
     inkscape:pageshadow="2"
     inkscape:zoom="3.4628906"
     inkscape:cx="59.77665"
     inkscape:cy="178.89679"
     inkscape:document-units="px"
     inkscape:current-layer="layer1"
     inkscape:document-rotation="0"
     showgrid="false"
     units="px"
     inkscape:window-width="3840"
     inkscape:window-height="2043"
     inkscape:window-x="0"
     inkscape:window-y="0"
     inkscape:window-maximized="1"
     inkscape:snap-bbox="true"
     inkscape:bbox-nodes="true"
     fit-margin-top="0"
     fit-margin-left="0"
     fit-margin-right="0"
     fit-margin-bottom="0"
     inkscape:bbox-paths="false"
     inkscape:snap-global="true"
     inkscape:pagecheckerboard="0">
    <inkscape:grid
       type="xygrid"
       id="grid1504"
       originx="0"
       originy="0" />
    <inkscape:grid
       type="xygrid"
       id="grid1507"
       spacingx="0.5"
       spacingy="0.5"
       originx="0"
       originy="0" />
  </sodipodi:namedview>
  <metadata
     id="metadata5">
    <rdf:RDF>
      <cc:Work
         rdf:about="">
        <dc:format>image/svg+xml</dc:format>
        <dc:type
           rdf:resource="http://purl.org/dc/dcmitype/StillImage" />
      </cc:Work>
    </rdf:RDF>
  </metadata>
  <g
     inkscape:label="Layer 1"
     inkscape:groupmode="layer"
     id="layer1"
     transform="translate(-12.567709)">
    <path
       id="path51003"
       style="color:#000000;fill:#212121;fill-opacity:1;fill-rule:evenodd;stroke-linecap:round;stroke-linejoin:round;-inkscape-stroke:none;filter:url(#filter51190)"
       d="m 137.35251,4 a 4.1071807,4.1071807 0 0 0 -2.25,0.671875 C 126.83673,10.088179 112.58484,22.451354 96.487272,33.615234 80.389704,44.779115 62.530373,54.299858 49.725553,54.351562 a 4.1071807,4.1071807 0 0 0 -4.089844,4.105469 c 0,77.441879 22.222226,124.411729 45.824219,151.888669 11.800992,13.73848 23.906622,22.59429 33.669922,28.03321 4.88165,2.71945 9.17421,4.58608 12.59375,5.79297 3.41954,1.20689 5.56221,1.82812 7.84375,1.82812 2.16746,0 4.34624,-0.55732 7.76562,-1.68945 3.41939,-1.13214 7.71891,-2.90005 12.60743,-5.51172 9.77702,-5.22334 21.90274,-13.82891 33.71679,-27.40625 23.6281,-27.15468 45.8418,-74.13847 45.8418,-152.935549 a 4.1071807,4.1071807 0 0 0 -4.10742,-4.105469 c -13.23778,0 -31.13495,-9.696297 -47.16406,-20.96875 C 178.19839,22.110362 164.25279,9.7466772 155.93844,4.6132812 A 4.1071807,4.1071807 0 0 0 153.78024,4 Z" />
    <g
       id="g51001"
       transform="matrix(5.4756939,0,0,5.4756939,476.95213,-190.77232)">
      <path
         id="path50814"
         style="fill:none;fill-opacity:1;fill-rule:evenodd;stroke:#484848;stroke-width:1.5;stroke-linecap:round;stroke-linejoin:round;stroke-miterlimit:4;stroke-dasharray:none;stroke-opacity:1;stop-color:#000000"
         d="m -75.5,35.589844 c -2.788086,1.826944 -10.640598,9.173671 -16,9.195312 0,28 16,33.5 17.5,33.5 1.5,0 17.5,-5 17.5,-33.5 -5.515873,0 -13.27037,-7.51 -16,-9.195312 z"
         transform="translate(12.567709)" />
      <g
         id="g50752">
        <g
           id="g4213"
           transform="translate(8.5,-0.214844)"
           style="opacity:1">
          <path
             id="rect20883"
             style="opacity:1;fill:#f62c01;fill-opacity:1;fill-rule:evenodd;stroke:none;stroke-width:15;stroke-linecap:round;stroke-linejoin:round;stop-color:#000000"
             d="m -71.221353,38.5 c -1.717647,1.288235 -6.052114,4.994117 -14.210938,8 0,4.836061 0.601545,9.608248 1.5,13 h 14.5 v -21 z"
             sodipodi:nodetypes="cccccc" />
          <path
             id="rect20883-5"
             style="opacity:1;fill:#ffe700;fill-opacity:1;fill-rule:evenodd;stroke:none;stroke-width:15;stroke-linecap:round;stroke-linejoin:round;stop-color:#000000"
             d="m -69.936197,58.5 -0.01609,18.035835 c 1.033318,0 11.4767,-4.310609 15.016092,-18.035835 z"
             sodipodi:nodetypes="cccc" />
          <path
             id="rect20883-3"
             style="opacity:1;fill:#84c700;fill-opacity:1;fill-rule:evenodd;stroke:none;stroke-width:15;stroke-linecap:round;stroke-linejoin:round;stop-color:#000000"
             d="m -69.932291,38.5 -5.58e-4,20.5 h 13.996652 c 0.873159,-3.385978 1.5,-8.156578 1.5,-13 -4.72353,-0.858824 -12.489385,-6.211765 -14.207032,-7.5 z"
             sodipodi:nodetypes="cccccc" />
          <path
             id="rect20883-5-2"
             style="opacity:1;fill:#2b7afd;fill-opacity:1;fill-rule:evenodd;stroke:none;stroke-width:15;stroke-linecap:round;stroke-linejoin:round;stop-color:#000000"
             d="m -83.932291,59 c 3.569064,13.473554 12.97084,17 14,17 l -5.58e-4,-17 z"
             sodipodi:nodetypes="cccc" />
          <path
             style="opacity:1;mix-blend-mode:normal;fill:url(#radialGradient43879);fill-opacity:1;stroke:none;stroke-width:0.857143px;stroke-linecap:butt;stroke-linejoin:miter;stroke-opacity:1"
             d="m -85.936197,46.5 c 8.142857,-3 12.875519,-7.284498 14.589805,-8.570213 h 2.571428 c 1.714286,1.285715 10.061661,7.39692 14.775947,8.254063 0,24.428571 -14.620216,29.979936 -15.90593,29.979936 -1.285714,0 -16.03125,-5.663786 -16.03125,-29.663786 z"
             id="path1054-7"
             sodipodi:nodetypes="cccczc" />
          <path
             id="path1054"
             style="opacity:1;fill:url(#linearGradient2058);fill-opacity:1;stroke:none;stroke-width:1px;stroke-linecap:butt;stroke-linejoin:miter;stroke-opacity:1"
             d="m -71.432291,35.805573 c -2.788086,1.826944 -10.640598,9.172786 -16,9.194427 0,28 16,33.5 17.5,33.5 1.5,0 17.5,-5 17.5,-33.5 -5.515873,0 -13.27037,-7.509115 -16,-9.194427 z m -0.503906,3.409271 c 0,0 0.722968,8.678813 1.983346,8.678813 1.260378,0 2.016654,-8.678813 2.016654,-8.678813 1.714286,1.285715 9.061788,7.358633 13,7.5 0,24.428571 -13.714286,28.71289 -15,28.71289 -1.285714,0 -15,-4.71289 -15,-28.71289 3.644967,0.09142 11.285714,-6.214285 13,-7.5 z"
             sodipodi:nodetypes="ccscccczccscc" />
        </g>
        <path
           style="opacity:1;fill:url(#linearGradient15454);fill-opacity:1;stroke:none;stroke-width:1px;stroke-linecap:butt;stroke-linejoin:miter;stroke-opacity:1"
           d="m -76.440597,47.426328 c 3.972021,0 11.250799,-6.515003 12.704363,-7.282185 0.299249,1.978468 0.578871,5.288781 1.88577,7.115378 -1,-1.5 -1.07001,-8.902184 -1.07001,-8.902184 -4.5,2.5 -10.000155,8.115189 -13.515749,8.115189 z"
           id="path878"
           sodipodi:nodetypes="cccccc" />
        <path
           style="fill:url(#linearGradient48845);fill-opacity:1;stroke:none;stroke-width:1px;stroke-linecap:butt;stroke-linejoin:miter;stroke-opacity:1"
           d="m -46.431823,47.349371 c -4.120195,0 -11.250799,-6.410572 -12.704363,-7.177754 -0.299249,1.978468 -0.578871,5.288781 -1.88577,7.115378 1,-1.5 1.07001,-8.902184 1.07001,-8.902184 4.5,2.5 9.403657,7.746663 13.515749,8.115189 z"
           id="path878-2"
           sodipodi:nodetypes="cccccc" />
      </g>
    </g>
    <path
       transform="matrix(0.50797708,0,0,0.50797708,323.58354,67.132963)"
       d="m -243.34382,114.6151 c -67.65488,0 -122.5,54.84512 -122.5,122.5 0,67.65488 54.84512,122.5 122.5,122.5 67.65488,0 122.5,-54.84512 122.5,-122.5 0,-67.65488 -54.84512,-122.5 -122.5,-122.5 z"
       style="fill:#212121;fill-opacity:1;fill-rule:evenodd;stroke:none;stroke-width:192.907;stroke-linecap:round;filter:url(#filter1071);stop-color:#000000"
       id="path1069"
       sodipodi:nodetypes="sssss" />
    <g
       id="g23478"
       transform="matrix(0.51001836,0,0,0.51001836,132.11636,120.66265)"
       style="stroke-width:9.37499;stroke-miterlimit:4;stroke-dasharray:none">
      <circle
         style="fill:#f8f8f8;fill-opacity:1;fill-rule:evenodd;stroke:none;stroke-width:9.37499;stroke-linecap:round;stroke-linejoin:round;stroke-miterlimit:4;stroke-dasharray:none;stop-color:#000000"
         id="circle22033"
         cx="128"
         cy="128"
         r="117.32184" />
      <path
         id="circle22053"
         style="fill:url(#radialGradient22114);fill-opacity:1;fill-rule:evenodd;stroke:none;stroke-width:9.37499;stroke-linecap:round;stroke-linejoin:round;stroke-miterlimit:4;stroke-dasharray:none;stop-color:#000000"
         d="M 128,10.677661 A 117.32183,117.32183 0 0 0 10.67766,128 117.32183,117.32183 0 0 0 128,245.32234 117.32183,117.32183 0 0 0 245.32234,128 117.32183,117.32183 0 0 0 128,10.677661 Z m 35.41033,43.98463 a 11.835926,11.835926 0 0 1 5.89823,1.661297 11.835926,11.835926 0 0 1 4.12396,16.221712 c -12.55755,21.119525 -25.60561,59.21793 -37.64284,112.97032 a 11.83711,11.83711 0 0 1 -21.1219,4.37504 l -2.51706,-3.46278 a 11.83711,11.83711 0 0 1 -0.16111,-0.22388 l -2.59865,-3.75361 -3.44604,-4.31017 C 97.876099,168.30301 87.537006,157.83548 74.928443,146.85384 a 11.835926,11.835926 0 0 1 -1.152863,-16.69667 11.835926,11.835926 0 0 1 16.698759,-1.15286 c 10.681831,9.30352 19.945911,18.39449 27.915661,27.34445 10.61996,-42.55812 21.87677,-74.340154 34.69685,-95.90122 a 11.835926,11.835926 0 0 1 10.32348,-5.785249 z" />
      <circle
         style="fill:none;fill-opacity:1;fill-rule:evenodd;stroke:url(#linearGradient21906);stroke-width:9.37499;stroke-linecap:round;stroke-linejoin:round;stroke-miterlimit:4;stroke-dasharray:none;stop-color:#000000"
         id="path17507"
         cx="128"
         cy="128"
         r="117.32184" />
    </g>
  </g>
</svg>
