<?xml version="1.0" encoding="UTF-8" standalone="no"?>
<svg
   width="256"
   height="256"
   viewBox="0 0 256 256"
   version="1.1"
   id="svg8"
   inkscape:version="1.1.1 (3bf5ae0d25, 2021-09-20)"
   sodipodi:docname="virtual-keyboard-off.svg"
   inkscape:export-filename="/media/klapeto/Αρχεία/WindowsXP Theme/Vectors/RASTER/virtual-keyboard-off.png"
   inkscape:export-xdpi="96"
   inkscape:export-ydpi="96"
   xmlns:inkscape="http://www.inkscape.org/namespaces/inkscape"
   xmlns:sodipodi="http://sodipodi.sourceforge.net/DTD/sodipodi-0.dtd"
   xmlns:xlink="http://www.w3.org/1999/xlink"
   xmlns="http://www.w3.org/2000/svg"
   xmlns:svg="http://www.w3.org/2000/svg"
   xmlns:rdf="http://www.w3.org/1999/02/22-rdf-syntax-ns#"
   xmlns:cc="http://creativecommons.org/ns#"
   xmlns:dc="http://purl.org/dc/elements/1.1/">
  <defs
     id="defs2">
    <linearGradient
       inkscape:collect="always"
       id="linearGradient18729">
      <stop
         style="stop-color:#33a6f2;stop-opacity:1"
         offset="0"
         id="stop18725" />
      <stop
         style="stop-color:#58ade9;stop-opacity:1"
         offset="1"
         id="stop18727" />
    </linearGradient>
    <linearGradient
       inkscape:collect="always"
       id="linearGradient9146">
      <stop
         style="stop-color:#80ccff;stop-opacity:1"
         offset="0"
         id="stop9142" />
      <stop
         style="stop-color:#80ccff;stop-opacity:1"
         offset="1"
         id="stop9144" />
    </linearGradient>
    <linearGradient
       inkscape:collect="always"
       id="linearGradient1514">
      <stop
         style="stop-color:#0069cf;stop-opacity:1"
         offset="0"
         id="stop1510" />
      <stop
         style="stop-color:#0086ec;stop-opacity:1"
         offset="1"
         id="stop1512" />
    </linearGradient>
    <linearGradient
       inkscape:collect="always"
       xlink:href="#linearGradient1514"
       id="linearGradient1516"
       x1="-8.432291"
       y1="4.5"
       x2="-8.432291"
       y2="6.5"
       gradientUnits="userSpaceOnUse"
       gradientTransform="translate(-41.5,5.5)" />
    <linearGradient
       inkscape:collect="always"
       xlink:href="#linearGradient9146"
       id="linearGradient9148"
       x1="-50.932289"
       y1="28"
       x2="-50.932289"
       y2="16"
       gradientUnits="userSpaceOnUse"
       gradientTransform="translate(0.99999803,-3.5)" />
    <linearGradient
       inkscape:collect="always"
       xlink:href="#linearGradient18729"
       id="linearGradient18731"
       x1="-39.932289"
       y1="29"
       x2="-63.932289"
       y2="20.5"
       gradientUnits="userSpaceOnUse"
       gradientTransform="translate(0.99999803,-3.5)" />
    <linearGradient
       x2="819.20001"
       x1="-819.20001"
       spreadMethod="pad"
       id="gradient5-6-2"
       gradientUnits="userSpaceOnUse"
       gradientTransform="matrix(0,0.01009019,0.01774483,0,-65.602515,159.5377)">
      <stop
         id="stop69-0-3"
         stop-color="#9999cc"
         offset="0.0" />
      <stop
         id="stop71-6-7"
         stop-color="#666699"
         offset="1.0" />
    </linearGradient>
    <radialGradient
       spreadMethod="pad"
       r="819.20001"
       id="gradient6-2-5"
       gradientUnits="userSpaceOnUse"
       gradientTransform="matrix(0.02705216,0,0,0.02705216,-73.518099,157.36309)"
       cy="0"
       cx="0">
      <stop
         id="stop74-6-9"
         stop-color="#ffffff"
         offset="0.0" />
      <stop
         id="stop76-1-2"
         stop-color="#dddddd"
         offset="0.2823529411764706" />
      <stop
         id="stop78-8-2"
         stop-color="#9999cc"
         offset="1.0" />
    </radialGradient>
    <linearGradient
       x2="819.20001"
       x1="-819.20001"
       spreadMethod="pad"
       id="gradient7-7-8"
       gradientUnits="userSpaceOnUse"
       gradientTransform="matrix(-0.00513208,-0.00495811,-0.00608891,0.00626288,-61.166309,157.36309)">
      <stop
         id="stop81-9-9"
         stop-color="#666699"
         offset="0.0" />
      <stop
         id="stop83-2-7"
         stop-color="#9999cc"
         offset="1.0" />
    </linearGradient>
    <linearGradient
       x2="819.20001"
       x1="-819.20001"
       spreadMethod="pad"
       id="gradient8-0-3"
       gradientUnits="userSpaceOnUse"
       gradientTransform="matrix(-0.00234858,0.00939432,0.00704574,0.00173969,-61.7752,155.71038)">
      <stop
         id="stop86-2-6"
         stop-color="#333399"
         offset="0.0" />
      <stop
         id="stop88-3-1"
         stop-color="#6666cc"
         offset="0.27450980392156865" />
      <stop
         id="stop90-7-2"
         stop-color="#999999"
         offset="1.0" />
    </linearGradient>
    <linearGradient
       x2="819.20001"
       x1="-819.20001"
       spreadMethod="pad"
       id="gradient13-9-9"
       gradientUnits="userSpaceOnUse"
       gradientTransform="matrix(-0.00182667,0.00521907,0.00443621,0.00147874,-63.906318,157.88499)">
      <stop
         id="stop117-4-3"
         stop-color="#9999cc"
         offset="0.0" />
      <stop
         id="stop119-7-1"
         stop-color="#eeeeee"
         offset="1.0" />
    </linearGradient>
    <linearGradient
       x2="819.20001"
       x1="-819.20001"
       spreadMethod="pad"
       id="gradient9-5-9"
       gradientUnits="userSpaceOnUse"
       gradientTransform="matrix(-0.01539625,-0.01487434,-0.01661403,0.01713593,-63.819334,139.35731)">
      <stop
         id="stop93-9-4"
         stop-color="#6666cc"
         offset="0.0" />
      <stop
         id="stop95-2-7"
         stop-color="#999999"
         offset="1.0" />
    </linearGradient>
    <radialGradient
       spreadMethod="pad"
       r="819.20001"
       id="gradient10-2-8"
       gradientUnits="userSpaceOnUse"
       gradientTransform="matrix(0.03514171,0,0,0.03514171,-64.036795,125.65726)"
       cy="0"
       cx="0">
      <stop
         id="stop98-8-4"
         stop-color="#ccffff"
         offset="0.0" />
      <stop
         id="stop100-9-5"
         stop-color="#ccffff"
         offset="0.09411764705882353" />
      <stop
         id="stop102-7-0"
         stop-color="#0099ff"
         offset="1.0" />
    </radialGradient>
    <linearGradient
       x2="819.20001"
       x1="-819.20001"
       spreadMethod="pad"
       id="gradient11-3-3"
       gradientUnits="userSpaceOnUse"
       gradientTransform="matrix(-0.01052512,-0.01017718,-0.01583117,0.01644006,-61.862184,140.27064)">
      <stop
         id="stop105-6-6"
         stop-color="#9999cc"
         offset="0.0" />
      <stop
         id="stop107-1-1"
         stop-color="#ffffff"
         offset="1.0" />
    </linearGradient>
    <linearGradient
       x2="819.20001"
       x1="-819.20001"
       spreadMethod="pad"
       id="gradient12-2-0"
       gradientUnits="userSpaceOnUse"
       gradientTransform="matrix(-0.01226481,0.00652383,7.8285995e-4,0.00156572,-61.905676,149.23004)">
      <stop
         id="stop110-9-6"
         stop-color="#6666cc"
         offset="0.0" />
      <stop
         id="stop112-3-3"
         stop-color="#9999cc"
         offset="0.0784313725490196" />
      <stop
         id="stop114-1-2"
         stop-color="#ffffff"
         offset="1.0" />
    </linearGradient>
    <filter
       height="1.0569348"
       y="-0.028467394"
       width="1.0887224"
       x="-0.044361206"
       id="filter1147"
       style="color-interpolation-filters:sRGB"
       inkscape:collect="always">
      <feGaussianBlur
         id="feGaussianBlur1149"
         stdDeviation="2.9389453"
         inkscape:collect="always" />
    </filter>
    <filter
       inkscape:collect="always"
       style="color-interpolation-filters:sRGB"
       id="filter45229"
       x="-0.038490333"
       y="-0.06375063"
       width="1.0769807"
       height="1.1275013">
      <feGaussianBlur
         inkscape:collect="always"
         stdDeviation="2.2652539"
         id="feGaussianBlur45231" />
    </filter>
    <filter
       inkscape:collect="always"
       style="color-interpolation-filters:sRGB"
       id="filter45602"
       x="-0.048336217"
       y="-0.04766843"
       width="1.0966724"
       height="1.0953369">
      <feGaussianBlur
         inkscape:collect="always"
         stdDeviation="2.6849586"
         id="feGaussianBlur45604" />
    </filter>
  </defs>
  <sodipodi:namedview
     inkscape:snap-object-midpoints="false"
     inkscape:snap-bbox-midpoints="false"
     showguides="false"
     id="base"
     pagecolor="#ffffff"
     bordercolor="#666666"
     borderopacity="1.0"
     inkscape:pageopacity="0.0"
     inkscape:pageshadow="2"
     inkscape:zoom="4"
     inkscape:cx="-27"
     inkscape:cy="206.5"
     inkscape:document-units="px"
     inkscape:current-layer="layer1"
     inkscape:document-rotation="0"
     showgrid="false"
     units="px"
     inkscape:window-width="3840"
     inkscape:window-height="2027"
     inkscape:window-x="3840"
     inkscape:window-y="0"
     inkscape:window-maximized="1"
     inkscape:snap-bbox="true"
     inkscape:bbox-nodes="true"
     fit-margin-top="0"
     fit-margin-left="0"
     fit-margin-right="0"
     fit-margin-bottom="0"
     inkscape:bbox-paths="false"
     inkscape:snap-global="true"
     inkscape:pagecheckerboard="0">
    <inkscape:grid
       type="xygrid"
       id="grid1504"
       originx="0"
       originy="0" />
    <inkscape:grid
       type="xygrid"
       id="grid1507"
       spacingx="0.5"
       spacingy="0.5"
       originx="0"
       originy="0" />
  </sodipodi:namedview>
  <metadata
     id="metadata5">
    <rdf:RDF>
      <cc:Work
         rdf:about="">
        <dc:format>image/svg+xml</dc:format>
        <dc:type
           rdf:resource="http://purl.org/dc/dcmitype/StillImage" />
      </cc:Work>
    </rdf:RDF>
  </metadata>
  <g
     inkscape:label="Layer 1"
     inkscape:groupmode="layer"
     id="layer1"
     transform="translate(-12.567709)">
    <path
       d="m 199.24908,2.9997505 c -0.73083,-0.00537 -1.52691,0.1209648 -2.38672,0.3789063 L 68.235407,26.077876 c -7.489859,1.52857 -10.16535,5.57963 -8.025391,12.152344 1.317634,3.660108 11.218191,49.583811 29.222656,135.41602 -1.674079,0.82375 -3.318591,1.68798 -4.917968,2.61133 -14.979714,8.40698 -22.46875,18.64719 -22.46875,30.72266 0,12.0755 7.489036,22.3933 22.46875,30.95312 14.826863,8.55986 32.864596,12.83984 54.111326,12.83984 21.09388,0 39.12966,-4.27998 54.10938,-12.83984 14.82686,-8.55982 22.24023,-18.87762 22.24023,-30.95312 0,-12.07547 -7.41337,-22.31568 -22.24023,-30.72266 -2.21273,-1.26442 -4.49957,-2.42431 -6.8457,-3.50195 -0.66815,-8.10902 -1.55217,-15.81945 -2.65039,-23.13282 l 30.81835,-13.25976 c 3.3628,-1.52854 4.81599,-4.51057 4.35743,-8.94336 L 205.11627,10.486079 c -0.74516,-4.9677665 -2.70024,-7.4630415 -5.86719,-7.4863285 z"
       style="fill:#212121;fill-opacity:1;stroke-width:4.58563;filter:url(#filter1147)"
       id="path1079" />
    <g
       transform="matrix(5.2717787,0,0,5.2717787,481.23801,-636.83694)"
       id="g1063">
      <path
         style="fill:url(#gradient5-6-2);stroke-width:0.869844"
         id="path24"
         stroke="none"
         fill-rule="evenodd"
         fill="url(#gradient5)"
         d="m -80.085424,159.4942 q 0,3.43589 4.262237,5.87145 4.218746,2.43557 10.264164,2.43557 6.001926,0 10.264164,-2.43557 4.218745,-2.43556 4.218745,-5.87145 0,-3.43588 -4.218745,-5.82795 -4.262238,-2.43557 -10.264164,-2.43557 -6.045418,0 -10.264164,2.43557 -4.262237,2.39207 -4.262237,5.82795" />
      <path
         style="fill:url(#gradient6-2-5);stroke-width:0.869844"
         id="path26"
         stroke="none"
         fill-rule="evenodd"
         fill="url(#gradient6)"
         d="m -79.128595,159.36373 q 0,3.17493 3.914299,5.39303 3.957792,2.2616 9.524797,2.2616 5.567004,0 9.524796,-2.2616 3.957792,-2.2181 3.957792,-5.39303 0,-3.13144 -3.957792,-5.39304 -3.957792,-2.2181 -9.524796,-2.2181 -5.567005,0 -9.524797,2.2181 -3.914299,2.2616 -3.914299,5.39304" />
      <path
         sodipodi:nodetypes="ccccccc"
         style="fill:url(#gradient7-7-8);stroke-width:0.869844"
         id="path28"
         stroke="none"
         fill-rule="evenodd"
         fill="url(#gradient7)"
         d="m -57.382486,148.09924 -10.307656,3.3924 c 0.956829,1.88466 1.725192,3.75482 2.305088,5.61049 l 1.522228,6.1759 2.131119,1.30476 c 2.754507,-0.84085 4.566682,-1.72519 5.436527,-2.65302 0.02007,-0.38136 0.01235,-0.7438 0,-1.21778" />
      <path
         sodipodi:nodetypes="cccccc"
         style="fill:url(#gradient8-0-3);stroke-width:0.869844"
         id="path30"
         stroke="none"
         fill-rule="evenodd"
         fill="url(#gradient8)"
         d="m -57.165024,148.14274 -9.133367,3.56636 c 1.826673,3.3634 3.087948,7.00224 3.783824,10.91654 l 0.78286,0.69588 c 2.609533,-0.92783 4.479698,-1.73969 5.436527,-2.60953 0,-4.72616 -0.289948,-8.91591 -0.869844,-12.56925" />
      <path
         style="fill:url(#gradient13-9-9);stroke-width:0.869844"
         id="path40"
         stroke="none"
         fill-rule="evenodd"
         fill="url(#gradient13)"
         d="m -64.167272,157.40658 1.17429,5.13208 1.261275,0.78286 q -0.39143,-4.69716 -1.913658,-9.87273 -1.17429,-0.5654 -2.392072,-1.08731 1.435243,3.39239 1.870165,5.0451" />
      <path
         style="fill:url(#gradient9-5-9);stroke-width:0.869844"
         id="path32"
         stroke="none"
         fill-rule="evenodd"
         fill="url(#gradient9)"
         d="m -73.083177,155.49292 21.833094,-9.39432 q 0.956829,-0.43492 0.826353,-1.6962 l -2.522549,-22.18103 q -0.260953,-1.73969 -1.56572,-1.34826 l -24.399135,4.30573 q -2.131119,0.43493 -1.522228,2.30509 0.39143,1.08731 5.958434,27.66105 0.39143,0.69588 1.391751,0.34794" />
      <path
         style="fill:url(#gradient10-2-8);stroke-width:0.869844"
         id="path34"
         stroke="none"
         fill-rule="evenodd"
         fill="url(#gradient10)"
         d="m -72.56127,153.10085 20.745789,-8.30702 -2.609534,-20.00642 -22.137539,4.61018 4.001284,23.70326" />
      <path
         style="fill:url(#gradient11-3-3);stroke-width:0.869844"
         id="path36"
         stroke="none"
         fill-rule="evenodd"
         fill="url(#gradient11)"
         d="m -73.431115,154.40561 -4.91462,-26.66073 q 0.260953,-0.86984 0.608891,-1.00032 l 23.094368,-4.26223 q 0.695876,-1.04382 -0.478414,-0.78286 l -23.485799,4.34922 q -0.78286,0.26095 -0.869844,1.43524 l 5.436527,27.35661 q 0.04349,0.34793 0.434923,0.21746 0.347937,-0.087 0.173968,-0.65239" />
      <path
         style="fill:url(#gradient12-2-0);stroke-width:0.869844"
         id="path38"
         stroke="none"
         fill-rule="evenodd"
         fill="url(#gradient12)"
         d="m -72.56127,153.10085 q 0,0.5654 0.565399,0.34794 l 20.832773,-8.52448 -0.652383,-0.17397 -20.745789,8.35051" />
    </g>
    <path
       id="path45078"
       style="color:#000000;fill:#212121;fill-opacity:1;fill-rule:evenodd;stroke-width:5.33;stroke-linejoin:round;-inkscape-stroke:none;filter:url(#filter45229)"
       d="m 125.90785,56.553 c -5.33,0 -7.99414,5.330157 -7.99414,10.660157 h -0.002 v 71.953133 a 2.6652665,2.6652665 0 0 0 2.66602,2.66601 h 135.91406 a 2.6652665,2.6652665 0 0 0 2.66601,-2.66601 V 67.213157 c 0,-5.33 -2.66414,-10.660157 -7.99414,-10.660157 z" />
    <g
       id="g44583"
       transform="matrix(5.33,0,0,5.33,448.34158,-0.74804943)">
      <path
         id="rect1016"
         style="fill:url(#linearGradient9148);fill-rule:evenodd;stroke:url(#linearGradient18731);stroke-linecap:butt;stroke-linejoin:round;stop-color:#000000"
         d="M -36.932291,12 V 25.5 H -62.432289 V 12"
         sodipodi:nodetypes="cccc" />
      <path
         style="fill:url(#linearGradient1516);fill-opacity:1;stroke:none;stroke-width:1px;stroke-linecap:butt;stroke-linejoin:miter;stroke-opacity:1"
         d="m -62.932291,12 h 26.5 c 0,-1 -0.5,-2 -1.5,-2 h -23.5 c -1,0 -1.5,1 -1.5,2 z"
         id="path1153"
         sodipodi:nodetypes="ccccc" />
      <rect
         style="fill:#fffffd;fill-opacity:1;fill-rule:evenodd;stroke:none;stroke-width:1;stroke-linecap:round;stroke-linejoin:round;stroke-miterlimit:4;stroke-dasharray:none;stroke-opacity:1;stop-color:#000000"
         id="rect43232"
         width="1.5"
         height="1.5"
         x="-60.932289"
         y="13.5" />
      <rect
         style="fill:#fffffd;fill-opacity:1;fill-rule:evenodd;stroke:none;stroke-width:1;stroke-linecap:round;stroke-linejoin:round;stroke-miterlimit:4;stroke-dasharray:none;stroke-opacity:1;stop-color:#000000"
         id="rect43232-3"
         width="1.5"
         height="1.5"
         x="-57.932289"
         y="13.5" />
      <rect
         style="fill:#fffffd;fill-opacity:1;fill-rule:evenodd;stroke:none;stroke-width:1;stroke-linecap:round;stroke-linejoin:round;stroke-miterlimit:4;stroke-dasharray:none;stroke-opacity:1;stop-color:#000000"
         id="rect43232-6"
         width="1.5"
         height="1.5"
         x="-54.932289"
         y="13.5" />
      <rect
         style="fill:#fffffd;fill-opacity:1;fill-rule:evenodd;stroke:none;stroke-width:1;stroke-linecap:round;stroke-linejoin:round;stroke-miterlimit:4;stroke-dasharray:none;stroke-opacity:1;stop-color:#000000"
         id="rect43232-7"
         width="1.5"
         height="1.5"
         x="-51.932289"
         y="13.5" />
      <rect
         style="fill:#fffffd;fill-opacity:1;fill-rule:evenodd;stroke:none;stroke-width:1;stroke-linecap:round;stroke-linejoin:round;stroke-miterlimit:4;stroke-dasharray:none;stroke-opacity:1;stop-color:#000000"
         id="rect43232-5"
         width="1.5"
         height="1.5"
         x="-48.932289"
         y="13.5" />
      <rect
         style="fill:#fffffd;fill-opacity:1;fill-rule:evenodd;stroke:none;stroke-width:1;stroke-linecap:round;stroke-linejoin:round;stroke-miterlimit:4;stroke-dasharray:none;stroke-opacity:1;stop-color:#000000"
         id="rect43232-35"
         width="1.5"
         height="1.5"
         x="-45.932289"
         y="13.5" />
      <rect
         style="fill:#fffffd;fill-opacity:1;fill-rule:evenodd;stroke:none;stroke-width:1;stroke-linecap:round;stroke-linejoin:round;stroke-miterlimit:4;stroke-dasharray:none;stroke-opacity:1;stop-color:#000000"
         id="rect43232-62"
         width="1.5"
         height="1.5"
         x="-42.932289"
         y="13.5" />
      <rect
         style="fill:#fffffd;fill-opacity:1;fill-rule:evenodd;stroke:none;stroke-width:1;stroke-linecap:round;stroke-linejoin:round;stroke-miterlimit:4;stroke-dasharray:none;stroke-opacity:1;stop-color:#000000"
         id="rect43232-9"
         width="1.5"
         height="1.5"
         x="-39.932289"
         y="13.5" />
      <rect
         style="fill:#fffffd;fill-opacity:1;fill-rule:evenodd;stroke:none;stroke-width:1;stroke-linecap:round;stroke-linejoin:round;stroke-miterlimit:4;stroke-dasharray:none;stroke-opacity:1;stop-color:#000000"
         id="rect43232-2"
         width="1.5"
         height="1.5"
         x="-60.932289"
         y="16.5" />
      <rect
         style="fill:#fffffd;fill-opacity:1;fill-rule:evenodd;stroke:none;stroke-width:1;stroke-linecap:round;stroke-linejoin:round;stroke-miterlimit:4;stroke-dasharray:none;stroke-opacity:1;stop-color:#000000"
         id="rect43232-3-7"
         width="1.5"
         height="1.5"
         x="-57.932289"
         y="16.5" />
      <rect
         style="fill:#fffffd;fill-opacity:1;fill-rule:evenodd;stroke:none;stroke-width:1;stroke-linecap:round;stroke-linejoin:round;stroke-miterlimit:4;stroke-dasharray:none;stroke-opacity:1;stop-color:#000000"
         id="rect43232-3-7-2"
         width="1.5"
         height="1.5"
         x="-57.932289"
         y="19.5" />
      <rect
         style="fill:#fffffd;fill-opacity:1;fill-rule:evenodd;stroke:none;stroke-width:1;stroke-linecap:round;stroke-linejoin:round;stroke-miterlimit:4;stroke-dasharray:none;stroke-opacity:1;stop-color:#000000"
         id="rect43232-3-7-6"
         width="1.5"
         height="1.5"
         x="-54.932289"
         y="19.5" />
      <rect
         style="fill:#fffffd;fill-opacity:1;fill-rule:evenodd;stroke:none;stroke-width:1;stroke-linecap:round;stroke-linejoin:round;stroke-miterlimit:4;stroke-dasharray:none;stroke-opacity:1;stop-color:#000000"
         id="rect43232-3-7-1"
         width="1.5"
         height="1.5"
         x="-51.932289"
         y="19.5" />
      <rect
         style="fill:#fffffd;fill-opacity:1;fill-rule:evenodd;stroke:none;stroke-width:1;stroke-linecap:round;stroke-linejoin:round;stroke-miterlimit:4;stroke-dasharray:none;stroke-opacity:1;stop-color:#000000"
         id="rect43232-3-7-8"
         width="1.5"
         height="1.5"
         x="-48.932289"
         y="19.5" />
      <rect
         style="fill:#fffffd;fill-opacity:1;fill-rule:evenodd;stroke:none;stroke-width:1;stroke-linecap:round;stroke-linejoin:round;stroke-miterlimit:4;stroke-dasharray:none;stroke-opacity:1;stop-color:#000000"
         id="rect43232-3-7-7"
         width="1.5"
         height="1.5"
         x="-45.932289"
         y="19.5" />
      <rect
         style="fill:#fffffd;fill-opacity:1;fill-rule:evenodd;stroke:none;stroke-width:1;stroke-linecap:round;stroke-linejoin:round;stroke-miterlimit:4;stroke-dasharray:none;stroke-opacity:1;stop-color:#000000"
         id="rect43232-3-7-9"
         width="1.5"
         height="1.5"
         x="-42.932289"
         y="19.5" />
      <rect
         style="fill:#fffffd;fill-opacity:1;fill-rule:evenodd;stroke:none;stroke-width:1;stroke-linecap:round;stroke-linejoin:round;stroke-miterlimit:4;stroke-dasharray:none;stroke-opacity:1;stop-color:#000000"
         id="rect43232-3-7-20"
         width="10.5"
         height="1.5"
         x="-54.932289"
         y="22.5" />
      <rect
         style="fill:#fffffd;fill-opacity:1;fill-rule:evenodd;stroke:none;stroke-width:1;stroke-linecap:round;stroke-linejoin:round;stroke-miterlimit:4;stroke-dasharray:none;stroke-opacity:1;stop-color:#000000"
         id="rect43232-6-0"
         width="1.5"
         height="1.5"
         x="-54.932289"
         y="16.5" />
      <rect
         style="fill:#fffffd;fill-opacity:1;fill-rule:evenodd;stroke:none;stroke-width:1;stroke-linecap:round;stroke-linejoin:round;stroke-miterlimit:4;stroke-dasharray:none;stroke-opacity:1;stop-color:#000000"
         id="rect43232-7-9"
         width="1.5"
         height="1.5"
         x="-51.932289"
         y="16.5" />
      <rect
         style="fill:#fffffd;fill-opacity:1;fill-rule:evenodd;stroke:none;stroke-width:1;stroke-linecap:round;stroke-linejoin:round;stroke-miterlimit:4;stroke-dasharray:none;stroke-opacity:1;stop-color:#000000"
         id="rect43232-5-3"
         width="1.5"
         height="1.5"
         x="-48.932289"
         y="16.5" />
      <rect
         style="fill:#fffffd;fill-opacity:1;fill-rule:evenodd;stroke:none;stroke-width:1;stroke-linecap:round;stroke-linejoin:round;stroke-miterlimit:4;stroke-dasharray:none;stroke-opacity:1;stop-color:#000000"
         id="rect43232-35-6"
         width="1.5"
         height="1.5"
         x="-45.932289"
         y="16.5" />
      <rect
         style="fill:#fffffd;fill-opacity:1;fill-rule:evenodd;stroke:none;stroke-width:1;stroke-linecap:round;stroke-linejoin:round;stroke-miterlimit:4;stroke-dasharray:none;stroke-opacity:1;stop-color:#000000"
         id="rect43232-62-0"
         width="1.5"
         height="1.5"
         x="-42.932289"
         y="16.5" />
      <rect
         style="fill:#fffffd;fill-opacity:1;fill-rule:evenodd;stroke:none;stroke-width:1;stroke-linecap:round;stroke-linejoin:round;stroke-miterlimit:4;stroke-dasharray:none;stroke-opacity:1;stop-color:#000000"
         id="rect43232-9-6"
         width="1.5"
         height="1.5"
         x="-39.932289"
         y="16.5" />
    </g>
    <path
       d="m 77.935844,107.39644 a 64.934171,64.934171 0 0 0 -64.934428,64.93443 64.934171,64.934171 0 0 0 12.240068,37.94334 64.934171,64.934171 0 0 0 56.13964,32.30396 64.934171,64.934171 0 0 0 64.934426,-64.93443 64.934171,64.934171 0 0 0 -12.24007,-37.94335 64.934171,64.934171 0 0 0 -56.139636,-32.30395 z"
       style="mix-blend-mode:normal;fill:#212121;fill-opacity:1;fill-rule:evenodd;stroke:none;stroke-width:35.291;stroke-linecap:round;stroke-linejoin:round;stroke-miterlimit:4;stroke-dasharray:none;filter:url(#filter45602)"
       id="circle942"
       transform="matrix(0.91985587,0,0,0.91985587,6.0418729,23.441347)" />
    <g
       transform="matrix(2.7781434,0,0,2.7781434,261.18037,115.45237)"
       id="g940">
      <circle
         style="opacity:1;fill:#ffffff;fill-opacity:1;fill-rule:evenodd;stroke:none;stroke-width:11.685;stroke-linecap:round;stroke-linejoin:round;stroke-miterlimit:4;stroke-dasharray:none"
         id="path919"
         cx="-67.310364"
         cy="22.756973"
         r="18.249216" />
      <path
         d="m -66.691769,2.7592809 a 21.5,21.5 0 0 0 -21.5,21.5000001 21.5,21.5 0 0 0 21.5,21.5 21.5,21.5 0 0 0 21.5,-21.5 21.5,21.5 0 0 0 -21.5,-21.5000001 z m 0,5.5 a 16,16 0 0 1 16,16.0000001 16,16 0 0 1 -2.099609,7.921875 L -74.8988,10.524906 a 16,16 0 0 1 8.207031,-2.2656251 z M -79.40466,14.54639 -56.978878,36.972172 a 16,16 0 0 1 -9.712891,3.287109 16,16 0 0 1 -16,-16 16,16 0 0 1 3.287109,-9.712891 z"
         style="opacity:1;fill:#a21907;fill-opacity:1;fill-rule:evenodd;stroke:none;stroke-width:11.685;stroke-linecap:round;stroke-linejoin:round;stroke-miterlimit:4;stroke-dasharray:none"
         id="path917" />
      <path
         id="path889"
         style="opacity:1;fill:#f52e14;fill-opacity:1;fill-rule:evenodd;stroke:none;stroke-width:11.685;stroke-linecap:round;stroke-linejoin:round;stroke-miterlimit:4;stroke-dasharray:none"
         d="m -67.832682,1 a 21.5,21.5 0 0 0 -21.5,21.5 21.5,21.5 0 0 0 21.5,21.5 21.5,21.5 0 0 0 21.5,-21.5 21.5,21.5 0 0 0 -21.5,-21.5 z m 0,5.5 a 16,16 0 0 1 16,16 16,16 0 0 1 -2.099609,7.921875 L -76.039713,8.765625 A 16,16 0 0 1 -67.832682,6.5 Z m -12.712891,6.287109 22.425782,22.425782 A 16,16 0 0 1 -67.832682,38.5 a 16,16 0 0 1 -16,-16 16,16 0 0 1 3.287109,-9.712891 z" />
    </g>
  </g>
</svg>
