<?xml version="1.0" encoding="UTF-8" standalone="no"?>
<svg
   width="256"
   height="256"
   viewBox="0 0 256 256"
   version="1.1"
   id="svg8"
   inkscape:version="1.1.2 (0a00cf5339, 2022-02-04)"
   sodipodi:docname="cpu_32.svg"
   inkscape:export-filename="cpu.png"
   inkscape:export-xdpi="12"
   inkscape:export-ydpi="12"
   xmlns:inkscape="http://www.inkscape.org/namespaces/inkscape"
   xmlns:sodipodi="http://sodipodi.sourceforge.net/DTD/sodipodi-0.dtd"
   xmlns:xlink="http://www.w3.org/1999/xlink"
   xmlns="http://www.w3.org/2000/svg"
   xmlns:svg="http://www.w3.org/2000/svg"
   xmlns:rdf="http://www.w3.org/1999/02/22-rdf-syntax-ns#"
   xmlns:cc="http://creativecommons.org/ns#"
   xmlns:dc="http://purl.org/dc/elements/1.1/">
  <defs
     id="defs2">
    <linearGradient
       inkscape:collect="always"
       id="linearGradient54753">
      <stop
         style="stop-color:#ffffff;stop-opacity:1"
         offset="0"
         id="stop54745" />
      <stop
         style="stop-color:#ffff33;stop-opacity:1"
         offset="0.22"
         id="stop54747" />
      <stop
         style="stop-color:#ffd500;stop-opacity:1"
         offset="0.44"
         id="stop54749" />
      <stop
         style="stop-color:#cc6800;stop-opacity:1"
         offset="1"
         id="stop54751" />
    </linearGradient>
    <linearGradient
       inkscape:collect="always"
       id="linearGradient48308">
      <stop
         style="stop-color:#cca900;stop-opacity:1"
         offset="0"
         id="stop48300" />
      <stop
         style="stop-color:#cc9200;stop-opacity:1"
         offset="0.44"
         id="stop48304" />
      <stop
         style="stop-color:#cc6900;stop-opacity:1"
         offset="1"
         id="stop48306" />
    </linearGradient>
    <linearGradient
       inkscape:collect="always"
       id="linearGradient13306">
      <stop
         style="stop-color:#ffe588;stop-opacity:1"
         offset="0"
         id="stop13302" />
      <stop
         style="stop-color:#e5c000;stop-opacity:1"
         offset="1"
         id="stop13304" />
    </linearGradient>
    <linearGradient
       inkscape:collect="always"
       id="linearGradient3275">
      <stop
         style="stop-color:#60c131;stop-opacity:1"
         offset="0"
         id="stop3271" />
      <stop
         style="stop-color:#2b971a;stop-opacity:1"
         offset="1"
         id="stop3273" />
    </linearGradient>
    <linearGradient
       inkscape:collect="always"
       id="linearGradient2558">
      <stop
         style="stop-color:#f9f9ff;stop-opacity:1"
         offset="0"
         id="stop2554" />
      <stop
         style="stop-color:#acacdf;stop-opacity:1"
         offset="1"
         id="stop2556" />
    </linearGradient>
    <linearGradient
       inkscape:collect="always"
       id="linearGradient20194">
      <stop
         style="stop-color:#eaeaea;stop-opacity:1"
         offset="0"
         id="stop20190" />
      <stop
         style="stop-color:#cdcdcd;stop-opacity:0.03315065"
         offset="1"
         id="stop20192" />
    </linearGradient>
    <linearGradient
       inkscape:collect="always"
       id="linearGradient1614">
      <stop
         style="stop-color:#d3d3e5;stop-opacity:1"
         offset="0"
         id="stop1610" />
      <stop
         style="stop-color:#acacdf;stop-opacity:1"
         offset="1"
         id="stop1612" />
    </linearGradient>
    <linearGradient
       inkscape:collect="always"
       xlink:href="#linearGradient2558"
       id="linearGradient1616"
       x1="-9.432291"
       y1="15.25"
       x2="41.97411"
       y2="15.25"
       gradientUnits="userSpaceOnUse"
       gradientTransform="matrix(3.6129419,0,0,3.6129419,78.652024,32.082448)" />
    <linearGradient
       inkscape:collect="always"
       xlink:href="#linearGradient1614"
       id="linearGradient14981"
       x1="-9.932291"
       y1="28.25"
       x2="16.999466"
       y2="28.25"
       gradientUnits="userSpaceOnUse"
       gradientTransform="matrix(3.6129419,0,0,3.6129419,78.652024,32.082448)" />
    <radialGradient
       inkscape:collect="always"
       xlink:href="#linearGradient20194"
       id="radialGradient20196"
       cx="12.539487"
       cy="20.193056"
       fx="12.539487"
       fy="20.193056"
       r="20.419505"
       gradientTransform="matrix(4.5387433e-8,1.6623741,-4.913199,5.9348542e-8,245.14185,140.48983)"
       gradientUnits="userSpaceOnUse" />
    <linearGradient
       inkscape:collect="always"
       xlink:href="#linearGradient3275"
       id="linearGradient3277"
       x1="-3.8615117"
       y1="126.68059"
       x2="267.77136"
       y2="126.68059"
       gradientUnits="userSpaceOnUse"
       gradientTransform="matrix(0.86007537,0,0,0.86007537,27.387424,4.5768907)" />
    <linearGradient
       inkscape:collect="always"
       xlink:href="#linearGradient13306"
       id="linearGradient4404"
       x1="-16.689714"
       y1="212.88158"
       x2="143.19447"
       y2="212.88158"
       gradientUnits="userSpaceOnUse"
       gradientTransform="matrix(0.86007537,0,0,0.86007537,27.387424,4.5768907)" />
    <linearGradient
       inkscape:collect="always"
       xlink:href="#linearGradient54753"
       id="linearGradient43919"
       x1="20.585752"
       y1="165.70569"
       x2="26.183167"
       y2="165.70569"
       gradientUnits="userSpaceOnUse"
       gradientTransform="translate(0,-7.8167235)" />
    <linearGradient
       inkscape:collect="always"
       xlink:href="#linearGradient48308"
       id="linearGradient47496"
       gradientUnits="userSpaceOnUse"
       gradientTransform="translate(134.22578,60.659808)"
       x1="20.859493"
       y1="165.70569"
       x2="26.166584"
       y2="165.70569" />
    <linearGradient
       inkscape:collect="always"
       xlink:href="#linearGradient54753"
       id="linearGradient50708"
       gradientUnits="userSpaceOnUse"
       gradientTransform="translate(12.175933,0.13884129)"
       x1="20.585752"
       y1="165.70569"
       x2="26.183167"
       y2="165.70569" />
    <linearGradient
       inkscape:collect="always"
       xlink:href="#linearGradient54753"
       id="linearGradient50735"
       gradientUnits="userSpaceOnUse"
       gradientTransform="translate(25.92977,9.1253755)"
       x1="20.585752"
       y1="165.70569"
       x2="26.183167"
       y2="165.70569" />
    <linearGradient
       inkscape:collect="always"
       xlink:href="#linearGradient54753"
       id="linearGradient50762"
       gradientUnits="userSpaceOnUse"
       gradientTransform="translate(39.683603,18.11191)"
       x1="20.585752"
       y1="165.70569"
       x2="26.183167"
       y2="165.70569" />
    <linearGradient
       inkscape:collect="always"
       xlink:href="#linearGradient54753"
       id="linearGradient50789"
       gradientUnits="userSpaceOnUse"
       gradientTransform="translate(53.437439,27.098456)"
       x1="20.585752"
       y1="165.70569"
       x2="26.183167"
       y2="165.70569" />
    <linearGradient
       inkscape:collect="always"
       xlink:href="#linearGradient54753"
       id="linearGradient50816"
       gradientUnits="userSpaceOnUse"
       gradientTransform="translate(67.191272,36.084988)"
       x1="20.585752"
       y1="165.70569"
       x2="26.183167"
       y2="165.70569" />
    <linearGradient
       inkscape:collect="always"
       xlink:href="#linearGradient54753"
       id="linearGradient50843"
       gradientUnits="userSpaceOnUse"
       gradientTransform="translate(80.945109,45.071526)"
       x1="20.585752"
       y1="165.70569"
       x2="26.183167"
       y2="165.70569" />
    <linearGradient
       inkscape:collect="always"
       xlink:href="#linearGradient54753"
       id="linearGradient50870"
       gradientUnits="userSpaceOnUse"
       gradientTransform="translate(94.698941,54.058061)"
       x1="20.585752"
       y1="165.70569"
       x2="26.183167"
       y2="165.70569" />
    <linearGradient
       inkscape:collect="always"
       xlink:href="#linearGradient48308"
       id="linearGradient50956"
       gradientUnits="userSpaceOnUse"
       gradientTransform="translate(146.31275,48.406214)"
       x1="20.859493"
       y1="165.70569"
       x2="26.166584"
       y2="165.70569" />
    <linearGradient
       inkscape:collect="always"
       xlink:href="#linearGradient48308"
       id="linearGradient50981"
       gradientUnits="userSpaceOnUse"
       gradientTransform="translate(158.3997,37.286113)"
       x1="20.859493"
       y1="165.70569"
       x2="26.166584"
       y2="165.70569" />
    <linearGradient
       inkscape:collect="always"
       xlink:href="#linearGradient48308"
       id="linearGradient51006"
       gradientUnits="userSpaceOnUse"
       gradientTransform="translate(170.48665,23.899082)"
       x1="20.859493"
       y1="165.70569"
       x2="26.166584"
       y2="165.70569" />
    <linearGradient
       inkscape:collect="always"
       xlink:href="#linearGradient48308"
       id="linearGradient51031"
       gradientUnits="userSpaceOnUse"
       gradientTransform="translate(182.57362,11.645493)"
       x1="20.859493"
       y1="165.70569"
       x2="26.166584"
       y2="165.70569" />
    <linearGradient
       inkscape:collect="always"
       xlink:href="#linearGradient48308"
       id="linearGradient51056"
       gradientUnits="userSpaceOnUse"
       gradientTransform="translate(194.66058,-0.60808331)"
       x1="20.859493"
       y1="165.70569"
       x2="26.166584"
       y2="165.70569" />
    <linearGradient
       inkscape:collect="always"
       xlink:href="#linearGradient48308"
       id="linearGradient51081"
       gradientUnits="userSpaceOnUse"
       gradientTransform="translate(206.74754,-12.861667)"
       x1="20.859493"
       y1="165.70569"
       x2="26.166584"
       y2="165.70569" />
    <linearGradient
       inkscape:collect="always"
       xlink:href="#linearGradient48308"
       id="linearGradient51106"
       gradientUnits="userSpaceOnUse"
       gradientTransform="translate(218.8345,-25.115245)"
       x1="20.859493"
       y1="165.70569"
       x2="26.166584"
       y2="165.70569" />
    <linearGradient
       inkscape:collect="always"
       xlink:href="#linearGradient48308"
       id="linearGradient51131"
       gradientUnits="userSpaceOnUse"
       gradientTransform="translate(230.92146,-37.368818)"
       x1="20.859493"
       y1="165.70569"
       x2="26.166584"
       y2="165.70569" />
    <linearGradient
       inkscape:collect="always"
       xlink:href="#linearGradient54753"
       id="linearGradient55470"
       gradientUnits="userSpaceOnUse"
       gradientTransform="translate(108.45277,63.044597)"
       x1="20.585752"
       y1="165.70569"
       x2="26.183167"
       y2="165.70569" />
    <filter
       inkscape:collect="always"
       style="color-interpolation-filters:sRGB"
       id="filter57661"
       x="-0.067718848"
       y="-0.084035518"
       width="1.1354377"
       height="1.168071">
      <feGaussianBlur
         inkscape:collect="always"
         stdDeviation="6.8283441"
         id="feGaussianBlur57663" />
    </filter>
  </defs>
  <sodipodi:namedview
     inkscape:guide-bbox="true"
     id="base"
     pagecolor="#ffffff"
     bordercolor="#666666"
     borderopacity="1.0"
     inkscape:pageopacity="0.0"
     inkscape:pageshadow="2"
     inkscape:zoom="5.6568543"
     inkscape:cx="100.23239"
     inkscape:cy="157.33126"
     inkscape:document-units="px"
     inkscape:current-layer="layer1"
     inkscape:document-rotation="0"
     showgrid="false"
     units="px"
     inkscape:window-width="3840"
     inkscape:window-height="2043"
     inkscape:window-x="1920"
     inkscape:window-y="0"
     inkscape:window-maximized="1"
     inkscape:snap-bbox="true"
     inkscape:bbox-nodes="true"
     fit-margin-top="0"
     fit-margin-left="0"
     fit-margin-right="0"
     fit-margin-bottom="0"
     inkscape:bbox-paths="false"
     inkscape:snap-global="true"
     showguides="false"
     inkscape:pagecheckerboard="0"
     inkscape:snap-grids="true"
     inkscape:object-paths="true"
     inkscape:snap-smooth-nodes="false">
    <inkscape:grid
       type="xygrid"
       id="grid1504"
       originx="0"
       originy="0" />
    <inkscape:grid
       type="xygrid"
       id="grid1507"
       spacingx="0.5"
       spacingy="0.5"
       originx="0"
       originy="0" />
  </sodipodi:namedview>
  <metadata
     id="metadata5">
    <rdf:RDF>
      <cc:Work
         rdf:about="">
        <dc:format>image/svg+xml</dc:format>
        <dc:type
           rdf:resource="http://purl.org/dc/dcmitype/StillImage" />
      </cc:Work>
    </rdf:RDF>
  </metadata>
  <g
     inkscape:label="Layer 1"
     inkscape:groupmode="layer"
     id="layer1"
     transform="translate(-12.567709)">
    <path
       id="path57464"
       style="color:#000000;fill:#0d1a33;fill-opacity:1;stroke-width:6;stroke-linecap:round;-inkscape-stroke:none;filter:url(#filter57661)"
       d="m 143.42513,39.075893 a 3.7542204,3.7542204 0 0 0 -1.77148,0.666016 L 50.059897,104.44503 a 3.7542204,3.7542204 0 0 0 -1.587891,3.06641 v -0.37109 l -26.238281,17.54687 a 3.7542204,3.7542204 0 0 0 -1.666016,3.11914 v 13.35742 a 3.7542204,3.7542204 0 0 0 1.662109,3.11719 l 5.978516,4.00781 v 13.46289 c 0,3.17621 2.640195,5.81641 5.816406,5.81641 2.826434,0 5.116755,-2.12768 5.611328,-4.82617 v 6.47461 c 0,3.17621 2.638244,5.8164 5.814453,5.8164 3.17621,0 5.816407,-2.64019 5.816407,-5.8164 v -5.4668 l 1.27539,0.85547 v 13.04492 c 0,3.17621 2.640184,5.81641 5.816407,5.81641 3.176223,0 5.814453,-2.6402 5.814453,-5.81641 v -5.24609 l 1.277343,0.85547 v 12.82421 c 0,3.17622 2.640197,5.81641 5.816407,5.81641 3.17621,0 5.814453,-2.64019 5.814453,-5.81641 v -5.02539 l 1.277344,0.85547 v 12.60352 c 0,3.17621 2.63823,5.8164 5.814453,5.8164 3.176223,0 5.816406,-2.64019 5.816406,-5.8164 v -4.80469 l 1.275391,0.85547 v 12.38476 c 0,3.17623 2.640196,5.81446 5.816406,5.81446 3.176209,0 5.814449,-2.63823 5.814449,-5.81446 v -4.58789 l 1.27735,0.85743 v 12.16406 c 0,3.17622 2.63823,5.81445 5.81445,5.81445 3.17622,0 5.81641,-2.63824 5.81641,-5.81445 v -4.36524 l 1.27734,0.85547 v 11.94336 c 0,3.17623 2.63824,5.81446 5.81445,5.81446 3.17621,0 5.81641,-2.63825 5.81641,-5.81446 v -4.14453 l 1.27539,0.85547 v 11.7207 c 0,3.17621 2.6402,5.81641 5.81641,5.81641 3.17621,0 5.81445,-2.64018 5.81445,-5.81641 v -3.92383 l 5.27734,3.53907 a 3.7542204,3.7542204 0 0 0 4.77149,-0.49024 l 2.50586,-2.55664 v 1.19531 c 0,3.17624 2.64019,5.81446 5.81641,5.81446 3.1762,0 5.81445,-2.63823 5.81445,-5.81446 v -10.10546 c 0.64891,2.50018 2.84567,4.41992 5.52929,4.41992 3.17621,0 5.81446,-2.63823 5.81446,-5.81446 v -9.0371 c 0.65095,2.49731 2.84576,4.41601 5.52734,4.41601 3.17622,0 5.81641,-2.64018 5.81641,-5.81641 v -11.1621 c 0.65095,2.4973 2.84577,4.41406 5.52734,4.41406 3.17621,0 5.81641,-2.63823 5.81641,-5.81446 v -10.0996 c 0.65095,2.49731 2.84576,4.41406 5.52734,4.41406 3.17622,0 5.81641,-2.63823 5.81641,-5.81446 V 169.9216 c 0.65231,2.49539 2.84715,4.41015 5.52734,4.41015 3.17621,0 5.81446,-2.63824 5.81445,-5.81445 v -10.10547 c 0.64893,2.50019 2.84566,4.42187 5.5293,4.42187 3.17621,0 5.81446,-2.64019 5.81446,-5.8164 v -10.0957 c 0.6523,2.49539 2.84713,4.4121 5.52734,4.4121 3.17622,0 5.81445,-2.64019 5.81445,-5.8164 v -10.10742 c 0.6478,2.50174 2.84454,4.42382 5.5293,4.42382 3.17621,0 5.81641,-2.64019 5.81641,-5.8164 v -13.66992 l 4.92773,-5.0293 a 3.7542204,3.7542204 0 0 0 1.07227,-2.62695 V 99.790737 l -1.08008,1.083983 a 3.7542204,3.7542204 0 0 0 -1.1543,-6.091796 l -0.29883,-0.128906 -19.89258,-9.201172 v -3.050781 a 3.7542204,3.7542204 0 0 0 -2.27734,-3.451172 l -92.55273,-39.59375 a 3.7542204,3.7542204 0 0 0 -1.8711,-0.28125 z" />
    <g
       id="g53752"
       transform="matrix(0.93846159,0,0,0.93846159,4.0910052,-4.4894479)">
      <path
         id="path52400"
         style="color:#000000;fill:#46464d;fill-opacity:1;stroke:#682f08;stroke-width:8.5245897;stroke-linecap:round;stroke-miterlimit:4;stroke-dasharray:none;stroke-opacity:1"
         d="m 254.29427,111.87988 c -1.65685,0 -3,1.34315 -3,3 v 24.18555 c 0,1.65685 1.34315,3 3,3 1.65685,0 3,-1.34315 3,-3 v -24.18555 c 0,-1.65685 -1.34315,-3 -3,-3 z m -12.08789,12.25391 c -1.65685,0 -3,1.34315 -3,3 v 24.18554 c 0,1.65685 1.34315,3 3,3 1.65685,0 3,-1.34315 3,-3 v -24.18554 c 0,-1.65685 -1.34315,-3 -3,-3 z m -12.08594,12.25195 c -1.65685,0 -3,1.34315 -3,3 v 24.1875 c 0,1.65685 1.34315,3 3,3 1.65685,0 3,-1.34315 3,-3 v -24.1875 c 0,-1.65685 -1.34315,-3 -3,-3 z m -12.08789,12.25391 c -1.65685,0 -3,1.34315 -3,3 v 24.1875 c 0,1.65685 1.34315,3 3,3 1.65685,0 3,-1.34315 3,-3 v -24.1875 c 0,-1.65685 -1.34315,-3 -3,-3 z m -12.08593,12.2539 c -1.65685,0 -3,1.34315 -3,3 v 24.18555 c 0,1.65685 1.34315,3 3,3 1.65685,0 3,-1.34315 3,-3 v -24.18555 c 0,-1.65685 -1.34315,-3 -3,-3 z m -12.08789,12.25391 c -1.65685,0 -3,1.34315 -3,3 v 24.18555 c 0,1.65685 1.34315,3 3,3 1.65685,0 3,-1.34315 3,-3 v -24.18555 c 0,-1.65685 -1.34315,-3 -3,-3 z m -12.0879,13.38672 c -1.65685,0 -3,1.34315 -3,3 v 24.18554 c 0,1.65685 1.34315,3 3,3 1.65685,0 3,-1.34315 3,-3 v -24.18554 c 0,-1.65685 -1.34315,-3 -3,-3 z m -12.08593,11.12109 c -1.65685,0 -3,1.34315 -3,3 v 24.18555 c 0,1.65685 1.34315,3 3,3 1.65685,0 3,-1.34315 3,-3 v -24.18555 c 0,-1.65685 -1.34315,-3 -3,-3 z m -12.08789,12.25195 c -1.65685,0 -3,1.34315 -3,3 v 24.1875 c 0,1.65685 1.34315,3 3,3 1.65685,0 3,-1.34315 3,-3 v -24.1875 c 0,-1.65685 -1.34315,-3 -3,-3 z"
         sodipodi:nodetypes="sssssssssssssssssssssssssssssssssssssssssssssssssssssssssssssss" />
      <path
         id="path55930"
         style="color:#000000;fill:#46464d;fill-opacity:1;stroke:#993f00;stroke-width:8.5245897;stroke-linecap:round;stroke-miterlimit:4;stroke-dasharray:none;stroke-opacity:1"
         d="m 23.372397,141.43066 c -1.656855,0 -3.000001,1.34315 -3.000001,3 v 24.1875 c 0,1.65685 1.343146,3 3.000001,3 1.656854,0 3,-1.34315 3,-3 v -24.1875 c 0,-1.65685 -1.343146,-3 -3,-3 z m 12.175781,7.95703 c -1.656854,0 -3,1.34315 -3,3 v 24.18555 c 0,1.65685 1.343146,3 3,3 1.656854,0 3,-1.34315 3,-3 v -24.18555 c 0,-1.65685 -1.343146,-3 -3,-3 z m 13.753906,8.98633 c -1.656854,0 -3,1.34315 -3,3 v 24.18555 c 0,1.65685 1.343146,3 3,3 1.656854,0 3,-1.34315 3,-3 v -24.18555 c 0,-1.65685 -1.343146,-3 -3,-3 z m 13.753906,8.98633 c -1.656854,0 -3,1.34315 -3,3 v 24.18555 c 0,1.65685 1.343146,3 3,3 1.656854,0 3,-1.34315 3,-3 v -24.18555 c 0,-1.65685 -1.343146,-3 -3,-3 z m 13.753907,8.98633 c -1.656854,0 -3,1.34315 -3,3 v 24.18554 c 0,1.65685 1.343146,3 3,3 1.656854,0 3,-1.34315 3,-3 v -24.18554 c 0,-1.65685 -1.343146,-3 -3,-3 z m 13.753906,8.98633 c -1.656854,0 -3,1.34315 -3,3 v 24.1875 c 0,1.65685 1.343146,3 3,3 1.656854,0 3,-1.34315 3,-3 v -24.1875 c 0,-1.65685 -1.343146,-3 -3,-3 z m 13.753907,8.98632 c -1.65685,0 -3,1.34315 -3,3 v 24.1875 c 0,1.65685 1.34315,3 3,3 1.65685,0 3,-1.34315 3,-3 v -24.1875 c 0,-1.65685 -1.34315,-3 -3,-3 z m 13.75391,8.98633 c -1.65685,0 -3,1.34315 -3,3 v 24.1875 c 0,1.65685 1.34315,3 3,3 1.65685,0 3,-1.34315 3,-3 v -24.1875 c 0,-1.65685 -1.34315,-3 -3,-3 z m 13.7539,8.98633 c -1.65685,0 -3,1.34315 -3,3 v 24.1875 c 0,1.65685 1.34315,3 3,3 1.65685,0 3,-1.34315 3,-3 v -24.1875 c 0,-1.65685 -1.34315,-3 -3,-3 z"
         sodipodi:nodetypes="sssssssssssssssssssssssssssssssssssssssssssssssssssssssssssssss" />
      <g
         id="g52202"
         transform="translate(0,-1.3642598)">
        <path
           style="fill:#fee485;fill-opacity:1;stroke:url(#linearGradient43919);stroke-width:8.5245897;stroke-linecap:round;stroke-linejoin:miter;stroke-miterlimit:4;stroke-dasharray:none;stroke-opacity:1"
           d="m 23.372746,145.79586 v 24.18623"
           id="path30029" />
        <path
           style="fill:#fee485;fill-opacity:1;stroke:url(#linearGradient50708);stroke-width:8.5245897;stroke-linecap:round;stroke-linejoin:miter;stroke-miterlimit:4;stroke-dasharray:none;stroke-opacity:1"
           d="m 35.548679,153.75142 v 24.18623"
           id="path30029-1" />
        <path
           style="fill:#fee485;fill-opacity:1;stroke:url(#linearGradient50735);stroke-width:8.5245897;stroke-linecap:round;stroke-linejoin:miter;stroke-miterlimit:4;stroke-dasharray:none;stroke-opacity:1"
           d="m 49.302516,162.73796 v 24.18623"
           id="path30029-2" />
        <path
           style="fill:#fee485;fill-opacity:1;stroke:url(#linearGradient50762);stroke-width:8.5245897;stroke-linecap:round;stroke-linejoin:miter;stroke-miterlimit:4;stroke-dasharray:none;stroke-opacity:1"
           d="m 63.056349,171.7245 v 24.18623"
           id="path30029-15" />
        <path
           style="fill:#fee485;fill-opacity:1;stroke:url(#linearGradient50789);stroke-width:8.5245897;stroke-linecap:round;stroke-linejoin:miter;stroke-miterlimit:4;stroke-dasharray:none;stroke-opacity:1"
           d="m 76.810185,180.71104 v 24.18623"
           id="path30029-9" />
        <path
           style="fill:#fee485;fill-opacity:1;stroke:url(#linearGradient50816);stroke-width:8.5245897;stroke-linecap:round;stroke-linejoin:miter;stroke-miterlimit:4;stroke-dasharray:none;stroke-opacity:1"
           d="M 90.564018,189.69757 V 213.8838"
           id="path30029-159" />
        <path
           style="fill:#fee485;fill-opacity:1;stroke:url(#linearGradient50843);stroke-width:8.5245897;stroke-linecap:round;stroke-linejoin:miter;stroke-miterlimit:4;stroke-dasharray:none;stroke-opacity:1"
           d="m 104.31785,198.68411 v 24.18623"
           id="path30029-3" />
        <path
           style="fill:#fee485;fill-opacity:1;stroke:url(#linearGradient50870);stroke-width:8.5245897;stroke-linecap:round;stroke-linejoin:miter;stroke-miterlimit:4;stroke-dasharray:none;stroke-opacity:1"
           d="m 118.07169,207.67065 v 24.18623"
           id="path30029-94" />
        <path
           style="fill:#fee485;fill-opacity:1;stroke:url(#linearGradient55470);stroke-width:8.5245897;stroke-linecap:round;stroke-linejoin:miter;stroke-miterlimit:4;stroke-dasharray:none;stroke-opacity:1"
           d="m 131.82552,216.65718 v 24.18623"
           id="path30029-39" />
        <path
           style="fill:#fee485;fill-opacity:1;stroke:url(#linearGradient47496);stroke-width:8.5245897;stroke-linecap:round;stroke-linejoin:miter;stroke-miterlimit:4;stroke-dasharray:none;stroke-opacity:1"
           d="m 157.59853,214.27238 v 24.18623"
           id="path30029-8-5" />
        <path
           style="fill:#fee485;fill-opacity:1;stroke:url(#linearGradient50956);stroke-width:8.5245897;stroke-linecap:round;stroke-linejoin:miter;stroke-miterlimit:4;stroke-dasharray:none;stroke-opacity:1"
           d="m 169.6855,202.01879 v 24.18623"
           id="path30029-8-5-5" />
        <path
           style="fill:#fee485;fill-opacity:1;stroke:url(#linearGradient50981);stroke-width:8.5245897;stroke-linecap:round;stroke-linejoin:miter;stroke-miterlimit:4;stroke-dasharray:none;stroke-opacity:1"
           d="m 181.77245,190.89869 v 24.18623"
           id="path30029-8-5-3" />
        <path
           style="fill:#fee485;fill-opacity:1;stroke:url(#linearGradient51006);stroke-width:8.5245897;stroke-linecap:round;stroke-linejoin:miter;stroke-miterlimit:4;stroke-dasharray:none;stroke-opacity:1"
           d="m 193.8594,177.51166 v 24.18623"
           id="path30029-8-5-1" />
        <path
           style="fill:#fee485;fill-opacity:1;stroke:url(#linearGradient51031);stroke-width:8.5245897;stroke-linecap:round;stroke-linejoin:miter;stroke-miterlimit:4;stroke-dasharray:none;stroke-opacity:1"
           d="M 205.94637,165.25807 V 189.4443"
           id="path30029-8-5-8" />
        <path
           style="fill:#fee485;fill-opacity:1;stroke:url(#linearGradient51056);stroke-width:8.5245897;stroke-linecap:round;stroke-linejoin:miter;stroke-miterlimit:4;stroke-dasharray:none;stroke-opacity:1"
           d="m 218.03333,153.00449 v 24.18623"
           id="path30029-8-5-0" />
        <path
           style="fill:#fee485;fill-opacity:1;stroke:url(#linearGradient51081);stroke-width:8.5245897;stroke-linecap:round;stroke-linejoin:miter;stroke-miterlimit:4;stroke-dasharray:none;stroke-opacity:1"
           d="m 230.12029,140.75092 v 24.18622"
           id="path30029-8-5-4" />
        <path
           style="fill:#fee485;fill-opacity:1;stroke:url(#linearGradient51106);stroke-width:8.5245897;stroke-linecap:round;stroke-linejoin:miter;stroke-miterlimit:4;stroke-dasharray:none;stroke-opacity:1"
           d="m 242.20725,128.49734 v 24.18622"
           id="path30029-8-5-6" />
        <path
           style="fill:#fee485;fill-opacity:1;stroke:url(#linearGradient51131);stroke-width:8.5245897;stroke-linecap:round;stroke-linejoin:miter;stroke-miterlimit:4;stroke-dasharray:none;stroke-opacity:1"
           d="m 254.29421,116.24376 v 24.18623"
           id="path30029-8-5-59" />
      </g>
      <path
         id="path52066"
         style="fill:#46464d;fill-opacity:1;stroke:#46464d;stroke-width:8;stroke-linecap:round;stroke-linejoin:round;stroke-miterlimit:4;stroke-dasharray:none;stroke-opacity:1"
         d="m 127.79883,41.875 -97.599611,68.94531 v 1.74219 L 0.46484375,132.44727 v 14.23242 L 133.30469,235.74609 250.31836,116.33984 v -15.40039 l 0.0156,-0.0156 -0.35742,-0.15625 -23.55468,-10.894533 v -5.808594 z"
         transform="translate(12.567709)" />
      <g
         id="g24454">
        <path
           style="fill:url(#linearGradient4404);fill-opacity:1;stroke:none;stroke-width:4;stroke-linecap:round;stroke-linejoin:round;stroke-miterlimit:4;stroke-dasharray:none;stroke-opacity:1"
           d="M 148.57429,213.74954 13.033011,132.44714 v 14.23176 l 132.840049,89.06807 z"
           id="path4226"
           sodipodi:nodetypes="ccccc" />
        <path
           style="fill:#9d7400;fill-opacity:1;stroke:none;stroke-width:4;stroke-linecap:round;stroke-linejoin:round;stroke-miterlimit:4;stroke-dasharray:none;stroke-opacity:1"
           d="m 145.87306,214.8723 v 20.87467 L 262.88563,116.33933 v -15.41341 z"
           id="path3942"
           sodipodi:nodetypes="ccccc" />
        <path
           id="path3251"
           style="fill:url(#linearGradient3277);fill-opacity:1;stroke:none;stroke-width:4;stroke-linecap:round;stroke-linejoin:round;stroke-miterlimit:4;stroke-dasharray:none;stroke-opacity:1"
           d="M 140.26854,47.360109 13.033011,132.44714 146.06732,219.36965 262.90211,100.9243 Z"
           sodipodi:nodetypes="ccccc" />
        <path
           style="fill:#237709;fill-opacity:1;stroke:none;stroke-width:1px;stroke-linecap:butt;stroke-linejoin:miter;stroke-opacity:1"
           d="m 145.65076,197.68073 23.35852,-1.56929 93.87635,-95.18552 -25.8681,-11.964422 z"
           id="path16585"
           sodipodi:nodetypes="ccccc" />
        <path
           id="path25077"
           style="fill:#393939;fill-opacity:1;stroke:#46464d;stroke-width:5.37463;stroke-linecap:round;stroke-linejoin:round;stroke-miterlimit:4;stroke-dasharray:none;stroke-opacity:1"
           d="M 140.36621,50.666001 42.767434,112.56265 v 18.87554 l 103.162346,63.9887 93.05999,-89.68465 V 88.158635 Z"
           sodipodi:nodetypes="ccccccc" />
        <path
           style="fill:url(#linearGradient1616);fill-opacity:1;stroke:none;stroke-width:3.61294px;stroke-linecap:butt;stroke-linejoin:miter;stroke-opacity:1"
           d="M 42.76723,110.81959 140.36609,41.875883 238.98954,84.064058 192.89759,128.44037 145.92935,168.1825 68.057827,132.49725 Z"
           id="path1294"
           sodipodi:nodetypes="ccccccc" />
        <path
           style="fill:url(#linearGradient14981);fill-opacity:1;stroke:none;stroke-width:3.61294px;stroke-linecap:butt;stroke-linejoin:miter;stroke-opacity:1"
           d="M 145.92935,195.42722 V 165.74475 L 42.76723,110.81959 v 20.61877 z"
           id="path980"
           sodipodi:nodetypes="ccccc" />
        <path
           style="fill:#7373d2;fill-opacity:1;stroke:none;stroke-width:3.61294px;stroke-linecap:butt;stroke-linejoin:miter;stroke-opacity:1"
           d="m 145.92935,195.42722 93.06019,-89.68551 V 84.064058 l -93.06019,80.883812 z"
           id="path1386"
           sodipodi:nodetypes="ccccc" />
        <path
           id="path19926"
           style="color:#000000;fill:url(#radialGradient20196);fill-opacity:1;stroke-width:3.61294;stroke-linecap:round;stroke-linejoin:round;-inkscape-stroke:none"
           d="m 235.83415,84.032056 -89.9242,79.340284 -99.958379,-52.40618 c -0.409068,-0.25208 -0.901707,-0.33081 -1.368963,-0.21877 -0.465752,0.10904 -0.869252,0.39832 -1.121987,0.80444 -0.527862,0.84931 -0.265338,1.96586 0.585687,2.49096 l 100.268872,52.59672 -0.0925,26.16706 c -0.004,0.99768 0.80879,1.80647 1.80648,1.80647 0.99767,0 1.80296,-0.80879 1.80646,-1.80647 l 0.0925,-26.37876 90.35463,-79.7425 z"
           sodipodi:nodetypes="cccccccsssccc" />
      </g>
    </g>
  </g>
</svg>
