<?xml version="1.0" encoding="UTF-8" standalone="no"?>
<svg
   width="256"
   height="256"
   viewBox="0 0 256 256"
   version="1.1"
   id="svg8"
   inkscape:version="1.1.2 (0a00cf5339, 2022-02-04)"
   sodipodi:docname="cpu_16.svg"
   inkscape:export-filename="cpu.png"
   inkscape:export-xdpi="6"
   inkscape:export-ydpi="6"
   xmlns:inkscape="http://www.inkscape.org/namespaces/inkscape"
   xmlns:sodipodi="http://sodipodi.sourceforge.net/DTD/sodipodi-0.dtd"
   xmlns:xlink="http://www.w3.org/1999/xlink"
   xmlns="http://www.w3.org/2000/svg"
   xmlns:svg="http://www.w3.org/2000/svg"
   xmlns:rdf="http://www.w3.org/1999/02/22-rdf-syntax-ns#"
   xmlns:cc="http://creativecommons.org/ns#"
   xmlns:dc="http://purl.org/dc/elements/1.1/">
  <defs
     id="defs2">
    <linearGradient
       inkscape:collect="always"
       id="linearGradient54753">
      <stop
         style="stop-color:#ffffff;stop-opacity:1"
         offset="0"
         id="stop54745" />
      <stop
         style="stop-color:#ffff33;stop-opacity:1"
         offset="0.22"
         id="stop54747" />
      <stop
         style="stop-color:#ffd500;stop-opacity:1"
         offset="0.44"
         id="stop54749" />
      <stop
         style="stop-color:#cc6800;stop-opacity:1"
         offset="1"
         id="stop54751" />
    </linearGradient>
    <linearGradient
       inkscape:collect="always"
       id="linearGradient48308">
      <stop
         style="stop-color:#cca900;stop-opacity:1"
         offset="0"
         id="stop48300" />
      <stop
         style="stop-color:#cc9200;stop-opacity:1"
         offset="0.44"
         id="stop48304" />
      <stop
         style="stop-color:#cc6900;stop-opacity:1"
         offset="1"
         id="stop48306" />
    </linearGradient>
    <linearGradient
       inkscape:collect="always"
       id="linearGradient13306">
      <stop
         style="stop-color:#ffe588;stop-opacity:1"
         offset="0"
         id="stop13302" />
      <stop
         style="stop-color:#e5c000;stop-opacity:1"
         offset="1"
         id="stop13304" />
    </linearGradient>
    <linearGradient
       inkscape:collect="always"
       id="linearGradient3275">
      <stop
         style="stop-color:#60c131;stop-opacity:1"
         offset="0"
         id="stop3271" />
      <stop
         style="stop-color:#2b971a;stop-opacity:1"
         offset="1"
         id="stop3273" />
    </linearGradient>
    <linearGradient
       inkscape:collect="always"
       id="linearGradient2558">
      <stop
         style="stop-color:#f9f9ff;stop-opacity:1"
         offset="0"
         id="stop2554" />
      <stop
         style="stop-color:#acacdf;stop-opacity:1"
         offset="1"
         id="stop2556" />
    </linearGradient>
    <linearGradient
       inkscape:collect="always"
       id="linearGradient20194">
      <stop
         style="stop-color:#eaeaea;stop-opacity:1"
         offset="0"
         id="stop20190" />
      <stop
         style="stop-color:#cdcdcd;stop-opacity:0.03315065"
         offset="1"
         id="stop20192" />
    </linearGradient>
    <linearGradient
       inkscape:collect="always"
       id="linearGradient1614">
      <stop
         style="stop-color:#d3d3e5;stop-opacity:1"
         offset="0"
         id="stop1610" />
      <stop
         style="stop-color:#acacdf;stop-opacity:1"
         offset="1"
         id="stop1612" />
    </linearGradient>
    <linearGradient
       inkscape:collect="always"
       xlink:href="#linearGradient2558"
       id="linearGradient1616"
       x1="-9.432291"
       y1="15.25"
       x2="41.97411"
       y2="15.25"
       gradientUnits="userSpaceOnUse"
       gradientTransform="matrix(3.6129419,0,0,3.6129419,78.652024,32.082448)" />
    <linearGradient
       inkscape:collect="always"
       xlink:href="#linearGradient1614"
       id="linearGradient14981"
       x1="-9.932291"
       y1="28.25"
       x2="16.999466"
       y2="28.25"
       gradientUnits="userSpaceOnUse"
       gradientTransform="matrix(3.6129419,0,0,3.6129419,78.652024,32.082448)" />
    <radialGradient
       inkscape:collect="always"
       xlink:href="#linearGradient20194"
       id="radialGradient20196"
       cx="12.539487"
       cy="20.193056"
       fx="12.539487"
       fy="20.193056"
       r="20.419505"
       gradientTransform="matrix(4.5387433e-8,1.6623741,-4.913199,5.9348542e-8,245.14185,140.48983)"
       gradientUnits="userSpaceOnUse" />
    <linearGradient
       inkscape:collect="always"
       xlink:href="#linearGradient3275"
       id="linearGradient3277"
       x1="-3.8615117"
       y1="126.68059"
       x2="267.77136"
       y2="126.68059"
       gradientUnits="userSpaceOnUse"
       gradientTransform="matrix(0.86007537,0,0,0.86007537,27.387424,4.5768907)" />
    <linearGradient
       inkscape:collect="always"
       xlink:href="#linearGradient13306"
       id="linearGradient4404"
       x1="-16.689714"
       y1="212.88158"
       x2="143.19447"
       y2="212.88158"
       gradientUnits="userSpaceOnUse"
       gradientTransform="matrix(0.86007537,0,0,0.86007537,27.387424,4.5768907)" />
    <linearGradient
       inkscape:collect="always"
       xlink:href="#linearGradient54753"
       id="linearGradient43919"
       x1="20.585752"
       y1="165.70569"
       x2="26.183167"
       y2="165.70569"
       gradientUnits="userSpaceOnUse"
       gradientTransform="translate(0,-7.8167235)" />
    <linearGradient
       inkscape:collect="always"
       xlink:href="#linearGradient48308"
       id="linearGradient47496"
       gradientUnits="userSpaceOnUse"
       gradientTransform="translate(134.22578,60.659808)"
       x1="20.859493"
       y1="165.70569"
       x2="26.166584"
       y2="165.70569" />
    <linearGradient
       inkscape:collect="always"
       xlink:href="#linearGradient54753"
       id="linearGradient50708"
       gradientUnits="userSpaceOnUse"
       gradientTransform="translate(12.175933,0.13884129)"
       x1="20.585752"
       y1="165.70569"
       x2="26.183167"
       y2="165.70569" />
    <linearGradient
       inkscape:collect="always"
       xlink:href="#linearGradient54753"
       id="linearGradient50735"
       gradientUnits="userSpaceOnUse"
       gradientTransform="translate(25.92977,9.1253755)"
       x1="20.585752"
       y1="165.70569"
       x2="26.183167"
       y2="165.70569" />
    <linearGradient
       inkscape:collect="always"
       xlink:href="#linearGradient54753"
       id="linearGradient50762"
       gradientUnits="userSpaceOnUse"
       gradientTransform="translate(39.683603,18.11191)"
       x1="20.585752"
       y1="165.70569"
       x2="26.183167"
       y2="165.70569" />
    <linearGradient
       inkscape:collect="always"
       xlink:href="#linearGradient54753"
       id="linearGradient50789"
       gradientUnits="userSpaceOnUse"
       gradientTransform="translate(53.437439,27.098456)"
       x1="20.585752"
       y1="165.70569"
       x2="26.183167"
       y2="165.70569" />
    <linearGradient
       inkscape:collect="always"
       xlink:href="#linearGradient54753"
       id="linearGradient50816"
       gradientUnits="userSpaceOnUse"
       gradientTransform="translate(67.191272,36.084988)"
       x1="20.585752"
       y1="165.70569"
       x2="26.183167"
       y2="165.70569" />
    <linearGradient
       inkscape:collect="always"
       xlink:href="#linearGradient54753"
       id="linearGradient50843"
       gradientUnits="userSpaceOnUse"
       gradientTransform="translate(80.945109,45.071526)"
       x1="20.585752"
       y1="165.70569"
       x2="26.183167"
       y2="165.70569" />
    <linearGradient
       inkscape:collect="always"
       xlink:href="#linearGradient54753"
       id="linearGradient50870"
       gradientUnits="userSpaceOnUse"
       gradientTransform="translate(94.698941,54.058061)"
       x1="20.585752"
       y1="165.70569"
       x2="26.183167"
       y2="165.70569" />
    <linearGradient
       inkscape:collect="always"
       xlink:href="#linearGradient48308"
       id="linearGradient50956"
       gradientUnits="userSpaceOnUse"
       gradientTransform="translate(146.31275,48.406214)"
       x1="20.859493"
       y1="165.70569"
       x2="26.166584"
       y2="165.70569" />
    <linearGradient
       inkscape:collect="always"
       xlink:href="#linearGradient48308"
       id="linearGradient50981"
       gradientUnits="userSpaceOnUse"
       gradientTransform="translate(158.3997,37.286113)"
       x1="20.859493"
       y1="165.70569"
       x2="26.166584"
       y2="165.70569" />
    <linearGradient
       inkscape:collect="always"
       xlink:href="#linearGradient48308"
       id="linearGradient51006"
       gradientUnits="userSpaceOnUse"
       gradientTransform="translate(170.48665,23.899082)"
       x1="20.859493"
       y1="165.70569"
       x2="26.166584"
       y2="165.70569" />
    <linearGradient
       inkscape:collect="always"
       xlink:href="#linearGradient48308"
       id="linearGradient51031"
       gradientUnits="userSpaceOnUse"
       gradientTransform="translate(182.57362,11.645493)"
       x1="20.859493"
       y1="165.70569"
       x2="26.166584"
       y2="165.70569" />
    <linearGradient
       inkscape:collect="always"
       xlink:href="#linearGradient48308"
       id="linearGradient51056"
       gradientUnits="userSpaceOnUse"
       gradientTransform="translate(194.66058,-0.60808331)"
       x1="20.859493"
       y1="165.70569"
       x2="26.166584"
       y2="165.70569" />
    <linearGradient
       inkscape:collect="always"
       xlink:href="#linearGradient48308"
       id="linearGradient51081"
       gradientUnits="userSpaceOnUse"
       gradientTransform="translate(206.74754,-12.861667)"
       x1="20.859493"
       y1="165.70569"
       x2="26.166584"
       y2="165.70569" />
    <linearGradient
       inkscape:collect="always"
       xlink:href="#linearGradient48308"
       id="linearGradient51106"
       gradientUnits="userSpaceOnUse"
       gradientTransform="translate(218.8345,-25.115245)"
       x1="20.859493"
       y1="165.70569"
       x2="26.166584"
       y2="165.70569" />
    <linearGradient
       inkscape:collect="always"
       xlink:href="#linearGradient48308"
       id="linearGradient51131"
       gradientUnits="userSpaceOnUse"
       gradientTransform="translate(230.92146,-37.368818)"
       x1="20.859493"
       y1="165.70569"
       x2="26.166584"
       y2="165.70569" />
    <linearGradient
       inkscape:collect="always"
       xlink:href="#linearGradient54753"
       id="linearGradient55470"
       gradientUnits="userSpaceOnUse"
       gradientTransform="translate(108.45277,63.044597)"
       x1="20.585752"
       y1="165.70569"
       x2="26.183167"
       y2="165.70569" />
    <filter
       inkscape:collect="always"
       style="color-interpolation-filters:sRGB"
       id="filter60363"
       x="-0.13310171"
       y="-0.16413916"
       width="1.2662034"
       height="1.3282783">
      <feGaussianBlur
         inkscape:collect="always"
         stdDeviation="13.310098"
         id="feGaussianBlur60365" />
    </filter>
  </defs>
  <sodipodi:namedview
     inkscape:guide-bbox="true"
     id="base"
     pagecolor="#ffffff"
     bordercolor="#666666"
     borderopacity="1.0"
     inkscape:pageopacity="0.0"
     inkscape:pageshadow="2"
     inkscape:zoom="4"
     inkscape:cx="-6.5"
     inkscape:cy="70.25"
     inkscape:document-units="px"
     inkscape:current-layer="layer1"
     inkscape:document-rotation="0"
     showgrid="false"
     units="px"
     inkscape:window-width="3840"
     inkscape:window-height="2043"
     inkscape:window-x="1920"
     inkscape:window-y="0"
     inkscape:window-maximized="1"
     inkscape:snap-bbox="true"
     inkscape:bbox-nodes="true"
     fit-margin-top="0"
     fit-margin-left="0"
     fit-margin-right="0"
     fit-margin-bottom="0"
     inkscape:bbox-paths="false"
     inkscape:snap-global="true"
     showguides="false"
     inkscape:pagecheckerboard="0"
     inkscape:snap-grids="true"
     inkscape:object-paths="true"
     inkscape:snap-smooth-nodes="false">
    <inkscape:grid
       type="xygrid"
       id="grid1504"
       originx="0"
       originy="0" />
    <inkscape:grid
       type="xygrid"
       id="grid1507"
       spacingx="0.5"
       spacingy="0.5"
       originx="0"
       originy="0" />
  </sodipodi:namedview>
  <metadata
     id="metadata5">
    <rdf:RDF>
      <cc:Work
         rdf:about="">
        <dc:format>image/svg+xml</dc:format>
        <dc:type
           rdf:resource="http://purl.org/dc/dcmitype/StillImage" />
      </cc:Work>
    </rdf:RDF>
  </metadata>
  <g
     inkscape:label="Layer 1"
     inkscape:groupmode="layer"
     id="layer1"
     transform="translate(-12.567709)">
    <path
       id="path60166"
       style="color:#000000;fill:#0d1a33;fill-opacity:1;stroke-width:9.81623;stroke-linecap:round;-inkscape-stroke:none;filter:url(#filter60363)"
       d="m 150.26302,45.835942 a 4.9086057,4.9086057 0 0 0 -2.3164,0.871093 L 58.034506,110.22266 a 4.9086057,4.9086057 0 0 0 -2.076172,4.00781 v -1.01757 l -25.210938,16.86132 a 4.9086057,4.9086057 0 0 0 -2.179687,4.08008 v 13.11132 a 4.9086057,4.9086057 0 0 0 2.173828,4.07618 l 4.587891,3.07617 v 13.05664 c 0,4.17887 3.493015,7.67187 7.671875,7.67187 1.29362,0 2.464086,-0.41967 3.542968,-1.00586 v 0.66211 c 0,4.17887 3.493015,7.67188 7.671876,7.67188 1.916592,0 3.642791,-0.79548 5,-1.99414 v 2.60156 c 0,4.17887 3.492992,7.67188 7.671874,7.67188 1.916278,0 3.640929,-0.79584 4.998047,-1.99414 v 2.59961 c 0,4.17886 3.493014,7.67187 7.671875,7.67187 1.916592,0 3.640838,-0.79548 4.998047,-1.99414 v 2.60156 c 0,4.17887 3.492971,7.67188 7.671875,7.67188 1.916192,0 3.640958,-0.79594 4.998047,-1.99414 v 2.60156 c 1e-6,4.17887 3.493018,7.67187 7.671878,7.67187 1.91659,0 3.64279,-0.79547 5,-1.99414 v 2.60157 c 0,4.17886 3.49299,7.67187 7.67187,7.67187 1.91628,0 3.64093,-0.79583 4.99805,-1.99414 v 2.59961 c 0,4.17889 3.49302,7.67187 7.67188,7.67187 1.91659,0 3.64083,-0.79547 4.99804,-1.99414 v 2.60157 c 0,4.17888 3.49301,7.67187 7.67188,7.67187 4.17886,0 7.67187,-3.49299 7.67187,-7.67187 v -1.0625 l 2.53516,1.69921 a 4.9086057,4.9086057 0 0 0 6.23242,-0.63867 c 0.96825,3.13136 3.88926,5.47657 7.30273,5.47657 4.17887,0 7.66993,-3.49301 7.66993,-7.67188 v -4.57031 c 1.05853,0.55843 2.2045,0.95312 3.46484,0.95312 4.17886,0 7.67187,-3.49301 7.67187,-7.67187 v -3.52344 c 1.05755,0.5571 2.20222,0.95117 3.46094,0.95117 4.17889,0 7.67188,-3.49299 7.67188,-7.67187 v -5.61328 c 1.0582,0.55799 2.20504,0.95312 3.46484,0.95312 4.17887,0 7.67188,-3.49299 7.67188,-7.67187 v -4.56836 c 1.05794,0.55764 2.20351,0.95117 3.46289,0.95117 4.17888,0 7.67187,-3.49299 7.67187,-7.67188 v -4.5664 c 1.05759,0.55716 2.20409,0.95117 3.46289,0.95117 4.17887,0 7.67188,-3.49299 7.67188,-7.67188 v -4.56835 c 1.05813,0.55789 2.2032,0.95312 3.46289,0.95312 4.17886,0 7.67187,-3.493 7.67187,-7.67188 v -4.56835 c 1.05754,0.5571 2.20416,0.95117 3.46289,0.95117 4.17889,0 7.67188,-3.49299 7.67188,-7.67188 v -4.56836 c 1.05794,0.55764 2.20351,0.95118 3.46289,0.95118 4.17886,0 7.67187,-3.49299 7.67187,-7.67188 v -13.67578 l 3.74805,-3.82422 a 4.9086057,4.9086057 0 0 0 1.4043,-3.43555 V 107.1543 l -1.41602,1.42188 a 4.9086057,4.9086057 0 0 0 -1.51367,-7.95899 l -0.28125,-0.12304 -18.80469,-8.697271 v -2.214844 a 4.9086057,4.9086057 0 0 0 -2.97656,-4.511719 L 152.70833,46.205082 a 4.9086057,4.9086057 0 0 0 -2.44531,-0.36914 z" />
    <g
       id="g59880"
       transform="matrix(0.98162673,0,0,0.98162673,0.23091031,0.54768374)">
      <path
         id="path52400"
         style="color:#000000;fill:#46464d;fill-opacity:1;stroke:#682f08;stroke-width:9.99996;stroke-linecap:round;stroke-miterlimit:4;stroke-dasharray:none;stroke-opacity:1"
         d="m 243.98256,100.50552 c -1.55489,0 -2.81538,1.2605 -2.81538,2.81539 v 22.69721 c 0,1.55489 1.26049,2.81538 2.81538,2.81538 1.55489,0 2.81539,-1.26049 2.81539,-2.81538 v -22.69721 c 0,-1.55489 -1.2605,-2.81539 -2.81539,-2.81539 z m -11.34402,11.49983 c -1.55489,0 -2.81538,1.26049 -2.81538,2.81538 v 22.6972 c 0,1.55489 1.26049,2.81539 2.81538,2.81539 1.55489,0 2.81539,-1.2605 2.81539,-2.81539 v -22.6972 c 0,-1.55489 -1.2605,-2.81538 -2.81539,-2.81538 z m -11.34219,11.49798 c -1.55489,0 -2.81538,1.2605 -2.81538,2.81539 v 22.69903 c 0,1.5549 1.26049,2.81539 2.81538,2.81539 1.55489,0 2.81539,-1.26049 2.81539,-2.81539 v -22.69903 c 0,-1.55489 -1.2605,-2.81539 -2.81539,-2.81539 z m -11.34402,11.49982 c -1.55489,0 -2.81538,1.2605 -2.81538,2.81539 v 22.69904 c 0,1.55489 1.26049,2.81538 2.81538,2.81538 1.55489,0 2.81539,-1.26049 2.81539,-2.81538 v -22.69904 c 0,-1.55489 -1.2605,-2.81539 -2.81539,-2.81539 z m -11.34218,11.49982 c -1.55489,0 -2.81538,1.26049 -2.81538,2.81538 v 22.69721 c 0,1.55489 1.26049,2.81539 2.81538,2.81539 1.55489,0 2.81539,-1.2605 2.81539,-2.81539 v -22.69721 c 0,-1.55489 -1.2605,-2.81538 -2.81539,-2.81538 z m -11.34402,11.49982 c -1.55489,0 -2.81538,1.2605 -2.81538,2.81539 v 22.69721 c 0,1.55489 1.26049,2.81538 2.81538,2.81538 1.55489,0 2.81539,-1.26049 2.81539,-2.81538 v -22.69721 c 0,-1.55489 -1.2605,-2.81539 -2.81539,-2.81539 z m -11.34403,12.56293 c -1.55489,0 -2.81538,1.26049 -2.81538,2.81538 v 22.6972 c 0,1.55489 1.26049,2.81539 2.81538,2.81539 1.55489,0 2.81539,-1.2605 2.81539,-2.81539 v -22.6972 c 0,-1.55489 -1.2605,-2.81538 -2.81539,-2.81538 z m -11.34218,10.43671 c -1.55489,0 -2.81539,1.2605 -2.81539,2.81539 v 22.69721 c 0,1.55489 1.2605,2.81538 2.81539,2.81538 1.55489,0 2.81538,-1.26049 2.81538,-2.81538 v -22.69721 c 0,-1.55489 -1.26049,-2.81539 -2.81538,-2.81539 z m -11.34402,11.49799 c -1.55489,0 -2.81539,1.26049 -2.81539,2.81538 v 22.69904 c 0,1.55489 1.2605,2.81538 2.81539,2.81538 1.55489,0 2.81538,-1.26049 2.81538,-2.81538 V 195.3158 c 0,-1.55489 -1.26049,-2.81538 -2.81538,-2.81538 z"
         sodipodi:nodetypes="sssssssssssssssssssssssssssssssssssssssssssssssssssssssssssssss" />
      <path
         id="path55930"
         style="color:#000000;fill:#46464d;fill-opacity:1;stroke:#993f00;stroke-width:9.99996;stroke-linecap:round;stroke-miterlimit:4;stroke-dasharray:none;stroke-opacity:1"
         d="m 27.271256,128.23779 c -1.554895,0 -2.815386,1.2605 -2.815386,2.81539 v 22.69904 c 0,1.55489 1.260491,2.81538 2.815386,2.81538 1.554893,0 2.815384,-1.26049 2.815384,-2.81538 v -22.69904 c 0,-1.55489 -1.260491,-2.81539 -2.815384,-2.81539 z m 11.426502,7.46737 c -1.554893,0 -2.815384,1.2605 -2.815384,2.81539 v 22.69721 c 0,1.55489 1.260491,2.81538 2.815384,2.81538 1.554894,0 2.815385,-1.26049 2.815385,-2.81538 v -22.69721 c 0,-1.55489 -1.260491,-2.81539 -2.815385,-2.81539 z m 12.907513,8.43333 c -1.554894,0 -2.815385,1.26049 -2.815385,2.81538 v 22.69721 c 0,1.55489 1.260491,2.81539 2.815385,2.81539 1.554894,0 2.815385,-1.2605 2.815385,-2.81539 v -22.69721 c 0,-1.55489 -1.260491,-2.81538 -2.815385,-2.81538 z m 12.907512,8.43332 c -1.554894,0 -2.815384,1.2605 -2.815384,2.81539 v 22.69721 c 0,1.55489 1.26049,2.81538 2.815384,2.81538 1.554894,0 2.815385,-1.26049 2.815385,-2.81538 V 155.3872 c 0,-1.55489 -1.260491,-2.81539 -2.815385,-2.81539 z m 12.907514,8.43333 c -1.554894,0 -2.815385,1.26049 -2.815385,2.81538 v 22.6972 c 0,1.55489 1.260491,2.81539 2.815385,2.81539 1.554894,0 2.815385,-1.2605 2.815385,-2.81539 v -22.6972 c 0,-1.55489 -1.260491,-2.81538 -2.815385,-2.81538 z m 12.907512,8.43332 c -1.554894,0 -2.815385,1.2605 -2.815385,2.81539 v 22.69904 c 0,1.55489 1.260491,2.81538 2.815385,2.81538 1.554894,0 2.815385,-1.26049 2.815385,-2.81538 v -22.69904 c 0,-1.55489 -1.260491,-2.81539 -2.815385,-2.81539 z m 12.907511,8.43332 c -1.55489,0 -2.81538,1.26049 -2.81538,2.81538 v 22.69904 c 0,1.55489 1.26049,2.81539 2.81538,2.81539 1.55489,0 2.81539,-1.2605 2.81539,-2.81539 v -22.69904 c 0,-1.55489 -1.2605,-2.81538 -2.81539,-2.81538 z m 12.90752,8.43333 c -1.55489,0 -2.81539,1.26049 -2.81539,2.81538 v 22.69904 c 0,1.55489 1.2605,2.81538 2.81539,2.81538 1.55489,0 2.81538,-1.26049 2.81538,-2.81538 v -22.69904 c 0,-1.55489 -1.26049,-2.81538 -2.81538,-2.81538 z m 12.90751,8.43332 c -1.55489,0 -2.81539,1.2605 -2.81539,2.81539 v 22.69904 c 0,1.55489 1.2605,2.81538 2.81539,2.81538 1.55489,0 2.81538,-1.26049 2.81538,-2.81538 v -22.69904 c 0,-1.55489 -1.26049,-2.81539 -2.81538,-2.81539 z"
         sodipodi:nodetypes="sssssssssssssssssssssssssssssssssssssssssssssssssssssssssssssss" />
      <g
         id="g52202"
         transform="matrix(0.93846159,0,0,0.93846159,5.3371587,-5.7697533)">
        <path
           style="fill:#fee485;fill-opacity:1;stroke:url(#linearGradient43919);stroke-width:8.52459;stroke-linecap:round;stroke-linejoin:miter;stroke-miterlimit:4;stroke-dasharray:none;stroke-opacity:1"
           d="m 23.372746,145.79586 v 24.18623"
           id="path30029" />
        <path
           style="fill:#fee485;fill-opacity:1;stroke:url(#linearGradient50708);stroke-width:8.52459;stroke-linecap:round;stroke-linejoin:miter;stroke-miterlimit:4;stroke-dasharray:none;stroke-opacity:1"
           d="m 35.548679,153.75142 v 24.18623"
           id="path30029-1" />
        <path
           style="fill:#fee485;fill-opacity:1;stroke:url(#linearGradient50735);stroke-width:8.52459;stroke-linecap:round;stroke-linejoin:miter;stroke-miterlimit:4;stroke-dasharray:none;stroke-opacity:1"
           d="m 49.302516,162.73796 v 24.18623"
           id="path30029-2" />
        <path
           style="fill:#fee485;fill-opacity:1;stroke:url(#linearGradient50762);stroke-width:8.52459;stroke-linecap:round;stroke-linejoin:miter;stroke-miterlimit:4;stroke-dasharray:none;stroke-opacity:1"
           d="m 63.056349,171.7245 v 24.18623"
           id="path30029-15" />
        <path
           style="fill:#fee485;fill-opacity:1;stroke:url(#linearGradient50789);stroke-width:8.52459;stroke-linecap:round;stroke-linejoin:miter;stroke-miterlimit:4;stroke-dasharray:none;stroke-opacity:1"
           d="m 76.810185,180.71104 v 24.18623"
           id="path30029-9" />
        <path
           style="fill:#fee485;fill-opacity:1;stroke:url(#linearGradient50816);stroke-width:8.52459;stroke-linecap:round;stroke-linejoin:miter;stroke-miterlimit:4;stroke-dasharray:none;stroke-opacity:1"
           d="M 90.564018,189.69757 V 213.8838"
           id="path30029-159" />
        <path
           style="fill:#fee485;fill-opacity:1;stroke:url(#linearGradient50843);stroke-width:8.52459;stroke-linecap:round;stroke-linejoin:miter;stroke-miterlimit:4;stroke-dasharray:none;stroke-opacity:1"
           d="m 104.31785,198.68411 v 24.18623"
           id="path30029-3" />
        <path
           style="fill:#fee485;fill-opacity:1;stroke:url(#linearGradient50870);stroke-width:8.52459;stroke-linecap:round;stroke-linejoin:miter;stroke-miterlimit:4;stroke-dasharray:none;stroke-opacity:1"
           d="m 118.07169,207.67065 v 24.18623"
           id="path30029-94" />
        <path
           style="fill:#fee485;fill-opacity:1;stroke:url(#linearGradient55470);stroke-width:8.52459;stroke-linecap:round;stroke-linejoin:miter;stroke-miterlimit:4;stroke-dasharray:none;stroke-opacity:1"
           d="m 131.82552,216.65718 v 24.18623"
           id="path30029-39" />
        <path
           style="fill:#fee485;fill-opacity:1;stroke:url(#linearGradient47496);stroke-width:8.52459;stroke-linecap:round;stroke-linejoin:miter;stroke-miterlimit:4;stroke-dasharray:none;stroke-opacity:1"
           d="m 157.59853,214.27238 v 24.18623"
           id="path30029-8-5" />
        <path
           style="fill:#fee485;fill-opacity:1;stroke:url(#linearGradient50956);stroke-width:8.52459;stroke-linecap:round;stroke-linejoin:miter;stroke-miterlimit:4;stroke-dasharray:none;stroke-opacity:1"
           d="m 169.6855,202.01879 v 24.18623"
           id="path30029-8-5-5" />
        <path
           style="fill:#fee485;fill-opacity:1;stroke:url(#linearGradient50981);stroke-width:8.52459;stroke-linecap:round;stroke-linejoin:miter;stroke-miterlimit:4;stroke-dasharray:none;stroke-opacity:1"
           d="m 181.77245,190.89869 v 24.18623"
           id="path30029-8-5-3" />
        <path
           style="fill:#fee485;fill-opacity:1;stroke:url(#linearGradient51006);stroke-width:8.52459;stroke-linecap:round;stroke-linejoin:miter;stroke-miterlimit:4;stroke-dasharray:none;stroke-opacity:1"
           d="m 193.8594,177.51166 v 24.18623"
           id="path30029-8-5-1" />
        <path
           style="fill:#fee485;fill-opacity:1;stroke:url(#linearGradient51031);stroke-width:8.52459;stroke-linecap:round;stroke-linejoin:miter;stroke-miterlimit:4;stroke-dasharray:none;stroke-opacity:1"
           d="M 205.94637,165.25807 V 189.4443"
           id="path30029-8-5-8" />
        <path
           style="fill:#fee485;fill-opacity:1;stroke:url(#linearGradient51056);stroke-width:8.52459;stroke-linecap:round;stroke-linejoin:miter;stroke-miterlimit:4;stroke-dasharray:none;stroke-opacity:1"
           d="m 218.03333,153.00449 v 24.18623"
           id="path30029-8-5-0" />
        <path
           style="fill:#fee485;fill-opacity:1;stroke:url(#linearGradient51081);stroke-width:8.52459;stroke-linecap:round;stroke-linejoin:miter;stroke-miterlimit:4;stroke-dasharray:none;stroke-opacity:1"
           d="m 230.12029,140.75092 v 24.18622"
           id="path30029-8-5-4" />
        <path
           style="fill:#fee485;fill-opacity:1;stroke:url(#linearGradient51106);stroke-width:8.52459;stroke-linecap:round;stroke-linejoin:miter;stroke-miterlimit:4;stroke-dasharray:none;stroke-opacity:1"
           d="m 242.20725,128.49734 v 24.18622"
           id="path30029-8-5-6" />
        <path
           style="fill:#fee485;fill-opacity:1;stroke:url(#linearGradient51131);stroke-width:8.52459;stroke-linecap:round;stroke-linejoin:miter;stroke-miterlimit:4;stroke-dasharray:none;stroke-opacity:1"
           d="m 254.29421,116.24376 v 24.18623"
           id="path30029-8-5-59" />
      </g>
      <path
         id="path52066"
         style="fill:#46464d;fill-opacity:1;stroke:#46464d;stroke-width:9.99996;stroke-linecap:round;stroke-linejoin:round;stroke-miterlimit:4;stroke-dasharray:none;stroke-opacity:1"
         d="M 137.06576,34.808631 45.472278,99.511156 v 1.634974 l -27.904569,18.6611 v 13.35658 L 142.2328,216.7492 252.04564,104.69102 V 90.238349 l 0.0146,-0.01464 -0.33543,-0.146635 -22.10516,-10.224101 v -5.451142 z" />
      <g
         id="g24454"
         transform="matrix(0.93846159,0,0,0.93846159,5.3371587,-4.4894479)">
        <path
           style="fill:url(#linearGradient4404);fill-opacity:1;stroke:none;stroke-width:4;stroke-linecap:round;stroke-linejoin:round;stroke-miterlimit:4;stroke-dasharray:none;stroke-opacity:1"
           d="M 148.57429,213.74954 13.033011,132.44714 v 14.23176 l 132.840049,89.06807 z"
           id="path4226"
           sodipodi:nodetypes="ccccc" />
        <path
           style="fill:#9d7400;fill-opacity:1;stroke:none;stroke-width:4;stroke-linecap:round;stroke-linejoin:round;stroke-miterlimit:4;stroke-dasharray:none;stroke-opacity:1"
           d="m 145.87306,214.8723 v 20.87467 L 262.88563,116.33933 v -15.41341 z"
           id="path3942"
           sodipodi:nodetypes="ccccc" />
        <path
           id="path3251"
           style="fill:url(#linearGradient3277);fill-opacity:1;stroke:none;stroke-width:4;stroke-linecap:round;stroke-linejoin:round;stroke-miterlimit:4;stroke-dasharray:none;stroke-opacity:1"
           d="M 140.26854,47.360109 13.033011,132.44714 146.06732,219.36965 262.90211,100.9243 Z"
           sodipodi:nodetypes="ccccc" />
        <path
           style="fill:#237709;fill-opacity:1;stroke:none;stroke-width:1px;stroke-linecap:butt;stroke-linejoin:miter;stroke-opacity:1"
           d="m 145.65076,197.68073 23.35852,-1.56929 93.87635,-95.18552 -25.8681,-11.964422 z"
           id="path16585"
           sodipodi:nodetypes="ccccc" />
        <path
           id="path25077"
           style="fill:#393939;fill-opacity:1;stroke:#46464d;stroke-width:10.6557;stroke-linecap:round;stroke-linejoin:round;stroke-miterlimit:4;stroke-dasharray:none;stroke-opacity:1"
           d="M 140.36621,50.666001 42.767434,112.56265 v 18.87554 l 103.162346,63.9887 93.05999,-89.68465 V 88.158635 Z"
           sodipodi:nodetypes="ccccccc" />
        <path
           style="fill:url(#linearGradient1616);fill-opacity:1;stroke:none;stroke-width:3.61294px;stroke-linecap:butt;stroke-linejoin:miter;stroke-opacity:1"
           d="M 42.76723,110.81959 140.36609,41.875883 238.98954,84.064058 192.89759,128.44037 145.92935,168.1825 68.057827,132.49725 Z"
           id="path1294"
           sodipodi:nodetypes="ccccccc" />
        <path
           style="fill:url(#linearGradient14981);fill-opacity:1;stroke:none;stroke-width:3.61294px;stroke-linecap:butt;stroke-linejoin:miter;stroke-opacity:1"
           d="M 145.92935,195.42722 V 165.74475 L 42.76723,110.81959 v 20.61877 z"
           id="path980"
           sodipodi:nodetypes="ccccc" />
        <path
           style="fill:#7373d2;fill-opacity:1;stroke:none;stroke-width:3.61294px;stroke-linecap:butt;stroke-linejoin:miter;stroke-opacity:1"
           d="m 145.92935,195.42722 93.06019,-89.68551 V 84.064058 l -93.06019,80.883812 z"
           id="path1386"
           sodipodi:nodetypes="ccccc" />
        <path
           id="path19926"
           style="color:#000000;fill:url(#radialGradient20196);fill-opacity:1;stroke-width:3.61294;stroke-linecap:round;stroke-linejoin:round;-inkscape-stroke:none"
           d="m 235.83415,84.032056 -89.9242,79.340284 -99.958379,-52.40618 c -0.409068,-0.25208 -0.901707,-0.33081 -1.368963,-0.21877 -0.465752,0.10904 -0.869252,0.39832 -1.121987,0.80444 -0.527862,0.84931 -0.265338,1.96586 0.585687,2.49096 l 100.268872,52.59672 -0.0925,26.16706 c -0.004,0.99768 0.80879,1.80647 1.80648,1.80647 0.99767,0 1.80296,-0.80879 1.80646,-1.80647 l 0.0925,-26.37876 90.35463,-79.7425 z"
           sodipodi:nodetypes="cccccccsssccc" />
      </g>
    </g>
  </g>
</svg>
