<?xml version="1.0" encoding="UTF-8" standalone="no"?>
<svg
   inkscape:export-ydpi="96"
   inkscape:export-xdpi="96"
   inkscape:export-filename="/media/klapeto/Αρχεία/WindowsXP Theme/Vectors/RASTER/game-controller.png"
   sodipodi:docname="game-controller-blocked.svg"
   inkscape:version="1.1.1 (3bf5ae0d25, 2021-09-20)"
   id="svg8"
   version="1.1"
   viewBox="0 0 256 256"
   height="256"
   width="256"
   xmlns:inkscape="http://www.inkscape.org/namespaces/inkscape"
   xmlns:sodipodi="http://sodipodi.sourceforge.net/DTD/sodipodi-0.dtd"
   xmlns="http://www.w3.org/2000/svg"
   xmlns:svg="http://www.w3.org/2000/svg"
   xmlns:rdf="http://www.w3.org/1999/02/22-rdf-syntax-ns#"
   xmlns:cc="http://creativecommons.org/ns#"
   xmlns:dc="http://purl.org/dc/elements/1.1/">
  <defs
     id="defs2">
    <linearGradient
       gradientTransform="matrix(0,0.0288,0.0423,0,32.396364,29.499357)"
       gradientUnits="userSpaceOnUse"
       id="gradient0-36"
       spreadMethod="pad"
       x1="-819.20001"
       x2="819.20001">
      <stop
         offset="0.0"
         stop-color="#666699"
         id="stop48" />
      <stop
         offset="1.0"
         stop-color="#333366"
         id="stop50" />
    </linearGradient>
    <linearGradient
       gradientTransform="matrix(-0.0134,-0.0125,-0.0082,0.0088,16.4,5.4)"
       gradientUnits="userSpaceOnUse"
       id="gradient1-7"
       spreadMethod="pad"
       x1="-819.20001"
       x2="819.20001">
      <stop
         offset="0.0"
         stop-color="#9999cc"
         id="stop53" />
      <stop
         offset="0.27058823529411763"
         stop-color="#ccccff"
         id="stop55" />
      <stop
         offset="0.4823529411764706"
         stop-color="#9999ff"
         id="stop57" />
      <stop
         offset="1.0"
         stop-color="#ccccff"
         id="stop59-5" />
    </linearGradient>
    <radialGradient
       cx="0"
       cy="0"
       gradientTransform="matrix(0.0664,0,0,0.0664,29.65,15.45)"
       gradientUnits="userSpaceOnUse"
       id="gradient2-3"
       r="819.20001"
       spreadMethod="pad">
      <stop
         offset="0.0"
         stop-color="#eeeeee"
         id="stop62" />
      <stop
         offset="0.40784313725490196"
         stop-color="#9999ff"
         id="stop64-5" />
      <stop
         offset="1.0"
         stop-color="#6666cc"
         id="stop66-6" />
    </radialGradient>
    <radialGradient
       cx="0"
       cy="0"
       gradientTransform="matrix(0.0061,0,0,0.0061,46.1,15.9)"
       gradientUnits="userSpaceOnUse"
       id="gradient3-2"
       r="819.20001"
       spreadMethod="pad">
      <stop
         offset="0.0"
         stop-color="#99ccff"
         id="stop69-9" />
      <stop
         offset="0.5254901960784314"
         stop-color="#0099ff"
         id="stop71-1" />
      <stop
         offset="1.0"
         stop-color="#003399"
         id="stop73" />
    </radialGradient>
    <linearGradient
       gradientTransform="matrix(0.0066,0,0,-0.0034,46.3,16)"
       gradientUnits="userSpaceOnUse"
       id="gradient4-2"
       spreadMethod="pad"
       x1="-819.20001"
       x2="819.20001">
      <stop
         offset="0.0"
         stop-color="#6666cc"
         id="stop76-7" />
      <stop
         offset="0.3686274509803922"
         stop-color="#9999ff"
         id="stop78-0" />
      <stop
         offset="0.792156862745098"
         stop-color="#ccccff"
         id="stop80" />
      <stop
         offset="1.0"
         stop-color="#ffffff"
         id="stop82" />
    </linearGradient>
    <linearGradient
       gradientTransform="matrix(0.0062,0,0,-0.0038,41.8,21.75)"
       gradientUnits="userSpaceOnUse"
       id="gradient5-9"
       spreadMethod="pad"
       x1="-819.20001"
       x2="819.20001">
      <stop
         offset="0.0"
         stop-color="#6666cc"
         id="stop85" />
      <stop
         offset="0.5215686274509804"
         stop-color="#9999ff"
         id="stop87" />
      <stop
         offset="0.7725490196078432"
         stop-color="#ccccff"
         id="stop89" />
      <stop
         offset="1.0"
         stop-color="#ffffff"
         id="stop91" />
    </linearGradient>
    <radialGradient
       cx="0"
       cy="0"
       gradientTransform="matrix(0.0069,0,0,0.0069,40.65,21.25)"
       gradientUnits="userSpaceOnUse"
       id="gradient6-3"
       r="819.20001"
       spreadMethod="pad">
      <stop
         offset="0.0"
         stop-color="#ff9933"
         id="stop94" />
      <stop
         offset="0.43529411764705883"
         stop-color="#ff3300"
         id="stop96" />
      <stop
         offset="1.0"
         stop-color="#660000"
         id="stop98-6" />
    </radialGradient>
    <linearGradient
       gradientTransform="matrix(0.006,0,0,-0.0031,55.5,18.6)"
       gradientUnits="userSpaceOnUse"
       id="gradient7-0"
       spreadMethod="pad"
       x1="-819.20001"
       x2="819.20001">
      <stop
         offset="0.0"
         stop-color="#6666cc"
         id="stop101" />
      <stop
         offset="0.32941176470588235"
         stop-color="#9999ff"
         id="stop103" />
      <stop
         offset="0.7254901960784313"
         stop-color="#ccccff"
         id="stop105-62" />
      <stop
         offset="1.0"
         stop-color="#ffffff"
         id="stop107-6" />
    </linearGradient>
    <radialGradient
       cx="0"
       cy="0"
       gradientTransform="matrix(0.0064,0,0,0.0064,54.55,18.55)"
       gradientUnits="userSpaceOnUse"
       id="gradient8-1"
       r="819.20001"
       spreadMethod="pad">
      <stop
         offset="0.0"
         stop-color="#99ff66"
         id="stop110-8" />
      <stop
         offset="0.40784313725490196"
         stop-color="#66cc33"
         id="stop112-7" />
      <stop
         offset="1.0"
         stop-color="#006600"
         id="stop114-9" />
    </radialGradient>
    <linearGradient
       gradientTransform="matrix(0.0063,0,0,-0.0036,51.05,24.6)"
       gradientUnits="userSpaceOnUse"
       id="gradient9-2"
       spreadMethod="pad"
       x1="-819.20001"
       x2="819.20001">
      <stop
         offset="0.0"
         stop-color="#6666cc"
         id="stop117-0" />
      <stop
         offset="0.40784313725490196"
         stop-color="#9999ff"
         id="stop119-2" />
      <stop
         offset="0.8"
         stop-color="#ccccff"
         id="stop121" />
      <stop
         offset="1.0"
         stop-color="#ffffff"
         id="stop123" />
    </linearGradient>
    <radialGradient
       cx="0"
       cy="0"
       gradientTransform="matrix(0.0064,0,0,0.0064,50.45,24.35)"
       gradientUnits="userSpaceOnUse"
       id="gradient10-3"
       r="819.20001"
       spreadMethod="pad">
      <stop
         offset="0.0"
         stop-color="#ffff99"
         id="stop126" />
      <stop
         offset="0.4627450980392157"
         stop-color="#ffcc00"
         id="stop128" />
      <stop
         offset="1.0"
         stop-color="#996600"
         id="stop130" />
    </radialGradient>
    <linearGradient
       gradientTransform="matrix(-0.0165,0,0,0.0065,45.8,33.3)"
       gradientUnits="userSpaceOnUse"
       id="gradient11-7"
       spreadMethod="pad"
       x1="-819.20001"
       x2="819.20001">
      <stop
         offset="0.0"
         stop-color="#ccccff"
         id="stop133" />
      <stop
         offset="1.0"
         stop-color="#9999ff"
         id="stop135" />
    </linearGradient>
    <linearGradient
       gradientTransform="matrix(0,-0.0167,-0.0094,0,13.396364,25.099357)"
       gradientUnits="userSpaceOnUse"
       id="gradient12-5"
       spreadMethod="pad"
       x1="-819.20001"
       x2="819.20001">
      <stop
         offset="0.0"
         stop-color="#9999ff"
         id="stop138" />
      <stop
         offset="0.788235294117647"
         stop-color="#ffffff"
         id="stop140" />
      <stop
         offset="1.0"
         stop-color="#ffffff"
         id="stop142" />
    </linearGradient>
    <linearGradient
       gradientTransform="matrix(0.0116,0,0,-0.0079,28.45,27.55)"
       gradientUnits="userSpaceOnUse"
       id="gradient13-92"
       spreadMethod="pad"
       x1="-819.20001"
       x2="819.20001">
      <stop
         offset="0.0"
         stop-color="#6666cc"
         id="stop145" />
      <stop
         offset="0.7254901960784313"
         stop-color="#ccccff"
         id="stop147" />
      <stop
         offset="1.0"
         stop-color="#ffffff"
         id="stop149" />
    </linearGradient>
    <radialGradient
       cx="0"
       cy="0"
       gradientTransform="matrix(0.0111,0,0,0.0111,27.3,24.3)"
       gradientUnits="userSpaceOnUse"
       id="gradient14"
       r="819.20001"
       spreadMethod="pad">
      <stop
         offset="0.0"
         stop-color="#cccccc"
         id="stop152" />
      <stop
         offset="1.0"
         stop-color="#666666"
         id="stop154" />
    </radialGradient>
    <radialGradient
       cx="0"
       cy="0"
       gradientTransform="matrix(0.0111,0,0,0.011,27.35,25.45)"
       gradientUnits="userSpaceOnUse"
       id="gradient15"
       r="819.20001"
       spreadMethod="pad">
      <stop
         offset="0.0"
         stop-color="#666666"
         id="stop157" />
      <stop
         offset="1.0"
         stop-color="#333333"
         id="stop159" />
    </radialGradient>
    <linearGradient
       gradientTransform="matrix(0,0.0084,0.0081,0,23.55,46.45)"
       gradientUnits="userSpaceOnUse"
       id="gradient16"
       spreadMethod="pad"
       x1="-819.20001"
       x2="819.20001">
      <stop
         offset="0.0"
         stop-color="#9999ff"
         id="stop162" />
      <stop
         offset="1.0"
         stop-color="#ccccff"
         id="stop164" />
    </linearGradient>
    <filter
       inkscape:collect="always"
       style="color-interpolation-filters:sRGB"
       id="filter1495"
       x="-0.040780233"
       y="-0.058326099"
       width="1.0815605"
       height="1.1166522">
      <feGaussianBlur
         inkscape:collect="always"
         stdDeviation="4.1119973"
         id="feGaussianBlur1497" />
    </filter>
    <filter
       height="1.0953369"
       y="-0.04766843"
       width="1.0966724"
       x="-0.048336213"
       id="filter963"
       style="color-interpolation-filters:sRGB"
       inkscape:collect="always">
      <feGaussianBlur
         id="feGaussianBlur965"
         stdDeviation="4.8065668"
         inkscape:collect="always" />
    </filter>
  </defs>
  <sodipodi:namedview
     inkscape:snap-global="true"
     inkscape:bbox-paths="false"
     fit-margin-bottom="0"
     fit-margin-right="0"
     fit-margin-left="0"
     fit-margin-top="0"
     inkscape:bbox-nodes="true"
     inkscape:snap-bbox="true"
     inkscape:window-maximized="1"
     inkscape:window-y="0"
     inkscape:window-x="3840"
     inkscape:window-height="2043"
     inkscape:window-width="3840"
     units="px"
     showgrid="false"
     inkscape:document-rotation="0"
     inkscape:current-layer="layer1"
     inkscape:document-units="px"
     inkscape:cy="113.25"
     inkscape:cx="-196.25"
     inkscape:zoom="2"
     inkscape:pageshadow="2"
     inkscape:pageopacity="0.0"
     borderopacity="1.0"
     bordercolor="#666666"
     pagecolor="#ffffff"
     id="base"
     inkscape:pagecheckerboard="0"
     width="256px">
    <inkscape:grid
       originy="0"
       originx="0"
       id="grid1504"
       type="xygrid" />
    <inkscape:grid
       originy="0"
       originx="0"
       spacingy="0.5"
       spacingx="0.5"
       id="grid1507"
       type="xygrid" />
  </sodipodi:namedview>
  <metadata
     id="metadata5">
    <rdf:RDF>
      <cc:Work
         rdf:about="">
        <dc:format>image/svg+xml</dc:format>
        <dc:type
           rdf:resource="http://purl.org/dc/dcmitype/StillImage" />
      </cc:Work>
    </rdf:RDF>
  </metadata>
  <g
     transform="translate(-12.567709)"
     id="layer1"
     inkscape:groupmode="layer"
     inkscape:label="Layer 1">
    <path
       id="path1106"
       style="fill:#212121;fill-opacity:1;stroke-width:2.93906;filter:url(#filter1495)"
       d="m 51.386803,47.421714 c -14.605029,0.353606 -24.818256,4.941238 -30.647408,13.770691 -2.841101,4.212666 -3.775112,8.622113 -2.795423,13.226654 0.685781,4.70251 3.28357,8.769473 7.790144,12.198387 5.192354,3.918756 11.514622,5.633117 18.960263,5.14327 l 20.131292,-3.817904 c 8.229394,-2.351256 14.255895,-3.330061 18.076685,-2.938185 3.330945,0.09797 6.26929,1.076775 8.816483,2.938185 -8.719239,4.800477 -15.969728,11.80193 -21.749898,21.011008 -7.641579,11.85424 -12.198908,26.01274 -13.668443,42.47153 -1.371566,15.08721 0.150117,28.804 4.55872,41.14809 4.310636,12.44205 10.434439,19.88715 18.369925,22.33637 11.560336,3.62485 20.132118,1.42013 25.716357,-6.61332 3.03703,-4.40861 6.0221,-13.07769 8.96117,-26.00959 1.17563,-5.29033 2.49691,-8.86884 3.96646,-10.73027 1.95937,-2.25327 5.0456,-3.08421 9.25827,-2.49638 l 23.80643,4.85003 c 8.32737,1.46954 16.80184,1.27108 25.42311,-0.59034 12.93191,-2.74312 19.98972,-9.64728 21.16535,-20.71777 0.48984,-4.70251 0.92771,-7.54356 1.31958,-8.52325 1.07766,-1.95937 3.37968,-2.44974 6.90657,-1.47005 l 18.51846,6.75609 c 8.03345,3.03702 14.30322,4.55871 18.80979,4.55871 9.20908,0 14.59735,-4.40944 16.16484,-13.22665 1.56751,-8.71924 -2.59483,-17.6335 -12.48969,-26.74462 C 237.44879,105.52707 224.56486,98.1287 208.10607,91.760716 191.45135,85.392733 174.30585,81.22847 156.67143,79.26909 141.48625,77.603616 127.71889,77.848803 115.3748,80.004118 l -5.28603,-5.286032 C 102.83906,69.525732 95.831825,66.632178 89.071965,66.044364 82.899921,65.260612 75.404245,66.239419 66.587038,68.98255 l -15.136571,5.000508 c -6.270014,1.665474 -11.2652,1.665474 -14.988022,0 -1.371564,-0.587813 -2.35037,-1.71643 -2.938184,-3.381902 -0.783751,-1.861411 -0.635871,-3.626347 0.441788,-5.29182 2.743131,-4.800479 10.727246,-7.197878 23.953055,-7.197878 4.212666,0 6.417389,-1.714356 6.613327,-5.14327 0.195938,-3.526883 -2.008785,-5.338541 -6.613327,-5.436509 -2.265533,-0.122463 -4.445868,-0.160481 -6.532301,-0.109965 z" />
    <g
       transform="matrix(2.9390689,0,0,2.9390689,12.505031,43.382182)"
       id="g46">
      <path
         sodipodi:nodetypes="scccccccccccccccccccccsccccccccccccsccs"
         transform="translate(15.303636,4.5506434)"
         d="m -3.7753906,-4.5371094 c -4.9692709,0.1203125 -8.4444014,1.6813802 -10.4277344,4.6855469 -0.966667,1.4333333 -1.284505,2.9333333 -0.951172,4.5 0.233333,1.6 1.117057,2.983724 2.650391,4.1503906 1.766666,1.3333329 3.9178383,1.9166669 6.4511716,1.7499999 L 0.796875,9.25 c 2.8,-0.8 4.8503906,-1.1333333 6.1503906,-1 1.1333334,0.033333 2.1333334,0.3666667 3,1 -2.966667,1.633333 -5.4337236,4.015105 -7.4003906,7.148438 -2.6,4.033332 -4.1503906,8.851171 -4.6503906,14.451171 -0.466667,5.133333 0.050781,9.8 1.55078122,14 1.46666701,4.233333 3.54999998,6.766277 6.24999998,7.59961 3.933333,1.233333 6.8500004,0.483333 8.7500004,-2.25 1.033333,-1.5 2.048828,-4.44961 3.048828,-8.84961 0.4,-1.8 0.849609,-3.017057 1.349609,-3.65039 0.666667,-0.76667 1.717058,-1.04961 3.150391,-0.84961 L 30.095703,38.5 c 2.833333,0.5 5.717058,0.432161 8.650391,-0.201172 4.4,-0.933333 6.801172,-3.282161 7.201172,-7.048828 0.166667,-1.6 0.315885,-2.567058 0.449218,-2.900391 0.366667,-0.666667 1.14961,-0.833333 2.34961,-0.5 l 6.300781,2.298829 c 2.733333,1.033332 4.867058,1.550781 6.400391,1.550781 3.133333,0 4.966667,-1.5 5.5,-4.5 0.533333,-2.966667 -0.883333,-5.99961 -4.25,-9.09961 -3.166667,-2.866667 -7.550391,-5.384114 -13.150391,-7.550781 -5.666667,-2.1666669 -11.5,-3.5833329 -17.5,-4.2499999 -5.166667,-0.566667 -9.850781,-0.483333 -14.050781,0.25 L 16.197266,4.75 C 13.730599,2.9833333 11.346875,1.9988281 9.046875,1.7988281 c -2.1,-0.2666666 -4.6503906,0.066667 -7.6503906,1 L -3.7539062,4.5 c -2.1333334,0.5666667 -3.8329428,0.5666667 -5.0996094,0 -0.4666667,-0.2 -0.8,-0.583724 -1,-1.1503906 -0.2666664,-0.6333334 -0.2162764,-1.2341146 0.1503906,-1.8007813 0.9333333,-1.63333331 3.6503906,-2.44921872 8.1503906,-2.44921872 1.43333336,-10e-9 2.18333336,-0.58333338 2.25000002,-1.74999998 0.0666667,-1.2 -0.68333333,-1.8162761 -2.25000002,-1.8496094 -0.7708333,-0.041667 -1.5127604,-0.054297 -2.2226562,-0.037109 z"
         style="fill:url(#gradient0-36)"
         id="path2-2" />
      <path
         sodipodi:nodetypes="cccccccccccccccc"
         style="fill:url(#gradient1-7)"
         d="m 31.4,11.5 c -1.473861,0.375822 -3.026347,0.79913 -4.35,1.4 -1.8,-1.5 -4.083333,-2 -6.85,-1.5 l -9.65,2.15 C 7.6833333,14.083333 5.3333333,13.65 3.5,12.25 2.2333333,11.316667 1.4833333,10.183333 1.25,8.85 0.98333333,7.5166667 1.2333333,6.2333333 2,5 3.9666667,2.1 7.7833333,0.7 13.45,0.8 14.583333,1 15.1,1.3666667 15,1.9 14.933333,2.4666667 14.45,2.7 13.55,2.6 8.45,2.7 5.35,3.8166667 4.25,5.95 3.85,6.75 3.8333333,7.6 4.2,8.5 c 0.3,0.7666667 0.85,1.3666667 1.65,1.8 1.9136936,0.924096 4.518596,0.252195 7.05,-0.25 4.5,-1.4 7.433333,-2.1833333 8.8,-2.35 3.066667,-0.3 6.3,0.9666667 9.7,3.8"
         fill="url(#gradient1)"
         fill-rule="evenodd"
         stroke="none"
         id="path6-9" />
      <path
         sodipodi:nodetypes="ccccccccccccccccccccc"
         style="fill:url(#gradient2-3)"
         d="m 76.8,23.85 c 3,2.833333 4.166667,5.55 3.5,8.15 -0.466667,1.8 -1.683333,2.733333 -3.65,2.8 -1.4,0 -3.466667,-0.516667 -6.2,-1.55 L 64.2,30.9 c -2.033333,-0.533333 -3.316667,-0.316667 -3.85,0.65 -0.333333,0.566667 -0.55,1.366667 -0.65,2.4 l -0.3,2.6 c -0.566667,2.066667 -2.416667,3.45 -5.55,4.15 -3.566667,0.766667 -7.55,0.716667 -11.95,-0.15 -4.266667,-0.9 -6.983333,-1.183333 -8.15,-0.85 -1,0.233333 -1.783333,1.35 -2.35,3.35 l -1.45,6.05 c -1.433333,5.3 -4,7.45 -7.7,6.45 -2.466667,-0.7 -4.383333,-2.983333 -5.75,-6.85 -1.433333,-3.9 -1.966667,-8.233333 -1.6,-13 0.466667,-5.233333 1.916667,-9.733333 4.35,-13.5 2.9,-4.433333 6.85,-7.316667 11.85,-8.65 5.066667,-1.4 10.766667,-1.733333 17.1,-1 5.733333,0.6 11.25,1.983333 16.55,4.15 5.166667,2.066667 9.183333,4.45 12.05,7.15"
         fill="url(#gradient2)"
         fill-rule="evenodd"
         stroke="none"
         id="path10-3" />
      <path
         style="fill:url(#gradient3-2)"
         d="m 50.4,17.75 -0.05,0.05 q -0.6,0.6 -2.25,0.75 l -0.6,0.05 q -3.25,0.3 -3.4,-1.4 -0.15,-1.65 3.2,-1.95 3.4,-0.15 3.4,1.5 0.05,0.6 -0.3,1"
         fill="url(#gradient3)"
         fill-rule="evenodd"
         stroke="none"
         id="path12-6" />
      <path
         style="fill:url(#gradient4-2)"
         d="m 48.1,18.55 -1.5,0.2 q -2.2,0.15 -3.85,-0.5 -1.65,-0.75 -1.7,-1.8 -0.1,-1.2 1.4,-2.1 1.45,-0.95 3.75,-1 2.2,-0.2 3.85,0.5 1.65,0.7 1.75,1.8 0.15,1.15 -1.4,2.1 0.35,-0.4 0.3,-1 0,-1.65 -3.4,-1.5 -3.35,0.3 -3.2,1.95 0.15,1.7 3.4,1.4 l 0.6,-0.05"
         fill="url(#gradient4)"
         fill-rule="evenodd"
         stroke="none"
         id="path14-1" />
      <path
         style="fill:url(#gradient5-9)"
         d="m 45.3,19.3 q 1.55,0.8 1.65,2.05 0.15,1.2 -1.3,2.25 -1.5,1 -3.6,1.15 -2.1,0.1 -3.65,-0.7 -1.55,-0.8 -1.65,-2 -0.1,-1.25 1.35,-2.25 1.45,-1.05 3.6,-1.1 2.05,-0.2 3.6,0.6 m -2.45,5.25 q 3.1,-0.35 2.95,-2.15 -0.05,-1.8 -3.2,-1.6 -3.2,0.3 -3.05,2.1 0.15,1.75 3.3,1.65"
         fill="url(#gradient5)"
         fill-rule="evenodd"
         stroke="none"
         id="path16-2" />
      <path
         style="fill:url(#gradient6-3)"
         d="m 42.85,24.55 q -3.15,0.1 -3.3,-1.65 -0.15,-1.8 3.05,-2.1 3.15,-0.2 3.2,1.6 0.15,1.8 -2.95,2.15"
         fill="url(#gradient6)"
         fill-rule="evenodd"
         stroke="none"
         id="path18-9" />
      <path
         style="fill:url(#gradient7-0)"
         d="m 56.35,21.1 -0.6,0.1 q -2.05,0.15 -3.5,-0.5 -1.5,-0.65 -1.65,-1.7 -0.1,-1.1 1.35,-1.95 1.4,-0.85 3.4,-0.95 2,-0.15 3.6,0.5 1.45,0.6 1.55,1.7 0.05,1 -1.25,1.8 0.35,-0.4 0.3,-0.95 -0.15,-1.7 -3.4,-1.4 -3.35,0.15 -3.2,1.9 0.15,1.6 3.4,1.45"
         fill="url(#gradient7)"
         fill-rule="evenodd"
         stroke="none"
         id="path20-3" />
      <path
         style="fill:url(#gradient8-1)"
         d="m 59.25,20.1 q -0.65,0.8 -2.9,1 -3.25,0.15 -3.4,-1.45 -0.15,-1.75 3.2,-1.9 3.25,-0.3 3.4,1.4 0.05,0.55 -0.3,0.95"
         fill="url(#gradient8)"
         fill-rule="evenodd"
         stroke="none"
         id="path22-1" />
      <path
         style="fill:url(#gradient9-2)"
         d="m 53.2,27.2 -1.9,0.35 Q 49.1,27.7 47.55,26.95 46.1,26.2 45.95,25 q -0.1,-1.25 1.4,-2.2 1.4,-1 3.5,-1.15 2.15,-0.15 3.7,0.6 1.55,0.8 1.65,1.95 0.15,1.25 -1.3,2.2 0.45,-0.5 0.4,-1.15 -0.2,-1.9 -3.6,-1.75 -3.5,0.3 -3.35,2.2 0.05,0.75 1.1,1.3 l 2.5,0.4 1.25,-0.2"
         fill="url(#gradient9)"
         fill-rule="evenodd"
         stroke="none"
         id="path24-9" />
      <path
         style="fill:url(#gradient10-3)"
         d="m 54.9,26.4 -1.7,0.8 -1.25,0.2 -2.5,-0.4 q -1.05,-0.55 -1.1,-1.3 -0.15,-1.9 3.35,-2.2 3.4,-0.15 3.6,1.75 0.05,0.65 -0.4,1.15"
         fill="url(#gradient10)"
         fill-rule="evenodd"
         stroke="none"
         id="path26-4" />
      <path
         style="fill:url(#gradient11-7)"
         d="m 57.55,31.7 -0.4,3.1 q -1.55,5.65 -13.7,3.25 -5.9,-1.25 -11.1,-1.1 5.75,-3.2 17.35,-2.3 3.3,0.2 5.45,-2.5 2.7,-3.5 4.15,-4.2 -1.4,1.55 -1.75,3.75"
         fill="url(#gradient11)"
         fill-rule="evenodd"
         stroke="none"
         id="path28-7" />
      <path
         sodipodi:nodetypes="ccccccc"
         d="M 71.75,31.35 C 66.516667,29.55 63.233333,28.5 61.9,28.2 l 10.95,0.65 c 1.04333,0.186181 1.845449,0.19472 2.1,-0.2 0.4,-0.366667 0.683333,-1.166667 0.85,-2.4 2.633333,2.3 3.283333,4.233333 1.95,5.8 -0.7,0.733333 -2.7,0.5 -6,-0.7"
         fill="#ccccff"
         fill-rule="evenodd"
         stroke="none"
         id="path30-8" />
      <path
         transform="translate(15.303636,4.5506434)"
         d="m 12.822266,11.048828 c -0.5,0 -1.109506,0.25 -1.826172,0.75 -0.833333,0.6 -1.3003909,1.183333 -1.4003909,1.75 -2.6,1.833333 -3.8984375,3.782943 -3.8984375,5.84961 V 19.75 C 7.330599,18.183333 9.446875,17.198828 12.046875,16.798828 l 1.548828,-0.199219 -0.298828,-1.451171 v -0.798829 c 1.033333,-0.9 1.265886,-1.750781 0.699219,-2.550781 -0.283334,-0.5 -0.673828,-0.75 -1.173828,-0.75 z m 7.673828,15.25 c -1.6,1.5 -3.665886,2.484505 -6.199219,2.951172 l -4,0.09961 L 10.845703,32 c 0.5,3.433333 0.567839,5.716276 0.201172,6.849609 1.133333,-1.5 2.332943,-3.434114 3.599609,-5.800781 0.766667,-1.433333 2.915886,-2.299609 6.449219,-2.599609 0,-1.5 -0.199609,-2.883724 -0.599609,-4.150391 z"
         style="fill:url(#gradient12-5)"
         id="path32-4" />
      <path
         style="fill:url(#gradient13-92)"
         d="m 28.9,21.15 q 2.95,-0.25 5.45,0.8 3.1,1.3 3.6,3.9 0.35,2.6 -2.05,4.9 l -0.1,0.1 q -2.4,2.25 -6.2,2.95 l -4,0.1 q -1.6,-0.2 -3,-0.8 -3.1,-1.35 -3.55,-3.9 -0.5,-2.6 1.95,-4.9 2.45,-2.35 6.35,-2.95 l 1.55,-0.2 m 4.3,2.25 -5.3,-0.3 -0.75,0.15 -0.3,-0.2 q -1.5,0.45 -3.55,1.65 l 0.25,0.15 -0.75,0.6 q -2,1.7 -1.65,3.75 0.35,1.9 2.8,2.95 2.4,1 5.6,0.45 l 1.8,-0.45 0.2,0.15 Q 34.1,31.5 35,30.25 l -0.15,-0.1 q 1.8,-1.75 1.45,-3.6 l -0.45,-1.3 -0.2,-0.2 Q 35.15,24.4 34.3,23.9 l -1,-0.55 -0.1,0.05"
         fill="url(#gradient13)"
         fill-rule="evenodd"
         stroke="none"
         id="path34-5" />
      <path
         style="fill:#666666;fill-opacity:1"
         sodipodi:nodetypes="cccccccccccccc"
         d="m 36.3,26.55 c 0.233333,1.233333 -0.25,2.433333 -1.45,3.6 -0.874583,1.090625 -2.236761,1.514977 -3.5,2 l -1.8,0.45 c -2.133333,0.366667 -4,0.216667 -5.6,-0.45 -1.633333,-0.7 -2.566667,-1.683333 -2.8,-2.95 -0.233333,-1.366667 0.316667,-2.616667 1.65,-3.75 l 0.75,-0.6 c 1.060444,-0.782121 2.330476,-1.190607 3.6,-1.6 L 27.9,23.1 c 1.817213,-0.374684 3.773867,-0.228057 5.3,0.3 l 1.1,0.5 c 0.566667,0.333333 1.016667,0.716667 1.35,1.15 0.231504,0.43988 0.480057,0.810678 0.65,1.5 z"
         fill="none"
         stroke="#666666"
         stroke-linecap="round"
         stroke-linejoin="round"
         stroke-width="1.1"
         id="path44" />
      <path
         style="fill:url(#gradient14)"
         d="m 33.2,23.4 0.1,-0.05 1,0.55 q 0.85,0.5 1.35,1.15 l 0.2,0.2 -0.7,0.35 -2.8,1.4 0.8,0.75 1.75,1.45 -0.5,0.55 q -1,0.85 -3,1.45 l -2.7,-2.5 -4.2,2.5 -1.8,-1.3 -0.7,-0.85 3.4,-1.75 0.8,-0.35 -2.05,-1.6 -0.6,-0.5 -0.25,-0.15 q 2.05,-1.2 3.55,-1.65 l 0.3,0.2 2.45,2 3.6,-1.85"
         fill="url(#gradient14)"
         fill-rule="evenodd"
         stroke="none"
         id="path36-0" />
      <path
         style="fill:url(#gradient15)"
         d="m 34.85,30.15 0.15,0.1 q -0.9,1.25 -3.45,2.05 l -0.2,-0.15 -2.6,-2.25 -4.2,2.4 q -1.8,-0.95 -2.4,-2.1 l 0.55,-0.3 1.8,1.3 4.2,-2.5 2.7,2.5 q 2,-0.6 3,-1.45 l 0.45,0.4 m -1.7,-2.4 -0.8,-0.75 2.8,-1.4 0.75,0.7 q -1.35,0.7 -2.75,1.45 m -9,-2.4 2.05,1.6 -0.8,0.35 -2,-1.55 0.75,-0.4"
         fill="url(#gradient15)"
         fill-rule="evenodd"
         stroke="none"
         id="path40-6" />
      <path
         style="fill:url(#gradient16)"
         d="m 23.1,48.95 q 2.05,0.6 7.05,-8.95 -2.75,14.65 -6.85,13.2 -5.6,-1.85 -6.45,-13.65 2.4,8.3 6.25,9.4"
         fill="url(#gradient16)"
         fill-rule="evenodd"
         stroke="none"
         id="path42" />
      <path
         sodipodi:nodetypes="cccccccccccccc"
         d="m 30,11.85 0.1,0.1 -0.15,-0.1 C 27.05,10.25 24.4,9.5 22,9.6 c -1,-0.033333 -2.833333,0.3166667 -5.5,1.05 -2.666667,0.666667 -5.116667,1.016667 -7.35,1.05 1.5,-0.133333 3.683333,-0.683333 6.55,-1.65 2.9,-0.9666667 4.866667,-1.4833333 5.9,-1.55 4.1,-0.3 6.9,0.8166667 8.4,3.35 M 3.5,10.3 C 1.5666667,8.0666667 1.4833333,6.1 3.25,4.4 5.0833333,2.6666667 7.8333333,1.6666667 11.5,1.4 7.9333333,1.8666667 5.3666667,3.1 3.8,5.1 2.4333333,6.8 2.3333333,8.5333333 3.5,10.3"
         fill="#ffffff"
         fill-rule="evenodd"
         stroke="none"
         id="path8-7" />
    </g>
    <g
       inkscape:label="Layer 1"
       id="layer1-5"
       transform="matrix(0.56588498,0,0,0.56588498,118.74042,111.18826)">
      <path
         d="M 133.81221,4 A 116.24404,116.24404 0 0 0 17.567709,120.2445 116.24404,116.24404 0 0 0 39.479668,188.17002 116.24404,116.24404 0 0 0 139.97989,246 116.24404,116.24404 0 0 0 256.22439,129.7555 116.24404,116.24404 0 0 0 234.31243,61.829975 116.24404,116.24404 0 0 0 133.81221,4 Z"
         style="fill:#212121;fill-opacity:1;fill-rule:evenodd;stroke:none;stroke-width:63.1773;stroke-linecap:round;stroke-linejoin:round;stroke-miterlimit:4;stroke-dasharray:none;filter:url(#filter963)"
         id="circle942" />
      <g
         transform="matrix(5.4066999,0,0,5.4066999,495.5627,-5.4066999)"
         id="g940">
        <circle
           style="opacity:1;fill:#ffffff;fill-opacity:1;fill-rule:evenodd;stroke:none;stroke-width:11.685;stroke-linecap:round;stroke-linejoin:round;stroke-miterlimit:4;stroke-dasharray:none"
           id="path919"
           cx="-67.310364"
           cy="22.756973"
           r="18.249216" />
        <path
           d="m -66.691769,2.7592809 a 21.5,21.5 0 0 0 -21.5,21.5000001 21.5,21.5 0 0 0 21.5,21.5 21.5,21.5 0 0 0 21.5,-21.5 21.5,21.5 0 0 0 -21.5,-21.5000001 z m 0,5.5 a 16,16 0 0 1 16,16.0000001 16,16 0 0 1 -2.099609,7.921875 L -74.8988,10.524906 a 16,16 0 0 1 8.207031,-2.2656251 z M -79.40466,14.54639 -56.978878,36.972172 a 16,16 0 0 1 -9.712891,3.287109 16,16 0 0 1 -16,-16 16,16 0 0 1 3.287109,-9.712891 z"
           style="opacity:1;fill:#a21907;fill-opacity:1;fill-rule:evenodd;stroke:none;stroke-width:11.685;stroke-linecap:round;stroke-linejoin:round;stroke-miterlimit:4;stroke-dasharray:none"
           id="path917" />
        <path
           id="path889"
           style="opacity:1;fill:#f52e14;fill-opacity:1;fill-rule:evenodd;stroke:none;stroke-width:11.685;stroke-linecap:round;stroke-linejoin:round;stroke-miterlimit:4;stroke-dasharray:none"
           d="m -67.832682,1 a 21.5,21.5 0 0 0 -21.5,21.5 21.5,21.5 0 0 0 21.5,21.5 21.5,21.5 0 0 0 21.5,-21.5 21.5,21.5 0 0 0 -21.5,-21.5 z m 0,5.5 a 16,16 0 0 1 16,16 16,16 0 0 1 -2.099609,7.921875 L -76.039713,8.765625 A 16,16 0 0 1 -67.832682,6.5 Z m -12.712891,6.287109 22.425782,22.425782 A 16,16 0 0 1 -67.832682,38.5 a 16,16 0 0 1 -16,-16 16,16 0 0 1 3.287109,-9.712891 z" />
      </g>
    </g>
  </g>
</svg>
