<?xml version="1.0" encoding="UTF-8" standalone="no"?>
<svg
   inkscape:export-ydpi="12"
   inkscape:export-xdpi="12"
   inkscape:export-filename="computer-laptop.png"
   sodipodi:docname="laptop_32.svg"
   inkscape:version="1.1.2 (0a00cf5339, 2022-02-04)"
   id="svg8"
   version="1.1"
   viewBox="0 0 256 256"
   height="256"
   width="256"
   xmlns:inkscape="http://www.inkscape.org/namespaces/inkscape"
   xmlns:sodipodi="http://sodipodi.sourceforge.net/DTD/sodipodi-0.dtd"
   xmlns="http://www.w3.org/2000/svg"
   xmlns:svg="http://www.w3.org/2000/svg"
   xmlns:rdf="http://www.w3.org/1999/02/22-rdf-syntax-ns#"
   xmlns:cc="http://creativecommons.org/ns#"
   xmlns:dc="http://purl.org/dc/elements/1.1/">
  <defs
     id="defs2">
    <linearGradient
       gradientTransform="matrix(8e-4,0.0078,0.0245,-0.0026,-106.66241,35.512229)"
       gradientUnits="userSpaceOnUse"
       id="gradient24"
       spreadMethod="pad"
       x1="-819.20001"
       x2="819.20001">
      <stop
         offset="0.0"
         stop-color="#7d7dc5"
         id="stop231" />
      <stop
         offset="0.43529411764705883"
         stop-color="#7d7dc5"
         id="stop233" />
      <stop
         offset="1.0"
         stop-color="#ffffff"
         id="stop235" />
    </linearGradient>
    <linearGradient
       gradientTransform="matrix(-6e-4,0.0066,0.0252,0.0022,-105.71241,38.862229)"
       gradientUnits="userSpaceOnUse"
       id="gradient25"
       spreadMethod="pad"
       x1="-819.20001"
       x2="819.20001">
      <stop
         offset="0.0"
         stop-color="#335cae"
         id="stop238" />
      <stop
         offset="0.7098039215686275"
         stop-color="#7d7dc5"
         id="stop240" />
      <stop
         offset="1.0"
         stop-color="#a7a7d3"
         id="stop242" />
    </linearGradient>
    <linearGradient
       gradientTransform="matrix(-0.0148,-0.0138,-0.0125,0.0134,-116.51241,20.262229)"
       gradientUnits="userSpaceOnUse"
       id="gradient26"
       spreadMethod="pad"
       x1="-819.20001"
       x2="819.20001">
      <stop
         offset="0.0"
         stop-color="#5858b5"
         id="stop245" />
      <stop
         offset="0.5647058823529412"
         stop-color="#a7a7d3"
         id="stop247" />
      <stop
         offset="1.0"
         stop-color="#a5adbb"
         id="stop249" />
    </linearGradient>
    <radialGradient
       cx="0"
       cy="0"
       gradientTransform="matrix(0.025,0,0,0.025,-121.11241,14.112229)"
       gradientUnits="userSpaceOnUse"
       id="gradient27"
       r="819.20001"
       spreadMethod="pad">
      <stop
         offset="0.0"
         stop-color="#ccffff"
         id="stop252" />
      <stop
         offset="1.0"
         stop-color="#0099ff"
         id="stop254" />
    </radialGradient>
    <linearGradient
       gradientTransform="matrix(0,0.0022,0.0072,0,-102.61241,38.212229)"
       gradientUnits="userSpaceOnUse"
       id="gradient28"
       spreadMethod="pad"
       x1="-819.20001"
       x2="819.20001">
      <stop
         offset="0.0"
         stop-color="#7d7dc5"
         id="stop257" />
      <stop
         offset="0.24705882352941178"
         stop-color="#7d7dc5"
         id="stop259" />
      <stop
         offset="1.0"
         stop-color="#a7a7d3"
         id="stop261" />
    </linearGradient>
    <filter
       inkscape:collect="always"
       style="color-interpolation-filters:sRGB"
       id="filter1649"
       x="-0.066185306"
       y="-0.086523365"
       width="1.1323706"
       height="1.1730467">
      <feGaussianBlur
         inkscape:collect="always"
         stdDeviation="6.6736796"
         id="feGaussianBlur1651" />
    </filter>
  </defs>
  <sodipodi:namedview
     inkscape:snap-global="false"
     inkscape:bbox-paths="false"
     fit-margin-bottom="0"
     fit-margin-right="0"
     fit-margin-left="0"
     fit-margin-top="0"
     inkscape:bbox-nodes="true"
     inkscape:snap-bbox="true"
     inkscape:window-maximized="1"
     inkscape:window-y="0"
     inkscape:window-x="1920"
     inkscape:window-height="2043"
     inkscape:window-width="3840"
     units="px"
     showgrid="false"
     inkscape:document-rotation="0"
     inkscape:current-layer="layer1"
     inkscape:document-units="px"
     inkscape:cy="84.852814"
     inkscape:cx="97.580736"
     inkscape:zoom="5.6568542"
     inkscape:pageshadow="2"
     inkscape:pageopacity="0.0"
     borderopacity="1.0"
     bordercolor="#666666"
     pagecolor="#ffffff"
     id="base"
     inkscape:pagecheckerboard="0">
    <inkscape:grid
       originy="0"
       originx="0"
       id="grid1504"
       type="xygrid" />
    <inkscape:grid
       originy="0"
       originx="0"
       spacingy="0.5"
       spacingx="0.5"
       id="grid1507"
       type="xygrid" />
  </sodipodi:namedview>
  <metadata
     id="metadata5">
    <rdf:RDF>
      <cc:Work
         rdf:about="">
        <dc:format>image/svg+xml</dc:format>
        <dc:type
           rdf:resource="http://purl.org/dc/dcmitype/StillImage" />
      </cc:Work>
    </rdf:RDF>
  </metadata>
  <g
     transform="translate(-12.567709)"
     id="layer1"
     inkscape:groupmode="layer"
     inkscape:label="Layer 1">
    <path
       id="path9679"
       style="fill:#0d1a33;fill-opacity:1;fill-rule:evenodd;stroke:none;stroke-width:5.22628;filter:url(#filter1649)"
       d="m 94.020226,42.367831 -65.10888,8.945742 0.04051,-0.06173 c -0.326093,0.18879 -0.634383,0.386699 -0.941454,0.586479 -0.775183,0.469327 -1.44156,0.973024 -2.008307,1.506713 -4.443476,3.823999 -6.168805,9.218227 -5.150988,16.197641 l 23.518989,93.028394 c 0.461845,1.82721 2.352269,2.17732 3.920153,1.82888 -3.658396,3.83261 -1.301019,6.36201 3.65778,10.45247 l 56.705251,46.77559 c 7.49794,6.18494 18.55622,6.94643 28.74522,4.70342 l 111.5816,-24.56269 c 7.03731,-1.54919 13.58742,-8.10177 13.58742,-16.2015 -0.002,0.005 -0.004,0.009 -0.006,0.0135 -2.37477,-5.01849 -5.75688,-7.43985 -11.49229,-9.94314 l -71.35374,-31.09499 0.0154,-0.002 -19.76668,-86.827915 c -1.51092,-6.709666 -4.92453,-12.994749 -10.80744,-13.51604 z M 24.771263,69.021785 48.523686,163.7691 h -0.0058 z" />
    <g
       id="g9516"
       transform="matrix(5.2262803,0,0,5.2262803,704.87661,-13.590335)">
      <path
         inkscape:connector-curvature="0"
         style="fill:url(#gradient24);fill-rule:evenodd;stroke:none"
         id="path54"
         d="m -102.65556,28.443345 14.29315,6.218884 c 1.097713,0.479112 1.744991,0.942595 2.199401,1.903363 -0.104861,0.551265 -0.638978,0.991704 -1.427058,1.16179 l -23.021593,4.798616 c -1.69378,0.357166 -3.22662,-0.01777 -4.58166,-1.003253 l -12.56984,-9.600784 m 23.20075,-1.859732 -2.75,0.4 -2.75,0.45 -2.65,0.4 -2.75,0.4 -2.7,0.4 -2.7,0.4 -2.9,0.45 1.65,1.2 1.7,1.25 1.8,1.35 1.95,1.4 3.2,-0.55 3.05,-0.55 2.9,-0.55 2.95,-0.55 2.95,-0.5 2.95,-0.55 2.9,-0.55 2.8,-0.5 -2.55,-1.15 -2.25,-1.05 -2.2,-1 -2.15,-1 -2.45,0.4"
         sodipodi:nodetypes="cccccccccccccccccccccccccccccccc" />
      <path
         inkscape:connector-curvature="0"
         style="fill:url(#gradient25);fill-rule:evenodd;stroke:none"
         id="path56"
         d="m -86.16241,36.562229 c 0,1.549807 -1.253477,2.803576 -2.6,3.1 l -21.35,4.7 c -1.94957,0.42918 -4.06534,0.283431 -5.5,-0.9 l -10.85,-8.95 c -0.94882,-0.78267 -1.4,-1.266667 -0.7,-2 l 0.05,-0.1 12,9.05 c 1.46338,1.064278 2.81353,1.305625 4.5,0.95 l 23,-4.85 c 0.596278,-0.125737 1.189256,-0.311167 1.45,-1 z"
         sodipodi:nodetypes="ccccccccccc" />
      <path
         inkscape:connector-curvature="0"
         style="fill:url(#gradient26);fill-rule:evenodd;stroke:none"
         id="path58"
         d="m -130.87035,10.874171 12.45794,-1.711945 10.55,0.35 c 1.12564,0.099744 1.7787,1.3026 2.0678,2.586432 l 3.7822,16.613571 -25.1,3.7 -4.55,-18.15 c -0.36017,-1.190294 -0.7466,-2.597206 0.79206,-3.388058 z"
         sodipodi:nodetypes="cccccccc" />
      <path
         style="fill:#335cae;fill-rule:evenodd;stroke:none"
         inkscape:connector-curvature="0"
         id="path60"
         d="m -127.16241,32.512229 c -0.3,0.06667 -0.66163,-4.42e-4 -0.75,-0.35 l -4.5,-17.8 c -0.23333,-1.6 0.28333,-2.766668 1.55,-3.500003 l -0.1,0.15 c -0.56667,0.666669 -0.8,1.750003 -0.7,3.250003 l 4.55615,18.178156"
         sodipodi:nodetypes="ccccccc" />
      <path
         inkscape:connector-curvature="0"
         style="fill:url(#gradient27);fill-rule:evenodd;stroke:none"
         id="path62"
         d="m -105.76241,27.212229 -18,2.5 c -1.38534,0.192409 -1.65107,-0.293771 -1.9,-1.3 l -3.55,-14.35 c -0.16667,-0.8 0.26667,-1.2 1.3,-1.2 l 18.05,-1.250003 c 0.69218,-0.04147 0.97271,0.101903 1.25104,0.522682 l 3.40193,14.521011 c -0.0149,0.177604 -0.13225,0.497877 -0.55297,0.55631 z"
         sodipodi:nodetypes="ccccccccc" />
      <path
         id="path64"
         style="fill:#e6e6e6;fill-rule:evenodd;stroke:none"
         d="m -121.85547,11.630859 c 0.1451,0.08393 0.53248,0.368258 0.65791,0.918207 l 3.21709,14.113043 c 0.0333,0.233333 -0.10419,0.40725 -0.15039,0.5 0.21305,-0.09158 0.4716,-0.265958 0.4082,-0.558593 l -3.19922,-14.121094 c -0.0975,-0.427514 -0.41294,-0.769113 -0.93359,-0.851563 z m 7.17578,18.03125 -2.45117,0.400391 -2.75,0.400391 -2.75,0.449218 -2.64844,0.400391 -2.75,0.400391 -2.70117,0.398437 -2.69922,0.400391 -2.90039,0.451172 1.65039,1.199218 1.69922,1.25 1.80078,1.34961 1.94922,1.40039 3.20117,-0.550781 3.04883,-0.548828 2.90039,-0.550781 2.94922,-0.548828 2.95117,-0.5 2.94922,-0.550782 2.90039,-0.550781 2.80078,-0.5 -2.55078,-1.148437 -2.25,-1.050782 -2.19922,-1 z"
         transform="translate(12.567709)"
         sodipodi:nodetypes="cccccccccccccccccccccccccccccccc" />
      <path
         inkscape:connector-curvature="0"
         style="fill:url(#gradient28);fill-rule:evenodd;stroke:none"
         id="path66"
         d="m -105.01241,40.062229 -3.45,-2.25 8.05,-1.45 3.7,2 -8.3,1.7" />
      <path
         style="fill:none;stroke:#7d7dc5;stroke-width:0.57402202;stroke-linecap:round;stroke-linejoin:round;stroke-miterlimit:4;stroke-dasharray:none"
         inkscape:connector-curvature="0"
         id="path96"
         d="m -104.56241,30.062229 -2.75,0.4 1.95,1.05 2.85,-0.45 -2.05,-1 2.45,-0.4 2.15,1 2.2,1 2.25,1.05 2.55,1.15 -2.8,0.5 -2.9,0.55 -2.95,0.55 -2.95,0.5 -2.95,0.55 -2.9,0.55 -3.05,0.55 -3.2,0.55 -1.95,-1.4 -1.8,-1.35 -1.7,-1.25 -1.65,-1.2 2.9,-0.45 2.7,-0.4 2.7,-0.4 2.75,-0.4 2.65,-0.4 2.75,-0.45 m -4.4,3.5 -2.8,0.45 2,1.25 2.85,-0.5 -2.05,-1.2 -1.9,-1.15 -2.7,0.45 1.8,1.15 -2.9,0.45 1.9,1.35 3,-0.55 2.1,1.4 m -1.3,-3.1 2.8,-0.45 -1.9,-1.15 -2.8,0.45 -1.85,-1.1 m 2.75,-0.4 1.9,1.05 2.7,-0.4 -1.95,-1.05 m 6.85,1.65 -2.15,-1.05 -2.75,0.45 2.05,1.1 2.85,-0.5 2.85,-0.45 -2.15,-1.05 2.55,-0.4 m -1.65,4.8 -2.35,-1.3 -2.85,0.5 2.25,1.3 m 0.6,-1.8 -2.1,-1.1 -2.85,0.45 2.1,1.15 -2.85,0.5 2.15,1.35 m 11.75,-2.15 -2.4,-1.2 -2.9,0.5 2.4,1.25 m 0.9,-3.25 -2.6,0.45 2.2,1.05 2.65,-0.45 m -7.7,-0.15 2.15,1.1 -2.9,0.5 m -16.9,-1.65 1.75,1.2 2.8,-0.45 -1.85,-1.15 m -3.95,2.05 3,-0.45 1.7,1.15 -3,0.55 m 6.95,2.2 -2.05,-1.4 -3.1,0.55" />
    </g>
  </g>
</svg>
