<?xml version="1.0" encoding="UTF-8" standalone="no"?>
<svg
   width="256"
   height="256"
   viewBox="0 0 256 256"
   version="1.1"
   id="svg8"
   inkscape:version="1.1.1 (3bf5ae0d25, 2021-09-20)"
   sodipodi:docname="mouse-battery.svg"
   inkscape:export-filename="/media/klapeto/Αρχεία/WindowsXP Theme/Vectors/RASTER/mouse-battery.png"
   inkscape:export-xdpi="96"
   inkscape:export-ydpi="96"
   xmlns:inkscape="http://www.inkscape.org/namespaces/inkscape"
   xmlns:sodipodi="http://sodipodi.sourceforge.net/DTD/sodipodi-0.dtd"
   xmlns:xlink="http://www.w3.org/1999/xlink"
   xmlns="http://www.w3.org/2000/svg"
   xmlns:svg="http://www.w3.org/2000/svg"
   xmlns:rdf="http://www.w3.org/1999/02/22-rdf-syntax-ns#"
   xmlns:cc="http://creativecommons.org/ns#"
   xmlns:dc="http://purl.org/dc/elements/1.1/">
  <defs
     id="defs2">
    <linearGradient
       inkscape:collect="always"
       id="linearGradient155888">
      <stop
         style="stop-color:#c7c7c7;stop-opacity:1"
         offset="0"
         id="stop155884" />
      <stop
         style="stop-color:#fbfbfb;stop-opacity:1"
         offset="1"
         id="stop155886" />
    </linearGradient>
    <linearGradient
       inkscape:collect="always"
       id="linearGradient44216">
      <stop
         style="stop-color:#ffffff;stop-opacity:0"
         offset="0"
         id="stop44212" />
      <stop
         style="stop-color:#ffffff;stop-opacity:1"
         offset="1"
         id="stop44214" />
    </linearGradient>
    <linearGradient
       inkscape:collect="always"
       id="linearGradient29560">
      <stop
         style="stop-color:#e1e1e1;stop-opacity:1"
         offset="0"
         id="stop29556" />
      <stop
         style="stop-color:#f1f1f1;stop-opacity:1"
         offset="0.5"
         id="stop70897" />
      <stop
         style="stop-color:#ebebeb;stop-opacity:1"
         offset="1"
         id="stop29558" />
    </linearGradient>
    <linearGradient
       inkscape:collect="always"
       id="linearGradient11961">
      <stop
         style="stop-color:#ffffff;stop-opacity:1"
         offset="0"
         id="stop11957" />
      <stop
         style="stop-color:#ffffff;stop-opacity:1"
         offset="1"
         id="stop11959" />
    </linearGradient>
    <linearGradient
       inkscape:collect="always"
       xlink:href="#linearGradient11961"
       id="linearGradient11963"
       x1="-103.35112"
       y1="46.020035"
       x2="-103.35112"
       y2="22.819208"
       gradientUnits="userSpaceOnUse" />
    <linearGradient
       inkscape:collect="always"
       xlink:href="#linearGradient29560"
       id="linearGradient29562"
       x1="-101.61787"
       y1="51.99313"
       x2="-88.293831"
       y2="22.435371"
       gradientUnits="userSpaceOnUse" />
    <linearGradient
       inkscape:collect="always"
       xlink:href="#linearGradient44216"
       id="linearGradient44218"
       x1="-99.203766"
       y1="45.007095"
       x2="-87.911499"
       y2="45.007095"
       gradientUnits="userSpaceOnUse" />
    <linearGradient
       inkscape:collect="always"
       xlink:href="#linearGradient155888"
       id="linearGradient155890"
       x1="-116.37477"
       y1="18.002298"
       x2="-97.694679"
       y2="18.002298"
       gradientUnits="userSpaceOnUse" />
    <filter
       inkscape:collect="always"
       style="color-interpolation-filters:sRGB"
       id="filter177976"
       x="-0.049490711"
       y="-0.046596464"
       width="1.0989814"
       height="1.0931929">
      <feGaussianBlur
         inkscape:collect="always"
         stdDeviation="4.6984769"
         id="feGaussianBlur177978" />
    </filter>
    <linearGradient
       inkscape:collect="always"
       id="linearGradient17468">
      <stop
         style="stop-color:#b9b9f3;stop-opacity:1"
         offset="0"
         id="stop17464" />
      <stop
         style="stop-color:#6b6bce;stop-opacity:1"
         offset="1"
         id="stop17466" />
    </linearGradient>
    <linearGradient
       inkscape:collect="always"
       id="linearGradient144595">
      <stop
         style="stop-color:#fbfbfb;stop-opacity:1"
         offset="0"
         id="stop144591" />
      <stop
         style="stop-color:#dcdcdc;stop-opacity:1"
         offset="1"
         id="stop144593" />
    </linearGradient>
    <linearGradient
       inkscape:collect="always"
       id="linearGradient117107">
      <stop
         style="stop-color:#ffde9a;stop-opacity:1"
         offset="0"
         id="stop117103" />
      <stop
         style="stop-color:#ffffff;stop-opacity:1"
         offset="0.25"
         id="stop133283" />
      <stop
         style="stop-color:#fc9c40;stop-opacity:1"
         offset="0.63636345"
         id="stop123827" />
      <stop
         style="stop-color:#e2b5a6;stop-opacity:1"
         offset="1"
         id="stop117105" />
    </linearGradient>
    <linearGradient
       inkscape:collect="always"
       id="linearGradient65530">
      <stop
         style="stop-color:#c0c0f0;stop-opacity:1"
         offset="0"
         id="stop65526" />
      <stop
         style="stop-color:#f9fcff;stop-opacity:1"
         offset="0.18750001"
         id="stop93562" />
      <stop
         style="stop-color:#9ac5fb;stop-opacity:1"
         offset="0.6875"
         id="stop78777" />
      <stop
         style="stop-color:#bfbfff;stop-opacity:1"
         offset="1"
         id="stop65528" />
    </linearGradient>
    <linearGradient
       inkscape:collect="always"
       id="linearGradient22080">
      <stop
         style="stop-color:#ffa640;stop-opacity:1"
         offset="0"
         id="stop22076" />
      <stop
         style="stop-color:#fff9df;stop-opacity:1"
         offset="0.14705871"
         id="stop22247" />
      <stop
         style="stop-color:#f78d2f;stop-opacity:1"
         offset="0.44852936"
         id="stop52343" />
      <stop
         style="stop-color:#991320;stop-opacity:1"
         offset="0.75"
         id="stop22249" />
      <stop
         style="stop-color:#9999ff;stop-opacity:1"
         offset="1"
         id="stop22078" />
    </linearGradient>
    <linearGradient
       inkscape:collect="always"
       id="linearGradient1488">
      <stop
         style="stop-color:#e2e2e2;stop-opacity:1"
         offset="0"
         id="stop1484" />
      <stop
         style="stop-color:#ffffff;stop-opacity:1"
         offset="0.15624994"
         id="stop1617" />
      <stop
         style="stop-color:#9999cc;stop-opacity:1"
         offset="0.81249994"
         id="stop1619" />
      <stop
         style="stop-color:#c9c9fc;stop-opacity:1"
         offset="1"
         id="stop1486" />
    </linearGradient>
    <linearGradient
       inkscape:collect="always"
       xlink:href="#linearGradient1488"
       id="linearGradient1490"
       x1="-110.43229"
       y1="19.5"
       x2="-94.432289"
       y2="19.5"
       gradientUnits="userSpaceOnUse"
       gradientTransform="translate(11.500462,-0.25581438)" />
    <linearGradient
       inkscape:collect="always"
       xlink:href="#linearGradient22080"
       id="linearGradient22082"
       x1="-111.43229"
       y1="12.5"
       x2="-94.432289"
       y2="12.5"
       gradientUnits="userSpaceOnUse"
       gradientTransform="translate(12.000463,-0.01162894)" />
    <linearGradient
       inkscape:collect="always"
       xlink:href="#linearGradient65530"
       id="linearGradient65532"
       x1="-110.93229"
       y1="6.5"
       x2="-94.932289"
       y2="6.5"
       gradientUnits="userSpaceOnUse"
       gradientTransform="translate(12.000457,0.49418562)" />
    <linearGradient
       inkscape:collect="always"
       xlink:href="#linearGradient117107"
       id="linearGradient117109"
       x1="-100.43229"
       y1="3.5"
       x2="-89.432289"
       y2="3.5"
       gradientUnits="userSpaceOnUse"
       gradientTransform="translate(4.000464,2.0322261)" />
    <linearGradient
       inkscape:collect="always"
       xlink:href="#linearGradient144595"
       id="linearGradient144597"
       x1="-97.932289"
       y1="1.5"
       x2="-93.97493"
       y2="1.5"
       gradientUnits="userSpaceOnUse"
       gradientTransform="translate(3.540133,2.4992293)" />
    <linearGradient
       inkscape:collect="always"
       xlink:href="#linearGradient17468"
       id="linearGradient17470"
       x1="-94.932289"
       y1="6"
       x2="-83.572739"
       y2="5.9997034"
       gradientUnits="userSpaceOnUse" />
    <filter
       inkscape:collect="always"
       style="color-interpolation-filters:sRGB"
       id="filter1348"
       x="-0.064151987"
       y="-0.038345493"
       width="1.128304"
       height="1.076691">
      <feGaussianBlur
         inkscape:collect="always"
         stdDeviation="3.8665041"
         id="feGaussianBlur1350" />
    </filter>
  </defs>
  <sodipodi:namedview
     inkscape:snap-object-midpoints="false"
     inkscape:snap-bbox-midpoints="false"
     showguides="false"
     id="base"
     pagecolor="#ffffff"
     bordercolor="#666666"
     borderopacity="1.0"
     inkscape:pageopacity="0.0"
     inkscape:pageshadow="2"
     inkscape:zoom="2.8284271"
     inkscape:cx="-74.599766"
     inkscape:cy="65.053824"
     inkscape:document-units="px"
     inkscape:current-layer="layer1"
     inkscape:document-rotation="0"
     showgrid="false"
     units="px"
     inkscape:window-width="3840"
     inkscape:window-height="2027"
     inkscape:window-x="3840"
     inkscape:window-y="0"
     inkscape:window-maximized="1"
     inkscape:snap-bbox="true"
     inkscape:bbox-nodes="true"
     fit-margin-top="0"
     fit-margin-left="0"
     fit-margin-right="0"
     fit-margin-bottom="0"
     inkscape:bbox-paths="false"
     inkscape:snap-global="false"
     inkscape:pagecheckerboard="0">
    <inkscape:grid
       type="xygrid"
       id="grid1504"
       originx="0"
       originy="0" />
    <inkscape:grid
       type="xygrid"
       id="grid1507"
       spacingx="0.5"
       spacingy="0.5"
       originx="0"
       originy="0" />
  </sodipodi:namedview>
  <metadata
     id="metadata5">
    <rdf:RDF>
      <cc:Work
         rdf:about="">
        <dc:format>image/svg+xml</dc:format>
        <dc:type
           rdf:resource="http://purl.org/dc/dcmitype/StillImage" />
      </cc:Work>
    </rdf:RDF>
  </metadata>
  <g
     inkscape:label="Layer 1"
     inkscape:groupmode="layer"
     id="layer1"
     transform="translate(-12.567709)">
    <g
       id="layer1-5"
       inkscape:label="Layer 1"
       transform="matrix(0.60315663,0,0,0.60315663,131.75373,2.8542767)">
      <path
         id="path1188"
         style="color:#000000;fill:#212121;fill-opacity:1;stroke-linecap:round;stroke-linejoin:round;-inkscape-stroke:none;filter:url(#filter1348)"
         d="m 164.33155,4.0000157 -35.79101,0.074219 a 7.6139114,7.6139114 0 0 0 -3.94532,1.1113282 l -15.85351,9.6582031 -2.73242,1.650391 C 97.53696,18.642081 90.188238,21.38835 84.456553,25.125016 78.386375,29.082357 73.24171,34.788519 73.241709,42.347672 V 66.109391 86.8965 99.447282 215.5469 c 0,6.5029 3.706543,12.13606 8.394531,15.91796 4.687988,3.78191 10.519078,6.39248 17.16211,8.47657 13.28606,4.16817 29.9945,6.05859 46.76953,6.05859 16.77503,0 33.48151,-1.89042 46.76758,-6.05859 6.64303,-2.08409 12.47412,-4.69466 17.16211,-8.47657 4.68799,-3.7819 8.39453,-9.41507 8.39453,-15.91796 V 99.447282 69.783219 66.109391 42.347672 c 0,-7.73561 -5.35127,-13.498686 -11.64063,-17.488281 -5.91615,-3.752856 -13.51184,-6.500072 -22.24804,-8.625 L 182.92335,15.533219 168.77491,5.4199376 a 7.6139114,7.6139114 0 0 0 -4.44336,-1.4199219 z" />
      <g
         id="g35610"
         transform="matrix(7.6131489,0,0,7.6131489,832.84878,-14.899513)">
        <path
           id="path186741"
           style="opacity:1;fill:none;fill-opacity:1;stroke:#a4a4a4;stroke-width:2;stroke-linecap:round;stroke-linejoin:round;stroke-miterlimit:4;stroke-dasharray:none;stroke-opacity:1"
           d="m -88.465491,2.9570762 -4.70118,0.00977 -2.08398,1.2695313 -0.45899,0.2773437 c -2.24608,0.53992 -3.72265,1.448991 -3.72265,2.4804644 v 3.1210944 2.730468 1.648438 15.25 c 0,4 17,4 17,0 v -15.25 -3.896484 -0.482422 -3.1210944 c 0,-1.0548894 -1.54639,-1.9807533 -3.87891,-2.515625 l -0.27734,-0.1796875 z" />
        <path
           style="fill:url(#linearGradient1490);fill-opacity:1;stroke:none;stroke-width:1px;stroke-linecap:butt;stroke-linejoin:miter;stroke-opacity:1"
           d="m -99.43183,10.114426 v 19.62976 c 0,4 17,4 17,0 v -19.62976 z"
           id="path1056"
           sodipodi:nodetypes="ccccc" />
        <path
           id="path65011"
           style="fill:url(#linearGradient65532);fill-rule:evenodd;stroke-linecap:round;stroke-linejoin:round;stop-color:#000000"
           d="m -82.43183,6.9941856 v 3.6038164 l -17,2.248104 V 6.9941856 c 0,-1.656854 3.80558,-2.9999996 8.5,-3 4.69442,4e-7 8.5,1.343146 8.5,3 z"
           sodipodi:nodetypes="ccccsc" />
        <path
           style="opacity:1;fill:url(#linearGradient17470);fill-opacity:1;stroke:none;stroke-width:1px;stroke-linecap:butt;stroke-linejoin:miter;stroke-opacity:1"
           d="m -95.498003,6.6439178 c 3.167067,2.9012202 11.368247,0.7271734 12.793195,-0.4068142 -0.887747,-1.1527623 -2.940965,-1.6114423 -3.606393,-1.758543 z"
           id="path16668"
           sodipodi:nodetypes="cccc" />
        <path
           style="fill:url(#linearGradient22082);fill-opacity:1;stroke:none;stroke-width:1px;stroke-linecap:butt;stroke-linejoin:miter;stroke-opacity:1"
           d="m -99.43183,7 c 3,2.9999996 14,2.9999996 17,0 v 8 c -2.5,3 -14.5,3 -17,0 z"
           id="path21553"
           sodipodi:nodetypes="ccccc" />
        <path
           style="fill:url(#linearGradient117109);fill-opacity:1;stroke:none;stroke-width:1px;stroke-linecap:butt;stroke-linejoin:miter;stroke-opacity:1"
           d="m -97.32249,5.4832345 3.14066,-1.8885084 h 6.5 l 3.04532,1.9618507 c -1.5,2.5 -11.18598,2.4266577 -12.68598,-0.073342 z"
           id="path116409"
           sodipodi:nodetypes="ccccc" />
        <path
           style="fill:url(#linearGradient144597);fill-opacity:1;stroke:none;stroke-width:1px;stroke-linecap:butt;stroke-linejoin:miter;stroke-opacity:1"
           d="m -95.2505,4.2373297 c 1.5,1 7.16182,1.0616218 8.66182,0.061622 l -1.87647,-1.3428329 -4.70096,0.010405 z"
           id="path144021"
           sodipodi:nodetypes="ccccc" />
      </g>
    </g>
    <path
       id="path177769"
       style="color:#000000;fill:#212121;fill-opacity:1;stroke-width:5.17592px;-inkscape-stroke:none;filter:url(#filter177976)"
       d="m 57.834989,4.0003626 c -6.17544,0.037314 -12.675737,2.9371976 -17.987912,7.4823194 -6.07106,5.194424 -10.664917,12.758397 -10.63267,21.354481 0.04097,10.911719 5.56024,17.811749 11.911017,21.375345 6.350779,3.563596 13.296293,4.193571 17.525128,3.789524 9.154273,-0.874646 17.448288,-8.798782 25.616274,-16.000214 8.167985,-7.201431 16.193064,-13.541148 21.752774,-13.46438 4.18764,0.05781 6.88237,1.902148 9.27846,4.844066 1.87361,2.300412 3.39633,5.270937 4.7701,8.256156 -4.40878,1.195041 -8.97041,2.731626 -13.41128,4.737854 -12.748956,5.759534 -24.617223,15.453163 -27.179117,30.824499 -5.275568,31.653407 -2.741331,83.226357 5.249952,109.863957 9.274057,30.91358 40.342315,61.42098 90.605285,58.77557 25.58616,-1.34665 46.06969,-13.33359 60.07098,-28.93922 14.0013,-15.60564 21.65795,-34.7906 21.65795,-51.13962 0,-12.4733 -5.73501,-32.00153 -16.26765,-53.27335 -10.53265,-21.271828 -25.91947,-44.123261 -45.52929,-62.392488 -10.88312,-10.1391 -25.27415,-12.396455 -37.03795,-12.567261 -2.09951,-0.03048 -4.07343,0.01391 -5.97069,0.08346 C 150.12979,33.274965 145.26911,26.446243 138.05986,20.102999 130.25411,13.234918 119.70569,7.1440167 107.3833,7.217099 94.044929,7.2962 84.035244,15.85002 76.058086,23.941836 c -3.988578,4.045909 -7.526202,8.032837 -10.672499,10.924755 -3.146296,2.891918 -5.848961,4.479509 -7.728885,4.567154 -4.247796,0.198041 -6.465402,-0.9147 -7.831304,-2.363236 -1.365902,-1.448536 -1.97624,-3.527601 -2.006665,-5.627386 -0.03074,-2.122574 0.938419,-5.522816 3.015688,-7.935622 2.07727,-2.412806 5.020943,-4.070275 9.910042,-3.463299 3.669328,0.455545 6.767132,0.148768 9.217763,-0.809874 2.45063,-0.958641 4.507475,-2.769508 4.794753,-5.34668 C 75.044257,11.310472 73.377656,8.9954446 70.944695,7.444695 68.511733,5.8939454 65.099681,4.7813431 60.456171,4.1634753 59.591579,4.048432 58.717194,3.995032 57.834989,4.0003626 Z"
       transform="matrix(0.8136207,0,0,0.8136207,-6.4152013,47.950986)" />
    <g
       id="g154816"
       transform="matrix(4.2112329,0,0,4.2112329,508.50245,-5.8491533)">
      <path
         style="opacity:1;fill:url(#linearGradient155890);fill-opacity:1;stroke:#999999;stroke-width:1px;stroke-linecap:butt;stroke-linejoin:miter;stroke-opacity:1"
         d="m -99.367414,20.325046 c -0.644036,-1.451961 -1.448976,-3.282328 -3.380906,-3.309001 -2.80205,-0.03869 -6.23594,5.410936 -9.20623,5.694733 -1.41111,0.134825 -5.12499,-0.46704 -5.13963,-4.366083 -0.0111,-2.95885 3.19975,-5.344256 5.47021,-5.042147 3.3945,0.451674 2.76326,2.39654 0.18301,2.076203 -2.1857,-0.271352 -3.07451,1.607774 -3.05861,2.705912 0.0144,0.993805 0.57484,2.122344 2.42371,2.036146 2.311,-0.107744 4.86136,-6.195788 9.58704,-6.223813 4.426009,-0.02625 7.721827,4.408252 8.304724,5.772526"
         id="path7101"
         sodipodi:nodetypes="cssssssssc" />
      <g
         id="g154806">
        <path
           style="fill:url(#linearGradient29562);fill-opacity:1;stroke:#999999;stroke-width:1px;stroke-linecap:butt;stroke-linejoin:miter;stroke-opacity:1"
           d="m -107.38995,27 c 0.91902,-5.51411 8.500001,-7 11.45398,-7.113438 2.060035,-0.07911 6.935455,-0.771754 10.082505,2.160153 C -78.389949,29 -74.073299,39.528 -74.073299,44.028 c 0,6 -5.712251,14.466505 -15.31665,14.972 -9.5,0.5 -15.269941,-5.233122 -17.000001,-11 -1.5,-5 -2,-15 -1,-21 z"
           id="path962"
           sodipodi:nodetypes="sssssss" />
        <path
           style="opacity:1;fill:url(#linearGradient11963);fill-opacity:1;stroke:none;stroke-width:1px;stroke-linecap:butt;stroke-linejoin:miter;stroke-opacity:1"
           d="m -90.538234,28.177155 c 2.03106,-3.176405 -0.09966,-6.85884 -2.891236,-7.069767 -2.892057,-0.218519 -12.96671,-0.509771 -13.38968,6.396137 -0.34036,5.557042 0.12755,12.158708 2.33678,18.46648 0.67008,1.913214 1.24561,2.194429 1.69625,-0.330328 0.93643,-5.246373 8.272991,-11.246123 12.247886,-17.462522 z"
           id="path4531"
           sodipodi:nodetypes="ssssss" />
        <path
           style="fill:none;stroke:#999999;stroke-width:1px;stroke-linecap:butt;stroke-linejoin:miter;stroke-opacity:1"
           d="m -107.88995,34 c 4,-4 8.875232,-6.020736 14.000001,-7 3.483185,-0.665583 11,0.5 13,1"
           id="path2536"
           sodipodi:nodetypes="csc" />
        <path
           style="fill:none;stroke:#999999;stroke-width:1px;stroke-linecap:butt;stroke-linejoin:miter;stroke-opacity:1"
           d="m -96.889949,20 c 2,3 3.202301,5.523819 3.5,7"
           id="path3236"
           sodipodi:nodetypes="cc" />
        <path
           style="fill:#6666cc;fill-opacity:1;stroke:#66666c;stroke-width:1px;stroke-linecap:butt;stroke-linejoin:miter;stroke-opacity:1"
           d="m -93.25014,28.962171 c 3.87666,-0.811799 0.681063,-6.914894 -2.195229,-6.104886 -1.747658,0.492167 -0.964593,6.766573 2.195229,6.104886 z"
           id="path3328"
           sodipodi:nodetypes="sss" />
        <path
           style="opacity:1;fill:url(#linearGradient44218);fill-opacity:1;stroke:none;stroke-width:1px;stroke-linecap:butt;stroke-linejoin:miter;stroke-opacity:1"
           d="m -94.928548,50.2034 c -5.518922,0.223786 -7.585162,3.151526 -1.291144,5.407368 7.256683,2.600871 16.787522,-1.901238 18.394379,-6.013573 1.37998,-3.5317 1.620533,-8.847921 -0.852891,-14.267905 -1.146078,-2.511387 -1.529345,-1.166211 -1.616177,2.489905 -0.209067,8.802934 -6.715693,12.063119 -14.634167,12.384205 z"
           id="path5963"
           sodipodi:nodetypes="ssssss" />
      </g>
    </g>
  </g>
</svg>
