<?xml version="1.0" encoding="UTF-8" standalone="no"?>
<svg
   inkscape:export-ydpi="96"
   inkscape:export-xdpi="96"
   inkscape:export-filename="/media/klapeto/Αρχεία/WindowsXP Theme/Vectors/RASTER/My-computer3.png"
   sodipodi:docname="My-computer.svg"
   inkscape:version="1.1.1 (3bf5ae0d25, 2021-09-20)"
   id="svg8"
   version="1.1"
   viewBox="0 0 256 256"
   height="256"
   width="256"
   xmlns:inkscape="http://www.inkscape.org/namespaces/inkscape"
   xmlns:sodipodi="http://sodipodi.sourceforge.net/DTD/sodipodi-0.dtd"
   xmlns="http://www.w3.org/2000/svg"
   xmlns:svg="http://www.w3.org/2000/svg"
   xmlns:rdf="http://www.w3.org/1999/02/22-rdf-syntax-ns#"
   xmlns:cc="http://creativecommons.org/ns#"
   xmlns:dc="http://purl.org/dc/elements/1.1/">
  <defs
     id="defs2">
    <linearGradient
       gradientTransform="matrix(-0.12007879,0,0,0.11729702,164.66235,107.48049)"
       gradientUnits="userSpaceOnUse"
       id="gradient0-3"
       spreadMethod="pad"
       x1="-819.20001"
       x2="819.20001">
      <stop
         offset="0.0"
         stop-color="#666699"
         id="stop44-6" />
      <stop
         offset="1.0"
         stop-color="#9999cc"
         id="stop46-7" />
    </linearGradient>
    <linearGradient
       gradientTransform="matrix(-0.11636977,0,0,0.11219714,163.03967,107.71231)"
       gradientUnits="userSpaceOnUse"
       id="gradient1-5"
       spreadMethod="pad"
       x1="-819.20001"
       x2="819.20001">
      <stop
         offset="0.0"
         stop-color="#9999cc"
         id="stop49-3" />
      <stop
         offset="1.0"
         stop-color="#eeeeee"
         id="stop51-5" />
    </linearGradient>
    <linearGradient
       gradientTransform="matrix(0,0.09828842,0.03430823,0,231.65612,119.76655)"
       gradientUnits="userSpaceOnUse"
       id="gradient2-6"
       spreadMethod="pad"
       x1="-819.20001"
       x2="819.20001">
      <stop
         offset="0.0"
         stop-color="#6666cc"
         id="stop54-2" />
      <stop
         offset="1.0"
         stop-color="#aaaaaa"
         id="stop56-9" />
    </linearGradient>
    <linearGradient
       gradientTransform="matrix(0,0.02596299,0.11590617,0,164.19873,35.618674)"
       gradientUnits="userSpaceOnUse"
       id="gradient3-1"
       spreadMethod="pad"
       x1="-819.20001"
       x2="819.20001">
      <stop
         offset="0.0"
         stop-color="#9999cc"
         id="stop59-2" />
      <stop
         offset="1.0"
         stop-color="#ffffff"
         id="stop61-7" />
    </linearGradient>
    <linearGradient
       gradientTransform="matrix(-0.06676196,-0.00695439,-0.00231812,0.02271762,154.46261,147.35222)"
       gradientUnits="userSpaceOnUse"
       id="gradient4-0"
       spreadMethod="pad"
       x1="-819.20001"
       x2="819.20001">
      <stop
         offset="0.0"
         stop-color="#9999cc"
         id="stop64-9" />
      <stop
         offset="1.0"
         stop-color="#9999cc"
         id="stop66-3" />
    </linearGradient>
    <linearGradient
       gradientTransform="matrix(0,0.05378043,0.09457945,0,92.336908,206.46436)"
       gradientUnits="userSpaceOnUse"
       id="gradient5-6"
       spreadMethod="pad"
       x1="-819.20001"
       x2="819.20001">
      <stop
         offset="0.0"
         stop-color="#9999cc"
         id="stop69-0" />
      <stop
         offset="1.0"
         stop-color="#666699"
         id="stop71-6" />
    </linearGradient>
    <radialGradient
       cx="0"
       cy="0"
       gradientTransform="matrix(0.14418727,0,0,0.14418727,50.147063,194.87374)"
       gradientUnits="userSpaceOnUse"
       id="gradient6-2"
       r="819.20001"
       spreadMethod="pad">
      <stop
         offset="0.0"
         stop-color="#ffffff"
         id="stop74-6" />
      <stop
         offset="0.2823529411764706"
         stop-color="#dddddd"
         id="stop76-1" />
      <stop
         offset="1.0"
         stop-color="#9999cc"
         id="stop78-8" />
    </radialGradient>
    <linearGradient
       gradientTransform="matrix(-0.02735384,-0.02642659,-0.03245372,0.03338098,115.98176,194.87374)"
       gradientUnits="userSpaceOnUse"
       id="gradient7-7"
       spreadMethod="pad"
       x1="-819.20001"
       x2="819.20001">
      <stop
         offset="0.0"
         stop-color="#666699"
         id="stop81-9" />
      <stop
         offset="1.0"
         stop-color="#9999cc"
         id="stop83-2" />
    </linearGradient>
    <linearGradient
       gradientTransform="matrix(-0.01251787,0.05007147,0.0375536,0.0092725,112.73639,186.06488)"
       gradientUnits="userSpaceOnUse"
       id="gradient8-0"
       spreadMethod="pad"
       x1="-819.20001"
       x2="819.20001">
      <stop
         offset="0.0"
         stop-color="#333399"
         id="stop86-2" />
      <stop
         offset="0.27450980392156865"
         stop-color="#6666cc"
         id="stop88-3" />
      <stop
         offset="1.0"
         stop-color="#999999"
         id="stop90-7" />
    </linearGradient>
    <linearGradient
       gradientTransform="matrix(-0.08206159,-0.07927982,-0.08855232,0.09133403,101.84121,98.903439)"
       gradientUnits="userSpaceOnUse"
       id="gradient9-5"
       spreadMethod="pad"
       x1="-819.20001"
       x2="819.20001">
      <stop
         offset="0.0"
         stop-color="#6666cc"
         id="stop93-9" />
      <stop
         offset="1.0"
         stop-color="#999999"
         id="stop95-2" />
    </linearGradient>
    <radialGradient
       cx="0"
       cy="0"
       gradientTransform="matrix(0.18730434,0,0,0.18730434,100.68215,25.882556)"
       gradientUnits="userSpaceOnUse"
       id="gradient10-2"
       r="819.20001"
       spreadMethod="pad">
      <stop
         offset="0.0"
         stop-color="#ccffff"
         id="stop98-8" />
      <stop
         offset="0.09411764705882353"
         stop-color="#ccffff"
         id="stop100-9" />
      <stop
         offset="1.0"
         stop-color="#0099ff"
         id="stop102-7" />
    </radialGradient>
    <linearGradient
       gradientTransform="matrix(-0.0560986,-0.05424409,-0.0843797,0.08762507,112.27277,103.7715)"
       gradientUnits="userSpaceOnUse"
       id="gradient11-3"
       spreadMethod="pad"
       x1="-819.20001"
       x2="819.20001">
      <stop
         offset="0.0"
         stop-color="#9999cc"
         id="stop105-6" />
      <stop
         offset="1.0"
         stop-color="#ffffff"
         id="stop107-1" />
    </linearGradient>
    <linearGradient
       gradientTransform="matrix(-0.0653711,0.03477183,0.00417262,0.00834524,112.04096,151.52484)"
       gradientUnits="userSpaceOnUse"
       id="gradient12-2"
       spreadMethod="pad"
       x1="-819.20001"
       x2="819.20001">
      <stop
         offset="0.0"
         stop-color="#6666cc"
         id="stop110-9" />
      <stop
         offset="0.0784313725490196"
         stop-color="#9999cc"
         id="stop112-3" />
      <stop
         offset="1.0"
         stop-color="#ffffff"
         id="stop114-1" />
    </linearGradient>
    <linearGradient
       gradientTransform="matrix(-0.0097361,0.0278175,0.02364488,0.00788164,101.37759,197.65549)"
       gradientUnits="userSpaceOnUse"
       id="gradient13-9"
       spreadMethod="pad"
       x1="-819.20001"
       x2="819.20001">
      <stop
         offset="0.0"
         stop-color="#9999cc"
         id="stop117-4" />
      <stop
         offset="1.0"
         stop-color="#eeeeee"
         id="stop119-7" />
    </linearGradient>
    <filter
       height="1.053987"
       y="-0.026993516"
       width="1.054013"
       x="-0.02700649"
       id="filter1175"
       style="color-interpolation-filters:sRGB"
       inkscape:collect="always">
      <feGaussianBlur
         id="feGaussianBlur1177"
         stdDeviation="2.6668908"
         inkscape:collect="always" />
    </filter>
  </defs>
  <sodipodi:namedview
     inkscape:snap-global="true"
     inkscape:bbox-paths="false"
     fit-margin-bottom="0"
     fit-margin-right="0"
     fit-margin-left="0"
     fit-margin-top="0"
     inkscape:bbox-nodes="true"
     inkscape:snap-bbox="true"
     inkscape:window-maximized="1"
     inkscape:window-y="0"
     inkscape:window-x="3840"
     inkscape:window-height="2045"
     inkscape:window-width="3840"
     units="px"
     showgrid="false"
     inkscape:document-rotation="0"
     inkscape:current-layer="layer1"
     inkscape:document-units="px"
     inkscape:cy="269.42413"
     inkscape:cx="-1119.3931"
     inkscape:zoom="0.62355217"
     inkscape:pageshadow="2"
     inkscape:pageopacity="0.0"
     borderopacity="1.0"
     bordercolor="#666666"
     pagecolor="#ffffff"
     id="base"
     inkscape:pagecheckerboard="0">
    <inkscape:grid
       originy="0"
       originx="0"
       id="grid1504"
       type="xygrid" />
    <inkscape:grid
       originy="0"
       originx="0"
       spacingy="0.5"
       spacingx="0.5"
       id="grid1507"
       type="xygrid" />
  </sodipodi:namedview>
  <metadata
     id="metadata5">
    <rdf:RDF>
      <cc:Work
         rdf:about="">
        <dc:format>image/svg+xml</dc:format>
        <dc:type
           rdf:resource="http://purl.org/dc/dcmitype/StillImage" />
      </cc:Work>
    </rdf:RDF>
  </metadata>
  <g
     transform="translate(-12.567709)"
     id="layer1"
     inkscape:groupmode="layer"
     inkscape:label="Layer 1">
    <g
       transform="matrix(1.0339555,0,0,1.0339555,-0.04779066,-3.1426838)"
       id="g1173">
      <path
         d="m 149.58286,7.155598 c -0.49371,0.0525 -1.01818,0.1606 -1.56671,0.32516 L 24.92536,29.198019 c -7.1677,1.4628 -9.7337,5.34705 -7.68578,11.63707 1.25235,3.47876 10.95032,48.56691 27.95457,129.613831 -1.59495,0.78537 -3.16623,1.59338 -4.69029,2.47325 -14.33541,8.04538 -21.51035,17.84696 -21.51035,29.40305 0,11.55608 7.17494,21.42817 21.51035,29.61982 14.18912,8.19166 31.44763,12.28741 51.7805,12.28741 20.18659,0 37.4451,-4.09575 51.7805,-12.28741 14.18912,-8.19165 21.28371,-18.06374 21.28371,-29.61982 0,-11.55609 -7.09459,-21.35767 -21.28371,-29.40305 -0.72187,-0.41248 -1.48034,-0.77099 -2.21705,-1.16272 l 59.2692,28.15165 c 17.55356,-9.80073 35.03342,-19.53182 52.4407,-29.18627 V 41.712059 l -96.53541,-17.74628 -1.10359,-9.68606 c -0.76798,-5.119781 -2.88,-7.492111 -6.33585,-7.124121 z"
         style="mix-blend-mode:normal;fill:#212121;fill-opacity:1;stroke-width:4.38838;filter:url(#filter1175)"
         id="path983" />
      <g
         id="g1103"
         transform="matrix(0.94654961,0,0,0.94654961,2.6618221,3.1183038)">
        <path
           style="fill:url(#gradient0-3);stroke-width:4.63624"
           id="path2"
           stroke="none"
           fill-rule="evenodd"
           fill="url(#gradient0)"
           d="m 87.468847,146.65678 120.078783,57.02583 q 27.81748,-15.53142 55.40315,-30.83104 V 36.545924 L 125.48607,11.278379 66.373924,24.25987 87.468847,146.65678" />
        <path
           sodipodi:nodetypes="ccccccc"
           style="fill:url(#gradient1-5);stroke-width:4.63624"
           id="path4"
           stroke="none"
           fill-rule="evenodd"
           fill="url(#gradient1)"
           d="M 90.250596,145.26591 208.01126,199.97362 257.38728,170.99707 258.31453,40.254921 124.79064,15.682814 67.996613,25.650744 90.250596,145.26591" />
        <path
           style="fill:url(#gradient2-6);stroke-width:4.63624"
           id="path6"
           stroke="none"
           fill-rule="evenodd"
           fill="url(#gradient2)"
           d="m 208.01126,199.97362 51.69415,-28.74473 V 39.095859 l -56.3304,15.067802 4.63625,145.809959" />
        <path
           style="fill:url(#gradient3-1);stroke-width:4.63624"
           id="path8"
           stroke="none"
           fill-rule="evenodd"
           fill="url(#gradient3)"
           d="M 124.79064,14.29194 69.387485,25.650744 203.37501,56.945406 259.24178,39.095859 124.79064,14.29194" />
        <path
           style="fill:url(#gradient4-0);stroke-width:4.63624"
           id="path10"
           stroke="none"
           fill-rule="evenodd"
           fill="url(#gradient4)"
           d="m 206.8522,162.88364 -105.01099,-39.63991 0.69544,7.18619 104.54736,41.03078 -0.2318,-8.57706" />
        <path
           id="path12"
           stroke="none"
           fill-rule="evenodd"
           fill="#99ff66"
           d="m 247.65117,163.34727 q -0.69544,3.94081 2.08631,4.86806 3.01356,0.92725 4.17262,-3.24537 1.39087,-4.17263 -2.08631,-5.09988 -2.78175,-0.92725 -4.17262,3.47719"
           style="stroke-width:4.63624" />
        <path
           id="path14"
           stroke="none"
           fill-rule="evenodd"
           fill="#666699"
           d="m 211.25663,78.967578 1.62269,69.080082 41.26259,-19.00862 V 63.204339 l -42.88528,15.763239 m 36.85816,-6.722556 -0.2318,52.621398 -28.97654,13.44512 -1.8545,-54.939529 31.06285,-11.126989"
           style="stroke-width:4.63624" />
        <path
           id="path16"
           stroke="none"
           fill-rule="evenodd"
           fill="#9999cc"
           d="m 216.82013,82.908389 0.92725,58.416701 32.45372,-14.83598 V 70.390522 l -33.38097,12.517867"
           style="stroke-width:4.63624" />
        <path
           id="path18"
           stroke="none"
           fill-rule="evenodd"
           fill="#666699"
           d="m 219.37006,110.49406 v 5.79531 l 28.74473,-12.28606 v -5.099871 l -28.74473,11.590621"
           style="stroke-width:4.63624" />
        <path
           id="path20"
           stroke="none"
           fill-rule="evenodd"
           fill="#666699"
           d="m 222.15181,96.353506 v 5.099874 l 21.79036,-9.040685 V 87.77645 l -21.79036,8.577056"
           style="stroke-width:4.63624" />
        <path
           sodipodi:nodetypes="cccc"
           id="path22"
           stroke="none"
           fill-rule="evenodd"
           fill="#666699"
           d="m 207.08401,171.4607 53.08501,-27.35386 v -7.41799 l -53.31681,26.19479"
           style="stroke-width:4.63624" />
        <path
           style="fill:url(#gradient5-6);stroke-width:4.63624"
           id="path24"
           stroke="none"
           fill-rule="evenodd"
           fill="url(#gradient5)"
           d="m 15.143402,206.23255 q 0,18.31317 22.717606,31.29466 22.4858,12.98149 54.707711,12.98149 31.990101,0 54.707711,-12.98149 22.48579,-12.98149 22.48579,-31.29466 0,-18.31318 -22.48579,-31.06286 -22.71761,-12.98148 -54.707711,-12.98148 -32.221911,0 -54.707711,12.98148 -22.717606,12.74968 -22.717606,31.06286" />
        <path
           style="fill:url(#gradient6-2);stroke-width:4.63624"
           id="path26"
           stroke="none"
           fill-rule="evenodd"
           fill="url(#gradient6)"
           d="m 20.243274,205.53711 q 0,16.9223 20.863106,28.74473 21.094922,12.05424 50.766905,12.05424 29.671975,0 50.766895,-12.05424 21.09493,-11.82243 21.09493,-28.74473 0,-16.69049 -21.09493,-28.74473 -21.09492,-11.82242 -50.766895,-11.82242 -29.671983,0 -50.766905,11.82242 -20.863106,12.05424 -20.863106,28.74473" />
        <path
           sodipodi:nodetypes="ccccccc"
           style="fill:url(#gradient7-7);stroke-width:4.63624"
           id="path28"
           stroke="none"
           fill-rule="evenodd"
           fill="url(#gradient7)"
           d="m 136.14944,145.49772 -54.939527,18.08136 c 5.099872,10.0452 9.195226,20.01313 12.286056,29.90379 l 8.113431,32.91735 11.35881,6.95437 c 14.68144,-4.4817 24.34029,-9.19522 28.97654,-14.14055 0.10697,-2.03263 0.0658,-3.96441 0,-6.49075" />
        <path
           sodipodi:nodetypes="cccccc"
           style="fill:url(#gradient8-0);stroke-width:4.63624"
           id="path30"
           stroke="none"
           fill-rule="evenodd"
           fill="url(#gradient8)"
           d="m 137.3085,145.72953 -48.680592,19.00861 c 9.736116,17.92682 16.458682,37.32179 20.167682,58.1849 l 4.17262,3.70899 c 13.90874,-4.94533 23.87666,-9.27249 28.97654,-13.90874 0,-25.19027 -1.54542,-47.52152 -4.63625,-66.99376" />
        <path
           style="fill:url(#gradient13-9);stroke-width:4.63624"
           id="path40"
           stroke="none"
           fill-rule="evenodd"
           fill="url(#gradient13)"
           d="m 99.986713,195.10556 6.258937,27.35385 6.72256,4.17262 q -2.08631,-25.03573 -10.19975,-52.6214 -6.25893,-3.01356 -12.749675,-5.7953 7.649806,18.08136 9.967928,26.89023" />
        <path
           style="fill:url(#gradient9-5);stroke-width:4.63624"
           id="path32"
           stroke="none"
           fill-rule="evenodd"
           fill="url(#gradient9)"
           d="M 52.465186,184.90582 168.83497,134.83435 q 5.09988,-2.31812 4.40444,-9.04068 L 159.7943,7.5693821 Q 158.40342,-1.703111 151.44905,0.38319998 L 21.402336,23.33262 q -11.358806,2.318124 -8.113434,12.286054 2.086311,5.795309 31.758289,147.432646 2.086311,3.70899 7.417995,1.8545" />
        <path
           style="fill:url(#gradient10-2);stroke-width:4.63624"
           id="path34"
           stroke="none"
           fill-rule="evenodd"
           fill="url(#gradient10)"
           d="M 55.246935,172.15614 165.82142,127.87998 151.91267,21.24631 33.920202,45.818416 55.246935,172.15614" />
        <path
           style="fill:url(#gradient11-3);stroke-width:4.63624"
           id="path36"
           stroke="none"
           fill-rule="evenodd"
           fill="url(#gradient11)"
           d="M 50.610686,179.11051 24.415897,37.009548 q 1.390872,-4.636247 3.245372,-5.331684 L 150.75361,8.960256 q 3.709,-5.5634958 -2.54993,-4.1726218 L 23.025019,27.968867 q -4.172622,1.390874 -4.636245,7.649807 L 47.365313,181.42863 q 0.231801,1.8545 2.318128,1.15906 1.854495,-0.4636 0.927245,-3.47718" />
        <path
           style="fill:url(#gradient12-2);stroke-width:4.63624"
           id="path38"
           stroke="none"
           fill-rule="evenodd"
           fill="url(#gradient12)"
           d="m 55.246935,172.15614 q 0,3.01355 3.013561,1.85449 L 169.2986,128.57542 165.82142,127.64817 55.246935,172.15614" />
      </g>
    </g>
  </g>
</svg>
