<?xml version="1.0" encoding="UTF-8" standalone="no"?>
<svg
   width="256"
   height="256"
   viewBox="0 0 256 256"
   version="1.1"
   id="svg8"
   inkscape:version="1.1.2 (0a00cf5339, 2022-02-04)"
   sodipodi:docname="parallel_16.svg"
   inkscape:export-filename="device_serial.png"
   inkscape:export-xdpi="6"
   inkscape:export-ydpi="6"
   xmlns:inkscape="http://www.inkscape.org/namespaces/inkscape"
   xmlns:sodipodi="http://sodipodi.sourceforge.net/DTD/sodipodi-0.dtd"
   xmlns:xlink="http://www.w3.org/1999/xlink"
   xmlns="http://www.w3.org/2000/svg"
   xmlns:svg="http://www.w3.org/2000/svg"
   xmlns:rdf="http://www.w3.org/1999/02/22-rdf-syntax-ns#"
   xmlns:cc="http://creativecommons.org/ns#"
   xmlns:dc="http://purl.org/dc/elements/1.1/">
  <defs
     id="defs2">
    <linearGradient
       inkscape:collect="always"
       id="linearGradient169255">
      <stop
         style="stop-color:#5b5b5b;stop-opacity:1"
         offset="0"
         id="stop169251" />
      <stop
         style="stop-color:#868686;stop-opacity:1"
         offset="1"
         id="stop169253" />
    </linearGradient>
    <linearGradient
       inkscape:collect="always"
       id="linearGradient157573">
      <stop
         style="stop-color:#646464;stop-opacity:1"
         offset="0"
         id="stop157569" />
      <stop
         style="stop-color:#868686;stop-opacity:1"
         offset="1"
         id="stop157571" />
    </linearGradient>
    <linearGradient
       inkscape:collect="always"
       id="linearGradient138919">
      <stop
         style="stop-color:#d9d9d9;stop-opacity:1"
         offset="0"
         id="stop138915" />
      <stop
         style="stop-color:#383838;stop-opacity:1"
         offset="1"
         id="stop138917" />
    </linearGradient>
    <linearGradient
       inkscape:collect="always"
       id="linearGradient56172">
      <stop
         style="stop-color:#e6c873;stop-opacity:1"
         offset="0"
         id="stop56168" />
      <stop
         style="stop-color:#ffedca;stop-opacity:1"
         offset="0.1501673"
         id="stop71951" />
      <stop
         style="stop-color:#d09d08;stop-opacity:1"
         offset="0.69422364"
         id="stop72083" />
      <stop
         style="stop-color:#e9c74b;stop-opacity:1"
         offset="1"
         id="stop56170" />
    </linearGradient>
    <linearGradient
       inkscape:collect="always"
       id="linearGradient36155">
      <stop
         style="stop-color:#6a1b06;stop-opacity:1"
         offset="0"
         id="stop36151" />
      <stop
         style="stop-color:#9c6500;stop-opacity:1"
         offset="1"
         id="stop36153" />
    </linearGradient>
    <linearGradient
       inkscape:collect="always"
       id="linearGradient18619">
      <stop
         style="stop-color:#6663ac;stop-opacity:1"
         offset="0"
         id="stop18615" />
      <stop
         style="stop-color:#9191d5;stop-opacity:1"
         offset="1"
         id="stop18617" />
    </linearGradient>
    <linearGradient
       inkscape:collect="always"
       id="linearGradient2249">
      <stop
         style="stop-color:#a6a6d2;stop-opacity:1"
         offset="0"
         id="stop2245" />
      <stop
         style="stop-color:#fbfbfd;stop-opacity:1"
         offset="1"
         id="stop2247" />
    </linearGradient>
    <linearGradient
       inkscape:collect="always"
       xlink:href="#linearGradient2249"
       id="linearGradient2251"
       x1="-77.432289"
       y1="148"
       x2="-77.432289"
       y2="141"
       gradientUnits="userSpaceOnUse"
       gradientTransform="translate(11.15417,6.5402349)" />
    <linearGradient
       inkscape:collect="always"
       xlink:href="#linearGradient18619"
       id="linearGradient18621"
       x1="-65.992935"
       y1="144.95326"
       x2="-65.324547"
       y2="142.97304"
       gradientUnits="userSpaceOnUse"
       gradientTransform="translate(2.2957457,8.8854748)" />
    <linearGradient
       inkscape:collect="always"
       xlink:href="#linearGradient36155"
       id="linearGradient36157"
       x1="-69.326209"
       y1="155.25657"
       x2="-54.244883"
       y2="155.25657"
       gradientUnits="userSpaceOnUse"
       gradientTransform="translate(0,-0.07624129)" />
    <linearGradient
       inkscape:collect="always"
       xlink:href="#linearGradient56172"
       id="linearGradient56174"
       x1="-69.193604"
       y1="154.01402"
       x2="-53.790755"
       y2="154.01403"
       gradientUnits="userSpaceOnUse" />
    <linearGradient
       inkscape:collect="always"
       xlink:href="#linearGradient138919"
       id="linearGradient138921"
       x1="-97.243393"
       y1="132.96442"
       x2="-79.326159"
       y2="132.96441"
       gradientUnits="userSpaceOnUse" />
    <linearGradient
       inkscape:collect="always"
       xlink:href="#linearGradient157573"
       id="linearGradient157575"
       x1="-112.4594"
       y1="132.25"
       x2="-102.43229"
       y2="132.25"
       gradientUnits="userSpaceOnUse"
       gradientTransform="translate(17.356332,-5.7004426)" />
    <linearGradient
       inkscape:collect="always"
       xlink:href="#linearGradient169255"
       id="linearGradient165468"
       x1="-82.932289"
       y1="132"
       x2="-97.539635"
       y2="132"
       gradientUnits="userSpaceOnUse"
       gradientTransform="translate(0,-0.25094635)" />
    <filter
       inkscape:collect="always"
       style="color-interpolation-filters:sRGB"
       id="filter2212"
       x="-0.13492878"
       y="-0.16144331"
       width="1.2698576"
       height="1.3228866">
      <feGaussianBlur
         inkscape:collect="always"
         stdDeviation="13.492893"
         id="feGaussianBlur2214" />
    </filter>
  </defs>
  <sodipodi:namedview
     inkscape:guide-bbox="true"
     id="base"
     pagecolor="#ffffff"
     bordercolor="#666666"
     borderopacity="1.0"
     inkscape:pageopacity="0.0"
     inkscape:pageshadow="2"
     inkscape:zoom="2.1799572"
     inkscape:cx="-179.82004"
     inkscape:cy="284.86798"
     inkscape:document-units="px"
     inkscape:current-layer="layer1"
     inkscape:document-rotation="0"
     showgrid="false"
     units="px"
     inkscape:window-width="3840"
     inkscape:window-height="2043"
     inkscape:window-x="1920"
     inkscape:window-y="0"
     inkscape:window-maximized="1"
     inkscape:snap-bbox="true"
     inkscape:bbox-nodes="true"
     fit-margin-top="0"
     fit-margin-left="0"
     fit-margin-right="0"
     fit-margin-bottom="0"
     inkscape:bbox-paths="false"
     inkscape:snap-global="true"
     showguides="false"
     inkscape:pagecheckerboard="0"
     inkscape:snap-grids="true"
     inkscape:object-paths="true"
     inkscape:snap-smooth-nodes="false">
    <inkscape:grid
       type="xygrid"
       id="grid1504"
       originx="0"
       originy="0" />
    <inkscape:grid
       type="xygrid"
       id="grid1507"
       spacingx="0.5"
       spacingy="0.5"
       originx="0"
       originy="0" />
  </sodipodi:namedview>
  <metadata
     id="metadata5">
    <rdf:RDF>
      <cc:Work
         rdf:about="">
        <dc:format>image/svg+xml</dc:format>
        <dc:type
           rdf:resource="http://purl.org/dc/dcmitype/StillImage" />
      </cc:Work>
    </rdf:RDF>
  </metadata>
  <g
     inkscape:label="Layer 1"
     inkscape:groupmode="layer"
     id="layer1"
     transform="translate(-12.567709)">
    <path
       id="path2050"
       style="fill:#0d1a33;fill-opacity:1;stroke:none;stroke-width:8.98602px;stroke-linecap:butt;stroke-linejoin:miter;stroke-opacity:1;filter:url(#filter2212)"
       d="m 82.36849,37.553 c -40.437093,0 -53.792981,17.950074 -53.800781,35.408204 -1.09e-4,0.242477 0.03311,0.49626 0.04297,0.742187 0.150635,25.288355 6.751491,32.681539 31.222656,40.216799 23.968638,7.38049 47.491315,3.57445 81.253905,-1.98242 11.02707,-1.8149 18.58829,4.06331 24.16016,11.20117 1.06462,4.94692 1.17594,10.38915 0.88672,15.96485 l -37.33985,-9.6504 c -3.50368,-0.90546 -7.17205,-1.25145 -10.80469,-1.14648 a 6.8916889,6.8916889 0 0 0 -0.004,0 c -7.982,0.2307 -16.33931,1.60026 -21.113282,9.18359 h 0.002 L 86.126303,154.553 h -1.078125 c -3.594644,-3.94096 -8.46302,-6.20989 -13.228516,-5.87304 -6.037446,0.42676 -11.089627,4.17946 -14.056641,9.31836 a 6.8916889,6.8916889 0 0 0 -0.746093,1.89062 l -3.083985,13.31836 a 6.8909998,6.8909998 0 0 0 0.222657,3.78906 6.8916889,6.8916889 0 0 0 -0.345703,1.24805 l -2.148438,12.44336 a 6.8909998,6.8909998 0 0 0 5.617188,7.96484 6.8909998,6.8909998 0 0 0 7.96289,-5.61914 l 1.859375,-10.76758 c 0.933582,-1.19617 1.987526,-1.82473 2.560547,-1.86523 0.681465,-0.0482 1.380591,-0.24584 2.943359,2.46094 a 6.8916889,6.8916889 0 0 0 5.966797,3.44531 h 3.775391 c 0.328675,0.55437 0.708319,1.09273 1.068359,1.63281 -1.333367,3.17202 -1.548821,6.85029 -0.179687,10.25196 1.938062,4.81519 6.652828,8.36288 12.623047,9.85547 a 6.8916889,6.8916889 0 0 0 0.02344,0.006 l 110.675775,27.23829 -0.21093,-0.0547 c 10.01495,2.80415 19.64493,-0.0644 23.625,-8.03125 l -0.73633,0.34765 a 6.8916889,6.8916889 0 0 0 1.4707,-2.82226 c 0.004,-0.002 0.006,-0.004 0.01,-0.006 l -0.36524,1.64844 c 0.20694,-0.50014 0.23363,-1.10456 0.37305,-1.65235 0.0374,-0.0201 0.0702,-0.0423 0.10742,-0.0625 h 9.49024 a 6.8916889,6.8916889 0 0 0 5.96679,-3.44531 c 1.56277,-2.70678 2.2619,-2.51106 2.94336,-2.46289 0.49338,0.0349 1.34279,0.56766 2.16992,1.42773 v 11.06836 a 6.8909998,6.8909998 0 0 0 6.89063,6.89063 6.8909998,6.8909998 0 0 0 6.89062,-6.89063 v -13.47851 a 6.8916889,6.8916889 0 0 0 -0.0625,-0.93164 6.8909998,6.8909998 0 0 0 0.002,0 6.8909998,6.8909998 0 0 0 3.44531,-5.96875 v -13.47852 a 6.8916889,6.8916889 0 0 0 -0.92383,-3.44531 c -2.96696,-5.13898 -8.01917,-8.89162 -14.05664,-9.31836 -3.58267,-0.25323 -7.22191,0.96814 -10.33594,3.26367 l -1.77148,-12.98242 v -0.002 c -1.3317,-10.94531 -9.46191,-18.77357 -18.63086,-21.14258 l -33.94141,-8.77149 c 0.40785,-25.78382 -8.47504,-61.740234 -59.30664,-61.740234 -14.67955,0 -31.150762,7.780783 -50.287104,5.142578 -9.828977,-1.354977 -16.526184,-2.936658 -21.15457,-4.765575 -4.59195,-23.432069 29.701825,-20.712973 49.681644,-15.359375 12.28978,3.293032 28.88815,1.435788 32.29492,-5.644531 0.50742,-0.681793 0.70783,-1.471928 0.60937,-2.345703 0.009,-0.138097 0.0273,-0.272962 0.0273,-0.414063 l -0.0918,-0.0098 C 140.04724,56.971333 136.22073,53.268262 128.68685,49.511985 121.89504,46.125693 97.861468,37.553 82.36849,37.553 Z m -9.318359,124.85547 c 0.611728,-0.0327 1.318164,0.11403 2.685547,2.48242 a 6.8916889,6.8916889 0 0 0 3.388672,2.88086 c -0.051,0.28677 -0.125221,0.57998 -0.16211,0.86133 -0.05178,0.39491 -0.06244,0.78098 -0.09375,1.17188 -2.812531,-2.02931 -6.040818,-3.19036 -9.263672,-3.18555 l 0.509766,-2.19531 c 0.958817,-1.30907 2.081017,-1.95392 2.677734,-1.9961 0.08519,-0.006 0.170423,-0.0148 0.257813,-0.0195 z m 179.306639,35.94532 c 0.0874,0.005 0.17263,0.0135 0.25782,0.0195 0.49338,0.0349 1.34279,0.5657 2.16992,1.42578 v 6.21875 c -1.44426,-0.54648 -2.97613,-0.9003 -4.58008,-1.01367 -1.83237,-0.12952 -3.6784,0.12888 -5.46289,0.71679 0.13108,-0.5265 0.23573,-1.0628 0.32226,-1.61914 a 6.8916889,6.8916889 0 0 0 4.60743,-3.26758 c 1.36742,-2.36842 2.07383,-2.51356 2.68554,-2.48046 z" />
    <g
       inkscape:label="Layer 1"
       id="layer1-1"
       transform="matrix(1.6271551,0,0,1.6271551,-164.95003,-63.714358)">
      <g
         id="g177568"
         transform="matrix(5.5225348,0,0,5.5225348,786.64567,-589.98486)">
        <g
           id="g175380"
           transform="translate(-25.233989,-7.1501312)">
          <path
             style="opacity:1;fill:url(#linearGradient157575);fill-opacity:1;stroke:none;stroke-width:1px;stroke-linecap:butt;stroke-linejoin:miter;stroke-opacity:1"
             d="m -84.967337,125.95415 c 0,1.03799 -2.133541,1.34541 -3.664691,0.93514 -2.29606,-0.61523 -6.290996,-0.91777 -5.464823,1.97423 l -1.172888,-0.12741 -0.306219,-3.93657 z"
             id="path136886"
             sodipodi:nodetypes="cscccc" />
          <path
             style="opacity:1;fill:url(#linearGradient165468);fill-opacity:1;stroke:none;stroke-width:1px;stroke-linecap:butt;stroke-linejoin:miter;stroke-opacity:1"
             d="m -97.450722,127.39757 c 0,2.89517 0.720802,3.72378 3.476127,4.57221 2.667325,0.82133 5.285069,0.39766 9.042304,-0.22073 1.865901,-0.3071 2.843501,1.36291 3.5,2.5 l -0.5,-3.5 -6,-1.5 4.019915,-0.33244 -6.5,1 -2.97785,-0.46578 z"
             id="path137850"
             sodipodi:nodetypes="cssccccccc" />
          <path
             style="opacity:1;fill:url(#linearGradient138921);fill-opacity:1;stroke:none;stroke-width:1px;stroke-linecap:butt;stroke-linejoin:miter;stroke-opacity:1"
             d="m -82.241136,135.93294 c 0.276024,-2.61542 0.39964,-5.40791 -4.023958,-5.40791 -1.99571,0 -2.820819,0.65665 -5.876216,0.3009 -4.141554,-0.48221 -5.313246,-2.16329 -5.312686,-3.41429 8.7e-4,-1.94281 1.487062,-3.94032 5.987062,-3.94032 1.72412,0 4.39868,0.95387 5.1545,1.33071 2.63171,1.31213 1.214072,2.57046 -2.58063,1.10515 -2.236995,-0.86381 -6.390722,-0.90437 -6.390722,1.09563 0,1 0.191514,1.67312 3.477063,2.12608 2.129568,0.29359 3.962506,-0.5723 5.596105,-0.5723 6.366848,0 6.823127,5.07291 6.543525,7.89051 z"
             id="path135256"
             sodipodi:nodetypes="cssssssssscc" />
        </g>
        <g
           id="g176994"
           transform="translate(0.145931,0.036093)">
          <path
             style="fill:none;stroke:#333333;stroke-width:1.53372;stroke-linecap:round;stroke-linejoin:round;stroke-miterlimit:4;stroke-dasharray:none;stroke-opacity:1"
             d="m -115.26912,132.07217 h -2 c -0.56561,-0.97966 -1.55645,-0.76826 -2,0 l -0.23914,1.38489"
             id="path106228-6"
             sodipodi:nodetypes="cccc" />
          <path
             style="fill:none;stroke:#333333;stroke-width:1.53372;stroke-linecap:round;stroke-linejoin:round;stroke-miterlimit:4;stroke-dasharray:none;stroke-opacity:1"
             d="m -114.92075,130.07217 h -2 c -0.5656,-0.97966 -1.55644,-0.76825 -2,0 l -0.34328,1.48212"
             id="path106228"
             sodipodi:nodetypes="cccc" />
          <path
             style="fill:none;stroke:#333333;stroke-width:1.53372;stroke-linecap:round;stroke-linejoin:round;stroke-miterlimit:4;stroke-dasharray:none;stroke-opacity:1"
             d="m -101.26912,136.33997 h 2.000001 c 0.565609,-0.97966 1.556448,-0.76826 2,0 v 1.5"
             id="path106228-6-7"
             sodipodi:nodetypes="cccc" />
          <path
             style="fill:none;stroke:#333333;stroke-width:1.53372;stroke-linecap:round;stroke-linejoin:round;stroke-miterlimit:4;stroke-dasharray:none;stroke-opacity:1"
             d="m -100.89262,134.07217 h 1.999997 c 0.565609,-0.97966 1.556448,-0.76826 2,0 v 1.5"
             id="path106228-5"
             sodipodi:nodetypes="cccc" />
          <path
             id="path135020"
             style="fill:none;fill-opacity:1;stroke:#333333;stroke-width:1.53372;stroke-linecap:round;stroke-linejoin:round;stroke-miterlimit:4;stroke-dasharray:none;stroke-opacity:1"
             d="m -112.86092,127.15101 c -0.74388,0.0215 -1.46366,0.25266 -1.72265,0.66406 l -1.61524,2.56445 0.01,0.002 c -0.63884,0.53958 -0.0828,2.3124 0.28711,2.40429 l 0.12891,0.0312 -0.13672,0.30274 c -0.35248,0.40329 -0.24206,1.14651 0.75,1.39453 l 12.31641,3.03125 c 0.83576,0.23401 1.52862,-0.0823 1.73632,-0.49805 l 0.0176,0.004 0.002,-0.0469 c 0.0502,-0.12133 0.0599,-0.24853 0.0195,-0.37304 l 0.008,-0.15821 0.1211,0.0293 c 0.45372,0.11271 1.76235,-1.56779 1.390623,-2.24805 l -0.353515,-2.59179 c -0.105928,-0.87118 -0.789048,-1.51843 -1.503908,-1.70313 l -10.4668,-2.70508 c -0.30724,-0.0794 -0.65015,-0.11328 -0.98828,-0.10351 z" />
        </g>
        <g
           id="g106999"
           transform="translate(-46.668527,-19.861787)">
          <path
             style="opacity:1;fill:url(#linearGradient2251);fill-opacity:1;stroke:none;stroke-width:1px;stroke-linecap:butt;stroke-linejoin:miter;stroke-opacity:1"
             d="m -69.401066,150.27385 1.614746,-2.56493 c 0.37672,-0.5984 1.727746,-0.81454 2.710915,-0.56052 l 10.466381,2.70415 c 0.71486,0.1847 1.398249,0.8327 1.50418,1.70388 l 0.384335,2.82451 z"
             id="path897"
             sodipodi:nodetypes="csssscc" />
          <path
             style="opacity:1;fill:url(#linearGradient18621);fill-opacity:1;stroke:none;stroke-width:1px;stroke-linecap:butt;stroke-linejoin:miter;stroke-opacity:1"
             d="m -69.104464,152.6788 c -0.46927,-0.11657 -1.240304,-2.93868 0.511875,-2.51595 l 15.483395,3.73555 c 1.210998,0.29216 -0.500766,2.62945 -1.033233,2.49718 z"
             id="path17604"
             sodipodi:nodetypes="sssss" />
          <path
             style="opacity:1;fill:url(#linearGradient56174);fill-opacity:1;stroke:none;stroke-width:1px;stroke-linecap:butt;stroke-linejoin:miter;stroke-opacity:1"
             d="m -69.263471,153.27549 0.725301,-1.52873 c 0.105505,-0.22237 0.408874,-0.54406 1.02143,-0.39595 l 12.648924,3.05825 c 0.399798,0.0967 0.683387,0.43598 0.659904,0.89309 l -0.04311,1.46256 z"
             id="path16995"
             sodipodi:nodetypes="csssscc" />
          <path
             style="opacity:1;fill:url(#linearGradient36157);fill-opacity:1;stroke:none;stroke-width:1px;stroke-linecap:butt;stroke-linejoin:miter;stroke-opacity:1"
             d="m -68.263094,152.77333 13.291192,3.19266 c 1.5,0.5 0.448865,1.90027 -1.073715,1.47395 l -12.31686,-3.03213 c -1.5,-0.375 -0.990019,-1.88588 0.09938,-1.63448 z"
             id="path14937"
             sodipodi:nodetypes="cccccc" />
        </g>
      </g>
    </g>
  </g>
</svg>
