<?xml version="1.0" encoding="UTF-8" standalone="no"?>
<svg
   width="256"
   height="256"
   viewBox="0 0 256 256"
   version="1.1"
   id="svg8"
   inkscape:version="1.1.1 (3bf5ae0d25, 2021-09-20)"
   sodipodi:docname="peripherials.svg"
   inkscape:export-filename="/media/klapeto/Αρχεία/WindowsXP Theme/Vectors/RASTER/peripherials.png"
   inkscape:export-xdpi="96"
   inkscape:export-ydpi="96"
   xmlns:inkscape="http://www.inkscape.org/namespaces/inkscape"
   xmlns:sodipodi="http://sodipodi.sourceforge.net/DTD/sodipodi-0.dtd"
   xmlns:xlink="http://www.w3.org/1999/xlink"
   xmlns="http://www.w3.org/2000/svg"
   xmlns:svg="http://www.w3.org/2000/svg"
   xmlns:rdf="http://www.w3.org/1999/02/22-rdf-syntax-ns#"
   xmlns:cc="http://creativecommons.org/ns#"
   xmlns:dc="http://purl.org/dc/elements/1.1/">
  <defs
     id="defs2">
    <linearGradient
       id="linearGradient1207"
       inkscape:collect="always">
      <stop
         id="stop1203"
         offset="0"
         style="stop-color:#ffffff;stop-opacity:1" />
      <stop
         id="stop1205"
         offset="1"
         style="stop-color:#d9d9de;stop-opacity:1" />
    </linearGradient>
    <linearGradient
       id="linearGradient1177"
       inkscape:collect="always">
      <stop
         id="stop1173"
         offset="0"
         style="stop-color:#c3c3ff;stop-opacity:1" />
      <stop
         style="stop-color:#ffffff;stop-opacity:1"
         offset="0.26047391"
         id="stop1183" />
      <stop
         id="stop1201"
         offset="0.58633208"
         style="stop-color:#ffffff;stop-opacity:1" />
      <stop
         id="stop1199"
         offset="0.81264251"
         style="stop-color:#c3c3ff;stop-opacity:1" />
      <stop
         id="stop1175"
         offset="1"
         style="stop-color:#ffffff;stop-opacity:1" />
    </linearGradient>
    <linearGradient
       id="linearGradient1166"
       inkscape:collect="always">
      <stop
         id="stop1162"
         offset="0"
         style="stop-color:#9f9fff;stop-opacity:1" />
      <stop
         style="stop-color:#e9e9ff;stop-opacity:1"
         offset="0.40000001"
         id="stop1170" />
      <stop
         id="stop1217"
         offset="0.69999999"
         style="stop-color:#9c9cff;stop-opacity:1" />
      <stop
         id="stop1164"
         offset="1"
         style="stop-color:#9c9cff;stop-opacity:1" />
    </linearGradient>
    <linearGradient
       gradientUnits="userSpaceOnUse"
       y2="137.2175"
       x2="261.06771"
       y1="137.2175"
       x1="17.526937"
       id="linearGradient1168"
       xlink:href="#linearGradient1166"
       inkscape:collect="always" />
    <linearGradient
       gradientUnits="userSpaceOnUse"
       y2="136.33926"
       x2="244"
       y1="136.33926"
       x1="7.4740229"
       id="linearGradient1179"
       xlink:href="#linearGradient1177"
       inkscape:collect="always" />
    <linearGradient
       gradientTransform="translate(12.567709)"
       gradientUnits="userSpaceOnUse"
       y2="130.78223"
       x2="229.57584"
       y1="130.91856"
       x1="94.995605"
       id="linearGradient1209"
       xlink:href="#linearGradient1207"
       inkscape:collect="always" />
    <linearGradient
       gradientUnits="userSpaceOnUse"
       y2="130.78223"
       x2="242.14354"
       y1="130.91856"
       x1="107.56332"
       id="linearGradient1228"
       xlink:href="#linearGradient1207"
       inkscape:collect="always" />
    <filter
       height="1.138094"
       y="-0.069047008"
       width="1.0735733"
       x="-0.036786642"
       id="filter2665"
       style="color-interpolation-filters:sRGB"
       inkscape:collect="always">
      <feGaussianBlur
         id="feGaussianBlur2667"
         stdDeviation="3.7706309"
         inkscape:collect="always" />
    </filter>
    <linearGradient
       inkscape:collect="always"
       id="linearGradient155888">
      <stop
         style="stop-color:#c7c7c7;stop-opacity:1"
         offset="0"
         id="stop155884" />
      <stop
         style="stop-color:#fbfbfb;stop-opacity:1"
         offset="1"
         id="stop155886" />
    </linearGradient>
    <linearGradient
       inkscape:collect="always"
       id="linearGradient44216">
      <stop
         style="stop-color:#ffffff;stop-opacity:0"
         offset="0"
         id="stop44212" />
      <stop
         style="stop-color:#ffffff;stop-opacity:1"
         offset="1"
         id="stop44214" />
    </linearGradient>
    <linearGradient
       inkscape:collect="always"
       id="linearGradient29560">
      <stop
         style="stop-color:#e1e1e1;stop-opacity:1"
         offset="0"
         id="stop29556" />
      <stop
         style="stop-color:#f1f1f1;stop-opacity:1"
         offset="0.5"
         id="stop70897" />
      <stop
         style="stop-color:#ebebeb;stop-opacity:1"
         offset="1"
         id="stop29558" />
    </linearGradient>
    <linearGradient
       inkscape:collect="always"
       id="linearGradient11961">
      <stop
         style="stop-color:#ffffff;stop-opacity:1"
         offset="0"
         id="stop11957" />
      <stop
         style="stop-color:#ffffff;stop-opacity:1"
         offset="1"
         id="stop11959" />
    </linearGradient>
    <linearGradient
       inkscape:collect="always"
       xlink:href="#linearGradient11961"
       id="linearGradient11963"
       x1="-103.35112"
       y1="46.020035"
       x2="-103.35112"
       y2="22.819208"
       gradientUnits="userSpaceOnUse" />
    <linearGradient
       inkscape:collect="always"
       xlink:href="#linearGradient29560"
       id="linearGradient29562"
       x1="-101.61787"
       y1="51.99313"
       x2="-88.293831"
       y2="22.435371"
       gradientUnits="userSpaceOnUse" />
    <linearGradient
       inkscape:collect="always"
       xlink:href="#linearGradient44216"
       id="linearGradient44218"
       x1="-99.203766"
       y1="45.007095"
       x2="-87.911499"
       y2="45.007095"
       gradientUnits="userSpaceOnUse" />
    <linearGradient
       inkscape:collect="always"
       xlink:href="#linearGradient155888"
       id="linearGradient155890"
       x1="-116.37477"
       y1="18.002298"
       x2="-97.694679"
       y2="18.002298"
       gradientUnits="userSpaceOnUse" />
    <filter
       inkscape:collect="always"
       style="color-interpolation-filters:sRGB"
       id="filter177976"
       x="-0.049490711"
       y="-0.046596464"
       width="1.0989814"
       height="1.0931929">
      <feGaussianBlur
         inkscape:collect="always"
         stdDeviation="4.6984769"
         id="feGaussianBlur177978" />
    </filter>
  </defs>
  <sodipodi:namedview
     inkscape:snap-object-midpoints="false"
     inkscape:snap-bbox-midpoints="false"
     showguides="false"
     id="base"
     pagecolor="#ffffff"
     bordercolor="#666666"
     borderopacity="1.0"
     inkscape:pageopacity="0.0"
     inkscape:pageshadow="2"
     inkscape:zoom="0.5"
     inkscape:cx="-1566"
     inkscape:cy="-606"
     inkscape:document-units="px"
     inkscape:current-layer="layer1"
     inkscape:document-rotation="0"
     showgrid="false"
     units="px"
     inkscape:window-width="3840"
     inkscape:window-height="2045"
     inkscape:window-x="3840"
     inkscape:window-y="0"
     inkscape:window-maximized="1"
     inkscape:snap-bbox="true"
     inkscape:bbox-nodes="true"
     fit-margin-top="0"
     fit-margin-left="0"
     fit-margin-right="0"
     fit-margin-bottom="0"
     inkscape:bbox-paths="false"
     inkscape:snap-global="true"
     inkscape:pagecheckerboard="0">
    <inkscape:grid
       type="xygrid"
       id="grid1504"
       originx="0"
       originy="0" />
    <inkscape:grid
       type="xygrid"
       id="grid1507"
       spacingx="0.5"
       spacingy="0.5"
       originx="0"
       originy="0" />
  </sodipodi:namedview>
  <metadata
     id="metadata5">
    <rdf:RDF>
      <cc:Work
         rdf:about="">
        <dc:format>image/svg+xml</dc:format>
        <dc:type
           rdf:resource="http://purl.org/dc/dcmitype/StillImage" />
      </cc:Work>
    </rdf:RDF>
  </metadata>
  <g
     inkscape:label="Layer 1"
     inkscape:groupmode="layer"
     id="layer1"
     transform="translate(-12.567709)">
    <g
       id="g886"
       transform="translate(0,57.442888)">
      <path
         d="m 62.7181,58.894575 c -0.221289,0.04301 -0.239627,0.303432 -0.09961,0.734375 0.34714,3.46533 3.856007,9.818309 7.863281,11.802735 5.077478,2.514397 8.566378,0.649365 15.488282,-0.554688 2.492045,-0.433488 7.161841,1.693304 6.919922,4.832031 -1.345531,1.900574 -4.171168,3.511238 -8.931641,3.990235 -17.889708,1.800056 -34.390625,-0.248238 -41.390625,0.300781 -14.021532,1.099727 -21.674398,9.150437 -21.019531,16.023438 0.479207,10.231808 8.812004,13.976558 18.519531,13.976558 3.78207,0 35.314105,-1.69579 38.929688,-1.89062 -4.706582,1.24608 -9.322144,2.56891 -13.777344,3.94921 -21.134989,6.54801 -38.770353,14.22874 -47.224609,20.1211 a 1.0001,1.0001 0 0 0 -0.427735,0.82031 v 17 a 1.0001,1.0001 0 0 0 0.320313,0.73438 c 3.271935,3.02024 11.424442,10.27626 20.314453,17.33789 8.890011,7.06162 18.413543,13.91716 24.841796,16.18554 24.401427,8.61068 63.704719,6.43382 94.617189,0.22071 25.62984,-5.15135 45.2827,-16.14571 58.76758,-31.47461 4.2992,-4.88711 11.51401,-9.00391 21.63867,-9.00391 h 24.5 a 1.0001,1.0001 0 0 0 1,-1 v -17 a 1.0001,1.0001 0 0 0 -0.0879,-0.41016 c -2.44486,-5.43301 -9.89697,-12.2559 -18.15234,-18.3789 -8.25535,-6.123 -17.23273,-11.398617 -22.96485,-13.166014 a 1.0001,1.0001 0 0 0 -0.25389,-0.04492 c -24.13449,-1.005604 -44.63382,3.002826 -89.00391,5.095703 -9.35288,0.441163 -19.13454,1.658191 -28.90625,3.402341 -6.792982,-3.766818 -19.919703,-4.329018 -37.130861,-2.49805 -16.043396,1.70675 -27.779933,2.24582 -33.4375,-0.607416 -0.844454,-4.421181 1.6385,-8.499188 9.275391,-10.005859 16.568725,-3.268822 33.61286,0.03392 44.240234,-1.761719 7.888194,-1.332817 15.421876,-4.625 15.421876,-13.125 l -0.0606,0.01367 c 0.015,-0.178745 0.0355,-0.357086 0.0332,-0.535156 -0.0714,-5.540826 -7.985719,-11.579134 -16.585938,-10.117188 -9.878783,1.67929 -13.720797,2.488195 -17.416016,-0.78125 -3.471267,-3.071297 -5.263239,-4.293825 -5.820312,-4.185547 z"
         style="fill:#212121;fill-opacity:1;stroke:none;stroke-width:1px;stroke-linecap:butt;stroke-linejoin:miter;stroke-opacity:1;filter:url(#filter2665)"
         id="path2579" />
      <g
         transform="translate(-2.5,-3.1668941e-4)"
         id="g2577">
        <path
           style="opacity:1;fill:#7e7e7e;fill-opacity:1;stroke:none;stroke-width:1px;stroke-linecap:butt;stroke-linejoin:miter;stroke-opacity:1"
           d="M 19.024946,91.082807 C 19.024946,102.02825 27.567709,106 37.567709,106 c 4,0 41,-2 41,-2 l 8,-1.5 3.5,-2.5 -13.5,-2 -18,1 -24,2 z"
           id="path1160"
           sodipodi:nodetypes="csccccccc" />
        <path
           style="opacity:1;fill:#7e7e7e;fill-opacity:1;stroke:none;stroke-width:1px;stroke-linecap:butt;stroke-linejoin:miter;stroke-opacity:1"
           d="M 31.567709,97 C 29.75057,91.990158 31.85002,87.074413 40.406302,85.386356 56.975027,82.117534 74.019284,85.420764 84.646658,83.625126 92.534852,82.292309 100.06771,79 100.06771,70.5 l -6.500001,1.5 -8,5.5 -22,0.5 h -26 l -14,8 2,9 z"
           id="path1158"
           sodipodi:nodetypes="csscccccccc" />
        <path
           style="fill:url(#linearGradient1168);fill-opacity:1;stroke:none;stroke-width:2;stroke-linecap:butt;stroke-linejoin:round;stroke-miterlimit:4;stroke-dasharray:none;stroke-opacity:1"
           d="m 16.067709,129 c 16.5,-11.5 70.5,-30.825577 114.584531,-32.904984 C 175.06771,93.999999 195.56771,90 219.56771,91 c 10.93767,3.372434 36,21 40.5,31 v 17 h -24.5 c -10.39697,0 -17.90656,4.24681 -22.38958,9.34287 -13.32344,15.14539 -32.75608,26.03887 -58.21348,31.15556 C 132.56771,184 84.508437,187.65277 60.878011,179.31415 48.652341,175 22.567709,152 16.067709,146 Z"
           id="path927"
           sodipodi:nodetypes="cscccsssscc" />
        <path
           id="path1140"
           style="opacity:1;fill:url(#linearGradient1179);fill-opacity:1;stroke:none;stroke-width:1px;stroke-linecap:butt;stroke-linejoin:miter;stroke-opacity:1"
           d="m 149.5,94 -22,1.5 -23.5,2 -21,3 -11.5,2.5 -17,5 -20.5,7 -20,8 -10.5,6 c 17,15 29,31 51.5,41 21.672944,9.63242 47.42283,9.3252 62,8 33,-3 53.64024,-7.42345 76.90234,-30.68555 3.31379,-3.31379 3.33594,-11.58398 -5.16406,-4.58398 C 180.23828,149.73047 167.5,163.1 145,164 130.41462,164.58342 116.38655,150.10233 117.52148,134.2207 118.89507,114.99942 137.5,100.9282 149.5,94 Z m 94.5,30 c 0,0 -22,3 -26,4 -3.91077,0.97769 -9.11278,2.15579 -13.13281,4.11523 -5.86743,2.8599 -4.00537,8.58685 1.13281,6.38477 3.5,-1.5 7.01306,-1.7521 11.01953,-2.19727 C 221.51953,135.80273 244,136 244,136 Z"
           transform="translate(12.567709)" />
        <path
           style="opacity:1;fill:#5e5f94;fill-opacity:1;stroke:none;stroke-width:1px;stroke-linecap:butt;stroke-linejoin:miter;stroke-opacity:1"
           d="m 32.567709,131 c 5.650821,4.41446 28.442645,24.32474 35.45456,32.16234 9.598132,-3.07138 42.238301,-11.94782 74.841401,-18.34747 30.10418,-5.90913 59.90529,-10.59689 67.70404,-11.81487 -1,-8 -22.31632,-25.85762 -29,-31 -6.97734,-0.68659 -35.85415,1.31606 -68.03423,5.44119 C 72.412774,112.7124 37.567709,125 32.567709,131 Z"
           id="path1154"
           sodipodi:nodetypes="ccsccsc" />
        <path
           style="opacity:1;mix-blend-mode:normal;fill:#5e5f94;fill-opacity:1;stroke:none;stroke-width:1px;stroke-linecap:butt;stroke-linejoin:miter;stroke-opacity:1"
           d="m 191.06771,101.5 c 5.67513,4.41263 21.72533,16.99088 29,26 4.35351,-1.76711 23.07405,-5.19064 26.5,-5.5 -4.41053,-7.14384 -23.07746,-19.57842 -27,-21 -5.32702,-1.119086 -20.79569,-0.65834 -28.5,0.5 z"
           id="path1144"
           sodipodi:nodetypes="ccccc" />
        <path
           id="path1000"
           style="opacity:1;fill:url(#linearGradient1209);fill-opacity:1;stroke:url(#linearGradient1228);stroke-width:2.5;stroke-linecap:round;stroke-linejoin:miter;stroke-miterlimit:4;stroke-dasharray:none;stroke-opacity:1"
           d="m 217.69078,105.12617 c 0.82382,-0.0723 1.64739,-0.1446 2.47263,-0.19844 -0.91285,-0.50756 -1.78509,-1.20164 -2.79529,-1.46795 -0.64666,-0.0501 -1.29512,-0.0655 -1.94299,-0.0926 0.74305,0.61674 1.56948,1.24284 2.26565,1.75899 z m -17.29885,-1.15547 c 1.12284,0.95718 2.23687,1.92429 3.33984,2.9043 1.48192,-0.25738 2.97026,-0.47739 4.46094,-0.67773 -0.98003,-0.85395 -1.96941,-1.69716 -2.95312,-2.54688 -1.65093,0.10299 -3.31696,0.21101 -4.84766,0.32031 z m -49.0226,4.33887 c 1.32855,1.2259 2.74118,2.51239 4.05776,3.75098 2.0996,-0.28014 4.1983,-0.56709 6.29882,-0.83985 -1.35064,-1.21193 -2.68935,-2.43805 -4.03515,-3.65625 -1.95165,0.22719 -5.54766,0.61218 -6.32143,0.74512 z m -17.8083,1.82187 c 1.4786,1.40221 3.02623,2.93203 4.48129,4.35879 2.15161,-0.30685 4.30224,-0.62025 6.45508,-0.91796 -1.5523,-1.4105 -3.0884,-2.8387 -4.63281,-4.25782 -1.91223,0.0914 -5.87697,0.74317 -6.30356,0.81699 z m -16.35833,1.88945 c 1.44492,1.37245 3.70991,3.44122 5.13257,4.83653 1.63468,-0.25422 3.26829,-0.51497 4.9043,-0.75976 -1.64228,-1.57995 -3.29455,-3.14946 -4.94141,-4.72461 -1.70178,0.18826 -3.39751,0.4277 -5.09546,0.64784 z m 107.71638,-0.57112 c 0.45162,0.3257 1.00801,0.85543 1.46131,1.11952 1.38821,-0.10752 2.78609,-0.20983 4.17951,-0.29586 -0.57709,-0.39217 -0.97342,-0.65088 -1.79346,-1.01241 -1.28618,0.0132 -2.58595,0.08 -3.84736,0.18875 z m -14.57793,1.40375 c 0.57467,0.46 1.08135,1.1469 1.69825,1.46598 1.52561,-0.25886 3.05685,-0.48489 4.59081,-0.68864 -0.54414,-0.41568 -1.01706,-1.05189 -1.60335,-1.33709 -1.57992,0.16311 -3.2382,0.36063 -4.68571,0.55975 z m -111.671879,2.0371 c 1.908839,1.74299 3.792219,3.51324 5.679689,5.2793 2.43214,-0.51631 4.86858,-1.01146 7.31055,-1.47851 -1.7793,-1.70313 -3.5586,-3.40625 -5.33789,-5.10938 -2.58973,0.41182 -5.38944,0.89471 -7.652349,1.30859 z m 80.882819,1.15626 c 4.88352,5.02837 9.68966,10.13337 14.32421,15.39257 3.05444,-0.48757 6.10817,-0.97808 9.16993,-1.41797 -4.61972,-5.05594 -9.35973,-10.00178 -14.19336,-14.85351 -3.18077,0.23434 -6.54948,0.57955 -9.30078,0.87891 z m -17.64258,2.23046 c 1.37315,1.32872 2.73261,2.67099 4.08398,4.02149 2.28852,-0.31242 4.57494,-0.63966 6.86524,-0.9375 -1.42488,-1.33381 -2.86189,-2.65458 -4.30664,-3.9668 -2.38438,0.31084 -4.46813,0.58634 -6.64258,0.88281 z m 70.86914,5e-5 c 0.78788,0.73905 1.58182,1.4724 2.34765,2.23438 1.50335,-0.29466 3.01038,-0.56748 4.51758,-0.8418 -0.69999,-0.55419 -1.34423,-1.28224 -2.09803,-1.70928 -1.64456,0.0699 -3.3551,0.18032 -4.7672,0.3167 z m -14.53516,2.02339 c 1.01745,0.98885 2.02623,1.98722 3.00781,3.01172 1.54747,-0.32585 3.09448,-0.64998 4.64453,-0.96289 -0.95567,-0.97143 -1.92758,-1.92706 -2.91601,-2.86523 -1.59719,0.24911 -3.27874,0.52924 -4.73633,0.8164 z m -73.79101,0.48438 c 1.3997,1.37399 2.81824,2.72861 4.22656,4.09375 2.33904,-0.36219 4.67569,-0.73924 7.01758,-1.08203 -1.45757,-1.35108 -2.93084,-2.68506 -4.39649,-4.02735 -2.4608,0.35967 -4.60628,0.67714 -6.84765,1.01563 z m -15.77843,2.48392 c 1.2218,1.19945 3.30119,3.07797 4.52646,4.27389 1.5417,-0.28043 3.08049,-0.57707 4.625,-0.8418 -1.33723,-1.43518 -2.69138,-2.85475 -4.07226,-4.24805 -1.69796,0.23955 -3.38529,0.54927 -5.0792,0.81596 z m -12.51259,2.22897 c -1.70276,0.34032 -3.40607,0.67819 -5.10547,1.03515 1.64193,1.56771 3.28386,3.13542 4.92578,4.70313 2.24545,-0.51888 4.49089,-1.03776 6.73633,-1.55664 -1.45874,-1.55077 -2.93615,-3.08409 -4.44531,-4.58594 -0.70378,0.13477 -1.40755,0.26953 -2.11133,0.4043 z m 56,3.10351 c 1.75296,1.83612 3.48928,3.68819 5.19922,5.56446 2.35333,-0.392 4.70598,-0.78764 7.06055,-1.17188 -1.63309,-1.81299 -3.32163,-3.57553 -5.03907,-5.30859 -2.41981,0.27564 -5.0368,0.61116 -7.2207,0.91601 z M 92.723959,130.625 c 1.66306,1.66845 3.3168,3.34621 4.957031,5.03711 2.69814,-0.68717 5.40011,-1.35768 8.10742,-2.00781 -1.56971,-1.6702 -3.15127,-3.32969 -4.77734,-4.94532 -2.776711,0.62359 -5.782404,1.31944 -8.287111,1.91602 z m 10.939201,11.37406 c 1.7503,1.68926 3.46628,3.69623 4.90846,5.29586 20.74454,-5.08645 39.98254,-8.2017 59.4375,-11.53125 -1.86302,-1.93156 -3.76481,-3.82535 -5.69336,-5.6914 -20.4651,3.52592 -39.86484,7.32256 -58.6526,11.92679 z m -30.988029,-6.24711 c 1.713153,1.77329 3.413969,3.55859 5.089844,5.36719 3.298189,-0.98394 6.611849,-1.91548 9.93164,-2.82422 -1.67445,-1.73732 -3.359242,-3.46472 -5.060547,-5.17578 -3.339952,0.85381 -6.951179,1.80814 -9.960937,2.63281 z m -19.898438,6.03907 c 1.909265,1.90132 3.826407,3.7947 5.742188,5.68945 3.319939,-1.25463 6.680841,-2.39818 10.052734,-3.50586 -1.725877,-1.87545 -3.470883,-3.73342 -5.251953,-5.55664 -3.550399,1.06336 -7.360818,2.26582 -10.542969,3.37305 z m 30.560547,5.49218 c 1.540699,1.74777 3.070411,3.5054 4.5625,5.29492 3.46209,-0.95517 6.936594,-1.8627 10.416016,-2.75195 -1.553193,-1.76637 -3.121051,-3.51996 -4.716797,-5.24805 -3.43703,0.88445 -7.155681,1.86086 -10.261719,2.70508 z m -19.216797,5.71289 c 1.798425,1.74089 3.589869,3.48929 5.416016,5.20118 2.910314,-1.0445 5.860228,-1.97539 8.818359,-2.875 -1.477224,-1.80455 -2.968931,-3.59734 -4.492187,-5.36329 -3.27642,0.96488 -6.799734,2.06361 -9.742188,3.03711 z"
           sodipodi:nodetypes="ccccccccccccccccccccccccccccccccccccccccccccccccccccccccccccccccccccccccccccccccccccccccccccccccccccccccccccccc" />
        <path
           style="fill:#7e7e7e;fill-opacity:1;stroke:none;stroke-width:1px;stroke-linecap:butt;stroke-linejoin:miter;stroke-opacity:1"
           d="m 60.084356,55.092549 c 0,3.302441 3.675839,10.248105 7.897798,12.338844 5.077478,2.514397 8.566819,0.6502 15.488723,-0.553853 2.701677,-0.469953 7.976807,2.065456 6.761948,5.641542 l 5.208313,-0.08363 -3.402603,-9.983749 -13.2733,-0.784729 -8.563599,1.729574 z"
           id="path1219"
           sodipodi:nodetypes="csscccccc" />
        <path
           style="opacity:1;fill:#b8b8b8;fill-opacity:1;stroke:none;stroke-width:1px;stroke-linecap:butt;stroke-linejoin:miter;stroke-opacity:1"
           d="m 86.567709,103.5 c -1.5,-7 -30.999726,-1.99169 -48.104289,-1.43093 C 10.067709,103 14.567709,77.999999 40.067709,76 c 7,-0.549019 23.5,1.5 41.389708,-0.300056 15.110292,-1.520392 10.763639,-14.446853 1.269952,-11.831974 -13.583165,3.741259 -17.499141,0.112407 -20.925956,-5.170156 -2.926479,-4.511275 -2.706213,-5.76005 4.236321,0.382545 3.695219,3.269445 7.538244,2.459804 17.417027,0.780514 8.600219,-1.461946 16.513492,4.577234 16.584919,10.11806 0.0547,4.242289 -4.686755,8.756771 -19.657186,9.698165 C 63.928976,80.711754 28.03377,77.512526 27.358457,88.992841 26.799212,98.5 41.067709,98.5 64.567709,96 82.528751,94.089251 96.060852,94.775205 102.56771,99"
           id="path1156"
           sodipodi:nodetypes="csssssssssssc" />
        <path
           sodipodi:nodetypes="cscccsssscc"
           id="path1181"
           d="m 16.067709,129 c 16.5,-11.5 70.5,-30.825577 114.584531,-32.904984 C 175.06771,93.999999 195.56771,90 219.56771,91 c 10.93767,3.372434 36,21 40.5,31 v 17 h -24.5 c -10.39697,0 -17.90656,4.24681 -22.38958,9.34287 -13.32344,15.14539 -32.75608,26.03887 -58.21348,31.15556 -30.79445,6.18939 -70.056536,8.29537 -94.086639,-0.18428 C 48.652341,175 22.567709,152 16.067709,146 Z"
           style="fill:none;fill-opacity:1;stroke:#212121;stroke-width:2;stroke-linecap:butt;stroke-linejoin:round;stroke-miterlimit:4;stroke-dasharray:none;stroke-opacity:1" />
        <path
           id="path1211"
           style="opacity:1;fill:#ff794b;fill-opacity:1;stroke:#ff794b;stroke-width:2.5;stroke-linecap:butt;stroke-linejoin:miter;stroke-miterlimit:4;stroke-dasharray:none;stroke-opacity:1"
           d="m 60.581381,123.79883 c 1.990053,1.97528 4.205113,4.04045 5.960937,5.77148 3.244647,-0.94766 6.505429,-1.83887 9.769532,-2.71679 -1.957101,-1.9313 -3.939057,-3.83708 -5.914063,-5.75 -3.29889,0.85081 -6.849694,1.83499 -9.816406,2.69531 z m -19.558594,7.18555 c 1.993933,1.61028 3.93794,3.28223 5.839844,5 3.42896,-1.29088 6.902305,-2.46035 10.390625,-3.58008 -1.984779,-1.90313 -3.992645,-3.78234 -6.039063,-5.61914 -3.568859,1.29195 -7.23191,2.81565 -10.191406,4.19922 z"
           sodipodi:nodetypes="cccccccccc" />
        <path
           id="path1213"
           style="opacity:1;fill:#2089df;fill-opacity:1;stroke:#2089df;stroke-width:2.5;stroke-linecap:butt;stroke-linejoin:miter;stroke-miterlimit:4;stroke-dasharray:none;stroke-opacity:1"
           d="m 80.384115,118.66406 c 1.988973,1.85836 3.96154,3.73411 5.914063,5.63086 2.714904,-0.67043 5.436902,-1.31138 8.162109,-1.93945 -1.919237,-1.83743 -3.842847,-3.67246 -5.765625,-5.51172 -2.81503,0.58481 -5.853995,1.25525 -8.310547,1.82031 z"
           sodipodi:nodetypes="ccccc" />
        <path
           id="path1215"
           style="opacity:1;fill:#66cc33;fill-opacity:1;stroke:#66cc33;stroke-width:2.5;stroke-linecap:butt;stroke-linejoin:miter;stroke-miterlimit:4;stroke-dasharray:none;stroke-opacity:1"
           d="m 169.88802,106.58008 c 1.11874,1.04829 2.23287,2.1013 3.33594,3.16601 2.97952,-0.36424 5.95871,-0.72839 8.94336,-1.04882 -1.01411,-0.92321 -2.0293,-1.85194 -3.13477,-2.66602 -3.06735,0.14768 -6.34807,0.34749 -9.14453,0.54883 z"
           sodipodi:nodetypes="ccccc" />
      </g>
    </g>
    <g
       inkscape:label="Layer 1"
       id="layer1-6"
       transform="matrix(0.57780371,0,0,0.57780371,89.703129,-0.07448226)">
      <path
         id="path177769"
         style="color:#000000;fill:#212121;fill-opacity:1;stroke-width:5.17592px;-inkscape-stroke:none;filter:url(#filter177976)"
         d="m 57.834989,4.0003626 c -6.17544,0.037314 -12.675737,2.9371976 -17.987912,7.4823194 -6.07106,5.194424 -10.664917,12.758397 -10.63267,21.354481 0.04097,10.911719 5.56024,17.811749 11.911017,21.375345 6.350779,3.563596 13.296293,4.193571 17.525128,3.789524 9.154273,-0.874646 17.448288,-8.798782 25.616274,-16.000214 8.167985,-7.201431 16.193064,-13.541148 21.752774,-13.46438 4.18764,0.05781 6.88237,1.902148 9.27846,4.844066 1.87361,2.300412 3.39633,5.270937 4.7701,8.256156 -4.40878,1.195041 -8.97041,2.731626 -13.41128,4.737854 -12.748956,5.759534 -24.617223,15.453163 -27.179117,30.824499 -5.275568,31.653407 -2.741331,83.226357 5.249952,109.863957 9.274057,30.91358 40.342315,61.42098 90.605285,58.77557 25.58616,-1.34665 46.06969,-13.33359 60.07098,-28.93922 14.0013,-15.60564 21.65795,-34.7906 21.65795,-51.13962 0,-12.4733 -5.73501,-32.00153 -16.26765,-53.27335 -10.53265,-21.271828 -25.91947,-44.123261 -45.52929,-62.392488 -10.88312,-10.1391 -25.27415,-12.396455 -37.03795,-12.567261 -2.09951,-0.03048 -4.07343,0.01391 -5.97069,0.08346 C 150.12979,33.274965 145.26911,26.446243 138.05986,20.102999 130.25411,13.234918 119.70569,7.1440167 107.3833,7.217099 94.044929,7.2962 84.035244,15.85002 76.058086,23.941836 c -3.988578,4.045909 -7.526202,8.032837 -10.672499,10.924755 -3.146296,2.891918 -5.848961,4.479509 -7.728885,4.567154 -4.247796,0.198041 -6.465402,-0.9147 -7.831304,-2.363236 -1.365902,-1.448536 -1.97624,-3.527601 -2.006665,-5.627386 -0.03074,-2.122574 0.938419,-5.522816 3.015688,-7.935622 2.07727,-2.412806 5.020943,-4.070275 9.910042,-3.463299 3.669328,0.455545 6.767132,0.148768 9.217763,-0.809874 2.45063,-0.958641 4.507475,-2.769508 4.794753,-5.34668 C 75.044257,11.310472 73.377656,8.9954446 70.944695,7.444695 68.511733,5.8939454 65.099681,4.7813431 60.456171,4.1634753 59.591579,4.048432 58.717194,3.995032 57.834989,4.0003626 Z" />
      <g
         id="g154816"
         transform="matrix(5.1759167,0,0,5.1759167,632.87187,-66.12435)">
        <path
           style="opacity:1;fill:url(#linearGradient155890);fill-opacity:1;stroke:#999999;stroke-width:1px;stroke-linecap:butt;stroke-linejoin:miter;stroke-opacity:1"
           d="m -99.367414,20.325046 c -0.644036,-1.451961 -1.448976,-3.282328 -3.380906,-3.309001 -2.80205,-0.03869 -6.23594,5.410936 -9.20623,5.694733 -1.41111,0.134825 -5.12499,-0.46704 -5.13963,-4.366083 -0.0111,-2.95885 3.19975,-5.344256 5.47021,-5.042147 3.3945,0.451674 2.76326,2.39654 0.18301,2.076203 -2.1857,-0.271352 -3.07451,1.607774 -3.05861,2.705912 0.0144,0.993805 0.57484,2.122344 2.42371,2.036146 2.311,-0.107744 4.86136,-6.195788 9.58704,-6.223813 4.426009,-0.02625 7.721827,4.408252 8.304724,5.772526"
           id="path7101"
           sodipodi:nodetypes="cssssssssc" />
        <g
           id="g154806">
          <path
             style="fill:url(#linearGradient29562);fill-opacity:1;stroke:#999999;stroke-width:1px;stroke-linecap:butt;stroke-linejoin:miter;stroke-opacity:1"
             d="m -107.38995,27 c 0.91902,-5.51411 8.500001,-7 11.45398,-7.113438 2.060035,-0.07911 6.935455,-0.771754 10.082505,2.160153 C -78.389949,29 -74.073299,39.528 -74.073299,44.028 c 0,6 -5.712251,14.466505 -15.31665,14.972 -9.5,0.5 -15.269941,-5.233122 -17.000001,-11 -1.5,-5 -2,-15 -1,-21 z"
             id="path962"
             sodipodi:nodetypes="sssssss" />
          <path
             style="opacity:1;fill:url(#linearGradient11963);fill-opacity:1;stroke:none;stroke-width:1px;stroke-linecap:butt;stroke-linejoin:miter;stroke-opacity:1"
             d="m -90.538234,28.177155 c 2.03106,-3.176405 -0.09966,-6.85884 -2.891236,-7.069767 -2.892057,-0.218519 -12.96671,-0.509771 -13.38968,6.396137 -0.34036,5.557042 0.12755,12.158708 2.33678,18.46648 0.67008,1.913214 1.24561,2.194429 1.69625,-0.330328 0.93643,-5.246373 8.272991,-11.246123 12.247886,-17.462522 z"
             id="path4531"
             sodipodi:nodetypes="ssssss" />
          <path
             style="fill:none;stroke:#999999;stroke-width:1px;stroke-linecap:butt;stroke-linejoin:miter;stroke-opacity:1"
             d="m -107.88995,34 c 4,-4 8.875232,-6.020736 14.000001,-7 3.483185,-0.665583 11,0.5 13,1"
             id="path2536"
             sodipodi:nodetypes="csc" />
          <path
             style="fill:none;stroke:#999999;stroke-width:1px;stroke-linecap:butt;stroke-linejoin:miter;stroke-opacity:1"
             d="m -96.889949,20 c 2,3 3.202301,5.523819 3.5,7"
             id="path3236"
             sodipodi:nodetypes="cc" />
          <path
             style="fill:#6666cc;fill-opacity:1;stroke:#66666c;stroke-width:1px;stroke-linecap:butt;stroke-linejoin:miter;stroke-opacity:1"
             d="m -93.25014,28.962171 c 3.87666,-0.811799 0.681063,-6.914894 -2.195229,-6.104886 -1.747658,0.492167 -0.964593,6.766573 2.195229,6.104886 z"
             id="path3328"
             sodipodi:nodetypes="sss" />
          <path
             style="opacity:1;fill:url(#linearGradient44218);fill-opacity:1;stroke:none;stroke-width:1px;stroke-linecap:butt;stroke-linejoin:miter;stroke-opacity:1"
             d="m -94.928548,50.2034 c -5.518922,0.223786 -7.585162,3.151526 -1.291144,5.407368 7.256683,2.600871 16.787522,-1.901238 18.394379,-6.013573 1.37998,-3.5317 1.620533,-8.847921 -0.852891,-14.267905 -1.146078,-2.511387 -1.529345,-1.166211 -1.616177,2.489905 -0.209067,8.802934 -6.715693,12.063119 -14.634167,12.384205 z"
             id="path5963"
             sodipodi:nodetypes="ssssss" />
        </g>
      </g>
    </g>
  </g>
</svg>
