<?xml version="1.0" encoding="UTF-8" standalone="no"?>
<svg
   width="256"
   height="256"
   viewBox="0 0 256 256"
   version="1.1"
   id="svg8"
   inkscape:version="1.1.1 (3bf5ae0d25, 2021-09-20)"
   sodipodi:docname="serial.svg"
   inkscape:export-filename="/media/klapeto/Αρχεία/WindowsXP Theme/Vectors/RASTER/serial.png"
   inkscape:export-xdpi="96"
   inkscape:export-ydpi="96"
   xmlns:inkscape="http://www.inkscape.org/namespaces/inkscape"
   xmlns:sodipodi="http://sodipodi.sourceforge.net/DTD/sodipodi-0.dtd"
   xmlns:xlink="http://www.w3.org/1999/xlink"
   xmlns="http://www.w3.org/2000/svg"
   xmlns:svg="http://www.w3.org/2000/svg"
   xmlns:rdf="http://www.w3.org/1999/02/22-rdf-syntax-ns#"
   xmlns:cc="http://creativecommons.org/ns#"
   xmlns:dc="http://purl.org/dc/elements/1.1/">
  <defs
     id="defs2">
    <linearGradient
       inkscape:collect="always"
       id="linearGradient169255">
      <stop
         style="stop-color:#5b5b5b;stop-opacity:1"
         offset="0"
         id="stop169251" />
      <stop
         style="stop-color:#868686;stop-opacity:1"
         offset="1"
         id="stop169253" />
    </linearGradient>
    <linearGradient
       inkscape:collect="always"
       id="linearGradient157573">
      <stop
         style="stop-color:#646464;stop-opacity:1"
         offset="0"
         id="stop157569" />
      <stop
         style="stop-color:#868686;stop-opacity:1"
         offset="1"
         id="stop157571" />
    </linearGradient>
    <linearGradient
       inkscape:collect="always"
       id="linearGradient138919">
      <stop
         style="stop-color:#d9d9d9;stop-opacity:1"
         offset="0"
         id="stop138915" />
      <stop
         style="stop-color:#383838;stop-opacity:1"
         offset="1"
         id="stop138917" />
    </linearGradient>
    <linearGradient
       inkscape:collect="always"
       id="linearGradient56172">
      <stop
         style="stop-color:#e6c873;stop-opacity:1"
         offset="0"
         id="stop56168" />
      <stop
         style="stop-color:#ffedca;stop-opacity:1"
         offset="0.1501673"
         id="stop71951" />
      <stop
         style="stop-color:#d09d08;stop-opacity:1"
         offset="0.69422364"
         id="stop72083" />
      <stop
         style="stop-color:#e9c74b;stop-opacity:1"
         offset="1"
         id="stop56170" />
    </linearGradient>
    <linearGradient
       inkscape:collect="always"
       id="linearGradient36155">
      <stop
         style="stop-color:#6a1b06;stop-opacity:1"
         offset="0"
         id="stop36151" />
      <stop
         style="stop-color:#9c6500;stop-opacity:1"
         offset="1"
         id="stop36153" />
    </linearGradient>
    <linearGradient
       inkscape:collect="always"
       id="linearGradient18619">
      <stop
         style="stop-color:#6663ac;stop-opacity:1"
         offset="0"
         id="stop18615" />
      <stop
         style="stop-color:#9191d5;stop-opacity:1"
         offset="1"
         id="stop18617" />
    </linearGradient>
    <linearGradient
       inkscape:collect="always"
       id="linearGradient2249">
      <stop
         style="stop-color:#a6a6d2;stop-opacity:1"
         offset="0"
         id="stop2245" />
      <stop
         style="stop-color:#fbfbfd;stop-opacity:1"
         offset="1"
         id="stop2247" />
    </linearGradient>
    <linearGradient
       inkscape:collect="always"
       xlink:href="#linearGradient2249"
       id="linearGradient2251"
       x1="-77.432289"
       y1="148"
       x2="-77.432289"
       y2="141"
       gradientUnits="userSpaceOnUse"
       gradientTransform="translate(11.15417,6.5402349)" />
    <linearGradient
       inkscape:collect="always"
       xlink:href="#linearGradient18619"
       id="linearGradient18621"
       x1="-65.992935"
       y1="144.95326"
       x2="-65.324547"
       y2="142.97304"
       gradientUnits="userSpaceOnUse"
       gradientTransform="translate(2.2957457,8.8854748)" />
    <linearGradient
       inkscape:collect="always"
       xlink:href="#linearGradient36155"
       id="linearGradient36157"
       x1="-69.326209"
       y1="155.25657"
       x2="-54.244883"
       y2="155.25657"
       gradientUnits="userSpaceOnUse"
       gradientTransform="translate(0,-0.07624129)" />
    <linearGradient
       inkscape:collect="always"
       xlink:href="#linearGradient56172"
       id="linearGradient56174"
       x1="-69.193604"
       y1="154.01402"
       x2="-53.790755"
       y2="154.01403"
       gradientUnits="userSpaceOnUse" />
    <linearGradient
       inkscape:collect="always"
       xlink:href="#linearGradient138919"
       id="linearGradient138921"
       x1="-114.93316"
       y1="132.96441"
       x2="-79.326159"
       y2="132.96441"
       gradientUnits="userSpaceOnUse" />
    <linearGradient
       inkscape:collect="always"
       xlink:href="#linearGradient157573"
       id="linearGradient157575"
       x1="-112.93229"
       y1="132.25"
       x2="-102.43229"
       y2="132.25"
       gradientUnits="userSpaceOnUse" />
    <linearGradient
       inkscape:collect="always"
       xlink:href="#linearGradient169255"
       id="linearGradient165468"
       x1="-82.932289"
       y1="132"
       x2="-113.43229"
       y2="132"
       gradientUnits="userSpaceOnUse" />
    <filter
       inkscape:collect="always"
       style="color-interpolation-filters:sRGB"
       id="filter178119"
       x="-0.033054597"
       y="-0.087614097"
       width="1.0661092"
       height="1.1752282">
      <feGaussianBlur
         inkscape:collect="always"
         stdDeviation="3.3330071"
         id="feGaussianBlur178121" />
    </filter>
  </defs>
  <sodipodi:namedview
     inkscape:guide-bbox="true"
     id="base"
     pagecolor="#ffffff"
     bordercolor="#666666"
     borderopacity="1.0"
     inkscape:pageopacity="0.0"
     inkscape:pageshadow="2"
     inkscape:zoom="1"
     inkscape:cx="279"
     inkscape:cy="358"
     inkscape:document-units="px"
     inkscape:current-layer="layer1"
     inkscape:document-rotation="0"
     showgrid="false"
     units="px"
     inkscape:window-width="3840"
     inkscape:window-height="2045"
     inkscape:window-x="3840"
     inkscape:window-y="0"
     inkscape:window-maximized="1"
     inkscape:snap-bbox="true"
     inkscape:bbox-nodes="true"
     fit-margin-top="0"
     fit-margin-left="0"
     fit-margin-right="0"
     fit-margin-bottom="0"
     inkscape:bbox-paths="false"
     inkscape:snap-global="true"
     showguides="false"
     inkscape:pagecheckerboard="0"
     inkscape:snap-grids="true"
     inkscape:object-paths="true"
     inkscape:snap-smooth-nodes="false">
    <inkscape:grid
       type="xygrid"
       id="grid1504"
       originx="0"
       originy="0" />
    <inkscape:grid
       type="xygrid"
       id="grid1507"
       spacingx="0.5"
       spacingy="0.5"
       originx="0"
       originy="0" />
  </sodipodi:namedview>
  <metadata
     id="metadata5">
    <rdf:RDF>
      <cc:Work
         rdf:about="">
        <dc:format>image/svg+xml</dc:format>
        <dc:type
           rdf:resource="http://purl.org/dc/dcmitype/StillImage" />
      </cc:Work>
    </rdf:RDF>
  </metadata>
  <g
     inkscape:label="Layer 1"
     inkscape:groupmode="layer"
     id="layer1"
     transform="translate(-12.567709)">
    <path
       id="path177867"
       style="fill:#212121;fill-opacity:1;stroke:none;stroke-width:5.52253px;stroke-linecap:butt;stroke-linejoin:miter;stroke-opacity:1;filter:url(#filter178119)"
       d="m 176.1888,86.35 c -29.38817,0 -68.53794,34.45117 -115.246091,34.45117 -13.247858,0 -20.738147,-2.56809 -24.876953,-5.79687 l 0.615234,0.0605 c -2.761267,-13.80633 17.605085,-11.70231 30.285157,-8.30468 8.06805,2.16182 18.609832,-0.0641 19.560546,-5.25196 1.051932,-1.553788 -1.212951,-4.163015 -7.353515,-7.224606 -4.174042,-2.081112 -18.943332,-7.347656 -28.464844,-7.347656 -24.851407,0 -33.135825,11.044206 -33.140625,21.773432 -4.6e-5,0.10186 0.01992,0.22094 0.02344,0.32618 l -0.01953,-0.01 c 0,15.98868 22.739691,27.61328 46.94336,27.61328 38.657741,0 96.644231,-33.13672 118.734371,-33.13672 7.04011,0 11.69307,3.43862 15.10938,7.5918 0.45327,2.84637 0.4311,5.96591 0.19726,9.21875 l -23.23047,-6.00391 c -1.99377,-0.51525 -4.12176,-0.71886 -6.22656,-0.6582 a 2.7615412,2.7615412 0 0 0 -0.004,0 h -0.002 c -4.62801,0.13376 -9.36081,1.12772 -11.77148,4.95703 l -7.38672,11.72656 h -2.09961 c -1.87766,-2.47079 -4.46814,-3.79516 -7.01367,-3.61523 -2.9231,0.20662 -5.4903,2.05657 -7.02735,4.71875 a 2.2092358,2.2092358 0 0 0 -0.24023,0.60742 l -1.89453,8.1836 a 2.2090149,2.2090149 0 0 0 0.4414,1.87695 c -0.0785,0.12398 -0.15667,0.24913 -0.23047,0.37695 a 2.2092358,2.2092358 0 0 0 -0.26367,0.72852 l -1.32031,7.64844 a 2.2090149,2.2090149 0 0 0 1.80078,2.55273 2.2090149,2.2090149 0 0 0 2.55274,-1.80078 l 1.22656,-7.10742 c 0.91084,-1.428 2.19782,-2.25117 3.34179,-2.33203 1.20617,-0.0853 2.45892,0.35774 3.70704,2.51953 a 2.2092358,2.2092358 0 0 0 1.91211,1.10547 h 2.98437 c 0.15498,0.38147 0.3183,0.75133 0.49414,1.10156 0.33006,0.6574 0.6891,1.25676 1.16602,1.82031 0.0435,0.0514 0.11062,0.10202 0.15625,0.1543 -0.94111,1.72454 -1.35299,3.74883 -0.56641,5.70312 0.98329,2.44302 3.40053,4.34133 6.74609,5.17774 a 2.7615412,2.7615412 0 0 0 0.01,0.002 l 68.01953,16.74023 -0.0859,-0.0234 c 5.06742,1.41885 9.65782,0.0243 11.99805,-3.16993 a 2.7615412,2.7615412 0 0 0 0.27539,-0.34179 c 0.1551,-0.23933 0.40219,-0.40376 0.53125,-0.66211 l -0.24805,0.11719 a 2.7615412,2.7615412 0 0 0 0.55469,-1.0625 l -0.11719,0.52929 c 0.0687,-0.16615 0.0692,-0.3655 0.12305,-0.54101 a 2.7615412,2.7615412 0 0 0 0.0723,-0.13868 l 0.0117,-0.22656 c 0.0431,-0.18003 0.0965,-0.35318 0.12304,-0.53906 0.073,-0.0315 0.16871,-0.0477 0.23828,-0.0801 0.58041,-0.26989 1.08357,-0.61503 1.57227,-0.99219 h 5.34766 a 2.2092358,2.2092358 0 0 0 1.91406,-1.10351 c 1.24811,-2.1618 2.49893,-2.60674 3.70508,-2.52149 1.09749,0.0776 2.31252,0.87449 3.21679,2.19336 v 7.50782 a 2.2090149,2.2090149 0 0 0 2.20899,2.20898 2.2090149,2.2090149 0 0 0 2.20898,-2.20898 v -8.28516 a 2.2092358,2.2092358 0 0 0 -0.29492,-1.10352 c -0.23873,-0.4135 -0.5051,-0.80458 -0.79102,-1.17578 a 2.2090149,2.2090149 0 0 0 0.95704,0.24805 2.2090149,2.2090149 0 0 0 2.20898,-2.20898 v -8.28321 a 2.2092358,2.2092358 0 0 0 -0.29688,-1.10547 c -1.53702,-2.66222 -4.10424,-4.51214 -7.02734,-4.71875 -2.54553,-0.17992 -5.136,1.14445 -7.01367,3.61524 h -0.1875 l -1.5625,-11.47071 0.004,0.041 c -0.7369,-6.06047 -5.30739,-10.4418 -10.35547,-11.74609 L 212.5931,123.9418 C 213.20275,108.29479 208.41143,86.35 176.1888,86.35 Z m -34.60156,44.77148 c 1.06489,0.0572 2.15988,0.63384 3.25195,2.52539 a 2.2092358,2.2092358 0 0 0 1.91211,1.10547 h 0.50977 c -0.37274,0.77981 -0.62629,1.59089 -0.73242,2.40039 -0.18674,1.42418 -0.11328,2.85108 0.0957,4.22657 h -0.71289 c -1.87767,-2.47079 -4.46814,-3.79516 -7.01367,-3.61524 -0.78008,0.0551 -1.53343,0.2305 -2.25,0.50391 l 1.10351,-4.76758 c 0.91196,-1.46147 2.22297,-2.2912 3.38086,-2.37305 0.15077,-0.0107 0.30295,-0.014 0.45508,-0.006 z m 109.89258,22.0918 c 0.15212,-0.008 0.30236,-0.007 0.45312,0.004 1.09811,0.0776 2.31242,0.87307 3.2168,2.19336 v 7.50586 a 2.2090149,2.2090149 0 0 0 0.13281,0.72851 c -1.42352,-1.32341 -3.19276,-2.17452 -5.11718,-2.31055 -2.54511,-0.17989 -5.13607,1.14332 -7.01368,3.61329 h -0.24218 c 1.0251,-1.50764 1.91024,-3.15115 2.44336,-4.88086 0.31175,-1.0115 0.53022,-2.10692 0.46875,-3.22461 h 0.49218 a 2.2092358,2.2092358 0 0 0 1.91211,-1.10547 c 1.09211,-1.89157 2.18903,-2.46621 3.25391,-2.52344 z" />
    <g
       id="g177568"
       transform="matrix(5.5225348,0,0,5.5225348,786.64567,-589.98486)">
      <g
         id="g175380"
         transform="translate(-25.233989,-7.1501312)">
        <path
           style="opacity:1;fill:url(#linearGradient157575);fill-opacity:1;stroke:none;stroke-width:1px;stroke-linecap:butt;stroke-linejoin:miter;stroke-opacity:1"
           d="m -102.43229,131.5 c 0,1.03799 -2.02492,1.5 -3.55607,1.08973 -2.29606,-0.61523 -5.98398,-0.99615 -5.48398,1.50385 l -0.95995,-0.0936 -0.5,-3.5 z"
           id="path136886"
           sodipodi:nodetypes="cscccc" />
        <path
           style="opacity:1;fill:url(#linearGradient165468);fill-opacity:1;stroke:none;stroke-width:1px;stroke-linecap:butt;stroke-linejoin:miter;stroke-opacity:1"
           d="m -114.93229,133 c 0,2.89517 4.11729,5 8.5,5 6.999999,0 17.499999,-6 21.499999,-6 1.891004,0 2.843501,1.36291 3.5,2.5 l -0.5,-3.5 -6,-1.5 -13.499999,5 -6.5,1 -2.97785,-0.46578 z"
           id="path137850"
           sodipodi:nodetypes="cssccccccc" />
        <path
           style="opacity:1;fill:url(#linearGradient138921);fill-opacity:1;stroke:none;stroke-width:1px;stroke-linecap:butt;stroke-linejoin:miter;stroke-opacity:1"
           d="m -82.241136,135.93294 c 0.276024,-2.61542 0.39964,-5.07039 -4.023958,-5.07039 -2.598069,0 -15.511706,6.2904 -20.654826,6.17135 -6.55776,-0.1518 -8.0138,-2.84009 -8.01324,-4.09109 C -114.93229,131 -113.43229,129 -108.93229,129 c 1.72412,0 4.39868,0.95387 5.1545,1.33071 2.63171,1.31213 1.3455,2.16929 -2.58063,1.10515 -2.1582,-0.58496 -6.07387,-0.93586 -6.07387,1.06414 0,1 0.85335,2.63228 5.35335,2.63228 8.457738,0 15.546822,-6.23817 20.868322,-6.23817 6.366848,0 6.823127,4.73539 6.543525,7.55299 z"
           id="path135256"
           sodipodi:nodetypes="cssssssssscc" />
      </g>
      <g
         id="g176994"
         transform="translate(0.145931,0.036093)">
        <path
           style="fill:none;stroke:#333333;stroke-width:0.8;stroke-linecap:round;stroke-linejoin:round;stroke-miterlimit:4;stroke-dasharray:none;stroke-opacity:1"
           d="m -115.26912,132.07217 h -2 c -0.56561,-0.97966 -1.55645,-0.76826 -2,0 l -0.23914,1.38489"
           id="path106228-6"
           sodipodi:nodetypes="cccc" />
        <path
           style="fill:none;stroke:#333333;stroke-width:0.8;stroke-linecap:round;stroke-linejoin:round;stroke-miterlimit:4;stroke-dasharray:none;stroke-opacity:1"
           d="m -114.92075,130.07217 h -2 c -0.5656,-0.97966 -1.55644,-0.76825 -2,0 l -0.34328,1.48212"
           id="path106228"
           sodipodi:nodetypes="cccc" />
        <path
           style="fill:none;stroke:#333333;stroke-width:0.8;stroke-linecap:round;stroke-linejoin:round;stroke-miterlimit:4;stroke-dasharray:none;stroke-opacity:1"
           d="m -101.26912,136.33997 h 2.000001 c 0.565609,-0.97966 1.556448,-0.76826 2,0 v 1.5"
           id="path106228-6-7"
           sodipodi:nodetypes="cccc" />
        <path
           style="fill:none;stroke:#333333;stroke-width:0.8;stroke-linecap:round;stroke-linejoin:round;stroke-miterlimit:4;stroke-dasharray:none;stroke-opacity:1"
           d="m -100.89262,134.07217 h 1.999997 c 0.565609,-0.97966 1.556448,-0.76826 2,0 v 1.5"
           id="path106228-5"
           sodipodi:nodetypes="cccc" />
        <path
           id="path135020"
           style="fill:none;fill-opacity:1;stroke:#333333;stroke-width:1px;stroke-linecap:round;stroke-linejoin:round;stroke-opacity:1"
           d="m -112.86092,127.15101 c -0.74388,0.0215 -1.46366,0.25266 -1.72265,0.66406 l -1.61524,2.56445 0.01,0.002 c -0.63884,0.53958 -0.0828,2.3124 0.28711,2.40429 l 0.12891,0.0312 -0.13672,0.30274 c -0.35248,0.40329 -0.24206,1.14651 0.75,1.39453 l 12.31641,3.03125 c 0.83576,0.23401 1.52862,-0.0823 1.73632,-0.49805 l 0.0176,0.004 0.002,-0.0469 c 0.0502,-0.12133 0.0599,-0.24853 0.0195,-0.37304 l 0.008,-0.15821 0.1211,0.0293 c 0.45372,0.11271 1.76235,-1.56779 1.390623,-2.24805 l -0.353515,-2.59179 c -0.105928,-0.87118 -0.789048,-1.51843 -1.503908,-1.70313 l -10.4668,-2.70508 c -0.30724,-0.0794 -0.65015,-0.11328 -0.98828,-0.10351 z" />
      </g>
      <g
         id="g106999"
         transform="translate(-46.668527,-19.861787)">
        <path
           style="opacity:1;fill:url(#linearGradient2251);fill-opacity:1;stroke:none;stroke-width:1px;stroke-linecap:butt;stroke-linejoin:miter;stroke-opacity:1"
           d="m -69.401066,150.27385 1.614746,-2.56493 c 0.37672,-0.5984 1.727746,-0.81454 2.710915,-0.56052 l 10.466381,2.70415 c 0.71486,0.1847 1.398249,0.8327 1.50418,1.70388 l 0.384335,2.82451 z"
           id="path897"
           sodipodi:nodetypes="csssscc" />
        <path
           style="opacity:1;fill:url(#linearGradient18621);fill-opacity:1;stroke:none;stroke-width:1px;stroke-linecap:butt;stroke-linejoin:miter;stroke-opacity:1"
           d="m -69.104464,152.6788 c -0.46927,-0.11657 -1.240304,-2.93868 0.511875,-2.51595 l 15.483395,3.73555 c 1.210998,0.29216 -0.500766,2.62945 -1.033233,2.49718 z"
           id="path17604"
           sodipodi:nodetypes="sssss" />
        <path
           style="opacity:1;fill:url(#linearGradient56174);fill-opacity:1;stroke:none;stroke-width:1px;stroke-linecap:butt;stroke-linejoin:miter;stroke-opacity:1"
           d="m -69.263471,153.27549 0.725301,-1.52873 c 0.105505,-0.22237 0.408874,-0.54406 1.02143,-0.39595 l 12.648924,3.05825 c 0.399798,0.0967 0.683387,0.43598 0.659904,0.89309 l -0.04311,1.46256 z"
           id="path16995"
           sodipodi:nodetypes="csssscc" />
        <path
           style="opacity:1;fill:url(#linearGradient36157);fill-opacity:1;stroke:none;stroke-width:1px;stroke-linecap:butt;stroke-linejoin:miter;stroke-opacity:1"
           d="m -68.263094,152.77333 13.291192,3.19266 c 1.5,0.5 0.448865,1.90027 -1.073715,1.47395 l -12.31686,-3.03213 c -1.5,-0.375 -0.990019,-1.88588 0.09938,-1.63448 z"
           id="path14937"
           sodipodi:nodetypes="cccccc" />
      </g>
    </g>
  </g>
</svg>
