<?xml version="1.0" encoding="UTF-8" standalone="no"?>
<svg
   width="256"
   height="256"
   viewBox="0 0 256 256"
   version="1.1"
   id="svg8"
   inkscape:version="1.1.2 (0a00cf5339, 2022-02-04)"
   sodipodi:docname="tablet.svg"
   inkscape:export-filename="input-tablet.png"
   inkscape:export-xdpi="96"
   inkscape:export-ydpi="96"
   xmlns:inkscape="http://www.inkscape.org/namespaces/inkscape"
   xmlns:sodipodi="http://sodipodi.sourceforge.net/DTD/sodipodi-0.dtd"
   xmlns:xlink="http://www.w3.org/1999/xlink"
   xmlns="http://www.w3.org/2000/svg"
   xmlns:svg="http://www.w3.org/2000/svg"
   xmlns:rdf="http://www.w3.org/1999/02/22-rdf-syntax-ns#"
   xmlns:cc="http://creativecommons.org/ns#"
   xmlns:dc="http://purl.org/dc/elements/1.1/">
  <defs
     id="defs2">
    <linearGradient
       inkscape:collect="always"
       id="linearGradient184664">
      <stop
         style="stop-color:#93a3df;stop-opacity:1"
         offset="0"
         id="stop184660" />
      <stop
         style="stop-color:#93a3df;stop-opacity:0"
         offset="1"
         id="stop184662" />
    </linearGradient>
    <linearGradient
       inkscape:collect="always"
       id="linearGradient142823">
      <stop
         style="stop-color:#9f9f9f;stop-opacity:1"
         offset="0"
         id="stop142819" />
      <stop
         style="stop-color:#dbdbdb;stop-opacity:1"
         offset="1"
         id="stop142821" />
    </linearGradient>
    <linearGradient
       inkscape:collect="always"
       id="linearGradient136502">
      <stop
         style="stop-color:#eeeefb;stop-opacity:1"
         offset="0"
         id="stop136498" />
      <stop
         style="stop-color:#b9b9b9;stop-opacity:1"
         offset="1"
         id="stop136500" />
    </linearGradient>
    <linearGradient
       inkscape:collect="always"
       id="linearGradient97900">
      <stop
         style="stop-color:#ffffff;stop-opacity:1"
         offset="0"
         id="stop97896" />
      <stop
         style="stop-color:#9c9cff;stop-opacity:1"
         offset="1"
         id="stop97898" />
    </linearGradient>
    <linearGradient
       inkscape:collect="always"
       id="linearGradient84705">
      <stop
         style="stop-color:#69696b;stop-opacity:1"
         offset="0"
         id="stop84701" />
      <stop
         style="stop-color:#9999cb;stop-opacity:1"
         offset="1"
         id="stop84703" />
    </linearGradient>
    <linearGradient
       inkscape:collect="always"
       id="linearGradient69236">
      <stop
         style="stop-color:#2d84db;stop-opacity:1"
         offset="0"
         id="stop69232" />
      <stop
         style="stop-color:#4594e3;stop-opacity:1"
         offset="1"
         id="stop69234" />
    </linearGradient>
    <linearGradient
       inkscape:collect="always"
       id="linearGradient34220">
      <stop
         style="stop-color:#2d85db;stop-opacity:1"
         offset="0"
         id="stop34216" />
      <stop
         style="stop-color:#baedf9;stop-opacity:1"
         offset="1"
         id="stop34218" />
    </linearGradient>
    <linearGradient
       inkscape:collect="always"
       id="linearGradient15964">
      <stop
         style="stop-color:#ffffff;stop-opacity:1"
         offset="0"
         id="stop15960" />
      <stop
         style="stop-color:#4796e4;stop-opacity:0.00101839"
         offset="1"
         id="stop15962" />
    </linearGradient>
    <linearGradient
       inkscape:collect="always"
       id="linearGradient2955">
      <stop
         style="stop-color:#0264ca;stop-opacity:1"
         offset="0"
         id="stop2951" />
      <stop
         style="stop-color:#c1f4ff;stop-opacity:1"
         offset="1"
         id="stop2953" />
    </linearGradient>
    <linearGradient
       inkscape:collect="always"
       xlink:href="#linearGradient2955"
       id="linearGradient2957"
       x1="24.479174"
       y1="17.558094"
       x2="21.895329"
       y2="11.554"
       gradientUnits="userSpaceOnUse"
       gradientTransform="translate(1,3)" />
    <radialGradient
       inkscape:collect="always"
       xlink:href="#linearGradient15964"
       id="radialGradient15966"
       cx="31.567709"
       cy="8.7382793"
       fx="31.567709"
       fy="8.7382793"
       r="3.0544955"
       gradientTransform="matrix(1.6590264,0,0,1.9510234,-19.803953,-5.5485885)"
       gradientUnits="userSpaceOnUse" />
    <linearGradient
       inkscape:collect="always"
       xlink:href="#linearGradient34220"
       id="linearGradient34222"
       x1="9.6436214"
       y1="21.727983"
       x2="9.6436214"
       y2="18.750189"
       gradientUnits="userSpaceOnUse"
       gradientTransform="translate(1,3)" />
    <linearGradient
       inkscape:collect="always"
       xlink:href="#linearGradient2955"
       id="linearGradient61354"
       gradientUnits="userSpaceOnUse"
       x1="16.718599"
       y1="19.727787"
       x2="14.953587"
       y2="15.957694"
       gradientTransform="translate(1,3)" />
    <linearGradient
       inkscape:collect="always"
       xlink:href="#linearGradient69236"
       id="linearGradient69238"
       x1="22.850496"
       y1="12.14579"
       x2="29.258345"
       y2="12.082507"
       gradientUnits="userSpaceOnUse" />
    <linearGradient
       inkscape:collect="always"
       xlink:href="#linearGradient84705"
       id="linearGradient84707"
       x1="-72.398987"
       y1="8.6473637"
       x2="-49.48629"
       y2="36.465122"
       gradientUnits="userSpaceOnUse"
       gradientTransform="translate(42)" />
    <linearGradient
       inkscape:collect="always"
       xlink:href="#linearGradient97900"
       id="linearGradient97902"
       x1="-70.427734"
       y1="12.04888"
       x2="-52.87846"
       y2="34.281532"
       gradientUnits="userSpaceOnUse"
       gradientTransform="translate(42,-0.5)" />
    <linearGradient
       inkscape:collect="always"
       xlink:href="#linearGradient136502"
       id="linearGradient112534"
       x1="-9.4473257"
       y1="33.594067"
       x2="-10.240183"
       y2="8.2163296"
       gradientUnits="userSpaceOnUse" />
    <linearGradient
       inkscape:collect="always"
       xlink:href="#linearGradient136502"
       id="linearGradient126618"
       x1="-10.91998"
       y1="34.5"
       x2="-28.003145"
       y2="34.5"
       gradientUnits="userSpaceOnUse" />
    <linearGradient
       inkscape:collect="always"
       xlink:href="#linearGradient142823"
       id="linearGradient142825"
       x1="-31.812998"
       y1="41.5"
       x2="-31.818781"
       y2="8.281146"
       gradientUnits="userSpaceOnUse" />
    <linearGradient
       inkscape:collect="always"
       xlink:href="#linearGradient142823"
       id="linearGradient157680"
       x1="-10.194174"
       y1="4.3095293"
       x2="-32.551048"
       y2="7.9406219"
       gradientUnits="userSpaceOnUse" />
    <linearGradient
       inkscape:collect="always"
       xlink:href="#linearGradient184664"
       id="linearGradient184666"
       x1="-21.177523"
       y1="23.213099"
       x2="-16.570833"
       y2="23.213099"
       gradientUnits="userSpaceOnUse" />
    <filter
       inkscape:collect="always"
       style="color-interpolation-filters:sRGB"
       id="filter221424"
       x="-0.045842081"
       y="-0.050371116"
       width="1.0916842"
       height="1.1007422">
      <feGaussianBlur
         inkscape:collect="always"
         stdDeviation="4.6224116"
         id="feGaussianBlur221426" />
    </filter>
  </defs>
  <sodipodi:namedview
     inkscape:guide-bbox="true"
     id="base"
     pagecolor="#ffffff"
     bordercolor="#666666"
     borderopacity="1.0"
     inkscape:pageopacity="0.0"
     inkscape:pageshadow="2"
     inkscape:zoom="0.70710678"
     inkscape:cx="-857.01343"
     inkscape:cy="-458.2052"
     inkscape:document-units="px"
     inkscape:current-layer="layer1"
     inkscape:document-rotation="0"
     showgrid="false"
     units="px"
     inkscape:window-width="3840"
     inkscape:window-height="2043"
     inkscape:window-x="1920"
     inkscape:window-y="0"
     inkscape:window-maximized="1"
     inkscape:snap-bbox="true"
     inkscape:bbox-nodes="true"
     fit-margin-top="0"
     fit-margin-left="0"
     fit-margin-right="0"
     fit-margin-bottom="0"
     inkscape:bbox-paths="false"
     inkscape:snap-global="true"
     showguides="false"
     inkscape:pagecheckerboard="0"
     inkscape:snap-grids="true"
     inkscape:object-paths="true"
     inkscape:snap-smooth-nodes="false">
    <inkscape:grid
       type="xygrid"
       id="grid1504"
       originx="0"
       originy="0" />
    <inkscape:grid
       type="xygrid"
       id="grid1507"
       spacingx="0.5"
       spacingy="0.5"
       originx="0"
       originy="0" />
  </sodipodi:namedview>
  <metadata
     id="metadata5">
    <rdf:RDF>
      <cc:Work
         rdf:about="">
        <dc:format>image/svg+xml</dc:format>
        <dc:type
           rdf:resource="http://purl.org/dc/dcmitype/StillImage" />
      </cc:Work>
    </rdf:RDF>
  </metadata>
  <g
     inkscape:label="Layer 1"
     inkscape:groupmode="layer"
     id="layer1"
     transform="translate(-12.567709)">
    <path
       id="path221381"
       style="color:#000000;fill:#0d1a33;stroke-width:8.19252;stroke-linecap:round;stroke-linejoin:round;-inkscape-stroke:none;filter:url(#filter221424);fill-opacity:1"
       d="m 147.19662,21.902225 c -0.74529,-0.04089 -1.48388,-0.03383 -2.28711,0.07031 L 24.602865,37.56824 c -2.781952,0.360699 -4.842144,2.407512 -5.796875,4.277344 -0.954731,1.869832 -1.238281,3.71726 -1.238281,5.439453 a 4.0966697,4.0966697 0 0 0 0.0059,0.212891 L 26.907553,225.8241 c 0.162787,3.10944 1.357906,5.91644 4.259765,7.45703 l -0.02148,-0.01 15.0625,8.10743 a 4.0966697,4.0966697 0 0 0 0.294922,-0.006 l -0.08789,0.0547 c 0.801232,0.37455 2.038518,1.0122 4.029297,0.50391 L 173.05404,210.62293 c 2.17916,-0.55641 3.32811,-1.92864 4.12695,-3.26563 0.79884,-1.33698 1.28203,-2.82426 1.22656,-4.58594 l -3.10546,-98.70507 0.61523,-0.27344 h 16.03711 a 1.6386688,1.6386688 0 0 0 0.67773,-0.14844 l 60.08008,-27.306638 c 4.28387,-1.947214 6.36065,-6.371152 6.77149,-11.261719 0.41085,-4.890567 -0.70439,-10.441223 -2.89844,-15.53711 -2.19406,-5.095885 -5.47123,-9.748 -9.63672,-12.675781 -3.12412,-2.195835 -6.84264,-3.360622 -10.73828,-2.849609 -1.29855,0.170337 -2.61506,0.526988 -3.9375,1.09375 l -11.87696,5.089844 -6.77148,-4.195313 c -1.5769,-0.976931 -3.71535,-1.702269 -5.9668,-1.431641 -0.75048,0.09021 -1.51448,0.292076 -2.27343,0.63086 l -26.72071,11.925781 c -2.84098,1.268152 -4.73242,3.909479 -4.73242,6.662109 v 6.712891 l -0.81445,-25.869141 a 4.0966697,4.0966697 0 0 0 0,-0.002 c -0.0709,-2.241534 -0.9832,-3.485939 -2.11914,-4.675781 -0.82152,-0.860492 -2.04464,-1.542611 -3.5,-1.927734 a 4.0966697,4.0966697 0 0 0 -0.23047,-0.216797 L 149.55794,22.28499 a 4.0966697,4.0966697 0 0 0 -0.0234,-0.0078 c -0.9189,-0.280575 -1.59119,-0.334019 -2.33789,-0.375 z" />
    <g
       id="g221129"
       transform="matrix(5.461681,0,0,5.461681,203.15406,-1.6464574)">
      <path
         id="path204723"
         style="fill:#484848;fill-opacity:1;stroke:#484848;stroke-width:1.5;stroke-linecap:round;stroke-linejoin:round;stroke-miterlimit:4;stroke-dasharray:none;stroke-opacity:1"
         d="m -23.769531,4.328125 c -0.09641,-0.00529 -0.197342,-0.00307 -0.28125,0.00781 l -22.027344,2.8554687 c -0.4603,0.059681 -0.634766,0.6093981 -0.634766,1.0351563 l 1.708985,32.65039 c 0.01872,0.357574 0.185422,0.637394 0.382812,0.742188 l 2.757813,1.484375 v -0.0098 c 0.08242,0.03853 0.164657,0.06272 0.234375,0.04492 l 22.449218,-5.732422 c 0.229267,-0.05854 0.425217,-0.395261 0.416016,-0.6875 l -0.96875,-30.7851557 c -0.007,-0.221208 -0.283365,-0.5594233 -0.574219,-0.5527344 l 0.0293,-0.00391 -3.242187,-1.0117187 c -0.06221,-0.018995 -0.153593,-0.031818 -0.25,-0.037109 z"
         transform="translate(12.567709)" />
      <g
         id="g110535"
         style="opacity:1"
         transform="translate(0.25411293,0.295155)">
        <path
           style="fill:url(#linearGradient142825);fill-opacity:1;stroke:none;stroke-width:1px;stroke-linecap:butt;stroke-linejoin:miter;stroke-opacity:1"
           d="M -34.399207,7.9312932 -32.6903,40.581582 c 0.01872,0.357574 0.186338,0.63697 0.383728,0.741765 l 2.757763,1.484299 0.03754,-33.8846629 z"
           id="path109011"
           sodipodi:nodetypes="cssccc" />
        <path
           style="fill:url(#linearGradient157680);fill-opacity:1;stroke:none;stroke-width:1px;stroke-linecap:butt;stroke-linejoin:miter;stroke-opacity:1"
           d="m -7.9641083,5.082654 -23.1688857,3.6812782 -3.266213,-0.832639 c 0,-0.4257582 0.173622,-0.9757411 0.633922,-1.0354223 l 22.0276,-2.856037 c 0.167817,-0.021759 0.407328,-0.00871 0.531747,0.02928 z"
           id="path108697"
           sodipodi:nodetypes="cccsssc" />
        <path
           style="fill:url(#linearGradient84707);fill-opacity:1;stroke:none;stroke-width:1px;stroke-linecap:butt;stroke-linejoin:miter;stroke-opacity:1"
           d="m -31.403314,9.1664639 1.453277,33.1111581 c 0.01342,0.305829 0.398581,0.625394 0.634112,0.565256 l 22.450101,-5.732187 c 0.2292669,-0.05854 0.4247073,-0.395465 0.4155063,-0.687704 L -7.41954,5.638988 C -7.4268512,5.4067731 -7.7298534,5.0411541 -8.0361486,5.085852 L -30.706434,8.3941459 c -0.381334,0.055648 -0.715345,0.3516213 -0.69688,0.772318 z"
           id="path84534"
           sodipodi:nodetypes="sssssssss" />
        <path
           style="fill:url(#linearGradient97902);fill-opacity:1;stroke:none;stroke-width:1px;stroke-linecap:butt;stroke-linejoin:miter;stroke-opacity:1"
           d="M -29.313757,10.490804 -27.956424,38.501968 -9.432291,34 -10.68198,7.5624765 Z"
           id="path97691"
           sodipodi:nodetypes="ccccc" />
        <path
           style="fill:url(#linearGradient126618);fill-opacity:1;stroke:none;stroke-width:1px;stroke-linecap:butt;stroke-linejoin:miter;stroke-opacity:1"
           d="m -27.978527,38.261991 18.5309043,-4.534341 0.458564,0.658686 -18.9549143,4.779104 z"
           id="path107958"
           sodipodi:nodetypes="ccccc" />
        <path
           style="fill:url(#linearGradient112534);fill-opacity:1;stroke:none;stroke-width:1px;stroke-linecap:butt;stroke-linejoin:miter;stroke-opacity:1"
           d="M -10.68198,7.5624765 -9.8065287,33.8292 -8.9890587,34.386336 -9.8687679,7.4256696 Z"
           id="path107762"
           sodipodi:nodetypes="ccccc" />
      </g>
      <path
         style="fill:url(#linearGradient184666);fill-opacity:1;stroke:none;stroke-width:1px;stroke-linecap:butt;stroke-linejoin:miter;stroke-opacity:1"
         d="m -22.254012,22.479626 3.618085,1.673763 c 2.758721,-0.07814 1.883778,-1.119332 2.065094,-1.880579 z"
         id="path184421"
         sodipodi:nodetypes="cccc" />
      <g
         id="g184386"
         transform="translate(-28.033566,-3.2271904)">
        <path
           style="fill:url(#linearGradient69238);fill-opacity:1;stroke:#0040a6;stroke-width:0.6;stroke-linecap:round;stroke-linejoin:round;stroke-miterlimit:4;stroke-dasharray:none;stroke-opacity:1"
           d="m 22.067709,15.5 v -2.85523 c 0,-0.337622 0.280848,-0.763633 0.688776,-0.945724 l 4.892358,-2.1838607 c 0.441437,-0.1970493 0.90522,-0.072453 1.228298,0.1277023 L 31.067709,11"
           id="path62389"
           sodipodi:nodetypes="cssssc" />
        <path
           style="fill:url(#linearGradient2957);fill-opacity:1;stroke:none;stroke-width:1px;stroke-linecap:round;stroke-linejoin:round;stroke-opacity:1"
           d="m 11.067709,20.5 10,-5 1,-1.5 10.5,-4.5 c 3.5,-1.5 6.154152,5.793567 3.5,7 l -11,5 h -3 l -9,4 h -7 z"
           id="path980"
           sodipodi:nodetypes="cccssccccc" />
        <path
           style="fill:url(#radialGradient15966);fill-opacity:1;stroke:none;stroke-width:1px;stroke-linecap:butt;stroke-linejoin:miter;stroke-opacity:1"
           d="m 36.067709,16.5 1,-2 -0.5,-2.5 -1,-2 -3,-0.5 c -1.277849,0.564304 -1.704408,1.615134 -1.591651,2.742278 0.241893,2.418029 2.965812,5.187267 5.091651,4.257722 z"
           id="path2529"
           sodipodi:nodetypes="cccccsc" />
        <path
           style="fill:url(#linearGradient61354);fill-opacity:1;stroke:none;stroke-width:1px;stroke-linecap:round;stroke-linejoin:round;stroke-opacity:1"
           d="m 11.067709,20.5 10,-5 c 0.427555,2.151345 1.272042,4.134827 2.410384,6 h -1.410384 l -9,4 h -7 z"
           id="path61120"
           sodipodi:nodetypes="ccccccc" />
        <path
           style="fill:url(#linearGradient34222);fill-opacity:1;stroke:none;stroke-width:1px;stroke-linecap:butt;stroke-linejoin:miter;stroke-opacity:1"
           d="m 11.067709,20.5 c 0.10876,1.695466 0.805472,3.360582 2,5 h -7 z"
           id="path2378"
           sodipodi:nodetypes="cccc" />
        <path
           style="fill:none;fill-opacity:1;stroke:#0040a6;stroke-width:0.6;stroke-linecap:round;stroke-linejoin:round;stroke-miterlimit:4;stroke-dasharray:none;stroke-opacity:1"
           d="m 11.067709,20.5 10,-5 1,-1.5 10.5,-4.5 c 3.5,-1.5 6.154152,5.793567 3.5,7 l -11,5 h -3 l -9,4 h -7 z"
           id="path26207"
           sodipodi:nodetypes="cccssccccc" />
      </g>
    </g>
  </g>
</svg>
